<svg xmlns="http://www.w3.org/2000/svg" width="900" height="600"><path d="M 0,0 H 900 V 600 H 0" fill="#ff0"/><path d="m -1e-5,220 h 900.00002 m 0,80 H -10e-6 m 0,80 h 900.00002" stroke="#da251d" stroke-width="40"/><g transform="translate(-2.7822242e-6,-0.68217451)"><path d="m 453.95662,109.35742 0.3184,15.9961 c 0,0 15.6322,-0.20827 30.8281,4.80859 7.598,2.50843 14.851,6.28918 19.9531,11.49609 5.1021,5.20691 8.3863,11.6144 8.5157,21.46485 0.1697,12.92235 -5.7261,19.61978 -17.1836,25.86523 -11.4575,6.24546 -28.2306,10.34509 -45.3653,14.15234 -17.1346,3.80726 -34.5854,7.30933 -48.5683,14.16797 -6.9915,3.42933 -13.251,7.79297 -17.7149,13.93555 -4.4638,6.14258 -6.7407,14.06882 -6.0547,22.69531 0.7237,9.09934 4.6649,16.92241 10.5879,22.41211 5.9231,5.4897 13.4341,8.81434 21.6231,11.06836 16.3779,4.50804 36.0674,4.91797 55.2012,5.47266 19.1337,0.55468 37.7355,1.28422 50.123,4.90234 6.1938,1.80906 10.6291,4.26453 13.2402,7.05078 2.6112,2.78625 3.9864,5.87371 3.8321,11.54688 -0.1238,4.5503 -1.4863,6.57247 -5.6875,9.23437 -4.2012,2.66191 -11.5056,4.91117 -20.7969,6.31055 -18.5827,2.79877 -44.7132,2.57917 -71.2656,3.59766 -26.5525,1.01848 -53.6324,3.183 -75.5743,12.07422 -21.9418,8.89121 -38.943,26.33375 -40.4511,53.6582 -1.6052,29.08172 14.7955,55.32701 39.0937,74.0039 24.2983,18.6769 56.8244,30.39228 90.1817,30.94922 34.0841,0.56908 67.2842,-8.01682 92.1465,-24.03906 24.8622,-16.02224 41.6514,-40.51133 39.4609,-69.6582 -0.8663,-11.52736 -6.3567,-19.55005 -11.6582,-24.01563 -5.3015,-4.46557 -10.9121,-5.95898 -10.9121,-5.95898 l -4.0235,15.48633 c 0,0 1.983,0.48028 4.6289,2.70898 2.646,2.2287 5.4569,5.62046 6.0098,12.97852 1.6927,22.5239 -10.6332,41.12815 -32.1738,55.00976 -21.5406,13.88162 -52.0311,22.01082 -83.211,21.49024 -29.7398,-0.49654 -59.349,-11.22591 -80.6992,-27.63672 -21.3501,-16.41081 -34.1113,-37.89574 -32.8672,-60.4375 1.1928,-21.61077 12.0743,-32.25082 30.4844,-39.71094 18.4102,-7.46012 44.1507,-9.91573 70.1777,-10.91406 26.0271,-0.99833 52.2342,-0.63081 73.0352,-3.76367 10.4005,-1.56644 19.5518,-3.91282 26.9766,-8.61719 7.4248,-4.70437 12.8607,-12.81881 13.1191,-22.31641 0.2466,-9.06396 -2.7638,-17.16998 -8.1523,-22.91992 -5.3886,-5.74994 -12.5674,-9.17233 -20.4297,-11.46875 -15.7248,-4.59284 -35.0048,-4.9842 -54.1446,-5.53906 -19.1397,-0.55486 -38.1138,-1.24428 -51.4179,-4.90625 -6.6521,-1.83099 -11.7384,-4.35923 -14.9922,-7.375 -3.2539,-3.01578 -5.0705,-6.35043 -5.5156,-11.94727 -0.4275,-5.37484 0.7013,-8.78914 3.0488,-12.01953 2.3475,-3.23039 6.3035,-6.2725 11.8164,-8.97656 11.0257,-5.40813 27.7399,-9.0822 44.9941,-12.91602 17.2543,-3.83382 35.0945,-7.8406 49.5508,-15.7207 14.4563,-7.8801 25.7723,-21.32711 25.5254,-40.125 -0.1792,-13.64368 -5.4802,-24.69122 -13.084,-32.45117 -7.6037,-7.75996 -17.1763,-12.45853 -26.3652,-15.49219 -18.3778,-6.06732 -36.1641,-5.61133 -36.1641,-5.61133 z" style="line-height:normal;text-indent:0;text-align:start;text-decoration-line:none;text-decoration-style:solid;text-decoration-color:#000;text-transform:none;white-space:normal;isolation:auto;mix-blend-mode:normal;solid-color:#000;solid-opacity:1" font-weight="400" overflow="visible" color="#000" font-family="sans-serif" fill="#ff0" fill-rule="evenodd"/><path d="m 433.46414,504.53645 c -0.6204,-0.18873 -1.7866,-0.68373 -2.5916,-1.09998 -1.0883,-0.56281 -1.6858,-0.63801 -2.33,-0.29326 -1.3529,0.72405 -4.3136,0.54652 -6.426,-0.38529 -6.2005,-2.73528 -7.8141,-3.52661 -9.051,-4.43853 -0.9861,-0.72702 -1.9982,-1.0125 -3.5894,-1.0125 -1.2188,0 -3.4575,-0.38831 -4.975,-0.86288 -1.5175,-0.47457 -4.7157,-1.48707 -7.1072,-2.25 -2.3914,-0.76293 -4.8214,-1.38982 -5.4,-1.39315 -1.6085,-0.009 -8.475,-2.52162 -9.073,-3.31974 -1.4791,-1.9742 -3.6047,-2.97423 -6.3219,-2.97423 -1.4812,0 -3.315,-0.19139 -4.075,-0.42534 -0.7601,-0.23391 -2.5408,-0.75726 -3.9571,-1.16298 -1.4163,-0.40568 -3.0363,-1.09773 -3.6,-1.53783 -0.5637,-0.44006 -1.8638,-1.22598 -2.889,-1.7465 -1.0253,-0.52047 -2.6058,-1.81278 -3.5123,-2.87176 -1.8779,-2.19384 -3.1516,-3.01676 -4.7051,-3.03966 -0.6508,-0.009 -2.0025,-0.86715 -3.394,-2.15343 -1.2719,-1.17563 -2.8102,-2.56842 -3.4185,-3.09515 -0.6083,-0.52668 -1.7135,-2.01042 -2.456,-3.29715 -0.7425,-1.28673 -1.755,-2.96892 -2.25,-3.73815 -0.9987,-1.552 -5.4501,-4.83016 -6.5604,-4.83133 -1.0857,0 -4.9146,-2.69649 -4.9146,-3.45965 0,-0.37075 -0.405,-1.18899 -0.9,-1.81827 -0.495,-0.62932 -0.9,-1.48135 -0.9,-1.89351 0,-0.41211 -0.2213,-0.97055 -0.4917,-1.24098 -0.3556,-0.35559 -0.3429,-0.76976 0.046,-1.49625 0.392,-0.73238 0.4066,-1.26366 0.054,-1.96081 -0.2661,-0.52594 -0.5399,-1.75285 -0.6084,-2.72648 -0.1045,-1.48409 -0.3159,-1.82096 -1.3082,-2.08416 -2.1089,-0.55938 -3.9914,-2.27079 -3.9914,-3.62868 0,-0.68135 -0.2025,-1.36397 -0.45,-1.51693 -0.2475,-0.15297 -0.45,-0.74103 -0.45,-1.30682 0,-0.56578 -0.405,-1.39521 -0.9,-1.84318 -1.26,-1.1403 -1.26,-4.7097 0,-5.85 0.74,-0.66972 0.9,-1.38599 0.9,-4.02975 0,-1.76839 0.2161,-3.43132 0.4801,-3.69539 0.3146,-0.31461 0.3904,-2.16845 0.2198,-5.3775 -0.5383,-10.12493 -0.3814,-11.71684 1.7631,-17.89353 0.6886,-1.98334 0.695,-2.26374 0.065,-2.89345 -0.6297,-0.6297 -0.8841,-0.4868 -2.6252,1.47453 -1.0604,1.19449 -2.1305,2.52572 -2.378,2.95829 -0.4217,0.73699 -6.0136,5.91315 -10.1737,9.41721 -1.9604,1.65128 -4.7261,2.85199 -5.7244,2.48525 -0.9555,-0.35103 -0.1002,-9.96923 0.9459,-10.63722 0.7844,-0.50081 1.6633,-3.65917 1.6721,-6.00845 0.01,-1.44413 0.3302,-2.77771 0.9068,-3.72337 0.4941,-0.81036 0.8983,-2.21348 0.8983,-3.11805 0,-0.90457 0.1878,-2.26655 0.4174,-3.02663 0.2295,-0.76007 0.8703,-2.84738 1.424,-4.63847 0.8985,-2.90678 0.9433,-3.44828 0.4174,-5.04193 -0.5263,-1.59474 -0.4991,-1.91974 0.2547,-3.04347 1.1656,-1.7373 1.9354,-4.05635 1.6759,-5.04852 -0.1193,-0.45618 0.081,-1.40995 0.4441,-2.11949 0.3635,-0.70954 0.8027,-2.33699 0.976,-3.61655 0.1901,-1.40384 0.6572,-2.63613 1.1778,-3.10725 0.9292,-0.84091 1.142,-2.21556 0.4127,-2.66627 -0.5553,-0.34316 -0.5973,-2.78086 -0.054,-3.11679 0.7247,-0.44792 1.0379,-2.27043 2.1786,-12.67665 0.1926,-1.7564 0.5788,-3.47765 0.8583,-3.825 0.4473,-0.55587 0.7718,-1.87249 1.8197,-7.38156 0.1412,-0.7425 0.5301,-1.66335 0.8642,-2.04634 0.3341,-0.38299 0.9522,-1.80049 1.3736,-3.15 1.0515,-3.3674 1.4238,-3.79556 2.4738,-2.84526 0.4595,0.41585 0.8355,1.09832 0.8355,1.5166 0,0.41828 0.3736,1.09858 0.8301,1.51176 0.4566,0.41319 1.1001,1.60895 1.43,2.65725 0.3299,1.04829 0.8618,2.21935 1.1821,2.60234 0.3203,0.38299 0.9252,1.80049 1.3443,3.15 0.4191,1.34951 1.3128,3.06115 1.986,3.80365 0.6732,0.7425 1.4979,2.12982 1.8326,3.08293 0.3347,0.95311 1.168,2.13127 1.8517,2.61814 0.6838,0.48687 1.2432,1.15225 1.2432,1.47863 0,0.32638 1.1261,1.67946 2.5023,3.00686 1.3763,1.32739 2.6854,2.86341 2.9091,3.41338 0.6412,1.5762 2.2891,1.71903 4.2761,0.37061 0.947,-0.6426 2.1763,-1.28245 2.7319,-1.4219 1.1696,-0.29356 6.1236,0.0216 7.9589,0.50631 0.874,0.23082 1.4868,0.12047 2.025,-0.36464 0.7446,-0.67118 2.0574,-1.22451 7.2541,-3.0574 1.3377,-0.47186 3.3917,-0.85792 4.5643,-0.85792 1.4506,0 2.2123,-0.20924 2.3832,-0.65467 0.1382,-0.36006 1.0357,-1.05487 1.9945,-1.544 1.4541,-0.74185 2.543,-0.87578 6.5652,-0.80759 l 4.822,0.0818 1.6692,-1.73011 c 0.9181,-0.95156 2.1755,-1.93689 2.7942,-2.18962 1.6501,-0.674 6.197,-1.28235 12.825,-1.71593 9.3923,-0.61439 16.0657,-1.23894 18,-1.68457 1.0053,-0.23161 2.545,-1.10548 3.4875,-1.97943 l 1.6875,-1.56474 v -18.46081 c 0,-20.84573 0.2271,-19.57363 -3.6,-20.16651 -1.1137,-0.17254 -4.455,-0.39903 -7.425,-0.50332 -6.8188,-0.23943 -7.2684,-0.35124 -8.3117,-2.06677 -0.5514,-0.90665 -1.5106,-1.6325 -2.6798,-2.02771 -1.5931,-0.53852 -1.9958,-0.52514 -3.2181,0.10689 -0.9874,0.51061 -1.9459,0.6351 -3.2687,0.42456 -1.9419,-0.30906 -5.3917,-1.35204 -6.4723,-1.95675 -0.8416,-0.471 -3.8807,-4.72437 -5.3486,-7.48568 -1.425,-2.68059 -2.8118,-4.49729 -5.6883,-7.45181 -1.1756,-1.20751 -2.1375,-2.51352 -2.1375,-2.90226 0,-0.38873 -0.405,-1.50065 -0.9,-2.47093 -0.5706,-1.11842 -0.9,-2.65219 -0.9,-4.19033 0,-2.08184 -0.1916,-2.62668 -1.35,-3.83883 -1.181,-1.23578 -1.35,-1.73791 -1.35,-4.0106 0,-1.47718 0.3883,-3.66018 0.9,-5.06024 0.495,-1.35426 0.903,-2.87015 0.9066,-3.36864 0.015,-2.07643 1.6935,-6.24467 2.8551,-7.09083 1.0339,-0.75312 1.1883,-1.18522 1.1883,-3.32541 0,-2.51603 0.7153,-4.47817 2.0304,-5.56963 0.4069,-0.33767 1.2313,-1.58389 1.832,-2.76937 0.6353,-1.25373 1.6427,-2.44007 2.408,-2.83584 0.7237,-0.37422 1.4354,-1.037 1.5816,-1.47284 0.1463,-0.43584 1.1218,-1.29869 2.1678,-1.91744 1.0461,-0.61875 3.1177,-2.25221 4.6036,-3.62992 1.4859,-1.37771 3.6982,-3.14958 4.9162,-3.9375 2.208,-1.42822 2.233,-1.43258 8.2305,-1.43258 5.1277,0 6.2762,-0.13286 7.7799,-0.9 1.3565,-0.69202 2.6522,-0.9 5.6071,-0.9 6.0889,0 5.6777,1.31248 5.5362,-17.66825 l -0.1183,-15.85675 -19.4625,-0.11728 -19.4625,-0.11728 v -15.97022 -15.97022 h 20.4199 c 17.8639,0 20.4921,-0.087 20.9967,-0.69506 0.4867,-0.58637 0.3263,-0.95577 -1.0257,-2.3625 -0.8814,-0.91709 -2.635,-3.73938 -3.8968,-6.27176 l -2.2941,-4.60433 0.01,-5.97067 c 0.01,-6.95268 0.7517,-11.07999 2.7117,-15.07145 5.6471,-11.499866 19.7313,-15.970022 31.2092,-9.905399 1.7261,0.912042 4.3059,2.998359 6.9447,5.616139 l 4.1983,4.16503 h 5.1615 c 5.4212,0 6.0242,0.15975 9.4919,2.51469 1.4851,1.00858 2.0126,1.12108 4.1749,0.89048 3.511,-0.37442 4.4346,-0.36518 6.977,0.0698 2.7619,0.47254 3.1975,0.73026 4.0628,2.40354 0.3758,0.72681 0.9505,1.32147 1.277,1.32147 0.3266,0 0.9602,0.405 1.4082,0.9 0.448,0.495 1.3844,0.9 2.0811,0.9 0.6966,0 1.9876,0.405 2.8689,0.9 0.8813,0.495 1.9724,0.9 2.4246,0.9 0.4523,0 2.6577,1.90985 4.9011,4.24411 2.9078,3.02566 4.5408,4.37167 5.688,4.68844 1.9455,0.53717 5.6613,4.11421 5.6613,5.44985 0,0.5244 0.405,1.74732 0.9,2.7176 0.6882,1.34894 0.9,2.6522 0.9,5.53733 0,3.20168 0.1363,3.89655 0.9,4.58767 0.495,0.44797 0.9,1.2774 0.9,1.84319 0,0.56578 0.2025,1.15385 0.45,1.30681 0.2475,0.15296 0.45,0.76046 0.45,1.35 0,0.58954 0.2219,1.209 0.493,1.37659 0.305,0.18849 0.3798,0.92807 0.1962,1.93906 -0.3467,1.90923 -0.3418,7.23502 0.013,14.30782 0.2416,4.81164 0.201,5.12473 -0.9609,7.425 -1.601,3.16927 -2.7493,4.59799 -3.9351,4.89576 -0.7084,0.17788 -1.0473,0.70418 -1.2478,1.93767 -0.1784,1.09785 -0.8526,2.28477 -1.917,3.37475 -0.9029,0.92471 -1.6417,1.95438 -1.6417,2.28814 0,0.33377 -0.7132,1.43898 -1.5848,2.45603 -0.8717,1.01705 -2.3682,2.76043 -3.3257,3.87418 -0.9574,1.11375 -2.1794,2.86835 -2.7156,3.89911 -0.5361,1.03076 -1.2671,1.98628 -1.6243,2.12338 -0.3573,0.1371 -0.6496,0.54855 -0.6496,0.91433 0,1.03342 -4.3602,3.67493 -8.1793,4.9552 -3.6922,1.2377 -6.1728,1.4561 -7.6372,0.67238 -0.7385,-0.39522 -1.2391,-0.25569 -2.6898,0.74966 -0.9804,0.67939 -1.9257,1.46356 -2.1006,1.74259 -0.9216,1.46985 -9.1874,2.68245 -12.3927,1.818 -0.9153,-0.24685 -1.9301,-0.0613 -3.6,0.65818 -3.9554,1.70426 -4.4626,2.00713 -5.3032,3.16717 -0.7594,1.04807 -0.8359,3.14074 -1.1185,30.6 -0.2936,28.53403 -0.2762,29.49904 0.5465,30.22792 0.68,0.60245 2.1087,0.79488 7.1498,0.96293 3.465,0.11551 7.3125,0.45714 8.55,0.75918 1.2375,0.30204 6.0616,0.67872 10.7202,0.83707 7.1258,0.24221 8.5344,0.40306 8.8752,1.01348 0.6676,1.19586 4.2149,1.97117 6.2413,1.36406 0.9447,-0.28305 2.403,-0.51309 3.2405,-0.5112 2.0758,0.005 6.8022,1.48922 8.4289,2.64746 0.733,0.52201 2.0103,0.95554 2.8384,0.96341 0.828,0.008 1.8773,0.29607 2.3317,0.64043 0.5029,0.3811 1.3954,0.53375 2.2807,0.39008 2.278,-0.36966 6.7615,1.38959 10.5721,4.14825 0.841,0.60881 2.126,1.10693 2.8556,1.10693 1.3521,0 3.8371,1.43998 4.5727,2.64976 0.2241,0.36846 1.0847,1.34724 1.9125,2.17508 1.4839,1.48385 1.5052,1.5625 1.5052,5.55429 0,3.14087 0.1479,4.10586 0.6592,4.30206 0.3625,0.13913 1.375,1.33146 2.25,2.64964 1.5146,2.28184 1.5908,2.58373 1.5908,6.29946 0,3.22137 -0.1571,4.10252 -0.9,5.04692 -0.4998,0.63536 -0.9,1.82555 -0.9,2.67641 0,1.95478 -1.5135,4.94482 -2.6924,5.31899 -0.6252,0.19842 -0.9076,0.67977 -0.9076,1.54703 0,0.69244 -0.3741,1.74193 -0.8314,2.33218 -0.4572,0.59025 -0.975,1.66048 -1.1505,2.37829 -0.396,1.61937 -4.2803,5.33968 -7.1157,6.81527 -1.7415,0.90634 -2.7746,1.10462 -5.7554,1.10462 -2.7448,0 -4.0641,0.22 -5.397,0.9 -0.9703,0.495 -2.0487,0.9 -2.3964,0.9 -0.3477,0 -1.1182,0.38225 -1.7121,0.84944 -0.594,0.46719 -2.0894,0.96786 -3.3232,1.11262 -1.2338,0.14475 -3.6608,0.42885 -5.3933,0.63133 -1.7325,0.20248 -4.0006,0.81454 -5.0402,1.36014 -3.9324,2.06378 -5.733,2.4199 -10.8532,2.14652 -2.6436,-0.14115 -8.1479,-0.42875 -12.2316,-0.63913 -6.708,-0.34556 -8.4561,-0.58608 -12.15,-1.6717 -0.6188,-0.18185 -1.7902,-0.90632 -2.6032,-1.60993 -0.8129,-0.70361 -1.7242,-1.28205 -2.025,-1.28543 -0.3007,-0.004 -0.9871,-0.12423 -1.5252,-0.26857 -0.7656,-0.20535 -1.1308,0.0322 -1.6789,1.09213 -0.6198,1.19862 -0.6671,4.23418 -0.4106,26.36783 l 0.2899,25.01327 2.8515,2.73814 c 1.5683,1.50598 2.8515,2.90933 2.8515,3.11856 0,0.5551 5.3082,4.50237 7.0121,5.21431 0.8007,0.33455 2.4329,0.82725 3.6271,1.09487 1.1942,0.26762 2.5045,0.78814 2.9117,1.15672 0.6295,0.56964 2.5877,0.64072 13.0573,0.47397 14.9399,-0.23795 18.6407,-0.67155 21.5418,-2.52393 0.3712,-0.23704 1.5862,-0.85232 2.7,-1.36729 3.5679,-1.64969 6.75,-3.64404 6.75,-4.2305 0,-0.31324 0.9619,-1.02095 2.1375,-1.57268 2.3505,-1.10314 2.4632,-1.22104 9.675,-10.12187 0.6806,-0.84004 1.2375,-1.81427 1.2375,-2.16497 0,-0.35071 0.5602,-1.53791 1.2449,-2.63824 0.6847,-1.10034 1.715,-3.39518 2.2894,-5.09966 0.8498,-2.52105 0.9323,-3.17022 0.4427,-3.48061 -0.3311,-0.20985 -7.4293,-0.38466 -15.7737,-0.38845 -14.5355,-0.007 -15.1912,-0.0434 -15.6375,-0.8773 -0.2562,-0.47873 -0.4658,-1.18748 -0.4658,-1.575 0,-1.08246 1.6681,-2.50459 2.9378,-2.50459 0.6258,0 2.3413,-0.6075 3.8122,-1.35 1.4709,-0.7425 2.9525,-1.35 3.2924,-1.35 0.3399,0 1.0039,-0.42654 1.4753,-0.94788 0.4716,-0.52133 1.6456,-1.35021 2.6091,-1.84194 0.9634,-0.49173 2.6847,-1.53795 3.825,-2.32493 1.1403,-0.78698 2.5794,-1.68737 3.1982,-2.00088 2.2432,-1.13655 3.2302,-1.7928 4.4408,-2.95267 0.6784,-0.64993 1.4249,-1.18949 1.6588,-1.19903 0.234,-0.01 0.8339,-0.66661 1.3332,-1.46016 0.4993,-0.79355 1.4423,-1.69904 2.0957,-2.0122 0.6534,-0.31315 1.6059,-1.27776 2.1167,-2.14358 0.5109,-0.86581 1.4272,-1.80129 2.0364,-2.07884 0.6092,-0.27755 1.3342,-1.05169 1.6111,-1.7203 0.277,-0.66862 1.4062,-1.97018 2.5094,-2.89235 1.1032,-0.92217 2.4363,-2.52573 2.9624,-3.56346 0.5262,-1.03773 1.5369,-2.55195 2.2461,-3.36494 0.7092,-0.81298 1.2894,-1.85131 1.2894,-2.30739 0,-0.45609 0.3313,-1.10419 0.7362,-1.44024 0.4049,-0.33605 1.216,-1.32272 1.8025,-2.1926 0.5865,-0.86988 1.7385,-2.49286 2.5602,-3.60661 0.8216,-1.11375 2.3526,-3.74625 3.4023,-5.85 1.0497,-2.10375 2.1889,-4.33125 2.5317,-4.95 0.3427,-0.61875 1.0422,-1.88437 1.5543,-2.8125 0.5121,-0.92812 1.1254,-1.6875 1.3628,-1.6875 0.5836,0 2.25,3.33314 2.25,4.5003 0,0.51488 0.4489,1.54327 0.9975,2.28531 0.7964,1.07727 1.0495,2.18452 1.2558,5.49428 0.1894,3.03817 0.5839,4.93566 1.4776,7.10542 0.6705,1.62817 1.2191,3.71186 1.2191,4.63043 0,1.63664 1.3411,4.89752 2.2436,5.45529 0.2637,0.16297 0.4564,2.3668 0.4564,5.21909 0,4.26005 0.155,5.30538 1.1307,7.62351 0.622,1.47759 1.4149,3.77732 1.7622,5.11052 0.3472,1.33321 0.9521,3.04437 1.3442,3.80259 0.3921,0.75821 0.7129,1.7994 0.7129,2.31375 0,0.51435 0.6075,2.13863 1.35,3.60951 0.9706,1.92287 1.35,3.31522 1.35,4.9551 0,1.39271 0.3504,2.96765 0.9,4.0449 0.6626,1.29877 0.9,2.6522 0.9,5.13052 0,1.8515 0.2054,3.49331 0.4564,3.64846 0.251,0.15515 0.8477,1.04909 1.326,1.98654 0.6811,1.33512 0.897,2.83387 0.9964,6.91664 0.07,2.86671 -0.023,5.36207 -0.2062,5.54526 -0.5383,0.53834 -5.5638,-2.09526 -7.17,-3.75752 -0.8127,-0.84096 -2.1188,-1.83449 -2.9024,-2.20784 -0.7836,-0.37334 -1.9509,-1.47379 -2.5939,-2.44544 -0.643,-0.97164 -1.3887,-1.76662 -1.6572,-1.76662 -0.2684,0 -1.0555,-0.6075 -1.7491,-1.35 -0.6936,-0.7425 -1.6482,-1.35 -2.1214,-1.35 -0.4731,0 -1.455,-0.62604 -2.1819,-1.39121 -1.8317,-1.92801 -4.4075,-3.21793 -5.0811,-2.54444 -1.0551,1.05516 -0.1256,3.93565 1.27,3.93565 0.2042,0 1.801,1.42971 3.5484,3.17713 3.0946,3.09458 4.5512,5.21877 4.5803,6.67951 0.01,0.3951 0.3116,1.11144 0.675,1.59187 0.4277,0.56543 0.6607,1.93276 0.6607,3.87682 0,2.25341 0.2105,3.27126 0.8428,4.07649 0.8191,1.04299 1.1884,2.66544 1.6907,7.42848 0.1917,1.81743 0.035,2.71397 -0.7421,4.23646 -0.7358,1.44244 -0.9098,2.3395 -0.6872,3.5447 0.7062,3.82447 0.6187,6.0755 -0.3065,7.88912 -1.0817,2.12025 -2.2928,3.82391 -4.2484,5.97599 -0.7842,0.86293 -1.5561,2.08837 -1.7154,2.72319 -0.1593,0.63482 -0.6822,1.65313 -1.1618,2.26292 -0.4797,0.60978 -0.8721,1.54263 -0.8721,2.073 0,0.53037 -0.3544,1.28329 -0.7875,1.67315 -0.4331,0.38987 -1.1325,1.34612 -1.5541,2.12501 -0.4365,0.80642 -1.1272,1.41617 -1.6041,1.41617 -1.254,0 -2.3543,2.72659 -2.3543,5.83407 0,1.96614 -0.2623,3.07809 -1.0125,4.29259 -1.3472,2.18093 -5.4465,6.37034 -6.5876,6.7325 -0.5007,0.15894 -1.4425,0.92133 -2.0928,1.6942 -1.2895,1.53252 -5.0768,3.49664 -6.7423,3.49664 -1.615,0 -3.8148,2.08872 -3.8148,3.62227 0,0.71073 -0.332,1.55336 -0.7378,1.8725 -0.4057,0.31914 -1.3676,1.19263 -2.1375,1.94107 -0.7698,0.74849 -2.2097,1.59242 -3.1997,1.87538 -2.4851,0.71032 -5.1453,1.39095 -6.75,1.72701 -0.8505,0.17806 -2.3789,1.35189 -4.1306,3.17223 -1.5293,1.58926 -3.0055,2.88954 -3.2804,2.88954 -0.2749,0 -1.2937,0.405 -2.264,0.9 -0.9703,0.495 -2.3878,0.9 -3.15,0.9 -0.7622,0 -2.1797,0.405 -3.15,0.9 -0.9703,0.495 -2.3291,0.90292 -3.0196,0.90657 -1.5189,0.008 -4.3753,0.97101 -7.3485,2.47761 -1.2111,0.61371 -2.6271,1.11582 -3.1465,1.11582 -0.5195,0 -1.3303,0.20641 -1.8017,0.45873 -0.4714,0.25231 -2.0275,0.55192 -3.4579,0.66591 -5.279,0.42048 -7.949,1.34433 -8.4503,2.92383 -0.157,0.49468 -0.8289,1.02834 -1.493,1.18593 -0.6641,0.15754 -1.5561,0.58914 -1.9821,0.95908 -1.662,1.4432 -4.854,1.72229 -16.4379,1.43712 -1.1756,-0.0288 -3.6563,0.15359 -5.5125,0.40559 -3.8933,0.52852 -31.6168,0.60624 -33.3029,0.0934 z m 31.13,-4.37431 c 1.0023,-0.90707 1.0306,-1.59831 0.1363,-3.32762 -0.414,-0.80068 -1.0447,-1.32763 -1.5891,-1.32763 -0.4964,0 -1.0129,-0.28751 -1.1477,-0.63896 -0.1349,-0.3514 -1.3592,-1.31328 -2.7206,-2.1375 -1.3615,-0.82417 -3.1775,-1.95417 -4.0357,-2.51104 -1.361,-0.88317 -2.1512,-1.0125 -6.1868,-1.0125 -4.3603,0 -4.6878,0.0651 -5.6896,1.13152 -1.5022,1.59899 -0.8662,3.26633 1.7493,4.58618 1.082,0.54603 2.2967,1.28097 2.6995,1.63323 2.2409,1.96002 6.781,3.43296 10.6323,3.44943 1.7325,0.007 3.4537,0.2097 3.825,0.44964 0.9486,0.61303 1.3851,0.55777 2.3271,-0.29475 z m -22.8272,-0.56466 c 0.496,-0.80253 -0.2534,-1.64304 -3.2435,-3.63821 -1.6673,-1.11244 -3.1151,-2.22426 -3.2175,-2.47068 -0.1023,-0.24642 -0.7781,-1.04008 -1.5017,-1.76368 -0.7236,-0.7236 -1.4955,-1.78871 -1.7153,-2.36682 -0.3627,-0.95405 -0.6722,-1.0512 -3.3499,-1.0512 -2.1167,0 -3.0187,0.17838 -3.1925,0.63135 -0.2803,0.73048 1.2213,3.87715 2.2626,4.74133 0.3893,0.32315 0.7079,0.84245 0.7079,1.15403 0,2.2783 12.0978,6.628 13.2499,4.76388 z m 38.7056,-0.009 c 0.1423,-0.23018 1.4199,-0.56106 2.8391,-0.73526 6.1077,-0.74979 6.153,-1.93135 0.2256,-5.88388 -4.251,-2.83464 -4.5403,-2.93045 -10.8657,-3.59721 -3.1053,-0.32738 -6.3556,1.17769 -6.3538,2.9421 0,0.97551 3.3815,4.09275 4.4384,4.09275 0.4679,0 1.1104,0.31297 1.4279,0.69552 1.5054,1.81386 7.5782,3.63528 8.2885,2.48598 z m -56.6671,-2.75319 c 0.2986,-0.48308 -2.6634,-3.57831 -3.4243,-3.57831 -0.232,0 -1.8882,-1.49612 -3.6804,-3.32469 -3.3817,-3.45015 -4.6157,-4.32531 -6.099,-4.32531 -1.6456,0 -2.0304,1.10034 -1.0539,3.01428 1.0557,2.06937 5.1135,5.98572 6.202,5.98572 0.4242,0 1.0963,0.29412 1.4936,0.65362 1.5796,1.42956 5.9966,2.48949 6.562,1.57469 z m 74.7091,-3.54623 c 0.2351,-0.22986 1.1363,-0.48298 2.0025,-0.5625 1.2176,-0.11178 1.6066,-0.36625 1.7141,-1.1214 0.1148,-0.80608 -0.3664,-1.21806 -2.7528,-2.35701 -1.5906,-0.7591 -3.1461,-1.68642 -3.4568,-2.06068 -0.4148,-0.49982 -1.4874,-0.68049 -4.0399,-0.68049 -2.8589,0 -3.6142,0.15367 -4.2593,0.86652 -1.077,1.19007 -0.7343,2.37582 0.8055,2.78761 0.7072,0.18914 1.6481,0.67163 2.0907,1.07222 1.8076,1.63588 6.9547,2.97594 7.896,2.05573 z m -94.7403,-3.42895 c 0.4871,-1.47591 0.4386,-1.67877 -0.6401,-2.67849 -0.6419,-0.59495 -1.1671,-1.28426 -1.1671,-1.53185 0,-0.24763 -1.2656,-1.75626 -2.8125,-3.35259 -2.8051,-2.89471 -2.8204,-2.90304 -5.8098,-3.15058 -3.6061,-0.29867 -4.1442,0.30303 -2.2564,2.52319 0.6838,0.8042 1.5934,2.01906 2.0214,2.69969 0.4279,0.68062 1.0635,1.2375 1.4124,1.2375 0.3488,0 0.7581,0.39028 0.9095,0.86733 0.1514,0.477 0.9245,1.28844 1.7179,1.80319 0.7934,0.51471 2.1306,1.44068 2.9715,2.05767 2.1315,1.56375 3.0184,1.44842 3.6532,-0.47506 z m 39.6308,-5.16704 c 2.6078,-0.95319 5.5878,-1.13454 7.805,-0.47506 1.6963,0.50454 6.4537,2.09713 9.482,3.17425 2.4134,0.85838 3.787,0.56214 5.1808,-1.11735 0.3385,-0.40774 1.8272,-1.3531 3.3083,-2.10078 2.8938,-1.46079 2.5403,-1.46596 7.7429,0.11336 3.0151,0.9153 6.8961,0.1134 7.5373,-1.55736 0.1879,-0.48992 1.3335,-0.71991 4.442,-0.89186 8.6238,-0.477 8.8658,-0.54369 11.6137,-3.20134 1.3859,-1.34033 3.9057,-3.10572 5.7262,-4.0118 3.0849,-1.53531 3.4834,-1.61815 7.7849,-1.61815 4.7679,0 6.1968,-0.40788 7.8575,-2.24294 1.725,-1.90615 4.5681,-3.47634 6.7963,-3.75363 4.6826,-0.5827 6.787,-1.15938 8.6273,-2.36421 1.4722,-0.9639 1.9078,-1.52937 1.9078,-2.47662 0,-1.95093 1.8311,-4.91013 3.5955,-5.81067 0.8687,-0.44338 1.9399,-1.20465 2.3803,-1.69173 0.4405,-0.48703 1.5714,-1.233 2.5132,-1.65771 1.4307,-0.64516 2.0348,-1.39351 3.6728,-4.55026 1.2123,-2.33633 2.8721,-4.67842 4.3493,-6.1373 2.3579,-2.32859 2.389,-2.39441 2.3955,-5.07456 0.01,-2.75282 0.6815,-5.27889 2.2121,-8.27896 0.6723,-1.31792 0.795,-2.26866 0.6023,-4.66897 -0.1436,-1.78929 -0.035,-3.5227 0.2676,-4.26576 0.7818,-1.92043 0.8648,-8.8336 0.117,-9.73472 -1.4874,-1.7922 -5.4304,-0.33533 -6.53,2.41268 -0.7659,1.9143 -2.0007,3.37772 -7.3994,8.76964 -4.7951,4.78899 -5.2487,5.17563 -6.0726,5.17563 -0.3997,0 -1.1758,0.6075 -1.7247,1.35 -0.549,0.7425 -1.3297,1.35 -1.7351,1.35 -0.4053,0 -1.1721,0.46319 -1.7039,1.02932 -0.5318,0.56612 -2.6428,1.80743 -4.691,2.75845 -2.0481,0.95102 -4.0277,1.9068 -4.3989,2.12395 -0.767,0.44864 -1.6568,0.85065 -4.4009,1.98848 -1.0592,0.43921 -2.5667,1.27134 -3.3499,1.84918 -0.7832,0.57784 -1.7231,1.05062 -2.0887,1.05062 -0.3656,0 -1.0291,0.32987 -1.4747,0.73306 -0.4455,0.40318 -1.6258,0.90943 -2.6229,1.125 -4.2627,0.92156 -5.2715,1.19845 -6.7629,1.85634 -0.8663,0.38211 -2.4862,1.05149 -3.6,1.48751 -3.6555,1.43106 -9.1939,3.84218 -10.8613,4.7284 -0.8999,0.47832 -1.9738,0.86969 -2.3863,0.86969 -0.4126,0 -1.4952,0.50625 -2.4057,1.125 -0.9106,0.61875 -2.1359,1.125 -2.7229,1.125 -0.5869,0 -2.413,0.69313 -4.058,1.54026 -1.6449,0.84717 -3.6996,1.6834 -4.5658,1.85832 -2.1517,0.43452 -15.4991,7.12215 -18,9.01881 -1.1137,0.84465 -2.7779,2.09191 -3.6981,2.77168 -0.9202,0.67977 -1.7798,1.54409 -1.9102,1.92074 -0.1305,0.37665 -1.6653,2.0979 -3.4109,3.825 l -3.1737,3.14019 -1.666,-1.94315 c -5.6508,-6.59065 -11.4092,-11.55438 -14.534,-12.52831 -1.3377,-0.41693 -2.7359,-1.00346 -3.1071,-1.30338 -1.9232,-1.55367 -9.7744,-4.8524 -13.95,-5.86112 -1.6088,-0.38866 -4.7475,-1.27494 -6.975,-1.96956 -2.2275,-0.69457 -5.3662,-1.61334 -6.975,-2.04169 -1.6087,-0.42836 -4.95,-1.37825 -7.425,-2.11085 -2.475,-0.7326 -5.31,-1.55656 -6.3,-1.83102 -1.5455,-0.42846 -5.1546,-2.10122 -7.425,-3.44136 -0.3713,-0.21913 -1.1812,-0.62109 -1.8,-0.89323 -0.6187,-0.27214 -1.4287,-0.67714 -1.8,-0.9 -0.3712,-0.22286 -1.1813,-0.62786 -1.8,-0.9 -0.6187,-0.27214 -1.4288,-0.67714 -1.8,-0.9 -0.3713,-0.22286 -1.1813,-0.63734 -1.8,-0.92108 -1.62,-0.74287 -3.0271,-1.58591 -3.9344,-2.35726 -0.4348,-0.36966 -1.5024,-0.99673 -2.3723,-1.39348 -0.87,-0.39676 -2.0697,-1.24071 -2.666,-1.87544 -0.5963,-0.63474 -1.3097,-1.15407 -1.5852,-1.15407 -0.2756,0 -1.2022,-0.59927 -2.0591,-1.33172 -0.8569,-0.73244 -1.8433,-1.33994 -2.192,-1.35 -0.6098,-0.0176 -2.1378,-1.28498 -8.2952,-6.88078 -2.8228,-2.56532 -4.3458,-3.22927 -4.3458,-1.89458 0,0.38111 -0.405,1.48679 -0.9,2.45708 -0.495,0.97028 -0.9,2.47576 -0.9,3.34551 0,1.29844 0.2392,1.70504 1.3367,2.27259 1.5464,0.79969 2.2633,1.93726 2.2633,3.59143 0,0.64279 0.3112,1.28815 0.6916,1.43412 1.2277,0.47109 2.0084,2.70159 2.0084,5.73788 0,2.89807 0.015,2.93338 1.5642,3.66851 1.0784,0.51173 2.3232,1.88097 4.0078,4.40861 3.4172,5.12727 4.2519,5.81294 7.6112,6.25236 6.2818,0.82166 6.3574,0.84501 8.0756,2.49624 0.926,0.88997 2.0334,2.54052 2.4609,3.66791 1.9367,5.10844 3.49,6.32484 8.0765,6.32484 2.4456,0 5.7994,1.62558 8.0997,3.92589 0.9218,0.92178 2.3741,2.14974 3.2274,2.7288 1.3495,0.91584 1.7181,0.98379 2.8321,0.52236 1.5702,-0.65039 5.1941,0.25173 5.9675,1.48545 0.2715,0.43312 0.7172,0.7875 0.9906,0.7875 0.2734,0 0.8635,0.405 1.3115,0.9 0.448,0.495 1.0555,0.9 1.35,0.9 0.2945,0 0.8725,0.37242 1.2845,0.82755 0.6147,0.67932 1.4939,0.83893 4.9072,0.89077 4.3324,0.0659 7.3164,0.8109 8.2251,2.05358 0.2928,0.40045 0.8028,0.7281 1.1332,0.7281 0.3304,0 1.14,0.51669 1.7992,1.14817 0.6591,0.63149 1.5814,1.12158 2.0496,1.08914 6.0007,-0.41616 10.7199,-0.42359 11.1261,-0.0175 0.264,0.2641 0.8793,0.48015 1.3672,0.48015 0.4879,0 1.2777,0.35437 1.7551,0.7875 0.4775,0.43312 1.6072,1.01511 2.5105,1.29334 1.5397,0.47421 1.7154,0.42413 2.8117,-0.8014 0.6431,-0.71897 2.2603,-1.706 3.5936,-2.19335 z m 76.237,1.07091 c 2.1147,-0.35905 2.25,-0.46309 2.25,-1.73115 0,-1.42951 -0.062,-1.47388 -5.2996,-3.77955 -3.0932,-1.36174 -7.1126,-1.28821 -10.0673,0.18419 -3.0379,1.51389 -4.3168,4.26951 -1.9814,4.26951 0.453,0 1.3017,0.40536 1.8859,0.90081 0.9553,0.81004 1.5615,0.88254 6.0124,0.7195 2.7225,-0.0997 5.9625,-0.35325 7.2,-0.56331 z m -134.3284,-2.85061 c 0.37,-0.69143 0.2718,-1.29825 -0.4342,-2.68205 -0.5018,-0.9837 -0.9124,-2.10897 -0.9124,-2.50069 0,-0.90554 -3.8535,-5.04896 -5.476,-5.88794 -1.5353,-0.79393 -3.0323,-0.81787 -3.3258,-0.0532 -0.3766,0.98136 1.1083,4.49384 2.5077,5.93199 0.7281,0.74826 2.3119,2.42361 3.5197,3.72299 2.3523,2.53084 3.3603,2.89017 4.121,1.46889 z m -14.2517,-4.23504 c 0.1327,-0.34578 -0.549,-2.11766 -1.515,-3.9375 -1.0846,-2.0435 -1.7607,-3.92864 -1.7681,-4.92962 -0.01,-1.17675 -0.3816,-2.00772 -1.3618,-3.0334 -0.7425,-0.77697 -1.35,-1.63085 -1.35,-1.89752 0,-0.90103 -4.1378,-4.47331 -5.1815,-4.47331 -0.5603,0 -1.4829,0.37579 -2.0501,0.83511 -0.904,0.73201 -0.9703,0.99589 -0.5367,2.1375 0.2721,0.71631 0.4775,1.63759 0.4565,2.04727 -0.1399,2.72682 3.0911,8.72541 5.1064,9.48056 0.4777,0.17896 1.063,0.83709 1.3008,1.4625 0.2378,0.62536 0.7598,1.13706 1.16,1.13706 0.4002,0 1.2425,0.405 1.8718,0.9 1.3197,1.03806 3.5144,1.19205 3.8677,0.27135 z m 160.0551,-1.17144 c 0.9703,-0.495 2.5903,-0.9 3.6,-0.9 1.0097,0 2.6297,-0.405 3.6,-0.9 0.9703,-0.495 2.0823,-0.9 2.4712,-0.9 0.9038,0 1.4008,-1.25802 0.753,-1.9058 -0.9046,-0.90459 -3.8661,-1.68057 -6.44,-1.68741 -1.996,-0.005 -3.2745,0.34164 -5.9625,1.61816 -3.0847,1.46493 -3.4217,1.75162 -3.4217,2.91064 0,0.93978 0.3329,1.46628 1.2375,1.95701 1.6395,0.88942 2.0817,0.86899 4.1625,-0.1926 z m 21.462,-12.2252 c 0.4472,-0.39096 1.5218,-0.83875 2.388,-0.99517 1.042,-0.1881 1.8359,-0.70236 2.3458,-1.51947 0.424,-0.67937 1.2047,-1.76769 1.735,-2.41857 0.6399,-0.78548 0.8648,-1.49639 0.6688,-2.11401 -0.2773,-0.87377 -0.5341,-0.91508 -4.21,-0.67685 -4.4977,0.29151 -9.0896,1.95863 -9.0896,3.30003 0,0.42782 -0.405,1.29272 -0.9,1.92204 -1.11,1.41116 -1.162,2.88513 -0.1125,3.18987 1.6399,0.47624 6.3608,0.0234 7.1745,-0.68787 z m -201.0956,-2.57346 c 0.078,-1.08549 -0.074,-2.18911 -0.3375,-2.4525 -0.2634,-0.26334 -0.4789,-0.91323 -0.4789,-1.44409 0,-0.53091 -0.405,-1.33178 -0.9,-1.77975 -0.495,-0.44798 -0.9,-1.24826 -0.9,-1.7784 0,-1.15074 -3.3076,-4.53042 -4.0094,-4.09671 -0.72,0.44505 -0.6032,1.41516 0.4094,3.40011 0.5754,1.12788 0.9,2.65221 0.9,4.22644 0,2.22224 0.1316,2.556 1.35,3.42356 0.7425,0.5287 1.35,1.36593 1.35,1.86052 0,0.71555 0.2528,0.87017 1.2375,0.75686 1.1143,-0.12821 1.2516,-0.33881 1.3789,-2.11604 z m -13.1149,-12.57155 c 0.4912,-1.46002 0.5274,-2.09823 0.1452,-2.55873 -0.3664,-0.4415 -0.3742,-0.86566 -0.028,-1.51272 0.2647,-0.49455 0.4812,-2.70361 0.4812,-4.90902 0,-3.38669 -0.1346,-4.1317 -0.8665,-4.79403 -2.4223,-2.19214 -3.6172,0.77059 -3.6267,8.99221 -0.01,6.29464 0.2477,7.09825 2.1761,6.85935 0.808,-0.10013 1.2217,-0.60003 1.7186,-2.07706 z m 222.3257,-0.97979 c 0.6293,-0.495 1.6141,-0.9 2.1885,-0.9 1.0321,0 4.1533,-1.8409 4.7453,-2.79875 0.9817,-1.5883 -1.5937,-2.33979 -2.9358,-0.8567 -0.4204,0.4645 -1.8707,1.19253 -3.2228,1.61785 -3.0133,0.94779 -4.5085,2.07106 -4.1165,3.0925 0.3879,1.01096 1.9513,0.93849 3.3413,-0.1549 z m 5.4909,-10.45097 c 2.7422,-0.94021 8.2039,-4.8326 8.7275,-6.21988 0.2623,-0.69479 0.9581,-1.48255 1.5464,-1.75056 1.462,-0.66615 1.2015,-2.3389 -0.4546,-2.91894 -1.0141,-0.35517 -1.7861,-0.17771 -4.275,0.98257 -1.6706,0.77881 -3.8474,1.67065 -4.8374,1.98187 -3.5663,1.12112 -5.4085,4.36955 -4.2323,7.46306 0.4368,1.14907 1.2213,1.25185 3.5254,0.46188 z m -236.9646,-5.77316 c 0.6461,-0.50827 1.3907,-1.72593 1.6546,-2.70591 0.2639,-0.97998 1.037,-2.43725 1.7181,-3.23837 2.2402,-2.635 2.7738,-3.82116 2.7738,-6.16576 0,-1.66584 -0.2383,-2.50416 -0.9,-3.16583 -1.4291,-1.42914 -2.8253,-1.12794 -4.8243,1.04076 -1.6938,1.83755 -2.0332,2.62955 -3.6997,8.63424 -0.5266,1.89701 -0.3235,4.94936 0.3862,5.80439 0.7939,0.95671 1.4774,0.9086 2.8913,-0.20352 z m 240.3715,-9.42587 c 0.153,-0.2475 0.6739,-0.45 1.1577,-0.45 0.9176,0 2.3351,-0.67744 3.6829,-1.76005 0.4348,-0.34928 1.2253,-0.85553 1.7566,-1.125 0.5313,-0.26948 1.3751,-1.04098 1.8751,-1.71445 0.7623,-1.02686 0.8253,-1.40818 0.3905,-2.3625 -0.6326,-1.38847 -1.9874,-1.47892 -3.565,-0.238 -0.6293,0.495 -1.4393,0.9 -1.8,0.9 -0.3607,0 -1.1707,0.405 -1.8,0.9 -0.6293,0.495 -1.5072,0.9 -1.9508,0.9 -1.4743,0 -3.6661,3.7055 -2.9128,4.92442 0.3731,0.6037 2.7964,0.62328 3.1658,0.0256 z m 1.8,-12.6 c 0.153,-0.2475 0.9374,-0.45 1.7432,-0.45 1.234,0 1.5847,-0.25083 2.2235,-1.59027 0.9887,-2.07341 0.9612,-4.34045 -0.078,-6.41516 -0.4599,-0.91827 -0.958,-2.17583 -1.1068,-2.79458 -0.1488,-0.61875 -1.3789,-2.21834 -2.7335,-3.55466 -2.3657,-2.33382 -2.515,-2.40806 -3.7849,-1.88208 -1.3412,0.55554 -2.3387,2.09667 -2.3387,3.61324 0,0.45877 -0.4902,1.8921 -1.0893,3.18518 -1.1751,2.53648 -1.118,3.20647 0.4209,4.93832 0.5498,0.61875 1.1288,1.81445 1.2867,2.65712 0.1579,0.84266 0.5131,1.80453 0.7895,2.1375 0.5825,0.70185 4.2539,0.82409 4.6672,0.15539 z m -161.1,-1.09301 c 2.7311,-0.6953 9.0547,-4.00464 10.9024,-5.70566 1.0464,-0.96323 2.1095,-1.75134 2.3625,-1.75134 0.2531,0 0.4601,-0.25481 0.4601,-0.56625 0,-0.31144 0.8119,-1.80878 1.8041,-3.32742 l 1.8042,-2.76118 -0.1167,-22.88507 -0.1166,-22.88508 -2.025,-0.1409 c -1.1138,-0.0775 -2.2174,-0.33063 -2.4525,-0.5625 -0.2351,-0.23188 -0.8813,-0.4216 -1.4359,-0.4216 -0.5547,0 -1.1336,-0.2025 -1.2866,-0.45 -0.564,-0.9125 -2.1647,-0.40352 -4.1065,1.30573 -1.4094,1.24056 -2.552,1.83054 -3.8941,2.01069 -1.0447,0.14024 -2.7837,0.38619 -3.8645,0.54656 -1.5436,0.22905 -2.447,0.0659 -4.2121,-0.76084 l -2.247,-1.05243 -0.9629,1.12737 c -0.5296,0.62006 -1.2843,1.61639 -1.6771,2.21407 -0.5773,0.87835 -1.2675,1.15502 -3.6,1.44305 -3.5026,0.43253 -3.3756,0.43057 -5.5243,0.085 -1.8201,-0.29271 -4.9409,0.45517 -6.1619,1.47664 -1.3793,1.15391 -6.5671,2.57275 -10.3246,2.82369 l -3.825,0.25545 -0.45,1.8 c -0.2475,0.99 -0.6209,2.06464 -0.8299,2.38808 -1.052,1.62873 1.4083,4.19828 5.2209,5.45266 0.93,0.30599 1.8722,0.89512 2.0938,1.30918 0.2216,0.41406 1.3844,1.03565 2.5841,1.38133 2.5653,0.7392 6.5399,2.64682 7.0117,3.36527 0.1818,0.27692 0.3337,1.03675 0.3375,1.68852 0.01,0.91686 -0.2732,1.25842 -1.2306,1.50926 -2.8804,0.75467 -10.1191,1.21989 -21.9082,1.40804 -8.1324,0.12978 -12.7797,0.37401 -13.1625,0.69174 -1.774,1.47224 -0.1614,4.08123 6.699,10.83857 4.267,4.20287 5.631,5.29235 6.626,5.29235 0.9027,0 2.0688,0.74746 4.1703,2.67316 1.6045,1.47023 3.5069,2.81077 4.2276,2.97897 0.7207,0.1682 1.5151,0.53466 1.7654,0.81435 0.9435,1.05417 3.3641,2.53352 4.1455,2.53352 0.4467,0 1.8217,0.38619 3.0558,0.85821 3.3077,1.26522 4.7162,1.72918 6.9686,2.29553 1.1137,0.28003 2.5312,0.68009 3.15,0.88902 1.3535,0.45703 18.1107,0.30158 20.025,-0.18576 z m -78.6131,-2.56292 c 0.142,-1.22443 -0.8859,-2.64408 -1.9144,-2.64408 -0.7522,0 -1.7858,2.46011 -1.4268,3.39566 0.1892,0.49325 0.7231,0.66846 1.7387,0.57059 1.2028,-0.11591 1.4902,-0.35304 1.6025,-1.32217 z m 31.0897,-47.81757 c 2.0055,-2.13475 0.1081,-6.12651 -2.9121,-6.12651 -0.8664,0 -2.3692,-0.405 -3.3395,-0.9 -2.1459,-1.09473 -3.0513,-1.12879 -4.1271,-0.15525 -0.8318,0.75279 -1.0865,2.65911 -0.4785,3.58231 0.1818,0.27612 1.1725,0.92883 2.2016,1.45046 1.029,0.52163 1.9493,1.18329 2.045,1.47035 0.2081,0.62446 2.8211,1.62331 4.4431,1.69844 0.6918,0.032 1.5656,-0.37906 2.1675,-1.0198 z m 15.7084,-4.86651 c 0.297,-0.297 0.54,-0.97436 0.54,-1.50525 0,-2.20354 -3.4877,-3.47046 -9,-3.26932 -3.7783,0.13787 -3.8267,0.15437 -3.9649,1.35134 -0.1496,1.29551 0.7164,1.94911 4.3027,3.2475 2.1614,0.7825 7.402,0.89589 8.1222,0.17573 z m 14.9664,-3.58531 c 2.1582,-1.7344 2.3481,-3.20448 0.535,-4.14206 -0.6812,-0.35227 -1.6238,-1.06622 -2.0947,-1.58656 -0.7179,-0.79326 -1.3755,-0.94607 -4.0714,-0.94607 -1.7684,0 -3.4077,0.18807 -3.6428,0.41792 -0.2351,0.22985 -1.1362,0.48298 -2.0025,0.5625 -1.4072,0.12918 -1.575,0.2845 -1.575,1.45797 0,0.98348 0.3391,1.51212 1.35,2.10461 0.7425,0.43517 1.6593,0.80602 2.0374,0.82411 0.378,0.0181 1.1879,0.38727 1.7997,0.82039 3.0739,2.17633 5.38,2.32291 7.6643,0.48719 z m 19.5971,-5.25018 c 0.7969,-1.60244 0.2842,-2.59668 -1.7752,-3.44309 -1.0303,-0.42344 -3.2088,-1.38141 -4.841,-2.12883 -2.4264,-1.11106 -3.1392,-1.26716 -3.9079,-0.85576 -1.1965,0.64032 -3.0451,0.64418 -4.2322,0.009 -0.7143,-0.38224 -1.3138,-0.31843 -2.6439,0.28139 -0.9462,0.42665 -1.8282,1.05684 -1.96,1.40042 -0.6536,1.7032 4.9924,5.10156 8.5053,5.11941 0.746,0.004 1.6601,0.20734 2.0314,0.45232 0.3713,0.24499 2.3909,0.39376 4.488,0.33061 3.4893,-0.10507 3.8574,-0.20402 4.3355,-1.16531 z m 90.8261,-2.35364 c 1.3658,-0.51102 2.6015,-1.12033 2.7459,-1.35403 1.2819,-2.07417 -5.3535,-5.79838 -12.5813,-7.06144 -1.5602,-0.27265 -2.5142,0.7507 -2.5142,2.69698 0,1.85528 3.4513,5.33892 5.9581,6.01392 2.8392,0.76451 3.6599,0.72658 6.3915,-0.29543 z m -76.467,-0.43323 c 0.6391,-1.03406 -1.3687,-3.32388 -3.6237,-4.13273 -3.959,-1.42005 -8.3482,-0.80365 -7.6287,1.07133 0.2322,0.60515 3.2789,2.21745 6.0698,3.21214 1.2086,0.43076 4.8894,0.3237 5.1826,-0.15074 z m 15.6057,-0.72384 c 2.0457,-1.41766 2.2217,-2.76287 0.5768,-4.40783 -1.4332,-1.43318 -2.7193,-2.12615 -4.7151,-2.54063 -0.8662,-0.17989 -2.1967,-0.58007 -2.9565,-0.88928 -1.9411,-0.78996 -5.3043,0.24713 -5.5107,1.69935 -0.1447,1.01771 2.5726,4.08681 5.5422,6.2597 1.9712,1.44234 4.879,1.39239 7.0633,-0.12131 z m 43.8992,0.23725 c 0.7246,-0.27107 1.0125,-0.74349 1.0125,-1.66147 0,-1.56324 -1.1892,-2.72182 -4.4899,-4.3744 -4.1518,-2.07872 -7.0935,-2.93723 -8.3837,-2.44672 -0.6255,0.23784 -1.9336,0.3051 -2.9069,0.14947 -1.6063,-0.25686 -1.7695,-0.19218 -1.7695,0.7015 0,1.24908 4.3273,5.88057 5.4944,5.88057 0.475,0 1.8126,0.38361 2.9722,0.85247 4.4428,1.79627 5.3895,1.90168 8.0709,0.89858 z m -25.5375,-0.78214 c 2.9154,-0.5543 4.4829,-1.41887 4.7898,-2.64201 0.1476,-0.58784 0.1933,-1.11069 0.1017,-1.16187 -0.092,-0.0512 -0.7876,-0.52673 -1.5468,-1.05677 -1.3341,-0.9314 -9.6965,-3.31014 -11.6238,-3.30644 -0.5202,9e-4 -1.9584,0.36378 -3.1959,0.80618 -1.8739,0.66993 -2.274,1.01017 -2.3936,2.03575 -0.1191,1.02153 0.087,1.31185 1.2107,1.70352 0.8293,0.28908 1.4084,0.83724 1.4936,1.41388 0.105,0.70996 0.8593,1.1968 3.0643,1.97789 2.9204,1.03451 3.7449,1.0579 8.1,0.22987 z m 62.2993,-2.29204 c 0.7335,-0.7656 1.1588,-1.60669 1.0094,-1.99606 -0.142,-0.3701 -1.33,-1.39469 -2.64,-2.27686 -2.3572,-1.58743 -2.4304,-1.60388 -7.1127,-1.59731 -5.8789,0.008 -6.9354,0.44418 -7.0984,2.92889 -0.065,0.98421 0.057,2.05579 0.2697,2.3813 0.6772,1.03543 4.647,1.80142 9.551,1.84293 4.695,0.0397 4.7689,0.024 6.021,-1.28289 z m 11.9889,-3.89125 c 0.8186,-0.84459 1.7821,-1.53562 2.141,-1.53562 0.3589,0 1.7226,-0.71021 3.0304,-1.57825 2.4371,-1.61768 3.5548,-3.23322 4.0451,-5.84714 0.2616,-1.39438 0.187,-1.50636 -1.2255,-1.83887 -2.3168,-0.54535 -10.3126,-0.18589 -11.8542,0.53292 -3.1576,1.47229 -4.0438,2.2623 -4.299,3.83222 -0.139,0.85508 -0.4102,1.80953 -0.6027,2.12099 -0.2223,0.3596 0.4283,1.4774 1.7823,3.06224 3.1662,3.70601 4.3908,3.92551 6.9826,1.25151 z m -46.3159,-4.30961 c 2.0245,-0.87092 2.4879,-0.91666 4.3783,-0.43216 3.7192,0.95321 8.9665,0.81124 11.4691,-0.31031 1.937,-0.86805 2.9758,-0.98354 8.8471,-0.98354 h 6.6524 l 2.1779,-1.73189 c 1.1978,-0.95255 3.1544,-2.78195 4.3478,-4.06535 1.8779,-2.01945 2.1308,-2.5115 1.8792,-3.6567 -0.1598,-0.72779 -0.032,-2.03674 0.2827,-2.90879 0.5107,-1.41223 0.4652,-1.8083 -0.4167,-3.62344 -0.5446,-1.12085 -0.9901,-2.69253 -0.9901,-3.49262 0,-0.93061 -0.3014,-1.64295 -0.8366,-1.97718 -0.4601,-0.28735 -0.9557,-1.11779 -1.1012,-1.84541 -0.6588,-3.29399 -3.6647,-4.9664 -8.3476,-4.6443 -1.7238,0.11858 -2.1581,-0.0572 -3.6,-1.4571 -1.6139,-1.56705 -1.7134,-1.5962 -6.3646,-1.86473 -7.1088,-0.41042 -16.5731,-0.41927 -19.2703,-0.018 -2.0759,0.30883 -2.5684,0.2283 -3.6942,-0.60407 -1.6254,-1.20168 -3.5592,-1.2217 -5.8355,-0.0604 -1.4584,0.74403 -2.6522,0.9 -6.8883,0.9 h -5.1242 l -0.2594,14.5125 c -0.1632,9.13299 -0.098,14.67931 0.1771,14.9625 0.2401,0.2475 2.8065,0.59179 5.7032,0.76509 6.7347,0.40292 8.5886,0.72812 10.0569,1.76414 2.744,1.93611 3.7763,2.05402 6.757,0.77177 z m 49.4277,-9.82601 c 0.9703,-0.495 2.4904,-0.9 3.378,-0.9 1.3425,0 1.7428,-0.23577 2.3804,-1.40206 0.4216,-0.77113 1.4247,-2.20779 2.2291,-3.19258 1.7012,-2.0827 1.7208,-2.18669 0.6598,-3.49693 l -0.8027,-0.99128 -2.1223,0.94143 c -1.1673,0.51778 -3.0389,1.34642 -4.1594,1.84142 -1.1203,0.495 -2.3074,0.9 -2.6379,0.9 -0.9537,0 -4.7714,3.29715 -4.7732,4.1225 0,0.86787 2.4576,3.0775 3.4257,3.0775 0.3621,0 1.4522,-0.405 2.4225,-0.9 z m 1.9421,-14.00925 c 2.5802,-1.33684 5.2675,-3.31225 5.4993,-4.04242 0.3122,-0.9836 -0.9337,-4.82164 -1.9187,-5.91083 -1.5538,-1.71816 -4.7654,-0.20139 -5.2263,2.46833 -0.64,3.7065 -0.9395,4.69183 -1.7665,5.81032 -0.4872,0.65906 -0.7488,1.42005 -0.5814,1.69107 0.397,0.64226 2.7408,0.63259 3.9936,-0.0165 z m -7.4321,-2.73075 c 0.297,-0.297 0.54,-1.27575 0.54,-2.175 0,-0.89925 0.1466,-1.78157 0.3257,-1.96071 0.1792,-0.17914 0.361,-1.47236 0.4041,-2.87382 0.074,-2.39287 -0.025,-2.65176 -1.6227,-4.24929 -2.0479,-2.04787 -2.9111,-2.13225 -3.8205,-0.37352 -0.8935,1.72775 -0.8695,2.06143 0.2581,3.58659 0.7603,1.02839 0.8482,1.45823 0.45,2.20219 -1.2132,2.2669 0.013,6.38356 1.9019,6.38356 0.5629,0 1.2664,-0.243 1.5634,-0.54 z m -7.6476,-8.97069 c 0.5487,-4.73531 -11.858,-11.74998 -15.2895,-8.64456 -1.2148,1.09935 -1.0751,3.20965 0.2525,3.81452 0.5914,0.26949 1.2845,0.94895 1.5401,1.50991 0.5866,1.28747 4.3076,3.82858 5.6195,3.83771 0.5445,0.004 1.2937,0.20803 1.665,0.45387 0.3713,0.24584 1.89,0.39461 3.375,0.33061 2.5474,-0.10979 2.7078,-0.18339 2.8374,-1.30206 z m -35.7182,-3.47976 c 0.367,-0.70975 0.7266,-2.36591 0.7991,-3.68036 l 0.1317,-2.38991 -2.1843,-0.79228 c -1.2014,-0.43576 -2.5177,-1.0937 -2.925,-1.46209 -0.4074,-0.36839 -1.7387,-1.00848 -2.9584,-1.42244 -2.0411,-0.69268 -2.338,-0.69532 -3.7264,-0.0332 -1.9588,0.9341 -2.2348,1.76748 -1.074,3.24321 0.5187,0.65941 0.9431,1.48067 0.9431,1.82505 0,0.34436 1.1518,1.83581 2.5595,3.31431 2.5513,2.67968 2.5676,2.68819 5.1634,2.68819 2.4115,0 2.6533,-0.0954 3.2713,-1.29046 z m 16.0058,0.43683 c 1.4596,-0.26145 1.5848,-0.41391 1.7081,-2.08102 0.1149,-1.55338 -0.084,-2.00878 -1.4535,-3.33665 -1.1384,-1.10341 -2.1928,-1.63757 -3.7331,-1.89119 -1.1806,-0.19439 -2.802,-0.48496 -3.6032,-0.64571 -1.9195,-0.3851 -3.7183,0.0962 -3.7183,0.99486 0,0.39574 0.5569,1.38763 1.2375,2.20422 0.6806,0.81658 1.6013,2.00769 2.046,2.6469 0.5561,0.79939 1.2185,1.16221 2.1217,1.16221 0.8689,0 1.4824,0.31626 1.8135,0.93491 0.3428,0.64057 0.7374,0.83394 1.2533,0.61424 0.4142,-0.17636 1.4618,-0.44761 2.328,-0.60277 z m -32.625,-0.83983 c 2.7149,-0.43474 3.7241,-2.39392 2.025,-3.93155 -0.495,-0.44797 -0.9,-1.07603 -0.9,-1.39569 0,-0.68458 -4.507,-3.77931 -5.504,-3.77931 -1.5712,0 -2.2963,2.52015 -1.7959,6.24197 0.3019,2.2455 0.4366,2.45707 1.8999,2.98237 0.8663,0.31097 1.8787,0.46032 2.25,0.33189 0.3713,-0.12843 1.2825,-0.33079 2.025,-0.44968 z m -45.7675,-8.41732 c 0.1495,-3.96055 -0.159,-4.52115 -3.8676,-7.03011 -1.9691,-1.33214 -3.4215,-1.6574 -3.9054,-0.87455 -0.5815,0.94103 6.1578,11.90846 7.1218,11.58972 0.3167,-0.10471 0.5703,-1.54003 0.6512,-3.68506 z m -11.4946,2.25361 c 1.6968,-0.70897 2.3114,-1.9928 1.7011,-3.55363 -0.2073,-0.53031 -1.9085,-2.41339 -3.7805,-4.18462 -2.7201,-2.5738 -3.7791,-3.28386 -5.2742,-3.53646 -2.1258,-0.35915 -2.6375,0.0753 -2.6586,2.25687 -0.01,0.7425 -0.1282,1.77946 -0.2691,2.30436 -0.2,0.74512 -0.011,1.01581 0.8604,1.23461 0.6779,0.17014 1.7352,1.2121 2.6909,2.65203 1.4197,2.13886 2.4832,2.88517 4.8746,3.42073 0.1554,0.0348 0.9904,-0.23245 1.8554,-0.59389 z m -14.264,-4.48702 c 0.2932,-1.56298 0.02,-2.5021 -2.7216,-9.36513 -0.994,-2.48782 -1.5734,-3.27803 -3.2174,-4.3875 -2.821,-1.90388 -3.3654,-1.77527 -4.7912,1.13178 -1.392,2.83832 -1.4682,3.73628 -0.5425,6.39354 0.6199,1.77941 3.0184,4.62149 3.9002,4.62149 0.2161,0 0.6142,0.48562 0.8846,1.07914 0.6307,1.38434 1.9347,2.00224 4.3061,2.04041 1.807,0.0291 1.9051,-0.039 2.1818,-1.51373 z m 25.8511,-31.94401 c 0,-12.47851 -0.1229,-23.00851 -0.2731,-23.4 -0.5245,-1.36667 -6.4769,-0.39642 -6.4769,1.05573 0,0.69254 -2.8213,1.4915 -6.2814,1.77879 -3.0029,0.24932 -3.382,0.38588 -3.6,1.29668 -0.2222,0.92844 -1.1924,1.70696 -4.5923,3.68469 -1.5836,0.92119 -4.4263,4.39555 -4.4263,5.40978 0,0.44128 -0.282,1.03633 -0.6266,1.32234 -0.3446,0.28601 -0.8754,1.12081 -1.1796,1.8551 -0.3041,0.7343 -0.7969,1.33508 -1.095,1.33508 -0.298,0 -1.0328,0.52774 -1.6329,1.17275 -0.6,0.645 -1.5382,1.3456 -2.085,1.55687 -1.2842,0.49623 -2.9148,3.61229 -2.3539,4.4986 0.2251,0.35573 0.4123,2.23641 0.4161,4.17928 0.01,3.91212 -0.1564,3.65125 4.9889,7.9335 1.0349,0.8613 2.0865,2.01561 2.3368,2.56513 0.3085,0.67694 1.2697,1.24741 2.9807,1.76904 1.389,0.42345 2.8672,1.06095 3.2849,1.41667 0.5234,0.4458 1.2925,0.5594 2.475,0.36559 1.1902,-0.19508 2.4716,-0.002 4.1842,0.6307 1.5299,0.5651 3.5835,0.91445 5.4,0.91865 1.6123,0.004 3.7414,0.29859 4.7314,0.65524 0.99,0.35667 2.2556,0.65737 2.8125,0.66823 l 1.0125,0.0198 v -22.68819 z m -40.68,15.30819 c 0.8628,-0.86276 1.5329,-1.99118 1.5365,-2.5875 0,-0.58162 0.3113,-1.93229 0.6837,-3.00148 0.5508,-1.58143 0.5782,-2.27381 0.1472,-3.7125 -0.2914,-0.97268 -0.6767,-1.76852 -0.8561,-1.76852 -0.1795,0 -0.4322,-0.405 -0.5617,-0.9 -0.3439,-1.31514 -1.9572,-1.12577 -2.8752,0.3375 -0.427,0.68063 -1.5592,2.10857 -2.5161,3.17321 -1.3656,1.51959 -1.6909,2.19674 -1.5129,3.15 0.1247,0.66786 0.353,2.17375 0.5074,3.34642 0.5015,3.80917 2.7799,4.63017 5.4472,1.96287 z m -1.7372,-17.36941 c 1.4257,-0.98967 2.8504,-1.79967 3.1659,-1.8 1.3539,-0.001 6.8157,-3.22713 8.3617,-4.93838 1.7773,-1.96726 1.8863,-3.21813 0.3832,-4.39971 -0.8455,-0.6646 -4.1807,-0.73916 -6.1366,-0.13718 -0.7601,0.23393 -2.518,0.7501 -3.9064,1.14705 -1.49,0.42598 -3.018,1.23685 -3.7288,1.97883 -1.3513,1.41044 -2.9718,5.2851 -2.9718,7.1057 0,1.16136 1.1032,2.8431 1.865,2.8431 0.2065,0 1.542,-0.80973 2.9678,-1.79941 z m 14.9652,-16.26725 c 5.7436,-0.92647 6.951,-1.46467 7.6989,-3.43181 0.5403,-1.42107 -0.2408,-2.80153 -1.5852,-2.80153 -0.6783,0 -1.141,-0.32233 -1.2921,-0.9 -0.2005,-0.76674 -0.658,-0.91426 -3.09,-0.9963 -5.2242,-0.17625 -7.3068,0.0744 -8.0296,0.96624 -0.3712,0.45809 -1.2825,1.14123 -2.025,1.51809 -1.979,1.00441 -4.387,3.67146 -4.2002,4.65189 0.1383,0.72548 0.7298,0.86461 4.5068,1.06008 2.3912,0.12375 4.4931,0.37137 4.6708,0.55027 0.1777,0.17889 0.5471,0.18684 0.8209,0.0176 0.2737,-0.16919 1.4099,-0.45476 2.5247,-0.63458 z m 18.0243,-7.81989 c 0.7303,-0.37761 1.3277,-0.99515 1.3277,-1.37231 0,-1.20116 -2.8202,-3.62564 -6.1763,-5.30969 -4.1462,-2.08051 -6.9971,-2.22682 -9.0892,-0.46645 -0.7615,0.64076 -1.3845,1.41825 -1.3845,1.72777 0,0.69358 1.9161,1.60723 3.3707,1.60723 0.593,0 1.3438,0.35438 1.6682,0.7875 1.097,1.46428 3.4666,2.81247 4.9554,2.81939 0.8144,0.004 1.7845,0.20319 2.1557,0.44311 0.9418,0.60863 1.6384,0.55669 3.1723,-0.23655 z m 10.0246,-4.30974 c 0.8069,-0.36764 1.3469,-0.35841 2.0831,0.0356 0.8476,0.45363 1.2533,0.3521 2.7569,-0.6899 1.3513,-0.93645 1.7631,-1.52081 1.7631,-2.50203 0,-1.0346 -0.2374,-1.32931 -1.2375,-1.53604 -0.6806,-0.1407 -1.9462,-0.4457 -2.8125,-0.67778 -3.1073,-0.83246 -7.5153,-0.73534 -8.7856,0.19358 -0.843,0.61638 -0.8427,0.65494 0.016,2.25 0.4956,0.92026 1.2177,1.62287 1.6678,1.62287 0.4367,0 1.0468,0.405 1.3559,0.9 0.6324,1.01262 1.5903,1.13374 3.1925,0.4037 z m 23.618,-5.67577 c 0.1218,-1.26039 -0.023,-1.48795 -1.125,-1.76402 -0.6957,-0.17434 -2.2476,-1.0074 -3.4487,-1.85125 -2.7696,-1.9458 -4.5877,-2.24142 -7.7219,-1.25559 -2.7023,0.84997 -2.9916,1.40844 -1.4568,2.81184 2.5274,2.31103 6.5882,3.70677 10.4625,3.59608 l 3.15,-0.09 z m 14.0351,-2.30273 c 1.6445,-0.63005 2.025,-0.98481 2.025,-1.88802 0,-2.00943 -4.523,-3.8901 -11.4797,-4.7733 -1.6287,-0.20676 -2.2511,-0.0761 -3.15,0.66102 -0.959,0.78641 -1.0384,1.03617 -0.5513,1.7344 0.313,0.44863 0.9684,1.42176 1.4565,2.1625 1.7171,2.60542 7.6195,3.66659 11.6995,2.1034 z m 15.1925,-3.70155 c 5.7804,-1.2954 6.5517,-2.8031 2.4879,-4.86321 -1.3571,-0.688 -2.7249,-0.96045 -4.8218,-0.96045 -2.6326,0 -3.0874,0.14061 -4.5179,1.39662 -0.8749,0.76814 -1.5907,1.67614 -1.5907,2.01778 0,0.7673 4.9345,3.37681 5.814,3.07465 0.3515,-0.12075 1.5343,-0.42017 2.6285,-0.66539 z m 20.2728,-6.24564 c 3.1429,-1.18275 5.6351,-3.19412 5.4074,-4.36413 -0.3569,-1.83453 -5.9923,-2.46339 -11.3977,-1.27189 -1.7325,0.38189 -3.8588,0.83804 -4.725,1.01367 -1.5474,0.31374 -1.575,0.35873 -1.575,2.56933 v 2.25 l 2.0774,-0.14364 c 1.4617,-0.10107 2.1485,0.0417 2.3173,0.48166 0.3763,0.98043 4.6357,0.69182 7.8956,-0.535 z m -30.4699,-0.99174 c 0.8412,-0.28255 1.8493,-0.7888 2.24,-1.125 0.3908,-0.3362 1.707,-0.61144 2.925,-0.61163 1.5258,-2.5e-4 3.1019,-0.42012 5.0675,-1.35 1.5691,-0.74231 3.1314,-1.34965 3.4719,-1.34965 0.3404,0 1.3108,-0.6075 2.1564,-1.35 0.8457,-0.7425 1.9159,-1.35305 2.3782,-1.35678 2.0957,-0.0169 4.3803,-1.29522 6.0125,-3.36423 0.9312,-1.18051 2.5785,-2.74046 3.6606,-3.46654 1.0821,-0.72608 2.3725,-1.68558 2.8675,-2.13224 0.495,-0.44665 1.4569,-0.94378 2.1375,-1.10472 1.0403,-0.246 1.2375,-0.52883 1.2375,-1.77487 0,-1.05951 0.385,-1.8511 1.35,-2.77562 0.7425,-0.71136 1.35,-1.75422 1.35,-2.31749 0,-1.12621 2.9995,-4.29698 5.116,-5.40816 1.2335,-0.64758 1.2786,-0.78127 1.0136,-3.00106 -0.8599,-7.20451 -0.8591,-7.29778 0.089,-10.01131 1.0816,-3.09518 1.0561,-6.45834 -0.065,-8.60213 -0.4144,-0.79209 -0.7534,-1.94498 -0.7534,-2.56199 0,-0.617 -0.3748,-1.38643 -0.833,-1.70984 -0.4581,-0.32341 -1.1682,-1.2387 -1.578,-2.03398 -0.5305,-1.02966 -1.23,-1.57827 -2.4295,-1.90549 -0.9265,-0.25273 -3.0007,-1.27274 -4.6095,-2.2667 -1.6087,-0.99395 -4.0387,-2.12901 -5.4,-2.52236 -1.3612,-0.39334 -2.7787,-0.97717 -3.15,-1.2974 -0.3712,-0.32023 -1.485,-0.99228 -2.475,-1.49345 -0.99,-0.50117 -2.3948,-1.53726 -3.1217,-2.30243 l -1.3217,-1.39121 -6.7783,-0.002 c -5.9883,-0.001 -6.9506,-0.10676 -8.257,-0.9032 -1.3678,-0.834 -1.5785,-0.84986 -2.8125,-0.21176 -0.9439,0.48814 -1.3338,1.02175 -1.3338,1.82555 0,1.92863 -1.3589,4.12748 -5.5125,8.91976 -0.9281,1.07084 -1.6875,2.17033 -1.6875,2.44333 0,1.28379 2.179,1.428 21.5762,1.428 h 19.8353 l -0.1182,15.8625 -0.1183,15.8625 -17.775,0.225 -17.775,0.225 -0.1201,12.14329 c -0.066,6.67881 -0.022,12.39944 0.098,12.71251 0.271,0.7063 1.4477,0.72526 3.4421,0.0555 z m 39.1046,-9.78048 c 3.6613,-0.82274 5.5656,-2.75237 4.7679,-4.83118 -0.207,-0.53942 -0.5975,-0.64892 -1.511,-0.42374 -0.6775,0.16701 -1.8394,0.40094 -2.5819,0.51984 -4.1426,0.66335 -6.525,1.8951 -6.525,3.37351 0,1.16813 1.8021,2.30229 3.15,1.98244 0.6188,-0.14682 1.8338,-0.42622 2.7,-0.62087 z m 5.4,-9.76697 c 2.6727,-0.92133 6.9345,-2.98419 7.1305,-3.45141 0.086,-0.20387 0.6425,-0.9493 1.2375,-1.6565 0.5951,-0.70721 1.082,-1.60482 1.082,-1.99469 0,-0.38987 0.4125,-1.44322 0.9166,-2.34078 1.0095,-1.79738 0.8456,-3.09316 -0.481,-3.80316 -1.1747,-0.62868 -4.4705,0.41087 -5.0178,1.58271 -0.2312,0.495 -1.5223,1.584 -2.8691,2.41999 -1.3468,0.83599 -2.4487,1.71414 -2.4487,1.95145 0,0.2373 -1.215,1.69676 -2.7,3.24323 -2.5265,2.63108 -3.1222,3.73815 -2.4,4.46033 0.5269,0.52691 3.4589,0.30971 5.55,-0.41117 z m 6.7928,-18.07633 c 1.0802,-1.34552 1.7572,-2.76321 1.7572,-3.67983 0,-0.48376 0.2025,-1.00471 0.45,-1.15767 0.6347,-0.39226 0.5616,-4.88335 -0.09,-5.535 -0.8483,-0.84833 -1.9722,-0.63993 -3.5052,0.65001 -1.1875,0.9992 -1.3947,1.461 -1.2922,2.88016 0.067,0.92958 -0.085,1.96345 -0.3392,2.29749 -0.7525,0.9907 -1.6605,4.29641 -1.3281,4.83438 0.5004,0.8096 3.6325,0.60101 4.3475,-0.28954 z m -1.4338,-16.96628 c 0.6953,-0.35957 1.5073,-1.24061 1.8044,-1.95784 0.5733,-1.38409 0.6491,-1.13833 -2.5013,-8.10589 -1.5953,-3.52822 -3.0746,-2.99843 -4.5751,1.63845 -0.4028,1.24487 -0.3375,1.75695 0.3895,3.05118 0.4804,0.85539 0.8735,2.06247 0.8735,2.6824 0,1.38961 1.2272,3.34548 2.0991,3.34548 0.3551,0 1.2145,-0.2942 1.9099,-0.65378 z m -71.284,-11.41233 c 3.5386,-2.04028 4.296,-2.65524 4.8141,-3.90889 0.3069,-0.7425 1.3334,-2.19312 2.2809,-3.22359 1.6884,-1.83604 1.7202,-1.93525 1.589,-4.95 -0.129,-2.962 -0.1788,-3.08159 -1.3387,-3.21563 -1.5466,-0.17875 -5.4204,2.48198 -5.7701,3.96325 -0.1527,0.64704 -0.7009,1.18845 -1.39,1.37273 -2.1552,0.5764 -3.1102,1.33171 -3.1102,2.45993 0,0.84392 -0.4453,1.32297 -1.9125,2.05768 -2.0273,1.01515 -4.8375,3.44103 -4.8375,4.17597 0,0.24134 0.3351,0.80911 0.7447,1.26173 1.0297,1.13773 6.961,1.14226 8.9303,0.007 z m 61.3851,-0.42139 c 0.8635,-0.70849 0.9295,-1.07266 0.6577,-3.62969 -0.2474,-2.32686 -0.5031,-2.97959 -1.4104,-3.6 -0.6095,-0.4168 -1.9688,-1.51718 -3.0206,-2.44531 -2.5635,-2.26201 -4.8102,-2.37109 -5.8885,-0.28588 -0.7115,1.37598 -0.6994,1.4278 0.6635,2.83392 0.7635,0.78777 1.403,1.82767 1.4211,2.31088 0.085,2.25624 3.4349,5.60358 5.6088,5.60358 0.5547,0 1.4405,-0.35437 1.9684,-0.7875 z m -13.2087,-7.05114 c 0.7953,-0.58154 0.8185,-0.77264 0.2595,-2.1375 -0.3376,-0.82437 -0.7162,-2.10636 -0.8414,-2.84886 -0.1294,-0.76746 -0.9844,-2.08868 -1.9815,-3.06183 -1.5993,-1.56098 -1.9415,-1.69978 -3.8834,-1.575 -1.9727,0.12675 -2.1405,0.23205 -2.2773,1.42915 -0.081,0.71077 0.071,1.51065 0.3375,1.7775 0.2669,0.26685 0.4852,0.88436 0.4852,1.37225 0,0.48788 0.3364,1.25878 0.7475,1.7131 0.4112,0.45431 0.9733,1.28026 1.2493,1.83543 0.4694,0.94455 2.742,2.05151 4.3297,2.109 0.3858,0.014 1.0945,-0.26199 1.5749,-0.61324 z m -16.7889,-2.84783 c 2.218,-1.01064 2.5875,-1.35215 2.5875,-2.39138 0,-0.71873 -0.3739,-1.46376 -0.9183,-1.82976 -0.505,-0.33956 -1.1899,-1.42739 -1.5217,-2.41739 -1.4193,-4.23332 -6.7379,-5.1077 -9.8891,-1.62575 -0.7287,0.80528 -0.8109,1.38039 -0.5684,3.97778 0.2623,2.80831 0.4109,3.14426 1.978,4.47254 1.4955,1.2675 1.9323,1.41014 3.7195,1.21456 1.1138,-0.12187 3.1894,-0.75214 4.6125,-1.4006 z m -44.4375,-0.11353 c 0.153,-0.2475 0.6899,-0.45 1.1931,-0.45 0.5032,0 1.4298,-0.405 2.0591,-0.9 0.6293,-0.495 1.4808,-0.9 1.8922,-0.9 1.3186,0 5.4596,-4.97639 6.0208,-7.23535 0.1585,-0.6382 0.8132,-1.39953 1.4547,-1.69185 0.8391,-0.38231 1.1263,-0.81451 1.0233,-1.53965 -0.1177,-0.82873 -0.4636,-1.02839 -1.9432,-1.12185 -0.99,-0.0625 -2.5655,-0.35008 -3.501,-0.63899 -1.2977,-0.40074 -1.8259,-0.40045 -2.2275,0.001 -0.2896,0.28957 -0.9122,0.52649 -1.3837,0.52649 -0.7808,0 -3.7559,2.88788 -6.8498,6.64912 -1.106,1.34456 -1.163,1.59374 -0.6488,2.83509 0.4547,1.09778 0.4512,1.57119 -0.018,2.44804 -0.4714,0.88079 -0.473,1.21807 -0.01,1.77741 0.6437,0.77565 2.5124,0.92853 2.9377,0.24034 z" fill="#030200"/></g></svg>