<?xml version="1.0" encoding="UTF-8" ?>
<!DOCTYPE svg PUBLIC "-//W3C//DTD SVG 1.1//EN" "http://www.w3.org/Graphics/SVG/1.1/DTD/svg11.dtd">
<svg width="1225pt" height="816pt" viewBox="0 0 1225 816" version="1.1" xmlns="http://www.w3.org/2000/svg">
<path fill="#ce1126" d=" M 0.00 0.00 L 1225.00 0.00 L 1225.00 271.85 C 816.67 271.85 408.33 271.85 0.00 271.85 L 0.00 0.00 Z" />
<path fill="#ffffff" d=" M 116.05 41.39 C 146.60 49.90 175.15 64.36 201.90 81.19 C 207.69 84.91 213.52 88.56 219.03 92.68 C 214.95 95.30 211.33 98.63 207.08 100.98 C 205.55 100.24 204.20 99.21 202.85 98.21 C 175.22 77.36 146.03 58.65 116.05 41.39 Z" />
<path fill="#ffffff" d=" M 285.19 56.93 C 298.61 50.68 312.50 45.41 326.78 41.48 C 262.89 78.17 202.73 122.29 152.13 176.07 C 148.26 180.56 143.97 184.71 140.34 189.41 C 140.32 189.70 140.28 190.29 140.26 190.59 C 149.17 195.07 158.63 198.37 168.35 200.61 C 163.90 205.52 157.95 209.77 151.04 209.68 C 142.98 210.22 135.52 206.74 128.20 203.90 C 122.71 211.42 117.25 219.05 110.51 225.53 C 106.05 229.71 100.35 233.71 93.88 232.76 C 87.57 232.58 80.90 226.69 82.76 219.96 C 85.24 213.54 93.70 212.98 99.05 215.98 C 103.49 209.19 108.59 202.88 113.23 196.23 C 104.57 192.13 95.67 188.24 86.06 187.12 C 91.03 182.45 96.88 177.88 103.97 177.51 C 111.06 176.89 117.76 179.79 124.11 182.54 C 144.34 158.40 167.25 136.60 191.66 116.74 C 220.50 93.46 251.56 72.66 285.19 56.93 Z" />
<path fill="#ffffff" d=" M 223.67 114.15 C 227.79 111.18 231.53 107.67 235.87 105.02 C 236.98 105.52 237.97 106.25 238.95 106.98 C 268.02 129.40 295.24 154.38 318.84 182.55 C 325.19 179.78 331.88 176.89 338.97 177.51 C 346.05 177.89 351.92 182.41 356.85 187.12 C 347.42 188.43 338.34 191.76 330.03 196.34 C 334.25 203.15 339.62 209.19 343.91 215.97 C 348.15 213.91 353.67 213.21 357.56 216.39 C 360.92 218.75 361.42 223.74 359.11 227.02 C 355.75 232.42 348.49 233.90 342.68 232.23 C 336.53 229.99 331.83 225.21 327.56 220.44 C 323.01 215.14 318.84 209.54 314.72 203.91 C 307.42 206.75 299.99 210.21 291.96 209.68 C 285.05 209.78 279.06 205.56 274.64 200.60 C 284.41 198.34 293.93 195.01 302.88 190.49 C 302.02 187.61 299.35 185.74 297.52 183.47 C 275.00 158.24 249.88 135.46 223.67 114.15 Z" />
<path fill="#ffffff" d=" M 0.00 271.85 C 408.33 271.85 816.67 271.85 1225.00 271.85 L 1225.00 544.20 C 816.67 544.20 408.33 544.20 0.00 544.20 L 0.00 271.85 Z" />
<path fill="#030303" d=" M 600.88 282.22 C 606.27 276.73 615.46 277.56 621.46 281.60 C 627.16 285.04 629.21 292.03 629.95 298.25 C 630.93 302.83 629.38 307.40 629.64 312.00 C 629.22 322.13 632.03 332.46 637.70 340.89 C 644.05 340.27 650.43 339.15 656.21 336.28 C 662.39 333.16 668.25 329.22 675.01 327.37 C 678.86 325.89 683.02 326.27 687.06 326.27 C 691.92 326.21 696.43 329.72 698.12 334.20 C 700.43 339.85 700.10 346.06 700.25 352.03 C 701.17 358.32 700.21 364.71 701.27 370.98 C 701.05 378.68 701.98 386.32 701.91 394.02 C 702.89 399.56 702.35 405.19 702.66 410.79 C 703.70 416.80 702.73 422.93 703.70 428.95 C 703.39 435.98 704.62 442.93 704.35 449.95 C 704.21 453.31 704.78 456.62 705.07 459.96 C 704.77 462.98 704.75 466.04 705.22 469.05 C 706.04 473.82 705.30 478.68 705.78 483.48 C 706.69 488.71 705.77 494.05 706.74 499.28 C 705.84 499.38 704.96 499.48 704.08 499.58 C 696.24 491.49 687.60 484.25 679.52 476.41 C 675.92 473.60 673.16 469.85 669.39 467.25 C 665.45 463.21 661.24 459.47 657.06 455.69 C 660.37 467.11 663.42 478.59 666.72 490.01 C 669.53 489.22 672.49 487.75 675.46 488.80 C 678.11 489.86 681.47 490.23 683.08 492.90 C 684.98 495.55 684.97 499.01 684.34 502.09 C 687.36 503.39 689.79 505.66 691.63 508.37 C 692.90 509.11 696.11 508.72 695.24 511.05 C 695.66 512.63 693.84 513.13 693.04 514.09 C 692.34 517.41 690.64 520.31 688.36 522.78 C 687.63 525.71 686.85 529.26 683.60 530.39 C 665.53 535.69 646.57 536.38 627.92 537.48 C 613.92 537.22 599.88 538.04 585.93 536.80 C 570.88 535.86 555.56 534.73 541.11 530.09 C 537.62 529.09 537.61 525.06 536.37 522.38 C 533.98 520.04 532.59 516.98 531.93 513.73 C 531.41 513.61 530.37 513.37 529.84 513.25 C 529.82 512.30 529.77 510.39 529.74 509.44 C 530.93 509.10 532.13 508.77 533.34 508.47 C 535.14 505.69 537.61 503.41 540.66 502.09 C 539.80 498.36 540.22 493.94 543.31 491.32 C 545.18 490.06 547.45 489.58 549.55 488.79 C 552.51 487.75 555.46 489.22 558.28 490.01 C 561.34 479.09 564.53 468.19 567.36 457.21 C 560.72 463.17 553.98 469.04 547.59 475.26 C 542.56 479.08 538.37 483.89 533.38 487.74 C 529.44 491.92 524.75 495.31 520.91 499.58 C 520.02 499.47 519.13 499.38 518.26 499.28 C 519.18 493.56 518.38 487.73 519.34 482.01 C 518.97 473.94 520.40 465.97 520.17 457.91 C 521.10 451.31 520.13 444.61 521.20 438.02 C 521.02 430.32 522.04 422.69 521.85 414.99 C 523.04 408.39 521.85 401.66 522.99 395.06 C 523.41 391.32 522.90 387.55 523.36 383.82 C 524.17 378.25 523.16 372.58 524.18 367.03 C 524.53 362.07 523.96 357.07 524.74 352.13 C 524.99 344.41 524.18 335.19 530.23 329.30 C 534.23 325.44 540.00 326.23 545.07 326.30 C 556.92 327.61 565.85 336.66 577.25 339.33 C 580.38 340.25 583.65 340.38 586.88 340.73 C 597.16 329.82 600.51 313.49 596.87 299.15 C 595.66 294.83 591.44 292.37 587.90 290.10 C 586.21 288.72 584.15 289.87 582.37 290.27 C 582.39 287.56 582.55 284.63 584.37 282.45 C 585.93 281.18 587.87 280.51 589.70 279.72 C 591.20 279.73 592.70 279.74 594.21 279.74 C 596.47 280.47 598.68 281.33 600.88 282.22 Z" />
<path fill="#c09300" d=" M 609.26 280.04 C 613.05 280.24 616.66 281.46 620.12 282.96 C 615.05 283.51 612.00 288.09 607.23 289.33 C 608.17 288.48 609.12 287.66 610.10 286.84 C 610.59 285.86 611.08 284.89 611.58 283.91 C 610.80 282.62 610.03 281.33 609.26 280.04 Z" />
<path fill="#c09300" d=" M 586.67 283.46 C 590.57 281.85 595.16 281.66 598.73 284.22 C 602.58 286.18 604.84 291.85 609.86 290.72 C 613.46 289.39 616.07 286.22 619.71 284.86 C 623.58 286.48 626.00 290.05 626.77 294.10 C 629.12 301.98 626.48 310.11 627.33 318.12 C 628.30 327.78 631.40 337.51 637.78 345.00 C 634.44 344.22 630.26 343.97 628.17 340.87 C 625.06 334.97 623.27 328.35 623.36 321.66 C 622.82 321.54 621.72 321.31 621.17 321.20 C 620.41 330.44 623.58 339.63 628.73 347.21 C 624.39 345.72 620.28 342.94 618.32 338.66 C 615.79 333.25 616.15 327.12 615.45 321.33 L 613.73 321.37 C 613.49 328.03 613.53 334.89 616.27 341.11 C 614.97 342.62 613.69 344.15 612.37 345.65 C 611.16 344.11 609.97 342.56 608.77 341.02 C 611.46 334.82 611.50 328.01 611.27 321.37 L 609.56 321.32 C 608.79 327.32 609.16 333.74 606.37 339.28 C 604.31 343.24 600.38 345.77 596.27 347.21 C 601.40 339.62 604.60 330.45 603.83 321.20 C 603.28 321.32 602.18 321.55 601.63 321.67 C 601.73 328.36 599.94 334.97 596.83 340.87 C 594.72 343.99 590.53 344.24 587.17 344.98 C 591.67 339.55 595.75 333.66 598.09 326.96 C 601.75 317.01 600.03 306.22 599.54 295.91 C 600.49 295.77 602.40 295.48 603.35 295.33 C 601.61 292.62 599.70 289.86 596.89 288.16 C 594.16 286.64 590.99 286.40 588.00 285.77 C 587.08 286.05 586.17 286.33 585.27 286.61 C 585.73 285.56 586.19 284.51 586.67 283.46 Z" />
<path fill="#9f7a01" d=" M 604.10 284.06 C 605.33 283.23 606.63 282.46 607.96 281.78 C 608.68 282.92 609.57 284.22 608.56 285.50 C 606.90 287.17 605.47 284.86 604.10 284.06 Z" />
<path fill="#c09300" d=" M 589.45 288.02 C 593.52 288.50 597.17 290.52 599.84 293.62 C 599.16 294.11 598.48 294.61 597.81 295.11 C 595.12 292.64 592.24 290.37 589.45 288.02 Z" />
<path fill="#c09300" d=" M 531.80 331.85 C 534.54 328.81 538.95 327.81 542.88 328.52 C 549.77 329.47 556.20 332.38 562.17 335.86 C 569.03 339.96 576.85 342.76 584.91 342.84 C 583.71 344.14 582.70 345.59 581.87 347.15 C 585.78 347.32 589.70 347.01 593.53 346.23 C 592.18 347.70 590.89 349.22 589.69 350.82 C 596.30 350.56 602.56 347.85 607.51 343.52 C 608.79 345.30 610.13 347.05 611.45 348.82 C 611.96 348.82 612.98 348.83 613.50 348.84 C 614.85 347.06 616.24 345.30 617.58 343.52 C 622.44 347.93 628.73 350.51 635.29 350.84 C 634.08 349.23 632.82 347.70 631.47 346.22 C 635.49 347.09 639.60 347.34 643.71 347.09 C 642.57 345.67 641.37 344.30 640.16 342.95 C 647.93 342.61 655.55 340.18 662.22 336.21 C 668.36 332.59 674.98 329.50 682.11 328.52 C 686.04 327.81 690.47 328.81 693.22 331.87 C 696.24 334.50 696.69 338.70 697.62 342.36 C 694.53 340.50 691.27 338.87 687.73 338.10 C 689.50 371.72 690.41 405.38 692.18 438.99 C 692.44 454.69 693.83 470.38 693.69 486.08 C 690.76 483.90 691.59 480.17 691.50 477.03 C 689.36 431.45 687.45 385.86 685.18 340.28 C 681.60 343.06 678.22 346.08 674.76 349.00 C 676.07 365.92 676.19 382.90 677.15 399.84 C 677.89 418.24 678.87 436.62 679.42 455.03 C 680.06 461.13 679.51 467.29 680.41 473.38 C 678.97 471.78 676.62 470.44 676.81 468.00 C 675.06 434.97 673.75 401.91 672.23 368.87 C 671.55 363.45 672.17 357.95 671.12 352.57 C 668.38 354.23 665.88 356.22 663.37 358.18 C 663.45 374.47 664.94 390.72 665.23 407.01 C 666.19 425.33 666.63 443.67 667.65 461.99 C 666.50 460.67 665.07 459.56 664.24 458.00 C 662.84 450.44 663.75 442.70 662.87 435.09 C 662.41 417.69 661.27 400.33 660.70 382.94 C 660.09 375.57 660.42 368.15 659.46 360.80 C 656.05 362.01 652.73 363.95 648.99 363.69 C 637.22 363.28 625.15 360.42 615.54 353.33 C 613.95 351.97 611.70 351.32 610.05 352.96 C 600.30 360.31 587.95 363.28 575.93 363.69 C 572.22 363.93 568.92 362.00 565.54 360.81 C 564.11 378.83 564.09 396.93 562.85 414.97 C 562.84 421.97 562.15 428.95 562.16 435.95 C 561.28 442.98 562.09 450.10 561.04 457.12 C 561.10 459.52 558.84 460.84 557.40 462.41 C 558.81 436.20 559.64 409.97 560.70 383.75 C 561.22 375.24 561.65 366.71 561.63 358.18 C 559.12 356.23 556.63 354.24 553.91 352.59 C 552.47 367.45 552.42 382.43 551.48 397.34 C 550.56 421.71 549.39 446.07 548.14 470.43 C 546.92 471.66 545.72 472.90 544.50 474.13 C 545.81 457.13 545.93 440.06 546.82 423.04 C 547.88 401.08 548.79 379.10 549.60 357.13 C 549.78 354.45 550.55 351.68 549.87 349.04 C 546.94 345.67 543.22 343.11 539.80 340.29 C 537.99 376.85 536.54 413.42 534.74 449.98 C 534.65 461.31 533.39 472.59 533.48 483.92 C 532.70 484.68 531.92 485.44 531.15 486.20 C 532.26 445.77 534.67 405.39 535.90 364.96 C 536.70 356.02 536.61 347.05 537.27 338.10 C 533.72 338.87 530.47 340.50 527.38 342.36 C 528.31 338.69 528.76 334.48 531.80 331.85 Z" />
<path fill="#c09300" d=" M 526.77 345.12 C 529.66 343.67 532.50 342.12 535.40 340.68 C 533.59 372.76 532.53 404.89 531.16 437.01 C 530.41 454.17 529.54 471.33 529.06 488.50 C 526.89 491.69 523.26 493.72 520.63 496.57 C 521.64 461.38 523.71 426.23 524.83 391.04 C 525.64 375.74 526.35 360.44 526.77 345.12 Z" />
<path fill="#c09300" d=" M 689.60 340.67 C 692.50 342.11 695.34 343.67 698.23 345.12 C 698.65 362.75 699.71 380.34 700.39 397.95 C 701.19 413.94 701.39 429.97 702.52 445.95 C 702.80 462.86 704.20 479.74 704.34 496.65 C 701.59 493.84 698.80 491.06 695.64 488.73 C 696.23 481.47 695.22 474.23 695.21 466.98 C 693.41 430.60 692.26 394.18 690.48 357.79 C 690.16 352.09 690.44 346.35 689.60 340.67 Z" />
<path fill="#c09300" d=" M 541.54 344.48 C 543.88 346.43 546.19 348.42 548.38 350.55 C 547.10 357.97 548.02 365.53 547.02 372.98 C 545.96 402.34 544.65 431.67 543.30 461.01 C 543.38 465.38 543.13 469.75 542.59 474.09 C 542.31 474.43 541.75 475.10 541.47 475.43 C 541.44 476.05 541.38 477.29 541.34 477.90 C 539.27 479.59 537.28 481.36 535.32 483.16 C 535.54 467.42 536.89 451.73 537.28 436.00 C 538.84 405.50 539.92 374.98 541.54 344.48 Z" />
<path fill="#c09300" d=" M 676.62 350.54 C 678.79 348.42 681.10 346.44 683.44 344.50 C 685.82 389.92 687.66 435.37 689.74 480.81 C 688.63 479.79 687.54 478.78 686.44 477.78 C 685.05 477.47 682.75 477.58 682.52 475.70 C 681.21 464.27 681.76 452.71 680.75 441.25 C 679.86 418.50 678.76 395.76 677.98 373.00 C 676.98 365.54 677.90 357.97 676.62 350.54 Z" />
<path fill="#c09300" d=" M 611.83 354.49 C 612.17 354.48 612.86 354.46 613.20 354.45 C 624.10 362.88 638.26 365.71 651.79 365.42 C 651.69 382.56 648.32 400.05 640.24 415.29 C 633.85 427.07 624.11 436.73 613.21 444.39 C 612.86 444.39 612.16 444.39 611.81 444.40 C 597.98 434.81 586.23 421.66 580.34 405.72 C 575.68 392.86 573.07 379.15 573.30 365.45 C 586.80 365.67 600.92 362.86 611.83 354.49 Z" />
<path fill="#030303" d=" M 608.70 357.72 C 610.38 356.69 612.55 354.67 614.39 356.62 C 622.21 362.82 632.28 364.89 641.99 365.86 C 644.57 365.79 647.17 365.80 649.77 365.82 C 650.06 393.59 640.02 423.26 617.15 440.39 C 615.39 441.47 613.43 444.13 611.20 442.76 C 598.09 434.08 588.33 420.90 582.44 406.42 C 577.38 393.70 574.34 379.99 574.29 366.28 C 577.09 365.66 579.98 365.73 582.83 365.79 C 591.84 364.91 601.15 362.99 608.70 357.72 Z" />
<path fill="#c09300" d=" M 553.17 405.03 C 553.89 388.73 554.27 372.41 555.41 356.15 C 556.90 357.33 558.39 358.53 559.89 359.72 C 558.30 393.83 557.24 427.95 555.61 462.05 C 556.18 465.81 552.39 467.55 550.07 469.69 C 551.36 448.16 551.88 426.57 553.17 405.03 Z" />
<path fill="#c09300" d=" M 665.09 359.75 C 666.63 358.52 668.16 357.28 669.71 356.06 C 671.53 393.05 672.92 430.07 674.89 467.04 C 673.06 466.36 671.01 465.97 669.54 464.60 C 668.15 429.65 666.71 394.70 665.09 359.75 Z" />
<path fill="#c09300" d=" M 600.81 364.66 C 604.81 362.98 608.70 361.03 612.38 358.72 C 616.22 361.30 620.36 363.45 624.72 365.05 C 624.75 386.05 624.74 407.06 624.73 428.06 C 625.09 430.75 622.47 432.21 620.81 433.81 C 618.03 435.93 615.66 438.86 612.26 440.00 C 608.12 437.35 603.99 434.10 601.00 430.25 C 600.57 408.40 600.96 386.52 600.81 364.66 Z" />
<path fill="#c09300" d=" M 567.33 363.76 C 568.49 364.21 569.67 364.67 570.85 365.12 C 572.34 375.69 571.67 386.37 570.92 396.98 C 570.51 408.74 569.80 420.48 569.38 432.24 C 569.40 439.27 567.91 446.28 568.78 453.29 C 566.81 454.88 564.81 456.43 562.82 458.00 C 563.99 451.06 563.08 444.00 563.99 437.04 C 564.65 419.67 565.42 402.32 566.03 384.95 C 566.97 377.91 566.13 370.77 567.33 363.76 Z" />
<path fill="#c09300" d=" M 654.14 365.13 C 655.31 364.67 656.49 364.21 657.67 363.75 C 658.87 370.78 658.03 377.93 658.97 384.98 C 659.62 402.01 660.35 419.02 661.02 436.05 C 661.90 443.19 661.04 450.43 662.27 457.54 C 660.30 455.72 658.34 453.89 656.38 452.08 C 656.82 448.05 656.37 444.02 656.07 440.01 C 655.39 425.02 654.65 410.03 654.00 395.04 C 653.24 385.09 652.75 375.05 654.14 365.13 Z" />
<path fill="#c09300" d=" M 576.31 368.64 C 583.90 368.34 591.54 367.54 598.83 365.28 C 599.46 381.84 598.91 398.43 599.12 415.00 C 599.18 419.40 599.10 423.80 598.75 428.19 C 588.19 415.76 581.36 400.38 578.60 384.34 C 577.62 379.14 577.15 373.86 576.31 368.64 Z" />
<path fill="#c09300" d=" M 626.60 365.66 C 633.41 367.47 640.46 368.24 647.49 368.67 C 646.78 389.76 640.66 411.42 626.67 427.64 C 626.54 406.98 626.69 386.32 626.60 365.66 Z" />
<path fill="#c09300" d=" M 573.55 388.54 C 574.26 393.54 576.25 398.44 575.53 403.55 C 574.93 409.02 575.46 414.55 574.74 420.02 C 574.19 424.98 575.12 430.07 573.80 434.95 C 572.98 438.32 571.88 441.61 570.86 444.93 C 570.41 437.92 571.66 430.97 571.51 423.96 C 572.55 412.17 572.35 400.32 573.55 388.54 Z" />
<path fill="#c09300" d=" M 651.37 388.56 C 651.76 392.70 652.41 396.82 652.32 400.99 C 652.74 415.66 654.28 430.28 654.14 444.96 C 652.81 440.38 651.03 435.86 650.55 431.09 C 650.39 420.70 649.70 410.34 649.33 399.96 C 649.62 396.10 650.81 392.38 651.37 388.56 Z" />
<path fill="#c09300" d=" M 577.03 404.43 C 578.39 406.92 579.56 409.50 580.75 412.07 C 579.22 416.93 578.04 421.89 576.48 426.74 C 576.63 419.30 576.93 411.87 577.03 404.43 Z" />
<path fill="#c09300" d=" M 644.25 412.06 C 645.44 409.49 646.61 406.91 647.98 404.42 C 648.07 411.84 648.36 419.25 648.52 426.67 C 646.93 421.85 645.76 416.91 644.25 412.06 Z" />
<path fill="#c09300" d=" M 582.05 414.97 C 583.33 417.30 584.91 419.49 585.79 422.02 C 586.56 425.24 586.69 428.58 586.84 431.89 C 583.95 434.60 581.25 437.51 578.72 440.56 C 577.95 438.61 577.19 436.67 576.42 434.72 C 578.40 428.17 580.14 421.55 582.05 414.97 Z" />
<path fill="#c09300" d=" M 640.42 419.36 C 641.23 417.87 642.09 416.41 642.95 414.95 C 644.84 421.53 646.60 428.15 648.58 434.71 C 647.81 436.67 647.04 438.62 646.28 440.59 C 643.75 437.51 641.04 434.59 638.15 431.86 C 638.60 427.67 638.19 423.11 640.42 419.36 Z" />
<path fill="#c09300" d=" M 589.13 426.32 C 592.05 429.88 595.05 433.36 598.13 436.79 C 595.65 439.63 593.38 442.65 591.29 445.79 C 590.27 439.34 589.54 432.84 589.13 426.32 Z" />
<path fill="#c09300" d=" M 626.87 436.80 C 629.98 433.33 633.06 429.83 635.89 426.12 C 635.61 432.60 634.73 439.03 634.16 445.49 C 631.56 442.73 629.28 439.71 626.87 436.80 Z" />
<path fill="#c09300" d=" M 579.47 443.77 C 582.08 440.87 584.84 438.11 587.23 435.02 C 588.13 440.27 588.71 445.57 588.85 450.90 C 592.45 449.97 594.10 446.33 596.32 443.70 C 597.86 448.50 600.34 453.01 601.51 457.93 C 600.34 461.83 596.39 464.12 593.80 467.12 C 592.34 462.27 591.03 457.36 589.20 452.64 C 588.63 452.27 587.48 451.54 586.91 451.17 C 585.58 453.86 584.18 456.50 582.86 459.20 C 581.65 456.08 580.42 452.99 579.07 449.94 C 575.89 451.82 573.11 454.26 570.34 456.68 C 571.95 451.01 573.43 445.30 575.13 439.65 C 575.80 441.00 576.48 442.35 577.16 443.72 C 577.74 443.73 578.89 443.75 579.47 443.77 Z" />
<path fill="#c09300" d=" M 637.80 435.03 C 640.17 438.14 642.95 440.90 645.57 443.80 C 646.14 443.77 647.27 443.72 647.84 443.70 C 648.51 442.35 649.19 441.01 649.88 439.68 C 651.55 445.37 653.17 451.08 654.74 456.80 C 652.04 454.22 649.16 451.82 645.93 449.95 C 644.55 453.05 643.30 456.20 642.08 459.36 C 640.15 456.47 638.26 453.55 636.25 450.72 C 636.40 445.46 637.23 440.26 637.80 435.03 Z" />
<path fill="#c09300" d=" M 602.37 451.71 C 600.95 447.32 596.81 442.65 599.92 438.11 C 601.53 439.40 603.14 440.70 604.78 441.97 C 604.26 445.28 603.44 448.53 602.37 451.71 Z" />
<path fill="#c09300" d=" M 620.22 442.01 C 621.68 440.83 623.10 439.63 624.53 438.41 C 625.30 439.18 626.09 439.96 626.88 440.74 C 625.64 444.47 624.22 448.13 622.65 451.73 C 621.55 448.56 620.75 445.31 620.22 442.01 Z" />
<path fill="#c09300" d=" M 606.60 443.16 C 608.39 444.46 610.00 446.17 612.17 446.83 C 614.69 446.73 616.42 444.48 618.40 443.16 C 619.18 447.80 620.33 452.37 621.50 456.93 C 623.72 467.55 625.64 478.24 628.64 488.67 C 627.55 489.70 626.47 490.74 625.40 491.78 C 624.19 490.92 623.01 490.03 621.83 489.16 C 620.04 478.12 618.62 467.01 617.19 455.92 C 616.49 455.50 615.07 454.65 614.36 454.23 C 613.60 465.52 615.79 476.75 615.59 488.03 C 615.80 490.51 613.58 492.11 612.25 493.91 C 608.08 489.57 609.42 483.34 609.76 477.94 C 610.28 470.05 611.11 462.14 610.64 454.23 C 609.93 454.65 608.51 455.50 607.81 455.92 C 606.37 466.99 604.97 478.07 603.18 489.09 C 602.04 490.00 600.90 490.91 599.77 491.81 C 598.62 490.78 597.48 489.74 596.35 488.71 C 599.32 477.86 601.71 466.84 603.51 455.74 C 603.72 455.43 604.14 454.83 604.35 454.52 C 605.02 450.72 605.89 446.95 606.60 443.16 Z" />
<path fill="#c09300" d=" M 628.67 443.69 C 630.77 446.18 632.78 448.74 634.96 451.17 C 633.73 456.43 632.36 461.65 631.09 466.90 C 628.71 464.56 626.08 462.43 624.14 459.71 C 622.95 458.45 623.71 456.73 624.17 455.36 C 625.63 451.46 627.21 447.60 628.67 443.69 Z" />
<path fill="#c09300" d=" M 569.34 461.41 C 572.07 458.77 575.10 456.48 577.88 453.90 C 579.16 457.13 580.33 460.43 582.03 463.48 C 585.21 462.81 585.74 458.67 587.66 456.41 C 589.26 461.36 590.83 466.34 592.63 471.23 C 590.11 474.36 587.67 477.54 585.34 480.81 C 583.98 476.76 582.69 472.70 581.15 468.72 C 578.16 471.18 575.86 474.30 573.38 477.23 C 571.86 473.55 570.27 469.90 568.89 466.17 C 568.34 464.65 567.80 462.54 569.34 461.41 Z" />
<path fill="#c09300" d=" M 647.11 453.91 C 650.09 456.63 653.43 458.98 656.16 461.97 C 656.99 462.89 656.61 464.31 656.36 465.41 C 654.98 469.42 653.21 473.29 651.62 477.23 C 649.13 474.30 646.83 471.17 643.84 468.72 C 642.37 472.65 641.11 476.64 639.55 480.53 C 637.21 477.42 634.83 474.34 632.43 471.28 C 633.96 466.22 635.07 461.04 636.54 455.96 C 638.27 458.62 639.91 461.36 642.02 463.75 C 645.02 461.41 645.52 457.19 647.11 453.91 Z" />
<path fill="#c09300" d=" M 625.20 464.86 C 627.13 466.84 628.95 468.93 630.80 471.00 C 630.02 474.54 629.36 478.11 628.85 481.70 C 627.65 476.08 626.34 470.49 625.20 464.86 Z" />
<path fill="#c09300" d=" M 594.18 470.94 C 596.03 469.10 597.87 467.27 599.73 465.45 C 598.51 470.85 597.33 476.26 596.18 481.67 C 595.62 478.07 594.96 474.49 594.18 470.94 Z" />
<path fill="#818181" d=" M 608.25 466.16 C 608.78 466.74 608.78 466.74 608.25 466.16 Z" />
<path fill="#818181" d=" M 616.24 466.18 C 616.81 466.71 616.81 466.71 616.24 466.18 Z" />
<path fill="#c09300" d=" M 560.76 490.79 C 562.71 483.38 564.92 476.04 566.88 468.64 C 568.70 472.78 570.12 477.10 572.19 481.14 C 572.64 481.13 573.54 481.13 573.99 481.13 C 576.31 478.73 578.14 475.93 580.26 473.36 C 581.46 477.26 582.16 481.42 584.27 484.98 C 588.13 483.22 589.91 478.77 592.56 475.63 C 593.53 481.30 596.10 487.29 593.60 492.95 C 593.02 495.72 589.67 495.11 587.58 495.50 C 586.57 492.43 585.95 489.19 584.35 486.37 C 580.42 487.00 580.80 492.95 577.28 493.96 C 575.49 490.67 574.71 486.94 572.93 483.65 C 572.43 483.65 571.42 483.66 570.91 483.66 C 568.62 486.09 566.90 488.97 565.05 491.73 C 563.61 491.42 562.17 491.10 560.76 490.79 Z" />
<path fill="#c09300" d=" M 652.81 481.13 C 654.87 477.10 656.29 472.78 658.11 468.65 C 660.09 476.04 662.26 483.37 664.26 490.76 C 662.81 491.08 661.39 491.42 659.95 491.74 C 658.09 488.98 656.37 486.09 654.09 483.66 C 653.59 483.66 652.58 483.66 652.08 483.66 C 650.21 487.16 649.20 491.01 647.60 494.63 C 644.93 492.15 644.22 487.65 640.70 486.31 C 639.15 489.19 638.45 492.42 637.41 495.50 C 635.29 495.10 631.95 495.72 631.39 492.92 C 628.90 487.26 631.48 481.28 632.45 475.60 C 634.92 479.15 637.36 482.82 640.81 485.52 C 642.38 481.55 643.63 477.48 644.75 473.38 C 646.85 475.94 648.69 478.73 651.01 481.13 C 651.46 481.13 652.36 481.13 652.81 481.13 Z" />
<path fill="#ffffff" d=" M 607.98 469.50 C 608.29 471.80 608.35 474.15 607.96 476.46 C 607.06 480.77 608.32 485.30 606.92 489.54 C 608.64 491.84 609.97 496.41 613.52 495.72 C 615.44 493.99 616.82 491.76 618.08 489.54 C 616.67 485.30 617.93 480.79 617.04 476.48 C 616.63 474.16 616.71 471.79 617.01 469.48 C 617.82 476.49 618.97 483.46 619.90 490.47 C 621.76 491.69 623.41 493.98 625.81 493.89 C 626.51 493.48 627.90 492.67 628.60 492.26 C 628.78 493.00 629.14 494.48 629.32 495.22 C 626.83 495.25 624.34 495.14 621.86 495.34 C 619.47 496.21 617.27 497.52 615.01 498.64 C 614.13 499.86 613.14 500.99 612.00 501.97 C 611.42 500.89 610.85 499.80 610.29 498.72 C 608.11 497.70 606.01 496.55 603.90 495.42 C 601.17 495.03 598.40 495.30 595.66 495.22 C 595.85 494.48 596.22 493.01 596.41 492.27 C 599.32 495.65 602.67 492.59 605.11 490.46 C 606.02 483.46 607.18 476.50 607.98 469.50 Z" />
<path fill="#c09300" d=" M 567.75 492.33 C 569.08 490.69 570.42 489.06 571.80 487.46 C 572.52 489.50 573.24 491.54 573.95 493.59 C 571.87 493.19 569.80 492.75 567.75 492.33 Z" />
<path fill="#c09300" d=" M 650.92 493.56 C 651.76 491.47 652.62 489.40 653.53 487.34 C 654.73 489.02 655.94 490.70 657.15 492.39 C 655.07 492.79 653.00 493.20 650.92 493.56 Z" />
<path fill="#c09300" d=" M 550.15 491.05 C 558.29 492.17 566.02 495.42 574.28 495.95 C 573.41 496.77 572.55 497.61 571.70 498.45 C 568.72 496.05 564.86 495.42 561.17 495.09 C 562.43 499.64 568.41 498.64 571.96 500.05 C 569.25 502.04 566.02 500.47 563.09 500.03 C 558.85 498.99 554.43 498.45 550.40 496.71 C 550.07 494.84 550.14 492.93 550.15 491.05 Z" />
<path fill="#c09300" d=" M 583.33 490.89 C 583.74 492.09 584.16 493.28 584.59 494.49 C 583.43 494.54 582.30 494.61 581.15 494.67 C 581.87 493.40 582.60 492.15 583.33 490.89 Z" />
<path fill="#c09300" d=" M 640.40 494.47 C 640.82 493.27 641.25 492.08 641.68 490.89 C 642.39 492.15 643.12 493.42 643.85 494.69 C 642.70 494.61 641.55 494.54 640.40 494.47 Z" />
<path fill="#c09300" d=" M 650.74 495.95 C 658.66 495.17 666.34 492.93 673.97 490.73 L 673.85 491.95 C 670.87 492.32 667.95 493.05 665.08 493.90 C 665.54 494.51 666.47 495.74 666.94 496.35 C 669.25 495.77 671.50 494.98 673.79 494.33 C 674.17 493.82 674.91 492.82 675.29 492.31 C 674.57 493.81 675.50 496.71 673.41 497.22 C 668.39 498.82 663.18 499.73 658.04 500.81 C 656.30 501.37 654.55 501.02 653.04 500.06 C 656.59 498.64 662.55 499.63 663.83 495.09 C 660.12 495.42 656.26 496.07 653.27 498.46 C 652.43 497.61 651.57 496.78 650.74 495.95 Z" />
<path fill="#c09300" d=" M 542.35 499.32 C 542.79 495.97 544.97 493.48 547.56 491.53 C 547.53 493.15 547.64 494.81 547.41 496.43 C 545.92 497.71 544.07 498.44 542.35 499.32 Z" />
<path fill="#c09300" d=" M 677.37 491.77 C 680.08 493.52 682.25 495.97 682.62 499.32 C 680.91 498.44 679.08 497.72 677.62 496.45 C 677.36 494.90 677.41 493.32 677.37 491.77 Z" />
<path fill="#030303" d=" M 550.26 494.05 C 552.79 490.89 556.68 493.05 559.82 493.91 C 559.42 494.53 558.62 495.78 558.22 496.41 C 555.53 495.76 552.93 494.76 550.26 494.05 Z" />
<path fill="#c09300" d=" M 579.08 496.97 C 583.39 497.27 587.70 497.80 592.04 497.70 C 596.41 497.77 600.96 497.11 605.13 498.79 C 603.32 500.54 602.10 503.89 599.14 503.74 C 592.60 503.60 585.71 504.78 579.54 502.03 C 583.01 501.51 586.52 501.29 590.04 501.22 C 589.83 500.60 589.43 499.35 589.23 498.73 C 586.16 498.76 583.09 498.94 580.07 499.52 C 579.73 498.66 579.40 497.81 579.08 496.97 Z" />
<path fill="#c09300" d=" M 620.11 499.35 C 622.90 497.01 626.64 497.74 629.99 497.68 C 635.31 497.88 640.62 497.42 645.92 496.97 C 645.58 497.81 645.25 498.66 644.93 499.52 C 641.92 498.96 638.87 498.76 635.82 498.71 C 635.60 499.34 635.16 500.59 634.93 501.22 C 638.33 501.31 641.72 501.53 645.11 501.83 C 644.55 502.28 643.99 502.75 643.44 503.21 C 637.12 503.94 630.71 504.05 624.38 503.56 C 622.66 502.49 621.48 500.78 620.11 499.35 Z" />
<path fill="#c09300" d=" M 575.57 506.62 C 573.06 504.68 572.33 500.96 574.91 498.74 C 577.76 497.61 577.65 501.32 578.59 503.01 C 577.58 504.20 576.57 505.41 575.57 506.62 Z" />
<path fill="#030303" d=" M 592.12 500.28 C 595.19 499.63 598.33 499.45 601.47 499.44 C 601.47 500.01 601.49 501.13 601.50 501.70 C 598.47 502.00 595.45 502.39 592.44 502.75 C 592.36 502.13 592.20 500.89 592.12 500.28 Z" />
<path fill="#030303" d=" M 623.53 499.44 C 626.66 499.46 629.80 499.63 632.88 500.28 C 632.80 500.89 632.65 502.13 632.57 502.75 C 629.55 502.39 626.53 502.00 623.51 501.70 C 623.52 501.14 623.53 500.01 623.53 499.44 Z" />
<path fill="#c09300" d=" M 646.40 503.01 C 647.32 501.30 647.22 497.73 650.08 498.70 C 652.65 500.95 651.94 504.64 649.45 506.62 C 648.42 505.41 647.41 504.21 646.40 503.01 Z" />
<path fill="#c09300" d=" M 544.79 501.74 C 546.16 500.94 547.52 500.15 548.90 499.37 C 556.02 501.19 563.18 502.88 570.46 503.93 C 571.94 506.52 573.39 509.13 574.56 511.88 C 574.97 511.82 575.78 511.68 576.18 511.61 C 577.28 509.41 578.23 506.60 580.78 505.73 C 587.79 506.36 594.83 506.37 601.86 506.19 C 604.29 508.18 606.50 510.43 608.37 512.97 C 610.68 510.87 610.85 507.53 612.74 505.18 C 613.87 507.85 614.45 510.87 616.63 512.97 C 618.48 510.42 620.71 508.19 623.14 506.19 C 630.17 506.37 637.21 506.36 644.22 505.73 C 646.77 506.59 647.72 509.43 648.83 511.63 C 649.24 511.69 650.06 511.80 650.47 511.86 C 651.60 509.11 653.01 506.48 654.49 503.91 C 661.79 502.92 668.97 501.18 676.10 499.37 C 677.47 500.15 678.84 500.95 680.21 501.74 C 680.64 503.41 681.08 505.07 681.54 506.74 C 682.24 506.75 683.66 506.77 684.36 506.78 C 686.08 508.47 687.78 510.19 689.47 511.92 C 688.75 514.00 687.99 516.06 687.18 518.11 C 686.27 518.42 685.36 518.75 684.47 519.08 C 683.98 521.44 684.61 524.74 682.14 526.13 C 678.21 527.83 673.97 528.65 669.81 529.53 C 639.49 534.52 608.55 534.62 577.97 532.45 C 567.90 531.41 557.79 530.36 547.95 527.92 C 545.82 527.26 543.40 526.90 541.77 525.26 C 540.65 523.41 540.86 521.13 540.53 519.08 C 539.62 518.75 538.71 518.42 537.81 518.10 C 537.00 516.06 536.24 513.99 535.53 511.92 C 537.21 510.19 538.91 508.47 540.64 506.78 C 541.34 506.77 542.76 506.75 543.47 506.74 C 543.91 505.06 544.35 503.40 544.79 501.74 Z" />
<path fill="#c09300" d=" M 607.48 501.08 C 610.53 501.48 609.05 505.80 608.65 507.85 C 607.09 506.89 605.56 505.93 604.03 504.97 C 605.13 503.64 606.21 502.27 607.48 501.08 Z" />
<path fill="#c09300" d=" M 616.51 508.06 C 615.39 505.41 615.55 502.60 616.90 500.06 C 618.14 501.58 619.44 503.07 620.51 504.74 C 619.25 505.94 617.87 506.98 616.51 508.06 Z" />
<path fill="#030303" d=" M 666.61 505.95 C 667.15 501.71 672.49 501.22 675.17 503.82 C 675.85 507.53 675.37 511.79 678.39 514.63 C 679.69 513.72 680.61 510.62 682.53 512.19 C 682.74 513.51 682.91 514.84 683.04 516.19 C 680.77 516.41 678.49 516.48 676.23 516.76 C 674.27 517.58 672.87 519.37 670.90 520.21 C 669.22 520.46 667.57 519.84 665.95 519.62 C 665.02 520.92 664.14 522.27 662.99 523.38 C 661.21 523.52 659.57 522.76 657.93 522.27 C 656.57 522.49 655.22 522.71 653.88 522.94 C 652.32 525.56 649.95 527.49 646.72 527.00 C 647.84 525.58 649.02 524.21 650.21 522.85 C 649.39 522.79 647.75 522.66 646.92 522.59 C 647.23 521.07 646.97 519.28 647.98 518.01 C 649.21 517.23 650.77 517.32 652.16 517.03 C 652.75 518.41 653.35 519.79 653.97 521.17 C 654.56 519.90 655.15 518.64 655.73 517.37 C 656.07 517.01 656.76 516.28 657.10 515.92 C 656.71 513.71 656.34 511.51 655.99 509.30 C 656.57 509.31 657.72 509.32 658.30 509.33 C 658.80 510.98 659.31 512.63 659.83 514.28 C 661.58 515.01 663.32 515.83 665.00 516.76 C 666.43 512.92 670.63 513.58 673.94 513.61 C 673.55 511.00 673.23 508.38 673.04 505.75 C 672.59 505.48 671.69 504.94 671.24 504.66 C 669.70 505.13 668.15 505.55 666.61 505.95 Z" />
<path fill="#030303" d=" M 550.12 503.78 C 552.60 503.80 555.08 503.80 557.58 503.82 C 556.68 507.88 555.11 511.79 554.48 515.91 C 554.87 516.50 555.65 517.68 556.04 518.28 C 557.02 516.25 557.93 514.18 559.10 512.25 C 562.58 512.63 559.80 517.10 560.08 519.31 C 561.32 519.43 562.57 519.60 563.84 519.62 C 564.90 517.94 564.09 515.66 564.35 513.76 C 565.51 514.11 566.66 514.51 567.80 514.95 C 568.34 518.43 566.41 521.87 562.95 522.81 C 562.82 523.76 562.70 524.72 562.59 525.69 C 561.25 525.74 559.91 525.79 558.59 525.85 C 558.57 524.16 558.55 522.49 558.56 520.82 C 554.66 520.14 549.92 519.23 548.90 514.72 C 550.31 513.61 551.75 512.52 553.23 511.49 C 551.63 511.15 550.04 510.83 548.50 510.35 C 549.01 509.30 549.56 508.27 550.15 507.26 C 550.14 506.39 550.13 504.65 550.12 503.78 Z" />
<path fill="#5d4702" d=" M 532.07 510.34 C 533.68 509.74 534.26 510.26 533.79 511.91 C 532.16 512.49 531.59 511.97 532.07 510.34 Z" />
<path fill="#554202" d=" M 691.09 510.26 C 692.71 509.72 693.27 510.27 692.80 511.90 C 691.16 512.43 690.60 511.88 691.09 510.26 Z" />
<path fill="#030303" d=" M 586.75 511.20 C 587.37 511.19 588.60 511.19 589.22 511.19 C 589.12 516.94 590.23 523.10 587.12 528.31 C 585.78 528.27 584.45 528.24 583.13 528.21 C 582.03 526.64 581.37 524.47 579.51 523.66 C 576.77 523.27 574.03 524.07 571.32 524.39 C 569.68 525.34 567.83 525.75 565.96 525.90 C 566.82 524.53 567.72 523.21 568.65 521.90 C 568.52 519.97 568.43 518.03 568.39 516.11 C 571.46 516.47 572.23 519.02 572.54 521.65 C 573.83 521.56 575.13 521.47 576.43 521.38 C 575.79 519.81 574.84 518.41 573.56 517.31 C 575.88 515.61 578.44 513.32 581.58 514.37 C 583.05 515.85 584.22 517.61 585.51 519.25 C 584.84 519.43 583.50 519.78 582.83 519.96 C 582.69 520.35 582.42 521.12 582.29 521.51 C 583.29 523.13 584.24 524.77 585.23 526.42 C 587.60 521.68 586.59 516.28 586.75 511.20 Z" />
<path fill="#030303" d=" M 591.31 511.13 C 591.90 511.16 593.07 511.23 593.66 511.26 C 593.48 516.04 592.64 520.76 592.07 525.51 C 591.43 525.20 590.15 524.59 589.51 524.29 C 590.36 519.93 590.79 515.52 591.31 511.13 Z" />
<path fill="#030303" d=" M 629.51 510.85 C 630.18 511.10 631.51 511.60 632.17 511.84 C 632.60 515.47 632.77 519.12 632.78 522.78 C 633.71 522.76 635.57 522.74 636.51 522.72 C 636.22 520.55 635.90 518.38 635.65 516.21 C 637.02 516.78 639.85 516.91 639.54 519.09 C 639.43 521.04 639.24 523.35 637.80 524.81 C 635.53 525.75 632.93 525.23 630.53 525.41 C 630.95 525.65 631.80 526.14 632.22 526.38 C 633.68 526.16 635.13 525.92 636.61 525.73 C 636.78 527.59 636.61 529.46 635.61 531.10 C 634.95 530.88 633.63 530.44 632.97 530.22 C 631.41 530.36 629.42 531.22 628.66 529.27 C 628.59 528.55 628.46 527.13 628.40 526.42 C 627.42 525.48 626.24 524.55 626.59 523.02 C 627.74 522.16 629.00 521.45 630.26 520.74 C 631.35 517.39 629.45 514.20 629.51 510.85 Z" />
<path fill="#030303" d=" M 624.74 511.09 C 625.58 511.17 627.26 511.34 628.10 511.42 C 628.40 513.27 628.83 515.12 629.06 516.99 C 629.11 519.46 626.34 518.23 624.83 518.54 C 624.79 516.05 624.75 513.57 624.74 511.09 Z" />
<path fill="#c09300" d=" M 668.64 516.23 C 669.33 515.30 671.58 515.14 671.64 516.64 C 671.40 518.53 667.29 518.32 668.64 516.23 Z" />
<path fill="#c09300" d=" M 578.01 518.46 C 578.76 517.55 579.50 516.63 580.24 515.70 C 580.36 517.13 580.47 518.56 580.55 520.00 C 579.68 519.51 578.83 518.99 578.01 518.46 Z" />
<path fill="#030303" d=" M 642.40 524.08 C 640.32 521.74 639.26 518.54 641.67 515.99 C 642.90 516.81 644.25 517.56 645.38 518.57 C 646.54 522.60 644.87 526.70 642.10 529.65 C 641.56 529.49 640.48 529.18 639.95 529.02 C 640.47 527.24 641.48 525.67 642.40 524.08 Z" />
<path fill="#513f02" d=" M 661.03 517.28 C 664.36 517.45 659.46 520.24 661.03 517.28 Z" />
<path fill="#030303" d=" M 600.97 517.30 C 602.34 518.01 603.72 518.74 605.06 519.52 C 608.68 520.40 612.40 520.37 616.05 519.68 C 616.51 521.12 616.98 522.57 617.46 524.02 C 618.09 522.57 618.69 521.09 619.29 519.64 C 620.64 519.67 622.00 519.74 623.37 519.86 C 624.15 521.20 624.15 522.81 624.54 524.30 C 623.05 525.08 621.55 525.86 620.07 526.65 C 619.27 526.38 617.68 525.84 616.88 525.58 C 616.19 526.97 615.51 528.37 614.84 529.79 C 612.41 529.63 610.36 528.56 609.28 526.33 C 606.03 525.63 602.73 526.03 599.48 526.55 C 598.05 529.07 596.17 531.46 593.04 531.76 C 593.59 529.41 595.11 527.55 596.69 525.80 C 595.67 523.76 595.25 521.52 595.13 519.26 C 597.81 519.59 599.79 521.21 601.10 523.52 C 601.07 521.44 601.00 519.36 600.97 517.30 Z" />
<path fill="#1d1703" d=" M 676.14 519.00 C 675.57 516.40 679.49 517.61 680.85 517.21 C 680.62 518.12 680.17 519.93 679.94 520.84 C 678.44 521.44 675.65 521.24 676.14 519.00 Z" />
<path fill="#030303" d=" M 550.12 519.55 C 552.73 520.15 555.35 520.72 557.99 521.21 C 557.82 522.65 557.65 524.11 557.46 525.57 C 555.03 524.90 552.62 524.19 550.20 523.52 C 550.17 522.19 550.14 520.87 550.12 519.55 Z" />
<path fill="#c09300" d=" M 604.06 522.15 C 607.58 522.55 611.13 522.81 614.68 522.70 C 614.28 523.74 613.89 524.79 613.51 525.85 C 610.77 523.77 607.31 523.75 604.02 523.77 C 604.03 523.36 604.05 522.55 604.06 522.15 Z" />
<path fill="#5a4501" d=" M 593.51 535.11 C 594.06 534.03 596.49 534.27 596.20 535.70 C 595.63 536.76 593.19 536.54 593.51 535.11 Z" />
<path fill="#5a4501" d=" M 628.80 535.13 C 629.33 534.04 631.77 534.24 631.50 535.68 C 630.95 536.75 628.52 536.55 628.80 535.13 Z" />
<path fill="#000000" d=" M 0.00 544.20 C 408.33 544.20 816.67 544.20 1225.00 544.20 L 1225.00 816.00 L 0.00 816.00 L 0.00 544.20 Z" />
</svg>
