<svg xmlns="http://www.w3.org/2000/svg" width="2020" height="1020" viewBox="0 0 56.56 28.56">
  <path d="M0 0h56.56v28.56H0z" style="fill:#fff;fill-opacity:1;stroke:none"/>
  <path d="M0 0h28.28v14.28H0z" style="fill:#ce1126;fill-opacity:1;stroke:none"/>
  <path style="fill:#fff;stroke:none" d="M0 0h28v14H0z"/>
  <path style="stroke:#c00;stroke-width:.99999672;stroke-miterlimit:4;stroke-dasharray:none" d="M0 .49999836h28m0 2.00000024H0m0 2.0000002h28m0 2.0000002H0"/>
  <path style="fill:#010066;fill-opacity:1;stroke:none;stroke-width:.056" d="M0 0h14v8.5H0Z"/>
  <path style="stroke:#c00;stroke-width:.99999672;stroke-miterlimit:4;stroke-dasharray:none" d="M0 8.5000092h28m0 1.9999998H0m0 2.000001h28"/>
  <path style="fill:#fc0;fill-opacity:1;stroke-width:.056" d="m8.7488833 1.4999931.222917 1.525002.8625008-1.2770851-.4625007 1.4708353 1.3312526-.7770843-1.0541685 1.1250015 1.5375015-.1229169-1.4375017.5562509 1.4375017.5562506-1.5375015-.1229168 1.0541685 1.1250016-1.3312526-.7770845.4625007 1.4708355-.8625008-1.2770852-.222917 1.5250022-.2229169-1.5250022-.8625015 1.2770852.4625007-1.4708355-1.3312516.7770845 1.0541681-1.1250016-1.5375024.1229168 1.437502-.5562506-1.437502-.5562509 1.5375024.1229169L6.794714 2.441661l1.3312516.7770843L7.6634649 1.74791l.8625015 1.2770851Zm-1.2500018.0625a2.6666702 2.6666702 0 1 0 0 4.8750063 3.000004 3.000004 0 1 1 0-4.8750063z"/>
  <g style="fill:#002b7f;fill-opacity:1">
    <path style="fill:#002b7f;fill-opacity:1;fill-rule:evenodd;stroke:none" d="M446.53125 165.90625c-2.23078 2.05263-4.25046 3.3411-6.125 3.96875l2.25 2.375c.28477.30203.27078.77773-.0312 1.0625-.30203.28477-.77773.27078-1.0625-.0312l-2.8438-3.0313c-1.04328.13748-2.02813.0544-2.96875-.21875l2.03125 3.40625c.1618.28316.10496.63941-.0937.875-.0507.0544-.11954.11742-.1875.15625-.28316.1618-.63941.10496-.875-.0937-.0544-.0507-.11742-.11954-.15625-.1875l-2.71875-4.625c-.0279-.0469-.0456-.10554-.0625-.15625-.007-.0219-.0267-.0714-.0312-.0937-.003-.0149.002-.0474 0-.0625-.002-.0226-.00029-.071 0-.0937.00065-.0151-.002-.0474 0-.0625-.76012-.48958-1.4918-1.12774-2.1875-1.875l-5.90625 5.46875c.4646.61119.92815 1.18463 1.4375 1.71875.005.006.0258-.006.0312 0L432.125 173c.0203-.0114.0412-.0218.0625-.0312.40558-.0949.81133.15692.90625.5625.0949.40558-.15692.81133-.5625.90625l-4.25 1.1875c.70604.61657 1.43798 1.15017 2.1875 1.625l4.71875-2.3125c.0361-.0249.0852-.0443.125-.0625.0162-.007.0459-.0257.0625-.0312.39695-.12944.80806.10305.9375.5.12945.39695-.0718.80806-.46875.9375l-3.78125 1.84375c.90476.4399 1.80917.77272 2.71875 1 .0428-.0456.10097-.0899.15625-.125l5-3.1875c.0175-.0121.0441-.0207.0625-.0312.0125-.007.0497-.0253.0625-.0312.006-.003.0247-.0286.0312-.0312.0133-.005.049.004.0625 0 .0136-.004.0487-.0283.0625-.0312.007-.001.0242.001.0312 0 .34118-.0261.67085.17613.78125.5.11041.32387-.0264.68727-.3125.875L437 179.46875c5.5273.27775 10.19383-3.8283 9.53125-13.5625zM339.17855 162.21875c.008.003.91153.78637 1.21875 1.03125l-.34375 1.71875-3.28125.4375c.0923-.63243 2.40253-3.18892 2.40625-3.1875zm2.09375 1.75c.29507.2354.57996.4833.875.71875l-1.0625.125.1875-.84375zm2.375 2.09375-.5625 3.5625-2.71875.125v.125l-.21875-.59375.71875-3.40625 2.25-.3125.53125.5zM339.8348 166l-.625 2.9375c-.98402-.81258-1.91535-1.64422-2.28125-2.53125L339.8348 166zm4.71875.59375c.7593.60488 1.52042 1.20956 2.28125 1.8125l-1.00473 1.12192-1.74527.0656.46875-3zm.375 3.96875c-.37052.37231-.74749.71439-1.125.9375l.125-.90625 1-.0312zm-2 .0937-.1875 1.125.125.0312c-.61845.0492-1.26132-.25045-1.90625-1.09375l1.96875-.0625zM321.05355 165.90625c2.23078 2.05263 4.25046 3.3411 6.125 3.96875l-2.25 2.375c-.28477.30203-.27078.77773.0312 1.0625.30203.28477.77773.27078 1.0625-.0312l2.84375-3.03125c1.04328.13748 2.02813.0544 2.96875-.21875l-2.03125 3.40625c-.1618.28316-.10496.63941.0937.875.0507.0544.11954.11742.1875.15625.28316.1618.63941.10496.875-.0937.0544-.0507.11742-.11954.15625-.1875l2.71875-4.625c.0279-.0469.0456-.10554.0625-.15625.007-.0219.0268-.0714.0312-.0937.003-.0149-.002-.0474 0-.0625.002-.0226.00029-.071 0-.0937-.00065-.0151.002-.0474 0-.0625.76012-.48958 1.4918-1.12774 2.1875-1.875l5.90625 5.46875c-.4646.61119-.92815 1.18463-1.4375 1.71875-.005.006-.0258-.006-.0312 0L335.4598 173c-.0203-.0114-.0412-.0218-.0625-.0312-.40558-.0949-.81133.15692-.90625.5625-.0949.40558.15692.81133.5625.90625l4.25 1.1875c-.70604.61657-1.43798 1.15017-2.1875 1.625l-4.71875-2.3125c-.0361-.0249-.0852-.0443-.125-.0625-.0162-.007-.0459-.0257-.0625-.0312-.39695-.12944-.80806.10305-.9375.5-.12945.39695.0718.80806.46875.9375l3.78125 1.84375c-.90476.4399-1.80917.77272-2.71875 1-.0428-.0456-.10097-.0899-.15625-.125l-5-3.1875c-.0175-.0121-.0441-.0207-.0625-.0312-.0125-.007-.0497-.0253-.0625-.0312-.006-.003-.0247-.0286-.0312-.0312-.0132-.005-.049.004-.0625 0-.0136-.004-.0486-.0283-.0625-.0312-.007-.001-.0242.001-.0312 0-.34118-.0261-.67085.17613-.78125.5-.11041.32387.0264.68727.3125.875l3.71875 2.40625c-5.5273.27775-10.19383-3.8283-9.53125-13.5625zM428.40625 162.21875c-.008.003-.91153.78637-1.21875 1.03125l.34375 1.71875 3.28125.4375c-.0923-.63243-2.40253-3.18892-2.40625-3.1875zm-2.09375 1.75c-.29507.2354-.57996.4833-.875.71875l1.0625.125-.1875-.84375zm-2.375 2.09375.5625 3.5625 2.71875.125v.125l.21875-.59375-.71875-3.40625-2.25-.3125-.53125.5zM427.75 166l.625 2.9375c.98402-.81258 1.91535-1.64422 2.28125-2.53125L427.75 166zm-4.71875.59375c-.7593.60488-1.52042 1.20956-2.28125 1.8125l1.00473 1.12192 1.74527.0656-.46875-3zm-.375 3.96875c.37052.37231.74749.71439 1.125.9375l-.125-.90625-1-.0312zm2 .0937.1875 1.125-.125.0312c.61845.0492 1.26132-.25045 1.90625-1.09375l-1.96875-.0625z" transform="matrix(.11047 0 0 .11047 0 .28001726)"/>
    <path style="fill:#002b7f;fill-opacity:1;fill-rule:evenodd;stroke:#fff;stroke-width:1px;stroke-linecap:butt;stroke-linejoin:miter;stroke-opacity:1" d="M383.375 100.34375c-4.93359.31702-8.87501 4.49219-8.875 9.5 0 3.09425 1.49323 5.85465 3.8125 7.59375-.0377 2.81173-.0878 5.62576-.125 8.4375H351.125v10.75h26.9375c-.29758 22.47923-.60867 44.95828-.90625 67.4375-20.42185-.50878-41.2477-4.15426-58.90625-14.75 2.89446-2.27258 5.80495-4.52483 8.6875-6.8125-8.8865.38091-17.76958.84383-26.65625 1.21875 6.06012 7.44962 12.06703 14.94399 18.1875 22.34375-.61021-3.29852-1.29382-6.58292-1.9375-9.875 2.85805.28142 4.98909 2.99083 7.78125 3.9375 8.27897 4.45665 17.297 6.87555 26.28125 9.28125 11.22634 3.76966 22.85152 7.69734 31.90625 15.375 1.54826 3.10233 2.96769-.65475 4.65625-1.46875 12.55344-9.07701 27.87438-13.33802 42.59375-17.375 7.1448-2.48373 14.26692-5.42291 20.46875-9.75.05.008.11052.0197.15625.0312.006.002.0249-.002.0312 0 .0407.0156.0944.0507.125.0625.0218.007.0728.0231.0937.0312.011.006.0464.0231.0625.0312.0275.0167.0687.0438.0937.0625.006.005.0246.0255.0312.0312.0415.0386.0952.0905.125.125.006.005.0257.0257.0312.0312.006.005.0257.0258.0312.0312.005.0109.026.0515.0312.0625.83882 1.43287-1.38697 5.38592-1.1875 7.34375-.16664.59941-.22331 1.01411-.21875 1.25.001.0257-.003.0724 0 .0937.001.007-.001.0251 0 .0312.006.005.0255.026.0312.0312-.00006.003.0002.0278 0 .0312.008.008.0281.0276.0312.0312.002.001.0227.0226.0312.0312.007-.00018.0298-.00031.0312 0 .003-.00002.0279.00023.0312 0 .003.00009.0284-.00001.0312 0 .0106-.005.0516-.0254.0625-.0312.78138-.40448 3.04116-3.9517 3.96875-4.75 4.61272-5.67763 9.24176-11.34497 13.84375-17.03125-8.88665-.3753-17.76977-.83754-26.65625-1.21875 2.87523 2.28372 5.77213 4.54003 8.65625 6.8125-17.64726 10.59416-38.46397 14.24147-58.875 14.75-.29421-22.4809-.6122-44.95659-.90625-67.4375h26.9375v-10.75h-27.0625c-.0363-2.81575-.0889-5.62298-.125-8.4375 2.31032-1.7391 3.81251-4.49949 3.8125-7.59375 0-5.21137-4.25737-9.5-9.46875-9.5-.20357 0-.42445-.0129-.625 0zm.21875 5c.13374-.0117.2692 0 .40625 0 2.50606 0 4.46875 1.99394 4.46875 4.5.00001 2.50606-1.96269 4.5-4.46875 4.5-2.50606 0-4.5-1.99394-4.5-4.5-.00001-2.369 1.78188-4.29803 4.09375-4.5z" transform="matrix(.11047 0 0 .11047 0 .28001726)"/>
    <path style="fill:#002b7f;fill-opacity:1;fill-rule:evenodd;stroke:#fff;stroke-width:1;stroke-linecap:butt;stroke-linejoin:miter;stroke-miterlimit:4;stroke-opacity:1;stroke-dasharray:none" d="M375.40625 113.90625c-7.91742 7.87573-10.96815 15.10612-9.84375 21.84375 1.05676 6.33234 5.60235 11.84303 12.28125 16.96875.0168-1.28438.0457-2.55935.0625-3.84375-5.30305-4.42292-8.62233-8.92762-9.40625-13.625-.90953-5.45009 1.37577-11.56131 8.625-18.875-.69361-.72718-1.28052-1.55409-1.71875-2.46875zm14.78125 44.6875c.0197 1.4953.0737 3.0045.0937 4.5 2.3073 2.62255 3.84366 5.19518 4.4375 7.5625.61578 2.45478.32756 4.68584-1.125 6.96875s-4.17812 4.61965-8.53125 6.8125c-8.89619 4.48138-14.43291 13.42301-18.40625 19.0625 1.16653.0957 2.33314.17802 3.5.25 3.92261-5.65266 8.75041-12.84715 16.25-16.625 4.66333-2.34911 7.85934-4.95267 9.71875-7.875 1.85941-2.92233 2.28607-6.17885 1.5-9.3125-.9799-3.90631-3.63489-7.69364-7.4375-11.34375z" transform="matrix(.11047 0 0 .11047 0 .28001726)"/>
    <g style="fill:#002b7f;fill-opacity:1">
      <path d="M409.8125 100.65625c-10.10485 7.10349-18.13018 17.028-25.5625 26.59375-7.28732 4.61019-13.36343 10.69271-19.30608 16.86911-9.50633 8.73726-22.757 12.88004-35.69392 11.66214 8.0918 4.96715 16.6848 9.81263 22.375 17.4375 2.18168-9.59332 10.86919-15.43903 17.08937-22.49219 6.17432-6.39793 11.1548-14.16899 18.39989-19.31828 6.73672-7.71332 12.09028-16.4464 19.14568-23.82168 2.04634-2.38657 3.74633-5.05796 5.08381-7.93035-.51042.333333-1.02083.66667-1.53125 1z" style="fill:#002b7f;fill-opacity:1;fill-rule:evenodd;stroke:#fff;stroke-width:1px;stroke-linecap:butt;stroke-linejoin:miter;stroke-opacity:1" transform="matrix(.11047 0 0 .11047 0 .28001726)"/>
      <g style="fill:#002b7f;fill-opacity:1">
        <path d="M350.1883 168.2772c-.33995-5.42523-3.22752-7.29277-9.27152-9.09322" style="fill:#002b7f;fill-opacity:1;fill-rule:evenodd;stroke:#fff;stroke-width:1.5;stroke-linecap:round;stroke-linejoin:round;stroke-miterlimit:4;stroke-opacity:1;stroke-dasharray:none" transform="matrix(.11047 0 0 .11047 0 .28001726)"/>
        <path style="fill:#002b7f;fill-opacity:1;fill-rule:evenodd;stroke:#fff;stroke-width:1.5;stroke-linecap:round;stroke-linejoin:round;stroke-miterlimit:4;stroke-opacity:1;stroke-dasharray:none" d="M351.79299 166.67251c-.33995-5.42523-1.97943-6.93617-8.02343-8.73662" transform="matrix(.11047 0 0 .11047 0 .28001726)"/>
        <path d="M366.05685 147.59459c-4.81532 4.72385-8.58353 10.32029-16.04685 12.83748" style="fill:#002b7f;fill-opacity:1;fill-rule:evenodd;stroke:#fff;stroke-width:1.5;stroke-linecap:round;stroke-linejoin:round;stroke-miterlimit:4;stroke-opacity:1;stroke-dasharray:none" transform="matrix(.11047 0 0 .11047 0 .28001726)"/>
      </g>
    </g>
    <g style="fill:#002b7f;fill-opacity:1">
      <path d="M357.0625 101.3125c4.68856 8.53686 10.11402 16.8166 16.65625 24.0625 5.22622 5.71981 12.25025 9.45738 16.875 15.8125 6.42737 8.55245 14.90604 15.41376 21.42292 23.65155 1.85737 2.49411 3.42376 5.28792 3.85833 8.41095 5.84328-7.67488 14.32608-12.49127 22.5-17.5-11.77321.84236-24.51869-1.52336-33.625-9.15625-7.08775-7.42041-13.98083-15.37047-22.88781-20.50218C373.26153 120.51383 368.1967 111.48213 361.5 104c-1.02747-1.08274-5.20364-5.206376-4.73834-3.34151l.20895.45425.0919.19976z" style="fill:#002b7f;fill-opacity:1;fill-rule:evenodd;stroke:#fff;stroke-width:1px;stroke-linecap:butt;stroke-linejoin:miter;stroke-opacity:1" transform="matrix(.11047 0 0 .11047 0 .28001726)"/>
      <g style="fill:#002b7f;fill-opacity:1">
        <path style="fill:#002b7f;fill-opacity:1;fill-rule:evenodd;stroke:#fff;stroke-width:1.5;stroke-linecap:round;stroke-linejoin:round;stroke-miterlimit:4;stroke-opacity:1;stroke-dasharray:none" d="M417.3965 168.2772c.33995-5.42523 3.22752-7.29277 9.27152-9.09322" transform="matrix(.11047 0 0 .11047 0 .28001726)"/>
        <path d="M415.79181 166.67251c.33995-5.42523 1.97943-6.93617 8.02343-8.73662" style="fill:#002b7f;fill-opacity:1;fill-rule:evenodd;stroke:#fff;stroke-width:1.5;stroke-linecap:round;stroke-linejoin:round;stroke-miterlimit:4;stroke-opacity:1;stroke-dasharray:none" transform="matrix(.11047 0 0 .11047 0 .28001726)"/>
        <path style="fill:#002b7f;fill-opacity:1;fill-rule:evenodd;stroke:#fff;stroke-width:1.5;stroke-linecap:round;stroke-linejoin:round;stroke-miterlimit:4;stroke-opacity:1;stroke-dasharray:none" d="M401.52795 147.59459c4.81532 4.72385 8.58353 10.32029 16.04685 12.83748" transform="matrix(.11047 0 0 .11047 0 .28001726)"/>
      </g>
    </g>
  </g>
</svg>
