<?xml version="1.0" encoding="utf-8"?>
<!-- Generator: Adobe Illustrator 16.0.0, SVG Export Plug-In . SVG Version: 6.00 Build 0)  -->
<!DOCTYPE svg PUBLIC "-//W3C//DTD SVG 1.1//EN" "http://www.w3.org/Graphics/SVG/1.1/DTD/svg11.dtd">
<svg version="1.1" id="Layer_1" xmlns="http://www.w3.org/2000/svg" xmlns:xlink="http://www.w3.org/1999/xlink" x="0px" y="0px"
	 width="800px" height="444px" viewBox="0 0 800 444" enable-background="new 0 0 800 444" xml:space="preserve">
<rect x="1" fill="#009938" width="800" height="444"/>
<rect x="1" fill="#FFFD1F" width="531" height="444"/>
<rect x="1" fill="#E9211B" width="271" height="444"/>
<path fill="#0C0602" d="M480.472,163.009c11.29,15.902,17.929,35.338,17.929,56.325c0,53.792-43.607,97.4-97.399,97.4
	c-53.794,0-97.4-43.608-97.4-97.4c0-20.987,6.639-40.424,17.929-56.325C300.828,183.49,288,211.913,288,243.334
	c0,62.407,50.591,113,113,113c62.406,0,113-50.593,113-113C514,211.913,501.172,183.491,480.472,163.009z"/>
<polygon fill="#0C0602" points="401,109.334 407.557,128.198 427.522,128.604 411.608,140.669 417.393,159.785 401,148.378 
	384.606,159.785 390.391,140.669 374.477,128.604 394.442,128.198 "/>
</svg>
