<?xml version="1.0" encoding="utf-8"?>
<!-- Generator: Adobe Illustrator 15.0.0, SVG Export Plug-In . SVG Version: 6.00 Build 0)  -->
<!DOCTYPE svg PUBLIC "-//W3C//DTD SVG 1.1//EN" "http://www.w3.org/Graphics/SVG/1.1/DTD/svg11.dtd">
<svg version="1.1" id="Layer_1" xmlns="http://www.w3.org/2000/svg" xmlns:xlink="http://www.w3.org/1999/xlink" x="0px" y="0px"
	 width="795.584px" height="530.389px" viewBox="0 0 795.584 530.389" enable-background="new 0 0 795.584 530.389"
	 xml:space="preserve">
<g>
	<rect fill="#F4794E" width="795.584" height="531.644"/>
</g>
<g>
	<g>
		<path fill="#3D54A2" d="M496.02,209.794c1.813,1.004,1.832,2.691,0.902,4.365C496.278,212.789,495.985,211.3,496.02,209.794z"/>
		<path fill="#3D54A2" d="M413.713,254.857c0.41-1.08,0.662-2.514,2.039-2.707c2.904,1.25,1.055,4.859,1.072,7.232
			c-1.787,1.117-3.389,2.5-4.938,3.92C412.063,260.416,412.795,257.589,413.713,254.857z"/>
		<path fill="#3D54A2" d="M402.456,273.117c-0.635-4.104,1.57-7.9,3.443-11.363c0.205,3.037-1.426,5.719-2.461,8.467
			c0.328,0.301,0.988,0.9,1.316,1.201C404.006,272.007,403.227,272.558,402.456,273.117z"/>
		<path fill="#3D54A2" d="M292.247,435.492c1.477-1.094,3.001-2.117,4.547-3.121c0.851,1.793,1.709,3.584,2.434,5.443
			C296.87,437.123,294.561,436.302,292.247,435.492z"/>
	</g>
	<g>
		<path fill="#3D54A2" d="M652.026,26.813c1.891,0.017,3.789,0.018,5.693-0.005c2.223,2.363,1.645,5.714,1.662,8.665
			c-0.186,4.637-0.08,9.307-0.637,13.918c-0.1,1.805-1.49,3.852-3.467,3.695c-1.492-0.146-3.215-0.334-4.295-1.464
			c-0.441-5.868,0.654-11.725,0.521-17.597C651.448,31.611,651.444,29.171,652.026,26.813z"/>
		<path fill="#3D54A2" d="M626.061,29.887c2.275-1.502,5.27,0.327,6.133,2.668c1.748,4.295,3.104,8.752,4.98,13.001
			c1.1,2.65,2.664,5.369,2.328,8.34c-1.211,1.874-3.699,1.547-5.594,1.954c-2.854-7.222-5.133-14.67-8.35-21.745
			C624.766,32.734,624.633,30.905,626.061,29.887z"/>
		<path fill="#3D54A2" d="M678.196,31.524c2.193,0.494,4.912,0.435,6.455,2.338c-0.064,2.105-1.188,3.973-1.965,5.88
			c-2.297,4.929-4.055,10.108-6.813,14.812c-2.314-0.003-4.537-0.639-6.566-1.713c0.178-3.302,1.955-6.154,3.107-9.163
			C674.086,39.513,676.366,35.624,678.196,31.524z"/>
		<path fill="#3D54A2" d="M603.997,48.585c1.045-2.051,2.975-4.527,5.553-4.127c3.641,4.053,6.887,8.479,10.705,12.396
			c1.535,1.874,3.729,3.681,3.801,6.297c-0.752,1.641-2.252,2.763-3.506,3.999c-3.5-1.946-5.314-5.656-7.896-8.542
			C609.745,55.291,606.764,52.024,603.997,48.585z"/>
		<path fill="#3D54A2" d="M694.438,53.543c2.227-2.479,3.994-5.465,6.852-7.329c2.016,0.607,3.736,1.989,5.258,3.418
			c0.629,0.55,0.621,1.839-0.002,2.402c-2.713,2.761-5.891,4.998-8.717,7.64c-2.299,1.932-4.297,4.351-7.076,5.612
			c-2.459,0.938-4.023-1.653-5.67-2.963C687.729,58.935,690.899,55.978,694.438,53.543z"/>
		<g>
			<path fill="#3D54A2" d="M647.485,57.521c11.025-1.43,22.48,1.749,31.371,8.374c4.23,2.91,7.406,7.042,10.418,11.132
				c3.027,4.036,4.107,9.054,5.51,13.798c4.652,19.31-6.863,41.038-25.449,48.057c-6.617,3.033-14.059,2.664-21.15,2.439
				c-11.199-1.417-21.143-8.029-28.357-16.498c-4.994-7.663-8.678-16.551-8.426-25.845c-0.229-13.183,6.725-25.844,17.045-33.806
				C634.143,61.327,640.604,58.338,647.485,57.521z M647.624,75.88c-6.176,1.434-12.014,5.221-15.221,10.781
				c-3.818,5.888-4.521,13.384-2.992,20.123c2.352,7.246,8.094,13.352,15.336,15.852c4.682,2.215,10.1,2.563,15.02,0.935
				c10.934-2.933,19.086-13.978,18.371-25.308c-0.916-7.033-4.303-14.011-10.178-18.193
				C662.086,76.086,654.614,74.235,647.624,75.88z"/>
		</g>
		<path fill="#3D54A2" d="M589.868,64.902c1.387-0.713,2.766,0.429,4.016,0.94c5.977,3.345,12.102,6.434,17.875,10.12
			c-0.842,1.709-1.697,3.401-2.523,5.108c-1.602-0.005-3.283,0.104-4.717-0.719c-5.758-2.901-11.348-6.139-17.178-8.891
			C587.522,69.177,587.336,65.954,589.868,64.902z"/>
		<g>
			<path fill="#3D54A2" d="M482.502,71.554c2.971-0.849,5.758-2.26,8.76-3.021c0.059,0.48,0.166,1.443,0.223,1.926
				c-1.471,1.077-3.688,1.829-3.826,3.942c3.945-1.979,7.689-4.521,12.186-5.149c0.787,2.156-1.662,3.223-2.758,4.666
				c3.082-0.19,6.123-0.752,9.197-1.062c0.014,0.506,0.033,1.514,0.037,2.019c-2.283,0.589-4.863,0.655-6.697,2.314
				c5.475-0.352,10.932-0.977,16.416-1.35c0.506,0.884,1.014,1.768,1.535,2.651c1.783-0.221,3.633-0.7,5.426-0.239
				c0.563,0.64,1.029,1.354,1.527,2.059c-2.176,0.403-4.836-0.1-6.416,1.786c4.396,0.611,8.813,1.073,13.148,2.092
				c0.143,0.702,0.305,1.405,0.477,2.108c-5.055-0.44-10.105-1.185-15.18-1.261c0.35,2.006,1.936,3.322,3.045,4.903
				c0.271,1.197,0.205,2.438,0.256,3.668c-3.598-3.386-6.838-7.901-12.104-8.629c-0.172,2.375,1.221,4.295,2.494,6.143
				c-0.824-0.064-1.641-0.122-2.457-0.181c-1.896-2.536-3.953-5.368-7.289-5.983c-0.189,1.642-0.18,3.288-0.123,4.939
				c-3.039-2.51-6.582-4.39-10.496-5.021c0.256,2.393,1.443,4.486,2.668,6.504c-5.328-1.045-10.229-3.659-15.658-4.281
				c-2.611-0.185-5.336-1.146-7.859-0.021c2.621,2.32,6.188,2.207,9.398,2.948c0.271,0.339,0.813,1.007,1.084,1.345
				c-6.957-0.707-14.393-1.722-20.996,1.187c2.676,1.126,5.602,0.805,8.428,0.987c3.088,0.188,6.191,0.501,9.225,1.164
				c-0.141,0.833-0.266,1.664-0.389,2.496c-5.838-1.588-11.971-1.646-17.947-0.91c-2.318,0.33-4.723,0.765-6.566,2.321
				c3.627,1.989,7.539-0.271,11.346,0.042c0.459,0.527,0.896,1.08,1.316,1.653c-3.447,0.722-6.996,0.97-10.365,2.029
				c-0.262,1.219-0.498,2.452-0.766,3.672c-4.348,1.311-8.811,2.65-12.578,5.266c0.168,0.354,0.494,1.063,0.654,1.418
				c2.352-1.191,4.74-2.339,7.307-2.997c-0.125,1.313,0.236,3.154-1.449,3.567c-4.182,1.404-8.164,3.302-11.793,5.835
				c2.145-0.18,4.293-0.195,6.443-0.087c0.068,0.822,0.145,1.646,0.236,2.466c-7.617,2.016-16.494,3.82-20.898,11.107
				c3.828,0.81,6.223-3.304,9.424-4.675c1.877-1.363,4.189-0.818,5.844,0.603c-4.477,4.24-11.25,5.242-15.369,10.028
				c3.477-0.069,6.217-3.044,9.834-2.536c0.297,0.642,0.605,1.283,0.934,1.924c-4.238,1.636-9.713,2.113-12.043,6.595
				c2.744-0.697,5.363-1.803,8.131-2.383c0.088,1.244,0.25,2.504,0.117,3.76c-2.682,2.18-6.52,2.141-9.189,4.41
				c1.168,0.482,2.527,0.684,3.516,1.539c0.301,2.777-2.725,3.592-4.709,4.475c-2.193,0.811-3.986,2.328-5.486,4.08
				c2.467-0.896,5.041-1.48,7.682-1.385c-1.502,2.85-5.281,3.643-6.217,6.906c-1.775-3.566-5.979-4.232-9.551-4.504
				c-3.926-0.275-8.426-0.225-11.44,2.709c-2.741,2.123-2.03,5.926-2.391,8.963c1.053,0.018,2.114,0.035,3.175,0.068
				c-0.65,0.748-1.303,1.504-1.939,2.268c-1.701-0.262-3.685-1.248-5.25-0.061c-1.103,0.859-1.801,2.113-2.597,3.242
				c0.421,1.012,0.839,2.021,1.25,3.049c-2.137-0.756-4.129-1.854-5.968-3.174c0.464-0.971,0.92-1.953,1.368-2.932
				c-3.766,2.111-6.808,5.209-9.215,8.758c-1.139,0.268-2.277,0.529-3.416,0.797c0.988-1.674,1.755-3.461,2.438-5.271
				c-5.005,2.059-6.93,7.582-9.633,11.84c-0.393,0.672-0.785,1.344-1.172,2.023c-1.242,1.523-2.545,3.066-4.284,4.059
				c0.667-2.67,1.639-5.328,1.393-8.127c-4.406,1.865-5.898,6.924-7.977,10.834c-0.816-0.139-1.627-0.27-2.437-0.402
				c0.973-1.844,1.863-3.729,2.434-5.73c-5.945,1.479-5.747,9.201-10.173,12.58c-0.075-3.432,0.316-6.848,0.3-10.266
				c-2.073,1.596-2.524,4.262-3.582,6.5c-1.36,2.928-2.863,5.793-4.188,8.744c-0.662-0.141-1.316-0.297-1.956-0.469
				c-0.597-2.188-0.866-4.438-1.231-6.658c-1.09,2.059-2.11,4.16-3.462,6.074c-2.692,3.807-4.341,8.236-7.063,12.025
				c-1.143,0.154-2.631-0.414-3.519,0.432c-1.338,2.492-1.096,5.494-2.209,8.072c-0.639,1.193-1.682,2.088-2.62,3.039
				c-0.72-1.313-1.395-2.646-2.105-3.957c-2.515,3.268-1.697,7.895-4.279,11.133c-1.522,1.738-2.281,4.824-5.041,4.75
				c-0.463-0.996-0.927-1.99-1.383-2.979c-3.474,2.982-7.574,5.061-11.804,6.748c1.636-2.971,4.114-5.313,6.958-7.115
				c1.871-1.111,2.654-3.168,3.01-5.203c-1.428-0.48-2.865-0.939-4.266-1.471c2.825-3.342,6.77-5.439,10.322-7.896
				c2.529-1.883,4.526-4.373,6.329-6.932c-1.852-0.498-3.289,0.971-4.574,2.061c-1.651,1.547-3.25,3.176-5.134,4.449
				c0.013-1.572-0.37-3.244,0.206-4.75c4.601-3.713,10.049-6.563,13.709-11.313c-2.999,0.301-5.238,2.334-7.713,3.803
				c-1.668,0.047-2.557-1.85-3.709-2.799c1.995-1.893,4.855-2.064,7.23-3.24c2.771-1.381,5.674-2.475,8.5-3.729
				c-1.049-1.523-2.572-2.561-4.234-3.297c-0.085-0.318-0.271-0.947-0.355-1.256c4.609-0.32,8.723-2.523,13.146-3.611
				c2.668-0.809,5.727-1.178,7.658-3.41c-3.832,0.199-7.666,0.727-11.506,0.311c3.57-4.951,10.516-3.285,15.241-6.313
				c-0.807-1.164-2.565-2.033-2.287-3.646c3.093-1.934,6.895-1.553,10.357-2.125c1.688-0.311,4.011-0.031,4.797-1.961
				c-1.326-0.66-2.654-1.297-3.974-1.957c-0.04-0.332-0.115-1-0.156-1.334c5.533-1.211,11.216-1.008,16.851-1.063
				c2.226,0.033,4.405-0.637,6.237-1.895c-2.473-0.322-4.954-0.012-7.396,0.355c-2.522,0.496-4.286-1.938-5.787-3.574
				c5.081-0.51,10.183,0.166,15.266-0.23c-0.874-1.949-1.757-3.896-2.513-5.891c2.973,0.012,5.922,0.506,8.891,0.664
				c1.906,0.125,3.402-1.365,5.238-1.631c1.941-0.09,3.847,0.453,5.791,0.506c1.462-0.529,2.439-1.859,3.623-2.822
				c-1.943-2.047-4.537-3.24-7.123-4.266c-0.053-0.865-0.107-1.734-0.17-2.602c3.416,1.016,6.354,3.236,9.877,3.938
				c-0.124-0.555-0.381-1.664-0.506-2.219c-2.443-1.691-5.341-2.594-7.923-4.055c-2.179-1.252-4.702-1.498-7.145-1.789
				c-0.098-0.77-0.197-1.549-0.286-2.311c2.898-0.025,5.653,0.953,8.463,1.535c-0.911-2.459-3.878-2.604-5.921-3.654
				c-2.871-1.355-6.352-2.324-8.046-5.234c3.021,0.887,6.104,1.949,9.3,1.357c-2.795-3.121-7.35-2.736-10.992-4.148
				c-1.944-0.824-4.75-1.089-5.002-3.666c3.691,0.529,7.271,1.749,11.025,1.841c-3.789-3.221-8.951-4.594-13.86-4.672
				c-2.003-0.065-3.931-0.638-5.813-1.254c-0.021-0.415-0.066-1.26-0.086-1.675c2.803-0.092,5.604-0.175,8.405-0.354
				c-0.536-0.876-0.797-2.164-2.014-2.307c-2.543-0.668-5.211-0.52-7.775-1.068c-2.327-0.573-4.499-1.861-6.954-1.835
				c-2.392-0.239-5.189,0.682-7.109-1.202c4.209-0.887,7.986-3.188,12.385-3.231c-3.479-1.503-7.504-1.19-11.2-0.979
				c-2.892,0.797-5.845-0.009-8.496-1.188c2.008-1.424,4.532-1.097,6.86-1.115c0.181-0.462,0.556-1.385,0.742-1.847
				c-4.299-0.479-8.599,0.305-12.896-0.021c1.931-1.719,4.533-2.305,6.669-3.723c-4.223-0.256-8.355,0.784-12.552,0.949
				c1.604-3.771,6.494-2.18,9.295-4.338c-5.735-0.336-11.268,1.706-16.485,3.825c-1.459-0.575-2.877-1.354-4.451-1.566
				c-1.896,0.927-3.631,2.253-5.785,2.521c0.023-0.504,0.064-1.514,0.088-2.018c1.662-1.205,3.228-2.572,4.297-4.342
				c-5.761,1.393-7.934,7.972-13.157,10.27c0.039-1.209,0.1-2.411,0.158-3.611c-2.781,1.722-4.801,4.316-6.534,7.043
				c-0.424-0.077-1.278-0.223-1.701-0.292c0.357-1.725,0.829-3.421,1.24-5.132c-5.063,0.903-8.682,5.534-13.979,5.75
				c0.031-0.505,0.086-1.507,0.109-2.012c2.98-1.991,6.129-3.702,9.096-5.709c2.434-1.791,5.771-1.674,8.047-3.746
				c-3.575-0.745-7.102,1.513-10.654,0.172c-0.026-0.451-0.082-1.354-0.108-1.808c3.146,0.104,6.262-0.345,9.315-1.077
				c2.707-0.697,5.552-0.381,8.257-1.057c0.032-0.318,0.108-0.95,0.143-1.271c-2.436-0.306-4.902,0.011-7.338-0.259
				c-1.379-0.043-1.863-1.564-2.607-2.469c5.336,0.385,10.705,1.125,16.043,0.339c-3.001-3.06-8.095-2.387-10.912-5.64
				c4.787-0.276,9.205,2.262,14.044,1.821c0.164-0.499,0.51-1.505,0.682-2.003c4.051-0.521,7.627,1.671,11.326,2.92
				c2.785,0.993,5.709,1.813,8.088,3.653c1.522,0.984,3.002,2.511,4.979,2.235c-1.776-3.05-4.362-5.497-7.395-7.272
				c-1.617-0.715-1.764-2.539-2.092-4.047c3.028,1.618,5.772,3.694,8.6,5.635c2.331,1.627,5.102,2.664,7.045,4.809
				c2.669,2.514,4.285,6.438,8.13,7.404c-1.042-4.972-7.024-7.527-7.169-12.992c2.766,1.155,3.858,4.132,5.751,6.239
				c2.855,3.342,5.563,6.84,8.838,9.791c0.413-4.172-3.214-7.557-2.624-11.805c1.916,1.565,2.455,4.079,3.563,6.181
				c0.951,2.155,2.345,4.074,3.898,5.837c2.622,2.98,3.729,6.98,6.451,9.895c-1.449-4.932-4.108-9.372-5.883-14.163
				c-0.494-1.056-0.129-2.201,0.037-3.271c2.645,1.759,2.662,5.258,4.151,7.829c1.537,2.883,2.277,6.699,5.587,8.115
				c-0.808-3.023-1.944-5.977-2.15-9.134c0.416,0.049,1.248,0.143,1.663,0.188c3.234,6.052,5.909,12.393,8.11,18.892
				c0.655,1.587,1.11,3.852,3.219,3.992c-1.043-4.979-4.623-10.176-2.115-15.29c1.641,4.038,3.104,8.182,3.744,12.505
				c0.479,3.176,1.871,6.109,3.747,8.693c0.427-4.929-1.712-9.71-1.02-14.679c1.757,1.122,1.441,3.558,2.146,5.322
				c1.407,4.521,1.562,9.63,4.498,13.535c1.166-3.736,0.743-7.677,0.908-11.521c0.819,0.393,1.706,0.701,2.432,1.286
				c0.953,5.024-0.926,10.659,1.699,15.301c0.326-2.021,0.258-4.141,0.939-6.092c0.158-0.988,2.029-0.816,2.004,0.26
				c1.248,4.881-1.576,9.953,0.309,14.701c1.922-2.432,3.521-5.143,3.332-8.373c0.846,0.711,1.684,1.436,2.521,2.168
				c-0.799-4.439,0.219-8.955-0.635-13.409c3.846,1.018,2.162,5.627,3.707,8.368c0.432,0.092,1.301,0.268,1.732,0.352
				c0.66-5.229-1.904-10.271-0.799-15.496c1.314,1.482,1.988,3.366,2.742,5.182c1.287-4.293,0.701-8.816,1.164-13.212
				c0.188-1.204,0.023-2.609,0.902-3.563c2.447-0.457,2.076,2.632,1.959,4.183c-0.012,3.479-2.174,7.085-0.469,10.432
				c1.666-6.232,2-12.731,3.02-19.083c0.037-1.239,1.158-1.912,1.936-2.714c0.496,1.952,0.891,3.986,0.512,6
				c-0.174,1.664-0.881,3.458,0.102,5.006c2.182-5.268,1.363-11.207,3.137-16.58c0.43-1.413,1.445-2.5,2.645-3.321
				c-0.014,5.332-0.799,10.679-2.596,15.705c0.387,0.194,1.148,0.572,1.535,0.761c1.953-5.693,3.43-11.555,4.615-17.455
				c0.287-2.235,2.553-3.291,3.531-5.142c1.076-2,1.701-4.371,3.66-5.736c0.551,1.039,1.082,2.086,1.629,3.133
				c3.094-3.142,4.527-7.414,6.449-11.284c0.582,1.009,1.268,1.996,1.6,3.134c-0.236,2.051-1.299,3.9-1.832,5.878
				c3.293-2.689,4.527-6.9,6.898-10.279c1.729-0.035,3.268,0.935,4.867,1.457c1.568-2.152,2.613-4.887,5.074-6.22
				c3.777-2.355,6.871-5.676,10.783-7.848c0.787-0.432,1.723,0.003,2.572,0.008c-2.354,2.414-5.197,4.611-6.25,7.967
				c2.865-0.364,4.521-2.771,6.324-4.72C477.764,72.78,480.264,72.27,482.502,71.554z M487.901,80.718
				c3.174,0.684,6.039,2.884,9.338,2.779C495.125,80.94,490.987,78.911,487.901,80.718z M461.124,85.987
				c1.795-0.679,2.82-2.212,3.104-4.067C462.42,82.569,461.6,84.254,461.124,85.987z M479.778,83.886
				c2.418,1.85,5.469,2.283,8.398,1.553C486.088,83.111,482.542,82.231,479.778,83.886z M450.875,95.958
				c1.676-1.45,3.076-3.269,3-5.604C451.659,90.937,449.42,93.794,450.875,95.958z M337.743,188.279
				c2.012,0.141,3.947-0.453,5.507-1.73C341.237,186.384,338.854,186.181,337.743,188.279z M315.787,204.794
				c2.475-0.273,4.922-0.939,6.929-2.475C320.161,202.017,317.25,202.419,315.787,204.794z"/>
		</g>
		<path fill="#3D54A2" d="M707.42,70.526c3.334-1.609,6.682-3.22,10.197-4.414c2.127,1.8,3.35,4.3,3.721,7.038
			c-5.359,2.106-10.834,3.903-16.109,6.227c-2.246,0.723-4.484,2.097-6.896,1.908c-1.869-1.263-1.449-4.1-1.959-6.08
			C699.918,73.325,703.823,72.302,707.42,70.526z"/>
		<path fill="#3D54A2" d="M575.92,94.513c5.346-0.164,10.691-0.017,16.045-0.113c4.189,0.058,8.496-0.096,12.582,1.044
			c2.051,0.512,1.295,3.183,1.188,4.726c-0.641,2.402-3.652,1.702-5.512,1.895c-7.574-0.22-15.16,0.363-22.721-0.004
			C575.12,100.38,575.918,97.004,575.92,94.513z"/>
		<path fill="#3D54A2" d="M701.069,95.209c8.855-0.537,17.67,0.572,26.523,0.466c-0.029,2.12-0.229,4.236-0.744,6.288
			c-8.496,0.237-17.004,0.015-25.502,0.043C701.106,99.748,701.043,97.479,701.069,95.209z"/>
		<path fill="#3D54A2" d="M699.973,120.277c1.609,0.115,3.307,0.104,4.785,0.89c4.629,2.173,9.104,4.656,13.584,7.136
			c1.082,0.729,2.482,1.433,2.818,2.824c-0.643,1.645-1.598,3.702-3.395,4.228c-6.676-3.507-13.504-6.752-20.225-10.176
			C698.081,123.421,698.973,121.81,699.973,120.277z"/>
		<path fill="#3D54A2" d="M686.151,137.475c0.416-1.947,1.896-3.366,3.314-4.649c1.752,1.521,3.438,3.148,4.795,5.056
			c4.059,5.523,9.154,10.226,13.125,15.81c-0.025,2.381-2.133,4.109-4.004,5.266c-5.018-5.551-9.334-11.686-14.328-17.25
			C687.971,140.382,686.629,139.151,686.151,137.475z"/>
		<g>
			<path fill="#3D54A2" d="M430.934,158.968c3.045-1.029,5.912-2.529,8.848-3.822c-0.488,1.355-1.014,2.695-1.488,4.051
				c3.109,0.145,5.736-1.605,8.283-3.143c2.295,0.791,4.514,2.271,7.039,1.984c2.199-0.184,4.375-0.637,6.592-0.721
				c-1.275,1.371-2.791,2.48-4.299,3.578c3.635-0.582,7.244,0.602,10.895,0.02c-0.752,1.018-1.506,2.025-2.295,3.02
				c3.551-0.055,7.111-0.057,10.664,0.072c0.127,0.711,0.254,1.43,0.381,2.154c-2.018,0.045-4.033,0.119-6.033,0.281
				c0.012,1.063,0.039,2.115,0.064,3.176c3.684,0.381,7.391-0.203,11.066,0.18c1.406-0.145,1.396,1.467,1.873,2.387
				c-2.303,0.354-4.613,0.549-6.932,0.748c2.99,1.521,6.316,2.041,9.605,2.479c0.256-0.381,0.768-1.137,1.016-1.516
				c0.887,0.346,1.787,0.691,2.682,1.035c-0.02,0.986,0,1.98,0.02,2.975c-2.613-0.229-5.27-0.281-7.826,0.379
				c4.957,1.07,9.758,2.691,14.43,4.664c0.932,0.383,0.754,1.695,1.178,2.484c-2.779-0.664-5.584-1.359-8.469-1.357
				c2.625,3.367,7.096,3.889,10.598,5.947c1.955,1.188,4.34,2.064,5.416,4.254c-3.09,0.146-5.908-1.23-8.84-1.939
				c1.705,3.957,6.383,5.053,9.881,6.912c0.064,0.332,0.189,1.006,0.254,1.346c-1.094,0.383-2.188,0.768-3.266,1.164
				c1.924,1.484,4.043,2.684,5.959,4.189c1.246,0.928,0.859,2.689,1.143,4.035c-1.346-0.971-2.561-2.1-3.715-3.279
				c-0.631,0.051-1.891,0.146-2.52,0.197c1.295,3.086,4.127,5.02,6.143,7.576c1.342,1.734,1.004,4.127,0.137,5.998
				c-2.057-1.334-3.598-3.26-5.314-4.969c-0.221,0.842-0.232,1.77,0.404,2.457c1.441,2.262,3.48,4.188,4.4,6.768
				c0.666,1.896,0.141,3.922-0.045,5.857c-0.852-1.139-1.688-2.279-2.553-3.396c-0.215,2.65,0.141,5.295,0.408,7.93
				c-0.41-0.15-1.215-0.445-1.615-0.59c-1.08-3.027-1.252-6.459-3.145-9.131c-0.248,1.754-0.449,3.521-0.645,5.295
				c-0.395-0.049-1.174-0.127-1.561-0.166c-0.682-2.59-1.578-5.16-1.609-7.865c-0.082-2.707-0.053-5.48-1.135-8.02
				c-0.611,1.736-1.141,3.498-1.787,5.219c-0.84-3.438-1.799-6.846-2.223-10.363c-0.105-1.422-0.779-2.676-1.807-3.643
				c-0.838,1.357-1.705,2.719-2.855,3.836c-0.727-3.863,0.342-9.133-3.432-11.611c-1.672,0.279-0.924,2.926-2.729,3.359
				c-0.703-2.57-0.803-5.41-2.51-7.594c-2.439-3.221-2.053-7.645-4.602-10.805c-0.201,0.521-0.611,1.563-0.82,2.094
				c0.43,1.449,0.994,2.879,1.24,4.383c-0.393,2.053-1.596,3.859-2.881,5.469c-0.541-3.131-0.23-6.73-2.758-9.113
				c-1.645,1.518-0.818,3.697-0.953,5.633c-0.369,0.752-1.289,0.668-1.971,0.846c-0.238-2.014-1.021-3.857-2.41-5.342
				c-0.324-0.5-0.619-1.016-0.885-1.541c-0.17-1.266-0.295-2.523-0.43-3.791c-1.105,0.494-2.213,0.996-3.342,1.424
				c-1.072,0.229-2.162,0.402-3.227,0.639c-0.645-1.787-1.141-3.672-2.203-5.264c-2.41-2.078-5.129-3.783-7.73-5.613
				c1.217,2.564,2.586,5.094,3.176,7.904c-0.477-0.047-1.418-0.146-1.895-0.191c-1.387-2.031-2.775-4.174-4.934-5.463
				c-3.18-1.855-6.086-4.352-9.777-5.096c1.33,2.41,3.537,4.127,5.889,5.48c0.146,2.408,0.182,4.861-0.43,7.219
				c-1.234-2.246-2.123-4.789-4.063-6.553c-1.186-1.16-2.887-1.443-4.361-2.021c-1.979,2.105-0.096,4.738,0.104,7.148
				c-1.92-1.803-3.229-4.273-5.668-5.455c-2.932-1.5-5.711-4.68-9.309-3.506c1.641,1.486,3.711,2.34,5.563,3.52
				c1.299,1.326,2.09,3.047,2.85,4.723c-1.625-0.889-3.129-1.975-4.594-3.102c-0.914,1.248-1.805,2.52-2.701,3.775
				c2.619,3.537,6.898,5.588,8.945,9.547c-2.021-0.281-3.941-0.965-5.918-1.402c-0.178,0.172-0.529,0.52-0.705,0.689
				c0.994,2.658,3.504,4.227,5.064,6.484c1.131,2.322,1.959,4.773,3.023,7.129c-1.033,0.434-2.066,0.861-3.102,1.279
				c1.506,2.721,3.168,5.477,3.316,8.662c-0.498-0.018-1.492-0.064-1.988-0.082c-1.582-2.199-2.826-4.684-4.953-6.426
				c0.707,3.447,2.98,6.27,4.145,9.557c1.508,4.113,4.092,7.785,5.266,12.027c-2.15-0.607-2.863-2.867-3.979-4.537
				c-0.469-0.055-1.412-0.156-1.879-0.201c0.643,4.391,1.877,8.67,2.615,13.043c0.273,1.258-0.055,2.516-0.359,3.734
				c-1.674-2.555-1.492-6.08-3.969-8.113c-0.256,3.623,1.141,7.01,2.031,10.449c0.766,2.883-0.031,5.857-0.533,8.719
				c-2.982-0.842-1.193-4.563-1.855-6.771c-0.414-1.234-1.113-4.074-2.842-2.881c0.186,5.357,2.943,11.154,0.004,16.225
				c-0.693,0.318-1.379,0.652-2.051,1.002c-0.02-2.373,1.832-5.982-1.074-7.232c-1.377,0.191-1.629,1.627-2.039,2.707
				c-0.918,2.73-1.65,5.559-1.824,8.443c-2.342,2.732-4.355,5.781-7.133,8.119c-0.328-0.301-0.988-0.9-1.316-1.201
				c1.035-2.748,2.666-5.43,2.461-8.467c-1.873,3.463-4.078,7.262-3.443,11.363c-0.494,0.33-0.994,0.654-1.502,0.965
				c-3.021,2.332-6.125-1.35-9.386-0.961c3.24-2.105,6.606-4.557,7.497-8.576c-1.596,0.508-3.17,1.059-4.78,1.506
				c0.578-1.955,1.597-3.762,3.032-5.209c3.248-3.434,6.531-6.836,10.025-10.02c1.092-0.977,1.984-2.15,2.748-3.396
				c-4.053,1.625-6.617,5.59-10.662,7.193c-1.451,0.281-1.098-1.346-0.953-2.236c0.471-2.949,4.387-2.281,5.844-4.5
				c3.961-4.605,8.781-9.266,9.92-15.453c-3.787,2.992-5.061,8.34-9.354,10.834c-0.873,0.211-1.762,0.377-2.65,0.498
				c3.178-6.258,8.043-11.467,11.467-17.578c0.697-1.342,0.963-2.844,1.264-4.307c-2.938,1.707-4.311,4.904-6.449,7.383
				c-0.789,1.018-2.207,0.834-3.324,1.113c2.465-4.365,4.607-8.965,7.842-12.852c1.643-1.842,2.334-4.236,2.49-6.656
				c-2.594,2.023-4.438,4.76-6.248,7.463c-0.934-0.02-1.869-0.037-2.803-0.043c1.707-3.66,5.092-6.672,5.445-10.852
				c-1.453,0.691-2.912,1.375-4.412,1.971c0.051-0.854,0.07-1.705,0.098-2.553c2.045-2.129,1.195-5.256-0.004-7.584
				c-1.258,0.117-2.371,0.76-3.508,1.254c1.354-2.904,1.297-6.094,0.135-9.047c-1.234,0.836-2.449,1.688-3.678,2.533
				c-0.084-1.549,0.111-3.139-0.275-4.646c-0.777-1.355-1.971-2.41-3.057-3.504c1.449-0.297,3.193-0.102,4.33-1.221
				c2.443-2.348,4.316-5.32,7.262-7.117c1.941-1.424,4.408-2.424,5.658-4.58c0.105-2.396-0.559-4.754-1.279-7.008
				c4.576-1.09,7.955-4.568,11.064-7.875c0.797-0.936,1.887-1.525,3.002-2.02C428.104,157.281,428.965,159.828,430.934,158.968z
				 M429.028,164.128c0.182,0.34,0.539,1.023,0.713,1.371c1.119-0.762,2.236-1.521,3.355-2.277c-0.16-0.361-0.488-1.084-0.646-1.445
				C431.301,162.544,430.161,163.332,429.028,164.128z M423.68,169.935c0.859,1.244,1.865,2.375,2.959,3.414
				c0.473-0.285,1.4-0.875,1.863-1.162C427.118,171.017,425.471,170.236,423.68,169.935z M455.608,172.357
				c0.85,2.936,2.176,6.24,5.332,7.313C459.752,176.892,458.266,173.98,455.608,172.357z M413.561,176.857
				c0.393,1.82,2.512,0.951,3.738,0.736C416.743,176.087,414.045,174.464,413.561,176.857z M406.754,188.679
				c1.479-1.543,3.166-3.365,2.879-5.689c-0.293-1.041-0.973-1.422-2.037-1.135C406.239,183.867,406.239,186.402,406.754,188.679z
				 M481.948,190.703c0.273,1.377,0.461,2.852,1.297,4.043c0.514,0.66,1.564,1.813,2.068,0.494
				C484.92,193.308,483.692,191.617,481.948,190.703z M409.057,200.283c1.615-2.08,2.098-4.695,1.594-7.258
				C408.573,194.843,408.637,197.789,409.057,200.283z M412.495,203.24c1.473-0.996,1.891-2.678,2.027-4.34
				C413.102,199.916,412.772,201.619,412.495,203.24z M420.403,200.228c0.574,1.668,1.658,3.051,3.145,4.014
				c-0.205-1.066,0.129-2.391-0.682-3.24C422.053,200.691,421.235,200.433,420.403,200.228z M496.02,209.794
				c-0.035,1.506,0.258,2.992,0.902,4.365C497.852,212.488,497.833,210.798,496.02,209.794z"/>
		</g>
		<path fill="#3D54A2" d="M571.112,362.195c-1.607-4.381,7.168-5.449,7.248-1.023c-0.102,5.398-4.426,10.697-1.984,16.055
			c4.305-3.727,6.4-9.104,9.27-13.867c3.094-0.473,6.416,2.139,5.451,5.455c-4.018,3.457-9.711,4.877-12.795,9.502
			c5.906,2.346,11.557-2.258,17.471-2.531c1.119,2.441,0.883,5.248-0.664,7.443c-5.707-1.588-11.406-4.023-17.467-2.916
			c0.732,2.482,3.002,3.873,5.027,5.229c3.34,2.232,7.051,3.852,10.398,6.082c-0.084,3.184-3.115,5.264-6.137,4.859
			c-2.756-4.9-5.01-10.918-10.439-13.43c-1.586,5.926,2.674,11.338,2.449,17.197c-0.303,2.865-4.389,2.83-6.133,1.33
			c-1.664-1.605-0.631-3.99,0.045-5.799c1.639-4.037,2.389-8.467,1.754-12.805c-6.369,2.637-6.135,11.623-12.322,14.523
			c-1.277-1.623-3.551-3.119-3.088-5.467c4.074-4.297,10.971-5.818,13.402-11.66c-6.205-0.492-11.764,3.031-17.867,3.086
			c-0.24-2.313-0.252-4.646,0.014-6.955c3.463-0.537,6.512,1.461,9.781,2.166c2.389,0.686,4.889,0.686,7.348,0.518
			c-2.195-5.307-8.965-5.742-12.721-9.443c-0.709-1.787-0.4-4.053,1.352-5.096c1.254-1.313,3.494-0.625,4.229,0.908
			c2.109,3.521,3.977,7.26,6.863,10.238c0.701,0.941,1.867,1.18,2.982,1.324C574.417,371.953,572.643,367.064,571.112,362.195z"/>
		<path fill="#3D54A2" d="M115.729,393.208c5.971-5.102,14.163-6.572,21.809-5.947c7.398,1.17,13.758,6.162,17.676,12.406
			c1.67,2.717,3.261,5.666,6.023,7.443c3.639,2.424,7.874,4.523,12.37,4.072c3.384-0.408,6.663-1.602,9.618-3.281
			c3.564-2.197,5.165-6.242,7.702-9.385c3.254-4.139,7.063-8.26,12.221-9.92c4.212-1.264,8.669-1.877,13.063-1.57
			c6.85,1.152,12.728,5.59,16.802,11.074c1.59,2.297,1.017,5.254,0.481,7.805c-2.511-2.926-4.215-6.746-7.846-8.5
			c-3.296-1.668-6.189-4.453-10.035-4.75c-2.947-0.293-5.93-0.469-8.878-0.176c-2.663,0.506-5.103,1.838-7.362,3.285
			c-3.396,2.107-4.908,5.99-7.404,8.945c-3.686,5.15-9.104,9.506-15.544,10.355c-5.192,0.512-10.873,0.441-15.343-2.623
			c-4.793-2.926-7.401-8.051-10.455-12.539c-3.76-5.35-10.264-7.908-16.545-8.66c-5.729,0.207-11.363,2.293-15.801,5.939
			c-4.078,3.449-5.796,8.867-9.925,12.281c-2.946,2.434-6.28,4.623-10.045,5.533c-5.862,0.934-12.11,0.566-17.379-2.4
			c1.528-1.293,2.905-3.377,5.124-3.334c2.773,0.555,5.257,2.549,8.21,2.059c6.11-0.736,12.196-4.145,15.085-9.73
			C111.036,398.498,113.191,395.656,115.729,393.208z"/>
		<path fill="#3D54A2" d="M117.091,418.027c3.979-2.846,8.419-5.699,13.507-5.652c5.768-0.043,12.247,0.344,16.764,4.387
			c4.87,4.424,8.396,10.064,11.877,15.58c3.198,2.93,7.123,5.74,11.661,5.666c5.386,0.297,11.285-1.418,14.789-5.729
			c2.671-3.121,3.945-7.215,6.804-10.197c4.409-4.893,10.685-8.648,17.449-8.473c3.516,0.02,7.115-0.348,10.564,0.451
			c4.042,1.416,7.148,4.568,10.279,7.367c2.987,2.627,2.065,6.969,2.09,10.49c-3.944-3.938-6.865-9.125-12.105-11.557
			c-4.195-2.482-9.348-2.357-13.947-1.252c-3.505,0.867-7.263,1.705-9.939,4.309c-4.141,3.717-5.641,9.465-9.811,13.154
			c-6.494,5.434-16.162,7.582-24.005,3.857c-5.542-2.895-9.206-8.164-13.041-12.902c-2.368-2.822-3.688-6.818-7.353-8.297
			c-4.264-1.865-9.141-3.68-13.78-2.166c-3.903,1.045-7.867,2.676-10.433,5.945c-3.59,4.557-7.209,9.092-10.814,13.625
			c-7.609,8.979-22.689,9.221-31.085,1.271c1.677-1.846,4.478-2.75,6.688-1.256c5.556,3.313,13.029,4.006,18.496,0.111
			C108.993,432.386,110.338,422.894,117.091,418.027z"/>
		<path fill="#3D54A2" d="M476.467,415.953c7.939-0.117,15.881-0.281,23.824-0.117c0.227,3.682,0.273,7.381,0.139,11.084
			c-2.598,1.051-6.516,1.48-7.123,4.803c-1.221,8.875-0.266,17.859-0.418,26.781c-0.129,8.275,0.445,16.561,0.012,24.826
			c-4.531,0.443-9.117,0.25-13.617-0.381c-0.07-9.58-0.477-19.186,0.275-28.752c0.32-5.906-0.289-11.84,0.066-17.738
			c0.174-3.746,3.59-5.92,5.967-8.344c-2.854-0.916-5.859-0.578-8.762-1.006C474.834,423.826,476.211,419.582,476.467,415.953z"/>
		<path fill="#3D54A2" d="M541.108,415.449c4.479-0.088,8.998-0.43,13.447,0.338c0.186,9.229,0.26,18.461,0.053,27.688
			c-0.742,8.365,0.25,16.771-0.43,25.135c-0.615,8.424-9.068,14.525-17.127,14.521c-7.342,0.074-14.674,0.186-22.008,0.129
			c-0.064-3.545-0.035-7.082-0.039-10.611c2.41-0.107,4.826-0.188,7.244-0.229c0.555-2.766,0.039-5.578-0.26-8.332
			c-1.063-8.102-1.963-16.217-3.445-24.248c-0.596-7.934-2.275-15.738-2.98-23.658c4.588-0.191,9.178-0.221,13.777-0.102
			c1.711,8.357,1.902,16.93,3.035,25.369c0.932,6.309,0.988,12.691,1.814,19.008c0.404,3.592,0.23,7.309,1.346,10.789
			c0.422,1.768,2.621,0.965,3.41-0.068c2.436-2.549,1.754-6.33,1.846-9.52c0.053-9.137-0.541-18.295,0.217-27.41
			C541.168,427.98,540.645,421.705,541.108,415.449z"/>
		<path fill="#3D54A2" d="M423.713,417.097c11.701,0.045,23.41-0.465,35.107-0.16c0.563,7.047,0.227,14.117,0.344,21.176
			c0.061,15.23,0.477,30.473-0.348,45.689c-4.518,0.398-9.043,0.197-13.566,0.189c0.029-9.797-0.131-19.582-0.123-29.379
			c0.627-6.918,0.197-13.861,0.313-20.803c-0.025-1.861-0.02-3.762-0.646-5.533c-1.525-0.598-3.188-0.512-4.789-0.529
			c-5.367,0.029-10.73,0.09-16.098,0.098C423.674,424.267,423.627,420.679,423.713,417.097z"/>
		<path fill="#3D54A2" d="M592.799,415.333c8.326-0.131,16.66-0.129,24.986-0.127c3.537-0.039,7.332,1.223,9.361,4.293
			c2.322,3.361,1.734,7.654,1.852,11.51c0.168,13.598,0.063,27.189,0.297,40.779c0.115,5.664-0.621,11.301-0.455,16.965
			c-4.605-0.117-9.172-0.809-13.777-0.719c0.127-5.793-0.123-11.582-0.023-17.367c0.908-10.674,0.092-21.387,0.225-32.088
			c-0.094-2.938,0.141-5.898-0.264-8.809c-0.748-3.119-5-4.035-7.381-2.178c-1.209,1.965-0.779,4.428-0.852,6.631
			c0.252,5.895-0.646,11.746-0.588,17.641c-4.545,0.061-9.082,0.215-13.621,0.014c-0.17-2.512-0.205-5.033-0.004-7.533
			C593.477,434.693,592.575,424.998,592.799,415.333z"/>
		<path fill="#3D54A2" d="M643.063,415.539c5.842-0.109,11.688,0.016,17.529-0.16c0.262,6.998,0.223,14.006,0.168,21.006
			c-0.857,15.322,0.02,30.676-0.066,46.012c-4.537,0.148-9.08,0.393-13.602,0.014c-0.459-13.246-0.209-26.508-0.365-39.758
			c-0.182-4.891,0.846-9.789,0.139-14.646c-0.977-1.16-2.727-1.08-4.059-1.52C642.5,422.841,642.184,419.123,643.063,415.539z"/>
		<path fill="#3D54A2" d="M676.754,415.253c6.797-0.297,13.604-0.168,20.402-0.393c4.232-0.033,9.109-0.295,12.408,2.879
			c2.625,2.002,2.791,5.59,2.93,8.621c-0.764,18.412,0.207,36.852-0.162,55.281c-4.438,1.09-9.012,0.629-13.502,0.25
			c-0.352-16.74-0.441-33.477-0.498-50.219c-0.113-1.602,0.105-3.754-1.521-4.67c-1.66-0.588-3.502-0.732-5.209-0.297
			c-0.904,0.662-0.988,1.818-1.051,2.844c-0.195,8.9,0.246,17.816-0.381,26.707c-0.148,8.566,0.289,17.135-0.008,25.695
			c-4.469,0.346-8.963,0.338-13.436,0.137c-0.424-6.076,0.004-12.17-0.213-18.256c-0.199-5.203,0.609-10.373,0.41-15.574
			C676.899,437.263,676.344,426.25,676.754,415.253z"/>
		<path fill="#3D54A2" d="M201.073,439.33c9.773-5.266,23.086-3.059,30.111,5.703c2.706,2.559,1.979,6.541,1.884,9.879
			c-2.964-3.822-4.957-8.91-9.688-10.902c-4.416-1.768-8.952-4.133-13.857-3.174c-8.623,0.705-14.423,7.83-19.552,14.006
			c-3.099,4.113-7.173,7.777-12.267,9.072c-3.59,0.494-7.24,0.363-10.846,0.234c-4.705-0.305-8.369-3.629-11.673-6.646
			c-3.835-3.396-5.981-8.326-10.153-11.379c-3.656-2.666-8.179-3.875-12.611-4.418c-7.002-0.184-13.836,3.313-18.194,8.74
			c-3.312,3.604-5.438,8.32-9.672,11.029c-8.497,6.615-22.117,5.529-29.172-2.705c1.317-0.857,2.589-2.525,4.353-1.961
			c5.861,1.588,11.522,5.824,17.863,3.951c4.766-2.158,7.77-6.74,11.55-10.178c4.302-5.209,9.457-10.295,16.269-11.855
			c4.041-0.756,8.211-0.559,12.279-0.139c4.906,0.502,8.924,3.668,12.526,6.777c2.179,1.875,3.204,4.658,5.015,6.834
			c3.631,4.268,8.682,7.775,14.439,8.039c5.484,0.396,11.105-1.527,14.999-5.457C189.954,449.48,194.14,442.691,201.073,439.33z"/>
		<path fill="#3D54A2" d="M423.313,439.525c4.514-0.117,9.037-0.221,13.561-0.168c0.043,9.779,0.266,19.574,0.123,29.363
			c-0.359,5.063-0.316,10.148-0.48,15.221c-4.27,0.242-8.539,0.299-12.805,0.24C423.411,469.302,423.436,454.414,423.313,439.525z"
			/>
		<path fill="#3D54A2" d="M315.082,490.494c15.662-0.42,31.335-0.234,47.008-0.492c3.247-0.021,6.517-0.146,9.761,0.18
			c-7.193,0.652-14.42,0.303-21.618,0.475c-9.646,0.227-19.286,0.111-28.923,0.354C319.217,491.041,317.139,490.773,315.082,490.494
			z"/>
		<path fill="#3D54A2" d="M403.297,490.25c16.42-0.533,32.855-0.148,49.277-0.467c25.197,0.717,50.412-0.293,75.611-0.123
			c3.25,0.109,6.58-0.521,9.764,0.363c-19.811,0.313-39.629,0.445-59.439,0.668c-11.111,0.459-22.242,0.355-33.336-0.313
			c-11.879,0.066-23.756,0.193-35.633,0.4C407.45,490.781,405.37,490.492,403.297,490.25z"/>
	</g>
	<g>
		<path fill="#3D54A2" d="M599.104,118.603c2.996-1.403,5.854-3.224,9.129-3.913c0.846,1.956,3.396,3.98,2.355,6.202
			c-9.154,4.419-18.67,8.085-27.814,12.549c-17.416,7.485-34.49,15.717-51.77,23.489c-7.668,3.928-15.799,6.836-23.482,10.734
			c-5.641,2.771-11.252,5.629-17.129,7.859c-0.373-0.15-1.125-0.445-1.498-0.592c-0.895-0.344-1.795-0.689-2.682-1.035
			c0.645-2.025,1.055-4.609,3.299-5.48c8.258-4.113,17.025-7.141,25.254-11.332c14.607-6.686,29.496-12.783,43.822-20.079
			c9.121-4.359,18.475-8.216,27.529-12.709C590.342,122.166,594.903,120.778,599.104,118.603z"/>
		<path fill="#3D54A2" d="M610.631,137.955c2.471-2.461,4.857-5.031,7.645-7.152c1.787,1.351,3.568,2.732,5.113,4.369
			c-1.99,3.552-5.813,5.441-8.416,8.488c-4.568,5.332-10.32,9.453-15.277,14.402c-4.092,4.072-8.115,8.219-12.479,12.014
			c-2.842,3.102-5.955,5.916-9.156,8.645c-4.172,4.23-8.648,8.135-12.859,12.328c-5.238,4.895-9.932,10.375-15.439,14.99
			c-2.898,2.783-5.57,5.811-8.656,8.418c-4.957,4.178-8.971,9.334-13.943,13.504c-3.406,3.145-6.428,6.693-9.977,9.686
			c-2.049-0.91-4.076-1.859-6.076-2.867c1.248-2.535,3.67-4.1,5.619-6.039c6.82-6.781,14.023-13.174,20.693-20.105
			c5.611-5.277,10.994-10.789,16.732-15.926c3.291-2.877,6.002-6.34,9.354-9.145C579.477,168.632,594.911,153.14,610.631,137.955z"
			/>
		<g>
			<path fill="#3D54A2" d="M670.819,144.958c-0.547-3.664,5.627-4.721,6.572-1.113c5.271,13.125,10.094,26.436,15.748,39.414
				c3.5,9.096,7.5,17.994,10.875,27.143c2.031,4.629,3.93,9.309,6.006,13.912c1.893,6.732,5.057,13.008,7.563,19.521
				c3.473,8.207,6.533,16.596,10.258,24.703c1.469,3.328,2.51,6.84,3.934,10.188c1.121,2.783,3.541,4.98,3.836,8.1
				c0.854,5.855,0.236,11.795,0.443,17.688c-0.506,4.924-0.496,9.869-0.248,14.813c-0.332,14.576,0.248,29.162,0.1,43.742
				c-0.434,14.086-0.037,28.172-0.033,42.262c-0.123,19.332,0.688,38.662,0.164,57.984c0.217,10.832-0.357,21.664,0.254,32.492
				c-0.104,2.02,0.604,4.404-0.813,6.111c-1.227,1.793-3.713,0.887-5.527,1.137c-10.596-0.6-21.205,0.299-31.801-0.285
				c-21.252,0.098-42.502,0.092-63.762,0.229c-23.238-0.496-46.48-0.07-69.719,0.043c-6.436,0.162-12.861,0.227-19.279-0.078
				c-26.221,0.064-52.416-0.412-78.625,0.068c-10.369-0.299-20.748,0.094-31.121,0.031c-9.133,0.422-18.279-0.016-27.42,0.266
				c-6.424-0.336-12.869-0.33-19.285,0.164c-18.283-0.402-36.576,0.309-54.863,0.277c-33.862,0.211-67.721-0.336-101.578,0.27
				c-10.139-0.131-20.265,0.168-30.402,0.076c-19.52-0.264-39.047,0.148-58.572,0.102c-23.734,0.23-47.459-0.131-71.191,0.344
				c-3.604,0.58-7.207,0.088-10.826-0.049c-0.885-1.496-2.168-2.941-2.146-4.773c-0.194-8.658-0.002-17.314-0.151-25.969
				c0.61-13.592,0.168-27.191,0.26-40.795c-0.311-6.432,0.545-12.855,0.027-19.287c0.166-14.83,0.125-29.668-0.043-44.496
				c0.146-1.516-0.4-3.371,0.795-4.564c3.813-3.793,8.967-5.691,13.809-7.785c12.279-5.172,24.181-11.201,36.492-16.316
				c9.826-4.609,19.771-8.957,29.604-13.539c19.315-8.746,38.941-16.797,57.976-26.141c10.15-4.016,19.762-9.246,29.858-13.379
				c17.334-8.166,34.888-15.861,52.406-23.631c6.148-3.146,12.578-5.695,18.826-8.627c6.741-2.598,12.887-6.648,19.911-8.48
				c-0.639,2.68-1.062,5.871-3.303,7.707c-5.391,2.646-11.018,4.779-16.432,7.393c-21.438,9.104-42.459,19.166-63.738,28.623
				c-7.558,3.77-15.466,6.779-23.031,10.527c-6.258,3.363-12.948,5.799-19.358,8.857c-6.854,3.035-13.595,6.33-20.457,9.357
				c-8.284,3.193-16.142,7.375-24.396,10.656c-6.785,2.656-13.082,6.398-19.821,9.158c-18.878,8.719-37.983,16.949-56.625,26.162
				c-1.015,10.666-0.337,21.383-0.528,32.078c0.337,12.846,0.186,25.697,0.256,38.549c-0.662,14.318,0.063,28.674-0.42,43.004
				c-0.361,4.076-0.042,8.158,0.53,12.193c8.28-0.123,16.545,0.793,24.831,0.396c14.82-0.227,29.652-0.104,44.476-0.189
				c5.191,0.098,10.394-0.244,15.574,0.15c13.345,0.303,26.688-0.648,40.026-0.125c8.416-0.059,16.824-0.123,25.234-0.119
				c5.943,0.369,11.904,0.311,17.83-0.275c12.338-0.213,24.678-0.744,37.026-0.469c8.166,0.15,16.34-0.377,24.495,0.154
				c4.595,0.318,9.202-0.697,13.785-0.021c2.058,0.279,4.136,0.545,6.228,0.516c9.637-0.242,19.277-0.129,28.923-0.355
				c7.198-0.17,14.425,0.18,21.618-0.475c5.396-0.281,10.796-0.018,16.199-0.211c5.08,0.018,10.185-0.322,15.249,0.279
				c2.07,0.244,4.15,0.531,6.242,0.531c11.877-0.209,23.754-0.334,35.633-0.402c11.094,0.668,22.225,0.773,33.336,0.314
				c19.813-0.223,39.631-0.357,59.441-0.668c6.381-0.414,12.764-0.516,19.154-0.484c14.074,0.605,28.162-0.168,42.248,0.096
				c16.559,0.053,33.121-0.344,49.678-0.402c6.178,0.699,12.393,0.111,18.592,0.221c9.428,0.176,18.857-0.041,28.289-0.143
				c2.795-0.111,5.605-0.068,8.361,0.465c6.303,0.602,12.576-0.699,18.881-0.674c0.988-6.314,0.271-12.758,0.398-19.121
				c-0.316-8.412,0.471-16.809-0.002-25.213c0.283-12.35,0.188-24.711,0.064-37.063c0.092-10.389-0.449-20.787,0.168-31.168
				c-0.197-22.244-0.195-44.482-0.492-66.727c0.432-6.426,0.182-12.867,0.229-19.305c-0.131-1.719,0.16-3.547-0.451-5.178
				c-1.705-2.48-4.361-4.037-6.738-5.783c-8.133-5.691-16.266-11.377-24.455-16.986c-1.105-0.781-2.443-1.086-3.723-1.404
				c-1.049,6.383-0.086,12.852-0.645,19.266c-0.607,0.109-1.814,0.34-2.42,0.457c-1.152-7.641,0.072-15.381-0.207-23.053
				c-6.449-4.502-13.119-8.66-19.701-12.971c-4.742-3.689-9.516-7.5-15.076-9.922c-0.707,6.178-0.504,12.412-0.576,18.611
				c0.375,8.805-0.186,17.629,0.365,26.439c6.002,0.316,12.316-1.369,17.953,1.459c-0.391,0.813-0.768,1.625-1.129,2.451
				c-19.262,0.877-38.535-0.59-57.799,0.332c-6.896-0.049-13.803-0.186-20.695,0.113c-8.074,0.018-16.168-0.322-24.23,0.199
				c-0.727,16.426,0.037,32.895-0.795,49.307c-1.805-0.357-3.9-1.453-3.674-3.629c0.012-7.668,0.006-15.334,0.201-23.006
				c-0.23-5.951-0.297-11.896-0.111-17.848c-0.125-1.072,0.324-2.014,0.887-2.879c-1.172-1.887-0.609-4.746-2.773-5.932
				c-8.348-5.186-16.58-10.543-24.82-15.887c-4.334-2.33-8.203-5.461-12.689-7.494c-0.715,6.934-0.131,13.912-0.389,20.863
				c-0.016,1.787-0.561,3.508-1.336,5.104c-0.469-0.1-1.404-0.305-1.873-0.4c-0.635-9.592,0.297-19.203-0.213-28.793
				c-2.604-1.307-5.066-2.844-7.43-4.527c-7.029-4.602-14.197-8.984-21.227-13.576c-2.039-1.246-4.123-2.416-6.313-3.371
				c-0.457,2.188-0.492,4.426-0.459,6.658c-0.318,13.871-0.355,27.758,0.105,41.629c6.9,0.582,13.83-1.203,20.688-0.063
				c0.041,1.096,0.084,2.199,0.133,3.305c-0.9,0.27-1.795,0.635-2.734,0.67c-21.508-0.078-43.006,0.408-64.508,0.014
				c-14.102,0.188-28.205,0.34-42.301,0.27c-1.134,0.012-2.245,0.182-3.348,0.355c0.107,14.859,0.142,29.729,0.383,44.576
				c-0.091,1.723-1.396,3.064-2.833,3.859c-1.035-2.361-1.598-4.914-1.396-7.498c0.397-13.373-0.827-26.744,0.009-40.102
				c0.106-1.662-0.99-3.008-2.431-3.672c-10.834-5.93-21.246-12.598-32.313-18.107c-1.43,6.652-0.158,13.512-0.898,20.217
				c-0.391,0.271-1.164,0.822-1.545,1.092c-0.642-0.949-1.342-1.861-1.856-2.877c-0.969-7.6,1-15.295-0.213-22.875
				c0.188-1.67,0.645-3.291,0.968-4.936c4.471-0.717,7.67,2.813,11.418,4.514c9.307,5.227,18.576,10.529,27.845,15.814
				c2.098,1.186,3.904-1.053,5.418-2.195c3.26-0.387,6.363,3.295,9.385,0.961c0.508-0.309,1.008-0.633,1.502-0.965
				c0.771-0.559,1.553-1.107,2.301-1.693c2.777-2.34,4.791-5.387,7.133-8.119c1.549-1.42,3.148-2.803,4.938-3.92
				c0.672-0.348,1.357-0.682,2.051-1.002c8.688-5.541,17.615-10.75,26.658-15.709c9.805-5.805,19.678-11.508,29.475-17.313
				c2.578-1.564,5.725-4.559,8.838-2.746c6.523,3.691,12.615,8.072,18.949,12.072c5.994,3.508,11.383,7.941,17.311,11.553
				c5.648,3.123,10.992,6.764,16.473,10.166c8.518,5.568,17.217,10.854,25.57,16.664c9.33-5.244,18.416-10.916,27.797-16.064
				c7.547-5.482,15.713-10.016,23.516-15.117c10.746-6.402,21.365-13.033,31.977-19.646c3.051-1.154,5.516,1.799,7.787,3.375
				c6.643,5.057,13.787,9.373,20.633,14.131c5.932,4.545,12.447,8.23,18.488,12.621c7.766,5.354,15.857,10.217,23.586,15.617
				c1.607,1.176,3.324,2.193,5.223,2.842c-0.336-4.18-2.645-7.758-3.984-11.629c-1.879-5.369-4.34-10.512-6.475-15.773
				C697.725,210.466,684.247,177.724,670.819,144.958z M464.887,241.097c-5.963,3.826-12.5,6.695-18.402,10.625
				c-2.227,1.232-2.975,3.941-2.836,6.328c0.15,7.547,0.066,15.096,0.27,22.643c10.018,0.557,20.061-0.463,30.064,0.314
				c1.375,0.215,3.477-0.143,3.256-1.973c0.301-14.805,0.602-29.639,0.107-44.441C472.823,235.972,468.917,238.708,464.887,241.097z
				 M634.057,240.044c-6.301,3.518-12.307,7.531-18.518,11.205c-0.604,9.686-0.5,19.381-0.414,29.08
				c10.377,0.238,20.771,0.018,31.146-0.373c0.107-7.063-0.225-14.131,0.303-21.176c0.037-4.701-0.602-9.395-0.209-14.094
				c0.053-3.938,0.502-7.998-0.713-11.818C641.645,235.019,637.954,237.695,634.057,240.044z M427.024,262.753
				c-3.584,1.791-6.768,4.236-10.283,6.145c-6.633,3.619-13.258,7.326-19.24,11.971c10.133,0.396,20.287-0.037,30.434,0.07
				c4.1-0.098,8.209,0.719,12.271-0.182c0.01-8.291,0.77-16.611,0.098-24.887C435.438,257.253,431.516,260.576,427.024,262.753z
				 M605.34,257.429c-5.074,3.158-10.391,5.91-15.418,9.139c-7.268,4.621-14.854,8.748-21.975,13.605
				c3.23,0.586,6.521,0.4,9.785,0.379c11.342-0.15,22.701,0.271,34.031-0.303c-0.506-8.813,0.93-17.645,0.051-26.443
				C609.559,254.839,607.432,256.109,605.34,257.429z"/>
		</g>
		<path fill="#3D54A2" d="M630.532,145.693c1.098-3.939,7.494-0.854,5.889,2.59c-5.652,11.766-10.953,23.711-16.172,35.688
			c-7.395,16.328-14.41,32.826-21.729,49.186c-2.395,6.102-5.689,11.803-7.867,17.988c-0.664,2.076-1.771,4.023-3.654,5.227
			c-2.314,1.434-3.965,4.256-6.938,4.26c0.592-3.998,2.904-7.412,4.457-11.063c10.641-24.436,21.445-48.797,32.568-73.008
			C621.598,166.283,626.372,156.123,630.532,145.693z"/>
		<path fill="#3D54A2" d="M653.024,147.748c1.377-0.875,3.023-0.152,4.523-0.051c1.068,3.51,0.762,7.205,0.758,10.824
			c0.363,21.012,0.17,42.027,0.801,63.035c0.084,1.594-0.033,3.197-0.287,4.779c-1.893-0.045-3.756-0.307-5.594-0.723
			c-0.385-1.279-0.852-2.57-0.762-3.922c0.246-18.313-0.547-36.611-0.457-54.922c-0.035-4.463-0.041-8.926-0.172-13.383
			C651.79,151.468,651.708,149.312,653.024,147.748z"/>
		<g>
			<path fill="#3D54A2" d="M392.196,164.134c3.016-2.932,7.516-2.982,11.441-2.707c3.57,0.271,7.771,0.936,9.549,4.504
				c0.723,2.254,1.387,4.611,1.281,7.008c-1.252,2.156-3.717,3.156-5.658,4.58c-2.945,1.797-4.818,4.77-7.262,7.117
				c-1.139,1.119-2.881,0.924-4.332,1.221c-1.443,0.129-2.849,0.521-4.162,1.123c-2.249,1.035-4.771,1.018-7.146,1.557
				c1.519,1.154,3.362,1.631,5.191,2.049c-0.145,0.326-0.427,0.975-0.572,1.303c-3.688,0.324-7.813,0.732-10.465,3.648
				c1.36,0.361,2.742,0.674,4.111,1.043c-1.497,2.049-4.252,1.746-6.399,2.602c-3.063,1.176-6.259,1.902-9.502,2.354
				c-0.15,0.432-0.453,1.295-0.604,1.727c1.964-0.074,3.921-0.191,5.886-0.178c-0.068,0.49-0.221,1.471-0.297,1.955
				c-5.063,0.813-10.188,3.324-13.361,7.379c1.834,0.135,3.672,0.145,5.514,0.301c-1.018,1.828-2.379,3.434-4.532,3.826
				c-1.979,1.416-3.987,2.797-6.476,3.121c-0.146,0.305-0.42,0.9-0.558,1.207c1.284,0.148,2.569,0.313,3.854,0.521
				c-0.377,2.051-2.038,3.391-3.793,4.307c-2.787,1.402-5.406,3.123-8.155,4.6c-1.115,0.438-1.183,1.727-1.579,2.689
				c1.884,0.021,3.767-0.035,5.657,0.031c-1.583,3.016-5.019,4.119-7.216,6.549c-1.676,1.961-4.146,3.102-5.522,5.334
				c1.557-0.078,3.119-0.223,4.688-0.305c-2.046,4.643-5.612,8.412-8.579,12.486c1.771-0.264,3.507-0.723,5.253-1.098
				c-0.496,2.646-3.296,3.672-4.65,5.793c-1.823,2.719-3.669,5.438-5.956,7.809c1.703,1.648,3.962,1.469,6.139,1.16
				c-1.588,4.506-7.875,6.541-7.637,11.938c1.562,0.383,4.436-0.576,4.322,1.895c-3.371,2.211-6.314,4.936-8.726,8.182
				c0.241,0.348,0.725,1.037,0.965,1.375c1.326-0.119,2.646-0.244,3.979-0.311c0.035,0.451,0.111,1.34,0.146,1.785
				c-2.896,2.953-3.774,7.234-6.723,10.168c-1.602,1.389-1.748,3.467-1.719,5.445c1.906-0.613,3.851-1.125,5.852-1.318
				c-1.214,5.523-5.467,9.783-6.665,15.32c2.839-2.078,5.011-4.869,7.669-7.139c-0.401,2.57-0.714,5.162-1.321,7.689
				c-1.375,3.754-3.709,7.133-4.563,11.078c1.165,0.076,2.338,0.168,3.511,0.271c-0.346,3.557-3.306,6.111-3.962,9.596
				c1.826-0.422,3.613-1.004,5.44-1.463c-1.798,5.59-5.407,10.385-7.452,15.85c2.186-0.795,4.387-1.563,6.666-2.039
				c-0.649,5.576-4.859,9.672-6.909,14.686c1.796-1.146,3.577-2.316,5.587-3.064c-0.445,4.525-2.208,8.744-3.672,13.018
				c1.35,0.074,2.692,0.156,4.043,0.266c-0.188,6.188-5.297,11.605-4.18,17.904c1.731-1.48,3.241-3.197,4.637-4.992
				c1.168,0.32,2.344,0.656,3.512,1.006c-1.753,5.02-3.959,10.004-4.03,15.42c2.871-0.635,5.215-2.484,7.485-4.246
				c0.076,1.469,0.107,2.949,0.132,4.434c1.132-0.977,2.383-1.844,3.932-1.928c0.177-1.418,0.36-2.838,0.516-4.256
				c1.025-0.5,2.05-1.002,3.082-1.502c0.332-4.111,1.729-9.096-1.282-12.531c-2.648,3.781-4.283,8.115-5.466,12.557
				c-0.41,1.672-2.033,1.135-3.13,0.531c0.688-3.494,1.165-7.125,2.954-10.268c2.152-3.844,3.894-7.896,5.725-11.898
				c1.08-0.184,2.169-0.328,3.24-0.607c1.086-1.783,1.506-3.873,2.248-5.803c1.111-3.4,2.855-6.535,4.758-9.545
				c3.49,0.391,5.17,4.133,4.978,7.301c-0.175,4.355,2.418,8.004,3.967,11.879c0.91,1.072-1.547,2.221-1.953,1.111
				c-3.532-4.26-4.241-9.91-5.818-15.023c-1.677,1.295-1.985,3.455-2.595,5.346c-0.872,2.865-1.597,5.781-1.948,8.766
				c1.422-0.779,2.792-1.648,4.154-2.539c0.926,1.303,2.037,2.551,2.553,4.094c0.258,2.57,0.103,5.16,0.131,7.75
				c-2.06-1.811-2.676-4.582-4.08-6.838c-3.141,5.064-4.504,11.115-3.315,17.012c0.342,0.094,1.033,0.271,1.383,0.363
				c0.07-2.285,1.199-4.166,2.852-5.66c1.337,0.178,2.688,0.279,4.03,0.43c0.983-0.895,1.848-1.963,3.02-2.623
				c1.477,0.17,2.94,0.488,4.42,0.699c-3.545,2.613-7.331,5.525-8.69,9.924c-0.542,2.625-0.422,5.338-0.637,8
				c-0.673-0.494-1.346-0.984-2.019-1.459c-0.132,0.172-0.257,0.352-0.381,0.539c1.008,1.746,1.053,3.791,1.192,5.754
				c0.978-0.211,1.961-0.422,2.943-0.633c0.237,2.021,0.395,4.059,0.61,6.088c1.521,0.08,3.052,0.352,4.388,1.145
				c5.139,2.598,11.012,2.576,16.631,2.49c-2.992,3.578-8.15,2.508-12.205,2.014c1.105,1.396,2.233,2.801,3.575,4
				c3.438,1.734,7.468,0.719,11.083,1.781c1.51,0.346,3.061,0.389,4.604,0.564c-1.546,3.672-5.898,4.967-9.333,6.268
				c-3.632-0.463-5.375-4.5-8.941-5.283c-1.979-1.121-6.117-0.473-5.849-3.672c-0.188-1.563,1.569-2.205,2.426-3.195
				c-2.05-0.902-4.005-1.984-6.031-2.91c-1.518-0.385-3.11-0.232-4.647-0.451c-1.833-0.811-3.272-2.277-4.866-3.453
				c-2.402-2.072-5.156-3.689-7.518-5.813c-2.015-1.822-4.927-2.295-6.694-4.434c-1.494,1.641-3.146,3.129-4.835,4.563
				c0.768,1.617,2.399,2.348,3.849,3.234c1.098,1.316,1.908,2.848,2.808,4.307c1.688-0.322,3.39-0.602,5.115-0.738
				c-0.366,1.73-0.828,3.436-1.247,5.16c1.604,1.42,2.788,3.201,3.515,5.225c1.459-0.143,2.931-0.678,4.394-0.396
				c0.973,0.781,1.763,1.781,2.771,2.557c3.792,1.611,8.485,0.193,11.628,3.393c0.728-0.143,1.451-0.283,2.185-0.418
				c0.936,0.826,1.778,1.895,3.094,2.115c2.344,0.627,4.39,1.967,6.522,3.094c-0.961,0.871-1.889,2.148-3.358,1.975
				c-0.846-0.645-1.515-1.475-2.229-2.238c-3.319-0.496-6.422-2.004-9.824-1.941c-4.293-0.635-9.679,1.176-12.771-2.832
				c-1.184,0.281-2.358,0.592-3.534,0.9c-3.871-3.322-9.366-2.729-14.104-2.637c-0.697-1.379-1.41-2.766-2.38-3.963
				c-1.039,0.627-1.973,1.408-2.912,2.184c-0.736-0.205-1.466-0.398-2.201-0.576c0.308-0.938,0.609-1.875,0.954-2.791
				c0.535-1.986,2.549-2.906,3.68-4.482c0.832-2.492-0.899-4.885-2.917-6.188c0.404-3.609-1.854-6.58-3.431-9.594
				c0.708-1.047,1.431-2.086,2.102-3.146c-2.434-0.115-4.784,0.564-7.061,1.332c-0.066,1.246-0.135,2.5-0.188,3.754
				c1.041,0.264,2.09,0.525,3.131,0.805c0.404,0.973,0.83,1.947,1.259,2.93c-2.271-0.154-4.491,0.25-6.681,0.779
				c-2.52-0.387-4.76-1.846-7.3-2.174c-1.761,0.348-3.103,1.652-4.546,2.625c0.971,1.205,1.628,2.971,3.141,3.582
				c1.089-0.182,2.099-0.66,3.124-1.059c0.472,1.59,1.008,3.17,1.566,4.744c0.621-0.141,1.243-0.258,1.872-0.363
				c-0.032-2.238,1.508-3.789,3.606-4.305c0.421,1.041,1.225,1.996,1.244,3.168c-0.964,1.932-2.287,3.652-3.317,5.539
				c2.028-0.154,4.083-0.209,6.075,0.289c-1.268,3.344-5.618,2.139-8.303,3.549c-0.207,1.975-0.631,3.93-1.41,5.77
				c-1.377-1.111-1.818-2.826-2.451-4.377c-0.254-0.004-0.749-0.014-0.994-0.02c-1.307,2.521-2.319,5.439-4.919,6.961
				c-0.927,0.848-2.146,0.477-3.224,0.266c0.189-1.516,0.462-3.016,0.75-4.502c-3.563,0.203-6.918,1.412-10.172,2.783
				c-3.254,1.49-6.889,0.012-10.214,1.131c-3.065,1.016-6.343,0.465-9.472,1.107c-1.33,0.328-2.549-0.379-3.746-0.811
				c3.281-3.566,7.054-7.072,11.912-8.254c-2.104-1.668-3.779-3.775-4.344-6.455c3.711,0.9,7.426-0.299,10.623-2.166
				c0.938-1.182-0.121-2.822-0.136-4.158c3.187-1.488,6.396-3.053,8.422-6.063c-2.969-0.271-6.006-0.668-8.935,0.07
				c-2.536,0.549-4.813,1.959-7.396,2.309c-3.697,0.842-7.615-0.094-11.109,1.697c-0.108-0.992-0.225-1.971-0.338-2.947
				c1.289-0.824,2.554-1.676,3.834-2.498c-0.252-2.623-0.273-5.275-0.793-7.867c1.321-1.785,2.771-3.473,4.477-4.906
				c0.299,0.27,0.906,0.813,1.213,1.084c-0.039,1.053-0.064,2.105-0.023,3.174c1.227-2.467,0.347-5.506,1.9-7.814
				c0.488-0.043,1.459-0.127,1.947-0.17c0.41,0.895,0.836,1.799,1.291,2.691c0.475-3.883,0.001-7.814-1.221-11.523
				c-2.34,2.266-3.653,6.084-7.381,6.355c2.01-4.027,4.563-7.777,7.34-11.311c2.545,1.299,2.363,4.416,3.272,6.764
				c1.999-3.553,2.726-7.615,3.897-11.479c0.449-0.213,1.342-0.645,1.791-0.865c2.084,2.607,1.455,6.115,1.66,9.213
				c-0.018,2.914,0.652,5.865-0.063,8.75c-2.044-3.721-0.781-8.178-2.396-12.037c-1.811,3.938-2.115,8.381-1.935,12.65
				c2.706,3.299,4.14,7.348,6.131,11.068c1.004,2.168,3.528,2.52,5.539,3.268c-1.233-3.479-2.683-7.045-2.267-10.814
				c3.386,0.244,2.661,4.402,4.426,6.387c1.914,1.408,3.808,2.848,5.728,4.242c0.776-2.246-1.491-4.156-0.85-6.375
				c0.328-1.738,0.629-3.484,0.749-5.242c0.634,0.371,1.269,0.75,1.919,1.127c-1.215-2.553-1.863-5.363-0.715-8.074
				c1.558,0.648,2.977,1.561,4.455,2.383c2.637-0.215,1.459-3.406,0.817-4.947c-0.938-3.766-3.852-6.854-4.044-10.789
				c2.102,0.83,3.934,2.174,5.989,3.092c-0.935-5.285-7.366-7.48-7.997-12.813c1.411,0.252,2.831,0.525,4.243,0.82
				c0.436-1.488,1.064-2.934,1.232-4.479c-0.705-4.041-3.818-7.246-4.215-11.379c2.385,0.299,4.768,0.59,7.146,0.949
				c-2.277-4.652-4.864-9.252-6.108-14.316c1.937,0.703,3.852,1.5,5.907,1.779c-0.008-3.352-1.753-6.283-4.063-8.57
				c-1.177-1.004-1.066-2.584-1.099-3.971c1.668,0.566,3.234,1.402,4.902,1.971c0.176-0.158,0.535-0.475,0.711-0.631
				c-0.121-2.922-0.645-5.83-1.676-8.568c-0.797-2.275-2.213-4.314-2.619-6.711c2.464-0.549,4.451,0.854,6.416,2.1
				c-0.933-2.385-1.959-4.736-2.41-7.262c-0.646-3.367-2.127-6.486-2.928-9.807c0.612-0.811,1.614-0.717,2.305-0.057
				c1.646,1.33,2.885,3.295,5.092,3.77c0.074-2.1,0.131-4.273-0.641-6.26c-2.082-5.049-2.063-10.596-2.96-15.908
				c2.046,0.592,3.7,1.99,5.564,2.977c-0.17-5.158,0.13-10.322-0.456-15.455c2.801,0.398,3.916,3.359,5.827,5.072
				c0.894-3.02,0.013-6.162,0.236-9.242c0.191-3.391-0.535-6.719-0.848-10.066c2.832-0.107,3.233,3.42,5.075,4.984
				c1.779-5.283,1.502-10.85,1.3-16.328c1.206,0.387,2.391,0.834,3.596,1.221c0.886-4.979,1.221-10.145,0.067-15.105
				c0.658-0.029,1.972-0.096,2.632-0.127c0.842,1.066,1.662,2.146,2.504,3.221c0.356-0.004,1.061-0.014,1.416-0.008
				c0.098-2.576,0.895-5.016,1.563-7.471c0.555-3.559-0.146-7.145-0.372-10.705c2.049,0.17,2.208,3.145,4.151,3.195
				c2.08-2.953,3.271-6.406,4.101-9.895c0.419-1.613,2.307-2.027,3.762-1.92c0.118,1.416,0.23,2.832,0.439,4.238
				c2.372-4.67,4.015-9.678,6.334-14.369c1.206,1.121,2.68,4.77,4.576,2.686c0.928-3.883,3.485-7.203,3.743-11.262
				c0.387-0.68,0.779-1.352,1.172-2.021c0.969,1.746,1.805,3.566,2.662,5.375c1.034-2.43,2.416-4.84,2.451-7.547
				c-0.041-1.734,1.241-3.02,2.08-4.398c1.139-0.266,2.276-0.529,3.416-0.795c0.729,1.453,1.435,2.914,2.178,4.365
				c1.754-1.703,1.313-3.914,0.822-6.023c1.157-1.836,3.079-2.984,4.847-4.17c1.839,1.322,3.831,2.42,5.968,3.174
				c-0.412-1.025-0.83-2.035-1.25-3.049c0.795-1.127,1.494-2.381,2.596-3.24c1.566-1.188,3.55-0.201,5.25,0.061
				c0.639-0.764,1.289-1.52,1.94-2.27c-1.061-0.031-2.122-0.051-3.175-0.066C390.165,170.062,389.454,166.257,392.196,164.134z
				 M271.631,411.75c2.453,1.256,4.791,2.748,7.316,3.877c-1.556-2.459-3.125-4.904-4.377-7.529
				C273.583,409.302,272.596,410.515,271.631,411.75z M284.655,434.353c-1.941,1.477-5.113,1.629-5.675,4.461
				c2.13,0.109,4.28,0.086,6.396,0.381c-0.314-0.953-0.563-1.922-0.781-2.875c1.552-0.566,3.102-1.141,4.63-1.781
				c0.01-0.43,0.03-1.289,0.04-1.721C287.659,433.087,285.963,433.3,284.655,434.353z M292.247,435.492
				c2.313,0.813,4.622,1.631,6.979,2.322c-0.725-1.859-1.583-3.65-2.434-5.443C295.248,433.375,293.723,434.398,292.247,435.492z
				 M287.864,439.441c0.889,2.48,3.066,5.045,5.982,3.9c-0.037-1.35-0.244-2.682-0.578-3.977
				C291.465,439.333,289.665,439.339,287.864,439.441z"/>
		</g>
		<path fill="#3D54A2" d="M456.633,183.744c1.064-0.234,2.152-0.41,3.227-0.639c1.232,0.816,2.494,1.605,3.771,2.367
			c0.264,0.525,0.561,1.041,0.885,1.541c-3.168,2.445-7.133,3.365-10.627,5.199c-3.568,1.893-7.494,2.91-11.23,4.383
			c-4.363,1.525-8.348,3.98-12.781,5.342c-1.09-1.826-3.09-4.955-0.234-6.248c5.578-2.449,11.051-5.137,16.75-7.314
			C449.893,187.023,452.958,184.636,456.633,183.744z"/>
		<path fill="#3D54A2" d="M402.506,207.912c1.594-0.744,3.314-1.201,5.098-1.061c-0.027,0.848-0.049,1.699-0.098,2.555
			c-0.271,2.932-2.584,4.85-5.225,5.723c-12.79,5.328-25.245,11.4-37.814,17.215c-4.129,1.508-7.746,4.158-11.982,5.371
			c0.123-2.316-0.664-4.924,0.41-7.057C369.367,222.974,386.05,215.662,402.506,207.912z"/>
		<path fill="#3D54A2" d="M424.698,370.255c5.801-0.613,11.66-0.316,17.48-0.344c0.479,5.021,0.396,10.08,0.074,15.111
			c-1.891,0.178-3.787,0.207-5.68,0.146c-0.334-3.348-0.061-6.748-0.684-10.055c-0.873-0.486-1.932-0.305-2.875-0.43
			c-0.367,2.965-0.051,6.037-0.855,8.924c-1.631,2.682-5.195,1.557-7.748,1.512c-0.652-2.707,2.551-4.107,2.275-6.707
			C426.862,375.476,424.182,373.273,424.698,370.255z"/>
		<path fill="#3D54A2" d="M446.735,370.105c1.891-0.08,3.789-0.064,5.688,0.076c-0.016,2.605-0.045,5.213-0.061,7.824
			c-1.865,0.223-3.742,0.234-5.598,0.086C446.536,375.431,446.417,372.755,446.735,370.105z"/>
		<path fill="#3D54A2" d="M456.709,370.216c3.055-0.043,6.123-0.152,9.188-0.016c1.809-0.027,3.744,1.352,3.582,3.324
			c0.088,3.924,0.088,7.846,0.072,11.77c-1.924,0.207-3.861,0.229-5.789,0.184c-0.502-3.168,0.252-6.543-0.709-9.588
			c-1.766-1.27-4.355-0.885-6.434-1.564C456.651,372.945,456.672,371.582,456.709,370.216z"/>
		<path fill="#3D54A2" d="M500.424,369.759c1.766-0.033,3.537-0.061,5.309-0.072c0.156,2.615,0.135,5.246,0.045,7.873
			c-1.895,0.318-3.814,0.449-5.729,0.398C499.872,375.216,499.801,372.453,500.424,369.759z"/>
		<path fill="#3D54A2" d="M474.569,370.541c1.895-0.273,3.814-0.34,5.736-0.314c0.436,5.059,0.203,10.148,0.164,15.221
			c-1.918,0.154-3.832,0.141-5.732-0.092C474.473,380.419,474.581,375.478,474.569,370.541z"/>
		<path fill="#3D54A2" d="M484.112,370.47c3.561-0.545,7.188-0.459,10.766-0.137c0.477,2.102-0.117,4.043-1.613,5.559
			c-1.064,2.926-0.492,6.211-0.711,9.291c-1.949,0.164-3.906,0.193-5.848,0.162c-0.146-3.111-0.145-6.227-0.24-9.332
			C484.325,374.894,483.981,372.666,484.112,370.47z"/>
		<path fill="#3D54A2" d="M511.413,370.228c2.092-0.008,4.189-0.029,6.287,0.014c0.957,1.285,1.922,2.572,2.877,3.867
			c0.363,0.049,1.086,0.137,1.447,0.184c0.273-1.367,0.549-2.729,0.83-4.08c1.697-0.057,3.396-0.068,5.102-0.051
			c-0.021,2.078,0.299,4.18-0.041,6.252c-0.934,1.42-2.512,2.172-3.91,3.049c1.037,1.893,2.059,3.803,3.021,5.75
			c-2.119,0.029-4.24,0.023-6.354-0.033c-1.213-1.633-2.17-3.75-4.313-4.289c-0.191,1.455-0.346,2.926-0.574,4.381
			c-1.668,0.02-3.32,0.023-4.98,0.027c-0.592-2.449-0.695-5.006,0.123-7.41c1.113-0.592,2.232-1.16,3.361-1.729
			C513.569,374.078,512.54,372.123,511.413,370.228z"/>
		<path fill="#3D54A2" d="M624.411,369.853c4.77-0.557,9.555-0.914,14.363-0.703c1.346-0.221,1.633,1.398,1.65,2.387
			c0.197,4.355-0.332,8.701-0.352,13.063c-1.896,0.027-3.795,0.049-5.693,0.078c-0.432-3.459-0.314-6.951-0.42-10.428
			c-3.074-0.344-6.16-0.457-9.24-0.609C624.594,372.375,624.485,371.115,624.411,369.853z"/>
		<path fill="#3D54A2" d="M644.733,369.558c2.289-0.129,4.596-0.156,6.896,0.033c1.033,1.561,2.207,3.031,3.549,4.344
			c0.42-1.496,0.76-3.004,1.068-4.52c1.809-0.072,3.617-0.107,5.434-0.121c0.197,2.238,0.742,4.643-0.205,6.781
			c-0.838,1.27-2.307,1.906-3.498,2.781c0.814,1.857,1.695,3.703,2.518,5.57c-5.439,0.246-10.883,0.174-16.32,0.16
			c-0.176-1.205-0.338-2.412-0.492-3.605c2.424-0.213,4.855-0.32,7.268-0.621C649.68,376.326,646.362,373.425,644.733,369.558z"/>
		<path fill="#3D54A2" d="M664.856,369.371c2.156-0.137,4.328-0.168,6.502-0.135c1.322,3.5,1.373,7.4,3.154,10.732
			c0.436-0.123,1.313-0.379,1.75-0.51c0.189-3.428-0.002-6.865,0.262-10.289c2.047-0.08,4.107-0.074,6.145,0.266
			c-0.014,4.168,0.547,8.402-0.223,12.521c-0.404,2.258-3.012,2.568-4.873,2.627c-4.375-0.025-8.77,0.32-13.111-0.225
			c-0.053-1.273-0.088-2.549-0.125-3.816c0.916-0.277,1.834-0.547,2.764-0.811C666.934,376.169,665.524,372.839,664.856,369.371z"/>
		<path fill="#3D54A2" d="M686.385,369.044c1.883-0.125,3.781-0.16,5.672-0.086c0.369,5.039,0.604,10.131,0.217,15.178
			c-1.979,0.154-3.951,0.178-5.924,0.088C685.893,379.187,685.872,374.08,686.385,369.044z"/>
		<path fill="#3D54A2" d="M695.879,368.634c4.699-0.225,9.422-0.396,14.119-0.107c1.734,0.033,3.719,0.988,3.82,2.945
			c0.244,4.002,0.113,8.029-0.176,12.029c-2.711,0.365-5.447,0.307-8.148,0.068c0.016-2.029,1.041-3.719,2.021-5.412
			c0.1-1.686-0.238-3.355-0.545-4.998c-0.844,0.104-1.682,0.203-2.51,0.309c-1.373,3.279-0.816,7.172-2.51,10.262
			c-1.896,0.178-3.805,0.059-5.688,0.035c0.111-3.332,1.047-6.537,1.84-9.75c-0.832-0.793-1.664-1.568-2.475-2.354
			C695.711,370.646,695.795,369.644,695.879,368.634z"/>
		<path fill="#3D54A2" d="M624.618,376.429c1.957-0.037,3.93-0.104,5.9-0.154c-0.043,2.721-0.035,5.449-0.004,8.18
			c-1.939,0.266-3.891,0.229-5.826,0.115C624.375,381.869,624.284,379.132,624.618,376.429z"/>
		<path fill="#3D54A2" d="M267.823,430.441c0.754-0.148,1.51-0.313,2.271-0.477c-0.223,0.75-0.442,1.51-0.648,2.275
			c-0.557,0.014-1.652,0.041-2.201,0.055C267.385,431.833,267.679,430.912,267.823,430.441z"/>
		<path fill="#3D54A2" d="M308.226,442.14c1.66-1.396,3.827-1.891,5.938-2.113c0.079,0.541,0.247,1.629,0.327,2.17
			c0.596,0.111,1.783,0.336,2.38,0.439c-3.037,2.281-6.398,4.055-9.853,5.598c-2.871,1.266-4.344,4.15-6.141,6.527
			c-3.595,1.563-7.608,1.963-11.502,1.971c0.049-0.936-0.342-1.969,0.161-2.813c2.342-1.525,5.234-1.988,7.439-3.748
			c1.883-1.406,3.84-2.734,6.04-3.613C305.234,445.726,306.335,443.447,308.226,442.14z"/>
	</g>
</g>
</svg>
