<svg xmlns="http://www.w3.org/2000/svg" version="1.0" width="1200" height="600"><path fill="#6399ab" d="M0 0H1200V600H0z"/><g transform="matrix(0.6017362,0,0,0.6017362,915.99576,306.36462)"><circle r="300"/><circle r="200" fill="#fff"/><circle r="100" fill="#008d46"/></g><path d="m 788.3482,178.71708 a 180.52086,180.52086 0 0 1 255.2951,0 L 915.99576,306.36462 Z" fill="#ce1126"/><path d="m 915.99576,152.92188 10.4433,26.45303 27.19316,-8.32826 -14.17052,24.65819 23.46598,16.06784 -28.11366,4.29514 2.06838,28.3646 -20.88664,-19.30218 -20.8867,19.30218 2.06838,-28.3646 -28.11362,-4.29514 23.46596,-16.06784 -14.17054,-24.65819 27.19318,8.32826 z" fill="#fff"/><g transform="matrix(0.05952381,0,0,0.05952381,15.31154,914.63414) translate(-257.23387,-15365.853)"><path d="M 0,0 H 10080 V 5040 H 0 Z" fill="#fff"/><path d="M 0,0 H 10079.999 V 1680 H 0 Z"/><path d="M 0,3360 H 10079.999 V 5040 H 0 Z" fill="#007a3d"/><path d="M 0,0 5039.9995,2520 0,5040 Z" fill="#ce1126"/><path d="m -1106.343,0.00317383 -239.2926,-609.44918383 -625.683,192.8989 327.29,-567.07185 -540.9214,-368.90814 647.4167,-97.6779 -48.835,-652.9199 480.0253,445.2696 480.02521,-445.2696 -48.8349,652.9199 647.416615,97.6778 -540.921405,368.90826 327.2901,567.07179 -625.68307,-192.89885 z" transform="matrix(-0.32539529,0,0,-0.32539529,1320.001,2160.0012)" fill="#fff" fill-rule="evenodd"/></g></svg>