<?xml version="1.0" encoding="utf-8"?>
<!-- Generator: Adobe Illustrator 26.3.1, SVG Export Plug-In . SVG Version: 6.00 Build 0)  -->
<svg version="1.1" id="Layer_1" xmlns="http://www.w3.org/2000/svg" xmlns:xlink="http://www.w3.org/1999/xlink" x="0px" y="0px"
	 viewBox="0 0 1069.8 713.2" style="enable-background:new 0 0 1069.8 713.2;" xml:space="preserve">
<style type="text/css">
	.st0{fill:#FFFFFF;}
	.st1{fill:none;stroke:#000000;stroke-miterlimit:10;}
	.st2{fill:#F7DE00;}
	.st3{fill:#CE1842;}
	.st4{fill:none;stroke:#0E3791;stroke-width:3;stroke-miterlimit:10;}
	.st5{fill:none;stroke:#0E3791;stroke-width:10;stroke-miterlimit:10;}
	.st6{fill:#0E3791;}
</style>
<rect class="st0" width="1069.8" height="713.2"/>
<path class="st1" d="M414,193.3h249.6v183.6c-7.3,63.4-61.2,111.8-124.8,112.4C475,489.9,420,441.9,412,378.3
	C412.6,316.7,413.3,255,414,193.3z"/>
<path d="M447.5,194.1c18.3-7.2,44.4-15.1,76.5-17.2c47.3-3.1,85.2,7.7,107.1,15.9c-1.8-8.2-4.1-13.9-5.9-17.8
	c-0.8-1.7-1.5-3.1-1.1-4.7c1.3-4.7,10.6-3.2,13.2-8.4c1.6-3.2-1.4-4.6-1.7-11.9c-0.1-3,1.1-7.4,3.6-16.3c1.9-6.8,2.6-8.2,4.1-9.4
	c3.3-2.8,6.6-1.3,8.1-3.7c2-3.2-3.2-7-1.6-11.2c1.5-4.1,7.4-2.7,11.1-7.7c3.7-4.8,3-12.4,0.8-13.4c-1.8-0.8-3.5,3.3-8.2,3.8
	c-4.9,0.5-7.7-3.5-9.2-2.5c-2.6,1.9,4.5,16,3.9,16.3c-0.5,0.2-3.9-8.8-7.7-8.6c-3.4,0.2-4,7.4-8.8,8.3c-3.9,0.8-6.3-3.3-8.4-2.2
	c-2.8,1.5-1.2,9.5,0.4,13.9c0.9,2.6,3.3,9.4,8.1,10.4c2.2,0.5,3.2-0.7,4.1,0.1c2.4,2.1-1.4,14.3-10.2,18.5c-3.2,1.5-7.9,2.4-9,0.7
	c-1.5-2.2,4.3-6.3,4.2-13.6c-0.1-3.3-1.4-7.5-3.3-7.7c-3.2-0.4-6.3,10.4-7.3,13.8c-0.4,1.4-1.1,4.1,0.1,5.1c1.1,0.9,3-0.2,3.8,0.8
	c0.7,0.8,0.1,2.9-1,3.5c-1.5,0.8-4-1.1-6-2.6c-1.7-1.3-1.5-1.6-2.8-2.5c-2.8-1.9-4.2-1-5.7-2.3c-3-2.6-1.1-9.4-0.9-10.3
	c1.1-4.1,3.3-6.4,2.6-7.2c-0.8-0.8-3.2,1.8-5.1,1c-3.4-1.3-3.2-12.2-0.6-13c1.9-0.6,3.4,4.6,8.5,5.6c3.6,0.7,6.8-1.2,8.8-2.4
	c2-1.2,6.5-3.8,7.4-8.3c1.3-6.4-5.3-13.9-11.8-15.4c-4.4-1.1-8.2,0.8-8.9-0.7c-0.8-1.6,3.8-3.7,5-8.8c1.1-4.7-1-10.6-3.9-11.3
	c-1.5-0.3-1.9,0.9-9.9,7.5c-1.8,1.5-3.8,3-3.4,3.9c0.4,0.9,2.9-0.1,4.7,1.3c1.8,1.4,2.4,4.9,0.9,7c-1,1.3-2.4,1.6-3.3,1.8
	c-2.3,0.5-5.6,0-6.9-2c-1.4-2.2,0.1-5.1-0.4-5.3c-0.7-0.2-1.7,5.2-5.8,7.2c-2.2,1.1-3.7,0.4-5,1.8c-1.3,1.3-1.2,3.3-1,5.6
	c0.1,2.3,0.4,6.5,3.4,10.7c1.3,1.8,4.3,6.1,7.4,5.6c1.9-0.3,2.2-2.2,5-3c0.4-0.1,3.4-1,5.1,0.5c2.2,1.9,1.5,7.1-1.2,9.5
	c-2.4,2.1-4.8,0.5-6.3,2.5c-1.7,2.1,0.7,4.7-0.4,10.1c-0.4,1.9-0.8,3.9-2.5,5c-2.2,1.5-6.3,1.1-8.5-1c-4.3-4.2,1.7-12.4-2.8-17.6
	c-1.8-2.1-5.1-3.4-6.8-2.4c-3.7,2.2,2.8,13.3-2.1,18.6c-2.7,2.9-8.8,3.8-12.5,0.8c-3.3-2.7-4.1-8.1-2.1-10.9
	c1.6-2.3,4.6-2.3,4.6-3.5c0-1.3-3.4-1.2-5.7-3.6c-3-3-3.2-8.8-1.3-9.9c1.6-1,3.5,2.5,8.1,3.1c4.3,0.6,9.7-1.5,12.6-5.9
	c3.6-5.5,2.6-13.2-1-15.9c-2-1.5-4.1-1-5.5-3.1c-1.5-2.5,0-5.3-1-5.9c-1.6-0.9-5.2,5.7-8.2,5c-2.1-0.6-3.6-4.6-2.4-6.4
	c0.9-1.4,2.8-0.7,4-2.3c1.3-1.7,0.9-4.8-0.4-5.4c-1.2-0.5-2.5,1.5-3.5,1c-1.7-0.8,1.2-6.5-1.2-9.4c-1.8-2.1-6.3-2.4-8.2-0.6
	c-2.5,2.4,0.4,7-2,9.2c-2.6,2.3-8-1.1-9,0.5c-0.8,1.3,1.7,5.2,4.7,5.7c2.5,0.4,3.7-1.8,5.1-1.1c1.9,0.9,2.5,6.3-0.2,8.3
	c-1.8,1.4-4.6,0.8-6.3-0.1c-2.9-1.7-2.7-4.5-4.6-4.8c-2.1-0.3-4.4,2.9-6,5.2c-1.4,2.1-2.1,3.8-2.9,5.7c-1.5,3.8-2.3,5.6-2.2,7.3
	c0.2,4.4,6.4,3.3,12,10c0.8,1,2.1,2.7,3.2,2.4c1.3-0.3,0.9-2.8,2.7-4c1.7-1.1,4.6-0.6,6,0.9c2.4,2.5,0.7,7.9-2.2,9.5
	c-3,1.7-7.2-0.7-7.5,0.1c-0.3,0.7,3.6,2.1,5.5,5.5c2.3,4.1,1.8,11.3-2.7,13.9c-2.6,1.5-6.4,1.4-8.9-0.5c-3-2.4-3.6-7.3-4.3-13.9
	c-0.4-4.1-0.2-6.3-1.7-7.1c-1.6-0.9-4.7,0-6.1,2.1c-2.8,4.2,4.1,9.6,1.8,16.4c-1,2.8-3.6,6.1-7.3,6.4c-2.8,0.2-5.8-1.6-7.3-4
	c-3.4-5.4,1.5-12.4-1.5-14.7c-1.9-1.5-4.5,0.7-6.4-0.9c-2.1-1.9-1.5-7.4,1.1-8.9c2.4-1.4,4.4,1.8,8.6,1.5c5.2-0.4,9.7-5.8,11.1-11
	c1.2-4.2,1.1-10.7-2.3-12.7c-2.8-1.7-6.5,0.8-9-1.6c-1.4-1.4-1.5-3.4-2.2-3.3c-1.1,0.1-0.6,4.6-3,5.8c-1.6,0.9-4.4,0.1-5.6-1.8
	c-0.8-1.3-0.8-3.1-0.1-4.3c1.2-2.4,3.9-2.1,4.8-3.9c1.4-2.7-1-7.7-3.3-7.9c-1.4-0.1-2.1,1.6-3.2,1.3c-1.8-0.5-0.5-5.9-3-7.5
	c-1.7-1.1-4.8-0.2-6.6,1.5c-3.1,3-1.6,8-4.2,9.1c-1.4,0.5-2.4-0.6-3.2,0.1c-1.2,1.1-0.4,5.3,2.1,6.8c2.5,1.4,5-0.9,7,0.7
	c1.3,1,1.8,3.2,1,4.3c-1.1,1.6-5.1,1-7.7-0.3c-1.9-1-2-1.8-3.1-1.9c-2.7-0.2-4.9,4.1-6.9,7.7c-2.2,4.1-3.3,6.2-2.5,8.2
	c0.6,1.4,1.5,1.5,6.7,4.3c4.3,2.4,6.5,3.6,8.5,5c3,2.1,4.1,3.3,5.5,2.9c2.1-0.6,2.1-4.1,3.2-4.1c1.1,0,2.1,3.4,1.8,6.5
	c-0.1,0.6-0.5,5.1-2.9,5.9c-1.9,0.6-4-1.4-4.3-1c-0.4,0.5,4.1,3.2,5.6,7.8c1,3.1,0.9,8.1-2.3,10.4c-2.3,1.7-6.1,1.9-8.5,0.1
	c-4.2-3-1.3-9.6-6-13.3c-1.7-1.4-4.5-2.3-5.7-1.4c-2.5,2,4,10.7,0.9,14.6c-1.9,2.3-6.3,1.8-8.8,0.9c-7.2-2.6-10.6-13-7.7-16.7
	c2.3-3,7.3,0.1,10.6-3.3c3.2-3.3,2.3-10-0.3-14.2c-0.7-1.1-3-4.8-6.7-5.5c-2.7-0.5-4.6,0.9-5.6-0.1c-1.5-1.6,1.5-5.9,0.4-6.8
	c-1-0.8-5,1.2-7.4,4.3c-1,1.2-1.2,2-1.9,2.1c-2,0.2-5-5.1-3.6-7.2c1.1-1.6,4.2-0.1,5.8-2.1c0.8-1,1.1-2.8,0.4-3.5
	c-1.4-1.5-4.9,2.4-9.4,1.3c-3.5-0.8-3.8-3.7-7.5-4.1c-2.2-0.2-4.7,0.4-5,1.6c-0.3,1.3,2.8,1.8,5.1,4.7c3.3,4.3,0.5,7.9,3.8,12
	c2.1,2.7,3.8,1.8,5.3,4.5c0.9,1.7,0.5,2.6,1.1,7.9c0.5,4.7,0.6,5.9,1.6,6.9c1.4,1.3,3,1,4.4,1.4c5.6,1.6,8.1,14.8,7.5,26.9
	c-0.5,10.6-3.3,19.7-2.2,20c0.9,0.3,2.2-6,6-6.7c3-0.5,6.5,2.4,7.7,5.8c1.2,3.5,0.1,7.9-1.8,8.4c-1.9,0.5-3.5-3-5.3-2.4
	c-1.8,0.6-2,4.4-2.1,5.7C445.1,186.1,445.3,189.7,447.5,194.1z"/>
<path class="st2" d="M513.1,273.1c5.1-2.2,12.3-4.6,21.3-5.2c13.1-1,23.7,2.3,29.8,4.8c-0.5-2.5-1.1-4.2-1.6-5.4
	c-0.2-0.5-0.4-0.9-0.3-1.4c0.4-1.4,2.9-1,3.7-2.6c0.4-1-0.4-1.4-0.5-3.6c0-0.9,0.3-2.3,1-5c0.5-2.1,0.7-2.5,1.1-2.9
	c0.9-0.8,1.8-0.4,2.3-1.1c0.5-1-0.9-2.1-0.4-3.4c0.4-1.3,2-0.8,3.1-2.3c1-1.5,0.8-3.8,0.2-4.1c-0.5-0.2-1,1-2.3,1.1
	c-1.3,0.1-2.1-1.1-2.5-0.7c-0.7,0.6,1.3,4.9,1.1,5c-0.1,0.1-1.1-2.7-2.2-2.6c-1,0-1.1,2.2-2.4,2.5c-1.1,0.2-1.7-1-2.3-0.7
	c-0.8,0.5-0.3,2.9,0.1,4.2c0.3,0.8,0.9,2.9,2.3,3.2c0.6,0.1,0.9-0.2,1.1,0c0.7,0.6-0.4,4.3-2.8,5.6c-0.9,0.5-2.2,0.7-2.5,0.2
	c-0.4-0.7,1.2-1.9,1.2-4.1c0-1-0.4-2.3-0.9-2.4c-0.9-0.1-1.8,3.2-2,4.2c-0.1,0.4-0.3,1.2,0,1.6c0.3,0.3,0.8-0.1,1,0.2
	c0.2,0.3,0,0.9-0.3,1.1c-0.4,0.2-1.1-0.3-1.7-0.8c-0.5-0.4-0.4-0.5-0.8-0.7c-0.8-0.6-1.2-0.3-1.6-0.7c-0.8-0.8-0.3-2.9-0.2-3.1
	c0.3-1.2,0.9-2,0.7-2.2c-0.2-0.2-0.9,0.5-1.4,0.3c-0.9-0.4-0.9-3.7-0.2-4c0.5-0.2,0.9,1.4,2.4,1.7c1,0.2,1.9-0.4,2.4-0.7
	c0.6-0.4,1.8-1.2,2-2.5c0.4-2-1.5-4.2-3.3-4.7c-1.2-0.3-2.3,0.2-2.5-0.2c-0.2-0.5,1-1.1,1.4-2.7c0.3-1.4-0.3-3.2-1.1-3.4
	c-0.4-0.1-0.5,0.3-2.8,2.3c-0.5,0.5-1,0.9-0.9,1.2c0.1,0.3,0.8,0,1.3,0.4c0.5,0.4,0.7,1.5,0.2,2.1c-0.3,0.4-0.7,0.5-0.9,0.5
	c-0.6,0.2-1.6,0-1.9-0.6c-0.4-0.7,0-1.6-0.1-1.6c-0.2-0.1-0.5,1.6-1.6,2.2c-0.6,0.3-1,0.1-1.4,0.5c-0.3,0.4-0.3,1-0.3,1.7
	c0,0.7,0.1,2,1,3.3c0.4,0.6,1.2,1.8,2,1.7c0.5-0.1,0.6-0.7,1.4-0.9c0.1,0,1-0.3,1.4,0.2c0.6,0.6,0.4,2.2-0.3,2.9
	c-0.7,0.6-1.3,0.2-1.8,0.8c-0.5,0.7,0.2,1.4-0.1,3.1c-0.1,0.6-0.2,1.2-0.7,1.5c-0.6,0.5-1.8,0.3-2.4-0.3c-1.2-1.3,0.5-3.8-0.8-5.3
	c-0.5-0.6-1.4-1-1.9-0.7c-1,0.7,0.8,4-0.6,5.6c-0.8,0.9-2.4,1.2-3.5,0.2c-0.9-0.8-1.1-2.5-0.6-3.3c0.4-0.7,1.3-0.7,1.3-1.1
	c0-0.4-0.9-0.4-1.6-1.1c-0.8-0.9-0.9-2.7-0.4-3c0.4-0.3,1,0.8,2.2,0.9c1.2,0.2,2.7-0.4,3.5-1.8c1-1.7,0.7-4-0.3-4.8
	c-0.5-0.5-1.1-0.3-1.5-0.9c-0.4-0.7,0-1.6-0.3-1.8c-0.4-0.3-1.4,1.7-2.3,1.5c-0.6-0.2-1-1.4-0.7-2c0.2-0.4,0.8-0.2,1.1-0.7
	c0.4-0.5,0.2-1.5-0.1-1.6c-0.3-0.2-0.7,0.4-1,0.3c-0.5-0.2,0.3-2-0.3-2.8c-0.5-0.6-1.7-0.7-2.3-0.2c-0.7,0.7,0.1,2.1-0.6,2.8
	c-0.7,0.7-2.2-0.3-2.5,0.2c-0.2,0.4,0.5,1.6,1.3,1.7c0.7,0.1,1-0.5,1.4-0.3c0.5,0.3,0.7,1.9-0.1,2.5c-0.5,0.4-1.3,0.2-1.8,0
	c-0.8-0.5-0.7-1.4-1.3-1.5c-0.6-0.1-1.2,0.9-1.7,1.6c-0.4,0.6-0.6,1.2-0.8,1.7c-0.4,1.1-0.6,1.7-0.6,2.2c0.1,1.3,1.8,1,3.3,3
	c0.2,0.3,0.6,0.8,0.9,0.7c0.4-0.1,0.3-0.9,0.7-1.2c0.5-0.3,1.3-0.2,1.7,0.3c0.7,0.8,0.2,2.4-0.6,2.9c-0.8,0.5-2-0.2-2.1,0
	c-0.1,0.2,1,0.6,1.5,1.7c0.6,1.2,0.5,3.4-0.7,4.2c-0.7,0.5-1.8,0.4-2.5-0.2c-0.8-0.7-1-2.2-1.2-4.2c-0.1-1.3-0.1-1.9-0.5-2.2
	c-0.4-0.3-1.3,0-1.7,0.6c-0.8,1.3,1.1,2.9,0.5,5c-0.3,0.9-1,1.9-2,1.9c-0.8,0.1-1.6-0.5-2-1.2c-0.9-1.7,0.4-3.8-0.4-4.5
	c-0.5-0.5-1.3,0.2-1.8-0.3c-0.6-0.6-0.4-2.3,0.3-2.7c0.7-0.4,1.2,0.6,2.4,0.5c1.4-0.1,2.7-1.8,3.1-3.3c0.3-1.3,0.3-3.3-0.6-3.9
	c-0.8-0.5-1.8,0.2-2.5-0.5c-0.4-0.4-0.4-1-0.6-1c-0.3,0-0.2,1.4-0.8,1.8c-0.5,0.3-1.2,0-1.6-0.6c-0.2-0.4-0.2-0.9,0-1.3
	c0.3-0.7,1.1-0.6,1.3-1.2c0.4-0.8-0.3-2.3-0.9-2.4c-0.4,0-0.6,0.5-0.9,0.4c-0.5-0.2-0.1-1.8-0.8-2.3c-0.5-0.3-1.3-0.1-1.8,0.4
	c-0.9,0.9-0.4,2.4-1.2,2.8c-0.4,0.2-0.7-0.2-0.9,0c-0.3,0.3-0.1,1.6,0.6,2.1c0.7,0.4,1.4-0.3,1.9,0.2c0.4,0.3,0.5,1,0.3,1.3
	c-0.3,0.5-1.4,0.3-2.1-0.1c-0.5-0.3-0.6-0.6-0.9-0.6c-0.7-0.1-1.4,1.2-1.9,2.4c-0.6,1.3-0.9,1.9-0.7,2.5c0.2,0.4,0.4,0.4,1.9,1.3
	c1.2,0.7,1.8,1.1,2.3,1.5c0.8,0.6,1.1,1,1.5,0.9c0.6-0.2,0.6-1.2,0.9-1.2c0.3,0,0.6,1,0.5,2c0,0.2-0.1,1.5-0.8,1.8
	c-0.5,0.2-1.1-0.4-1.2-0.3c-0.1,0.2,1.1,1,1.5,2.4c0.3,0.9,0.2,2.5-0.6,3.2c-0.6,0.5-1.7,0.6-2.4,0c-1.2-0.9-0.3-2.9-1.7-4.1
	c-0.5-0.4-1.2-0.7-1.6-0.4c-0.7,0.6,1.1,3.3,0.2,4.4c-0.5,0.7-1.8,0.6-2.4,0.3c-2-0.8-3-4-2.1-5.1c0.6-0.9,2,0,2.9-1
	c0.9-1,0.6-3.1-0.1-4.3c-0.2-0.3-0.8-1.5-1.9-1.7c-0.8-0.1-1.3,0.3-1.6,0c-0.4-0.5,0.4-1.8,0.1-2.1c-0.3-0.3-1.4,0.4-2.1,1.3
	c-0.3,0.4-0.3,0.6-0.5,0.6c-0.6,0.1-1.4-1.6-1-2.2c0.3-0.5,1.2,0,1.6-0.6c0.2-0.3,0.3-0.8,0.1-1.1c-0.4-0.4-1.4,0.7-2.6,0.4
	c-1-0.2-1.1-1.1-2.1-1.2c-0.6-0.1-1.3,0.1-1.4,0.5c-0.1,0.4,0.8,0.5,1.4,1.4c0.9,1.3,0.1,2.4,1.1,3.7c0.6,0.8,1.1,0.5,1.5,1.4
	c0.3,0.5,0.1,0.8,0.3,2.4c0.1,1.4,0.2,1.8,0.5,2.1c0.4,0.4,0.8,0.3,1.2,0.4c1.6,0.5,2.2,4.5,2.1,8.2c-0.1,3.2-0.9,6-0.6,6.1
	c0.2,0.1,0.6-1.8,1.7-2c0.8-0.2,1.8,0.7,2.1,1.8c0.3,1.1,0,2.4-0.5,2.6c-0.5,0.2-1-0.9-1.5-0.7c-0.5,0.2-0.5,1.3-0.6,1.7
	C512.5,270.7,512.5,271.8,513.1,273.1z"/>
<polygon points="414,193.3 445.5,226.1 538.8,226.1 538.6,193.3 "/>
<circle class="st0" cx="487.7" cy="163.6" r="9.6"/>
<circle class="st0" cx="590.5" cy="163.6" r="9.6"/>
<ellipse class="st0" cx="538.1" cy="161.3" rx="11.1" ry="9.6"/>
<polygon class="st0" points="488.6,133.1 481.6,148 498.2,148 "/>
<polygon points="625.1,405.3 647.2,426.1 642.6,433.4 631.9,447.2 621,457.9 608.6,467.4 591.9,477 577.8,482.8 553.5,488.7 
	538.9,489.3 539.3,461.1 552,460.2 573.3,454.5 593.9,443 612.1,425.7 "/>
<polygon points="663.6,317.7 663.6,193.3 634.6,226.1 634.6,317.7 "/>
<polygon points="412.6,320.9 412,378.3 412.6,384.2 416.3,398.9 426,422.1 429.3,428 452.6,403.7 446.3,385.7 444,372.5 
	444.5,322.9 "/>
<polygon class="st0" points="465.3,145.1 462.8,149.4 470.8,149.9 "/>
<polygon class="st0" points="513.8,138.1 509,145.1 520.9,145.1 "/>
<polygon class="st0" points="529.8,145.1 538.8,128.9 549.2,145.1 "/>
<polygon class="st0" points="558.4,145.1 564.9,137 571.5,145.1 "/>
<polygon class="st0" points="580.9,145.1 590.5,133.5 600.1,145.1 "/>
<g>
	<path d="M544.6,226.1c-0.9-4.3,1-8.1,3.3-8.5c1.8-0.4,3.8,1.5,4.6,4.6c0.2-0.2,2.7-3,2.4-7.1c-0.2-2.6-1.3-4.3-1.8-4.9
		c-2.2-3.1-5.1-2.9-5.7-2.8c-1.9,0.2-3.2,1.4-3.9,2.1c0.1-1.9,0.1-7.8-2.8-12.6c-0.9-1.6-2-2.6-2.8-3.4c0,10.9,0,21.8,0,32.8
		C540.1,226.2,542.3,226,544.6,226.1z"/>
	<path class="st0" d="M531.2,226.1c0.9-4.3-1-8.1-3.3-8.5c-1.8-0.4-3.8,1.5-4.6,4.6c-0.2-0.2-2.7-3-2.4-7.1c0.2-2.6,1.3-4.3,1.8-4.9
		c2.2-3.1,5.1-2.9,5.7-2.8c1.9,0.2,3.2,1.4,3.9,2.1c-0.1-1.9-0.1-7.8,2.8-12.6c0.9-1.6,2-2.6,2.8-3.4c0,10.9,0,21.8,0,32.8
		C535.6,226.2,533.4,226,531.2,226.1z"/>
</g>
<g>
	<path d="M532.6,460.7c0.9,3.7-1,6.9-3.3,7.3c-1.8,0.3-3.8-1.3-4.6-3.9c-0.2,0.2-2.7,2.6-2.4,6.1c0.2,2.2,1.3,3.6,1.8,4.2
		c2.2,2.6,5.1,2.4,5.7,2.4c1.9-0.2,3.2-1.2,3.9-1.8c-0.1,1.6-0.1,6.7,2.8,10.8c0.9,1.3,2,2.3,2.8,2.9c0-9.3,0-18.7,0-28
		C537.1,460.6,534.8,460.7,532.6,460.7z"/>
	<path class="st0" d="M546,460.7c-0.9,3.7,1,6.9,3.3,7.3c1.8,0.3,3.8-1.3,4.6-3.9c0.2,0.2,2.7,2.6,2.4,6.1c-0.2,2.2-1.3,3.6-1.8,4.2
		c-2.2,2.6-5.1,2.4-5.7,2.4c-1.9-0.2-3.2-1.2-3.9-1.8c0.1,1.6,0.1,6.7-2.8,10.8c-0.9,1.3-2,2.3-2.8,2.9c0-9.3,0-18.7,0-28
		C541.5,460.6,543.8,460.7,546,460.7z"/>
</g>
<g>
	<path d="M634.6,324.4c3.8-0.9,7.2,1,7.6,3.3c0.3,1.8-1.3,3.8-4.1,4.6c0.2,0.2,2.7,2.7,6.3,2.4c2.3-0.2,3.8-1.3,4.4-1.8
		c2.7-2.2,2.5-5.1,2.5-5.7c-0.2-1.9-1.2-3.2-1.8-3.9c1.7,0.1,6.9,0.1,11.2-2.8c1.4-0.9,2.3-2,3-2.8c-9.7,0-19.4,0-29,0
		C634.5,319.9,634.7,322.2,634.6,324.4z"/>
	<path class="st0" d="M634.6,311c3.8,0.9,7.2-1,7.6-3.3c0.3-1.8-1.3-3.8-4.1-4.6c0.2-0.2,2.7-2.7,6.3-2.4c2.3,0.2,3.8,1.3,4.4,1.8
		c2.7,2.2,2.5,5.1,2.5,5.7c-0.2,1.9-1.2,3.2-1.8,3.9c1.7-0.1,6.9-0.1,11.2,2.8c1.4,0.9,2.3,2,3,2.8c-9.7,0-19.4,0-29,0
		C634.5,315.5,634.7,313.2,634.6,311z"/>
</g>
<g>
	<path class="st0" d="M444.8,327c-4.2-0.9-7.9,1-8.4,3.3c-0.4,1.8,1.5,3.8,4.5,4.6c-0.2,0.2-3,2.7-7,2.4c-2.6-0.2-4.2-1.3-4.9-1.8
		c-3-2.2-2.8-5.1-2.7-5.7c0.2-1.9,1.4-3.2,2-3.9c-1.8,0.1-7.6,0.1-12.4-2.8c-1.5-0.9-2.6-2-3.3-2.8c10.7,0,21.5,0,32.2,0
		C444.8,322.5,444.7,324.8,444.8,327z"/>
	<path d="M444.8,313.6c-4.2,0.9-7.9-1-8.4-3.3c-0.4-1.8,1.5-3.8,4.5-4.6c-0.2-0.2-3-2.7-7-2.4c-2.6,0.2-4.2,1.3-4.9,1.8
		c-3,2.2-2.8,5.1-2.7,5.7c0.2,1.9,1.4,3.2,2,3.9c-1.8-0.1-7.6-0.1-12.4,2.8c-1.5,0.9-2.6,2-3.3,2.8c10.7,0,21.5,0,32.2,0
		C444.8,318.1,444.7,315.8,444.8,313.6z"/>
</g>
<path class="st3" d="M445.5,226.1h189.1v145.8c-5.5,50.3-46.3,88.8-94.5,89.2c-48.4,0.5-90-37.6-96.1-88.1
	C444.5,324,445,275.1,445.5,226.1z"/>
<path class="st2" d="M509.9,338.2c-2.9-4.9,9-13.2,6-19.8c-1.6-3.3-6.4-5.1-7.8-4c-0.5,0.4-0.5,1.1-0.1,6.5c0.3,4.2,0.4,6.3-0.5,7.7
	c-0.9,1.5-2.2,2.2-3,2.6c-3.5,1.5-5.9-4.5-11.6-4.7c-2.2-0.1-4,0.7-4.2,0.3c-0.3-0.8,5.8-2.9,5.6-4.7c-0.3-2-7.9-2.1-7.9-3.4
	c0-1.4,8.5-1.2,9.5-4.4c0.9-3-4.9-8.3-10.9-10.1c-0.5-0.2-8.7-2.6-14.7,1.7c-10.3,7.3-2.7,27.2-1.9,29.2c2.2,5.5,6,11.2,8.6,10.7
	c1.2-0.2,1.4-1.7,2.9-2c2.4-0.5,6.2,2.1,6.5,4.9c0.4,3.7-5.7,4.3-13,13.2c-1.9,2.3-2.9,4-5.3,4.7c-3.7,1.1-8.6-0.8-9-3.2
	c-0.3-1.5,2-3.6,6.6-7.7c3.6-3.1,4.3-3.3,4.9-4.7c1.5-3.4,0.1-8.7-3.2-11c-6.2-4.2-17.1,3.6-16.6,6.9c0.2,1.5,3,3,5.1,2.6
	c3.2-0.6,3.6-5.2,6.4-5.4c1.4-0.1,3,0.9,3.3,2.2c0.5,2.2-4,3.4-7.6,8.6c-1.3,1.9-3.6,5.2-2.9,9.2c0.7,4.4,4.8,6.9,5.2,7.2
	c3.9,2.4,6.4,0.6,8.5,2.8c2.1,2.3,1.5,6.5,0.8,8.8c-1.4,4-3.9,4-4.7,7.5c-0.7,3,0.3,6.6,2.6,8.7c4.9,4.7,14.6,1.2,14.7-0.8
	c0.1-2-9.6-2.3-10.2-6.3c-0.3-2,1.8-2.9,9.1-9.9c5.2-5.1,6.1-6.6,9-7.3c3.1-0.8,7.5-0.3,9,2.2c1.6,2.6-1.1,5.5,0.1,7.3
	c1.8,2.7,8.8-3.4,16.7-2.1c0.5,0.1,1.6,0.3,2.4-0.3c2-1.4,2.1-7.2-1.2-9.4c-2.2-1.4-5.4-1.1-7.2,0.5c-1.8,1.6-1.1,3.7-2.6,4.4
	c-1.6,0.8-4.7-0.3-5.7-2.3c-1.6-3.4,3.9-7.5,2.2-10.9c-1.1-2.2-4.4-2.1-4.3-3.2c0.1-1.6,6.9-0.9,9.3-4.8c1.6-2.7-0.8-4.8,0.7-7.1
	c2.4-3.8,10.4,0.5,17.2-3.8c4.1-2.6,7.1-7.9,5.7-10.6c-1.3-2.4-6.2-3.1-8-1.3c-1.5,1.5,0,3.6-1.3,5.5
	C520.4,341.8,511.9,341.7,509.9,338.2z"/>
<path class="st2" d="M569.4,338.2c2.9-4.9-9-13.2-6-19.8c1.6-3.3,6.4-5.1,7.8-4c0.5,0.4,0.5,1.1,0.1,6.5c-0.3,4.2-0.4,6.3,0.5,7.7
	c0.9,1.5,2.2,2.2,3,2.6c3.5,1.5,5.9-4.5,11.6-4.7c2.2-0.1,4,0.7,4.2,0.3c0.3-0.8-5.8-2.9-5.6-4.7c0.3-2,7.9-2.1,7.9-3.4
	c0-1.4-8.5-1.2-9.5-4.4c-0.9-3,4.9-8.3,10.9-10.1c0.5-0.2,8.7-2.6,14.7,1.7c10.3,7.3,2.7,27.2,1.9,29.2c-2.2,5.5-6,11.2-8.6,10.7
	c-1.2-0.2-1.4-1.7-2.9-2c-2.4-0.5-6.2,2.1-6.5,4.9c-0.4,3.7,5.7,4.3,13,13.2c1.9,2.3,2.9,4,5.3,4.7c3.7,1.1,8.6-0.8,9-3.2
	c0.3-1.5-2-3.6-6.6-7.7c-3.6-3.1-4.3-3.3-4.9-4.7c-1.5-3.4-0.1-8.7,3.2-11c6.2-4.2,17.1,3.6,16.6,6.9c-0.2,1.5-3,3-5.1,2.6
	c-3.2-0.6-3.6-5.2-6.4-5.4c-1.4-0.1-3,0.9-3.3,2.2c-0.5,2.2,4,3.4,7.6,8.6c1.3,1.9,3.6,5.2,2.9,9.2c-0.7,4.4-4.8,6.9-5.2,7.2
	c-3.9,2.4-6.4,0.6-8.5,2.8c-2.1,2.3-1.5,6.5-0.8,8.8c1.4,4,3.9,4,4.7,7.5c0.7,3-0.3,6.6-2.6,8.7c-4.9,4.7-14.6,1.2-14.7-0.8
	c-0.1-2,9.6-2.3,10.2-6.3c0.3-2-1.8-2.9-9.1-9.9c-5.2-5.1-6.1-6.6-9-7.3c-3.1-0.8-7.5-0.3-9,2.2c-1.6,2.6,1.1,5.5-0.1,7.3
	c-1.8,2.7-8.8-3.4-16.7-2.1c-0.5,0.1-1.6,0.3-2.4-0.3c-2-1.4-2.1-7.2,1.2-9.4c2.2-1.4,5.4-1.1,7.2,0.5c1.8,1.6,1.1,3.7,2.6,4.4
	c1.6,0.8,4.7-0.3,5.7-2.3c1.6-3.4-3.9-7.5-2.2-10.9c1.1-2.2,4.4-2.1,4.3-3.2c-0.1-1.6-6.9-0.9-9.3-4.8c-1.6-2.7,0.8-4.8-0.7-7.1
	c-2.4-3.8-10.4,0.5-17.2-3.8c-4.1-2.6-7.1-7.9-5.7-10.6c1.3-2.4,6.2-3.1,8-1.3c1.5,1.5,0,3.6,1.3,5.5
	C558.8,341.8,567.3,341.7,569.4,338.2z"/>
<path class="st4" d="M539.8,407.5c-6.5,0.2-16.2,3.5-18.2,11.3c-1.2,4.8,1.1,8.9,1.3,9.3c4.3,7.3,15.2,7.5,21.5,6
	c3.2-0.7,9.9-2.3,12.1-7.9c2.3-5.8-1.4-12.7-6.1-16C546.3,407.3,541.9,407.5,539.8,407.5z"/>
<path class="st4" d="M531.4,410c1.2,1,3.7,3.4,4.5,7.1c0.6,2.8,0,5.1-0.9,8.1c-0.6,2.1-1.6,5-3.7,8.3"/>
<path class="st4" d="M545.8,408.4c-1.2,1.1-3.7,3.5-4.5,7.4c-0.6,3,0,5.4,0.9,8.5c0.6,2.2,1.6,5.3,3.7,8.7"/>
<rect x="532.3" y="416.6" class="st4" width="12.9" height="11.1"/>
<line class="st5" x1="539.3" y1="407" x2="539.3" y2="281.2"/>
<polygon class="st6" points="535.7,287.4 531.7,287.4 531.7,290.6 524.9,290.6 524.9,294 538.3,294 "/>
<polygon class="st6" points="534.9,303.2 530.8,303.2 530.8,306.4 524,306.4 524,309.8 537.4,309.8 "/>
<g>
	<path d="M288.6,567.3h-14.1l-2.5,5.4c-0.6,1.3-0.9,2.3-0.9,3c0,0.5,0.3,1,0.8,1.4c0.5,0.4,1.7,0.7,3.4,0.8v0.9h-11.5v-0.9
		c1.5-0.3,2.5-0.6,3-1c0.9-0.8,1.9-2.4,3-4.9l12.8-28.1h0.9l12.7,28.4c1,2.3,1.9,3.8,2.8,4.4c0.8,0.7,2,1.1,3.5,1.1v0.9h-14.4v-0.9
		c1.4-0.1,2.4-0.3,2.9-0.7c0.5-0.4,0.8-0.9,0.8-1.4c0-0.7-0.4-1.9-1.1-3.5L288.6,567.3z M287.8,565.4l-6.2-13.8l-6.3,13.8H287.8z"/>
	<path d="M324.3,544.6H337v0.9h-0.7c-0.5,0-1.1,0.2-2,0.6c-0.9,0.4-1.7,0.9-2.4,1.7c-0.7,0.7-1.6,1.9-2.7,3.5l-8.8,13v8.6
		c0,2.1,0.3,3.4,0.8,3.9c0.7,0.7,1.8,1.1,3.2,1.1h1.2v0.9H310v-0.9h1.3c1.5,0,2.6-0.4,3.3-1.3c0.4-0.5,0.6-1.8,0.6-3.7v-8.1
		l-10-14.3c-1.2-1.7-2-2.7-2.4-3.1c-0.4-0.4-1.3-0.9-2.6-1.5c-0.4-0.2-0.9-0.3-1.6-0.3v-0.9h15.6v0.9h-0.8c-0.8,0-1.6,0.2-2.3,0.6
		c-0.7,0.4-1.1,0.9-1.1,1.7c0,0.6,0.5,1.7,1.6,3.3l7.6,11l7.1-10.5c1.1-1.6,1.6-2.8,1.6-3.5c0-0.5-0.1-0.9-0.4-1.3
		c-0.3-0.4-0.6-0.7-1.1-0.9c-0.5-0.2-1.2-0.3-2.2-0.3V544.6z"/>
	<path d="M364,545.5v-0.9h12.9v0.9h-1.4c-1.4,0-2.5,0.6-3.3,1.7c-0.4,0.5-0.6,1.7-0.6,3.6v13.8c0,3.4-0.4,6.1-1.1,8
		c-0.7,1.9-2.1,3.5-4.3,4.9s-5,2-8.7,2c-4,0-7-0.6-9-1.9c-2.1-1.3-3.5-3-4.4-5.2c-0.6-1.5-0.9-4.3-0.9-8.4v-13.3
		c0-2.1-0.3-3.5-0.9-4.1c-0.6-0.7-1.6-1-3-1h-1.4v-0.9h15.7v0.9h-1.4c-1.5,0-2.6,0.4-3.2,1.3c-0.4,0.6-0.7,1.9-0.7,3.8v14.9
		c0,1.3,0.1,2.8,0.4,4.6c0.3,1.7,0.7,3,1.4,4c0.7,1,1.7,1.7,2.9,2.4c1.3,0.6,2.8,0.9,4.7,0.9c2.4,0,4.5-0.5,6.4-1.5
		c1.9-1,3.2-2.2,3.9-3.7c0.7-1.5,1-4.1,1-7.7v-13.8c0-2.1-0.3-3.5-0.8-4c-0.7-0.7-1.7-1.1-3.1-1.1H364z"/>
	<path d="M376.7,544.6h9.9l22.3,25.6v-19.7c0-2.1-0.3-3.4-0.8-3.9c-0.7-0.7-1.7-1.1-3.1-1.1h-1.3v-0.9h12.7v0.9h-1.3
		c-1.5,0-2.6,0.4-3.3,1.3c-0.4,0.5-0.6,1.8-0.6,3.7v28.8h-1l-24-27.5v21c0,2.1,0.2,3.4,0.7,3.9c0.7,0.7,1.7,1.1,3.1,1.1h1.3v0.9
		h-12.7v-0.9h1.3c1.6,0,2.7-0.4,3.3-1.3c0.4-0.5,0.6-1.8,0.6-3.7v-23.7c-1.1-1.2-1.9-1.9-2.4-2.3c-0.5-0.4-1.3-0.7-2.4-1
		c-0.5-0.2-1.3-0.2-2.4-0.2V544.6z"/>
	<path d="M449,544.6l0.4,8h-1c-0.2-1.4-0.5-2.4-0.8-3c-0.6-1-1.3-1.7-2.2-2.2c-0.9-0.5-2.1-0.7-3.6-0.7h-5.1v26.1
		c0,2.1,0.2,3.4,0.7,3.9c0.7,0.7,1.7,1.1,3.1,1.1h1.3v0.9h-15.4v-0.9h1.3c1.5,0,2.6-0.4,3.3-1.3c0.4-0.5,0.6-1.8,0.6-3.7v-26.1h-4.4
		c-1.7,0-2.9,0.1-3.6,0.4c-0.9,0.3-1.7,0.9-2.4,1.8c-0.7,0.9-1.1,2.1-1.2,3.7h-1l0.4-8H449z"/>
	<path d="M471.5,567.3h-14.1l-2.5,5.4c-0.6,1.3-0.9,2.3-0.9,3c0,0.5,0.3,1,0.8,1.4c0.5,0.4,1.7,0.7,3.4,0.8v0.9h-11.5v-0.9
		c1.5-0.3,2.5-0.6,3-1c0.9-0.8,1.9-2.4,3-4.9l12.8-28.1h0.9l12.7,28.4c1,2.3,1.9,3.8,2.8,4.4c0.8,0.7,2,1.1,3.5,1.1v0.9h-14.4v-0.9
		c1.4-0.1,2.4-0.3,2.9-0.7c0.5-0.4,0.8-0.9,0.8-1.4c0-0.7-0.4-1.9-1.1-3.5L471.5,567.3z M470.8,565.4l-6.2-13.8l-6.3,13.8H470.8z"/>
	<path d="M508.6,578.7L494.5,550v22.8c0,2.1,0.2,3.4,0.7,3.9c0.7,0.7,1.7,1.1,3.1,1.1h1.3v0.9H487v-0.9h1.3c1.5,0,2.6-0.4,3.3-1.3
		c0.4-0.5,0.6-1.8,0.6-3.7v-22.3c0-1.5-0.2-2.6-0.5-3.3c-0.3-0.5-0.7-0.9-1.4-1.2c-0.7-0.3-1.7-0.5-3.2-0.5v-0.9h10.3l13.2,26.7
		l13-26.7h10.3v0.9h-1.3c-1.6,0-2.7,0.4-3.3,1.3c-0.4,0.5-0.6,1.8-0.6,3.7v22.3c0,2.1,0.3,3.4,0.8,3.9c0.7,0.7,1.7,1.1,3.1,1.1h1.3
		v0.9h-15.5v-0.9h1.3c1.6,0,2.6-0.4,3.3-1.3c0.4-0.5,0.6-1.8,0.6-3.7V550l-14,28.7H508.6z"/>
	<path d="M551.9,577.8v0.9h-15.6v-0.9h1.3c1.5,0,2.6-0.4,3.3-1.2c0.4-0.5,0.6-1.8,0.6-3.9v-22c0-1.7-0.1-2.9-0.3-3.4
		c-0.2-0.4-0.5-0.8-1.1-1.1c-0.8-0.4-1.6-0.6-2.5-0.6h-1.3v-0.9h15.6v0.9h-1.3c-1.5,0-2.6,0.4-3.2,1.2c-0.4,0.5-0.7,1.8-0.7,3.9v22
		c0,1.7,0.1,2.9,0.3,3.4c0.2,0.4,0.6,0.8,1.1,1.1c0.8,0.4,1.6,0.6,2.4,0.6H551.9z"/>
	<path d="M564.7,546.4v13.5h8c2.1,0,3.5-0.3,4.2-0.9c0.9-0.8,1.4-2.1,1.6-4.1h1v11.9h-1c-0.3-1.7-0.5-2.7-0.8-3.2
		c-0.3-0.6-0.9-1-1.6-1.4c-0.7-0.3-1.9-0.5-3.4-0.5h-8V573c0,1.5,0.1,2.4,0.2,2.8c0.1,0.3,0.4,0.6,0.8,0.8c0.4,0.2,1,0.3,2,0.3h6.2
		c2.1,0,3.6-0.1,4.5-0.4c0.9-0.3,1.8-0.8,2.7-1.6c1.1-1,2.2-2.6,3.4-4.7h1.1l-3.1,8.6h-28.1v-0.9h1.3c0.9,0,1.7-0.2,2.4-0.6
		c0.6-0.3,1-0.7,1.2-1.2c0.2-0.5,0.3-1.6,0.3-3.3v-22.2c0-2.2-0.2-3.5-0.7-4c-0.6-0.7-1.7-1-3.2-1h-1.3v-0.9h28.1l0.4,7.5h-1
		c-0.4-1.8-0.8-3-1.2-3.7c-0.5-0.7-1.1-1.2-2-1.5c-0.7-0.3-2-0.4-3.8-0.4H564.7z"/>
	<path d="M586.1,544.6h9.9l22.3,25.6v-19.7c0-2.1-0.3-3.4-0.8-3.9c-0.7-0.7-1.7-1.1-3.1-1.1h-1.3v-0.9h12.7v0.9h-1.3
		c-1.5,0-2.6,0.4-3.3,1.3c-0.4,0.5-0.6,1.8-0.6,3.7v28.8h-1l-24-27.5v21c0,2.1,0.2,3.4,0.7,3.9c0.7,0.7,1.7,1.1,3.1,1.1h1.3v0.9
		h-12.7v-0.9h1.3c1.6,0,2.7-0.4,3.3-1.3c0.4-0.5,0.6-1.8,0.6-3.7v-23.7c-1.1-1.2-1.9-1.9-2.4-2.3c-0.5-0.4-1.3-0.7-2.4-1
		c-0.5-0.2-1.3-0.2-2.4-0.2V544.6z"/>
	<path d="M658.4,544.6l0.4,8h-1c-0.2-1.4-0.5-2.4-0.8-3c-0.6-1-1.3-1.7-2.2-2.2c-0.9-0.5-2.1-0.7-3.6-0.7h-5.1v26.1
		c0,2.1,0.2,3.4,0.7,3.9c0.7,0.7,1.7,1.1,3.1,1.1h1.3v0.9h-15.4v-0.9h1.3c1.5,0,2.6-0.4,3.3-1.3c0.4-0.5,0.6-1.8,0.6-3.7v-26.1h-4.4
		c-1.7,0-2.9,0.1-3.6,0.4c-0.9,0.3-1.7,0.9-2.4,1.8c-0.7,0.9-1.1,2.1-1.2,3.7h-1l0.4-8H658.4z"/>
	<path d="M679.2,543.8c4.7,0,8.8,1.7,12.3,5c3.5,3.4,5.2,7.6,5.2,12.6c0,5.2-1.7,9.5-5.2,12.9s-7.7,5.1-12.7,5.1
		c-5,0-9.2-1.7-12.6-5c-3.4-3.3-5.1-7.7-5.1-13c0-5.4,2-9.8,5.9-13.3C670.4,545.3,674.5,543.8,679.2,543.8z M678.7,545.6
		c-3.3,0-5.9,1.1-7.8,3.4c-2.5,2.8-3.7,6.9-3.7,12.4c0,5.6,1.3,9.9,3.8,12.9c2,2.3,4.5,3.4,7.7,3.4c3.4,0,6.2-1.2,8.5-3.8
		c2.2-2.5,3.3-6.4,3.3-11.8c0-5.8-1.2-10.2-3.7-13.1C684.9,546.8,682.2,545.6,678.7,545.6z"/>
	<path d="M713.5,578.7v-0.9h1.4c1.5,0,2.6-0.5,3.3-1.4c0.4-0.6,0.6-1.8,0.6-3.7v-22c0-2.1-0.3-3.5-0.8-4c-0.7-0.7-1.7-1.1-3.1-1.1
		h-1.4v-0.9h14.8c5.4,0,9.6,0.6,12.4,1.7c2.8,1.2,5.1,3.1,6.8,5.8c1.7,2.7,2.6,5.8,2.6,9.4c0,4.7-1.5,8.7-4.6,11.9
		c-3.5,3.6-8.7,5.3-15.8,5.3H713.5z M723.9,576.2c2.3,0.5,4.2,0.7,5.7,0.7c4.2,0,7.6-1.4,10.3-4.1c2.7-2.7,4.1-6.4,4.1-11.1
		c0-4.7-1.4-8.4-4.1-11.1c-2.7-2.7-6.3-4.1-10.6-4.1c-1.6,0-3.4,0.2-5.5,0.7V576.2z"/>
	<path d="M763.8,546.4v13.5h8c2.1,0,3.5-0.3,4.2-0.9c0.9-0.8,1.4-2.1,1.6-4.1h1v11.9h-1c-0.3-1.7-0.5-2.7-0.8-3.2
		c-0.3-0.6-0.9-1-1.6-1.4c-0.7-0.3-1.9-0.5-3.4-0.5h-8V573c0,1.5,0.1,2.4,0.2,2.8c0.1,0.3,0.4,0.6,0.8,0.8c0.4,0.2,1,0.3,2,0.3h6.2
		c2.1,0,3.6-0.1,4.5-0.4c0.9-0.3,1.8-0.8,2.7-1.6c1.1-1,2.2-2.6,3.4-4.7h1.1l-3.1,8.6h-28.1v-0.9h1.3c0.9,0,1.7-0.2,2.4-0.6
		c0.6-0.3,1-0.7,1.2-1.2c0.2-0.5,0.3-1.6,0.3-3.3v-22.2c0-2.2-0.2-3.5-0.7-4c-0.6-0.7-1.7-1-3.2-1h-1.3v-0.9h28.1l0.4,7.5h-1
		c-0.4-1.8-0.8-3-1.2-3.7c-0.5-0.7-1.1-1.2-2-1.5c-0.7-0.3-2-0.4-3.8-0.4H763.8z"/>
	<path d="M817.4,569.3l0.9,0.2l-3.1,9.3H787v-0.9h1.4c1.5,0,2.6-0.5,3.3-1.4c0.4-0.5,0.6-1.8,0.6-3.7v-22c0-2.1-0.3-3.5-0.8-4
		c-0.7-0.7-1.7-1.1-3.1-1.1H787v-0.9h16.5v0.9c-1.9,0-3.3,0.2-4.1,0.5c-0.8,0.4-1.3,0.8-1.6,1.3c-0.3,0.5-0.4,1.8-0.4,3.9v21.4
		c0,1.4,0.1,2.3,0.4,2.9c0.2,0.4,0.5,0.6,1,0.8c0.4,0.2,1.8,0.3,4.2,0.3h2.7c2.8,0,4.8-0.2,5.9-0.6c1.1-0.4,2.2-1.1,3.1-2.1
		C815.5,572.9,816.5,571.4,817.4,569.3z"/>
</g>
<g>
	<path d="M141.3,649.6v-1.3h2c2.3,0,3.9-0.6,4.8-1.9c0.6-0.7,0.9-2.4,0.9-5v-29.6c0-2.9-0.4-4.7-1.1-5.4c-1-1-2.6-1.5-4.6-1.5h-2
		v-1.3h21.8c8,0,14.1,0.8,18.3,2.3c4.2,1.6,7.5,4.1,10.1,7.8c2.5,3.6,3.8,7.8,3.8,12.6c0,6.4-2.3,11.7-6.8,16
		c-5.1,4.8-12.8,7.2-23.3,7.2H141.3z M156.6,646.3c3.3,0.6,6.2,0.9,8.4,0.9c6.1,0,11.2-1.8,15.2-5.5c4-3.7,6.1-8.7,6.1-14.9
		c0-6.3-2-11.3-6.1-15c-4-3.7-9.2-5.5-15.5-5.5c-2.4,0-5.1,0.3-8.1,1V646.3z"/>
	<path d="M223.4,648.4v1.3h-23v-1.3h1.9c2.2,0,3.8-0.6,4.8-1.7c0.6-0.7,0.9-2.5,0.9-5.2v-29.6c0-2.3-0.2-3.9-0.5-4.6
		c-0.3-0.6-0.8-1-1.6-1.5c-1.2-0.5-2.4-0.8-3.6-0.8h-1.9v-1.3h23v1.3h-1.9c-2.2,0-3.8,0.6-4.8,1.7c-0.7,0.7-1,2.5-1,5.2v29.6
		c0,2.3,0.2,3.9,0.5,4.6c0.3,0.6,0.8,1,1.7,1.5c1.1,0.5,2.3,0.8,3.6,0.8H223.4z"/>
	<path d="M262.6,602.7v15.9h-1.5c-0.5-3-1.3-5.5-2.6-7.3s-3-3.2-5.2-4.3c-2.3-1.1-4.6-1.6-7-1.6c-2.7,0-5,0.7-6.8,2.1
		c-1.8,1.4-2.7,3.1-2.7,4.9c0,1.4,0.6,2.7,1.7,3.8c1.6,1.7,5.5,3.9,11.7,6.8c5,2.3,8.4,4.1,10.3,5.3c1.8,1.2,3.2,2.7,4.2,4.3
		c1,1.7,1.5,3.4,1.5,5.2c0,3.5-1.6,6.5-4.7,9c-3.2,2.5-7.2,3.8-12.2,3.8c-1.6,0-3-0.1-4.4-0.3c-0.8-0.1-2.5-0.5-5.1-1.2
		s-4.2-1.1-4.9-1.1c-0.7,0-1.2,0.2-1.6,0.5c-0.4,0.3-0.7,1-0.9,2.1H231v-15.7h1.5c0.7,3.3,1.6,5.8,2.8,7.4c1.2,1.6,2.9,3,5.3,4.1
		s5,1.6,7.9,1.6c3.3,0,5.9-0.7,7.8-2.2c1.9-1.5,2.9-3.2,2.9-5.3c0-1.1-0.4-2.3-1.1-3.4c-0.7-1.2-1.9-2.2-3.4-3.2
		c-1-0.7-3.8-2.1-8.4-4.3s-7.9-4-9.8-5.3c-1.9-1.3-3.4-2.8-4.4-4.3c-1-1.6-1.5-3.3-1.5-5.2c0-3.3,1.5-6.1,4.4-8.5s6.7-3.6,11.3-3.6
		c2.8,0,5.9,0.6,9.1,1.8c1.5,0.6,2.5,0.8,3.1,0.8c0.7,0,1.2-0.2,1.7-0.5c0.4-0.3,0.8-1.1,1-2.1H262.6z"/>
	<path d="M317.4,603.8l0.6,10.8h-1.5c-0.3-1.9-0.7-3.2-1.2-4.1c-0.8-1.3-1.9-2.3-3.3-2.9s-3.1-0.9-5.4-0.9h-7.6v35
		c0,2.8,0.4,4.6,1.1,5.3c1,0.9,2.5,1.4,4.6,1.4h1.9v1.3h-22.7v-1.3h1.9c2.3,0,3.9-0.6,4.8-1.8c0.6-0.7,0.9-2.4,0.9-4.9v-35H285
		c-2.5,0-4.3,0.2-5.3,0.5c-1.4,0.4-2.5,1.3-3.5,2.5c-1,1.2-1.6,2.9-1.7,4.9h-1.5l0.6-10.8H317.4z"/>
	<path d="M374.7,649.6h-14.3l-18.2-21.4c-1.3,0-2.4,0.1-3.3,0.1c-0.3,0-0.7,0-1.1,0c-0.4,0-0.8,0-1.2-0.1v13.3
		c0,2.9,0.4,4.7,1.1,5.4c1,1,2.5,1.5,4.5,1.5h2.1v1.3h-23v-1.3h2c2.3,0,3.9-0.6,4.9-1.9c0.6-0.7,0.8-2.4,0.8-5v-29.6
		c0-2.9-0.4-4.7-1.1-5.4c-1-1-2.6-1.5-4.6-1.5h-2v-1.3h19.5c5.7,0,9.9,0.4,12.6,1.1s5,2,6.9,3.9c1.9,1.9,2.8,4.2,2.8,6.8
		c0,2.8-1.1,5.3-3.2,7.3c-2.2,2.1-5.5,3.5-10,4.4l11.1,13.2c2.5,3,4.7,5,6.5,6c1.8,1,4.2,1.6,7.1,1.9V649.6z M336.6,626
		c0.5,0,0.9,0,1.3,0c0.4,0,0.7,0,0.9,0c5.1,0,9-0.9,11.6-2.8c2.6-1.9,3.9-4.3,3.9-7.2c0-2.9-1-5.2-3.1-7c-2.1-1.8-4.9-2.7-8.3-2.7
		c-1.5,0-3.6,0.2-6.2,0.6V626z"/>
	<path d="M399,648.4v1.3h-23v-1.3h1.9c2.2,0,3.8-0.6,4.8-1.7c0.6-0.7,0.9-2.5,0.9-5.2v-29.6c0-2.3-0.2-3.9-0.5-4.6
		c-0.3-0.6-0.8-1-1.6-1.5c-1.2-0.5-2.4-0.8-3.6-0.8H376v-1.3h23v1.3h-1.9c-2.2,0-3.8,0.6-4.8,1.7c-0.7,0.7-1,2.5-1,5.2v29.6
		c0,2.3,0.2,3.9,0.5,4.6c0.3,0.6,0.8,1,1.7,1.5c1.1,0.5,2.3,0.8,3.6,0.8H399z"/>
	<path d="M447.9,603.8l0.6,10.8H447c-0.3-1.9-0.7-3.2-1.2-4.1c-0.8-1.3-1.9-2.3-3.3-2.9s-3.1-0.9-5.4-0.9h-7.6v35
		c0,2.8,0.4,4.6,1.1,5.3c1,0.9,2.5,1.4,4.6,1.4h1.9v1.3h-22.7v-1.3h1.9c2.3,0,3.9-0.6,4.8-1.8c0.6-0.7,0.9-2.4,0.9-4.9v-35h-6.4
		c-2.5,0-4.3,0.2-5.3,0.5c-1.4,0.4-2.5,1.3-3.5,2.5c-1,1.2-1.6,2.9-1.7,4.9h-1.5l0.6-10.8H447.9z"/>
	<path d="M478.7,602.7c7,0,13,2.3,18.1,6.8c5.1,4.5,7.7,10.2,7.7,16.9c0,7-2.6,12.8-7.7,17.4c-5.1,4.6-11.4,6.9-18.7,6.9
		c-7.4,0-13.6-2.2-18.6-6.7c-5-4.5-7.5-10.3-7.5-17.4c0-7.3,2.9-13.2,8.7-17.8C465.6,604.7,471.6,602.7,478.7,602.7z M477.9,605.2
		c-4.8,0-8.7,1.5-11.6,4.6c-3.6,3.8-5.4,9.3-5.4,16.6c0,7.5,1.9,13.2,5.6,17.3c2.9,3.1,6.7,4.6,11.4,4.6c5,0,9.2-1.7,12.5-5
		c3.3-3.4,4.9-8.7,4.9-15.9c0-7.8-1.8-13.7-5.4-17.6C487,606.7,483,605.2,477.9,605.2z"/>
</g>
<g>
	<path d="M536.7,603.8h14.1l31.8,34.4v-26.4c0-2.8-0.4-4.6-1.1-5.3c-0.9-0.9-2.4-1.4-4.5-1.4h-1.8v-1.3h18.1v1.3h-1.8
		c-2.2,0-3.8,0.6-4.7,1.8c-0.6,0.7-0.8,2.4-0.8,4.9v38.7h-1.4l-34.2-36.9v28.2c0,2.8,0.3,4.6,1,5.3c1,0.9,2.5,1.4,4.5,1.4h1.8v1.3
		h-18.1v-1.3h1.8c2.2,0,3.8-0.6,4.7-1.8c0.6-0.7,0.8-2.4,0.8-4.9v-31.9c-1.5-1.6-2.6-2.6-3.4-3.1c-0.8-0.5-1.9-1-3.4-1.4
		c-0.7-0.2-1.9-0.3-3.4-0.3V603.8z"/>
	<path d="M630.2,634.3h-20.1l-3.5,7.2c-0.9,1.8-1.3,3.1-1.3,4c0,0.7,0.4,1.3,1.1,1.8c0.8,0.5,2.4,0.9,4.9,1v1.3H595v-1.3
		c2.2-0.3,3.6-0.8,4.2-1.3c1.3-1.1,2.7-3.3,4.3-6.6l18.3-37.7h1.3l18.1,38.2c1.5,3.1,2.8,5.1,4,6c1.2,0.9,2.8,1.4,5,1.5v1.3h-20.5
		v-1.3c2.1-0.1,3.5-0.4,4.2-0.9c0.7-0.5,1.1-1.1,1.1-1.9c0-1-0.5-2.6-1.5-4.7L630.2,634.3z M629.2,631.8l-8.8-18.5l-9,18.5H629.2z"
		/>
	<path d="M698.2,602.7l1.2,15.6h-1.2c-1.6-4.7-3.8-8-6.8-10.1c-2.9-2.1-6.5-3.1-10.6-3.1c-3.4,0-6.6,0.8-9.3,2.3
		c-2.8,1.5-5,4-6.6,7.4c-1.6,3.4-2.4,7.6-2.4,12.6c0,4.1,0.8,7.7,2.3,10.8c1.5,3,3.8,5.4,6.8,7c3,1.6,6.5,2.4,10.4,2.4
		c3.4,0,6.3-0.6,8.9-1.9c2.6-1.3,5.4-3.8,8.5-7.6l1.2,0.7c-2.6,4.1-5.6,7.1-9.1,9c-3.5,1.9-7.6,2.8-12.4,2.8c-8.6,0-15.3-2.8-20-8.5
		c-3.5-4.2-5.3-9.1-5.3-14.8c0-4.6,1.2-8.8,3.5-12.6c2.3-3.8,5.5-6.8,9.6-8.9c4.1-2.1,8.5-3.2,13.3-3.2c3.8,0,7.5,0.8,11.1,2.4
		c1.1,0.5,1.8,0.7,2.3,0.7c0.7,0,1.3-0.2,1.8-0.6c0.7-0.6,1.1-1.5,1.4-2.5H698.2z"/>
	<path d="M727.5,648.4v1.3h-22.3v-1.3h1.8c2.1,0,3.7-0.6,4.7-1.7c0.6-0.7,0.9-2.5,0.9-5.2v-29.6c0-2.3-0.2-3.9-0.5-4.6
		c-0.3-0.6-0.8-1-1.6-1.5c-1.1-0.5-2.3-0.8-3.5-0.8h-1.8v-1.3h22.3v1.3h-1.9c-2.1,0-3.7,0.6-4.6,1.7c-0.6,0.7-1,2.5-1,5.2v29.6
		c0,2.3,0.2,3.9,0.5,4.6c0.3,0.6,0.8,1,1.6,1.5c1.1,0.5,2.3,0.8,3.5,0.8H727.5z"/>
	<path d="M758.1,602.7c6.7,0,12.6,2.3,17.5,6.8c4.9,4.5,7.4,10.2,7.4,16.9c0,7-2.5,12.8-7.5,17.4c-5,4.6-11,6.9-18.1,6.9
		c-7.1,0-13.2-2.2-18-6.7c-4.9-4.5-7.3-10.3-7.3-17.4c0-7.3,2.8-13.2,8.4-17.8C745.5,604.7,751.3,602.7,758.1,602.7z M757.4,605.2
		c-4.6,0-8.4,1.5-11.2,4.6c-3.5,3.8-5.2,9.3-5.2,16.6c0,7.5,1.8,13.2,5.4,17.3c2.8,3.1,6.5,4.6,11,4.6c4.9,0,8.9-1.7,12.1-5
		c3.2-3.4,4.8-8.7,4.8-15.9c0-7.8-1.7-13.7-5.2-17.6C766.2,606.7,762.3,605.2,757.4,605.2z"/>
	<path d="M785,603.8h14.1l31.8,34.4v-26.4c0-2.8-0.4-4.6-1.1-5.3c-0.9-0.9-2.4-1.4-4.5-1.4h-1.8v-1.3h18.1v1.3h-1.8
		c-2.2,0-3.8,0.6-4.7,1.8c-0.6,0.7-0.8,2.4-0.8,4.9v38.7h-1.4l-34.2-36.9v28.2c0,2.8,0.3,4.6,1,5.3c1,0.9,2.5,1.4,4.5,1.4h1.8v1.3
		h-18.1v-1.3h1.8c2.2,0,3.8-0.6,4.7-1.8c0.6-0.7,0.8-2.4,0.8-4.9v-31.9c-1.5-1.6-2.6-2.6-3.4-3.1c-0.8-0.5-1.9-1-3.4-1.4
		c-0.7-0.2-1.9-0.3-3.4-0.3V603.8z"/>
	<path d="M878.6,634.3h-20.1l-3.5,7.2c-0.9,1.8-1.3,3.1-1.3,4c0,0.7,0.4,1.3,1.1,1.8c0.8,0.5,2.4,0.9,4.9,1v1.3h-16.4v-1.3
		c2.2-0.3,3.6-0.8,4.2-1.3c1.3-1.1,2.7-3.3,4.3-6.6l18.3-37.7h1.3l18.1,38.2c1.5,3.1,2.8,5.1,4,6c1.2,0.9,2.8,1.4,5,1.5v1.3H878
		v-1.3c2.1-0.1,3.5-0.4,4.2-0.9c0.7-0.5,1.1-1.1,1.1-1.9c0-1-0.5-2.6-1.5-4.7L878.6,634.3z M877.5,631.8l-8.8-18.5l-9,18.5H877.5z"
		/>
	<path d="M944.3,636.9l1.3,0.2l-4.4,12.4h-40.2v-1.3h2c2.2,0,3.8-0.6,4.7-1.9c0.5-0.7,0.8-2.4,0.8-5v-29.6c0-2.9-0.4-4.7-1.1-5.4
		c-1-1-2.5-1.5-4.4-1.5h-2v-1.3h23.5v1.3c-2.8,0-4.7,0.2-5.8,0.7c-1.1,0.5-1.9,1.1-2.3,1.8c-0.4,0.7-0.6,2.4-0.6,5.2v28.8
		c0,1.9,0.2,3.2,0.6,3.9c0.3,0.5,0.8,0.8,1.4,1c0.6,0.2,2.6,0.3,6,0.3h3.8c4,0,6.8-0.3,8.4-0.8s3.1-1.4,4.4-2.8
		C941.7,641.9,943,639.8,944.3,636.9z"/>
</g>
</svg>
