<?xml version="1.0" encoding="UTF-8" standalone="no"?>
<!DOCTYPE svg PUBLIC "-//W3C//DTD SVG 1.1//EN"
	"http://www.w3.org/Graphics/SVG/1.1/DTD/svg11.dtd">
<!-- Created with Inkscape (http://www.inkscape.org/) -->
<svg
   xmlns:svg="http://www.w3.org/2000/svg"
   xmlns="http://www.w3.org/2000/svg"
   xmlns:xlink="http://www.w3.org/1999/xlink"
   version="1.1"
   width="960"
   height="800"
   id="svg2">
  <defs
     id="defs4" />
  <g
     id="layer1">
    <rect
       width="960"
       height="800"
       x="0"
       y="0"
       id="rect2979"
       style="fill:#ffffff;fill-opacity:1;fill-rule:nonzero;stroke:none;stroke-width:0.5;stroke-linecap:round;stroke-linejoin:bevel;stroke-miterlimit:4;stroke-dasharray:none;stroke-dashoffset:0.99999998;stroke-opacity:1" />
    <rect
       width="960"
       height="400"
       x="0"
       y="400"
       id="rect2956"
       style="fill:#dc143c;fill-opacity:1;fill-rule:nonzero;stroke:none;stroke-width:0.5;stroke-linecap:round;stroke-linejoin:bevel;stroke-miterlimit:4;stroke-dasharray:none;stroke-dashoffset:0.99999998;stroke-opacity:1" />
    <path
       d="M 479.98047,400 L 150,400 L 150,562.5 L 479.98047,400 z M 479.98047,400 L 317.48047,729.9805 L 642.48047,729.9805 L 479.98047,400 z M 479.98047,400 L 809.96094,562.5 L 809.96094,400 L 479.98047,400 z"
       id="path2967"
       style="fill:#ffffff;fill-opacity:1;fill-rule:evenodd;stroke:none;stroke-width:1px;stroke-linecap:butt;stroke-linejoin:miter;stroke-opacity:1" />
    <path
       d="M 479.98047,400 L 150,237.5 L 150,400 L 479.98047,400 z M 479.98047,400 L 809.96094,400 L 809.96094,237.5 L 479.98047,400 z M 317.48047,70.019563 L 479.98047,400 L 642.48047,70.019563 L 317.48047,70.019563 z"
       id="path2969"
       style="fill:#dc143c;fill-opacity:1;fill-rule:evenodd;stroke:none;stroke-width:1px;stroke-linecap:butt;stroke-linejoin:miter;stroke-opacity:1" />
    <path
       d="M 197.6622,128.34317 A 46.670242,46.670242 0 1 1 104.32172,128.34317 A 46.670242,46.670242 0 1 1 197.6622,128.34317 z"
       transform="matrix(3.4926469,0,0,3.4926469,-47.361572,-48.257374)"
       id="path2880"
       style="fill:#dc143c;fill-opacity:1;fill-rule:nonzero;stroke:none;stroke-width:0.5;stroke-linecap:round;stroke-linejoin:bevel;stroke-miterlimit:4;stroke-dasharray:none;stroke-dashoffset:0.99999998;stroke-opacity:1" />
    <g
       id="g2621">
      <path
         d="M 475.70318,413.86722 C 475.44893,413.87938 475.16677,413.94797 474.92193,413.96488 C 474.78649,413.97438 474.66396,413.95394 474.5313,413.96488 C 474.49127,413.96809 474.47343,413.96153 474.43365,413.96488 C 474.32949,413.97381 474.24312,413.95509 474.14068,413.96488 C 473.93362,413.98431 473.6573,414.03966 473.45708,414.06253 C 473.23018,414.08844 473.08955,414.13003 472.87115,414.16019 C 472.65274,414.19034 472.39774,414.22363 472.18755,414.25784 C 472.16005,414.26241 472.11724,414.25322 472.0899,414.25784 C 471.91224,414.28741 471.77355,414.32313 471.60162,414.3555 C 471.57502,414.3605 471.53043,414.35044 471.50396,414.3555 C 471.33299,414.38834 471.18118,414.41763 471.01568,414.45316 C 470.50377,414.56309 470.01437,414.71047 469.55083,414.84378 C 469.37383,414.89406 469.23302,414.88809 469.06255,414.94144 C 468.89208,414.99478 468.73849,415.0805 468.57427,415.13675 C 468.25115,415.24831 467.89858,415.40559 467.59771,415.52738 C 467.39927,415.60738 467.20127,415.63869 467.01177,415.72269 C 466.75637,415.83634 466.47127,415.99331 466.23052,416.11331 C 466.12124,416.16813 466.04402,416.25263 465.93755,416.30863 C 465.87905,416.33934 465.79993,416.37525 465.74224,416.40628 C 465.67674,416.44172 465.61143,416.46809 465.54693,416.50394 C 465.29249,416.64572 465.00602,416.74738 464.76568,416.89456 C 464.6284,416.97819 464.50824,417.10247 464.37505,417.18753 C 464.35112,417.20288 464.30121,417.17216 464.2774,417.18753 C 464.24205,417.21028 464.2148,417.26234 464.17974,417.28519 C 464.14558,417.3075 464.11599,417.36047 464.08208,417.38284 C 463.90887,417.49772 463.66362,417.65691 463.49615,417.77347 C 463.45846,417.79972 463.43593,417.84481 463.39849,417.87113 C 463.3303,417.91909 463.27055,417.92066 463.20318,417.96878 C 463.06974,418.06384 462.9433,418.16622 462.81255,418.26175 C 462.72671,418.32466 462.60443,418.39406 462.51958,418.45706 C 462.23971,418.66438 462.01146,418.83688 461.73833,419.043 C 461.70105,419.07125 461.6779,419.11247 461.64068,419.14066 C 461.6079,419.16541 461.57577,419.21363 461.54302,419.23831 C 461.37037,419.36909 461.1293,419.5 460.95708,419.62894 C 460.92224,419.65491 460.89427,419.70072 460.85943,419.72659 C 460.79615,419.77375 460.72752,419.77744 460.66412,419.82425 C 460.62921,419.84994 460.6014,419.89631 460.56646,419.92191 C 460.13658,420.23741 459.74643,420.50972 459.29693,420.80081 C 459.22268,420.84916 459.17671,420.94863 459.10162,420.99613 C 459.04721,421.03059 458.96121,421.05978 458.9063,421.09378 C 458.88205,421.10859 458.83299,421.07906 458.80865,421.09378 C 458.7259,421.14441 458.69733,421.23963 458.61333,421.28909 C 458.39121,421.41894 458.06455,421.55891 457.83208,421.67972 C 457.73774,421.72841 457.63546,421.73034 457.53912,421.77738 C 457.4789,421.80678 457.50252,421.84631 457.44146,421.87503 C 457.38799,421.90038 457.30027,421.94788 457.24615,421.97269 C 457.18421,422.00072 457.11368,422.04303 457.05083,422.07034 C 456.8578,422.15431 456.56946,422.18884 456.36724,422.26566 C 456.32749,422.28047 456.30971,422.34878 456.26958,422.36331 C 456.21099,422.38463 456.13368,422.44028 456.07427,422.46097 C 455.96099,422.49994 455.80012,422.52206 455.68365,422.55863 C 455.37793,422.65553 455.03671,422.77241 454.70708,422.85159 C 454.63171,422.86953 454.58849,422.83466 454.51177,422.85159 C 454.3839,422.87984 454.25296,422.92381 454.12115,422.94925 C 453.98296,422.97631 453.87318,423.02306 453.73052,423.04691 C 453.67615,423.05591 453.59024,423.03838 453.53521,423.04691 C 453.39024,423.06909 453.19668,423.12575 453.04693,423.14456 C 452.87552,423.16572 452.73665,423.128 452.55865,423.14456 C 452.35233,423.16494 452.1883,423.22834 451.97271,423.24222 C 451.78783,423.254 451.57887,423.23538 451.38677,423.24222 C 451.41027,423.62684 451.46696,424.04125 451.48443,424.41409 C 451.48577,424.44278 451.48312,424.48313 451.48443,424.51175 C 451.49083,424.67547 451.47952,424.83844 451.48443,425 C 451.48571,425.03294 451.48318,425.06484 451.48443,425.09769 C 452.40908,449.56166 440.32277,448.76916 442.79302,488.28128 C 449.02302,488.854 455.44243,488.84684 459.5899,488.76956 C 445.72915,463.39313 468.88137,450.52041 467.10943,433.20316 C 479.83996,433.24238 478.20202,422.3245 492.59771,423.7305 L 480.97662,413.96488 C 480.91474,413.96075 480.84268,413.96881 480.7813,413.96488 C 480.62277,413.95481 480.44874,413.97347 480.29302,413.96488 C 480.01155,413.94934 479.78418,413.87806 479.51177,413.86722 C 479.42252,413.86366 479.30712,413.87028 479.2188,413.86722 C 479.13315,413.86381 479.01052,413.87019 478.92583,413.86722 C 478.6604,413.85944 478.4014,413.87056 478.14458,413.86722 C 478.10818,413.8665 478.08318,413.86784 478.04693,413.86722 C 477.97587,413.86641 477.92205,413.86769 477.85162,413.86722 C 477.77983,413.86631 477.72743,413.86775 477.6563,413.86722 C 477.27255,413.8665 476.94674,413.85816 476.58208,413.86722 C 476.54805,413.86791 476.5183,413.86644 476.48443,413.86722 C 476.41843,413.86903 476.35449,413.86509 476.28912,413.86722 C 476.2219,413.86916 476.16049,413.86488 476.0938,413.86722 C 475.96427,413.87206 475.8303,413.86113 475.70318,413.86722 z"
         id="path2741"
         style="fill:#ffffff;fill-opacity:1;fill-rule:evenodd;stroke:#000000;stroke-width:1.5625;stroke-linecap:butt;stroke-linejoin:bevel;stroke-miterlimit:4;stroke-dasharray:none;stroke-opacity:1" />
      <path
         d="M 507.83208,439.3555 C 489.94058,457.17488 488.52258,475.93678 485.4688,494.62894 C 496.06299,499.59641 505.99977,502.66594 515.8399,505.37113 C 515.57743,505.18706 515.32424,504.97309 515.05865,504.78519 C 512.7224,500.42681 516.18512,492.80275 514.57037,486.32816 C 504.18352,484.19209 508.5244,467.29941 516.32818,446.97269 C 516.33849,446.94581 516.31787,446.90191 516.32818,446.87503 C 514.74255,445.00497 512.52312,442.77828 507.83208,439.3555 z"
         id="path2729"
         style="fill:#ffffff;fill-opacity:1;fill-rule:evenodd;stroke:#000000;stroke-width:1.5625;stroke-linecap:butt;stroke-linejoin:miter;stroke-miterlimit:4;stroke-dasharray:none;stroke-opacity:1" />
      <path
         d="M 519.3819,439.35631 C 509.87549,462.92356 502.88943,483.97044 514.55187,486.36881 C 516.16662,492.84344 512.75449,500.424 515.09074,504.78238 C 556.6128,534.158 559.64571,516.43984 564.25662,490.22069 C 563.40715,482.86331 559.17071,476.0665 548.68421,473.48869 C 561.79965,461.56019 532.28718,452.87834 519.3819,439.35631 z"
         id="path1852"
         style="fill:#ffffff;fill-opacity:1;fill-rule:evenodd;stroke:#000000;stroke-width:1.5625;stroke-linecap:butt;stroke-linejoin:bevel;stroke-miterlimit:4;stroke-dasharray:none;stroke-opacity:1" />
      <path
         d="M 170.55136,151.18147 A 1.5308958,1.5308958 0 1 1 167.48957,151.18147 A 1.5308958,1.5308958 0 1 1 170.55136,151.18147 z"
         transform="matrix(3.9123031,0,0,3.9123031,-132.75767,-119.02553)"
         id="path1854"
         style="fill:none;fill-opacity:1;fill-rule:nonzero;stroke:#000000;stroke-width:0.7987622;stroke-linecap:round;stroke-linejoin:miter;stroke-miterlimit:4;stroke-dasharray:none;stroke-dashoffset:0.99999998;stroke-opacity:1" />
      <path
         d="M 467.50005,400.97659 C 461.7073,401.8415 456.50133,404.67659 451.67974,407.81253 C 446.95293,410.80331 441.10049,411.72319 435.56646,411.03519 C 437.30571,419.45009 436.18802,428.14156 433.57927,436.28616 C 428.73205,451.56681 420.61605,466.23266 420.33208,482.61722 C 419.09049,487.04541 424.2408,486.91581 427.18427,488.35344 C 432.14646,490.17872 437.71293,490.81466 442.79302,489.06253 C 441.80721,475.39903 442.38665,461.31766 447.42755,448.41681 C 450.56399,440.4325 452.10696,431.81631 451.38677,423.24222 C 456.38405,423.37559 460.39721,420.11359 464.18615,417.3025 C 469.60887,413.67056 476.46268,413.57369 482.73443,414.16019 C 477.6563,409.76566 472.57818,405.37113 467.50005,400.97659 z"
         id="path2734"
         style="fill:#ffffff;fill-opacity:1;fill-rule:evenodd;stroke:#000000;stroke-width:1.5625;stroke-linecap:butt;stroke-linejoin:miter;stroke-miterlimit:4;stroke-dasharray:none;stroke-opacity:1" />
      <path
         d="M 142.56467,134.00674 A 0.59800619,0.59800619 0 1 1 141.36865,134.00674 A 0.59800619,0.59800619 0 1 1 142.56467,134.00674 z"
         transform="matrix(6.25,0,0,6.25,-443.33338,-418.77091)"
         id="path2736"
         style="fill:#000000;fill-opacity:1;fill-rule:nonzero;stroke:none;stroke-width:1;stroke-linecap:round;stroke-linejoin:miter;stroke-miterlimit:4;stroke-dasharray:none;stroke-dashoffset:0.99999998;stroke-opacity:1" />
      <use
         transform="translate(16.071416,9.7176)"
         id="use2738"
         x="0"
         y="0"
         width="307"
         height="256"
         xlink:href="#path2736" />
      <path
         d="M 489.37505,423.53519 C 489.05115,423.54384 488.70068,423.60569 488.39849,423.63284 C 478.37715,424.53356 478.44755,433.23809 467.10943,433.20316 C 468.86958,450.40541 446.01383,463.23759 459.29693,488.28128 C 467.87458,490.49725 474.87958,493.06088 485.66412,493.26175 C 488.53012,475.31253 490.36305,457.371 507.05083,440.23441 C 507.04355,440.1995 507.05846,440.1715 507.05083,440.13675 C 505.55637,433.32459 497.59849,429.51956 491.62115,423.63284 C 490.81405,423.58316 490.08765,423.51613 489.37505,423.53519 z"
         id="path2749"
         style="fill:#ffffff;fill-opacity:1;fill-rule:evenodd;stroke:#000000;stroke-width:1.5625;stroke-linecap:butt;stroke-linejoin:miter;stroke-miterlimit:4;stroke-dasharray:none;stroke-opacity:1" />
      <path
         d="M 426.67974,379.88284 C 414.75343,380.29772 402.56877,386.81328 393.47662,404.68753 C 382.9403,425.40091 370.34724,456.82072 419.8438,488.76956 L 420.33208,488.28128 C 418.88246,456.86919 440.90774,438.42047 435.56646,411.03519 C 451.6188,412.59709 452.37049,403.96425 466.52349,401.17191 C 461.5364,392.20522 444.44749,379.26475 426.67974,379.88284 z"
         id="path2757"
         style="fill:#ffffff;fill-opacity:1;fill-rule:evenodd;stroke:#000000;stroke-width:1.5625;stroke-linecap:butt;stroke-linejoin:miter;stroke-miterlimit:4;stroke-dasharray:none;stroke-opacity:1" />
      <path
         d="M 409.00396,382.12894 C 398.5569,382.85622 396.42458,392.61869 390.8399,399.12113 C 382.32765,409.03228 367.60024,427.46906 384.10162,442.18753 C 382.50915,427.88444 388.24962,414.96331 393.47662,404.68753 C 399.47887,392.88772 406.83671,386.02938 414.57037,382.61722 C 412.46752,382.23813 410.64855,382.01444 409.00396,382.12894 z"
         id="path2762"
         style="fill:#ffffff;fill-opacity:1;fill-rule:evenodd;stroke:#000000;stroke-width:1.5625;stroke-linecap:butt;stroke-linejoin:miter;stroke-miterlimit:4;stroke-dasharray:none;stroke-opacity:1" />
      <path
         d="M 536.25005,447.65628 L 534.39458,450.78128 C 546.46974,458.57253 557.69796,465.30825 548.6524,473.53519 C 555.45224,475.20675 559.60912,478.5905 561.93365,482.81253 C 565.51237,476.85244 568.41877,470.38422 570.72271,463.57425 C 562.11908,458.35175 555.34015,453.49566 536.25005,447.65628 z"
         id="path2767"
         style="fill:#d9d9d9;fill-opacity:1;fill-rule:evenodd;stroke:#000000;stroke-width:1.5625;stroke-linecap:butt;stroke-linejoin:miter;stroke-miterlimit:4;stroke-dasharray:none;stroke-opacity:1" />
      <path
         d="M 574.82427,393.94534 C 568.91212,392.449 564.25402,390.56919 561.05474,388.28128 C 548.41368,403.92284 543.09224,426.80178 535.76177,447.75394 L 536.05474,447.94925 L 536.25005,447.65628 C 543.6393,449.91653 548.1363,451.96006 552.6563,454.00394 C 555.36977,445.90738 558.19971,437.77422 561.73833,428.02738 C 565.18093,418.545 569.69827,406.7945 574.82427,393.94534 z"
         id="path2784"
         style="fill:#ffffff;fill-opacity:1;fill-rule:evenodd;stroke:#000000;stroke-width:1.5625;stroke-linecap:butt;stroke-linejoin:miter;stroke-miterlimit:4;stroke-dasharray:none;stroke-opacity:1" />
      <path
         d="M 574.82427,393.94534 C 569.69827,406.7945 565.18093,418.545 561.73833,428.02738 C 558.19971,437.77422 555.36977,445.90738 552.6563,454.00394 C 559.81371,457.24044 565.4493,460.37322 570.72271,463.57425 C 570.66021,463.75897 570.59077,463.976 570.5274,464.16019 L 570.72271,464.16019 C 580.86327,442.564 582.00046,419.16116 582.83208,395.70316 C 579.49471,395.29203 577.34402,394.58306 574.82427,393.94534 z"
         id="path2776"
         style="fill:#ffffff;fill-opacity:1;fill-rule:evenodd;stroke:#000000;stroke-width:1.5625;stroke-linecap:butt;stroke-linejoin:miter;stroke-miterlimit:4;stroke-dasharray:none;stroke-opacity:1" />
      <path
         d="M 561.93365,320.99613 C 562.72321,327.52272 562.43962,334.38231 559.46305,340.36847 C 556.58858,346.45081 551.96308,351.51791 546.89458,355.85941 C 552.97215,362.62531 559.64146,369.73244 561.25199,379.04472 C 562.96455,382.45719 559.78349,388.0795 563.64952,389.81097 C 569.31893,392.79009 575.62515,394.31434 581.85552,395.6055 C 583.95646,394.61644 582.98777,391.28716 584.16749,389.42425 C 587.68227,378.10484 594.23433,367.88403 596.84505,356.26694 C 597.8008,352.14553 597.33127,346.73869 592.95693,344.78322 C 590.66099,344.15731 589.19112,343.58741 590.14843,340.92713 C 590.5944,337.33216 588.59283,333.38178 584.82352,332.62775 C 582.39133,331.31963 577.79637,333.73247 578.39171,329.73869 C 577.77333,326.31647 574.3258,322.97916 570.68827,324.42481 C 568.53374,325.14319 566.57218,328.23916 565.45599,324.62572 C 564.69021,323.06747 563.63552,321.60494 561.93365,320.99613 z"
         id="path2797"
         style="fill:#f2b39d;fill-opacity:1;fill-rule:evenodd;stroke:#000000;stroke-width:1.5625;stroke-linecap:butt;stroke-linejoin:miter;stroke-miterlimit:4;stroke-dasharray:none;stroke-opacity:1" />
      <path
         d="M 564.10587,364.70903 C 563.1443,371.97388 569.46499,375.45791 567.9354,381.72922"
         id="path2808"
         style="fill:none;fill-opacity:0.75;fill-rule:evenodd;stroke:#000000;stroke-width:1.5625;stroke-linecap:round;stroke-linejoin:miter;stroke-miterlimit:4;stroke-dasharray:none;stroke-opacity:1" />
      <path
         d="M 600.3859,357.34963 C 598.2404,361.85756 605.29505,369.45925 608.01662,360.29947 C 608.05046,361.86819 605.89387,365.1335 604.24427,364.92744 C 601.7958,364.59763 599.87902,362.84434 597.9508,361.44747 C 597.16593,361.07828 595.7708,359.09422 595.64696,360.83544 C 594.66808,363.89278 593.46652,366.87325 592.20708,369.82425 C 595.9943,372.37847 600.67483,374.00403 605.27152,373.24647 C 609.46402,372.55244 612.81205,369.01238 613.71552,364.92663 C 614.49224,361.78534 613.73274,358.12934 611.14599,355.93813 C 607.16308,352.56422 601.95983,354.04263 600.3859,357.34963 z"
         id="path2810"
         style="fill:#ffff00;fill-opacity:1;fill-rule:evenodd;stroke:#000000;stroke-width:1.5625;stroke-linecap:butt;stroke-linejoin:miter;stroke-miterlimit:4;stroke-dasharray:none;stroke-opacity:1" />
      <path
         d="M 443.86724,309.37503 C 415.58396,310.07209 388.66971,317.61525 367.69537,338.37894 L 423.45708,349.21878 C 449.96002,329.68391 494.46118,329.48003 539.37505,342.08988 C 539.41621,339.82003 539.4129,337.49647 539.76568,335.25394 C 540.35868,331.35781 542.5204,328.18241 545.13677,325.39066 C 514.89687,317.78719 478.38283,308.52438 443.86724,309.37503 z"
         id="path2819"
         style="fill:#ffffff;fill-opacity:1;fill-rule:evenodd;stroke:#000000;stroke-width:1.5625;stroke-linecap:butt;stroke-linejoin:miter;stroke-miterlimit:4;stroke-dasharray:none;stroke-opacity:1" />
      <path
         d="M 179.99532,107.92674 A 4.3533869,2.277102 0 1 1 171.28855,107.92674 A 4.3533869,2.277102 0 1 1 179.99532,107.92674 z"
         transform="matrix(0.9865812,-2.9651781,2.9651781,0.9865812,56.428584,751.06066)"
         id="path2825"
         style="fill:#ffffff;fill-opacity:1;fill-rule:nonzero;stroke:none;stroke-width:1;stroke-linecap:round;stroke-linejoin:bevel;stroke-miterlimit:4;stroke-dasharray:none;stroke-dashoffset:0.99999998;stroke-opacity:1" />
      <path
         d="M 429.26699,329.50475 C 477.91487,315.48684 525.5344,332.88219 555.69565,337.63231"
         id="path2828"
         style="fill:none;fill-opacity:0.75;fill-rule:evenodd;stroke:#7f7f7f;stroke-width:1.5625;stroke-linecap:butt;stroke-linejoin:miter;stroke-miterlimit:4;stroke-dasharray:none;stroke-opacity:1" />
      <path
         d="M 556.75787,297.55863 C 553.17943,297.67857 549.39949,300.31521 549.49083,304.18947 C 549.29427,307.28508 551.40299,310.74874 554.70708,310.93753 C 557.22233,310.94657 558.18724,308.12375 558.12983,304.21767 C 558.6213,310.88476 554.56346,317.16697 549.99815,320.89331 C 545.46171,324.69206 540.7459,329.1255 539.8088,335.28234 C 538.89552,341.08797 539.7689,347.04747 538.58502,352.83788 C 538.01521,356.53228 535.4168,359.61797 535.43018,363.45616 C 534.89155,367.81541 535.30302,373.29816 539.47383,375.80622 C 542.74665,377.80488 548.21874,377.29388 549.89127,373.45828 C 551.16802,370.44631 548.77618,365.73753 545.11187,367.56997 C 542.99602,367.64888 541.83349,373.61775 542.3144,369.70203 C 542.60833,365.45678 542.05352,360.33034 545.42974,357.12894 C 553.39521,350.66275 560.70287,342.17253 562.00796,331.63025 C 562.69318,327.67334 562.05862,323.56828 561.89118,319.6865 C 564.36252,314.07788 566.37955,307.15916 563.36402,301.36314 C 562.08199,298.99477 559.47993,297.38893 556.75787,297.55863 z M 553.73052,328.90628 C 556.21058,333.65216 554.14718,339.27241 550.6978,342.92744 C 549.27524,344.32597 546.22171,347.99825 545.39087,347.30328 C 545.70946,342.00053 545.15162,335.75766 549.44993,331.80028 C 550.69437,330.59503 552.17637,329.65872 553.73052,328.90628 z"
         id="path2791"
         style="fill:#ffff00;fill-opacity:1;fill-rule:evenodd;stroke:#000000;stroke-width:1.5625;stroke-linecap:butt;stroke-linejoin:miter;stroke-miterlimit:4;stroke-dasharray:none;stroke-opacity:1" />
      <path
         d="M 418.52587,388.79028 C 416.21737,392.81494 422.80518,394.99872 428.51218,394.8105 C 434.43987,394.615 437.47962,397.17738 441.42058,398.47269 C 449.77274,401.21788 450.35368,402.81756 452.20971,400.79641 C 460.03283,392.27725 422.00887,382.718 418.52587,388.79028 z"
         id="path2830"
         style="fill:#d9d9d9;fill-opacity:1;fill-rule:evenodd;stroke:none;stroke-width:0.5;stroke-linecap:butt;stroke-linejoin:miter;stroke-miterlimit:4;stroke-dasharray:none;stroke-opacity:1" />
      <path
         d="M 391.17858,431.47872 C 387.67268,447.11425 397.43262,460.85469 412.5228,473.83366 C 413.93987,466.72963 414.6753,458.5545 417.19187,452.15597 C 405.69499,448.98869 400.14715,442.3135 398.00671,433.04969 L 391.17858,431.47872 z"
         id="path2832"
         style="fill:#d9d9d9;fill-opacity:1;fill-rule:evenodd;stroke:none;stroke-width:0.5;stroke-linecap:butt;stroke-linejoin:miter;stroke-miterlimit:4;stroke-dasharray:none;stroke-opacity:1" />
      <path
         d="M 429.1283,460.36166 C 428.37524,465.29897 428.29805,469.38338 425.56121,473.86566 C 429.21324,474.66131 432.86524,475.41913 436.51727,474.88484 C 434.95424,471.92941 436.50774,467.41569 437.53646,463.16438 L 429.1283,460.36166 z"
         id="path2838"
         style="fill:#d9d9d9;fill-opacity:1;fill-rule:evenodd;stroke:none;stroke-width:0.5;stroke-linecap:butt;stroke-linejoin:miter;stroke-miterlimit:4;stroke-dasharray:none;stroke-opacity:1" />
      <rect
         width="7.8985667"
         height="12.739624"
         x="445.18021"
         y="465.71228"
         id="rect2840"
         style="fill:#d9d9d9;fill-opacity:1;fill-rule:nonzero;stroke:none;stroke-width:1;stroke-linecap:round;stroke-linejoin:bevel;stroke-miterlimit:4;stroke-dasharray:none;stroke-dashoffset:0.99999998;stroke-opacity:1" />
      <path
         d="M 460.21296,467.49584 C 468.6739,470.69106 474.42015,472.19078 482.12512,472.33691 L 481.61555,484.56694 C 458.10549,482.18625 459.99508,475.61475 460.21296,467.49584 z"
         id="path2842"
         style="fill:#d9d9d9;fill-opacity:1;fill-rule:evenodd;stroke:none;stroke-width:0.5;stroke-linecap:butt;stroke-linejoin:miter;stroke-miterlimit:4;stroke-dasharray:none;stroke-opacity:1" />
      <path
         d="M 492.68437,475.66219 L 491.21812,487.09906 L 503.53474,487.68556 L 503.53474,478.59472 L 492.68437,475.66219 z"
         id="path2844"
         style="fill:#d9d9d9;fill-opacity:1;fill-rule:evenodd;stroke:none;stroke-width:0.5;stroke-linecap:butt;stroke-linejoin:miter;stroke-miterlimit:4;stroke-dasharray:none;stroke-opacity:1" />
      <path
         d="M 522.00968,490.91134 C 528.79427,487.54181 538.21674,507.75472 542.11574,506.58009 C 550.17268,504.15288 541.9903,482.69366 553.09449,485.04628 C 560.39887,486.59384 556.07043,513.69338 546.36724,515.05222 C 535.08721,516.63188 513.26465,495.25453 522.00968,490.91134 z"
         id="path2848"
         style="fill:#d9d9d9;fill-opacity:1;fill-rule:evenodd;stroke:none;stroke-width:0.5;stroke-linecap:butt;stroke-linejoin:miter;stroke-miterlimit:4;stroke-dasharray:none;stroke-opacity:1" />
      <path
         d="M 561.34771,393.06644 C 550.97543,408.53006 544.62127,428.68744 540.64458,445.50784 C 544.10643,446.49994 552.76105,453.48772 552.26568,445.41019 C 557.71899,428.70613 564.57812,412.49209 570.33208,395.89847 C 567.26846,395.61775 563.91671,392.52669 561.34771,393.06644 z"
         id="path2852"
         style="fill:#d9d9d9;fill-opacity:1;fill-rule:evenodd;stroke:none;stroke-width:0.5;stroke-linecap:butt;stroke-linejoin:miter;stroke-miterlimit:4;stroke-dasharray:none;stroke-opacity:1" />
      <path
         d="M 577.16802,397.85159 C 569.07502,414.99866 563.03527,433.93525 556.56255,452.05081 C 561.10137,452.36134 566.51946,461.52713 570.33208,457.42191 C 577.47387,438.65072 579.09471,417.89406 579.41412,398.04691 C 578.66708,398.00913 577.9044,397.53444 577.16802,397.85159 z"
         id="path2858"
         style="fill:#d9d9d9;fill-opacity:1;fill-rule:evenodd;stroke:none;stroke-width:0.5;stroke-linecap:butt;stroke-linejoin:miter;stroke-miterlimit:4;stroke-dasharray:none;stroke-opacity:1" />
      <path
         d="M 169.0039,151.26244 A 0.97521007,0.97521007 0 1 1 167.05348,151.26244 A 0.97521007,0.97521007 0 1 1 169.0039,151.26244 z"
         transform="matrix(3.125,0,0,3.125,3.4119719,-0.2528946)"
         id="path2864"
         style="fill:#000000;fill-opacity:1;fill-rule:nonzero;stroke:none;stroke-width:1;stroke-linecap:round;stroke-linejoin:bevel;stroke-miterlimit:4;stroke-dasharray:none;stroke-dashoffset:0.99999998;stroke-opacity:1" />
      <path
         d="M 581.75787,393.16409 C 583.78046,377.99375 597.3468,364.63872 595.03912,348.92581 C 591.5453,345.39831 586.38346,343.98656 588.30083,337.59769 C 586.73771,331.02997 575.76174,336.85684 576.58208,329.00394 C 574.8444,323.78509 569.99346,326.31756 566.7188,327.92972"
         id="path2866"
         style="fill:none;fill-opacity:1;fill-rule:evenodd;stroke:#fadacf;stroke-width:1.5625;stroke-linecap:butt;stroke-linejoin:miter;stroke-miterlimit:4;stroke-dasharray:none;stroke-opacity:1" />
    </g>
  </g>
</svg>
