<svg xmlns="http://www.w3.org/2000/svg" width="900" height="600" viewBox="0 0 238.12499452 158.75000449">
  <path style="opacity:1;fill:#fff;fill-opacity:1;stroke:none;stroke-width:1.5874999762;stroke-linecap:round;stroke-linejoin:round;stroke-miterlimit:4;stroke-dasharray:none;stroke-opacity:1;paint-order:normal" d="M-195.41369629 177.55950928h238.125v158.75h-238.125z" transform="translate(195.41369629 -177.55950886)"/>
  <path style="opacity:1;fill:#0050bc;fill-opacity:1;stroke:none;stroke-width:1.5875000954;stroke-linecap:round;stroke-linejoin:round;stroke-miterlimit:4;stroke-dasharray:none;stroke-opacity:1;paint-order:normal" d="M-195.41369629 311.50473022h238.125v24.8046875h-238.125z" transform="translate(195.41369629 -177.55950886)"/>
  <path d="m-76.3511992 192.93840042-15.11122237 15.11122237h-21.3713054v21.3713054l-15.11122237 15.11122236 15.11122237 15.11122237v21.37078864h21.37078863l15.11173914 15.11173913 15.11173913-15.11173913h21.37078863v-21.37078864l15.11122237-15.11122237-15.11122237-15.11122237V208.0496228h-21.3713054Zm0 4.86481935 13.68650313 13.68598636h19.3564413v19.3564413l13.68598635 13.68650312-13.68598636 13.68650313v19.35592453H-62.6641793l-13.6870199 13.68650313-13.68701988-13.68650313h-19.35592453v-19.35592453L-123.08013 244.53215055l13.68598637-13.68650312v-19.3564413h19.35644129z" style="opacity:1;fill:#ffc72c;fill-opacity:1;stroke:none;stroke-width:.0264583342;stroke-linecap:round;stroke-linejoin:round;stroke-miterlimit:4;stroke-dasharray:none;stroke-opacity:1;paint-order:normal" transform="translate(195.41369629 -177.55950886)"/>
  <g style="stroke-width:.8883710504" transform="matrix(1.12566 0 0 1.12566 -224.71813784 -737.91812442)">
    <circle style="opacity:1;fill:#fff;fill-opacity:1;stroke:none;stroke-width:6.1112523079;stroke-linecap:round;stroke-linejoin:miter;stroke-miterlimit:4;stroke-dasharray:none;stroke-opacity:1;paint-order:normal" cx="305.40475464" cy="715.04162598" r="26.29875183"/>
    <path d="M315.76741605 690.86517882c9.3706487 4.0230971 15.93608267 13.33424305 15.93608267 24.17647495 0 14.5228181-11.77710612 26.29874008-26.29874008 26.29874008-6.5014907 0-12.45176678-2.36187476-17.04236037-6.27236067 2.83996908 1.21791198 5.94317127 1.95370358 9.2122707 2.0963918 14.50860849.63348237 26.78926782-10.61872651 27.42129964-25.12792706.36779219-8.4236371-3.27146771-16.09505273-9.22825653-21.17291768z" style="fill:#ffc72c;fill-opacity:1;stroke-width:.23504816"/>
    <g style="fill:#ffc72c;fill-opacity:1;stroke-width:.8883710504">
      <path d="m558.57128906 241.3734746-1.1381745-3.50294146-3.68321056 1.7e-7 2.97978003-2.16493672-1.1381748-3.50294135 2.97977983 2.16493698 2.97977984-2.16493698-1.1381748 3.50294135 2.97978002 2.16493672-3.68321055-1.7e-7zM571.93572998 234.77784777l-1.1381745-3.50294146-3.68321056 1.7e-7 2.97978003-2.16493672-1.13817481-3.50294135 2.97977984 2.16493697 2.97977984-2.16493697-1.1381748 3.50294135 2.97978002 2.16493672-3.68321056-1.7e-7zM558.57128906 227.85362291l-1.1381745-3.50294145-3.68321056 1.6e-7 2.97978003-2.16493671-1.1381748-3.50294136 2.97977983 2.16493698 2.97977984-2.16493698-1.1381748 3.50294136 2.97978002 2.16493671-3.68321055-1.6e-7zM558.57128906 254.89334154l-1.1381745-3.50294145-3.68321056 1.6e-7 2.97978003-2.16493672-1.1381748-3.50294135 2.97977983 2.16493698 2.97977984-2.16493698-1.1381748 3.50294135 2.97978002 2.16493672-3.68321055-1.6e-7zM545.20684814 247.96911669l-1.1381745-3.50294146-3.68321056 1.7e-7 2.97978003-2.16493672-1.1381748-3.50294135 2.97977983 2.16493698 2.97977985-2.16493698-1.13817482 3.50294135 2.97978004 2.16493672-3.68321056-1.7e-7z" style="opacity:1;fill:#ffc72c;fill-opacity:1;stroke:none;stroke-width:6.1112523079;stroke-linecap:round;stroke-linejoin:miter;stroke-miterlimit:4;stroke-dasharray:none;stroke-opacity:1;paint-order:normal" transform="translate(-261.18401082 472.69588522)"/>
    </g>
  </g>
</svg>
