<svg height="600" preserveAspectRatio="xMidYMid meet" viewBox="-15 -7.5 30 15" width="1200" xmlns="http://www.w3.org/2000/svg" xmlns:xlink="http://www.w3.org/1999/xlink" zoomAndPan="magnify"><clipPath id="a"><path d="m-15-7.5h30v15h-30z"/></clipPath><path d="m-15-7.5h30v15h-30z" fill="#00247d"/><g clip-path="url(#a)" transform="matrix(.5 0 0 .5 -7.5 -3.75)"><circle fill="#00247d" r="20"/><path d="m-20-10 40 20m-40 0 40-20" stroke="#fff" stroke-width="3"/><path d="m-20-10 40 20m-40 0 40-20" stroke="#cf142b" stroke-width="2"/><path d="m0 0 20 10h-3l-20-10m3 0 20-10h3l-20 10m-3 0-20 10h-3l20-10m3 0-20-10h3l20 10" fill="#fff"/><path d="m-20 0h40m-20-10v20" stroke="#fff" stroke-width="5"/><path d="m-20 0h40m-20-10v20" stroke="#cf142b" stroke-width="3"/></g><g transform="matrix(.025 0 0 .025 4.99375 -3.607445)"><path d="m250.24994 144.23746a149.99996 149.99996 0 1 1 -.005-1.18905" fill="#fff" stroke-width=".904412"/><g transform="matrix(.49744368 0 0 .53582785 -440.699993 -362.139886)"><path d="m1078.8429 808.64283c-9.0021.10633-18.0042.28353-26.9354.85059-6.5921.49618-14.1057 1.06324-20.5205 1.98471l-1.6303.28354c-4.0403.77971-4.6074 5.59972-2.4809 8.22238 4.3238 5.42252 29.9479 9.64004 60.2148 9.64004 30.2314 0 55.8555-4.21752 60.1793-9.64004 2.1265-2.62266 1.5594-7.44267-2.4809-8.22238l-1.6303-.28354c-6.3794-.92147-13.9284-1.48853-20.5205-1.98471-8.9312-.56706-17.9333-.74426-26.9354-.85059h-8.6122z" fill="#fff"/><path d="m1093.4801 813.81727c-2.2328-.35442-4.2884-.81515-6.2376-1.31134-1.7012-.46073-3.2961-.95691-4.8555-1.48853.4608.74427 1.1341 1.48853 2.7644 2.0556-1.3113-.0354-3.0479.46073-3.6859.74427.638.24809 2.4455.74426 3.7568.70882-1.5948.56706-2.1973 1.31133-2.5518 2.0556 1.3823-.49618 2.8708-.95692 4.4302-1.38221 1.9847-.53162 4.0758-.99236 6.3794-1.38221z"/><path d="m1069.9471 813.92358c-2.2328-.28352-4.2884-.67337-6.2377-1.13411-1.7366-.38986-3.3669-.8506-4.8909-1.34677.4253.74426 1.1342 1.45309 2.7999 1.98471-1.3468 0-3.0479.56706-3.6504.8506.6379.24808 2.4454.67337 3.7567.6025-1.5594.6025-2.1619 1.38221-2.5163 2.12647 1.3822-.53161 2.8353-1.06324 4.3947-1.52397 1.9847-.6025 4.0758-1.09869 6.344-1.55943z"/><path d="m1046.5913 815.05771c-2.2328-.14177-4.3593-.38985-6.344-.70883-1.7366-.28352-3.4024-.6025-4.9618-.99235.4962.70883 1.2405 1.38221 2.9416 1.77206-1.3113.10633-2.977.77971-3.5795 1.09868.6734.17721 2.4809.49618 3.7922.35442-1.524.70883-2.0556 1.52398-2.3391 2.30368 1.3467-.63794 2.7644-1.27589 4.2884-1.84294 1.9138-.74427 3.9694-1.41766 6.2022-1.98472z"/><path d="m1117.0132 814.27801c-2.2328.31896-4.3239.67337-6.2731 1.13411-1.7367.38986-3.367.8506-4.8909 1.38221.4607-.74426 1.1341-1.48854 2.7998-1.98471-1.3113-.0354-3.0479-.56706-3.6504-.85059.6379-.24809 2.4454-.67339 3.7568-.63795-1.5595-.6025-2.162-1.34676-2.4809-2.12647 1.3822.56706 2.8353 1.06324 4.3947 1.55941 1.9493.56706 4.0403 1.09869 6.344 1.52399z"/><path d="m1140.2981 816.22727c-2.2328.14177-4.3238.35442-6.3085.67339-1.7367.28353-3.4024.63794-4.9973 1.02779.5317-.70882 1.2759-1.38221 2.9771-1.77206-1.3468-.10632-3.0125-.77971-3.615-1.09868.6734-.21265 2.4809-.53162 3.8277-.35442-1.524-.70882-2.0911-1.52397-2.3746-2.30368 1.3468.63795 2.7644 1.24045 4.2884 1.84295 1.9138.70882 3.9694 1.38221 6.2022 1.98471z"/><path d="m1087.4906 818.92082c-36.0793 0-57.9466 2.09103-56.1391 3.68589 12.6526 5.28076 37.5678 6.98194 56.1391 7.01738 18.5358-.0354 43.451-1.73662 56.1036-7.01738 1.8075-1.59486-20.0598-3.68589-56.1036-3.68589z" fill="#ccc"/><g fill="none" stroke="#000" stroke-width=".616"><path d="m1143.5233 822.71304c.319-.8506-1.0987-1.09869-2.5872-1.27589-5.777-.74427-12.1918-1.24045-17.8979-1.66575-8.9312-.56706-17.9333-.74426-26.9354-.85058h-8.6122-8.6477c-9.0021.10632-18.0042.28352-26.9354.85058-5.7061.4253-12.1209.92148-17.8979 1.66575-1.4885.1772-2.9062.42529-2.5872 1.27589"/><path d="m1078.8429 808.64283c-9.0021.10633-18.0042.28353-26.9354.85059-6.5921.49618-14.1057 1.06324-20.5205 1.98471l-1.6303.28354c-4.0403.77971-4.6074 5.59972-2.4809 8.22238 4.3238 5.42252 29.9479 9.64004 60.2148 9.64004 30.2314 0 55.8555-4.21752 60.1793-9.64004 2.1265-2.62266 1.5594-7.44267-2.4809-8.22238l-1.6303-.28354c-6.3794-.92147-13.9284-1.48853-20.5205-1.98471-8.9312-.56706-17.9333-.74426-26.9354-.85059h-8.6122z"/></g></g><g stroke-width="2.416973" transform="matrix(.12348992 0 0 .14035928 -26.156961 -31.675352)"><path d="m1219.6137 702.29723 17.5585-48.60101 7.0916-20.12069 17.5754-10.35243 17.8003-38.34426 8.3852-10.02781 1.2943-35.32891s-12.2982-25.06064-31.3301-34.06025c-27.2247-12.8737-64.1791-11.10313-64.1791-11.10313s-8.5364-21.39607-24.1931-29.7222c-15.6568-8.32613-33.0417-10.33307-51.2889-10.33307s-50.9949 15.46287-68.7041 20.00816c-9.2065 2.36299-29.9982 10.33308-29.9982 10.33308s-20.79166-7.97009-29.99821-10.33308c-17.70915-4.5453-50.45684-20.00816-68.70405-20.00816-18.24722 0-35.06405 1.70487-51.28889 10.33307-15.08879 8.02407-35.80328 29.7222-35.80328 29.7222s-23.71708-3.05098-40.37855 6.45017c-20.78259 11.85121-35.42784 36.77819-35.42784 36.77819l1.43492 38.60079 3.27268 14.75485 13.42969 14.63013 17.50734 29.54809 12.54298 29.14172 13.42501 38.03455z" fill="#cf142b" fill-rule="evenodd"/><path d="m1219.6137 702.29723 17.5585-48.60101 7.0916-20.12069 17.5754-10.35243 17.8003-38.34426 8.3852-10.02781 1.2943-35.32891s-12.2982-25.06064-31.3301-34.06025c-27.2247-12.8737-64.1791-11.10313-64.1791-11.10313s-8.5364-21.39607-24.1931-29.7222c-15.6568-8.32613-33.0417-10.33307-51.2889-10.33307s-50.9949 15.46287-68.7041 20.00816c-9.2065 2.36299-29.9982 10.33308-29.9982 10.33308s-20.79166-7.97009-29.99821-10.33308c-17.70915-4.5453-50.45684-20.00816-68.70405-20.00816-18.24722 0-35.06405 1.70487-51.28889 10.33307-15.08879 8.02407-35.80328 29.7222-35.80328 29.7222s-23.71708-3.05098-40.37855 6.45017c-20.78259 11.85121-35.42784 36.77819-35.42784 36.77819l1.43492 38.60079 3.27268 14.75485 13.42969 14.63013 17.50734 29.54809 12.54298 29.14172 13.42501 38.03455z" fill="none" stroke="#000" stroke-width="2.416973"/></g><g transform="matrix(.32834267 0 0 .35372919 1.746946 -218.639716)"><g stroke-width="1.169591" transform="matrix(.79825579 0 0 .79825579 -314.32464 498.95953)"><g transform="matrix(-1 0 0 1 1539.1702 0)"><path d="m771.15782 228.3031c-39.75952-1.07381-94.77425 15.0687-140.0625 71.53125l10.15625 8.125c42.84225-53.41303 93.6015-67.62747 129.5625-66.65625z" fill="#fed100"/><g stroke="#000"><path d="m771.15782 228.3031c-39.75952-1.07381-94.77425 15.0687-140.0625 71.53125l10.15625 8.125c42.84225-53.41303 93.6015-67.62747 129.5625-66.65625z" fill="none" stroke-width="1.169591"/><g fill="#fff"><ellipse cx="635.643471" cy="288.302878" rx="6.980103" ry="7.094531"/><ellipse cx="647.669671" cy="275.223678" rx="6.980103" ry="7.094531"/><ellipse cx="741.361971" cy="226.831378" rx="6.980103" ry="7.094531"/><ellipse cx="661.887426" cy="262.97578" rx="6.980103" ry="7.094531"/><ellipse cx="676.486671" cy="252.204578" rx="6.980103" ry="7.094531"/><ellipse cx="692.056371" cy="243.114278" rx="6.980103" ry="7.094531"/><ellipse cx="723.700671" cy="230.687278" rx="6.980103" ry="7.094531"/><ellipse cx="707.680371" cy="236.292978" rx="6.980103" ry="7.094531"/></g></g></g><path d="m771.15782 228.3031c-39.75952-1.07381-94.77425 15.0687-140.0625 71.53125l10.15625 8.125c42.84225-53.41303 93.6015-67.62747 129.5625-66.65625z" fill="#f6e078"/><g stroke="#000"><path d="m771.15782 228.3031c-39.75952-1.07381-94.77425 15.0687-140.0625 71.53125l10.15625 8.125c42.84225-53.41303 93.6015-67.62747 129.5625-66.65625z" fill="#fed100" stroke-width="1.169591"/><g fill="#fff"><ellipse cx="635.643471" cy="288.302878" rx="6.980103" ry="7.094531"/><ellipse cx="647.669671" cy="275.223678" rx="6.980103" ry="7.094531"/><ellipse cx="741.361971" cy="226.831378" rx="6.980103" ry="7.094531"/><ellipse cx="661.887426" cy="262.97578" rx="6.980103" ry="7.094531"/><ellipse cx="676.486671" cy="252.204578" rx="6.980103" ry="7.094531"/><ellipse cx="692.056371" cy="243.114278" rx="6.980103" ry="7.094531"/><ellipse cx="723.700671" cy="230.687278" rx="6.980103" ry="7.094531"/><ellipse cx="707.680371" cy="236.292978" rx="6.980103" ry="7.094531"/></g></g></g><g stroke-width="1.176461"><path d="m185.95983 37.046559c1.56725-1.983919 3.43923-3.457652 4.95647-5.474907 1.59409-2.119424 2.81027-4.797822 3.43535-7.503048-2.77102.690875-5.44941 1.907055-7.56884 3.501145-2.01725 1.51724-3.49099 3.38922-5.47491 4.95647v-25.4106963c1.98392 1.56725 3.45766 3.4392313 5.47491 4.9564713 2.11943 1.59409 4.79782 2.81027 7.56884 3.501145-.62508-2.705226-1.84126-5.383624-3.43535-7.5030494-1.51724-2.0172551-3.38922-3.4909877-4.95647-5.474907l28.15166.0000009c-1.56725 1.9839197-3.43923 3.4576517-4.95647 5.4749067-1.59409 2.1194248-2.81027 4.7978218-3.43535 7.5030478 2.77102-.690875 5.44941-1.907055 7.56884-3.501144 2.01725-1.51724 3.49099-3.3892208 5.47491-4.9564708v25.4106948c-1.98392-1.56725-3.45766-3.43923-5.47491-4.95647-2.11943-1.59409-4.79782-2.81027-7.56884-3.501145.62508 2.705226 1.84126 5.383624 3.43535 7.503048 1.51724 2.017255 3.38922 3.490988 4.95647 5.474907z" fill="#fed100" stroke="#000" stroke-width=".972282" transform="matrix(.96024869 0 0 .96024869 107.917157 618.936255)"/><ellipse cx="300.001158" cy="637.969227" fill="#fff" rx="6.702635" ry="6.812515" stroke="#000" stroke-width=".933633"/><g transform="matrix(.74844838 0 0 .74844838 150.171131 632.133397)"><g stroke-width=".674872" transform="matrix(1.8634686 0 0 1.8334253 97.191875 -1597.6892)"><ellipse cx="55.27095" cy="898.872002" fill="#fed100" rx="10.907641" ry="11.086455" stroke-width=".701841"/><ellipse cx="55.27095" cy="898.872002" fill="none" rx="10.907641" ry="11.086455" stroke="#000" stroke-width=".674872"/></g><g stroke-width="1.247424"><path d="m195.84375 28.4375v17.0625h-17.0625v8.6875h42.8125v-8.6875h-17.09375v-17.0625z" fill="#fed100"/><path d="m195.84375 28.437483v17.0625h-17.0625v8.6875h42.8125v-8.6875h-17.09375v-17.0625z" fill="none" stroke="#000" stroke-width="1.247424"/></g></g><g stroke-width="1.176461"><rect fill="#fed100" fill-rule="evenodd" height="56.91685" ry="5.067921" stroke-width=".933632" width="20.095239" x="289.953518" y="681.869215"/><rect fill="none" height="56.91685" ry="5.067921" stroke="#000" stroke-width=".933632" width="20.095239" x="289.953518" y="681.869215"/><g stroke-width="1.153604" transform="matrix(.79359396 0 0 .79359396 -95.494354 430.81347)"><g transform="matrix(1.146997 0 0 .9067332 226.83512 -537.15201)"><rect fill="#fed100" fill-rule="evenodd" height="79.25563" ry="3.799903" width="7.040603" x="221.33458" y="941.21753"/><path d="m224.8549 941.21755c1.95025 0 3.5203 1.69475 3.5203 3.7999v71.65585c0 2.1051-1.57005 3.7999-3.5203 3.7999s-3.5203-1.6948-3.5203-3.7999v-71.65585c0-2.10515 1.57005-3.7999 3.5203-3.7999z" fill="none" stroke="#000" stroke-width="1.153604"/></g><g transform="matrix(1.146997 0 0 .9067332 232.09304 -537.15198)"><rect fill="#fed100" fill-rule="evenodd" height="79.25563" ry="3.799903" width="7.040603" x="240.49425" y="941.21753"/><rect fill="none" height="79.25563" ry="3.799903" stroke="#000" stroke-width="1.153604" width="7.040603" x="240.49425" y="941.21753"/></g></g></g><g fill="#fff" stroke="#000" stroke-width=".933632"><ellipse cx="300.001152" cy="683.081466" rx="5.539368" ry="5.630177"/><ellipse cx="300.001152" cy="694.276458" rx="5.539368" ry="5.630177"/><ellipse cx="300.001152" cy="705.488036" rx="5.539368" ry="5.630177"/><ellipse cx="300.001152" cy="716.699534" rx="5.539368" ry="5.630177"/><ellipse cx="300.001152" cy="727.911112" rx="5.539368" ry="5.630177"/></g><g stroke-width="1.176461"><g transform="matrix(.79359396 0 0 .79359396 516.371205 -99.097878)"><path d="m-147.29195 1086.9489c-6.71962 15.0229-12.10138 29.69-17.37535 44.7822h-108.31225-108.31225c-5.0982-14.5891-10.29711-30.2821-16.70789-44.7822 0 0 13.48179 18.865 23.57833 23.4269 5.60813 2.5339 12.62262 3.2894 18.42111 1.228 7.64153-2.7166 17.80708-16.579 17.80708-16.579s9.1411 10.6985 15.35092 13.5089c5.82854 2.6378 12.64403 2.745 19.03516 2.4561 5.65536-.2556 11.91962-.4688 16.579-3.6842 7.05525-4.8687 14.12285-21.4913 14.12285-21.4913s6.83785 13.078 12.28074 17.8071c4.49129 3.9023 10.13073 6.8156 15.96497 7.9824 5.83425 1.1668 12.20995.7899 17.80708-1.228 7.58793-2.7357 19.64918-14.1229 19.64918-14.1229s8.30171 10.2965 14.12286 12.8948c5.63512 2.5153 12.41421 3.2557 18.42111 1.8421 6.35685-1.496 11.6979-6.1001 16.579-10.4386 4.35657-3.8723 10.98835-13.6023 10.98835-13.6023z" fill="#fed100"/><path d="m-147.29195 1086.9489c-6.71962 15.0229-12.10138 29.69-17.37535 44.7822h-28.286-80.02625-82.60258-25.70967c-5.0982-14.5891-10.29711-30.2821-16.70789-44.7822 0 0 13.48179 18.865 23.57833 23.4269 5.60813 2.5339 12.62262 3.2894 18.42111 1.228 7.64153-2.7166 17.80708-16.579 17.80708-16.579s9.1411 10.6985 15.35092 13.5089c5.82854 2.6378 12.64403 2.745 19.03516 2.4561 5.65536-.2556 11.91962-.4688 16.579-3.6842 7.05525-4.8687 14.12285-21.4913 14.12285-21.4913s6.83785 13.078 12.28074 17.8071c4.49129 3.9023 10.13073 6.8156 15.96497 7.9824 5.83425 1.1668 12.20995.7899 17.80708-1.228 7.58793-2.7357 19.64918-14.1229 19.64918-14.1229s8.30171 10.2965 14.12286 12.8948c5.63512 2.5153 12.41421 3.2557 18.42111 1.8421 6.35685-1.496 11.6979-6.1001 16.579-10.4386 4.35657-3.8723 10.98835-13.6023 10.98835-13.6023z" fill="none" stroke="#000"/></g><g transform="matrix(.79359396 0 0 .79359396 516.371209 -99.097878)"><g fill="#fed100"><path d="m-272.64583 1095.4601s-4.93945 7.6033-7.97674 10.2011c-4.21807 3.6078-6.99242 5.7811-12.41053 7.4891-5.40871 1.7051-12.95316 2.664-18.61578 2.3538-5.47684-.3001-11.11184-1.888-16.04808-4.2795-4.29055-2.0787-11.12668-8.1311-11.12668-8.1311-3.3232 4.3118-7.5549 7.3405-11.58256 9.5786-5.15067 2.8622-10.23957 3.1201-15.58588 2.832-10.86712-.5858-21.00494-7.3742-29.13692-21.1378-5.27274-12.4705-11.3375-25.0993-18.91155-38.3416 8.72948-3.0896 18.90269-4.7355 30.18666-5.2706-4.58938 12.931-9.35043 25.5279-7.66645 35.9365 9.48064-7.1005 12.54717-16.7667 15.81207-26.3535l11.02053 38.8115c-6.6889-1.1728-3.13169-2.555-20.69798-5.8849 3.51983 6.6368 11.5779 14.8323 20.46174 15.639 5.97367.5425 10.30979-1.3029 14.10688-4.5963 2.72766-2.3659 5.21494-5.4949 5.18224-9.0197-.0187-2.0187-.0375-4.0374-.0562-6.0561-.012-1.2969-1.61251-3.1325-2.9094-3.1507-1.2358-.017-1.57771 1.9883-1.90762 3.1793-.66009 2.3832.66538 5.0369 0 7.4186-.73358 2.6258-2.14082 4.6993-4.45113 6.1467-1.9243 1.2057-6.5707 1.4838-6.5707 1.4838l1.4837-5.7229c1.04674-4.0374-2.87235-7.1709-3.81525-11.2338-.60694-2.6153-.94144-5.5401 0-8.0544 1.01848-2.7201 3.07931-5.3675 5.72288-6.5707.96458-.439 2.12225-.499 3.17937-.4239 1.495.1062 4.45112 1.0598 4.45112 1.0598s-.84834-4.0909-.63587-6.5707c.25766-3.0073 2.80499-8.578 4.23917-11.2338 2.38145-4.41 6.16835-8.3832 6.60021-8.8102.41467.4172 4.51961 4.2377 7.20209 8.4713 1.61547 2.5496 3.27245 6.2339 3.7387 9.216.38449 2.459.24673 7.6588.24673 7.6588s4.36632-1.7928 5.8503-2.0028c1.04934-.1485 2.20838-.1692 3.20116.2017 2.72088 1.0164 4.9609 3.514 6.16615 6.1566 1.11409 2.4428.98388 5.3837.56036 8.0349-.65795 4.1187-3.07778 7.3053-1.7527 11.2601l1.87825 5.6058s-4.65447.046-6.658-1.023c-2.40541-1.2833-3.95351-3.2539-4.86799-5.8222-.82946-2.3296-.34811-5.1826-1.78787-7.1886-.63699-.8876-1.52846-1.8705-2.76006-1.7672-1.29248.1083-2.19993 2.2199-2.25423 3.5158l-.22864 5.4514c-.0702 1.6747.69287 3.4155 1.58963 4.7706 2.19737 3.3204 5.46752 5.3345 9.15763 6.8299 3.99667 1.6197 7.6011 2.2423 11.9132 2.2927 3.59743.042 9.84967-.5472 13.2581-1.6988 4.1991-1.4186 6.669-3.2207 9.91749-6.236 1.83102-1.6996 3.05459-4.1683 3.86043-6.533.92812-2.7236.59391-7.4239.59391-7.4239-4.17837 1.5837-7.81123 3.7129-11.08563 6.2006-3.70059 2.8115-6.94333 6.0809-9.99823 9.538l-.29696-46.919c4.35262 4.8016 7.51742 9.1023 11.87005 12.7185 3.66518 3.0451 5.54863 4.2065 9.21381 5.3958-1.04701-3.7744-1.40073-6.064-4.10312-9.8384-3.74692-5.2332-7.39591-10.8524-11.93249-16.0856 8.35344-1.3911 16.70197-1.7662 25.16669-1.7662 8.46471 0 16.81324.3751 25.16668 1.7662-4.53658 5.2332-8.18557 10.8524-11.93249 16.0856-2.70239 3.7744-3.05611 6.064-4.10312 9.8384 3.66518-1.1893 5.54863-2.3507 9.21381-5.3958 4.35263-3.6162 7.51743-7.9169 11.87005-12.7185l-.29696 46.919c-3.0549-3.4571-6.29764-6.7265-9.99823-9.538-3.2744-2.4877-6.90726-4.6169-11.08563-6.2006 0 0-.33421 4.7003.59391 7.4239.80584 2.3647 2.02941 4.8334 3.86043 6.533 3.24849 3.0153 5.71839 4.8174 9.91749 6.236 3.40843 1.1516 9.66067 1.7408 13.2581 1.6988 4.3121-.05 7.91653-.673 11.9132-2.2927 3.69011-1.4954 6.96026-3.5095 9.15763-6.8299.89676-1.3551 1.65983-3.0959 1.58963-4.7706l-.22864-5.4514c-.0543-1.2959-.96175-3.4075-2.25423-3.5158-1.2316-.1033-2.12307.8796-2.76006 1.7672-1.43976 2.006-.95841 4.859-1.78787 7.1886-.91448 2.5683-2.46258 4.5389-4.86799 5.8222-2.00353 1.0689-6.658 1.023-6.658 1.023l1.87825-5.6058c1.32508-3.9548-1.09475-7.1414-1.7527-11.2601-.42352-2.6512-.55373-5.5921.56036-8.0349 1.20525-2.6426 3.44527-5.1402 6.16615-6.1566.99278-.3709 2.15182-.3502 3.20116-.2017 1.48398.21 5.8503 2.0028 5.8503 2.0028s-.13776-5.1998.24673-7.6588c.46625-2.9821 2.12323-6.6664 3.7387-9.216 2.68248-4.2336 6.78742-8.0541 7.20209-8.4713.43186.427 4.21876 4.4002 6.60021 8.8102 1.43418 2.6558 3.98151 8.2265 4.23917 11.2338.21247 2.4798-.63587 6.5707-.63587 6.5707s2.95612-.9536 4.45112-1.0598c1.05712-.075 2.21479-.015 3.17937.4239 2.64357 1.2032 4.7044 3.8506 5.72288 6.5707.94144 2.5143.60694 5.4391 0 8.0544-.9429 4.0629-4.86199 7.1964-3.81525 11.2338l1.4837 5.7229s-4.6464-.2781-6.5707-1.4838c-2.31031-1.4474-3.71755-3.5209-4.45113-6.1467-.66538-2.3817.66009-5.0354 0-7.4186-.32991-1.191-.67182-3.1966-1.90762-3.1793-1.29689.018-2.8974 1.8538-2.9094 3.1507-.0187 2.0187-.0375 4.0374-.0562 6.0561-.0327 3.5248 2.45458 6.6538 5.18224 9.0197 3.79709 3.2934 8.13321 5.1388 14.10688 4.5963 8.88384-.8067 16.94191-9.0022 20.46174-15.639-17.56629 3.3299-14.00908 4.7121-20.69798 5.8849l11.02053-38.8115c3.2649 9.5868 6.33143 19.253 15.81207 26.3535 1.68398-10.4086-3.07707-23.0055-7.66645-35.9365 11.28397.5351 21.45718 2.181 30.18666 5.2706-7.57405 13.2423-13.63881 25.8711-18.91155 38.3416-8.13198 13.7636-18.2698 20.552-29.13692 21.1378-5.34631.2881-10.43521.03-15.58588-2.832-4.02766-2.2381-8.25936-5.2668-11.58256-9.5786 0 0-6.83613 6.0524-11.12668 8.1311-4.93624 2.3915-10.57124 3.9794-16.04808 4.2795-5.66262.3102-13.20707-.6487-18.61578-2.3538-5.41811-1.708-8.19246-3.8813-12.41053-7.4891-3.03729-2.5978-7.97675-10.2011-7.97675-10.2011z"/><path d="m-365.99208 1115.5041c-10.86712-.5858-21.00494-7.3742-29.13692-21.1378-5.27274-12.4705-11.3375-25.0993-18.91155-38.3416 8.72948-3.0896 18.90269-4.7355 30.18666-5.2706-4.58938 12.931-9.35043 25.5279-7.66645 35.9365 9.48064-7.1005 12.54717-16.7667 15.81207-26.3535l11.02053 38.8115c-6.6889-1.1728-3.13169-2.555-20.69798-5.8849 3.51983 6.6368 11.5779 14.8323 20.46174 15.639zm185.62441-6.6014c8.88384-.8067 16.94191-9.0022 20.46174-15.639-17.56629 3.3299-14.00908 4.7121-20.69798 5.8849l11.02053-38.8115c3.2649 9.5868 6.33143 19.253 15.81207 26.3535 1.68398-10.4086-3.07707-23.0055-7.66645-35.9365 11.28397.5351 21.45718 2.181 30.18666 5.2706-7.57405 13.2423-13.63881 25.8711-18.91155 38.3416-8.13198 13.7636-18.2698 20.552-29.13692 21.1378l-.20811.3835z"/><path d="m-311.64888 1115.5041c-5.47684-.3001-11.11184-1.888-16.04808-4.2795-4.29055-2.0787-11.12668-8.1311-11.12668-8.1311-3.3232 4.3118-7.5549 7.3405-11.58256 9.5786-5.15067 2.8622-10.23957 3.1201-15.58588 2.832l-.18752 1.8729 1.25562-8.4743c5.97367.5425 10.30979-1.3029 14.10688-4.5963 2.72766-2.3659 5.21494-5.4949 5.18224-9.0197-.0187-2.0187-.0375-4.0374-.0562-6.0561-.012-1.2969-1.61251-3.1325-2.9094-3.1507-1.2358-.017-1.57771 1.9883-1.90762 3.1793-.66009 2.3832.66538 5.0369 0 7.4186-.73358 2.6258-2.14082 4.6993-4.45113 6.1467-1.9243 1.2057-6.5707 1.4838-6.5707 1.4838l1.4837-5.7229c1.04674-4.0374-2.87235-7.1709-3.81525-11.2338-.60694-2.6153-.94144-5.5401 0-8.0544 1.01848-2.7201 3.07931-5.3675 5.72288-6.5707.96458-.439 2.12225-.499 3.17937-.4239 1.495.1062 4.45112 1.0598 4.45112 1.0598s-.84834-4.0909-.63587-6.5707c.25766-3.0073 2.80499-8.578 4.23917-11.2338 2.38145-4.41 6.16835-8.3832 6.60021-8.8102.41467.4172 4.51961 4.2377 7.20209 8.4713 1.61547 2.5496 3.27245 6.2339 3.7387 9.216.38449 2.459.24673 7.6588.24673 7.6588s4.36632-1.7928 5.8503-2.0028c1.04934-.1485 2.20838-.1692 3.20116.2017 2.72088 1.0164 4.9609 3.514 6.16615 6.1566 1.11409 2.4428.98388 5.3837.56036 8.0349-.65795 4.1187-3.07778 7.3053-1.7527 11.2601l1.87825 5.6058s-4.65447.046-6.658-1.023c-2.40541-1.2833-3.95351-3.2539-4.86799-5.8222-.82946-2.3296-.34811-5.1826-1.78787-7.1886-.63699-.8876-1.52846-1.8705-2.76006-1.7672-1.29248.1083-2.19993 2.2199-2.25423 3.5158l-.22864 5.4514c-.0702 1.6747.69287 3.4155 1.58963 4.7706 2.19737 3.3204 5.46752 5.3345 9.15763 6.8299 3.99667 1.6197 7.6011 2.2423 11.9132 2.2927z"/><path d="m-272.66542 1079.3207 6.79271 8.052 3.27016 13.1967 9.61811 6.7327 14.04243 3.0778 14.04244-1.7312 10.77229-6.9251 1.53889-7.5021 10.96465.3847 2.11598 8.0792 11.15701 7.5022 10.00283.577 12.31118-6.5403 6.73268-8.8486 7.30976 2.3083-7.30976 8.4639-8.07921 6.348-6.15559 2.116-4.61669.7694h-5.96323l-4.80906-.5771-4.61669-1.1541-5.5785-3.4625-7.30977-6.7327-6.73267 4.809-6.54032 3.8473-8.46393 2.8854-8.46394.5771-10.00283-.9618-8.6563-2.5007-8.27157-5.3862-6.54032-7.5021-2.56074-3.8472-2.56074 3.8472-6.54032 7.5021-8.27157 5.3862-8.6563 2.5007-10.00283.9618-8.46394-.5771-8.46393-2.8854-6.54032-3.8473-6.73267-4.809-7.30977 6.7327-5.5785 3.4625-4.61669 1.1541-4.80906.5771h-5.96323l-4.61669-.7694-6.15559-2.116-8.07921-6.348-7.30976-8.4639 7.30976-2.3083 6.73268 8.8486 12.31118 6.5403 10.00283-.577 11.15701-7.5022 2.11598-8.0792 10.96465-.3847 1.53889 7.5021 10.77229 6.9251 14.04244 1.7312 14.04243-3.0778 9.61811-6.7327 3.27016-14.0153z"/></g><path d="m-203.8479 1095.1449-.12597-.2106c-.15092-2.5694.71875-6.9687.71875-6.9687.48416-2.19 2.36159-4.533 4.6875-5.375 1.25378-.4542 2.77614-.6286 4.125.031.82261.4023 1.48579.7143 2.03125 1.2812.54546.567.88412 1.3124 1.25 2.375.53493 1.5537.30202 3.1738.0312 4.5626-.44672 2.2906-.39733 4.2935.25 5.8437.45703 1.0945 1.37685 1.9155 2.5625 2.625-.22033-.7834-.37923-1.1628-.5-2.0313-.17901-1.2874.0385-2.6168.53125-3.7812.85831-2.0281 2.04291-3.6268 2.84375-5.4062.76379-1.6972 1.16331-3.6202 1.03125-5.4376-.10893-1.4991-.55191-3.0476-1.40625-4.125-.92643-1.1682-2.33985-2.1368-3.75-2.4062-1.25457-.2397-3.31536.1873-4.96875.7188-1.65339.5314-2.90625 1.125-2.90625 1.125l-1.46875.6874.25-1.5937c.85923-5.3602 1.61844-8.0814 0-13.0937-.66543-2.0609-1.77668-4.334-3.65625-6.9688-.91278-1.2796-1.93205-2.8073-3.09375-4.2188-3.02799 3.4471-5.13866 6.9398-6.34375 10.4688-1.31925 3.8634-1.37137 8.9997-1.0625 13.125l.125 1.6562-1.40625-.8437s-1.59877-.9804-3.53125-1.9063c-1.93248-.9258-4.2874-1.7432-5.28125-1.6562-1.87382.1642-3.12453 1.0598-4.34375 2.625-1.03485 1.3285-1.2578 2.4801-1.46875 4.3125-.13326 1.1576.15826 3.3345.34375 4.75.21737 1.6588 1.19398 3.4032 1.46875 5.5.0908.6926.30568 1.237.46875 1.9063.16307.6692.24456 1.4547.0625 2.375-.12584.6361-.31363 1.0959-.5625 1.875.4794-.2326.80884-.349 1.0625-.5313.92721-.6662 1.30363-1.8481 1.90625-3.2813.32438-.7714.3958-1.4641.4375-2.2812s.082-1.7776.5-2.8438c.71403-1.8212 1.55431-3.9841 3.40625-5.3124 1.51597-1.0874 3.53837-1.3901 5.3125-.8438 1.05112.3237 1.80307.9723 2.34375 1.7188.54068.7464.9035 1.5624 1.28125 2.375.48369 1.0404.77286 2.5972 1 3.9687s.34375 2.5313.34375 2.5313l.0312.125-.0312.1562-1.29125 4.2919-1.64618-.371 1.25-4.1044c-.009-.08-.13324-1.0727-.34375-2.3437-.21876-1.3209-.54916-2.8976-.84375-3.5313-.38681-.832-.73471-1.5549-1.125-2.0937-.39029-.5389-.78661-.8838-1.46875-1.0938-1.22343-.3767-2.81106-.1469-3.84375.5938-1.31092.9402-2.10581 2.7599-2.8125 4.5624-.3069.7828-.3329 1.4876-.375 2.3126-.0421.8249-.0859 1.7845-.53125 2.8437-.55178 1.3122-1.00857 2.9284-2.5 4-1.099.7897-3.09375 1.5625-3.09375 1.5625l-1.75.7188.625-1.7813s.88084-2.613 1.0625-3.5313c.12572-.6355.0743-1.0946-.0625-1.6562-.13684-.5616-.3847-1.2139-.5-2.0938-.21737-1.6587-1.19398-3.4031-1.46875-5.5-.17909-1.3665-.53139-3.5264-.34375-5.1562.21885-1.901.53791-3.5512 1.8125-5.1875 1.39608-1.7922 3.16549-3.0426 5.53125-3.25 1.86981-.1639 4.16963.8457 6.1875 1.8125 1.29793.6219 1.6923.9079 2.34375 1.2812-.21156-3.9597-.14729-8.5263 1.15625-12.3437 1.382-4.0471 3.7495-8.0364 7.34375-11.9063l.625-.6562.625.6562c1.67052 1.7979 2.81199 3.7724 3.84375 5.2188 1.96677 2.757 3.18452 5.2023 3.90625 7.4375 1.54608 4.7882.97906 8.0566.25 12.4687.56903-.2397.76782-.3717 1.75-.6874 1.76745-.5682 3.92199-1.1053 5.78125-.75 1.90061.3631 3.61332 1.5272 4.78125 3 1.15926 1.4618 1.65532 3.3294 1.78125 5.0624.15624 2.1503-.31869 4.3508-1.1875 6.2813-.8989 1.9973-2.08788 3.5889-2.84375 5.375-.3806.8994-.56713 1.9427-.4375 2.875.19405 1.3955.9375 3.6563.9375 3.6563l.53125 1.5937-1.625-.5313c-2.59386-.8801-4.29205-2.4739-5.125-4.4687s-.82906-4.3239-.34375-6.8125c.25477-1.3067.39044-2.6129.0312-3.6562-.33243-.9655-.57462-1.4378-.875-1.75-.30038-.3123-.76208-.5461-1.5625-.9376-.73896-.3616-1.88098-.3063-2.8125.031-1.5454.5595-3.39488 2.6275-3.5625 4.0937-.29599 2.5891-1.0311 5.2222-2.28025 6.8634zm48.749-3.0516.4375-.875-.9375-.3126c-6.97941-2.2099-13.42396-.5376-19.5 2.0313 2.45556-6.7087 4.32572-13.4096 5.65625-20.125 6.62462 11.9033 12.24579 15.7967 17.53125 18.2187l.96875.4376.21875-1.0626c1.57673-8.1269 1.69907-18.9549-4.96875-35.0624 7.47189.388 14.90215 1.2839 22.28125 4.5624l.6875-1.5624c-8.1013-3.5995-16.19358-4.4939-24.1875-4.8438l-1.375-.062.5625 1.25c6.84773 15.8963 6.84869 26.2423 5.46875 34.2187-5.07854-2.4715-10.21874-6.2041-16.78125-18.7187l-1.15625-2.1875-.4375 2.4375c-1.42536 7.8888-3.64956 15.7893-6.65625 23.6875l-.75 1.9375 1.875-.875c6.13665-2.7847 12.34195-4.5981 19.03125-2.8437l.16479.1033zm-233.0626.2499c6.67982-1.7432 12.8709.062 19 2.8437l1.875.875-.71875-1.9369c-3.00669-7.8982-5.23089-15.7987-6.65625-23.6875l-.4375-2.4375-1.15625 2.1875c-6.56516 12.5197-11.73196 16.2473-16.8125 18.7187-1.37994-7.9764-1.34773-18.3224 5.5-34.2187l.53125-1.25-1.34375.062c-7.99392.3499-16.0862 1.2443-24.1875 4.8438l.6875 1.5624c7.3882-3.2825 14.79997-4.1753 22.28125-4.5624-6.66832 16.1081-6.54552 26.9353-4.96875 35.0624l.1875 1.0626 1-.4376c5.2817-2.4203 10.91282-6.3045 17.53125-18.1874 1.3302 6.7036 3.205 13.3967 5.65625 20.0937-6.07604-2.5689-12.52059-4.2412-19.5-2.0313l-.9375.3126.4375.875-.18112.091 2.21237.1594zm54.88334 3.778-.97714-3.6524c.0174-.1541.11063-1.0311.3125-2.25.21876-1.3209.58041-2.8976.875-3.5313.38681-.832.73471-1.5549 1.125-2.0937.39029-.5389.78661-.8838 1.46875-1.0938 1.22343-.3767 2.77981-.1469 3.8125.5938 1.31092.9402 2.13706 2.7599 2.84375 4.5624.30688.7828.33289 1.4876.375 2.3126.0421.8249.0859 1.7845.53125 2.8437.55178 1.3122 1.00857 2.9284 2.5 4 1.099.7897 3.09375 1.5625 3.09375 1.5625l1.71875.7188-.59375-1.7813s-.88084-2.613-1.0625-3.5313c-.12572-.6355-.0743-1.0946.0625-1.6562.13684-.5616.35345-1.2139.46875-2.0938.21737-1.6587 1.19398-3.4031 1.46875-5.5.17909-1.3665.56264-3.5264.375-5.1562-.21885-1.901-.53791-3.5512-1.8125-5.1875-1.39608-1.7922-3.16549-3.0426-5.53125-3.25-1.86981-.1639-4.16963.8457-6.1875 1.8125-1.29793.6219-1.6923.9079-2.34375 1.2812.21156-3.9597.14729-8.5263-1.15625-12.3437-1.382-4.0471-3.7495-8.0364-7.34375-11.9063l-.625-.6562-.625.6562c-1.67052 1.7979-2.84324 3.7724-3.875 5.2188-1.96677 2.757-3.15327 5.2023-3.875 7.4375-1.54608 4.7882-.97906 8.0566-.25 12.4687-.56888-.24-.75927-.369-1.75-.6874-1.76745-.5682-3.92199-1.1053-5.78125-.75-1.90061.3631-3.61332 1.5272-4.78125 3-1.15926 1.4618-1.65532 3.3294-1.78125 5.0624-.15624 2.1503.31869 4.3508 1.1875 6.2813.8989 1.9973 2.08788 3.5889 2.84375 5.375.38062.8994.53588 1.9427.40625 2.875-.19405 1.3955-.90625 3.6562-.90625 3.6563l-.53125 1.5937 1.625-.5313c2.59386-.8801 4.29205-2.4739 5.125-4.4687s.82906-4.3239.34375-6.8125c-.25482-1.3067-.39049-2.6129-.0312-3.6562.33243-.9655.57462-1.4378.875-1.75.30038-.3123.73083-.5461 1.53125-.9376.73896-.3613 1.91223-.306 2.84375.031 1.5454.5595 3.23109 2.6503 3.5625 4.0937 0 0-.00004.031 0 .031.008.042.80629 4.5089.6875 6.5313l2.00556.3547c-.16714-2.8298-1.03681-7.2291-1.03681-7.2291-.48416-2.19-2.33034-4.533-4.65625-5.375-1.25378-.454-2.80739-.6284-4.15625.031-.82261.4023-1.45454.7143-2 1.2812-.54546.567-.91537 1.3124-1.28125 2.375-.53498 1.5537-.30207 3.1738-.0312 4.5626.44672 2.2906.39733 4.2935-.25 5.8437-.45703 1.0945-1.3456 1.9155-2.53125 2.625.22033-.7834.37923-1.1628.5-2.0313.17901-1.2874-.0385-2.6168-.53125-3.7812-.85831-2.0281-2.04291-3.6268-2.84375-5.4062-.76379-1.6972-1.19456-3.6202-1.0625-5.4376.10893-1.4991.55191-3.0476 1.40625-4.125.92643-1.1682 2.3711-2.1368 3.78125-2.4062 1.25457-.2397 3.28411.1873 4.9375.7188 1.65339.5314 2.9375 1.125 2.9375 1.125l1.46875.6874-.28125-1.5937c-.85923-5.3602-1.58719-8.0814.0312-13.0937.66543-2.0609 1.74543-4.334 3.625-6.9688.91332-1.2803 1.96234-2.8066 3.125-4.2188 3.02688 3.4463 5.13892 6.9405 6.34375 10.4688 1.31925 3.8634 1.34012 8.9997 1.03125 13.125l-.0937 1.6562 1.40625-.8437s1.56752-.9804 3.5-1.9063c1.93248-.9258 4.31865-1.7433 5.3125-1.6562 1.87382.1642 3.12453 1.0598 4.34375 2.625 1.03485 1.3285 1.2578 2.4801 1.46875 4.3125.13326 1.1576-.18951 3.3345-.375 4.75-.21737 1.6588-1.16273 3.4032-1.4375 5.5-.0908.6926-.30568 1.237-.46875 1.9063-.16307.6692-.27581 1.4547-.0937 2.375.12584.6361.31363 1.0959.5625 1.875-.4794-.2326-.80884-.349-1.0625-.5313-.92721-.6662-1.30363-1.8481-1.90625-3.2813-.32438-.7714-.36454-1.4641-.40625-2.2812-.0417-.8171-.082-1.7776-.5-2.8438-.71403-1.8212-1.55431-3.9841-3.40625-5.3124-1.51597-1.0874-3.53837-1.3901-5.3125-.8438-1.05112.3237-1.83432.9723-2.375 1.7188-.54068.7464-.87225 1.5624-1.25 2.375-.48369 1.0404-.77286 2.5972-1 3.9687s-.375 2.5312-.375 2.5313v.125l.0312.1562 1.00839 3.7462.49726.054 1.15889-.4284zm64.67926-13.8402.0312-1.0624 1.03125.25c4.75501 1.1922 8.39017 2.8033 11.40625 4.5937 3.82684 2.2716 6.65282 4.8219 9.625 7.2813l.5-28.2188c-2.53272 2.7962-4.90974 5.7915-8.40625 8.1875-2.85546 1.9568-8.20954 4.5285-13.21875 5.0937l-1.1875.125.25-1.1562c.70513-3.1804.68458-5.3889 2.28125-9.1562 1.51467-3.5739 4.70836-8.7569 11.0625-17.4376-5.49538-.6072-10.2832-1.2812-17.4375-1.2812-7.15212 0-11.91302.6741-17.40625 1.2812 6.35414 8.6807 9.54783 13.8637 11.0625 17.4376 1.59667 3.7673 1.57612 5.9758 2.28125 9.1562l.25 1.1562-1.1875-.125c-5.00921-.5652-10.36329-3.1369-13.21875-5.0937-3.48296-2.3867-5.88464-5.369-8.40625-8.1563l.5 28.1563c2.95994-2.451 5.81264-4.987 9.625-7.25 3.01608-1.7904 6.61999-3.4015 11.375-4.5937l1.0625-.25v1.0624l-1.71285 1.1975c-4.01527 1.1313-7.22532 2.4949-9.84975 4.0527-4.20301 2.4949-7.24006 5.4082-10.8125 8.25l-1.34375 1.0626-.0312-1.7188-.53125-32.1875-.0625-2.125 1.5 1.5c3.29806 3.326 5.7705 6.9524 9.625 9.5937 2.37662 1.6287 7.0366 3.8066 11.3125 4.5626-.47638-2.5632-.68619-4.5676-1.96875-7.5938-1.50223-3.5445-4.59502-8.7401-11.65625-18.2812l-.875-1.1876 1.46875-.1562c6.08475-.6306 11.10518-1.4688 19-1.4688l.0001.0006c7.89482 0 12.91525.8382 19 1.4688l1.5.1562-.875 1.1876c-7.06123 9.5411-10.18527 14.7367-11.6875 18.2812-1.28707 3.0368-1.45708 5.0479-1.9375 7.625 4.27759-.7549 8.90349-2.9643 11.28125-4.5938 3.8545-2.6413 6.35819-6.2677 9.65625-9.5937l1.46875-1.5-.0312 2.125-.5625 32.1875v1.7188l-1.375-1.0626c-3.57244-2.8418-6.57824-5.7551-10.78125-8.25-2.62443-1.5578-5.83448-2.9214-9.84375-4.0312z"/><path d="m-272.64583 1095.4601s-4.93945 7.6033-7.97674 10.2011c-4.21807 3.6078-6.99242 5.7811-12.41053 7.4891-5.40871 1.7051-12.95316 2.664-18.61578 2.3538-5.47684-.3001-11.11184-1.888-16.04808-4.2795-4.29055-2.0787-11.12668-8.1311-11.12668-8.1311-3.3232 4.3118-7.5549 7.3405-11.58256 9.5786-5.15067 2.8622-10.23957 3.1201-15.58588 2.832-10.86712-.5858-21.00494-7.3742-29.13692-21.1378-5.27274-12.4705-11.3375-25.0993-18.91155-38.3416 8.72948-3.0896 18.90269-4.7355 30.18666-5.2706-4.58938 12.931-9.35043 25.5279-7.66645 35.9365 9.48064-7.1005 12.54717-16.7667 15.81207-26.3535l11.02053 38.8115c-6.6889-1.1728-3.13169-2.555-20.69798-5.8849 3.51983 6.6368 11.5779 14.8323 20.46174 15.639 5.97367.5425 10.30979-1.3029 14.10688-4.5963 2.72766-2.3659 5.21494-5.4949 5.18224-9.0197-.0187-2.0187-.0375-4.0374-.0562-6.0561-.012-1.2969-1.61251-3.1325-2.9094-3.1507-1.2358-.017-1.57771 1.9883-1.90762 3.1793-.66009 2.3832.66538 5.0369 0 7.4186-.73358 2.6258-2.14082 4.6993-4.45113 6.1467-1.9243 1.2057-6.5707 1.4838-6.5707 1.4838l1.4837-5.7229c1.04674-4.0374-2.87235-7.1709-3.81525-11.2338-.60694-2.6153-.94144-5.5401 0-8.0544 1.01848-2.7201 3.07931-5.3675 5.72288-6.5707.96458-.439 2.12225-.499 3.17937-.4239 1.495.1062 4.45112 1.0598 4.45112 1.0598s-.84834-4.0909-.63587-6.5707c.25766-3.0073 2.80499-8.578 4.23917-11.2338 2.38145-4.41 6.16835-8.3832 6.60021-8.8102.41467.4172 4.51961 4.2377 7.20209 8.4713 1.61547 2.5496 3.27245 6.2339 3.7387 9.216.38449 2.459.24673 7.6588.24673 7.6588s4.36632-1.7928 5.8503-2.0028c1.04934-.1485 2.20838-.1692 3.20116.2017 2.72088 1.0164 4.9609 3.514 6.16615 6.1566 1.11409 2.4428.98388 5.3837.56036 8.0349-.65795 4.1187-3.07778 7.3053-1.7527 11.2601l1.87825 5.6058s-4.65447.046-6.658-1.023c-2.40541-1.2833-3.95351-3.2539-4.86799-5.8222-.82946-2.3296-.34811-5.1826-1.78787-7.1886-.63699-.8876-1.52846-1.8705-2.76006-1.7672-1.29248.1083-2.19993 2.2199-2.25423 3.5158l-.22864 5.4514c-.0702 1.6747.69287 3.4155 1.58963 4.7706 2.19737 3.3204 5.46752 5.3345 9.15763 6.8299 3.99667 1.6197 7.6011 2.2423 11.9132 2.2927 3.59743.042 9.84967-.5472 13.2581-1.6988 4.1991-1.4186 6.669-3.2207 9.91749-6.236 1.83102-1.6996 3.05459-4.1683 3.86043-6.533.92812-2.7236.59391-7.4239.59391-7.4239-4.17837 1.5837-7.81123 3.7129-11.08563 6.2006-3.70059 2.8115-6.94333 6.0809-9.99823 9.538l-.29696-46.919c4.35262 4.8016 7.51742 9.1023 11.87005 12.7185 3.66518 3.0451 5.54863 4.2065 9.21381 5.3958-1.04701-3.7744-1.40073-6.064-4.10312-9.8384-3.74692-5.2332-7.39591-10.8524-11.93249-16.0856 8.35344-1.3911 16.70197-1.7662 25.16669-1.7662 8.46471 0 16.81324.3751 25.16668 1.7662-4.53658 5.2332-8.18557 10.8524-11.93249 16.0856-2.70239 3.7744-3.05611 6.064-4.10312 9.8384 3.66518-1.1893 5.54863-2.3507 9.21381-5.3958 4.35263-3.6162 7.51743-7.9169 11.87005-12.7185l-.29696 46.919c-3.0549-3.4571-6.29764-6.7265-9.99823-9.538-3.2744-2.4877-6.90726-4.6169-11.08563-6.2006 0 0-.33421 4.7003.59391 7.4239.80584 2.3647 2.02941 4.8334 3.86043 6.533 3.24849 3.0153 5.71839 4.8174 9.91749 6.236 3.40843 1.1516 9.66067 1.7408 13.2581 1.6988 4.3121-.05 7.91653-.673 11.9132-2.2927 3.69011-1.4954 6.96026-3.5095 9.15763-6.8299.89676-1.3551 1.65983-3.0959 1.58963-4.7706l-.22864-5.4514c-.0543-1.2959-.96175-3.4075-2.25423-3.5158-1.2316-.1033-2.12307.8796-2.76006 1.7672-1.43976 2.006-.95841 4.859-1.78787 7.1886-.91448 2.5683-2.46258 4.5389-4.86799 5.8222-2.00353 1.0689-6.658 1.023-6.658 1.023l1.87825-5.6058c1.32508-3.9548-1.09475-7.1414-1.7527-11.2601-.42352-2.6512-.55373-5.5921.56036-8.0349 1.20525-2.6426 3.44527-5.1402 6.16615-6.1566.99278-.3709 2.15182-.3502 3.20116-.2017 1.48398.21 5.8503 2.0028 5.8503 2.0028s-.13776-5.1998.24673-7.6588c.46625-2.9821 2.12323-6.6664 3.7387-9.216 2.68248-4.2336 6.78742-8.0541 7.20209-8.4713.43186.427 4.21876 4.4002 6.60021 8.8102 1.43418 2.6558 3.98151 8.2265 4.23917 11.2338.21247 2.4798-.63587 6.5707-.63587 6.5707s2.95612-.9536 4.45112-1.0598c1.05712-.075 2.21479-.015 3.17937.4239 2.64357 1.2032 4.7044 3.8506 5.72288 6.5707.94144 2.5143.60694 5.4391 0 8.0544-.9429 4.0629-4.86199 7.1964-3.81525 11.2338l1.4837 5.7229s-4.6464-.2781-6.5707-1.4838c-2.31031-1.4474-3.71755-3.5209-4.45113-6.1467-.66538-2.3817.66009-5.0354 0-7.4186-.32991-1.191-.67182-3.1966-1.90762-3.1793-1.29689.018-2.8974 1.8538-2.9094 3.1507-.0187 2.0187-.0375 4.0374-.0562 6.0561-.0327 3.5248 2.45458 6.6538 5.18224 9.0197 3.79709 3.2934 8.13321 5.1388 14.10688 4.5963 8.88384-.8067 16.94191-9.0022 20.46174-15.639-17.56629 3.3299-14.00908 4.7121-20.69798 5.8849l11.02053-38.8115c3.2649 9.5868 6.33143 19.253 15.81207 26.3535 1.68398-10.4086-3.07707-23.0055-7.66645-35.9365 11.28397.5351 21.45718 2.181 30.18666 5.2706-7.57405 13.2423-13.63881 25.8711-18.91155 38.3416-8.13198 13.7636-18.2698 20.552-29.13692 21.1378-5.34631.2881-10.43521.03-15.58588-2.832-4.02766-2.2381-8.25936-5.2668-11.58256-9.5786 0 0-6.83613 6.0524-11.12668 8.1311-4.93624 2.3915-10.57124 3.9794-16.04808 4.2795-5.66262.3102-13.20707-.6487-18.61578-2.3538-5.41811-1.708-8.19246-3.8813-12.41053-7.4891-3.03729-2.5978-7.97675-10.2011-7.97675-10.2011z" fill="none" stroke="#000" stroke-width="1.176461"/></g></g><g fill="#fff" stroke="#000" stroke-width=".803539" transform="matrix(.79359396 0 0 .79359396 145.284807 626.79374)"><ellipse cx="194.956588" cy="164.999286" rx="7.678114" ry="7.803985" stroke-width="1.176461"/><ellipse cx="73.472568" cy="175.733786" rx="7.678114" ry="7.803985" stroke-width="1.176461"/><ellipse cx="2689.7012" cy="785.0257" rx="10.48851" ry="10.660453" stroke-width="1.607078" transform="matrix(-.73205 0 0 .73205 2285.436247 -398.944278)"/></g><g stroke-width="1.176461" transform="matrix(.79359396 0 0 .79359396 516.370709 -99.097878)"><g transform="matrix(.99853093 -.05418461 .05418461 .99853093 -59.740351 -16.657444)"><path d="m-346.45864 1090.7071h16.90201l2.19927 3.8065-2.19927 3.8064h-16.90201l-2.7068-3.8064z" fill="#fed100"/><path d="m-346.45864 1090.7071h16.90201l2.19927 3.8065-2.19927 3.8064h-16.90201l-2.7068-3.8064z" fill="none" stroke="#000" stroke-width="1.176461"/></g><g transform="matrix(-.99853093 -.05418461 -.05418461 .99853093 -485.55003 -16.657439)"><path d="m-346.45864 1090.7071h16.90201l2.19927 3.8065-2.19927 3.8064h-16.90201l-2.7068-3.8064z" fill="#fed100"/><path d="m-346.45864 1090.7071h16.90201l2.19927 3.8065-2.19927 3.8064h-16.90201l-2.7068-3.8064z" fill="none" stroke="#000" stroke-width="1.176461"/></g></g><g stroke-width="1.176461" transform="matrix(.79359396 0 0 .79359396 -94.388123 516.47385)"><path d="m390.38814 381.07914s12.05564-.88424 33.29743-2.08342c21.24179-1.19917 43.99979-1.82891 55.6089-1.82891h35.38749c11.24508 0 34.53839.62974 55.6089 1.82891 21.07057 1.19918 33.05521 2.20453 33.05521 2.20453l7.38763-33.00505s-75.69995-6.83087-113.74548-6.83086-113.74549 6.83091-113.74549 6.83091z" fill="#fed100" fill-rule="evenodd"/><path d="m496.50058 341.72544c38.01199-.0193 76.02023 2.041 113.8632 6.23428l-6.92787 33.31224c-37.64029-3.37881-68.45072-4.28271-106.50894-4.58075m.5045-34.96577c-38.01198-.0193-76.02022 2.041-113.8632 6.23428l6.92787 33.31225c37.6403-3.37882 68.45072-4.28271 106.50894-4.58076" fill="none" stroke="#000" stroke-width="1.176461"/></g><g stroke-width="1.330036" transform="matrix(.80237984 0 0 .61410891 758.556269 443.313168)"><path d="m-644.32223 561.76862-.0312.0312h-.0312c-13.36934 1.25678-28.84217 2.62778-42.34375 5.03125-1.90913 2.98168-2.06747 5.70075 1.40625 7.875 12.96265-2.30753 28.24596-3.71121 41.625-4.96875 18.14491-1.37417 36.43964-2.23317 54.6875-2.4688h35c10.91556 0 33.96831.8703 54.6875 2.5 20.62477 1.62227 41.6875 4.9375 41.6875 4.9375 3.59435-2.39802 3.20392-5.08067 1.25-7.875 0 0-21.25757-3.40639-42.3125-5.0625-20.96041-1.64868-43.98416-2.5-55.3125-2.5h-35c-18.46448.0721-36.90054 1.20996-55.3126 2.5001z" fill="#f6e078"/><path d="m-644.32223 561.76862-.0312.0312h-.0312c-13.36934 1.25678-28.84217 2.62778-42.34375 5.03125-1.90913 2.98168-2.06747 5.70075 1.40625 7.875 12.96265-2.30753 28.24596-3.71121 41.625-4.96875 18.14491-1.37417 36.43964-2.23317 54.6875-2.4688h35c10.91556 0 33.96831.8703 54.6875 2.5 20.62477 1.62227 41.6875 4.9375 41.6875 4.9375 3.59435-2.39802 3.20392-5.08067 1.25-7.875 0 0-21.25757-3.40639-42.3125-5.0625-20.96041-1.64868-43.98416-2.5-55.3125-2.5h-35c-18.46448.0721-36.90054 1.20996-55.3126 2.5001z" fill="#fed100" stroke="#000" stroke-width="1.330036"/></g><g stroke-width="1.379316" transform="matrix(.74606855 0 0 .61410891 726.374717 470.603397)"><path d="m-644.32223 561.76862-.0312.0312h-.0312c-13.36934 1.25678-28.84217 2.62778-42.34375 5.03125-1.90913 2.98168-2.06747 5.70075 1.40625 7.875 12.96265-2.30753 28.24596-3.71121 41.625-4.96875 18.14491-1.37417 36.43964-2.23317 54.6875-2.4688h35c10.91556 0 33.96831.8703 54.6875 2.5 20.62477 1.62227 41.6875 4.9375 41.6875 4.9375 3.59435-2.39802 3.20392-5.08067 1.25-7.875 0 0-21.25757-3.40639-42.3125-5.0625-20.96041-1.64868-43.98416-2.5-55.3125-2.5h-35c-18.46448.0721-36.90054 1.20996-55.3126 2.5001z" fill="#f6e078"/><path d="m-644.32223 561.76862-.0312.0312h-.0312c-13.36934 1.25678-28.84217 2.62778-42.34375 5.03125-1.90913 2.98168-2.06747 5.70075 1.40625 7.875 12.96265-2.30753 28.24596-3.71121 41.625-4.96875 18.14491-1.37417 36.43964-1.77813 54.6875-2.01376h35c10.91556 0 33.96831.41526 54.6875 2.04496 20.62477 1.62227 41.6875 4.9375 41.6875 4.9375 3.59435-2.39802 3.20392-5.08067 1.25-7.875 0 0-21.25757-3.40639-42.3125-5.0625-20.96041-1.64868-43.98416-2.04496-55.3125-2.04496h-35c-18.46448.0721-36.90054.75492-55.3126 2.04506z" fill="#fed100" stroke="#000" stroke-width="1.379316"/></g><g stroke-width="2.660071" transform="matrix(.79359396 0 0 .79359396 -94.6372 517.333348)"><g transform="matrix(.5055355 0 0 .38691632 -961.10956 29.49087)"><path d="m2840.0945 823.56537h89.492676v59.168652h-89.492676z" fill="#fed100" fill-rule="evenodd"/><rect fill="none" height="59.168652" ry="3.006148" stroke="#000" stroke-width="2.660071" width="89.492676" x="2840.0945" y="823.56537"/></g><g stroke-width="2.660071" transform="matrix(.5055355 0 0 .38691632 -961.10957 29.490878)"><g fill-rule="evenodd"><rect fill="#00247d" height="43.636868" ry="5.177256" stroke="#a0892c" width="70.262749" x="2849.7095" y="831.33124"/><path d="m2918.4592 873.45505c-.9358.93579-2.2301 1.51306-3.6642 1.51306h-59.9083c-1.4341 0-2.7284-.57727-3.6642-1.51306-.9357-.93579-1.513-2.2301-1.513-3.6642v-33.28236c0-1.4341.5773-2.72841 1.513-3.6642.9358-.93579 68.1724 39.67497 67.2367 40.61076z" fill="#2b96f6" stroke="#a0892c"/><g fill="#00247d" stroke="#000"><path d="m2918.4592 873.45505c-.9358.93581-2.2301 1.51306-3.6642 1.51306h-59.9083c-1.4341 0-2.7284-.57727-3.6642-1.51306-.9357-.93579-1.513-2.2301-1.513-3.6642v-33.28236c0-1.4341.5773-2.72843 1.513-3.6642.4751-.47512 18.0398 9.75875 35.0964 20.07263 16.5393 10.00109 32.601 20.07746 32.1403 20.53813z"/><path d="m2918.4592 832.84429c.9357.93579 1.513 2.2301 1.513 3.6642v33.28236c0 1.4341-.5773 2.72841-1.513 3.6642-.9358.93579-2.2301 1.51306-3.6642 1.51306h-59.9083c-1.4341 0-2.7284-.57727-3.6642-1.51306-.9357-.93579 66.3009-41.54655 67.2367-40.61076z"/><path d="m2918.4592 873.45505c-.9358.93579-2.2301 1.51306-3.6642 1.51306h-59.9083c-1.4341 0-2.7284-.57725-3.6642-1.51306-.4748-.47478 16.6003-11.16327 33.6609-21.45655 0 0 34.5115 20.52076 33.5758 21.45655z"/></g></g><g stroke="#000"><rect fill="none" height="43.636868" ry="5.177256" width="70.262749" x="2849.7095" y="831.33124"/><path d="m2865.1575 841.29156h39.366543v22.303528h-39.366543z" fill="#00247d" fill-rule="evenodd"/></g></g></g><g stroke-width="1.176461" transform="matrix(.79359396 0 0 .79359396 -94.570895 517.333348)"><g stroke-width="1.42758" transform="matrix(.86570459 -.08506627 .13596546 .77024123 -53.130928 133.63024)"><rect fill="#fed100" fill-rule="evenodd" height="22.673826" ry="10.770632" stroke="#000" stroke-width="1.428384" width="35.828732" x="494.62906" y="340.21054"/><rect fill="#306947" fill-rule="evenodd" height="16.541948" ry="8.270974" width="29.954123" x="497.56638" y="343.27649"/><rect fill="none" height="16.541948" ry="8.270974" stroke="#000" stroke-width="1.428384" width="29.954123" x="497.56638" y="343.27649"/></g><g stroke-width="1.361212" transform="matrix(-.81813585 .14281947 .15466905 .88601574 852.10246 11.280044)"><path d="m626.1653 310.88312-23.70093-12.77075 23.70093-12.0817 2.88143 13.14658z" fill="#fed100" stroke="#000" stroke-width="1.361212"/><path d="m626.1653 307.46566-17.18272-9.25855 17.18272-8.75898 5.657 8.57889z" fill="#cf142b"/><path d="m626.1653 307.46566-17.18272-9.25855 22.65964-.18009z" fill="#cf142b"/><g fill="none" stroke="#000" stroke-width="1.361212"><path d="m452.4043 250.5605 22.95329-.0249" transform="translate(156.53221 47.580051)"/><path d="m626.1653 307.46566-17.18272-9.25855 17.18272-8.75898 5.83709 8.3988z"/></g></g><g fill="#fff" stroke="#000" stroke-width="1.176461"><ellipse cx="463.659061" cy="353.664657" rx="3.823062" ry="3.885735"/><ellipse cx="464.44086" cy="365.853321" rx="3.823062" ry="3.885735"/><ellipse cx="412.223251" cy="356.477437" rx="3.823062" ry="3.885735"/><ellipse cx="413.00505" cy="368.666101" rx="3.823062" ry="3.885735"/></g><g transform="matrix(-1 0 0 1 994.39268 0)"><g stroke-width="1.42758" transform="matrix(.86570459 -.08506627 .13596546 .77024123 -53.130928 133.63024)"><rect fill="#fed100" fill-rule="evenodd" height="22.673826" ry="10.770632" stroke="#000" stroke-width="1.428384" width="35.828732" x="494.62906" y="340.21054"/><rect fill="#306947" fill-rule="evenodd" height="16.541948" ry="8.270974" width="29.954123" x="497.56638" y="343.27649"/><rect fill="none" height="16.541948" ry="8.270974" stroke="#000" stroke-width="1.428384" width="29.954123" x="497.56638" y="343.27649"/></g><g stroke-width="1.361212" transform="matrix(-.81813585 .14281947 .15466905 .88601574 852.10246 11.280044)"><path d="m626.1653 310.88312-23.70093-12.77075 23.70093-12.0817 2.88143 13.14658z" fill="#fed100" stroke="#000" stroke-width="1.361212"/><path d="m626.1653 307.46566-17.18272-9.25855 17.18272-8.75898 5.657 8.57889z" fill="#cf142b"/><path d="m626.1653 307.46566-17.18272-9.25855 22.65964-.18009z" fill="#cf142b"/><g fill="none" stroke="#000" stroke-width="1.361212"><path d="m452.4043 250.5605 22.95329-.0249" transform="translate(156.53221 47.580051)"/><path d="m626.1653 307.46566-17.18272-9.25855 17.18272-8.75898 5.83709 8.3988z"/></g></g><g fill="#fff" stroke="#000" stroke-width="1.176461"><ellipse cx="463.659061" cy="353.664657" rx="3.823062" ry="3.885735"/><ellipse cx="464.44086" cy="365.853321" rx="3.823062" ry="3.885735"/><ellipse cx="412.223251" cy="356.477437" rx="3.823062" ry="3.885735"/><ellipse cx="413.00505" cy="368.666101" rx="3.823062" ry="3.885735"/></g></g></g></g></g><g stroke="#000" stroke-width=".5"><path d="m188.63148 146.62701a88.381366 72.026016 0 1 1 -176.762723 0 88.381366 72.026016 0 1 1 176.762723 0z" fill="#f7c600"/><path d="m185.82801 146.627a85.577894 68.40264 0 1 1 -171.15578 0 85.577894 68.40264 0 1 1 171.15578 0z" fill="#fff"/><path d="m170.75282 146.627a70.502784 54.403244 0 1 1 -141.005562 0 70.502784 54.403244 0 1 1 141.005562 0z" fill="#f7c600"/><path d="m166.80005 146.62701a66.550013 50.731242 0 1 1 -133.100018 0 66.550013 50.731242 0 1 1 133.100018 0z" fill="#fff79c"/></g><path d="m166.80005 146.62701a66.550013 50.731242 0 1 1 -133.100018 0h66.550008z" fill="#9ccee7"/><path d="m76.80382 194.24762c-1.02001.00026 13.21913-1.60531 11.17381-1.80707l-1.90918-.14292c0-.72727 0-1.45455 0-2.18182h15.87817c1.43455-.98671 2.8691-1.97342 4.30365-2.96013 11.62945-.83633 23.36897-.7989 34.90909-2.55262-5.70493 2.69925-11.52423 5.46888-17.81818 5.51282-.27323.81965-.54644 1.6393-.81965 2.45895-7.47521 1.52131-14.86537 1.82009-22.40002 1.90465.50954.82446 1.01908 1.9989 1.52863 2.82336-5.93298-.0474-13.83214-.0976-24.84632-3.05522zm-16.37173-8.03372c6.12082-1.85343 11.73242-1.53775 18-1.55264v2.46909c-2.90895-.39017-5.81791-.78035-8.72686-1.17052-2.71813 3.21828-4.96418 1.2165-9.27314.25407zm31.09091-3.73445h8.85603c-.44947.72728-.89895 1.45455-1.34843 2.18182-2.50253 0-5.00507 0-7.5076 0 0-.72727 0-1.45455 0-2.18182zm17.44842.53808-1.45138-1.74881 6.45603.33263 6.45602.33264v1.09091 1.09091l-5.00465.32527-5.00464.32526zm-58.07921-4.90172c2.43376-.19105 4.59367.47285 6.80007 1.31953-2.19916 3.41951-5.00637.84176-6.80007-1.31953zm8.87368-.18323c.28267-.84801.56535-1.69603.84802-2.54404 3.75757-.10391 7.51515-.20779 11.27272-.31168v1.94804c-1.77526 0-3.55052 0-5.32578 0-1.98728 3.09639-3.8799 1.66333-6.79496.90768zm29.57529.18323v-1.09091h14.31058l-.67422 1.09091-.67421 1.09091c-4.32072 0-8.64143 0-12.96215 0zm27.4282-3.34242c2.49363.46781 4.98726.93561 7.48089 1.40342v1.939c-4.90909-.0593-9.81818-.11867-14.72727-.178 2.41549-1.05484 4.83088-2.10959 7.24638-3.16442zm-37.61425-3.74849c3.21353-.46322 6.42706-.92644 9.64059-1.38965 3.45455.38271 6.90909.76541 10.36364 1.1481v1.87792c-5.7587 0-11.5174 0-17.2761 0-1.24963.47953-2.49925.95905-3.74888 1.43858.34026-1.02498.6805-2.04997 1.02075-3.07495zm-35.63213-8.42955c3.45454.50605 6.90909 1.01209 10.36363 1.51813.69091.66744 1.38182 1.33489 2.07273 2.00233l-4.85454-.0862c-3.61853-.80202-7.58182.44978-7.58182-3.43426zm99.41111 18.49518c3.59714-1.85349 7.19428-3.70697 10.79142-5.56045-.75881-.46897-1.51762-.93794-2.27643-1.40692.48746-1.27029.97491-2.54059 1.46237-3.81088 12.10247-2.24175 8.97872-3.36108-.47895-4.01334l-8.96176-.36232c.87756 1.0574 1.75513 2.11479 2.63269 3.17219-2.19348.4387-4.38697.8774-6.58045 1.31609v2.52184c2.54545-.41308 5.09091-.82614 7.63636-1.23921v1.73465c-3.09091.74327-6.18182 1.48653-9.27273 2.2298 2 .0873 4 .17468 6 .26201v2.29315l-3.81818 1.59534c-4.68869 1.95906-4.73824 2.44973-.40012 3.96201l5.65502-.30472" fill="#75b4a1"/><path d="m166.80005 146.62701a66.550013 50.731242 0 1 1 -133.100018 0 66.550013 50.731242 0 1 1 133.100018 0z" fill="none" stroke="#000" stroke-width=".5"/><path d="m63.23437 205.01259 1.00815-2.8079.233.0836c-.0879.79576.0371 1.4746.37488 2.03652.33781.56192.8094.95156 1.41479 1.16892.50582.18161 1.02202.20283 1.54858.0637.52658-.13917.97181-.40871 1.33571-.80861.46685-.51132.83255-1.13539 1.0971-1.87221.26026-.72488.40568-1.41792.43625-2.07913.0306-.66122-.0946-1.21424-.37552-1.65907-.28091-.44482-.73204-.77878-1.35336-1.00186-.5098-.18304-1.01683-.23919-1.52108-.16844-.50425.0707-1.08932.29456-1.75521.67147l.25097-.69899c.62422-.31093 1.22052-.48464 1.78889-.52111.5684-.0365 1.18117.0633 1.83833.29921.86428.31031 1.56977.7592 2.11646 1.34666.5467.58746.88572 1.27122 1.01705 2.05126.13134.78005.0655 1.53649-.19767 2.26934-.27742.77266-.74267 1.43293-1.39575 1.9808-.65307.54786-1.39177.88964-2.2161 1.02532-.82431.13567-1.6228.0648-2.39548-.21262-.56954-.2045-1.12662-.5439-1.67123-1.0182-.31494-.27494-.52219-.43029-.62177-.46603-.12744-.0458-.25477-.0386-.38198.0213-.12719.06-.2412.18654-.34202.37966z"/><path d="m55.57454 201.26222c-1.23587-.59588-2.03385-1.47006-2.39394-2.62252-.36006-1.15247-.24146-2.29362.35579-3.42346.51026-.96523 1.24165-1.66516 2.1942-2.09981 1.26245-.57717 2.57643-.50482 3.94197.21703 1.36928.72384 2.1828 1.74744 2.44057 3.0708.20348 1.04575.0392 2.07182-.49278 3.0782-.59726 1.12984-1.47956 1.86848-2.64688 2.21592-1.16732.34742-2.3003.20204-3.39893-.43616zm.12252-.39475c.69587.36784 1.41313.29227 2.15178-.22671.60408-.42739 1.19487-1.1873 1.77235-2.27973.68626-1.2982.96533-2.37845.8372-3.24077-.0886-.60209-.41908-1.05442-.99149-1.35701-.38534-.2037-.75652-.28025-1.11356-.22966-.45579.0654-.91428.31247-1.37547.7412-.46118.42873-.91525 1.06585-1.36222 1.91136-.53199 1.00638-.83648 1.80874-.91345 2.40708-.0769.59833-.0248 1.07702.15631 1.43606.18118.35903.46069.63842.83855.83818z"/><path d="m47.0138 188.86167-5.34055 3.023-2.7568-2.16274.14496-.18478.21975.17239c.19978.15672.38702.24714.56172.27125.11982.0187.24779-.007.38391-.078.0993-.0512.28089-.2449.54469-.58118l3.50269-4.46481c.27165-.34626.42312-.57704.4544-.69235.0313-.11529.0158-.2498-.0465-.40354-.0623-.15373-.18828-.30504-.37807-.45393l-.21975-.17239.14497-.18478 3.53589 2.77394-.14496.18478-.21975-.17239c-.19976-.15671-.387-.24713-.56172-.27125-.1198-.0187-.24907.009-.38783.083-.0993.0512-.28217.24657-.5486.58617l-3.93759 5.01918 7.44355-4.14047.11986.094-2.17436 8.20158 3.74168-4.76946c.26121-.33295.41352-.54424.45695-.63388.0873-.20043.0997-.40989.0371-.62839-.0625-.2185-.24865-.44921-.55829-.69213l.14496-.18478 2.31731 1.81795-.14496.18478-.0699-.0548c-.14721-.12087-.30599-.20643-.47632-.25669-.17034-.0503-.32276-.0582-.45726-.0239s-.28144.11537-.44083.24312c-.0354.0314-.17193.19859-.40963.50157l-3.36164 4.28503c-.26903.34293-.41854.57121-.44852.68485-.03.11363-.0138.24731.0484.40105.0623.15373.18829.30504.37807.45393l.21475.16847-.14497.18479-2.76679-2.17057z"/><path d="m36.56169 178.61811-5.88367 1.74429-2.19969-2.7274.18281-.14744.17534.2174c.15941.19764.32152.32785.48632.39064.11254.0452.24308.0486.39162.0103.10829-.0275.32877-.17545.66145-.44377l4.4172-3.56255c.34258-.27628.54207-.46708.59849-.5724.0564-.1053.0716-.23985.0455-.40365s-.11485-.33957-.26629-.52734l-.17534-.2174.18282-.14744 2.82135 3.49818-.18282.14745-.17533-.21741c-.1594-.19763-.3215-.32784-.48632-.39064-.11253-.0451-.24471-.0473-.39656-.006-.10827.0275-.33041.17678-.6664.44775l-4.96564 4.00488 8.18412-2.3601.0956.11858-3.96341 7.50234 4.71859-3.80563c.3294-.26566.52533-.43728.58781-.51485.13016-.17566.18934-.37697.17754-.60394s-.14124-.49362-.38831-.79996l.18281-.14745 1.84902 2.2926-.18281.14744-.0558-.0692c-.11625-.15089-.25171-.26997-.40638-.35726-.15466-.0873-.30138-.12933-.44016-.12614-.13878.003-.30018.0491-.48422.13773-.0416.0226-.2122.15483-.51195.39659l-4.23932 3.41909c-.33927.27363-.5363.46244-.59108.56642-.0548.10397-.0691.23786-.043.40166s.11486.33957.26629.52733l.17135.21246-.18282.14745-2.20766-2.73728z"/><path d="m25.3677 170.77182 3.15895-1.51604-.0742-.15451c-.23619-.49215-.5619-.77472-.97713-.84769-.41521-.073-.93887.005-1.57097.23292l-.10436-.21747 4.06314-1.94997.10437.21746c-.42058.25818-.73679.52845-.94863.81082-.21182.28238-.31969.5442-.3236.78546-.004.24127.0829.54693.26054.917l2.18609-1.04914c.4273-.20506.67994-.34861.75792-.43063.078-.082.1237-.18727.13714-.31576.0134-.12849-.0329-.30337-.13914-.52465l-.22246-.46355c-.34788-.72487-.79451-1.22517-1.3399-1.50088-.54537-.27571-1.2072-.34416-1.98548-.20535l-.10162-.21174 2.63404-.83463 3.21883 6.70706-.21174.10161-.12359-.25752c-.10803-.22509-.23506-.38709-.38109-.48598-.10102-.0736-.2292-.10592-.38455-.0971-.11171.002-.36213.0963-.75128.2831l-5.10469 2.44982c-.35099.16845-.56196.28144-.63294.33896-.11521.10224-.18435.22225-.20741.36005-.0372.19624.005.42027.1254.67207l.12359.25752-.21174.10162-3.11722-6.49531 2.29483-1.10133.10436.21747c-.50772.37979-.83561.72843-.98366 1.0459-.14804.31748-.1914.68681-.1301 1.10799.0339.24661.19179.66368.47375 1.25122z"/><path d="m25.2386 158.4444 2.35492-.52214c.45446-.10076.73438-.19209.83975-.27397.10538-.0819.17762-.20084.21671-.35689.0391-.15603.016-.42617-.0692-.81039l.2293-.0508.9536 4.30082-.2293.0508c-.0861-.38835-.18065-.64372-.28364-.76609s-.2185-.19862-.34655-.22875c-.12805-.0301-.4193.005-.87376.10596l-5.45349 1.20918c-.45445.10076-.73437.19209-.83976.27397-.10537.0819-.1776.20084-.2167.35688-.0391.15605-.016.42618.0691.8104l-.22929.0508-.86566-3.9042c-.22534-1.01633-.31999-1.77556-.28396-2.2777.036-.50212.2101-.94382.52216-1.32511.31208-.38128.7222-.62825 1.23036-.74093.61972-.1374 1.18149-.0279 1.68529.32852.31936.22828.59987.58437.84153 1.06826l2.39655-2.65096c.30907-.34594.49669-.58476.56284-.71647.0905-.19777.11724-.40959.0802-.63544l.22929-.0508.58673 2.64618-3.22937 3.55733zm-4.12111.91376 3.68111-.8162-.0783-.35324c-.12732-.57426-.27527-.99225-.44383-1.25396s-.4083-.4437-.71923-.54598c-.31091-.10227-.68741-.1044-1.12948-.006-.64036.14199-1.0802.39664-1.31953.76396-.2393.36732-.28521.88355-.13774 1.54871z"/><path d="m19.06771 141.03587 2.98206.0895-.007.24745c-.78388.16275-1.3907.4917-1.82047.98683-.42976.49514-.6543 1.06418-.67361 1.70712-.0161.53719.12348 1.03461.41879 1.49224.29533.45764.68944.79758 1.18233 1.01982.63072.28566 1.33734.44024 2.11986.46373.76983.0231 1.47386-.0531 2.11206-.22872.63821-.17558 1.12532-.46579 1.46135-.8706s.51395-.93714.53376-1.59701c.0163-.54141-.0873-1.04092-.31064-1.49852-.22335-.45758-.61727-.94464-1.18178-1.46117l.74234.0223c.48888.49732.83862 1.01057 1.04924 1.53974.21061.52919.30544 1.14275.28449 1.84067-.0276.91788-.23603 1.72767-.62543 2.42935-.38939.70168-.93463 1.23569-1.63572 1.60202-.70109.36634-1.44078.53782-2.21908.51446-.82059-.0246-1.59243-.26267-2.31555-.7141-.7231-.45142-1.27673-1.04806-1.6609-1.7899-.38415-.74184-.56392-1.52306-.53929-2.34366.0182-.60486.16847-1.23963.4509-1.90432.16397-.38456.24753-.62973.2507-.73548.004-.13535-.0421-.25422-.13853-.35661-.0964-.10238-.25204-.17162-.46688-.20771z"/><path d="m29.16524 134.24279.22881.053-1.01508 4.38452-.22882-.053.0644-.27829c.0563-.24324.0584-.44909.006-.61755-.0329-.12055-.11276-.22592-.23957-.31609-.0884-.0682-.34293-.15106-.76345-.24842l-5.5162-1.27709c-.42876-.0993-.70198-.13863-.81968-.1181-.11768.0205-.23271.0906-.34509.21005-.11236.1195-.19574.29675-.25016.53174l-.0644.27829-.22881-.053 1.01509-4.38451.22881.053-.0644.27828c-.0563.24325-.0584.4491-.006.61756.0329.12056.11228.22798.23813.32227.0885.0683.34294.15107.76345.24842l5.5162 1.27709c.42877.0993.70223.1376.8204.115s.23343-.0936.3458-.21314c.11237-.11949.19576-.29674.25016-.53174z"/><path d="m29.75518 126.42895-1.23072 2.78031.61973.67001c.20743.2214.39434.36893.56074.44258.22056.0976.42248.0806.60576-.0512.10816-.0771.2685-.31384.48103-.71032l.21476.0951-1.15878 2.61779-.21476-.0951c.0825-.30132.0682-.58531-.0428-.85197-.11104-.26666-.40736-.66624-.88896-1.19875l-5.03424-5.59517.0488-.11029 7.71091.0188c.7313-.00022 1.21482-.0523 1.45056-.1562.17819-.0785.33006-.23337.45561-.46473l.21477.0951-1.6855 3.80769-.21476-.0951.0694-.15672c.13532-.30569.18782-.53929.1575-.70081-.0242-.11253-.0944-.1945-.21047-.24589-.0697-.0308-.14638-.0509-.23018-.0602-.0383-.008-.20906-.0139-.51241-.0186zm-.51689.007-3.22967-.0274 2.17624 2.40721z"/><path d="m37.5727 105.80697 2.43668 2.51793.12316-.11918c.39228-.37962.55743-.77794.49543-1.19495-.062-.417-.30114-.88928-.71746-1.41684l.17334-.16775 3.13413 3.23864-.17334.16775c-.37786-.31744-.73422-.53202-1.06906-.64376-.33485-.11173-.61734-.13132-.84747-.0588-.23014.0726-.49269.25154-.78766.53699l1.68625 1.74248c.32959.3406.54562.53492.64809.58299.10245.0481.21676.0582.34291.0303s.27741-.12712.45379-.29781l.36948-.35756c.57778-.55913.91129-1.14099 1.00051-1.74555.0892-.60456-.055-1.2541-.43266-1.94862l.16878-.16333 1.6243 2.23526-5.34604 5.17352-.16333-.16877.20527-.19864c.17941-.17363.29296-.34534.34063-.51515.0379-.11908.0281-.25092-.0294-.39552-.0372-.10535-.20585-.31312-.50602-.6233l-3.93753-4.06883c-.27074-.27976-.44461-.44422-.52162-.49337-.1334-.077-.26912-.10467-.40714-.083-.19796.0267-.39729.13714-.598.33136l-.20526.19864-.16333-.16877 5.17726-5.0102 1.77012 1.82915-.17333.16774c-.52079-.36167-.95518-.56257-1.30317-.6027-.34799-.0401-.7121.0355-1.09232.22674-.22326.11007-.56905.3917-1.03736.84489z"/><path d="m49.76799 99.75912 3.9612 1.53494c.65664.25443 1.08922.38512 1.29774.39207.20851.007.41379-.0444.61585-.15416l.13418.19276-3.44354 2.39724-.13418-.19275c.25986-.21184.40797-.37683.44433-.49496.0364-.11812.0231-.22233-.0397-.31263-.0435-.0625-.0944-.10962-.15252-.14132-.12116-.0703-.37812-.18021-.77086-.32961l-2.09412-.80832-.16083 2.06875c-.0449.62426-.0179 1.00758.0813 1.14998.0701.10072.17707.16548.32087.19427.14379.0288.31061.005.50044-.0699.0874-.0299.24403-.12348.46979-.28063l.13418.19275-2.71419 1.88951-.13419-.19276c.27767-.26033.46276-.51293.55526-.7578.12148-.32175.2141-.88122.27787-1.67843l.21182-2.68432-3.63604-1.39006c-.59743-.22861-.93391-.35273-1.00944-.37234-.17355-.0493-.32241-.0669-.44656-.0526s-.27456.0648-.45125.15172l-.13419-.19275 3.50606-2.44077.13418.19276-.17712.12331c-.20144.14024-.31973.27028-.35489.39013-.0351.11987-.0189.22843.0488.32566.0532.0764.11129.13395.17429.17258l.73663.29156 1.80365.72437.1103-1.4303c.0556-.73481.0182-1.19599-.11239-1.38354-.0653-.0938-.15264-.16186-.26208-.20427-.10945-.0424-.23024-.0511-.36239-.0262-.13215.025-.30416.1112-.51601.25868l-.13419-.19276 2.59959-1.80971.13418.19275c-.20249.14614-.34993.28616-.44232.42008-.0924.13393-.16506.31471-.21799.54233-.0323.14623-.0779.56213-.13687 1.2477z"/><path d="m58.58616 95.86837 1.07968 2.12855c.21057.41514.36861.66357.47412.74529.10551.0817.23964.12163.40239.11974.16274-.002.41772-.0909.76493-.26701l.10625.20946-3.90045 1.97846-.10625-.20946c.35476-.17994.5786-.335.67153-.46518.0929-.13017.13807-.26102.13542-.39254-.003-.13151-.10927-.40484-.31985-.81998l-2.52691-4.98171c-.21057-.41514-.36861-.66357-.47412-.74529-.10551-.0817-.23869-.1221-.39956-.12118-.16085.00094-.41678.0904-.76776.26844l-.10625-.20946 3.34567-1.69705c1.10201-.55897 1.99222-.76378 2.67061-.61441.67839.14939 1.1669.51845 1.46554 1.10719.25268.49818.31427 1.00313.18475 1.51486-.12953.51174-.43347.96959-.91184 1.37357-.32014.27627-.91611.63551-1.7879 1.07771zm-1.90668-3.75892 1.6827 3.31736c.12837-.0556.22463-.0997.28879-.13225.46043-.23354.7458-.5503.85609-.95027.1103-.39995.02-.88676-.27102-1.46042-.28906-.56987-.62514-.92372-1.00823-1.06157-.38308-.13782-.82183-.0813-1.31622.16941z"/><path d="m63.08305 88.49571 4.18498-1.4931.0789.22121-.20925.0747c-.31487.11235-.51936.22237-.61347.33008-.0941.10772-.14547.22826-.15405.36161-.009.13337.0696.43122.23455.89355l1.41632 3.96976c.2588.7254.48495 1.18612.67846 1.38217.1935.19605.44353.327.75009.39286.30656.0659.65115.0305 1.03378-.10599.43842-.15641.77688-.38837 1.01539-.69587.2385-.3075.37262-.66199.40236-1.0635.0297-.4015-.10898-1.03271-.41613-1.89362l-1.17955-3.30614c-.1294-.36269-.2597-.60825-.39088-.73668-.13119-.12842-.26524-.2019-.40215-.22046-.21207-.0277-.48151.0168-.80834.13338l-.0789-.2212 2.80394-1.00038.0789.22121-.1674.0597c-.22719.0811-.40015.19444-.5189.34014-.11875.14572-.1793.32233-.18164.52984-.006.14603.0495.38446.16757.71526l1.0985 3.07895c.33985.95259.52237 1.66252.54756 2.12979.0252.46728-.14208.96502-.50177 1.49323-.35971.52822-.96004.94234-1.80102 1.24238-.70149.25028-1.27696.35-1.72642.29919-.61313-.0688-1.09842-.2641-1.45584-.58588-.35743-.32178-.6563-.81946-.89662-1.49305l-1.41631-3.96975c-.16638-.46632-.29573-.74704-.38808-.84215-.0923-.0951-.21437-.15378-.36608-.17604-.15172-.0222-.39825.0298-.7396.15604z"/><path d="m83.34777 88.41987.34287 3.01937-7.4587 1.6664-.0512-.22921.27877-.0623c.24367-.0544.43015-.14163.55946-.26158.0945-.0818.15491-.19938.18136-.35272.0233-.10927-.0121-.37453-.10625-.79578l-1.23457-5.52588c-.096-.42951-.17865-.69288-.24807-.79012-.0694-.0972-.18231-.17064-.33865-.22027-.15635-.0496-.35223-.0481-.58763.004l-.27878.0623-.0512-.22921 4.47894-1.00067.0512.22921-.3655.0817c-.24367.0545-.43016.14164-.55946.26158-.0945.0818-.15698.19985-.18755.3541-.0233.10928.0121.37454.10624.79579l1.19583 5.35242c.096.42951.18186.69759.25772.80422.0759.10663.19252.17271.34999.19823.11155.0141.36556-.0231.76204-.11172l.70003-.15639c.44602-.0996.80019-.26117 1.06249-.48454.26229-.22337.46401-.52861.60518-.91571.14115-.38709.23497-.93272.28145-1.63688z"/><path d="m90.97745 81.6148.39903 2.84212-.25853.0299c-.20457-.70053-.57058-1.24074-1.09803-1.62065-.52745-.37989-1.06862-.53775-1.62351-.47358-.42879.0496-.75499.20342-.97861.46144-.22363.25805-.31818.5363-.28365.83476.0219.18917.0855.35222.19076.48913.14476.18348.36285.35635.65425.51859.21362.11588.69817.30904 1.45366.57949 1.05737.37612 1.7858.7626 2.18528 1.15942.39527.39733.62549.87764.69065 1.44094.0826.71463-.12474 1.36164-.62216 1.94103-.49744.57938-1.17494.91867-2.0325 1.01786-.26904.0311-.52653.0332-.77246.006-.24594-.0269-.55842-.0952-.93744-.20467-.21151-.0607-.38242-.0836-.51273-.0685-.1093.0126-.22004.068-.33222.16623-.11219.0982-.19615.23781-.25188.41892l-.23331.027-.37342-3.22847.23331-.027c.28999.88662.72636 1.53798 1.30912 1.95408.58275.4161 1.1789.5889 1.78845.5184.47081-.0545.83117-.22607 1.08106-.51483.24988-.28876.35514-.60339.31576-.9439-.0234-.20178-.0996-.39105-.22862-.56782-.12909-.17677-.31277-.33764-.55105-.48261-.23829-.14496-.65068-.32198-1.23718-.53104-.82194-.29259-1.41872-.55371-1.79034-.78337-.37162-.22965-.66807-.49995-.88935-.8109-.22127-.31094-.355-.66609-.40119-1.06545-.0788-.681.10425-1.29004.54906-1.82714.44482-.53708 1.04767-.84963 1.80854-.93764.27745-.0321.55038-.0296.81879.008.20341.0276.45489.0933.75445.19709.29955.10381.50608.14915.61959.13601.10929-.0126.19158-.0562.24686-.13079.0553-.0745.0954-.2432.1204-.50596z"/><path d="m99.26916 89.77584.008.23473-4.4979.15262-.008-.23473.28548-.01c.24953-.008.44891-.0597.59816-.15368.10795-.0629.18909-.16731.24343-.31312.0431-.10308.0573-.37032.0427-.80171l-.19202-5.65886c-.0149-.43984-.0475-.71396-.0978-.82235-.0503-.10838-.14762-.2014-.2921-.27907-.14448-.0777-.33726-.1124-.57833-.10423l-.28548.01-.008-.23473 4.49789-.15262.008.23473-.28548.01c-.24954.008-.44892.0597-.59816.15368-.10796.063-.19121.16739-.24977.31334-.0431.10309-.0573.37032-.0427.80171l.19201 5.65885c.0149.43985.0486.71393.10094.82225.0524.10831.15079.2013.29528.27896.14447.0777.33725.11241.57833.10423z"/><path d="m107.4801 81.4512-.0622 2.86931-.25998-.012c-.0895-.72428-.36407-1.31623-.82371-1.77586-.45965-.45962-.96847-.70228-1.52647-.72799-.43119-.0198-.77785.0796-1.03998.29842-.26214.21881-.40012.47828-.41394.77841-.009.19023.0278.36137.1098.5134.11344.20434.30095.40996.56254.61687.19226.14866.63953.41708 1.34182.80527.98331.54093 1.64027 1.0393 1.97089 1.49509.32639.45561.47654.96664.45045 1.53309-.0331.71864-.34164 1.32398-.9256 1.81603-.58397.49204-1.30713.71821-2.1695.67849-.27055-.0125-.52503-.0517-.76345-.11777-.23843-.0661-.53591-.18354-.89245-.35247-.19901-.0939-.36404-.14386-.49509-.14989-.10991-.005-.22811.0318-.35459.11075-.12649.0789-.23177.20326-.31584.37307l-.23461-.0108.14953-3.24656.23461.0108c.14394.92166.47013 1.63461.97856 2.13884.50842.50423 1.06911.77046 1.68207.79869.47346.0218.85668-.0898 1.14967-.33466.29299-.24492.44737-.53858.46315-.881.009-.2029-.0355-.40196-.13454-.59715-.099-.19519-.25452-.38345-.46645-.56478-.21194-.18133-.59058-.42223-1.13592-.72271-.76433-.4207-1.31147-.77421-1.64142-1.06053-.32995-.28631-.57918-.60068-.74768-.94311-.16851-.34242-.24351-.71443-.22502-1.11603.0315-.68481.30994-1.25659.83518-1.71534.52524-.45874 1.17043-.67049 1.93557-.63526.279.0129.54799.0591.80697.13884.19634.0599.43402.16509.71304.31561.27901.15054.47559.22843.58973.23368.1099.005.19812-.0248.26465-.0895.0665-.0647.1332-.22473.20003-.48007z"/><path d="m120.36372 88.24192-.51258 2.33103c-.1.45463-.13501.74698-.10512.87704.0299.13006.10841.2459.23555.34751.12714.10162.38083.19423.76107.27785l-.0504.22938-4.27148-.93928.0504-.22938c.3885.0854.65993.1072.8143.0653.15436-.0419.27216-.11455.3534-.21801.0812-.10345.17185-.3825.27182-.83713l1.19967-5.45559c.1-.45463.135-.74698.10511-.87704-.0299-.13006-.10738-.24567-.23245-.34684-.12507-.10115-.37979-.19399-.76416-.27852l.0504-.22939 3.66392.80569c1.20684.26538 2.02545.6707 2.45583 1.21595.43037.54526.57467 1.14027.4329 1.78501-.11998.54557-.39213.97534-.81646 1.28931-.42434.31399-.94954.4758-1.57559.48545-.42272.011-1.11144-.0884-2.06617-.29836zm.9052-4.11649-.79886 3.63293c.13456.0383.23698.0651.30725.0806.50422.11088.92567.0465 1.26435-.19318.33866-.23965.57707-.67359.71522-1.30182.13722-.62408.10126-1.11077-.1079-1.46007-.20916-.34929-.58446-.58347-1.12588-.70253z"/><path d="m129.83563 94.65234-.0712.22381-4.28882-1.36397.0712-.22381.27221.0866c.23793.0757.44295.0942.61506.0557.12281-.0231.23424-.0942.33431-.21341.0751-.0827.17812-.32969.30894-.74103l1.71602-5.3958c.13338-.4194.19456-.68858.18355-.80755-.011-.11895-.0716-.23923-.18165-.36084-.11009-.1216-.28007-.21895-.50993-.29207l-.27221-.0866.0712-.22381 4.28882 1.36397-.0712.22381-.27221-.0866c-.23794-.0757-.44296-.0942-.61506-.0557-.12282.0231-.23627.0936-.34036.21149-.0752.0827-.17813.32969-.30894.74102l-1.71602 5.39581c-.13339.41941-.19356.68891-.18053.80851.013.1196.0746.2402.18468.3618.11008.12161.28006.21896.50993.29206z"/><path d="m136.19654 93.1648-.96932 2.20878c-.18707.42625-.27867.70608-.27482.83947.004.1334.0572.26194.16003.38564.10284.12369.33445.26462.69483.42277l-.0944.21507-4.03392-1.77029.0944-.21506c.36426.15985.62617.23436.78574.22351.15958-.0108.28933-.059.38926-.14458.0999-.0855.24342-.34144.43048-.7677l2.24474-5.11506c.18706-.42625.27866-.70608.27482-.83948-.004-.13339-.0572-.26193-.16003-.38564-.10285-.12368-.33446-.26461-.69484-.42277l.0944-.21506 3.66191 1.60703c.95326.41834 1.62186.79032 2.0058 1.11593.38393.32562.6376.72693.76101 1.20393.12339.47701.0805.95383-.12865 1.43046-.25509.58125-.67521.96993-1.26037 1.16602-.37282.12292-.82583.139-1.35905.0483l.72406 3.49954c.0967.45371.17858.74616.24581.87732.10615.18985.2613.3365.46546.43996l-.0944.21507-2.48197-1.08921-.96367-4.70689zm1.69631-3.86536-1.5152 3.45267.33131.1454c.53863.23638.96332.36383 1.27407.38235.31073.0185.59918-.0675.86534-.25799.26614-.19052.4902-.49309.67216-.90772.26358-.60063.31782-1.10597.16273-1.51602-.1551-.41004-.5446-.75195-1.16847-1.02575z"/><path d="m147.33582 100.63543-2.58126-1.60683-.74997.52012c-.24819.1745-.42037.33898-.51653.49346-.12748.20478-.13877.4071-.0339.60698.0612.11786.27329.30969.63621.57548l-.12412.19939-2.43037-1.5129.12412-.19939c.28686.12374.57006.14924.84961.0765.27955-.0727.71659-.31035 1.31111-.71289l6.24322-4.20379.10239.0637-1.09511 7.63278c-.10187.72417-.11782 1.21022-.0478 1.45815.0528.18741.18501.35942.39657.51604l-.12412.19939-3.53509-2.20059.12412-.19938.1455.0906c.28381.17667.5078.26127.67196.2538.11482-.008.20577-.0663.27287-.17409.0403-.0647.0708-.13784.0918-.21951.0129-.0368.0429-.20508.0899-.5048zm.065-.51283.47803-3.19421-2.68746 1.81885z"/><path d="m162.53261 104.59758-1.52027 1.76515-.17315-.14913c.24811-.49559.38628-.88622.41451-1.17188.0282-.28566-.0211-.57529-.14803-.8689-.0722-.16265-.26052-.37516-.56513-.63751l-.48578-.41839-4.33298 5.03092c-.28721.33347-.44828.55777-.4832.6729-.0349.11512-.0256.25021.028.40525s.17333.31264.35931.47282l.21643.18641-.15327.17796-3.41487-2.94113.15327-.17796.21644.18641c.18918.16294.37048.26045.54391.29253.12203.0269.25404.007.39603-.061.10155-.0466.29317-.2334.57486-.56046l4.33298-5.03092-.47135-.40596c-.43929-.37833-.83842-.56013-1.19739-.54538-.50265.0195-.99798.23792-1.48596.65537l-.18277-.15741 1.52027-1.76516z"/><path d="m161.62875 116.00423-.17594.15558-2.98126-3.37141.17594-.15558.18922.21398c.16539.18703.33183.30818.49932.36344.11727.0432.24941.0393.39645-.0116.10691-.0324.32205-.19158.6454-.47751l4.24161-3.75076c.32969-.29153.52033-.49118.57192-.59894.0516-.10775.0613-.24206.0292-.40293-.0321-.16086-.12804-.33164-.28782-.51234l-.18922-.21398.17594-.15558 2.98127 3.37142-.17595.15558-.18922-.21399c-.1654-.18703-.33184-.30818-.49932-.36343-.11727-.0432-.25082-.0409-.40065.007-.10692.0324-.32206.19158-.6454.47751l-4.24162 3.75076c-.32969.29153-.51963.49197-.56981.60132-.0502.10933-.0592.24444-.0271.4053s.12803.33164.28781.51234z"/><path d="m173.36716 117.76492-2.35142 1.64551-.14398-.2168c.53137-.50023.84662-1.07156.94576-1.71398.0991-.64242-.006-1.19629-.31488-1.66161-.23881-.35956-.52392-.58041-.85534-.66257-.33143-.0821-.62228-.0401-.87256.12612-.15863.10535-.27506.23602-.34926.39198-.0978.21227-.15285.48506-.16516.81836-.006.24294.0415.76238.1434 1.55832.14476 1.1129.13099 1.93739-.0413 2.47346-.17465.53255-.49815.95568-.97051 1.26941-.59928.398-1.26994.50686-2.01197.32658-.74204-.18029-1.35187-.62999-1.82947-1.34912-.14984-.22561-.26857-.4541-.35619-.68546-.0876-.23137-.16866-.54078-.24309-.92823-.0419-.21603-.0991-.37868-.17168-.48796-.0609-.0917-.16051-.16518-.29891-.22059-.13839-.0554-.30093-.0668-.4876-.0343l-.12994-.19565 2.70731-1.79804.12994.19564c-.65842.66081-1.04077 1.34528-1.14705 2.05341-.10629.70813.0103 1.31777.34979 1.82892.26221.39481.57868.63802.94941.72963.37072.0916.69885.0426.98439-.14704.1692-.11238.30327-.26619.40221-.46144.0989-.19525.1589-.43193.17993-.71005.021-.27813-.008-.72594-.0883-1.34344-.11234-.8652-.15052-1.51549-.11455-1.95086.036-.43538.14227-.82221.31892-1.16051.17664-.3383.43241-.61866.7673-.84107.57107-.37928 1.19684-.49262 1.87732-.34003.68046.1526 1.23257.54792 1.65634 1.18597.15451.23266.27615.477.36491.73302.0677.19377.12332.44768.1668.76171.0435.31404.0968.51865.16001.61383.0609.0916.13706.14519.22859.1606.0915.0154.26001-.0254.50549-.12235z"/><path d="m175.44512 135.57362-2.36293.48459c-.456.0935-.73734.18037-.84401.26056-.10667.0802-.18079.19799-.22235.35339-.0416.1554-.0228.42587.0562.8114l-.23007.0472-.88502-4.31545.23008-.0472c.0799.38968.17038.64651.27141.77051.10102.124.21531.20207.34286.23423.12755.0322.41933.001.87534-.092l5.47205-1.12221c.45599-.0935.73733-.18038.84401-.26057.10666-.0802.18078-.19799.22235-.35339.0416-.1554.0228-.42586-.0562-.8114l.23007-.0472.80341 3.91749c.20913 1.01979.29168 1.78043.24766 2.28193-.044.50148-.2251.94036-.54319 1.31663-.31811.37626-.73211.61668-1.242.72125-.62183.12752-1.18178.009-1.67985-.35531-.31568-.23333-.59049-.59384-.82441-1.08152l-2.43845 2.61248c-.31454.34097-.50593.57677-.57418.70741-.0936.19631-.12374.40768-.0903.63409l-.23007.0472-.54453-2.65519 3.28559-3.50547zm4.13513-.84804-3.69363.75749.0727.35444c.11817.57622.25944.99652.42381 1.26088.16437.26435.40118.45014.71045.55736.30925.1072.68566.11532 1.12923.0244.64255-.13178 1.08639-.37939 1.33152-.74285.24512-.36346.29925-.87891.16238-1.54633z"/><path d="m180.87665 147.83166-3.50141-.13231-.006.17126c-.0206.5455.13571.94736.46897 1.20558.33326.25821.83268.43377 1.49827.52668l-.009.24104-4.50362-.17019.009-.24104c.49245-.0322.89822-.1238 1.2173-.27478.31908-.15099.53661-.33227.65259-.54386.11598-.2116.18173-.52249.19723-.93267l-2.42308-.0916c-.47362-.0179-.76405-.009-.87128.0274-.10724.0362-.19676.10796-.26858.21536-.0718.10739-.11236.28371-.12162.52899l-.0194.51379c-.0304.80346.13137 1.45431.48521 1.95258.35383.49824.90734.86747 1.66053 1.10768l-.009.23469-2.71927-.49024.28093-7.43414.23469.009-.0108.28544c-.009.24949.0274.45204.11043.60763.0551.11218.15334.20059.29488.26523.0997.0503.36527.0837.7966.1l5.65807.21381c.38904.0147.62836.0132.71797-.005.1496-.0367.26673-.11061.3514-.22175.12447-.15622.19198-.37388.20254-.65297l.0108-.28544.2347.009-.27206 7.19945-2.54359-.0961.009-.24104c.62625-.0992 1.0789-.25461 1.35793-.46639.27902-.21179.48964-.51826.63185-.91942.0851-.23394.1399-.67652.16451-1.32774z"/><path d="m179.24866 162.47771-2.79592-.6478.0649-.25203c.72727.0605 1.36287-.0872 1.90679-.44308.54392-.35593.88552-.80437 1.02481-1.34531.10762-.41801.0812-.77769-.0794-1.07903-.16057-.30135-.38634-.48948-.6773-.56439-.18442-.0475-.35942-.0467-.52501.002-.22321.0692-.46284.21075-.71888.42449-.18484.15779-.53906.5407-1.06268 1.14875-.73062.85188-1.35282 1.39303-1.8666 1.62344-.51273.2263-1.04366.26875-1.59281.12737-.69668-.17939-1.22612-.60521-1.58832-1.27747-.36221-.67226-.43568-1.4264-.22042-2.26241.0675-.26228.15801-.50335.27143-.72323.11342-.21987.28927-.48704.52755-.80148.13261-.17561.21527-.32693.24798-.45397.0274-.10656.0155-.2298-.0359-.36975s-.15156-.26844-.30059-.38547l.0586-.22744 3.14734.81038-.0586.22745c-.93162-.0476-1.69621.12586-2.29377.52041s-.97285.88893-1.12585 1.48316c-.11818.45899-.0874.85692.0924 1.19382.17982.33689.4357.54807.76764.63354.19671.0506.40073.0475.61205-.01.21132-.057.4274-.17072.64825-.34108.22084-.17037.53409-.49173.93975-.96409.56814-.66213 1.02608-1.1254 1.37383-1.38982.34775-.26441.70645-.44407 1.0761-.53898.36965-.0949.74913-.0922 1.13846.008.66389.17094 1.16664.5604 1.50826 1.16836.34161.60797.41693 1.28283.22595 2.02459-.0697.27047-.16997.5243-.30096.76151-.0988.17994-.25037.39108-.45477.63342-.20442.24232-.32087.41881-.34936.52946-.0274.10654-.0163.199.0335.27736.0497.0784.19274.17634.42902.29399z"/><path d="m174.02353 174.15006-2.09207-1.0248.10052-.20522c.54221.1148.95507.14976 1.2386.10487.28351-.0449.55127-.16584.80327-.36282.13914-.11091.29714-.34688.474-.7079l.28203-.57575-5.9627-2.92083c-.39523-.19361-.65295-.29276-.77317-.29745-.12021-.005-.24856.0385-.38503.12947-.13646.091-.25869.24672-.36666.46714l-.12566.25652-.21091-.10332 1.98258-4.04733.21092.10332-.12566.25652c-.10983.22421-.15835.42428-.14556.60018.005.12487.0578.24745.15913.36776.0707.0865.29992.22466.68755.41454l5.96269 2.92083.27365-.55865c.25503-.52065.33005-.95276.22506-1.29635-.14588-.48142-.48242-.90545-1.00965-1.27209l.10611-.21662 2.09207 1.0248z"/><path d="m162.54483 176.10607-.19123-.13636 2.61293-3.66429.19122.13636-.16584.23257c-.14496.20329-.22548.39275-.24157.56838-.0157.12398.0179.25185.10066.38363.0557.0969.25922.2706.61066.5212l4.61007 3.28735c.35833.25552.5958.39627.71242.42225.1166.026.24965.005.39915-.0623.14949-.0675.29426-.19947.43431-.39586l.16584-.23257.19122.13635-2.61292 3.66429-.19123-.13636.16584-.23257c.14496-.20329.22548-.39275.24158-.56837.0156-.12399-.0167-.25359-.097-.3888-.0557-.0969-.25922-.27061-.61066-.52121l-4.61007-3.28735c-.35833-.25552-.59642-.39541-.71426-.41966-.11783-.0243-.2515-.003-.40099.0649-.1495.0675-.29427.19946-.43431.39586z"/><path d="m161.79492 189.36452-1.67913-1.61478.1584-.16471c.48124.27491.8637.43429 1.14738.47814.28369.0438.57559.0104.87571-.10015.16637-.0631.38888-.23956.66755-.52932l.44439-.4621-4.78573-4.60235c-.31722-.30507-.53235-.4782-.64539-.51938-.11303-.0412-.24842-.0393-.40617.006-.15774.045-.32168.15592-.49181.33284l-.198.20588-.16929-.16279 3.12397-3.24845.16929.1628-.198.20589c-.17306.17996-.28037.35564-.32192.52705-.0336.12037-.0205.25329.0392.39878.0409.10395.21697.30552.52808.60472l4.78574 4.60236.4312-.44838c.40185-.41788.60526-.80644.61022-1.16568.008-.50296-.18284-1.00952-.57289-1.51967l.1672-.17386 1.67912 1.61479z"/><path d="m158.94164 191.90383-3.5646 2.65275-.14022-.18841.17823-.13264c.2682-.1996.43152-.36466.48999-.4952.0585-.13055.0723-.26084.0414-.39086-.0308-.13004-.19278-.39196-.48584-.78576l-2.51632-3.38127c-.45981-.61787-.81092-.99221-1.05334-1.12303s-.51983-.18285-.83224-.15608c-.3124.0268-.63156.16141-.95747.40395-.37343.27791-.62917.59878-.76721.96263-.13804.36384-.16252.74207-.0734 1.1347.0891.39261.4065.95556.9522 1.68886l2.09568 2.81603c.2299.30892.42637.50559.5894.59.16304.0844.31273.11541.44907.0931.21088-.0356.45551-.15701.73388-.36416l.14022.18841-2.38828 1.77734-.14022-.18841.14259-.10611c.19351-.14402.32571-.30307.3966-.47714.0709-.1741.0771-.3607.0186-.5598-.0367-.14149-.15991-.35312-.36961-.63488l-1.95166-2.62252c-.60381-.81138-.98615-1.43679-1.14702-1.87622-.16086-.43944-.14663-.96434.0427-1.5747.18932-.61037.64214-1.18209 1.35845-1.71517.5975-.44465 1.11857-.70846 1.56321-.79144.60642-.11369 1.12761-.069 1.56358.13405.43596.20306.86743.59145 1.29439 1.16518l2.51632 3.38128c.29559.39719.50146.62775.6176.69166.11613.0639.24999.0843.40158.0612.15158-.0231.37209-.14504.66152-.3657z"/><path d="m142.0116 202.69374-1.10261-2.05213.2013-.10816c.37367.40932.68877.67838.94531.80716.25655.12877.54461.18657.86419.1734.17771-.009.44363-.10867.79777-.29894l.56476-.30344-3.14259-5.84886c-.2083-.38769-.35992-.61847-.45487-.69236-.0949-.0739-.22438-.11363-.38832-.11922-.16393-.006-.35401.0497-.57022.16586l-.25163.1352-.11116-.20689 3.97007-2.13311.11116.20689-.25163.1352c-.21993.11817-.37597.25245-.46811.40284-.0689.10426-.0972.23479-.0851.39158.007.11149.11275.35736.31705.73759l3.14258 5.84886.54798-.29443c.5107-.27441.82353-.58181.93848-.92219.16208-.47621.13577-1.01693-.0789-1.62215l.21248-.11417 1.10261 2.05214z"/><path d="m131.9199 200.1823 2.84576-1.07071.0436-.91163c.0125-.30313-.0132-.53985-.0773-.71016-.0849-.22576-.23862-.35784-.46105-.39623-.13078-.0231-.41205.0284-.84381.15471l-.0827-.21982 2.67941-1.00812.0827.21982c-.27274.15235-.4653.36158-.57769.62767-.11239.2661-.18974.75751-.23205 1.47424l-.46281 7.51235-.11288.0425-5.39083-5.51339c-.5127-.52148-.88871-.82989-1.12805-.92521-.18085-.0721-.39779-.0719-.65081.00071l-.0827-.21982 3.89733-1.46636.0827.21982-.16041.0603c-.31289.11773-.51632.244-.61028.37882-.0633.0962-.0726.20365-.0279.32247.0268.0713.0663.14009.11835.20641.0213.0327.13664.15883.34588.37852zm.3674.36364 2.24398 2.32294.19186-3.23941z"/><g stroke="#000"><g stroke-width=".5" transform="translate(-799.75 -155.70219)"><path d="m910.13199 258.07453v-3.14441c-11.65537-1.65435-22.34621-1.29056-30.2795 1.39752 10.62477-.65811 20.58217.24097 30.2795 1.74689z" fill="#4892a2"/><g fill="#f7dec6"><path d="m860.18058 288.51343c4.23333 1.35334 6.04351 3.5943 5.92915 7.43203 2.40564-2.44386 6.25135.89675 7.44818 2.0999 2.73342-18.50058 8.36988-23.39322 13.67444-30.40751z"/><path d="m900.07886 267.96725c-2.3154 4.11747-.99349 8.31729-.4941 12.43476l-15.31698.0823c-1.56101-5.17009.35323-8.95008 1.97638-12.84651z"/><path d="m882.95019 280.48436c-4.72714 5.60403-3.66981 11.94021-2.96458 17.78747l18.77566-.9882c-2.64773-4.88192-2.83384-11.38898-.1647-16.30518z"/><path d="m919.51332 260.8852c-2.35001 5.00801-2.63064 10.08993 1.15289 15.31699l-17.45807.1647c-1.86099-6.55665-.61079-10.97436.98819-15.15229z"/><path d="m900.49061 276.36689c-2.77133 6.52331-6.19024 12.45536-2.05874 25.28126l23.05783-.0823c-4.14923-8.57179-4.09463-17.66398-.43001-25.11656z"/><path d="m918.11338 285.17827c-2.01777 3.89258-4.04793 7.7842-.4941 12.10536h12.18771c-2.42395-4.28349-2.73659-8.23361-.98819-11.85831z"/></g><path d="m879.49151 311.61243 2.79988 6.25855c16.98809.18009 35.74881-.52613 50.39783.8235l4.11747-7.08205z" fill="#5a6b6b"/></g><g fill="none" transform="translate(-799.75 -155.70219)"><path d="m866.8097 303.37749 12.76416 8.15259c-8.88698-7.55823-14.58255-17.03132-21.49319-25.77536" stroke-width=".5"/><path d="m895.1379 311.61243v-54.3506"/><path d="m923.63079 311.44773v-49.24494"/><path d="m909.96079 311.44773v-57.80927" stroke-width="1.5"/><path d="m899.05071 276.36689h22.65365"/><path d="m881.79729 280.48436h16.9228"/><path d="m917.37222 285.42532h11.98323"/><path d="m885.75007 267.96725h16.1147"/><g stroke-width=".5"><path d="m860.22175 288.3899 34.91615-27.34 6.25855 6.91735"/><path d="m910.45488 255.94424 4.21666 5.04472"/><path d="m876.03284 308.31845 19.10506-22.72843"/><path d="m870.59778 302.0599 18.77566-21.74024"/><path d="m880.0621 298.18534 10.62893-17.53628"/><path d="m866.0068 295.98664 14.42381-23.40697"/><path d="m896.62267 280.43478 12.92702-12.92702"/><path d="m885.32609 311.5295 9.66615-22.82608"/><path d="m895.22516 299.06832-7.2205 12.22826"/><path d="m900.5823 311.76242-5.70652-11.18012"/><path d="m896.50621 311.5295 4.89131-11.41304"/><path d="m909.89907 311.29658-15.25621-19.91459"/><path d="m897.08851 294.5264 12.92702-14.32454 7.33696 18.51708"/><path d="m923.87423 280.90062-3.26087 4.60016"/><path d="m929.11491 285.03494-5.53183-4.77485"/><path d="m920.61336 276.41692 2.62034-5.53183"/><path d="m926.78572 277.75621h-6.46351"/><path d="m923.46662 270.59394 2.96972 7.04581"/><path d="m923.58308 288.76164-12.81056 22.70963"/><path d="m931.03649 311.70419-11.5295-14.49922"/><path d="m923.52485 292.31366 7.04581 18.98292"/><path d="m917.41072 311.5295 6.11413-16.18789"/><path d="m915.08152 311.64596-5.00776-15.89674"/><path d="m902.15451 311.58773 13.62577-17.5854"/></g></g><g stroke-width=".5"><path d="m54.0485 156.85726s.89088 2.77474 5.02332 2.67635c3.55682-.0847 5.06449-2.71753 5.06449-2.71753-2.81557.8339-5.85028.848-10.08781.0412z" fill="#5a6b6b"/><g fill="#f7dec6"><path d="m54.41907 156.9396c1.35241-2.03616 1.94876-4.97961 2.79988-7.61731-.13411 2.6073-.96699 5.00497-.12352 7.90554z"/><path d="m58.98947 157.43371c-.34736-4.9013.95046-6.50585 1.64698-8.93492-.19827 3.20565-.098 8.19852-1.64698 8.93492z"/><path d="m62.65401 157.04254c1.54826-1.00672 1.45419-3.77308 1.27642-6.52619-.95392 1.59528-1.86529 3.84312-1.27642 6.52619z"/></g><g transform="translate(-816.38458 -158.50207)"><path d="m853.7985 312.55945s.89088 2.77474 5.02332 2.67635c3.55682-.0847 5.06449-2.71753 5.06449-2.71753-2.81557.8339-5.85028.848-10.08781.0412z" fill="#5a6b6b"/><g fill="#f7dec6"><path d="m854.16907 312.64179c1.35241-2.03616 1.94876-4.97961 2.79988-7.61731-.13411 2.6073-.96699 5.00497-.12352 7.90554z"/><path d="m858.73947 313.1359c-.34736-4.9013.95046-6.50585 1.64698-8.93492-.19827 3.20565-.098 8.19852-1.64698 8.93492z"/><path d="m862.40401 312.74473c1.54826-1.00672 1.45419-3.77308 1.27642-6.52619-.95392 1.59528-1.86529 3.84312-1.27642 6.52619z"/></g></g></g><g transform="translate(-799.75 -155.70219)"><path d="m931.94847-245.72238 33.43603.39012-.0256.54289 11.66242-.47819-.83663 16.5542-11.08891-1.03269.0186 1.04473-26.70807.0291z" fill="#f7c600" stroke-width=".50001" transform="matrix(.80820899 .58889577 -.59619613 .80283882 0 0)"/><path d="m916.38404 384.49164 10.04663-12.92885m-1.85286 2.38813 9.61429 6.52619m-11.44657-4.22041 9.5937 6.69089m-10.93188-5.08508 8.89374 7.28793m-10.45838-5.18802 8.72904 7.1644m-10.37602-5.27036 8.58492 7.55555" fill="none" stroke-width=".5"/><path d="m932.27653-241.96267 29.19561.20268.62826 9.83817-23.05325.11268z" fill="#fff" stroke-width=".50001" transform="matrix(.80820899 .58889577 -.59619613 .80283882 0 0)"/><g fill="#f7c600"><path d="m910.29285 269.63425h19.73301v21.46148h-19.73301z" stroke-width=".50001" transform="matrix(.99599549 .08940348 -.09842621 .99514435 0 0)"/><g stroke-width=".5" transform="matrix(.99569987 .0926378 -.0917987 .99577758 0 0)"><path d="m911.2135 269.53622h12.84213v15.79332h-12.84213z"/><path d="m915.93817 276.32639h3.03681v3.73469h-3.03681z"/></g></g><g fill="none" stroke-linejoin="round"><path d="m904.85515 365.38657a1.070545 1.9763909 0 1 1 -2.14109 0 1.070545 1.9763909 0 1 1 2.14109 0z" opacity=".451923" stroke-width=".474839" transform="matrix(1.1087857 0 0 1 -98.377034 0)"/><path d="m904.85515 365.38657a1.070545 1.9763909 0 1 1 -2.14109 0 1.070545 1.9763909 0 1 1 2.14109 0z" opacity=".451923" stroke-width=".474839" transform="matrix(1.1087857 0 0 1 -87.371599 8.792702)"/><path d="m904.85515 365.38657a1.070545 1.9763909 0 1 1 -2.14109 0 1.070545 1.9763909 0 1 1 2.14109 0z" opacity=".451923" stroke-width=".402399" transform="matrix(1.5439283 0 0 1 -485.47989 4.367236)"/></g><g fill="#f7c600" stroke-width=".5"><path d="m821 360v19c24 6 38.9875 45 79 45s55-39 79-45v-19c-39 0-44 40-79 40s-40-40-79-40z"/><path d="m818.65295 375.58228-18.57531-6.87112m18.57531 4.60986-18.57531-6.87112m18.57531 4.60987-18.57531-6.87112m18.57531 4.60987-18.57531-6.87112m18.57531 4.60985-18.57531-6.87112m18.57531 4.60987-18.57531-6.87112m18.57531 4.60987-18.57531-6.87112m18.92236 4.85637-19-8v19l19 7z"/><path d="m818 359h3v20h-3z"/><path d="m981.34705 375.58228 18.57531-6.87112m-18.57531 4.60986 18.57531-6.87112m-18.57531 4.60987 18.57531-6.87112m-18.57531 4.60987 18.57531-6.87112m-18.57531 4.60985 18.57531-6.87112m-18.57531 4.60987 18.57531-6.87112m-18.57531 4.60987 18.57531-6.87112m-18.92236 4.85637 19-8v19l-19 7z"/><path d="m-982 359h3v20h-3z" transform="scale(-1 1)"/></g></g><path d="m21.25 219.29781c31.76839 5 33.90614 44 79 44s47.23161-39 79-44l-.0312-10c-37.583.0172-39.40441 38-78.96875 38s-41.38575-37.98281-78.96875-38z" fill="#fff" stroke-width=".5"/></g><g transform="translate(-799.75 -155.70219)"><path d="m832.79814 375.91747-1.01544.25466-1.28746-.79275-.40765.66203 7.25944 4.46998c.31138.19173.69644.41149 1.1552.65927.45387.23007.93003.41287 1.42846.54842.31169.0768.59239.11693.84208.12034.27403.0279.53098.0105.77084-.0521.49387-.11746.94737-.495 1.3605-1.13262.18867-.30644.28387-.61471.28561-.92482.004-.40574-.08-.77703-.25319-1.11388-.36643-.65296-.89795-1.30457-1.59456-1.9548-.16368-.16701-.26599-.29151-.30695-.37351-.0104-.0164-.0209-.016-.0315.001-.004.005.18668.0669.57293.18484.48611.17685.97541.30074 1.46791.37165.42243.0404.82855-.0152 1.21836-.16677.37074-.13177.66056-.36726.86944-.70646.28725-.51433.40671-.9764.35839-1.3862-.0681-.43666-.26969-.85489-.60484-1.25471-.22944-.30947-.51674-.59624-.8619-.86029-.42392-.28046-.75307-.49286-.98745-.63719l-7.51042-4.62453-.40764.66203 1.18513.72974.32608 1.0941zm4.52119-1.29871 1.93349 1.19054c.41924.25815.72556.52982.91897.815.17218.27266.26501.54191.27846.80775.029.27646.002.52971-.0799.75976-.0981.2608-.2109.49487-.33856.7022-.21709.35255-.55482.65262-1.01319.90022-.22133.0939-.50958.13013-.86475.10855-.23907-.019-.53354-.13615-.88342-.35158l-1.51328-.9318-.26095-1.03981zm2.01709-3.27584.96496-.28023 1.35893.83676c.47068.28983.82395.66794 1.0598 1.13432.17509.36696.0816.85634-.28035 1.46815-.2361.38342-.48573.63261-.74889.74758-.30304.13615-.58769.19295-.85395.17039-.29836-.0234-.5629-.0838-.7936-.18116-.25286-.10839-.46218-.21362-.62796-.31571l-1.65564-1.01946z"/><path d="m855.42362 396.33976-1.14276-1.17752-.55793.54146 5.04565 5.19909.55792-.54146c-.27152-.25856-.52083-.57265-.74793-.94227-.079-.16041-.12971-.34349-.15225-.54925-.0418-.20828-.023-.42213.0566-.64155l3.77788-8.99824-.94405-.97275-9.5597 2.45253c-.39882.10513-.76339.12119-1.0937.0482-.38614-.065-.78061-.21918-1.18338-.46261l-.51794.50265 3.28568 3.3856.55792-.54146-.61019-.62875.52873-1.50857.96828-.23334 3.10566 3.2001-.7738 1.83062zm-.83437-5.44178 4.14401-.95115c.009-.00082-.003-.0171-.0335-.0489-.0121-.0188-.0143-.0395-.007-.0618l-1.46207 3.78406z"/><path d="m868.38603 407.38346-1.00473.29407-1.42738-.80389-.38152.67741 6.38576 3.59643.38152-.67742-.89153-.5021-.30129-1.02884 1.73726-3.08466 3.83754 2.16128-1.73792 3.08583-.94057.32789-1.00443-.56569-.38152.67742 6.40389 3.60663.38152-.67742-1.4303-.80553-.2681-1.00707 3.58885-6.3723 1.11081-.24434 1.32558.74656.38152-.67742-6.40389-3.60663-.38152.67742.9044.50935.30359 1.03707-1.39824 2.4827-3.83754-2.16128 1.40318-2.49148.95329-.31764.97226.54757.38152-.67742-6.38576-3.59642-.38152.67741 1.32267.74492.36848 1.08056z"/><path d="m896.73198 417.2522-1.63682-.11524-.0546.77555 7.22705.50879.0546-.77555c-.37476-.0116-.77001-.0793-1.18574-.20328-.16581-.0669-.32573-.16943-.47976-.3077-.17008-.12729-.29864-.29922-.38569-.51579l-3.1863-9.22432-1.35219-.0952-5.48739 8.20312c-.22705.34433-.48798.59944-.78279.76534-.33105.20912-.72782.3573-1.19028.44455l-.0507.71996 4.70619.33131.0546-.77554-.874-.0615-.61217-1.47669.56586-.81965 4.44834.31317.64434 1.88009zm-4.25103-3.49828 2.45341-3.47251c.006-.006-.0134-.011-.0576-.0141-.0216-.006-.037-.0199-.0462-.0416l1.43432 3.79467z"/><path d="m911.96039 417.79481 5.7404-2.08581-.26551-.73072-1.27845.46453-1.71737-.93609-2.32129-6.38846c-.0134-.037-.0248-.0538-.0341-.0505.0122-.004.0301.008.0539.0361l7.01102 7.07886.51365-.18664.29316-9.49072c.007-.13299.0333-.24853.0791-.34661.008-.0345.0105-.051.006-.0494-.01.004.0245.11277.10265.32773l2.48821 6.84784-.48683.98195-1.65013.59958.26552.73073 7.56153-2.74753-.26551-.73073-1.5031.54616-.93939-.45229-2.49761-6.87371.53875-1.00225 1.39014-.50511-.26552-.73072-5.60536 2.03674-.28043 6.69091.16407-.0596-4.77784-4.85296-5.86219 2.13006.26551.73073 1.96437-.71377c.21749-.0685.352-.0765.40354-.0238.0754.10928.1411.2409.19705.39486l2.3206 6.38657-.64386 1.79619-1.23049.44711z"/><path d="m941.615 399.40062-1.18725 1.13265.53667.56253 5.24206-5.00098-.53666-.56254c-.26088.2693-.57709.51592-.94864.73985-.16108.0776-.34458.12676-.55053.14755-.20863.04-.42231.0193-.64104-.0621l-8.96559-3.85472-.98079.93568 2.37065 9.58034c.10171.39971.11465.7644.0388 1.09407-.0683.38558-.22585.7787-.47271 1.17938l.49819.52222 3.41359-3.2566-.53667-.56253-.63394.60479-1.504-.54161-.22505-.97024 3.22656-3.07817 1.82393.78943zm-5.44872.78779-.91565-4.152c-.00075-.009-.0172.002-.0492.033-.019.0119-.0396.014-.0619.006l3.77142 1.49439z"/><path d="m953.72926 388.07182.47374-.40051.25292-1.55191c.0707.0275.22178.0197.45312-.0235.22658-.0509.50036-.13055.82133-.23896.60259-.17946 1.36312-.64806 2.28159-1.40579 1.04012-.87933 1.79655-1.8658 2.26929-2.95942.46849-1.04314.2657-2.10662-.60838-3.19047-.43115-.50997-.95104-.85905-1.55968-1.04725-.47807-.13563-.97639-.13752-1.49496-.006-.55441.13111-1.10484.35703-1.6513.67775-.45359.2774-.90107.5842-1.34243.9204-1.08663.76334-1.98513 1.29993-2.69553 1.60979-.64209.2832-1.12482.23355-1.44818-.14894-.18811-.22251-.27757-.46074-.26837-.7147.004-.26106.0765-.51747.21831-.76921.0714-.1436.15204-.28326.24186-.41899.0798-.11907.17247-.23136.27785-.33688.23235-.23334.4632-.44696.69255-.64088 1.19658-.97642 2.26164-1.49176 3.19517-1.54602.47283-.0522.92268-.0404 1.34955.0354.35334.0776.74453.20196 1.17356.37319l.52913-.44733-2.3242-2.74917-.48502.41005-.17922 1.43421c-.26289.0142-.74919.1645-1.45889.45091-.71635.29381-1.55789.83852-2.52462 1.63411-.53664.45369-.97667.94644-1.32008 1.47823-.31853.54946-.52623 1.09342-.62311 1.63189-.0671.44888-.0284.89439.11624 1.33653.10066.39083.28594.74587.55583 1.06511.83543.96531 1.7925 1.32196 2.87123 1.06994 1.10869-.23807 2.25916-.78548 3.45144-1.64223.33882-.24951.69812-.50843 1.0779-.77676.41377-.27595.81867-.50485 1.21471-.6867.37717-.19929.73278-.30798 1.06683-.32606.28299-.0154.51234.0809.68804.28869.32626.40465.34916.91426.0687 1.52882-.24992.56823-.72711 1.15012-1.43157 1.74568-.63748.53894-1.2324.89977-1.78477 1.08248-.56359.21799-1.09509.32592-1.59449.32378-.45323-.0113-.90257-.0842-1.34802-.21868-.43875-.1044-.88718-.25074-1.34527-.43903l-.51682.43693z"/></g></g></svg>