<?xml version="1.0" encoding="UTF-8" standalone="no"?>
<svg
   xmlns:dc="http://purl.org/dc/elements/1.1/"
   xmlns:cc="http://creativecommons.org/ns#"
   xmlns:rdf="http://www.w3.org/1999/02/22-rdf-syntax-ns#"
   xmlns:svg="http://www.w3.org/2000/svg"
   xmlns="http://www.w3.org/2000/svg"
   xmlns:sodipodi="http://sodipodi.sourceforge.net/DTD/sodipodi-0.dtd"
   xmlns:inkscape="http://www.inkscape.org/namespaces/inkscape"
   width="568"
   height="536"
   version="1.1"
   id="svg217"
   sodipodi:docname="Estandarte_Infantería_de_Marina_de_México.svg"
   inkscape:version="0.92.3 (2405546, 2018-03-11)">
  <metadata
     id="metadata221">
    <rdf:RDF>
      <cc:Work
         rdf:about="">
        <dc:format>image/svg+xml</dc:format>
        <dc:type
           rdf:resource="http://purl.org/dc/dcmitype/StillImage" />
        <dc:title />
      </cc:Work>
    </rdf:RDF>
  </metadata>
  <sodipodi:namedview
     pagecolor="#ffffff"
     bordercolor="#666666"
     borderopacity="1"
     objecttolerance="10"
     gridtolerance="10"
     guidetolerance="10"
     inkscape:pageopacity="0"
     inkscape:pageshadow="2"
     inkscape:window-width="1920"
     inkscape:window-height="1096"
     id="namedview219"
     showgrid="false"
     fit-margin-top="0"
     fit-margin-left="0"
     fit-margin-right="0"
     fit-margin-bottom="0"
     inkscape:zoom="1.5487198"
     inkscape:cx="539.20413"
     inkscape:cy="279.28991"
     inkscape:window-x="-8"
     inkscape:window-y="-8"
     inkscape:window-maximized="1"
     inkscape:current-layer="svg217"
     showguides="false">
    <sodipodi:guide
       position="-73.433676,525.92095"
       orientation="-0.70710678,0.70710678"
       id="guide292"
       inkscape:locked="false" />
  </sodipodi:namedview>
  <defs
     id="defs8">
    <filter
       id="c"
       style="color-interpolation-filters:sRGB">
      <feGaussianBlur
         stdDeviation=".41"
         id="feGaussianBlur2" />
    </filter>
    <filter
       id="a"
       style="color-interpolation-filters:sRGB">
      <feGaussianBlur
         stdDeviation="4.429"
         id="feGaussianBlur5" />
    </filter>
  </defs>
  <g
     transform="matrix(0.90067,0,0,0.85033,149.821,899.832)"
     id="g89"
     style="fill:#f0e116;filter:url(#a)" />
  <path
     style="fill:#d40000"
     inkscape:connector-curvature="0"
     d="M 0,0 H 568 V 536 H 0 Z"
     id="path91" />
  <path
     style="fill:none"
     inkscape:connector-curvature="0"
     d="m 85.625,59.078 h 410 v 412 h -410 z"
     id="path93" />
  <g
     id="g311">
    <path
       id="path95"
       word-spacing="0"
       letter-spacing="0"
       font-size="40"
       font-weight="700"
       d="m 302.0935,56.266 -3.031,25.594 9.719,1.156 c 1.908,0.226 3.473,0.225 4.656,0 1.582,-0.308 2.875,-0.859 3.875,-1.625 1.324,-1.011 2.389,-2.402 3.25,-4.188 0.704,-1.462 1.187,-3.237 1.437,-5.343 0.285,-2.398 0.24,-4.455 -0.125,-6.157 -0.364,-1.701 -1,-3.181 -1.937,-4.437 a 8.569,8.569 0 0 0 -3.563,-2.813 c -1.078,-0.458 -2.683,-0.81 -4.812,-1.062 z m -28.062,0.187 -5.47,0.407 -8.062,26.468 5.5,-0.437 1.688,-6 10.25,-0.781 2.687,5.687 5.657,-0.437 z m -20.22,2.25 -5.124,0.907 4.437,25.375 5.125,-0.875 z m 77.5,1.688 -6.437,24.969 18.97,4.906 1.093,-4.219 -13.938,-3.594 1.75,-6.781 12.532,3.219 1.093,-4.188 -12.53,-3.25 1.437,-5.531 13.468,3.469 1.063,-4.219 z m -24.562,0.812 2.344,0.282 c 2.106,0.25 3.485,0.501 4.188,0.75 0.94,0.324 1.692,0.831 2.25,1.5 0.558,0.668 0.964,1.555 1.187,2.656 0.223,1.1 0.204,2.615 -0.031,4.594 -0.235,1.978 -0.577,3.52 -1.063,4.625 -0.485,1.104 -1.044,1.877 -1.656,2.312 -0.612,0.435 -1.356,0.703 -2.219,0.813 -0.659,0.086 -1.713,0.046 -3.156,-0.125 l -3.844,-0.438 z m -70.125,1.375 c -1.243,0.073 -2.852,0.358 -4.843,0.907 l -10.563,2.906 6.844,24.844 5,-1.375 -2.844,-10.375 1,-0.282 c 1.153,-0.317 2.043,-0.446 2.625,-0.406 0.582,0.04 1.168,0.253 1.781,0.625 0.613,0.372 1.837,1.329 3.657,2.906 l 5.125,4.438 6,-1.656 -4.375,-4.032 c -1.73,-1.602 -3.055,-2.687 -3.97,-3.25 -0.914,-0.562 -1.99,-1.01 -3.25,-1.343 2.094,-0.917 3.52,-2.11 4.282,-3.625 0.762,-1.517 0.888,-3.23 0.375,-5.094 -0.404,-1.469 -1.15,-2.652 -2.187,-3.594 -1.038,-0.942 -2.206,-1.479 -3.532,-1.594 a 7.966,7.966 0 0 0 -1.125,0 z m 35.063,0.063 4.25,9.281 -7,0.531 z m -36.094,4.562 c 0.589,0.024 1.122,0.176 1.563,0.469 0.587,0.391 0.988,1.008 1.218,1.844 0.206,0.746 0.202,1.41 0,2 -0.202,0.59 -0.582,1.07 -1.125,1.437 -0.543,0.369 -2,0.9 -4.406,1.563 l -3.719,1 -1.75,-6.281 3.938,-1.094 c 2.034,-0.56 3.265,-0.851 3.687,-0.906 0.213,-0.023 0.398,-0.04 0.594,-0.032 z m -22.312,2 -17.594,7.5 10.094,23.688 18.03,-7.656 -1.687,-4 -13.25,5.625 -2.75,-6.438 11.907,-5.062 -1.688,-4 -11.906,5.062 -2.25,-5.25 12.812,-5.437 z m 155.375,2.594 -11.188,23.219 4.344,2.094 8.812,-18.282 -4.218,20.5 4.5,2.188 13.437,-16.063 -8.812,18.282 4.343,2.093 11.188,-23.218 -7.031,-3.375 -11.782,13.812 3.407,-17.875 z m -178.844,7.781 -17.719,10.25 2.188,3.782 6.593,-3.844 10.75,18.531 4.5,-2.594 -10.75,-18.531 6.625,-3.812 z m 215.187,11.907 -22.812,15.625 4.562,3.093 5.032,-3.625 8.53,5.813 -1.437,6.094 4.657,3.187 6,-27.094 z m -238.75,2.25 -3.843,2.937 10.468,13.656 -18.843,-7.25 -4,3.063 15.656,20.469 3.844,-2.938 -10.22,-13.344 18.47,7.032 4.125,-3.157 z m 237.594,4.218 -2.469,9.907 -5.812,-3.97 z m 19.156,6.594 -17.343,19.031 3.843,3.5 7.25,-7.937 0.782,0.687 c 0.883,0.806 1.442,1.486 1.718,2 0.277,0.514 0.426,1.127 0.438,1.844 0.012,0.717 -0.168,2.275 -0.531,4.656 l -1,6.657 4.593,4.187 1.063,-5.812 c 0.433,-2.318 0.668,-4.02 0.656,-5.094 -0.012,-1.074 -0.236,-2.226 -0.625,-3.469 1.892,1.282 3.686,1.821 5.375,1.656 1.689,-0.164 3.197,-0.946 4.5,-2.375 1.027,-1.125 1.663,-2.37 1.906,-3.75 0.244,-1.38 0.048,-2.66 -0.562,-3.843 -0.61,-1.184 -1.934,-2.707 -3.969,-4.563 z m 0.907,6.719 3,2.719 c 1.558,1.421 2.477,2.297 2.75,2.625 0.528,0.672 0.798,1.387 0.78,2.093 -0.017,0.706 -0.321,1.36 -0.905,2 -0.522,0.572 -1.08,0.95 -1.688,1.094 -0.607,0.144 -1.211,0.075 -1.812,-0.187 -0.601,-0.263 -1.844,-1.256 -3.688,-2.938 l -2.844,-2.594 z m -286.094,6.375 -3.844,3.937 11.313,25.219 3.875,-3.937 -2.688,-5.625 7.219,-7.344 5.75,2.531 3.969,-4.031 z m 2.312,6.219 9.313,4.187 -4.938,5 z m 303.313,0.312 -19.125,17.281 3.469,3.844 19.125,-17.25 z m -319.656,8.531 -10.657,14.063 20.532,15.562 3.156,-4.125 -8.75,-6.625 6.5,-8.562 -3.469,-2.656 -6.5,8.593 -4.844,-3.687 7.5,-9.938 z m 328.156,0.907 -20.688,15.312 2.875,3.906 13.5,-10 -7.312,18.344 3.094,4.188 20.718,-15.344 -2.875,-3.875 -13.843,10.25 7.562,-18.719 z m -343.813,20.53 -2.406,4.188 14.938,8.563 -20.157,0.594 -2.53,4.406 22.374,12.781 2.406,-4.187 -14.593,-8.344 19.75,-0.688 2.593,-4.531 z m 364.47,10.095 -27.438,3.5 2.656,4.843 6.156,-0.937 4.906,9.062 -4.062,4.782 2.719,4.968 17.687,-21.406 z m -4,5.218 -6.688,7.688 -3.375,-6.156 z m -373.688,9.25 -2.125,4.75 23.5,10.594 2.125,-4.75 z"
       style="font-weight:700;font-size:40px;line-height:125%;font-family:Arial;-inkscape-font-specification:'Arial Bold';letter-spacing:0;word-spacing:0;fill:#d4aa00"
       inkscape:connector-curvature="0" />
  </g>
  <g
     id="g308">
    <g
       id="g289">
      <g
         id="g271">
        <path
           d="m 98.717772,480.97699 v -21.41016 h -7.646484 v -4.35937 H 111.5498 v 4.35937 h -7.6289 v 21.41016 z"
           style="font-weight:700;font-size:36px;line-height:1.25;font-family:Arial;-inkscape-font-specification:'Arial Bold';letter-spacing:0;word-spacing:0;fill:#d4aa00"
           id="path194"
           inkscape:connector-curvature="0" />
        <path
           d="m 113.2373,468.25043 q 0,-3.9375 1.17774,-6.60938 0.8789,-1.96875 2.39062,-3.5332 1.5293,-1.56445 3.33984,-2.32031 2.40821,-1.01953 5.55469,-1.01953 5.69531,0 9.10547,3.5332 3.42774,3.5332 3.42774,9.82617 0,6.24023 -3.39258,9.77344 -3.39258,3.51562 -9.07032,3.51562 -5.74804,0 -9.14062,-3.49804 -3.39258,-3.51563 -3.39258,-9.66797 z m 5.36133,-0.17578 q 0,4.37695 2.02148,6.64453 2.02149,2.25 5.13282,2.25 3.11132,0 5.09765,-2.23242 2.00391,-2.25 2.00391,-6.73243 0,-4.42968 -1.95117,-6.60937 -1.9336,-2.17969 -5.15039,-2.17969 -3.2168,0 -5.18555,2.21484 -1.96875,2.19727 -1.96875,6.64454 z"
           style="font-weight:700;font-size:36px;line-height:1.25;font-family:Arial;-inkscape-font-specification:'Arial Bold';letter-spacing:0;word-spacing:0;fill:#d4aa00"
           id="path196"
           inkscape:connector-curvature="0" />
        <path
           d="m 142.25879,455.20746 h 9.50976 q 3.2168,0 4.9043,0.49219 2.26758,0.66796 3.88476,2.37304 1.61719,1.70508 2.46094,4.1836 0.84375,2.46093 0.84375,6.08203 0,3.18164 -0.79101,5.48437 -0.9668,2.8125 -2.75977,4.55274 -1.35352,1.31836 -3.65625,2.05664 -1.72266,0.54492 -4.60547,0.54492 h -9.79101 z m 5.20312,4.35937 v 17.06836 h 3.88477 q 2.17968,0 3.14648,-0.24609 1.26563,-0.31641 2.0918,-1.07227 0.84375,-0.75586 1.37109,-2.47851 0.52735,-1.74024 0.52735,-4.72852 0,-2.98828 -0.52735,-4.58789 -0.52734,-1.59961 -1.47656,-2.49609 -0.94922,-0.89649 -2.4082,-1.21289 -1.08985,-0.2461 -4.27149,-0.2461 z"
           style="font-weight:700;font-size:36px;line-height:1.25;font-family:Arial;-inkscape-font-specification:'Arial Bold';letter-spacing:0;word-spacing:0;fill:#d4aa00"
           id="path198"
           inkscape:connector-curvature="0" />
        <path
           d="m 167.2373,468.25043 q 0,-3.9375 1.17774,-6.60938 0.8789,-1.96875 2.39062,-3.5332 1.5293,-1.56445 3.33984,-2.32031 2.40821,-1.01953 5.55469,-1.01953 5.69531,0 9.10547,3.5332 3.42774,3.5332 3.42774,9.82617 0,6.24023 -3.39258,9.77344 -3.39258,3.51562 -9.07032,3.51562 -5.74804,0 -9.14062,-3.49804 -3.39258,-3.51563 -3.39258,-9.66797 z m 5.36133,-0.17578 q 0,4.37695 2.02148,6.64453 2.02149,2.25 5.13282,2.25 3.11132,0 5.09765,-2.23242 2.00391,-2.25 2.00391,-6.73243 0,-4.42968 -1.95117,-6.60937 -1.9336,-2.17969 -5.15039,-2.17969 -3.2168,0 -5.18555,2.21484 -1.96875,2.19727 -1.96875,6.64454 z"
           style="font-weight:700;font-size:36px;line-height:1.25;font-family:Arial;-inkscape-font-specification:'Arial Bold';letter-spacing:0;word-spacing:0;fill:#d4aa00"
           id="path200"
           inkscape:connector-curvature="0" />
        <path
           d="m 206.26074,480.97699 v -25.76953 h 8.34961 q 4.74609,0 6.1875,0.38672 2.21484,0.58008 3.70898,2.53125 1.49414,1.93359 1.49414,5.00976 0,2.37305 -0.86132,3.99024 -0.86133,1.61718 -2.19727,2.54883 -1.31836,0.91406 -2.68945,1.21289 -1.86328,0.36914 -5.39649,0.36914 h -3.39258 v 9.7207 z m 5.20312,-21.41016 v 7.3125 h 2.84766 q 3.07617,0 4.11328,-0.40429 1.03711,-0.4043 1.61719,-1.26563 0.59766,-0.86133 0.59766,-2.0039 0,-1.40625 -0.82618,-2.32032 -0.82617,-0.91406 -2.09179,-1.14258 -0.93164,-0.17578 -3.74414,-0.17578 z"
           style="font-weight:700;font-size:36px;line-height:1.25;font-family:Arial;-inkscape-font-specification:'Arial Bold';letter-spacing:0;word-spacing:0;fill:#d4aa00"
           id="path202"
           inkscape:connector-curvature="0" />
        <path
           d="m 229.25293,468.25043 q 0,-3.9375 1.17773,-6.60938 0.87891,-1.96875 2.39063,-3.5332 1.52929,-1.56445 3.33984,-2.32031 2.4082,-1.01953 5.55469,-1.01953 5.69531,0 9.10547,3.5332 3.42773,3.5332 3.42773,9.82617 0,6.24023 -3.39258,9.77344 -3.39258,3.51562 -9.07031,3.51562 -5.74805,0 -9.14063,-3.49804 -3.39257,-3.51563 -3.39257,-9.66797 z m 5.36132,-0.17578 q 0,4.37695 2.02149,6.64453 2.02148,2.25 5.13281,2.25 3.11133,0 5.09766,-2.23242 2.0039,-2.25 2.0039,-6.73243 0,-4.42968 -1.95117,-6.60937 -1.93359,-2.17969 -5.15039,-2.17969 -3.2168,0 -5.18555,2.21484 -1.96875,2.19727 -1.96875,6.64454 z"
           style="font-weight:700;font-size:36px;line-height:1.25;font-family:Arial;-inkscape-font-specification:'Arial Bold';letter-spacing:0;word-spacing:0;fill:#d4aa00"
           id="path204"
           inkscape:connector-curvature="0" />
        <path
           d="m 258.30957,480.97699 v -25.76953 h 10.95117 q 4.13086,0 5.99414,0.70312 1.88086,0.68555 3.00586,2.46094 1.125,1.77539 1.125,4.06055 0,2.90039 -1.70508,4.79883 -1.70508,1.88086 -5.09766,2.37304 1.6875,0.98438 2.77735,2.16211 1.10742,1.17774 2.9707,4.1836 l 3.14649,5.02734 h -6.22266 l -3.76172,-5.60742 q -2.00391,-3.00586 -2.74219,-3.7793 -0.73828,-0.79101 -1.56445,-1.07226 -0.82617,-0.29883 -2.61914,-0.29883 h -1.05469 v 10.75781 z m 5.20312,-14.87109 h 3.84961 q 3.74414,0 4.67578,-0.31641 0.93164,-0.31641 1.45899,-1.08984 0.52734,-0.77344 0.52734,-1.9336 0,-1.30078 -0.70312,-2.09179 -0.68555,-0.8086 -1.95118,-1.01954 -0.63281,-0.0879 -3.79687,-0.0879 h -4.06055 z"
           style="font-weight:700;font-size:36px;line-height:1.25;font-family:Arial;-inkscape-font-specification:'Arial Bold';letter-spacing:0;word-spacing:0;fill:#d4aa00"
           id="path206"
           inkscape:connector-curvature="0" />
        <path
           d="M 294.43261,480.97699 V 455.4184 h 5.20313 v 21.21679 h 12.9375 v 4.3418 z"
           style="font-weight:700;font-size:36px;line-height:1.25;font-family:Arial;-inkscape-font-specification:'Arial Bold';letter-spacing:0;word-spacing:0;fill:#d4aa00"
           id="path208"
           inkscape:connector-curvature="0" />
        <path
           d="m 339.53808,480.97699 h -5.66015 l -2.25,-5.85352 h -10.30078 l -2.12696,5.85352 h -5.51953 l 10.03711,-25.76953 h 5.50195 z m -9.58008,-10.19531 -3.55078,-9.5625 -3.48047,9.5625 z"
           style="font-weight:700;font-size:36px;line-height:1.25;font-family:Arial;-inkscape-font-specification:'Arial Bold';letter-spacing:0;word-spacing:0;fill:#d4aa00"
           id="path210"
           inkscape:connector-curvature="0" />
        <path
           d="m 350.96386,480.97699 v -25.76953 h 8.34961 q 4.7461,0 6.1875,0.38672 2.21485,0.58008 3.70899,2.53125 1.49414,1.93359 1.49414,5.00976 0,2.37305 -0.86133,3.99024 -0.86133,1.61718 -2.19727,2.54883 -1.31835,0.91406 -2.68945,1.21289 -1.86328,0.36914 -5.39648,0.36914 h -3.39258 v 9.7207 z m 5.20313,-21.41016 v 7.3125 h 2.84766 q 3.07617,0 4.11328,-0.40429 1.03711,-0.4043 1.61718,-1.26563 0.59766,-0.86133 0.59766,-2.0039 0,-1.40625 -0.82617,-2.32032 -0.82617,-0.91406 -2.0918,-1.14258 -0.93164,-0.17578 -3.74414,-0.17578 z"
           style="font-weight:700;font-size:36px;line-height:1.25;font-family:Arial;-inkscape-font-specification:'Arial Bold';letter-spacing:0;word-spacing:0;fill:#d4aa00"
           id="path212"
           inkscape:connector-curvature="0" />
        <path
           d="m 395.57715,480.97699 h -5.66016 l -2.25,-5.85352 h -10.30078 l -2.12696,5.85352 h -5.51953 l 10.03711,-25.76953 h 5.50196 z m -9.58008,-10.19531 -3.55078,-9.5625 -3.48047,9.5625 z"
           style="font-weight:700;font-size:36px;line-height:1.25;font-family:Arial;-inkscape-font-specification:'Arial Bold';letter-spacing:0;word-spacing:0;fill:#d4aa00"
           id="path214"
           inkscape:connector-curvature="0" />
        <path
           d="m 401.4834,480.97699 v -21.41016 h -7.64649 v -4.35937 h 20.47852 v 4.35937 h -7.62891 v 21.41016 z"
           style="font-weight:700;font-size:36px;line-height:1.25;font-family:Arial;-inkscape-font-specification:'Arial Bold';letter-spacing:0;word-spacing:0;fill:#d4aa00"
           id="path216"
           inkscape:connector-curvature="0" />
        <path
           d="m 417.708,480.97699 v -25.76953 h 10.95118 q 4.13086,0 5.99414,0.70312 1.88086,0.68555 3.00586,2.46094 1.125,1.77539 1.125,4.06055 0,2.90039 -1.70508,4.79883 -1.70508,1.88086 -5.09766,2.37304 1.6875,0.98438 2.77735,2.16211 1.10742,1.17774 2.9707,4.1836 l 3.14648,5.02734 h -6.22265 l -3.76172,-5.60742 q -2.00391,-3.00586 -2.74219,-3.7793 -0.73828,-0.79101 -1.56445,-1.07226 -0.82617,-0.29883 -2.61914,-0.29883 h -1.05469 v 10.75781 z m 5.20313,-14.87109 h 3.84961 q 3.74414,0 4.67578,-0.31641 0.93164,-0.31641 1.45898,-1.08984 0.52735,-0.77344 0.52735,-1.9336 0,-1.30078 -0.70313,-2.09179 -0.68554,-0.8086 -1.95117,-1.01954 -0.63281,-0.0879 -3.79687,-0.0879 h -4.06055 z"
           style="font-weight:700;font-size:36px;line-height:1.25;font-family:Arial;-inkscape-font-specification:'Arial Bold';letter-spacing:0;word-spacing:0;fill:#d4aa00"
           id="path218"
           inkscape:connector-curvature="0" />
        <path
           d="m 443.54785,480.97699 v -25.76953 h 5.20312 v 25.76953 z"
           style="font-weight:700;font-size:36px;line-height:1.25;font-family:Arial;-inkscape-font-specification:'Arial Bold';letter-spacing:0;word-spacing:0;fill:#d4aa00"
           id="path220"
           inkscape:connector-curvature="0" />
        <path
           d="m 476.92871,480.97699 h -5.66016 l -2.25,-5.85352 h -10.30078 l -2.12695,5.85352 h -5.51953 l 10.03711,-25.76953 h 5.50195 z m -9.58008,-10.19531 -3.55078,-9.5625 -3.48047,9.5625 z"
           style="font-weight:700;font-size:36px;line-height:1.25;font-family:Arial;-inkscape-font-specification:'Arial Bold';letter-spacing:0;word-spacing:0;fill:#d4aa00"
           id="path222"
           inkscape:connector-curvature="0" />
      </g>
    </g>
  </g>
  <path
     id="path135"
     d="m 299.594,140.859 c -0.36,0.68 1.258,-0.059 0,0 z m 6.313,5.563 c -2.911,0.561 -3.139,2.388 -0.563,3.562 3.731,2.107 3.228,-2.396 0.938,-3.531 -0.128,0.06 -0.26,-0.138 -0.375,-0.031 z m 1.094,0.468 c 0.103,-0.032 -0.043,-0.057 0,0 z m 0.375,7.625 c -0.732,1.764 1.648,6.62 -1.563,5.281 0.208,1.294 1.862,3.312 2.063,6.782 0.712,2.747 4.823,1.14 3.968,-1.625 -6.493,-4.627 1.886,-1.707 0.031,-7.406 -0.143,-2.646 -2.235,-2.938 -4.5,-3.032 z m -1.282,4.625 c -1.234,1.73 2.745,0.473 0,0 z m 1.781,12.656 c -1.549,1.852 -1.483,6.953 1.375,6.032 1.717,-1.871 2.674,-7.257 -1.375,-6.031 z m -3.968,8.063 c -3.847,-0.697 -7.004,5.163 -2.75,6.594 2.26,-1.18 7.867,-4.753 2.75,-6.594 z m -7.813,8.125 c -3.957,0.774 -3.615,5.46 -6.312,7.031 3.792,2.82 6.904,-2.63 8.437,-5.469 -0.714,-0.338 -1.289,-1.902 -2.125,-1.562 z m -7.344,7.656 c -2.299,1.499 -6.706,4.702 -4.437,7.375 2.928,-0.83 6.177,-5.583 4.438,-7.375 z m -6.28,7.375 c -1.383,-0.092 -5.106,0.737 -3.319,1.358 -1.593,0.667 -4.817,5.792 -1.088,3.111 2.351,-1.288 2.044,-4.145 4.688,-2.75 -0.848,0.038 0.522,-2.35 -0.282,-1.719 z m -9.657,5.75 c -2.65,1.088 -8.007,4.234 -5.5,7.25 2.937,-1.006 5.979,-5.218 5.5,-7.25 z m -10.469,8.844 c -3.97,0.106 -7.554,6.137 -3.781,8.063 2.644,-1.74 4.937,-5.474 4.625,-8.313 z m -8.562,9.719 c -3.136,2.145 -6.773,6.698 -2.892,9.996 1.032,4.078 2.775,-3.504 3.548,-5.09 0.164,-1.24 2.236,-6.512 -0.656,-4.906 z m -5.719,12.469 c -0.995,4.944 -3.38,10.607 -2.094,15.437 2.997,3.067 1.625,-4.034 2.625,-5.844 -0.099,-3.041 5.007,-10.629 -0.531,-9.594 z m -2.813,20.78 c 0.61,3.038 0.62,8.278 4.75,8.594 -0.17,-3.716 -2.776,-6.33 -4.78,-9.156 l 0.03,0.563 z m 4.313,12.657 c -2.79,-0.252 3.524,2.98 4.344,3.813 -1.41,-1.745 -1.257,-5.398 -4.344,-3.813 z m 52.906,14.188 c 3.795,2.692 8.173,5.456 5.395,-0.966 -0.473,-5.076 -3.17,-8.896 -6.707,-12.472 z m -0.25,5.03 c 0.105,3.555 1.228,8.803 5.438,8.344 2.735,1.94 1.482,-7.237 -2.339,-6.88 -0.807,-0.242 -2.955,-2.416 -3.099,-1.463 z m 2.719,11.22 c 0.78,3.952 2.703,10.144 7.969,9.218 -1.334,-3.86 -3.78,-7.075 -7.531,-8.781 0.092,0.476 -1.022,-2.199 -0.438,-0.438 z m 5.906,13.875 c -0.664,3.817 -0.212,7.954 4.527,8.431 1.288,-1.446 0.37,-6.34 -0.745,-8.932 -0.879,0.438 -3.904,-1.04 -3.782,0.5 z m 0.25,11.093 c -0.56,3.317 1.264,8.407 4.719,7.781 1.568,-4.243 -0.353,-7.06 -4.719,-7.78 z m -0.75,9.813 c -2.447,3.026 -1.476,9.534 2.313,9.625 2.177,-3.264 2.38,-8.524 -2.313,-9.625 z m -3.469,10.469 c -1.643,2.607 -0.064,7.214 0.188,8.968 2.784,-2.048 4.112,-6.712 0.27,-8.556 l -0.426,-0.475 -0.031,0.063 z m -4.53,9.25 c -2.997,1.505 -3.145,5.346 -1.907,7.656 3.062,-0.992 2.549,-5.963 1.906,-7.657 z m -6.72,5.906 c -2.998,1.63 -2.531,6.333 -1.437,7.906 2.568,-2.025 2.634,-5.596 1.438,-7.906 z m -6.312,5.781 c -2.978,1.605 -4.591,5.501 -2.938,8.438 3.692,-1.279 4.284,-5.733 2.938,-8.438 z m -7.781,8.938 c -1.728,1.322 -4.858,4.127 -3.688,6.093 2.187,-0.923 6.837,-4.615 3.688,-6.093 z m -7.969,7.156 c -2.023,1.178 -8.206,4.573 -4.5,5.875 2.004,-0.822 6.825,-4.324 4.5,-5.875 z m -7.875,5.781 c -2.245,0.752 -5.74,4.14 -3.813,6.281 3.117,0.62 4.828,-4.457 3.813,-6.281 z"
     inkscape:connector-curvature="0"
     style="fill:#ffcc3e;fill-opacity:0.96700003;filter:url(#c)" />
  <g
     id="g254"
     transform="translate(-3.5703046e-6,-2.8398315e-6)">
    <g
       id="g196">
      <g
         id="g139">
        <path
           style="fill:#d48f00;stroke:#000000;stroke-width:0.354"
           inkscape:connector-curvature="0"
           d="m 282.72009,125.02042 c -13.463,0 -24.375,8.484 -24.375,18.938 0,10.454 10.912,18.938 24.375,18.938 13.463,0 24.375,-8.484 24.375,-18.938 0,-10.454 -10.912,-18.937 -24.375,-18.937 z m 0,4.282 c 7.51,0 14.048,2.888 17.438,7.156 0.005,0.006 -0.005,0.025 0,0.031 v 13.313 c -0.91,1.15 -2.05,2.203 -3.375,3.125 h -28.158 a 15.966,15.966 0 0 1 -3.062,-2.75 v -13.719 h -0.281 c 3.402,-4.26 9.936,-7.156 17.437,-7.156 z m -9.781,25.906 h 19.562 c -2.888,1.136 -6.225,1.781 -9.78,1.781 -3.555,0 -6.89,-0.647 -9.782,-1.781 z"
           id="path101" />
        <path
           style="fill:#d4aa00"
           inkscape:connector-curvature="0"
           d="m 281.56409,127.05242 c -7.258,0.253 -15.078,3.351 -19.125,9.781 8.885,-12.452 30.124,-12.83 39.719,-1.062 -0.887,6.133 2.687,14.938 -3.75,18.468 -10.305,7.211 -26.443,6.365 -34.844,-3.281 -0.566,-3.17 1.783,-15.742 -2.563,-11.062 -3.582,11.05 8.184,20.214 18.22,20.78 11.05,1.667 25.77,-4.59 25.874,-17.218 -0.708,-11.258 -13.587,-17.002 -23.531,-16.406 z"
           id="path103" />
        <path
           style="fill:#d48f00;stroke:#000000;stroke-width:0.354"
           inkscape:connector-curvature="0"
           d="m 172.73509,336.71742 c 2.155,-1.837 5.28,-2.342 8.776,-2.336 -0.74,-4.058 -2.748,-6.596 -5.16,-8.647 -2.682,-3.109 -3.04,-4.823 -4.184,-7.01 -1.566,-8.967 -0.865,-15.99 -0.127,-22.981 -6.535,3.302 -13.066,9.339 -17.93,14.647 -4.793,5.035 -7.364,11.022 -9.849,17.046 -1.03,5.695 -1.029,11.183 -0.379,16.542 3.839,2.985 7.439,1.282 10.607,-0.758 2.655,-3.654 4.813,-3.817 8.081,-4.293 z m 222.53,0 c -2.155,-1.837 -5.28,-2.342 -8.776,-2.336 0.74,-4.058 2.747,-6.596 5.16,-8.647 2.682,-3.109 3.04,-4.823 4.184,-7.01 1.566,-8.967 0.864,-15.99 0.126,-22.981 6.536,3.302 13.067,9.339 17.93,14.647 4.794,5.035 7.365,11.022 9.85,17.046 1.03,5.695 1.029,11.183 0.378,16.542 -3.838,2.985 -7.438,1.282 -10.606,-0.758 -2.655,-3.654 -4.814,-3.817 -8.082,-4.293 z"
           id="path105" />
        <path
           style="fill:#d4aa00"
           inkscape:connector-curvature="0"
           d="m 169.50109,299.52042 c -13.126,8.95 -25.957,23.153 -23.968,40.282 -1.43,5.054 5.085,4.214 7.312,2.062 5.13,-6.968 15.279,-4.329 22.031,-8.562 2.453,-0.55 5.363,-0.642 2.688,-3.375 -5.972,-5.113 -8.776,-12.719 -8.313,-20.531 -0.2,-3.21 0.336,-7.07 0.25,-9.875 z m 228.969,1.313 c 0.795,9.87 0.993,21.572 -7.437,28.313 -1.187,1.435 -3.19,4.152 0.218,3.656 5.93,2.505 12.344,3.66 18.688,5 3.943,1.674 7.6,8.077 12.281,4.937 2.76,-14.651 -5.545,-28.689 -16.497,-37.602 -2.303,-2.078 -4.736,-4.062 -7.378,-5.679 l 0.09,0.996 z"
           id="path107" />
        <path
           style="fill:#ecc406"
           inkscape:connector-curvature="0"
           d="m 164.18909,308.61442 c -8.588,7.374 -16.484,19.71 -14.563,30.625 5.311,-6.901 15.524,-6.316 22.532,-8.968 -5.406,-6.05 -7.274,-14.478 -7.063,-22.47 l -0.744,0.668 z m 238.687,-0.531 c 0.338,7.946 -2.1,16.591 -6.968,22.344 7.787,1.999 17.51,2.836 22.968,8.812 0.518,-12.355 -6.682,-23.748 -16,-31.406 z"
           id="path109" />
        <path
           style="fill:#f4e520"
           inkscape:connector-curvature="0"
           d="m 160.40809,321.86442 c -0.891,1.639 -5.465,7.294 -1.032,5.407 5.27,0.513 1.872,-3.19 1.344,-5.907 z m 246.593,0.156 c -1.142,2.942 -2.588,5.434 1.938,5.25 4.337,3.03 -1.838,-7.167 -1.938,-5.25 z"
           id="path111" />
        <path
           style="fill:#d48f00;stroke:#000000;stroke-width:0.354"
           inkscape:connector-curvature="0"
           d="m 283.06409,146.64642 a 11.032,11.032 0 0 0 -11.063,11.062 v 22.5 h -4.28 v 154.625 l -0.345,0.063 c -11.774,10.795 -24.612,20.961 -40.406,23.718 -7.98,0.763 -15.793,0.49 -27.531,0 -15.575,-5.688 -22.69,-11.827 -25.5,-18.187 -2.489,-10.801 -7.194,-14.965 -11.625,-19.938 v 17.938 c 4.594,2.144 2.228,9.801 3.156,15 4.705,5.664 9.105,11.45 17.063,15.812 13.468,8.923 28.775,13.794 44.937,16.657 19.442,3.255 38.777,6.996 54.938,23.375 0.23,0.222 1.347,1.303 1.593,1.656 0.042,-0.022 1.594,-1.656 1.594,-1.656 16.16,-16.38 35.496,-20.12 54.938,-23.375 16.162,-2.863 31.468,-7.734 44.937,-16.657 7.957,-4.363 12.358,-10.148 17.063,-15.812 0.928,-5.199 -1.438,-12.856 3.156,-15 v -17.938 c -4.431,4.973 -9.136,9.137 -11.625,19.938 -2.811,6.36 -9.925,12.499 -25.5,18.187 -11.739,0.49 -19.55,0.763 -27.531,0 -12.673,1.868 -40.224,-18.539 -42.625,-24.062 v -154.344 h -4.282 v -22.5 a 11.032,11.032 0 0 0 -11.062,-11.062 z"
           id="path113" />
        <path
           style="fill:#d4aa00"
           inkscape:connector-curvature="0"
           d="m 282.15809,148.70842 c -7.271,0.467 -9.437,8.905 -8.157,15 v 18.5 c -7.984,-1.89 -2.827,9.36 -4.28,14 v 140.281 c -7.668,4.799 -14.244,12.21 -22.563,16.532 -11.189,7.298 -24.873,8.983 -38.031,7.948 -11.153,1.08 -21.443,-4.404 -30,-10.823 -5.922,-4.019 -7.533,-10.953 -9.876,-17.22 -1.272,-2.643 -3.042,-5.015 -4.937,-7.25 0.447,5.065 -1.504,10.618 2.187,14.563 2.208,5.348 -1.71,12.328 4.032,16.157 11.762,13.61 29.42,20.77 46.467,25.252 21.459,4.5 44.948,6.668 62.064,21.81 2.392,1.1 4.473,6.703 6.687,2.875 15.89,-15.913 39.04,-20.044 60.438,-23.562 18.413,-4.15 37.268,-11.236 50.406,-25.313 2.936,-2.783 5.292,-6.165 4.125,-10.5 -0.079,-3.373 0.034,-7.434 2.969,-9.656 -0.715,-2.91 1.834,-15.334 -2.125,-8.969 -5.3,6.475 -4.694,16.219 -12.031,21.25 -8.497,6.617 -18.821,12.296 -30.031,11.37 -12.5,0 -25.883,1.394 -36.986,-5.48 -9.451,-5.463 -19.936,-11.141 -26.108,-20.484 v -152.781 c -7.788,1.693 -2.946,-9.242 -4.282,-14 0.038,-6.57 1.854,-16.672 -6.312,-19.156 -1.17,-0.355 -2.439,-0.496 -3.656,-0.344 z"
           id="path115" />
        <path
           style="fill:#ecc406"
           inkscape:connector-curvature="0"
           d="m 282.93909,152.67742 c -6.127,0.433 -5.578,8.548 -4.938,13.031 v 21.906 c -1.388,-0.303 -6.011,-3.607 -4.5,0.282 0.817,22.502 -0.224,45.041 0.22,67.562 v 83.156 c -14.62,10.522 -28.715,24.558 -47.72,25.969 -15.227,1.697 -31.69,1.305 -44.625,-7.812 -3.8,-2.057 -8.095,-7.024 -10.343,-8.813 -0.195,6.325 6.5,9.122 10.218,13.094 19.288,15.491 44.94,17.91 68.25,23.25 12.746,3.15 25.222,9.822 34.813,17.906 18.054,-17.35 44.38,-20.057 67.844,-25.031 16.663,-4.634 34.551,-12.034 44.5,-26.625 0.74,-3.37 0.067,-3.534 -1.688,-0.625 -10.498,10.837 -26.158,16.7 -41.342,15.12 -14.349,1 -29.248,-1.772 -40.845,-10.62 -7.851,-5.002 -16.721,-10.536 -20.375,-19.438 -0.087,-49.698 0.166,-99.396 -0.125,-149.093 -7.073,-3.296 -3.387,-12.158 -4.125,-18.063 -0.355,-4.774 2.355,-14.857 -5.22,-15.156 z"
           id="path117" />
        <path
           style="fill:#f4e520"
           inkscape:connector-curvature="0"
           d="m 284.00109,194.08342 c 0.798,7.078 -7.487,-3.982 -4.362,7.75 0.112,46.604 -0.004,93.208 0.081,139.813 -17.527,13.299 -35.949,29.83 -59.341,29.478 -6.09,0.007 4.307,1.575 6.101,2.133 19.824,4.173 41.541,7.64 57.209,21.139 3.2,-1.145 5.84,-4.925 9.344,-6.25 17.01,-9.815 37.007,-12.192 55.812,-16.657 -17.678,0.047 -34.671,-6.673 -48.125,-17.906 -8.362,-5.776 -16.226,-15.084 -14.312,-25.969 -0.078,-46.23 0.235,-92.531 -0.188,-138.718 -2.895,-4.18 -2.244,-0.75 -2.219,3.187 z"
           id="path119" />
        <path
           style="fill:#fff468"
           inkscape:connector-curvature="0"
           d="m 283.84509,345.55242 c -10.426,9.192 -21.916,17.604 -34.176,24.197 -6.13,1.948 0.713,2.287 3.739,3.334 10.733,3.048 21.49,7.31 30.75,13.75 10.511,-7.798 22.935,-11.998 35.593,-15.031 -13.872,-5.653 -26.746,-14.38 -35.5,-26.719 z"
           id="path121" />
        <path
           style="fill:#ffffae"
           inkscape:connector-curvature="0"
           d="m 282.56409,354.61442 c -6.497,5.432 -13.46,10.227 -20.531,14.844 7.764,2.313 15.46,6.639 22.375,9.906 5.87,-3.823 12.36,-6.758 18.906,-9.062 -7.36,-4.47 -14.199,-9.88 -19.781,-16.469 l -0.779,0.628 z"
           id="path123" />
        <path
           style="fill:#d48f00;stroke:#000000;stroke-width:0.354"
           inkscape:connector-curvature="0"
           d="m 206.27809,179.84742 h 153.57 v 21.429 h -153.57 z"
           id="path125" />
        <path
           style="fill:#d4aa00"
           inkscape:connector-curvature="0"
           d="m 208.28309,199.27042 h 149.562 c -0.71,-5.436 1.393,-13.684 -1,-17.437 h -148.562 v 17.438 z"
           id="path127" />
        <path
           style="fill:#ecc406"
           inkscape:connector-curvature="0"
           d="m 212.28309,195.27042 c 47.135,-0.11 94.271,0.21 141.406,-0.156 -0.554,-3.238 2.752,-10.533 -2.781,-9.281 h -138.625 v 9.438 z"
           id="path129" />
        <path
           style="fill:#ffa100;stroke:#000000;stroke-width:0.354"
           inkscape:connector-curvature="0"
           d="m 306.00509,155.16342 c -0.403,-0.336 -6.24,2.914 -5.719,3.418 2.036,1.967 3.033,4.29 5.91,4.395 -0.739,1.283 -1.366,2.726 -0.632,6.157 -0.738,3.615 -0.715,6.93 1.407,11.217 -1.617,1.946 -2.357,4.608 -2.121,8.068 -3.607,0.824 -7.8,0.581 -7.858,7.858 -3.246,1.227 -6.372,2.614 -7.142,7.142 -2.914,1.862 -5.863,2.903 -8.617,8.447 -2.842,0.043 -5.09,1.63 -6.74,4.768 -0.131,0.033 0.045,4.801 0.203,4.772 0.106,-0.02 -0.372,-4.693 -0.317,-4.706 3.936,-0.98 -10.107,2.161 -9.842,8.996 -0.025,0.007 1.317,3.647 1.279,3.545 -0.013,-0.035 -1.426,-3.504 -1.463,-3.494 -4.615,1.276 -9.409,2.335 -9.503,9.101 -4.229,2.948 -7.946,6.131 -7.858,11.071 -0.01,0.065 2.066,2.576 2.055,2.64 -0.008,0.05 -2.102,-2.346 -2.11,-2.297 -1.155,6.985 -4.174,13.17 -3.159,21.086 -1.565,3.979 0.48,10.268 2.258,13.24 0.202,0.337 3.95,1.467 4.032,1.49 -0.012,0.035 -3.776,-1.088 -3.8,-1.102 -0.533,-0.294 -0.47,3.742 1.796,5.3 l 7.857,5.358 32.5,-17.143 10.714,10 1.429,15 c -0.326,2.531 -1.042,7.797 1.696,10.803 0.813,6.334 1.794,11.771 6.875,15.268 -0.422,3.494 -0.847,6.988 0.357,10.715 -0.706,3.334 -0.484,6.784 0.715,10.357 -2.932,2.012 -3.313,5.79 -3.217,9.899 0,0.033 5.14,5.866 5.047,5.837 -0.015,0.012 -5.074,-5.712 -5.09,-5.7 -2.245,1.826 -3.495,4.362 -2.455,8.535 -0.02,0.012 0.449,6.976 0.449,6.976 -0.148,0.105 -0.55,-6.92 -0.57,-6.91 -2.902,1.6 -6.446,4.219 -6.664,7.077 -0.03,-0.002 0.864,7.112 0.803,7.056 -0.037,-0.033 -0.988,-7.064 -1.036,-7.065 -2.995,-0.057 -4.747,2.194 -6.196,5.009 -3.171,1.243 -7.421,4.183 -7.587,8.688 0,0.02 0.928,5.174 0.865,5.085 -0.033,0.016 -0.933,-4.992 -0.965,-4.976 -5.232,2.531 -6.265,4.387 -8.027,7.632 -4.179,1.316 -7.121,3.692 -9.643,6.428 -3.173,1.375 -5.542,3.152 -6.34,5.714 -0.743,2.499 -0.26,5.306 3.661,4.911 3.141,-0.92 4.01,-3.43 4.822,-5.982 0.088,0.004 -2.1,-4.585 -2.1,-4.585 0.02,0.088 2.074,4.586 2.164,4.58 2.807,-0.176 5.741,-2.743 8.15,-5.71 0.02,-0.015 -0.652,-5.202 -0.685,-5.32 -0.04,-0.143 0.775,5.247 0.792,5.233 2.98,-2.417 7.557,-3.527 8.197,-7.859 2.946,0.386 5.417,-1.367 7.41,-5.268 0.003,-0.004 -0.712,-8.529 -0.712,-8.529 -0.021,0.013 0.813,8.509 0.833,8.505 2.635,-0.558 4.92,-2.235 6.397,-6.493 2.686,-1.091 5.913,-0.993 6.34,-7.054 3.102,-1.824 6.557,-2.912 7.142,-10 3.299,-2.555 5,-6.228 3.587,-12.082 -0.005,-0.02 -5.325,-3.596 -5.319,-3.627 0.024,-0.013 5.352,3.54 5.376,3.527 2.514,-1.383 3.297,-4.604 2.07,-9.96 0.003,-0.03 -8.168,-3.89 -8.165,-3.92 0.002,-0.03 8.178,3.769 8.18,3.738 0.392,-4.95 0.575,-9.847 -1.8,-14.105 -0.022,-0.064 -6.601,-0.295 -6.623,-0.359 -0.024,-0.071 6.597,0.278 6.572,0.207 -1.308,-3.767 -2.96,-7.09 -5.116,-9.825 -0.237,0.167 -8.48,-5.642 -8.434,-5.595 0.026,0.025 8.361,5.892 8.448,5.392 0.62,-3.546 -0.022,-6.8 -0.291,-10.201 -0.007,-0.087 -9.774,-5.948 -9.78,-6.034 0.026,-0.101 9.895,5.98 9.917,5.878 1.108,-4.983 -1.91,-10.469 -2.104,-14.82 l -9.375,-11.428 -11.428,-7.5 -31.072,17.143 -4.643,-8.929 c -0.535,-3.153 -1.384,-5.915 -3.257,-7.395 -1.222,-2.255 -2.723,-4.075 -4.694,-5.165 2.272,0.924 3.5,2.974 4.713,5.038 l 1.767,-11.66 2.186,-8.675 c 1.914,-3.779 3.943,-7.355 4.614,-13.31 0.004,-0.04 -2.404,-3.762 -2.4,-3.802 0.005,-0.047 2.424,3.87 2.429,3.822 4.438,-0.058 6.31,-5.164 8.482,-9.433 4.09,-0.702 7.055,-3.302 8.884,-7.813 3.424,-0.115 5.864,-2.198 7.864,-5.16 0.064,-0.01 -1.32,-4.318 -1.258,-4.328 0.035,-0.006 1.518,4.286 1.553,4.28 3.838,-0.657 6.753,-2.898 8.342,-7.413 0.02,-0.003 -0.938,-5.274 -0.968,-5.076 -0.143,0.283 0.576,5.094 1.075,5.061 4.828,-0.32 7.123,-4.657 9.386,-8.89 0.02,-0.014 -3.612,-3.36 -3.591,-3.373 0.019,-0.014 3.691,3.304 3.71,3.29 3.676,-2.517 7.343,-3.69 7.235,-8.212 0.067,-0.024 -2.65,-2.71 -2.585,-2.735 0.063,-0.023 2.91,2.616 2.97,2.591 4.476,-1.79 4.291,-6.2 4.176,-10.43 0.008,-0.066 -5.105,-0.543 -5.096,-0.607 0.01,-0.063 5.142,0.288 5.153,0.226 0.377,-2.197 1.564,-3.936 1.096,-6.188 -0.206,0.311 -7.947,-4.43 -7.506,-5.147 -0.557,0.812 7.161,5.526 7.51,4.991 0.128,-3.91 0.919,-8.183 -2.246,-10.298 -0.057,-0.038 -4.658,-0.97 -4.718,-1.007 -0.08,-0.092 4.511,0.836 4.495,0.806 -1.586,-3.008 -1.022,-8.047 -5.035,-8.63 -1.059,-0.798 -3.586,-4.49 -4.623,-5.05 -2.565,-1.383 -4.797,0.005 -4.17,3.143 0.028,0.143 2.103,0.765 3.34,0.302 1.148,-0.43 1.46,-1.943 1.579,-1.927 0.19,0.024 -0.424,1.255 -1.652,1.75 -1.24,0.5 -3.096,0.266 -3.057,0.37 0.759,2.064 2.592,5.17 2.343,4.22 -0.127,-0.484 5.847,-3.286 5.968,-2.85 z"
           id="path133" />
        <path
           style="fill:#efea3f;stroke:#000000;stroke-width:0.354"
           inkscape:connector-curvature="0"
           d="m 179.56309,215.74042 -22.857,-13.572 c -0.99,0.392 -1.911,0.884 -1.964,2.679 l 23.214,13.929 z m -18.304,-6.518 -0.714,1.607 16.518,10.447 c 0,0 1.429,-2.322 0.714,-2.322 -0.714,0 -16.518,-9.732 -16.518,-9.732 z"
           id="path139" />
        <path
           style="fill:#efea3f;stroke:#000000;stroke-width:0.354"
           inkscape:connector-curvature="0"
           d="m 169.38509,210.02642 c -0.64,-2.346 -1.06,-4.61 0.178,-6.25 l -2.857,-1.965 c 0,0 -4.822,2.857 -4.643,3.929 0.179,1.071 1.607,4.643 1.607,4.643 l 2.322,1.25 z m 24.642,10.892 c -2.507,-1.47 -4.61,-3.461 -8.035,-3.75 l -2.858,-2.678 c -1.424,-0.334 -2.925,-0.552 -4.821,-0.179 l -2.857,5.715 1.607,2.5 2.321,1.964 c 1.843,-0.885 3.064,-0.218 4.465,0 1.061,2.476 3.631,3.142 5.803,4.286 z"
           id="path141" />
        <path
           style="fill:#f0e116"
           inkscape:connector-curvature="0"
           d="m 179.84509,216.14642 c -3.296,2.171 -1.622,7.053 2.156,5.937 3.35,-0.226 3.867,3.303 6.844,4.063 2.847,-2.921 2.933,-5.718 -1.125,-6.563 -3.44,0.073 -4.48,-3.983 -7.875,-3.437 z m -13.531,-11.719 c -3.46,0.439 -1.367,6.514 0.687,4.156 -0.849,-1.072 0.795,-4.608 -0.687,-4.156 z"
           id="path143" />
        <path
           style="fill:#efea3f;stroke:#000000;stroke-width:0.354"
           inkscape:connector-curvature="0"
           d="m 390.02809,215.74042 22.857,-13.572 c 0.99,0.392 1.911,0.884 1.965,2.679 l -23.215,13.929 z m 18.304,-6.518 0.714,1.607 -16.518,10.447 c 0,0 -1.428,-2.322 -0.714,-2.322 0.714,0 16.518,-9.732 16.518,-9.732 z"
           id="path145" />
        <path
           style="fill:#efea3f;stroke:#000000;stroke-width:0.354"
           inkscape:connector-curvature="0"
           d="m 400.20709,210.02642 c 0.64,-2.346 1.06,-4.61 -0.179,-6.25 l 2.857,-1.965 c 0,0 4.822,2.857 4.643,3.929 -0.178,1.071 -1.607,4.643 -1.607,4.643 l -2.321,1.25 z"
           id="path147" />
        <path
           style="fill:#f0e116"
           inkscape:connector-curvature="0"
           d="m 402.56409,204.45842 c 0.982,1.597 -1.31,5.755 1.75,4.531 1.68,-2.504 0.913,-4.247 -1.75,-4.531 z"
           id="path149" />
        <path
           style="fill:#efea3f;stroke:#000000;stroke-width:0.354"
           inkscape:connector-curvature="0"
           d="m 375.56409,220.91842 c 2.507,-1.47 4.61,-3.461 8.036,-3.75 l 2.857,-2.678 c 1.424,-0.334 2.926,-0.552 4.821,-0.179 l 2.857,5.715 -1.607,2.5 -2.321,1.964 c -1.842,-0.885 -3.064,-0.218 -4.465,0 -1.06,2.476 -3.63,3.142 -5.803,4.286 z"
           id="path151" />
        <path
           style="fill:#f0e116"
           inkscape:connector-curvature="0"
           d="m 388.78309,216.14642 c -2.8,1.096 -4.875,3.415 -8.032,3.906 -4.327,0.16 -1.123,7.431 1.47,5.406 1.986,-1.88 4.16,-4.267 7.562,-3.219 3.062,-0.928 1.705,-6.458 -1,-6.093 z"
           id="path153" />
        <path
           style="fill:#efea3f;stroke:#000000;stroke-width:0.354"
           inkscape:connector-curvature="0"
           d="m 228.60009,296.09742 c -0.153,-0.305 0.075,-5.483 0.267,-5.714 1.233,-1.487 4.158,-3.1 4.822,-2.5 0.357,0.089 4.018,2.5 4.018,2.5 l 3.928,-2.411 7.322,6.875 -14.107,8.036 -1.965,3.393 -5.535,-0.893 0.089,-6.607 z"
           id="path155" />
        <path
           style="fill:#f0e116"
           inkscape:connector-curvature="0"
           d="m 232.87609,289.89642 c -4.214,1.268 -0.873,6.661 -3.437,9.312 -1.144,9.718 5.267,0.322 9.615,-1.04 8.797,-0.813 5.113,-10.493 -1.118,-5.553 -1.66,-0.137 -3.321,-2.433 -5.06,-2.72 z"
           id="path157" />
        <path
           style="fill:#efea3f;stroke:#000000;stroke-width:0.354"
           inkscape:connector-curvature="0"
           d="m 244.85009,291.27642 c -5.065,1.688 -9.734,3.934 -15.268,7.5 -0.752,1.171 -0.568,2.187 -2.59,3.571 -2.515,-1.293 -5.89,-3.159 -4.732,-4.91 1.399,-0.774 2.374,-0.489 3.304,-0.09 l 15.714,-10 4.643,0.714 z"
           id="path159" />
        <path
           style="fill:#f0e116"
           inkscape:connector-curvature="0"
           d="m 237.84509,291.89642 c 2.52,-0.81 8.44,-3.775 2.188,-1.395 z m -11.219,7.125 c -1.906,2.82 2.647,-1.45 0,0 z"
           id="path161" />
        <path
           style="fill:#efea3f;stroke:#000000;stroke-width:0.354"
           inkscape:connector-curvature="0"
           d="m 245.65209,294.61942 -4.374,-7.272 8.572,-5.357 -1.072,-1.786 1.648,-0.647 8.488,0.769 c -2.946,5.958 -4.56,10.573 -13.262,14.293 z"
           id="path163" />
        <path
           style="fill:#f0e116"
           inkscape:connector-curvature="0"
           d="m 252.56409,282.64642 c -4.239,1.628 -12.302,7.394 -4.969,8.78 3.86,-1.9 6.523,-5.518 8.25,-9.374 -0.57,0.355 -5.547,-1.393 -3.281,0.594 z"
           id="path165" />
        <path
           style="fill:#efea3f;stroke:#000000;stroke-width:0.354"
           inkscape:connector-curvature="0"
           d="m 340.99209,296.09742 c 0.152,-0.305 -0.076,-5.483 -0.268,-5.714 -1.233,-1.487 -4.158,-3.1 -4.822,-2.5 -0.357,0.089 -4.018,2.5 -4.018,2.5 l -3.928,-2.411 -7.322,6.875 14.108,8.036 1.964,3.393 5.536,-0.893 -0.09,-6.607 z"
           id="path167" />
        <path
           style="fill:#f0e116"
           inkscape:connector-curvature="0"
           d="m 336.18909,289.99042 c -3.649,5.536 -7.856,-2.255 -10.882,3.209 -1.703,4.04 9.608,5.096 11.668,9.56 4.388,4.353 3.423,-4.436 2.058,-7.051 0.13,-2.422 0.334,-5.848 -2.844,-5.719 z m 2.656,1.343 c 0.104,-0.032 -0.043,-0.058 0,0 z"
           id="path169" />
        <path
           style="fill:#efea3f;stroke:#000000;stroke-width:0.354"
           inkscape:connector-curvature="0"
           d="m 324.74209,291.27642 c 5.065,1.688 9.733,3.934 15.267,7.5 0.752,1.171 0.568,2.187 2.59,3.571 2.515,-1.293 5.89,-3.159 4.732,-4.91 -1.399,-0.774 -2.374,-0.489 -3.304,-0.09 l -15.714,-10 -4.643,0.714 z"
           id="path171" />
        <path
           style="fill:#f0e116;stroke:#000000;stroke-width:0.354"
           inkscape:connector-curvature="0"
           d="m 305.76809,303.58742 c 2.264,3.522 4.398,6.39 8.066,7.56 8.305,1.62 12.755,0.349 18.436,0 l -3.03,-1.514 c -4.66,0.58 -9.259,1.698 -14.143,0.252 -3.724,-1.59 -5.724,-4.04 -7.576,-6.566 -1.029,-1.842 -0.86,-4.402 -0.73,-6.938 l 7.296,4.413 c 2.466,2.011 3.986,3.823 1.964,4.89 -1.387,0.128 -3.215,-0.297 -3.732,0.918 1.839,1.048 2.873,0.461 4.934,0.299 2.084,-1.292 1.717,-2.584 2.306,-3.875 l -14.311,-9.303 c 0.024,3.271 -0.05,6.523 0.52,9.864 z"
           id="path173" />
        <path
           style="fill:#efea3f;stroke:#000000;stroke-width:0.354"
           inkscape:connector-curvature="0"
           d="m 323.32009,296.07742 4.993,-8.73 -8.571,-5.357 1.071,-1.786 -0.995,-0.73 -9.112,0.471 c 0.57,7.965 7.093,11.88 12.614,16.132 z"
           id="path175" />
        <path
           style="fill:#f0e116"
           inkscape:connector-curvature="0"
           d="m 313.03309,281.83342 c 1.1,4.967 5.76,8.348 9.656,11.25 7.524,-6.139 -4.643,-7.357 -5.031,-11.5 z"
           id="path177" />
        <path
           style="fill:#c79a0e;stroke:#000000;stroke-width:0.354"
           inkscape:connector-curvature="0"
           d="m 193.62609,220.23442 -7.07,8.081 19.192,9.597 6.566,5.05 94.45,55.559 26.768,14.647 4.672,3.914 c 3.09,5.677 6.339,11.3 8.46,17.3 l 3.536,1.515 6.566,1.01 c 10.07,10.113 18.014,20.053 25.13,30.85 0.987,1.498 0.224,3.63 1.26,5.136 4.42,0.98 8.839,0.403 13.258,-0.252 2.639,-1.292 8.455,-6.538 14.9,-11.49 1.363,-2.19 2.508,-4.378 3.536,-6.567 l -48.993,-36.365 -5.487,-0.03 c -1.562,0.013 -3.21,-0.276 -4.11,-2.117 -0.797,-1.951 -1.675,-4.43 -3.164,-5.92 l -10.977,-7.085 h -3.536 l -3.157,-3.283 -13.005,-5.809 0.505,-2.525 -11.112,-9.597 v -1.01 l -36.87,-23.738 -9.092,0.505 -6.566,-4.04 -2.852,-0.983 -35.534,-19.22 z"
           id="path179" />
        <path
           style="fill:#f0e116"
           inkscape:connector-curvature="0"
           d="m 326.34509,289.64642 c 2.953,1.174 7.735,3.391 2.033,0.1 -0.534,-0.698 -1.352,-0.081 -2.033,-0.1 z m 15.906,9.156 c 0.872,2.334 2.279,0.074 0,0 z"
           id="path181" />
        <path
           style="fill:#deae17"
           inkscape:connector-curvature="0"
           d="m 189.75109,227.67742 c 9.223,4.38 18.316,8.917 26.367,15.208 39.776,23.202 79.17,47.18 119.462,69.403 6.785,4.823 9.28,13.36 12.671,20.608 4.857,2.02 10.783,1.04 13.625,6.437 8.26,9.027 16.73,18.502 22.47,29.281 -0.65,4.653 5.697,2.318 8.53,2.469 6.942,-0.745 11.1,-7.87 16.875,-11.25 2.487,-2.969 3.5,-6.09 -1.42,-7.605 l -43.142,-32.02 c -4.62,0.77 -10.947,-0.003 -11.719,-5.719 -1.967,-5.008 -8.22,-6.091 -11.969,-9.437 -5.884,0.34 -9.202,-6.401 -15.41,-7.22 -7.38,-1.153 -4.736,-7.847 -11.43,-10.88 -9.373,-9.528 -22.214,-15.58 -33.447,-23.411 -4.488,-4.342 -9.944,-4.997 -15.869,-3.895 -17.374,-9.406 -34.807,-19.173 -52.52,-27.939 l -18.699,-8.999 z"
           id="path183" />
        <path
           style="fill:#e0be25"
           inkscape:connector-curvature="0"
           d="m 222.28309,241.70842 c 31.793,19.226 64.197,37.951 96.5,56.625 -2.462,-3.468 -3.95,-7.598 -7.938,-9.469 -10.997,-10.124 -24.686,-16.944 -37.031,-25.25 -5.385,-0.68 -11.633,0.838 -15.908,-3.45 -13.531,-7.469 -26.997,-14.755 -40.748,-21.768 z m 104.312,61.125 c 7.89,4.111 16.713,8.372 20.25,17.188 2.604,3.518 2.196,10.212 7.563,10.28 6.915,0.852 11.129,6.482 15.071,11.56 7.17,7.845 14.077,16.229 18.679,25.753 6.017,-0.044 11.206,-3.41 15.074,-7.815 1.13,-1.876 6.712,-3.765 2.05,-4.81 -13.881,-10.093 -27.52,-21.095 -41.656,-30.5 -6.354,0.918 -13.27,-3.223 -14.562,-9.562 -6.066,-5.842 -14.982,-6.516 -21.188,-12.25 -1.93,-1.27 -6.216,-2.188 -1.28,0.156 z"
           id="path185" />
        <path
           style="fill:#ffc100"
           inkscape:connector-curvature="0"
           d="m 361.59509,328.64642 c 9.056,5.543 14.293,15.43 21.438,23.062 3.05,3.439 4.972,8.917 8.187,11.563 3.582,-1.115 8.422,-4.397 8.938,-7.032 -12.846,-9.087 -24.933,-20.097 -38.563,-27.593 z"
           id="path187" />
        <path
           style="fill:#efea3f"
           inkscape:connector-curvature="0"
           d="m 282.77209,274.02542 c 0.426,2.036 -0.285,3.1 -2.331,2.984 l -36.812,-20.662 c -0.51,-2.172 0.548,-3.397 2.556,-3.061 z"
           id="path189" />
        <path
           style="fill:#c79a0e;stroke:#000000;stroke-width:0.354"
           inkscape:connector-curvature="0"
           d="m 285.81809,263.89342 c 0.041,2.728 0.712,5.22 -1.026,8.616 8.287,3.293 15.653,7.585 24.866,13.194 0.628,-2.175 1.234,-4.349 0,-6.523 z"
           id="path191" />
        <path
           style="fill:#f0e116;stroke:#000000;stroke-width:0.354"
           inkscape:connector-curvature="0"
           d="m 263.82309,303.58742 c -2.264,3.522 -4.398,6.39 -8.066,7.56 -8.305,1.62 -12.755,0.349 -18.435,0 l 3.03,-1.514 c 4.659,0.58 9.258,1.698 14.142,0.252 3.724,-1.59 5.725,-4.04 7.576,-6.566 1.029,-1.842 0.86,-4.402 0.73,-6.938 l -7.296,4.413 c -2.466,2.011 -3.986,3.823 -1.964,4.89 1.387,0.128 3.215,-0.297 3.732,0.918 -1.839,1.048 -2.872,0.461 -4.933,0.299 -2.085,-1.292 -1.718,-2.584 -2.307,-3.875 l 14.311,-9.303 c -0.024,3.271 0.05,6.523 -0.52,9.864 z"
           id="path193" />
        <path
           style="fill:#c79a0e;stroke:#000000;stroke-width:0.354"
           inkscape:connector-curvature="0"
           d="m 375.96509,220.23442 7.071,8.081 -19.193,9.597 -6.566,5.05 -94.45,55.559 -26.768,14.647 -4.672,3.914 c -3.09,5.677 -6.339,11.3 -8.46,17.3 l -3.536,1.515 -6.566,1.01 c -10.07,10.113 -18.014,20.053 -25.13,30.85 -0.987,1.498 -0.224,3.63 -1.26,5.136 -4.42,0.98 -8.839,0.403 -13.258,-0.252 -2.639,-1.292 -8.454,-6.538 -14.9,-11.49 -1.363,-2.19 -2.508,-4.378 -3.535,-6.567 l 48.992,-36.365 5.487,-0.03 c 1.563,0.013 3.21,-0.276 4.11,-2.117 0.797,-1.951 1.675,-4.43 3.164,-5.92 l 10.978,-7.085 h 3.535 l 3.157,-3.283 13.006,-5.809 -0.506,-2.525 11.112,-9.597 v -1.01 l 36.87,-23.738 9.092,0.505 6.566,-4.04 2.852,-0.983 35.534,-19.22 z"
           id="path195" />
        <path
           style="fill:#deae17"
           inkscape:connector-curvature="0"
           d="m 349.56409,235.17742 c -15.203,8.117 -30.667,16.76 -45.938,24.437 -6.5,-1.743 -11.837,0.923 -16.818,4.94 l -27.025,17.373 c -1.678,4.99 -11.5,6.87 -10.46,12.668 -4.534,4.088 -13.53,4.515 -17.478,10.457 -5.67,-0.368 -10.622,4.312 -14.812,7.656 -1.15,3.966 -3.898,8.513 -8.813,7.475 -7.385,-0.263 -12.106,7.442 -18.294,10.757 -10.77,8.172 -22.256,16.185 -32.58,24.456 3.287,6.944 10.693,10.722 16.53,15.343 3.548,0.256 8.062,1.46 11.157,0.063 0.56,-7.064 7.316,-11.847 10.724,-17.675 5.231,-6.333 10.473,-13.115 16.744,-18.2 4.28,-0.476 9.675,-0.657 10.407,-5.813 3.626,-8.064 7.63,-16.794 16.573,-20.088 39.74,-21.666 78.349,-45.378 117.376,-68.27 6.632,-6.008 15.258,-8.83 22.988,-13.08 -3.402,-8.106 -9.669,-2.091 -15.188,0.236 z"
           id="path197" />
        <path
           style="fill:#e0be25"
           inkscape:connector-curvature="0"
           d="m 353.00109,238.02042 c -16.409,8.395 -32.448,17.654 -49,25.876 -9.587,-3.62 -16.615,6.48 -24.437,10.062 -7.655,4.919 -15.658,9.46 -21.969,16.094 -1.941,1.323 -5.618,2.956 -3.969,5.969 -1.582,2.11 7.985,-4.301 10.899,-5.624 30.048,-17.11 59.845,-34.991 89.508,-52.908 l -0.89,0.458 -0.142,0.074 z m -110.5,64.532 c -2.059,0.886 -4.173,1.72 -5.906,3.187 1.027,-0.773 9.66,-4.554 5.906,-3.187 z m -11.593,6.562 c -6.26,0.618 -10.383,5.96 -13.125,11.094 -2.96,4.044 -8.13,4.135 -12.47,4.625 -7.76,4.383 -13.999,11.013 -21.488,15.713 -7.088,5.292 -14.373,10.099 -21.042,15.912 4.915,5.122 11.62,11.99 19.125,10.813 3.552,-10.08 12.405,-17.64 18.718,-26.157 4.314,-5.522 9.909,-11.093 17.344,-11.281 3.035,-3.849 3.498,-9.31 6.719,-13.281 1.71,-2.88 4.743,-5.593 6.75,-7.5 z"
           id="path199" />
        <path
           style="fill:#ffc100"
           inkscape:connector-curvature="0"
           d="m 207.47009,328.89642 c -9.644,4.913 -17.85,13.005 -26.941,19.109 -3.647,3.061 -8.993,5.87 -11.934,8.953 3.254,2.45 6.417,5.819 10.625,6.375 5.976,-11.978 15.796,-21.446 24.438,-31.406 0.998,-0.99 3.819,-2.79 3.812,-3.031 z"
           id="path201" />
        <path
           style="fill:#efea3f"
           inkscape:connector-curvature="0"
           d="m 286.81909,274.02542 c -0.426,2.036 0.285,3.1 2.332,2.984 l 36.811,-20.662 c 0.51,-2.172 -0.548,-3.397 -2.556,-3.061 z m 7.829,-17.216 9.553,-0.419 4.038,-2.834 c 1.941,-0.97 3.272,-0.718 4.77,-0.803 l -6.997,7.635 -12.747,0.341 c 0.113,-1.207 -0.292,-2.267 1.383,-3.92 z m -10.875,7.084 c -0.041,2.728 -0.712,5.22 1.026,8.616 -8.287,3.293 -15.653,7.585 -24.866,13.194 -0.628,-2.175 -1.234,-4.349 0,-6.523 z"
           id="path203" />
        <path
           style="fill:#efea3f;stroke:#000000;stroke-width:0.354"
           inkscape:connector-curvature="0"
           d="m 348.93709,232.80042 c 1.254,-3.008 3.74,-3.43 6.67,-2.92 l 9.075,7.866 c -0.855,2.766 -3.041,4.394 -6.577,4.81 z"
           id="path205" />
        <path
           style="fill:#f0e116"
           inkscape:connector-curvature="0"
           d="m 353.12609,231.74042 c -4.249,0.543 2.477,4.21 3.098,5.89 1.134,3.236 4.528,3.244 6.027,0.64 -3.105,-1.718 -5.385,-6.583 -9.125,-6.53 z"
           id="path207" />
        <path
           style="fill:#efea3f;stroke:#000000;stroke-width:0.354"
           inkscape:connector-curvature="0"
           d="m 220.65509,232.80042 c -1.255,-3.008 -3.742,-3.43 -6.671,-2.92 l -9.075,7.866 c 0.856,2.766 3.042,4.394 6.577,4.81 z"
           id="path209" />
        <path
           style="fill:#f0e116"
           inkscape:connector-curvature="0"
           d="m 215.28309,231.74042 c -2.11,1.85 -7.715,4.708 -7.375,7.28 4.197,3.983 6.98,-4.611 10.25,-6.5 -0.646,-0.81 -1.913,-0.85 -2.875,-0.78 z"
           id="path211" />
        <path
           style="fill:#efea3f"
           inkscape:connector-curvature="0"
           d="m 274.94309,256.80942 -9.553,-0.419 -4.038,-2.834 c -1.941,-0.97 -3.271,-0.718 -4.77,-0.803 l 6.997,7.635 12.747,0.341 c -0.113,-1.207 0.292,-2.267 -1.383,-3.92 z"
           id="path213" />
      </g>
    </g>
  </g>
</svg>
