<svg xmlns="http://www.w3.org/2000/svg" width="2000" height="1333.3334">
  <path style="fill:#da251d" d="M0 0h2000v1333.3334H0z"/>
  <path style="fill:#ff0;fill-opacity:1" transform="matrix(66.66667 0 0 66.66667 0 38.333351)" d="m11.47 14.85 9.24-6.7H9.29l9.24 6.7L15 4"/>
  <path d="m134.51862 235.81447-21.10893-.0576-6.53631-8.87747c-11.432215-2.856-17.148325-11.71138-17.148325-26.56619v-79.24135c0-18.40236 9.067173-27.603523 27.201485-27.603523 18.17901 0 27.26851 9.201163 27.26851 27.603523v79.24135c0 14.52018-5.40261 23.30661-16.20783 26.35931zm-9.28421-114.74261c0-5.8959-2.74695-8.86619-8.24088-8.91086h-.13412c-5.44923 0-8.17385 2.9703-8.17385 8.91086v79.24135c0 5.94056 2.74695 8.91082 8.24084 8.91082 5.53859 0 8.30787-2.97026 8.30787-8.91082zM207.21856 201.47041q0 27.60348-27.26847 27.67047-27.20152 0-27.20152-27.67047V95.545304h18.96064V201.47041q0 8.91081 8.24088 8.91081 8.30783 0 8.30783-8.91081V95.545304h18.96064zM235.87174 95.545304l12.93076 51.254086 12.93076-51.254086h20.09965l-22.98059 74.569646-.53599 1.60797v55.274h-18.96067v-55.274l-.60299-1.60797-22.98059-74.569646zM290.38643 95.545304h49.17712v18.692666h-30.21648v31.6458h25.99555v18.75966h-25.99555v43.66086h30.21648v18.69263h-49.17712zM402.58709 95.545304v18.692666h-17.75467v112.75895h-18.96068V114.23797h-17.75468V95.545304ZM497.72536 95.545304v18.692666h-17.75468v112.75895h-18.96064V114.23797h-17.75468V95.545304ZM506.55971 95.545304h18.96065v48.803486h16.54871V95.545304h18.96064V226.99692h-18.96064v-63.88847h-16.54871v63.88847h-18.96065zM628.75597 180.36576l6.16391 46.63116h-19.16166l-3.68494-27.87149h-19.36265l-3.75193 27.87149h-19.09467l6.16391-46.43014 13.39976-85.021476h25.99551zm-19.16166 0-7.23585-54.67101-7.23589 54.67101zM643.75417 95.545304h18.96064l17.95569 76.244616V95.545304h17.5537V226.99692h-18.96068l-17.28568-73.83264v73.83264h-18.22367zM761.52851 201.47041c0 18.40232-9.0895 27.62581-27.26851 27.67047-18.13434 0-27.20148-9.22349-27.20148-27.67047v-80.39855c0-18.40236 9.06714-27.603523 27.20148-27.603523 18.17901 0 27.26851 9.201163 27.26851 27.603523v1.75787h-18.96064v-1.75787c0-5.8959-2.74695-8.86619-8.24087-8.91086h-.13413c-5.44923 0-8.17384 2.9703-8.17384 8.91086v80.39855c0 5.94055 2.74694 8.91081 8.24087 8.91081 5.53855 0 8.30783-2.97026 8.30783-8.91081v-30.81947h-8.24084v-18.75966h27.20149z" style="font-style:normal;font-variant:normal;font-weight:400;font-stretch:normal;font-size:medium;line-height:1.25;font-family:Gobold;-inkscape-font-specification:Gobold;letter-spacing:0;word-spacing:0;fill:#ff0;fill-opacity:1;stroke:none;stroke-width:3.43033814"/>
  <path d="M412.31105 354.87006h11.41858l6.82199 10.62494h-7.31461l-5.22092-6.0156-5.58502 6.0156h-6.95049z" style="fill:#ff0;fill-opacity:1;stroke:none;stroke-width:2.7134757;stroke-miterlimit:4;stroke-dasharray:none;stroke-dashoffset:0;stroke-opacity:1" transform="translate(-228.60102 -386.88644) scale(1.30329)"/>
  <path d="M434.95585 343.87279h10.48647l-9.05329 10.40765h-6.32106z" style="fill:#ff0;fill-opacity:1;stroke:none;stroke-width:14.34602165;stroke-miterlimit:4;stroke-dasharray:none;stroke-dashoffset:0;stroke-opacity:1" transform="translate(-228.60102 -386.88644) scale(1.30329)"/>
  <g>
    <path d="M564.15572 350.74765h6.53219c.0597 2.90247.88851 5.21608 2.4069 6.38499 2.16341 1.66547 6.54093 1.97862 8.77094-.10758 1.90638-1.78344 1.98809-3.52698 2.4322-6.27741h6.40497c-.32233 5.05381-1.43878 7.55234-3.76876 9.89238-5.0411 5.06288-13.35139 4.74084-18.20802 1.24847-3.25491-2.34058-5.03759-6.25569-4.57042-11.14085z" style="fill:#ff0;fill-opacity:1;stroke:none;stroke-width:11.24595547;stroke-miterlimit:4;stroke-dasharray:none;stroke-dashoffset:0;stroke-opacity:1" transform="translate(-149.81217 -385.56612) scale(1.30329)"/>
    <path style="fill:#ff0;fill-opacity:1;stroke:none;stroke-width:12.98832703;stroke-miterlimit:4;stroke-dasharray:none;stroke-dashoffset:0;stroke-opacity:1" d="M578.20065 342.35545h9.37353l-8.09246 9.54381h-5.6502z" transform="translate(-149.81217 -385.56612) scale(1.30329)"/>
  </g>
</svg>
