<?xml version="1.0" encoding="UTF-8"?>
<svg width="1e3" height="600" version="1.1" viewBox="0 0 183.33333 110" xmlns="http://www.w3.org/2000/svg" xmlns:cc="http://creativecommons.org/ns#" xmlns:dc="http://purl.org/dc/elements/1.1/" xmlns:rdf="http://www.w3.org/1999/02/22-rdf-syntax-ns#">
 <metadata>
  <rdf:RDF>
   <cc:Work rdf:about="">
    <dc:format>image/svg+xml</dc:format>
    <dc:type rdf:resource="http://purl.org/dc/dcmitype/StillImage"/>
   </cc:Work>
  </rdf:RDF>
 </metadata>
 <path d="M 0,0 H 183.33334 V 110 H 0 Z" fill="#002868"/>
 <g transform="matrix(.25 0 0 .25 1.9051106e-6 0)">
  <path d="m-7.6204422e-6 0h183.333328v110h-183.333328z" fill="#bf0a30"/>
  <path d="m-7.6204422e-6 10v10h183.333328v-10zm0 20v10h183.333328v-10zm0 20v10h183.333328v-10zm0 20v10h183.333328v-10zm0 20v10h183.333328v-10z" color="#000000" fill="#ffffff" style="text-decoration-line:none;text-indent:0;text-transform:none"/>
  <path d="m-7.6204422e-6 0h50.0000006v50h-50.0000006z" fill="#002868"/>
  <g transform="matrix(15,0,0,15,24.999993,25)" fill="#ffffff">
   <polygon transform="rotate(18 3.1568758 -.49999998)" points="0 0 0 1 0.5 1"/>
   <polygon transform="matrix(-.95105652 .30901699 .30901699 .95105652 0 -1)" points="0.5 1 0 0 0 1"/>
   <g transform="rotate(72)">
    <polygon transform="rotate(18 3.1568758 -.49999998)" points="0.5 1 0 0 0 1"/>
    <polygon transform="matrix(-.95105652 .30901699 .30901699 .95105652 0 -1)" points="0.5 1 0 0 0 1"/>
   </g>
   <g transform="rotate(-72)">
    <polygon transform="rotate(18 3.1568758 -.49999998)" points="0.5 1 0 0 0 1"/>
    <polygon transform="matrix(-.95105652 .30901699 .30901699 .95105652 0 -1)" points="0.5 1 0 0 0 1"/>
   </g>
   <g transform="rotate(144)">
    <polygon transform="rotate(18 3.1568758 -.49999998)" points="0.5 1 0 0 0 1"/>
    <polygon transform="matrix(-.95105652 .30901699 .30901699 .95105652 0 -1)" points="0.5 1 0 0 0 1"/>
   </g>
   <g transform="rotate(216)">
    <polygon transform="rotate(18 3.1568758 -.49999998)" points="0.5 1 0 0 0 1"/>
    <polygon transform="matrix(-.95105652 .30901699 .30901699 .95105652 0 -1)" points="0.5 1 0 0 0 1"/>
   </g>
  </g>
 </g>
 <g>
  <path d="m183.33334 73.333335v-9.16667h-91.666672v9.16667z" color="#000000" fill="#ffffff"/>
  <path d="m183.33334 91.666671v-9.16667h-91.666671v9.16667z" color="#000000" fill="#ffffff"/>
  <path d="m183.33334 82.500001v-9.166666h-91.666672v9.166666z" color="#000000" fill="#bf0a30"/>
  <path d="m183.33334 64.166665v-9.166665h-91.666672v9.166665z" color="#000000" fill="#bf0a30"/>
 </g>
</svg>
