<svg xmlns="http://www.w3.org/2000/svg" height="600" width="1200"><g transform="translate(838.04115,-2.4955705)"><g transform="matrix(1.3333332,0,0,1.3333332,279.34684,-200.8317)"><path fill="#ce1126" d="M-838.041 152.495H61.958999999999946V602.495H-838.041z"/><g transform="translate(-2.7521244)"><path d="m -137.13483,309.44412 -3.84766,10.02344 c 0,0 1.51389,1.57408 3.65235,1.66992 -1.85068,0.19555 -3.71751,2.34423 -3.82422,2.46875 h -0.0508 c 0,0 -2.30865,0.12722 -4.16406,0.36914 -1.45995,0.19041 -2.49064,0.47356 -3.20508,0.72852 -0.39777,0.0776 -0.79033,0.19967 -1.1875,0.39843 -1.20856,0.60448 -1.13337,3.13803 -1.13282,3.15625 4.1136,1.24586 8.03465,9.04673 8.85547,14.71094 1.13984,7.86018 -1.10742,17.39649 -1.10742,17.39649 l 0.006,0.006 h -0.004 l 5.77344,5.62304 c -0.44993,0.14295 -0.68253,0.67592 -0.99609,1.01563 -0.36444,0.39519 -0.74175,0.23216 -0.94922,1.00195 -0.20709,0.7697 0.78125,3.3125 0.78125,3.3125 0,0 0.57992,-0.57031 1.40039,-0.57031 0.82085,0 1.40039,0.57031 1.40039,0.57031 0,0 0.98872,-2.54271 0.78125,-3.3125 -0.20746,-0.77017 -0.58477,-0.60714 -0.94922,-1.00195 -0.28611,-0.31013 -0.5063,-0.77996 -0.88476,-0.96875 l 5.82226,-5.66992 h -0.0117 l 0.0117,-0.0117 c 0,0 -2.24725,-9.53631 -1.10742,-17.39649 0.82084,-5.6642 4.74187,-13.46509 8.85547,-14.71093 5.5e-4,-0.0182 0.0757,-2.55179 -1.13281,-3.15626 -0.43391,-0.21714 -0.88951,-0.34036 -1.36329,-0.40039 -0.71398,-0.25313 -1.73886,-0.53202 -3.18554,-0.7207 -1.85542,-0.24192 -4.16406,-0.36914 -4.16406,-0.36914 h -0.0508 c -0.10353,-0.12593 -1.92925,-2.31615 -3.75976,-2.47461 2.10288,-0.12544 3.58789,-1.66406 3.58789,-1.66406 l -3.84961,-10.02344 z m 13.91797,18.8086 c 0,6e-5 0,0.006 0,0.006 0,0 0.004,-0.006 0.004,-0.006 0,0 -0.002,0 -0.002,0 0,0 -0.002,0 -0.002,0 z m 0.004,0 c 1.77963,-0.52865 13.30651,3.83816 13.9961,16.5332 0.43657,8.03861 -7.35547,16.76953 -7.35547,16.76953 l 3.94531,6.43555 c -0.24961,0.1607 -0.47955,0.38597 -0.71875,0.53711 -0.45412,0.28699 -0.77613,0.0329 -1.17578,0.72265 -0.39965,0.68902 -0.10156,3.40039 -0.10156,3.40039 0,0 0.70752,-0.3998 1.5,-0.1875 0.79275,0.2124 1.20508,0.91407 1.20508,0.91407 0,0 1.61423,-2.20084 1.61328,-2.99805 -0.001,-0.79684 -0.40832,-0.73722 -0.65821,-1.21289 -0.10853,-0.20681 -0.1878,-0.45436 -0.2871,-0.6836 l 7.88671,-4.16015 c 0,0 -0.32593,-2.71788 0.23829,-4.74414 1.71833,-6.17504 3.5853,-9.95111 2.61914,-17.77149 0.0336,0.002 14.59129,0.89553 15.96679,12.26172 1.14932,9.48309 -6.95898,13.83789 -6.95898,13.83789 l 3.37109,5.15235 c 1.15088,-0.78457 2.17559,-1.59968 3.10352,-2.4336 -0.0349,0.29394 0.0381,0.60509 0.2207,0.88477 0.37075,0.56786 1.21836,0.66663 1.75195,0.24804 0.25624,-0.20101 0.49419,-0.55539 0.50586,-0.88085 0.0117,-0.32548 -0.10623,-0.64247 -0.32812,-0.88086 -0.22189,-0.2384 -0.53,-0.37893 -0.85547,-0.39063 -0.0921,-0.003 -0.1695,0.0112 -0.25195,0.0176 0.27677,-0.27911 0.55058,-0.55881 0.80468,-0.8418 -0.12569,0.41206 -0.025,0.86273 0.30274,1.21485 0.46206,0.49642 1.31849,0.46212 1.77539,-0.0391 0.21941,-0.24069 0.40233,-0.61635 0.36133,-0.93945 -0.041,-0.32311 -0.20936,-0.61692 -0.4668,-0.81641 -0.25744,-0.19956 -0.58314,-0.28904 -0.90625,-0.24804 -0.16484,0.0209 -0.31432,0.0492 -0.44922,0.10351 0.33758,-0.41039 0.64874,-0.82374 0.94141,-1.24023 -0.18258,0.49958 -0.0379,1.0345 0.41406,1.38476 0.5361,0.41542 1.38552,0.25441 1.75781,-0.3125 0.1788,-0.27224 0.24184,-0.60294 0.17578,-0.92187 -0.0661,-0.31891 -0.25976,-0.62974 -0.54492,-0.78711 -0.28515,-0.15713 -0.58929,-0.23407 -0.9082,-0.16797 -0.18106,0.0375 -0.34187,0.12458 -0.48633,0.23438 0.28166,-0.43289 0.53388,-0.86932 0.76953,-1.30664 -0.0772,0.49866 0.1439,0.97472 0.625,1.24023 0.59381,0.32771 1.4174,0.0466 1.69922,-0.57031 0.13537,-0.29625 0.147,-0.63428 0.0332,-0.93946 -0.11378,-0.30517 -0.33895,-0.57675 -0.64453,-0.68945 -0.30559,-0.1127 -0.62841,-0.14698 -0.93359,-0.0332 -0.16104,0.06 -0.30293,0.15592 -0.42383,0.27343 0.20852,-0.43371 0.39874,-0.86882 0.56445,-1.30468 0.0344,0.46537 0.3266,0.89248 0.79297,1.06445 0.63634,0.23466 1.34347,-0.0922 1.57813,-0.72851 0.11264,-0.30559 0.082,-0.73485 -0.0762,-1.01954 -0.15821,-0.28469 -0.42315,-0.49458 -0.73633,-0.58398 -0.31317,-0.0894 -0.6489,-0.0508 -0.9336,0.10742 -0.12281,0.0683 -0.21392,0.14499 -0.29687,0.23047 0.127,-0.40733 0.22863,-0.81355 0.32031,-1.2207 0.12054,0.41466 0.45398,0.75253 0.91016,0.88281 0.65216,0.18624 1.32435,-0.2888 1.46094,-0.95313 0.0656,-0.31903 -0.0116,-0.73854 -0.21094,-0.99609 -0.19935,-0.25756 -0.49333,-0.4256 -0.81641,-0.4668 -0.32309,-0.0412 -0.64869,0.0487 -0.90625,0.24805 -0.10133,0.0784 -0.17312,0.16181 -0.24219,0.24805 0.0621,-0.40405 0.11148,-0.8072 0.14063,-1.20899 0.18111,0.37999 0.54527,0.65398 1.00781,0.71289 0.67279,0.0857 1.28281,-0.48472 1.31641,-1.16211 0.0161,-0.32529 -0.1069,-0.73151 -0.34375,-0.95507 -0.23684,-0.22355 -0.55141,-0.34299 -0.87695,-0.33399 -0.32556,0.009 -0.63582,0.14792 -0.85938,0.38477 -0.0812,0.086 -0.1353,0.17241 -0.19141,0.25976 8e-5,-0.40487 -0.0248,-0.8067 -0.0566,-1.20703 0.23042,0.35754 0.63338,0.57614 1.10743,0.5625 0.67792,-0.0196 1.21036,-0.68323 1.13671,-1.35742 -0.0354,-0.32377 -0.20096,-0.71006 -0.4707,-0.89258 -0.26972,-0.18176 -0.60013,-0.25115 -0.91992,-0.18945 -0.3198,0.0617 -0.60263,0.24785 -0.78516,0.51758 -0.0805,0.11892 -0.1415,0.23306 -0.18945,0.34961 -0.0639,-0.43608 -0.14593,-0.86708 -0.24609,-1.29493 0.27551,0.35816 0.72642,0.52305 1.2207,0.42774 0.66593,-0.12841 1.1072,-0.87832 0.92383,-1.53125 -0.0881,-0.31355 -0.2961,-0.57882 -0.58008,-0.73828 -0.28398,-0.15944 -0.64035,-0.22173 -0.94531,-0.10742 -0.30496,0.11432 -0.56711,0.29219 -0.72657,0.57617 -0.0743,0.13228 -0.11707,0.27657 -0.13867,0.42383 -0.13149,-0.43843 -0.27929,-0.87237 -0.44726,-1.29883 0.32961,0.34048 0.84044,0.47578 1.3125,0.29883 0.63504,-0.23803 0.95678,-0.947 0.71875,-1.58204 -0.11431,-0.30497 -0.42937,-0.61776 -0.73633,-0.72656 -0.30696,-0.10881 -0.64546,-0.0913 -0.93945,0.0488 -0.294,0.14012 -0.5201,0.39031 -0.62891,0.69727 -0.0597,0.16835 -0.0788,0.31562 -0.0723,0.46289 -0.19172,-0.42133 -0.40097,-0.83403 -0.62695,-1.24024 0.37125,0.26617 0.87484,0.29612 1.32813,0.0801 0.6122,-0.29177 0.79894,-1.10688 0.45507,-1.69141 -0.16513,-0.2807 -0.48274,-0.53871 -0.80273,-0.59961 -0.32,-0.061 -0.66076,-0.003 -0.92188,0.19141 -0.26112,0.19475 -0.45469,0.46517 -0.51562,0.78516 -0.0289,0.15164 -0.0353,0.29057 -0.0215,0.42578 -0.23042,-0.3669 -0.47293,-0.72685 -0.73046,-1.07813 0.40052,0.18879 0.87973,0.15646 1.26757,-0.13281 0.54375,-0.40555 0.63002,-1.22248 0.20118,-1.74805 -0.20595,-0.25239 -0.54589,-0.44018 -0.8711,-0.45898 -0.32522,-0.0188 -0.66088,0.0875 -0.89453,0.31445 -0.23365,0.22698 -0.38355,0.51659 -0.40234,0.8418 -0.006,0.11169 0.0155,0.21117 0.0332,0.3125 -0.23695,-0.2861 -0.48942,-0.55904 -0.74414,-0.83203 0.38824,0.0771 0.80107,-0.019 1.11328,-0.32227 0.48653,-0.47267 0.46179,-1.28801 -0.0312,-1.7539 -0.23676,-0.22373 -0.59889,-0.36089 -0.92383,-0.33789 -0.32494,0.023 -0.64462,0.17298 -0.84765,0.42773 -0.20305,0.25474 -0.31399,0.55787 -0.29102,0.88281 0.004,0.0606 0.03,0.10953 0.041,0.16602 -0.20899,-0.19508 -0.42237,-0.38584 -0.64063,-0.57227 0.3344,-0.0284 0.65701,-0.18344 0.89063,-0.47656 0.42279,-0.53047 0.27613,-1.35302 -0.2793,-1.74219 -0.26673,-0.18689 -0.59526,-0.25962 -0.91602,-0.20312 -0.32075,0.0565 -0.63377,0.2329 -0.79882,0.51367 -0.16162,0.27496 -0.25058,0.5751 -0.20118,0.88867 -0.1636,-0.11746 -0.32654,-0.23491 -0.49414,-0.34766 0.2808,-0.0877 0.53448,-0.26742 0.69532,-0.54101 0.34371,-0.58467 0.14911,-1.33791 -0.43555,-1.68164 -0.28077,-0.16506 -0.69777,-0.23849 -1.00586,-0.13281 -0.30808,0.10567 -0.56196,0.33047 -0.70508,0.62304 -0.12103,0.24741 -0.13451,0.52432 -0.0781,0.79102 -0.15265,-0.0837 -0.31355,-0.15447 -0.46875,-0.23438 0.22389,-0.11825 0.41961,-0.29649 0.54687,-0.55664 0.29803,-0.60925 -0.0191,-1.41904 -0.64844,-1.67187 -0.30223,-0.12138 -0.63989,-0.1181 -0.93945,0.01 -0.29956,0.12786 -0.5368,0.36965 -0.6582,0.67188 -0.0982,0.24432 -0.0922,0.50787 -0.0274,0.75976 -0.14944,-0.0597 -0.29599,-0.12543 -0.44726,-0.18164 0.20024,-0.14028 0.37311,-0.32546 0.47461,-0.57812 0.25282,-0.62936 -0.13004,-1.37919 -0.77539,-1.58789 -0.30992,-0.10017 -0.64554,-0.0741 -0.93555,0.0742 -0.29001,0.14827 -0.50915,0.40493 -0.60938,0.71484 -0.0858,0.26532 -0.0598,0.54614 0.0371,0.80469 -0.17884,-0.0475 -0.36214,-0.0843 -0.54296,-0.12695 0.22587,-0.16011 0.4121,-0.38781 0.50585,-0.67774 0.2087,-0.64536 -0.22713,-1.34367 -0.88476,-1.50976 -0.3158,-0.0797 -0.65193,-0.0302 -0.93164,0.13671 -0.2797,0.16691 -0.48083,0.43811 -0.56055,0.75391 -0.0798,0.3158 -0.0302,0.64998 0.13672,0.92969 0.0106,0.0178 0.0296,0.0278 0.041,0.0449 -0.2937,-0.0426 -0.58712,-0.0858 -0.88477,-0.11523 0.33703,-0.16271 0.60653,-0.46143 0.70703,-0.85938 0.1661,-0.65763 -0.31191,-1.31215 -0.97851,-1.4375 -0.32012,-0.0602 -0.65101,0.01 -0.91993,0.19336 -0.26892,0.18379 -0.47396,0.466 -0.51562,0.78906 -0.0416,0.32307 0.01,0.64904 0.19336,0.91797 0.0855,0.12516 0.19803,0.22589 0.32031,0.31055 -1.11916,-0.0425 -2.25971,0.005 -3.41601,0.16015 -1.04506,0.14056 0.84555,1.50137 -0.22461,1.85352 -0.0733,-0.59264 -0.15848,-1.20177 -0.26563,-1.84375 -0.8589,-5.16292 -5.73254,-8.57107 -10.28711,-10.75391 -9.94682,-4.76605 -12.13438,-0.98992 -12.1543,-0.95507 z m 25.83399,10.31054 c 0.0867,-0.67273 -0.38781,-1.2883 -1.06055,-1.375 -0.32306,-0.0416 -0.65033,0.0471 -0.9082,0.2461 -0.25787,0.199 -0.42514,0.49139 -0.4668,0.81445 -0.0416,0.32306 0.0471,0.65032 0.2461,0.9082 0.19901,0.25787 0.49139,0.4251 0.81445,0.4668 0.67274,0.0867 1.28835,-0.38781 1.375,-1.06055 z m -53.51563,-10.30469 c 0,0 -0.002,0 -0.002,0 0,0 -0.002,0 -0.002,0 9e-5,1.7e-4 0.004,0.006 0.004,0.006 0,0 1e-5,-0.006 0,-0.006 z m -0.004,0 c -0.0199,-0.0348 -2.20748,-3.81096 -12.1543,0.95508 -4.55458,2.18285 -9.42821,5.59098 -10.28711,10.75391 -1.52136,9.11484 0.50483,12.97371 2.35352,19.61719 0.56422,2.02625 0.23828,4.74414 0.23828,4.74414 l 7.83398,4.13086 c -0.10446,0.23557 -0.18462,0.49313 -0.29687,0.70703 -0.24989,0.47567 -0.65511,0.41605 -0.65625,1.21289 -9.5e-4,0.79721 1.61133,2.99805 1.61133,2.99805 0,0 0.41232,-0.70167 1.20507,-0.91407 0.79247,-0.2123 1.5,0.1875 1.5,0.1875 0,0 0.29809,-2.71137 -0.10156,-3.40039 -0.39965,-0.68979 -0.72165,-0.43566 -1.17578,-0.72265 -0.22379,-0.1414 -0.43879,-0.35164 -0.66992,-0.50977 l 3.95703,-6.45703 c 0,0 -7.79204,-8.73093 -7.35547,-16.76953 0.68959,-12.69507 12.21845,-17.06187 13.99805,-16.53321 z m -24.65235,8.92969 c -0.67274,0.0867 -1.14723,0.70227 -1.06054,1.375 0.0867,0.67274 0.70227,1.14722 1.375,1.06055 0.32307,-0.0417 0.61544,-0.20893 0.81445,-0.4668 0.199,-0.25788 0.28771,-0.58514 0.24609,-0.9082 -0.0417,-0.32306 -0.21088,-0.61545 -0.46875,-0.81445 -0.25787,-0.19901 -0.58319,-0.28773 -0.90625,-0.2461 z m -1.06054,1.375 c -0.0417,-0.32306 -0.2467,-0.60527 -0.51563,-0.78906 -0.26892,-0.18379 -0.5998,-0.25356 -0.91992,-0.19336 -0.6666,0.12535 -1.1446,0.77987 -0.97852,1.4375 0.0965,0.38206 0.34851,0.67366 0.66602,0.8418 -0.26818,0.0231 -0.5357,0.0482 -0.80078,0.082 0.16431,-0.27861 0.21401,-0.61007 0.13476,-0.92383 -0.0797,-0.3158 -0.2828,-0.587 -0.5625,-0.75391 -0.2797,-0.1669 -0.61387,-0.21646 -0.92968,-0.13671 -0.65762,0.16609 -1.09347,0.8644 -0.88477,1.50976 0.0845,0.26135 0.24879,0.46497 0.44336,0.62305 -0.15373,0.0343 -0.30663,0.0696 -0.45898,0.10742 0.0725,-0.23837 0.0933,-0.49014 0.0156,-0.73047 -0.10022,-0.30991 -0.31936,-0.56657 -0.60937,-0.71484 -0.29001,-0.14828 -0.62758,-0.17439 -0.9375,-0.0742 -0.64535,0.2087 -1.02821,0.95853 -0.77539,1.58789 0.0843,0.20979 0.22182,0.36981 0.37695,0.50391 -0.10839,0.039 -0.21284,0.0862 -0.32031,0.12695 0.0308,-0.21251 0.0248,-0.42817 -0.0566,-0.63086 -0.12141,-0.30223 -0.35669,-0.54402 -0.65625,-0.67188 -0.29957,-0.12786 -0.63723,-0.13114 -0.93946,-0.01 -0.62937,0.25283 -0.94842,1.06262 -0.65039,1.67187 0.1017,0.2079 0.25306,0.35588 0.41992,0.47461 -0.10663,0.0537 -0.21485,0.10469 -0.32031,0.16016 0.0173,-0.21744 -0.002,-0.4355 -0.0996,-0.63477 -0.14312,-0.29257 -0.39504,-0.51737 -0.70312,-0.62304 -0.30808,-0.10568 -0.72509,-0.0322 -1.00586,0.13281 -0.58467,0.34373 -0.77926,1.09697 -0.43555,1.68164 0.12554,0.21355 0.31496,0.35465 0.52149,0.45703 -0.10433,0.0691 -0.20383,0.14393 -0.30665,0.21484 -0.009,-0.23497 -0.091,-0.46129 -0.21484,-0.67187 -0.16505,-0.28077 -0.47807,-0.45721 -0.79883,-0.51367 -0.32075,-0.0565 -0.65124,0.0162 -0.91797,0.20312 -0.55543,0.38917 -0.70013,1.21172 -0.27734,1.74219 0.17772,0.22299 0.40989,0.35518 0.65625,0.42773 -0.12651,0.10722 -0.25935,0.20823 -0.38281,0.31836 -0.0132,-0.27177 -0.10009,-0.52865 -0.27344,-0.74609 -0.20304,-0.25475 -0.52272,-0.40474 -0.84766,-0.42773 -0.32493,-0.023 -0.68901,0.11416 -0.92578,0.33789 -0.49304,0.46589 -0.51585,1.28123 -0.0293,1.7539 0.22641,0.21996 0.50758,0.33208 0.79297,0.35352 -0.13684,0.14731 -0.26867,0.29805 -0.4004,0.44922 -0.0287,-0.30836 -0.16887,-0.58542 -0.39257,-0.80274 -0.23365,-0.22699 -0.56932,-0.33321 -0.89453,-0.31445 -0.3252,0.0188 -0.66515,0.20659 -0.8711,0.45898 -0.42884,0.52557 -0.34258,1.3425 0.20117,1.74805 0.27016,0.20149 0.58436,0.28205 0.88672,0.25 -0.129,0.17895 -0.25095,0.36191 -0.37305,0.54492 -6.4e-4,-0.003 6.7e-4,-0.006 0,-0.01 -0.0609,-0.31999 -0.25254,-0.59041 -0.51367,-0.78516 -0.26112,-0.19475 -0.60188,-0.25237 -0.92187,-0.19141 -0.31999,0.0609 -0.6376,0.31891 -0.80274,0.59961 -0.34386,0.58453 -0.15713,1.39964 0.45508,1.69141 0.30816,0.14687 0.63979,0.18028 0.9375,0.10352 -0.10559,0.19523 -0.21664,0.3872 -0.31445,0.58593 -0.11006,-0.30273 -0.33203,-0.55075 -0.62305,-0.68945 -0.29399,-0.14011 -0.63249,-0.15764 -0.93945,-0.0488 -0.30697,0.1088 -0.62202,0.42159 -0.73633,0.72656 -0.23803,0.63504 0.0837,1.34401 0.71875,1.58204 0.30875,0.11573 0.63327,0.0933 0.91406,-0.0274 -0.0726,0.19419 -0.13215,0.39318 -0.19726,0.58985 -0.16019,-0.27534 -0.41723,-0.4502 -0.7168,-0.5625 -0.30497,-0.11431 -0.66133,-0.052 -0.94531,0.10742 -0.28398,0.15946 -0.49202,0.42473 -0.58008,0.73828 -0.18337,0.65293 0.2579,1.40284 0.92383,1.53125 0.31593,0.0609 0.61088,0.009 0.85742,-0.125 -0.0424,0.19883 -0.0844,0.39705 -0.11914,0.59766 -0.18248,-0.24074 -0.44014,-0.41518 -0.73828,-0.47266 -0.31978,-0.0617 -0.65019,0.008 -0.91992,0.18945 -0.26973,0.18252 -0.43532,0.56881 -0.47071,0.89258 -0.0736,0.67419 0.45879,1.33785 1.13672,1.35742 0.30572,0.009 0.5786,-0.0856 0.80078,-0.24219 -0.011,0.18849 -0.0233,0.37692 -0.0273,0.56641 -0.21503,-0.19181 -0.48317,-0.31584 -0.77344,-0.32422 -0.32555,-0.009 -0.64011,0.11044 -0.87695,0.33399 -0.23684,0.22356 -0.35989,0.62978 -0.34375,0.95507 0.0336,0.67739 0.64362,1.24781 1.3164,1.16211 0.29068,-0.037 0.53596,-0.16655 0.73243,-0.34375 0.0176,0.18113 0.0558,0.36335 0.0801,0.54493 -0.24204,-0.15593 -0.52465,-0.23785 -0.8125,-0.20118 -0.32307,0.0412 -0.61704,0.20924 -0.8164,0.4668 -0.19936,0.25755 -0.27849,0.67706 -0.21289,0.99609 0.13659,0.66433 0.81073,1.13937 1.46289,0.95313 0.29947,-0.0855 0.54269,-0.26477 0.71484,-0.49024 0.0482,0.19084 0.0846,0.38141 0.14063,0.57227 -0.26785,-0.1259 -0.5691,-0.16382 -0.85547,-0.082 -0.31318,0.0894 -0.57812,0.29929 -0.73633,0.58398 -0.15821,0.28469 -0.18886,0.71395 -0.0762,1.01954 0.23466,0.63633 0.94178,0.96317 1.57812,0.72851 0.30592,-0.11281 0.5334,-0.33879 0.66797,-0.60937 0.0804,0.19396 0.18256,0.38655 0.27149,0.58007 -0.002,-8.4e-4 -0.004,-0.003 -0.006,-0.004 -0.30518,-0.11378 -0.62801,-0.0795 -0.9336,0.0332 -0.30558,0.1127 -0.53075,0.38428 -0.64453,0.68945 -0.1138,0.30518 -0.10218,0.64321 0.0332,0.93946 0.28182,0.61691 1.10541,0.89802 1.69921,0.57031 0.32517,-0.17946 0.52688,-0.45815 0.60743,-0.77149 0.12206,0.21114 0.2382,0.42276 0.37109,0.63282 -0.0249,-0.007 -0.0449,-0.024 -0.0703,-0.0293 -0.31891,-0.0661 -0.62306,0.0108 -0.90821,0.16797 -0.28515,0.15737 -0.47884,0.4682 -0.54492,0.78711 -0.0661,0.31893 -0.003,0.64963 0.17578,0.92187 0.37229,0.56691 1.22172,0.72792 1.75782,0.3125 0.29673,-0.22993 0.45418,-0.54172 0.48632,-0.86914 0.16133,0.2148 0.33044,0.42753 0.50391,0.64063 -0.0297,-0.005 -0.0532,-0.0156 -0.084,-0.0195 -0.32311,-0.041 -0.64881,0.0485 -0.90625,0.24804 -0.25745,0.19949 -0.42582,0.4933 -0.4668,0.81641 -0.041,0.3231 0.14192,0.69876 0.36133,0.93945 0.4569,0.50119 1.31333,0.53549 1.77539,0.0391 0.22644,-0.24328 0.34814,-0.53357 0.36133,-0.82618 0.14108,0.15005 0.2997,0.29836 0.44726,0.44727 -0.3072,0.0233 -0.59787,0.15251 -0.80859,0.37891 -0.22189,0.23839 -0.33979,0.55538 -0.32813,0.88086 0.0117,0.32546 0.24962,0.67984 0.50586,0.88085 0.5336,0.41859 1.3812,0.31982 1.75196,-0.24804 0.13444,-0.20593 0.18824,-0.42778 0.20507,-0.64844 0.85839,0.75083 1.78477,1.48733 2.82618,2.19727 l 3.37304,-5.15235 c 0,0 -8.11025,-4.3548 -6.96093,-13.83789 1.37709,-11.37932 15.97265,-12.26172 15.97265,-12.26172 -1.08467,-0.34869 0.81675,-1.71462 -0.23047,-1.85547 -1.0522,-0.14152 -2.09119,-0.19112 -3.11328,-0.16797 0.11804,-0.0835 0.22739,-0.18106 0.31055,-0.30273 0.18379,-0.26893 0.23498,-0.5949 0.19336,-0.91797 z m 35.10547,31.97656 c -0.1432,-0.007 -0.26706,10e-4 -0.36328,0.0274 -0.77017,0.20746 -0.60715,0.58477 -1.00196,0.94922 -0.39472,0.36415 -1.05469,0.61781 -1.05469,1.23242 0,0.61434 0.65987,0.86798 1.05469,1.23242 0.39519,0.36444 0.23217,0.74175 1.00196,0.94922 0.76969,0.20709 3.3125,-0.78125 3.3125,-0.78125 0,0 -0.56936,-0.58297 -0.57032,-1.40234 9.6e-4,-0.81976 0.57032,-1.39844 0.57032,-1.39844 0,0 -1.94688,-0.75822 -2.94922,-0.8086 z m 8.74414,0 c -1.0023,0.0506 -2.94922,0.80664 -2.94922,0.80664 0,0 0.57031,0.57994 0.57031,1.4004 0,0.82084 -0.57031,1.40039 -0.57031,1.40039 0,0 2.54271,0.98872 3.3125,0.78125 0.77017,-0.20746 0.60714,-0.58477 1.00195,-0.94922 0.39472,-0.36415 1.05469,-0.61781 1.05469,-1.23242 0,-0.61434 -0.65987,-0.86799 -1.05469,-1.23243 -0.39519,-0.36445 -0.23216,-0.74175 -1.00195,-0.94921 -0.0962,-0.0259 -0.2201,-0.0326 -0.36328,-0.0254 z m -15.57032,0.10938 a 2.0034817,2.0034817 0 0 0 -2.0039,2.00391 2.0034817,2.0034817 0 0 0 2.0039,2.0039 2.0034817,2.0034817 0 0 0 2.00196,-2.0039 2.0034817,2.0034817 0 0 0 -2.00196,-2.00391 z m 22.39649,0 a 2.0034817,2.0034817 0 0 0 -2.00195,2.00391 2.0034817,2.0034817 0 0 0 2.00195,2.0039 2.0034817,2.0034817 0 0 0 2.00391,-2.0039 2.0034817,2.0034817 0 0 0 -2.00391,-2.00391 z m -30.56445,0.41992 c -0.79722,-9.5e-4 -2.9961,1.61133 -2.9961,1.61133 0,0 0.69981,0.41427 0.91211,1.20703 l 0.002,-0.002 c 0.2123,0.79247 -0.18945,1.50195 -0.18945,1.50195 0,0 2.71136,0.29613 3.40039,-0.10352 0.68978,-0.39964 0.43566,-0.72165 0.72266,-1.17578 0.287,-0.45423 0.85838,-0.86887 0.69922,-1.46289 -0.15906,-0.59374 -0.86174,-0.67003 -1.33789,-0.91992 -0.47567,-0.24989 -0.41605,-0.65511 -1.21289,-0.65625 z m 38.82617,0 c -0.79684,10e-4 -0.73722,0.40636 -1.21289,0.65625 -0.47615,0.24989 -1.17882,0.32618 -1.33789,0.91992 -0.15916,0.59402 0.41222,1.00866 0.69921,1.46289 0.287,0.45413 0.0329,0.77614 0.72266,1.17578 0.68902,0.39965 3.40234,0.10352 3.40234,0.10352 0,0 -0.40054,-0.70834 -0.18945,-1.5 0,0 0,-0.002 0,-0.002 0.21291,-0.79155 0.91406,-1.20508 0.91406,-1.20508 0,0 -2.20083,-1.61228 -2.99804,-1.61133 z m -46.05469,2.26172 c -0.76424,-0.0244 -1.61447,10e-4 -1.95898,0.20117 -0.68978,0.39966 -0.43371,0.72165 -0.72071,1.17578 -0.287,0.45422 -0.85829,0.87083 -0.69922,1.46485 0.15906,0.59374 0.86175,0.66808 1.33789,0.91797 0.47568,0.24989 0.41606,0.65706 1.2129,0.6582 0.79721,9.5e-4 2.99609,-1.61328 2.99609,-1.61328 0,0 -0.6998,-0.41232 -0.91211,-1.20508 h -0.002 c -0.21231,-0.79247 0.18945,-1.5 0.18945,-1.5 0,0 -0.67912,-0.0752 -1.44336,-0.0996 z m 53.2832,0 c -0.76423,0.0244 -1.4414,0.0996 -1.4414,0.0996 0,0 0.3998,0.70753 0.1875,1.5 -0.21231,0.79276 -0.91407,1.20508 -0.91407,1.20508 0,0 2.20083,1.61423 2.99805,1.61328 0.79683,-0.001 0.73722,-0.40831 1.21289,-0.6582 0.47615,-0.24989 1.17883,-0.32423 1.33789,-0.91797 0.15906,-0.59402 -0.41223,-1.01063 -0.69922,-1.46485 -0.287,-0.45413 -0.0329,-0.77612 -0.72265,-1.17578 -0.34452,-0.19982 -1.19475,-0.2256 -1.95899,-0.20117 z m -61.33008,0.25977 a 2.0034817,2.0034817 0 0 0 -2.0039,2.0039 2.0034817,2.0034817 0 0 0 2.0039,2.00391 2.0034817,2.0034817 0 0 0 2.00391,-2.00391 2.0034817,2.0034817 0 0 0 -2.00391,-2.0039 z m 69.28321,0 a 2.0034817,2.0034817 0 0 0 -2.00391,2.0039 2.0034817,2.0034817 0 0 0 2.00391,2.00391 2.0034817,2.0034817 0 0 0 2.00195,-2.00391 2.0034817,2.0034817 0 0 0 -2.00195,-2.0039 z m -83.60156,0.77929 c -0.13405,0.0108 -0.26659,0.0525 -0.39258,0.14063 l 2.7539,3.93164 c 0.67213,-0.47055 1.47461,-0.33594 1.47461,-0.33594 0,0 -0.64837,-2.65057 -1.25976,-3.16211 -0.61148,-0.51155 -0.82616,-0.16297 -1.35156,-0.27734 -0.39377,-0.0858 -0.82249,-0.32925 -1.22461,-0.29688 z m 97.91992,0 c -0.40213,-0.0324 -0.83084,0.21111 -1.22461,0.29688 -0.52541,0.11437 -0.74008,-0.23421 -1.35156,0.27734 -0.61139,0.51154 -1.25977,3.16211 -1.25977,3.16211 0,0 0.80248,-0.13461 1.47461,0.33594 l 2.75195,-3.93164 c -0.12599,-0.0881 -0.25658,-0.12984 -0.39062,-0.14063 z m -91.26172,1.09375 c -0.12148,-6.5e-4 -0.26773,0.0239 -0.45508,0.0918 -0.74948,0.27171 -2.26562,2.54101 -2.26562,2.54101 0,0 0.80084,0.14829 1.27148,0.82032 h -0.002 c 0.47055,0.67213 0.33593,1.47461 0.33593,1.47461 0,0 2.65056,-0.64838 3.16211,-1.25977 0.51155,-0.61148 0.16298,-0.82615 0.27735,-1.35156 0.11436,-0.52502 0.50883,-1.11129 0.15625,-1.61524 -0.35249,-0.50348 -1.03789,-0.33412 -1.57032,-0.40625 -0.39932,-0.0541 -0.54572,-0.29296 -0.91015,-0.29492 z m 84.69922,0 c -0.36444,0.002 -0.51084,0.24085 -0.91016,0.29492 -0.53243,0.0721 -1.21978,-0.0972 -1.57226,0.40625 -0.35258,0.50395 0.0438,1.09022 0.1582,1.61524 0.11436,0.52541 -0.23616,0.74008 0.27539,1.35156 0.51155,0.61139 3.16211,1.25977 3.16211,1.25977 0,0 -0.13461,-0.80248 0.33594,-1.47461 0.47064,-0.67203 1.26953,-0.82032 1.26953,-0.82032 0,0 -1.51615,-2.2693 -2.26563,-2.54101 -0.18734,-0.0679 -0.33164,-0.0925 -0.45312,-0.0918 z m -42.41407,0.19531 c 0,0 -2.26007,2.70153 -5.33789,2.9668 -3.07783,0.26573 -5.57421,-2.49219 -5.57421,-2.49219 0,0 -2.56281,3.21863 -5.7754,3.48047 -3.21259,0.26195 -6.24804,-2.53125 -6.24804,-2.53125 0,0 -1.75031,3.27808 -5.19922,3.83594 -3.44891,0.55805 -5.85352,-1.74023 -5.85352,-1.74023 0,0 -1.46932,2.82002 -4.15234,3.41992 -2.68206,0.60029 -5.21875,-1.5586 -5.21875,-1.5586 0,0 -0.20639,0.1632 -0.16406,0.56446 0.24866,2.35464 1.92383,3.79883 1.92383,3.79883 0,0 1.36995,1.00399 2.46679,2.51171 a 2.6887083,2.6887083 0 0 0 -0.13476,0.0879 l 1.04101,1.47851 c 0.005,0.0113 0.0109,0.0219 0.0156,0.0332 0.0217,0.0516 0.0343,0.1061 0.0547,0.15821 l 0.58984,3.19531 c 0.0336,1.11927 -0.0801,1.94531 -0.0801,1.94531 0,0 1.15519,0.95308 1.57031,2.50196 0.41513,1.54982 -0.0664,2.95507 -0.0664,2.95507 h 72.30468 c 0,0 -0.46791,-1.40525 -0.0527,-2.95507 0.41512,-1.54888 1.56836,-2.50196 1.56836,-2.50196 0,0 -0.11177,-0.82604 -0.0781,-1.94531 l 0.58985,-3.19531 c 0.0203,-0.0521 0.033,-0.10662 0.0547,-0.15821 0.005,-0.0113 0.0108,-0.0219 0.0156,-0.0332 l 1.04102,-1.47851 a 2.6887083,2.6887083 0 0 0 -0.13477,-0.0879 c 1.09684,-1.50772 2.4668,-2.51171 2.4668,-2.51171 0,0 1.67517,-1.44419 1.92383,-3.79883 0.0423,-0.40126 -0.17969,-0.56446 -0.17969,-0.56446 0,0 -2.55136,2.15851 -5.23438,1.5586 -2.68302,-0.59981 -4.15234,-3.41992 -4.15234,-3.41992 0,0 -2.40461,2.29809 -5.85352,1.74023 -3.44986,-0.55805 -5.20117,-3.83594 -5.20117,-3.83594 0,0 -3.03546,2.7931 -6.24805,2.53125 -3.21259,-0.26194 -5.77148,-3.48047 -5.77148,-3.48047 0,0 -2.41958,2.67839 -5.57617,2.49219 -3.1566,-0.18602 -5.33985,-2.9668 -5.33985,-2.9668 z" fill="#fac801" stroke="#007a3d" stroke-width="5" stroke-linecap="round" stroke-linejoin="round"/><g transform="matrix(1.7608456,0,0,1.7608456,-1312.3596,42.125788) matrix(0.538984,0,0,0.538984,387.12269,70.149855)" fill="#007a3d" stroke="#000"><path d="m 533.45,168.21287 c 0,0 -1.274,-0.9393 -4.722,-1.389 -1.955,-0.2549 -4.389,-0.3889 -4.389,-0.3889 h -8.578 c 0,0 -2.434,0.134 -4.389,0.3889 -3.448,0.4497 -4.722,1.389 -4.722,1.389 l 13.70714,14.41719 z" stroke-linecap="round"/><path d="m 513.716,205.1721 6.417,6.25 6.417,-6.25 m -6.417,6.238 6.417,-6.25 c 0,0 -2.368,-10.048 -1.167,-18.33 0.865,-5.969 4.998,-14.18899 9.333,-15.49999 1.87,-0.56 14.0232,4.03999 14.75,17.41999 0.46,8.47 -7.75,17.67 -7.75,17.67 l 4.75,7.75 9.167,-4.833 c 0,0 -0.3445,-2.865 0.25,-5 1.9479,-7 4.084,-11.066 2.481,-20.67 -0.905,-5.44 -6.041,-9.03 -10.84,-11.32999 -10.529,-5.045 -12.81,-1 -12.81,-1 0,0 0.084,-2.6938 -1.194,-3.333 -2.234,-1.118 -4.85714,-0.40951 -8.96814,3.59049 -1.917,1.864 -4.50914,6.62557 -4.50914,6.62557 0,0 -3.00794,-4.93414 -4.92494,-6.79814 -4.111,-4 -6.13978,-4.52992 -8.37378,-3.41192 -1.278,0.6392 -1.194,3.333 -1.194,3.333 0,0 -2.281,-4.045 -12.81,1 -4.799,2.29999 -9.935,5.88999 -10.84,11.32999 -1.603,9.604 0.5331,13.67 2.481,20.67 0.5945,2.135 0.25,5 0.25,5 l 9.167,4.833 4.75,-7.75 c 0,0 -8.21,-9.2 -7.75,-17.67 0.7268,-13.38 12.88,-17.97999 14.75,-17.41999 4.335,1.311 8.468,9.53099 9.333,15.49999 1.201,8.282 -1.167,18.33 -1.167,18.33 l 6.417,6.25"/><path d="m 558.0792,244.09987 c 0.4374,-1.632 1.654,-2.637 1.654,-2.637 0,0 -0.447,-3.101 0.5958,-5.583 1.0428,-2.482 3.571,-4.333 3.571,-4.333 0,0 1.765,-1.52 2.027,-4.001 0.0446,-0.4228 -0.19055,-0.596 -0.19055,-0.596 0,0 -2.68745,2.2756 -5.51445,1.6435 -2.827,-0.632 -4.375,-3.605 -4.375,-3.605 0,0 -2.534,2.4218 -6.168,1.834 -3.635,-0.588 -5.479,-4.041 -5.479,-4.041 0,0 -3.199,2.9419 -6.584,2.666 -3.385,-0.276 -6.082,-3.666 -6.082,-3.666 0,0 -2.549,2.8212 -5.875,2.625 -3.326,-0.196 -5.626,-3.125 -5.626,-3.125 0,0 -2.381,2.8455 -5.624,3.125 -3.243,0.28 -5.875,-2.625 -5.875,-2.625 0,0 -2.699,3.3901 -6.084,3.666 -3.385,0.276 -6.584,-2.666 -6.584,-2.666 0,0 -1.845,3.4532 -5.479,4.041 -3.634,0.588 -6.166,-1.834 -6.166,-1.834 0,0 -1.548,2.9729 -4.375,3.605 -2.826,0.6325 -5.49895,-1.6435 -5.49895,-1.6435 0,0 -0.21865,0.1732 -0.17405,0.596 0.262,2.481 2.027,4.001 2.027,4.001 0,0 2.5282,1.851 3.571,4.333 1.0428,2.482 0.5958,5.583 0.5958,5.583 0,0 1.2166,1.005 1.654,2.637 0.4374,1.633 -0.0708,3.113 -0.0708,3.113 h 76.185 c 0,0 -0.4932,-1.48 -0.0558,-3.113 z" stroke-linecap="round"/><path d="m 528.75,236.61287 h -17.33 l 8.667,-3.667 v 7.333 z" fill-rule="evenodd"/><path d="m 520.05,232.91287 -8.667,3.667 8.667,3.667 8.667,-3.667 z"/><circle r="2.833" cx="533.35" cy="236.613"/><path d="m 555.25,236.61287 h -17.33 l 8.667,-3.667 v 7.333 z" fill-rule="evenodd"/><path d="m 546.55,232.91287 -8.667,3.667 8.667,3.667 8.7,-3.7 z"/><path d="m 559.65,239.41287 a 2.833,2.833 0 0 1 -2.699,-2.83 2.833,2.833 0 0 1 2.833,-2.833 2.833,2.833 0 0 1 1.658,0.5358 l -1.146,1.631 z"/><circle r="2.833" cy="236.613" transform="scale(-1,1)" cx="-506.85"/><path d="m 502.25,236.61287 h -17.33 l 8.667,-3.667 v 7.333 z" fill-rule="evenodd"/><path d="m 493.55,232.91287 8.667,3.667 -8.667,3.667 -8.667,-3.667 z"/><path d="m 480.45,239.41287 a 2.833,2.833 0 0 0 2.699,-2.83 2.833,2.833 0 0 0 -2.833,-2.833 2.833,2.833 0 0 0 -1.658,0.5358 l 1.146,1.631 z"/><path d="m 476.25,231.61287 h 87.67" stroke-width="2" stroke-linecap="round"/><path d="m 480.45,241.51287 h 79.33" stroke-width="2" stroke-linecap="round"/><path d="m 520.05,151.51287 4.056,10.56 c 0,0 -1.691,1.778 -4.056,1.778 -2.365,0 -4.056,-1.778 -4.056,-1.778 z"/><path d="m 520.05,163.81287 c 2.069,-0.0556 4.278,2.667 4.278,2.667 l -4.278,2.944 -4.278,-2.944 c 0,0 2.209,-2.611 4.278,-2.667 z"/><circle r="2.111" cx="531.85" cy="218.113"/><circle r="2.111" cy="221.213" cx="556.55"/><path d="m 522.15,218.21287 c 0,-0.8645 -0.6013,-1.476 -0.6013,-1.476 0,0 2.679,-1.042 3.49,-0.8238 0.8111,0.2186 0.6396,0.616 1.056,1 0.416,0.384 1.111,0.6517 1.111,1.299 0,0.6476 -0.6951,0.9153 -1.111,1.299 -0.416,0.384 -0.2445,0.7814 -1.056,1 -0.8111,0.2186 -3.49,-0.8238 -3.49,-0.8238 0,0 0.6013,-0.6111 0.6013,-1.476 z" fill-rule="evenodd"/><path d="m 520.05,216.11287 c -0.8645,0 -1.476,0.6013 -1.476,0.6013 0,0 -1.042,-2.679 -0.8238,-3.49 0.2186,-0.8111 0.616,-0.6396 1,-1.056 0.384,-0.416 0.6517,-1.111 1.299,-1.111 0.6476,0 0.9153,0.6951 1.299,1.111 0.384,0.416 0.7814,0.2445 1,1.056 0.2186,0.8111 -0.8238,3.49 -0.8238,3.49 0,0 -0.6111,-0.6013 -1.476,-0.6013 z" fill-rule="evenodd"/><path d="m 517.95,218.21287 c 0,0.8645 0.6013,1.476 0.6013,1.476 0,0 -2.679,1.042 -3.49,0.8238 -0.8111,-0.2186 -0.6396,-0.616 -1.056,-1 -0.416,-0.384 -1.111,-0.6517 -1.111,-1.299 0,-0.6476 0.6951,-0.9153 1.111,-1.299 0.416,-0.384 0.2445,-0.7814 1.056,-1 0.8111,-0.2186 3.49,0.8238 3.49,0.8238 0,0 -0.6013,0.6111 -0.6013,1.476 z" fill-rule="evenodd"/><path d="m 546.85,220.51287 c 0.2237,-0.835 -0.1989,-1.581 -0.1989,-1.581 0,0 2.858,-0.3135 3.584,0.1076 0.7268,0.4211 0.4584,0.7605 0.7608,1.239 0.3024,0.4786 0.9046,0.9171 0.737,1.543 -0.1676,0.6256 -0.9083,0.7042 -1.41,0.9675 -0.5012,0.2633 -0.4384,0.6915 -1.278,0.6927 -0.84,0.001 -3.158,-1.699 -3.158,-1.699 0,0 0.739,-0.4347 0.9627,-1.27 z" fill-rule="evenodd"/><path d="m 545.35,217.91287 c -0.835,-0.2237 -1.581,0.1989 -1.581,0.1989 0,0 -0.3135,-2.858 0.1076,-3.584 0.4211,-0.7268 0.7605,-0.4584 1.239,-0.7608 0.4786,-0.3024 0.9171,-0.9046 1.543,-0.737 0.6256,0.1676 0.7042,0.9083 0.9675,1.41 0.2633,0.5012 0.6915,0.4384 0.6927,1.278 10e-4,0.84 -1.699,3.158 -1.699,3.158 0,0 -0.4347,-0.739 -1.27,-0.9628 z" fill-rule="evenodd"/><path d="m 542.75,219.41287 c -0.2237,0.835 0.1989,1.581 0.1989,1.581 0,0 -2.858,0.3135 -3.584,-0.1076 -0.7268,-0.4211 -0.4584,-0.7605 -0.7608,-1.239 -0.3024,-0.4786 -0.9046,-0.9171 -0.7369,-1.543 0.1676,-0.6256 0.9083,-0.7042 1.41,-0.9675 0.5012,-0.2633 0.4384,-0.6915 1.278,-0.6927 0.84,-0.001 3.158,1.699 3.158,1.699 0,0 -0.739,0.4347 -0.9627,1.27 z" fill-rule="evenodd"/><path d="m 569.15,224.21287 c -0.7082,-0.4958 -1.554,-0.3538 -1.554,-0.3538 0,0 0.6828,-2.793 1.327,-3.332 0.6443,-0.539 0.8714,-0.1706 1.425,-0.2911 0.5532,-0.1205 1.171,-0.5364 1.702,-0.1649 z" fill-rule="evenodd"/><path d="m 566.25,224.71287 c -0.4958,0.7082 -0.3538,1.554 -0.3538,1.554 0,0 -2.793,-0.6828 -3.332,-1.327 -0.539,-0.6443 -0.1706,-0.8714 -0.2911,-1.425 -0.1205,-0.5532 -0.5364,-1.171 -0.1649,-1.702 0.3714,-0.5305 1.094,-0.3511 1.655,-0.4271 0.561,-0.076 0.6484,-0.4998 1.438,-0.2137 0.7897,0.2863 2.387,2.677 2.387,2.677 0,0 -0.8431,0.1557 -1.339,0.8638 z" fill-rule="evenodd"/><circle r="2.111" cy="218.113" transform="scale(-1,1)" cx="-508.25"/><circle r="2.111" cx="-483.55" cy="221.213" transform="scale(-1,1)"/><path d="m 493.35,220.51287 c -0.2237,-0.835 0.1989,-1.581 0.1989,-1.581 0,0 -2.858,-0.3135 -3.584,0.1076 -0.7268,0.4211 -0.4584,0.7605 -0.7608,1.239 -0.3024,0.4786 -0.9046,0.9171 -0.737,1.543 0.1676,0.6256 0.9083,0.7042 1.41,0.9675 0.5012,0.2633 0.4384,0.6915 1.278,0.6927 0.84,0.001 3.158,-1.699 3.158,-1.699 0,0 -0.739,-0.4347 -0.9627,-1.27 z" fill-rule="evenodd"/><path d="m 494.85,217.91287 c 0.835,-0.2237 1.581,0.1989 1.581,0.1989 0,0 0.3135,-2.858 -0.1076,-3.584 -0.4211,-0.7268 -0.7605,-0.4584 -1.239,-0.7608 -0.4786,-0.3024 -0.9171,-0.9046 -1.543,-0.737 -0.6256,0.1676 -0.7042,0.9083 -0.9675,1.41 -0.2633,0.5012 -0.6915,0.4384 -0.6927,1.278 -10e-4,0.84 1.699,3.158 1.699,3.158 0,0 0.4347,-0.739 1.27,-0.9628 z" fill-rule="evenodd"/><path d="m 497.45,219.41287 c 0.2237,0.835 -0.1989,1.581 -0.1989,1.581 0,0 2.858,0.3135 3.584,-0.1076 0.7268,-0.4211 0.4584,-0.7605 0.7608,-1.239 0.3024,-0.4786 0.9046,-0.9171 0.7369,-1.543 -0.1676,-0.6256 -0.9083,-0.7042 -1.41,-0.9675 -0.5012,-0.2633 -0.4384,-0.6915 -1.278,-0.6927 -0.84,-0.001 -3.158,1.699 -3.158,1.699 0,0 0.739,0.4347 0.9627,1.27 z" fill-rule="evenodd"/><path d="m 470.95,224.21287 c 0.7082,-0.4958 1.554,-0.3538 1.554,-0.3538 0,0 -0.6828,-2.793 -1.327,-3.332 -0.6443,-0.539 -0.8714,-0.1706 -1.425,-0.2911 -0.5532,-0.1205 -1.171,-0.5364 -1.702,-0.1649 z" fill-rule="evenodd"/><path d="m 473.95,224.71287 c 0.4958,0.7082 0.3538,1.554 0.3538,1.554 0,0 2.793,-0.6828 3.332,-1.327 0.539,-0.6443 0.1706,-0.8714 0.2911,-1.425 0.1205,-0.5532 0.5364,-1.171 0.1649,-1.702 -0.3714,-0.5305 -1.094,-0.3511 -1.655,-0.4271 -0.561,-0.076 -0.6484,-0.4998 -1.438,-0.2137 -0.7897,0.2863 -2.387,2.677 -2.387,2.677 0,0 0.8431,0.1557 1.339,0.8638 z" fill-rule="evenodd"/><path d="m 468.39643,218.54144 3.55357,-5.42857 c 0,0 -8.544,-4.588 -7.333,-14.58 1.451,-11.99 16.83,-12.92 16.83,-12.92 -1.14288,-0.3674 0.85951,-1.80632 -0.24391,-1.95473 -18.65933,-2.50968 -33.79277,20.5768 -12.80666,34.8833 z" stroke-linecap="round" stroke-linejoin="round"/><path d="m 571.68758,218.54144 -3.55357,-5.42857 c 0,0 8.544,-4.588 7.333,-14.58 -1.451,-11.99 -16.83,-12.92 -16.83,-12.92 1.14288,-0.3674 -0.85951,-1.80632 0.24391,-1.95473 18.65933,-2.50968 33.79277,20.5768 12.80666,34.8833 z" stroke-linecap="round" stroke-linejoin="round"/><path d="m 520.3646,181.70901 c -0.33333,0 -0.65337,-0.13426 -0.90655,-0.34923 -0.25319,-0.21497 -0.43953,-0.51065 -0.50548,-0.83351 -0.0171,-0.0836 -0.0261,-0.16904 -0.0261,-0.25537 0,-0.24701 0.0737,-0.48671 0.19938,-0.69732 0.16957,-0.28422 0.43373,-0.51546 0.73892,-0.64017 0.15807,-0.0646 0.32716,-0.10062 0.49981,-0.10062 0.16068,0 0.31827,0.0312 0.46677,0.0876 0.30807,0.11699 0.57702,0.34243 0.75332,0.62278 0.13697,0.21781 0.21801,0.46875 0.21801,0.72773 0,0.0744 -0.007,0.14805 -0.0195,0.22049 -0.0572,0.32474 -0.23678,0.62423 -0.4851,0.84493 -0.24831,0.22069 -0.5654,0.3626 -0.89771,0.37217 m -0.0358,2.87674 c -0.33333,0 -0.65337,-0.13426 -0.90655,-0.34923 -0.25319,-0.21497 -0.43953,-0.51065 -0.50548,-0.83351 -0.0171,-0.0836 -0.0261,-0.16904 -0.0261,-0.25537 0,-0.24701 0.0737,-0.48671 0.19938,-0.69732 0.16957,-0.28422 0.43373,-0.51546 0.73892,-0.64017 0.15807,-0.0646 0.32716,-0.10062 0.49981,-0.10062 0.16068,0 0.31827,0.0312 0.46677,0.0876 0.30807,0.11699 0.57702,0.34243 0.75332,0.62278 0.13697,0.21781 0.21801,0.46875 0.21801,0.72773 0,0.0744 -0.007,0.14805 -0.0195,0.22049 -0.0572,0.32474 -0.23678,0.62423 -0.4851,0.84493 -0.24831,0.22069 -0.5654,0.3626 -0.89771,0.37217 m -0.0358,2.87674 c -0.33333,0 -0.65337,-0.13426 -0.90655,-0.34923 -0.25319,-0.21497 -0.43953,-0.51065 -0.50548,-0.83351 -0.0171,-0.0836 -0.0261,-0.16904 -0.0261,-0.25537 0,-0.24701 0.0737,-0.48671 0.19938,-0.69732 0.16957,-0.28422 0.43373,-0.51546 0.73892,-0.64017 0.15807,-0.0646 0.32716,-0.10062 0.49981,-0.10062 0.16068,0 0.31827,0.0312 0.46677,0.0876 0.30807,0.11699 0.57702,0.34243 0.75332,0.62278 0.13697,0.21781 0.21801,0.46875 0.21801,0.72773 0,0.0744 -0.007,0.14805 -0.0195,0.22049 -0.0572,0.32474 -0.23678,0.62423 -0.4851,0.84493 -0.24831,0.22069 -0.5654,0.3626 -0.89771,0.37217 m -0.0358,2.87674 c -0.33333,0 -0.65337,-0.13426 -0.90655,-0.34923 -0.25319,-0.21497 -0.43953,-0.51065 -0.50548,-0.83351 -0.0171,-0.0836 -0.0261,-0.16904 -0.0261,-0.25537 0,-0.24701 0.0737,-0.48671 0.19938,-0.69732 0.16957,-0.28422 0.43373,-0.51546 0.73892,-0.64017 0.15807,-0.0646 0.32716,-0.10062 0.49981,-0.10062 0.16068,0 0.31827,0.0312 0.46677,0.0876 0.30807,0.11699 0.57702,0.34243 0.75332,0.62278 0.13697,0.21781 0.21801,0.46875 0.21801,0.72773 0,0.0744 -0.007,0.14805 -0.0195,0.22049 -0.0572,0.32474 -0.23678,0.62423 -0.4851,0.84493 -0.24831,0.22069 -0.5654,0.3626 -0.89771,0.37217 m -0.0358,2.87674 c -0.33333,0 -0.65337,-0.13426 -0.90655,-0.34923 -0.25319,-0.21497 -0.43953,-0.51065 -0.50548,-0.83351 -0.0171,-0.0836 -0.0261,-0.16904 -0.0261,-0.25537 0,-0.24701 0.0737,-0.48671 0.19938,-0.69732 0.16957,-0.28422 0.43373,-0.51546 0.73892,-0.64017 0.15807,-0.0646 0.32716,-0.10062 0.49981,-0.10062 0.16068,0 0.31827,0.0312 0.46677,0.0876 0.30807,0.11699 0.57702,0.34243 0.75332,0.62278 0.13697,0.21781 0.21801,0.46875 0.21801,0.72773 0,0.0744 -0.007,0.14805 -0.0195,0.22049 -0.0572,0.32474 -0.23678,0.62423 -0.4851,0.84493 -0.24831,0.22069 -0.5654,0.3626 -0.89771,0.37217 m -0.0358,2.87674 c -0.33333,0 -0.65337,-0.13426 -0.90655,-0.34923 -0.25319,-0.21497 -0.43953,-0.51065 -0.50548,-0.83351 -0.0171,-0.0836 -0.0261,-0.16904 -0.0261,-0.25537 0,-0.24701 0.0737,-0.48671 0.19938,-0.69732 0.16957,-0.28422 0.43373,-0.51546 0.73892,-0.64017 0.15807,-0.0646 0.32716,-0.10062 0.49981,-0.10062 0.16068,0 0.31827,0.0312 0.46677,0.0876 0.30807,0.11699 0.57702,0.34243 0.75332,0.62278 0.13697,0.21781 0.21801,0.46875 0.21801,0.72773 0,0.0744 -0.007,0.14805 -0.0195,0.22049 -0.0572,0.32474 -0.23678,0.62423 -0.4851,0.84493 -0.24831,0.22069 -0.5654,0.3626 -0.89771,0.37217 m -0.0358,2.87674 c -0.33333,0 -0.65337,-0.13426 -0.90655,-0.34923 -0.25319,-0.21497 -0.43953,-0.51065 -0.50548,-0.83351 -0.0171,-0.0836 -0.0261,-0.16904 -0.0261,-0.25537 0,-0.24701 0.0737,-0.48671 0.19938,-0.69732 0.16957,-0.28422 0.43373,-0.51546 0.73892,-0.64017 0.15807,-0.0646 0.32716,-0.10062 0.49981,-0.10062 0.16068,0 0.31827,0.0312 0.46677,0.0876 0.30807,0.11699 0.57702,0.34243 0.75332,0.62278 0.13697,0.21781 0.21801,0.46875 0.21801,0.72773 0,0.0744 -0.007,0.14805 -0.0195,0.22049 -0.0572,0.32474 -0.23678,0.62423 -0.4851,0.84493 -0.24831,0.22069 -0.5654,0.3626 -0.89771,0.37217 m -0.0358,2.87674 c -0.33333,0 -0.65337,-0.13426 -0.90655,-0.34923 -0.25319,-0.21497 -0.43953,-0.51065 -0.50548,-0.83351 -0.0171,-0.0836 -0.0261,-0.16904 -0.0261,-0.25537 0,-0.24701 0.0737,-0.48671 0.19938,-0.69732 0.16957,-0.28422 0.43373,-0.51546 0.73892,-0.64017 0.15807,-0.0646 0.32716,-0.10062 0.49981,-0.10062 0.16068,0 0.31827,0.0312 0.46677,0.0876 0.30807,0.11699 0.57702,0.34243 0.75332,0.62278 0.13697,0.21781 0.21801,0.46875 0.21801,0.72773 0,0.0744 -0.007,0.14805 -0.0195,0.22049 -0.0572,0.32474 -0.23678,0.62423 -0.4851,0.84493 -0.24831,0.22069 -0.5654,0.3626 -0.89771,0.37217 m -0.0358,2.87674 c -0.33333,0 -0.65337,-0.13426 -0.90655,-0.34923 -0.25319,-0.21497 -0.43953,-0.51065 -0.50548,-0.83351 -0.0171,-0.0836 -0.0261,-0.16904 -0.0261,-0.25537 0,-0.24701 0.0737,-0.48671 0.19938,-0.69732 0.16957,-0.28422 0.43373,-0.51546 0.73892,-0.64017 0.15807,-0.0646 0.32716,-0.10062 0.49981,-0.10062 0.16068,0 0.31827,0.0312 0.46677,0.0876 0.30807,0.11699 0.57702,0.34243 0.75332,0.62278 0.13697,0.21781 0.21801,0.46875 0.21801,0.72773 0,0.0744 -0.007,0.14805 -0.0195,0.22049 -0.0572,0.32474 -0.23678,0.62423 -0.4851,0.84493 -0.24831,0.22069 -0.5654,0.3626 -0.89771,0.37217 m -0.0358,2.87674 c -0.33333,0 -0.65337,-0.13426 -0.90655,-0.34923 -0.25319,-0.21497 -0.43953,-0.51065 -0.50548,-0.83351 -0.0171,-0.0836 -0.0261,-0.16904 -0.0261,-0.25537 0,-0.24701 0.0737,-0.48671 0.19938,-0.69732 0.16957,-0.28422 0.43373,-0.51546 0.73892,-0.64017 0.15807,-0.0646 0.32716,-0.10062 0.49981,-0.10062 0.16068,0 0.31827,0.0312 0.46677,0.0876 0.30807,0.11699 0.57702,0.34243 0.75332,0.62278 0.13697,0.21781 0.21801,0.46875 0.21801,0.72773 0,0.0744 -0.007,0.14805 -0.0195,0.22049 -0.0572,0.32474 -0.23678,0.62423 -0.4851,0.84493 -0.24831,0.22069 -0.5654,0.3626 -0.89771,0.37217 m -0.0358,2.87674 c -0.33333,0 -0.65337,-0.13426 -0.90655,-0.34923 -0.25319,-0.21497 -0.43953,-0.51065 -0.50548,-0.83351 -0.0171,-0.0836 -0.0261,-0.16904 -0.0261,-0.25537 0,-0.24701 0.0737,-0.48671 0.19938,-0.69732 0.16957,-0.28422 0.43373,-0.51546 0.73892,-0.64017 0.15807,-0.0646 0.32716,-0.10062 0.49981,-0.10062 0.16068,0 0.31827,0.0312 0.46677,0.0876 0.30807,0.11699 0.57702,0.34243 0.75332,0.62278 0.13697,0.21781 0.21801,0.46875 0.21801,0.72773 0,0.0744 -0.007,0.14805 -0.0195,0.22049 -0.0572,0.32474 -0.23678,0.62423 -0.4851,0.84493 -0.24831,0.22069 -0.5654,0.3626 -0.89771,0.37217" stroke-width=".5" stroke-linecap="round" stroke-linejoin="round"/><path d="m 494.30348,174.13119 c -0.40635,-0.58797 -0.22094,-1.44794 0.38568,-1.82591 0.29131,-0.1815 0.64279,-0.23984 0.97712,-0.1622 0.33433,0.0777 0.62413,0.28493 0.80563,0.57624 0.37795,0.60663 0.19258,1.40479 -0.41405,1.78275 -0.60662,0.37795 -1.34803,0.21709 -1.75438,-0.37088 0,0 0,0 0,0 m -2.03438,1.59757 c -0.46536,-0.54244 -0.35767,-1.414 0.20899,-1.84958 0.27211,-0.20917 0.61618,-0.30167 0.9565,-0.25716 0.34032,0.0445 0.67375,0.22681 0.86889,0.50917 0.40634,0.58798 0.3186,1.36446 -0.24805,1.80003 -0.56665,0.43556 -1.32097,0.33998 -1.78633,-0.20246 0,0 0,0 0,0 m -1.85174,1.80511 c -0.52519,-0.48471 -0.51254,-1.36689 0.003,-1.86226 0.24739,-0.23789 0.62341,-0.41674 0.96563,-0.39057 0.34221,0.0262 0.66002,0.18723 0.88349,0.44772 0.46536,0.54245 0.45995,1.31306 -0.0552,1.80843 -0.51516,0.49537 -1.27133,0.48139 -1.79652,-0.003 0,0 0,0 0,0 m -1.61126,2.02197 c -0.58229,-0.41435 -0.68304,-1.30035 -0.23196,-1.8547 0.21661,-0.2662 0.57081,-0.49559 0.91374,-0.50934 0.34293,-0.0137 0.67727,0.1093 0.92948,0.34207 0.52519,0.48472 0.6153,1.24642 0.16422,1.80076 -0.45107,0.55434 -1.19319,0.63556 -1.77548,0.22121 0,0 0,0 0,0 m -1.31161,2.22792 c -0.63247,-0.33273 -0.86165,-1.20818 -0.48687,-1.81669 0.17997,-0.29222 0.46866,-0.50097 0.80255,-0.58034 0.3339,-0.0794 0.7163,-0.0299 0.99593,0.16911 0.58229,0.41436 0.7799,1.15993 0.40512,1.76843 -0.37478,0.60851 -1.08426,0.79223 -1.71673,0.45949 0,0 0,0 0,0 m -0.95079,2.40399 c -0.6869,-0.19728 -1.03299,-0.98977 -0.78964,-1.66172 0.11686,-0.32268 0.42534,-0.64369 0.74537,-0.76763 0.32003,-0.12394 0.69134,-0.13442 0.99506,0.0254 0.63247,0.33275 0.93627,0.95159 0.69291,1.62354 -0.24336,0.67195 -0.95681,0.97772 -1.6437,0.78045 0,0 0,0 0,0 m -0.57564,2.52018 c -0.70682,-0.10565 -1.17426,-0.84581 -1.02311,-1.54431 0.0726,-0.33543 0.31444,-0.69791 0.61467,-0.86417 0.30024,-0.16626 0.65422,-0.20644 0.98408,-0.1117 0.68689,0.19727 1.08191,0.82477 0.93075,1.52327 -0.15117,0.6985 -0.79957,1.10256 -1.50639,0.99691 0,0 0,0 0,0 m -0.21753,2.57631 c -0.71445,-0.0186 -1.28482,-0.69081 -1.22351,-1.40286 0.0294,-0.34194 0.20415,-0.72974 0.48004,-0.93387 0.27589,-0.20414 0.62157,-0.29032 0.961,-0.23958 0.70682,0.10566 1.19885,0.68346 1.13753,1.39551 -0.0613,0.71205 -0.64061,1.19942 -1.35506,1.1808 0,0 0,0 0,0 m 0.10564,2.58408 c -0.71214,0.0605 -1.36186,-0.53624 -1.38393,-1.2506 -0.0106,-0.34305 0.10474,-0.74216 0.35367,-0.97844 0.24893,-0.23628 0.58153,-0.36399 0.92462,-0.35504 0.71445,0.0186 1.28659,0.53921 1.30866,1.25358 0.0221,0.71436 -0.49087,1.26998 -1.20302,1.3305 0,0 0,0 0,0 m 0.38251,2.55849 c -0.70277,0.13023 -1.40848,-0.39149 -1.50508,-1.09966 -0.0464,-0.34007 0.0442,-0.68465 0.2519,-0.95792 0.20767,-0.27326 0.52869,-0.47185 0.87067,-0.50091 0.71215,-0.0605 1.34534,0.40088 1.44193,1.10904 0.0966,0.70817 -0.35665,1.31922 -1.05942,1.44945 0,0 0,0 0,0 m 0.61176,2.51398 c -0.68895,0.19033 -1.43095,-0.26211 -1.59241,-0.95837 -0.0775,-0.33436 -0.0191,-0.68583 0.16254,-0.97708 0.1816,-0.29126 0.48063,-0.51599 0.81811,-0.57853 0.70277,-0.13022 1.37931,0.27466 1.54076,0.97093 0.16145,0.69627 -0.24007,1.35272 -0.929,1.54305 0,0 0,0 0,0 m 0.79811,2.46142 c -0.67273,0.24148 -1.43609,-0.15007 -1.65306,-0.8311 -0.10419,-0.32704 -0.0955,-0.7227 0.0738,-1.02127 0.16931,-0.29857 0.45029,-0.51765 0.78114,-0.60905 0.68894,-0.19032 1.39432,0.16361 1.61128,0.84464 0.21696,0.68103 -0.14044,1.3753 -0.81317,1.61678 0,0 0,0 0,0 m 0.9548,2.40488 c -0.65125,0.2944 -1.43597,-0.0521 -1.7,-0.71637 -0.12679,-0.31896 -0.1345,-0.71213 0.0119,-1.02256 0.14644,-0.31044 0.4102,-0.54999 0.73326,-0.66595 0.67274,-0.24148 1.39611,0.0682 1.66013,0.73239 0.26402,0.66421 -0.0541,1.3781 -0.70533,1.67249 0,0 0,0 0,0 m 1.06609,2.35838 c -0.65125,0.29439 -1.41784,0.005 -1.71224,-0.64614 -0.14137,-0.31274 -0.15272,-0.66883 -0.0315,-0.98994 0.12118,-0.32111 0.36495,-0.58092 0.67769,-0.7223 0.65125,-0.29438 1.41784,-0.005 1.71223,0.64616 0.29438,0.65124 0.005,1.41783 -0.64614,1.71222 0,0 0,0 0,0 m 1.19088,2.29791 c -0.63427,0.32944 -1.4155,0.0823 -1.74494,-0.55195 -0.1582,-0.30459 -0.18892,-0.65955 -0.0854,-0.98679 0.10351,-0.32724 0.32672,-0.6178 0.63947,-0.75917 0.65125,-0.29439 1.41341,-0.0813 1.74284,0.55298 0.32943,0.63427 0.0823,1.4155 -0.55196,1.74493 0,0 0,0 0,0 m 1.27118,2.25396 c -0.61798,0.35909 -1.41006,0.14921 -1.76915,-0.46878 -0.17244,-0.29677 -0.24291,-0.69978 -0.1394,-1.02702 0.10352,-0.32724 0.33279,-0.59996 0.63737,-0.75816 0.63428,-0.32943 1.38088,-0.13317 1.73997,0.48482 0.35908,0.61798 0.1492,1.41005 -0.46879,1.76914 0,0 0,0 0,0 m 1.30037,2.23793 c -0.61799,0.35909 -1.41006,0.14921 -1.76915,-0.46877 -0.17244,-0.29677 -0.21993,-0.64989 -0.13201,-0.98167 0.0879,-0.33178 0.30402,-0.61505 0.60079,-0.78749 0.61799,-0.35908 1.41007,-0.1492 1.76915,0.46879 0.35908,0.61799 0.1492,1.41006 -0.46878,1.76914 0,0 0,0 0,0" stroke-width=".5" stroke-linecap="round" stroke-linejoin="round"/><path d="m 546.43397,174.13119 c 0.40635,-0.58797 0.22094,-1.44794 -0.38568,-1.82591 -0.29131,-0.1815 -0.64279,-0.23984 -0.97712,-0.1622 -0.33433,0.0777 -0.62413,0.28493 -0.80563,0.57624 -0.37795,0.60663 -0.19258,1.40479 0.41405,1.78275 0.60662,0.37795 1.34803,0.21709 1.75438,-0.37088 0,0 0,0 0,0 m 2.03438,1.59757 c 0.46536,-0.54244 0.35767,-1.414 -0.20899,-1.84958 -0.27211,-0.20917 -0.61618,-0.30167 -0.9565,-0.25716 -0.34032,0.0445 -0.67375,0.22681 -0.86889,0.50917 -0.40634,0.58798 -0.3186,1.36446 0.24805,1.80003 0.56665,0.43556 1.32097,0.33998 1.78633,-0.20246 0,0 0,0 0,0 m 1.85174,1.80511 c 0.52519,-0.48471 0.51254,-1.36689 -0.003,-1.86226 -0.24739,-0.23789 -0.62341,-0.41674 -0.96563,-0.39057 -0.34221,0.0262 -0.66002,0.18723 -0.88349,0.44772 -0.46536,0.54245 -0.45995,1.31306 0.0552,1.80843 0.51516,0.49537 1.27133,0.48139 1.79652,-0.003 0,0 0,0 0,0 m 1.61126,2.02197 c 0.58229,-0.41435 0.68304,-1.30035 0.23196,-1.8547 -0.21661,-0.2662 -0.57081,-0.49559 -0.91374,-0.50934 -0.34293,-0.0137 -0.67727,0.1093 -0.92948,0.34207 -0.52519,0.48472 -0.6153,1.24642 -0.16422,1.80076 0.45107,0.55434 1.19319,0.63556 1.77548,0.22121 0,0 0,0 0,0 m 1.31161,2.22792 c 0.63247,-0.33273 0.86165,-1.20818 0.48687,-1.81669 -0.17997,-0.29222 -0.46866,-0.50097 -0.80255,-0.58034 -0.3339,-0.0794 -0.7163,-0.0299 -0.99593,0.16911 -0.58229,0.41436 -0.7799,1.15993 -0.40512,1.76843 0.37478,0.60851 1.08426,0.79223 1.71673,0.45949 0,0 0,0 0,0 m 0.95079,2.40399 c 0.6869,-0.19728 1.03299,-0.98977 0.78964,-1.66172 -0.11686,-0.32268 -0.42534,-0.64369 -0.74537,-0.76763 -0.32003,-0.12394 -0.69134,-0.13442 -0.99506,0.0254 -0.63247,0.33275 -0.93627,0.95159 -0.69291,1.62354 0.24336,0.67195 0.95681,0.97772 1.6437,0.78045 0,0 0,0 0,0 m 0.57564,2.52018 c 0.70682,-0.10565 1.17426,-0.84581 1.02311,-1.54431 -0.0726,-0.33543 -0.31444,-0.69791 -0.61467,-0.86417 -0.30024,-0.16626 -0.65422,-0.20644 -0.98408,-0.1117 -0.68689,0.19727 -1.08191,0.82477 -0.93075,1.52327 0.15117,0.6985 0.79957,1.10256 1.50639,0.99691 0,0 0,0 0,0 m 0.21753,2.57631 c 0.71445,-0.0186 1.28482,-0.69081 1.22351,-1.40286 -0.0294,-0.34194 -0.20415,-0.72974 -0.48004,-0.93387 -0.27589,-0.20414 -0.62157,-0.29032 -0.961,-0.23958 -0.70682,0.10566 -1.19885,0.68346 -1.13753,1.39551 0.0613,0.71205 0.64061,1.19942 1.35506,1.1808 0,0 0,0 0,0 m -0.10564,2.58408 c 0.71214,0.0605 1.36186,-0.53624 1.38393,-1.2506 0.0106,-0.34305 -0.10474,-0.74216 -0.35367,-0.97844 -0.24893,-0.23628 -0.58153,-0.36399 -0.92462,-0.35504 -0.71445,0.0186 -1.28659,0.53921 -1.30866,1.25358 -0.0221,0.71436 0.49087,1.26998 1.20302,1.3305 0,0 0,0 0,0 m -0.38251,2.55849 c 0.70277,0.13023 1.40848,-0.39149 1.50508,-1.09966 0.0464,-0.34007 -0.0442,-0.68465 -0.2519,-0.95792 -0.20767,-0.27326 -0.52869,-0.47185 -0.87067,-0.50091 -0.71215,-0.0605 -1.34534,0.40088 -1.44193,1.10904 -0.0966,0.70817 0.35665,1.31922 1.05942,1.44945 0,0 0,0 0,0 m -0.61176,2.51398 c 0.68895,0.19033 1.43095,-0.26211 1.59241,-0.95837 0.0775,-0.33436 0.0191,-0.68583 -0.16254,-0.97708 -0.1816,-0.29126 -0.48063,-0.51599 -0.81811,-0.57853 -0.70277,-0.13022 -1.37931,0.27466 -1.54076,0.97093 -0.16145,0.69627 0.24007,1.35272 0.929,1.54305 0,0 0,0 0,0 m -0.79811,2.46142 c 0.67273,0.24148 1.43609,-0.15007 1.65306,-0.8311 0.10419,-0.32704 0.0955,-0.7227 -0.0738,-1.02127 -0.16931,-0.29857 -0.45029,-0.51765 -0.78114,-0.60905 -0.68894,-0.19032 -1.39432,0.16361 -1.61128,0.84464 -0.21696,0.68103 0.14044,1.3753 0.81317,1.61678 0,0 0,0 0,0 m -0.9548,2.40488 c 0.65125,0.2944 1.43597,-0.0521 1.7,-0.71637 0.12679,-0.31896 0.1345,-0.71213 -0.0119,-1.02256 -0.14644,-0.31044 -0.4102,-0.54999 -0.73326,-0.66595 -0.67274,-0.24148 -1.39611,0.0682 -1.66013,0.73239 -0.26402,0.66421 0.0541,1.3781 0.70533,1.67249 0,0 0,0 0,0 m -1.06609,2.35838 c 0.65125,0.29439 1.41784,0.005 1.71224,-0.64614 0.14137,-0.31274 0.15272,-0.66883 0.0315,-0.98994 -0.12118,-0.32111 -0.36495,-0.58092 -0.67769,-0.7223 -0.65125,-0.29438 -1.41784,-0.005 -1.71223,0.64616 -0.29438,0.65124 -0.005,1.41783 0.64614,1.71222 0,0 0,0 0,0 m -1.19088,2.29791 c 0.63427,0.32944 1.4155,0.0823 1.74494,-0.55195 0.1582,-0.30459 0.18892,-0.65955 0.0854,-0.98679 -0.10351,-0.32724 -0.32672,-0.6178 -0.63947,-0.75917 -0.65125,-0.29439 -1.41341,-0.0813 -1.74284,0.55298 -0.32943,0.63427 -0.0823,1.4155 0.55196,1.74493 0,0 0,0 0,0 m -1.27118,2.25396 c 0.61798,0.35909 1.41006,0.14921 1.76915,-0.46878 0.17244,-0.29677 0.24291,-0.69978 0.1394,-1.02702 -0.10352,-0.32724 -0.33279,-0.59996 -0.63737,-0.75816 -0.63428,-0.32943 -1.38088,-0.13317 -1.73997,0.48482 -0.35908,0.61798 -0.1492,1.41005 0.46879,1.76914 0,0 0,0 0,0 m -1.30037,2.23793 c 0.61799,0.35909 1.41006,0.14921 1.76915,-0.46877 0.17244,-0.29677 0.21993,-0.64989 0.13201,-0.98167 -0.0879,-0.33178 -0.30402,-0.61505 -0.60079,-0.78749 -0.61799,-0.35908 -1.41007,-0.1492 -1.76915,0.46879 -0.35908,0.61799 -0.1492,1.41006 0.46878,1.76914 0,0 0,0 0,0" stroke-width=".5" stroke-linecap="round" stroke-linejoin="round"/><path d="m 561.93892,182.19397 c -0.0913,0.70884 -0.74,1.20944 -1.44884,1.11811 -0.3404,-0.0439 -0.64944,-0.22115 -0.85913,-0.49286 -0.20968,-0.27172 -0.30284,-0.6156 -0.25898,-0.956 0.0439,-0.3404 0.22115,-0.64944 0.49286,-0.85912 0.27171,-0.20969 0.6156,-0.30285 0.956,-0.25899 0.70884,0.0913 1.20943,0.74002 1.11809,1.44886 0,0 0,0 0,0 m 2.54309,0.47969 c -0.175,0.69292 -0.80769,1.16088 -1.51007,1.0288 -0.3373,-0.0634 -0.63558,-0.25824 -0.82924,-0.54159 -0.19366,-0.28336 -0.24764,-0.6265 -0.20378,-0.9669 0.0439,-0.3404 0.25863,-0.63802 0.54199,-0.83167 0.28335,-0.19366 0.63203,-0.26682 0.96933,-0.20339 0.70238,0.13208 1.20678,0.82183 1.03177,1.51475 0,0 0,0 0,0 m 2.5037,0.65313 c -0.21989,0.67999 -0.87301,1.09339 -1.56593,0.91839 -0.33275,-0.084 -0.61849,-0.29682 -0.79436,-0.59154 -0.17586,-0.29472 -0.22745,-0.64723 -0.14341,-0.97998 0.084,-0.33275 0.29683,-0.61849 0.59154,-0.79436 0.29472,-0.17586 0.64723,-0.22745 0.97998,-0.14341 0.69292,0.17501 1.15208,0.91091 0.93218,1.5909 0,0 0,0 0,0 m 2.44642,0.84061 c -0.26639,0.66314 -0.93334,1.00867 -1.61333,0.78878 -0.32654,-0.10559 -0.59777,-0.33658 -0.754,-0.64215 -0.15624,-0.30558 -0.18468,-0.66069 -0.0791,-0.98724 0.1056,-0.32654 0.33659,-0.59777 0.64216,-0.754 0.30557,-0.15624 0.66069,-0.18468 0.98724,-0.0791 0.67999,0.2199 1.08341,1.01056 0.81702,1.6737 0,0 0,0 0,0 m 2.36673,1.04267 c -0.31402,0.64194 -0.98521,0.90679 -1.64836,0.6404 -0.31845,-0.12792 -0.57304,-0.37712 -0.70776,-0.69275 -0.13472,-0.31564 -0.13854,-0.67187 -0.0106,-0.99032 0.12792,-0.31845 0.37711,-0.57305 0.69275,-0.70777 0.31564,-0.13472 0.67187,-0.13854 0.99032,-0.0106 0.66314,0.2664 0.99768,1.11911 0.68366,1.76105 0,0 0,0 0,0 m 2.26073,1.25606 c -0.36216,0.61605 -1.15515,0.82187 -1.7712,0.45971 -0.29584,-0.17391 -0.43979,-0.40272 -0.55114,-0.72733 -0.11135,-0.32462 -0.0892,-0.68017 0.0616,-0.98844 0.1508,-0.30827 0.41788,-0.54401 0.74249,-0.65536 0.32462,-0.11135 0.7627,-0.0337 1.05854,0.14021 0.61604,0.36217 0.82186,1.15516 0.4597,1.77121 0,0 0,0 0,0 m 2.1015,1.50778 c -0.44547,0.55893 -1.1933,0.69549 -1.77855,0.28545 -0.28104,-0.19692 -0.47235,-0.49741 -0.53184,-0.83538 -0.0595,-0.33797 0.035,-0.66201 0.20889,-0.95785 0.17391,-0.29584 0.50315,-0.48128 0.84112,-0.54077 0.33797,-0.0595 0.68573,0.0177 0.96677,0.21463 0.58524,0.41005 0.73909,1.27498 0.29361,1.83392 0,0 0,0 0,0 m 1.89957,1.75512 c -0.51265,0.49803 -1.29065,0.52311 -1.81016,0.0322 -0.24947,-0.23574 -0.37232,-0.51303 -0.39655,-0.8554 -0.0242,-0.34238 0.0932,-0.66353 0.30714,-0.93194 0.21393,-0.26842 0.55006,-0.42613 0.89244,-0.45036 0.34237,-0.0242 0.72519,0.12067 0.97466,0.35641 0.5195,0.49089 0.54513,1.35104 0.0325,1.84907 0,0 0,0 0,0 m 1.64873,1.99246 c -0.57294,0.42732 -1.34227,0.3484 -1.79414,-0.20537 -0.217,-0.26594 -0.29952,-0.55817 -0.27976,-0.90083 0.0198,-0.34266 0.17898,-0.6471 0.42517,-0.88626 0.24619,-0.23917 0.59867,-0.35102 0.94134,-0.33126 0.34266,0.0198 0.70166,0.21604 0.91866,0.48197 0.45186,0.55378 0.36166,1.41444 -0.21127,1.84175 0,0 0,0 0,0 m 1.33754,2.21247 c -0.64506,0.30744 -1.38963,0.14653 -1.75196,-0.46936 -0.17399,-0.29577 -0.19288,-0.57831 -0.12865,-0.91548 0.0642,-0.33717 0.26793,-0.62242 0.54307,-0.82763 0.27513,-0.2052 0.63324,-0.26571 0.97041,-0.20148 0.33716,0.0642 0.67155,0.33672 0.84555,0.63249 0.36232,0.6159 0.16664,1.47403 -0.47842,1.78146 0,0 0,0 0,0 m 1.00791,2.38075 c -0.66911,0.25082 -1.41486,-0.0883 -1.66568,-0.7574 -0.12044,-0.32132 -0.11972,-0.5642 -0.005,-0.88763 0.11465,-0.32343 0.35308,-0.58808 0.66285,-0.73572 0.30977,-0.14763 0.6655,-0.16617 0.98893,-0.0515 0.32344,0.11464 0.65596,0.44527 0.7764,0.7666 0.25081,0.66912 -0.0883,1.41486 -0.75742,1.66567 0,0 0,0 0,0 m 0.63357,2.50588 c -0.70167,0.1353 -1.3238,-0.22644 -1.51701,-0.91441 -0.0928,-0.33038 -0.0505,-0.68408 0.11748,-0.9833 0.16801,-0.29922 0.44464,-0.48772 0.76596,-0.60817 0.32133,-0.12044 0.69649,-0.0546 0.99571,0.11342 0.29922,0.16801 0.51944,0.44799 0.61222,0.77837 0.19321,0.68797 -0.27269,1.47879 -0.97436,1.61409 0,0 0,0 0,0 m 0.26673,2.5703 c -0.71431,0.0206 -1.29594,-0.43899 -1.37357,-1.14936 -0.0373,-0.34114 0.0879,-0.59139 0.28022,-0.8756 0.19232,-0.28421 0.48966,-0.48037 0.82662,-0.54534 0.33695,-0.065 0.68592,0.007 0.97012,0.19889 0.28421,0.19232 0.45827,0.5998 0.49555,0.94094 0.0776,0.71037 -0.48463,1.40985 -1.19894,1.43047 0,0 0,0 0,0 m -0.0994,2.58257 c -0.7089,-0.0903 -1.23273,-0.64 -1.19732,-1.35374 0.017,-0.34275 0.1575,-0.57404 0.39305,-0.8236 0.23556,-0.24956 0.5606,-0.39532 0.90363,-0.40523 0.34302,-0.01 0.67594,0.11687 0.92549,0.35242 0.24956,0.23556 0.37953,0.66192 0.36252,1.00467 -0.0354,0.71374 -0.67848,1.31578 -1.38737,1.22548 0,0 0,0 0,0 m -0.45686,2.54462 c -0.68716,-0.19624 -1.13895,-0.82514 -0.99504,-1.52513 0.0691,-0.33614 0.22501,-0.5491 0.49639,-0.75916 0.27138,-0.21005 0.61508,-0.3037 0.95551,-0.26033 0.34042,0.0434 0.64968,0.22018 0.85973,0.49156 0.21006,0.27138 0.29237,0.71297 0.22325,1.04912 -0.14392,0.69998 -0.85268,1.20018 -1.53984,1.00394 0,0 0,0 0,0 m -0.80644,2.45712 c -0.6705,-0.24724 -1.01361,-0.99121 -0.76637,-1.66171 0.11873,-0.32198 0.28898,-0.51554 0.58895,-0.68224 0.29997,-0.1667 0.65388,-0.20741 0.98386,-0.11317 0.32999,0.0942 0.60902,0.3157 0.77572,0.61567 0.1667,0.29997 0.19829,0.75311 0.0796,1.0751 -0.24725,0.67049 -0.99123,1.0136 -1.66172,0.76635 0,0 0,0 0,0 m -1.14762,2.31713 c -0.62566,-0.3453 -0.85975,-1.02608 -0.56282,-1.6761 0.1426,-0.31215 0.40335,-0.55487 0.7249,-0.67476 0.32156,-0.11989 0.66355,-0.085 0.98554,0.0337 0.32198,0.11874 0.55905,0.40508 0.67894,0.72663 0.1199,0.32155 0.10714,0.67757 -0.0355,0.98971 -0.29695,0.65002 -1.16544,0.94609 -1.79111,0.60079 0,0 0,0 0,0 m -1.46286,2.13097 c -0.56487,-0.43771 -0.70398,-1.15192 -0.31172,-1.74925 0.18838,-0.28686 0.48298,-0.48713 0.81902,-0.55676 0.33603,-0.0696 0.65511,0.009 0.95556,0.17504 0.30046,0.16582 0.50438,0.49339 0.57401,0.82942 0.0696,0.33604 0.003,0.68597 -0.18544,0.97282 -0.39227,0.59733 -1.28656,0.76644 -1.85143,0.32873 0,0 0,0 0,0 m -1.76033,1.89157 c -0.48687,-0.52307 -0.52166,-1.25595 -0.0402,-1.78405 0.23119,-0.2536 0.50477,-0.32519 0.84521,-0.36837 0.34045,-0.0432 0.6841,0.0506 0.95536,0.26085 0.27126,0.2102 0.44791,0.51954 0.49109,0.85999 0.0432,0.34044 -0.14804,0.73731 -0.37923,0.99092 -0.48142,0.52809 -1.38533,0.56373 -1.87219,0.0407 0,0 0,0 0,0 m -2.0318,1.59538 c -0.39065,-0.59832 -0.31309,-1.33402 0.24913,-1.77508 0.27,-0.2118 0.53898,-0.2441 0.88192,-0.23181 0.34294,0.0123 0.66695,0.16032 0.90075,0.41151 0.2338,0.25119 0.35824,0.58497 0.34595,0.92791 -0.0123,0.34294 -0.26143,0.7166 -0.53142,0.9284 -0.56223,0.44105 -1.45568,0.3374 -1.84633,-0.26093 0,0 0,0 0,0" stroke-width=".5" stroke-linecap="round" stroke-linejoin="round"/><path d="m 478.45305,182.19397 c 0.0913,0.70884 0.74,1.20944 1.44884,1.11811 0.3404,-0.0439 0.64944,-0.22115 0.85913,-0.49286 0.20968,-0.27172 0.30284,-0.6156 0.25898,-0.956 -0.0439,-0.3404 -0.22115,-0.64944 -0.49286,-0.85912 -0.27171,-0.20969 -0.6156,-0.30285 -0.956,-0.25899 -0.70884,0.0913 -1.20943,0.74002 -1.11809,1.44886 0,0 0,0 0,0 m -2.54309,0.47969 c 0.175,0.69292 0.80769,1.16088 1.51007,1.0288 0.3373,-0.0634 0.63558,-0.25824 0.82924,-0.54159 0.19366,-0.28336 0.24764,-0.6265 0.20378,-0.9669 -0.0439,-0.3404 -0.25863,-0.63802 -0.54199,-0.83167 -0.28335,-0.19366 -0.63203,-0.26682 -0.96933,-0.20339 -0.70238,0.13208 -1.20678,0.82183 -1.03177,1.51475 0,0 0,0 0,0 m -2.5037,0.65313 c 0.21989,0.67999 0.87301,1.09339 1.56593,0.91839 0.33275,-0.084 0.61849,-0.29682 0.79436,-0.59154 0.17586,-0.29472 0.22745,-0.64723 0.14341,-0.97998 -0.084,-0.33275 -0.29683,-0.61849 -0.59154,-0.79436 -0.29472,-0.17586 -0.64723,-0.22745 -0.97998,-0.14341 -0.69292,0.17501 -1.15208,0.91091 -0.93218,1.5909 0,0 0,0 0,0 m -2.44642,0.84061 c 0.26639,0.66314 0.93334,1.00867 1.61333,0.78878 0.32654,-0.10559 0.59777,-0.33658 0.754,-0.64215 0.15624,-0.30558 0.18468,-0.66069 0.0791,-0.98724 -0.1056,-0.32654 -0.33659,-0.59777 -0.64216,-0.754 -0.30557,-0.15624 -0.66069,-0.18468 -0.98724,-0.0791 -0.67999,0.2199 -1.08341,1.01056 -0.81702,1.6737 0,0 0,0 0,0 m -2.36673,1.04267 c 0.31402,0.64194 0.98521,0.90679 1.64836,0.6404 0.31845,-0.12792 0.57304,-0.37712 0.70776,-0.69275 0.13472,-0.31564 0.13854,-0.67187 0.0106,-0.99032 -0.12792,-0.31845 -0.37711,-0.57305 -0.69275,-0.70777 -0.31564,-0.13472 -0.67187,-0.13854 -0.99032,-0.0106 -0.66314,0.2664 -0.99768,1.11911 -0.68366,1.76105 0,0 0,0 0,0 m -2.26073,1.25606 c 0.36216,0.61605 1.15515,0.82187 1.7712,0.45971 0.29584,-0.17391 0.43979,-0.40272 0.55114,-0.72733 0.11135,-0.32462 0.0892,-0.68017 -0.0616,-0.98844 -0.1508,-0.30827 -0.41788,-0.54401 -0.74249,-0.65536 -0.32462,-0.11135 -0.7627,-0.0337 -1.05854,0.14021 -0.61604,0.36217 -0.82186,1.15516 -0.4597,1.77121 0,0 0,0 0,0 m -2.1015,1.50778 c 0.44547,0.55893 1.1933,0.69549 1.77855,0.28545 0.28104,-0.19692 0.47235,-0.49741 0.53184,-0.83538 0.0595,-0.33797 -0.035,-0.66201 -0.20889,-0.95785 -0.17391,-0.29584 -0.50315,-0.48128 -0.84112,-0.54077 -0.33797,-0.0595 -0.68573,0.0177 -0.96677,0.21463 -0.58524,0.41005 -0.73909,1.27498 -0.29361,1.83392 0,0 0,0 0,0 m -1.89957,1.75512 c 0.51265,0.49803 1.29065,0.52311 1.81016,0.0322 0.24947,-0.23574 0.37232,-0.51303 0.39655,-0.8554 0.0242,-0.34238 -0.0932,-0.66353 -0.30714,-0.93194 -0.21393,-0.26842 -0.55006,-0.42613 -0.89244,-0.45036 -0.34237,-0.0242 -0.72519,0.12067 -0.97466,0.35641 -0.5195,0.49089 -0.54513,1.35104 -0.0325,1.84907 0,0 0,0 0,0 m -1.64873,1.99246 c 0.57294,0.42732 1.34227,0.3484 1.79414,-0.20537 0.217,-0.26594 0.29952,-0.55817 0.27976,-0.90083 -0.0198,-0.34266 -0.17898,-0.6471 -0.42517,-0.88626 -0.24619,-0.23917 -0.59867,-0.35102 -0.94134,-0.33126 -0.34266,0.0198 -0.70166,0.21604 -0.91866,0.48197 -0.45186,0.55378 -0.36166,1.41444 0.21127,1.84175 0,0 0,0 0,0 m -1.33754,2.21247 c 0.64506,0.30744 1.38963,0.14653 1.75196,-0.46936 0.17399,-0.29577 0.19288,-0.57831 0.12865,-0.91548 -0.0642,-0.33717 -0.26793,-0.62242 -0.54307,-0.82763 -0.27513,-0.2052 -0.63324,-0.26571 -0.97041,-0.20148 -0.33716,0.0642 -0.67155,0.33672 -0.84555,0.63249 -0.36232,0.6159 -0.16664,1.47403 0.47842,1.78146 0,0 0,0 0,0 m -1.00791,2.38075 c 0.66911,0.25082 1.41486,-0.0883 1.66568,-0.7574 0.12044,-0.32132 0.11972,-0.5642 0.005,-0.88763 -0.11465,-0.32343 -0.35308,-0.58808 -0.66285,-0.73572 -0.30977,-0.14763 -0.6655,-0.16617 -0.98893,-0.0515 -0.32344,0.11464 -0.65596,0.44527 -0.7764,0.7666 -0.25081,0.66912 0.0883,1.41486 0.75742,1.66567 0,0 0,0 0,0 m -0.63357,2.50588 c 0.70167,0.1353 1.3238,-0.22644 1.51701,-0.91441 0.0928,-0.33038 0.0505,-0.68408 -0.11748,-0.9833 -0.16801,-0.29922 -0.44464,-0.48772 -0.76596,-0.60817 -0.32133,-0.12044 -0.69649,-0.0546 -0.99571,0.11342 -0.29922,0.16801 -0.51944,0.44799 -0.61222,0.77837 -0.19321,0.68797 0.27269,1.47879 0.97436,1.61409 0,0 0,0 0,0 m -0.26673,2.5703 c 0.71431,0.0206 1.29594,-0.43899 1.37357,-1.14936 0.0373,-0.34114 -0.0879,-0.59139 -0.28022,-0.8756 -0.19232,-0.28421 -0.48966,-0.48037 -0.82662,-0.54534 -0.33695,-0.065 -0.68592,0.007 -0.97012,0.19889 -0.28421,0.19232 -0.45827,0.5998 -0.49555,0.94094 -0.0776,0.71037 0.48463,1.40985 1.19894,1.43047 0,0 0,0 0,0 m 0.0994,2.58257 c 0.7089,-0.0903 1.23273,-0.64 1.19732,-1.35374 -0.017,-0.34275 -0.1575,-0.57404 -0.39305,-0.8236 -0.23556,-0.24956 -0.5606,-0.39532 -0.90363,-0.40523 -0.34302,-0.01 -0.67594,0.11687 -0.92549,0.35242 -0.24956,0.23556 -0.37953,0.66192 -0.36252,1.00467 0.0354,0.71374 0.67848,1.31578 1.38737,1.22548 0,0 0,0 0,0 m 0.45686,2.54462 c 0.68716,-0.19624 1.13895,-0.82514 0.99504,-1.52513 -0.0691,-0.33614 -0.22501,-0.5491 -0.49639,-0.75916 -0.27138,-0.21005 -0.61508,-0.3037 -0.95551,-0.26033 -0.34042,0.0434 -0.64968,0.22018 -0.85973,0.49156 -0.21006,0.27138 -0.29237,0.71297 -0.22325,1.04912 0.14392,0.69998 0.85268,1.20018 1.53984,1.00394 0,0 0,0 0,0 m 0.80644,2.45712 c 0.6705,-0.24724 1.01361,-0.99121 0.76637,-1.66171 -0.11873,-0.32198 -0.28898,-0.51554 -0.58895,-0.68224 -0.29997,-0.1667 -0.65388,-0.20741 -0.98386,-0.11317 -0.32999,0.0942 -0.60902,0.3157 -0.77572,0.61567 -0.1667,0.29997 -0.19829,0.75311 -0.0796,1.0751 0.24725,0.67049 0.99123,1.0136 1.66172,0.76635 0,0 0,0 0,0 m 1.14762,2.31713 c 0.62566,-0.3453 0.85975,-1.02608 0.56282,-1.6761 -0.1426,-0.31215 -0.40335,-0.55487 -0.7249,-0.67476 -0.32156,-0.11989 -0.66355,-0.085 -0.98554,0.0337 -0.32198,0.11874 -0.55905,0.40508 -0.67894,0.72663 -0.1199,0.32155 -0.10714,0.67757 0.0355,0.98971 0.29695,0.65002 1.16544,0.94609 1.79111,0.60079 0,0 0,0 0,0 m 1.46286,2.13097 c 0.56487,-0.43771 0.70398,-1.15192 0.31172,-1.74925 -0.18838,-0.28686 -0.48298,-0.48713 -0.81902,-0.55676 -0.33603,-0.0696 -0.65511,0.009 -0.95556,0.17504 -0.30046,0.16582 -0.50438,0.49339 -0.57401,0.82942 -0.0696,0.33604 -0.003,0.68597 0.18544,0.97282 0.39227,0.59733 1.28656,0.76644 1.85143,0.32873 0,0 0,0 0,0 m 1.76033,1.89157 c 0.48687,-0.52307 0.52166,-1.25595 0.0402,-1.78405 -0.23119,-0.2536 -0.50477,-0.32519 -0.84521,-0.36837 -0.34045,-0.0432 -0.6841,0.0506 -0.95536,0.26085 -0.27126,0.2102 -0.44791,0.51954 -0.49109,0.85999 -0.0432,0.34044 0.14804,0.73731 0.37923,0.99092 0.48142,0.52809 1.38533,0.56373 1.87219,0.0407 0,0 0,0 0,0 m 2.0318,1.59538 c 0.39065,-0.59832 0.31309,-1.33402 -0.24913,-1.77508 -0.27,-0.2118 -0.53898,-0.2441 -0.88192,-0.23181 -0.34294,0.0123 -0.66695,0.16032 -0.90075,0.41151 -0.2338,0.25119 -0.35824,0.58497 -0.34595,0.92791 0.0123,0.34294 0.26143,0.7166 0.53142,0.9284 0.56223,0.44105 1.45568,0.3374 1.84633,-0.26093 0,0 0,0 0,0" stroke-width=".5" stroke-linecap="round" stroke-linejoin="round"/></g></g><g fill="#007a3d" stroke="#000" stroke-width=".508" stroke-linecap="round" stroke-linejoin="round" fill-rule="evenodd"><g transform="matrix(-1.8724925,0.60157337,0.60157337,1.8724925,1847.3447,-2073.3137) translate(-531.42857,308.57143)"><g transform="matrix(0.1221897,0.39963257,-0.39963257,0.1221897,1942.2823,-108.61551)" stroke-width="1.217"><path d="m 1519.6063,531.7883 c 2.2502,-0.36538 4.4814,-0.65337 6.6679,-0.76758 2.4767,-0.12937 4.9135,-0.10142 7.3086,0.0742 2.3952,0.17563 4.7488,0.49861 7.0625,0.96094 2.3138,0.46232 4.5878,1.06422 6.8203,1.79492 2.2326,0.7307 4.4229,1.5915 6.5743,2.57226 2.1513,0.98076 4.2636,2.08046 6.3339,3.29297 2.0704,1.21251 4.1004,2.53695 6.0899,3.96289 1.9895,1.42595 3.9389,2.9551 5.8476,4.57617 1.9088,1.62108 3.7773,3.33493 5.6055,5.13282 1.8282,1.79788 3.6156,3.67838 5.3633,5.63476 3.4954,3.91276 6.8296,8.12562 10.0039,12.5625 3.1743,4.43688 6.1888,9.09762 9.043,13.91211 2.8542,4.8145 5.5487,9.78252 8.084,14.82813 2.5352,5.0456 4.9097,10.1686 7.1269,15.29882 2.2173,5.13022 4.2774,10.26761 6.1777,15.33594 1.9004,5.06833 3.6421,10.0678 5.2266,14.92774 1.5845,4.85994 3.0116,9.57894 4.2813,14.08398 1.2697,4.50505 2.3819,8.79713 3.3378,12.80078 0.956,4.00365 1.7552,7.72042 2.3985,11.07617 0.6433,3.35576 1.1293,6.35076 1.4609,8.91211 0.3317,2.56136 0.5083,4.68814 0.5293,6.3086 l -1.4726,3.01758 -2.4629,0.43359 c -8.0101,-67.88899 -51.2222,-174.67897 -118.3262,-169.86328 0.2793,-0.34213 0.6277,-0.54821 0.918,-0.86914 z"/><path d="m 1540.7508,523.21994 c 8.4738,0.0197 17.4808,2.59783 25.2656,5.91406 53.0625,22.60384 85.8872,123.39438 90.5293,169.95117 l -17.0683,3.00196 1.4726,-3.01758 c -0.021,-1.62046 -0.1976,-3.74724 -0.5293,-6.3086 -0.3316,-2.56135 -0.8176,-5.55635 -1.4609,-8.91211 -0.6433,-3.35575 -1.4425,-7.07252 -2.3985,-11.07617 -0.9559,-4.00365 -2.0681,-8.29573 -3.3378,-12.80078 -1.2697,-4.50504 -2.6968,-9.22404 -4.2813,-14.08398 -1.5845,-4.85994 -3.3262,-9.85941 -5.2266,-14.92774 -1.9003,-5.06833 -3.9604,-10.20572 -6.1777,-15.33594 -2.2172,-5.13022 -4.5917,-10.25322 -7.1269,-15.29882 -2.5352,-5.04561 -5.2298,-10.01363 -8.084,-14.82813 -2.8542,-4.81449 -5.8687,-9.47523 -9.043,-13.91211 -3.1743,-4.43688 -6.5085,-8.64974 -10.0039,-12.5625 -1.7477,-1.95638 -3.5351,-3.83688 -5.3633,-5.63476 -1.8281,-1.79789 -3.6967,-3.51174 -5.6055,-5.13282 -1.9087,-1.62107 -3.8581,-3.15022 -5.8476,-4.57617 -1.9895,-1.42594 -4.0195,-2.75038 -6.0899,-3.96289 -2.0703,-1.21251 -4.1826,-2.31221 -6.3339,-3.29297 -2.1514,-0.98076 -4.3417,-1.84156 -6.5743,-2.57226 -2.2325,-0.7307 -4.5065,-1.3326 -6.8203,-1.79492 -2.3137,-0.46233 -4.6673,-0.78531 -7.0625,-0.96094 -2.3951,-0.17564 -4.8319,-0.20359 -7.3086,-0.0742 -2.1865,0.11421 -4.4177,0.4022 -6.6679,0.76758 5.5802,-6.1692 13.0898,-8.58712 21.1445,-8.56836 z"/></g><g transform="matrix(0.5,-0.8660254,-0.8660254,-0.5,1482.2936,2565.7489)"><path d="m 1861.3643,631.80555 c -0.4567,0.27463 -0.9131,0.55328 -1.3701,0.83125 -1.5145,-0.34712 -2.8281,0.0957 -3.7237,2.13956 -1.8564,-0.84535 -2.9415,0.0266 -3.7145,1.51762 -1.6925,-1.37798 -3.051,-0.48737 -4.4183,0.43654 -1.7148,-0.16976 -3.511,-0.76141 -5.4184,-1.94002 l -3.5338,5.00461 3.6155,2.08773 13.6669,-0.39773 6.7435,-5.01489 z"/><path d="m 1856.3254,634.63411 -1.8633,5.44863"/><path d="m 1848.2382,636.55671 -1.8632,5.4486"/><path d="m 1852.5479,636.14171 -1.8632,5.44863"/><path d="m 1862.4254,635.39604 c -6.1623,2.35164 -10.6786,7.68251 -20.7483,2.96177 1.7678,-0.29381 2.3955,1.2311 5.4864,-0.88902 3.2976,-2.26181 1.3797,-9.25973 -4.365,-7.12885 -3.2461,1.2041 -6.9799,3.12865 -6.3148,9.07486 0.6488,5.79974 7.2267,7.08637 12.8533,6.4855 5.273,-0.56313 10.5758,-3.88222 15.8717,-7.17621"/><path d="m 1866.9375,638.91189 1.7154,2.62928 c 1.5027,2.3034 1.1244,5.36074 -0.036,6.17989 -1.7156,1.21082 -3.536,1.11198 -4.8606,0.0652 -1.6001,-1.26466 -0.9455,-4.45064 0.5803,-5.1629 2.5195,-1.17616 3.0994,1.07621 3.0979,1.49352 0,1.00338 -0.5905,1.82294 -0.8806,0.88999 -0.5326,-1.71306 -1.8218,-0.3807 -1.6833,0.32553 0.1984,1.01126 1.1325,1.0762 1.6727,0.92433 1.7258,-0.48516 1.5063,-2.55432 1.0238,-3.2863 l -1.5051,-2.28324 -6.5471,-10.10709 -1.7238,-2.59454 c -1.5027,-2.3034 -1.1245,-5.36077 0.036,-6.17992 1.7156,-1.21081 3.5361,-1.11195 4.8606,-0.0651 1.6001,1.26464 0.9456,4.45061 -0.5802,5.1629 -2.5195,1.17616 -3.0994,-1.07621 -3.0979,-1.49352 0,-1.00341 0.5904,-1.82294 0.8805,-0.88999 0.5327,1.71306 1.8219,0.3807 1.6833,-0.32552 -0.1984,-1.0113 -1.1324,-1.07621 -1.6726,-0.92434 -1.7259,0.48516 -1.5064,2.55429 -1.0238,3.28631 l 1.5051,2.28323 c 2.4303,3.68668 5.8006,3.23177 9.0248,2.21687 -2.2991,2.19077 -4.1981,5.2055 -2.4693,7.85548 z"/></g><g><g transform="matrix(0.1221897,0.39963257,-0.39963257,0.1221897,1942.2823,-108.61551)" stroke-width="1.217"><path d="m 1519.6063,531.7883 c 2.2502,-0.36538 4.4814,-0.65337 6.6679,-0.76758 2.4767,-0.12937 4.9135,-0.10142 7.3086,0.0742 2.3952,0.17563 4.7488,0.49861 7.0625,0.96094 2.3138,0.46232 4.5878,1.06422 6.8203,1.79492 2.2326,0.7307 4.4229,1.5915 6.5743,2.57226 2.1513,0.98076 4.2636,2.08046 6.3339,3.29297 2.0704,1.21251 4.1004,2.53695 6.0899,3.96289 1.9895,1.42595 3.9389,2.9551 5.8476,4.57617 1.9088,1.62108 3.7773,3.33493 5.6055,5.13282 1.8282,1.79788 3.6156,3.67838 5.3633,5.63476 3.4954,3.91276 6.8296,8.12562 10.0039,12.5625 3.1743,4.43688 6.1888,9.09762 9.043,13.91211 2.8542,4.8145 5.5487,9.78252 8.084,14.82813 2.5352,5.0456 4.9097,10.1686 7.1269,15.29882 2.2173,5.13022 4.2774,10.26761 6.1777,15.33594 1.9004,5.06833 3.6421,10.0678 5.2266,14.92774 1.5845,4.85994 3.0116,9.57894 4.2813,14.08398 1.2697,4.50505 2.3819,8.79713 3.3378,12.80078 0.956,4.00365 1.7552,7.72042 2.3985,11.07617 0.6433,3.35576 1.1293,6.35076 1.4609,8.91211 0.3317,2.56136 0.5083,4.68814 0.5293,6.3086 l -1.4726,3.01758 -2.4629,0.43359 c -8.0101,-67.88899 -51.2222,-174.67897 -118.3262,-169.86328 0.2793,-0.34213 0.6277,-0.54821 0.918,-0.86914 z"/><path d="m 1540.7508,523.21994 c 8.4738,0.0197 17.4808,2.59783 25.2656,5.91406 53.0625,22.60384 85.8872,123.39438 90.5293,169.95117 l -17.0683,3.00196 1.4726,-3.01758 c -0.021,-1.62046 -0.1976,-3.74724 -0.5293,-6.3086 -0.3316,-2.56135 -0.8176,-5.55635 -1.4609,-8.91211 -0.6433,-3.35575 -1.4425,-7.07252 -2.3985,-11.07617 -0.9559,-4.00365 -2.0681,-8.29573 -3.3378,-12.80078 -1.2697,-4.50504 -2.6968,-9.22404 -4.2813,-14.08398 -1.5845,-4.85994 -3.3262,-9.85941 -5.2266,-14.92774 -1.9003,-5.06833 -3.9604,-10.20572 -6.1777,-15.33594 -2.2172,-5.13022 -4.5917,-10.25322 -7.1269,-15.29882 -2.5352,-5.04561 -5.2298,-10.01363 -8.084,-14.82813 -2.8542,-4.81449 -5.8687,-9.47523 -9.043,-13.91211 -3.1743,-4.43688 -6.5085,-8.64974 -10.0039,-12.5625 -1.7477,-1.95638 -3.5351,-3.83688 -5.3633,-5.63476 -1.8281,-1.79789 -3.6967,-3.51174 -5.6055,-5.13282 -1.9087,-1.62107 -3.8581,-3.15022 -5.8476,-4.57617 -1.9895,-1.42594 -4.0195,-2.75038 -6.0899,-3.96289 -2.0703,-1.21251 -4.1826,-2.31221 -6.3339,-3.29297 -2.1514,-0.98076 -4.3417,-1.84156 -6.5743,-2.57226 -2.2325,-0.7307 -4.5065,-1.3326 -6.8203,-1.79492 -2.3137,-0.46233 -4.6673,-0.78531 -7.0625,-0.96094 -2.3951,-0.17564 -4.8319,-0.20359 -7.3086,-0.0742 -2.1865,0.11421 -4.4177,0.4022 -6.6679,0.76758 5.5802,-6.1692 13.0898,-8.58712 21.1445,-8.56836 z"/></g><g transform="matrix(0.5,-0.8660254,-0.8660254,-0.5,1482.2936,2565.7489)"><path d="m 1861.3643,631.80555 c -0.4567,0.27463 -0.9131,0.55328 -1.3701,0.83125 -1.5145,-0.34712 -2.8281,0.0957 -3.7237,2.13956 -1.8564,-0.84535 -2.9415,0.0266 -3.7145,1.51762 -1.6925,-1.37798 -3.051,-0.48737 -4.4183,0.43654 -1.7148,-0.16976 -3.511,-0.76141 -5.4184,-1.94002 l -3.5338,5.00461 3.6155,2.08773 13.6669,-0.39773 6.7435,-5.01489 z"/><path d="m 1856.3254,634.63411 -1.8633,5.44863"/><path d="m 1848.2382,636.55671 -1.8632,5.4486"/><path d="m 1852.5479,636.14171 -1.8632,5.44863"/><path d="m 1862.4254,635.39604 c -6.1623,2.35164 -10.6786,7.68251 -20.7483,2.96177 1.7678,-0.29381 2.3955,1.2311 5.4864,-0.88902 3.2976,-2.26181 1.3797,-9.25973 -4.365,-7.12885 -3.2461,1.2041 -6.9799,3.12865 -6.3148,9.07486 0.6488,5.79974 7.2267,7.08637 12.8533,6.4855 5.273,-0.56313 10.5758,-3.88222 15.8717,-7.17621"/><path d="m 1866.9375,638.91189 1.7154,2.62928 c 1.5027,2.3034 1.1244,5.36074 -0.036,6.17989 -1.7156,1.21082 -3.536,1.11198 -4.8606,0.0652 -1.6001,-1.26466 -0.9455,-4.45064 0.5803,-5.1629 2.5195,-1.17616 3.0994,1.07621 3.0979,1.49352 0,1.00338 -0.5905,1.82294 -0.8806,0.88999 -0.5326,-1.71306 -1.8218,-0.3807 -1.6833,0.32553 0.1984,1.01126 1.1325,1.0762 1.6727,0.92433 1.7258,-0.48516 1.5063,-2.55432 1.0238,-3.2863 l -1.5051,-2.28324 -6.5471,-10.10709 -1.7238,-2.59454 c -1.5027,-2.3034 -1.1245,-5.36077 0.036,-6.17992 1.7156,-1.21081 3.5361,-1.11195 4.8606,-0.0651 1.6001,1.26464 0.9456,4.45061 -0.5802,5.1629 -2.5195,1.17616 -3.0994,-1.07621 -3.0979,-1.49352 0,-1.00341 0.5904,-1.82294 0.8805,-0.88999 0.5327,1.71306 1.8219,0.3807 1.6833,-0.32552 -0.1984,-1.0113 -1.1324,-1.07621 -1.6726,-0.92434 -1.7259,0.48516 -1.5064,2.55429 -1.0238,3.28631 l 1.5051,2.28323 c 2.4303,3.68668 5.8006,3.23177 9.0248,2.21687 -2.2991,2.19077 -4.1981,5.2055 -2.4693,7.85548 z"/></g></g></g><g transform="matrix(1.8724925,0.60157337,-0.60157337,1.8724925,-2126.8392,-2073.3137) translate(-531.42857,308.57143)"><g transform="matrix(0.1221897,0.39963257,-0.39963257,0.1221897,1942.2823,-108.61551)" stroke-width="1.217"><path d="m 1519.6063,531.7883 c 2.2502,-0.36538 4.4814,-0.65337 6.6679,-0.76758 2.4767,-0.12937 4.9135,-0.10142 7.3086,0.0742 2.3952,0.17563 4.7488,0.49861 7.0625,0.96094 2.3138,0.46232 4.5878,1.06422 6.8203,1.79492 2.2326,0.7307 4.4229,1.5915 6.5743,2.57226 2.1513,0.98076 4.2636,2.08046 6.3339,3.29297 2.0704,1.21251 4.1004,2.53695 6.0899,3.96289 1.9895,1.42595 3.9389,2.9551 5.8476,4.57617 1.9088,1.62108 3.7773,3.33493 5.6055,5.13282 1.8282,1.79788 3.6156,3.67838 5.3633,5.63476 3.4954,3.91276 6.8296,8.12562 10.0039,12.5625 3.1743,4.43688 6.1888,9.09762 9.043,13.91211 2.8542,4.8145 5.5487,9.78252 8.084,14.82813 2.5352,5.0456 4.9097,10.1686 7.1269,15.29882 2.2173,5.13022 4.2774,10.26761 6.1777,15.33594 1.9004,5.06833 3.6421,10.0678 5.2266,14.92774 1.5845,4.85994 3.0116,9.57894 4.2813,14.08398 1.2697,4.50505 2.3819,8.79713 3.3378,12.80078 0.956,4.00365 1.7552,7.72042 2.3985,11.07617 0.6433,3.35576 1.1293,6.35076 1.4609,8.91211 0.3317,2.56136 0.5083,4.68814 0.5293,6.3086 l -1.4726,3.01758 -2.4629,0.43359 c -8.0101,-67.88899 -51.2222,-174.67897 -118.3262,-169.86328 0.2793,-0.34213 0.6277,-0.54821 0.918,-0.86914 z"/><path d="m 1540.7508,523.21994 c 8.4738,0.0197 17.4808,2.59783 25.2656,5.91406 53.0625,22.60384 85.8872,123.39438 90.5293,169.95117 l -17.0683,3.00196 1.4726,-3.01758 c -0.021,-1.62046 -0.1976,-3.74724 -0.5293,-6.3086 -0.3316,-2.56135 -0.8176,-5.55635 -1.4609,-8.91211 -0.6433,-3.35575 -1.4425,-7.07252 -2.3985,-11.07617 -0.9559,-4.00365 -2.0681,-8.29573 -3.3378,-12.80078 -1.2697,-4.50504 -2.6968,-9.22404 -4.2813,-14.08398 -1.5845,-4.85994 -3.3262,-9.85941 -5.2266,-14.92774 -1.9003,-5.06833 -3.9604,-10.20572 -6.1777,-15.33594 -2.2172,-5.13022 -4.5917,-10.25322 -7.1269,-15.29882 -2.5352,-5.04561 -5.2298,-10.01363 -8.084,-14.82813 -2.8542,-4.81449 -5.8687,-9.47523 -9.043,-13.91211 -3.1743,-4.43688 -6.5085,-8.64974 -10.0039,-12.5625 -1.7477,-1.95638 -3.5351,-3.83688 -5.3633,-5.63476 -1.8281,-1.79789 -3.6967,-3.51174 -5.6055,-5.13282 -1.9087,-1.62107 -3.8581,-3.15022 -5.8476,-4.57617 -1.9895,-1.42594 -4.0195,-2.75038 -6.0899,-3.96289 -2.0703,-1.21251 -4.1826,-2.31221 -6.3339,-3.29297 -2.1514,-0.98076 -4.3417,-1.84156 -6.5743,-2.57226 -2.2325,-0.7307 -4.5065,-1.3326 -6.8203,-1.79492 -2.3137,-0.46233 -4.6673,-0.78531 -7.0625,-0.96094 -2.3951,-0.17564 -4.8319,-0.20359 -7.3086,-0.0742 -2.1865,0.11421 -4.4177,0.4022 -6.6679,0.76758 5.5802,-6.1692 13.0898,-8.58712 21.1445,-8.56836 z"/></g><g transform="matrix(0.5,-0.8660254,-0.8660254,-0.5,1482.2936,2565.7489)"><path d="m 1861.3643,631.80555 c -0.4567,0.27463 -0.9131,0.55328 -1.3701,0.83125 -1.5145,-0.34712 -2.8281,0.0957 -3.7237,2.13956 -1.8564,-0.84535 -2.9415,0.0266 -3.7145,1.51762 -1.6925,-1.37798 -3.051,-0.48737 -4.4183,0.43654 -1.7148,-0.16976 -3.511,-0.76141 -5.4184,-1.94002 l -3.5338,5.00461 3.6155,2.08773 13.6669,-0.39773 6.7435,-5.01489 z"/><path d="m 1856.3254,634.63411 -1.8633,5.44863"/><path d="m 1848.2382,636.55671 -1.8632,5.4486"/><path d="m 1852.5479,636.14171 -1.8632,5.44863"/><path d="m 1862.4254,635.39604 c -6.1623,2.35164 -10.6786,7.68251 -20.7483,2.96177 1.7678,-0.29381 2.3955,1.2311 5.4864,-0.88902 3.2976,-2.26181 1.3797,-9.25973 -4.365,-7.12885 -3.2461,1.2041 -6.9799,3.12865 -6.3148,9.07486 0.6488,5.79974 7.2267,7.08637 12.8533,6.4855 5.273,-0.56313 10.5758,-3.88222 15.8717,-7.17621"/><path d="m 1866.9375,638.91189 1.7154,2.62928 c 1.5027,2.3034 1.1244,5.36074 -0.036,6.17989 -1.7156,1.21082 -3.536,1.11198 -4.8606,0.0652 -1.6001,-1.26466 -0.9455,-4.45064 0.5803,-5.1629 2.5195,-1.17616 3.0994,1.07621 3.0979,1.49352 0,1.00338 -0.5905,1.82294 -0.8806,0.88999 -0.5326,-1.71306 -1.8218,-0.3807 -1.6833,0.32553 0.1984,1.01126 1.1325,1.0762 1.6727,0.92433 1.7258,-0.48516 1.5063,-2.55432 1.0238,-3.2863 l -1.5051,-2.28324 -6.5471,-10.10709 -1.7238,-2.59454 c -1.5027,-2.3034 -1.1245,-5.36077 0.036,-6.17992 1.7156,-1.21081 3.5361,-1.11195 4.8606,-0.0651 1.6001,1.26464 0.9456,4.45061 -0.5802,5.1629 -2.5195,1.17616 -3.0994,-1.07621 -3.0979,-1.49352 0,-1.00341 0.5904,-1.82294 0.8805,-0.88999 0.5327,1.71306 1.8219,0.3807 1.6833,-0.32552 -0.1984,-1.0113 -1.1324,-1.07621 -1.6726,-0.92434 -1.7259,0.48516 -1.5064,2.55429 -1.0238,3.28631 l 1.5051,2.28323 c 2.4303,3.68668 5.8006,3.23177 9.0248,2.21687 -2.2991,2.19077 -4.1981,5.2055 -2.4693,7.85548 z"/></g><g><g transform="matrix(0.1221897,0.39963257,-0.39963257,0.1221897,1942.2823,-108.61551)" stroke-width="1.217"><path d="m 1519.6063,531.7883 c 2.2502,-0.36538 4.4814,-0.65337 6.6679,-0.76758 2.4767,-0.12937 4.9135,-0.10142 7.3086,0.0742 2.3952,0.17563 4.7488,0.49861 7.0625,0.96094 2.3138,0.46232 4.5878,1.06422 6.8203,1.79492 2.2326,0.7307 4.4229,1.5915 6.5743,2.57226 2.1513,0.98076 4.2636,2.08046 6.3339,3.29297 2.0704,1.21251 4.1004,2.53695 6.0899,3.96289 1.9895,1.42595 3.9389,2.9551 5.8476,4.57617 1.9088,1.62108 3.7773,3.33493 5.6055,5.13282 1.8282,1.79788 3.6156,3.67838 5.3633,5.63476 3.4954,3.91276 6.8296,8.12562 10.0039,12.5625 3.1743,4.43688 6.1888,9.09762 9.043,13.91211 2.8542,4.8145 5.5487,9.78252 8.084,14.82813 2.5352,5.0456 4.9097,10.1686 7.1269,15.29882 2.2173,5.13022 4.2774,10.26761 6.1777,15.33594 1.9004,5.06833 3.6421,10.0678 5.2266,14.92774 1.5845,4.85994 3.0116,9.57894 4.2813,14.08398 1.2697,4.50505 2.3819,8.79713 3.3378,12.80078 0.956,4.00365 1.7552,7.72042 2.3985,11.07617 0.6433,3.35576 1.1293,6.35076 1.4609,8.91211 0.3317,2.56136 0.5083,4.68814 0.5293,6.3086 l -1.4726,3.01758 -2.4629,0.43359 c -8.0101,-67.88899 -51.2222,-174.67897 -118.3262,-169.86328 0.2793,-0.34213 0.6277,-0.54821 0.918,-0.86914 z"/><path d="m 1540.7508,523.21994 c 8.4738,0.0197 17.4808,2.59783 25.2656,5.91406 53.0625,22.60384 85.8872,123.39438 90.5293,169.95117 l -17.0683,3.00196 1.4726,-3.01758 c -0.021,-1.62046 -0.1976,-3.74724 -0.5293,-6.3086 -0.3316,-2.56135 -0.8176,-5.55635 -1.4609,-8.91211 -0.6433,-3.35575 -1.4425,-7.07252 -2.3985,-11.07617 -0.9559,-4.00365 -2.0681,-8.29573 -3.3378,-12.80078 -1.2697,-4.50504 -2.6968,-9.22404 -4.2813,-14.08398 -1.5845,-4.85994 -3.3262,-9.85941 -5.2266,-14.92774 -1.9003,-5.06833 -3.9604,-10.20572 -6.1777,-15.33594 -2.2172,-5.13022 -4.5917,-10.25322 -7.1269,-15.29882 -2.5352,-5.04561 -5.2298,-10.01363 -8.084,-14.82813 -2.8542,-4.81449 -5.8687,-9.47523 -9.043,-13.91211 -3.1743,-4.43688 -6.5085,-8.64974 -10.0039,-12.5625 -1.7477,-1.95638 -3.5351,-3.83688 -5.3633,-5.63476 -1.8281,-1.79789 -3.6967,-3.51174 -5.6055,-5.13282 -1.9087,-1.62107 -3.8581,-3.15022 -5.8476,-4.57617 -1.9895,-1.42594 -4.0195,-2.75038 -6.0899,-3.96289 -2.0703,-1.21251 -4.1826,-2.31221 -6.3339,-3.29297 -2.1514,-0.98076 -4.3417,-1.84156 -6.5743,-2.57226 -2.2325,-0.7307 -4.5065,-1.3326 -6.8203,-1.79492 -2.3137,-0.46233 -4.6673,-0.78531 -7.0625,-0.96094 -2.3951,-0.17564 -4.8319,-0.20359 -7.3086,-0.0742 -2.1865,0.11421 -4.4177,0.4022 -6.6679,0.76758 5.5802,-6.1692 13.0898,-8.58712 21.1445,-8.56836 z"/></g><g transform="matrix(0.5,-0.8660254,-0.8660254,-0.5,1482.2936,2565.7489)"><path d="m 1861.3643,631.80555 c -0.4567,0.27463 -0.9131,0.55328 -1.3701,0.83125 -1.5145,-0.34712 -2.8281,0.0957 -3.7237,2.13956 -1.8564,-0.84535 -2.9415,0.0266 -3.7145,1.51762 -1.6925,-1.37798 -3.051,-0.48737 -4.4183,0.43654 -1.7148,-0.16976 -3.511,-0.76141 -5.4184,-1.94002 l -3.5338,5.00461 3.6155,2.08773 13.6669,-0.39773 6.7435,-5.01489 z"/><path d="m 1856.3254,634.63411 -1.8633,5.44863"/><path d="m 1848.2382,636.55671 -1.8632,5.4486"/><path d="m 1852.5479,636.14171 -1.8632,5.44863"/><path d="m 1862.4254,635.39604 c -6.1623,2.35164 -10.6786,7.68251 -20.7483,2.96177 1.7678,-0.29381 2.3955,1.2311 5.4864,-0.88902 3.2976,-2.26181 1.3797,-9.25973 -4.365,-7.12885 -3.2461,1.2041 -6.9799,3.12865 -6.3148,9.07486 0.6488,5.79974 7.2267,7.08637 12.8533,6.4855 5.273,-0.56313 10.5758,-3.88222 15.8717,-7.17621"/><path d="m 1866.9375,638.91189 1.7154,2.62928 c 1.5027,2.3034 1.1244,5.36074 -0.036,6.17989 -1.7156,1.21082 -3.536,1.11198 -4.8606,0.0652 -1.6001,-1.26466 -0.9455,-4.45064 0.5803,-5.1629 2.5195,-1.17616 3.0994,1.07621 3.0979,1.49352 0,1.00338 -0.5905,1.82294 -0.8806,0.88999 -0.5326,-1.71306 -1.8218,-0.3807 -1.6833,0.32553 0.1984,1.01126 1.1325,1.0762 1.6727,0.92433 1.7258,-0.48516 1.5063,-2.55432 1.0238,-3.2863 l -1.5051,-2.28324 -6.5471,-10.10709 -1.7238,-2.59454 c -1.5027,-2.3034 -1.1245,-5.36077 0.036,-6.17992 1.7156,-1.21081 3.5361,-1.11195 4.8606,-0.0651 1.6001,1.26464 0.9456,4.45061 -0.5802,5.1629 -2.5195,1.17616 -3.0994,-1.07621 -3.0979,-1.49352 0,-1.00341 0.5904,-1.82294 0.8805,-0.88999 0.5327,1.71306 1.8219,0.3807 1.6833,-0.32552 -0.1984,-1.0113 -1.1324,-1.07621 -1.6726,-0.92434 -1.7259,0.48516 -1.5064,2.55429 -1.0238,3.28631 l 1.5051,2.28323 c 2.4303,3.68668 5.8006,3.23177 9.0248,2.21687 -2.2991,2.19077 -4.1981,5.2055 -2.4693,7.85548 z"/></g></g></g></g></g><g transform="matrix(0.05900011,0,0,0.05900011,-838.04115,2.4955705)"><path d="M 0,0 H 10080 V 5040 H 0 Z" fill="#fff"/><path d="M 0,0 H 10079.999 V 1680 H 0 Z"/><path d="M 0,3360 H 10079.999 V 5040 H 0 Z" fill="#007a3d"/><path d="M 0,0 5039.9995,2520 0,5040 Z" fill="#ce1126"/><path transform="matrix(-0.32539529,0,0,-0.32539529,1320.001,2160.0012)" d="m -1106.343,0.00317383 -239.2926,-609.44918383 -625.683,192.8989 327.29,-567.07185 -540.9214,-368.90814 647.4167,-97.6779 -48.835,-652.9199 480.0253,445.2696 480.02521,-445.2696 -48.8349,652.9199 647.416615,97.6778 -540.921405,368.90826 327.2901,567.07179 -625.68307,-192.89885 z" fill="#fff" fill-rule="evenodd"/></g></g></svg>