<svg xmlns="http://www.w3.org/2000/svg" width="675" height="450" viewBox="-0.0002441 0.0002441 675 450" xml:space="preserve">
  <path fill="#0038A8" d="M-.0002441-.0007324h675v450h-675z"/>
  <g fill="#FCD116">
    <path d="m90.2624512 341.6623535-11.1708984 34.375-36.1455078.0019531 29.2412109 21.2460938-11.1679688 34.3769531 29.2431641-21.2451172 29.2421875 21.2451172-11.1679688-34.3769531 29.2412109-21.2460938-36.1455078-.0019531-11.1699218-34.375zM584.7380371 180.0002441l11.1708984 34.375 36.1445313.0019531-29.2412109 21.2460938 11.1689453 34.3769531-29.2431641-21.2451172-29.2421875 21.2451172 11.1679688-34.3769531-29.2412109-21.2460938 36.1445313-.0019531 11.1708983-34.375zM90.2624512 18.3381348l-11.1708984 34.375-36.1455078.0019531 29.2412109 21.2460938-11.1679688 34.3769531 29.2431641-21.2451172 29.2421875 21.2451172-11.1679688-34.3769531 29.2412109-21.2460938-36.1455078-.0019531-11.1699218-34.375z"/>
    <g>
      <path d="M241.119873 105.9699707h11.8017578l79.5341797 119.0302734-91.3359375-119.0302734z"/>
      <path d="M214.9001465 107.442627v14.4628906l117.5556641 103.0947266-103.09375-117.5576172h-14.4619141zM213.4255371 133.6652832v11.8027344l119.0302734 79.5322266-119.0302734-91.334961z"/>
      <path d="m183.704834 205.4172363 8.3457031-8.3457031 140.4052734 27.9287109-148.7509765-19.5830078z"/>
      <path d="m166.204834 225.0002441 10.2275391 10.2265625 156.0234375-10.2265625-156.0234376-10.227539-10.227539 10.227539zM183.704834 244.583252l8.3457031 8.3457031 140.4052734-27.9287109L183.704834 244.583252z"/>
      <path d="M213.4255371 316.3352051v-11.8027344l119.0302734-79.5322266-119.0302734 91.334961zM214.9001465 342.5559082h14.4619141l103.09375-117.5556641-117.5556641 103.0947266v14.4609375z"/>
      <path d="M241.119873 344.029541h11.8017578l79.5341797-119.0292969L241.119873 344.029541z"/>
      <g>
        <path d="m312.8718262 373.7502441-8.3447266-8.3476563 27.9287109-140.4023438-19.5839843 148.7500001zM332.4558105 391.2502441l10.2275391-10.2275391-10.2275391-156.0224609-10.2275391 156.0224609 10.2275391 10.2275391zM352.0368652 373.7502441l8.3476563-8.3476563-27.9287109-140.4023438 19.5810546 148.7500001z"/>
      </g>
      <g>
        <path d="M423.7888184 344.029541h-11.8007813l-79.5322266-119.0292969 91.3330079 119.0292969z"/>
        <path d="M450.0114746 342.5559082v-14.4609375L332.4558105 225.0002441l103.0947266 117.5556641h14.4609375zM451.486084 316.3352051v-11.8027344l-119.0302734-79.5322266 119.0302734 91.334961z"/>
      </g>
      <g>
        <path d="m481.204834 244.583252-8.34375 8.3457031-140.4052734-27.9287109L481.204834 244.583252zM498.704834 225.0002441l-10.2265625-10.2275391-156.0224609 10.2275391 156.0224609 10.2265625 10.2265625-10.2265625zM481.204834 205.4172363l-8.34375-8.3457031-140.4052734 27.9287109 148.7490234-19.5830078z"/>
      </g>
      <g>
        <path d="M451.486084 133.6652832v11.8027344l-119.0302734 79.5322266 119.0302734-91.334961zM450.0114746 107.442627h-14.4609375L332.4558105 225.0002441 450.0114746 121.904541v-14.461914z"/>
        <path d="M423.7888184 105.9699707h-11.8007813l-79.5322266 119.0302734 91.3330079-119.0302734z"/>
      </g>
      <g>
        <path d="m352.0368652 76.2502441 8.3476563 8.3447266-27.9287109 140.4052734 19.5810546-148.75zM332.4558105 58.7502441l-10.2275391 10.2265625 10.2275391 156.0234375 10.2275391-156.0234375-10.2275391-10.2265625zM312.8718262 76.2502441l-8.3447266 8.3447266 27.9287109 140.4052734-19.5839843-148.75z"/>
      </g>
      <circle cx="332.4558105" cy="225.0002441" r="78.75"/>
    </g>
  </g>
</svg>
