<?xml version="1.0" encoding="UTF-8" standalone="no"?>
<svg
   xmlns:osb="http://www.openswatchbook.org/uri/2009/osb"
   xmlns:dc="http://purl.org/dc/elements/1.1/"
   xmlns:cc="http://creativecommons.org/ns#"
   xmlns:rdf="http://www.w3.org/1999/02/22-rdf-syntax-ns#"
   xmlns:svg="http://www.w3.org/2000/svg"
   xmlns="http://www.w3.org/2000/svg"
   xmlns:xlink="http://www.w3.org/1999/xlink"
   xmlns:sodipodi="http://sodipodi.sourceforge.net/DTD/sodipodi-0.dtd"
   xmlns:inkscape="http://www.inkscape.org/namespaces/inkscape"
   version="1.0"
   width="604"
   height="384"
   id="svg2"
   sodipodi:version="0.32"
   inkscape:version="0.92.2 (5c3e80d, 2017-08-06)"
   sodipodi:docname="Flag_of_the_Western_Union.svg"
   inkscape:output_extension="org.inkscape.output.svg.inkscape">
  <metadata
     id="metadata42">
    <rdf:RDF>
      <cc:Work
         rdf:about="">
        <dc:format>image/svg+xml</dc:format>
        <dc:type
           rdf:resource="http://purl.org/dc/dcmitype/StillImage" />
        <dc:title></dc:title>
      </cc:Work>
    </rdf:RDF>
  </metadata>
  <sodipodi:namedview
     inkscape:window-height="1137"
     inkscape:window-width="1920"
     inkscape:pageshadow="2"
     inkscape:pageopacity="0.0"
     guidetolerance="10.0"
     gridtolerance="10.0"
     objecttolerance="10.0"
     borderopacity="1.0"
     bordercolor="#666666"
     pagecolor="#ffffff"
     id="base"
     showgrid="false"
     inkscape:zoom="0.5178333"
     inkscape:cx="-104.46728"
     inkscape:cy="253.81073"
     inkscape:window-x="1912"
     inkscape:window-y="-8"
     inkscape:current-layer="svg2"
     showguides="false"
     inkscape:guide-bbox="true"
     inkscape:window-maximized="1"
     fit-margin-top="0"
     fit-margin-left="0"
     fit-margin-right="0"
     fit-margin-bottom="0" />
  <desc
     id="desc4">European flag</desc>
  <defs
     id="defs6">
    <g
       id="s">
      <g
         id="c">
        <path
           id="t"
           d="M 0,0 V 1 H 0.5 Z"
           transform="rotate(18.000001,3.1568757,-0.50000014)"
           inkscape:connector-curvature="0" />
        <use
           xlink:href="#t"
           transform="scale(-1,1)"
           id="use11"
           x="0"
           y="0"
           width="810"
           height="540" />
      </g>
      <g
         id="a">
        <use
           xlink:href="#c"
           transform="rotate(71.999999)"
           id="use14"
           x="0"
           y="0"
           width="810"
           height="540" />
        <use
           xlink:href="#c"
           transform="rotate(144)"
           id="use16"
           x="0"
           y="0"
           width="810"
           height="540" />
      </g>
      <use
         xlink:href="#a"
         transform="scale(-1,1)"
         id="use18"
         x="0"
         y="0"
         width="810"
         height="540" />
    </g>
    <linearGradient
       osb:paint="solid"
       id="linearGradient945">
      <stop
         id="stop943"
         offset="0"
         style="stop-color:#000000;stop-opacity:1;" />
    </linearGradient>
    <clipPath
       id="clipPath4711"
       clipPathUnits="userSpaceOnUse">
      <path
         inkscape:connector-curvature="0"
         id="path4713"
         d="M 35.988841,2.1836334 V 18.109234 c 1.502118,-1.002263 3.247146,-1.625979 5.066716,-1.786905 0.347465,-0.03071 0.69818,-0.04381 1.049997,-0.0401 1.05545,0.0112 2.124679,0.179352 3.17672,0.52118 l 4.119809,1.33827 c 1.659828,0.539311 3.09409,1.459859 4.253444,2.624994 v 1.456633 C 53.275581,21.751544 52.846894,21.317135 52.382167,20.9194 l -2.084722,4.692535 c 0.221694,0.341934 0.404969,0.708134 0.538362,1.093907 h -1.02327 c -0.442485,-1.004968 -1.297896,-1.817736 -2.477994,-2.201173 l -4.11981,-1.33827 c -0.550722,-0.178939 -1.100085,-0.244518 -1.626542,-0.206181 -1.579371,0.115017 -2.947317,1.156271 -3.484083,2.808266 l -0.305454,0.937362 h -1.027088 l 0.370363,-1.141634 -1.153088,-0.374181 V 38.742636 H 100.18379 L 97.889064,31.684743 C 97.19849,29.55939 97.217901,27.360497 97.808884,25.354212 l 0.104998,-0.358908 h 7.708898 l -0.66819,0.817089 c -0.83299,1.016238 -1.13771,2.399126 -0.68344,3.797173 l 2.96671,9.13307 h 18.11533 V 2.1836334 Z"
         style="opacity:0.70999995;fill-opacity:1;stroke-width:0.97745234;paint-order:stroke fill markers" />
    </clipPath>
    <g
       id="s-9">
      <g
         id="c-9">
        <path
           id="t-8"
           d="M 0,0 V 1 H 0.5 Z"
           transform="rotate(18.000001,3.1568757,-0.50000014)"
           inkscape:connector-curvature="0" />
        <use
           xlink:href="#t-8"
           transform="scale(-1,1)"
           id="use11-1"
           x="0"
           y="0"
           width="810"
           height="540" />
      </g>
      <g
         id="a-8">
        <use
           xlink:href="#c-9"
           transform="rotate(71.999999)"
           id="use14-1"
           x="0"
           y="0"
           width="810"
           height="540" />
        <use
           xlink:href="#c-9"
           transform="rotate(144)"
           id="use16-3"
           x="0"
           y="0"
           width="810"
           height="540" />
      </g>
      <use
         xlink:href="#a-8"
         transform="scale(-1,1)"
         id="use18-3"
         x="0"
         y="0"
         width="810"
         height="540" />
    </g>
  </defs>
  <path
     style="fill:#006699;fill-opacity:1"
     d="M 10,-4.75e-5 H 604 V 383.99992 H 10 Z"
     id="rect20"
     inkscape:connector-curvature="0"
     sodipodi:nodetypes="ccccc" />
  <path
     style="fill:#ffffff;fill-opacity:1;stroke:none;stroke-width:60;stroke-miterlimit:4;stroke-dasharray:none;stroke-opacity:1"
     d="M 54.1875,54.1875 V 66.625 329.8125 h 495.625 V 54.1875 Z M 66.625,66.625 h 470.75 v 250.75 H 66.625 Z"
     id="path3215"
     inkscape:connector-curvature="0"
     sodipodi:nodetypes="ccccccccccc" />
  <path
     style="fill:#000000;fill-opacity:1;stroke:none;stroke-width:60;stroke-miterlimit:4;stroke-dasharray:none;stroke-opacity:1"
     d="M 41.75,41.749969 V 342.24997 H 54.1875 V 41.749969 Z"
     id="path3213"
     inkscape:connector-curvature="0"
     sodipodi:nodetypes="ccccc" />
  <path
     sodipodi:nodetypes="ccccc"
     inkscape:connector-curvature="0"
     id="path4244"
     d="M 562.25,41.749969 V 342.24997 H 549.8125 V 41.749969 Z"
     style="fill:#000000;fill-opacity:1;stroke:none;stroke-width:60;stroke-miterlimit:4;stroke-dasharray:none;stroke-opacity:1" />
  <path
     sodipodi:nodetypes="ccccc"
     inkscape:connector-curvature="0"
     id="path4234"
     d="m 51.75,342.24997 h 500.5 v -12.4375 H 51.75 Z"
     style="fill:#000000;fill-opacity:1;stroke:none;stroke-width:60;stroke-miterlimit:4;stroke-dasharray:none;stroke-opacity:1" />
  <path
     style="fill:#000000;fill-opacity:1;stroke:none;stroke-width:60;stroke-miterlimit:4;stroke-dasharray:none;stroke-opacity:1"
     d="m 51.75,41.749969 500.5,10e-7 v 12.4375 H 51.75 Z"
     id="path4254"
     inkscape:connector-curvature="0"
     sodipodi:nodetypes="ccccc" />
  <path
     style="fill:#d9241c;fill-opacity:1;stroke:none;stroke-width:60;stroke-miterlimit:4;stroke-dasharray:none;stroke-opacity:1"
     d="M 0,0 V 384 H 604 V 0 Z m 29.3125,29.3125 h 545.375 v 325.375 H 29.3125 Z"
     id="path19"
     inkscape:connector-curvature="0"
     sodipodi:nodetypes="cccccccccc" />
  <path
     style="fill:#ffcc00;fill-opacity:1;stroke:none;stroke-width:60;stroke-miterlimit:4;stroke-dasharray:none;stroke-opacity:1"
     d="m 29.3125,29.3125 v 325.375 h 545.375 V 29.3125 Z M 41.75,41.75 h 520.5 v 300.5 H 41.75 Z"
     id="path3211"
     inkscape:connector-curvature="0"
     sodipodi:nodetypes="cccccccccc" />
  <g
     id="g932"
     transform="matrix(1.6041905,0,0,1.6041905,182.16767,82.952294)">
    <g
       transform="matrix(1.1559535,0,0,1.1559535,-11.676037,-12.148551)"
       style="opacity:1"
       id="g4803">
      <g
         id="use897"
         transform="matrix(0.31614534,-0.9729953,0.9729953,0.31614534,-13.340069,120.36753)">
        <path
           inkscape:connector-curvature="0"
           id="path909"
           d="m 51.263672,10.007812 c -5.632155,0 -10.255859,4.623705 -10.25586,10.25586 v 4.332031 c 0,5.632155 4.623705,10.255859 10.25586,10.255859 H 102.9375 c 5.63215,0 10.25586,-4.623704 10.25586,-10.255859 v -4.332031 c 0,-5.632155 -4.62371,-10.25586 -10.25586,-10.25586 z m 0,5.710938 H 102.9375 c 2.56705,0 4.54297,1.977877 4.54297,4.544922 v 4.332031 c 0,2.567045 -1.97592,4.544922 -4.54297,4.544922 H 51.263672 c -2.567045,0 -4.544922,-1.977877 -4.544922,-4.544922 v -4.332031 c 0,-2.567045 1.977877,-4.544922 4.544922,-4.544922 z"
           style="color:#000000;font-style:normal;font-variant:normal;font-weight:normal;font-stretch:normal;font-size:medium;line-height:normal;font-family:sans-serif;font-variant-ligatures:normal;font-variant-position:normal;font-variant-caps:normal;font-variant-numeric:normal;font-variant-alternates:normal;font-feature-settings:normal;text-indent:0;text-align:start;text-decoration:none;text-decoration-line:none;text-decoration-style:solid;text-decoration-color:#000000;letter-spacing:normal;word-spacing:normal;text-transform:none;writing-mode:lr-tb;direction:ltr;text-orientation:mixed;dominant-baseline:auto;baseline-shift:baseline;text-anchor:start;white-space:normal;shape-padding:0;clip-rule:nonzero;display:inline;overflow:visible;visibility:visible;opacity:1;isolation:auto;mix-blend-mode:normal;color-interpolation:sRGB;color-interpolation-filters:linearRGB;solid-color:#000000;solid-opacity:1;vector-effect:none;fill:#ffcc00;fill-opacity:1;fill-rule:nonzero;stroke:#006699;stroke-width:0.97745234;stroke-linecap:round;stroke-linejoin:round;stroke-miterlimit:4;stroke-dasharray:none;stroke-dashoffset:0;stroke-opacity:1;paint-order:stroke fill markers;color-rendering:auto;image-rendering:auto;shape-rendering:auto;text-rendering:auto;enable-background:accumulate" />
      </g>
      <g
         id="g831"
         transform="matrix(1.0230678,0,0,1.0230678,-4.0104303,-1.0289269)"
         style="opacity:1"
         clip-path="url(#clipPath4711)">
        <path
           inkscape:connector-curvature="0"
           id="path827"
           d="m 51.263672,10.007812 c -5.632155,0 -10.255859,4.623705 -10.25586,10.25586 v 4.332031 c 0,5.632155 4.623705,10.255859 10.25586,10.255859 H 102.9375 c 5.63215,0 10.25586,-4.623704 10.25586,-10.255859 v -4.332031 c 0,-5.632155 -4.62371,-10.25586 -10.25586,-10.25586 z m 0,5.710938 H 102.9375 c 2.56705,0 4.54297,1.977877 4.54297,4.544922 v 4.332031 c 0,2.567045 -1.97592,4.544922 -4.54297,4.544922 H 51.263672 c -2.567045,0 -4.544922,-1.977877 -4.544922,-4.544922 v -4.332031 c 0,-2.567045 1.977877,-4.544922 4.544922,-4.544922 z"
           style="color:#000000;font-style:normal;font-variant:normal;font-weight:normal;font-stretch:normal;font-size:medium;line-height:normal;font-family:sans-serif;font-variant-ligatures:normal;font-variant-position:normal;font-variant-caps:normal;font-variant-numeric:normal;font-variant-alternates:normal;font-feature-settings:normal;text-indent:0;text-align:start;text-decoration:none;text-decoration-line:none;text-decoration-style:solid;text-decoration-color:#000000;letter-spacing:normal;word-spacing:normal;text-transform:none;writing-mode:lr-tb;direction:ltr;text-orientation:mixed;dominant-baseline:auto;baseline-shift:baseline;text-anchor:start;white-space:normal;shape-padding:0;clip-rule:nonzero;display:inline;overflow:visible;visibility:visible;opacity:1;isolation:auto;mix-blend-mode:normal;color-interpolation:sRGB;color-interpolation-filters:linearRGB;solid-color:#000000;solid-opacity:1;vector-effect:none;fill:#ffcc00;fill-opacity:1;fill-rule:nonzero;stroke:#006699;stroke-width:0.97745234;stroke-linecap:round;stroke-linejoin:round;stroke-miterlimit:4;stroke-dasharray:none;stroke-dashoffset:0;stroke-opacity:1;paint-order:stroke fill markers;color-rendering:auto;image-rendering:auto;shape-rendering:auto;text-rendering:auto;enable-background:accumulate" />
      </g>
      <g
         clip-path="url(#clipPath4711)"
         style="opacity:1"
         transform="matrix(0.31614534,0.9729953,-0.9729953,0.31614534,114.32748,-29.669483)"
         id="use4715">
        <path
           style="color:#000000;font-style:normal;font-variant:normal;font-weight:normal;font-stretch:normal;font-size:medium;line-height:normal;font-family:sans-serif;font-variant-ligatures:normal;font-variant-position:normal;font-variant-caps:normal;font-variant-numeric:normal;font-variant-alternates:normal;font-feature-settings:normal;text-indent:0;text-align:start;text-decoration:none;text-decoration-line:none;text-decoration-style:solid;text-decoration-color:#000000;letter-spacing:normal;word-spacing:normal;text-transform:none;writing-mode:lr-tb;direction:ltr;text-orientation:mixed;dominant-baseline:auto;baseline-shift:baseline;text-anchor:start;white-space:normal;shape-padding:0;clip-rule:nonzero;display:inline;overflow:visible;visibility:visible;opacity:1;isolation:auto;mix-blend-mode:normal;color-interpolation:sRGB;color-interpolation-filters:linearRGB;solid-color:#000000;solid-opacity:1;vector-effect:none;fill:#ffcc00;fill-opacity:1;fill-rule:nonzero;stroke:#006699;stroke-width:0.97745234;stroke-linecap:round;stroke-linejoin:round;stroke-miterlimit:4;stroke-dasharray:none;stroke-dashoffset:0;stroke-opacity:1;paint-order:stroke fill markers;color-rendering:auto;image-rendering:auto;shape-rendering:auto;text-rendering:auto;enable-background:accumulate"
           d="m 51.263672,10.007812 c -5.632155,0 -10.255859,4.623705 -10.25586,10.25586 v 4.332031 c 0,5.632155 4.623705,10.255859 10.25586,10.255859 H 102.9375 c 5.63215,0 10.25586,-4.623704 10.25586,-10.255859 v -4.332031 c 0,-5.632155 -4.62371,-10.25586 -10.25586,-10.25586 z m 0,5.710938 H 102.9375 c 2.56705,0 4.54297,1.977877 4.54297,4.544922 v 4.332031 c 0,2.567045 -1.97592,4.544922 -4.54297,4.544922 H 51.263672 c -2.567045,0 -4.544922,-1.977877 -4.544922,-4.544922 v -4.332031 c 0,-2.567045 1.977877,-4.544922 4.544922,-4.544922 z"
           id="path4733"
           inkscape:connector-curvature="0" />
      </g>
      <g
         clip-path="url(#clipPath4711)"
         style="opacity:1"
         transform="matrix(-0.82767924,0.60134416,-0.60134416,-0.82767924,178.13469,74.02614)"
         id="use4717">
        <path
           style="color:#000000;font-style:normal;font-variant:normal;font-weight:normal;font-stretch:normal;font-size:medium;line-height:normal;font-family:sans-serif;font-variant-ligatures:normal;font-variant-position:normal;font-variant-caps:normal;font-variant-numeric:normal;font-variant-alternates:normal;font-feature-settings:normal;text-indent:0;text-align:start;text-decoration:none;text-decoration-line:none;text-decoration-style:solid;text-decoration-color:#000000;letter-spacing:normal;word-spacing:normal;text-transform:none;writing-mode:lr-tb;direction:ltr;text-orientation:mixed;dominant-baseline:auto;baseline-shift:baseline;text-anchor:start;white-space:normal;shape-padding:0;clip-rule:nonzero;display:inline;overflow:visible;visibility:visible;opacity:1;isolation:auto;mix-blend-mode:normal;color-interpolation:sRGB;color-interpolation-filters:linearRGB;solid-color:#000000;solid-opacity:1;vector-effect:none;fill:#ffcc00;fill-opacity:1;fill-rule:nonzero;stroke:#006699;stroke-width:0.97745234;stroke-linecap:round;stroke-linejoin:round;stroke-miterlimit:4;stroke-dasharray:none;stroke-dashoffset:0;stroke-opacity:1;paint-order:stroke fill markers;color-rendering:auto;image-rendering:auto;shape-rendering:auto;text-rendering:auto;enable-background:accumulate"
           d="m 51.263672,10.007812 c -5.632155,0 -10.255859,4.623705 -10.25586,10.25586 v 4.332031 c 0,5.632155 4.623705,10.255859 10.25586,10.255859 H 102.9375 c 5.63215,0 10.25586,-4.623704 10.25586,-10.255859 v -4.332031 c 0,-5.632155 -4.62371,-10.25586 -10.25586,-10.25586 z m 0,5.710938 H 102.9375 c 2.56705,0 4.54297,1.977877 4.54297,4.544922 v 4.332031 c 0,2.567045 -1.97592,4.544922 -4.54297,4.544922 H 51.263672 c -2.567045,0 -4.544922,-1.977877 -4.544922,-4.544922 v -4.332031 c 0,-2.567045 1.977877,-4.544922 4.544922,-4.544922 z"
           id="path4721"
           inkscape:connector-curvature="0" />
      </g>
      <g
         clip-path="url(#clipPath4711)"
         style="opacity:1"
         transform="matrix(-0.82767924,-0.60134416,0.60134416,-0.82767924,99.231808,166.75412)"
         id="use4719">
        <path
           style="color:#000000;font-style:normal;font-variant:normal;font-weight:normal;font-stretch:normal;font-size:medium;line-height:normal;font-family:sans-serif;font-variant-ligatures:normal;font-variant-position:normal;font-variant-caps:normal;font-variant-numeric:normal;font-variant-alternates:normal;font-feature-settings:normal;text-indent:0;text-align:start;text-decoration:none;text-decoration-line:none;text-decoration-style:solid;text-decoration-color:#000000;letter-spacing:normal;word-spacing:normal;text-transform:none;writing-mode:lr-tb;direction:ltr;text-orientation:mixed;dominant-baseline:auto;baseline-shift:baseline;text-anchor:start;white-space:normal;shape-padding:0;clip-rule:nonzero;display:inline;overflow:visible;visibility:visible;opacity:1;isolation:auto;mix-blend-mode:normal;color-interpolation:sRGB;color-interpolation-filters:linearRGB;solid-color:#000000;solid-opacity:1;vector-effect:none;fill:#ffcc00;fill-opacity:1;fill-rule:nonzero;stroke:#006699;stroke-width:0.97745234;stroke-linecap:round;stroke-linejoin:round;stroke-miterlimit:4;stroke-dasharray:none;stroke-dashoffset:0;stroke-opacity:1;paint-order:stroke fill markers;color-rendering:auto;image-rendering:auto;shape-rendering:auto;text-rendering:auto;enable-background:accumulate"
           d="m 51.263672,10.007812 c -5.632155,0 -10.255859,4.623705 -10.25586,10.25586 v 4.332031 c 0,5.632155 4.623705,10.255859 10.25586,10.255859 H 102.9375 c 5.63215,0 10.25586,-4.623704 10.25586,-10.255859 v -4.332031 c 0,-5.632155 -4.62371,-10.25586 -10.25586,-10.25586 z m 0,5.710938 H 102.9375 c 2.56705,0 4.54297,1.977877 4.54297,4.544922 v 4.332031 c 0,2.567045 -1.97592,4.544922 -4.54297,4.544922 H 51.263672 c -2.567045,0 -4.544922,-1.977877 -4.544922,-4.544922 v -4.332031 c 0,-2.567045 1.977877,-4.544922 4.544922,-4.544922 z"
           id="path4727"
           inkscape:connector-curvature="0" />
      </g>
    </g>
  </g>
</svg>
