<svg width="999.99992" height="499.99999" xmlns="http://www.w3.org/2000/svg">
 <metadata id="metadata2816">image/svg+xml</metadata>

 <g>
  <title>background</title>
  <rect fill="none" id="canvas_background" height="402" width="582" y="-1" x="-1"/>
 </g>
 <g>
  <title>Layer 1</title>
  <path fill="#00247d" id="rect2786" d="m-0.00003,0l1000,0l0,500l-1000,0l0,-500z"/>
  <polygon fill="#ffffff" id="polygon2788" points="-0.00004999999873689376,27.94898940490748 110.7649493896497,83.33199073242213 -0.00004999999873689376,83.33199073242213 -0.00004999999873689376,166.6659903662112 110.7649493896497,166.6659903662112 -0.00004999999873689376,222.04898597167994 -0.00004999999873689376,249.99999000000025 55.90195042724736,249.99999000000025 208.3329425537122,173.78299476074244 208.3329425537122,249.99999000000025 291.66694218750126,249.99999000000025 291.66694218750126,173.78299476074244 444.09794194336064,249.99999000000025 499.99894291992314,249.99999000000025 499.99894291992314,222.04898597167994 389.23395878906376,166.6659903662112 499.99894291992314,166.6659903662112 499.99894291992314,83.33199073242213 389.23395878906376,83.33199073242213 499.99894291992314,27.94898940490748 499.99894291992314,-0.000009999999747378752 444.09794194336064,-0.000009999999747378752 291.66694218750126,76.21498633789088 291.66694218750126,-0.000009999999747378752 208.3329425537122,-0.000009999999747378752 208.3329425537122,76.21498633789088 55.90195042724736,-0.000009999999747378752 -0.00004999999873689376,-0.000009999999747378752 "/>
  <polygon fill="#cf142b" id="polygon2790" points="499.99894291992314,-0.000009999999747378752 462.7309375488294,-0.000009999999747378752 296.0649524414075,83.33199073242213 333.33295781250126,83.33199073242213 "/>
  <polygon fill="#cf142b" id="polygon2792" points="166.66695744629033,83.33199073242213 -0.00004999999873689376,-0.000009999999747378752 -0.00004999999873689376,18.63298942016627 129.39895207519658,83.33199073242213 "/>
  <polygon fill="#cf142b" id="polygon2794" points="-0.00004999999873689376,249.99999000000025 37.26795155639775,249.99999000000025 203.93395573730595,166.6659903662112 166.66695744629033,166.6659903662112 "/>
  <polygon fill="#cf142b" id="polygon2796" points="333.33295781250126,166.6659903662112 499.99894291992314,249.99999000000025 499.99894291992314,231.36499549316432 370.600963183595,166.6659903662112 "/>
  <path fill="#cf142b" d="m224.99995,-0.00001l50,0l0,100l225,0l0,50l-225,0l0,100l-50,0l0,-100l-225,0l0,-50l225,0l0,-100z" id="path2938_1_"/>
  <g id="g4849">
   <path fill="#00247d" fill-rule="evenodd" id="path3104" d="m874.99991,250c0,69.03559 -55.96441,124.99999 -124.99999,124.99999c-69.03558,0 -124.99998,-55.9644 -124.99998,-124.99999c0,-69.03558 55.9644,-124.99999 124.99998,-124.99999c69.03558,0 124.99999,55.96441 124.99999,124.99999l0,0z"/>
   <g display="inline" transform="matrix(0.5874356,0,0,0.5874356,662.6642,140.72379) " id="g4374">
    <g stroke-width="0.7" stroke-miterlimit="4" id="g7156">
     <g stroke-width="0.7" stroke-miterlimit="4" id="g7150">
      <path clip-rule="nonzero" fill="#d5e5ff" fill-rule="nonzero" stroke="#000000" stroke-width="0.7" stroke-miterlimit="4" stroke-dashoffset="0" id="path7084" d="m148.67188,8.94336c35.9515,-0.00015 71.4285,18.84116 96.98828,51.64843c25.61565,32.87898 40.44905,78.80553 40.44922,125.42969c0.00022,46.6243 -14.83142,92.55204 -40.44727,125.43164c-25.56,32.80791 -61.03861,51.64859 -96.99023,51.64844c-35.95117,-0.0005 -71.42873,-18.84062 -96.98829,-51.64844c-25.61545,-32.87954 -40.4475,-78.80767 -40.44726,-125.43164c0.00016,-46.62355 14.83186,-92.55056 40.44726,-125.42969c25.55952,-32.80739 61.03725,-51.64793 96.98829,-51.64844l0,0.00001z"/>
      <path fill="#e5eeff" fill-rule="evenodd" stroke-width="0.7" stroke-miterlimit="4" id="path7143" d="m272.5068,259.91014l-2.18453,-7.30272c1.9259,-6.22321 1.96288,-12.70323 0.69335,-17.33789c-1.67705,-6.12244 -3.75056,-10.20757 -4.88281,-13.0293c0.13633,-4.62098 0.47803,-10.47839 -1.73633,-17.79296c-1.53585,-5.07331 -5.04201,-10.10685 -9.76171,-14.37891c0.94077,-5.02024 0.89889,-9.87658 -0.16797,-13.91992c-1.28814,-4.88196 -2.93989,-8.11344 -4.38672,-10.76172c0.66963,-3.66245 0.92226,-8.13034 -0.92774,-13.35938c-1.82738,-5.16513 -5.69345,-9.25914 -10.48242,-12.48046c-0.39186,-3.43754 -1.31249,-6.88237 -3.01172,-10.13282c-1.05303,-2.01435 -2.41036,-3.81336 -3.89843,-5.50195c1.09872,-2.81648 2.0392,-5.89188 2.49414,-9.60352c1.06065,-8.65341 -2.86232,-19.46546 -11.42774,-27.34961c0.57322,-6.15122 -0.46004,-12.51013 -4.12695,-18.75976c-3.07987,-5.24912 -8.58018,-10.02954 -15.30469,-12.08594c-4.11402,-1.25809 -8.46716,-1.47454 -12.92773,-1.00781c-6.25816,-4.68053 -13.90371,-6.75171 -20.32618,-6.03516c-2.60919,0.29111 -5.01564,0.86462 -7.30273,1.62696c-4.81325,-3.20834 -10.50327,-5.06065 -16.50586,-5c-7.58803,0.07666 -15.04512,3.51451 -21.00195,9.25976c-3.51839,-0.84491 -7.33422,-1.33747 -11.69336,-0.57422c-5.63069,0.98589 -11.95953,4.39279 -16.03516,9.95703c-1.18198,1.61371 -2.12227,3.36703 -2.9414,5.18946c-4.02845,0.86633 -7.79007,2.66693 -11.21485,5.29687c-7.3583,5.65056 -12.21409,15.85735 -12.07812,27.55664c-1.92195,2.26436 -3.80716,4.93982 -5.21485,8.5293c-1.90574,4.85949 -2.02926,11.38198 -0.13671,17.79883c-0.91309,0.9509 -1.83154,1.8652 -2.72266,3.08398c-3.55094,4.85663 -5.01812,11.54624 -4.63672,18.625c-2.75485,3.02808 -5.13485,6.62423 -6.46875,11.13672c-1.24912,4.22568 -1.21518,8.733 -0.30859,13.14453c-2.92201,3.06026 -5.61798,6.57596 -7.69336,10.85742c-2.91249,6.0084 -4.08672,13.32705 -3.2168,20.84961c-2.44223,3.94193 -4.25101,8.60647 -3.92969,14.28711c0.15593,2.75655 0.96772,5.28143 2.04102,7.68555c-4.60732,5.16108 -7.76472,10.6809 -9.11719,15.95898c-2.31401,9.03054 -1.49404,15.46423 -2.0625,18.8418c-1.41282,8.4038 5.00624,16.08609 13.52734,16.18945l221.23829,2.6543l9.84078,-22.11525z"/>
      <path fill="#eff5ff" fill-rule="evenodd" stroke-width="0.7" stroke-miterlimit="4" id="path7139" d="m41.59292,265.48672c1.98591,-11.79941 -2.73075,-23.59882 16.81416,-35.39823c-10.12054,-6.78466 -9.00187,-13.56932 -2.65487,-20.35398c-4.29744,-14.5381 2.64964,-23.45395 12.38938,-30.97346c-6.18991,-10.32289 -2.61041,-17.38931 5.30974,-23.00885c-4.52546,-15.7349 3.79183,-18.62705 10.61947,-23.00885c-13.19504,-12.4232 -0.70047,-24.01471 1.76991,-24.77876c-4.93176,-22.19047 14.61067,-29.13988 19.46903,-23.00885c0.84402,-23.0242 19.60248,-17.74119 24.43613,-12.84556c8.56595,-17.48408 25.60226,-14.88892 31.31608,-3.08364c3.1926,-5.7092 16.84347,-11.05946 24.8375,1.05724c22.35448,-6.78066 26.11166,12.88386 21.1802,22.83656c23.21454,10.88616 10.43234,30.13866 6.19469,34.51328c10.03353,4.28235 13.06873,11.36403 11.31241,20.36233c14.18748,4.97494 12.80485,12.17419 10.81149,19.46068c3.78685,8.51476 10.37079,15.20271 2.65487,28.31858c15.9466,6.52685 14.13779,18.12666 14.15929,29.20354c2.92554,9.43953 10.61435,18.87906 2.65487,28.31859l7.9646,15.04425l-221.23895,-2.65487z"/>
      <path fill="#fbfcff" fill-rule="evenodd" stroke-width="0.7" stroke-miterlimit="4" d="m146.57617,77.553807c-1.93983,0.0196 -4.67009,0.6573 -7.69336,6.82813a10.17556,10.17556 0 0 1 -16.37695,2.67187c0.46038,0.46629 -0.58355,-0.41201 -1.74024,-0.80078c-1.15668,-0.38877 -2.42651,-0.4697 -2.97851,-0.37305c-0.55201,0.09665 -0.37606,-0.0679 -0.77344,0.47461c-0.39737,0.54252 -1.37521,2.40648 -1.53515,6.76954a10.17556,10.17556 0 0 1 -15.9961,7.95117c-0.389,0.1117 -0.76746,0.15787 -1.38086,0.6289c-1.7681,1.35776 -4.1296,3.75266 -2.33008,11.84961a10.17556,10.17556 0 0 1 -5.29882,11.25781c-0.09638,0.0815 -0.20661,0.16729 -0.41407,0.38672c-0.56165,0.59408 -1.21151,1.54438 -1.50586,2.29493c-0.58868,1.50109 -1.78842,1.60845 2.49219,5.63867a10.17556,10.17556 0 0 1 -1.47851,15.9707c-4.13822,2.6558 -6.46237,4.15982 -6.84961,4.68945c-0.38725,0.52964 -1.24763,0.82618 0.51172,6.94336a10.17556,10.17556 0 0 1 -3.89063,11.11133c-2.90847,2.06364 -3.87612,3.64942 -4.07617,4.32617c-0.20005,0.67676 -0.5179,1.61121 1.60547,5.15235a10.17556,10.17556 0 0 1 -2.50977,13.28515c-4.25644,3.28616 -7.15011,6.41516 -8.51953,9.24024c-1.36942,2.82508 -1.89413,5.49717 -0.32812,10.79492a10.17556,10.17556 0 0 1 -2.32813,9.83594c-1.76375,1.88537 -1.96142,2.59765 -2.01953,2.58007c0.24593,0.31416 0.93279,1.04551 2.91016,2.3711a10.17556,10.17556 0 0 1 -0.40821,17.16211c-8.17768,4.93693 -9.4686,7.9078 -10.39258,11.51367c-0.34472,1.34531 -0.40647,3.2403 -0.50781,5.13281l193.06641,2.31641a10.17556,10.17556 0 0 1 1.25781,-11.22266c1.86163,-2.20779 1.53297,-1.94675 0.7207,-4.91211c-0.81226,-2.96536 -3.3895,-7.6249 -5.31445,-13.83593a10.17556,10.17556 0 0 1 -0.45508,-2.99219c-0.0118,-6.09889 0.1087,-10.80047 -0.67187,-13.37891c-0.78058,-2.57844 -1.27495,-4.01575 -7.16797,-6.42773a10.17556,10.17556 0 0 1 -4.91602,-14.57422c2.83338,-4.81631 2.48501,-5.98184 1.91797,-8.13086c-0.56703,-2.14902 -2.7186,-5.54278 -5.09961,-10.89649a10.17556,10.17556 0 0 1 -0.51758,-6.82031c0.92956,-3.39788 0.78143,-4.80967 0.88477,-4.51758c0.10334,0.2921 0.30056,-0.70795 -5.25,-2.65429a10.17556,10.17556 0 0 1 -6.61914,-11.55078c0.57089,-2.92491 0.24599,-4.30843 -0.26563,-5.28711c-0.51162,-0.97868 -1.55983,-2.27792 -5.05468,-3.76953a10.17556,10.17556 0 0 1 -3.31446,-16.4375c0.48627,-0.50199 4.01161,-5.73698 4.40821,-8.97266c0.39659,-3.23568 1.25641,-5.08872 -7.61328,-9.24805a10.17556,10.17556 0 0 1 -4.79688,-13.73047c0.8259,-1.66684 0.87208,-6.5144 -0.0156,-8.02734c-0.44386,-0.75647 -0.59127,-0.94913 -1.58789,-1.25391c-0.99663,-0.30477 -3.30016,-0.57647 -7.50586,0.69922a10.17556,10.17556 0 0 1 -11.44534,-4.13281c-2.15178,-3.2615 -2.96487,-2.88747 -4.59961,-2.70508c-1.63473,0.18239 -3.62319,2.36715 -2.86523,1.01172a10.17556,10.17556 0 0 1 -18.03906,-0.5332c-1.25651,-2.59606 -3.3901,-3.72271 -5.32813,-3.70313z" id="path7148"/>
     </g>
     <g stroke-width="0.7" stroke-miterlimit="4" id="g7038">
      <g stroke-width="0.7" stroke-miterlimit="4" id="g6900">
       <g stroke-width="0.7" stroke-miterlimit="4" id="g6850">
        <path fill="#bb1426" fill-rule="evenodd" stroke-width="0.7" stroke-miterlimit="4" id="path6818" d="m89.80735,179.3582l-6.56864,21.85958c0,0 -2.7339,2.19288 -4.19963,2.47671c-2.68954,0.52082 -4.64754,-1.02229 -7.32242,-0.43073c-2.71702,0.60088 -8.18388,4.19962 -8.18388,4.19962c0,0 1.16098,-7.32768 0.10768,-10.76827c-0.30688,-1.00241 -1.29219,-3.33816 -1.29219,-3.33816c0,0 1.98099,-2.82026 4.3073,-3.98426c2.15287,-1.07721 5.19667,-1.47071 7.43011,-2.36902c2.52499,-1.01557 4.03072,-3.53986 6.56864,-4.52267c1.77434,-0.68711 3.93242,0.57833 5.70718,-0.10768c1.4236,-0.55027 3.44585,-3.01512 3.44585,-3.01512z"/>
        <path fill="#252d5b" fill-rule="evenodd" stroke-width="0.7" stroke-miterlimit="4" d="m78.78767,183.55139c0.57404,-0.42892 1.18288,-0.8056 1.86665,-1.07039c1.77434,-0.68711 3.93242,0.57833 5.70718,-0.10768c1.4236,-0.55027 3.44585,-3.01512 3.44585,-3.01512l-3.81277,12.6884l-8.17721,0.92857l0.9703,-9.42378z" id="path6820"/>
        <path fill="#ffffff" fill-rule="evenodd" stroke-width="0.7" stroke-miterlimit="4" id="path6822" d="m78.44976,187.11723l3.56136,-0.29955l-3.32837,-2.99554l0.76553,-0.76553l3.86091,3.2951l0.59911,-3.96077l1.46448,0.0999l-0.66567,3.82763l4.52658,-5.29212l-0.5991,2.03031l-3.02882,3.42823l2.56284,-0.33284l-0.69895,1.69747l-2.29658,0.23299l1.26478,2.89568l-0.26627,1.06508l-0.96523,0.0666l-1.06508,-3.52807l-0.63239,3.69449l-1.46448,0.16642l0.89866,-3.96076l-3.8942,4.39345l-1.19821,0.0666l0.09985,-0.96523l4.0939,-3.82763l-3.82763,0.4327l0.23298,-1.46461z"/>
        <path fill="#bb1426" fill-rule="evenodd" stroke-width="0.7" stroke-miterlimit="4" id="path6824" d="m88.85352,181.70508l-3.875,4.55469l0.4082,0l3.33203,-4.00977l0.13477,-0.54492zm-4.60172,0.65234l-0.69922,4.66016l-5.13656,0.46484l-0.13282,0.76563l5.23618,-0.53125l-1,4.66015l0.6564,-0.0684l0.93164,-4.625l3.4961,-0.26757l0.29882,-0.73243l-3.56032,0.37899l0.69922,-4.66016l-0.78944,-0.04496zm-5.05063,1.04688l-0.27344,0.33984l3.40039,2.92383l0.61133,-0.0684l-3.73828,-3.19527zm5.30274,4.6914l1.49414,3.4668l0.13672,-0.67969l-1.22266,-2.65039l-0.4082,-0.13672zm-1.4961,0.20508l-0.61133,0.13477l-4.08007,4.08007l0.61132,0l4.08008,-4.21484z"/>
        <path fill="none" fill-rule="evenodd" stroke="#000000" stroke-width="0.7" stroke-miterlimit="4" id="path6818-5" d="m89.80735,179.3582l-6.56864,21.85958c0,0 -2.7339,2.19288 -4.19963,2.47671c-2.68954,0.52082 -4.64754,-1.02229 -7.32242,-0.43073c-2.71702,0.60088 -8.18388,4.19962 -8.18388,4.19962c0,0 1.16098,-7.32768 0.10768,-10.76827c-0.30688,-1.00241 -1.29219,-3.33816 -1.29219,-3.33816c0,0 1.98099,-2.82026 4.3073,-3.98426c2.15287,-1.07721 5.19667,-1.47071 7.43011,-2.36902c2.52499,-1.01557 4.03072,-3.53986 6.56864,-4.52267c1.77434,-0.68711 3.93242,0.57833 5.70718,-0.10768c1.4236,-0.55027 3.44585,-3.01512 3.44585,-3.01512z"/>
       </g>
       <path fill="#bb1426" fill-rule="evenodd" stroke="#000000" stroke-width="0.7" stroke-miterlimit="4" d="m146.20524,103.02408l-0.2227,-6.23572c0,0 1.77911,-0.72978 2.67245,-0.55676c1.31387,0.25446 2.0522,1.52265 3.34056,1.88478c0.89403,0.2513 1.88737,-0.01167 2.7838,0.23091c1.53061,0.41419 2.42439,1.81087 4.00868,1.87658c1.50961,0.0626 2.49779,-0.39591 4.00867,-0.40439c1.54381,-0.0087 2.92212,1.00335 2.92212,1.00335c0,0 -1.33485,0.0336 -2.58806,0.33287c-2.02974,0.48481 -2.55779,2.26957 -4.64279,2.35715c-1.60453,0.0674 -2.6603,-0.99404 -4.26538,-1.0467c-1.41263,-0.0464 -1.92349,0.68839 -3.33236,0.5755c-0.76275,-0.0611 -1.79566,-0.90186 -2.55172,-1.01974c-0.90579,-0.14122 -2.13327,1.00217 -2.13327,1.00217z" id="path6805"/>
       <path fill="none" fill-rule="evenodd" stroke="#000000" stroke-width="0.7" stroke-miterlimit="4" d="m83.87501,249.72394l21.58548,-45.22673l-13.15686,46.25461l27.13603,0.41115l-13.97917,-46.66576l19.7353,46.66576l20.5576,-55.29995l-12.54013,56.32783l31.24755,-2.46691l-18.29627,-53.65534l26.93046,52.62746l8.01747,-51.59958l17.26838,47.69363l6.16728,-0.8223l-22.20221,-46.66576" id="path6803"/>
       <path fill="none" fill-rule="evenodd" stroke="#000000" stroke-width="0.7" stroke-miterlimit="4" d="m95.45567,135.51543l9.99355,-4.13526l9.64895,4.13526" id="path6764"/>
       <path clip-rule="nonzero" fill="#000000" fill-rule="evenodd" stroke-width="0.7" stroke-miterlimit="4" stroke-dashoffset="0" d="m253.78711,224.78906l-45.60156,17.61719l1.63086,0.35352l16.24023,3.51953l0.0977,5.43945l1,-0.0176l-0.0937,-5.20508l0.14453,0.0312l27.0664,-20.87695l-0.48437,-0.86133l-0.00009,0.00007zm-2.84961,2.17188l-23.89648,18.42773l-0.16407,-9.13086l24.06055,-9.29687zm-25.05078,9.67968l0.15234,8.61133l-14.3789,-3.11523l14.22656,-5.4961z" id="path6755"/>
       <path fill="#fcfaf2" fill-rule="evenodd" stroke="#000000" stroke-width="0.7" stroke-miterlimit="4" d="m95.96288,239.65071l-35.27684,0.74007c7.5274,-3.3459 21.36123,-26.58843 22.69559,-34.78345l11.3478,-0.2467l1.23345,34.29008z" id="path6753"/>
       <path clip-rule="nonzero" fill="#000000" fill-rule="evenodd" stroke-width="0.7" stroke-miterlimit="4" stroke-dashoffset="0" d="m104.83203,120.25977l0,133.17382l2,0l-0.39969,-118.39705l-0.0666,-14.77677l-1.53371,0z" id="path6741"/>
       <path clip-rule="nonzero" fill="#000000" fill-rule="evenodd" stroke-width="0.7" stroke-miterlimit="4" stroke-dashoffset="0" d="m146.56709,96.44727l-1.55928,0.0098l0.74414,155.12108l2,-0.01l-1.11119,-138.88357l-0.0737,-16.23753l0.00003,0.00022z" id="path6743"/>
       <path clip-rule="nonzero" fill="#000000" fill-rule="evenodd" stroke-width="0.7" stroke-miterlimit="4" stroke-dashoffset="0" d="m181.61121,105.375l-1.4491,0.01l0.74414,143.96289l2,-0.01l-1.24299,-132.24103l-0.05205,-11.72186z" id="path6745"/>
       <g fill="#fcfaf2" stroke-width="0.7" stroke-miterlimit="4" id="g6705">
        <path fill="#fcfaf2" fill-rule="evenodd" stroke="#000000" stroke-width="0.7" stroke-miterlimit="4" id="path6658" d="m91.89129,152.97002c3.26441,-3.45653 5.44986,-8.12148 3.59779,-17.30846l19.72645,0c4.59585,6.56899 2.95005,17.58052 2.26773,17.30846c-8.39198,-5.54701 -17.00041,-2.43598 -25.59197,0z"/>
        <path fill="#fcfaf2" fill-rule="evenodd" stroke="#000000" stroke-width="0.7" stroke-miterlimit="4" id="path6658-4" d="m87.05966,176.94725c0.96107,-3.60371 8.95351,-9.85263 4.83163,-23.97723l25.59197,0c4.1263,7.40608 4.39157,22.44973 3.24232,23.97723c-12.19196,-7.27491 -22.88055,-3.27454 -33.66592,0z"/>
        <path fill="#fcfaf2" fill-rule="evenodd" stroke="#000000" stroke-width="0.7" stroke-miterlimit="4" id="path6658-4-9" d="m81.51679,204.68889c2.21723,-1.91297 9.92677,-6.70414 5.54286,-27.74164l33.66593,0c4.98271,12.2585 4.52521,26.57749 3.78272,27.74164c-14.3305,-7.2269 -28.66101,-5.02524 -42.99151,0z"/>
        <path fill="#fcfaf2" fill-rule="evenodd" stroke="#000000" stroke-width="0.7" stroke-miterlimit="4" id="path6658-4-9-1" d="m124.5083,204.68889c6.77558,13.10135 7.3638,33.12107 5.19152,38.93433c-22.5582,-9.23395 -37.53206,-1.20652 -57.0101,4.29165c3.48937,-1.17203 15.93288,-29.22108 8.82707,-43.22598l42.99151,0z"/>
       </g>
       <g fill="#fcfaf2" stroke-width="0.582453" stroke-miterlimit="4" id="g6711" transform="matrix(1.1978738,0,0,1.2057657,20.851525,-50.223916) ">
        <path fill="#fcfaf2" fill-rule="evenodd" stroke="#000000" stroke-width="0.582453" stroke-miterlimit="4" d="m91.89129,152.97002c3.26441,-3.45653 5.44986,-8.12148 3.59779,-17.30846l19.72645,0c4.59585,6.56899 2.95005,17.58052 2.26773,17.30846c-8.39198,-5.54701 -17.00041,-2.43598 -25.59197,0z" id="path6713"/>
        <path fill="#fcfaf2" fill-rule="evenodd" stroke="#000000" stroke-width="0.582453" stroke-miterlimit="4" d="m87.05966,176.94725c0.96107,-3.60371 8.95351,-9.85263 4.83163,-23.97723l25.59197,0c4.1263,7.40608 4.39157,22.44973 3.24232,23.97723c-12.19196,-7.27491 -22.88055,-3.27454 -33.66592,0z" id="path6715"/>
        <path fill="#fcfaf2" fill-rule="evenodd" stroke="#000000" stroke-width="0.582453" stroke-miterlimit="4" d="m81.51679,204.68889c2.21723,-1.91297 9.92677,-6.70414 5.54286,-27.74164l33.66593,0c4.98271,12.2585 4.52521,26.57749 3.78272,27.74164c-14.3305,-7.2269 -28.66101,-5.02524 -42.99151,0z" id="path6717"/>
        <path fill="#fcfaf2" fill-rule="evenodd" stroke="#000000" stroke-width="0.582453" stroke-miterlimit="4" d="m124.5083,204.68889c6.77558,13.10135 7.3638,33.12107 5.19152,38.93433c-22.5582,-9.23395 -37.53206,-1.20652 -57.0101,4.29165c3.48937,-1.17203 15.93288,-29.22108 8.82707,-43.22598l42.99151,0z" id="path6719"/>
       </g>
       <g fill="#fcfaf2" stroke-width="0.610012" stroke-miterlimit="4" transform="matrix(1.1475185,0,0,1.1475185,60.16725,-38.166319) " id="g6721">
        <path fill="#fcfaf2" fill-rule="evenodd" stroke="#000000" stroke-width="0.610012" stroke-miterlimit="4" id="path6723" d="m91.89129,152.97002c3.26441,-3.45653 5.44986,-8.12148 3.59779,-17.30846l19.72645,0c4.59585,6.56899 2.95005,17.58052 2.26773,17.30846c-8.39198,-5.54701 -17.00041,-2.43598 -25.59197,0z"/>
        <path fill="#fcfaf2" fill-rule="evenodd" stroke="#000000" stroke-width="0.610012" stroke-miterlimit="4" id="path6725" d="m87.05966,176.94725c0.96107,-3.60371 8.95351,-9.85263 4.83163,-23.97723l25.59197,0c4.1263,7.40608 4.39157,22.44973 3.24232,23.97723c-12.19196,-7.27491 -22.88055,-3.27454 -33.66592,0z"/>
        <path fill="#fcfaf2" fill-rule="evenodd" stroke="#000000" stroke-width="0.610012" stroke-miterlimit="4" id="path6727" d="m81.51679,204.68889c2.21723,-1.91297 9.92677,-6.70414 5.54286,-27.74164l33.66593,0c4.98271,12.2585 4.52521,26.57749 3.78272,27.74164c-14.3305,-7.2269 -28.66101,-5.02524 -42.99151,0z"/>
        <path fill="#fcfaf2" fill-rule="evenodd" stroke="#000000" stroke-width="0.610012" stroke-miterlimit="4" id="path6729" d="m124.5083,204.68889c6.77558,13.10135 7.3638,33.12107 5.19152,38.93433c-22.5582,-9.23395 -37.53206,-1.20652 -57.0101,4.29165c3.48937,-1.17203 15.93288,-29.22108 8.82707,-43.22598l42.99151,0z"/>
       </g>
       <path fill="#fcfaf2" fill-rule="evenodd" stroke="#000000" stroke-width="0.7" stroke-linejoin="round" stroke-miterlimit="4" id="path6737" d="m198.58642,236.4026c1.25224,-19.98061 -1.48047,-46.84697 -12.29344,-62.41288c12.82729,12.2501 36.54075,37.1158 56.0178,59.14385c-12.39852,-1.09514 -31.32584,-2.05591 -43.72436,3.26903z"/>
       <path fill="#fcfaf2" fill-rule="evenodd" stroke="#000000" stroke-width="0.7" stroke-linejoin="round" stroke-miterlimit="4" d="m216.55377,226.94611c-5.68253,-28.80668 -17.55652,-59.45563 -28.36949,-75.02154c18.76519,18.188 46.09122,51.10542 65.56504,73.13024c-12.39852,-1.09514 -24.79703,-3.43364 -37.19555,1.8913z" id="path6735"/>
       <path fill="#483e37" fill-rule="evenodd" stroke-width="0.7" stroke-miterlimit="4" d="m80.91192,266.65815c-0.08591,-4.60004 -1.94147,-8.34823 -10.37332,-13.5444c-1.61704,-4.34056 -0.8831,-3.97917 -0.82987,-4.9792c44.48969,3.92175 95.50523,2.00877 145.64145,-7.88372l-0.82986,2.90453c-1.64102,5.74362 -11.63902,9.18901 -10.91742,23.50279l-122.69098,0z" id="path6739"/>
       <path fill="none" fill-rule="evenodd" stroke="#000000" stroke-width="0.7" stroke-miterlimit="4" id="path6766" d="m135.60219,113.28839l10.16585,-4.13526l12.7504,4.13526"/>
       <path fill="none" fill-rule="evenodd" stroke="#000000" stroke-width="0.7" stroke-miterlimit="4" d="m169.71811,117.42365l11.54427,-4.30756l10.85507,4.30756" id="path6768"/>
       <path fill="#6c5353" fill-rule="evenodd" stroke-width="0.7" stroke-miterlimit="4" id="path7036" d="m214.82422,242.08789c-2.04673,0.56042 -4.2889,1.11528 -6.76563,1.65625c-11.05346,2.41435 -26.11035,4.58529 -42.87695,6.14258c-30.78266,2.85911 -67.33252,3.63159 -95.59961,0.15039c0.08967,0.47162 0.28241,1.14558 0.60742,2.08789c28.39491,3.39806 64.5866,2.59505 95.17578,-0.24609c16.82715,-1.56292 31.94222,-3.7399 43.1211,-6.18164c1.99476,-0.43571 3.81463,-0.88308 5.54687,-1.33399c0.19757,-0.39447 0.36823,-0.79366 0.48633,-1.20703l0.30469,-1.06836z"/>
       <path fill="#312a25" fill-rule="evenodd" stroke-width="0.7" stroke-miterlimit="4" id="path7016" d="m211.33789,248.00781c-1.11548,0.27116 -2.26459,0.54064 -3.48242,0.80664c-10.9939,2.40134 -26.02388,4.57234 -42.76172,6.12696c-29.09663,2.70251 -63.39527,3.5353 -90.85352,0.67578c2.04208,1.53357 3.49675,2.96082 4.50782,4.35156c26.95047,2.33859 59.09956,1.41948 86.70507,-1.14453c16.18239,-1.50303 30.74472,-3.57518 41.83008,-5.91016c1.31834,-1.9083 2.76581,-3.45472 4.05469,-4.90625z"/>
      </g>
      <path fill="none" fill-rule="evenodd" stroke="#000000" stroke-width="0.7" stroke-miterlimit="4" d="m80.91192,266.65815c-0.08591,-4.60004 -1.94147,-8.34823 -10.37332,-13.5444c-1.61704,-4.34056 -0.8831,-3.97917 -0.82987,-4.9792c44.48969,3.92175 95.50523,2.00877 145.64145,-7.88372l-0.82986,2.90453c-1.64102,5.74362 -11.63902,9.18901 -10.91742,23.50279l-122.69098,0z" id="path6739-0"/>
     </g>
     <g stroke-width="0.7" stroke-miterlimit="4" id="g7002">
      <path clip-rule="nonzero" fill="#37abc8" fill-rule="nonzero" stroke="#ffffff" stroke-width="0.7" stroke-miterlimit="4" stroke-dashoffset="0" id="path6872" d="m39.97266,261.06055c-4.23254,3.32836 -8.04968,3.33169 -11.69141,1.93359c6.55248,17.22237 15.24789,33.06469 25.79102,46.59766c25.06958,32.1789 59.70559,50.48194 94.59961,50.48242c34.89441,0.00014 69.53153,-18.30343 94.60156,-50.48242c10.53063,-13.51676 19.21978,-29.33682 25.76953,-46.53516c-4.20342,1.58804 -8.11148,0.81003 -11.76563,-1.99609c-4.46528,2.1259 -9.20094,3.43987 -15.52148,0c-4.09493,2.15796 -8.6426,3.41385 -15.52344,0c-5.17391,3.52225 -10.34757,3.04258 -15.52148,0c-4.84191,1.16203 -8.94439,4.91113 -15.52149,0c-5.17391,3.60064 -10.34757,2.95826 -15.52148,0c-4.30867,1.51418 -7.6632,4.69765 -15.52149,0c-6.22417,3.67589 -11.16915,2.87554 -15.52148,0c-4.27664,1.57024 -7.6833,4.66246 -15.52148,0c-5.17391,3.74814 -10.34953,2.79437 -15.52344,0c-4.69851,2.85246 -9.88414,2.78061 -15.52149,0c-4.35371,2.87071 -9.29607,3.68024 -15.52148,0c-5.17391,4.40134 -10.34757,3.05765 -15.52148,0c-5.17392,4.44326 -10.34757,4.00184 -15.52149,0c-6.29291,4.47597 -11.08986,2.96917 -15.52148,0z"/>
      <path fill="#00d4aa" fill-rule="evenodd" stroke-width="0.7" stroke-miterlimit="4" id="path6936" d="m55.17995,269.38404c5.9972,-1.36858 12.13032,-0.57951 18.31128,-0.72284c10.15464,-0.23548 20.43843,-0.57383 30.46092,0.72284c4.33927,0.5614 12.83548,-1.0326 12.69413,3.34056c-0.15027,4.6491 -12.91504,-1.913 -13.6963,2.67245c-0.62869,3.68998 6.08278,4.67087 9.68763,5.67896c7.0785,1.9795 14.96708,-1.63787 22.0477,0.33405c2.98048,0.83005 8.27894,1.59396 8.01735,4.67679c-0.16088,1.89597 -3.48544,1.60059 -5.3449,2.00434c-3.67276,0.79748 -7.96273,2.1893 -11.98649,2.90108c-2.90717,0.51427 -6.01491,-0.17525 -7.03361,2.34184c-1.12403,2.77735 2.90463,1.59256 5.65786,2.77443c5.77293,2.47813 12.27725,-2.70089 18.79087,-3.0439c6.30616,-0.33209 12.62104,4.24715 18.28936,2.04173c5.22283,-2.03209 14.70066,-5.79115 12.69413,-11.02386c-2.3127,-6.03116 -13.08988,1.82323 -19.37525,0.33406c-2.56866,-0.60858 -7.5554,-1.09072 -7.01518,-3.67462c1.62195,-7.75783 20.3413,5.49999 23.71798,-1.67028c0.81621,-1.7332 -1.64554,-3.78399 -3.34056,-4.67679c-10.34657,-5.44977 -24.31507,3.90969 -35.07589,-0.66811c-1.7389,-0.73975 -4.73184,-2.26281 -4.00868,-4.00867c2.91929,-7.0478 9.88556,-1.0837 18.02038,-1.22242c13.35768,-0.22778 30.46855,-2.45186 42.44379,1.22242c3.98598,1.22299 11.51325,3.00969 10.35574,7.01518c-1.88675,6.52897 -17.5342,-5.50468 -20.37743,0.66811c-0.89488,1.94282 2.07061,4.10572 4.00868,5.01084c4.54124,2.12086 10.41918,-2.29313 15.03252,-0.33405c1.8133,0.77003 4.75109,2.51795 4.00868,4.34273c-2.39522,5.88725 -13.04908,-1.11711 -19.0412,1.00216c-5.18668,1.8344 -8.15271,7.91919 -13.36225,9.68763c-8.34848,2.83399 -17.53257,1.56396 -26.60664,1.79267c-7.77935,0.19608 -15.47784,2.3408 -22.49962,-0.45644c-5.26661,-2.09804 -14.14195,-6.76657 -12.02602,-12.02602c2.0369,-5.06301 15.16915,4.98985 16.36875,-0.33406c0.38312,-1.70031 -2.97725,-1.95186 -4.67678,-2.33839c-13.24846,-3.01312 -32.81493,8.42027 -45.01671,2.44388c-1.50001,-0.7347 -3.73349,-2.5049 -3.0065,-4.00867c3.63625,-7.52152 26.32727,5.35756 29.31606,-2.44389c1.04262,-2.72148 -3.63514,-4.94579 -6.34706,-6.01301c-6.46627,-2.54466 -15.31258,1.96151 -23.1424,1.47624c-6.8504,-0.42456 -12.92271,-6.41909 -15.94217,-1.14218c-3.76586,6.58132 4.7555,15.98054 11.35791,19.70931c9.79467,5.53163 23.27868,-4.80361 33.73967,-0.66811c5.78513,2.28701 7.60004,10.68402 13.36224,13.02819c10.52064,4.27999 29.04185,-10.18245 34.07373,0c1.05575,2.13641 -2.21889,4.59814 -4.34273,5.67895c-1.99783,1.01668 -4.46663,-1.39785 -7.11277,-1.76221c-8.52978,-1.17452 -18.90221,-4.39244 -21.282,2.43033c-1.1457,3.28467 4.73089,5.54057 8.01735,6.68112c10.37011,3.59888 18.57828,1.35521 29.90397,-0.44103c5.91406,-0.93797 18.61939,-6.40357 20.20445,-0.89519c0.78687,2.73452 -4.61806,3.54437 -7.34924,4.34273c-12.19174,3.56382 -25.39964,0.63839 -38.0824,1.33622c-4.45984,0.24539 -12.10934,-3.2851 -13.36224,1.00217c-0.6247,2.13763 3.22546,3.32476 5.34489,4.00867c7.4091,2.3908 14.52836,1.66647 22.3801,0.75279c3.82988,-0.44566 11.08188,-4.9962 12.36174,-1.4209c0.90848,2.53784 -3.81364,4.09011 -6.34706,5.01084c-9.80229,3.56248 -17.15422,1.65552 -27.91839,1.89804c-9.12604,0.20561 -21.70349,3.15472 -29.87333,-0.22776c-2.54726,-1.05462 -6.77026,-3.48125 -5.67895,-6.01301c3.43804,-7.97603 22.7326,8.02432 26.05638,0c1.32579,-3.20075 -8.67503,-4.14848 -7.34924,-7.34923c1.53405,-3.70353 10.21403,3.57578 12.02602,0c0.93625,-1.84759 -1.81965,-4.08929 -3.67461,-5.01085c-6.28337,-3.12161 -14.81044,3.551 -21.04554,0.33406c-1.9214,-0.99133 -6.45694,-2.36596 -5.45039,-4.27944c3.00671,-5.71585 18.31352,4.73624 21.15103,-1.06546c1.11561,-2.28102 -2.33014,-5.04302 -4.67679,-6.01301c-10.39306,-4.29599 -23.7486,10.12992 -35.74401,0.33406c-1.36368,-1.11363 -4.76307,-4.46221 -3.0065,-4.34273c9.97458,0.67843 30.08091,4.71354 34.40778,0.66811c1.04164,-0.97389 -1.24761,-3.39811 -2.67245,-3.34056c-41.2939,1.66792 -46.24459,-11.25376 -43.4273,-1.00217c2.46117,8.9557 10.68215,15.27428 17.03687,22.04771c7.61153,8.11306 15.15723,16.96763 25.05421,22.0477c11.8951,6.10569 25.78046,7.68779 39.08457,9.01952c12.19235,1.22044 24.79012,1.68026 36.74618,-1.00217c10.80027,-2.42312 21.3752,-6.95239 30.39911,-13.36225c3.59703,-2.55504 10.95543,-5.72289 9.01951,-9.68762c-6.71921,-13.7608 -41.08628,18.58985 -45.76569,4.00867c-0.8695,-2.70937 4.8827,-2.92396 7.34923,-4.34273c4.64602,-2.67244 9.62532,-1.4375 14.48008,-2.777c5.99598,-1.65437 11.802,-5.55639 16.55555,-5.48099c6.48978,0.10293 11.01787,1.66163 11.38951,4.24932c0.49555,3.45047 6.63734,-6.47131 4.67678,-9.35358c-5.09462,-7.48974 -19.24552,0.95233 -29.09577,3.62224c-4.00683,1.08605 -7.30204,2.99534 -8.98663,-0.28168c-0.93871,-1.82608 2.19082,-3.72223 4.00867,-4.67678c3.767,-1.97804 8.854,0.49579 12.69414,-1.33623c1.98981,-0.94929 5.55076,-2.65276 4.67678,-4.67678c-1.14794,-2.65846 -4.80241,-0.74446 -7.94386,-0.71599c-4.95585,0.0449 -10.22113,-0.37294 -14.4379,1.3841c-2.83548,1.18149 -3.83861,5.1826 -6.68112,6.34707c-5.77121,2.36425 -14.92633,5.29408 -18.70715,0.33405c-1.19617,-1.56925 0.0621,-4.53569 1.67028,-5.67895c3.72543,-2.64839 9.39574,2.21661 13.69631,0.66811c3.26296,-1.17489 4.46508,-5.72273 7.68329,-7.01518c8.68222,-3.48683 20.08592,4.2249 28.06072,-0.66811c1.40135,-0.85981 3.16122,-2.91935 2.33839,-4.34273c-3.90261,-6.75098 -20.05833,6.38501 -23.38393,-0.66811c-0.54146,-1.14836 1.21254,-2.41967 2.33839,-3.00651c7.71209,-4.01986 18.36441,2.72201 26.05638,-1.33622c2.60009,-1.37179 6.46827,-4.2985 5.3449,-7.01518c-1.88955,-4.56957 -12.71712,2.52618 -14.69847,-2.00434c-0.54463,-1.24534 1.15175,-2.67771 2.33839,-3.34056c4.96647,-2.77422 12.28765,2.12945 17.03687,-1.00217c1.03934,-0.68534 2.31373,-2.27478 1.67028,-3.34056c-2.76307,-4.57666 -13.63808,4.4447 -16.0347,-0.33406c-0.85883,-1.71248 1.66272,-3.7521 3.34056,-4.67678c7.00008,-3.85784 17.46403,-0.77454 26.42471,-1.29654c6.4191,-0.37395 12.23966,-6.2289 14.6642,-1.04186c1.03412,2.21239 -2.81539,4.2753 -5.01084,5.3449c-5.62812,2.74197 -13.53341,-1.85485 -18.70715,1.67028c-2.26345,1.5422 -5.29464,5.14083 -3.67461,7.34924c1.66753,2.27317 6.71392,-3.63114 8.3514,-1.33623c1.0995,1.54094 -1.03008,4.06956 -2.67245,5.01085c-2.41717,1.38536 -5.87567,-1.61183 -8.3514,-0.33406c-2.71708,1.40233 -2.38519,6.11646 -5.01085,7.68329c-2.30285,1.3742 -6.20153,-1.30531 -8.01734,0.66811c-0.90477,0.98331 -0.94485,3.06383 0,4.00868c5.59038,5.59038 21.90155,-7.6945 23.71798,0c0.62927,2.66563 -4.6836,3.04535 -7.34923,3.67462c-4.98517,1.17684 -10.82331,-2.36548 -15.36659,0c-2.41121,1.25541 -5.85232,4.22999 -4.67678,6.68112c1.3243,2.7613 4.48629,-0.42811 8.17257,-1.19323c6.52241,-1.3538 14.68616,-1.92844 17.2157,2.86351c3.98501,7.54919 -7.50568,15.53829 -13.02819,22.04771c-3.47725,4.09866 -7.75891,7.57733 -12.36008,10.35574c-10.30221,6.22097 -21.68184,10.97804 -33.40562,13.6963c-11.4151,2.64669 -23.39671,3.29038 -35.07589,2.33839c-10.25687,-0.83605 -20.35913,-3.59507 -30.06506,-7.01518c-9.20672,-3.2442 -18.47612,-6.97993 -26.39043,-12.69413c-7.53392,-5.43955 -13.64771,-12.72601 -19.37526,-20.04337c-6.07479,-7.76099 -19.32075,-15.88738 -15.70064,-25.05421c1.43852,-3.64261 9.98879,0.66274 11.35791,-3.00651c2.2134,-5.93192 -12.33068,-9.58555 -10.6898,-15.70064c0.86479,-3.22284 5.7663,-3.60033 9.01952,-4.34273z"/>
      <path fill="#d5f6ff" fill-rule="evenodd" stroke-width="0.7" stroke-miterlimit="4" id="path6949" d="m155.90368,265.08789c-7.45274,5.08889 -8.001,4.42366 -11.01368,5.8125c3.67227,0.43544 7.3453,0.81064 11.01758,-1.27148c4.38375,3.49986 8.7686,1.91747 13.15235,2.49414c-4.61151,-2.34542 -11.44017,-4.68974 -13.15625,-7.03516zm51.39648,0.30469c-7.45274,5.08889 -8.00099,4.42366 -11.01367,5.8125c3.67227,0.43544 7.3453,0.81063 11.01758,-1.27149c4.38375,3.49986 8.76664,1.91943 13.15039,2.4961c-0.38629,-0.19647 -0.80568,-0.39338 -1.21875,-0.58985c2.14085,-0.0185 4.28296,-0.38577 6.42383,-1.59961c4.38374,3.49986 8.76664,1.91748 13.15039,2.49415c-4.61151,-2.34543 -11.43822,-4.68974 -13.1543,-7.03516c-5.44778,3.71986 -7.20511,4.36198 -8.93359,4.98242c-3.95423,-1.76316 -8.13183,-3.52591 -9.42188,-5.28906zm-110.13281,1.83594c-7.45275,5.08889 -8.00099,4.42366 -11.01367,5.8125c3.67227,0.43544 7.34335,0.81063 11.01562,-1.27149c4.38376,3.49986 8.76859,1.91943 13.15234,2.49609c-4.61151,-2.34541 -11.43821,-4.69168 -13.15429,-7.0371zm33.65039,0.91796c-7.45274,5.08889 -8.00099,4.42366 -11.01367,5.8125c3.67227,0.43544 7.34529,0.81064 11.01757,-1.27148c2.74376,2.19053 5.48867,2.39049 8.23243,2.375c-4.56149,2.86241 -5.40823,2.62863 -7.92969,3.79102c0.75201,0.0892 1.50384,0.16303 2.25586,0.22656c-6.63261,4.45067 -7.31971,3.94645 -10.21094,5.2793c3.67227,0.43543 7.3453,0.81063 11.01758,-1.27149c4.38375,3.49986 8.76859,1.91942 13.15234,2.49609c-4.20437,-2.13834 -10.2389,-4.27571 -12.57422,-6.41406c2.4586,0.0895 4.91835,-0.1939 7.37696,-1.58789c4.38375,3.49986 8.76664,1.91943 13.15039,2.49609c-4.61151,-2.34541 -11.43822,-4.69168 -13.1543,-7.0371c-0.42014,0.28687 -0.74512,0.49438 -1.12305,0.74609c-4.17023,-1.88014 -8.82162,-3.76049 -10.19726,-5.64063zm54.45508,2.14063c-7.45274,5.08889 -8.001,4.42366 -11.01368,5.8125c3.67227,0.43544 7.3453,0.81063 11.01758,-1.27149c4.38375,3.49987 8.76664,1.91943 13.15039,2.4961c-4.61151,-2.34542 -11.43821,-4.69169 -13.15429,-7.03711zm-110.43946,0.30664c-7.45274,5.08889 -7.99903,4.42366 -11.01172,5.8125c3.67228,0.43544 7.34336,0.81064 11.01563,-1.27148c4.38375,3.49986 8.76859,1.91942 13.15234,2.49609c-4.61151,-2.34542 -11.44017,-4.69169 -13.15625,-7.03711zm30.89844,7.95313c-5.81681,3.97184 -7.43183,4.44336 -9.29101,5.11718c-0.06389,-0.0738 -0.13741,-0.1469 -0.19141,-0.2207c-0.41641,0.28433 -0.73835,0.48851 -1.11328,0.73828c-0.14064,0.0606 -0.26404,0.10767 -0.41602,0.17774c0.04299,0.005 0.08591,0.009 0.12891,0.0137c-6.06919,4.01479 -6.81241,3.59161 -9.61328,4.88281c3.67227,0.43544 7.3453,0.81063 11.01758,-1.27148c2.81142,2.24456 5.62216,2.39871 8.43359,2.37304c-5.83761,3.83635 -6.59364,3.43774 -9.35547,4.71094c3.67227,0.43544 7.34334,0.81063 11.01563,-1.27148c4.38375,3.49986 8.76859,1.91747 13.15234,2.49414c-3.89533,-1.98118 -9.36067,-3.96219 -12.00195,-5.94336c0.63527,0.015 1.27097,0.0473 1.90625,0.13086c-3.82541,-1.94561 -9.16695,-3.89034 -11.85938,-5.83594c2.73075,0.18362 5.46065,-0.006 8.19141,-1.55469c4.38375,3.49986 8.76859,1.91942 13.15234,2.49609c-4.61151,-2.34542 -11.44017,-4.69169 -13.15625,-7.0371l0,-0.00003zm106.71484,2.87304c-7.45273,5.08889 -7.99903,4.42366 -11.01171,5.8125c3.67227,0.43544 7.34334,0.81064 11.01562,-1.27148c4.38375,3.49986 8.76859,1.91747 13.15234,2.49414c-4.61151,-2.34542 -11.44017,-4.68974 -13.15625,-7.03516zm-30.00195,6.71289c-7.45273,5.08889 -8.00099,4.42366 -11.01367,5.8125c3.67227,0.43544 7.3453,0.81064 11.01758,-1.27148c4.38375,3.49986 8.76664,1.91942 13.15039,2.49609c-4.61151,-2.34542 -11.43822,-4.69169 -13.1543,-7.03711zm-29.29297,0.20508c-7.45273,5.08889 -8.00099,4.42366 -11.01367,5.8125c3.67227,0.43544 7.34335,0.81064 11.01563,-1.27148c4.38375,3.49986 8.76859,1.91747 13.15234,2.49414c-4.61151,-2.34542 -11.43822,-4.68974 -13.1543,-7.03516zm-68.52734,7.3418c-7.45273,5.08889 -8.00099,4.42366 -11.01367,5.8125c3.67227,0.43544 7.34334,0.81063 11.01562,-1.27149c4.38375,3.49986 8.7686,1.91747 13.15235,2.49414c-4.61151,-2.34542 -11.43822,-4.68973 -13.1543,-7.03515zm55.0664,0c-4.73906,3.23594 -6.68379,4.14412 -8.24804,4.73437c-1.38565,-0.76215 -2.51462,-1.52496 -3.07227,-2.28711c-7.45273,5.08889 -8.00099,4.42366 -11.01367,5.8125c3.67227,0.43544 7.3453,0.81064 11.01758,-1.27148c4.38375,3.49986 8.76664,1.91942 13.15039,2.49609c-2.2048,-1.12136 -4.9033,-2.24386 -7.32031,-3.36523c1.82962,-0.1139 3.65864,-0.54076 5.48828,-1.57813c4.38375,3.49986 8.76859,1.91747 13.15234,2.49414c-4.61151,-2.34542 -11.43821,-4.68973 -13.1543,-7.03515zm59.95899,0.8457c-5.41545,3.69779 -7.18364,4.35549 -8.90234,4.97266c-0.69234,-0.46854 -1.24508,-0.93772 -1.58789,-1.40625c-7.45274,5.08889 -8.001,4.42366 -11.01368,5.8125c3.67227,0.43544 7.34335,0.81063 11.01563,-1.27149c4.38375,3.49986 8.76859,1.91943 13.15234,2.4961c-2.91808,-1.48414 -6.7167,-2.96899 -9.55273,-4.45313c2.29711,0.0339 4.5935,-0.30694 6.89062,-1.60937c4.38375,3.49986 8.7686,1.91942 13.15235,2.49609c-4.61151,-2.34542 -11.43822,-4.69169 -13.1543,-7.03711zm-92.08203,7.41406c-7.45274,5.08889 -8.00099,4.42366 -11.01367,5.8125c3.67227,0.43544 7.34529,0.81064 11.01757,-1.27148c2.24922,1.79571 4.49883,2.24939 6.74805,2.34765c-4.60343,2.89413 -5.44444,2.65196 -7.97461,3.81836c3.67227,0.43544 7.34335,0.81064 11.01563,-1.27148c4.38375,3.49986 8.76859,1.91942 13.15234,2.49609c-3.24127,-1.64851 -7.54722,-3.29679 -10.43359,-4.94531c0.21435,0.0187 0.42822,0.0226 0.64258,0.0508c-0.70175,-0.35691 -1.46169,-0.71535 -2.24024,-1.07226c-0.472,-0.35689 -0.86387,-0.71342 -1.125,-1.07032c-0.18797,0.12836 -0.32261,0.21283 -0.50195,0.33399c-3.91349,-1.74291 -8.01188,-3.48561 -9.28711,-5.22852l0,-0.00002zm52.00781,2.44727c-7.45273,5.08889 -8.00099,4.42366 -11.01367,5.8125c3.67227,0.43544 7.3453,0.81063 11.01758,-1.27149c4.38375,3.49986 8.76664,1.91943 13.15039,2.4961c-4.61151,-2.34542 -11.43822,-4.69169 -13.1543,-7.03711zm2.75391,10.70703c-7.45273,5.08889 -8.001,4.42366 -11.01368,5.8125c3.67228,0.43544 7.34335,0.81064 11.01563,-1.27148c4.38375,3.49986 8.76859,1.91942 13.15234,2.49609c-4.61151,-2.34542 -11.43821,-4.69169 -13.15429,-7.03711zm-50.17188,1.22461c-7.45273,5.08889 -8.00099,4.42366 -11.01367,5.8125c3.67227,0.43544 7.34334,0.81063 11.01563,-1.27148c4.38375,3.49986 8.76859,1.91747 13.15234,2.49414c-4.61151,-2.34542 -11.43822,-4.68974 -13.1543,-7.03516zm27.5332,1.5293c-7.45273,5.08889 -8.00099,4.42366 -11.01367,5.8125c3.67227,0.43544 7.34335,0.81063 11.01563,-1.27149c4.38375,3.49986 8.76859,1.91943 13.15234,2.4961c-4.61151,-2.34542 -11.43821,-4.69169 -13.1543,-7.03711z"/>
     </g>
    </g>
    <g id="g6606">
     <path clip-rule="nonzero" fill="#fad62e" fill-rule="nonzero" stroke="#000000" stroke-miterlimit="4" stroke-dashoffset="0" d="m148.67188,6.44336c-36.82383,0.00051 -72.99692,19.28472 -98.96094,52.61133c-26.02015,33.39864 -40.97445,79.81466 -40.97461,126.96679c-0.00024,47.15257 14.95441,93.56969 40.97461,126.96875c25.96406,33.32703 62.13701,52.61082 98.96094,52.61133c36.82444,0.00015 72.99838,-19.28421 98.96289,-52.61133c26.0206,-33.39913 40.97484,-79.81587 40.97461,-126.96875c-0.00017,-47.1528 -14.9562,-93.56834 -40.97657,-126.96679c-25.96425,-33.32644 -62.13658,-52.61148 -98.96093,-52.61133zm0,25c28.06546,-0.00011 57.30049,14.81634 79.23828,42.97461c21.88169,28.08625 35.69906,69.84426 35.69922,111.60351c0.0002,41.75983 -13.81575,83.51912 -35.69727,111.60547c-21.93764,28.15838 -51.17442,42.97472 -79.24023,42.97461c-28.0658,-0.00039 -57.30096,-14.81623 -79.23829,-42.97461c-21.88119,-28.08632 -35.69748,-69.84614 -35.69726,-111.60547c0.00014,-41.75912 13.8161,-83.51754 35.69726,-111.60351c21.93728,-28.15801 51.17285,-42.97422 79.23829,-42.97461z" id="path4241"/>
     <path clip-rule="nonzero" fill="#fad62e" fill-rule="nonzero" stroke="#000000" stroke-miterlimit="4" stroke-dashoffset="0" d="m148.67188,3.94336c-37.69663,0.00052 -74.56507,19.7284 -100.9336,53.57422c-26.42489,33.91816 -41.50179,80.8232 -41.50195,128.5039c-0.00025,47.68117 15.07702,94.58729 41.50195,128.50586c26.36857,33.84625 63.2369,53.5737 100.9336,53.57422c37.69725,0.00016 74.56652,-19.72788 100.93554,-53.57422c26.42535,-33.91865 41.50219,-80.82439 41.50196,-128.50586c-0.00018,-47.68143 -15.07883,-94.58598 -41.50391,-128.5039c-26.36873,-33.84561 -63.2364,-53.57437 -100.93359,-53.57422zm0,5c35.9515,-0.00014 71.4285,18.84116 96.98828,51.64844c25.61565,32.87898 40.44905,78.80552 40.44922,125.42968c0.00022,46.6243 -14.83142,92.55204 -40.44727,125.43164c-25.56,32.80791 -61.03861,51.64859 -96.99023,51.64844c-35.95117,-0.0005 -71.42873,-18.84062 -96.98829,-51.64844c-25.61545,-32.87954 -40.4475,-78.80767 -40.44726,-125.43164c0.00016,-46.62355 14.83186,-92.55056 40.44726,-125.42968c25.55952,-32.8074 61.03725,-51.64794 96.98829,-51.64844zm0,20c-28.94528,0.0004 -58.87315,15.26541 -81.21094,43.9375c-22.30595,28.63121 -36.22447,70.83009 -36.22461,113.14062c-0.00022,42.31077 13.91862,84.51101 36.22461,113.14258c22.33783,28.67246 52.26533,43.9371 81.21094,43.9375c28.94567,0.00012 58.87472,-15.26502 81.21289,-43.9375c22.30631,-28.6316 36.22481,-70.83133 36.22461,-113.14258c-0.00017,-42.31071 -13.92013,-84.50918 -36.22657,-113.14062c-22.33827,-28.67231 -52.26559,-43.93761 -81.21093,-43.9375zm0,5c27.18557,-0.00011 55.72831,14.36749 77.26562,42.01172c21.45694,27.54106 35.17172,68.85862 35.17188,110.0664c0.00019,41.20842 -13.7132,82.52727 -35.16993,110.06836c-21.53711,27.64428 -50.08163,42.01183 -77.26757,42.01172c-27.186,-0.00038 -55.72881,-14.36741 -77.26563,-42.01172c-21.45641,-27.54106 -35.17013,-68.86046 -35.16992,-110.06836c0.00014,-41.20771 13.71355,-82.52567 35.16992,-110.0664c21.53677,-27.64393 50.08002,-42.01134 77.26563,-42.01172z" id="path4256"/>
     <g id="g6559">
      <path fill="#000000" fill-rule="nonzero" id="path6369" d="m24.08761,246.73328c0.21043,0.69874 0.44373,1.14784 0.69991,1.34725c0.20411,0.16594 0.64165,0.14117 1.31256,-0.0743l8.41403,-2.70099l0.83648,-0.39848c0.67555,-0.45542 0.80091,-1.38842 0.37606,-2.79894c-0.46055,-1.52908 -1.33853,-2.57717 -2.63382,-3.14432c-1.29536,-0.56712 -2.81512,-0.57078 -4.55936,-0.011c-1.82731,0.58662 -3.15366,1.60327 -3.97906,3.04997c-0.82539,1.44664 -0.98104,3.02357 -0.4668,4.73062l0,0.00019zm-0.97479,-0.59014c-0.67368,-2.23661 -0.65847,-4.20787 0.04569,-5.91373c0.70411,-1.70592 1.97793,-2.85476 3.82136,-3.44651c2.3748,-0.76235 4.53944,-0.46255 6.49391,0.89946c1.43192,1.00154 2.39917,2.33672 2.90186,4.00559c0.08345,0.27712 0.22512,0.84293 0.42511,1.69749c0.11684,0.48323 0.2507,0.97546 0.40171,1.47665c0.35363,1.17419 0.62554,1.94424 0.81559,2.31011c0.14946,0.28471 0.24014,0.47986 0.27191,0.58543c0.04569,0.15164 -0.02642,0.25796 -0.21629,0.3189c-0.13089,0.0419 -0.23743,-0.0136 -0.31953,-0.16707c-0.19915,-0.38169 -0.4458,-0.60625 -0.73988,-0.6735c-0.29414,-0.0672 -0.74521,-0.004 -1.35329,0.19187l-8.36344,2.6847c-0.61438,0.19728 -1.03549,0.52382 -1.26325,0.97971c-0.22776,0.45589 -0.24542,1.00327 -0.05304,1.64199c0.06154,0.20425 0.0087,0.3332 -0.15848,0.3869c-0.11556,0.0372 -0.20398,0.0185 -0.26521,-0.0561c-0.06123,-0.0743 -0.1356,-0.25682 -0.22306,-0.54723l-0.43406,-1.51046c-0.10331,-0.34298 -0.20211,-0.64778 -0.29627,-0.91424c-0.15139,-0.40732 -0.36916,-0.96334 -0.65318,-1.66806c-0.38586,-0.94725 -0.66525,-1.70793 -0.83816,-2.28204l0,0.00014z"/>
      <path fill="#000000" fill-rule="nonzero" id="path6371" d="m20.72411,221.14098c0.01412,0.0815 0.27378,0.18783 0.77906,0.3191l0.4483,0.11717l2.84412,0.70599l0.26656,0.0668c0.10699,0.0296 0.19663,0.0376 0.26895,0.024c0.22402,-0.0411 0.29362,-0.30679 0.20887,-0.79648l-0.52222,-3.0177c-0.04473,-0.25829 -0.13625,-0.37458 -0.27462,-0.34911c-0.03293,0.006 -0.08586,0.0333 -0.15887,0.0819l-0.10002,0.071l-2.79153,1.89382c-0.66923,0.45302 -0.99206,0.74751 -0.9686,0.88337l0,0.00014zm-3.58837,-0.19223c-0.01888,-0.10904 0.22538,-0.34783 0.73278,-0.71614l0.48156,-0.34166l9.52551,-6.55185c0.48053,-0.32749 0.82217,-0.67146 1.02499,-1.032c0.20282,-0.36055 0.30407,-0.79715 0.30369,-1.30985c-0.00065,-0.12628 0.08294,-0.20506 0.25167,-0.2362c0.18219,-0.0336 0.2835,0.0287 0.30394,0.18662c0.0087,0.0898 0.0118,0.2229 0.009,0.39915c-0.01882,0.54518 0.07264,1.4006 0.27436,2.56619c0.20294,1.1724 0.39423,1.96003 0.57385,2.36309c0.04614,0.0969 0.07573,0.18282 0.08874,0.25796c0.033,0.19074 -0.04306,0.30325 -0.22828,0.33738c-0.09261,0.017 -0.17498,-0.0451 -0.2471,-0.18636c-0.14913,-0.30971 -0.36136,-0.54997 -0.63662,-0.72063c-0.27526,-0.17065 -0.54517,-0.2316 -0.80967,-0.18277c-0.37039,0.0682 -1.13262,0.51411 -2.2867,1.33754c-0.35189,0.2543 -0.53686,0.49707 -0.55484,0.72821c-0.01798,0.23112 0.08945,1.01955 0.32237,2.36528l0.23994,1.38656l0.31696,0.88829c0.15577,0.23073 0.64049,0.43593 1.45429,0.61549l0.8165,0.17533c0.23414,0.0551 0.46332,0.0618 0.68753,0.0205c0.83107,-0.15323 1.20887,-0.84086 1.1334,-2.06281c-0.01161,-0.26454 0.0627,-0.40812 0.22286,-0.43074c0.17472,-0.018 0.28216,0.0889 0.32231,0.32075c0.0212,0.12283 0.03003,0.30072 0.02642,0.53373c-0.0145,0.46734 0.009,0.87852 0.07044,1.23342c0.05549,0.32076 0.17897,0.83314 0.37051,1.53706c0.14604,0.52221 0.23034,0.84816 0.25284,0.97798c0.033,0.19094 -0.03146,0.30139 -0.19341,0.33126c-0.13502,0.0248 -0.25284,-0.052 -0.35338,-0.23072c-0.17555,-0.34785 -0.43225,-0.60506 -0.77003,-0.77174c-0.33784,-0.16666 -1.0248,-0.37924 -2.061,-0.63772l-6.70015,-1.64126c-0.5325,-0.13369 -0.89844,-0.22776 -1.09785,-0.2822l-2.04972,-0.60206c-0.67504,-0.21278 -1.01255,-0.31916 -1.01255,-0.31916c0.01985,-0.004 0.02978,-0.005 0.02978,-0.005c0,0 -0.13593,-0.0311 -0.40771,-0.0938c-0.27178,-0.0626 -0.41421,-0.1314 -0.42723,-0.20652l0,-0.0006z"/>
      <path fill="#000000" fill-rule="nonzero" id="path6373" d="m13.87829,185.8678c-0.0114,-0.24192 0.0769,-0.36759 0.26502,-0.37711c0.15454,-0.008 0.2429,0.0811 0.2652,0.26634c0.07753,0.64517 0.30993,1.08748 0.69721,1.32695c0.38727,0.23952 1.02628,0.33673 1.91696,0.29182l0.68264,-0.0451l6.23631,-0.55942l0.41137,-0.031c0.92432,-0.0467 1.60116,-0.24824 2.03065,-0.60486c0.42942,-0.35662 0.66627,-0.91943 0.71055,-1.68835c0.01824,-0.19422 0.11297,-0.29568 0.28421,-0.30433c0.18491,-0.009 0.28841,0.22036 0.31058,0.68888c0.0064,0.13793 -0.002,0.35949 -0.02578,0.66474c-0.0591,0.84566 -0.08037,1.44418 -0.06367,1.79569c0.03422,0.72354 0.09699,1.32488 0.18832,1.80391c0.09004,0.45151 0.13895,0.75983 0.14675,0.92509c0.0082,0.17233 -0.07334,0.26281 -0.24458,0.27147c-0.13012,0.007 -0.22725,-0.0882 -0.29144,-0.28431c-0.12554,-0.38542 -0.30909,-0.65276 -0.55071,-0.80205c-0.24169,-0.14925 -0.59319,-0.21219 -1.05458,-0.18897c-0.22086,0.0113 -0.37792,0.0225 -0.47112,0.034l-6.64633,0.63288c-0.18032,0.0159 -0.26849,0.0656 -0.26456,0.1489c0.005,0.10405 0.1956,0.23705 0.57205,0.399l8.19194,3.50933l0.30793,0.12894c0.42414,0.17818 0.64268,0.33226 0.65545,0.46227c0.01379,0.15056 -0.3421,0.42296 -1.0676,0.81724l-1.01867,0.5789l-7.00802,3.6734l-0.14714,0.0798c-0.04556,0.0301 -0.06702,0.0726 -0.06446,0.12755c0.005,0.11004 0.14514,0.15807 0.41969,0.14424l0.3218,-0.006l5.0772,-0.12722l0.40235,-0.0103l0.9394,-0.14079c0.97505,-0.24291 1.55193,-0.81517 1.73071,-1.71663c0.06058,-0.31444 0.16969,-0.47565 0.3272,-0.48356c0.17801,-0.009 0.27281,0.10791 0.28429,0.35075c0.0089,0.18709 0.0033,0.40973 -0.01727,0.66787l-0.06232,0.74358c-0.01701,0.18869 -0.0172,0.45974 -0.00045,0.81324c0.02991,0.63122 0.08148,1.12223 0.15467,1.47312c0.05021,0.22668 0.07811,0.39902 0.08365,0.51697c0.01018,0.21498 -0.07373,0.32695 -0.2518,0.33594c-0.12329,0.006 -0.21622,-0.0722 -0.27887,-0.23507c-0.19895,-0.52302 -0.52648,-0.89588 -0.98271,-1.11856c-0.45623,-0.22277 -1.07874,-0.31418 -1.86753,-0.27439l-6.60096,0.0567l-0.67336,0.003c-0.80232,0.0403 -1.42283,0.27417 -1.8616,0.70113c-0.43877,0.42694 -0.64146,0.99247 -0.60814,1.6966c0.01238,0.26228 -0.07553,0.39814 -0.26391,0.40766c-0.19515,0.01 -0.29975,-0.13381 -0.3138,-0.43101c-0.0033,-0.0621 -0.0033,-0.14165 -0.0014,-0.23873l0.01263,-0.60326c0.0013,-0.11084 -0.002,-0.25263 -0.0099,-0.42535c-0.01534,-0.32482 -0.05091,-0.64158 -0.10673,-0.95038c-0.07702,-0.46693 -0.11878,-0.76958 -0.12535,-0.90785c-0.02158,-0.45602 0.17388,-0.79128 0.58629,-1.00591l8.79498,-4.70295c0.38605,-0.20638 0.57282,-0.37156 0.56025,-0.49559c-0.0125,-0.1237 -0.15557,-0.24398 -0.42922,-0.36108l-8.2386,-3.4957c-0.77964,-0.3276 -1.27016,-0.56599 -1.47162,-0.71517c-0.20141,-0.14924 -0.30813,-0.35162 -0.32025,-0.60725c-0.0045,-0.0967 -0.0013,-0.24931 0.0092,-0.45756c0.01108,-0.20138 0.01154,-0.40911 0.0014,-0.62321c-0.01341,-0.28343 -0.05388,-0.63127 -0.12142,-1.04332c-0.03067,-0.21304 -0.04852,-0.37132 -0.05342,-0.47498l0.00044,-0.00058z"/>
      <path fill="#000000" fill-rule="nonzero" id="path6375" d="m14.01302,173.86461c0.0064,-0.0757 0.02713,-0.21609 0.06296,-0.42075c0.14701,-0.86721 0.23968,-1.53812 0.27797,-2.01271c0.05446,-0.67433 0.07961,-1.42382 0.07547,-2.24857c0.0013,-0.33254 0.0076,-0.57107 0.01939,-0.71545c0.02888,-0.35782 0.14082,-0.52827 0.33571,-0.5115c0.10763,0.009 0.17943,0.0431 0.21532,0.1018c0.03589,0.0585 0.06567,0.19288 0.08939,0.40285c0.04615,0.42688 0.1753,0.72216 0.3874,0.88603c0.2121,0.16388 0.64056,0.29095 1.28537,0.3813l2.51111,0.38252l1.77446,0.13172c1.61618,0.13907 2.77362,0.15038 3.47224,0.0337c0.69862,-0.11656 1.31385,-0.4292 1.84581,-0.93791c0.80857,-0.76879 1.26538,-1.80346 1.37037,-3.10401c0.10724,-1.32806 -0.18638,-2.43433 -0.88082,-3.3187c-0.46951,-0.59461 -1.18875,-1.04971 -2.15767,-1.36527c-0.96893,-0.31557 -2.37752,-0.55282 -4.22584,-0.71191l-0.81063,-0.0697l-2.05591,-0.12462c-0.62387,-0.0121 -1.12212,0.14684 -1.49483,0.47645c-0.37264,0.32968 -0.58377,0.802 -0.63346,1.41697c-0.02172,0.26939 -0.13212,0.39554 -0.33114,0.37837c-0.15777,-0.0137 -0.23479,-0.0863 -0.23099,-0.21829c-0.0027,-0.049 0.01391,-0.12776 0.05001,-0.23614c0.02996,-0.11589 0.07258,-0.38747 0.12768,-0.8147l0.14011,-1.09595l0.04403,-1.02037c0.0027,-0.34829 -0.002,-0.65527 -0.01245,-0.92102c-0.0027,-0.12561 0.00006,-0.24025 0.0085,-0.34384c0.01508,-0.18695 0.11149,-0.27272 0.28911,-0.25748c0.13664,0.0119 0.21172,0.10445 0.22525,0.27811l0.03829,0.3968c0.04351,0.54219 0.57811,0.8575 1.60387,0.94579l0.87045,0.0646l1.22729,0.12628c1.92515,0.16561 3.46927,0.39735 4.63251,0.69508c1.16323,0.29781 2.04708,0.6911 2.65161,1.17992c1.46814,1.17332 2.10186,3.00286 1.90117,5.4887c-0.14179,1.75601 -0.57186,3.09183 -1.29014,4.00759c-0.97929,1.24013 -2.72547,1.7521 -5.23845,1.53588l-3.86015,-0.44673l-1.82241,-0.12548c-0.45327,-0.0391 -0.777,-0.0201 -0.97118,0.0572c-0.19412,0.0771 -0.36955,0.2555 -0.52629,0.53473c-0.18071,0.32582 -0.31805,0.69727 -0.41215,1.11424c-0.06278,0.26627 -0.17613,0.39228 -0.34016,0.37824c-0.17762,-0.0152 -0.25702,-0.13984 -0.23813,-0.37378l-0.00005,0.00001z"/>
      <path fill="#000000" fill-rule="nonzero" id="path6377" d="m17.54466,143.36936c0.12078,-0.63807 0.35628,-1.23887 0.70642,-1.8024l0.40275,-0.62736c0.17517,-0.28176 0.27493,-0.48715 0.29936,-0.61603c0.01798,-0.0951 0.01366,-0.19834 -0.01308,-0.30965l-0.11472,-0.42514c-0.01599,-0.0595 -0.01882,-0.11658 -0.0085,-0.17107c0.027,-0.14265 0.14933,-0.19201 0.36697,-0.14811l0.7973,0.18226c0.12535,0.0252 0.24535,0.0423 0.36001,0.0513l0.99418,0.0658l0.91923,0.0815c0.08159,0.003 0.14875,0.009 0.20153,0.0202c0.28371,0.0573 0.40945,0.17098 0.37722,0.34119c-0.02326,0.12261 -0.16454,0.18608 -0.42381,0.19028c-0.95474,0.0119 -1.84149,0.34739 -2.66031,1.00685c-0.81882,0.65941 -1.31237,1.43386 -1.48084,2.3233c-0.11568,0.61111 -0.01746,1.18424 0.29466,1.71956c0.31212,0.53526 0.73916,0.85756 1.28111,0.96694c0.50257,0.10146 0.97466,-0.0117 1.41632,-0.33892c0.28525,-0.21065 0.82179,-0.93866 1.60948,-2.18411c0.94314,-1.48244 1.77008,-2.4237 2.48088,-2.82363c0.85402,-0.46999 1.80064,-0.60013 2.83987,-0.39041c1.14454,0.231 2.06004,0.8602 2.74635,1.88776c0.68638,1.02754 0.92084,2.11557 0.70333,3.26421c-0.08881,0.46893 -0.38444,1.18184 -0.88701,2.13887c-0.2411,0.4453 -0.4059,0.77552 -0.49445,0.99046c-0.11826,0.30068 -0.21016,0.47088 -0.27564,0.51066c-0.06548,0.0397 -0.24265,0.0481 -0.53145,0.0249c-0.31515,-0.0283 -0.78099,-0.0164 -1.39757,0.0355c-0.94198,0.078 -1.53774,0.0919 -1.78735,0.0415c-0.31522,-0.0637 -0.45282,-0.20107 -0.41286,-0.41226c0.01804,-0.0953 0.1095,-0.14756 0.27429,-0.15662c1.18824,-0.10684 2.24307,-0.49534 3.16456,-1.16539c0.92142,-0.67007 1.46601,-1.44805 1.63377,-2.33394c0.13032,-0.68822 -0.00659,-1.35429 -0.41086,-1.99833c-0.40422,-0.644 -0.93321,-1.03202 -1.58698,-1.16388c-0.51643,-0.10427 -0.96815,-0.0487 -1.35516,0.16646c-0.38702,0.2153 -0.79343,0.64058 -1.21911,1.27591l-0.96357,1.41711c-0.90892,1.33653 -1.69429,2.21025 -2.35605,2.62097c-0.66183,0.41077 -1.45983,0.52188 -2.39414,0.33333c-1.08551,-0.21903 -1.92431,-0.76713 -2.51646,-1.64425c-0.59216,-0.87711 -0.78538,-1.85882 -0.57965,-2.94512l-0.00002,-0.0002z"/>
      <path fill="#000000" fill-rule="nonzero" id="path6379" d="m47.16036,71.89299c1.06542,-1.61497 2.16932,-2.56088 3.3117,-2.83767c1.02393,-0.24391 1.95572,-0.0668 2.79543,0.53121c0.90546,0.64491 1.44179,1.53773 1.60891,2.67832c0.16713,1.14065 -0.08189,2.21517 -0.74711,3.22356c-0.36082,0.54704 -0.73291,0.98756 -1.11633,1.32162c-0.38336,0.33407 -0.64985,0.44791 -0.79943,0.34132c-0.14875,-0.10592 -0.17609,-0.23014 -0.08209,-0.37266c0.02247,-0.03406 0.06083,-0.07385 0.115,-0.11922c0.29461,-0.25084 0.5378,-0.52176 0.72964,-0.81258c0.45123,-0.68397 0.60798,-1.39967 0.47031,-2.14691c-0.13767,-0.74731 -0.53985,-1.35842 -1.20655,-1.8332c-0.83087,-0.59182 -1.67756,-0.8185 -2.54006,-0.68005c-0.8625,0.13846 -1.55993,0.61118 -2.09229,1.41817c-0.41147,0.62382 -0.59901,1.10632 -0.56258,1.44764c0.03644,0.34132 0.31196,0.69528 0.82658,1.06181l6.2343,4.44027c1.04031,0.74098 1.77437,1.15935 2.2021,1.25502c0.51232,0.11391 1.0003,-0.11969 1.46408,-0.7006l0.27501,-0.34358c0.11257,-0.14564 0.24473,-0.1644 0.39642,-0.05629c0.15169,0.10798 0.15624,0.27026 0.01345,0.48663c-0.03381,0.05124 -0.09393,0.12994 -0.18037,0.23593c-0.1371,0.17026 -0.26958,0.35229 -0.39738,0.54604l-0.92391,1.28849l-0.21175,0.33919c-0.2667,0.40426 -0.58973,0.9863 -0.96918,1.74618c-0.12083,0.24883 -0.22443,0.43879 -0.31088,0.56979c-0.12018,0.18224 -0.24838,0.22908 -0.38451,0.14046c-0.13049,-0.08463 -0.16321,-0.21304 -0.09816,-0.3853c0.1921,-0.51105 0.18537,-0.94704 -0.02017,-1.30799c-0.20554,-0.36094 -0.7144,-0.8306 -1.52644,-1.40905l-6.33726,-4.51358c-0.63109,-0.44944 -1.17395,-0.6535 -1.62858,-0.61225c-0.45462,0.04132 -0.9061,0.33447 -1.35439,0.87951c-0.16751,0.19129 -0.32425,0.23487 -0.47037,0.13081c-0.16296,-0.11604 -0.16348,-0.29674 -0.0013,-0.54212c0.04143,-0.0628 0.1383,-0.19088 0.2907,-0.38437c0.45347,-0.5998 0.95317,-1.31344 1.4991,-2.14105c0.25972,-0.39375 0.4659,-0.72502 0.61848,-0.99395l0.56783,-0.99222c0.18838,-0.33566 0.36921,-0.6348 0.54235,-0.89734l-0.0003,0.00001z"/>
      <path fill="#000000" fill-rule="nonzero" id="path6381" d="m56.8744,58.83941c0.0313,-0.03553 0.10322,-0.10765 0.21566,-0.21623c0.08548,-0.08756 0.19792,-0.21038 0.33719,-0.36846l0.70825,-0.74638l2.58207,-2.87346c1.46946,-1.66773 2.35232,-2.71691 2.64866,-3.14751c0.03093,-0.04558 0.05981,-0.08363 0.08671,-0.11417c0.13037,-0.14797 0.2763,-0.14505 0.43791,0.0086c0.1127,0.10725 0.32733,0.28257 0.64384,0.52615c0.46294,0.3636 0.78752,0.63393 0.97372,0.81111c0.37228,0.35416 0.47665,0.6342 0.31318,0.83999c-0.07933,0.1006 -0.22923,0.04597 -0.44969,-0.16368c-0.48453,-0.46101 -0.99909,-0.60958 -1.54374,-0.4459c-0.54458,0.1638 -1.18195,0.66008 -1.91223,1.48882l-0.82498,0.93633l-0.40084,0.57778c-0.1515,0.33566 -0.01876,0.70193 0.39828,1.09867l0.29505,0.29455l1.59676,1.51909c0.45615,0.43394 0.77599,0.67472 0.95957,0.72229c0.18358,0.04765 0.39271,-0.06161 0.62725,-0.32787l0.19588,-0.23746l0.28999,-0.34491l0.57533,-0.6529c0.44662,-0.50692 0.52563,-1.15163 0.23704,-1.9342l-0.2033,-0.51823c-0.04808,-0.12881 -0.02811,-0.24824 0.05988,-0.35829c0.09246,-0.11503 0.20721,-0.10738 0.3443,0.02302c0.03926,0.03732 0.14151,0.14618 0.30671,0.32642c0.12006,0.12947 0.22411,0.23612 0.31215,0.31996c0.15669,0.14903 0.54337,0.47651 1.16,0.9825c0.40288,0.32954 0.74391,0.62715 1.02309,0.89275l0.38137,0.34884c0.06863,0.06528 0.10841,0.11723 0.11942,0.15589c0.01132,0.0483 -0.0075,0.10545 -0.05673,0.17145c-0.10277,0.13733 -0.26573,0.12801 -0.48888,-0.02788c-0.47524,-0.33 -0.9266,-0.47751 -1.35407,-0.44238c-0.23461,0.0209 -0.45347,0.11085 -0.65664,0.2698c-0.20311,0.15901 -0.53665,0.50173 -1.0005,1.02821l-0.45929,0.52122c-0.21624,0.24545 -0.32816,0.44658 -0.33591,0.6036c-0.0076,0.15702 0.08266,0.35336 0.27124,0.58909c0.21789,0.26367 0.59145,0.64724 1.12055,1.15063l0.66138,0.62914c0.6907,0.65703 1.23734,1.07379 1.6401,1.25031c0.29723,0.12288 0.53677,0.1628 0.71869,0.11982c0.18191,-0.04298 0.38092,-0.18716 0.59696,-0.43233c1.82823,-2.07492 2.41757,-4.00853 1.76804,-5.80081c-0.02754,-0.09162 -0.03253,-0.15243 -0.01498,-0.18251c0.03515,-0.06021 0.09265,-0.09195 0.17263,-0.09541c0.07991,-0.0034 0.15188,0.02535 0.21598,0.08628c0.48279,0.45929 0.8317,1.03979 1.04665,1.74152c0.1864,0.59029 0.21374,1.13248 0.08203,1.62642c-0.13178,0.49395 -0.44271,1.0191 -0.93294,1.57545c-0.28776,0.32662 -0.62635,0.6706 -1.01573,1.03194l-0.86231,0.81258c-0.3167,0.29913 -0.72016,0.72688 -1.21032,1.28324c-0.32836,0.37258 -0.80494,0.96074 -1.42989,1.76434c-0.16923,0.22348 -0.29435,0.38124 -0.37548,0.47325c-0.10776,0.12236 -0.2204,0.13719 -0.33776,0.04438c-0.09316,-0.07904 -0.11007,-0.1984 -0.05071,-0.35815c0.14887,-0.39401 0.20938,-0.70047 0.18159,-0.91949c-0.02786,-0.21904 -0.16917,-0.50613 -0.42395,-0.86129c-0.21028,-0.30346 -0.53844,-0.66739 -0.98449,-1.09175l-5.83167,-5.5477c-0.54907,-0.52236 -1.00369,-0.78377 -1.3638,-0.78417c-0.36012,-0.0004 -0.83773,0.25522 -1.4329,0.76687c-0.14144,0.11863 -0.27495,0.11816 -0.40058,-0.0014c-0.11551,-0.10998 -0.09912,-0.2491 0.04925,-0.4175l-0.00004,0.00012z"/>
      <path fill="#000000" fill-rule="nonzero" id="path6383" d="m81.08716,35.15905c0.28545,-0.23693 0.53101,-0.23826 0.73662,-0.0041l0.48606,0.54744c0.07543,0.08684 0.26932,0.2823 0.58153,0.58656c0.25619,0.25389 0.4504,0.46686 0.58256,0.63885c0.13632,0.17738 0.13383,0.32462 -0.0073,0.44179c-0.12044,0.09993 -0.28302,0.06686 -0.48779,-0.09927c-0.49509,-0.41204 -0.98211,-0.60067 -1.46113,-0.5658c-0.47896,0.03487 -1.01177,0.29561 -1.59829,0.7823c-0.78881,0.6545 -1.23178,1.12602 -1.32891,1.41438c-0.09707,0.28835 0.04731,0.68356 0.43317,1.18569l4.6864,6.09775c0.70108,0.91225 1.32532,1.45304 1.8726,1.62223c0.54721,0.16926 1.15986,0.0079 1.83783,-0.4839c0.1999,-0.13866 0.36786,-0.11949 0.50386,0.05747c0.09778,0.12721 0.06615,0.25762 -0.09489,0.39128c-0.03624,0.03006 -0.10322,0.0811 -0.201,0.15317l-0.60349,0.46001l-1.02444,0.74225c-0.08202,0.0592 -0.18793,0.14272 -0.31785,0.25057c-0.30108,0.24983 -0.56495,0.48197 -0.79169,0.69634l-1.64357,1.53032c-0.16571,0.17145 -0.28232,0.28523 -0.34987,0.34125c-0.16097,0.13366 -0.29333,0.12748 -0.39699,-0.01829c-0.08689,-0.12408 -0.12051,-0.22322 -0.10085,-0.29741c0.01966,-0.07426 0.10328,-0.18143 0.25074,-0.32169c0.38464,-0.36327 0.58058,-0.77558 0.58775,-1.23686c0.007,-0.46128 -0.17391,-0.93214 -0.54324,-1.41264l-0.30029,-0.3742l-5.52662,-7.1911c-0.32771,-0.42642 -0.71222,-0.45656 -1.15352,-0.09029c-1.03821,0.86141 -1.6864,1.52781 -1.94476,1.9992c-0.18345,0.34757 -0.26343,0.63347 -0.23987,0.85762c0.02355,0.22415 0.18429,0.69601 0.48222,1.41551l0.11238,0.27911c0.11289,0.26979 0.10904,0.45469 -0.01133,0.55469c-0.17301,0.14351 -0.31869,0.12721 -0.43689,-0.04904c-0.11109,-0.15549 -0.24703,-0.38763 -0.40775,-0.69641l-0.46395,-0.76952l-0.46102,-0.79874l-0.32541,-0.53932c-0.14113,-0.22794 -0.11308,-0.42375 0.08421,-0.58749c0.05194,-0.04305 0.14445,-0.11071 0.27751,-0.20306c0.21521,-0.15137 0.50969,-0.38211 0.88344,-0.69229l1.60143,-1.30173l1.91172,-1.54551c1.21999,-1.01231 2.48698,-2.1185 3.80097,-3.3187c0.26202,-0.2344 0.43196,-0.38384 0.50976,-0.44844l-0.00005,0.00002z"/>
      <path fill="#000000" fill-rule="nonzero" id="path6385" d="m94.59314,26.51576c0.1903,-0.11371 0.32547,-0.09814 0.40564,0.04665c0.05994,0.10831 0.08547,0.18922 0.07671,0.24278c-0.0088,0.05342 -0.06615,0.12382 -0.17186,0.21098c-0.37651,0.32069 -0.57744,0.60046 -0.60292,0.83932c-0.02543,0.23886 0.10462,0.6163 0.39027,1.13227l4.23926,7.65897l0.56764,0.85842c0.32483,0.42062 0.68982,0.67352 1.09486,0.75888c0.405,0.08528 0.82428,-0.0014 1.25773,-0.26061c0.28325,-0.1692 0.47498,-0.16341 0.57518,0.01763c0.0968,0.17491 -0.0423,0.37438 -0.41755,0.5986c-0.16149,0.09647 -0.40122,0.21836 -0.71933,0.36554c-0.8002,0.35782 -1.43404,0.67638 -1.90147,0.95569c-0.57699,0.34484 -1.01515,0.64943 -1.31431,0.91371c-0.25625,0.23093 -0.44783,0.38436 -0.57481,0.46021c-0.12697,0.07592 -0.24338,0.05974 -0.34916,-0.04851l-0.0582,-0.06321l0.13446,-0.36208c0.3306,-0.40446 0.50175,-0.75961 0.51354,-1.06534c0.01178,-0.30572 -0.12647,-0.71896 -0.41474,-1.23972l-0.43349,-0.80386l-3.96009,-7.15451c-0.30479,-0.5507 -0.61419,-0.88749 -0.92814,-1.01038c-0.31401,-0.12289 -0.73803,-0.07657 -1.27218,0.13906c-0.32169,0.12688 -0.53716,0.19241 -0.64639,0.1964c-0.1093,0.0041 -0.19447,-0.0491 -0.25562,-0.15955c-0.09509,-0.17178 -0.07171,-0.296 0.07005,-0.37258c0.10732,-0.05595 0.27662,-0.12449 0.50803,-0.20559c0.23474,-0.07498 0.59728,-0.25895 1.08757,-0.55197c0.32298,-0.19301 0.71248,-0.45296 1.16858,-0.7799l0.60247,-0.43008c0.56815,-0.4018 1.01093,-0.69754 1.32827,-0.88723l0,0.00001z"/>
      <path fill="#000000" fill-rule="nonzero" id="path6387" d="m120.91312,15.23027c0.22072,-0.07798 0.3612,-0.02502 0.42147,0.15908c0.0493,0.15123 -0.009,0.26341 -0.17378,0.3366c-0.57565,0.25469 -0.92129,0.60718 -1.03675,1.05755c-0.11557,0.4503 -0.0306,1.11125 0.25478,1.98277l0.22861,0.66501l2.22484,6.03474l0.14131,0.39967c0.29615,0.90439 0.66802,1.52056 1.11549,1.84844c0.44746,0.32794 1.03295,0.40792 1.75645,0.23992c0.18473,-0.03533 0.30447,0.03067 0.35934,0.1982c0.0592,0.18091 -0.12486,0.34698 -0.55228,0.49807c-0.12576,0.0445 -0.33307,0.09701 -0.62199,0.15756c-0.79854,0.17438 -1.35804,0.31823 -1.67872,0.4316c-0.65997,0.2334 -1.19911,0.46141 -1.61731,0.68397c-0.39301,0.21377 -0.6649,0.34731 -0.81562,0.40053c-0.15719,0.05563 -0.26324,-0.00033 -0.31811,-0.16786c-0.0416,-0.12735 0.0194,-0.24984 0.1832,-0.3676c0.32226,-0.23074 0.51928,-0.48663 0.59126,-0.76754c0.072,-0.2809 0.0338,-0.6471 -0.1139,-1.0986c-0.0708,-0.2161 -0.12424,-0.3688 -0.16047,-0.45808l-2.40503,-6.42138c-0.0643,-0.17458 -0.13421,-0.24837 -0.21015,-0.22149c-0.095,0.03353 -0.16578,0.25942 -0.21259,0.67758l-1.00388,9.09656l-0.035,0.34112c-0.0486,0.47006 -0.13139,0.72934 -0.24819,0.77791c-0.13549,0.05509 -0.48491,-0.22295 -1.04832,-0.83433l-0.81441,-0.85143l-5.31693,-5.9424l-0.11417,-0.12402c-0.0401,-0.03699 -0.0854,-0.04657 -0.13556,-0.02888c-0.10039,0.03553 -0.10652,0.18763 -0.0186,0.45629l0.0939,0.31763l1.50761,5.00341l0.11974,0.39647l0.38734,0.89342c0.49176,0.90073 1.17907,1.31557 2.062,1.24451c0.30746,-0.02648 0.48645,0.03739 0.53689,0.19149c0.0571,0.17425 -0.0251,0.30053 -0.24664,0.37877c-0.17065,0.06034 -0.37823,0.11604 -0.62258,0.16687l-0.70498,0.14311c-0.17922,0.03506 -0.43004,0.10965 -0.75251,0.22369c-0.57576,0.20353 -1.01592,0.38996 -1.32046,0.55935c-0.19599,0.11231 -0.34775,0.18742 -0.45539,0.22548c-0.19605,0.06933 -0.32265,0.0169 -0.3797,-0.15735c-0.0395,-0.12056 0.008,-0.2344 0.14113,-0.34145c0.42939,-0.34159 0.68469,-0.7694 0.76582,-1.2835c0.0813,-0.51404 -0.005,-1.15709 -0.25747,-1.92895l-1.85943,-6.53508l-0.1869,-0.66746c-0.25708,-0.78504 -0.64319,-1.33647 -1.15826,-1.65423c-0.51514,-0.31777 -1.09385,-0.36308 -1.73607,-0.136c-0.23922,0.08455 -0.389,0.03466 -0.44939,-0.14956c-0.0626,-0.19102 0.0417,-0.3344 0.3128,-0.43021c0.0566,-0.02003 0.13017,-0.04233 0.22064,-0.0668l0.5615,-0.1537c0.10296,-0.02894 0.23325,-0.07125 0.39085,-0.12701c0.29627,-0.10472 0.57956,-0.22728 0.84995,-0.36773c0.41089,-0.20512 0.67944,-0.33001 0.80558,-0.37458c0.41595,-0.14704 0.77964,-0.04551 1.09111,0.30465l6.75863,7.43216c0.29658,0.32621 0.5006,0.466 0.61196,0.41943c0.11089,-0.04651 0.18307,-0.2217 0.21644,-0.52556l0.9785,-9.13907c0.0896,-0.86401 0.17596,-1.41644 0.25883,-1.65749c0.0829,-0.24098 0.24088,-0.40266 0.47409,-0.4851c0.0882,-0.0312 0.23017,-0.0702 0.42581,-0.1169c0.18932,-0.04457 0.38168,-0.10133 0.57698,-0.17039c0.25855,-0.09142 0.56918,-0.22741 0.93191,-0.40798c0.18871,-0.08915 0.33028,-0.15044 0.42478,-0.1839z"/>
      <path fill="#000000" fill-rule="nonzero" id="path6389" d="m133.49109,12.50732c0.0732,-0.0052 0.20965,-0.0052 0.40974,0.0006c0.84707,0.01877 1.49923,0.01171 1.95649,-0.02102c0.64966,-0.0465 1.36643,-0.13426 2.15037,-0.26334c0.31662,-0.04903 0.54453,-0.07851 0.68359,-0.0885c0.34468,-0.02469 0.52371,0.06375 0.53709,0.26521c0.008,0.11118 -0.014,0.18955 -0.0646,0.23513c-0.0502,0.04544 -0.17357,0.09621 -0.36983,0.15216c-0.39905,0.11171 -0.66062,0.28816 -0.78457,0.52941c-0.12398,0.24125 -0.18044,0.69774 -0.16944,1.3694l0.0137,2.62043l0.1415,1.83074c0.11072,1.6702 0.27412,2.85303 0.49003,3.54825c0.21598,0.69527 0.60588,1.27585 1.16979,1.74165c0.85297,0.70878 1.9059,1.0183 3.15893,0.92861c1.27954,-0.09155 2.28773,-0.55862 3.02458,-1.40113c0.4951,-0.56913 0.81987,-1.372 0.97439,-2.40846c0.15443,-1.03653 0.1684,-2.50985 0.0417,-4.42003l-0.0555,-0.8378l-0.19063,-2.11684c-0.0825,-0.63845 -0.3085,-1.12289 -0.67809,-1.45323c-0.36958,-0.3304 -0.85065,-0.47438 -1.4432,-0.432c-0.25953,0.01857 -0.3961,-0.07498 -0.40974,-0.28064c-0.0109,-0.16307 0.0471,-0.25269 0.17296,-0.26879c0.0464,-0.01017 0.12365,-0.0052 0.23211,0.01531c0.11479,0.01303 0.37957,0.01543 0.79424,0.0069l1.06369,-0.0229l0.97731,-0.10957c0.33161,-0.05029 0.62303,-0.101 0.87422,-0.15203c0.1191,-0.02182 0.2286,-0.03626 0.32842,-0.04344c0.18011,-0.0129 0.27623,0.07245 0.2884,0.25602c0.009,0.14125 -0.0675,0.23193 -0.23064,0.27199l-0.37176,0.09907c-0.50932,0.12648 -0.72881,0.71982 -0.65852,1.77991l0.0695,0.898l0.0645,1.27146c0.13197,1.98963 0.14375,3.60048 0.0354,4.83255c-0.10834,1.23207 -0.3496,2.19362 -0.72374,2.88444c-0.89541,1.67578 -2.54059,2.5994 -4.93555,2.77086c-1.69177,0.12109 -3.02721,-0.11557 -4.00638,-0.70998c-1.32705,-0.81165 -2.07666,-2.51604 -2.24884,-5.11312l-0.15554,-4.00679l-0.15464,-1.87865c-0.031,-0.46847 -0.0979,-0.79594 -0.20054,-0.98237c-0.10265,-0.1865 -0.29852,-0.33853 -0.58781,-0.45616c-0.33713,-0.13506 -0.71107,-0.21903 -1.1219,-0.25196c-0.26278,-0.02375 -0.39975,-0.12036 -0.41102,-0.28982c-0.0123,-0.18363 0.0944,-0.2835 0.31977,-0.2996l0.00006,0.00007z"/>
      <path fill="#000000" fill-rule="nonzero" id="path6391" d="m164.31951,12.70782c0.61893,0.09514 1.20724,0.31038 1.76509,0.64551l0.62156,0.38636c0.27885,0.16766 0.48087,0.26121 0.60592,0.28037c0.0923,0.01425 0.19126,0.0045 0.29711,-0.02775l0.4034,-0.13779c0.0567,-0.0193 0.11128,-0.02488 0.1641,-0.0167c0.13838,0.02129 0.1914,0.14511 0.15912,0.37159l-0.13869,0.83061c-0.0186,0.1304 -0.0297,0.25496 -0.0327,0.37365l-0.0178,1.02835l-0.0362,0.9517c0.00087,0.08425 -0.003,0.15382 -0.0101,0.20878c-0.042,0.29514 -0.14561,0.43001 -0.31074,0.40466c-0.11897,-0.01836 -0.1864,-0.16108 -0.20241,-0.42828c-0.0551,-0.9841 -0.41812,-1.8831 -1.08956,-2.69715c-0.67143,-0.81404 -1.43853,-1.28742 -2.30129,-1.42009c-0.5928,-0.09122 -1.13937,0.03646 -1.63965,0.38297c-0.50035,0.34657 -0.79066,0.80179 -0.87102,1.36567c-0.0746,0.52295 0.0559,1.00466 0.39067,1.44505c0.21551,0.28449 0.93996,0.80419 2.17328,1.55921c1.46836,0.90433 2.41104,1.71378 2.82808,2.42842c0.49093,0.85902 0.65933,1.82921 0.50527,2.91058c-0.16969,1.19102 -0.73277,2.16408 -1.68921,2.91917c-0.95639,0.75516 -1.99176,1.04704 -3.10591,0.87565c-0.45488,-0.06999 -1.15379,-0.34205 -2.09677,-0.8163c-0.43926,-0.22808 -0.76423,-0.38284 -0.97488,-0.46427c-0.29449,-0.10812 -0.46232,-0.19508 -0.50355,-0.26075c-0.0411,-0.06574 -0.0573,-0.24804 -0.0482,-0.54691c0.0129,-0.32634 -0.0201,-0.80619 -0.0981,-1.43959c-0.11819,-0.96786 -0.15872,-1.58164 -0.12171,-1.84138c0.0468,-0.32795 0.17249,-0.47625 0.37739,-0.44472c0.0925,0.01424 0.14684,0.10612 0.16317,0.27565c0.15706,1.2205 0.57876,2.29043 1.26505,3.20979c0.68637,0.91943 1.45923,1.44525 2.31859,1.57745c0.66759,0.10266 1.30162,-0.06926 1.90231,-0.51577c0.60062,-0.44644 0.94939,-1.00985 1.04634,-1.69009c0.0765,-0.53746 0.003,-1.00074 -0.22207,-1.38996c-0.22468,-0.38922 -0.65209,-0.78869 -1.28236,-1.19847l-1.40644,-0.92841c-1.32655,-0.87579 -2.20237,-1.64545 -2.62752,-2.30899c-0.42519,-0.66354 -0.56848,-1.48144 -0.42999,-2.45363c0.16091,-1.12948 0.64947,-2.01977 1.46562,-2.6708c0.81614,-0.6511 1.75106,-0.89554 2.80484,-0.7334l-0.00004,0.00001z"/>
      <path fill="#000000" fill-rule="nonzero" id="path6393" d="m186.1616,18.37209c-1.15394,-0.44125 -2.22077,-0.35611 -3.20061,0.25554c-0.97985,0.6116 -1.73269,1.65982 -2.25862,3.14456c-0.70708,1.99633 -0.83865,3.81214 -0.39472,5.44743c0.44393,1.63529 1.3618,2.71917 2.75371,3.25143c1.17193,0.44821 2.28093,0.3302 3.32703,-0.35408c1.0461,-0.68428 1.84843,-1.81505 2.40709,-3.39232c0.63721,-1.79888 0.69956,-3.50989 0.18711,-5.13299c-0.51248,-1.62315 -1.45278,-2.69628 -2.82099,-3.21957zm1.15383,-0.37558c1.80238,0.68934 3.05263,1.81638 3.75066,3.38114c0.69795,1.56475 0.71735,3.27766 0.0581,5.13867c-0.47356,1.33702 -1.19062,2.44112 -2.15107,3.3123c-0.56637,0.51811 -1.15759,0.89716 -1.77354,1.13735c-0.61591,0.24012 -1.37069,0.38872 -2.26434,0.4458c-0.24806,0.01714 -0.387,0.05841 -0.41693,0.12401c-0.0391,0.09159 0.094,0.31319 0.39942,0.66462l0.79795,0.93395c0.38408,0.4525 0.82754,0.77498 1.33048,0.96726c0.33724,0.129 0.76944,0.10384 1.29647,-0.07547c0.077,-0.02706 0.13984,-0.03464 0.18906,-0.02276c0.0493,0.01169 0.0875,0.06459 0.11441,0.15877c0.0271,0.09418 0.0267,0.17079 -0.00081,0.22976c-0.0574,0.12471 -0.35294,0.29442 -0.88629,0.5092c-1.04013,0.41166 -1.92137,0.47936 -2.64366,0.20314c-0.43822,-0.16762 -0.86506,-0.44327 -1.28048,-0.82694c-0.41546,-0.38373 -0.95351,-1.00037 -1.61411,-1.84994c-0.80691,-1.0249 -1.35304,-1.68504 -1.63835,-1.98034c-0.28534,-0.2953 -0.58487,-0.50294 -0.89862,-0.62291c-0.47977,-0.18349 -0.95631,-0.13387 -1.42957,0.14886c-0.47325,0.28272 -0.81409,0.71816 -1.02236,1.30617c-0.0704,0.19803 -0.1828,0.26737 -0.3381,0.20795c-0.19125,-0.07314 -0.24107,-0.23917 -0.14934,-0.49813l0.22556,-0.72252l0.33864,-0.56368c0.27398,-0.34334 0.73161,-0.67246 1.3728,-0.98749c0.08,-0.03925 0.12563,-0.07432 0.13658,-0.1053c0.0151,-0.04298 -0.0758,-0.22135 -0.27307,-0.53505c-0.47623,-0.75621 -0.74742,-1.67037 -0.8136,-2.74236c-0.0661,-1.07199 0.0821,-2.11984 0.44467,-3.14354c0.71426,-2.01643 1.9151,-3.41091 3.60246,-4.18342c1.68743,-0.77252 3.53317,-0.77555 5.53734,-0.0091l-0.00036,0z"/>
      <path fill="#000000" fill-rule="nonzero" id="path6395" d="m204.85105,26.77309c0.0613,0.04144 0.17031,0.12694 0.32695,0.25655c0.66577,0.54445 1.19085,0.94651 1.57503,1.20619c0.54593,0.36887 1.16935,0.74678 1.8703,1.13374c0.28136,0.15868 0.48043,0.27751 0.59728,0.35649c0.28967,0.19574 0.38149,0.37831 0.27553,0.54757c-0.0584,0.09348 -0.12102,0.14265 -0.18761,0.1475c-0.0664,0.0045 -0.19439,-0.0316 -0.38355,-0.10958c-0.38341,-0.16014 -0.69454,-0.1827 -0.93326,-0.06746c-0.2387,0.11524 -0.54804,0.44458 -0.92808,0.98803l-1.50606,2.10186l-0.94678,1.55091c-0.87851,1.40346 -1.43277,2.45043 -1.66277,3.14079c-0.23001,0.69042 -0.25459,1.39794 -0.0738,2.12249c0.27106,1.09934 0.93301,2.00473 1.98588,2.71631c1.07522,0.72661 2.15102,0.9837 3.22738,0.77126c0.72496,-0.14518 1.44916,-0.58351 2.17265,-1.31498c0.72343,-0.73147 1.58748,-1.89973 2.59218,-3.50479l0.44061,-0.704l1.07329,-1.81018c0.3037,-0.56155 0.4036,-1.08976 0.29961,-1.5847c-0.10398,-0.49501 -0.40493,-0.91072 -0.90285,-1.24718c-0.21802,-0.14737 -0.27302,-0.30745 -0.16482,-0.4803c0.0857,-0.137 0.18371,-0.17259 0.29379,-0.10659c0.0428,0.02076 0.10167,0.07319 0.17653,0.15728c0.0841,0.08217 0.29429,0.24957 0.63039,0.50207l0.86302,0.64651l0.84412,0.52335c0.29408,0.16707 0.55625,0.30878 0.78643,0.42502c0.10777,0.05701 0.20362,0.11384 0.2875,0.17052c0.15132,0.10233 0.17872,0.23054 0.0823,0.38483c-0.0743,0.1187 -0.18819,0.14305 -0.34173,0.07305l-0.35435,-0.15315c-0.48005,-0.21731 -0.99882,0.11942 -1.55643,1.01024l-0.46436,0.76075l-0.68461,1.05602c-1.04647,1.6718 -1.9696,2.96601 -2.76942,3.88251c-0.79981,0.91651 -1.54911,1.53381 -2.24795,1.85184c-1.68544,0.77897 -3.53441,0.48849 -5.5468,-0.87153c-1.42156,-0.96068 -2.35135,-1.98443 -2.78946,-3.07133c-0.59023,-1.47785 -0.20242,-3.30786 1.16358,-5.49023l2.19539,-3.29801l0.96405,-1.59734c0.2464,-0.39368 0.38259,-0.69701 0.40852,-0.91012c0.0259,-0.21311 -0.0426,-0.45702 -0.20554,-0.7318c-0.19107,-0.31863 -0.44123,-0.61943 -0.75031,-0.90253c-0.19619,-0.18317 -0.24966,-0.34598 -0.16053,-0.48843c0.0966,-0.15429 0.23954,-0.1674 0.42889,-0.03946l-0.00013,0.00001z"/>
      <path fill="#000000" fill-rule="nonzero" id="path6397" d="m226.30199,43.2926c0.0335,0.0332 0.10154,0.10932 0.20387,0.22828c0.0825,0.09049 0.19855,0.20965 0.34793,0.35749l0.70443,0.7503l2.71461,2.73839c1.57606,1.55902 2.56842,2.49662 2.97701,2.81285c0.0433,0.033 0.0794,0.0638 0.10815,0.09228c0.13985,0.13832 0.13428,0.28989 -0.0167,0.45476c-0.1054,0.11504 -0.27834,0.3346 -0.51885,0.65868c-0.35883,0.47386 -0.62533,0.80579 -0.79943,0.99581c-0.34796,0.37984 -0.61944,0.48284 -0.81428,0.30899c-0.0952,-0.08435 -0.0398,-0.23906 0.16627,-0.46401c0.45297,-0.49441 0.60594,-1.02608 0.45899,-1.59501c-0.14695,-0.56894 -0.61208,-1.24086 -1.39531,-2.01564l-0.88491,-0.87526l-0.54812,-0.42767c-0.32003,-0.16394 -0.67502,-0.03314 -1.06483,0.39241l-0.28924,0.30073l-1.49276,1.62942c-0.42639,0.46533 -0.66426,0.79294 -0.7137,0.98277c-0.0492,0.18975 0.0517,0.40911 0.30332,0.65801l0.22469,0.20806l0.32624,0.30805l0.61708,0.61031c0.479,0.47385 1.09786,0.56853 1.85645,0.2839l0.50258,-0.20106c0.12487,-0.04744 0.23942,-0.02435 0.34354,0.06913c0.10898,0.09834 0.0993,0.21736 -0.0289,0.35728c-0.0367,0.03999 -0.14343,0.14411 -0.32015,0.31231c-0.12692,0.12216 -0.23149,0.22815 -0.31383,0.31803c-0.14649,0.15995 -0.46916,0.55523 -0.96796,1.18597c-0.32496,0.41217 -0.61796,0.76061 -0.87895,1.04551l-0.34308,0.38942c-0.0642,0.06999 -0.11494,0.11031 -0.15227,0.12102c-0.0469,0.01091 -0.10137,-0.0099 -0.16391,-0.06227c-0.13013,-0.10944 -0.11803,-0.27857 0.0364,-0.50732c0.32675,-0.48729 0.47747,-0.95329 0.45199,-1.39813c-0.0155,-0.24412 -0.0978,-0.47326 -0.2469,-0.68743c-0.149,-0.21411 -0.47229,-0.56727 -0.96982,-1.05942l-0.49259,-0.48729c-0.23193,-0.22941 -0.42338,-0.34957 -0.57425,-0.36068c-0.15091,-0.01111 -0.34159,0.07903 -0.57212,0.27032c-0.25797,0.22123 -0.63428,0.60187 -1.12893,1.14172l-0.61823,0.67479c-0.64568,0.70479 -1.05735,1.26461 -1.23497,1.67958c-0.12402,0.30638 -0.16711,0.55449 -0.12927,0.74431c0.038,0.18989 0.17262,0.39933 0.40436,0.62861c1.96096,1.93966 3.80999,2.58956 5.54724,1.94964c0.0887,-0.02681 0.14727,-0.0308 0.17587,-0.01197c0.0572,0.03766 0.0866,0.098 0.0884,0.1811c0.002,0.08318 -0.0274,0.15742 -0.0872,0.22276c-0.45128,0.49261 -1.01667,0.84378 -1.69605,1.05343c-0.57162,0.18217 -1.09387,0.20006 -1.56653,0.05356c-0.47275,-0.14645 -0.972,-0.47971 -1.49776,-0.99981c-0.3087,-0.30532 -0.6331,-0.6638 -0.97316,-1.07531l-0.76518,-0.91172c-0.28166,-0.33479 -0.68531,-0.76221 -1.21115,-1.2823c-0.35211,-0.34837 -0.90873,-0.85496 -1.66982,-1.51983c-0.21181,-0.18018 -0.36112,-0.31324 -0.44809,-0.39927c-0.11565,-0.11437 -0.12768,-0.23167 -0.0361,-0.35177c0.0778,-0.09528 0.19306,-0.11051 0.34558,-0.04571c0.37625,0.16235 0.66998,0.23114 0.88127,0.20653c0.21124,-0.02468 0.49024,-0.16587 0.83695,-0.42362c0.29609,-0.21258 0.65261,-0.54645 1.06966,-1.00154l5.45156,-5.95051c0.51327,-0.56021 0.77363,-1.02741 0.78105,-1.40153c0.008,-0.37412 -0.22929,-0.87532 -0.71003,-1.50353c-0.11135,-0.14924 -0.10835,-0.28796 0.009,-0.41611c0.10801,-0.11789 0.2416,-0.0982 0.40079,0.05921l0.00005,0z"/>
      <path fill="#000000" fill-rule="nonzero" id="path6399" d="m272.57922,116.43578c0.0428,0.1159 -0.0156,0.20545 -0.17576,0.26866c-0.14732,0.058 -0.27622,-0.003 -0.38675,-0.18196c-0.20825,-0.3493 -0.50779,-0.58245 -0.89867,-0.69961c-0.39094,-0.1171 -1.14603,-0.20625 -2.26544,-0.26741l-3.76993,-0.16486l-4.149,-0.25934c-1.3551,-0.0787 -2.08157,-0.12475 -2.1796,-0.13792c-0.82307,-0.0743 -1.29612,-0.11325 -1.41916,-0.11658c-0.32732,-0.0131 -0.5248,-0.11065 -0.5924,-0.29328c-0.0461,-0.12423 -0.007,-0.25169 0.11607,-0.38257l0.39462,-0.41157l0.48155,-0.46781l4.18646,-4.28697c1.0277,-1.05043 1.9622,-1.95662 2.80339,-2.71844c0.98336,-0.89939 1.61096,-1.55216 1.88274,-1.95828c0.27177,-0.40612 0.37102,-0.85309 0.29774,-1.34085c-0.0441,-0.27771 0.0138,-0.44811 0.17403,-0.51131c0.17292,-0.0682 0.29272,-0.0124 0.35942,0.16787c0.0192,0.0514 0.0488,0.15036 0.0895,0.29673c0.086,0.34212 0.21022,0.73207 0.37237,1.16987l0.55614,1.63932l0.41807,0.99694c0.18252,0.42223 0.29757,0.69767 0.34525,0.82635c0.0666,0.18018 0.0135,0.30439 -0.15924,0.37266c-0.14735,0.058 -0.29713,-0.0392 -0.44948,-0.29189c-0.25909,-0.44878 -0.61651,-0.58324 -1.07223,-0.40341c-0.56179,0.22177 -1.54135,1.01559 -2.93873,2.38153l-4.31767,4.19203c-0.18851,0.18642 -0.27139,0.32002 -0.24865,0.40079c0.0203,0.0739 0.13658,0.11697 0.34913,0.12966l5.50261,0.33641c1.80534,0.11225 3.04895,0.0337 3.73081,-0.23533c0.38792,-0.15303 0.65345,-0.41864 0.79679,-0.79667c0.14326,-0.37798 0.1557,-0.84312 0.0374,-1.39521c-0.0579,-0.23573 -0.0132,-0.38265 0.13406,-0.4408c0.14727,-0.0581 0.25076,-0.007 0.31039,0.15423c0.031,0.0838 0.0914,0.26673 0.18117,0.5487l0.31799,1.03707c0.14371,0.46739 0.25142,0.79773 0.32301,0.99108c0.217,0.58597 0.44385,1.07958 0.68051,1.48085c0.0877,0.15728 0.14811,0.28102 0.18156,0.37132l-0.00007,0z"/>
      <path fill="#000000" fill-rule="nonzero" id="path6401" d="m276.33984,131.31859c0.0573,0.22021 0.008,0.35196 -0.14829,0.39532c-0.11691,0.0324 -0.19928,0.0375 -0.2471,0.0148c-0.048,-0.0224 -0.0989,-0.0981 -0.1532,-0.22661c-0.20313,-0.4604 -0.41324,-0.734 -0.63031,-0.82075c-0.21706,-0.0868 -0.604,-0.053 -1.16085,0.10159l-8.26488,2.29429l-0.95023,0.35002c-0.47757,0.21843 -0.80857,0.52016 -0.99296,0.90506c-0.18446,0.38491 -0.21133,0.82828 -0.0807,1.33001c0.0853,0.32789 0.0304,0.51897 -0.16487,0.57319c-0.18871,0.0524 -0.33958,-0.13859 -0.45276,-0.57285c-0.0487,-0.1869 -0.10084,-0.45895 -0.15666,-0.81617c-0.12851,-0.89543 -0.26322,-1.61366 -0.40416,-2.15476c-0.17395,-0.66794 -0.34603,-1.18597 -0.5163,-1.5543c-0.15009,-0.3165 -0.24432,-0.54831 -0.28261,-0.69529c-0.0384,-0.14689 0.007,-0.25966 0.13553,-0.33824l0.0743,-0.0422l0.30427,0.22781c0.29344,0.4358 0.58177,0.69881 0.86496,0.78896c0.28318,0.0902 0.70578,0.0572 1.26777,-0.0987l0.86452,-0.22934l7.7205,-2.14312c0.59428,-0.16501 0.98943,-0.38935 1.18553,-0.67319c0.19612,-0.28383 0.26211,-0.72156 0.19805,-1.31339c-0.0359,-0.35554 -0.0414,-0.5888 -0.0171,-0.69952c0.0243,-0.11077 0.0962,-0.1827 0.21533,-0.21578c0.18542,-0.0515 0.29563,0.004 0.3308,0.16587c0.0246,0.12211 0.0452,0.30973 0.0614,0.56295c0.01,0.25503 0.0884,0.66628 0.23621,1.2338c0.0973,0.37385 0.24027,0.83168 0.42864,1.37352l0.24723,0.71545c0.22955,0.67357 0.39224,1.19407 0.48794,1.56155l0,0.00002z"/>
      <path fill="#000000" fill-rule="nonzero" id="path6403" d="m280.15567,149.20642c0.20707,1.27311 0.12336,2.42855 -0.25122,3.46645l-0.26694,0.73907c-0.0572,0.14983 -0.0767,0.2793 -0.059,0.38836c0.0222,0.13612 0.0909,0.22922 0.20612,0.27917l0.33797,0.16247c0.0577,0.0252 0.0939,0.0823 0.10834,0.171c0.0344,0.21197 -0.16267,0.35522 -0.59146,0.42947l-0.72026,0.13567l-0.90049,0.15609l-0.73819,0.21416l-0.42967,0.17133c-0.21088,0.0797 -0.4021,0.13432 -0.57366,0.16401c-0.25058,0.0435 -0.39147,-0.0305 -0.42266,-0.22209c-0.0178,-0.10932 0.0496,-0.19474 0.20237,-0.25643c0.24194,-0.0981 0.59558,-0.35389 1.06076,-0.7676c0.46526,-0.41377 0.82572,-0.79361 1.08145,-1.13965c1.04729,-1.40173 1.4528,-2.82888 1.21654,-4.28151c-0.20966,-1.28896 -0.89275,-2.24698 -2.04922,-2.87407c-1.15652,-0.62702 -2.55262,-0.79873 -4.18833,-0.51517c-2.13698,0.3704 -3.73479,1.32423 -4.79355,2.86135c-0.78892,1.15396 -1.08847,2.31412 -0.8988,3.48052c0.11208,0.68896 0.3903,1.39123 0.83466,2.10679c0.44438,0.71564 0.93948,1.25404 1.48529,1.61517l0.80871,0.54379c0.12044,0.0753 0.19101,0.15575 0.21165,0.24117c0.0273,0.12583 -0.0352,0.20194 -0.18709,0.2283c-0.27069,0.0471 -0.74697,-0.14698 -1.42884,-0.58166c-1.77471,-1.14131 -2.8304,-2.74671 -3.16701,-4.81623c-0.32558,-2.0014 0.0309,-3.73434 1.06934,-5.19882c1.03839,-1.46441 2.55157,-2.36895 4.53956,-2.71357c1.0897,-0.18897 2.19455,-0.13892 3.31448,0.14996c1.11998,0.28883 2.0706,0.76794 2.85191,1.43727c1.27919,1.10133 2.05829,2.50971 2.3373,4.22523l-0.00006,0z"/>
      <path fill="#000000" fill-rule="nonzero" id="path6405" d="m282.27107,170.30379c0.016,0.2274 -0.0565,0.34723 -0.21784,0.35942c-0.12078,0.009 -0.2025,-0.002 -0.24536,-0.0335c-0.0428,-0.0314 -0.0791,-0.11572 -0.10904,-0.2525c-0.11537,-0.49162 -0.27172,-0.80121 -0.46906,-0.92875c-0.19728,-0.12742 -0.58352,-0.16953 -1.1586,-0.12614l-8.5357,0.64377l-0.99709,0.15876c-0.50895,0.12156 -0.88914,0.35334 -1.14055,0.69547c-0.25141,0.34211 -0.35878,0.77226 -0.3221,1.29049c0.0238,0.3386 -0.065,0.51556 -0.26664,0.53074c-0.19487,0.0146 -0.30818,-0.2022 -0.33995,-0.6507c-0.0135,-0.19302 -0.0152,-0.47039 -0.005,-0.83201c0.0375,-0.90433 0.0365,-1.63593 -0.004,-2.19475c-0.0489,-0.68982 -0.12316,-1.2322 -0.22306,-1.62694c-0.0896,-0.34013 -0.1398,-0.58609 -0.1505,-0.73786c-0.0109,-0.15177 0.0543,-0.25369 0.1949,-0.30579l0.0806,-0.027l0.2572,0.28298c0.20857,0.4851 0.44366,0.79947 0.70533,0.94318c0.2616,0.14371 0.68265,0.19369 1.26301,0.14996l0.89087,-0.057l7.97353,-0.60135c0.61374,-0.0464 1.04283,-0.18975 1.28722,-0.43033c0.24446,-0.24052 0.38927,-0.65762 0.43453,-1.25117c0.0298,-0.35622 0.0666,-0.5863 0.11097,-0.69035c0.0442,-0.104 0.12781,-0.16069 0.2509,-0.16994c0.19147,-0.0144 0.28963,0.0613 0.29452,0.22729c0.002,0.12468 -0.0123,0.31296 -0.0425,0.5648c-0.0372,0.2523 -0.035,0.67147 0.007,1.25769c0.0274,0.38604 0.084,0.86348 0.17001,1.43227l0.11207,0.75077c0.10242,0.70618 0.16707,1.24903 0.19386,1.62849l0.00047,0z"/>
      <path fill="#000000" fill-rule="nonzero" id="path6407" d="m282.83988,184.9959c-0.006,0.65009 -0.13088,1.28516 -0.37528,1.90532l-0.28479,0.69282c-0.12227,0.31004 -0.18407,0.53081 -0.18522,0.66221c-0.00066,0.0969 0.0217,0.19747 0.0676,0.30193l0.18806,0.39627c0.0263,0.0557 0.0391,0.11104 0.0387,0.16661c-0.00087,0.1453 -0.11278,0.21689 -0.33455,0.21484l-0.81612,-0.0287c-0.12768,-0.002 -0.24871,0.005 -0.36305,0.0175l-0.98909,0.12302l-0.91813,0.0935c-0.0807,0.0128 -0.1479,0.0189 -0.20166,0.0185c-0.28905,-0.003 -0.43283,-0.0908 -0.43128,-0.26427c0.00087,-0.12496 0.12877,-0.21399 0.38295,-0.26713c0.93656,-0.19177 1.74895,-0.6891 2.43712,-1.49204c0.68819,-0.80285 1.03627,-1.65741 1.04434,-2.56367c0.006,-0.62262 -0.19259,-1.16761 -0.5943,-1.63493c-0.4017,-0.46734 -0.87863,-0.70359 -1.43076,-0.70879c-0.5121,-0.005 -0.95622,0.19535 -1.33241,0.60061c-0.24315,0.26086 -0.64165,1.07797 -1.19552,2.4511c-0.66458,1.63548 -1.31089,2.71697 -1.93887,3.24432c-0.75629,0.62327 -1.66393,0.92993 -2.72277,0.91996c-1.16619,-0.0111 -2.17771,-0.45682 -3.03449,-1.33747c-0.85678,-0.88063 -1.28002,-1.90604 -1.26963,-3.07638c0.005,-0.47778 0.16865,-1.23453 0.49321,-2.27027c0.15809,-0.48337 0.26166,-0.83905 0.31059,-1.06712c0.0631,-0.31796 0.12323,-0.50261 0.18058,-0.55411c0.0573,-0.0513 0.23003,-0.093 0.51811,-0.12481c0.31483,-0.0316 0.77072,-0.13134 1.36766,-0.29867c0.91228,-0.25462 1.4956,-0.38071 1.74991,-0.37832c0.32115,0.004 0.48079,0.11218 0.47885,0.32736c-0.00064,0.0971 -0.0815,0.16566 -0.24188,0.20578c-1.14932,0.32936 -2.11752,0.91038 -2.90476,1.74312c-0.78724,0.83267 -1.18482,1.70034 -1.19281,2.603c-0.006,0.7012 0.24638,1.33022 0.75785,1.8871c0.51147,0.55683 1.10027,0.83839 1.7664,0.84465c0.52622,0.005 0.96047,-0.13487 1.30283,-0.4195c0.34243,-0.28471 0.66653,-0.77952 0.9726,-1.48451l0.6963,-1.57519c0.65679,-1.48556 1.27415,-2.49275 1.85199,-3.02155c0.57791,-0.52874 1.3428,-0.78862 2.29477,-0.77963c1.106,0.0105 2.02774,0.39094 2.76523,1.1415c0.73755,0.7505 1.10143,1.67919 1.09162,2.78604l0.0001,0z"/>
      <path fill="#000000" fill-rule="nonzero" id="path6409" d="m281.88241,204.17999c-0.0624,0.64691 -0.24213,1.26787 -0.5395,1.86287l-0.34395,0.66354c-0.14876,0.29748 -0.22943,0.51158 -0.24207,0.64239c-0.009,0.0964 0.005,0.19874 0.041,0.30699l0.15281,0.4121c0.0215,0.0578 0.0295,0.11424 0.0239,0.16954c-0.0138,0.14459 -0.13122,0.20559 -0.35189,0.1829l-0.81031,-0.10413c-0.1271,-0.013 -0.24812,-0.0185 -0.36312,-0.0163l-0.99578,0.0308l-0.92259,0.008c-0.0815,0.005 -0.14894,0.005 -0.20244,-0.00045c-0.28763,-0.0297 -0.42316,-0.13055 -0.40654,-0.30314c0.0122,-0.12435 0.14689,-0.2012 0.40461,-0.23053c0.94946,-0.1042 1.80186,-0.52416 2.55715,-1.26002c0.75519,-0.73586 1.17623,-1.55469 1.26312,-2.45649c0.0596,-0.61965 -0.0902,-1.18078 -0.44967,-1.68344c-0.35936,-0.50273 -0.81386,-0.78224 -1.36327,-0.83859c-0.50954,-0.0523 -0.96931,0.10586 -1.37927,0.47458c-0.26489,0.23733 -0.73285,1.01411 -1.40395,2.33035c-0.80418,1.56726 -1.542,2.58443 -2.2133,3.05144c-0.80753,0.5507 -1.73812,0.77192 -2.79185,0.66379c-1.16052,-0.11908 -2.12913,-0.65694 -2.90579,-1.61344c-0.77674,-0.95655 -1.10903,-2.01709 -0.99689,-3.1817c0.0458,-0.47545 0.27538,-1.2139 0.68875,-2.21531c0.19954,-0.4668 0.3336,-0.81144 0.40218,-1.03408c0.0905,-0.31077 0.16645,-0.48914 0.22808,-0.53505c0.0616,-0.046 0.23722,-0.0714 0.52685,-0.0763c0.31632,-0.003 0.77906,-0.0592 1.3881,-0.17065c0.93076,-0.169 1.52266,-0.24046 1.77575,-0.2145c0.31961,0.0327 0.46912,0.15628 0.4485,0.37044c-0.009,0.0966 -0.0956,0.15741 -0.25884,0.18251c-1.17334,0.22143 -2.1882,0.71039 -3.04466,1.46674c-0.85652,0.75636 -1.32804,1.58364 -1.41452,2.48191c-0.0671,0.69774 0.12972,1.34764 0.59067,1.94963c0.46093,0.60207 1.02286,0.93707 1.68572,1.00513c0.52364,0.0537 0.96834,-0.0454 1.33408,-0.29707c0.36576,-0.25177 0.7317,-0.71451 1.09782,-1.3883l0.83049,-1.50418c0.78349,-1.41872 1.48593,-2.36462 2.10747,-2.8376c0.62154,-0.47305 1.40602,-0.66102 2.35327,-0.56375c1.10066,0.11291 1.98554,0.57737 2.65478,1.39328c0.66929,0.81591 0.95087,1.7746 0.84479,2.876l0.00031,0.00009z"/>
      <path fill="#000000" fill-rule="nonzero" id="path6411" d="m278.88018,224.22339c-0.0398,0.22429 -0.13945,0.32129 -0.29859,0.29108c-0.11903,-0.0226 -0.19546,-0.0548 -0.22924,-0.0963c-0.0337,-0.0415 -0.0484,-0.13247 -0.0439,-0.27265c0.009,-0.50578 -0.0672,-0.84605 -0.22711,-1.02075c-0.15984,-0.17473 -0.52327,-0.31598 -1.09035,-0.42362l-8.41732,-1.59822l-1.00367,-0.10585c-0.52216,-0.0148 -0.94666,0.11058 -1.2735,0.37618c-0.32688,0.26561 -0.53575,0.65396 -0.62682,1.165c-0.0594,0.33394 -0.1887,0.48197 -0.3876,0.44425c-0.19224,-0.0365 -0.24891,-0.27593 -0.17015,-0.71815c0.0338,-0.19036 0.1001,-0.45916 0.19858,-0.80641c0.25703,-0.86541 0.43463,-1.57365 0.53279,-2.12476c0.12124,-0.68023 0.18168,-1.22442 0.18136,-1.6324c-0.004,-0.35249 0.008,-0.60352 0.0346,-0.75322c0.0266,-0.14963 0.1144,-0.23142 0.26326,-0.24519l0.0845,-0.005l0.17982,0.34079c0.0835,0.52368 0.23414,0.8891 0.45223,1.09627c0.2181,0.20719 0.6133,0.36507 1.18567,0.47373l0.87598,0.17678l7.86287,1.49295c0.60523,0.11497 1.05548,0.0878 1.3507,-0.0814c0.29532,-0.1692 0.53732,-0.53507 0.72596,-1.09774c0.11582,-0.337 0.20778,-0.55004 0.27597,-0.63919c0.0681,-0.0892 0.16293,-0.12224 0.28435,-0.0992c0.18877,0.0359 0.26532,0.13472 0.2295,0.29661c-0.0286,0.12115 -0.0882,0.29966 -0.1791,0.53546c-0.0975,0.23452 -0.1978,0.64077 -0.30071,1.21875c-0.0678,0.38071 -0.12961,0.8575 -0.18523,1.43034l-0.0748,0.75564c-0.0734,0.71005 -0.1434,1.25222 -0.21004,1.62642l-0.00001,-0.0002z"/>
      <path fill="#000000" fill-rule="nonzero" id="path6413" d="m271.84473,251.78297c-0.0676,0.23193 -0.19175,0.31982 -0.37206,0.26367c-0.14811,-0.0462 -0.20257,-0.16027 -0.16345,-0.34259c0.13631,-0.63472 0.0608,-1.13185 -0.22635,-1.49142c-0.28718,-0.35954 -0.85774,-0.67219 -1.71156,-0.93786l-0.65782,-0.1936l-6.0576,-1.62948l-0.39764,-0.11298c-0.88605,-0.27571 -1.58925,-0.31974 -2.10961,-0.1322c-0.52029,0.1875 -0.92606,0.63586 -1.21731,1.34504c-0.0802,0.17672 -0.20235,0.23954 -0.36651,0.18851c-0.17723,-0.0553 -0.20031,-0.3074 -0.0691,-0.75657c0.0388,-0.13214 0.1186,-0.33792 0.24003,-0.61736c0.33003,-0.77633 0.54426,-1.33301 0.64261,-1.66994c0.20249,-0.6936 0.33849,-1.2819 0.4079,-1.76487c0.0616,-0.45649 0.11562,-0.76394 0.16182,-0.92236c0.0484,-0.16519 0.15443,-0.22228 0.31858,-0.17119c0.12471,0.039 0.18548,0.16168 0.18239,0.36866c-0.007,0.4066 0.0794,0.72197 0.25869,0.94612c0.17922,0.22422 0.49001,0.40513 0.93232,0.54271c0.21171,0.0659 0.36335,0.10952 0.45488,0.13081l6.46774,1.70199c0.17504,0.0474 0.2743,0.031 0.29756,-0.0488c0.0292,-0.0998 -0.10737,-0.291 -0.40953,-0.57378l-6.58,-6.13933l-0.2483,-0.22801c-0.34191,-0.31451 -0.49775,-0.53527 -0.46764,-0.66222c0.0359,-0.14664 0.45957,-0.28023 1.27111,-0.40079l1.1477,-0.19322l7.795,-1.03786l0.16454,-0.0243c0.0527,-0.0126 0.0867,-0.0452 0.10208,-0.0978c0.0309,-0.10552 -0.0853,-0.19919 -0.34859,-0.28104l-0.3053,-0.1054l-4.82508,-1.63585l-0.3825,-0.12942l-0.93078,-0.1922c-0.9976,-0.10825 -1.72682,0.2314 -2.1877,1.01903c-0.1592,0.27531 -0.31426,0.38948 -0.46525,0.34251c-0.17066,-0.0532 -0.22203,-0.19608 -0.15411,-0.42881c0.0524,-0.17938 0.13006,-0.38716 0.23306,-0.62335l0.3,-0.67912c0.0771,-0.17185 0.16532,-0.42722 0.26424,-0.76606c0.17666,-0.60506 0.28738,-1.08557 0.33224,-1.44152c0.0263,-0.23093 0.0559,-0.40292 0.0889,-0.51603c0.06,-0.20607 0.17556,-0.28259 0.34623,-0.22941c0.1182,0.0368 0.18031,0.1427 0.18651,0.31789c0.0177,0.56161 0.2054,1.02622 0.56303,1.39382c0.35756,0.3676 0.91445,0.66899 1.67063,0.90424l6.23793,2.22935l0.63532,0.23029c0.76914,0.23925 1.42966,0.23366 1.98161,-0.0168c0.55193,-0.25064 0.92644,-0.71337 1.12353,-1.38829c0.0734,-0.25144 0.20031,-0.34905 0.38084,-0.29289c0.18708,0.058 0.2391,0.22973 0.15589,0.51464c-0.0174,0.0594 -0.0428,0.1346 -0.0764,0.22535l-0.20765,0.56401c-0.0375,0.10385 -0.0805,0.23859 -0.1287,0.40418c-0.0909,0.31132 -0.16024,0.6221 -0.20779,0.93234c-0.0789,0.46659 -0.1378,0.76621 -0.17646,0.8988c-0.12767,0.43715 -0.4206,0.68543 -0.87883,0.74499l-9.81289,1.39002c-0.4307,0.0609 -0.6602,0.15203 -0.68869,0.27325c-0.0284,0.12083 0.0673,0.28371 0.28732,0.48863l6.62847,6.14267c0.62824,0.57824 1.01313,0.97251 1.15447,1.18276c0.1414,0.21018 0.17633,0.43779 0.10479,0.68284c-0.0271,0.0928 -0.0795,0.2354 -0.15718,0.42793c-0.0757,0.18597 -0.14359,0.38157 -0.20354,0.58677c-0.0794,0.27172 -0.15402,0.61338 -0.22409,1.02502c-0.0401,0.21138 -0.0748,0.36667 -0.10381,0.466l-0.00014,-0.00012z"/>
     </g>
     <g id="g6592">
      <path fill="#fad62e" fill-rule="evenodd" stroke="#000000" stroke-width="1px" id="path6588" d="m165.22829,375.87908l-0.17229,16.54006c-0.25401,0.508 5.91764,4.84794 8.9592,-0.86146l-3.44585,-15.85089l-0.86146,-3.79043l-4.4796,0.17229l0,3.79043z"/>
      <path fill="#fad62e" fill-rule="evenodd" stroke="#000000" stroke-width="1px" id="path6586" d="m155.23534,366.74759l1.20605,3.27355c1.86184,2.06751 4.63018,4.13502 8.7869,6.20253c1.14862,-1.26348 2.9864,-1.37834 5.51336,-0.34459c4.38426,-2.91638 6.52766,-6.86257 8.44232,-11.71587l0.34458,-3.44585l-24.29321,6.03023z"/>
      <circle fill="#000000" stroke="#000000" stroke-miterlimit="4" r="3.364843" cy="351.88638" cx="137.86972" id="path6173"/>
      <g stroke="#000000" id="g6190" transform="matrix(0.51288057,-0.85845997,0.85845997,0.51288057,-239.30257,295.63789) ">
       <path fill="#fad62e" stroke="#000000" stroke-miterlimit="4" id="path6198" d="m150.577586,300.356207c-0.647868,-0.960396 -1.746168,-1.588314 -2.996563,-1.588322l-23.98271,-0.000598c-2.000649,0.000005 -3.610284,1.610133 -3.610289,3.610765l-0.000383,16.397231c0,2.000641 1.611784,3.609285 3.612434,3.609281l23.98171,-0.001076c2.000641,0 3.611281,-1.608445 3.611281,-3.609086l-0.000286,-16.394548c-0.000003,-0.750237 -0.226495,-1.447388 -0.615193,-2.023646zm-5.532501,4.795579c0.153835,0.230192 0.24163,0.510313 0.241651,0.815742l0.000396,9.216396c-0.000002,0.814495 -0.63171,1.445975 -1.445388,1.445975l-16.500404,0.002093c-0.813678,0 -1.44798,-0.635066 -1.44798,-1.448745l0.001269,-9.217391c0,-0.813678 0.631916,-1.444304 1.446388,-1.444301l16.501418,-0.000416c0.50905,-0.000002 0.946255,0.246982 1.202649,0.630646z"/>
       <path fill="#fad62e" stroke="#000000" stroke-miterlimit="4" d="m138.85533,307.53341c-0.11624,-0.17435 -0.63071,-14.18401 -3.26489,-14.18401c-2.63417,0 -3.14864,14.00966 -3.26488,14.18401c0,1.85835 1.5065,3.36484 3.26488,3.36484c1.75839,0 3.26489,-1.50649 3.26489,-3.36484z" id="path6194"/>
      </g>
      <path fill="#fad62e" fill-rule="evenodd" stroke="#000000" stroke-width="1px" id="path6203" d="m195.42019,323.61025c-8.98322,5.58596 -18.3775,9.53099 -27.83984,11.78711c-7.34156,10.31348 -12.26499,23.32407 -13.00027,33.19996c8.24211,-0.4493 16.41789,-1.83236 24.42969,-4.09179c3.47847,-16.87428 10.29724,-32.69655 16.41042,-40.89528z"/>
      <path clip-rule="nonzero" fill="#fad62e" fill-rule="evenodd" stroke="#000000" stroke-miterlimit="4" stroke-dashoffset="0" id="path6235" d="m193.30469,322.5625c-6.44573,8.64473 -13.19536,24.11217 -16.74414,41.32752c-0.64255,3.38006 4.4674,3.6446 4.89843,1.00781c3.40817,-16.53321 10.07289,-31.59432 15.85352,-39.34705c1.44701,-1.86221 -0.86601,-5.87533 -4.00781,-2.98828zm-27.87305,11.83203c-7.56891,10.63286 -12.55954,23.37263 -13.34375,33.90565c0.0658,3.32346 4.62903,2.76743 5.02542,-0.13069c0.81346,-9.13571 5.40682,-21.06291 12.39255,-30.87652c2.96635,-4.92477 -2.30378,-5.84309 -4.07422,-2.89844z"/>
      <circle fill="#000000" stroke="#000000" stroke-miterlimit="4" id="circle6239" cx="171.62698" cy="349.71091" r="3.364843"/>
      <circle fill="#000000" stroke="#000000" stroke-miterlimit="4" r="3.364843" cy="331.90631" cx="210.28372" id="circle6241"/>
      <circle fill="#000000" stroke="#000000" stroke-miterlimit="4" id="circle6243" cx="234.36859" cy="309.79529" r="3.364843"/>
      <path fill="none" fill-rule="evenodd" stroke="#000000" stroke-width="1px" id="path6590" d="m159.96163,372.93445c3.31449,-1.29658 9.4161,-2.667 15.22437,-1.2687"/>
     </g>
    </g>
   </g>
  </g>
 </g>
</svg>