<?xml version="1.0" encoding="UTF-8"?>
<!-- Created with Inkscape (http://www.inkscape.org/) -->
<svg id="bandera" width="900" height="600" fill-rule="evenodd" version="1.0" viewBox="0 0 900 600" xml:space="preserve" xmlns="http://www.w3.org/2000/svg">
 <defs id="defs1">
  <style id="style1" type="text/css"/>
 
  
 </defs>
 
 
<path id="rect2" d="m900 0h-900v600h900z" fill="#ffffff"/><rect id="rect1" x="300" width="300" height="600" fill="#89c5e3"/><g id="estrella" fill="#ffffff" stroke-width="7.5"><path id="path684" d="m450 25.1564 14.0625 43.125h42.1875l-34.6875 24.375 14.0625 42.1875-35.625-26.25-35.625 26.25 14.0625-42.1875-34.6875-24.375h42.1875z"/><g fill-rule="evenodd"><path id="path684-9" d="m375 165.156 14.0625 43.125h42.1875l-34.6875 24.375 14.0625 42.1875-35.625-26.25-35.625 26.25 14.0625-42.1875-34.6875-24.375h42.1875z"/><path id="path684-9-6" d="m525 165.156 14.0625 43.125h42.1875l-34.6875 24.375 14.0625 42.1875-35.625-26.25-35.625 26.25 14.0625-42.1875-34.6875-24.375h42.1875z"/><path id="path684-9-2" d="m375 315.156 14.0625 43.125h42.1875l-34.6875 24.375 14.0625 42.1875-35.625-26.25-35.625 26.25 14.0625-42.1875-34.6875-24.375h42.1875z"/><path id="path684-9-6-2" d="m525 315.156 14.0625 43.125h42.1875l-34.6875 24.375 14.0625 42.1875-35.625-26.25-35.625 26.25 14.0625-42.1875-34.6875-24.375h42.1875z"/><path id="path684-9-3" d="m375 465.156 14.0625 43.125h42.1875l-34.6875 24.375 14.0625 42.1875-35.625-26.25-35.625 26.25 14.0625-42.1875-34.6875-24.375h42.1875z"/><path id="path684-9-6-26" d="m525 465.156 14.0625 43.125h42.1875l-34.6875 24.375 14.0625 42.1875-35.625-26.25-35.625 26.25 14.0625-42.1875-34.6875-24.375h42.1875z"/></g></g></svg>
