<?xml version="1.0" encoding="utf-8"?>
<!-- Generator: Adobe Illustrator 26.0.3, SVG Export Plug-In . SVG Version: 6.00 Build 0)  -->
<svg version="1.1" id="Layer_1" xmlns="http://www.w3.org/2000/svg" xmlns:xlink="http://www.w3.org/1999/xlink" x="0px" y="0px"
	 viewBox="0 0 1152 768" style="enable-background:new 0 0 1152 768;" xml:space="preserve">
<style type="text/css">
	.st0{fill:#FFFFFF;}
	.st1{fill:url(#SVGID_1_);}
	
		.st2{fill:none;stroke:url(#SVGID_00000120535553445863581140000015401066104431330690_);stroke-width:10;stroke-linecap:round;stroke-miterlimit:10;}
	.st3{fill:#AB732D;}
	.st4{opacity:0.9;fill:#C79539;}
	.st5{fill:#C79539;}
</style>
<rect class="st0" width="1152" height="768"/>
<linearGradient id="SVGID_1_" gradientUnits="userSpaceOnUse" x1="279.1008" y1="382.8432" x2="872.8649" y2="382.8432" gradientTransform="matrix(6.123234e-17 1 -1 6.123234e-17 960 -192)">
	<stop  offset="0" style="stop-color:#FFFFFF"/>
	<stop  offset="0.4553" style="stop-color:#DFAC51"/>
</linearGradient>
<ellipse class="st1" cx="577.2" cy="384" rx="291.8" ry="296.9"/>
<ellipse class="st0" cx="577.2" cy="384.9" rx="278.2" ry="283.9"/>
<linearGradient id="SVGID_00000019646538915474658540000004935725438410461100_" gradientUnits="userSpaceOnUse" x1="-707.7029" y1="1263.5715" x2="-322.4003" y2="1263.5715" gradientTransform="matrix(1 0 0 -1 1091.0516 1647.5715)">
	<stop  offset="0" style="stop-color:#DFAC51"/>
	<stop  offset="1" style="stop-color:#FFFFFF"/>
</linearGradient>
<ellipse style="fill:none;stroke:url(#SVGID_00000019646538915474658540000004935725438410461100_);stroke-width:10;stroke-linecap:round;stroke-miterlimit:10;" cx="576" cy="384" rx="187.7" ry="191.8"/>
<g>
	<path class="st3" d="M420.3,418.9c2.1,12.1,7,28.6,19.7,43.2c1.9,2.2,3.8,4.2,5.8,6c5.6-0.1,13.4,0.3,22.3,3
		c13.4,4,22.5,11.1,27.5,15.6c43.8,0,87.6,0,131.4,0c2.8-3.6,32.5-41.6,49.3-55.7c4.6-3.9,8.9-6.7,8.9-6.7
		c6.9-4.6,12.5-6.9,23.5-11.4c12.1-5,20-8.2,23.2-9.5c0-2.9,0-5.8,0-8.7c-10.3,5.9-22.6,12-36.8,17.6c-3.9,1.5-19.5,7.5-41.2,12.6
		c-13.2,3.1-24.7,4.9-33.7,6c0-49.2,0-98.4,0-147.6c-2.5,2.2-5.1,4.4-7.6,6.6c0,49.7,0,99.3,0,149c-3.4,5-12.5,16.6-28.8,22.8
		c-9.8,3.7-18.5,4.1-24,3.8c0-61.4,0-122.7,0-184.1c-2.6,1.6-5.2,3.2-7.9,4.8c0,59.8,0,119.6,0,179.5c-6.5-0.2-24.2-1.7-38.6-15
		c-4.6-4.2-7.8-8.7-10.1-12.6c0-52,0-103.9,0-155.9c-2.5,2.9-5.1,5.9-7.6,8.8c0,47.7,0,95.5,0,143.2c-17.3-1.8-36.1-4.9-56.1-9.9
		C432.7,422.5,426.4,420.7,420.3,418.9z"/>
	<path class="st4" d="M662.7,347.9c-3.1-23.8-14-40.3-19.5-47.7c-16.8,8.7-33.5,17.4-50.3,26.2c-4.5-12.4-10.6-21.3-14.3-26.2
		c-13.7,7.1-27.3,14.2-41,21.4c-4.2-9.9-9.2-17.1-12.4-21.4c-18.8,9.8-37.5,19.5-56.3,29.3c2.6,6.2,4.9,13.6,6.3,22.1
		c4.7,29.8-5.7,54.2-11.5,65.5c20.4-6.5,40.9-12.9,61.3-19.4c-2.5,8.2-5.6,14.9-8,19.4c24.5-7.8,49.1-15.5,73.6-23.3
		c-2.7,10-6.4,18.1-9.1,23.3c25.5-8.1,51.1-16.2,76.6-24.2C661.1,384.3,665.3,368.1,662.7,347.9z"/>
</g>
<g>
	<path class="st5" d="M353.7,314.8c-6.4,6.7-10.3,13.7-12.5,17.1c2-8.2,4.2-15.1,5.6-19.5c4.4-2,9.9-5.1,15.5-10
		c9.8-8.7,14.6-18.5,16.8-24.1c-7.3,3.6-15.4,8.7-23.2,16.1c-1.5,1.4-2.9,2.9-4.2,4.3c1.4-5.2,3.2-15.4-0.7-26.7
		c-1.1-3.3-2.6-6.1-4-8.4c-4.1,7.6-5.3,14.2-5.7,18.3c-0.5,5.7,0.1,10.2,0.8,14.7c0.9,6.2,2.4,11.4,3.7,15.2c-0.9,2.1-2,4.7-3,7.7
		c0.3-7.4-0.7-17.1-5.9-26.5c-0.7-1.3-1.5-2.5-2.3-3.7c-1.6,3.1-4,8.8-4.1,16.3c0,3.8,0.6,6.5,1.5,10.4c1.3,5.8,3.2,13.6,5.7,22.8
		c-0.6,4.1-1.3,9.4-2,16.4c-0.3-4.7-1.3-11-4.7-17.5c-3.1-6.1-7.1-10.2-10-12.7c-0.5,5.3-0.5,13,1.6,21.9
		c2.8,11.5,7.9,19.8,11.6,24.8c-0.6,7.8-1.1,14.3-1.3,20.3c-0.2-0.9-0.5-1.8-0.7-2.6c-1.1-6.2-4.2-17.6-13.7-27.3
		c-2.6-2.6-5.2-4.7-7.7-6.4c0.5,5.2,1.7,12.6,5.4,20.7c4.9,11,12,18.3,16.6,22.4c0,3.8,0.2,7.5,0.5,11.3c-1-3-2.2-6.3-4.5-9.7
		c-5-7.3-10.3-12.8-14.7-16.5c0.1,4.6,1,13.5,6.1,23.2c4.8,9,11.1,14.6,14.9,17.5c0.4,2.5,0.9,5.5,1.6,9.1c0.5,3,1.1,5.8,1.6,8.6
		c-1.1-3.1-3.6-7-6.3-11.1c-4.8-7.4-10.7-11.9-14.5-14.2c0.4,2.4,1.1,5.8,2.3,9.8c1.9,6.5,4.2,13.9,9.8,21c2.3,2.9,5.4,7.4,12,11.2
		c1.2,5.4,2.3,10.1,3.2,14c0.7-0.3,1.3-0.5,2-0.8c-0.4-2.4-1.1-6-2-10.4c-0.2-1.2-0.4-2.3-0.7-3.3c3.6-5.2,10-15.2,10.3-28.5
		c0.2-7.4-1.2-13.5-2.6-17.8c-2,2.5-4.1,5.7-5.9,9.7c-3.9,8.3-4.7,16-4.7,21c-0.1,0-0.2,0-0.3,0c-1.6-7.3-2.7-12.1-3.4-15.8
		c-0.2-0.9-0.4-1.9-0.5-2.8c4.6-3.8,12-11.2,16.4-22.8c2.9-7.5,3.6-14.3,3.6-19c-3.7,3.1-8.9,8.2-13.4,15.6
		c-3.4,5.6-6.6,10.8-8.2,15c-0.5-4.7-0.7-9.4-0.7-14.1c3.6-2.2,9.1-6.2,13.6-13c1.2-1.8,5.9-9.2,7-20c0.4-4.1,0.2-7.5-0.1-10
		c-4.4,4.3-10.9,11.7-15.6,22.4c-2.6,5.8-4,11.2-4.8,15.8c0.1-6.1,0.4-12.4,0.7-19.4c0-1,0.1-2,0.1-3c5.3-4.3,13.2-12,18.8-23.7
		c3.4-7.1,5-13.6,5.9-18.7c-7,6.2-14.6,14.5-21.2,25.1c-1,1.6-1.9,3.2-2.7,4.7c0.5-6.3,1.4-12.9,2.9-20.4c7.3-4,12.8-8.2,16.7-11.5
		c12.3-10.5,13.4-16.8,13.6-18.7c0.3-2.5,0.1-4.6-0.2-6.1C365.5,304.9,359.5,308.7,353.7,314.8z"/>
	<path class="st5" d="M364.4,237.3c-2.9,3.6-7.1,9.9-9.4,18.8c-3.5,13.9,0.1,25.5,1.8,30.1c2.7-4.6,6.2-11.8,8.1-21.1
		C367.2,253.1,365.7,243.1,364.4,237.3z"/>
	<path class="st5" d="M391.4,255.7c-4.1,1-13.5,3.7-22,12c-7.1,6.9-10.1,14.5-11.4,18.5c4.8-1.1,20.5-5.5,29.2-20.1
		C389.3,262.4,390.6,258.8,391.4,255.7z"/>
	<path class="st5" d="M390.8,218.6c-5.3,4.3-15.9,14.4-19.5,30.5c-0.9,4.1-1.2,7.9-1.2,11.3c3.6-2.4,8.8-6.6,13.2-13.3
		C391,235.2,391.1,223.3,390.8,218.6z"/>
</g>
<g>
	<path class="st5" d="M803.3,475c5.3-10.6,10.5-27.9,13.5-49.2c0.4-2.6,1.2-9,1.5-17.9c1.2-38.9-9.8-74.3-14.4-87.6
		c-11-31.9-17.9-52.1-30.9-62.8c0,0-11.8-9.7-15.5-21.8c-1.7-5.5-1.3-10.8-1.3-10.8c0.2-3.8,1.2-6.8,2-8.8
		c5.2,6.6,11.2,16.1,15.2,28.5c1.3,4.2,2.3,8.2,2.9,11.8c4.5,7.2,10.3,16.9,16.2,28.7c3.9,7.9,12.9,26.1,19.7,48.8
		c6.9,23.1,16.3,54.7,9.1,92.8C817.5,446.5,810.4,462.6,803.3,475"/>
	<circle class="st5" cx="823.7" cy="457" r="8"/>
	<circle class="st5" cx="808.8" cy="419.5" r="8"/>
	<circle class="st5" cx="824.9" cy="354.8" r="8"/>
	<ellipse class="st5" cx="764.4" cy="260.3" rx="8" ry="7.2"/>
	<path class="st5" d="M806.5,331.5c0,4.1-0.4,7.3-4.3,7.3c-3.8,0-8.7-4.1-8.7-8.2s3.1-7.4,7-7.4S806.5,327.4,806.5,331.5z"/>
	<path class="st5" d="M818.6,458.4c-1,0.1-11.1,7.5-11.1,7.5l-1,2.2l13.9-7.6L818.6,458.4z"/>
	<path class="st5" d="M815.7,441.4c0-0.2-5.7-18.4-5.7-18.4l2.8,0.5l3.5,17.4L815.7,441.4z"/>
	<path class="st5" d="M810.1,450.5c-2.9-3.2-8.1-8.7-10.6-16.4c-0.2-0.5-0.9-2.8-1.5-6.3c-0.8-4.9-1.5-12.5,0.2-22.4
		c2.5,4.7,5,10.5,7,17.4C808.5,433.7,810.2,443.4,810.1,450.5z"/>
	<path class="st5" d="M823.2,428.5c0.2,3.6-0.1,9.5-2.9,15.8c-1.1,2.6-2.5,4.7-3.7,6.5c5.3-2.2,15.4-7.3,23.5-17.9
		c4.1-5.4,6.5-10.6,8-14.7c-3.4,0.1-8.9,0.7-15,3.6C828.6,423.9,825.3,426.5,823.2,428.5z"/>
	<path class="st5" d="M840.7,374.4c1,3.3,3.5,13-0.6,24.3c-4.7,13.2-15.1,19.3-17.8,20.8c0.5-5.2,1.6-11.4,3.8-18.3
		C830.1,389.1,836.1,380.1,840.7,374.4z"/>
	<path class="st5" d="M824.1,364.9c3.1-4.3,9.1-11.2,18.4-13.5c1.1-0.3,2.2-0.5,3.2-0.6c-0.6,4.8-2.3,12.3-6.7,20.4
		c-5.5,9.8-12.5,15.7-16.7,18.8c0.3-1.3,0.7-2.6,0.9-4C824.7,378.2,824.7,371,824.1,364.9z"/>
	<path class="st5" d="M797.7,372.4c3.9,4.1,7.4,7.1,9.9,9c4.6,3.5,7.4,4.9,9.5,8.9c1.5,2.8,1.8,5.4,2,7.5c0.7,7-1.5,12.7-3.2,16.1
		c-4.3-4.2-11.4-12.2-14.2-21.3c-0.6-1.8-1.6-5.6-2.4-10C798.4,378.4,798,374.9,797.7,372.4z"/>
	<path class="st5" d="M791.9,349.8c4.1,4,8.3,8.3,12.6,12.8c2.2,2.3,4.3,4.6,6.3,6.9c0,0,0.5,0.5,1.2,1.4c4,4.9,9,11,7.3,14.7
		c-0.2,0.3-0.4,0.8-1,1.3c-5.2-3.2-15.2-10.2-21.6-22.9C794.1,358.7,792.7,353.8,791.9,349.8z"/>
	<polygon class="st5" points="823,358.3 818.7,371.2 820,371.8 825.9,356.8 	"/>
	<path class="st5" d="M816.2,363.3c-2.1,2.1-19-9.9-26.1-17.8c-0.9-1-1.9-2.2-3-4.1c-3.4-5.8-3.8-11.6-3.7-15.1
		c5.1,3.5,12.4,9.1,19.3,17.5C807.2,349.3,818.1,361.4,816.2,363.3z"/>
	<polygon class="st5" points="803.1,336 812.5,344.6 810.9,338.8 801.9,333 	"/>
	<path class="st5" d="M816.2,350.9c0.4-2.4,0.7-5.8,0.1-9.8c-0.7-5.1-2.4-9-3.7-11.4c0.8-3.2,2.9-9.2,8.3-14.7
		c3.2-3.2,6.4-5.2,8.8-6.4c0.9,3.9,2.1,12-0.6,21.5C826,341.3,819.2,348.2,816.2,350.9z"/>
	<path class="st5" d="M806.1,324.3c-1.9-1.4-4.4-3-7.6-4.3c-6.6-2.7-12.6-2.6-16.1-2.3c-2.5-2.1-7.9-7.2-10-15.6
		c-0.8-3.2-0.9-6.2-0.7-8.4c10,3,16,7.7,19.2,10.8c2.8,2.7,5.2,5.7,7,7.9C801.6,317,804.3,321.2,806.1,324.3z"/>
	<path class="st5" d="M807.9,323.5c0.3-2.1,0.5-4.8,0-8.1c-0.9-6-3.8-10.3-5.4-12.5c0.1-2.8,0.7-10.2,6.1-16.9
		c2.8-3.5,6-5.7,8.2-6.9c1.3,4,3.3,12.5,1.3,22.9C816.1,313,810.7,320.3,807.9,323.5z"/>
	<path class="st5" d="M798.3,300.9c-2-2-6.2-5.9-12.8-8.1c-6.1-2-11.4-1.7-14.1-1.3c-2.7-2.5-7.9-8-9.9-16.6
		c-0.7-2.9-0.8-5.6-0.7-7.8c4,1.2,10.5,3.7,17,8.9c5.6,4.5,9.2,9.4,11.2,12.8C792.1,292.9,795.2,296.9,798.3,300.9z"/>
	<path class="st5" d="M796.7,296.5c0.7-1.7,1.7-5.2,1-9.5c-1.1-7-6.1-11-7.3-11.9c-0.2-2.7-0.2-8.4,2.9-14.7
		c2.8-5.7,6.7-9.1,8.9-10.6c1.6,4.5,3.3,11.2,3.2,19.4c-0.2,13.6-5.5,23.6-8.4,28.4C796.9,297.2,796.8,296.9,796.7,296.5z"/>
	<path class="st5" d="M784.6,271.4c0.6-1.7,1.4-4.8,0.8-8.6c-1.4-7.8-8-11.8-9-12.4c0-4.4,0.5-11.8,4.7-19.4
		c1.4-2.5,2.9-4.6,4.3-6.3c2.1,4.3,4.6,10.8,5.3,19c1.3,13.6-2.9,24.1-5.3,29.1C785.2,272.4,784.9,271.9,784.6,271.4z"/>
	<path class="st5" d="M766.7,262.5c0.1,0.3,18,9.4,18,9.4l-2.3-4.1l-15.7-6.7V262.5z"/>
</g>
<g>
	<path d="M416.8,205.7c-1.8-0.4-3.5-0.8-5.3-1.2c0.2-1.8,0.3-3.6,0.5-5.4c0.8,0.5,4.4,2.6,7.6,1.2c0.6-0.3,1-0.6,1.2-0.7
		c0.9-0.7,34.3-20.7,33.2-23.2c-0.1-0.3-1.4-0.9-2.7-0.1c-6.1,3.8-12.7,7.7-19.1,12.6c-1,0.7-1.9,1.5-2.9,2.2
		c-0.8,0.6-6.4,4.7-8.4,3.1c-0.7-0.5-0.7-1.5-0.7-2.4c0.1-5.2,3.3-10.3,7.7-16.3c1.5-2,3.4-4.5,5.8-7.5c0,2.4,0,4.7,0,7.1
		c-2.3,0.8-3.9,2-4.8,2.7c-0.7,0.6-3.4,3-4.8,7.2c-0.6,1.9-1,3-0.5,3.4c1.1,1,5.7-3,11.7-7.4c10.7-7.9,17.5-13,21.3-10.9
		c3,1.6,4.5,8,2.5,10.3c-0.2,0.2-0.3,0.3-0.4,0.4c-2.5,1.9-23.8,15.5-38.1,24.6c0.3,0.6,1.8,6-1.1,11.3c-2.5,4.7-7.1,7.3-12.8,6.3
		c1.1-0.5,6.7-2.8,9.2-9C417.4,210.5,417.1,207.3,416.8,205.7z"/>
	<polygon points="405,188.2 403.6,194.6 408.6,194.6 410.8,188.2 	"/>
	<path d="M470.1,170.9c-0.2,1.5-1.1,5.7-4.8,9.3c-3.1,3.1-6.6,4.1-8.1,4.4c0,0.4,0,0.8,0,1.3c5.4,1.6,11,0,14.1-4
		c3.1-4.1,2.2-9,2.1-9.9c2.5,1.1,5.2,0.4,6.5-1.4c1.2-1.7,0.8-3.7,0.7-4.1c4,0.4,7.9,0.9,11.9,1.3c0.6-1,1.8-2.5,3.7-3.8
		c2.4-1.7,4.8-2.1,6.1-2.3c0-2.5-0.1-5.1-0.1-7.6c-1.3-1.5-2.7-3.6-2.4-5.9c0.5-3,3.8-4.3,3.2-5.8c-0.4-1.1-2.3-0.5-5.9-2.2
		c-1.7-0.8-2.2-1.4-3-1.2c-1.4,0.4-2.2,3-1.8,5.2c0.5,2.5,2.3,2.6,4.5,5.9c1,1.4,3.5,5.3,2.1,7.5c-1.2,1.9-4.8,2.4-6.9,1
		c-2.3-1.5-1.5-4.5-3.4-5.2c-2-0.8-5.3,1.6-6.8,4.4c-1.6,2.8-0.5,4.6-2,6.4c-2.4,3-7.7,2-7.9,1.9c-2.8-0.6-4.6-2.3-5.3-3
		c-1.5,1.6-1.8,4-0.7,5.7C466.7,170.2,468.4,171,470.1,170.9z"/>
	<ellipse class="st0" cx="485.9" cy="160.6" rx="1.9" ry="1.2"/>
	<path d="M505.6,142.3c1.1-1.9,2.1-3.8,3.2-5.6c1.8,3.4,4.4,9.6,3.9,17.3c-0.1,2.2-0.5,4.1-1,5.8
		C509.7,153.9,507.7,148.1,505.6,142.3z"/>
	<path d="M545.7,153.1c1.4,0,2.7,0,4.1,0c0.5-0.2,0.9-0.3,1.4-0.5c0.3,0.1,0.6,0.2,0.8,0.3c2.2,0,4.4,0,6.6,0
		c0.4-0.5,0.8-1.1,1.2-1.6c0.2,0.5,0.5,1.1,0.7,1.6c1.6,0,3.2,0,4.8,0c0.4-1,0.9-2,1.3-2.9c0.3,1,0.7,2,1,3
		c5.9,0.1,11.9,0.2,17.8,0.3c0.8-1.1,2-3.3,2.3-6.2c0.1-1.2,0.4-4.1-1.2-7c-0.8-1.4-1.2-2.6-2.3-2.9c-1.9-0.4-4.9,2.2-4.4,4.6
		c0.3,1.2,1.9,1.1,2.9,2.7c0.7,1.2,0.7,2.5,0.5,3.4c-4.2,0-8.4,0-12.6,0c-0.6-6.7-1.1-13.5-1.7-20.2c-1.5,1.7-2.9,3.4-4.4,5.1
		c0.7,5.1,1.5,10.1,2.2,15.2c-1.8,0-3.6,0-5.4,0c-0.5-2.2-0.9-4.4-1.4-6.6c-1,1.1-2,2.2-2.9,3.4c0,1,0,2,0,3c-1.3,0-2.6,0-3.8,0
		c0.2-2.3,0.3-4.7,0.5-7c-1.3,1.6-2.6,3.2-3.9,4.9c0,0.7,0,1.5,0,2.2c-1.2,0.2-2.5,0.4-3.7,0.6c-1.5-2-3-4-4.5-6c-1,1.8-2,3.5-3,5.3
		c1.4,2.1,2.9,4.3,4.3,6.4c-0.7,0.8-3.4,3.6-7.7,3.8c-0.7,0-5.1,0.3-6.6-2.2c-2-3.2,2.5-8.7,2-9c-0.5-0.3-5.3,3.8-5.4,9.6
		c0,0.7-0.1,5.1,3,7.4c4,3.1,10.9,0.8,14.4-3.2C545.2,157.7,545.6,154.5,545.7,153.1"/>
	<path d="M578.5,155.3c-0.3,0-4.7,3.5-4.7,3.5l4.6,4.2l3.8-3.8L578.5,155.3z"/>
	<polygon points="595.4,131.7 591.1,136.4 591.1,155 595.7,147 	"/>
	<path d="M607.9,153.9c-0.7,0.9-3.6,4.1-8.5,4.9c-4.5,0.8-7.9-0.9-9-1.5c0.9,1.1,2.3,2.5,4.3,3.9c1.9,1.3,4.2,2.9,6.8,2.8
		c5-0.2,8-6.4,8.2-6.8c9.1,2.6,18.2,5.2,27.3,7.8c1.6-2.1,3.2-4.1,4.9-6.2c-1.5-2.8-3.1-5.6-4.6-8.4c-5.5,0.5-11.1,1-16.6,1.5
		c0.8-2.3,1.6-4.6,2.4-6.9c1.4-1.1,2.8-2.3,4.2-3.4c-1.8-2.2-3.6-4.5-5.5-6.7c-1.4,1.1-2.7,2.1-4.1,3.2c0,5.2,0,10.4,0,15.6
		c-1.2,0-2.4,0-3.6,0c-2-2.9-4-5.7-6-8.6c-1.5,1.3-3.1,2.6-4.6,3.9C605,150.6,606.4,152.3,607.9,153.9z"/>
	<polygon class="st0" points="622.2,154.9 637,159.6 632.3,153.4 623.5,153.4 	"/>
	<path d="M651.4,159.3c-0.5,1.2-5.3,12.5-1.4,16.7c0.4,0.4,1,1,1.9,1.2c2.8,0.5,4.3-4.2,8.7-5.9c1-0.4,4.4-1.9,6.1-0.4
		c1.3,1.2,1.4,3.8,0.2,6.6c5.6,3.4,11.2,6.8,16.8,10.2c1.5-2.8,2.9-5.5,4.4-8.3c0-2.7-0.1-5.3-0.1-8c-1.8,0.9-3.6,1.8-5.4,2.7
		c0.5,2.2,1.1,4.3,1.6,6.5c-4.6-2.4-9.2-4.8-13.8-7.2c-0.1-2.6-0.2-5.2-0.3-7.7c-1.4-0.2-4.3-0.4-7.7,0.8c-3.4,1.3-4.2,4.6-6.5,4.5
		c-1.7,0-3.1-1.7-4-3C651.7,165.2,651.5,162.2,651.4,159.3z"/>
	<polygon points="675.3,187.9 672.7,183.9 668.6,185.7 671.5,190 674,189.3 676.5,193 681.2,192.2 678.7,187.2 	"/>
	<polygon points="662.3,151.7 659.4,147.5 654.6,149.4 657.9,154 660.8,153.2 663.7,157.2 669.2,156.3 666.3,151 	"/>
	<path d="M701.5,193.4c-3.1-2.3-6.3-4.6-9.4-6.9c1.5-2.7,2.1-4.1,1.8-4.3c-0.4-0.3-2.8,2.2-7.2,7.4c3.8,2.7,7.5,5.4,11.3,8.1
		c0.9-0.4,1.8-0.9,2.6-1.3c0.2,1.3,0.4,2.6,0.6,4c1.8,1.4,3.6,2.8,5.4,4.3c1.1-0.6,2.2-1.2,3.2-1.8c-0.4,1.1-0.7,2.2-1.1,3.4
		c5.3,4.6,10.6,9.2,15.9,13.7c2-2.2,4-4.3,6-6.5c0.4-3,0.7-5.9,1.1-8.9c-2,0.4-4.1,0.9-6.1,1.3c0,2.3,0,4.6-0.1,6.9
		c-3.6-3-7.1-6-10.7-8.9c2.9-5.8,5.9-11.6,8.8-17.4c-2.1,0.5-4.1,1-6.2,1.5c-2.1,4.4-4.3,8.8-6.4,13.2c-1.8-1.4-3.6-2.8-5.3-4.3
		c1.3-5.1,2.6-10.3,3.9-15.4c-2.1,1-4.2,2-6.3,3C702.7,187.4,702.1,190.4,701.5,193.4z"/>
	<polygon points="717.5,215.5 711.2,215.5 713.5,222 717.5,222 	"/>
</g>
<g>
	<path d="M360.4,510.2l16.9-3.3l5.7,8.6l-0.5,0.4l-0.5-0.7c-0.4-0.6-0.8-1.1-1.3-1.3c-0.3-0.2-0.7-0.2-1.1-0.1c-0.3,0-1,0.4-1.9,1.1
		l-13.1,9.1c-1,0.7-1.6,1.2-1.8,1.5c-0.2,0.3-0.2,0.7-0.2,1.2c0,0.5,0.3,1,0.7,1.6l0.5,0.7l-0.5,0.4l-7.3-11.1l0.5-0.4l0.5,0.7
		c0.4,0.6,0.8,1.1,1.3,1.3c0.3,0.2,0.7,0.2,1.1,0.1c0.3,0,1-0.4,2-1.1l14.7-10.2l-23.4,4.4l-0.2-0.4l12.5-20.7l-13.9,9.7
		c-1,0.7-1.6,1.1-1.7,1.3c-0.4,0.5-0.6,1-0.6,1.7c0,0.7,0.3,1.5,1,2.5l-0.5,0.4l-4.8-7.2l0.5-0.4l0.1,0.2c0.3,0.5,0.7,0.9,1.1,1.2
		c0.4,0.3,0.8,0.5,1.2,0.5s0.9-0.1,1.4-0.3c0.1-0.1,0.6-0.4,1.5-1l12.5-8.7c1-0.7,1.6-1.2,1.8-1.5c0.2-0.3,0.2-0.7,0.2-1.2
		c0-0.5-0.3-1-0.7-1.6l-0.4-0.7l0.5-0.4l5.7,8.7L360.4,510.2z"/>
	<path d="M389.9,534.5l-9.7,8.7c-0.9,0.8-1.5,1.5-1.5,1.9c-0.1,0.4,0.1,0.9,0.5,1.5l-0.5,0.4l-4.6-5.4l1.7-1.5
		c-1.3,0-2.3-0.2-3.2-0.5c-0.9-0.3-1.6-0.9-2.3-1.7c-0.6-0.7-1-1.6-1.1-2.6c-0.1-1,0.1-1.8,0.5-2.5c0.4-0.7,1.3-1.7,2.8-3l4.9-4.4
		c0.9-0.8,1.4-1.5,1.5-1.8c0.1-0.4-0.1-0.9-0.5-1.6l0.5-0.4l4.6,5.4l-8.5,7.6c-0.9,0.8-1.4,1.3-1.6,1.7c-0.2,0.3-0.3,0.6-0.2,0.9
		c0,0.3,0.2,0.6,0.4,0.9c0.3,0.3,0.6,0.6,1,0.7c0.6,0.2,1.4,0.2,2.6,0.1l6.6-5.9c0.9-0.8,1.4-1.5,1.5-1.8c0.1-0.4-0.1-0.9-0.5-1.6
		l0.5-0.4L389.9,534.5z"/>
	<path d="M398.5,543.4L397,545c1.3-0.1,2.3,0.1,3.2,0.3c0.9,0.3,1.6,0.7,2.3,1.4c0.8,0.8,1.3,1.7,1.4,2.6c0.1,1,0,1.9-0.5,2.7
		c-0.3,0.6-1.1,1.7-2.5,3.1l-4.4,4.8c-0.9,0.9-1.3,1.6-1.4,2c0,0.4,0.2,0.9,0.7,1.5l-0.4,0.5l-6.3-6.2l0.4-0.5
		c0.5,0.4,1,0.5,1.5,0.4c0.3-0.1,0.9-0.5,1.7-1.4l5.1-5.4c0.9-1,1.5-1.7,1.6-2c0.2-0.3,0.2-0.7,0.2-1c-0.1-0.3-0.2-0.6-0.4-0.8
		c-0.8-0.7-2-0.9-3.6-0.5l-6.1,6.5c-0.9,0.9-1.3,1.6-1.4,2c-0.1,0.4,0.1,0.9,0.5,1.4l-0.4,0.5l-6.3-6.2l0.4-0.5
		c0.6,0.5,1.1,0.7,1.6,0.6c0.3,0,0.9-0.5,1.8-1.5l6.4-6.9c0.9-0.9,1.3-1.6,1.4-2c0-0.4-0.2-0.9-0.7-1.5l0.5-0.5L398.5,543.4z"/>
	<path d="M414.5,558l-8.4,10.3c-0.7,0.9-1.1,1.6-1.1,2c0,0.4,0.3,0.9,0.9,1.5l-0.4,0.5l-7.1-6.1l0.4-0.5c0.6,0.5,1.2,0.7,1.7,0.6
		c0.4-0.1,0.9-0.5,1.7-1.4l6.2-7.6c0.7-0.9,1.1-1.6,1.1-2c0-0.4-0.3-0.9-0.9-1.5l0.4-0.5L414.5,558z M417.7,550.1c0.6,0.5,1,1.2,1,2
		c0.1,0.8-0.1,1.5-0.6,2.1c-0.5,0.6-1.1,0.9-1.9,1c-0.8,0-1.5-0.2-2.1-0.7c-0.6-0.5-0.9-1.2-1-1.9s0.1-1.5,0.6-2.1
		c0.5-0.6,1.1-0.9,1.9-1C416.4,549.3,417.1,549.6,417.7,550.1z"/>
	<path d="M422.1,579.7l0.2,0.7c-1.5,0.7-3,1-4.4,0.8c-1.4-0.2-2.6-0.6-3.7-1.5c-1.8-1.4-2.8-3.2-2.9-5.4c-0.1-2.2,0.5-4.3,1.9-6.2
		c1.3-1.8,3-3.1,5-3.7c2.4-0.8,4.7-0.4,6.9,1.3c1.4,1.1,2.3,2.3,2.6,3.6s0.2,2.5-0.4,3.3c-0.4,0.6-0.9,0.9-1.5,0.9
		c-0.6,0.1-1.1-0.1-1.7-0.5c-0.6-0.4-0.9-1-1-1.7c-0.1-0.7,0.1-1.5,0.8-2.6c0.4-0.7,0.5-1.2,0.5-1.6c-0.1-0.4-0.2-0.7-0.5-1
		c-0.5-0.4-1.1-0.4-1.7-0.2c-1.1,0.4-2.1,1.3-3.2,2.8c-0.9,1.3-1.6,2.7-2,4.1c-0.4,1.5-0.5,2.8-0.2,3.9c0.2,0.8,0.7,1.5,1.5,2.1
		c0.5,0.4,1,0.6,1.6,0.7C420.2,579.9,421.1,579.9,422.1,579.7z"/>
	<path d="M438,575.4l-7.2,11.2c-0.6,1-0.9,1.7-0.9,2.1c0.1,0.4,0.4,0.9,1.1,1.4l-0.3,0.5l-7.8-5.2l0.3-0.5c0.7,0.4,1.2,0.5,1.8,0.4
		c0.4-0.1,0.8-0.6,1.5-1.6l5.3-8.3c0.6-1,0.9-1.7,0.9-2.1c-0.1-0.4-0.4-0.9-1.1-1.4l0.4-0.6L438,575.4z M440.2,567.1
		c0.7,0.4,1.1,1.1,1.3,1.8c0.2,0.8,0,1.5-0.4,2.1c-0.4,0.6-1,1-1.8,1.2c-0.8,0.1-1.5,0-2.1-0.5c-0.7-0.4-1.1-1-1.2-1.8
		c-0.2-0.8-0.1-1.5,0.4-2.1c0.4-0.6,1-1,1.8-1.2C438.8,566.5,439.5,566.7,440.2,567.1z"/>
	<path d="M440.3,594.6l-3,5.5c-0.4,0.8-0.6,1.3-0.7,1.6c0,0.3,0.1,0.7,0.2,0.9c0.2,0.3,0.7,0.6,1.4,1.1l-0.3,0.6l-8.6-4.9l0.3-0.6
		c0.7,0.4,1.3,0.5,1.8,0.3c0.3-0.1,0.8-0.7,1.4-1.7l8.5-15.5c0.6-1,0.8-1.8,0.7-2.2c-0.1-0.4-0.5-0.9-1.2-1.3l0.3-0.6l6.3,3.6
		l-1.1,1.9c0.9-0.5,1.8-0.7,2.5-0.7c1.1,0,2,0.2,3,0.7c1.1,0.6,1.9,1.6,2.4,2.8c0.5,1.2,0.7,2.5,0.5,4c-0.2,1.5-0.7,2.9-1.4,4.3
		c-0.8,1.5-1.8,2.7-3,3.7c-1.2,1-2.4,1.5-3.7,1.6c-1.3,0.1-2.5-0.2-3.6-0.8c-0.8-0.5-1.5-1.1-2-1.9
		C440.9,596.4,440.6,595.6,440.3,594.6z M441.2,593c0.2,1.8,0.8,3,1.9,3.6c0.6,0.3,1.2,0.3,1.9-0.1c1-0.6,2.2-2.1,3.6-4.6
		c1.4-2.5,2-4.5,1.9-5.7c-0.1-0.9-0.4-1.5-1.1-1.9c-1.1-0.6-2.4-0.4-3.9,0.8L441.2,593z"/>
	<path d="M463.7,606c-2.7,0.8-4.7,0.8-6.3,0.1c-0.9-0.4-1.5-1.1-1.8-1.9c-0.3-0.9-0.3-1.7,0.1-2.6c0.5-1.2,1.5-2,3-2.4
		s4.2-0.6,8.4-0.6l0.7-1.5c0.5-1.2,0.8-1.9,0.8-2.3s-0.1-0.7-0.4-1.1c-0.3-0.4-0.6-0.7-1.1-0.9c-0.7-0.3-1.4-0.5-2-0.4
		c-0.4,0.1-0.6,0.2-0.7,0.5c-0.1,0.2-0.1,0.6,0.1,1.1c0.2,0.7,0.2,1.2,0,1.7c-0.2,0.5-0.6,0.9-1.2,1.1c-0.6,0.2-1.2,0.1-1.9-0.2
		c-0.7-0.3-1.2-0.8-1.5-1.5c-0.3-0.6-0.3-1.2-0.1-1.8c0.4-0.8,1-1.4,2-1.8c1-0.4,2.1-0.5,3.4-0.4c1.3,0.2,2.6,0.5,3.8,1.1
		c1.5,0.7,2.5,1.6,3.1,2.6c0.6,1,0.8,2,0.8,2.8c-0.1,0.5-0.4,1.6-1.2,3.3l-2.7,6c-0.3,0.7-0.5,1.2-0.5,1.4c0,0.2,0,0.4,0.1,0.5
		c0.1,0.1,0.2,0.2,0.3,0.3c0.3,0.1,0.7,0.1,1.2-0.2l0.3,0.6c-0.9,0.5-1.8,0.9-2.5,0.9c-0.8,0.1-1.5,0-2.3-0.4
		c-0.9-0.4-1.5-1-1.8-1.6C463.4,607.6,463.4,606.9,463.7,606z M464.2,604.8l2.3-5.1c-1.7,0.1-3.1,0.5-4.1,1.1
		c-0.7,0.4-1.2,0.9-1.5,1.5c-0.2,0.5-0.2,1,0,1.6c0.1,0.4,0.5,0.8,1,1C462.4,605,463.2,605,464.2,604.8z"/>
	<path d="M487.9,592.4l-7.4,19.6c-0.4,1.1-0.6,1.9-0.4,2.3c0.1,0.4,0.6,0.8,1.3,1.1l-0.2,0.6l-8.7-3.4l0.2-0.6
		c0.7,0.3,1.3,0.3,1.8,0c0.3-0.2,0.7-0.8,1.1-1.9l6.2-16.3c0.4-1.1,0.6-1.9,0.4-2.3c-0.1-0.4-0.6-0.8-1.3-1.1l0.2-0.6L487.9,592.4z"
		/>
	<path d="M495.9,603.4l-4.2,12.7c-0.4,1.1-0.5,1.9-0.3,2.3c0.2,0.4,0.6,0.8,1.4,1.1l-0.2,0.6l-8.8-3l0.2-0.6
		c0.7,0.2,1.3,0.2,1.8-0.1c0.3-0.2,0.7-0.8,1-2l3.1-9.3c0.4-1.1,0.5-1.9,0.3-2.3c-0.2-0.4-0.6-0.8-1.4-1.1l0.2-0.6L495.9,603.4z
		 M496,594.8c0.8,0.3,1.3,0.7,1.7,1.4c0.4,0.7,0.4,1.4,0.2,2.1c-0.2,0.7-0.7,1.3-1.4,1.6c-0.7,0.3-1.4,0.4-2.2,0.1
		c-0.7-0.3-1.3-0.7-1.7-1.4c-0.4-0.7-0.4-1.4-0.2-2.1c0.2-0.7,0.7-1.3,1.4-1.6C494.6,594.6,495.3,594.5,496,594.8z"/>
	<path d="M508.6,600.8l-1.6,5.9l3.9,1.1l-0.5,1.7l-3.9-1.1l-2.8,10c-0.3,0.9-0.4,1.6-0.4,1.9s0.1,0.6,0.3,0.8
		c0.2,0.2,0.4,0.4,0.6,0.4c0.8,0.2,1.7-0.1,2.7-1.1l0.4,0.5c-1.6,1.9-3.4,2.6-5.6,2c-1.1-0.3-1.9-0.8-2.4-1.6
		c-0.6-0.8-0.9-1.6-0.9-2.3c0-0.4,0.2-1.5,0.7-3.2l2.4-8.8l-2.2-0.6l0.2-0.6c1.8-0.6,3.3-1.3,4.7-2.1c1.4-0.8,2.6-1.8,3.8-3
		L508.6,600.8z"/>
	<path d="M517.4,627.4l-2.9-13.4c-0.4-2-0.8-3.3-1.1-3.8c-0.3-0.5-0.7-0.9-1.2-1.2l0.1-0.7l9,2l-0.1,0.7c-0.6-0.1-1-0.1-1.3,0.1
		c-0.3,0.1-0.5,0.4-0.5,0.6c-0.1,0.4,0,1.4,0.3,2.8l1.5,7.1l3-4.6c1.1-1.6,1.7-2.8,1.8-3.5c0.1-0.4,0-0.8-0.2-1.1
		c-0.2-0.3-0.7-0.6-1.5-0.8l0.1-0.7l5.6,1.2l-0.1,0.7c-0.6-0.1-1.1,0-1.5,0.3c-0.4,0.3-1.3,1.4-2.5,3.3l-7.4,11.2
		c-1.9,2.8-3.1,4.5-3.9,5.1c-1,0.8-2.2,1.1-3.4,0.8c-1-0.2-1.7-0.7-2.2-1.4c-0.5-0.7-0.7-1.4-0.5-2.2c0.1-0.7,0.5-1.2,1-1.6
		c0.5-0.4,1.1-0.5,1.7-0.3c0.6,0.1,1,0.4,1.3,0.9c0.3,0.5,0.4,1.1,0.2,1.9c-0.1,0.4-0.1,0.8,0,0.9c0.1,0.2,0.2,0.2,0.4,0.3
		c0.3,0.1,0.6,0,1-0.3c0.6-0.4,1.4-1.4,2.4-3L517.4,627.4z"/>
	<path d="M550.9,614.5c1.5,0.1,2.8,0.7,4.1,1.5c1.2,0.9,2.1,2,2.6,3.5c0.5,1.5,0.7,3,0.6,4.7c-0.2,2.4-1,4.3-2.4,5.8
		c-1.7,1.8-3.8,2.6-6.5,2.3c-2.6-0.3-4.5-1.3-5.7-3.2c-1.2-1.9-1.7-4-1.5-6.4c0.2-2.4,1.1-4.4,2.7-6.1
		C546.4,614.9,548.4,614.2,550.9,614.5z M550.9,615.7c-0.6-0.1-1.2,0.1-1.7,0.5c-0.5,0.4-0.9,1.3-1.1,2.6c-0.3,1.3-0.5,3.2-0.7,5.7
		c-0.1,1.3-0.1,2.5-0.1,3.6c0.1,0.9,0.3,1.5,0.7,2c0.4,0.5,0.9,0.8,1.4,0.8c0.6,0.1,1-0.1,1.4-0.3c0.5-0.4,0.9-0.9,1.1-1.6
		c0.4-1.1,0.7-3.4,1-6.9c0.2-2,0.2-3.4,0-4.2c-0.2-0.8-0.5-1.4-0.9-1.8C551.8,616,551.4,615.8,550.9,615.7z"/>
	<path d="M569.9,617.9l-0.4,11.7c0,1.1,0.1,1.8,0.3,2.1c0.4,0.5,1.1,0.7,2.2,0.7l0,0.6l-10.2-0.3l0-0.7c0.8,0,1.3-0.1,1.7-0.2
		c0.3-0.2,0.6-0.4,0.7-0.7c0.1-0.3,0.2-0.9,0.2-1.8l0.4-11.7l-2.5-0.1l0.1-1.8l2.5,0.1l0-1.2l0-0.8c0.1-1.7,0.7-3.2,2.1-4.3
		c1.3-1.1,3.1-1.6,5.3-1.6c1.5,0,2.6,0.4,3.3,0.9c0.7,0.6,1.1,1.2,1,1.9c0,0.5-0.3,1-0.7,1.4c-0.5,0.4-1.1,0.6-1.8,0.5
		c-0.6,0-1.1-0.2-1.5-0.5c-0.4-0.3-0.5-0.7-0.5-1.1c0-0.1,0-0.3,0.1-0.7c0.1-0.2,0.1-0.4,0.1-0.6c0-0.3-0.1-0.4-0.2-0.6
		c-0.2-0.2-0.4-0.3-0.7-0.3c-0.4,0-0.7,0.1-0.9,0.4c-0.2,0.3-0.4,0.7-0.4,1.4L570,614l-0.1,2.1l2.5,0.1l-0.1,1.8L569.9,617.9z"/>
	<path d="M609.2,606l0.7,8.5l-0.7,0.1c-0.7-2.2-1.9-3.8-3.4-4.8s-3.3-1.5-5.1-1.3c-1.6,0.1-2.9,0.7-4.2,1.7c-1.2,1-2.1,2.2-2.6,3.7
		c-0.6,1.9-0.8,3.9-0.6,6.1c0.2,2.2,0.6,4.1,1.3,5.9c0.7,1.7,1.7,3,3,3.8c1.3,0.8,2.9,1.1,4.8,1c1.6-0.1,3-0.6,4.2-1.4
		c1.2-0.8,2.5-2.1,3.8-3.8l0.2,2.1c-1.3,1.6-2.6,2.7-4.1,3.5c-1.5,0.8-3.2,1.3-5.2,1.4c-2.7,0.2-5.1-0.1-7.2-0.9
		c-2.2-0.9-3.9-2.2-5.2-4.1c-1.3-1.9-2-3.9-2.2-6.1c-0.2-2.3,0.2-4.6,1.3-6.8c1.1-2.2,2.6-4,4.6-5.3s4.2-2.1,6.6-2.3
		c1.8-0.2,3.6,0.1,5.6,0.6c1.2,0.3,1.9,0.5,2.2,0.5c0.4,0,0.7-0.2,1-0.5c0.3-0.3,0.4-0.8,0.4-1.4L609.2,606z"/>
	<path d="M629.7,618.5l-9.3,1.7c0.5,2.2,1.4,3.8,2.7,4.9c1,0.8,2.1,1.1,3.3,0.9c0.7-0.1,1.4-0.4,1.9-1c0.5-0.5,1-1.3,1.5-2.5
		l0.7,0.3c-0.6,2-1.4,3.5-2.4,4.5c-1,1-2.2,1.6-3.7,1.8c-2.5,0.5-4.6-0.2-6.2-1.8c-1.3-1.3-2.1-3.1-2.5-5.4c-0.5-2.8-0.1-5.1,1.2-7
		c1.2-1.9,2.9-3.1,5-3.4c1.7-0.3,3.3,0.1,4.8,1.3C628.1,613.9,629.2,615.9,629.7,618.5z M625.1,618.2c-0.3-1.9-0.7-3.2-1-3.9
		c-0.3-0.7-0.8-1.2-1.3-1.4c-0.3-0.2-0.6-0.2-1.1-0.1c-0.6,0.1-1.1,0.5-1.4,1.2c-0.5,1.2-0.6,2.7-0.3,4.5l0.1,0.6L625.1,618.2z"/>
	<path d="M638.2,608.5l0.5,2.1c0.6-1.1,1.3-2,2-2.6c0.7-0.6,1.5-1,2.4-1.3c1.1-0.3,2.1-0.2,2.9,0.2c0.9,0.4,1.5,1,2,1.8
		c0.4,0.6,0.8,1.9,1.2,3.8l1.6,6.4c0.3,1.3,0.6,2,0.9,2.3c0.3,0.2,0.8,0.3,1.6,0.2l0.2,0.6l-8.4,2.2l-0.2-0.6c0.6-0.2,1-0.6,1.2-1.1
		c0.1-0.3,0-1.1-0.3-2.2l-1.8-7.3c-0.3-1.3-0.6-2.2-0.8-2.5c-0.2-0.3-0.4-0.5-0.7-0.7c-0.3-0.1-0.6-0.1-0.9-0.1
		c-1,0.3-1.8,1.2-2.3,2.9l2.2,8.8c0.3,1.2,0.6,2,0.9,2.2c0.3,0.3,0.8,0.4,1.4,0.3l0.2,0.6l-8.4,2.2l-0.2-0.6
		c0.7-0.3,1.1-0.6,1.3-1.1c0.1-0.3,0.1-1.1-0.3-2.4l-2.3-9.2c-0.3-1.2-0.6-2-0.9-2.2c-0.3-0.2-0.8-0.3-1.6-0.2l-0.2-0.6L638.2,608.5
		z"/>
	<path d="M657,596.4l1.9,5.9l3.9-1.3l0.5,1.7l-3.9,1.3l3.2,9.9c0.3,0.9,0.5,1.5,0.7,1.7c0.2,0.2,0.4,0.4,0.7,0.5
		c0.3,0.1,0.5,0.1,0.7,0c0.8-0.3,1.3-1.1,1.6-2.4l0.6,0.2c-0.2,2.5-1.4,4.1-3.5,4.9c-1,0.4-2,0.4-2.9,0c-0.9-0.3-1.6-0.8-2-1.4
		c-0.2-0.3-0.6-1.4-1.2-3.1l-2.8-8.7l-2.1,0.7l-0.2-0.6c1.1-1.5,2-3,2.7-4.5c0.7-1.5,1.2-3,1.5-4.7L657,596.4z"/>
	<path d="M671.8,597.4l1.4,3.6c0.4-2.1,0.9-3.5,1.5-4.4c0.6-0.9,1.3-1.4,2-1.7c0.6-0.3,1.2-0.3,1.8,0c0.5,0.2,0.9,0.7,1.2,1.4
		c0.3,0.7,0.3,1.4,0.1,2c-0.2,0.6-0.6,1-1.1,1.2c-0.6,0.2-1.2,0.3-1.8,0.1c-0.6-0.2-0.9-0.3-1-0.3c-0.1,0-0.3,0-0.4,0.1
		c-0.3,0.1-0.6,0.4-0.8,0.8c-0.3,0.6-0.5,1.3-0.4,2.1c0.1,1.2,0.3,2.5,0.9,3.8l1.4,3.6l0.4,0.9c0.2,0.6,0.4,1,0.6,1.2
		c0.3,0.2,0.5,0.4,0.9,0.4c0.3,0,0.8-0.1,1.5-0.3l0.2,0.6l-8.6,3.5l-0.2-0.6c0.7-0.3,1.1-0.7,1.2-1.1c0.1-0.4-0.1-1.3-0.6-2.7
		l-3.4-8.7c-0.3-0.9-0.6-1.4-0.8-1.7c-0.2-0.3-0.5-0.4-0.8-0.5c-0.3-0.1-0.7,0-1.3,0.2l-0.2-0.6L671.8,597.4z"/>
	<path d="M696.2,602c-1.1,2.6-2.4,4.2-3.9,5c-0.9,0.4-1.8,0.5-2.6,0.2c-0.9-0.3-1.5-0.8-1.9-1.7c-0.6-1.2-0.5-2.5,0-3.9
		c0.6-1.4,2.2-3.8,4.9-7l-0.7-1.5c-0.5-1.1-1-1.8-1.2-2.1s-0.6-0.4-1.1-0.4c-0.5,0-0.9,0-1.4,0.3c-0.7,0.4-1.2,0.8-1.5,1.4
		c-0.2,0.3-0.2,0.6-0.1,0.9c0.1,0.2,0.4,0.4,0.9,0.6c0.6,0.3,1.1,0.6,1.3,1c0.3,0.5,0.3,1.1,0,1.7c-0.2,0.6-0.7,1-1.3,1.4
		c-0.7,0.3-1.4,0.4-2,0.3c-0.7-0.2-1.1-0.5-1.4-1.1c-0.4-0.8-0.4-1.7-0.1-2.7c0.3-1,0.9-2,1.9-2.9c0.9-0.9,2-1.7,3.2-2.3
		c1.5-0.7,2.8-1,3.9-0.8c1.1,0.2,2,0.6,2.6,1.2c0.4,0.4,0.9,1.4,1.7,3l2.8,5.9c0.3,0.7,0.6,1.1,0.7,1.3c0.1,0.2,0.3,0.2,0.4,0.3
		c0.2,0,0.3,0,0.4-0.1c0.3-0.1,0.5-0.5,0.6-1l0.7,0.1c-0.2,1.1-0.5,1.9-0.9,2.6c-0.4,0.7-1,1.2-1.8,1.5c-0.9,0.4-1.7,0.6-2.4,0.4
		C697.3,603.2,696.7,602.7,696.2,602z M695.6,600.8l-2.4-5.1c-1,1.4-1.6,2.8-1.8,4c-0.2,0.8-0.1,1.5,0.2,2.1c0.2,0.5,0.6,0.8,1.2,1
		c0.4,0.2,0.9,0.1,1.4-0.1C694.7,602.4,695.2,601.8,695.6,600.8z"/>
	<path d="M701.3,574.2l10.1,18.2c0.6,1,1.1,1.6,1.5,1.8c0.4,0.1,1,0,1.7-0.3l0.3,0.6l-8.1,4.7l-0.3-0.6c0.7-0.4,1-0.9,1.2-1.4
		c0.1-0.4-0.2-1.1-0.7-2.1l-8.4-15.2c-0.6-1-1.1-1.6-1.5-1.8c-0.4-0.1-1,0-1.7,0.3l-0.3-0.6L701.3,574.2z"/>
	<path d="M731,553.6l3.8,5.4l-0.5,0.4c-1.2-1-2.2-1.6-3-1.9c-0.8-0.3-1.6-0.3-2.5-0.1c-0.5,0.1-1.2,0.5-2.2,1.2l-1.5,1.1L736,575
		c0.7,1,1.2,1.6,1.5,1.8s0.7,0.2,1.1,0.2c0.5-0.1,1-0.3,1.6-0.7l0.7-0.5l0.4,0.5l-10.6,7.9l-0.4-0.5l0.7-0.5c0.6-0.4,1-0.9,1.2-1.4
		c0.2-0.3,0.2-0.7,0.1-1.2c-0.1-0.3-0.4-1-1.1-2l-10.9-15.3l-1.5,1.1c-1.4,1-2.1,2-2.4,3.1c-0.3,1.4,0,3,0.8,4.6l-0.6,0.4l-3.8-5.4
		L731,553.6z"/>
	<path d="M741.2,554.5l2.4,2.9c-0.2-2.1-0.2-3.6,0.1-4.6c0.3-1,0.7-1.8,1.3-2.3c0.5-0.5,1.1-0.7,1.6-0.6c0.6,0,1.1,0.4,1.6,0.9
		c0.5,0.6,0.8,1.2,0.7,1.8c0,0.6-0.2,1.1-0.7,1.5c-0.5,0.4-1.1,0.7-1.7,0.7c-0.6,0-1,0-1.1,0c-0.1,0-0.3,0.1-0.4,0.2
		c-0.3,0.2-0.4,0.6-0.5,1c-0.1,0.6,0,1.3,0.2,2.1c0.4,1.1,1.1,2.3,2,3.3l2.5,3l0.7,0.8c0.4,0.5,0.7,0.8,0.9,0.9
		c0.3,0.1,0.6,0.2,1,0.1c0.3-0.1,0.7-0.3,1.3-0.8l0.4,0.5l-7.1,6.2l-0.4-0.5c0.5-0.5,0.8-1,0.8-1.5c0-0.4-0.5-1.2-1.4-2.3l-5.9-7.1
		c-0.6-0.7-1-1.2-1.3-1.3c-0.3-0.2-0.6-0.2-0.9-0.2c-0.3,0-0.7,0.2-1.1,0.6l-0.4-0.5L741.2,554.5z"/>
	<path d="M746.5,538.5c0.6-0.6,1.2-0.8,2-0.8c0.8,0,1.4,0.3,1.9,0.8c0.5,0.6,0.8,1.2,0.7,2c0,0.8-0.3,1.5-0.9,2
		c-0.6,0.6-1.2,0.8-2,0.8c-0.8,0-1.4-0.3-1.9-0.8c-0.5-0.6-0.8-1.2-0.7-2C745.7,539.8,746,539.1,746.5,538.5z M753.9,542.6l9.1,9.6
		c0.8,0.9,1.4,1.3,1.9,1.3c0.4,0,1-0.2,1.6-0.8l0.4,0.5l-6.7,6.6l-0.4-0.5c0.5-0.6,0.8-1.1,0.8-1.7c0-0.4-0.4-1-1.2-1.9l-6.7-7.1
		c-0.8-0.9-1.4-1.3-1.9-1.3c-0.4,0-1,0.2-1.6,0.8l-0.5-0.5L753.9,542.6z"/>
	<path d="M772.7,544.5l4.5,4.2c0.6,0.6,1.1,0.9,1.4,1c0.3,0.1,0.6,0.1,0.9,0c0.3-0.1,0.7-0.5,1.3-1.2l0.5,0.4l-6.6,7.4l-0.5-0.5
		c0.5-0.6,0.7-1.2,0.7-1.7c0-0.4-0.5-0.9-1.3-1.7l-12.9-12c-0.9-0.8-1.5-1.2-1.9-1.2c-0.4,0-0.9,0.3-1.5,0.9l-0.5-0.4l4.9-5.5
		l1.6,1.5c-0.2-1-0.3-1.9-0.1-2.7c0.2-1.1,0.6-2,1.4-2.8c0.9-1,1.9-1.6,3.2-1.8c1.3-0.3,2.6-0.1,3.9,0.4c1.4,0.5,2.6,1.3,3.8,2.4
		c1.2,1.1,2.2,2.4,2.8,3.8c0.6,1.4,0.9,2.7,0.7,4c-0.2,1.3-0.7,2.4-1.6,3.4c-0.6,0.7-1.4,1.3-2.2,1.6
		C774.6,544.4,773.7,544.5,772.7,544.5z M771.4,543.3c1.8,0.2,3.1-0.2,3.9-1.1c0.4-0.5,0.6-1.1,0.4-1.9c-0.3-1.2-1.5-2.7-3.5-4.6
		c-2.1-2-3.8-3-5-3.2c-0.8-0.1-1.5,0.1-2,0.7c-0.8,0.9-0.9,2.3-0.2,4.1L771.4,543.3z"/>
	<path d="M776.3,515.8c0.9-1.2,2-2.1,3.4-2.7c1.4-0.6,2.8-0.7,4.3-0.4s2.9,1,4.2,2c1.9,1.5,3,3.2,3.5,5.2c0.6,2.4,0.1,4.7-1.5,6.8
		c-1.6,2.1-3.5,3.2-5.7,3.3c-2.2,0.1-4.3-0.6-6.1-2c-1.9-1.5-3.1-3.3-3.6-5.6C774.3,520,774.8,517.8,776.3,515.8z M777.4,516.5
		c-0.4,0.5-0.5,1.1-0.4,1.7c0.1,0.6,0.6,1.4,1.6,2.4c1,0.9,2.4,2.2,4.3,3.6c1,0.8,2,1.4,3,2c0.7,0.4,1.4,0.6,2,0.5
		c0.6-0.1,1.1-0.4,1.4-0.8c0.3-0.5,0.5-0.9,0.5-1.4c0-0.6-0.3-1.2-0.8-1.8c-0.7-0.9-2.5-2.4-5.2-4.5c-1.6-1.2-2.8-2-3.5-2.3
		c-0.7-0.3-1.4-0.3-1.9-0.2C778.1,515.8,777.7,516.1,777.4,516.5z"/>
	<path d="M781.1,496.6l17.1,11.6c1,0.7,1.7,1,2.1,0.9c0.4-0.1,0.9-0.4,1.4-1.1l0.5,0.4l-5.1,7.9l-0.5-0.4c0.4-0.7,0.5-1.3,0.4-1.8
		c-0.1-0.4-0.6-0.9-1.6-1.5l-14.2-9.7c-1-0.7-1.7-0.9-2.1-0.9c-0.4,0.1-0.9,0.4-1.4,1.1l-0.5-0.4L781.1,496.6z"/>
	<path d="M785,488.9c0.4-0.7,1-1.2,1.7-1.4c0.7-0.2,1.4-0.1,2.1,0.3c0.6,0.4,1.1,1,1.2,1.7c0.2,0.8,0.1,1.5-0.3,2.2
		c-0.4,0.7-1,1.1-1.7,1.4c-0.7,0.2-1.4,0.1-2.1-0.3c-0.6-0.4-1.1-1-1.2-1.7C784.5,490.3,784.6,489.6,785,488.9z M793.2,490.8
		l11.2,6.8c1,0.6,1.7,0.9,2.1,0.8c0.4-0.1,0.9-0.5,1.3-1.2l0.5,0.3l-4.8,8.2l-0.5-0.3c0.4-0.7,0.5-1.3,0.3-1.8
		c-0.1-0.4-0.7-0.8-1.7-1.5l-8.3-5c-1-0.6-1.7-0.9-2.1-0.8c-0.4,0.1-0.9,0.5-1.3,1.2l-0.6-0.3L793.2,490.8z"/>
</g>
</svg>
