<?xml version="1.0" encoding="UTF-8" standalone="no"?>
<!-- Created with Inkscape (http://www.inkscape.org/) -->

<svg
   xmlns:dc="http://purl.org/dc/elements/1.1/"
   xmlns:cc="http://creativecommons.org/ns#"
   xmlns:rdf="http://www.w3.org/1999/02/22-rdf-syntax-ns#"
   xmlns:svg="http://www.w3.org/2000/svg"
   xmlns="http://www.w3.org/2000/svg"
   xmlns:sodipodi="http://sodipodi.sourceforge.net/DTD/sodipodi-0.dtd"
   xmlns:inkscape="http://www.inkscape.org/namespaces/inkscape"
   version="1.0"
   width="600"
   height="400"
   id="svg2"
   sodipodi:docname="Coast_Guard_Flag_of_Azerbaijan.svg"
   inkscape:version="0.92.3 (2405546, 2018-03-11)">
  <sodipodi:namedview
     pagecolor="#ffffff"
     bordercolor="#666666"
     borderopacity="1"
     objecttolerance="10"
     gridtolerance="10"
     guidetolerance="10"
     inkscape:pageopacity="0"
     inkscape:pageshadow="2"
     inkscape:window-width="1920"
     inkscape:window-height="1017"
     id="namedview20"
     showgrid="false"
     inkscape:zoom="1.3387888"
     inkscape:cx="95.473057"
     inkscape:cy="259.7555"
     inkscape:window-x="-8"
     inkscape:window-y="-8"
     inkscape:window-maximized="1"
     inkscape:current-layer="layer1" />
  <defs
     id="defs4" />
  <metadata
     id="metadata7">
    <rdf:RDF>
      <cc:Work
         rdf:about="">
        <dc:format>image/svg+xml</dc:format>
        <dc:type
           rdf:resource="http://purl.org/dc/dcmitype/StillImage" />
        <dc:title />
      </cc:Work>
    </rdf:RDF>
  </metadata>
  <g
     transform="translate(0,-100)"
     id="layer1">
    <rect
       width="600"
       height="400"
       x="-600"
       y="100"
       transform="scale(-1,1)"
       id="rect3023"
       style="color:#000000;display:inline;overflow:visible;visibility:visible;fill:#509e2f;fill-opacity:1;fill-rule:evenodd;stroke:none;stroke-width:4;marker:none" />
    <rect
       width="300"
       height="180.82111"
       x="-300"
       y="100"
       transform="scale(-1,1)"
       id="rect2962"
       style="color:#000000;display:inline;overflow:visible;visibility:visible;fill:#ffffff;fill-opacity:1;fill-rule:evenodd;stroke:none;stroke-width:4;marker:none" />
    <path
       d="m 0,260 v 4.50612 C 1.5929889,265.43 6.470043,268 11.53169,268 c 5.698668,0 10.726148,-3.02766 11.53169,-3.52653 0.781112,0.48447 5.838832,3.52653 11.553698,3.52653 5.712451,0 10.746927,-3.0399 11.531691,-3.52653 C 46.929879,264.95794 51.9876,268 57.702465,268 c 5.71487,0 10.75058,-3.04206 11.53169,-3.52653 C 70.01892,264.9601 75.053385,268 80.76585,268 c 5.69866,0 10.726145,-3.02766 11.53169,-3.52653 0.78111,0.48447 5.83883,3.52653 11.55369,3.52653 5.82145,0 11.049,-3.20675 11.66374,-3.59184 0.0533,0.0445 0.90308,0.77757 3.08099,1.69797 2.24276,0.9478 5.23345,1.89387 8.31865,1.89387 5.71486,0 10.77259,-3.04206 11.5537,-3.52653 C 139.25307,264.9601 144.28754,268 150,268 c 5.71246,0 10.74693,-3.0399 11.53169,-3.52653 0.78111,0.48447 5.83883,3.52653 11.55369,3.52653 3.0852,0 6.0759,-0.94607 8.31866,-1.89387 2.17792,-0.9204 3.02768,-1.65348 3.08099,-1.69797 0.61474,0.38509 5.84229,3.59184 11.66374,3.59184 5.71486,0 10.77258,-3.04206 11.55369,-3.52653 0.80555,0.49887 5.83303,3.52653 11.5317,3.52653 5.71245,0 10.74692,-3.0399 11.53169,-3.52653 0.78111,0.48447 5.81682,3.52653 11.53169,3.52653 5.71486,0 10.77258,-3.04206 11.55369,-3.52653 0.78477,0.48663 5.81924,3.52653 11.53169,3.52653 5.71487,0 10.77259,-3.04206 11.5537,-3.52653 0.80555,0.49887 5.83302,3.52653 11.5317,3.52653 5.06164,0 9.9387,-2.57 11.53168,-3.49388 L 300,260 l -0.55017,0.35919 c 0,0 -5.61345,3.46122 -10.98151,3.46122 -5.36808,0 -10.98152,-3.46122 -10.98152,-3.46122 L 276.91462,260 l -0.55018,0.35919 c 0,0 -5.61345,3.46122 -10.98152,3.46122 -5.36807,0 -10.98151,-3.46122 -10.98151,-3.46122 L 253.85123,260 l -0.55017,0.35919 c 0,0 -5.63545,3.46122 -11.00352,3.46122 -5.36808,0 -10.98152,-3.46122 -10.98152,-3.46122 L 230.76585,260 l -0.55018,0.35919 c 0,0 -5.61344,3.46122 -10.98151,3.46122 -5.36807,0 -10.98152,-3.46122 -10.98152,-3.46122 L 207.70246,260 l -0.57218,0.35919 c 0,0 -5.61343,3.46122 -10.98151,3.46122 -5.36808,0 -10.98152,-3.46122 -10.98152,-3.46122 l -0.24207,-0.16327 -0.85827,0.16327 c 0,0 -1.34894,0.84983 -3.4331,1.7306 -2.08416,0.88078 -4.86439,1.73062 -7.54842,1.73062 -5.36807,0 -11.00352,-3.46122 -11.00352,-3.46122 L 161.53169,260 l -0.55018,0.35919 c 0,0 -5.61344,3.46122 -10.98151,3.46122 -5.36808,0 -10.98151,-3.46122 -10.98151,-3.46122 L 138.46831,260 l -0.55018,0.35919 c 0,0 -5.63545,3.46122 -11.00351,3.46122 -2.68404,0 -5.46426,-0.84984 -7.54842,-1.73062 -2.08416,-0.88077 -3.4331,-1.7306 -3.4331,-1.7306 l -0.85827,-0.16327 -0.24208,0.16327 c 0,0 -5.61344,3.46122 -10.98152,3.46122 -5.368075,0 -10.98151,-3.46122 -10.98151,-3.46122 L 92.29754,260 l -0.55018,0.35919 c 0,0 -5.61345,3.46122 -10.98151,3.46122 -5.36808,0 -10.98152,-3.46122 -10.98152,-3.46122 L 69.234155,260 68.68398,260.35919 c 0,0 -5.61344,3.46122 -10.981515,3.46122 -5.368065,0 -11.003521,-3.46122 -11.003521,-3.46122 L 46.148769,260 45.59859,260.35919 c 0,0 -5.61344,3.46122 -10.981512,3.46122 -5.368073,0 -10.981515,-3.46122 -10.981515,-3.46122 L 23.085387,260 l -0.572183,0.35919 c 0,0 -5.613441,3.46122 -10.981514,3.46122 -5.368072,0 -10.98151395,-3.46122 -10.98151395,-3.46122 z"
       id="path2847"
       style="color:#000000;display:inline;overflow:visible;visibility:visible;fill:#00b5e2;fill-opacity:1;fill-rule:evenodd;stroke:none;stroke-width:4;marker:none"
       inkscape:connector-curvature="0" />
    <path
       d="m 0,267.99999 v 32 h 300 v -32 c 0,0 -5.76247,3.78058 -11.53168,3.78058 -5.76924,0 -11.5537,-3.78058 -11.5537,-3.78058 0,0 -5.76247,3.78058 -11.5317,3.78058 -5.76923,0 -11.53168,-3.78058 -11.53169,-3.78058 0,0 -5.78447,3.78058 -11.55369,3.78058 -5.76924,0 -11.53169,-3.78058 -11.53169,-3.78058 0,0 -5.76246,3.78058 -11.53169,3.78058 -5.76924,0 -11.53169,-3.78058 -11.53169,-3.78058 0,0 -5.78447,3.78058 -11.5537,3.78058 -5.76924,0 -11.5317,-3.78058 -11.53169,-3.78058 0,0 -5.76247,3.78058 -11.5317,3.78058 -5.76922,0 -11.55369,-3.78058 -11.55369,-3.78058 0,0 -5.76247,3.78058 -11.53169,3.78058 -5.76923,0 -11.53169,-3.78058 -11.53169,-3.78058 0,0 -5.78447,3.78058 -11.5537,3.78058 -5.76923,0 -11.5317,-3.78058 -11.53169,-3.78058 0,0 -5.76246,3.78058 -11.53169,3.78058 -5.76923,0 -11.55369,-3.78058 -11.55369,-3.78058 0,0 -5.762465,3.78058 -11.53169,3.78058 -5.769235,0 -11.531695,-3.78058 -11.531695,-3.78058 0,0 -5.762455,3.78058 -11.53169,3.78058 -5.769235,0 -11.553696,-3.78058 -11.553696,-3.78058 0,0 -5.76246,3.78058 -11.531691,3.78058 -5.769231,0 -11.531691,-3.78058 -11.531691,-3.78058 0,0 -5.784467,3.78058 -11.553697,3.78058 C 5.76246,271.78057 0,267.99999 0,267.99999 Z"
       id="rect2710"
       style="color:#000000;display:inline;overflow:visible;visibility:visible;fill:#00b5e2;fill-opacity:1;fill-rule:evenodd;stroke:none;stroke-width:4;marker:none"
       inkscape:connector-curvature="0" />
    <path
       d="m 81.457535,146.99707 c -22.183455,0.2813 -40.112298,18.37518 -40.112303,40.625 0,22.425 18.199993,40.625 40.624998,40.625 15.05936,0 28.23752,-8.20269 35.25391,-20.38575 -6.11374,8.04433 -15.7842,13.23243 -26.66016,13.23243 -18.472795,0 -33.47168,-14.99888 -33.47168,-33.47168 5e-6,-18.47281 14.998875,-33.47168 33.47168,-33.47168 10.87754,0 20.54657,5.21051 26.66016,13.25683 -7.01379,-12.19299 -20.18711,-20.41015 -35.25391,-20.41015 -0.175195,0 -0.33802,-0.002 -0.512695,0 z"
       id="path2689"
       style="color:#000000;display:inline;overflow:visible;visibility:visible;fill:#ef3340;fill-opacity:1;fill-rule:evenodd;stroke:none;stroke-width:4;marker:none"
       inkscape:connector-curvature="0" />
    <path
       d="m 184.36903,90.49913 4.22918,11.8926 11.39981,-5.418862 -5.41886,11.399812 11.8926,4.22917 -11.8926,4.22918 5.41886,11.39981 -11.39981,-5.41886 -4.22918,11.89259 -4.22917,-11.89259 -11.39981,5.41886 5.41886,-11.39982 -11.8926,-4.22917 11.8926,-4.22917 -5.41886,-11.399813 11.39981,5.418863 z"
       transform="matrix(0.9048659,0,0,0.9048659,-41.587149,85.732044)"
       id="path2702"
       style="color:#000000;display:inline;overflow:visible;visibility:visible;fill:#ef3340;fill-opacity:1;fill-rule:evenodd;stroke:none;stroke-width:4;marker:none"
       inkscape:connector-curvature="0" />
    <path
       d="m 207.23878,216.08886 c 0.28046,-0.328 0.55995,-0.66959 0.83009,-0.97656 0.31464,-0.35754 0.62088,-0.66481 0.92774,-1.00098 -1.85787,-1.59288 -3.39772,-3.69641 -3.8086,-5.2002 l 4.02832,0.1709 c -4.3695,-2.25169 -7.69294,-5.62532 -9.57031,-10.5957 0.27069,4.51136 -0.35671,6.64437 1.12304,14.37988 l 2.00196,-2.29492 c 1.32081,2.40456 2.78796,4.14069 4.46777,5.51758 z"
       id="path2633"
       style="fill:#00b5e2;fill-opacity:1;fill-rule:evenodd;stroke:none"
       inkscape:connector-curvature="0" />
    <path
       d="m 247.91262,215.18554 c 0.0209,0.0898 0.0561,0.17834 0.0732,0.26855 0.16005,0.84291 0.22519,1.69003 0.24414,2.53907 2.93053,-1.67604 5.28992,-3.76287 7.2998,-7.42188 l 2.00196,2.29492 c 1.47976,-7.73551 0.85235,-9.86852 1.12304,-14.37988 -1.87736,4.97038 -5.20081,8.34401 -9.57031,10.5957 l 4.02832,-0.1709 c -0.51239,1.87539 -2.70659,4.75247 -5.2002,6.27442 z"
       id="path2629"
       style="fill:#00b5e2;fill-opacity:1;fill-rule:evenodd;stroke:none"
       inkscape:connector-curvature="0" />
    <path
       d="m 231.99465,190.28319 c -0.46213,0.21711 -0.88485,0.44954 -1.44043,0.63477 -1.68071,0.56037 -3.07337,1.17475 -4.24804,1.80664 v 8.61816 c -1e-5,3.43748 -2.80514,9.91318 -5.3711,12.86622 -1.56967,1.80643 -4.31755,1.95649 -6.73828,1.97753 -0.6557,0.60848 -1.29415,1.19986 -2.22168,2.2461 -0.0971,0.1095 -0.21228,0.2459 -0.31738,0.36621 4.37904,2.18981 9.93167,3.97952 17.48047,8.47168 5.55836,-3.30477 9.8595,-5.08068 13.59863,-6.68945 0.21006,-0.9 0.43945,-1.85788 0.43945,-2.22168 0,-0.79098 -0.25088,-1.51994 -0.41503,-2.27051 -2.04257,-0.10842 -4.11183,-0.40257 -5.39551,-1.87988 -2.56596,-2.95304 -5.3711,-9.42874 -5.3711,-12.86622 z"
       id="path2625"
       style="fill:#00b5e2;fill-opacity:1;fill-rule:evenodd;stroke:none"
       inkscape:connector-curvature="0" />
    <path
       d="m 228.60109,148.4375 c -5.08564,0.2919 -9.15528,4.53609 -9.15527,9.69237 1e-5,4.35016 2.9027,8.05161 6.86035,9.27735 v 6.46972 h -17.99316 l 17.99316,7.9834 v 5.39551 c 0.85295,-0.39241 1.65131,-0.81078 2.66113,-1.14746 1.23451,-0.41159 2.09039,-0.88576 3.02735,-1.34277 v -2.90528 l 17.99316,-7.9834 h -17.99316 v -6.46972 c 3.96889,-1.21884 6.88477,-4.91916 6.88476,-9.27735 1e-5,-5.34416 -4.37265,-9.69237 -9.71679,-9.69237 -0.18789,0 -0.37622,-0.0106 -0.56152,0 z m 0.0977,2.31933 c 0.15664,-0.01 0.30464,0 0.46387,0 4.07603,0 7.34863,3.297 7.34863,7.37304 2e-5,4.07604 -3.27259,7.37305 -7.34863,7.37305 -4.07605,0 -7.34864,-3.297 -7.34864,-7.37305 0,-3.91681 3.03141,-7.12833 6.88477,-7.37304 z"
       id="path2225"
       style="fill:#00b5e2;fill-opacity:1;fill-rule:evenodd;stroke:none"
       inkscape:connector-curvature="0" />
    <path
       d="m 231.92141,165.30761 c 0.051,0.035 0.12037,0.0625 0.17089,0.0976 l -0.0976,-0.0976 h -0.0732 z"
       id="path2402"
       style="fill:#00b5e2;fill-opacity:1;fill-rule:evenodd;stroke:none"
       inkscape:connector-curvature="0" />
    <path
       d="m 213.855,153.36913 -0.63477,1.85547 0.92774,0.31738 c 1.30521,0.45099 2.57808,0.91254 3.80859,1.36719 0.073,-0.66857 0.18001,-1.32425 0.36621,-1.95312 -1.14997,-0.42137 -2.33114,-0.82742 -3.54004,-1.24512 z m 9.64355,3.61328 c -0.0734,0.37363 -0.12207,0.7503 -0.12207,1.14746 0,0.32887 0.0227,0.63902 0.0732,0.95215 3.74522,1.59706 6.98701,3.25926 9.61913,5.10255 3.4,2.381 5.74974,5.00508 6.98243,8.12987 h 2.02636 c -1.32062,-3.85118 -4.04622,-7.02801 -7.8857,-9.71679 -2.96338,-2.07525 -6.57192,-3.89921 -10.69336,-5.61524 z"
       id="path2430"
       style="fill:#00b5e2;fill-opacity:1;fill-rule:evenodd;stroke:none"
       inkscape:connector-curvature="0" />
    <path
       d="m 215.5884,210.96191 c -0.69443,0.0905 -1.30078,0.43237 -1.92871,0.8789 -0.66833,0.47526 -1.47455,1.42843 -2.22168,2.17285 -0.003,-0.002 -0.0214,0.002 -0.0243,0 -1.22272,1.21612 -2.48573,2.47312 -3.85742,4.07715 -1.08816,1.27248 -2.15555,2.54382 -3.2959,3.83301 l -0.65918,0.70801 1.46485,1.29394 0.65914,-0.70801 c 1.23303,-1.39396 2.39901,-2.75472 3.56445,-4.10156 1.63189,-1.8859 3.02966,-3.31488 4.24805,-4.44336 0.38873,-0.36004 0.92048,-1.01426 1.24511,-1.24511 0.42022,-0.29882 0.78182,-0.45629 0.97657,-0.5127 0.0211,-0.005 0.0566,-0.0214 0.0732,-0.0243 0.005,-5e-4 0.0199,4.3e-4 0.0244,0 0.005,-4.3e-4 0.0203,5e-4 0.0243,0 0.003,-5e-4 0.0215,0.001 0.0243,0 0.008,-0.002 0.0193,-0.0221 0.0243,-0.0243 0.002,-0.001 0.0225,0.001 0.0244,0 0.009,0.0133 0.029,0.0509 0.0732,0.12207 0.1042,0.16767 0.20492,0.73484 0.26856,1.46484 0.26762,-0.0325 0.57822,-0.001 0.83008,-0.0488 0.41111,-0.0773 0.77016,-0.1921 1.12304,-0.31738 -0.0911,-0.82304 -0.21833,-1.57179 -0.56152,-2.12402 -0.41441,-0.66688 -1.26341,-1.07084 -2.00195,-1.00098 -0.0346,0.003 -0.0635,-0.005 -0.0977,0 z"
       id="path2501"
       style="fill:#00b5e2;fill-opacity:1;fill-rule:evenodd;stroke:none"
       inkscape:connector-curvature="0" />
    <path
       d="m 242.66359,178.85741 -2.51464,1.09864 c -0.3456,0.7395 -0.65825,1.48021 -1.29395,2.19726 -1.1385,1.28422 -3.03098,2.47538 -5.29785,3.61328 -0.95491,0.47934 -1.94617,0.95766 -3.125,1.3916 -0.36902,0.13585 -0.58469,0.3088 -0.97656,0.43946 -0.61127,0.2038 -1.02694,0.46514 -1.58692,0.6836 -1.09921,0.42882 -2.22033,0.83785 -3.125,1.31836 -1.53485,0.81522 -2.84228,1.69749 -3.83301,2.63671 -1.87216,1.77486 -2.80581,3.79902 -2.66113,5.76172 0.14468,1.96271 1.37693,3.70753 3.34472,4.98047 0.74364,0.48105 1.70713,0.81918 2.66114,1.17188 0.0143,-0.053 0.0351,-0.11842 0.0488,-0.1709 0.18342,-0.70141 0.22709,-1.21379 0.29297,-1.75781 -0.6894,-0.27758 -1.4341,-0.54316 -1.95313,-0.87891 -1.60512,-1.03834 -2.34933,-2.24213 -2.4414,-3.49121 -0.0921,-1.24908 0.4684,-2.69909 2.05078,-4.19922 0.6319,-0.59905 1.53606,-1.20016 2.49023,-1.78223 0.87621,-0.53451 1.96831,-1.02354 3.125,-1.51367 0.73799,-0.31271 1.34234,-0.64269 2.19727,-0.92773 0.14502,-0.0483 0.22386,-0.12182 0.36621,-0.1709 1.20171,-0.41438 2.10998,-0.90182 3.125,-1.36719 2.86576,-1.31391 5.26597,-2.75507 6.76269,-4.44336 1.26138,-1.4228 1.98751,-2.98394 2.34375,-4.58984 z m -8.61817,25.29297 c 0.19805,0.71878 0.51015,1.49107 0.80567,2.27051 2.73809,0.8462 4.88905,2.08098 6.4209,3.58887 1.38757,1.36585 2.28357,2.94417 2.83203,4.61425 0.33764,1.02813 0.53758,2.09233 0.58594,3.17383 0.003,0.072 0.0193,0.14815 0.0243,0.21973 1.3e-4,0.002 -5e-4,0.0216 0,0.0243 0.002,0.10707 0.0244,0.21008 0.0244,0.31738 0,0.69815 -0.19343,1.93949 -0.58594,3.32031 -0.45047,1.58471 -1.17491,3.37217 -2.36817,5.05372 -2.23298,3.14676 -5.85711,5.83496 -12.01171,5.83496 -3.51636,0 -6.65559,-1.25707 -8.78907,-3.58887 -1.2725,-1.39081 -2.14355,-3.23373 -2.58789,-5.41992 -0.77962,-0.34243 -1.41924,-0.63983 -2.14843,-0.95215 0.36285,3.11869 1.50785,5.73618 3.29589,7.69043 2.53887,2.77488 6.24336,4.22364 10.2295,4.22364 6.74126,0 11.07726,-3.11189 13.59863,-6.66504 1.80251,-2.54011 2.52593,-5.01357 2.90528,-7.10449 0.002,4e-5 0.0214,-1.8e-4 0.0244,0 0.15075,-0.83218 0.39062,-1.80643 0.39062,-2.39259 0,-1.374 -0.25318,-2.7256 -0.65918,-4.05273 -0.6302,-2.05999 -1.70815,-4.02946 -3.39355,-5.68848 -2.04917,-2.0171 -4.90628,-3.57967 -8.59375,-4.46777 z"
       id="path2503"
       style="fill:#00b5e2;fill-opacity:1;fill-rule:evenodd;stroke:none"
       inkscape:connector-curvature="0" />
  </g>
</svg>
