<svg xmlns="http://www.w3.org/2000/svg" xmlns:xlink="http://www.w3.org/1999/xlink" version="1.0" height="200" width="350" id="svg2"><defs id="defs5"><linearGradient id="id87" gradientUnits="userSpaceOnUse" xlink:href="#id86" x1="137.151" y1="211.007" x2="139.516" y2="216.2"/><linearGradient id="id86" gradientUnits="userSpaceOnUse" x1="26.9957" y1="211.007" x2="24.6309" y2="216.2"><stop offset="0" style="stop-color:#f19abe" id="stop4828"/><stop offset="1" style="stop-color:#fce0ec" id="stop4830"/></linearGradient><linearGradient id="id85" gradientUnits="userSpaceOnUse" xlink:href="#id52" x1="77.2896" y1="50.8866" x2="69.3098" y2="54.7126"/><linearGradient id="id84" gradientUnits="userSpaceOnUse" xlink:href="#id83" x1="11.4483" y1="166.671" x2="19.1992" y2="172.766"/><linearGradient id="id83" gradientUnits="userSpaceOnUse" x1="144.947" y1="166.671" x2="152.698" y2="172.766"><stop offset="0" style="stop-color:#fff9fb" id="stop4819"/><stop offset=".678431" style="stop-color:#feeff5" id="stop4821"/><stop offset="1" style="stop-color:#fde4ee" id="stop4823"/></linearGradient><linearGradient id="id82" gradientUnits="userSpaceOnUse" xlink:href="#id81" x1="80.0008" y1="220.329" x2="80.2661" y2="212.549"/><linearGradient id="id81" gradientUnits="userSpaceOnUse" x1="84.8824" y1="227.743" x2="85.3357" y2="214.442"><stop offset="0" style="stop-color:#667ab3" id="stop4813"/><stop offset="1" style="stop-color:#27a9d6" id="stop4815"/></linearGradient><linearGradient id="id80" gradientUnits="userSpaceOnUse" xlink:href="#id61" x1="146.061" y1="188.014" x2="147.907" y2="195.614"/><linearGradient id="id79" gradientUnits="userSpaceOnUse" xlink:href="#id61" x1="18.0857" y1="188.014" x2="16.2395" y2="195.614"/><linearGradient id="id78" gradientUnits="userSpaceOnUse" x1="78.571" y1="54.3149" x2="90.0679" y2="30.9338"><stop offset="0" style="stop-color:#dededd" id="stop4806"/><stop offset="1" style="stop-color:#838281" id="stop4808"/></linearGradient><linearGradient id="id77" gradientUnits="userSpaceOnUse" xlink:href="#id76" x1="137.673" y1="210.147" x2="136.511" y2="199.177"/><linearGradient id="id76" gradientUnits="userSpaceOnUse" x1="26.4732" y1="210.147" x2="27.6354" y2="199.177"><stop offset="0" style="stop-color:#ef90b6" id="stop4800"/><stop offset="1" style="stop-color:white" id="stop4802"/></linearGradient><linearGradient id="id75" gradientUnits="userSpaceOnUse" xlink:href="#id74" x1="151.337" y1="201.648" x2="146.529" y2="189.493"/><linearGradient id="id74" gradientUnits="userSpaceOnUse" x1="12.8094" y1="201.648" x2="17.6176" y2="189.493"><stop offset="0" style="stop-color:#f8c300" id="stop4792"/><stop offset=".211765" style="stop-color:#f09e22" id="stop4794"/><stop offset="1" style="stop-color:#e77844" id="stop4796"/></linearGradient><linearGradient id="id73" gradientUnits="userSpaceOnUse" xlink:href="#id72" x1="145.988" y1="187.263" x2="145.325" y2="177.397"/><linearGradient id="id72" gradientUnits="userSpaceOnUse" x1="18.1582" y1="187.263" x2="18.8217" y2="177.397"><stop offset="0" style="stop-color:#da251d" id="stop4786"/><stop offset="1" style="stop-color:#e77817" id="stop4788"/></linearGradient><linearGradient id="id71" gradientUnits="userSpaceOnUse" xlink:href="#id68" x1="24.8894" y1="174.086" x2="32.6944" y2="174.597"/><linearGradient id="id70" gradientUnits="userSpaceOnUse" xlink:href="#id58" x1="74.8165" y1="58.9496" x2="70.5716" y2="67.2414"/><linearGradient id="id69" gradientUnits="userSpaceOnUse" xlink:href="#id58" x1="95.4966" y1="37.3839" x2="73.0987" y2="81.1345"/><linearGradient id="id68" gradientUnits="userSpaceOnUse" x1="131.452" y1="174.086" x2="139.257" y2="174.597"><stop offset="0" style="stop-color:#fbd5e5" id="stop4778"/><stop offset="1" style="stop-color:#fef6f9" id="stop4780"/></linearGradient><linearGradient id="id67" gradientUnits="userSpaceOnUse" x1="75.0311" y1="71.8363" x2="65.9509" y2="87.6534"><stop offset="0" style="stop-color:#dededd" id="stop4773"/><stop offset="1" style="stop-color:white" id="stop4775"/></linearGradient><linearGradient id="id66" gradientUnits="userSpaceOnUse" xlink:href="#id65" x1="19.824" y1="168.533" x2="18.5182" y2="156.761"/><linearGradient id="id65" gradientUnits="userSpaceOnUse" x1="145.628" y1="168.533" x2="144.322" y2="156.761"><stop offset="0" style="stop-color:#facee0" id="stop4765"/><stop offset=".160784" style="stop-color:#fce3ed" id="stop4767"/><stop offset="1" style="stop-color:#fff9fb" id="stop4769"/></linearGradient><linearGradient id="id64" gradientUnits="userSpaceOnUse" xlink:href="#id61" x1="16.3367" y1="188.533" x2="6.89318" y2="186.13"/><linearGradient id="id63" gradientUnits="userSpaceOnUse" xlink:href="#id62" x1="141.674" y1="169.799" x2="143.772" y2="161.489"/><linearGradient id="id62" gradientUnits="userSpaceOnUse" x1="20.3749" y1="169.799" x2="22.4727" y2="161.489"><stop offset="0" style="stop-color:#f19abe" id="stop4758"/><stop offset="1" style="stop-color:#fef0f6" id="stop4760"/></linearGradient><linearGradient id="id61" gradientUnits="userSpaceOnUse" x1="147.81" y1="188.533" x2="157.253" y2="186.13"><stop offset="0" style="stop-color:#dd137b" id="stop4753"/><stop offset="1" style="stop-color:#e77817" id="stop4755"/></linearGradient><linearGradient id="id60" gradientUnits="userSpaceOnUse" xlink:href="#id59" x1="150.563" y1="189.569" x2="167.883" y2="191.574"/><linearGradient id="id59" gradientUnits="userSpaceOnUse" x1="13.5837" y1="189.569" x2="-3.73672" y2="191.574"><stop offset="0" style="stop-color:#e77817" id="stop4745"/><stop offset=".439216" style="stop-color:#ef9d0c" id="stop4747"/><stop offset="1" style="stop-color:#f8c300" id="stop4749"/></linearGradient><linearGradient id="id58" gradientUnits="userSpaceOnUse" x1="69.374" y1="58.9714" x2="84.2288" y2="48.6375"><stop offset="0" style="stop-color:#aaa9a9" id="stop4740"/><stop offset="1" style="stop-color:#dededd" id="stop4742"/></linearGradient><linearGradient id="id57" gradientUnits="userSpaceOnUse" x1="82.9551" y1="44.5539" x2="62.0989" y2="37.6453"><stop offset="0" style="stop-color:#c2c1c1" id="stop4735"/><stop offset="1" style="stop-color:#dededd" id="stop4737"/></linearGradient><linearGradient id="id56" gradientUnits="userSpaceOnUse" x1="92.8833" y1="72.6204" x2="110.933" y2="73.1139"><stop offset="0" style="stop-color:#605d5c" id="stop4730"/><stop offset="1" style="stop-color:#969594" id="stop4732"/></linearGradient><linearGradient id="id55" gradientUnits="userSpaceOnUse" xlink:href="#id54" x1="8.81384" y1="178.453" x2="18.2069" y2="189.373"/><linearGradient id="id54" gradientUnits="userSpaceOnUse" x1="155.333" y1="178.453" x2="145.94" y2="189.373"><stop offset="0" style="stop-color:#e66776" id="stop4724"/><stop offset="1" style="stop-color:#b76767" id="stop4726"/></linearGradient><linearGradient id="id53" gradientUnits="userSpaceOnUse" x1="85.9601" y1="45.3927" x2="59.0098" y2="36.5926"><stop offset="0" style="stop-color:#c2c1c1" id="stop4719"/><stop offset="1" style="stop-color:white" id="stop4721"/></linearGradient><linearGradient id="id52" gradientUnits="userSpaceOnUse" x1="86.0477" y1="48.707" x2="60.2148" y2="58.8287"><stop offset="0" style="stop-color:#c2c1c1" id="stop4714"/><stop offset="1" style="stop-color:#aaa9a9" id="stop4716"/></linearGradient><linearGradient y2="161.489" x2="22.4727" y1="169.799" x1="20.3749" gradientUnits="userSpaceOnUse" id="linearGradient6971" xlink:href="#id62"/><linearGradient y2="189.493" x2="17.6176" y1="201.648" x1="12.8094" gradientUnits="userSpaceOnUse" id="linearGradient6975" xlink:href="#id74"/><linearGradient y2="191.574" x2="-3.73672" y1="189.569" x1="13.5837" gradientUnits="userSpaceOnUse" id="linearGradient6979" xlink:href="#id59"/><linearGradient y2="177.397" x2="18.8217" y1="187.263" x1="18.1582" gradientUnits="userSpaceOnUse" id="linearGradient6981" xlink:href="#id72"/><linearGradient y2="216.2" x2="24.6309" y1="211.007" x1="26.9957" gradientUnits="userSpaceOnUse" id="linearGradient6983" xlink:href="#id86"/><linearGradient y2="199.177" x2="27.6354" y1="210.147" x1="26.4732" gradientUnits="userSpaceOnUse" id="linearGradient6985" xlink:href="#id76"/><linearGradient y2="172.766" x2="152.698" y1="166.671" x1="144.947" gradientUnits="userSpaceOnUse" id="linearGradient6989" xlink:href="#id83"/><linearGradient y2="156.761" x2="144.322" y1="168.533" x1="145.628" gradientUnits="userSpaceOnUse" id="linearGradient6993" xlink:href="#id65"/><linearGradient y2="174.597" x2="139.257" y1="174.086" x1="131.452" gradientUnits="userSpaceOnUse" id="linearGradient6995" xlink:href="#id68"/><linearGradient y2="186.13" x2="157.253" y1="188.533" x1="147.81" gradientUnits="userSpaceOnUse" id="linearGradient6997" xlink:href="#id61"/><linearGradient y2="189.373" x2="145.94" y1="178.453" x1="155.333" gradientUnits="userSpaceOnUse" id="linearGradient6999" xlink:href="#id54"/><linearGradient y2="214.442" x2="85.3357" y1="227.743" x1="84.8824" gradientUnits="userSpaceOnUse" id="linearGradient7001" xlink:href="#id81"/><linearGradient y2="212.549" x2="80.2661" y1="220.329" x1="80.0008" gradientUnits="userSpaceOnUse" id="linearGradient7003" xlink:href="#id81"/><linearGradient y2="214.442" x2="85.3357" y1="227.743" x1="84.8824" gradientUnits="userSpaceOnUse" id="linearGradient7005" xlink:href="#id81"/><linearGradient y2="48.6375" x2="84.2288" y1="58.9714" x1="69.374" gradientUnits="userSpaceOnUse" id="linearGradient7007" xlink:href="#id58"/><linearGradient y2="58.8287" x2="60.2148" y1="48.707" x1="86.0477" gradientUnits="userSpaceOnUse" id="linearGradient7009" xlink:href="#id52"/><mask id="id50"><linearGradient id="id51" gradientUnits="userSpaceOnUse" x1="141.278" y1="148.324" x2="135.566" y2="135.455"><stop offset="0" style="stop-opacity:1;stop-color:white" id="stop4707"/><stop offset="1" style="stop-opacity:0;stop-color:white" id="stop4709"/></linearGradient><path style="fill:url(#id51)" id="rect4711" d="M133.298 133.977h10.2491v15.8265H133.298z"/></mask><mask id="id48"><linearGradient id="id49" gradientUnits="userSpaceOnUse" x1="143.9" y1="170.14" x2="136.714" y2="153.948"><stop offset="0" style="stop-opacity:1;stop-color:white" id="stop4699"/><stop offset="1" style="stop-opacity:0;stop-color:white" id="stop4701"/></linearGradient><path style="fill:url(#id49)" id="rect4703" d="M133.869 152.098h12.8761v19.8932H133.869z"/></mask><mask id="id46"><linearGradient id="id47" gradientUnits="userSpaceOnUse" x1="146.857" y1="125.986" x2="146.243" y2="132.523"><stop offset="0" style="stop-opacity:1;stop-color:white" id="stop4691"/><stop offset="1" style="stop-opacity:0;stop-color:white" id="stop4693"/></linearGradient><path style="fill:url(#id47)" id="rect4695" d="M141.678 126.236h9.74411v6.03565H141.678z"/></mask><mask id="id44"><linearGradient id="id45" gradientUnits="userSpaceOnUse" x1="154.667" y1="141.554" x2="150.576" y2="151.05"><stop offset="0" style="stop-opacity:1;stop-color:white" id="stop4683"/><stop offset="1" style="stop-opacity:0;stop-color:white" id="stop4685"/></linearGradient><path style="fill:url(#id45)" id="rect4687" d="M147.254 142.016h10.7344v8.57182H147.254z"/></mask><mask id="id42"><linearGradient id="id43" gradientUnits="userSpaceOnUse" x1="131.84" y1="211.557" x2="127.242" y2="200.045"><stop offset="0" style="stop-opacity:1;stop-color:white" id="stop4675"/><stop offset="1" style="stop-opacity:0;stop-color:white" id="stop4677"/></linearGradient><path style="fill:url(#id43)" id="rect4679" d="M126.074 198.578h6.93329v14.4465H126.074z"/></mask><mask id="id40"><linearGradient id="id41" gradientUnits="userSpaceOnUse" x1="132.737" y1="216.402" x2="120.437" y2="212.174"><stop offset="0" style="stop-opacity:1;stop-color:white" id="stop4667"/><stop offset="1" style="stop-opacity:0;stop-color:white" id="stop4669"/></linearGradient><path style="fill:url(#id41)" id="rect4671" d="M119.317 210.894h14.5395v6.78858H119.317z"/></mask><mask id="id38"><linearGradient id="id39" gradientUnits="userSpaceOnUse" x1="132.758" y1="214.093" x2="135.545" y2="201.623"><stop offset="0" style="stop-opacity:1;stop-color:white" id="stop4659"/><stop offset="1" style="stop-opacity:0;stop-color:white" id="stop4661"/></linearGradient><path style="fill:url(#id39)" id="rect4663" d="M130.947 200.346h6.40818v15.0244H130.947z"/></mask><mask id="id36"><linearGradient id="id37" gradientUnits="userSpaceOnUse" x1="137.82" y1="201.971" x2="137.295" y2="181.252"><stop offset="0" style="stop-opacity:1;stop-color:white" id="stop4651"/><stop offset="1" style="stop-opacity:0;stop-color:white" id="stop4653"/></linearGradient><path style="fill:url(#id37)" id="rect4655" d="M130.607 179.108h13.901v25.0075h-13.901z"/></mask><mask id="id34"><linearGradient id="id35" gradientUnits="userSpaceOnUse" x1="129.251" y1="209.033" x2="147.419" y2="200.352"><stop offset="0" style="stop-opacity:1;stop-color:white" id="stop4643"/><stop offset="1" style="stop-opacity:0;stop-color:white" id="stop4645"/></linearGradient><path style="fill:url(#id35)" id="rect4647" d="M127.13 197.302h22.4107v14.7804H127.13z"/></mask><mask id="id32"><linearGradient id="id33" gradientUnits="userSpaceOnUse" x1="144.255" y1="193.101" x2="156.29" y2="178.256"><stop offset="0" style="stop-opacity:1;stop-color:white" id="stop4635"/><stop offset="1" style="stop-opacity:0;stop-color:white" id="stop4637"/></linearGradient><path style="fill:url(#id33)" id="rect4639" d="M141.969 175.721h16.6073v19.9147H141.969z"/></mask><mask id="id30"><linearGradient id="id31" gradientUnits="userSpaceOnUse" x1="144.679" y1="181.947" x2="138.836" y2="161.844"><stop offset="0" style="stop-opacity:1;stop-color:white" id="stop4627"/><stop offset="1" style="stop-opacity:0;stop-color:white" id="stop4629"/></linearGradient><path style="fill:url(#id31)" id="rect4631" d="M134.632 159.944h14.2505v23.9033H134.632z"/></mask><mask id="id28"><linearGradient id="id29" gradientUnits="userSpaceOnUse" x1="144.275" y1="162.834" x2="147.835" y2="146.424"><stop offset="0" style="stop-opacity:1;stop-color:white" id="stop4619"/><stop offset="1" style="stop-opacity:0;stop-color:white" id="stop4621"/></linearGradient><path style="fill:url(#id29)" id="rect4623" d="M140.434 144.499h11.2429v20.2594H140.434z"/></mask><mask id="id26"><linearGradient id="id27" gradientUnits="userSpaceOnUse" x1="145.403" y1="168.426" x2="155.895" y2="158.973"><stop offset="0" style="stop-opacity:1;stop-color:white" id="stop4611"/><stop offset="1" style="stop-opacity:0;stop-color:white" id="stop4613"/></linearGradient><path style="fill:url(#id27)" id="rect4615" d="M143.844 157.293h13.6092v12.8121H143.844z"/></mask><mask id="id24"><linearGradient id="id25" gradientUnits="userSpaceOnUse" x1="22.8685" y1="148.324" x2="28.5801" y2="135.455"><stop offset="0" style="stop-opacity:1;stop-color:white" id="stop4603"/><stop offset="1" style="stop-opacity:0;stop-color:white" id="stop4605"/></linearGradient><path style="fill:url(#id25)" id="rect4607" d="M20.5997 133.977h10.2491v15.8265H20.5997z"/></mask><mask id="id22"><linearGradient id="id23" gradientUnits="userSpaceOnUse" x1="20.2465" y1="170.14" x2="27.4327" y2="153.948"><stop offset="0" style="stop-opacity:1;stop-color:white" id="stop4595"/><stop offset="1" style="stop-opacity:0;stop-color:white" id="stop4597"/></linearGradient><path style="fill:url(#id23)" id="rect4599" d="M17.4015 152.098h12.8761v19.8932H17.4015z"/></mask><mask id="id20"><linearGradient id="id21" gradientUnits="userSpaceOnUse" x1="17.2895" y1="125.986" x2="17.9029" y2="132.523"><stop offset="0" style="stop-opacity:1;stop-color:white" id="stop4587"/><stop offset="1" style="stop-opacity:0;stop-color:white" id="stop4589"/></linearGradient><path style="fill:url(#id21)" id="rect4591" d="M12.7241 126.236h9.74411v6.03565H12.7241z"/></mask><mask id="id18"><linearGradient id="id19" gradientUnits="userSpaceOnUse" x1="9.47976" y1="141.554" x2="13.5699" y2="151.05"><stop offset="0" style="stop-opacity:1;stop-color:white" id="stop4579"/><stop offset="1" style="stop-opacity:0;stop-color:white" id="stop4581"/></linearGradient><path style="fill:url(#id19)" id="rect4583" d="M6.15762 142.016h10.7344v8.57182H6.15762z"/></mask><mask id="id16"><linearGradient id="id17" gradientUnits="userSpaceOnUse" x1="32.3063" y1="211.557" x2="36.9046" y2="200.045"><stop offset="0" style="stop-opacity:1;stop-color:white" id="stop4571"/><stop offset="1" style="stop-opacity:0;stop-color:white" id="stop4573"/></linearGradient><path style="fill:url(#id17)" id="rect4575" d="M31.1388 198.578h6.93329v14.4465H31.1388z"/></mask><mask id="id14"><linearGradient id="id15" gradientUnits="userSpaceOnUse" x1="31.4091" y1="216.402" x2="43.7098" y2="212.174"><stop offset="0" style="stop-opacity:1;stop-color:white" id="stop4563"/><stop offset="1" style="stop-opacity:0;stop-color:white" id="stop4565"/></linearGradient><path style="fill:url(#id15)" id="rect4567" d="M30.2896 210.894h14.5395v6.78858H30.2896z"/></mask><mask id="id12"><linearGradient id="id13" gradientUnits="userSpaceOnUse" x1="31.3883" y1="214.093" x2="28.6017" y2="201.623"><stop offset="0" style="stop-opacity:1;stop-color:white" id="stop4555"/><stop offset="1" style="stop-opacity:0;stop-color:white" id="stop4557"/></linearGradient><path style="fill:url(#id13)" id="rect4559" d="M26.7908 200.346h6.40818v15.0244H26.7908z"/></mask><mask id="id10"><linearGradient id="id11" gradientUnits="userSpaceOnUse" x1="26.3265" y1="201.971" x2="26.8517" y2="181.252"><stop offset="0" style="stop-opacity:1;stop-color:white" id="stop4547"/><stop offset="1" style="stop-opacity:0;stop-color:white" id="stop4549"/></linearGradient><path style="fill:url(#id11)" id="rect4551" d="M19.6386 179.108h13.901v25.0075h-13.901z"/></mask><mask id="id8"><linearGradient id="id9" gradientUnits="userSpaceOnUse" x1="34.8957" y1="209.033" x2="16.7271" y2="200.352"><stop offset="0" style="stop-opacity:1;stop-color:white" id="stop4539"/><stop offset="1" style="stop-opacity:0;stop-color:white" id="stop4541"/></linearGradient><path style="fill:url(#id9)" id="rect4543" d="M14.606 197.302h22.4107v14.7804H14.606z"/></mask><mask id="id6"><linearGradient id="id7" gradientUnits="userSpaceOnUse" x1="19.8911" y1="193.101" x2="7.85686" y2="178.256"><stop offset="0" style="stop-opacity:1;stop-color:white" id="stop4531"/><stop offset="1" style="stop-opacity:0;stop-color:white" id="stop4533"/></linearGradient><path style="fill:url(#id7)" id="rect4535" d="M5.57027 175.721h16.6073v19.9147H5.57027z"/></mask><mask id="id4"><linearGradient id="id5" gradientUnits="userSpaceOnUse" x1="19.4678" y1="181.947" x2="25.3101" y2="161.844"><stop offset="0" style="stop-opacity:1;stop-color:white" id="stop4523"/><stop offset="1" style="stop-opacity:0;stop-color:white" id="stop4525"/></linearGradient><path style="fill:url(#id5)" id="rect4527" d="M15.2637 159.944h14.2505v23.9033H15.2637z"/></mask><mask id="id2"><linearGradient id="id3" gradientUnits="userSpaceOnUse" x1="19.8709" y1="162.834" x2="16.3119" y2="146.424"><stop offset="0" style="stop-opacity:1;stop-color:white" id="stop4515"/><stop offset="1" style="stop-opacity:0;stop-color:white" id="stop4517"/></linearGradient><path style="fill:url(#id3)" id="rect4519" d="M12.47 144.499h11.2429v20.2594H12.47z"/></mask><mask id="id0"><linearGradient id="id1" gradientUnits="userSpaceOnUse" x1="18.7436" y1="168.426" x2="8.25144" y2="158.973"><stop offset="0" style="stop-opacity:1;stop-color:white" id="stop4507"/><stop offset="1" style="stop-opacity:0;stop-color:white" id="stop4509"/></linearGradient><path style="fill:url(#id1)" id="rect4511" d="M6.69293 157.293h13.6092v12.8121H6.69293z"/></mask><mask id="mask-powermask-path-effect1021" maskUnits="userSpaceOnUse"><path d="M323.71999 129.44h83v87h-83z" id="path1019"/></mask><radialGradient id="id100" gradientUnits="userSpaceOnUse" xlink:href="#id97" cx="12.805" cy="146.635" r="5.75887" fx="12.805" fy="146.635"/><radialGradient id="id99" gradientUnits="userSpaceOnUse" xlink:href="#id97" cx="18.2294" cy="129.314" r="5.21473" fx="18.2294" fy="129.314"/><radialGradient id="id98" gradientUnits="userSpaceOnUse" xlink:href="#id97" cx="145.917" cy="129.314" r="5.21473" fx="145.917" fy="129.314"/><radialGradient id="id97" gradientUnits="userSpaceOnUse" cx="151.341" cy="146.635" r="5.75887" fx="151.341" fy="146.635"><stop offset="0" style="stop-color:#be3b34" id="stop4859"/><stop offset="1" style="stop-color:#da251d" id="stop4861"/></radialGradient><radialGradient id="id96" gradientUnits="userSpaceOnUse" xlink:href="#id93" cx="141.107" cy="172.478" r="8.72148" fx="141.107" fy="172.478"/><radialGradient id="id95" gradientUnits="userSpaceOnUse" xlink:href="#id93" cx="18.1758" cy="188.552" r="3.42216" fx="18.1758" fy="188.552"/><radialGradient id="id94" gradientUnits="userSpaceOnUse" xlink:href="#id93" cx="145.971" cy="188.552" r="3.42216" fx="145.971" fy="188.552"/><radialGradient id="id93" gradientUnits="userSpaceOnUse" cx="20.9951" cy="172.478" r="8.72148" fx="20.9951" fy="172.478"><stop offset="0" style="stop-color:#28166f" id="stop4851"/><stop offset="1" style="stop-color:#e77817" id="stop4853"/></radialGradient><radialGradient id="id92" gradientUnits="userSpaceOnUse" xlink:href="#id91" cx="34.2418" cy="175.725" r="17.7237" fx="34.2418" fy="175.725"/><radialGradient id="id91" gradientUnits="userSpaceOnUse" cx="140.007" cy="175.725" r="17.7237" fx="140.007" fy="175.725"><stop offset="0" style="stop-color:#feedf4" id="stop4845"/><stop offset="1" style="stop-color:#fce0ec" id="stop4847"/></radialGradient><radialGradient id="id90" gradientUnits="userSpaceOnUse" cx="59.473" cy="104.986" r="52.9281" fx="59.473" fy="104.986"><stop offset="0" style="stop-color:white" id="stop4840"/><stop offset="1" style="stop-color:#efeeee" id="stop4842"/></radialGradient><radialGradient id="id89" gradientUnits="userSpaceOnUse" xlink:href="#id88" cx="142.648" cy="174.971" r="6.91969" fx="142.648" fy="174.971"/><radialGradient id="id88" gradientUnits="userSpaceOnUse" cx="21.4983" cy="174.971" r="6.91969" fx="21.4983" fy="174.971"><stop offset="0" style="stop-color:#f8c300" id="stop4834"/><stop offset="1" style="stop-color:#e77817" id="stop4836"/></radialGradient><radialGradient r="8.72148" fy="172.478" fx="20.9951" cy="172.478" cx="20.9951" gradientUnits="userSpaceOnUse" id="radialGradient6973" xlink:href="#id93"/><radialGradient r="6.91969" fy="174.971" fx="21.4983" cy="174.971" cx="21.4983" gradientUnits="userSpaceOnUse" id="radialGradient6977" xlink:href="#id88"/><radialGradient r="5.75887" fy="146.635" fx="151.341" cy="146.635" cx="151.341" gradientUnits="userSpaceOnUse" id="radialGradient6987" xlink:href="#id97"/><radialGradient r="17.7237" fy="175.725" fx="140.007" cy="175.725" cx="140.007" gradientUnits="userSpaceOnUse" id="radialGradient6991" xlink:href="#id91"/><clipPath id="clipPath46" clipPathUnits="userSpaceOnUse"><path id="path44" clip-rule="evenodd" d="M0 0v626.40002h810.56V0Z"/></clipPath><clipPath id="clipPath78" clipPathUnits="userSpaceOnUse"><path id="path76" clip-rule="evenodd" d="M0 0v626.40002h810.56V0Z"/></clipPath><clipPath id="clipPath98" clipPathUnits="userSpaceOnUse"><path id="path96" clip-rule="evenodd" d="M0 0v626.40002h810.56V0Z"/></clipPath><clipPath id="clipPath222" clipPathUnits="userSpaceOnUse"><path id="path220" clip-rule="evenodd" d="M0 0v626.40002h810.56V0Z"/></clipPath><clipPath id="clipPath758" clipPathUnits="userSpaceOnUse"><path id="path756" clip-rule="evenodd" d="M0 0v626.40002h810.56V0Z"/></clipPath><clipPath id="clipPath906" clipPathUnits="userSpaceOnUse"><path id="path904" clip-rule="evenodd" d="M0 0v626.40002h810.56V0Z"/></clipPath><clipPath id="clipPath922" clipPathUnits="userSpaceOnUse"><path id="path920" clip-rule="evenodd" d="M0 529.59998h596.96002v1.11999H0Z"/></clipPath><clipPath id="clipPath936" clipPathUnits="userSpaceOnUse"><path id="path934" clip-rule="evenodd" d="M0 528.64001h578.88V536H0Z"/></clipPath><clipPath id="clipPath946" clipPathUnits="userSpaceOnUse"><path id="path944" clip-rule="evenodd" d="M606.71997 528.64001H810.56V536H606.71997Z"/></clipPath><style type="text/css" id="style4503">.str2{stroke:#00923f;stroke-width:.0740022}.str0,.str1,.str3,.str7{stroke:#1f1a17;stroke-width:.0740022}.str0,.str3,.str7{stroke:#dededd}.str0,.str3{stroke:#f19abe}.str0{stroke:#00894c}.str4,.str6{stroke:#1f1a17;stroke-width:.342624}.str6{stroke:#dededd}.str5{stroke:#605d5c;stroke-width:.342527}.fil2{fill:none}.fil102{fill:#007cc3}.fil1{fill:#00923f}.fil5{fill:#1f1a17}.fil0{fill:#84c225}.fil63{fill:#957f66}.fil71{fill:#aaa9a9}.fil72{fill:#adacab}.fil73{fill:#afaeae}.fil74{fill:#b1b0af}.fil75{fill:#b4b3b2}.fil76{fill:#b6b5b4}.fil8{fill:#b86779}.fil77{fill:#b9b8b7}.fil78{fill:#babab9}.fil79{fill:#bdbdbc}.fil80{fill:#bfbfbe}.fil3{fill:#c0a062}.fil65{fill:#c2c1c1}.fil4{fill:#c4bf66}.fil81{fill:#c5c5c4}.fil82{fill:#c7c7c6}.fil83{fill:#cacac9}.fil84{fill:#cdcccc}.fil85{fill:#d0cfcf}.fil86{fill:#d2d1d1}.fil87{fill:#d5d4d4}.fil88{fill:#d8d7d7}.fil6{fill:#da251d}.fil89{fill:#dbdbdb}.fil29{fill:#dd137b}.fil56{fill:#dededd}.fil90{fill:#e2e1e1}.fil91{fill:#e6e5e5}.fil23{fill:#e77817}.fil92{fill:#e8e8e7}.fil93{fill:#ececeb}.fil36{fill:#ee9a85}.fil22{fill:#ef9ba0}.fil94{fill:#efeeee}.fil95{fill:#f2f2f2}.fil103{fill:#f5c491}.fil55{fill:#f5f5f5}.fil11{fill:#f8c300}.fil16{fill:#f8c6db}.fil96{fill:#f9f9f9}.fil97{fill:#fbfbfb}.fil33{fill:#fce0ec}.fil12{fill:#fef0f6}.fil21{fill:#fff500}.fil18{fill:#fff9fb}.fil59{fill:#fff}.fil62,.fil64{fill:#1f1a17;fill-rule:nonzero}.fil62{fill:#605d5c}.fil9{fill:#fff;fill-opacity:.501961}.fil98{fill:url(#id52)}.fil100{fill:url(#id53)}.fil52{fill:url(#id54)}.fil32{fill:url(#id55)}.fil60{fill:url(#id56)}.fil101{fill:url(#id57)}.fil70{fill:url(#id58)}.fil26{fill:url(#id59)}.fil47{fill:url(#id60)}.fil49{fill:url(#id61)}.fil17{fill:url(#id62)}.fil42{fill:url(#id63)}.fil28{fill:url(#id64)}.fil41{fill:url(#id65)}.fil15{fill:url(#id66)}.fil67{fill:url(#id67)}.fil43{fill:url(#id68)}.fil66{fill:url(#id69)}.fil69{fill:url(#id70)}.fil19{fill:url(#id71)}.fil30{fill:url(#id72)}.fil50{fill:url(#id73)}.fil24{fill:url(#id74)}.fil45{fill:url(#id75)}.fil35{fill:url(#id76)}.fil54{fill:url(#id77)}.fil68{fill:url(#id78)}.fil27{fill:url(#id79)}.fil48{fill:url(#id80)}.fil57{fill:url(#id81)}.fil58{fill:url(#id82)}.fil39{fill:url(#id83)}.fil13{fill:url(#id84)}.fil99{fill:url(#id85)}.fil34{fill:url(#id86)}.fil53{fill:url(#id87)}.fil25{fill:url(#id88)}.fil46{fill:url(#id89)}.fil61{fill:url(#id90)}.fil40{fill:url(#id91)}.fil14{fill:url(#id92)}.fil20{fill:url(#id93)}.fil51{fill:url(#id94)}.fil31{fill:url(#id95)}.fil44{fill:url(#id96)}.fil37{fill:url(#id97)}.fil38{fill:url(#id98)}.fil10{fill:url(#id99)}.fil7{fill:url(#id100)}</style></defs><path id="path2161" d="M350 0v200H0V0h350z" style="fill:#fff;fill-rule:evenodd;stroke:none;stroke-width:1px;stroke-linecap:butt;stroke-linejoin:miter;stroke-opacity:1"/><g transform="matrix(1.78278 0 0 1.78278 -193.07911 -496.29315)" id="g18"><g transform="translate(206.4635 376.01006)" id="g156"><path id="path158" style="fill:#2c2e35;fill-opacity:1;fill-rule:evenodd;stroke:none" d="M0 0c-1.12-2.08-2.72-4.32-4.8-5.28-7.52-3.52-19.52-3.84-25.44-10.56-4.800001-5.440001-5.28-11.84-5.28-13.76v-53.599997h71.04V-29.6c0 1.92-.319999 8.319999-5.12 13.76C24.48-9.12 12.48-8.8 4.8-5.28 2.72-4.32 1.28-2.08 0 0Z"/></g><g transform="translate(206.4635 376.01006)" id="g160"><path id="path162" style="fill:none;stroke:#fff;stroke-width:1.6;stroke-linecap:butt;stroke-linejoin:miter;stroke-miterlimit:22;stroke-dasharray:none;stroke-opacity:1" d="M0 0c-1.12-2.08-2.72-4.32-4.8-5.28-7.52-3.52-19.52-3.84-25.44-10.56-4.800001-5.440001-5.28-11.84-5.28-13.76v-53.599997h71.04V-29.6c0 1.92-.319999 8.319999-5.12 13.76C24.48-9.12 12.48-8.8 4.8-5.28 2.72-4.32 1.28-2.08 0 0Z"/></g><g transform="translate(233.1835 301.77005)" id="g164"><path id="path166" style="fill:#fff;fill-opacity:1;fill-rule:evenodd;stroke:none" d="M0 0v43.52C0 52-9.12 59.68-26.719999 59.68c-17.600001 0-26.72-7.84-26.72-16.16V0Z"/></g><g transform="translate(11.903496 159.37006)" id="g168"><path id="path170" style="fill:none;stroke:#fff;stroke-width:.96;stroke-linecap:butt;stroke-linejoin:miter;stroke-miterlimit:22;stroke-dasharray:none;stroke-opacity:1" d="M190.39999 138.08c3.68001-1.28 8.32001-2.24 8.32001 0 .16 2.88001-5.60001 1.12-8.32001 0z"/></g><g transform="translate(11.903496 159.37006)" id="g172"><path id="path174" style="fill:none;stroke:#fff;stroke-width:.96;stroke-linecap:butt;stroke-linejoin:miter;stroke-miterlimit:22;stroke-dasharray:none;stroke-opacity:1" d="M163.84 153.11999c1.44 3.68001 2.4 8.32001 0 8.32001-2.72001.16001-.96-5.76001 0-8.32001z"/></g><g transform="translate(11.903496 159.37006)" id="g176"><path id="path178" style="fill:none;stroke:#fff;stroke-width:.96;stroke-linecap:butt;stroke-linejoin:miter;stroke-miterlimit:22;stroke-dasharray:none;stroke-opacity:1" d="M209.44 138.08c3.67999-1.28 8.31999-2.24 8.31999 0 0 2.88001-5.75999 1.12-8.31999 0z"/></g><g transform="translate(11.903496 159.37006)" id="g180"><path id="path182" style="fill:none;stroke:#fff;stroke-width:.96;stroke-linecap:butt;stroke-linejoin:miter;stroke-miterlimit:22;stroke-dasharray:none;stroke-opacity:1" d="M198.72 206.08c-3.68001-1.44-8.32001-2.24-8.32001 0 0 2.88001 5.76001 1.12 8.32001 0z"/></g><g transform="translate(11.903496 159.37006)" id="g184"><path id="path186" style="fill:none;stroke:#fff;stroke-width:.96;stroke-linecap:butt;stroke-linejoin:miter;stroke-miterlimit:22;stroke-dasharray:none;stroke-opacity:1" d="M171.52 138.08c3.68-1.28 8.32-2.24 8.32 0 .16 2.88001-5.76 1.12-8.32 0z"/></g><g transform="translate(11.903496 159.37006)" id="g188"><path id="path190" style="fill:none;stroke:#fff;stroke-width:.96;stroke-linecap:butt;stroke-linejoin:miter;stroke-miterlimit:22;stroke-dasharray:none;stroke-opacity:1" d="M163.84 176.32001c1.44 3.67999 2.4 8.31999 0 8.31999-2.72001.16-.96-5.60001 0-8.31999z"/></g><g transform="translate(11.903496 159.37006)" id="g192"><path id="path194" style="fill:none;stroke:#fff;stroke-width:.96;stroke-linecap:butt;stroke-linejoin:miter;stroke-miterlimit:22;stroke-dasharray:none;stroke-opacity:1" d="M168.64 199.2c4 .16 8.47999 1.12001 7.52 3.36-.96 2.55999-5.6-1.44001-7.52-3.36z"/></g><g transform="translate(11.903496 159.37006)" id="g196"><path id="path198" style="fill:none;stroke:#fff;stroke-width:.96;stroke-linecap:butt;stroke-linejoin:miter;stroke-miterlimit:22;stroke-dasharray:none;stroke-opacity:1" d="M220.64 199.2c-4 .16-8.64 1.28-7.67999 3.36.95999 2.72 5.59999-1.28 7.67999-3.36z"/></g><g transform="translate(11.903496 159.37006)" id="g200"><path id="path202" style="fill:none;stroke:#fff;stroke-width:.96;stroke-linecap:butt;stroke-linejoin:miter;stroke-miterlimit:22;stroke-dasharray:none;stroke-opacity:1" d="M225.44 153.11999c1.28 3.68001 2.23999 8.32001 0 8.32001-2.88.16001-1.11999-5.76001 0-8.32001z"/></g><g transform="translate(11.903496 159.37006)" id="g204"><path id="path206" style="fill:none;stroke:#fff;stroke-width:.96;stroke-linecap:butt;stroke-linejoin:miter;stroke-miterlimit:22;stroke-dasharray:none;stroke-opacity:1" d="M225.44 176.32001c1.28 3.67999 2.23999 8.31999 0 8.31999-2.88.16-1.11999-5.60001 0-8.31999z"/></g><g transform="translate(11.903496 159.37006)" id="g208"><path id="path210" style="fill:none;stroke:#2c2e35;stroke-width:.96;stroke-linecap:butt;stroke-linejoin:miter;stroke-miterlimit:22;stroke-dasharray:none;stroke-opacity:1" d="M209.60001 168.48c.63999-.64 1.11999-.15999 2.55999.8-.8 2.24 2.23999 2.39999 2.08 3.36-.16.96001-.16.8-1.6.47999-.64 0-1.28 1.92-.31999 2.24001.95999.31999 4.15999.96001 4.31999.48.16-.64 1.75999-4.48.8-4.96-2.88-1.91999-3.68001-.96-.32001-3.36.80001-.8.16001-1.91999 0-2.40001-.47999-1.59999 1.28-3.51998-.95999-3.51998-3.19999 0 .64 4.79998-1.6 5.59999-2.08.64-.32-3.2-3.36-4 6.40001-4.32 1.91999-6.4 2.72-9.76-.64 0-3.2 1.92-5.76 2.4v1.91999s1.59999.16001 1.59999 1.12001c0 .64-1.27999.64-1.27999.64h-2.24c-.63999 0-.48001 1.12-1.91999.80001C203.03999 160 203.67999 159.2 203.2 158.72c-.64-.64-1.92-.32001-1.92.16 0 .64-.31999 2.23999.64 2.56.96.31999 3.36.64 3.19999 1.44-.15998.96-.15998 1.44001-2.23999 1.92-.8-.64-1.27999-.16-1.27999-.16s-1.28.64-.64 1.44c.64.8 1.27999 1.92 2.55999 1.28 1.12-.64 3.04-1.75999 3.51999-1.28.96001.8 0 1.12-.79999 1.92-.8.8-1.6 2.39999.48 3.36s1.12 2.39999-.64 2.08c-1.44-.32001-1.44.48-1.44.8 0 .32-.16.96.96001 1.12 1.27999.31999 4 .96001 4 .96001L210.56 171.52c-1.92-1.28-2.72-1.12001-.95999-3.04zm11.67999 7.84001H204.8V180.48c1.59999.16 1.76 1.27999 1.76 2.4v6.56H212v-6.08s0-2.72 2.88-2.72c3.2 0 3.04 2.72 3.04 2.72v6.08h3.04001M167.84 176.32001h16.48001V180.48c-1.60001.16-1.60001 1.27999-1.60001 2.4v6.56h-5.60001v-6.08s0-2.72-2.87999-2.72c-3.04 0-3.04 2.72-3.04 2.72v6.08h-2.87999M179.52 168.48c-.64-.64-.96-.15999-2.40001.8.64 2.24-2.39999 2.39999-2.23999 3.36.32.96001.32.8 1.6.47999.8 0 1.44 1.92.48001 2.24001-.96001.31999-4.32001.96001-4.48001.48-.15999-.64-1.6-4.48-.80001-4.96 3.04001-1.91999 3.84001-.96.32001-3.36-.64-.8-.16-1.91999 0-2.40001.64-1.59999-1.12-3.51998.96001-3.51998 3.19999 0-.48001 4.79998 1.59999 5.59999 2.08.64.32-3.2 3.52-4-6.56-4.32-1.92-6.4-2.72-9.76.48 0 3.2 1.92 5.60001 2.4v1.91999S179.52 157.92 179.52 158.88c0 .64 1.12.64 1.12.64h2.39999c.48001 0 .32001 1.12 1.76001.80001 1.44-.32001.80001-1.12001 1.28-1.60001.48-.64 1.76-.32001 1.92.16 0 .64.16 2.23999-.8 2.56-.96.31999-3.2.64-3.04 1.44 0 .96.16001 1.44001 2.08 1.92 1.12-.8 1.43999-.16 1.43999-.16s1.12001.8.48001 1.44c-.48001.8-1.28 1.92-2.40001 1.28-1.27999-.64-3.03999-1.92-3.67999-1.28-.96001.64 0 1.12.8 1.92.79999.8 1.76 2.39999-.48001 3.36-1.91999.96001-.95999 2.39999.80001 2.08 1.44-.32001 1.28.48 1.44.8 0 .32 0 .96-1.12 1.12-1.12001.31999-3.84001.96001-3.84001.96001L178.72 171.52c1.92-1.28 2.72-1.12001.8-3.04zm8.48 33.12001 2.24-12h-1.12001v-7.20002c0-1.28-.95999-1.91999-1.91999-1.91999v-4.15999h1.6V154.08l-1.44-1.92v-4.96h2.72v2.24h2.88001v-2.24H196.16v2.24h3.04v-2.24h2.72v4.96l-1.76 1.92v22.24001h1.76V180.48c-1.28.16-1.76.8-1.76 1.91999v7.20002h-1.44l2.08 12.15998m-10.56-12.15998L192 180.64h5.28l1.44 8.96001m-6.88-13.28V169.28c0-2.08 1.44-3.2 2.72-3.2 1.28 0 3.04001 1.12 3.04001 3.2v7.04001m-8.80001 0h11.36"/></g></g></svg>