<?xml version="1.0" encoding="UTF-8" standalone="no"?>
<!-- Created with Inkscape (http://www.inkscape.org/) -->
<svg
   xmlns:dc="http://purl.org/dc/elements/1.1/"
   xmlns:cc="http://creativecommons.org/ns#"
   xmlns:rdf="http://www.w3.org/1999/02/22-rdf-syntax-ns#"
   xmlns:svg="http://www.w3.org/2000/svg"
   xmlns="http://www.w3.org/2000/svg"
   xmlns:sodipodi="http://sodipodi.sourceforge.net/DTD/sodipodi-0.dtd"
   xmlns:inkscape="http://www.inkscape.org/namespaces/inkscape"
   width="600"
   height="400"
   id="svg2"
   sodipodi:version="0.32"
   inkscape:version="0.46"
   version="1.0"
   sodipodi:docbase="C:\Documents and Settings\David Nelson\Archives\Svg"
   sodipodi:docname="Naval_Ensign_of_Bulgaria.svg"
   inkscape:output_extension="org.inkscape.output.svg.inkscape">
  <defs
     id="defs4">
    <inkscape:perspective
       sodipodi:type="inkscape:persp3d"
       inkscape:vp_x="0 : 200 : 1"
       inkscape:vp_y="0 : 1000 : 0"
       inkscape:vp_z="600 : 200 : 1"
       inkscape:persp3d-origin="300 : 133.33333 : 1"
       id="perspective80" />
  </defs>
  <sodipodi:namedview
     id="base"
     pagecolor="#ffffff"
     bordercolor="#666666"
     borderopacity="1.0"
     inkscape:pageopacity="0.0"
     inkscape:pageshadow="2"
     inkscape:zoom="1.11"
     inkscape:cx="300"
     inkscape:cy="200"
     inkscape:document-units="px"
     inkscape:current-layer="layer1"
     inkscape:window-width="1024"
     inkscape:window-height="712"
     inkscape:window-x="-4"
     inkscape:window-y="-4"
     showguides="true"
     inkscape:guide-bbox="true"
     showgrid="false"
     inkscape:grid-points="false"
     gridtolerance="20px"
     inkscape:grid-bbox="false">
    <inkscape:grid
       id="GridFromPre046Settings"
       type="xygrid"
       originx="0px"
       originy="0px"
       spacingx="42.666666px"
       spacingy="42.6667px"
       color="#0000ff"
       empcolor="#0000ff"
       opacity="0.2"
       empopacity="0.4"
       empspacing="5" />
  </sodipodi:namedview>
  <metadata
     id="metadata7">
    <rdf:RDF>
      <cc:Work
         rdf:about="">
        <dc:format>image/svg+xml</dc:format>
        <dc:type
           rdf:resource="http://purl.org/dc/dcmitype/StillImage" />
      </cc:Work>
    </rdf:RDF>
  </metadata>
  <g
     inkscape:label="Layer 1"
     inkscape:groupmode="layer"
     id="layer1">
    <rect
       style="fill:#ffffff;fill-opacity:1;fill-rule:evenodd;stroke:none;stroke-width:1;stroke-linecap:butt;stroke-linejoin:round;stroke-miterlimit:4;stroke-dasharray:none;stroke-dashoffset:0;stroke-opacity:1"
       id="rect6653"
       width="600"
       height="400"
       x="5.3698557e-10"
       y="1.8018018" />
    <rect
       style="fill:#009972;fill-opacity:1;fill-rule:evenodd;stroke:none;stroke-width:1;stroke-linecap:butt;stroke-linejoin:round;stroke-miterlimit:4;stroke-dasharray:none;stroke-dashoffset:0;stroke-opacity:1"
       id="rect6724"
       width="600"
       height="66.666718"
       x="5.3698557e-10"
       y="268.46835" />
    <rect
       style="fill:#d41f22;fill-opacity:1;fill-rule:evenodd;stroke:none;stroke-width:1;stroke-linecap:butt;stroke-linejoin:round;stroke-miterlimit:4;stroke-dasharray:none;stroke-dashoffset:0;stroke-opacity:1"
       id="rect6726"
       width="600"
       height="66.666718"
       x="5.3698557e-10"
       y="335.13507" />
    <rect
       style="fill:#d41f22;fill-opacity:1"
       id="rect2593"
       width="130.63063"
       height="133.33333"
       x="0"
       y="1.1368684e-13" />
    <path
       style="fill:#fbea0e;fill-opacity:1;fill-rule:evenodd;stroke:#000000;stroke-width:0.5289191px;stroke-linecap:butt;stroke-linejoin:miter;stroke-opacity:1"
       d="M 72.434352,26.644694 C 78.623253,27.450421 87.394525,33.062079 86.91999,25.241414 C 85.172513,27.26418 83.379668,25.382817 81.677568,22.434857 C 80.675839,20.699906 79.755499,19.456257 77.078951,18.862874 C 74.292118,18.245041 71.238716,17.16193 71.238716,17.16193 L 72.434352,26.644694 z"
       id="path5765"
       sodipodi:nodetypes="ccsscc" />
    <path
       style="fill:#fbea0e;fill-opacity:1;fill-rule:evenodd;stroke:#000000;stroke-width:0.5289191px;stroke-linecap:butt;stroke-linejoin:miter;stroke-opacity:1"
       d="M 77.357685,32.36542 L 81.821154,36.492811 C 86.580517,37.672056 86.800183,34.402641 87.101111,32.113749 C 84.887327,34.909407 83.259887,32.434238 82.583211,30.402391 C 80.767277,24.949715 78.533757,24.158052 75.724707,23.607293 L 70.989079,23.506624 L 71.805567,28.28836 L 77.357685,32.36542 z"
       id="path2422"
       sodipodi:nodetypes="cccscccc" />
    <path
       style="fill:#fbea0e;fill-opacity:1;fill-rule:evenodd;stroke:#000000;stroke-width:0.5289191px;stroke-linecap:butt;stroke-linejoin:miter;stroke-opacity:1"
       d="M 75.555781,38.623331 C 75.555781,38.623331 80.807941,43.795035 83.867073,43.67583 C 86.444741,43.575383 87.55728,41.988244 87.868801,39.477274 C 84.937759,41.075852 83.029908,38.895323 81.827727,36.274987 C 80.569529,33.532551 78.660154,31.732055 76.094477,30.368546 L 70.438183,29.621345 L 70.361222,36.38173 L 75.555781,38.623331 z"
       id="path2420"
       sodipodi:nodetypes="cscscccc" />
    <path
       style="fill:#fbea0e;fill-opacity:1;fill-rule:evenodd;stroke:#000000;stroke-width:0.5289191px;stroke-linecap:butt;stroke-linejoin:miter;stroke-opacity:1"
       d="M 63.144703,32.779162 C 60.604773,31.264789 59.817968,29.336845 55.220782,28.341509 C 52.038893,27.6526 51.694304,28.853495 50.086974,28.754315 C 48.564696,28.660383 46.573807,28.382862 45.622791,25.96788 C 45.056633,24.530183 46.489465,23.715296 47.408464,22.768642 C 45.708095,22.939071 41.37329,24.679656 42.051452,26.948293 C 42.687031,29.074484 44.294086,31.076342 47.296862,31.076342 C 50.743355,31.076342 52.429949,29.411844 54.774365,29.992729 C 58.462856,30.906641 62.475072,33.914376 62.475072,33.914376 L 63.144703,32.779162 z"
       id="path2416"
       sodipodi:nodetypes="cssscssscc" />
    <path
       style="fill:#ffffff;fill-opacity:1;fill-rule:evenodd;stroke:#000000;stroke-width:0.5289191px;stroke-linecap:butt;stroke-linejoin:miter;stroke-opacity:1"
       d="M 52.888247,34.43451 C 52.969431,32.687238 53.921943,31.549766 55.138195,31.114495 L 55.138195,34.929876 L 52.888247,34.43451 z"
       id="path2412"
       sodipodi:nodetypes="cccc" />
    <path
       style="fill:#fbea0e;fill-opacity:1;fill-rule:evenodd;stroke:#000000;stroke-width:0.5289191px;stroke-linecap:butt;stroke-linejoin:miter;stroke-opacity:1"
       d="M 43.257567,36.613441 L 34.689131,30.779028 C 34.689131,30.779028 37.298184,29.710782 37.804922,28.257986 C 38.613189,25.940749 36.636501,24.911593 36.636501,24.911593 C 35.478492,24.268866 33.65544,24.297615 32.646401,23.421708 C 31.571205,22.488363 30.950775,21.084112 28.535437,21.127039 L 24.017533,22.063426 L 24.095429,25.232736 C 20.19737,24.490998 18.765044,26.181343 17.956438,28.486893 C 18.598456,32.190086 19.602226,35.313451 23.316479,34.092399 C 14.548673,41.586111 21.386649,39.545226 23.316479,40.503047 C 28.396373,41.743116 28.256175,39.007973 30.171226,37.837946 L 40.92072,44.752807 L 43.257567,36.613441 z"
       id="path2400"
       sodipodi:nodetypes="ccscsccccccccc" />
    <path
       style="fill:#fbea0e;fill-opacity:1;fill-rule:evenodd;stroke:none;stroke-width:1px;stroke-linecap:butt;stroke-linejoin:miter;stroke-opacity:1"
       d="M 21.567285,60.834875 L 19.303057,69.082954 L 26.438804,68.829164 L 26.438804,63.182401 L 21.567285,60.834875 z"
       id="path2325" />
    <path
       style="fill:#fbea0e;fill-opacity:1;fill-rule:evenodd;stroke:#000000;stroke-width:0.5289191px;stroke-linecap:butt;stroke-linejoin:miter;stroke-opacity:1"
       d="M 51.832114,38.058659 C 50.931718,34.984971 51.834815,33.935306 55.906744,34.058961 C 58.055029,34.124199 60.294808,35.682026 60.294808,35.682026 L 51.832114,38.058659 z"
       id="path2349"
       sodipodi:nodetypes="cscc" />
    <path
       style="fill:#fbea0e;fill-opacity:1;fill-rule:evenodd;stroke:#000000;stroke-width:0.5289191px;stroke-linecap:butt;stroke-linejoin:miter;stroke-opacity:1"
       d="M 40.477828,44.564745 C 40.477828,44.564745 40.184414,43.889302 38.781437,41.881511 C 37.375221,39.869087 32.710156,37.051693 32.710156,37.051693 C 32.710156,37.051693 35.263584,38.944221 37.888604,39.569803 C 40.771325,40.2568 44.406308,38.377733 44.406308,38.377733 L 44.718798,43.821697 L 40.477828,44.564745 z"
       id="path2390"
       sodipodi:nodetypes="cscsccc" />
    <path
       style="fill:#fbea0e;fill-opacity:1;fill-rule:evenodd;stroke:#000000;stroke-width:0.5289191px;stroke-linecap:butt;stroke-linejoin:miter;stroke-opacity:1"
       d="M 43.928639,43.313944 C 37.812842,42.917075 35.007071,46.251136 31.741428,47.431677 C 29.689487,48.173454 29.303986,46.521441 29.303986,46.521441 C 27.62134,48.139636 30.711423,49.497766 31.882049,51.115963 L 47.725425,48.211875 L 43.928639,43.313944 z"
       id="path2388"
       sodipodi:nodetypes="cscccc" />
    <path
       style="fill:#ffffff;fill-opacity:1;fill-rule:evenodd;stroke:#000000;stroke-width:0.5289191px;stroke-linecap:butt;stroke-linejoin:miter;stroke-opacity:1"
       d="M 52.673966,25.517924 C 52.892619,27.113897 51.693925,29.073933 54.227503,30.07529 C 54.597718,27.637307 55.425873,26.75201 56.209596,25.71607 L 52.673966,25.517924 z"
       id="path2414"
       sodipodi:nodetypes="cccc" />
    <path
       style="fill:#fbea0e;fill-opacity:1;fill-rule:evenodd;stroke:#000000;stroke-width:0.5289191px;stroke-linecap:butt;stroke-linejoin:miter;stroke-opacity:1"
       d="M 72.173506,42.954805 C 75.132737,46.729613 77.820598,51.230818 83.211193,50.597888 C 87.088157,50.142682 88.051758,47.733455 89.637378,45.976539 C 88.022551,47.023059 86.573922,47.224308 85.244627,46.818656 C 83.460936,46.107111 82.434197,44.812258 81.494715,43.450172 C 80.268007,40.895323 77.317699,38.207659 74.423454,35.524315 L 67.995031,35.474779 L 72.173506,42.954805 z"
       id="path2418"
       sodipodi:nodetypes="cscccccc" />
    <path
       style="fill:#fbea0e;fill-opacity:1;fill-rule:evenodd;stroke:#000000;stroke-width:0.5289191;stroke-linecap:butt;stroke-linejoin:miter;stroke-miterlimit:4;stroke-dasharray:none;stroke-opacity:1"
       d="M 57.715038,16.48733 L 68.590236,16.48733 C 67.065966,18.409712 67.427101,19.375441 67.2513,20.54966 C 68.186909,18.196836 68.660228,13.983902 72.287307,14.802949 C 74.960037,15.406491 69.846718,23.29421 69.822879,22.828529 C 71.887231,21.424188 72.584632,19.261433 73.25165,17.081817 C 73.825569,17.131932 74.885382,17.248991 74.163272,22.627193 C 73.977334,24.012025 73.204077,24.499653 72.561184,24.462575 C 72.561184,24.462575 73.090925,26.692697 74.644583,27.683509 C 76.198246,28.674322 78.394798,28.476159 78.394798,28.476159 C 76.655994,29.760733 76.327559,30.573358 75.823224,31.05227 C 74.722627,32.097397 72.073009,31.547677 72.073009,31.547677 C 72.965265,32.678496 72.546493,34.36885 76.894718,34.024708 C 76.39552,36.509036 74.678052,37.97948 71.322964,38.087038 C 72.193493,39.8138 73.085084,41.516217 75.073179,41.951207 L 71.537262,44.230075 L 44.64286,43.239264 L 43.785669,41.158558 C 43.785669,41.158558 42.572348,40.708534 42.071286,39.474175 C 41.490668,38.04384 41.74795,36.798401 42.071286,35.610008 C 42.071286,35.610008 46.339889,36.898634 48.831246,36.898634 C 52.072616,36.898634 51.958176,36.361507 55.036313,35.709088 C 58.114455,35.056669 61.036657,34.718276 61.036657,34.718276 C 61.643837,33.804851 62.400048,31.736556 62.215298,29.268809 C 61.970369,25.997191 60.423878,24.553953 58.786533,24.413828 C 57.368051,24.292435 56.436303,26.528722 54.286273,26.09821 C 51.756639,25.591687 51.354126,25.228813 51.607547,23.522098 C 51.489714,22.192063 51.477784,20.903997 53.32193,20.351498 C 50.751908,17.892452 53.638754,17.836259 56.964998,17.973549 L 57.715038,16.48733 z"
       id="path2343"
       sodipodi:nodetypes="cccsccscscscccccccscsscssscccc" />
    <path
       style="fill:none;fill-opacity:0.75;fill-rule:evenodd;stroke:#000000;stroke-width:0.5289191px;stroke-linecap:butt;stroke-linejoin:miter;stroke-opacity:1"
       d="M 67.787047,29.764215 C 68.636693,30.578612 69.147413,31.628065 68.858537,33.232057 C 66.008074,33.338523 66.099523,36.618785 64.786878,38.384281"
       id="path2347"
       sodipodi:nodetypes="ccc" />
    <path
       style="fill:#fbea0e;fill-opacity:1;fill-rule:evenodd;stroke:#000000;stroke-width:0.5289191px;stroke-linecap:butt;stroke-linejoin:miter;stroke-opacity:1"
       d="M 72.459676,43.91872 L 68.537417,39.247674 C 66.708209,37.807212 64.618617,37.329843 62.475749,37.049535 C 59.918102,37.134149 57.884173,37.993619 56.116944,39.247674 C 54.377804,41.075496 51.749835,41.773196 48.747856,41.995349 C 46.704587,41.946986 45.171133,41.545056 43.755896,41.061138 C 43.184215,42.448802 39.71318,43.002366 45.717023,46.28172 L 72.459676,43.91872 z"
       id="path2279"
       sodipodi:nodetypes="cccccccc" />
    <path
       style="fill:#fbea0e;fill-opacity:1;fill-rule:evenodd;stroke:#000000;stroke-width:0.5289191px;stroke-linecap:butt;stroke-linejoin:miter;stroke-opacity:1"
       d="M 38.042552,48.648614 C 38.042552,48.648614 36.054117,48.749361 34.174637,49.656129 C 32.241314,50.588866 31.709522,51.431874 29.870898,51.469654 C 28.03228,51.507439 26.602241,50.008758 26.602241,50.008758 C 27.836892,51.89998 28.505923,53.889268 31.941052,55.398965 L 41.093298,54.089195 L 41.256733,49.101996 L 38.042552,48.648614 z"
       id="path2341"
       sodipodi:nodetypes="cssccccc" />
    <path
       style="fill:#fbea0e;fill-opacity:1;fill-rule:evenodd;stroke:#000000;stroke-width:0.5289191px;stroke-linecap:butt;stroke-linejoin:miter;stroke-opacity:1"
       d="M 41.132108,50.871357 C 38.467006,53.163492 35.141873,54.234939 31.614932,54.933163 C 31.614932,54.933163 32.225006,56.099051 35.275382,57.490596 C 39.023936,59.200638 48.046291,57.791468 48.046291,57.791468 L 48.046291,50.720918 L 41.132108,50.871357 z"
       id="path2337"
       sodipodi:nodetypes="ccsccc" />
    <path
       style="fill:#fbea0e;fill-opacity:1;fill-rule:evenodd;stroke:#000000;stroke-width:0.5289191px;stroke-linecap:butt;stroke-linejoin:miter;stroke-opacity:1"
       d="M 48.321214,45.981523 C 46.446562,46.161162 44.512723,46.279104 42.585956,46.932139 C 40.724677,47.562976 38.85732,47.753194 37.011535,47.779942 C 37.814261,50.439851 39.915047,52.503948 43.884509,52.23556 L 50.701888,51.585141 L 53.569516,49.183593 L 51.351161,46.631942 L 48.321214,45.981523 z"
       id="path2276"
       sodipodi:nodetypes="cscccccc" />
    <path
       id="path1379"
       style="fill:#fbea0e;fill-opacity:1;fill-rule:evenodd;stroke:#000000;stroke-width:0.5289191px;stroke-linecap:butt;stroke-linejoin:miter;stroke-opacity:1"
       d="M 105.22643,24.444988 C 99.487405,24.493686 96.350838,27.700239 96.392965,32.780034 C 97.109184,37.178852 98.561168,40.216955 100.71956,41.948588 C 103.55872,44.453674 103.16637,45.962704 103.2434,47.616417 L 102.34204,50.783737 C 104.10395,49.5095 106.57764,50.429185 107.02918,45.115903 C 108.33766,44.689382 109.87638,44.901602 110.27412,41.948588 C 112.54578,41.667252 113.22976,39.673106 112.61769,36.280753 C 114.44903,36.029361 114.47316,34.106825 114.42045,32.113231 C 113.52315,28.555059 112.67292,24.3818 105.22643,24.444988 z M 103.9645,33.78024 C 103.97035,35.727785 104.22412,37.789959 106.1278,40.614979 C 106.70271,41.702823 107.24235,42.480082 107.03175,45.115903 M 107.1137,32.873166 C 107.29568,34.307239 107.38554,36.174913 108.80578,37.513568 C 109.86336,38.748083 110.19259,40.318663 110.27767,41.95286 M 112.63983,36.193016 C 111.23353,34.190022 110.51034,32.397586 109.98316,30.665564"
       sodipodi:nodetypes="cccccccccscccccccc" />
    <path
       style="fill:#fbea0e;fill-opacity:1;fill-rule:evenodd;stroke:#000000;stroke-width:0.5289191px;stroke-linecap:butt;stroke-linejoin:miter;stroke-opacity:1"
       d="M 76.976217,49.578931 C 73.816863,46.323604 74.964036,41.409001 64.971732,40.786373 C 62.877217,40.836904 60.160083,41.589733 57.506466,42.39028 C 55.612377,43.349827 53.129144,44.259178 50.233558,44.303393 L 46.43016,44.083578 C 46.953065,46.433536 48.443678,48.144315 51.184409,49.029395 L 76.976217,49.578931 z"
       id="path2274"
       sodipodi:nodetypes="ccccccc" />
    <path
       style="fill:#fbea0e;fill-opacity:1;fill-rule:evenodd;stroke:none;stroke-width:1px;stroke-linecap:butt;stroke-linejoin:miter;stroke-opacity:1"
       d="M 56.498539,67.137209 L 59.192567,68.71059 L 78.050797,68.251685 L 75.782136,61.433705 L 63.658988,57.565816 L 54.088086,60.122557 L 56.498539,67.137209 z"
       id="path2323" />
    <rect
       style="fill:#fbea0e;fill-opacity:1;fill-rule:evenodd;stroke:none;stroke-width:1;stroke-linecap:butt;stroke-linejoin:round;stroke-miterlimit:4;stroke-dasharray:none;stroke-dashoffset:0;stroke-opacity:1"
       id="rect2327"
       width="7.0267305"
       height="6.0595999"
       x="70.347351"
       y="90.02124" />
    <rect
       style="fill:#fbea0e;fill-opacity:1;fill-rule:evenodd;stroke:none;stroke-width:1;stroke-linecap:butt;stroke-linejoin:round;stroke-miterlimit:4;stroke-dasharray:none;stroke-dashoffset:0;stroke-opacity:1"
       id="rect2331"
       width="5.6845379"
       height="2.6282601"
       x="77.768845"
       y="108.93011" />
    <rect
       style="fill:#fbea0e;fill-opacity:1;fill-rule:evenodd;stroke:none;stroke-width:1;stroke-linecap:butt;stroke-linejoin:round;stroke-miterlimit:4;stroke-dasharray:none;stroke-dashoffset:0;stroke-opacity:1"
       id="rect2333"
       width="9.1584206"
       height="4.8184767"
       x="78.637291"
       y="113.31055" />
    <path
       style="fill:#fbea0e;fill-opacity:1;fill-rule:evenodd;stroke:#000000;stroke-width:0.5289191px;stroke-linecap:butt;stroke-linejoin:miter;stroke-opacity:1"
       d="M 23.67763,90.790644 C 25.593164,95.141379 30.365293,97.326947 38.573113,96.908413 L 33.388708,89.466913 L 23.67763,90.790644 z"
       id="path5777"
       sodipodi:nodetypes="cccc" />
    <path
       style="fill:#fbea0e;fill-opacity:1;fill-rule:evenodd;stroke:#000000;stroke-width:0.5289191px;stroke-linecap:butt;stroke-linejoin:miter;stroke-opacity:1"
       d="M 61.960776,73.654968 C 51.826872,74.708191 40.905687,71.878745 32.69108,82.397478 C 28.987992,86.71439 24.384948,88.638717 17.92672,85.631005 C 21.423908,90.192766 24.705957,94.314374 32.950101,91.978306 C 36.035333,95.54069 38.8725,99.232107 47.325931,100.00225 C 47.042539,103.81768 44.305685,105.89159 41.368379,107.90643 C 38.347699,109.97848 36.504604,109.17289 35.281317,106.22978 C 34.456715,103.9463 33.091261,102.16295 29.390847,102.53873 C 26.490491,104.45223 25.806945,106.20804 26.330096,107.87802 C 23.605994,108.36572 22.327836,109.89336 21.976035,112.08725 C 22.478957,113.98984 21.501567,116.57686 25.934272,116.66251 L 28.08478,120.60578 C 28.08478,120.60578 28.894811,122.98111 32.366314,122.98111 C 35.639992,122.98111 37.017343,120.59723 37.017343,120.59723 C 39.871017,123.70344 42.516872,123.31873 44.966559,121.42981 C 48.275572,118.87827 48.612697,116.0075 42.953493,112.74284 C 45.416728,111.33866 47.822852,110.72658 49.932123,114.23203 C 51.587648,113.51554 52.967798,112.37463 53.555644,110.01265 C 56.365832,110.40514 58.641149,111.78685 59.475145,115.83414 C 61.203251,114.59681 63.153053,113.97447 63.672959,109.38544 C 67.950434,105.59184 63.870497,103.40826 59.678266,101.24632 C 61.162197,100.02973 62.356617,98.693117 62.080189,96.648844 C 61.807999,94.635891 59.236827,94.606656 56.90229,94.35934 C 52.867368,94.182673 49.071181,93.192318 49.070587,89.219481 C 49.070587,85.634454 52.391018,83.937255 55.991971,84.201695 C 59.379841,84.300936 62.237414,84.563647 64.297625,85.072121 L 61.960776,73.654968 z"
       id="path5767"
       sodipodi:nodetypes="cccccscccccczcsccccccscsccc" />
    <path
       style="fill:#fbea0e;fill-opacity:1;fill-rule:evenodd;stroke:#000000;stroke-width:0.5289191px;stroke-linecap:butt;stroke-linejoin:miter;stroke-opacity:1"
       d="M 26.586686,63.556429 C 23.671508,60.797186 23.211703,61.39449 21.54848,60.950631 M 22.404433,67.427507 C 20.849312,67.386436 19.832282,67.942451 19.415666,69.164708 M 28.314341,70.415321 C 28.856227,71.102931 29.297886,72.022246 29.398239,73.730574 M 49.136218,64.553383 C 50.053016,65.639922 50.967993,66.944876 52.882251,67.94357 M 72.511412,65.810278 C 72.511412,65.810278 74.701979,65.589666 75.372539,66.028881 C 76.043099,66.468102 75.608942,67.274571 75.608942,67.274571 C 75.608942,67.274571 73.773245,67.690258 72.913809,67.062336 C 72.082932,66.455276 72.342981,65.699659 72.243249,64.995428 C 69.516716,64.551253 71.150909,63.486707 72.131489,62.515142 C 69.140356,62.904112 67.921305,61.654435 66.990514,60.138202 C 65.437669,61.016802 63.498984,61.072765 59.837853,60.138202 C 58.968357,59.916246 57.61248,59.921369 56.708563,60.964964 C 55.980084,61.806008 56.923724,63.462563 61.067217,63.461276 C 60.532878,64.982662 59.333892,66.892844 57.60787,68.138741 M 71.577458,90.8001 C 72.172306,92.937827 73.183347,94.991892 76.072625,96.668375 M 82.692091,110.66059 C 80.545559,109.72726 78.806144,109.53227 77.440411,110.40099 M 83.54465,114.33418 C 80.732905,114.09179 79.396631,115.21379 80.02101,118.14881 M 49.144336,53.980951 C 46.034006,54.482829 42.934204,54.960374 38.541299,58.42726 C 38.541299,58.42726 36.33702,59.082806 34.349398,60.137378 C 32.361781,61.191954 30.590823,62.645556 30.590823,62.645556 C 30.43891,55.982506 27.903897,55.966511 24.855979,56.147099 C 23.572981,57.294305 21.336398,55.972527 21.527116,60.935434 C 14.004636,62.857425 17.081804,66.044135 19.431166,69.144008 C 18.556973,71.662496 19.649291,72.362546 19.924335,73.818335 C 20.006521,75.718467 21.370968,77.247217 24.362815,77.124569 C 27.123974,77.011382 28.294447,75.211773 29.417754,73.704324 C 35.983179,77.58325 38.036287,74.160192 38.048135,67.43389 C 39.838895,67.464229 41.305505,66.994994 42.210763,65.660612 C 45.795666,69.464305 49.288779,69.576886 52.873688,67.937462 C 54.64584,68.684254 56.123912,68.134266 57.62216,68.121215 L 62.479181,73.993187 L 62.637321,85.10658 C 63.376993,87.623965 64.351747,90.19569 66.757438,93.098214 C 68.78629,95.148444 69.303693,98.363377 68.804611,102.3616 C 72.540607,102.07731 74.872329,100.06164 76.078857,96.658664 C 81.275572,100.42573 85.463375,100.28262 89.817684,97.038853 C 90.225901,99.746367 91.224604,98.855207 91.734296,105.28616 C 91.945421,107.94999 89.54725,112.11583 85.063959,106.13876 C 84.069898,104.8135 83.777286,103.62501 80.506655,103.62501 C 77.230903,103.62501 75.152306,106.98272 77.446735,110.41003 C 74.79104,111.91363 76.162313,113.41721 75.962167,114.9208 C 76.979259,116.70382 77.629346,119.22214 80.059133,118.17478 C 81.935423,119.77536 83.177713,123.0453 86.015321,123.0453 C 88.975377,123.0453 92.150478,122.63969 92.464882,114.48104 C 93.892224,116.73861 95.781764,118.48846 99.002216,118.47309 C 105.54264,118.44189 105.67162,109.2098 99.988971,108.55 C 97.765079,108.29179 95.918563,110.26088 95.918563,110.26088 C 97.159693,108.31116 98.249592,105.47124 101.379,104.72465 C 106.07007,103.60549 102.7865,97.786357 102.39422,97.527257 C 110.66945,98.898357 110.24767,95.065713 111.19289,92.050987 C 108.59263,92.315255 106.12734,92.905083 103.24026,92.67685 C 103.24026,92.67685 103.83392,92.671932 107.04903,91.927052 C 114.11934,90.28899 111.32118,86.264198 112.97625,83.373386 C 111.15353,85.257716 109.28358,86.311641 106.53595,85.958274 C 104.55651,85.703696 102.77456,86.113301 101.20489,88.139367 C 99.321768,82.779729 96.650968,81.039709 92.904494,85.633004 C 88.969914,90.456926 85.735591,87.423514 82.473865,85.831873 C 83.42273,75.890985 80.37693,76.621339 79.032834,72.805806 C 81.538559,74.035896 83.154221,76.071096 87.994378,76.071096 C 97.473249,76.071096 101.42484,67.916811 101.42484,62.126711 C 101.42484,56.955572 99.828466,51.647686 96.94803,45.567749 C 92.846174,36.909687 92.734293,31.935684 92.471206,26.6121 C 92.288827,22.92162 95.272551,18.202564 98.899124,18.202564 C 101.98972,18.202564 102.0904,19.703778 103.23896,21.661449 L 107.45474,21.290162 C 108.42785,16.708136 104.42884,13.484175 98.927946,13.780848 C 88.046257,14.362244 88.544498,21.877992 87.76188,27.109881 C 87.895273,34.11317 90.598993,40.879897 93.021585,48.547064 C 95.763465,57.224773 96.632685,58.412266 96.632685,62.394971 C 96.632685,66.615673 91.402215,72.635398 86.117984,70.841206 C 78.094904,68.11708 77.161748,61.925467 76.559171,55.520123 L 73.38736,48.44297 L 55.548535,48.44297 L 49.144336,53.980951 z M 35.37381,64.739873 C 36.635225,65.211295 37.522915,66.114691 38.060385,67.422904"
       id="path2314"
       sodipodi:nodetypes="ccccccccccccccccccccsczccczcsscscccccscscccccccccccscscccsccscsccccsssssccscssscccccc" />
    <rect
       style="fill:#fbea0e;fill-opacity:1;fill-rule:evenodd;stroke:#000000;stroke-width:0.5289191;stroke-linecap:butt;stroke-linejoin:round;stroke-miterlimit:4;stroke-dasharray:none;stroke-dashoffset:0;stroke-opacity:1"
       id="rect2281"
       width="7.5997038"
       height="5.0122495"
       x="101.6921"
       y="21.280346"
       rx="2.8361003" />
    <path
       style="fill:#fbea0e;fill-opacity:1;fill-rule:evenodd;stroke:#000000;stroke-width:0.5289191px;stroke-linecap:butt;stroke-linejoin:miter;stroke-opacity:1"
       d="M 59.875106,50.171113 C 54.34676,53.564337 51.135378,54.829858 48.432974,54.829858 C 45.737825,54.829858 43.084109,52.90694 43.288451,50.98311 C 48.731669,51.099237 50.232116,49.532636 52.459893,48.276449 C 54.65386,46.951553 57.391339,46.29678 60.362946,45.930672 L 66.119494,46.201338 L 59.875106,50.171113 z"
       id="path2271"
       sodipodi:nodetypes="czccccc" />
    <path
       style="fill:#fbea0e;fill-opacity:1;fill-rule:evenodd;stroke:#000000;stroke-width:0.5289191px;stroke-linecap:butt;stroke-linejoin:miter;stroke-opacity:1"
       d="M 59.598363,54.332818 C 60.482847,50.780762 57.619162,46.225405 67.308052,45.030095 C 70.415946,45.361697 73.526006,45.702684 77.368257,49.203276 C 79.192877,52.251862 82.356433,53.177967 85.924136,53.463403 C 87.937659,53.224287 89.038745,52.703926 90.343102,52.246221 C 89.170165,55.314082 86.776895,57.998374 82.633413,57.897408 C 79.486946,57.820739 76.844665,55.8995 74.735685,53.811169 C 73.13864,52.012766 71.331171,50.473812 68.24826,50.507395 C 63.843722,51.001034 61.821905,52.718741 59.598363,54.332818 z"
       id="path2269"
       sodipodi:nodetypes="cccccsccc" />
    <path
       style="fill:#ffffff;fill-opacity:1;fill-rule:evenodd;stroke:#000000;stroke-width:0.5289191px;stroke-linecap:butt;stroke-linejoin:miter;stroke-opacity:1"
       d="M 18.814751,54.451157 C 21.288067,53.823071 23.350917,54.713227 25.184458,56.451568 C 24.538666,57.574162 23.907559,58.70762 21.699144,58.67425 C 19.599635,56.740371 19.006679,55.503058 18.814751,54.451157 z"
       id="path2290"
       sodipodi:nodetypes="cccc" />
    <path
       style="fill:#ffffff;fill-opacity:1;fill-rule:evenodd;stroke:#000000;stroke-width:0.5289191px;stroke-linecap:butt;stroke-linejoin:miter;stroke-opacity:1"
       d="M 12.593689,66.53844 C 12.602765,64.634833 13.603014,63.173414 16.170721,62.452801 C 17.502876,63.147276 18.357845,64.283003 18.093654,66.453622 C 16.256542,67.025491 14.290499,67.078855 12.593689,66.53844 z"
       id="path2292"
       sodipodi:nodetypes="cccc" />
    <path
       style="fill:#ffffff;fill-opacity:1;fill-rule:evenodd;stroke:#000000;stroke-width:0.5289191px;stroke-linecap:butt;stroke-linejoin:miter;stroke-opacity:1"
       d="M 16.365228,76.906068 C 17.274354,76.174671 18.202604,75.450345 20.636471,75.282923 C 21.512381,73.069788 19.844652,72.304106 18.822655,71.170968 C 15.174603,73.164417 15.040478,75.056319 16.365228,76.906068 z"
       id="path2294"
       sodipodi:nodetypes="cccc" />
    <path
       style="fill:#ffffff;fill-opacity:1;fill-rule:evenodd;stroke:#000000;stroke-width:0.5289191px;stroke-linecap:butt;stroke-linejoin:miter;stroke-opacity:1"
       d="M 34.438558,74.066301 C 36.640802,74.742751 37.433882,75.907851 38.404605,77.011352 C 39.342734,74.410492 38.986083,72.408281 36.722037,71.28795 C 35.763205,71.81802 34.497835,71.733936 34.438558,74.066301 z"
       id="path2296"
       sodipodi:nodetypes="cccc" />
    <path
       style="fill:#ffffff;fill-opacity:1;fill-rule:evenodd;stroke:#000000;stroke-width:0.5289191px;stroke-linecap:butt;stroke-linejoin:miter;stroke-opacity:1"
       d="M 71.417014,108.68453 C 71.426711,107.00426 71.326143,105.29 74.782145,104.67201 C 75.989185,104.99282 77.365386,105.09464 77.438826,106.88299 C 76.414772,108.68682 75.245036,109.14348 73.985139,108.76642 C 73.249692,108.46034 72.603162,107.94871 71.417014,108.68453 z"
       id="path2306"
       sodipodi:nodetypes="ccccc" />
    <path
       style="fill:#ffffff;fill-opacity:1;fill-rule:evenodd;stroke:#000000;stroke-width:0.5289191px;stroke-linecap:butt;stroke-linejoin:miter;stroke-opacity:1"
       d="M 72.214021,118.34733 C 71.017923,116.55692 71.711121,114.92531 73.099577,113.35216 C 76.48088,111.49681 77.152578,113.75778 77.261716,116.87334 C 74.359117,116.11115 73.001969,116.93684 72.214021,118.34733 z"
       id="path2308"
       sodipodi:nodetypes="cccc" />
    <path
       style="fill:#ffffff;fill-opacity:1;fill-rule:evenodd;stroke:#000000;stroke-width:0.5289191px;stroke-linecap:butt;stroke-linejoin:miter;stroke-opacity:1"
       d="M 79.115064,125.37803 C 76.802039,123.7105 76.891297,121.37138 80.016439,118.18356 C 81.907954,118.09857 83.229136,119.10891 83.479609,122.1756 C 80.72499,122.72798 80.217069,124.17072 79.115064,125.37803 z"
       id="path2310"
       sodipodi:nodetypes="cccc" />
    <path
       style="fill:#ffffff;fill-opacity:1;fill-rule:evenodd;stroke:#000000;stroke-width:0.5289191px;stroke-linecap:butt;stroke-linejoin:miter;stroke-opacity:1"
       d="M 104.09418,115.11275 C 105.87919,114.40401 107.60778,114.6342 109.2747,115.89069 C 108.89076,112.97245 107.9791,110.46085 104.09418,110.24041 C 102.37512,111.55435 101.05271,112.93986 104.09418,115.11275 z"
       id="path2312"
       sodipodi:nodetypes="cccc" />
    <path
       style="fill:none;fill-opacity:0.75;fill-rule:evenodd;stroke:#000000;stroke-width:0.5289191px;stroke-linecap:butt;stroke-linejoin:miter;stroke-opacity:1"
       d="M 38.661206,64.965531 C 38.661206,64.965531 39.098707,63.520678 39.611209,63.347295 C 40.123707,63.173913 40.26121,64.272002 40.711206,64.272002 C 41.16121,64.272002 41.03621,63.566916 41.41121,63.347295 C 41.786211,63.127679 41.773708,63.613149 42.211209,63.393528 C 42.648709,63.173913 42.723712,62.688443 43.161213,62.468827 C 43.598713,62.249206 43.323714,62.711559 43.961211,62.515061 C 44.598715,62.318562 45.711214,61.682825 45.711214,61.682825"
       id="path2339"
       sodipodi:nodetypes="cssssssc" />
    <path
       style="fill:#fbea0e;fill-opacity:1;fill-rule:evenodd;stroke:#000000;stroke-width:0.5289191px;stroke-linecap:butt;stroke-linejoin:miter;stroke-opacity:1"
       d="M 58.57223,19.757011 L 62.858191,19.757011 C 62.858191,19.757011 60.715214,18.171712 59.643724,18.171712 C 58.57223,18.171712 58.57223,19.757011 58.57223,19.757011 z"
       id="path2345"
       sodipodi:nodetypes="ccsc" />
    <path
       style="fill:none;fill-opacity:0.75;fill-rule:evenodd;stroke:#000000;stroke-width:0.52891922px;stroke-linecap:square;stroke-linejoin:miter;stroke-opacity:1"
       d="M 63.295741,4.4805274 L 63.295741,8.4464173"
       id="path2384" />
    <path
       sodipodi:type="arc"
       style="fill:#fbea0e;fill-opacity:1;fill-rule:evenodd;stroke:#000000;stroke-width:0.63999999;stroke-linecap:butt;stroke-linejoin:round;stroke-miterlimit:4;stroke-dasharray:none;stroke-dashoffset:0;stroke-opacity:1"
       id="path2382"
       sodipodi:cx="85.038986"
       sodipodi:cy="14.568515"
       sodipodi:rx="1.5306116"
       sodipodi:ry="1.5306116"
       d="M 86.569598,14.568515 A 1.5306116,1.5306116 0 1 1 83.508375,14.568515 A 1.5306116,1.5306116 0 1 1 86.569598,14.568515 z"
       transform="matrix(0.8594244,0,0,0.794714,-9.7888413,-2.9656174)" />
    <g
       id="g2372"
       transform="matrix(0.8594244,0,0,0.794714,-9.7888413,-2.9656174)">
      <path
         sodipodi:nodetypes="csccc"
         id="path2357"
         d="M 82.547518,14.498321 C 79.236088,12.957811 76.28855,14.912889 76.28855,17.686852 C 76.28855,19.181721 76.615727,20.618028 78.414237,22.410601 L 82.429424,22.410601 L 82.547518,14.498321 z"
         style="fill:#fbea0e;fill-opacity:1;fill-rule:evenodd;stroke:#000000;stroke-width:0.63999999px;stroke-linecap:butt;stroke-linejoin:miter;stroke-opacity:1" />
      <path
         sodipodi:nodetypes="ccscc"
         id="path2355"
         d="M 84.873613,22.978764 L 84.873613,15.680368 C 82.951476,13.63766 80.152367,15.384264 80.152367,18.826228 C 80.152367,20.852291 82.229715,22.978764 82.229715,22.978764 L 84.873613,22.978764 z"
         style="fill:#fbea0e;fill-opacity:1;fill-rule:evenodd;stroke:#000000;stroke-width:1.27999973;stroke-linecap:butt;stroke-linejoin:miter;stroke-miterlimit:4;stroke-dasharray:none;stroke-opacity:1" />
    </g>
    <g
       id="g2376"
       transform="matrix(-0.8594244,0,0,0.794714,136.45271,-2.9656174)">
      <path
         style="fill:#fbea0e;fill-opacity:1;fill-rule:evenodd;stroke:#000000;stroke-width:0.63999999px;stroke-linecap:butt;stroke-linejoin:miter;stroke-opacity:1"
         d="M 82.547518,14.498321 C 79.236088,12.957811 76.28855,14.912889 76.28855,17.686852 C 76.28855,19.181721 76.615727,20.618028 78.414237,22.410601 L 82.429424,22.410601 L 82.547518,14.498321 z"
         id="path2378"
         sodipodi:nodetypes="csccc" />
      <path
         style="fill:#fbea0e;fill-opacity:1;fill-rule:evenodd;stroke:#000000;stroke-width:1.27999973;stroke-linecap:butt;stroke-linejoin:miter;stroke-miterlimit:4;stroke-dasharray:none;stroke-opacity:1"
         d="M 84.873613,22.978764 L 84.873613,15.680368 C 82.951476,13.63766 80.152367,15.384264 80.152367,18.826228 C 80.152367,20.852291 82.229715,22.978764 82.229715,22.978764 L 84.873613,22.978764 z"
         id="path2380"
         sodipodi:nodetypes="ccscc" />
    </g>
    <rect
       style="fill:#fbea0e;fill-opacity:1;fill-rule:evenodd;stroke:#000000;stroke-width:0.5289191;stroke-linecap:butt;stroke-linejoin:round;stroke-miterlimit:4;stroke-dasharray:none;stroke-dashoffset:0;stroke-opacity:1"
       id="rect2353"
       width="11.062697"
       height="1.5954642"
       x="57.703758"
       y="14.844401" />
    <path
       style="fill:none;fill-opacity:0.75;fill-rule:evenodd;stroke:#000000;stroke-width:0.52891898px;stroke-linecap:square;stroke-linejoin:miter;stroke-opacity:1"
       d="M 61.970309,5.3551225 L 64.621169,5.3551225"
       id="path2386" />
    <path
       style="fill:#ffffff;fill-opacity:1;fill-rule:evenodd;stroke:#000000;stroke-width:0.5289191px;stroke-linecap:butt;stroke-linejoin:miter;stroke-opacity:1"
       d="M 16.401019,36.597608 C 17.071101,38.230396 17.406681,39.645495 20.046767,40.794459 C 21.501952,41.427753 23.320494,40.38165 23.320494,40.38165 C 23.539044,38.345873 22.911386,35.887571 20.046767,37.423218 C 18.11175,38.460527 17.517061,37.208955 16.401019,36.597608 z"
       id="path2392"
       sodipodi:nodetypes="cscsc" />
    <path
       style="fill:#ffffff;fill-opacity:1;fill-rule:evenodd;stroke:#000000;stroke-width:0.5289191px;stroke-linecap:butt;stroke-linejoin:miter;stroke-opacity:1"
       d="M 13.430898,26.196292 C 13.335957,25.700092 17.746342,24.52414 19.147927,26.233467 C 20.001461,28.15028 20.44539,29.867743 18.24769,30.299558 C 16.522455,30.81021 14.301367,26.769584 13.430898,26.196292 z"
       id="path2394"
       sodipodi:nodetypes="cccc" />
    <path
       style="fill:#ffffff;fill-opacity:1;fill-rule:evenodd;stroke:#000000;stroke-width:0.5289191px;stroke-linecap:butt;stroke-linejoin:miter;stroke-opacity:1"
       d="M 22.42766,18.778195 C 24.596463,17.44566 26.706352,17.584099 28.677511,21.186223 C 26.964195,22.540156 25.382084,23.10546 24.064527,22.080634 C 24.320594,20.768014 23.552805,19.725898 22.42766,18.778195 z"
       id="path2396"
       sodipodi:nodetypes="cccc" />
    <path
       style="fill:#ffffff;fill-opacity:1;fill-rule:evenodd;stroke:#000000;stroke-width:0.5289191px;stroke-linecap:butt;stroke-linejoin:miter;stroke-opacity:1"
       d="M 33.439305,23.800655 C 33.439305,23.800655 34.201934,22.906244 34.257735,21.667829 C 34.313541,20.429414 33.662513,18.846996 33.662513,18.846996 C 36.482052,19.17263 37.535297,20.796045 36.78744,24.970269 C 34.420661,25.032542 34.301193,24.43417 33.439305,23.800655 z"
       id="path2398"
       sodipodi:nodetypes="csccc" />
    <path
       style="fill:none;fill-opacity:0.75;fill-rule:evenodd;stroke:#000000;stroke-width:0.5289191px;stroke-linecap:butt;stroke-linejoin:miter;stroke-opacity:1"
       d="M 25.887014,27.537688 C 25.641935,26.323716 24.704391,25.750074 23.861741,25.088677"
       id="path2404"
       sodipodi:nodetypes="cc" />
    <path
       style="fill:none;fill-opacity:0.75;fill-rule:evenodd;stroke:#000000;stroke-width:0.5289191px;stroke-linecap:butt;stroke-linejoin:miter;stroke-opacity:1"
       d="M 31.80702,27.537688 C 32.92508,26.813748 33.822644,25.926693 33.910182,24.440408"
       id="path2406"
       sodipodi:nodetypes="cc" />
    <path
       style="fill:none;fill-opacity:0.75;fill-rule:evenodd;stroke:#000000;stroke-width:0.5289191px;stroke-linecap:butt;stroke-linejoin:miter;stroke-opacity:1"
       d="M 23.004902,34.308487 C 23.487396,33.811272 23.899892,33.281694 25.185959,33.156011"
       id="path2408"
       sodipodi:nodetypes="cc" />
    <path
       style="fill:none;fill-opacity:0.75;fill-rule:evenodd;stroke:#000000;stroke-width:0.5289191px;stroke-linecap:butt;stroke-linejoin:miter;stroke-opacity:1"
       d="M 30.249122,37.765916 L 30.09333,35.532993"
       id="path2410" />
    <path
       style="fill:#ffffff;fill-opacity:1;fill-rule:evenodd;stroke:#000000;stroke-width:0.5289191px;stroke-linecap:butt;stroke-linejoin:miter;stroke-opacity:1"
       d="M 42.206187,122.14928 C 42.531833,120.43857 43.172692,118.99285 45.697821,119.13112 C 46.629393,120.03125 47.505044,120.95206 47.443638,122.21948 C 47.190986,123.31899 46.714747,124.49604 44.862868,126.15012 C 45.003758,123.12911 43.880406,122.18641 42.206187,122.14928 z"
       id="path2304"
       sodipodi:nodetypes="ccccc" />
    <path
       style="fill:#ffffff;fill-opacity:1;fill-rule:evenodd;stroke:#000000;stroke-width:0.5289191px;stroke-linecap:butt;stroke-linejoin:miter;stroke-opacity:1"
       d="M 24.899811,120.60511 C 24.936751,119.04614 24.871253,117.41139 26.873347,117.30619 C 29.384813,117.91882 29.072835,119.18418 28.39145,120.53492 C 27.227572,120.80768 26.063689,120.69546 24.899811,120.60511 z"
       id="path2302"
       sodipodi:nodetypes="cccc" />
    <path
       style="fill:#ffffff;fill-opacity:1;fill-rule:evenodd;stroke:#000000;stroke-width:0.5289191px;stroke-linecap:butt;stroke-linejoin:miter;stroke-opacity:1"
       d="M 18.035142,115.02063 C 17.548996,112.44248 18.778058,110.97456 21.199435,110.27842 C 24.488035,111.65737 24.747458,113.0363 22.508802,114.41524 C 21.525851,113.55954 20.178208,113.4626 18.035142,115.02063 z"
       id="path2300"
       sodipodi:nodetypes="cccc" />
    <path
       style="fill:#ffffff;fill-opacity:1;fill-rule:evenodd;stroke:#000000;stroke-width:0.5289191px;stroke-linecap:butt;stroke-linejoin:miter;stroke-opacity:1"
       d="M 23.163482,102.30749 C 25.790609,100.33954 27.489585,101.51854 29.273849,102.40839 C 29.156549,103.81718 29.142964,105.27391 26.764231,105.63712 C 25.563985,104.23181 24.363734,103.17582 23.163482,102.30749 z"
       id="path2298"
       sodipodi:nodetypes="cccc" />
    <path
       style="fill:#fbea0e;fill-opacity:1;fill-rule:evenodd;stroke:#000000;stroke-width:0.5289191px;stroke-linecap:butt;stroke-linejoin:miter;stroke-opacity:1"
       d="M 58.146263,69.296313 C 61.276631,69.337562 63.45947,70.880843 63.763246,75.402834 C 63.109837,78.154874 62.823264,81.472263 62.776478,85.159222 C 60.072628,83.602783 57.650102,81.926274 57.539022,79.263278 C 57.539144,77.822112 58.121374,76.703907 59.133031,75.823969 C 59.81777,75.412107 61.488635,74.667985 60.718029,73.610804 C 58.442676,70.489275 58.256748,71.131998 58.146263,69.296313 z"
       id="path2285"
       sodipodi:nodetypes="cccccsc" />
    <path
       style="fill:none;fill-opacity:0.75;fill-rule:evenodd;stroke:#000000;stroke-width:0.5289191px;stroke-linecap:butt;stroke-linejoin:miter;stroke-opacity:1"
       d="M 63.620012,109.32166 C 61.9805,106.70423 59.531909,105.795 56.75778,105.40708"
       id="path5769"
       sodipodi:nodetypes="cc" />
    <path
       style="fill:none;fill-opacity:0.75;fill-rule:evenodd;stroke:#000000;stroke-width:0.5289191px;stroke-linecap:butt;stroke-linejoin:miter;stroke-opacity:1"
       d="M 30.472109,109.55058 C 29.681665,109.1228 28.661065,108.64774 26.300335,107.89729"
       id="path5771"
       sodipodi:nodetypes="cc" />
    <path
       style="fill:none;fill-opacity:0.75;fill-rule:evenodd;stroke:#000000;stroke-width:0.5289191px;stroke-linecap:butt;stroke-linejoin:miter;stroke-opacity:1"
       d="M 31.928924,111.81618 C 28.482299,111.74184 25.455272,112.16131 25.836807,116.59233"
       id="path5773"
       sodipodi:nodetypes="cc" />
    <path
       style="fill:none;fill-opacity:0.75;fill-rule:evenodd;stroke:#000000;stroke-width:0.5289191px;stroke-linecap:butt;stroke-linejoin:miter;stroke-opacity:1"
       d="M 37.888604,115.00028 C 36.546626,116.4005 35.518733,117.94592 36.961543,120.6337"
       id="path5775"
       sodipodi:nodetypes="cc" />
    <path
       sodipodi:type="arc"
       style="fill:#000000;fill-opacity:1;fill-rule:evenodd;stroke:none;stroke-width:1;stroke-linecap:butt;stroke-linejoin:round;stroke-miterlimit:4;stroke-dasharray:none;stroke-dashoffset:0;stroke-opacity:1"
       id="path1385"
       sodipodi:cx="80.409058"
       sodipodi:cy="27.602955"
       sodipodi:rx="0.8830452"
       sodipodi:ry="0.8830452"
       d="M 81.292103,27.602955 A 0.8830452,0.8830452 0 1 1 79.526012,27.602955 A 0.8830452,0.8830452 0 1 1 81.292103,27.602955 z"
       transform="matrix(0.8594244,0,0,0.794714,-9.7888413,-2.9656174)" />
  </g>
</svg>
