<?xml version="1.0" encoding="UTF-8" standalone="no"?>
<svg
   xmlns:dc="http://purl.org/dc/elements/1.1/"
   xmlns:cc="http://creativecommons.org/ns#"
   xmlns:rdf="http://www.w3.org/1999/02/22-rdf-syntax-ns#"
   xmlns:svg="http://www.w3.org/2000/svg"
   xmlns="http://www.w3.org/2000/svg"
   xmlns:sodipodi="http://sodipodi.sourceforge.net/DTD/sodipodi-0.dtd"
   xmlns:inkscape="http://www.inkscape.org/namespaces/inkscape"
   version="1.1"
   width="2020"
   height="1020"
   viewBox="0 0 56.56 28.56"
   id="svg2"
   inkscape:version="0.48.4 r9939"
   sodipodi:docname="Flag_of_the_Malaysian_Army.svg">
  <metadata
     id="metadata36">
    <rdf:RDF>
      <cc:Work
         rdf:about="">
        <dc:format>image/svg+xml</dc:format>
        <dc:type
           rdf:resource="http://purl.org/dc/dcmitype/StillImage" />
        <dc:title>Malaysian Army Flag</dc:title>
      </cc:Work>
    </rdf:RDF>
  </metadata>
  <defs
     id="defs34" />
  <sodipodi:namedview
     pagecolor="#ffffff"
     bordercolor="#666666"
     borderopacity="1"
     objecttolerance="10"
     gridtolerance="10"
     guidetolerance="10"
     inkscape:pageopacity="0"
     inkscape:pageshadow="2"
     inkscape:window-width="1024"
     inkscape:window-height="538"
     id="namedview32"
     showgrid="false"
     fit-margin-top="0"
     fit-margin-left="0"
     fit-margin-right="0"
     fit-margin-bottom="0"
     inkscape:zoom="0.22768838"
     inkscape:cx="1111.1811"
     inkscape:cy="463.06497"
     inkscape:window-x="-8"
     inkscape:window-y="-8"
     inkscape:window-maximized="1"
     inkscape:current-layer="svg2"
     showguides="true"
     inkscape:guide-bbox="true" />
  <title
     id="title4">Malaysian Army Flag</title>
  <g
     id="g3401">
    <path
       sodipodi:nodetypes="ccccc"
       inkscape:connector-curvature="0"
       id="rect3803"
       d="m 0,0 56.56,0 0,28.56 -56.56,0 z"
       style="fill:#c30000;fill-opacity:1;stroke:none" />
    <path
       sodipodi:nodetypes="ccccc"
       inkscape:connector-curvature="0"
       id="rect3003"
       d="m 0,0 28.28,0 0,14.28 -28.28,0 z"
       style="fill:#000000;fill-opacity:1;stroke:none" />
    <rect
       y="-1.2434498e-014"
       x="-3.379852e-015"
       style="fill:#ffffff;stroke:none"
       id="rect3017"
       height="14"
       width="28" />
    <g
       style="fill:#cc0001"
       id="g3019">
      <rect
         y="0"
         x="0"
         style="fill:#cc0001;fill-opacity:1;stroke:none"
         height="1"
         width="28"
         id="rect3021" />
      <rect
         y="2"
         x="0"
         style="fill:#cc0001;fill-opacity:1;stroke:none"
         height="1"
         width="28"
         id="rect3023" />
      <rect
         y="4"
         x="0"
         style="fill:#cc0001;fill-opacity:1;stroke:none"
         height="1"
         width="28"
         id="rect3025" />
      <rect
         y="6"
         x="0"
         style="fill:#cc0001;fill-opacity:1;stroke:none"
         height="1"
         width="28"
         id="rect3027" />
    </g>
    <g
       style="fill:#cc0001;fill-opacity:1;stroke:none"
       id="g3029"
       transform="translate(0,6)">
      <rect
         y="2"
         x="0"
         style="fill:#cc0001;fill-opacity:1;stroke:none"
         height="1"
         width="28"
         id="rect3031" />
      <rect
         y="4"
         x="0"
         style="fill:#cc0001;fill-opacity:1;stroke:none"
         height="1"
         width="28"
         id="rect3033" />
      <rect
         y="6"
         x="0"
         style="fill:#cc0001;fill-opacity:1;stroke:none"
         height="1"
         width="28"
         id="rect3035" />
    </g>
    <rect
       y="-1.2434498e-014"
       x="-3.379852e-015"
       style="fill:#010066;fill-opacity:1;stroke:none"
       id="rect3037"
       height="8"
       width="14" />
    <circle
       sodipodi:ry="3"
       sodipodi:rx="3"
       sodipodi:cy="4"
       sodipodi:cx="5.75"
       style="fill:#ffcc00;fill-opacity:1"
       id="circle3039"
       r="3"
       cy="4"
       cx="5.75" />
    <circle
       sodipodi:ry="2.6666"
       sodipodi:rx="2.6666"
       sodipodi:cy="4"
       sodipodi:cx="6.4166002"
       style="fill:#010066;fill-opacity:1;stroke:none"
       id="circle3041"
       r="2.6666"
       cy="4"
       cx="6.4166002" />
    <g
       style="fill:#ffcc00"
       id="g3043"
       transform="translate(8.75,4)">
      <g
         style="fill:#ffcc00"
         id="g3045">
        <path
           inkscape:connector-curvature="0"
           style="fill:#ffcc00;fill-opacity:1;stroke:none"
           d="M 1,0 2.43732,0.556302 0.900969,0.433884 1.954579,1.558725 0.62349,0.781831 1.084709,2.252422 0.222521,0.974928 0,2.5 -0.3,-0.3 z"
           id="path3047" />
        <path
           inkscape:connector-curvature="0"
           style="fill:#ffcc00;fill-opacity:1;stroke:none"
           d="M 1,0 2.43732,-0.556302 0.900969,-0.433884 1.954579,-1.558725 0.62349,-0.781831 1.084709,-2.252422 0.222521,-0.974928 0,-2.5 -0.3,0.3 z"
           id="path3049" />
      </g>
      <g
         id="g3051"
         style="fill:#ffcc00;fill-opacity:1;stroke:none"
         transform="scale(-1,1)">
        <path
           inkscape:connector-curvature="0"
           style="fill:#ffcc00;fill-opacity:1;stroke:none"
           d="M 1,0 2.43732,0.556302 0.900969,0.433884 1.954579,1.558725 0.62349,0.781831 1.084709,2.252422 0.222521,0.974928 0,2.5 -0.3,-0.3 z"
           id="path3053" />
        <path
           inkscape:connector-curvature="0"
           style="fill:#ffcc00;fill-opacity:1;stroke:none"
           d="M 1,0 2.43732,-0.556302 0.900969,-0.433884 1.954579,-1.558725 0.62349,-0.781831 1.084709,-2.252422 0.222521,-0.974928 0,-2.5 -0.3,0.3 z"
           id="path3055" />
      </g>
    </g>
    <g
       transform="matrix(0.03434031,0,0,0.03434031,38.145564,9.7583927)"
       id="g3128">
      <path
         style="fill:#fcd116;fill-opacity:1;stroke-width:2.43500543;stroke-miterlimit:4;stroke-dasharray:none"
         inkscape:connector-curvature="0"
         id="path4451"
         d="m 126.12999,466.52575 2.468,4.292 21.691,-4.979 19.235,2.14 5.299,-31.293 c 0,0 -0.213,-2.308 -2.489,-4.445 -4.248,-3.982 -13.558,-9.075 -27.137,-9.492 -12.8,-0.396 -23.581,5.527 -27.977,10.382 -2.767,3.06 -1.421,5.867 -1.421,5.867 l 10.331,27.528 z" />
      <path
         style="fill:#fcd116;fill-opacity:1;stroke:#000000;stroke-width:2.43440008"
         inkscape:connector-curvature="0"
         id="path4453"
         d="m 163.22899,383.65475 -34.389,-4.155 -22.891,-24.846 c 0,0 3.179,-8.739 9.138,-8.739 5.96,0 13.508,5.96 29.003,5.96 15.495,0 25.828,-5.96 31.787,-5.96 5.96,0 8.345,7.945 8.345,7.945 l -20.993,29.795 z m -17.935,-8.873 c 6.086,0 25.419,-14.168 25.419,-14.168 0,0 -1.427,-3.896 -6.593,-3.896 -5.166,0 -7.712,4.692 -18.438,4.692 -10.726,0 -13.097,-5.073 -18.263,-5.073 -5.166,0 -7.037,4.564 -7.037,4.564 0,0 18.826,13.881 24.912,13.881 z" />
      <path
         style="fill:#fcd116;fill-opacity:1;stroke:#000000;stroke-width:2.43440008"
         inkscape:connector-curvature="0"
         id="path4455"
         d="m 72.11499,230.56875 0.385,21.706 113.948,67.827 c 0,0 2.239,3.023 5.065,4.51 2.827,1.486 7.337,1.69 7.337,1.69 0,0 1.431,3.621 3.632,4.678 2.202,1.059 4.896,1.135 4.896,1.135 l 7.75,5.039 8.527,-4.265 1.551,-16.664 -6.59,-8.139 c 0,0 -0.388,8.642 -0.388,11.568 0,2.929 -2.158,5.307 -4.263,5.485 -2.104,0.178 -5.038,-1.938 -5.038,-1.938 l -136.812,-92.632 z" />
      <path
         style="fill:#fcd116;fill-opacity:1;stroke:#000000;stroke-width:2.43440008"
         inkscape:connector-curvature="0"
         id="path4457"
         d="m 67.51999,330.80875 c 0,0 6.39,-5.011 12.289,-5.011 5.898,0 9.442,0.448 9.442,0.448 0,0 10.104,-3.173 13.042,-4.946 2.938,-1.773 4.049,-4.498 4.049,-4.498 0,0 -1.812,-3.033 -3.147,-5.396 -1.336,-2.358 -5.396,-4.944 -5.396,-4.944 0,0 4.843,-4.498 10.793,-4.498 5.951,0 11.692,0.449 11.692,0.449 0,0 7.712,-8.104 18.303,-15.563 10.592,-7.455 20.362,-9.164 27.116,-15.919 6.754,-6.751 8.741,-9.638 19.388,-18.165 10.646,-8.527 35.668,-22.458 35.668,-22.458 0,0 -14.829,15.396 -20.08,19.551 -5.252,4.155 -10.403,7.004 -16.382,13.477 -5.98,6.474 -8.852,10.09 -14.995,16.143 -6.143,6.053 -12.832,10.111 -24.284,20.236 -11.452,10.124 -28.333,41.372 -28.333,41.372 l -5.396,-11.242 c 0,0 -0.485,1.284 -2.696,1.8 -2.211,0.516 -3.599,0 -3.599,0 0,0 -2.285,7.094 -5.846,9.892 -3.562,2.799 -9.895,0.901 -9.895,0.901 l -1.348,9.442 -20.385,-21.071 z" />
      <path
         style="fill:#fcd116;fill-opacity:1;stroke:#000000;stroke-width:2.43440008"
         inkscape:connector-curvature="0"
         id="path4459"
         d="m 71.03099,189.55975 c 0,0 -8.975,1.952 -18.729,7.805 -9.756,5.853 -13.655,14.828 -13.655,14.828 l -1.952,-14.05 c 0,0 -9.759,8.977 -15.222,20.683 -5.461,11.706 -5.458,28.095 -5.458,28.095 l -2.734,-2.734 c 0,0 -5.33,12.349 -5.33,28.172 0,15.823 6.502,26.067 6.502,26.067 h -3.122 c 0,0 0.39,19.896 7.802,34.726 7.416,14.83 17.952,21.851 17.952,21.851 l -1.952,0.781 c 0,0 3.509,7.023 9.754,12.877 6.246,5.853 12.488,9.756 12.488,9.756 l -4.684,1.95 c 0,0 10.145,10.147 27.313,17.95 17.168,7.803 27.313,7.413 27.313,7.413 0,0 -5.463,10.924 1.562,12.875 7.025,1.952 30.435,-15.997 30.435,-15.997 v -22.241 c 0,0 -5.463,-10.925 -20.291,-19.898 -14.828,-8.976 -29.265,-10.147 -29.265,-10.147 0,0 -3.899,-5.851 -10.145,-11.313 -6.245,-5.463 -12.096,-8.197 -12.096,-8.197 0,0 1.562,-12.485 -3.122,-24.191 -4.683,-11.701 -14.048,-19.511 -14.048,-19.511 0,0 3.901,-7.021 4.292,-19.116 0.39,-12.096 -1.56,-17.172 -1.56,-17.172 0,0 8.194,-3.903 16,-14.824 7.802,-10.926 10.534,-27.706 10.534,-27.706 l -16.387,6.242 c 0,0 1.56,-1.564 4.681,-11.315 3.124,-9.755 3.124,-13.659 3.124,-13.659 z" />
      <path
         style="fill:#fcd116;fill-opacity:1;stroke:#000000;stroke-width:2.43440008"
         inkscape:connector-curvature="0"
         id="path4461"
         d="m 136.67399,69.08575 -6.6,10.551 -46.253,-13.796 c 0,0 -35.703,18.789 -35.703,54.491 0,35.702 22.718,57.491 22.718,57.491 v 9.737 h 9.737 v 20.728 h 129.835 v -20.728 h 8.928 v -8.927 c 0,0 22.72,-19.689 22.72,-58.301 0,-38.613 -36.516,-54.491 -36.516,-54.491 l -46.253,13.796 -5.68,-10.551 h -16.933 z" />
      <circle
         d="m 217.295,255.43401 c 0,2.0567 -1.66729,3.724 -3.724,3.724 -2.05671,0 -3.724,-1.6673 -3.724,-3.724 0,-2.05671 1.66729,-3.724 3.724,-3.724 2.05671,0 3.724,1.66729 3.724,3.724 z"
         style="fill:none;stroke:#000000;stroke-width:2.05029988"
         sodipodi:ry="3.724"
         sodipodi:rx="3.724"
         sodipodi:cy="255.43401"
         sodipodi:cx="213.571"
         id="circle4463"
         r="3.724"
         cy="255.43401"
         cx="213.571"
         transform="translate(-153.62501,-142.78125)" />
      <path
         style="fill:none;stroke:#000000;stroke-width:2.05029988"
         inkscape:connector-curvature="0"
         id="path4465"
         d="m 67.80699,101.76475 c 0,2.054 -1.669,3.723 -3.723,3.723 -2.059,0 -3.728,-1.669 -3.728,-3.723 0,-2.059 1.669,-3.725 3.728,-3.725 2.054,0 3.723,1.666 3.723,3.725 z" />
      <path
         style="fill:none;stroke:#000000;stroke-width:2.05029988"
         inkscape:connector-curvature="0"
         id="path4467"
         d="m 73.25099,91.16175 c 0,2.059 -1.669,3.725 -3.723,3.725 -2.059,0 -3.728,-1.667 -3.728,-3.725 0,-2.054 1.669,-3.723 3.728,-3.723 2.055,0 3.723,1.669 3.723,3.723 z" />
      <circle
         d="m 234.037,225.064 c 0,2.0567 -1.66729,3.724 -3.724,3.724 -2.0567,0 -3.724,-1.6673 -3.724,-3.724 0,-2.05671 1.6673,-3.724 3.724,-3.724 2.05671,0 3.724,1.66729 3.724,3.724 z"
         style="fill:none;stroke:#000000;stroke-width:2.05029988"
         sodipodi:ry="3.724"
         sodipodi:rx="3.724"
         sodipodi:cy="225.064"
         sodipodi:cx="230.313"
         id="circle4469"
         r="3.724"
         cy="225.064"
         cx="230.313"
         transform="translate(-153.62501,-142.78125)" />
      <circle
         d="m 245.781,219.334 c 0,2.05616 -1.66685,3.723 -3.723,3.723 -2.05616,0 -3.723,-1.66684 -3.723,-3.723 0,-2.05616 1.66684,-3.723 3.723,-3.723 2.05615,0 3.723,1.66684 3.723,3.723 z"
         style="fill:none;stroke:#000000;stroke-width:2.05029988"
         sodipodi:ry="3.723"
         sodipodi:rx="3.723"
         sodipodi:cy="219.334"
         sodipodi:cx="242.058"
         id="circle4471"
         r="3.723"
         cy="219.334"
         cx="242.058"
         transform="translate(-153.62501,-142.78125)" />
      <circle
         d="m 258.67301,223.345 c 0,2.05671 -1.6673,3.724 -3.724,3.724 -2.05671,0 -3.724,-1.66729 -3.724,-3.724 0,-2.05671 1.66729,-3.724 3.724,-3.724 2.0567,0 3.724,1.66729 3.724,3.724 z"
         style="fill:none;stroke:#000000;stroke-width:2.05029988"
         sodipodi:ry="3.724"
         sodipodi:rx="3.724"
         sodipodi:cy="223.345"
         sodipodi:cx="254.94901"
         id="circle4473"
         r="3.724"
         cy="223.345"
         cx="254.94901"
         transform="translate(-153.62501,-142.78125)" />
      <path
         style="fill:none;stroke:#000000;stroke-width:2.05029988"
         inkscape:connector-curvature="0"
         id="path4475"
         d="m 116.50699,85.43275 c 0,2.059 -1.668,3.725 -3.723,3.725 -2.059,0 -3.725,-1.667 -3.725,-3.725 0,-2.054 1.667,-3.723 3.725,-3.723 2.054,0 3.723,1.669 3.723,3.723 z" />
      <path
         style="fill:none;stroke:#000000;stroke-width:2.05029988"
         inkscape:connector-curvature="0"
         id="path4477"
         d="m 129.11099,88.86975 c 0,2.059 -1.668,3.726 -3.723,3.726 -2.059,0 -3.726,-1.667 -3.726,-3.726 0,-2.054 1.667,-3.723 3.726,-3.723 2.055,0.001 3.723,1.67 3.723,3.723 z" />
      <circle
         d="m 302.79099,225.064 c 0,2.0567 -1.6673,3.724 -3.724,3.724 -2.05671,0 -3.724,-1.6673 -3.724,-3.724 0,-2.05671 1.66729,-3.724 3.724,-3.724 2.0567,0 3.724,1.66729 3.724,3.724 z"
         style="fill:none;stroke:#000000;stroke-width:2.05029988"
         sodipodi:ry="3.724"
         sodipodi:rx="3.724"
         sodipodi:cy="225.064"
         sodipodi:cx="299.06699"
         id="circle4479"
         r="3.724"
         cy="225.064"
         cx="299.06699"
         transform="translate(-153.62501,-142.78125)" />
      <circle
         d="m 302.504,239.96001 c 0,2.05671 -1.66729,3.724 -3.724,3.724 -2.05671,0 -3.724,-1.66729 -3.724,-3.724 0,-2.05671 1.66729,-3.724 3.724,-3.724 2.05671,0 3.724,1.66729 3.724,3.724 z"
         style="fill:none;stroke:#000000;stroke-width:2.05029988"
         sodipodi:ry="3.724"
         sodipodi:rx="3.724"
         sodipodi:cy="239.96001"
         sodipodi:cx="298.78"
         id="circle4481"
         r="3.724"
         cy="239.96001"
         cx="298.78"
         transform="translate(-153.62501,-142.78125)" />
      <circle
         d="m 302.797,254.036 c 0,2.0567 -1.66729,3.724 -3.724,3.724 -2.05671,0 -3.724,-1.6673 -3.724,-3.724 0,-2.05671 1.66729,-3.724 3.724,-3.724 2.05671,0 3.724,1.66729 3.724,3.724 z"
         style="fill:none;stroke:#000000;stroke-width:2.05029988"
         sodipodi:ry="3.724"
         sodipodi:rx="3.724"
         sodipodi:cy="254.036"
         sodipodi:cx="299.073"
         id="circle4483"
         r="3.724"
         cy="254.036"
         cx="299.073"
         transform="translate(-153.62501,-142.78125)" />
      <path
         style="fill:none;stroke:#000000;stroke-width:2.05029988"
         inkscape:connector-curvature="0"
         id="path4485"
         d="m 148.88399,124.53075 c 0,2.054 -1.669,3.723 -3.723,3.723 -2.059,0 -3.726,-1.669 -3.726,-3.723 0,-2.059 1.667,-3.725 3.726,-3.725 2.054,-0.001 3.723,1.665 3.723,3.725 z" />
      <g
         id="g4487"
         transform="translate(-153.62501,-142.78125)">
        <path
           style="fill:none;stroke:#000000;stroke-width:2.05029988"
           inkscape:connector-curvature="0"
           id="path4489"
           d="m 380.407,256.143 c 0,2.054 1.669,3.723 3.723,3.723 2.059,0 3.726,-1.669 3.726,-3.723 0,-2.059 -1.667,-3.725 -3.726,-3.725 -2.054,-0.001 -3.723,1.665 -3.723,3.725 z" />
        <path
           style="fill:none;stroke:#000000;stroke-width:2.05029988"
           inkscape:connector-curvature="0"
           id="path4491"
           d="m 376.271,245.254 c 0,2.054 1.669,3.723 3.723,3.723 2.059,0 3.728,-1.669 3.728,-3.723 0,-2.059 -1.669,-3.725 -3.728,-3.725 -2.055,0 -3.723,1.666 -3.723,3.725 z" />
        <path
           style="fill:none;stroke:#000000;stroke-width:2.05029988"
           inkscape:connector-curvature="0"
           id="path4493"
           d="m 370.826,234.651 c 0,2.059 1.669,3.726 3.724,3.726 2.058,0 3.727,-1.667 3.727,-3.726 0,-2.054 -1.669,-3.723 -3.727,-3.723 -2.055,0.001 -3.724,1.67 -3.724,3.723 z" />
        <circle
           d="m 371.11301,225.772 c 0,2.05671 -1.66729,3.724 -3.724,3.724 -2.05671,0 -3.724,-1.66729 -3.724,-3.724 0,-2.05671 1.66729,-3.724 3.724,-3.724 2.05671,0 3.724,1.66729 3.724,3.724 z"
           style="fill:none;stroke:#000000;stroke-width:2.05029988"
           sodipodi:ry="3.724"
           sodipodi:rx="3.724"
           sodipodi:cy="225.772"
           sodipodi:cx="367.38901"
           id="circle4495"
           r="3.724"
           cy="225.772"
           cx="367.38901" />
        <circle
           d="m 359.36701,220.043 c 0,2.05616 -1.66684,3.723 -3.723,3.723 -2.05615,0 -3.723,-1.66684 -3.723,-3.723 0,-2.05616 1.66685,-3.723 3.723,-3.723 2.05616,0 3.723,1.66684 3.723,3.723 z"
           style="fill:none;stroke:#000000;stroke-width:2.05029988"
           sodipodi:ry="3.723"
           sodipodi:rx="3.723"
           sodipodi:cy="220.043"
           sodipodi:cx="355.64401"
           id="circle4497"
           r="3.723"
           cy="220.043"
           cx="355.64401" />
        <path
           style="fill:none;stroke:#000000;stroke-width:2.05029988"
           inkscape:connector-curvature="0"
           id="path4499"
           d="m 339.03,224.053 c 0,2.057 1.668,3.723 3.722,3.723 2.06,0 3.726,-1.667 3.726,-3.723 0,-2.056 -1.666,-3.723 -3.726,-3.723 -2.054,10e-4 -3.722,1.667 -3.722,3.723 z" />
        <path
           style="fill:none;stroke:#000000;stroke-width:2.05029988"
           inkscape:connector-curvature="0"
           id="path4501"
           d="m 327.571,228.922 c 0,2.059 1.669,3.726 3.722,3.726 2.06,0 3.726,-1.667 3.726,-3.726 0,-2.054 -1.666,-3.723 -3.726,-3.723 -2.053,0 -3.722,1.669 -3.722,3.723 z" />
        <path
           style="fill:none;stroke:#000000;stroke-width:2.05029988"
           inkscape:connector-curvature="0"
           id="path4503"
           d="m 314.966,232.36 c 0,2.059 1.669,3.725 3.724,3.725 2.058,0 3.725,-1.666 3.725,-3.725 0,-2.054 -1.667,-3.723 -3.725,-3.723 -2.055,0 -3.724,1.669 -3.724,3.723 z" />
      </g>
      <path
         style="fill:#c30000;fill-opacity:1;stroke:#000000;stroke-width:2.43440008"
         inkscape:connector-curvature="0"
         id="path4505"
         d="m 61.48099,123.06575 v 15.743 h 6.559 c 0,0 1.448,13.127 5.687,22.304 4.236,9.177 11.368,15.306 11.368,15.306 h 10.059 c 0,0 5.089,-7.434 13.118,-7.434 8.028,0 13.121,9.184 13.121,9.184 0,0 5.201,0 9.39,0 4.189,0 5.478,-3.5 5.478,-3.5 v -33.672 h 17.93 v 33.672 c 0,0 1.198,4.375 5.757,4.375 4.561,0 8.235,0 8.235,0 0,0 4.629,-9.184 13.556,-9.184 8.928,0 13.121,6.559 13.121,6.559 h 9.621 c 0,0 6.917,-3.126 12.243,-14.868 5.325,-11.741 5.249,-22.68 5.249,-22.68 h 6.122 v -16.242 c 0,0 -4.299,-0.13 -6.56,-3.497 -2.261,-3.367 0.107,-5.371 -5.249,-17.055 -5.355,-11.685 -13.993,-16.18 -13.993,-16.18 0,0 -10.418,5.822 -22.739,9.184 -12.322,3.361 -25.363,5.805 -25.363,5.805 v 31.804 h -17.93 v -31.488 c 0,0 -14.772,-2.8 -27.551,-6.996 -12.778,-4.196 -21.865,-8.747 -21.865,-8.747 0,0 -6.461,3.849 -11.808,14.431 -5.347,10.582 -4.272,15.255 -6.559,18.805 -2.288,3.548 -6.997,4.371 -6.997,4.371 z" />
      <line
         style="fill:none;stroke:#000000;stroke-width:2.43440008"
         id="line4507"
         y2="187.60074"
         x2="210.06898"
         y1="187.60074"
         x1="80.387993" />
      <polyline
         style="fill:none;stroke:#000000;stroke-width:1.21720004"
         id="polyline4509"
         points="195.267,427.576 197.769,424.396 203.769,430.558  "
         transform="translate(-153.62501,-142.78125)" />
      <path
         style="fill:none;stroke:#000000;stroke-width:1.21720004"
         inkscape:connector-curvature="0"
         id="path4511"
         d="m 16.01499,246.91975 c 0,0 3.438,4.707 5.125,8.648 1.688,3.939 2.339,5.922 2.339,5.922" />
      <polygon
         id="polygon4513"
         points="233.122,509.924 233.875,508.791 224.318,503.509 "
         transform="translate(-153.62501,-142.78125)" />
      <path
         style="fill:none;stroke:#000000;stroke-width:1.21720004"
         inkscape:connector-curvature="0"
         id="path4515"
         d="m 28.33899,248.46475 c 0,0 -0.226,-8.905 7.424,-21.231 7.65,-12.326 11.275,-13.349 11.275,-13.349 0,0 0.985,7.705 0.133,18.329 -0.849,10.627 -2.974,16.151 -2.974,16.151" />
      <line
         style="fill:none;stroke:#000000;stroke-width:1.21720004"
         id="line4517"
         y2="223.83875"
         x2="37.959995"
         y1="212.19174"
         x1="38.646992" />
      <path
         style="fill:none;stroke:#000000;stroke-width:1.21720004"
         inkscape:connector-curvature="0"
         id="path4519"
         d="m 30.40699,305.56475 c 0,0 -6.31,-14.098 -7.446,-30.772 -1.136,-16.674 5.001,-26.755 5.001,-26.755 0,0 8.958,10.622 12.039,26.351 3.081,15.729 4.058,34.892 4.058,34.892" />
      <path
         style="fill:none;stroke:#000000;stroke-width:1.21720004"
         inkscape:connector-curvature="0"
         id="path4521"
         d="m 56.25799,352.48075 c 0,0 -11.793,-6.28 -18.286,-20.48 -6.49,-14.2 -8.925,-35.705 -8.925,-35.705 0,0 10.548,7.712 21.097,18.667 10.551,10.952 12.99,31.645 12.99,31.645" />
      <path
         style="fill:none;stroke:#000000;stroke-width:1.21720004"
         inkscape:connector-curvature="0"
         id="path4523"
         d="m 37.23999,264.42675 c 0,0 0.91,-4.707 5.287,-13.458 4.375,-8.751 8.944,-13.016 8.944,-13.016 l 1.95,15.738" />
      <path
         style="fill:none;stroke:#000000;stroke-width:1.21720004"
         inkscape:connector-curvature="0"
         id="path4525"
         d="m 14.01999,298.70075 c 0,0 4.236,2.372 10.167,7.964 5.932,5.594 8.473,9.661 8.473,9.661" />
      <path
         style="fill:none;stroke:#000000;stroke-width:1.21720004"
         inkscape:connector-curvature="0"
         id="path4527"
         d="m 36.41399,355.50175 c 0,0 2.956,-0.456 10.004,-0.229 7.049,0.229 11.822,2.273 11.822,2.273" />
      <path
         style="fill:none;stroke:#000000;stroke-width:1.21720004"
         inkscape:connector-curvature="0"
         id="path4529"
         d="m 99.34199,368.11875 c 0,0 -3.892,-4.38 -6.083,-9.003 -2.192,-4.624 -4.137,-9.006 -4.137,-9.006" />
      <polyline
         style="fill:none;stroke:#000000;stroke-width:1.21720004"
         id="polyline4531"
         points="213.302,474.889 213.789,469.776 221.09,474.4  "
         transform="translate(-153.62501,-142.78125)" />
      <path
         inkscape:connector-curvature="0"
         id="path4533"
         d="m 31.64299,286.57775 c 0.238,5.611 2.102,14.104 2.102,14.104 l 2.815,1.301 c 0,0 -3.017,-7.941 -3.471,-16.13 -0.454,-8.19 0.043,-13.406 0.043,-13.406 0,0 -1.726,8.521 -1.489,14.131 z" />
      <path
         inkscape:connector-curvature="0"
         id="path4535"
         d="m 24.01899,326.87375 c 0,0 4.814,9.539 11.005,16.381 6.19,6.841 12.971,12.114 12.971,12.114 l 3.264,0.25 c 0,0 -10.396,-9.45 -15.441,-14.435 -5.043,-4.986 -11.799,-14.31 -11.799,-14.31 z" />
      <path
         inkscape:connector-curvature="0"
         id="path4537"
         d="m 41.15699,319.41175 c 0,0 3.495,8.259 7.327,14.623 3.832,6.364 7.591,10.364 7.591,10.364 l 3.397,0.853 c 0,0 -5.551,-6.596 -9.583,-12.496 -4.032,-5.9 -8.732,-13.344 -8.732,-13.344 z" />
      <path
         inkscape:connector-curvature="0"
         id="path4539"
         d="m 57.56099,316.29275 c 1.329,5.309 2.268,10.531 2.268,10.531 l 2.271,1.407 c 0,0 -1.363,-5.284 -3.196,-12.273 -1.833,-6.99 -7.396,-12.274 -7.396,-12.274 0,0 4.721,7.303 6.053,12.609 z" />
      <path
         inkscape:connector-curvature="0"
         id="path4541"
         d="m 16.48999,276.36175 c 0,0 2.021,10.236 4.46,17.649 2.441,7.412 10.189,20.61 10.189,20.61 l 1.091,-0.539 c 0,0 -6.676,-10.902 -10.144,-20.49 -3.468,-9.585 -5.596,-17.23 -5.596,-17.23 z" />
      <path
         style="fill:none;stroke:#000000;stroke-width:1.21720004"
         inkscape:connector-curvature="0"
         id="path4543"
         d="m 139.03199,397.72875 c 0,0 -22.699,-0.796 -36.64,-9.159 -13.941,-8.363 -23.098,-22.306 -23.098,-22.306 0,0 17.126,-0.796 35.843,5.975 18.717,6.771 23.895,15.135 23.895,15.135" />
      <path
         style="fill:none;stroke:#000000;stroke-width:1.21720004"
         inkscape:connector-curvature="0"
         id="path4545"
         d="m 94.87099,383.21275 c 0,0 -18.688,-4.429 -27.924,-12.918 -9.238,-8.49 -13.96,-26.934 -13.96,-26.934 0,0 15.206,3.713 26.441,11.205 11.233,7.49 12.231,12.233 12.231,12.233" />
      <path
         style="fill:none;stroke:#000000;stroke-width:1.21720004"
         inkscape:connector-curvature="0"
         id="path4547"
         d="m 53.40099,380.00375 c 0,0 7.239,-1.51 15.383,-1.51 8.144,0 13.416,0.556 13.416,0.556" />
      <path
         inkscape:connector-curvature="0"
         id="path4549"
         d="m 54.91299,369.72775 c 0,0 6.229,3.995 12.086,5.93 5.853,1.933 10.127,2.913 10.127,2.913 l 2.42,-0.639 c 0,0 -8.43,-2.543 -12.966,-3.767 -4.54,-1.229 -11.667,-4.437 -11.667,-4.437 z" />
      <path
         inkscape:connector-curvature="0"
         id="path4551"
         d="m 97.24599,376.58275 c 0,0 12.212,1.961 22.235,6.658 10.022,4.702 19.658,11.327 19.658,11.327 l 0.785,3.239 c 0,0 -14.697,-8.713 -22.248,-12.776 -7.548,-4.065 -20.43,-8.448 -20.43,-8.448 z" />
      <path
         inkscape:connector-curvature="0"
         id="path4553"
         d="m 79.46099,389.28175 c 0,0 14.328,5.861 28.093,8.172 13.764,2.298 31.813,3.135 31.813,3.135 l -0.523,-2.475 c 0,0 -21.355,-1.904 -32.061,-3.216 -10.705,-1.308 -27.322,-5.616 -27.322,-5.616 z" />
      <path
         inkscape:connector-curvature="0"
         id="path4555"
         d="m 102.46099,360.61475 c 0,0 6.134,2.574 10.836,6.035 4.695,3.464 10.073,8.653 10.073,8.653 l -1.037,0.578 c 0,0 -6.689,-5.867 -10.17,-8.704 -3.48,-2.836 -9.702,-6.562 -9.702,-6.562 z" />
      <path
         inkscape:connector-curvature="0"
         id="path4557"
         d="m 74.59399,342.83375 c 0,0 6.686,5.029 11.081,10.672 4.396,5.642 8.72,13.561 8.72,13.561 l -2.527,-0.084 c 0,0 -4.788,-8.696 -7.914,-13.201 -3.124,-4.507 -9.36,-10.948 -9.36,-10.948 z" />
      <path
         inkscape:connector-curvature="0"
         id="path4559"
         d="m 48.05199,259.17275 c 0,0 -3.466,5.642 -5.093,10.926 -1.626,5.285 -2.247,10.266 -2.247,10.266 l 0.896,1.566 c 0,0 1.664,-8.133 2.682,-12.225 1.018,-4.091 3.762,-10.533 3.762,-10.533 z" />
      <path
         inkscape:connector-curvature="0"
         id="path4561"
         d="m 22.76599,240.74375 c -0.618,6.818 -0.399,18.225 -0.399,18.225 l 1.935,0.615 c 0,0 -0.803,-9.508 -0.007,-19.468 0.796,-9.971 2.075,-16.185 2.075,-16.185 0,0 -2.986,9.997 -3.604,16.813 z" />
      <path
         inkscape:connector-curvature="0"
         id="path4563"
         d="m 36.35699,243.05475 c -2.011,5.242 -3.2,13.004 -3.2,13.004 l 1.69,2.786 c 0,0 0.29,-8.192 3.124,-15.883 2.838,-7.696 5.368,-12.284 5.368,-12.284 0,0 -4.968,7.132 -6.982,12.377 z" />
      <path
         inkscape:connector-curvature="0"
         id="path4565"
         d="m 53.38199,211.69275 c -3.181,3.689 -6.103,8.991 -6.103,8.991 l 0.24,2.881 c 0,0 2.515,-6.1 7.099,-11.544 4.581,-5.446 7.938,-8.487 7.938,-8.487 0,0 -5.994,4.467 -9.174,8.159 z" />
      <path
         inkscape:connector-curvature="0"
         id="path4567"
         d="m 58.00299,229.69175 c -3.09,2.772 -6.927,7.94 -6.927,7.94 l 0.832,2.423 c 0,0 2.874,-5.653 7.327,-9.769 4.455,-4.113 7.735,-6.229 7.735,-6.229 0,0 -5.872,2.865 -8.967,5.635 z" />
      <path
         style="fill:none;stroke:#000000;stroke-width:1.21720004"
         inkscape:connector-curvature="0"
         id="path4569"
         d="m 47.28099,232.00475 c 0,0 2.451,-4.593 7.046,-9.495 4.593,-4.902 9.647,-8.268 9.647,-8.268" />
      <polygon
         style="fill:#002b7f;fill-opacity:1;stroke:#000000;stroke-width:1.01670372;stroke-miterlimit:4;stroke-dasharray:none"
         id="polygon4571"
         points="258.805,341.3 250.845,345.161 242.884,341.3 250.907,337.135 "
         transform="translate(-153.62501,-142.78125)" />
      <polygon
         style="fill:#00a651;stroke:#000000;stroke-width:1.01670372;stroke-miterlimit:4;stroke-dasharray:none"
         id="polygon4573"
         points="282.522,341.321 274.561,345.182 266.6,341.321 274.624,337.156 "
         transform="translate(-153.62501,-142.78125)" />
      <polygon
         style="fill:#c30000;fill-opacity:1;stroke:#000000;stroke-width:1.01670372;stroke-miterlimit:4;stroke-dasharray:none"
         id="polygon4575"
         points="306.862,341.321 298.901,345.182 290.94,341.321 298.963,337.156 "
         transform="translate(-153.62501,-142.78125)" />
      <polygon
         style="fill:#00a651;stroke:#000000;stroke-width:1.01670372;stroke-miterlimit:4;stroke-dasharray:none"
         id="polygon4577"
         points="330.578,341.342 322.617,345.203 314.656,341.342 322.68,337.177 "
         transform="translate(-153.62501,-142.78125)" />
      <polygon
         style="fill:#002b7f;fill-opacity:1;stroke:#000000;stroke-width:1.01670372;stroke-miterlimit:4;stroke-dasharray:none"
         id="polygon4579"
         points="353.599,341.342 345.639,345.203 337.678,341.342 345.7,337.177 "
         transform="translate(-153.62501,-142.78125)" />
      <path
         d="m 96.93899,138.02375 c 6.447,11.226 11.114,12.153 11.114,12.153 0,0 -0.675,-4.474 1.676,-8.04 2.349,-3.564 7.253,-5.763 7.253,-5.763 h -15.607 c 0,0 -0.775,-3.608 4.791,-6.825 5.563,-3.217 8.646,-4.778 8.646,-4.778 0,0 -2.427,-3.338 -0.23,-6.75 1.105,-1.719 3.547,-3.333 5.688,-2.656 2.119,0.67 3.947,3.611 3.947,5.157 0,3.109 -4.517,5.189 -4.517,5.189 0,0 0.873,2.863 -0.428,2.863 -1.305,0 -1.274,-2.287 -2.289,-1.719 -0.597,0.337 -4.382,2.351 -6.721,3.756 -1.646,0.984 -2.157,1.543 -2.157,1.543 h 21.475 l -1.146,4.724 c 0,0 -7.182,1.177 -10.74,3.29 -3.559,2.109 -7.577,5.035 -8.014,8.021 -0.171,1.174 0.839,2.413 2.349,2.891 1.37,0.433 3.191,0.121 4.177,0.777 0.354,0.235 0.913,2.047 0.212,3.399 -0.668,1.296 -2.563,2.138 -3.823,2.052 -3.002,-0.2 -7.239,-2.781 -9.072,-4.538 -3.407,-3.267 -7.444,-9.45 -7.444,-9.45 0,0 -4.296,13.172 -12.742,13.172 -3.894,0 -7.974,-3.321 -9.162,-9.459 -1.191,-6.14 2.577,-7.722 2.577,-7.722 0,0 -0.337,4.339 0.994,7.596 1.03,2.517 3.289,4.144 6.02,4.144 6.276,0 10.311,-11.597 10.311,-11.597 0,0 -2.497,-3.571 -5.041,-6.542 -2.546,-2.967 -6.119,-7.084 -6.119,-7.084 l 1.938,-4.303 c -0.002,0.001 5.632,5.271 12.084,16.499 z m 19.323,-20.064 c -1.01,0.924 0.252,5.966 3.112,4.455 2.855,-1.514 -2.102,-5.381 -3.112,-4.455 z"
         id="path4583"
         inkscape:connector-curvature="0"
         style="fill:#fcd116;fill-opacity:1;stroke:none" />
      <path
         d="m 108.07199,114.39775 c 0,0 1.999,-0.618 4.25,-1.781 2.253,-1.165 2.817,-1.645 2.817,-1.645 0,0 -1.04,-0.682 -0.806,-2.779 0.235,-2.094 4.291,-3.033 5.302,-2.411 1.008,0.621 0.004,2.639 0.004,2.639 0,0 -0.49,1.236 -0.958,1.856 -0.464,0.621 0.513,1.462 0.038,1.719 -0.61,0.329 -0.302,-0.29 -1.388,-0.366 -1.089,-0.079 -2.62,1.274 -4.717,1.973 -2.093,0.7 -4.542,0.795 -4.542,0.795 z"
         id="path4585"
         inkscape:connector-curvature="0"
         style="fill:#fcd116;fill-opacity:1;stroke:none" />
      <path
         d="m 86.78799,101.51775 -2.24,1.702 c 0,0 0.809,0.627 1.165,2.33 0.359,1.702 -0.356,3.585 -0.356,3.585 0,0 3.224,-1.883 2.867,-4.21 -0.359,-2.332 -1.436,-3.407 -1.436,-3.407 z"
         id="path4587"
         inkscape:connector-curvature="0"
         style="fill:#fcd116;fill-opacity:1;stroke:none" />
      <path
         d="m 83.29299,110.74875 c -0.625,-0.181 -1.904,1.162 -1.726,5.104 0.181,3.944 1.384,4.833 2.551,4.833 1.165,0 2.76,-1.873 2.76,-1.873 0,0 0.806,1.88 3.854,1.343 3.045,-0.537 2.149,-6.809 2.149,-6.809 h 1.077 c 0,0 -0.773,-1.276 -1.189,-2.149 -0.411,-0.875 -0.031,-1.583 -0.568,-1.583 -0.54,0 -1.32,1.89 -1.32,2.682 0,0.79 0.352,2.915 0.352,3.775 0,0.86 -0.143,1.488 -1.31,1.397 -1.162,-0.09 -1.521,-0.941 -1.521,-1.792 0,-0.846 -0.179,-6.095 -0.179,-6.095 l -1.705,1.436 c 0,0 0,3.583 0,4.574 0,0.989 -0.34,1.888 -1.262,1.888 -0.917,0 -1.548,0 -1.783,-1.711 -0.235,-1.716 0.448,-4.842 -0.18,-5.02 z"
         id="path4589"
         inkscape:connector-curvature="0"
         style="fill:#fcd116;fill-opacity:1;stroke:none" />
      <path
         d="m 174.71799,126.40575 c 1.641,0 3.372,0.73 3.372,0.73 0,0 -0.217,2.111 -0.911,4.55 -0.656,2.29 -1.785,4.843 -2.004,6.743 -0.454,3.913 -0.364,11.744 5.009,11.924 5.373,0.186 6.01,-5.827 5.464,-8.375 -0.545,-2.551 -1.731,-11.292 -1.731,-11.292 l 5.738,-1.367 c 0,0 -1.093,10.382 -1.003,13.39 0.093,3.002 1.367,7.098 4.009,7.098 1.317,0 3.336,-1.26 4.099,-4.369 0.761,-3.105 0.268,-8.06 0.088,-11.2 -0.363,-6.283 -1.458,-10.929 -1.458,-10.929 l 6.467,-4.189 c 0,0 -0.91,7.467 -1.094,10.565 -0.085,1.488 0.568,3.882 1.003,7.104 0.471,3.48 0.729,7.738 0.729,7.738 0,0 0.273,6.557 -5.007,9.378 -5.285,2.824 -9.928,-3.366 -9.928,-3.366 0,0 -1.911,6.738 -9.195,6.371 -7.284,-0.363 -7.378,-9.559 -7.378,-9.559 0,0 -3.731,0.911 -5.189,0.637 -1.458,-0.274 -4.465,-0.73 -4.099,-5.099 0.364,-4.37 5.463,-8.925 7.104,-11.473 1.64,-2.551 0.955,-2.605 2.457,-4.008 1.129,-1.057 2.754,-1.002 3.458,-1.002 z m -2.548,7.101 c 0,0 -1.912,3.19 -3.007,4.555 -1.09,1.365 -2.604,4.294 -2.604,4.294 h 4.826 c 0,0 0.35,-1.493 0.439,-4.042 0.094,-2.549 0.346,-4.807 0.346,-4.807 z"
         id="path4591"
         inkscape:connector-curvature="0"
         style="fill:#fcd116;fill-opacity:1;stroke:none" />
      <path
         d="m 208.22299,113.56875 c -0.875,0.252 -1.429,3.276 -2.378,4.258 -0.608,0.628 1.253,4.253 2.504,14.768 1.252,10.512 -0.84,18.89 -1.001,20.148 -0.165,1.26 0.123,2.379 0.123,2.379 0,0 4.634,-6.756 5.508,-21.779 0.875,-15.018 0.333,-18.151 -0.125,-18.522 -0.46,-0.371 -1.532,0.1 -2.658,-0.275 -1.128,-0.376 -1.096,-1.227 -1.973,-0.977 z"
         id="path4593"
         inkscape:connector-curvature="0"
         style="fill:#fcd116;fill-opacity:1;stroke:none" />
      <path
         d="m 181.11099,108.36475 -2.272,1.427 c 0,0 -1.04,3.504 -0.958,5.663 0.08,2.158 0.401,6.062 2.952,6.38 2.553,0.319 5.983,-2.313 5.983,-2.313 0,0 3.109,2.712 6.064,1.595 2.948,-1.115 3.269,-3.238 3.269,-4.486 0,-1.249 -0.078,-4.847 -0.078,-4.847 h 1.436 v -0.638 c 0,0 -0.272,0.005 -1.279,-1.754 -1,-1.764 -0.427,-2.793 -1.036,-2.793 -0.604,0 -2.524,2.166 -2.524,3.343 0,1.177 0.851,4.122 0.851,5.705 0,0.887 -0.406,1.966 -2.324,1.966 -1.918,0 -2.29,-2.256 -2.29,-2.895 0,-1.446 -0.268,-7.977 -0.268,-7.977 l -2.937,1.933 c 0,0 0,5.143 0,6.728 0,1.583 -1.517,2.125 -2.791,1.807 -1.278,-0.319 -2.153,-1.436 -2.153,-3.428 -0.001,-1.995 0.355,-5.416 0.355,-5.416 z"
         id="path4595"
         inkscape:connector-curvature="0"
         style="fill:#fcd116;fill-opacity:1;stroke:none" />
      <path
         d="m 180.59299,105.87975 c 0,0 3.271,-1.037 5.824,-2.551 2.554,-1.517 4.148,-3.751 4.148,-3.751 h 4.467 c 0,0 -0.877,2.553 -5.983,4.947 -5.105,2.392 -8.456,1.355 -8.456,1.355 z"
         id="path4597"
         inkscape:connector-curvature="0"
         style="fill:#fcd116;fill-opacity:1;stroke:none" />
      <path
         style="fill:#fcd116;fill-opacity:1;stroke:#000000;stroke-width:2.43440008"
         inkscape:connector-curvature="0"
         id="path4599"
         d="m 219.61899,189.43575 c 0,0 8.974,1.952 18.729,7.805 9.756,5.853 13.655,14.828 13.655,14.828 l 1.952,-14.05 c 0,0 9.759,8.977 15.222,20.683 5.461,11.706 5.458,28.095 5.458,28.095 l 2.734,-2.734 c 0,0 5.33,12.35 5.33,28.173 0,15.825 -6.502,26.067 -6.502,26.067 h 3.121 c 0,0 -0.39,19.896 -7.803,34.726 -7.414,14.829 -17.951,21.85 -17.951,21.85 l 1.952,0.782 c 0,0 -3.509,7.022 -9.755,12.875 -6.244,5.854 -12.487,9.757 -12.487,9.757 l 4.683,1.949 c 0,0 -10.143,10.149 -27.313,17.951 -17.169,7.803 -27.313,7.413 -27.313,7.413 0,0 5.464,10.924 -1.562,12.876 -7.026,1.952 -30.435,-15.997 -30.435,-15.997 v -22.243 c 0,0 5.463,-10.923 20.29,-19.897 14.828,-8.975 29.265,-10.146 29.265,-10.146 0,0 3.899,-5.851 10.145,-11.313 6.246,-5.462 12.096,-8.197 12.096,-8.197 0,0 -1.562,-12.486 3.121,-24.192 4.684,-11.701 14.048,-19.511 14.048,-19.511 0,0 -3.9,-7.02 -4.291,-19.116 -0.389,-12.096 1.561,-17.171 1.561,-17.171 0,0 -8.195,-3.903 -16,-14.825 -7.802,-10.926 -10.534,-27.705 -10.534,-27.705 l 16.388,6.243 c 0,0 -1.56,-1.564 -4.682,-11.316 -3.122,-9.756 -3.122,-13.66 -3.122,-13.66 z" />
      <polyline
         style="fill:none;stroke:#000000;stroke-width:1.21720004"
         id="polyline4601"
         points="402.633,427.455 400.132,424.27 394.131,430.432  "
         transform="translate(-153.62501,-142.78125)" />
      <path
         style="fill:none;stroke:#000000;stroke-width:1.21720004"
         inkscape:connector-curvature="0"
         id="path4603"
         d="m 274.63499,246.79575 c 0,0 -3.438,4.707 -5.125,8.649 -1.688,3.938 -2.34,5.922 -2.34,5.922" />
      <polygon
         id="polygon4605"
         points="364.778,509.799 364.024,508.668 373.581,503.385 "
         transform="translate(-153.62501,-142.78125)" />
      <path
         style="fill:none;stroke:#000000;stroke-width:1.21720004"
         inkscape:connector-curvature="0"
         id="path4607"
         d="m 262.31199,248.34175 c 0,0 0.226,-8.906 -7.425,-21.232 -7.65,-12.326 -11.276,-13.348 -11.276,-13.348 0,0 -0.983,7.705 -0.133,18.329 0.849,10.627 2.975,16.151 2.975,16.151" />
      <line
         style="fill:none;stroke:#000000;stroke-width:1.21720004"
         id="line4609"
         y2="223.71475"
         x2="252.68898"
         y1="212.06876"
         x1="252.00298" />
      <path
         style="fill:none;stroke:#000000;stroke-width:1.21720004"
         inkscape:connector-curvature="0"
         id="path4611"
         d="m 260.24299,305.44075 c 0,0 6.31,-14.1 7.445,-30.772 1.137,-16.675 -5.002,-26.754 -5.002,-26.754 0,0 -8.958,10.622 -12.039,26.351 -3.08,15.726 -4.058,34.892 -4.058,34.892" />
      <path
         style="fill:none;stroke:#000000;stroke-width:1.21720004"
         inkscape:connector-curvature="0"
         id="path4613"
         d="m 234.39199,352.35775 c 0,0 11.794,-6.281 18.286,-20.48 6.49,-14.2 8.925,-35.706 8.925,-35.706 0,0 -10.549,7.713 -21.097,18.667 -10.551,10.952 -12.989,31.646 -12.989,31.646" />
      <path
         style="fill:none;stroke:#000000;stroke-width:1.21720004"
         inkscape:connector-curvature="0"
         id="path4615"
         d="m 253.40999,264.30375 c 0,0 -0.91,-4.707 -5.287,-13.458 -4.374,-8.751 -8.943,-13.017 -8.943,-13.017 l -1.949,15.738" />
      <path
         style="fill:none;stroke:#000000;stroke-width:1.21720004"
         inkscape:connector-curvature="0"
         id="path4617"
         d="m 276.62999,298.57575 c 0,0 -4.236,2.373 -10.168,7.966 -5.932,5.593 -8.474,9.66 -8.474,9.66" />
      <path
         style="fill:none;stroke:#000000;stroke-width:1.21720004"
         inkscape:connector-curvature="0"
         id="path4619"
         d="m 254.23499,355.37875 c 0,0 -2.955,-0.456 -10.004,-0.229 -7.049,0.229 -11.822,2.272 -11.822,2.272" />
      <path
         style="fill:none;stroke:#000000;stroke-width:1.21720004"
         inkscape:connector-curvature="0"
         id="path4621"
         d="m 191.30799,367.99475 c 0,0 3.892,-4.379 6.084,-9.003 2.191,-4.623 4.136,-9.005 4.136,-9.005" />
      <polyline
         style="fill:none;stroke:#000000;stroke-width:1.21720004"
         id="polyline4623"
         points="384.598,474.766 384.111,469.653 376.81,474.277  "
         transform="translate(-153.62501,-142.78125)" />
      <path
         inkscape:connector-curvature="0"
         id="path4625"
         d="m 259.00699,286.45675 c -0.238,5.611 -2.102,14.103 -2.102,14.103 l -2.814,1.301 c 0,0 3.016,-7.943 3.471,-16.13 0.453,-8.188 -0.043,-13.406 -0.043,-13.406 0,0 1.725,8.522 1.488,14.132 z" />
      <path
         inkscape:connector-curvature="0"
         id="path4627"
         d="m 266.62999,326.75075 c 0,0 -4.813,9.538 -11.004,16.379 -6.19,6.843 -12.971,12.116 -12.971,12.116 l -3.265,0.249 c 0,0 10.396,-9.449 15.441,-14.436 5.044,-4.985 11.799,-14.308 11.799,-14.308 z" />
      <path
         inkscape:connector-curvature="0"
         id="path4629"
         d="m 249.49199,319.28875 c 0,0 -3.495,8.258 -7.327,14.622 -3.832,6.364 -7.591,10.365 -7.591,10.365 l -3.396,0.852 c 0,0 5.551,-6.595 9.583,-12.495 4.032,-5.9 8.731,-13.344 8.731,-13.344 z" />
      <path
         inkscape:connector-curvature="0"
         id="path4631"
         d="m 233.08899,316.16875 c -1.329,5.31 -2.269,10.532 -2.269,10.532 l -2.27,1.407 c 0,0 1.361,-5.285 3.194,-12.274 1.833,-6.989 7.396,-12.273 7.396,-12.273 0,0 -4.719,7.303 -6.051,12.608 z" />
      <path
         inkscape:connector-curvature="0"
         id="path4633"
         d="m 274.15999,276.23775 c 0,0 -2.021,10.237 -4.46,17.649 -2.442,7.412 -10.189,20.611 -10.189,20.611 l -1.092,-0.539 c 0,0 6.676,-10.903 10.145,-20.491 3.469,-9.588 5.596,-17.23 5.596,-17.23 z" />
      <path
         style="fill:none;stroke:#000000;stroke-width:1.21720004"
         inkscape:connector-curvature="0"
         id="path4635"
         d="m 151.61799,397.60575 c 0,0 22.698,-0.797 36.639,-9.16 13.94,-8.364 23.099,-22.305 23.099,-22.305 0,0 -17.127,-0.797 -35.844,5.975 -18.716,6.771 -23.894,15.134 -23.894,15.134" />
      <path
         style="fill:none;stroke:#000000;stroke-width:1.21720004"
         inkscape:connector-curvature="0"
         id="path4637"
         d="m 195.77899,383.08875 c 0,0 18.688,-4.429 27.924,-12.918 9.238,-8.49 13.96,-26.934 13.96,-26.934 0,0 -15.206,3.713 -26.44,11.205 -11.233,7.491 -12.231,12.233 -12.231,12.233" />
      <path
         style="fill:none;stroke:#000000;stroke-width:1.21720004"
         inkscape:connector-curvature="0"
         id="path4639"
         d="m 237.24999,379.87875 c 0,0 -7.239,-1.51 -15.385,-1.51 -8.145,0 -13.415,0.557 -13.415,0.557" />
      <path
         inkscape:connector-curvature="0"
         id="path4641"
         d="m 235.73699,369.60475 c 0,0 -6.229,3.994 -12.087,5.929 -5.853,1.934 -10.127,2.912 -10.127,2.912 l -2.42,-0.637 c 0,0 8.431,-2.543 12.966,-3.768 4.541,-1.229 11.668,-4.436 11.668,-4.436 z" />
      <path
         inkscape:connector-curvature="0"
         id="path4643"
         d="m 193.40299,376.45775 c 0,0 -12.211,1.962 -22.234,6.66 -10.023,4.702 -19.658,11.327 -19.658,11.327 l -0.784,3.238 c 0,0 14.696,-8.713 22.246,-12.775 7.548,-4.065 20.43,-8.45 20.43,-8.45 z" />
      <path
         inkscape:connector-curvature="0"
         id="path4645"
         d="m 211.18799,389.15775 c 0,0 -14.328,5.86 -28.092,8.171 -13.766,2.299 -31.813,3.136 -31.813,3.136 l 0.522,-2.475 c 0,0 21.355,-1.905 32.061,-3.217 10.705,-1.306 27.322,-5.615 27.322,-5.615 z" />
      <path
         inkscape:connector-curvature="0"
         id="path4647"
         d="m 188.18799,360.48975 c 0,0 -6.133,2.575 -10.835,6.037 -4.695,3.464 -10.073,8.653 -10.073,8.653 l 1.036,0.578 c 0,0 6.69,-5.867 10.171,-8.704 3.48,-2.836 9.701,-6.564 9.701,-6.564 z" />
      <path
         inkscape:connector-curvature="0"
         id="path4649"
         d="m 216.05499,342.70975 c 0,0 -6.685,5.03 -11.08,10.672 -4.395,5.642 -8.72,13.56 -8.72,13.56 l 2.526,-0.083 c 0,0 4.789,-8.695 7.914,-13.201 3.125,-4.507 9.36,-10.948 9.36,-10.948 z" />
      <path
         inkscape:connector-curvature="0"
         id="path4651"
         d="m 242.59899,259.04975 c 0,0 3.466,5.641 5.092,10.926 1.627,5.285 2.246,10.265 2.246,10.265 l -0.896,1.566 c 0,0 -1.664,-8.132 -2.683,-12.224 -1.016,-4.091 -3.759,-10.533 -3.759,-10.533 z" />
      <path
         inkscape:connector-curvature="0"
         id="path4653"
         d="m 267.88399,240.61975 c 0.617,6.818 0.399,18.225 0.399,18.225 l -1.936,0.615 c 0,0 0.804,-9.507 0.008,-19.468 -0.797,-9.97 -2.076,-16.185 -2.076,-16.185 0,0 2.986,9.998 3.605,16.813 z" />
      <path
         inkscape:connector-curvature="0"
         id="path4655"
         d="m 254.29299,242.93075 c 2.011,5.242 3.199,13.005 3.199,13.005 l -1.689,2.786 c 0,0 -0.291,-8.192 -3.125,-15.883 -2.838,-7.696 -5.368,-12.285 -5.368,-12.285 0,0 4.968,7.133 6.983,12.377 z" />
      <path
         inkscape:connector-curvature="0"
         id="path4657"
         d="m 237.26899,211.56975 c 3.181,3.689 6.102,8.991 6.102,8.991 l -0.239,2.881 c 0,0 -2.516,-6.1 -7.099,-11.544 -4.581,-5.446 -7.938,-8.487 -7.938,-8.487 0,0 5.992,4.466 9.174,8.159 z" />
      <path
         inkscape:connector-curvature="0"
         id="path4659"
         d="m 232.64599,229.56775 c 3.091,2.772 6.928,7.94 6.928,7.94 l -0.832,2.422 c 0,0 -2.874,-5.653 -7.327,-9.768 -4.455,-4.113 -7.735,-6.229 -7.735,-6.229 0,0 5.871,2.866 8.966,5.635 z" />
      <path
         style="fill:none;stroke:#000000;stroke-width:1.21720004"
         inkscape:connector-curvature="0"
         id="path4661"
         d="m 243.36799,231.88075 c 0,0 -2.45,-4.593 -7.046,-9.495 -4.593,-4.902 -9.647,-8.268 -9.647,-8.268" />
      <g
         id="g4663"
         transform="translate(-153.62501,-142.78125)">
        <path
           style="fill:none"
           inkscape:connector-curvature="0"
           id="path4665"
           d="M 322.961,570.308" />
      </g>
      <path
         style="fill:#fcd116;fill-opacity:1;stroke:#000000;stroke-width:1.21720004"
         inkscape:connector-curvature="0"
         id="path4667"
         d="m 152.15999,390.42775 c 0,8.665 -1.32,14.704 -6.804,14.704 -5.485,0 -6.802,-6.039 -6.802,-14.704 0,-8.665 -0.442,-15.359 6.802,-15.359 7.244,0 6.804,6.694 6.804,15.359 z" />
      <path
         style="fill:none;stroke:#000000;stroke-width:1.21720004"
         inkscape:connector-curvature="0"
         id="path4669"
         d="m 119.42099,315.62075 c 0,0 11.257,-9.249 17.288,-14.876 6.031,-5.629 3.621,-7.641 11.661,-13.672 8.04,-6.029 14.873,-8.843 19.698,-12.863 4.826,-4.021 5.631,-6.835 12.866,-13.67 7.237,-6.835 19.3,-14.875 19.3,-14.875" />
      <line
         style="fill:none;stroke:#000000;stroke-width:1.21720004"
         id="line4671"
         y2="320.10175"
         x2="186.44798"
         y1="312.40475"
         x1="192.99498" />
      <line
         style="fill:none;stroke:#000000;stroke-width:1.21720004"
         id="line4673"
         y2="326.30176"
         x2="198.851"
         y1="320.04474"
         x1="204.65599" />
      <line
         style="fill:none;stroke:#000000;stroke-width:1.21720004"
         id="line4675"
         y2="342.43674"
         x2="89.249992"
         y1="326.24576"
         x1="89.249992" />
      <line
         style="fill:none;stroke:#000000;stroke-width:1.21720004"
         id="line4677"
         y2="331.64374"
         x2="104.99099"
         y1="322.05276"
         x1="101.32999" />
      <line
         style="fill:none;stroke:#000000;stroke-width:1.21720004"
         id="line4679"
         y2="329.84375"
         x2="111.286"
         y1="316.80176"
         x1="106.341" />
      <path
         style="fill:#fcd116;fill-opacity:1;stroke:#000000;stroke-width:1.52505553;stroke-linecap:round;stroke-miterlimit:4;stroke-opacity:1;stroke-dasharray:none"
         inkscape:connector-curvature="0"
         id="path4681"
         d="m 174.56999,22.49475 c 0.141,1.376 0.235,2.767 0.235,4.188 0,19.152 -13.25,34.679 -29.598,34.679 -16.344,0 -29.592,-15.527 -29.592,-34.679 0,-1.4 0.09,-2.774 0.228,-4.132 -3.133,5.23 -4.969,11.34 -4.969,17.896 0,19.152 15.379,34.678 34.351,34.678 18.969,0 34.347,-15.526 34.347,-34.678 0,-6.579 -1.848,-12.707 -5.002,-17.952 z" />
      <polygon
         style="fill:#fcd116;fill-opacity:1;stroke:#000000;stroke-width:1.52505553;stroke-miterlimit:4;stroke-opacity:1;stroke-dasharray:none"
         id="polygon4683"
         points="292.707,165.731 272.708,165.731 288.888,177.486 282.708,196.506 298.887,184.75 315.068,196.506 308.887,177.485 325.066,165.731 305.068,165.731 298.887,146.71 "
         transform="translate(-153.62501,-142.78125)" />
      <path
         style="fill:#fff200;stroke:#000000;stroke-width:2.43440008"
         inkscape:connector-curvature="0"
         id="path4685"
         d="m 104.93599,405.59275 c 0,0 7.788,0.318 18.161,-0.57 10.372,-0.89 16.218,-2.416 16.218,-2.416" />
      <path
         style="fill:#fff200;stroke:#000000;stroke-width:2.43440008"
         inkscape:connector-curvature="0"
         id="path4687"
         d="m 185.47099,405.54975 c 0,0 -7.787,0.318 -18.16,-0.57 -10.372,-0.89 -16.218,-2.416 -16.218,-2.416" />
      <g
         id="g4689"
         transform="translate(-153.62501,-142.78125)">
        <g
           id="g4691">
          <path
             style="fill:none;stroke:#000000;stroke-width:2.43440008"
             inkscape:connector-curvature="0"
             id="path4693"
             d="m 274.457,573.004 c 5.534,-3.179 14.994,-7.639 24.459,-7.639 9.4,0 18.779,4.442 24.271,7.611" />
          <path
             style="fill:#fcd116;fill-opacity:1;stroke:#000000;stroke-width:2.43500543;stroke-miterlimit:4;stroke-dasharray:none"
             inkscape:connector-curvature="0"
             id="path4695"
             d="m 327.883,578.179 v 7.067 c 0,0 17.546,2.938 46.526,-1.144 28.978,-4.081 43.485,-9.086 43.485,-9.086 l -1.16,-14.333 c 0,0 -0.342,-8.016 8.975,-9.528 9.314,-1.505 11.939,3.343 12.843,6.302 0.901,2.953 -0.761,10.326 0.254,21.655 1.006,11.331 4.028,10.585 4.028,15.862 0,5.28 -2.266,9.066 -7.558,12.593 -9.135,6.091 -25.48,14.062 -50.724,16.927 -48.245,5.484 -72.252,-3.83 -72.252,-3.83 v -8 c 0,0 -5.772,-2.075 -13.365,-2.075 -7.591,0 -13.806,2.408 -13.806,2.408" />
          <path
             style="fill:none;stroke:#ec008c;stroke-width:2.43440008"
             inkscape:connector-curvature="0"
             id="path4697"
             d="M 429.731,570.177" />
          <path
             style="fill:none;stroke:#000000;stroke-width:2.43440008"
             inkscape:connector-curvature="0"
             id="path4699"
             d="m 438.884,560.955 c 0,0 -2.546,4.89 -9.057,8.401 -6.51,3.518 -11.933,5.66 -11.933,5.66" />
          <path
             style="fill:none;stroke:#000000;stroke-width:2.43440008"
             inkscape:connector-curvature="0"
             id="path4701"
             d="m 429.135,569.791 v -9.112 c 0,0 -1.075,2.504 -7.061,3.132 -5.983,0.622 -5.18,-5.007 -5.18,-5.007" />
          <path
             style="fill:none;stroke:#000000;stroke-width:2.43440008"
             inkscape:connector-curvature="0"
             id="path4703"
             d="m 312.31,578.379 c 0,3.242 3.5,5.862 7.815,5.862 4.316,0 7.812,-2.62 7.812,-5.862 0,-3.236 -3.495,-5.858 -7.812,-5.858 -4.315,0 -7.815,2.622 -7.815,5.858 z" />
          <path
             style="fill:none;stroke:#000000;stroke-width:2.43440008"
             inkscape:connector-curvature="0"
             id="path4705"
             d="m 313.918,581.973 c -0.965,-0.461 -1.634,-0.818 -1.634,-0.818 v 31.463" />
          <path
             style="fill:none;stroke:#000000;stroke-width:2.43440008"
             inkscape:connector-curvature="0"
             id="path4707"
             d="m 327.883,585.246 c 0,0 -4.347,-0.599 -7.168,-1.029" />
        </g>
        <path
           style="fill:#fcd116;fill-opacity:1;stroke:#000000;stroke-width:2.43500543;stroke-miterlimit:4;stroke-dasharray:none"
           inkscape:connector-curvature="0"
           id="path4709"
           d="m 269.785,578.184 v 7.072 c 0,0 -17.55,2.936 -46.527,-1.147 -28.978,-4.076 -43.491,-9.083 -43.491,-9.083 l 1.166,-14.329 c 0,0 0.344,-8.02 -8.972,-9.531 -9.319,-1.508 -11.944,3.34 -12.845,6.303 -0.901,2.95 0.756,10.319 -0.25,21.654 -1.008,11.328 -4.032,10.586 -4.032,15.859 0,5.282 2.268,9.067 7.556,12.593 9.133,6.094 25.482,14.064 50.722,16.929 48.246,5.482 72.255,-3.834 72.255,-3.834 v -7.995 c 0,0 0.135,-0.048 0.392,-0.131" />
        <g
           style="fill:#000000;stroke:none"
           id="g4711">
          <path
             style="fill:#000000;stroke:none"
             inkscape:connector-curvature="0"
             id="path4713"
             d="m 346.262,609.035 c -0.002,0.943 0.423,2.748 3.51,2.829 1.673,0.045 3.546,-0.307 3.594,-2.098 0.034,-1.32 -1.229,-1.708 -3.009,-2.18 l -1.803,-0.473 c -2.718,-0.708 -5.341,-1.392 -5.242,-5.115 0.05,-1.886 1.152,-5.182 6.644,-5.037 5.186,0.139 6.486,3.569 6.454,5.645 l -3.394,-0.09 c -0.074,-0.757 -0.31,-2.556 -3.397,-2.638 -1.343,-0.036 -2.959,0.416 -3,1.948 -0.035,1.32 1.041,1.632 1.744,1.815 l 4.098,1.123 c 2.295,0.627 4.392,1.626 4.311,4.667 -0.135,5.09 -5.333,5.4 -6.817,5.361 -6.175,-0.164 -7.141,-3.751 -7.086,-5.85 l 3.393,0.093 z" />
          <path
             style="fill:#000000;stroke:none"
             inkscape:connector-curvature="0"
             id="path4715"
             d="m 372.644,599.898 -8.973,0.437 0.173,3.556 8.243,-0.401 0.145,2.991 -8.242,0.402 0.214,4.38 9.372,-0.456 0.146,2.99 -12.836,0.625 -0.822,-16.91 12.435,-0.604 0.145,2.99 z" />
          <path
             style="fill:#000000;stroke:none"
             inkscape:connector-curvature="0"
             id="path4717"
             d="m 385.283,612.608 -3.516,0.383 -1.506,-13.854 -5.087,0.554 -0.323,-2.978 13.688,-1.487 0.324,2.977 -5.087,0.553 1.507,13.852 z" />
          <path
             style="fill:#000000;stroke:none"
             inkscape:connector-curvature="0"
             id="path4719"
             d="m 397.146,610.73 -3.476,0.654 -3.131,-16.637 3.476,-0.655 3.131,16.638 z" />
          <path
             style="fill:#000000;stroke:none"
             inkscape:connector-curvature="0"
             id="path4721"
             d="m 404.261,609.164 -3.572,1.056 0.992,-17.945 3.911,-1.156 10.518,14.546 -3.686,1.088 -2.028,-3.039 -5.993,1.771 -0.142,3.679 z m 0.218,-6.752 4.139,-1.222 -3.91,-5.828 -0.045,0.014 -0.184,7.036 z" />
        </g>
        <g
           style="fill:#000000;fill-opacity:1;stroke:none"
           id="g4723">
          <path
             style="fill:#000000;fill-opacity:1;stroke:none"
             inkscape:connector-curvature="0"
             id="path4725"
             d="m 186.122,597.339 6.649,2.413 -3.113,8.577 -2.216,-0.804 0.392,-2.115 c -1.196,0.669 -2.938,1.667 -5.842,0.613 -3.834,-1.392 -6.316,-5.403 -4.289,-10.988 1.569,-4.322 5.451,-7.554 10.792,-5.614 l 0.044,0.016 c 4.876,1.771 5.654,5.64 5.035,7.898 l -3.324,-1.208 c 0.225,-0.62 -0.181,-3.025 -2.531,-3.878 -2.371,-0.86 -5.161,-0.017 -6.641,4.062 -1.577,4.344 0.385,6.335 2.645,7.155 0.731,0.266 3.274,0.862 5.128,-2.102 l -3.702,-1.344 0.973,-2.681 z" />
          <path
             style="fill:#000000;fill-opacity:1;stroke:none"
             inkscape:connector-curvature="0"
             id="path4727"
             d="m 196.192,609.855 -3.652,-0.737 9.269,-15.399 3.998,0.808 2.496,17.775 -3.767,-0.761 -0.373,-3.636 -6.125,-1.237 -1.846,3.187 z m 3.35,-5.866 4.229,0.854 -0.731,-6.979 -0.046,-0.009 -3.452,6.134 z" />
          <path
             style="fill:#000000;fill-opacity:1;stroke:none"
             inkscape:connector-curvature="0"
             id="path4729"
             d="m 220.27,604.257 7.043,0.657 -0.849,9.085 -2.348,-0.219 -0.155,-2.146 c -0.988,0.95 -2.422,2.354 -5.498,2.068 -4.062,-0.38 -7.475,-3.635 -6.923,-9.551 0.428,-4.578 3.369,-8.685 9.027,-8.156 l 0.047,0.004 c 5.165,0.482 6.894,4.03 6.864,6.372 l -3.521,-0.328 c 0.062,-0.657 -0.938,-2.882 -3.427,-3.114 -2.512,-0.235 -4.999,1.285 -5.402,5.605 -0.43,4.601 1.971,6.032 4.365,6.256 0.774,0.073 3.385,0.009 4.431,-3.328 l -3.92,-0.365 0.266,-2.84 z" />
          <path
             style="fill:#000000;fill-opacity:1;stroke:none"
             inkscape:connector-curvature="0"
             id="path4731"
             d="m 233.123,614.279 -3.725,-0.078 6.391,-16.799 4.078,0.087 5.608,17.051 -3.842,-0.081 -1.011,-3.512 -6.247,-0.132 -1.252,3.464 z m 2.256,-6.367 4.314,0.092 -1.957,-6.74 -0.047,-10e-4 -2.31,6.649 z" />
          <path
             style="fill:#000000;fill-opacity:1;stroke:none"
             inkscape:connector-curvature="0"
             id="path4733"
             d="m 251.604,606.649 0.486,7.576 -3.529,0.227 -1.084,-16.896 3.53,-0.226 0.41,6.399 6.588,-0.422 -0.41,-6.4 3.529,-0.227 1.083,16.895 -3.529,0.227 -0.486,-7.577 -6.588,0.424 z" />
        </g>
        <path
           style="fill:none;stroke:#ec008c;stroke-width:2.43440008"
           inkscape:connector-curvature="0"
           id="path4735"
           d="M 167.935,570.187" />
        <path
           style="fill:none;stroke:#000000;stroke-width:2.43440008"
           inkscape:connector-curvature="0"
           id="path4737"
           d="m 158.785,560.964 c 0,0 2.543,4.886 9.052,8.399 6.509,3.519 11.929,5.662 11.929,5.662" />
        <path
           style="fill:none;stroke:#000000;stroke-width:2.43440008"
           inkscape:connector-curvature="0"
           id="path4739"
           d="m 168.532,569.801 v -9.11 c 0,0 1.07,2.499 7.056,3.129 5.986,0.621 5.183,-5.007 5.183,-5.007" />
        <path
           style="fill:none;stroke:#000000;stroke-width:2.43440008"
           inkscape:connector-curvature="0"
           id="path4741"
           d="m 285.354,578.391 c 0,3.235 -3.497,5.862 -7.81,5.862 -4.317,0 -7.817,-2.627 -7.817,-5.862 0,-3.238 3.5,-5.867 7.817,-5.867 4.313,-10e-4 7.81,2.628 7.81,5.867 z" />
        <path
           style="fill:none;stroke:#000000;stroke-width:2.43440008"
           inkscape:connector-curvature="0"
           id="path4743"
           d="m 283.745,581.979 c 0.965,-0.464 1.638,-0.817 1.638,-0.817 v 31.464" />
        <path
           style="fill:none;stroke:#000000;stroke-width:2.43440008"
           inkscape:connector-curvature="0"
           id="path4745"
           d="m 269.785,585.256 c 0,0 4.343,-0.602 7.17,-1.029" />
      </g>
    </g>
  </g>
</svg>
