<?xml version="1.0" encoding="UTF-8"?>
<svg xmlns="http://www.w3.org/2000/svg" width="1500" height="1000">
	<rect width="1500" height="1000" fill="#2683ba"/>
	<rect width="750" height="500" fill="#008542"/>
	<path d="m 1104.9242,316.14272 -4.1064,233.37875 -3.1938,179.08342 C 1011.1549,702.71475 985.0571,682.31288 949.7947,661.0779 l 36.5012,-3.65011 -94.9029,-40.15119 c 11.633,31.893 1.8153,39.271 43.8013,105.85314 l 0,-45.62636 c 52.6022,56.13118 99.9103,75.20379 147.8292,98.55292 l 41.9764,23.7257 41.9761,-23.7257 c 47.9191,-23.34913 95.2273,-42.42174 147.8295,-98.55292 l 0,45.62636 c 41.986,-66.58214 32.1684,-73.96014 43.8013,-105.85314 l -94.9028,40.15119 36.5011,3.65011 c -35.2625,21.23498 -61.3603,41.63685 -147.8295,67.52699 l -3.1939,-179.08342 -4.1063,-233.37875 -40.1512,0 z" fill="#fff" stroke="#2683ba" stroke-width="3.5"/>
	<path d="m 1124.9999,220.21789 c -29.7195,0 -54.0946,24.37514 -54.0946,54.0946 0,29.71947 24.3751,54.0946 54.0946,54.0946 29.7195,0 54.0946,-24.37513 54.0946,-54.0946 0,-29.71946 -24.3751,-54.0946 -54.0946,-54.0946 z m 0,27.37581 c 14.9245,0 26.7188,11.79431 26.7188,26.71879 0,14.92447 -11.7943,26.71879 -26.7188,26.71879 -14.9245,0 -26.7188,-11.79432 -26.7188,-26.71879 0,-14.92448 11.7943,-26.71879 26.7188,-26.71879 z" fill="#fff"/>
	<path d="m 1103.7838,283.17768 c -3.2255,0.29628 -6.2771,1.77922 -8.5552,4.10636 -0.8034,0.66534 -10.5964,8.24217 -19.8473,17.68021 -9.5494,9.74251 -20.096,23.13361 -25.893,40.37933 -5.797,17.24573 -6.176,38.4519 3.8782,60.7971 10.0543,22.34521 29.7606,45.75322 63.0785,70.60678 27.7979,20.73598 49.5563,40.19519 61.2534,57.48918 11.6971,17.29401 14.2067,30.17407 6.8439,45.96856 -6.28,13.47126 -18.7593,24.82062 -34.2198,34.90416 l 0.5704,32.16657 c 24.1344,-13.22668 46.6214,-30.03476 58.5157,-55.55008 11.4474,-24.55657 5.9813,-50.7222 -9.0111,-72.88808 -14.9925,-22.16592 -38.7399,-42.63123 -67.5271,-64.10503 -30.8553,-23.01663 -47.0842,-43.23715 -54.5235,-59.77052 -7.4391,-16.53334 -6.8607,-29.36193 -2.9656,-40.94963 3.895,-11.58772 11.7855,-21.89291 19.6193,-29.88525 7.8338,-7.99235 14.1493,-12.09333 19.5052,-17.45208 4.0438,-3.9327 5.2744,-9.97446 3.0799,-15.17076 -2.1947,-5.19633 -7.3649,-8.48324 -13.0035,-8.32682 -0.2761,0.009 -0.5252,-0.0252 -0.7984,0 z m -4.6769,358.85121 c -18.1025,8.39439 -35.6213,16.47763 -49.7327,26.91955 -11.4137,8.44569 -21.2814,19.87457 -24.0679,33.87756 7.9919,3.47591 16.7915,7.07287 26.6914,10.7222 0.012,-0.62947 -0.029,-1.30392 -0.1137,-1.93912 -0.4125,-7.38633 3.1566,-12.85312 13.6878,-20.64593 8.1596,-6.03775 19.8128,-12.14078 33.0792,-18.47867 l 0.5704,-30.45559 c -0.03,0.0141 -0.084,-0.0141 -0.1149,0 z" fill="#fff" stroke="#2683ba" stroke-width="3.5"/>
	<path d="m 1104.9242,316.14272 -4.1064,233.37875 -3.1938,179.08342 C 1011.1549,702.71475 985.0571,682.31288 949.7947,661.0779 l 36.5012,-3.65011 -94.9029,-40.15119 c 11.633,31.893 1.8153,39.271 43.8013,105.85314 l 0,-45.62636 c 52.6022,56.13118 99.9103,75.20379 147.8292,98.55292 l 41.9764,23.7257 41.9761,-23.7257 c 47.9191,-23.34913 95.2273,-42.42174 147.8295,-98.55292 l 0,45.62636 c 41.986,-66.58214 32.1684,-73.96014 43.8013,-105.85314 l -94.9028,40.15119 36.5011,3.65011 c -35.2625,21.23498 -61.3603,41.63685 -147.8295,67.52699 l -3.1939,-179.08342 -4.1063,-233.37875 -40.1512,0 z" fill="#fff" stroke="#2683ba" stroke-width="3.5"/>
	<path d="m 1124.9999,220.21789 c -29.7195,0 -54.0946,24.37514 -54.0946,54.0946 0,29.71947 24.3751,54.0946 54.0946,54.0946 29.7195,0 54.0946,-24.37513 54.0946,-54.0946 0,-29.71946 -24.3751,-54.0946 -54.0946,-54.0946 z m 0,27.37581 c 14.9245,0 26.7188,11.79431 26.7188,26.71879 0,14.92447 -11.7943,26.71879 -26.7188,26.71879 -14.9245,0 -26.7188,-11.79432 -26.7188,-26.71879 0,-14.92448 11.7943,-26.71879 26.7188,-26.71879 z" fill="#fff"/>
	<path d="m 1103.7838,283.17768 c -3.2255,0.29628 -6.2771,1.77922 -8.5552,4.10636 -0.8034,0.66534 -10.5964,8.24217 -19.8473,17.68021 -9.5494,9.74251 -20.096,23.13361 -25.893,40.37933 -5.797,17.24573 -6.176,38.4519 3.8782,60.7971 10.0543,22.34521 29.7606,45.75322 63.0785,70.60678 27.7979,20.73598 49.5563,40.19519 61.2534,57.48918 11.6971,17.29401 14.2067,30.17407 6.8439,45.96856 -6.28,13.47126 -18.7593,24.82062 -34.2198,34.90416 l 0.5704,32.16657 c 24.1344,-13.22668 46.6214,-30.03476 58.5157,-55.55008 11.4474,-24.55657 5.9813,-50.7222 -9.0111,-72.88808 -14.9925,-22.16592 -38.7399,-42.63123 -67.5271,-64.10503 -30.8553,-23.01663 -47.0842,-43.23715 -54.5235,-59.77052 -7.4391,-16.53334 -6.8607,-29.36193 -2.9656,-40.94963 3.895,-11.58772 11.7855,-21.89291 19.6193,-29.88525 7.8338,-7.99235 14.1493,-12.09333 19.5052,-17.45208 4.0438,-3.9327 5.2744,-9.97446 3.0799,-15.17076 -2.1947,-5.19633 -7.3649,-8.48324 -13.0035,-8.32682 -0.2761,0.009 -0.5252,-0.0252 -0.7984,0 z m -4.6769,358.85121 c -18.1025,8.39439 -35.6213,16.47763 -49.7327,26.91955 -11.4137,8.44569 -21.2814,19.87457 -24.0679,33.87756 7.9919,3.47591 16.7915,7.07287 26.6914,10.7222 0.012,-0.62947 -0.029,-1.30392 -0.1137,-1.93912 -0.4125,-7.38633 3.1566,-12.85312 13.6878,-20.64593 8.1596,-6.03775 19.8128,-12.14078 33.0792,-18.47867 l 0.5704,-30.45559 c -0.03,0.0141 -0.084,-0.0141 -0.1149,0 z" fill="#fff" stroke="#2683ba" stroke-width="3.5"/>
</svg>