<?xml version="1.0" encoding="UTF-8" standalone="no"?>
<!-- Created with Inkscape (http://www.inkscape.org/) -->

<svg
   xmlns:dc="http://purl.org/dc/elements/1.1/"
   xmlns:cc="http://creativecommons.org/ns#"
   xmlns:rdf="http://www.w3.org/1999/02/22-rdf-syntax-ns#"
   xmlns:svg="http://www.w3.org/2000/svg"
   xmlns="http://www.w3.org/2000/svg"
   xmlns:sodipodi="http://sodipodi.sourceforge.net/DTD/sodipodi-0.dtd"
   xmlns:inkscape="http://www.inkscape.org/namespaces/inkscape"
   width="254mm"
   height="169.33333mm"
   viewBox="0 0 900 599.99998"
   id="svg2"
   version="1.1"
   inkscape:version="0.91 r13725"
   sodipodi:docname="Flag_of_the_Republic_of_Korea_Armed_Forces.svg">
  <defs
     id="defs4" />
  <sodipodi:namedview
     id="base"
     pagecolor="#ffffff"
     bordercolor="#666666"
     borderopacity="1.0"
     inkscape:pageopacity="0.0"
     inkscape:pageshadow="2"
     inkscape:zoom="0.76000002"
     inkscape:cx="450"
     inkscape:cy="299.99999"
     inkscape:document-units="px"
     inkscape:current-layer="layer1"
     showgrid="false"
     fit-margin-top="0"
     fit-margin-left="0"
     fit-margin-right="0"
     fit-margin-bottom="0"
     inkscape:window-width="1366"
     inkscape:window-height="658"
     inkscape:window-x="0"
     inkscape:window-y="1"
     inkscape:window-maximized="1" />
  <metadata
     id="metadata7">
    <rdf:RDF>
      <cc:Work
         rdf:about="">
        <dc:format>image/svg+xml</dc:format>
        <dc:type
           rdf:resource="http://purl.org/dc/dcmitype/StillImage" />
        <dc:title />
      </cc:Work>
    </rdf:RDF>
  </metadata>
  <g
     inkscape:label="Layer 1"
     inkscape:groupmode="layer"
     id="layer1"
     transform="translate(273.04102,-373.43716)">
    <rect
       style="opacity:1;fill:#ce1126;fill-opacity:1;stroke:none;stroke-width:1;stroke-miterlimit:4;stroke-dasharray:none;stroke-opacity:1"
       id="rect4224"
       width="900"
       height="600"
       x="-273.04102"
       y="373.43716"
       ry="0" />
    <g
       id="g4269"
       style="fill:#ffffff"
       transform="translate(-1.09375,0)">
      <g
         transform="matrix(1,0,0,0.96563997,0,25.988985)"
         style="fill:#ffffff"
         id="g4253">
        <path
           id="path4236"
           d="m -124.79102,668.81997 c 1.0606,16.08754 14.85853,36.47963 29.9668,39.27344 l 0,0.2793 2.0332,0 208.87695,0 29.9668,0 c -1.0606,-16.08755 -14.85853,-36.47963 -29.9668,-39.27344 l 0,-0.2793 -2.0332,0 -208.87695,0 z"
           style="opacity:1;fill:#ffffff;fill-opacity:1;stroke:none;stroke-width:1;stroke-miterlimit:4;stroke-dasharray:none;stroke-opacity:1"
           inkscape:connector-curvature="0"
           sodipodi:nodetypes="ccccccccccc" />
        <g
           style="fill:#ffffff"
           id="g4249">
          <path
             sodipodi:nodetypes="ccccccccccc"
             inkscape:connector-curvature="0"
             id="rect4230"
             transform="translate(-273.04102,373.43716)"
             d="m 186.25,343.38281 c 1.0606,16.08754 14.85853,36.47963 29.9668,39.27344 l 0,0.2793 2.0332,0 208.87695,0 29.9668,0 c -1.0606,-16.08755 -14.85853,-36.47963 -29.9668,-39.27344 l 0,-0.2793 -2.0332,0 -208.87695,0 z"
             style="opacity:1;fill:#ffffff;fill-opacity:1;stroke:none;stroke-width:1;stroke-miterlimit:4;stroke-dasharray:none;stroke-opacity:1" />
          <path
             sodipodi:nodetypes="ccccccccccc"
             id="path4238"
             d="m -166.79102,620.81997 c 1.0606,16.08754 14.85853,36.47963 29.9668,39.27344 l 0,0.2793 2.0332,0 208.87695,0 29.9668,0 c -1.0606,-16.08755 -14.85853,-36.47963 -29.9668,-39.27344 l 0,-0.2793 -2.0332,0 -208.87695,0 z"
             style="opacity:1;fill:#ffffff;fill-opacity:1;stroke:none;stroke-width:1;stroke-miterlimit:4;stroke-dasharray:none;stroke-opacity:1"
             inkscape:connector-curvature="0" />
        </g>
      </g>
      <g
         id="g4259"
         style="fill:#ffffff"
         transform="matrix(-1,0,0,0.96563997,356.10546,25.988985)">
        <path
           sodipodi:nodetypes="ccccccccccc"
           inkscape:connector-curvature="0"
           style="opacity:1;fill:#ffffff;fill-opacity:1;stroke:none;stroke-width:1;stroke-miterlimit:4;stroke-dasharray:none;stroke-opacity:1"
           d="m -124.79102,668.81997 c 1.0606,16.08754 14.85853,36.47963 29.9668,39.27344 l 0,0.2793 2.0332,0 208.87695,0 29.9668,0 c -1.0606,-16.08755 -14.85853,-36.47963 -29.9668,-39.27344 l 0,-0.2793 -2.0332,0 -208.87695,0 z"
           id="path4261" />
        <g
           id="g4263"
           style="fill:#ffffff">
          <path
             style="opacity:1;fill:#ffffff;fill-opacity:1;stroke:none;stroke-width:1;stroke-miterlimit:4;stroke-dasharray:none;stroke-opacity:1"
             d="m 186.25,343.38281 c 1.0606,16.08754 14.85853,36.47963 29.9668,39.27344 l 0,0.2793 2.0332,0 208.87695,0 29.9668,0 c -1.0606,-16.08755 -14.85853,-36.47963 -29.9668,-39.27344 l 0,-0.2793 -2.0332,0 -208.87695,0 z"
             transform="translate(-273.04102,373.43716)"
             id="path4265"
             inkscape:connector-curvature="0"
             sodipodi:nodetypes="ccccccccccc" />
          <path
             inkscape:connector-curvature="0"
             style="opacity:1;fill:#ffffff;fill-opacity:1;stroke:none;stroke-width:1;stroke-miterlimit:4;stroke-dasharray:none;stroke-opacity:1"
             d="m -166.79102,620.81997 c 1.0606,16.08754 14.85853,36.47963 29.9668,39.27344 l 0,0.2793 2.0332,0 208.87695,0 29.9668,0 c -1.0606,-16.08755 -14.85853,-36.47963 -29.9668,-39.27344 l 0,-0.2793 -2.0332,0 -208.87695,0 z"
             id="path4267"
             sodipodi:nodetypes="ccccccccccc" />
        </g>
      </g>
    </g>
    <path
       style="fill:#ffffff;fill-rule:evenodd;stroke:none;stroke-width:1px;stroke-linecap:butt;stroke-linejoin:miter;stroke-opacity:1"
       d="m 108.01171,493.54849 c -5.9434,0 -10.72851,4.78315 -10.72851,10.72656 0,5.94341 4.78511,10.72852 10.72851,10.72852 l 53.60352,0 -21.91797,357.11718 c -34.42431,6.33576 -70.06202,-33.53438 -88.92578,-64.80468 l 11.50195,-4.48047 -29.25781,-27.91016 -5.40234,41.41406 10.63086,-4.14257 c 42.91408,98.90718 106.84732,90.83534 138.71484,138.87109 31.86752,-48.03575 95.80076,-39.96391 138.71484,-138.87109 l 10.63086,4.14257 -5.40234,-41.41406 -29.25781,27.91016 11.50195,4.48047 c -18.86376,31.2703 -54.50147,71.14044 -88.92578,64.80468 l -21.91797,-357.11718 53.60547,0 c 5.9434,0 10.72656,-4.78511 10.72656,-10.72852 0,-5.94341 -4.78316,-10.72656 -10.72656,-10.72656 l -137.89649,0 z"
       id="path4203"
       inkscape:connector-curvature="0" />
    <path
       style="opacity:1;fill:#ffffff;fill-opacity:1;stroke:none;stroke-width:1;stroke-miterlimit:4;stroke-dasharray:none;stroke-opacity:1"
       d="M 450 22.037109 A 40.509579 45.322598 0 0 0 409.49023 67.359375 A 40.509579 45.322598 0 0 0 450 112.68164 A 40.509579 45.322598 0 0 0 475.20703 102.78125 L 461.86523 89.654297 A 24.065096 25.669436 0 0 1 450 93.029297 A 24.065096 25.669436 0 0 1 425.93555 67.359375 A 24.065096 25.669436 0 0 1 450 41.689453 A 24.065096 25.669436 0 0 1 474.06445 67.359375 A 24.065096 25.669436 0 0 1 471.16602 79.564453 L 483.91992 92.111328 A 40.509579 45.322598 0 0 0 490.50977 67.359375 A 40.509579 45.322598 0 0 0 450 22.037109 z "
       transform="translate(-273.04102,373.43716)"
       id="path4210" />
    <g
       id="g4185"
       transform="translate(-0.00239774,0)">
      <path
         sodipodi:nodetypes="ccccccccccc"
         inkscape:connector-curvature="0"
         id="path4153"
         d="m 265.99907,811.93387 -89.27372,-49.32482 -93.706678,46.8302 18.822268,-101.68951 -72.993791,-73.10607 102.528871,-13.52274 45.34933,-92.01224 46.16641,93.33199 102.02389,16.23938 -74.99913,71.20509 z"
         inkscape:transform-center-y="-13.639435"
         inkscape:transform-center-x="-0.27608729"
         style="opacity:1;fill:#ffffff;fill-opacity:1;stroke:#ce1126;stroke-width:1.55604577;stroke-miterlimit:4;stroke-dasharray:none;stroke-opacity:1"
         transform="matrix(0.92470489,0,0,1.0049272,13.391576,-0.01383888)" />
      <path
         transform="matrix(0.92470489,0,0,1.0049272,13.391576,-0.01383888)"
         style="opacity:1;fill:#c8b41e;fill-opacity:1;stroke:none;stroke-width:1;stroke-miterlimit:4;stroke-dasharray:none;stroke-opacity:1"
         d="M 132.06933,622.09961 31.744141,635.62695 176.72535,684.95231 Z m -29.08203,85.29492 -18.135738,99.5957 91.873788,-122.03792 z m 73.73805,52.94847 87.50903,49.09257 -87.50903,-124.48326 z m 72.0559,-50.84396 73.21289,-69.91308 -145.26879,45.36635 z m -26.60645,-86.09667 -45.44945,-92.30057 0,-2e-5 0,153.85053 z"
         id="path4163"
         inkscape:connector-curvature="0"
         sodipodi:nodetypes="cccccccccccccccccsccc" />
    </g>
    <path
       style="opacity:1;fill:#ffffff;fill-opacity:1;stroke:none;stroke-width:1.5;stroke-miterlimit:4;stroke-dasharray:none;stroke-opacity:1"
       d="M 496.71289 100.24609 A 37.398923 26.446118 70.102017 0 0 492.60938 100.6582 L 496.73438 104.7168 C 497.51558 105.4853 498.04554 106.42481 498.33203 107.42578 C 501.06333 107.78471 504.02158 108.91767 507.04492 110.98242 C 508.59575 112.04155 510.1252 113.35397 511.58984 114.85938 L 518.94922 114.85938 C 519.57738 114.85935 520.19448 114.9064 520.80469 114.97852 A 37.398923 26.446118 70.102017 0 0 496.71289 100.24609 z M 480.76562 108.24805 A 37.398923 26.446118 70.102017 0 0 477.08203 114.85938 L 484.7207 114.85938 C 485.05149 114.25906 485.40925 113.70802 485.7793 113.17969 L 480.76562 108.24805 z M 530.40625 141.91406 C 528.5199 143.86436 526.15164 145.34111 523.49805 146.14062 C 523.40373 148.5524 523.08122 150.83767 522.5332 152.90234 C 522.02819 154.80493 521.36135 156.48947 520.57422 157.96875 L 524.23242 165.08203 A 37.398923 26.446118 70.102017 0 0 530.40625 141.91406 z M 478.2207 146.81836 A 37.398923 26.446118 70.102017 0 0 512.61523 172.41992 L 509.20117 165.78125 C 505.85193 165.90172 502.03754 164.78759 498.11328 162.10742 C 493.37155 158.86893 488.82365 153.32049 485.76758 146.81836 L 478.2207 146.81836 z M 548.21289 203.82031 A 34.013308 24.610753 62.670851 0 0 544.28711 204.07422 L 547.43164 210.19141 C 547.46288 210.19156 547.49211 210.18714 547.52344 210.1875 C 550.15923 210.21772 553.09986 210.97104 556.19141 212.60742 C 561.68748 215.51657 567.22374 221.29834 570.6582 228.19336 C 573.41552 233.72881 574.76157 239.87456 574.65234 245.21484 L 581.13281 245.21484 A 34.013308 24.610753 62.670851 0 0 576.48828 225.38867 A 34.013308 24.610753 62.670851 0 0 548.21289 203.82031 z M 532.51758 211.11328 A 34.013308 24.610753 62.670851 0 0 532.12695 246.74023 A 34.013308 24.610753 62.670851 0 0 536.45312 253.73633 C 538.1234 252.3577 539.88685 251.11199 541.73242 250.02148 C 540.31205 248.13585 539.0315 246.08896 537.95703 243.93164 C 534.52274 237.03654 533.27189 229.19227 534.30469 223.14062 C 534.64944 221.12055 535.21602 219.33862 535.94922 217.78711 L 532.51758 211.11328 z "
       transform="translate(-273.04102,373.43716)"
       id="path4291" />
    <rect
       ry="2.5854125"
       y="446.95816"
       x="-194.00177"
       height="50.415543"
       width="6.3019423"
       id="rect4287"
       style="opacity:1;fill:#ffffff;fill-opacity:1;stroke:none;stroke-width:1.5;stroke-miterlimit:4;stroke-dasharray:none;stroke-opacity:1"
       transform="matrix(0.70128799,-0.71287808,0.71287808,0.70128799,0,0)" />
    <rect
       style="opacity:1;fill:#ffffff;fill-opacity:1;stroke:none;stroke-width:1.5;stroke-miterlimit:4;stroke-dasharray:none;stroke-opacity:1"
       id="rect4281"
       width="6.3019423"
       height="69.846519"
       x="-32.927727"
       y="579.93475"
       ry="3.5818729"
       transform="matrix(0.88926952,-0.45738356,0.45738356,0.88926952,0,0)" />
  </g>
</svg>
