<?xml version="1.0" encoding="UTF-8" standalone="no"?>
<svg
   xmlns:dc="http://purl.org/dc/elements/1.1/"
   xmlns:cc="http://creativecommons.org/ns#"
   xmlns:rdf="http://www.w3.org/1999/02/22-rdf-syntax-ns#"
   xmlns:svg="http://www.w3.org/2000/svg"
   xmlns="http://www.w3.org/2000/svg"
   xmlns:sodipodi="http://sodipodi.sourceforge.net/DTD/sodipodi-0.dtd"
   xmlns:inkscape="http://www.inkscape.org/namespaces/inkscape"
   width="1500"
   height="1000"
   id="svg2"
   version="1.1"
   inkscape:version="0.48.2 r9819"
   sodipodi:docname="AJAX1.svg">
  <metadata
     id="metadata21">
    <rdf:RDF>
      <cc:Work
         rdf:about="">
        <dc:format>image/svg+xml</dc:format>
        <dc:type
           rdf:resource="http://purl.org/dc/dcmitype/StillImage" />
      </cc:Work>
    </rdf:RDF>
  </metadata>
  <defs
     id="defs19" />
  <sodipodi:namedview
     pagecolor="#ffffff"
     bordercolor="#666666"
     borderopacity="1"
     objecttolerance="10"
     gridtolerance="10"
     guidetolerance="10"
     inkscape:pageopacity="0"
     inkscape:pageshadow="2"
     inkscape:window-width="1280"
     inkscape:window-height="1004"
     id="namedview17"
     showgrid="false"
     fit-margin-top="0"
     fit-margin-left="0"
     fit-margin-right="0"
     fit-margin-bottom="0"
     inkscape:zoom="0.38091087"
     inkscape:cx="676.67896"
     inkscape:cy="346.1906"
     inkscape:window-x="-8"
     inkscape:window-y="-8"
     inkscape:window-maximized="1"
     inkscape:current-layer="svg2" />
  <path
     style="fill:#2683ba;stroke:none"
     d="m 0,0 1500,0 0,1000 -1500,0 z"
     id="rect4"
     inkscape:connector-curvature="0" />
  <rect
     width="750"
     height="500"
     id="rect6"
     style="fill:#239e46;stroke:none"
     x="0"
     y="0" />
  <rect
     width="750"
     height="375"
     id="rect8"
     style="fill:#000000;stroke:none"
     x="0"
     y="0" />
  <rect
     width="750"
     height="125"
     id="rect10"
     style="fill:#e70013;stroke:none"
     x="0"
     y="0" />
  <path
     d="m 419.2,205.8 a 54.3,54.3 0 1 0 0,88.4 62.5,62.5 0 1 1 0,-88.4 m -13.8,44.2 84.1,-27.3 -52,71.5 v -88.4 l 52,71.5 z"
     id="path12"
     style="fill:#ffffff;stroke:none"
     inkscape:connector-curvature="0" />
  <path
     d="m 1104.9242,316.14272 -4.1064,233.37875 -3.1938,179.08342 C 1011.1549,702.71475 985.0571,682.31288 949.7947,661.0779 l 36.5012,-3.65011 -94.9029,-40.15119 c 11.633,31.893 1.8153,39.271 43.8013,105.85314 l 0,-45.62636 c 52.6022,56.13118 99.9103,75.20379 147.8292,98.55292 l 41.9764,23.7257 41.9761,-23.7257 c 47.9191,-23.34913 95.2273,-42.42174 147.8295,-98.55292 l 0,45.62636 c 41.986,-66.58214 32.1684,-73.96014 43.8013,-105.85314 l -94.9028,40.15119 36.5011,3.65011 c -35.2625,21.23498 -61.3603,41.63685 -147.8295,67.52699 l -3.1939,-179.08342 -4.1063,-233.37875 -40.1512,0 z"
     id="path8"
     style="fill:#ffffff;fill-opacity:1;stroke:#2683ba;stroke-opacity:1;stroke-width:3.5;stroke-miterlimit:4;stroke-dasharray:none"
     inkscape:connector-curvature="0" />
  <path
     style="font-size:medium;font-style:normal;font-variant:normal;font-weight:normal;font-stretch:normal;text-indent:0;text-align:start;text-decoration:none;line-height:normal;letter-spacing:normal;word-spacing:normal;text-transform:none;direction:ltr;block-progression:tb;writing-mode:lr-tb;text-anchor:start;baseline-shift:baseline;color:#000000;fill:#ffffff;fill-opacity:1;stroke:none;stroke-width:11.71875;marker:none;visibility:visible;display:inline;overflow:visible;enable-background:accumulate;font-family:Sans;-inkscape-font-specification:Sans"
     d="m 1124.9999,220.21789 c -29.7195,0 -54.0946,24.37514 -54.0946,54.0946 0,29.71947 24.3751,54.0946 54.0946,54.0946 29.7195,0 54.0946,-24.37513 54.0946,-54.0946 0,-29.71946 -24.3751,-54.0946 -54.0946,-54.0946 z m 0,27.37581 c 14.9245,0 26.7188,11.79431 26.7188,26.71879 0,14.92447 -11.7943,26.71879 -26.7188,26.71879 -14.9245,0 -26.7188,-11.79432 -26.7188,-26.71879 0,-14.92448 11.7943,-26.71879 26.7188,-26.71879 z"
     id="circle10"
     inkscape:connector-curvature="0" />
  <path
     d="m 1103.7838,283.17768 c -3.2255,0.29628 -6.2771,1.77922 -8.5552,4.10636 -0.8034,0.66534 -10.5964,8.24217 -19.8473,17.68021 -9.5494,9.74251 -20.096,23.13361 -25.893,40.37933 -5.797,17.24573 -6.176,38.4519 3.8782,60.7971 10.0543,22.34521 29.7606,45.75322 63.0785,70.60678 27.7979,20.73598 49.5563,40.19519 61.2534,57.48918 11.6971,17.29401 14.2067,30.17407 6.8439,45.96856 -6.28,13.47126 -18.7593,24.82062 -34.2198,34.90416 l 0.5704,32.16657 c 24.1344,-13.22668 46.6214,-30.03476 58.5157,-55.55008 11.4474,-24.55657 5.9813,-50.7222 -9.0111,-72.88808 -14.9925,-22.16592 -38.7399,-42.63123 -67.5271,-64.10503 -30.8553,-23.01663 -47.0842,-43.23715 -54.5235,-59.77052 -7.4391,-16.53334 -6.8607,-29.36193 -2.9656,-40.94963 3.895,-11.58772 11.7855,-21.89291 19.6193,-29.88525 7.8338,-7.99235 14.1493,-12.09333 19.5052,-17.45208 4.0438,-3.9327 5.2744,-9.97446 3.0799,-15.17076 -2.1947,-5.19633 -7.3649,-8.48324 -13.0035,-8.32682 -0.2761,0.009 -0.5252,-0.0252 -0.7984,0 z m -4.6769,358.85121 c -18.1025,8.39439 -35.6213,16.47763 -49.7327,26.91955 -11.4137,8.44569 -21.2814,19.87457 -24.0679,33.87756 7.9919,3.47591 16.7915,7.07287 26.6914,10.7222 0.012,-0.62947 -0.029,-1.30392 -0.1137,-1.93912 -0.4125,-7.38633 3.1566,-12.85312 13.6878,-20.64593 8.1596,-6.03775 19.8128,-12.14078 33.0792,-18.47867 l 0.5704,-30.45559 c -0.03,0.0141 -0.084,-0.0141 -0.1149,0 z"
     id="path16"
     style="fill:#ffffff;fill-opacity:1;stroke:#2683ba;stroke-opacity:1;stroke-width:3.5;stroke-miterlimit:4;stroke-dasharray:none"
     inkscape:connector-curvature="0" />
  <path
     inkscape:connector-curvature="0"
     style="fill:#ffffff;fill-opacity:1;stroke:#2683ba;stroke-opacity:1;stroke-width:3.5;stroke-miterlimit:4;stroke-dasharray:none"
     id="path3776"
     d="m 1104.9242,316.14272 -4.1064,233.37875 -3.1938,179.08342 C 1011.1549,702.71475 985.0571,682.31288 949.7947,661.0779 l 36.5012,-3.65011 -94.9029,-40.15119 c 11.633,31.893 1.8153,39.271 43.8013,105.85314 l 0,-45.62636 c 52.6022,56.13118 99.9103,75.20379 147.8292,98.55292 l 41.9764,23.7257 41.9761,-23.7257 c 47.9191,-23.34913 95.2273,-42.42174 147.8295,-98.55292 l 0,45.62636 c 41.986,-66.58214 32.1684,-73.96014 43.8013,-105.85314 l -94.9028,40.15119 36.5011,3.65011 c -35.2625,21.23498 -61.3603,41.63685 -147.8295,67.52699 l -3.1939,-179.08342 -4.1063,-233.37875 -40.1512,0 z" />
  <path
     inkscape:connector-curvature="0"
     id="path3778"
     d="m 1124.9999,220.21789 c -29.7195,0 -54.0946,24.37514 -54.0946,54.0946 0,29.71947 24.3751,54.0946 54.0946,54.0946 29.7195,0 54.0946,-24.37513 54.0946,-54.0946 0,-29.71946 -24.3751,-54.0946 -54.0946,-54.0946 z m 0,27.37581 c 14.9245,0 26.7188,11.79431 26.7188,26.71879 0,14.92447 -11.7943,26.71879 -26.7188,26.71879 -14.9245,0 -26.7188,-11.79432 -26.7188,-26.71879 0,-14.92448 11.7943,-26.71879 26.7188,-26.71879 z"
     style="font-size:medium;font-style:normal;font-variant:normal;font-weight:normal;font-stretch:normal;text-indent:0;text-align:start;text-decoration:none;line-height:normal;letter-spacing:normal;word-spacing:normal;text-transform:none;direction:ltr;block-progression:tb;writing-mode:lr-tb;text-anchor:start;baseline-shift:baseline;color:#000000;fill:#ffffff;fill-opacity:1;stroke:none;stroke-width:11.71875;marker:none;visibility:visible;display:inline;overflow:visible;enable-background:accumulate;font-family:Sans;-inkscape-font-specification:Sans" />
  <path
     style="fill:#ffffff;fill-opacity:1;stroke:#2683ba;stroke-opacity:1;stroke-width:3.5;stroke-miterlimit:4;stroke-dasharray:none"
     id="path3780"
     d="m 1103.7838,283.17768 c -3.2255,0.29628 -6.2771,1.77922 -8.5552,4.10636 -0.8034,0.66534 -10.5964,8.24217 -19.8473,17.68021 -9.5494,9.74251 -20.096,23.13361 -25.893,40.37933 -5.797,17.24573 -6.176,38.4519 3.8782,60.7971 10.0543,22.34521 29.7606,45.75322 63.0785,70.60678 27.7979,20.73598 49.5563,40.19519 61.2534,57.48918 11.6971,17.29401 14.2067,30.17407 6.8439,45.96856 -6.28,13.47126 -18.7593,24.82062 -34.2198,34.90416 l 0.5704,32.16657 c 24.1344,-13.22668 46.6214,-30.03476 58.5157,-55.55008 11.4474,-24.55657 5.9813,-50.7222 -9.0111,-72.88808 -14.9925,-22.16592 -38.7399,-42.63123 -67.5271,-64.10503 -30.8553,-23.01663 -47.0842,-43.23715 -54.5235,-59.77052 -7.4391,-16.53334 -6.8607,-29.36193 -2.9656,-40.94963 3.895,-11.58772 11.7855,-21.89291 19.6193,-29.88525 7.8338,-7.99235 14.1493,-12.09333 19.5052,-17.45208 4.0438,-3.9327 5.2744,-9.97446 3.0799,-15.17076 -2.1947,-5.19633 -7.3649,-8.48324 -13.0035,-8.32682 -0.2761,0.009 -0.5252,-0.0252 -0.7984,0 z m -4.6769,358.85121 c -18.1025,8.39439 -35.6213,16.47763 -49.7327,26.91955 -11.4137,8.44569 -21.2814,19.87457 -24.0679,33.87756 7.9919,3.47591 16.7915,7.07287 26.6914,10.7222 0.012,-0.62947 -0.029,-1.30392 -0.1137,-1.93912 -0.4125,-7.38633 3.1566,-12.85312 13.6878,-20.64593 8.1596,-6.03775 19.8128,-12.14078 33.0792,-18.47867 l 0.5704,-30.45559 c -0.03,0.0141 -0.084,-0.0141 -0.1149,0 z"
     inkscape:connector-curvature="0" />
</svg>
