<?xml version="1.0" encoding="UTF-8" standalone="no"?>
<svg
   xmlns:dc="http://purl.org/dc/elements/1.1/"
   xmlns:cc="http://creativecommons.org/ns#"
   xmlns:rdf="http://www.w3.org/1999/02/22-rdf-syntax-ns#"
   xmlns:svg="http://www.w3.org/2000/svg"
   xmlns="http://www.w3.org/2000/svg"
   xmlns:sodipodi="http://sodipodi.sourceforge.net/DTD/sodipodi-0.dtd"
   xmlns:inkscape="http://www.inkscape.org/namespaces/inkscape"
   version="1.1"
   width="2000"
   height="1333.3334"
   id="svg2"
   sodipodi:docname="Vietnam People's Navy flag.svg"
   inkscape:version="1.0.2 (e86c870879, 2021-01-15)"
   viewBox="0 0 2000 1333.3334">
  <sodipodi:namedview
     pagecolor="#ffffff"
     bordercolor="#666666"
     borderopacity="1"
     objecttolerance="10"
     gridtolerance="10"
     guidetolerance="10"
     inkscape:pageopacity="0"
     inkscape:pageshadow="2"
     inkscape:window-width="1600"
     inkscape:window-height="837"
     id="namedview25"
     showgrid="false"
     inkscape:lockguides="true"
     inkscape:snap-global="false"
     inkscape:zoom="0.46739177"
     inkscape:cx="1000"
     inkscape:cy="668"
     inkscape:window-x="-8"
     inkscape:window-y="-8"
     inkscape:window-maximized="1"
     inkscape:current-layer="svg2"
     inkscape:document-rotation="0" />
  <metadata
     id="metadata12">
    <rdf:RDF>
      <cc:Work
         rdf:about="">
        <dc:format>image/svg+xml</dc:format>
        <dc:type
           rdf:resource="http://purl.org/dc/dcmitype/StillImage" />
        <dc:title />
      </cc:Work>
    </rdf:RDF>
  </metadata>
  <defs
     id="defs10" />
  <rect
     width="2000"
     height="1333.3334"
     x="0"
     y="0"
     id="rect6"
     style="fill:#da251d" />
  <polyline
     style="fill:#ffff00;fill-opacity:1"
     points="20.71,8.15 9.29,8.15 18.53,14.85 15,4 11.47,14.85 "
     id="g1"
     transform="matrix(66.666667,0,0,66.666667,0,38.333351)" />
  <path
     d="m 134.51862,235.81447 -21.10893,-0.0576 -6.53631,-8.87747 C 95.441165,224.0234 89.725055,215.16802 89.725055,200.31321 v -79.24135 c 0,-18.40236 9.067173,-27.603523 27.201485,-27.603523 18.17901,0 27.26851,9.201163 27.26851,27.603523 v 79.24135 c 0,14.52018 -5.40261,23.30661 -16.20783,26.35931 z m -9.28421,-114.74261 c 0,-5.8959 -2.74695,-8.86619 -8.24088,-8.91086 h -0.13412 c -5.44923,0 -8.17385,2.9703 -8.17385,8.91086 v 79.24135 c 0,5.94056 2.74695,8.91082 8.24084,8.91082 5.53859,0 8.30787,-2.97026 8.30787,-8.91082 z"
     style="font-style:normal;font-variant:normal;font-weight:normal;font-stretch:normal;font-size:medium;line-height:1.25;font-family:Gobold;-inkscape-font-specification:Gobold;letter-spacing:0px;word-spacing:0px;fill:#ffff00;fill-opacity:1;stroke:none;stroke-width:3.43033814"
     id="path899"
     inkscape:connector-curvature="0"
     sodipodi:nodetypes="cccsssssccccsssscc" />
  <path
     d="m 207.21856,201.47041 q 0,27.60348 -27.26847,27.67047 -27.20152,0 -27.20152,-27.67047 V 95.545304 h 18.96064 V 201.47041 q 0,8.91081 8.24088,8.91081 8.30783,0 8.30783,-8.91081 V 95.545304 h 18.96064 z"
     style="font-style:normal;font-variant:normal;font-weight:normal;font-stretch:normal;font-size:medium;line-height:1.25;font-family:Gobold;-inkscape-font-specification:Gobold;letter-spacing:0px;word-spacing:0px;fill:#ffff00;fill-opacity:1;stroke:none;stroke-width:3.43033814"
     id="path901"
     inkscape:connector-curvature="0" />
  <path
     d="m 235.87174,95.545304 12.93076,51.254086 12.93076,-51.254086 h 20.09965 l -22.98059,74.569646 -0.53599,1.60797 v 55.274 h -18.96067 v -55.274 l -0.60299,-1.60797 -22.98059,-74.569646 z"
     style="font-style:normal;font-variant:normal;font-weight:normal;font-stretch:normal;font-size:medium;line-height:1.25;font-family:Gobold;-inkscape-font-specification:Gobold;letter-spacing:0px;word-spacing:0px;fill:#ffff00;fill-opacity:1;stroke:none;stroke-width:3.43033814"
     id="path903"
     inkscape:connector-curvature="0" />
  <path
     d="m 290.38643,95.545304 h 49.17712 v 18.692666 h -30.21648 v 31.6458 h 25.99555 v 18.75966 h -25.99555 v 43.66086 h 30.21648 v 18.69263 h -49.17712 z"
     style="font-style:normal;font-variant:normal;font-weight:normal;font-stretch:normal;font-size:medium;line-height:1.25;font-family:Gobold;-inkscape-font-specification:Gobold;letter-spacing:0px;word-spacing:0px;fill:#ffff00;fill-opacity:1;stroke:none;stroke-width:3.43033814"
     id="path905"
     inkscape:connector-curvature="0"
     sodipodi:nodetypes="ccccccccccccc" />
  <path
     d="M 402.58709,95.545304 V 114.23797 H 384.83242 V 226.99692 H 365.87174 V 114.23797 H 348.11706 V 95.545304 Z"
     style="font-style:normal;font-variant:normal;font-weight:normal;font-stretch:normal;font-size:medium;line-height:1.25;font-family:Gobold;-inkscape-font-specification:Gobold;letter-spacing:0px;word-spacing:0px;fill:#ffff00;fill-opacity:1;stroke:none;stroke-width:3.43033814"
     id="path907"
     inkscape:connector-curvature="0" />
  <path
     d="M 497.72536,95.545304 V 114.23797 H 479.97068 V 226.99692 H 461.01004 V 114.23797 H 443.25536 V 95.545304 Z"
     style="font-style:normal;font-variant:normal;font-weight:normal;font-stretch:normal;font-size:medium;line-height:1.25;font-family:Gobold;-inkscape-font-specification:Gobold;letter-spacing:0px;word-spacing:0px;fill:#ffff00;fill-opacity:1;stroke:none;stroke-width:3.43033814"
     id="path909"
     inkscape:connector-curvature="0" />
  <path
     d="m 506.55971,95.545304 h 18.96065 v 48.803486 h 16.54871 V 95.545304 h 18.96064 V 226.99692 h -18.96064 v -63.88847 h -16.54871 v 63.88847 h -18.96065 z"
     style="font-style:normal;font-variant:normal;font-weight:normal;font-stretch:normal;font-size:medium;line-height:1.25;font-family:Gobold;-inkscape-font-specification:Gobold;letter-spacing:0px;word-spacing:0px;fill:#ffff00;fill-opacity:1;stroke:none;stroke-width:3.43033814"
     id="path911"
     inkscape:connector-curvature="0"
     sodipodi:nodetypes="ccccccccccccc" />
  <path
     d="m 628.75597,180.36576 6.16391,46.63116 h -19.16166 l -3.68494,-27.87149 h -19.36265 l -3.75193,27.87149 h -19.09467 l 6.16391,-46.43014 13.39976,-85.021476 h 25.99551 z m -19.16166,0 -7.23585,-54.67101 -7.23589,54.67101 z"
     style="font-style:normal;font-variant:normal;font-weight:normal;font-stretch:normal;font-size:medium;line-height:1.25;font-family:Gobold;-inkscape-font-specification:Gobold;letter-spacing:0px;word-spacing:0px;fill:#ffff00;fill-opacity:1;stroke:none;stroke-width:3.43033814"
     id="path913"
     inkscape:connector-curvature="0" />
  <path
     d="m 643.75417,95.545304 h 18.96064 L 680.6705,171.78992 V 95.545304 h 17.5537 V 226.99692 h -18.96068 l -17.28568,-73.83264 v 73.83264 h -18.22367 z"
     style="font-style:normal;font-variant:normal;font-weight:normal;font-stretch:normal;font-size:medium;line-height:1.25;font-family:Gobold;-inkscape-font-specification:Gobold;letter-spacing:0px;word-spacing:0px;fill:#ffff00;fill-opacity:1;stroke:none;stroke-width:3.43033814"
     id="path915"
     inkscape:connector-curvature="0" />
  <path
     d="m 761.52851,201.47041 c 0,18.40232 -9.0895,27.62581 -27.26851,27.67047 -18.13434,0 -27.20148,-9.22349 -27.20148,-27.67047 v -80.39855 c 0,-18.40236 9.06714,-27.603523 27.20148,-27.603523 18.17901,0 27.26851,9.201163 27.26851,27.603523 v 1.75787 h -18.96064 v -1.75787 c 0,-5.8959 -2.74695,-8.86619 -8.24087,-8.91086 h -0.13413 c -5.44923,0 -8.17384,2.9703 -8.17384,8.91086 v 80.39855 c 0,5.94055 2.74694,8.91081 8.24087,8.91081 5.53855,0 8.30783,-2.97026 8.30783,-8.91081 v -30.81947 h -8.24084 v -18.75966 h 27.20149 z"
     style="font-style:normal;font-variant:normal;font-weight:normal;font-stretch:normal;font-size:medium;line-height:1.25;font-family:Gobold;-inkscape-font-specification:Gobold;letter-spacing:0px;word-spacing:0px;fill:#ffff00;fill-opacity:1;stroke:none;stroke-width:3.43033814"
     id="path917"
     inkscape:connector-curvature="0"
     sodipodi:nodetypes="scssssccscsssssccccs" />
  <g
     id="g918"
     transform="matrix(1.3032901,0,0,1.3032901,-228.60102,-386.88644)">
    <path
       sodipodi:nodetypes="cccccccc"
       inkscape:connector-curvature="0"
       id="rect862"
       d="m 412.31105,354.87006 h 11.41858 l 6.82199,10.62494 h -7.31461 l -5.22092,-6.0156 -5.58502,6.0156 h -6.95049 z"
       style="fill:#ffff00;fill-opacity:1;stroke:none;stroke-width:2.7134757;stroke-miterlimit:4;stroke-dasharray:none;stroke-dashoffset:0;stroke-opacity:1" />
    <path
       sodipodi:nodetypes="ccccc"
       inkscape:connector-curvature="0"
       id="path888"
       d="m 434.95585,343.87279 h 10.48647 l -9.05329,10.40765 h -6.32106 z"
       style="fill:#ffff00;fill-opacity:1;stroke:none;stroke-width:14.34602165;stroke-miterlimit:4;stroke-dasharray:none;stroke-dashoffset:0;stroke-opacity:1" />
  </g>
  <g
     id="g922"
     transform="matrix(1.3032901,0,0,1.3032901,-149.81217,-385.56612)">
    <path
       sodipodi:nodetypes="ccssccssc"
       inkscape:connector-curvature="0"
       id="rect910"
       d="m 564.15572,350.74765 h 6.53219 c 0.0597,2.90247 0.88851,5.21608 2.4069,6.38499 2.16341,1.66547 6.54093,1.97862 8.77094,-0.10758 1.90638,-1.78344 1.98809,-3.52698 2.4322,-6.27741 h 6.40497 c -0.32233,5.05381 -1.43878,7.55234 -3.76876,9.89238 -5.0411,5.06288 -13.35139,4.74084 -18.20802,1.24847 -3.25491,-2.34058 -5.03759,-6.25569 -4.57042,-11.14085 z"
       style="fill:#ffff00;fill-opacity:1;stroke:none;stroke-width:11.24595547;stroke-miterlimit:4;stroke-dasharray:none;stroke-dashoffset:0;stroke-opacity:1" />
    <path
       style="fill:#ffff00;fill-opacity:1;stroke:none;stroke-width:12.98832703;stroke-miterlimit:4;stroke-dasharray:none;stroke-dashoffset:0;stroke-opacity:1"
       d="m 578.20065,342.35545 h 9.37353 l -8.09246,9.54381 h -5.6502 z"
       id="path914"
       inkscape:connector-curvature="0"
       sodipodi:nodetypes="ccccc" />
  </g>
  <g
     aria-label="QUÂN CHUNG HAI QUÂN"
     id="text1004"
     style="font-style:normal;font-variant:normal;font-weight:normal;font-stretch:normal;font-size:98.589px;line-height:1.25;font-family:Gobold;-inkscape-font-specification:'Gobold, Normal';font-variant-ligatures:normal;font-variant-caps:normal;font-variant-numeric:normal;font-variant-east-asian:normal;text-align:center;letter-spacing:0px;word-spacing:0px;text-anchor:middle;fill:#ffff00;fill-opacity:1"
     transform="translate(0.020205)">
    <path
       d="m 614.62583,1215.8937 q 0,17.7152 -14.92314,19.5927 0.24069,3.0809 14.92314,3.1771 v 11.3609 q -12.08293,0 -16.60801,-2.3588 -5.87298,-2.9847 -6.0174,-12.0348 -16.51173,-1.2035 -16.51173,-19.7371 v -57.767 q 0,-19.8333 19.5445,-19.8333 19.59264,0 19.59264,19.8333 z m -13.62339,-57.767 q 0,-6.3543 -5.92111,-6.4025 h -0.0963 q -5.87298,0 -5.87298,6.4025 v 57.767 q 0,6.4025 5.92112,6.4025 5.96925,0 5.96925,-6.4025 z"
       id="path1006" />
    <path
       d="m 664.83497,1215.8937 q 0,19.8334 -19.59264,19.8815 -19.5445,0 -19.5445,-19.8815 v -76.108 h 13.62339 v 76.108 q 0,6.4025 5.92111,6.4025 5.96926,0 5.96926,-6.4025 v -76.108 h 13.62338 z"
       id="path1008" />
    <path
       d="m 715.81434,1200.7299 4.4288,33.5048 h -13.7678 l -2.64765,-20.0258 h -13.91222 l -2.69579,20.0258 h -13.71966 l 4.4288,-33.3604 9.62783,-61.0886 h 18.678 z m -13.7678,0 -5.19903,-39.2816 -5.19903,39.2816 z m -21.90332,-64.6509 10.30178,-12.1311 h 12.70874 l 10.49434,12.1311 H 703.3463 l -6.54693,-4.4769 -6.49878,4.4769 z"
       id="path1010" />
    <path
       d="m 727.46402,1139.7857 h 13.62338 l 12.90129,54.7824 v -54.7824 h 12.61246 v 94.449 h -13.62338 l -12.4199,-53.0493 v 53.0493 h -13.09385 z"
       id="path1012" />
    <path
       d="m 841.74637,1215.8937 q 0,19.8334 -19.59264,19.8815 -19.5445,0 -19.5445,-19.8815 v -57.767 q 0,-19.8333 19.5445,-19.8333 19.59264,0 19.59264,19.8333 v 12.7088 h -13.62338 v -12.7088 q 0,-6.3543 -5.92112,-6.4025 h -0.0963 q -5.87297,0 -5.87297,6.4025 v 57.767 q 0,6.4025 5.92111,6.4025 5.96926,0 5.96926,-6.4025 v -12.7087 h 13.62338 z"
       id="path1014" />
    <path
       d="m 852.81839,1139.7857 h 13.62338 v 40.485 h 11.89037 v -40.485 h 13.62338 v 94.449 h -13.62338 v -40.485 h -11.89037 v 40.485 h -13.62338 z"
       id="path1016" />
    <path
       d="m 943.12745,1215.8937 q 0,19.8334 -19.59264,19.8815 -19.5445,0 -19.5445,-19.8815 v -76.108 h 13.62339 v 76.108 q 0,6.4025 5.92111,6.4025 5.96926,0 5.96926,-6.4025 v -76.108 h 13.62338 z"
       id="path1018" />
    <path
       d="m 955.16223,1139.7857 h 13.62338 l 12.90129,54.7824 v -54.7824 h 12.61246 v 94.449 h -13.62338 l -12.4199,-53.0493 v 53.0493 h -13.09385 z"
       id="path1020" />
    <path
       d="m 1044.9899,1215.8937 q 0,19.8334 -19.5926,19.8815 -19.5445,0 -19.5445,-19.8815 v -57.767 q 0,-19.8333 19.5445,-19.8333 19.5926,0 19.5926,19.8333 v 12.7088 h -13.6234 v -12.7088 q 0,-6.3543 -5.9211,-6.4025 h -0.096 q -5.873,0 -5.873,6.4025 v 57.767 q 0,6.4025 5.9212,6.4025 5.9692,0 5.9692,-6.4025 v -22.144 h -5.9211 v -13.479 h 19.5445 z"
       id="path1022" />
    <path
       d="m 1080.998,1139.7857 h 13.6234 v 40.485 h 11.8903 v -40.485 h 13.6234 v 94.449 h -13.6234 v -40.485 h -11.8903 v 40.485 h -13.6234 z"
       id="path1024" />
    <path
       d="m 1170.6331,1200.7299 4.4288,33.5048 h -13.7678 l -2.6477,-20.0258 h -13.9122 l -2.6958,20.0258 h -13.7196 l 4.4288,-33.3604 9.6278,-61.0886 h 18.678 z m -13.7678,0 -5.199,-39.2816 -5.1991,39.2816 z"
       id="path1026" />
    <path
       d="m 1183.4862,1139.7857 h 13.6234 v 94.449 h -13.6234 z"
       id="path1028" />
    <path
       d="m 1272.4956,1215.8937 q 0,17.7152 -14.9232,19.5927 0.2407,3.0809 14.9232,3.1771 v 11.3609 q -12.083,0 -16.608,-2.3588 -5.873,-2.9847 -6.0174,-12.0348 -16.5118,-1.2035 -16.5118,-19.7371 v -57.767 q 0,-19.8333 19.5445,-19.8333 19.5927,0 19.5927,19.8333 z m -13.6234,-57.767 q 0,-6.3543 -5.9211,-6.4025 h -0.096 q -5.873,0 -5.873,6.4025 v 57.767 q 0,6.4025 5.9211,6.4025 5.9693,0 5.9693,-6.4025 z"
       id="path1030" />
    <path
       d="m 1322.7047,1215.8937 q 0,19.8334 -19.5926,19.8815 -19.5445,0 -19.5445,-19.8815 v -76.108 h 13.6233 v 76.108 q 0,6.4025 5.9212,6.4025 5.9692,0 5.9692,-6.4025 v -76.108 h 13.6234 z"
       id="path1032" />
    <path
       d="m 1373.6841,1200.7299 4.4288,33.5048 h -13.7678 l -2.6477,-20.0258 h -13.9122 l -2.6958,20.0258 h -13.7196 l 4.4288,-33.3604 9.6278,-61.0886 h 18.678 z m -13.7678,0 -5.1991,-39.2816 -5.199,39.2816 z m -21.9033,-64.6509 10.3017,-12.1311 h 12.7088 l 10.4943,12.1311 h -10.3018 l -6.5469,-4.4769 -6.4988,4.4769 z"
       id="path1034" />
    <path
       d="m 1385.3337,1139.7857 h 13.6234 l 12.9013,54.7824 v -54.7824 h 12.6125 v 94.449 h -13.6234 l -12.4199,-53.0493 v 53.0493 h -13.0939 z"
       id="path1036" />
    <path
       d="m 933.11428,1123.5901 c 0,2.4769 -1.5592,4.7002 -4.6778,6.6697 -3.1186,1.9696 -4.6779,3.6855 -4.6779,5.1478 v 0.6714 h -6.6524 v -1.0295 c 0,-2.4371 1.5593,-4.6355 4.6778,-6.5951 3.1186,-1.9597 4.6779,-3.6159 4.6779,-4.9687 v -0.3554 c 0,-1.3229 -0.9559,-1.9844 -2.8678,-1.9844 h -0.047 c -1.9275,0 -2.8913,0.6615 -2.8913,1.9844 v 1.4446 h -6.6524 v -1.4446 c 0,-4.1082 3.1891,-6.1623 9.5673,-6.1623 6.3625,0 9.545,2.0541 9.5437,6.1623 z"
       style="font-style:normal;font-variant:normal;font-weight:normal;font-stretch:normal;font-size:98.589px;font-family:Gobold;-inkscape-font-specification:'Gobold, Normal';font-variant-ligatures:normal;font-variant-caps:normal;font-variant-numeric:normal;font-variant-east-asian:normal;stroke-width:0.715064"
       id="path991"
       sodipodi:nodetypes="sssccsssssssccssss" />
    <path
       d="m 1161.2457,1123.5901 c 0,2.4769 -1.5592,4.7002 -4.6778,6.6697 -3.1186,1.9696 -4.6779,3.6855 -4.6779,5.1478 v 0.6714 h -6.6524 v -1.0295 c 0,-2.4371 1.5593,-4.6355 4.6778,-6.5951 3.1186,-1.9597 4.6779,-3.6159 4.6779,-4.9687 v -0.3554 c 0,-1.3229 -0.9559,-1.9844 -2.8678,-1.9844 h -0.047 c -1.9275,0 -2.8913,0.6615 -2.8913,1.9844 v 1.4446 h -6.6524 v -1.4446 c 0,-4.1082 3.1891,-6.1623 9.5673,-6.1623 6.3625,0 9.545,2.0541 9.5437,6.1623 z"
       style="font-style:normal;font-variant:normal;font-weight:normal;font-stretch:normal;font-size:98.589px;font-family:Gobold;-inkscape-font-specification:'Gobold, Normal';font-variant-ligatures:normal;font-variant-caps:normal;font-variant-numeric:normal;font-variant-east-asian:normal;stroke-width:0.715064"
       id="path1044"
       sodipodi:nodetypes="sssccsssssssccssss" />
  </g>
</svg>
