<svg xmlns="http://www.w3.org/2000/svg" xmlns:xlink="http://www.w3.org/1999/xlink" width="660.039" height="659.956" version="1.0"><g transform="matrix(2.34568 0 0 2.9503 -1936.085 -2532.546)" fill="#ffc709" stroke="#d00" stroke-width=".172" stroke-linejoin="round"><rect width="1.32" height="10.828" x="-1051.682" y="-933.288" ry=".843" transform="scale(-1 1) rotate(-79.69)" rx=".681"/><rect width="1.32" height="10.828" x="-1270.035" y="-597.944" ry=".805" transform="scale(-1 1) rotate(-63.243)" rx=".704"/><rect transform="rotate(10.31)" ry=".681" y="648.424" x="1233.457" height="10.828" width="1.32" rx=".843"/><rect transform="rotate(26.757)" ry=".704" y="272.069" x="1369.423" height="10.828" width="1.32" rx=".805"/><rect width="1.32" height="10.828" x="1389.094" y="-169.46" ry=".749" transform="rotate(44.936)" rx=".749"/></g><g transform="matrix(.79518 0 0 1 -712.918 -762.602)"><g id="d"><g id="c"><g id="b"><rect ry="1.796" y="1390.784" x="896.779" height="31.591" width="3.591" id="a" rx="2.258" fill="#ffc709" fill-opacity="1" stroke="#d00" stroke-width=".409" stroke-linecap="butt" stroke-linejoin="miter" stroke-miterlimit="4" stroke-dasharray="none" stroke-opacity="1"/><use xlink:href="#a" transform="translate(5)" width="500" height="524"/></g><use height="524" width="500" transform="translate(10)" xlink:href="#b"/></g><use xlink:href="#c" transform="translate(20)" width="500" height="524"/></g><use height="524" width="500" transform="translate(40)" xlink:href="#d"/></g><g transform="matrix(.79518 0 0 1 -649.303 -762.602)"><rect width="3.591" height="31.591" x="896.779" y="1390.784" ry="1.796" rx="2.258" fill="#ffc709" stroke="#d00" stroke-width=".409"/><use height="524" width="500" transform="translate(5)" xlink:href="#a"/><use xlink:href="#b" transform="translate(10)" width="500" height="524"/><use height="524" width="500" transform="translate(20)" xlink:href="#c"/><use xlink:href="#d" transform="translate(40)" width="500" height="524"/></g><g transform="matrix(.79518 0 0 1 -585.69 -762.602)"><rect width="3.591" height="31.591" x="896.779" y="1390.784" ry="1.796" rx="2.258" fill="#ffc709" stroke="#d00" stroke-width=".409"/><use height="524" width="500" transform="translate(5)" xlink:href="#a"/><use xlink:href="#b" transform="translate(10)" width="500" height="524"/><use height="524" width="500" transform="translate(20)" xlink:href="#c"/><use xlink:href="#d" transform="translate(40)" width="500" height="524"/></g><g transform="matrix(.79518 0 0 1 -522.075 -762.602)"><rect width="3.591" height="31.591" x="896.779" y="1390.784" ry="1.796" rx="2.258" fill="#ffc709" stroke="#d00" stroke-width=".409"/><use height="524" width="500" transform="translate(5)" xlink:href="#a"/><use xlink:href="#b" transform="translate(10)" width="500" height="524"/><use height="524" width="500" transform="translate(20)" xlink:href="#c"/><use xlink:href="#d" transform="translate(40)" width="500" height="524"/></g><g transform="matrix(.79518 0 0 1 -458.46 -762.602)"><rect width="3.591" height="31.591" x="896.779" y="1390.784" ry="1.796" rx="2.258" fill="#ffc709" stroke="#d00" stroke-width=".409"/><use height="524" width="500" transform="translate(5)" xlink:href="#a"/><use xlink:href="#b" transform="translate(10)" width="500" height="524"/><use height="524" width="500" transform="translate(20)" xlink:href="#c"/><use xlink:href="#d" transform="translate(40)" width="500" height="524"/></g><g transform="matrix(.79518 0 0 1 -394.846 -762.602)"><rect width="3.591" height="31.591" x="896.779" y="1390.784" ry="1.796" rx="2.258" fill="#ffc709" stroke="#d00" stroke-width=".409"/><use height="524" width="500" transform="translate(5)" xlink:href="#a"/><use xlink:href="#b" transform="translate(10)" width="500" height="524"/><use height="524" width="500" transform="translate(20)" xlink:href="#c"/><use xlink:href="#d" transform="translate(40)" width="500" height="524"/></g><g transform="matrix(.79518 0 0 1 -331.231 -762.602)"><rect ry="1.796" y="1390.784" x="896.779" height="31.591" width="3.591" rx="2.258" fill="#ffc709" stroke="#d00" stroke-width=".409"/><use xlink:href="#a" transform="translate(5)" width="500" height="524"/><use height="524" width="500" transform="translate(10)" xlink:href="#b"/><use xlink:href="#c" transform="translate(20)" width="500" height="524"/><use height="524" width="500" transform="translate(40)" xlink:href="#d"/></g><g transform="matrix(.79518 0 0 1 -267.617 -762.602)"><rect ry="1.796" y="1390.784" x="896.779" height="31.591" width="3.591" rx="2.258" fill="#ffc709" stroke="#d00" stroke-width=".409"/><use xlink:href="#a" transform="translate(5)" width="500" height="524"/><use height="524" width="500" transform="translate(10)" xlink:href="#b"/><use xlink:href="#c" transform="translate(20)" width="500" height="524"/><use height="524" width="500" transform="translate(40)" xlink:href="#d"/></g><g transform="matrix(.79518 0 0 1 -204.002 -762.602)"><rect ry="1.796" y="1390.784" x="896.779" height="31.591" width="3.591" rx="2.258" fill="#ffc709" stroke="#d00" stroke-width=".409"/><use xlink:href="#a" transform="translate(5)" width="500" height="524"/><use height="524" width="500" transform="translate(10)" xlink:href="#b"/><use xlink:href="#c" transform="translate(20)" width="500" height="524"/><use height="524" width="500" transform="translate(40)" xlink:href="#d"/></g><g transform="matrix(.79518 0 0 1 -140.388 -762.602)"><rect ry="1.796" y="1390.784" x="896.779" height="31.591" width="3.591" rx="2.258" fill="#ffc709" stroke="#d00" stroke-width=".409"/><use xlink:href="#a" transform="translate(5)" width="500" height="524"/><use height="524" width="500" transform="translate(10)" xlink:href="#b"/><use xlink:href="#c" transform="translate(20)" width="500" height="524"/><use height="524" width="500" transform="translate(40)" xlink:href="#d"/></g><g transform="matrix(.79518 0 0 1 -712.918 -762.602)"><use xlink:href="#d" transform="rotate(90 1410.075 1707.08)" width="500" height="524"/><use xlink:href="#d" transform="rotate(90 1370.075 1747.08)" width="500" height="524"/><use xlink:href="#d" transform="rotate(90 1390.075 1727.08)" width="500" height="524"/><use xlink:href="#d" transform="rotate(90 1350.075 1767.08)" width="500" height="524"/><use xlink:href="#d" transform="rotate(90 1330.075 1787.08)" width="500" height="524"/></g><g transform="matrix(.79518 0 0 1 -712.918 -1390.602)"><rect width="3.591" height="31.591" x="896.779" y="1390.784" ry="1.796" rx="2.258" fill="#ffc709" stroke="#d00" stroke-width=".409"/><use height="524" width="500" transform="translate(5)" xlink:href="#a"/><use xlink:href="#b" transform="translate(10)" width="500" height="524"/><use height="524" width="500" transform="translate(20)" xlink:href="#c"/><use xlink:href="#d" transform="translate(40)" width="500" height="524"/></g><g transform="matrix(.79518 0 0 1 -649.303 -1390.602)"><rect ry="1.796" y="1390.784" x="896.779" height="31.591" width="3.591" rx="2.258" fill="#ffc709" stroke="#d00" stroke-width=".409"/><use xlink:href="#a" transform="translate(5)" width="500" height="524"/><use height="524" width="500" transform="translate(10)" xlink:href="#b"/><use xlink:href="#c" transform="translate(20)" width="500" height="524"/><use height="524" width="500" transform="translate(40)" xlink:href="#d"/></g><g transform="matrix(.79518 0 0 1 -585.69 -1390.602)"><rect ry="1.796" y="1390.784" x="896.779" height="31.591" width="3.591" rx="2.258" fill="#ffc709" stroke="#d00" stroke-width=".409"/><use xlink:href="#a" transform="translate(5)" width="500" height="524"/><use height="524" width="500" transform="translate(10)" xlink:href="#b"/><use xlink:href="#c" transform="translate(20)" width="500" height="524"/><use height="524" width="500" transform="translate(40)" xlink:href="#d"/></g><g transform="matrix(.79518 0 0 1 -522.075 -1390.602)"><rect ry="1.796" y="1390.784" x="896.779" height="31.591" width="3.591" rx="2.258" fill="#ffc709" stroke="#d00" stroke-width=".409"/><use xlink:href="#a" transform="translate(5)" width="500" height="524"/><use height="524" width="500" transform="translate(10)" xlink:href="#b"/><use xlink:href="#c" transform="translate(20)" width="500" height="524"/><use height="524" width="500" transform="translate(40)" xlink:href="#d"/></g><g transform="matrix(.79518 0 0 1 -458.46 -1390.602)"><rect ry="1.796" y="1390.784" x="896.779" height="31.591" width="3.591" rx="2.258" fill="#ffc709" stroke="#d00" stroke-width=".409"/><use xlink:href="#a" transform="translate(5)" width="500" height="524"/><use height="524" width="500" transform="translate(10)" xlink:href="#b"/><use xlink:href="#c" transform="translate(20)" width="500" height="524"/><use height="524" width="500" transform="translate(40)" xlink:href="#d"/></g><g transform="matrix(.79518 0 0 1 -394.846 -1390.602)"><rect ry="1.796" y="1390.784" x="896.779" height="31.591" width="3.591" rx="2.258" fill="#ffc709" stroke="#d00" stroke-width=".409"/><use xlink:href="#a" transform="translate(5)" width="500" height="524"/><use height="524" width="500" transform="translate(10)" xlink:href="#b"/><use xlink:href="#c" transform="translate(20)" width="500" height="524"/><use height="524" width="500" transform="translate(40)" xlink:href="#d"/></g><g transform="matrix(.79518 0 0 1 -331.231 -1390.602)"><rect width="3.591" height="31.591" x="896.779" y="1390.784" ry="1.796" rx="2.258" fill="#ffc709" stroke="#d00" stroke-width=".409"/><use height="524" width="500" transform="translate(5)" xlink:href="#a"/><use xlink:href="#b" transform="translate(10)" width="500" height="524"/><use height="524" width="500" transform="translate(20)" xlink:href="#c"/><use xlink:href="#d" transform="translate(40)" width="500" height="524"/></g><g transform="matrix(.79518 0 0 1 -267.617 -1390.602)"><rect width="3.591" height="31.591" x="896.779" y="1390.784" ry="1.796" rx="2.258" fill="#ffc709" stroke="#d00" stroke-width=".409"/><use height="524" width="500" transform="translate(5)" xlink:href="#a"/><use xlink:href="#b" transform="translate(10)" width="500" height="524"/><use height="524" width="500" transform="translate(20)" xlink:href="#c"/><use xlink:href="#d" transform="translate(40)" width="500" height="524"/></g><g transform="matrix(.79518 0 0 1 -204.002 -1390.602)"><rect width="3.591" height="31.591" x="896.779" y="1390.784" ry="1.796" rx="2.258" fill="#ffc709" stroke="#d00" stroke-width=".409"/><use height="524" width="500" transform="translate(5)" xlink:href="#a"/><use xlink:href="#b" transform="translate(10)" width="500" height="524"/><use height="524" width="500" transform="translate(20)" xlink:href="#c"/><use xlink:href="#d" transform="translate(40)" width="500" height="524"/></g><g transform="matrix(.79518 0 0 1 -140.388 -1390.602)"><rect width="3.591" height="31.591" x="896.779" y="1390.784" ry="1.796" rx="2.258" fill="#ffc709" stroke="#d00" stroke-width=".409"/><use height="524" width="500" transform="translate(5)" xlink:href="#a"/><use xlink:href="#b" transform="translate(10)" width="500" height="524"/><use height="524" width="500" transform="translate(20)" xlink:href="#c"/><use xlink:href="#d" transform="translate(40)" width="500" height="524"/></g><g transform="matrix(.79518 0 0 1 -712.918 -962.602)"><use height="524" width="500" transform="rotate(90 1410.075 1707.08)" xlink:href="#d"/><use height="524" width="500" transform="rotate(90 1370.075 1747.08)" xlink:href="#d"/><use height="524" width="500" transform="rotate(90 1390.075 1727.08)" xlink:href="#d"/><use height="524" width="500" transform="rotate(90 1350.075 1767.08)" xlink:href="#d"/><use height="524" width="500" transform="rotate(90 1330.075 1787.08)" xlink:href="#d"/></g><g transform="matrix(.79518 0 0 1 -712.918 -1162.602)"><use height="524" width="500" transform="rotate(90 1410.075 1707.08)" xlink:href="#d"/><use height="524" width="500" transform="rotate(90 1370.075 1747.08)" xlink:href="#d"/><use height="524" width="500" transform="rotate(90 1390.075 1727.08)" xlink:href="#d"/><use height="524" width="500" transform="rotate(90 1350.075 1767.08)" xlink:href="#d"/><use height="524" width="500" transform="rotate(90 1330.075 1787.08)" xlink:href="#d"/></g><g transform="matrix(0 2.94987 -2.34602 0 2673.831 -2604.824)" fill="#ffc709" stroke="#d00" stroke-width=".172" stroke-linejoin="round"><rect transform="scale(-1 1) rotate(-79.69)" ry=".843" y="-933.288" x="-1051.682" height="10.828" width="1.32" rx=".681"/><rect transform="scale(-1 1) rotate(-63.243)" ry=".805" y="-597.944" x="-1270.035" height="10.828" width="1.32" rx=".704"/><rect width="1.32" height="10.828" x="1233.457" y="648.424" ry=".681" transform="rotate(10.31)" rx=".843"/><rect width="1.32" height="10.828" x="1369.423" y="272.069" ry=".704" transform="rotate(26.757)" rx=".805"/><rect transform="rotate(44.936)" ry=".749" y="-169.46" x="1389.094" height="10.828" width="1.32" rx=".749"/></g><path fill="#ffc709" d="M.02 429.978h636.144v200H.02z"/><path fill="#d00" d="M.02 229.978h636.144v200H.02z"/><path d="M.02 29.978h636.144v200H.02z"/><g fill-rule="evenodd"><path d="M0 629.982v-4.941l2.7 4.936H.32l-.32.01z"/><path d="M2.71 625.046h2.337l2.723 4.936H5.39l-2.68-4.934z" fill="#d00"/><path d="M5.05 625.046h2.337l2.724 4.936H7.73l-2.68-4.934z"/><path d="M9.717 625.046h2.337l2.723 4.936h-2.38l-2.68-4.934z" fill="#d00"/><path d="M12.058 625.046h2.337l2.723 4.936h-2.38l-2.68-4.934z"/><path d="M17.04 625.046h2.337l2.723 4.936h-2.38l-2.68-4.934z" fill="#d00"/><path d="M19.38 625.046h2.338l2.723 4.936h-2.38l-2.68-4.934z"/><path d="M24.047 625.046h2.338l2.723 4.936h-2.38l-2.68-4.934z" fill="#d00"/><path d="M26.388 625.046h2.337l2.724 4.936h-2.38l-2.68-4.934z"/><path d="M31.116 625.046h2.337l2.723 4.936h-2.38l-2.68-4.934z" fill="#d00"/><path d="M33.457 625.046h2.337l2.723 4.936h-2.38l-2.68-4.934z"/><path d="M38.124 625.046h2.337l2.723 4.936h-2.38l-2.68-4.934z" fill="#d00"/><path d="M40.464 625.046h2.338l2.723 4.936h-2.38l-2.68-4.934z"/><path d="M45.446 625.046h2.338l2.723 4.936h-2.38l-2.68-4.934z" fill="#d00"/><path d="M47.787 625.046h2.338l2.723 4.936h-2.38l-2.68-4.934z"/><path d="M52.454 625.046h2.337l2.723 4.936h-2.38l-2.68-4.934z" fill="#d00"/><path d="M54.795 625.046h2.337l2.723 4.936h-2.38l-2.68-4.934z"/><path d="M59.77 625.046h2.338l2.723 4.936h-2.38l-2.68-4.934z" fill="#d00"/><path d="M62.112 625.046h2.337l2.723 4.936h-2.38l-2.68-4.934z"/><path d="M66.778 625.046h2.338l2.723 4.936h-2.38l-2.68-4.934z" fill="#d00"/><path d="M69.12 625.046h2.336l2.724 4.936H71.8l-2.68-4.934z"/><path d="M74.101 625.046h2.338l2.723 4.936h-2.38l-2.68-4.934z" fill="#d00"/><path d="M76.442 625.046h2.337l2.724 4.936h-2.38l-2.68-4.934z"/><path d="M81.109 625.046h2.337l2.723 4.936h-2.38l-2.68-4.934z" fill="#d00"/><path d="M83.45 625.046h2.337l2.723 4.936h-2.38l-2.68-4.934z"/><path d="M88.177 625.046h2.338l2.723 4.936h-2.38l-2.68-4.934z" fill="#d00"/><path d="M90.518 625.046h2.338l2.723 4.936h-2.38l-2.68-4.934z"/><path d="M95.185 625.046h2.337l2.723 4.936h-2.38l-2.68-4.934z" fill="#d00"/><path d="M97.526 625.046h2.337l2.723 4.936h-2.38l-2.68-4.934z"/><path d="M102.508 625.046h2.337l2.723 4.936h-2.38l-2.68-4.934z" fill="#d00"/><path d="M104.849 625.046h2.337l2.723 4.936h-2.38l-2.68-4.934z"/><path d="M109.516 625.046h2.337l2.723 4.936h-2.38l-2.68-4.934z" fill="#d00"/><path d="M111.856 625.046h2.338l2.723 4.936h-2.38l-2.68-4.934z"/><path d="M116.578 625.046h2.337l2.723 4.936h-2.38l-2.68-4.934z" fill="#d00"/><path d="M118.919 625.046h2.337l2.723 4.936h-2.38l-2.68-4.934z"/><path d="M123.586 625.046h2.337l2.723 4.936h-2.38l-2.68-4.934z" fill="#d00"/><path d="M125.926 625.046h2.338l2.723 4.936h-2.38l-2.68-4.934z"/><path d="M130.908 625.046h2.338l2.723 4.936h-2.38l-2.68-4.934z" fill="#d00"/><path d="M133.25 625.046h2.336l2.724 4.936h-2.38l-2.68-4.934z"/><path d="M137.916 625.046h2.337l2.723 4.936h-2.38l-2.68-4.934z" fill="#d00"/><path d="M140.257 625.046h2.337l2.723 4.936h-2.38l-2.68-4.934z"/><path d="M144.984 625.046h2.338l2.723 4.936h-2.38l-2.68-4.934z" fill="#d00"/><path d="M147.325 625.046h2.338l2.723 4.936h-2.38l-2.68-4.934z"/><path d="M151.992 625.046h2.337l2.724 4.936h-2.381l-2.68-4.934z" fill="#d00"/><path d="M154.333 625.046h2.337l2.723 4.936h-2.38l-2.68-4.934z"/><path d="M159.315 625.046h2.337l2.724 4.936h-2.381l-2.68-4.934z" fill="#d00"/><path d="M161.656 625.046h2.337l2.723 4.936h-2.38l-2.68-4.934z"/><path d="M166.323 625.046h2.337l2.723 4.936h-2.38l-2.68-4.934z" fill="#d00"/><path d="M168.663 625.046h2.338l2.723 4.936h-2.38l-2.68-4.934z"/><path d="M173.64 625.046h2.337l2.723 4.936h-2.38l-2.68-4.934z" fill="#d00"/><path d="M175.98 625.046h2.337l2.724 4.936h-2.38l-2.68-4.934z"/><path d="M180.647 625.046h2.337l2.723 4.936h-2.38l-2.68-4.934z" fill="#d00"/><path d="M182.988 625.046h2.337l2.723 4.936h-2.38l-2.68-4.934z"/><path d="M187.97 625.046h2.337l2.723 4.936h-2.38l-2.68-4.934z" fill="#d00"/><path d="M190.31 625.046h2.338l2.723 4.936h-2.38l-2.68-4.934z"/><path d="M194.978 625.046h2.337l2.723 4.936h-2.38l-2.68-4.934z" fill="#d00"/><path d="M197.318 625.046h2.338l2.723 4.936h-2.38l-2.68-4.934z"/><path d="M202.046 625.046h2.337l2.724 4.936h-2.381l-2.68-4.934z" fill="#d00"/><path d="M204.387 625.046h2.337l2.723 4.936h-2.38l-2.68-4.934z"/><path d="M209.054 625.046h2.337l2.723 4.936h-2.38l-2.68-4.934z" fill="#d00"/><path d="M211.394 625.046h2.338l2.723 4.936h-2.38l-2.68-4.934z"/><path d="M216.377 625.046h2.337l2.723 4.936h-2.38l-2.68-4.934z" fill="#d00"/><path d="M218.717 625.046h2.338l2.723 4.936h-2.38l-2.68-4.934z"/><path d="M223.384 625.046h2.337l2.724 4.936h-2.381l-2.68-4.934z" fill="#d00"/><path d="M225.725 625.046h2.337l2.723 4.936h-2.38l-2.68-4.934z"/><path d="M230.656 625.046h2.337l2.724 4.936h-2.38l-2.68-4.934z" fill="#d00"/><path d="M232.997 625.046h2.337l2.723 4.936h-2.38l-2.68-4.934z"/><path d="M237.664 625.046H240l2.723 4.936h-2.38l-2.68-4.934z" fill="#d00"/><path d="M240.004 625.046h2.338l2.723 4.936h-2.38l-2.68-4.934z"/><path d="M244.987 625.046h2.337l2.723 4.936h-2.38l-2.68-4.934z" fill="#d00"/><path d="M247.327 625.046h2.338l2.723 4.936h-2.38l-2.68-4.934z"/><path d="M251.994 625.046h2.338l2.723 4.936h-2.38l-2.68-4.934z" fill="#d00"/><path d="M254.335 625.046h2.337l2.723 4.936h-2.38l-2.68-4.934z"/><path d="M259.063 625.046h2.337l2.723 4.936h-2.38l-2.68-4.934z" fill="#d00"/><path d="M261.404 625.046h2.337l2.723 4.936h-2.38l-2.68-4.934z"/><path d="M266.07 625.046h2.338l2.723 4.936h-2.38l-2.68-4.934z" fill="#d00"/><path d="M268.411 625.046h2.337l2.724 4.936h-2.381l-2.68-4.934z"/><path d="M273.393 625.046h2.338l2.723 4.936h-2.38l-2.68-4.934z" fill="#d00"/><path d="M275.734 625.046h2.337l2.723 4.936h-2.38l-2.68-4.934z"/><path d="M280.4 625.046h2.338l2.723 4.936h-2.38l-2.68-4.934z" fill="#d00"/><path d="M282.742 625.046h2.337l2.723 4.936h-2.38l-2.68-4.934z"/><path d="M287.718 625.046h2.337l2.723 4.936h-2.38l-2.68-4.934z" fill="#d00"/><path d="M290.058 625.046h2.338l2.723 4.936h-2.38l-2.68-4.934z"/><path d="M294.725 625.046h2.337l2.724 4.936h-2.38l-2.68-4.934z" fill="#d00"/><path d="M297.066 625.046h2.337l2.723 4.936h-2.38l-2.68-4.934z"/><path d="M302.048 625.046h2.337l2.724 4.936h-2.38l-2.68-4.934z" fill="#d00"/><path d="M304.389 625.046h2.337l2.723 4.936h-2.38l-2.68-4.934z"/><path d="M309.056 625.046h2.337l2.723 4.936h-2.38l-2.68-4.934z" fill="#d00"/><path d="M311.396 625.046h2.338l2.723 4.936h-2.38l-2.68-4.934z"/><path d="M316.124 625.046h2.338l2.723 4.936h-2.38l-2.68-4.934z" fill="#d00"/><path d="M318.465 625.046h2.337l2.723 4.936h-2.38l-2.68-4.934z"/><path d="M323.132 625.046h2.337l2.723 4.936h-2.38l-2.68-4.934z" fill="#d00"/><path d="M325.473 625.046h2.337l2.723 4.936h-2.38l-2.68-4.934z"/><path d="M330.455 625.046h2.337l2.723 4.936h-2.38l-2.68-4.934z" fill="#d00"/><path d="M332.796 625.046h2.337l2.723 4.936h-2.38l-2.68-4.934z"/><path d="M337.462 625.046h2.338l2.723 4.936h-2.38l-2.68-4.934z" fill="#d00"/><path d="M339.803 625.046h2.337l2.724 4.936h-2.38l-2.68-4.934z"/><path d="M344.525 625.046h2.337l2.723 4.936h-2.38l-2.68-4.934z" fill="#d00"/><path d="M346.866 625.046h2.337l2.723 4.936h-2.38l-2.68-4.934z"/><path d="M351.532 625.046h2.338l2.723 4.936h-2.38l-2.68-4.934z" fill="#d00"/><path d="M353.873 625.046h2.337l2.723 4.936h-2.38l-2.68-4.934z"/><path d="M358.855 625.046h2.338l2.723 4.936h-2.38l-2.68-4.934z" fill="#d00"/><path d="M361.196 625.046h2.337l2.723 4.936h-2.38l-2.68-4.934z"/><path d="M365.863 625.046h2.337l2.723 4.936h-2.38l-2.68-4.934z" fill="#d00"/><path d="M368.204 625.046h2.337l2.723 4.936h-2.38l-2.68-4.934z"/><path d="M372.931 625.046h2.338l2.723 4.936h-2.38l-2.68-4.934z" fill="#d00"/><path d="M375.272 625.046h2.337l2.724 4.936h-2.381l-2.68-4.934z"/><path d="M379.939 625.046h2.337l2.723 4.936h-2.38l-2.68-4.934z" fill="#d00"/><path d="M382.28 625.046h2.337l2.723 4.936h-2.38l-2.68-4.934z"/><path d="M387.262 625.046h2.337l2.723 4.936h-2.38l-2.68-4.934z" fill="#d00"/><path d="M389.603 625.046h2.337l2.723 4.936h-2.38l-2.68-4.934z"/><path d="M394.27 625.046h2.337l2.723 4.936h-2.38l-2.68-4.934z" fill="#d00"/><path d="M396.61 625.046h2.337l2.724 4.936h-2.38l-2.68-4.934z"/><path d="M401.586 625.046h2.338l2.723 4.936h-2.38l-2.68-4.934z" fill="#d00"/><path d="M403.927 625.046h2.337l2.723 4.936h-2.38l-2.68-4.934z"/><path d="M408.594 625.046h2.337l2.723 4.936h-2.38l-2.68-4.934z" fill="#d00"/><path d="M410.935 625.046h2.337l2.723 4.936h-2.38l-2.68-4.934z"/><path d="M415.917 625.046h2.337l2.723 4.936h-2.38l-2.68-4.934z" fill="#d00"/><path d="M418.258 625.046h2.337l2.723 4.936h-2.38l-2.68-4.934z"/><path d="M422.924 625.046h2.338l2.723 4.936h-2.38l-2.68-4.934z" fill="#d00"/><path d="M425.265 625.046h2.337l2.724 4.936h-2.38l-2.68-4.934z"/><path d="M429.993 625.046h2.337l2.723 4.936h-2.38l-2.68-4.934z" fill="#d00"/><path d="M432.334 625.046h2.337l2.723 4.936h-2.38l-2.68-4.934z"/><path d="M437 625.046h2.338l2.723 4.936h-2.38l-2.68-4.934z" fill="#d00"/><path d="M439.341 625.046h2.337l2.724 4.936h-2.38l-2.68-4.934z"/><path d="M444.323 625.046h2.338l2.723 4.936h-2.38l-2.68-4.934z" fill="#d00"/><path d="M446.664 625.046h2.337l2.724 4.936h-2.38l-2.68-4.934z"/><path d="M451.33 625.046h2.338l2.723 4.936h-2.38l-2.68-4.934z" fill="#d00"/><path d="M453.672 625.046h2.337l2.723 4.936h-2.38l-2.68-4.934z"/><path d="M457.238 625.046h2.337l2.723 4.936h-2.38l-2.68-4.934z" fill="#d00"/><path d="M459.579 625.046h2.337l2.723 4.936h-2.38l-2.68-4.934z"/><path d="M464.245 625.046h2.337l2.724 4.936h-2.38l-2.68-4.934z" fill="#d00"/><path d="M466.586 625.046h2.337l2.723 4.936h-2.38l-2.68-4.934z"/><path d="M471.568 625.046h2.337l2.724 4.936h-2.38l-2.68-4.934z" fill="#d00"/><path d="M473.909 625.046h2.337l2.723 4.936h-2.38l-2.68-4.934z"/><path d="M478.576 625.046h2.337l2.723 4.936h-2.38l-2.68-4.934z" fill="#d00"/><path d="M480.917 625.046h2.337l2.723 4.936h-2.38l-2.68-4.934z"/><path d="M485.644 625.046h2.338l2.723 4.936h-2.38l-2.68-4.934z" fill="#d00"/><path d="M487.985 625.046h2.337l2.724 4.936h-2.381l-2.68-4.934z"/><path d="M492.652 625.046h2.337l2.723 4.936h-2.38l-2.68-4.934z" fill="#d00"/><path d="M494.993 625.046h2.337l2.723 4.936h-2.38l-2.68-4.934z"/><path d="M499.975 625.046h2.337l2.723 4.936h-2.38l-2.68-4.934z" fill="#d00"/><path d="M502.316 625.046h2.337l2.723 4.936h-2.38l-2.68-4.934z"/><path d="M506.982 625.046h2.338l2.723 4.936h-2.38l-2.68-4.934z" fill="#d00"/><path d="M509.323 625.046h2.337l2.724 4.936h-2.38l-2.68-4.934z"/><path d="M514.045 625.046h2.337l2.723 4.936h-2.38l-2.68-4.934z" fill="#d00"/><path d="M516.385 625.046h2.338l2.723 4.936h-2.38l-2.68-4.934z"/><path d="M521.052 625.046h2.338l2.723 4.936h-2.38l-2.68-4.934z" fill="#d00"/><path d="M523.393 625.046h2.337l2.723 4.936h-2.38l-2.68-4.934z"/><path d="M528.375 625.046h2.338l2.723 4.936h-2.38l-2.68-4.934z" fill="#d00"/><path d="M530.716 625.046h2.337l2.723 4.936h-2.38l-2.68-4.934z"/><path d="M535.383 625.046h2.337l2.723 4.936h-2.38l-2.68-4.934z" fill="#d00"/><path d="M537.724 625.046h2.337l2.723 4.936h-2.38l-2.68-4.934z"/><path d="M542.451 625.046h2.338l2.723 4.936h-2.38l-2.68-4.934z" fill="#d00"/><path d="M544.792 625.046h2.337l2.724 4.936h-2.381l-2.68-4.934z"/><path d="M549.459 625.046h2.337l2.723 4.936h-2.38l-2.68-4.934z" fill="#d00"/><path d="M551.8 625.046h2.337l2.723 4.936h-2.38l-2.68-4.934z"/><path d="M556.782 625.046h2.337l2.723 4.936h-2.38l-2.68-4.934z" fill="#d00"/><path d="M559.123 625.046h2.337l2.723 4.936h-2.38l-2.68-4.934z"/><path d="M563.79 625.046h2.337l2.723 4.936h-2.38l-2.68-4.934z" fill="#d00"/><path d="M566.13 625.046h2.337l2.724 4.936h-2.38l-2.68-4.934z"/><path d="M571.106 625.046h2.338l2.723 4.936h-2.38l-2.68-4.934z" fill="#d00"/><path d="M573.447 625.046h2.337l2.723 4.936h-2.38l-2.68-4.934z"/><path d="M578.114 625.046h2.337l2.723 4.936h-2.38l-2.68-4.934z" fill="#d00"/><path d="M580.455 625.046h2.337l2.723 4.936h-2.38l-2.68-4.934z"/><path d="M585.437 625.046h2.337l2.723 4.936h-2.38l-2.68-4.934z" fill="#d00"/><path d="M587.778 625.046h2.337l2.723 4.936h-2.38l-2.68-4.934z"/><path d="M592.444 625.046h2.338l2.723 4.936h-2.38l-2.68-4.934z" fill="#d00"/><path d="M594.785 625.046h2.337l2.724 4.936h-2.381l-2.68-4.934z"/><path d="M599.513 625.046h2.337l2.723 4.936h-2.38l-2.68-4.934z" fill="#d00"/><path d="M601.854 625.046h2.337l2.723 4.936h-2.38l-2.68-4.934z"/><path d="M606.52 625.046h2.338l2.723 4.936h-2.38l-2.68-4.934z" fill="#d00"/><path d="M608.861 625.046h2.337l2.724 4.936h-2.38l-2.68-4.934z"/><path d="M613.843 625.046h2.338l2.723 4.936h-2.38l-2.68-4.934z" fill="#d00"/><path d="M616.184 625.046h2.337l2.724 4.936h-2.38l-2.68-4.934z"/><path d="M620.85 625.046h2.338l2.723 4.936h-2.38l-2.68-4.934z" fill="#d00"/><path d="M623.192 625.046h2.337l2.723 4.936h-2.38l-2.68-4.934z"/><path d="M628.123 625.046h2.337l2.723 4.936h-2.38l-2.68-4.934z" fill="#d00"/><path d="M630.464 625.046h2.337l2.723 4.936h-2.38l-2.68-4.934z"/></g><path fill="#ffc709" fill-rule="evenodd" d="M0 29.968h632.729v4.942H0z"/><path d="M0 34.91v-4.942l2.7 4.937-2.38-.002-.32.007z" fill-rule="evenodd"/><path d="M2.71 29.974h2.337L7.77 34.91l-2.38-.002-2.68-4.934z" fill="#d00" fill-rule="evenodd"/><path d="M5.05 29.974h2.337l2.724 4.936-2.38-.002-2.68-4.934z" fill-rule="evenodd"/><path d="M9.717 29.974h2.337l2.723 4.936-2.38-.002-2.68-4.934z" fill="#d00" fill-rule="evenodd"/><path d="M12.058 29.974h2.337l2.723 4.936-2.38-.002-2.68-4.934z" fill-rule="evenodd"/><path d="M17.04 29.974h2.337L22.1 34.91l-2.38-.002-2.68-4.934z" fill="#d00" fill-rule="evenodd"/><path d="M19.38 29.974h2.338l2.723 4.936-2.38-.002-2.68-4.934z" fill-rule="evenodd"/><path d="M24.047 29.974h2.338l2.723 4.936-2.38-.002-2.68-4.934z" fill="#d00" fill-rule="evenodd"/><path d="M26.388 29.974h2.337l2.724 4.936-2.38-.002-2.68-4.934z" fill-rule="evenodd"/><path d="M31.116 29.974h2.337l2.723 4.936-2.38-.002-2.68-4.934z" fill="#d00" fill-rule="evenodd"/><path d="M33.457 29.974h2.337l2.723 4.936-2.38-.002-2.68-4.934z" fill-rule="evenodd"/><path d="M38.124 29.974h2.337l2.723 4.936-2.38-.002-2.68-4.934z" fill="#d00" fill-rule="evenodd"/><path d="M40.464 29.974h2.338l2.723 4.936-2.38-.002-2.68-4.934z" fill-rule="evenodd"/><path d="M45.446 29.974h2.338l2.723 4.936-2.38-.002-2.68-4.934z" fill="#d00" fill-rule="evenodd"/><path d="M47.787 29.974h2.338l2.723 4.936-2.38-.002-2.68-4.934z" fill-rule="evenodd"/><path d="M52.454 29.974h2.337l2.723 4.936-2.38-.002-2.68-4.934z" fill="#d00" fill-rule="evenodd"/><path d="M54.795 29.974h2.337l2.723 4.936-2.38-.002-2.68-4.934z" fill-rule="evenodd"/><path d="M59.77 29.974h2.338l2.723 4.936-2.38-.002-2.68-4.934z" fill="#d00" fill-rule="evenodd"/><path d="M62.112 29.974h2.337l2.723 4.936-2.38-.002-2.68-4.934z" fill-rule="evenodd"/><path d="M66.778 29.974h2.338l2.723 4.936-2.38-.002-2.68-4.934z" fill="#d00" fill-rule="evenodd"/><path d="M69.12 29.974h2.336l2.724 4.936-2.38-.002-2.68-4.934z" fill-rule="evenodd"/><path d="M74.101 29.974h2.338l2.723 4.936-2.38-.002-2.68-4.934z" fill="#d00" fill-rule="evenodd"/><path d="M76.442 29.974h2.337l2.724 4.936-2.38-.002-2.68-4.934z" fill-rule="evenodd"/><path d="M81.109 29.974h2.337l2.723 4.936-2.38-.002-2.68-4.934z" fill="#d00" fill-rule="evenodd"/><path d="M83.45 29.974h2.337l2.723 4.936-2.38-.002-2.68-4.934z" fill-rule="evenodd"/><path d="M88.177 29.974h2.338l2.723 4.936-2.38-.002-2.68-4.934z" fill="#d00" fill-rule="evenodd"/><path d="M90.518 29.974h2.338l2.723 4.936-2.38-.002-2.68-4.934z" fill-rule="evenodd"/><path d="M95.185 29.974h2.337l2.723 4.936-2.38-.002-2.68-4.934z" fill="#d00" fill-rule="evenodd"/><path d="M97.526 29.974h2.337l2.723 4.936-2.38-.002-2.68-4.934z" fill-rule="evenodd"/><path d="M102.508 29.974h2.337l2.723 4.936-2.38-.002-2.68-4.934z" fill="#d00" fill-rule="evenodd"/><path d="M104.849 29.974h2.337l2.723 4.936-2.38-.002-2.68-4.934z" fill-rule="evenodd"/><path d="M109.516 29.974h2.337l2.723 4.936-2.38-.002-2.68-4.934z" fill="#d00" fill-rule="evenodd"/><path d="M111.856 29.974h2.338l2.723 4.936-2.38-.002-2.68-4.934z" fill-rule="evenodd"/><path d="M116.578 29.974h2.337l2.723 4.936-2.38-.002-2.68-4.934z" fill="#d00" fill-rule="evenodd"/><path d="M118.919 29.974h2.337l2.723 4.936-2.38-.002-2.68-4.934z" fill-rule="evenodd"/><path d="M123.586 29.974h2.337l2.723 4.936-2.38-.002-2.68-4.934z" fill="#d00" fill-rule="evenodd"/><path d="M125.926 29.974h2.338l2.723 4.936-2.38-.002-2.68-4.934z" fill-rule="evenodd"/><path d="M130.908 29.974h2.338l2.723 4.936-2.38-.002-2.68-4.934z" fill="#d00" fill-rule="evenodd"/><path d="M133.25 29.974h2.336l2.724 4.936-2.38-.002-2.68-4.934z" fill-rule="evenodd"/><path d="M137.916 29.974h2.337l2.723 4.936-2.38-.002-2.68-4.934z" fill="#d00" fill-rule="evenodd"/><path d="M140.257 29.974h2.337l2.723 4.936-2.38-.002-2.68-4.934z" fill-rule="evenodd"/><path d="M144.984 29.974h2.338l2.723 4.936-2.38-.002-2.68-4.934z" fill="#d00" fill-rule="evenodd"/><path d="M147.325 29.974h2.338l2.723 4.936-2.38-.002-2.68-4.934z" fill-rule="evenodd"/><path d="M151.992 29.974h2.337l2.723 4.936-2.38-.002-2.68-4.934z" fill="#d00" fill-rule="evenodd"/><path d="M154.333 29.974h2.337l2.723 4.936-2.38-.002-2.68-4.934z" fill-rule="evenodd"/><path d="M159.315 29.974h2.337l2.724 4.936-2.381-.002-2.68-4.934z" fill="#d00" fill-rule="evenodd"/><path d="M161.656 29.974h2.337l2.723 4.936-2.38-.002-2.68-4.934z" fill-rule="evenodd"/><path d="M166.323 29.974h2.337l2.723 4.936-2.38-.002-2.68-4.934z" fill="#d00" fill-rule="evenodd"/><path d="M168.663 29.974h2.338l2.723 4.936-2.38-.002-2.68-4.934z" fill-rule="evenodd"/><path d="M173.64 29.974h2.337l2.723 4.936-2.38-.002-2.68-4.934z" fill="#d00" fill-rule="evenodd"/><path d="M175.98 29.974h2.337l2.724 4.936-2.38-.002-2.68-4.934z" fill-rule="evenodd"/><path d="M180.647 29.974h2.337l2.723 4.936-2.38-.002-2.68-4.934z" fill="#d00" fill-rule="evenodd"/><path d="M182.988 29.974h2.337l2.723 4.936-2.38-.002-2.68-4.934z" fill-rule="evenodd"/><path d="M187.97 29.974h2.337l2.723 4.936-2.38-.002-2.68-4.934z" fill="#d00" fill-rule="evenodd"/><path d="M190.31 29.974h2.338l2.723 4.936-2.38-.002-2.68-4.934z" fill-rule="evenodd"/><path d="M194.977 29.974h2.338l2.723 4.936-2.38-.002-2.68-4.934z" fill="#d00" fill-rule="evenodd"/><path d="M197.318 29.974h2.337l2.724 4.936-2.38-.002-2.68-4.934z" fill-rule="evenodd"/><path d="M202.046 29.974h2.337l2.723 4.936-2.38-.002-2.68-4.934z" fill="#d00" fill-rule="evenodd"/><path d="M204.387 29.974h2.337l2.723 4.936-2.38-.002-2.68-4.934z" fill-rule="evenodd"/><path d="M209.054 29.974h2.337l2.723 4.936-2.38-.002-2.68-4.934z" fill="#d00" fill-rule="evenodd"/><path d="M211.394 29.974h2.338l2.723 4.936-2.38-.002-2.68-4.934z" fill-rule="evenodd"/><path d="M216.377 29.974h2.337l2.723 4.936-2.38-.002-2.68-4.934z" fill="#d00" fill-rule="evenodd"/><path d="M218.717 29.974h2.338l2.723 4.936-2.38-.002-2.68-4.934z" fill-rule="evenodd"/><path d="M223.384 29.974h2.337l2.723 4.936-2.38-.002-2.68-4.934z" fill="#d00" fill-rule="evenodd"/><path d="M225.725 29.974h2.337l2.723 4.936-2.38-.002-2.68-4.934z" fill-rule="evenodd"/><path d="M230.656 29.974h2.337l2.724 4.936-2.38-.002-2.68-4.934z" fill="#d00" fill-rule="evenodd"/><path d="M232.997 29.974h2.337l2.723 4.936-2.38-.002-2.68-4.934z" fill-rule="evenodd"/><path d="M237.664 29.974H240l2.723 4.936-2.38-.002-2.68-4.934z" fill="#d00" fill-rule="evenodd"/><path d="M240.004 29.974h2.338l2.723 4.936-2.38-.002-2.68-4.934z" fill-rule="evenodd"/><path d="M244.987 29.974h2.337l2.723 4.936-2.38-.002-2.68-4.934z" fill="#d00" fill-rule="evenodd"/><path d="M247.327 29.974h2.338l2.723 4.936-2.38-.002-2.68-4.934z" fill-rule="evenodd"/><path d="M251.994 29.974h2.338l2.723 4.936-2.38-.002-2.68-4.934z" fill="#d00" fill-rule="evenodd"/><path d="M254.335 29.974h2.337l2.723 4.936-2.38-.002-2.68-4.934z" fill-rule="evenodd"/><path d="M259.063 29.974h2.337l2.723 4.936-2.38-.002-2.68-4.934z" fill="#d00" fill-rule="evenodd"/><path d="M261.404 29.974h2.337l2.723 4.936-2.38-.002-2.68-4.934z" fill-rule="evenodd"/><path d="M266.07 29.974h2.337l2.724 4.936-2.38-.002-2.68-4.934z" fill="#d00" fill-rule="evenodd"/><path d="M268.411 29.974h2.337l2.723 4.936-2.38-.002-2.68-4.934z" fill-rule="evenodd"/><path d="M273.393 29.974h2.338l2.723 4.936-2.38-.002-2.68-4.934z" fill="#d00" fill-rule="evenodd"/><path d="M275.734 29.974h2.337l2.723 4.936-2.38-.002-2.68-4.934z" fill-rule="evenodd"/><path d="M280.4 29.974h2.338l2.723 4.936-2.38-.002-2.68-4.934z" fill="#d00" fill-rule="evenodd"/><path d="M282.741 29.974h2.338l2.723 4.936-2.38-.002-2.68-4.934z" fill-rule="evenodd"/><path d="M287.718 29.974h2.337l2.723 4.936-2.38-.002-2.68-4.934z" fill="#d00" fill-rule="evenodd"/><path d="M290.058 29.974h2.338l2.723 4.936-2.38-.002-2.68-4.934z" fill-rule="evenodd"/><path d="M294.725 29.974h2.337l2.724 4.936-2.38-.002-2.68-4.934z" fill="#d00" fill-rule="evenodd"/><path d="M297.066 29.974h2.337l2.723 4.936-2.38-.002-2.68-4.934z" fill-rule="evenodd"/><path d="M302.048 29.974h2.337l2.724 4.936-2.38-.002-2.68-4.934z" fill="#d00" fill-rule="evenodd"/><path d="M304.389 29.974h2.337l2.723 4.936-2.38-.002-2.68-4.934z" fill-rule="evenodd"/><path d="M309.056 29.974h2.337l2.723 4.936-2.38-.002-2.68-4.934z" fill="#d00" fill-rule="evenodd"/><path d="M311.396 29.974h2.338l2.723 4.936-2.38-.002-2.68-4.934z" fill-rule="evenodd"/><path d="M316.124 29.974h2.337l2.724 4.936-2.38-.002-2.68-4.934z" fill="#d00" fill-rule="evenodd"/><path d="M318.465 29.974h2.337l2.723 4.936-2.38-.002-2.68-4.934z" fill-rule="evenodd"/><path d="M323.132 29.974h2.337l2.723 4.936-2.38-.002-2.68-4.934z" fill="#d00" fill-rule="evenodd"/><path d="M325.473 29.974h2.337l2.723 4.936-2.38-.002-2.68-4.934z" fill-rule="evenodd"/><path d="M330.455 29.974h2.337l2.723 4.936-2.38-.002-2.68-4.934z" fill="#d00" fill-rule="evenodd"/><path d="M332.796 29.974h2.337l2.723 4.936-2.38-.002-2.68-4.934z" fill-rule="evenodd"/><path d="M337.462 29.974h2.338l2.723 4.936-2.38-.002-2.68-4.934z" fill="#d00" fill-rule="evenodd"/><path d="M339.803 29.974h2.337l2.723 4.936-2.38-.002-2.68-4.934z" fill-rule="evenodd"/><path d="M344.525 29.974h2.337l2.723 4.936-2.38-.002-2.68-4.934z" fill="#d00" fill-rule="evenodd"/><path d="M346.865 29.974h2.338l2.723 4.936-2.38-.002-2.68-4.934z" fill-rule="evenodd"/><path d="M351.532 29.974h2.338l2.723 4.936-2.38-.002-2.68-4.934z" fill="#d00" fill-rule="evenodd"/><path d="M353.873 29.974h2.337l2.723 4.936-2.38-.002-2.68-4.934z" fill-rule="evenodd"/><path d="M358.855 29.974h2.338l2.723 4.936-2.38-.002-2.68-4.934z" fill="#d00" fill-rule="evenodd"/><path d="M361.196 29.974h2.337l2.723 4.936-2.38-.002-2.68-4.934z" fill-rule="evenodd"/><path d="M365.863 29.974h2.337l2.723 4.936-2.38-.002-2.68-4.934z" fill="#d00" fill-rule="evenodd"/><path d="M368.204 29.974h2.337l2.723 4.936-2.38-.002-2.68-4.934z" fill-rule="evenodd"/><path d="M372.931 29.974h2.338l2.723 4.936-2.38-.002-2.68-4.934z" fill="#d00" fill-rule="evenodd"/><path d="M375.272 29.974h2.337l2.724 4.936-2.381-.002-2.68-4.934z" fill-rule="evenodd"/><path d="M379.939 29.974h2.337L385 34.91l-2.38-.002-2.68-4.934z" fill="#d00" fill-rule="evenodd"/><path d="M382.28 29.974h2.337l2.723 4.936-2.38-.002-2.68-4.934z" fill-rule="evenodd"/><path d="M387.262 29.974h2.337l2.723 4.936-2.38-.002-2.68-4.934z" fill="#d00" fill-rule="evenodd"/><path d="M389.603 29.974h2.337l2.723 4.936-2.38-.002-2.68-4.934z" fill-rule="evenodd"/><path d="M394.27 29.974h2.337l2.723 4.936-2.38-.002-2.68-4.934z" fill="#d00" fill-rule="evenodd"/><path d="M396.61 29.974h2.337l2.724 4.936-2.38-.002-2.68-4.934z" fill-rule="evenodd"/><path d="M401.586 29.974h2.338l2.723 4.936-2.38-.002-2.68-4.934z" fill="#d00" fill-rule="evenodd"/><path d="M403.927 29.974h2.337l2.723 4.936-2.38-.002-2.68-4.934z" fill-rule="evenodd"/><path d="M408.594 29.974h2.337l2.723 4.936-2.38-.002-2.68-4.934z" fill="#d00" fill-rule="evenodd"/><path d="M410.935 29.974h2.337l2.723 4.936-2.38-.002-2.68-4.934z" fill-rule="evenodd"/><path d="M415.917 29.974h2.337l2.723 4.936-2.38-.002-2.68-4.934z" fill="#d00" fill-rule="evenodd"/><path d="M418.257 29.974h2.338l2.723 4.936-2.38-.002-2.68-4.934z" fill-rule="evenodd"/><path d="M422.924 29.974h2.338l2.723 4.936-2.38-.002-2.68-4.934z" fill="#d00" fill-rule="evenodd"/><path d="M425.265 29.974h2.337l2.724 4.936-2.38-.002-2.68-4.934z" fill-rule="evenodd"/><path d="M429.993 29.974h2.337l2.723 4.936-2.38-.002-2.68-4.934z" fill="#d00" fill-rule="evenodd"/><path d="M432.334 29.974h2.337l2.723 4.936-2.38-.002-2.68-4.934z" fill-rule="evenodd"/><path d="M437 29.974h2.338l2.723 4.936-2.38-.002-2.68-4.934z" fill="#d00" fill-rule="evenodd"/><path d="M439.341 29.974h2.337l2.724 4.936-2.38-.002-2.68-4.934z" fill-rule="evenodd"/><path d="M444.323 29.974h2.338l2.723 4.936-2.38-.002-2.68-4.934z" fill="#d00" fill-rule="evenodd"/><path d="M446.664 29.974h2.337l2.724 4.936-2.38-.002-2.68-4.934z" fill-rule="evenodd"/><path d="M451.33 29.974h2.338l2.723 4.936-2.38-.002-2.68-4.934z" fill="#d00" fill-rule="evenodd"/><path d="M453.672 29.974h2.337l2.723 4.936-2.38-.002-2.68-4.934z" fill-rule="evenodd"/><path d="M457.238 29.974h2.337l2.723 4.936-2.38-.002-2.68-4.934z" fill="#d00" fill-rule="evenodd"/><path d="M459.579 29.974h2.337l2.723 4.936-2.38-.002-2.68-4.934z" fill-rule="evenodd"/><path d="M464.245 29.974h2.337l2.724 4.936-2.38-.002-2.68-4.934z" fill="#d00" fill-rule="evenodd"/><path d="M466.586 29.974h2.337l2.723 4.936-2.38-.002-2.68-4.934z" fill-rule="evenodd"/><path d="M471.568 29.974h2.337l2.724 4.936-2.38-.002-2.68-4.934z" fill="#d00" fill-rule="evenodd"/><path d="M473.909 29.974h2.337l2.723 4.936-2.38-.002-2.68-4.934z" fill-rule="evenodd"/><path d="M478.576 29.974h2.337l2.723 4.936-2.38-.002-2.68-4.934z" fill="#d00" fill-rule="evenodd"/><path d="M480.916 29.974h2.338l2.723 4.936-2.38-.002-2.68-4.934z" fill-rule="evenodd"/><path d="M485.644 29.974h2.337l2.724 4.936-2.38-.002-2.68-4.934z" fill="#d00" fill-rule="evenodd"/><path d="M487.985 29.974h2.337l2.724 4.936-2.381-.002-2.68-4.934z" fill-rule="evenodd"/><path d="M492.652 29.974h2.337l2.723 4.936-2.38-.002-2.68-4.934z" fill="#d00" fill-rule="evenodd"/><path d="M494.993 29.974h2.337l2.723 4.936-2.38-.002-2.68-4.934z" fill-rule="evenodd"/><path d="M499.975 29.974h2.337l2.723 4.936-2.38-.002-2.68-4.934z" fill="#d00" fill-rule="evenodd"/><path d="M502.316 29.974h2.337l2.723 4.936-2.38-.002-2.68-4.934z" fill-rule="evenodd"/><path d="M506.982 29.974h2.338l2.723 4.936-2.38-.002-2.68-4.934z" fill="#d00" fill-rule="evenodd"/><path d="M509.323 29.974h2.337l2.723 4.936-2.38-.002-2.68-4.934z" fill-rule="evenodd"/><path d="M514.045 29.974h2.337l2.723 4.936-2.38-.002-2.68-4.934z" fill="#d00" fill-rule="evenodd"/><path d="M516.385 29.974h2.338l2.723 4.936-2.38-.002-2.68-4.934z" fill-rule="evenodd"/><path d="M521.052 29.974h2.337l2.724 4.936-2.38-.002-2.68-4.934z" fill="#d00" fill-rule="evenodd"/><path d="M523.393 29.974h2.337l2.723 4.936-2.38-.002-2.68-4.934z" fill-rule="evenodd"/><path d="M528.375 29.974h2.337l2.724 4.936-2.38-.002-2.68-4.934z" fill="#d00" fill-rule="evenodd"/><path d="M530.716 29.974h2.337l2.723 4.936-2.38-.002-2.68-4.934z" fill-rule="evenodd"/><path d="M535.383 29.974h2.337l2.723 4.936-2.38-.002-2.68-4.934z" fill="#d00" fill-rule="evenodd"/><path d="M537.723 29.974h2.338l2.723 4.936-2.38-.002-2.68-4.934z" fill-rule="evenodd"/><path d="M542.451 29.974h2.338l2.723 4.936-2.38-.002-2.68-4.934z" fill="#d00" fill-rule="evenodd"/><path d="M544.792 29.974h2.337l2.724 4.936-2.381-.002-2.68-4.934z" fill-rule="evenodd"/><path d="M549.459 29.974h2.337l2.723 4.936-2.38-.002-2.68-4.934z" fill="#d00" fill-rule="evenodd"/><path d="M551.8 29.974h2.337l2.723 4.936-2.38-.002-2.68-4.934z" fill-rule="evenodd"/><path d="M556.782 29.974h2.337l2.723 4.936-2.38-.002-2.68-4.934z" fill="#d00" fill-rule="evenodd"/><path d="M559.123 29.974h2.337l2.723 4.936-2.38-.002-2.68-4.934z" fill-rule="evenodd"/><path d="M563.79 29.974h2.337l2.723 4.936-2.38-.002-2.68-4.934z" fill="#d00" fill-rule="evenodd"/><path d="M566.13 29.974h2.337l2.724 4.936-2.38-.002-2.68-4.934z" fill-rule="evenodd"/><path d="M571.106 29.974h2.337l2.724 4.936-2.38-.002-2.68-4.934z" fill="#d00" fill-rule="evenodd"/><path d="M573.447 29.974h2.337l2.723 4.936-2.38-.002-2.68-4.934z" fill-rule="evenodd"/><path d="M578.114 29.974h2.337l2.723 4.936-2.38-.002-2.68-4.934z" fill="#d00" fill-rule="evenodd"/><path d="M580.455 29.974h2.337l2.723 4.936-2.38-.002-2.68-4.934z" fill-rule="evenodd"/><path d="M585.437 29.974h2.337l2.723 4.936-2.38-.002-2.68-4.934z" fill="#d00" fill-rule="evenodd"/><path d="M587.778 29.974h2.337l2.723 4.936-2.38-.002-2.68-4.934z" fill-rule="evenodd"/><path d="M592.444 29.974h2.338l2.723 4.936-2.38-.002-2.68-4.934z" fill="#d00" fill-rule="evenodd"/><path d="M594.785 29.974h2.337l2.724 4.936-2.381-.002-2.68-4.934z" fill-rule="evenodd"/><path d="M599.513 29.974h2.337l2.723 4.936-2.38-.002-2.68-4.934z" fill="#d00" fill-rule="evenodd"/><path d="M601.854 29.974h2.337l2.723 4.936-2.38-.002-2.68-4.934z" fill-rule="evenodd"/><path d="M606.52 29.974h2.338l2.723 4.936-2.38-.002-2.68-4.934z" fill="#d00" fill-rule="evenodd"/><path d="M608.861 29.974h2.337l2.724 4.936-2.38-.002-2.68-4.934z" fill-rule="evenodd"/><path d="M613.843 29.974h2.338l2.723 4.936-2.38-.002-2.68-4.934z" fill="#d00" fill-rule="evenodd"/><path d="M616.184 29.974h2.337l2.724 4.936-2.38-.002-2.68-4.934zM632.656 625.043h3.514v4.952h-3.01l-.504-4.952z" fill-rule="evenodd"/><path d="M620.643 29.973h2.337l2.723 4.936-2.38-.002-2.68-4.934z" fill="#d00" fill-rule="evenodd"/><path d="M622.984 29.973h2.337l2.723 4.936-2.38-.002-2.68-4.934z" fill-rule="evenodd"/><path d="M627.915 29.973h2.337l2.723 4.936-2.38-.002-2.68-4.934z" fill="#d00" fill-rule="evenodd"/><path d="M630.256 29.973h2.337l2.723 4.936-2.38-.002-2.68-4.934z" fill-rule="evenodd"/><path fill="#ffc709" fill-rule="evenodd" d="M631.196 34.911v590.143h4.942V34.911z"/><path d="M631.202 34.976v2.337l4.936 2.724-.002-2.38-4.934-2.68z" fill="#d00" fill-rule="evenodd"/><path d="M631.202 37.317v2.337l4.936 2.723-.002-2.38-4.934-2.68z" fill-rule="evenodd"/><path d="M631.202 41.984v2.337l4.936 2.723-.002-2.38-4.934-2.68z" fill="#d00" fill-rule="evenodd"/><path d="M631.202 44.324v2.338l4.936 2.723-.002-2.38-4.934-2.68z" fill-rule="evenodd"/><path d="M631.202 49.3v2.338l4.936 2.723-.002-2.38-4.934-2.68z" fill="#d00" fill-rule="evenodd"/><path d="M631.202 51.641v2.338l4.936 2.723-.002-2.38-4.934-2.68z" fill-rule="evenodd"/><path d="M631.202 56.308v2.337l4.936 2.723-.002-2.38-4.934-2.68z" fill="#d00" fill-rule="evenodd"/><path d="M631.202 58.649v2.337l4.936 2.723-.002-2.38-4.934-2.68z" fill-rule="evenodd"/><path d="M631.202 63.631v2.337l4.936 2.723-.002-2.38-4.934-2.68z" fill="#d00" fill-rule="evenodd"/><path d="M631.202 65.972v2.337l4.936 2.723-.002-2.38-4.934-2.68z" fill-rule="evenodd"/><path d="M631.202 70.639v2.337l4.936 2.723-.002-2.38-4.934-2.68z" fill="#d00" fill-rule="evenodd"/><path d="M631.202 72.98v2.337l4.936 2.723-.002-2.38-4.934-2.68z" fill-rule="evenodd"/><path d="M631.202 77.707v2.337l4.936 2.724-.002-2.38-4.934-2.68z" fill="#d00" fill-rule="evenodd"/><path d="M631.202 80.048v2.337l4.936 2.723-.002-2.38-4.934-2.68z" fill-rule="evenodd"/><path d="M631.202 84.715v2.337l4.936 2.723-.002-2.38-4.934-2.68z" fill="#d00" fill-rule="evenodd"/><path d="M631.202 87.055v2.338l4.936 2.723-.002-2.38-4.934-2.68z" fill-rule="evenodd"/><path d="M631.202 92.038v2.337l4.936 2.723-.002-2.38-4.934-2.68z" fill="#d00" fill-rule="evenodd"/><path d="M631.202 94.378v2.338l4.936 2.723-.002-2.38-4.934-2.68z" fill-rule="evenodd"/><path d="M631.202 99.045v2.337l4.936 2.724-.002-2.38-4.934-2.68z" fill="#d00" fill-rule="evenodd"/><path d="M631.202 101.386v2.337l4.936 2.723-.002-2.38-4.934-2.68z" fill-rule="evenodd"/><path d="M631.202 106.108v2.337l4.936 2.723-.002-2.38-4.934-2.68z" fill="#d00" fill-rule="evenodd"/><path d="M631.202 108.448v2.338l4.936 2.723-.002-2.38-4.934-2.68z" fill-rule="evenodd"/><path d="M631.202 113.115v2.337l4.936 2.723-.002-2.38-4.934-2.68z" fill="#d00" fill-rule="evenodd"/><path d="M631.202 115.456v2.337l4.936 2.723-.002-2.38-4.934-2.68z" fill-rule="evenodd"/><path d="M631.202 120.438v2.337l4.936 2.723-.002-2.38-4.934-2.68z" fill="#d00" fill-rule="evenodd"/><path d="M631.202 122.779v2.337l4.936 2.723-.002-2.38-4.934-2.68z" fill-rule="evenodd"/><path d="M631.202 127.446v2.337l4.936 2.723-.002-2.38-4.934-2.68z" fill="#d00" fill-rule="evenodd"/><path d="M631.202 129.786v2.338l4.936 2.723-.002-2.38-4.934-2.68z" fill-rule="evenodd"/><path d="M631.202 134.514v2.337l4.936 2.724-.002-2.38-4.934-2.68z" fill="#d00" fill-rule="evenodd"/><path d="M631.202 136.855v2.337l4.936 2.723-.002-2.38-4.934-2.68z" fill-rule="evenodd"/><path d="M631.202 141.522v2.337l4.936 2.723-.002-2.38-4.934-2.68z" fill="#d00" fill-rule="evenodd"/><path d="M631.202 143.862v2.338l4.936 2.723-.002-2.38-4.934-2.68z" fill-rule="evenodd"/><path d="M631.202 148.845v2.337l4.936 2.723-.002-2.38-4.934-2.68z" fill="#d00" fill-rule="evenodd"/><path d="M631.202 151.185v2.338l4.936 2.723-.002-2.38-4.934-2.68z" fill-rule="evenodd"/><path d="M631.202 155.852v2.337l4.936 2.724-.002-2.38-4.934-2.68z" fill="#d00" fill-rule="evenodd"/><path d="M631.202 158.193v2.337l4.936 2.723-.002-2.38-4.934-2.68z" fill-rule="evenodd"/><path d="M631.202 163.169v2.337l4.936 2.723-.002-2.38-4.934-2.68z" fill="#d00" fill-rule="evenodd"/><path d="M631.202 165.51v2.337l4.936 2.723-.002-2.38-4.934-2.68z" fill-rule="evenodd"/><path d="M631.202 170.177v2.337l4.936 2.723-.002-2.38-4.934-2.68z" fill="#d00" fill-rule="evenodd"/><path d="M631.202 172.517v2.338l4.936 2.723-.002-2.38-4.934-2.68z" fill-rule="evenodd"/><path d="M631.202 177.5v2.337l4.936 2.723-.002-2.38-4.934-2.68z" fill="#d00" fill-rule="evenodd"/><path d="M631.202 179.84v2.338l4.936 2.723-.002-2.38-4.934-2.68z" fill-rule="evenodd"/><path d="M631.202 184.507v2.337l4.936 2.724-.002-2.381-4.934-2.68z" fill="#d00" fill-rule="evenodd"/><path d="M631.202 186.848v2.337l4.936 2.723-.002-2.38-4.934-2.68z" fill-rule="evenodd"/><path d="M631.202 191.576v2.337l4.936 2.723-.002-2.38-4.934-2.68z" fill="#d00" fill-rule="evenodd"/><path d="M631.202 193.916v2.338l4.936 2.723-.002-2.38-4.934-2.68z" fill-rule="evenodd"/><path d="M631.202 198.583v2.337l4.936 2.724-.002-2.38-4.934-2.68z" fill="#d00" fill-rule="evenodd"/><path d="M631.202 200.924v2.337l4.936 2.723-.002-2.38-4.934-2.68z" fill-rule="evenodd"/><path d="M631.202 205.906v2.337l4.936 2.724-.002-2.38-4.934-2.68z" fill="#d00" fill-rule="evenodd"/><path d="M631.202 208.247v2.337l4.936 2.723-.002-2.38-4.934-2.68z" fill-rule="evenodd"/><path d="M631.202 212.914v2.337l4.936 2.723-.002-2.38-4.934-2.68z" fill="#d00" fill-rule="evenodd"/><path d="M631.202 215.255v2.337l4.936 2.723-.002-2.38-4.934-2.68z" fill-rule="evenodd"/><path d="M631.202 220.186v2.337l4.936 2.723-.002-2.38-4.934-2.68z" fill="#d00" fill-rule="evenodd"/><path d="M631.202 222.527v2.337l4.936 2.723-.002-2.38-4.934-2.68z" fill-rule="evenodd"/><path d="M631.202 227.193v2.338l4.936 2.723-.002-2.38-4.934-2.68z" fill="#d00" fill-rule="evenodd"/><path d="M631.202 229.534v2.337l4.936 2.724-.002-2.381-4.934-2.68z" fill-rule="evenodd"/><path d="M631.202 234.516v2.338l4.936 2.723-.002-2.38-4.934-2.68z" fill="#d00" fill-rule="evenodd"/><path d="M631.202 236.857v2.337l4.936 2.723-.002-2.38-4.934-2.68z" fill-rule="evenodd"/><path d="M631.202 241.524v2.337l4.936 2.723-.002-2.38-4.934-2.68z" fill="#d00" fill-rule="evenodd"/><path d="M631.202 243.865v2.337l4.936 2.723-.002-2.38-4.934-2.68z" fill-rule="evenodd"/><path d="M631.202 248.592v2.338l4.936 2.723-.002-2.38-4.934-2.68z" fill="#d00" fill-rule="evenodd"/><path d="M631.202 250.933v2.337l4.936 2.724-.002-2.38-4.934-2.68z" fill-rule="evenodd"/><path d="M631.202 255.6v2.337l4.936 2.723-.002-2.38-4.934-2.68z" fill="#d00" fill-rule="evenodd"/><path d="M631.202 257.94v2.338l4.936 2.723-.002-2.38-4.934-2.68z" fill-rule="evenodd"/><path d="M631.202 262.923v2.337l4.936 2.723-.002-2.38-4.934-2.68z" fill="#d00" fill-rule="evenodd"/><path d="M631.202 265.264v2.337l4.936 2.723-.002-2.38-4.934-2.68z" fill-rule="evenodd"/><path d="M631.202 269.93v2.338l4.936 2.723-.002-2.38-4.934-2.68z" fill="#d00" fill-rule="evenodd"/><path d="M631.202 272.271v2.338l4.936 2.723-.002-2.38-4.934-2.68z" fill-rule="evenodd"/><path d="M631.202 277.247v2.338l4.936 2.723-.002-2.38-4.934-2.68z" fill="#d00" fill-rule="evenodd"/><path d="M631.202 279.588v2.337l4.936 2.723-.002-2.38-4.934-2.68z" fill-rule="evenodd"/><path d="M631.202 284.255v2.337l4.936 2.723-.002-2.38-4.934-2.68z" fill="#d00" fill-rule="evenodd"/><path d="M631.202 286.596v2.337l4.936 2.723-.002-2.38-4.934-2.68z" fill-rule="evenodd"/><path d="M631.202 291.578v2.337l4.936 2.723-.002-2.38-4.934-2.68z" fill="#d00" fill-rule="evenodd"/><path d="M631.202 293.919v2.337l4.936 2.723-.002-2.38-4.934-2.68z" fill-rule="evenodd"/><path d="M631.202 298.585v2.338l4.936 2.723-.002-2.38-4.934-2.68z" fill="#d00" fill-rule="evenodd"/><path d="M631.202 300.926v2.337l4.936 2.724-.002-2.381-4.934-2.68z" fill-rule="evenodd"/><path d="M631.202 305.654v2.337l4.936 2.723-.002-2.38-4.934-2.68z" fill="#d00" fill-rule="evenodd"/><path d="M631.202 307.995v2.337l4.936 2.723-.002-2.38-4.934-2.68z" fill-rule="evenodd"/><path d="M631.202 312.661V315l4.936 2.723-.002-2.38-4.934-2.68z" fill="#d00" fill-rule="evenodd"/><path d="M631.202 315.002v2.338l4.936 2.723-.002-2.38-4.934-2.68z" fill-rule="evenodd"/><path d="M631.202 319.984v2.338l4.936 2.723-.002-2.38-4.934-2.68z" fill="#d00" fill-rule="evenodd"/><path d="M631.202 322.325v2.337l4.936 2.724-.002-2.38-4.934-2.68z" fill-rule="evenodd"/><path d="M631.202 326.992v2.337l4.936 2.723-.002-2.38-4.934-2.68z" fill="#d00" fill-rule="evenodd"/><path d="M631.202 329.333v2.337l4.936 2.723-.002-2.38-4.934-2.68z" fill-rule="evenodd"/><path d="M631.202 334.054v2.338l4.936 2.723-.002-2.38-4.934-2.68z" fill="#d00" fill-rule="evenodd"/><path d="M631.202 336.395v2.337l4.936 2.724-.002-2.38-4.934-2.68z" fill-rule="evenodd"/><path d="M631.202 341.062v2.337l4.936 2.723-.002-2.38-4.934-2.68z" fill="#d00" fill-rule="evenodd"/><path d="M631.202 343.403v2.337l4.936 2.723-.002-2.38-4.934-2.68z" fill-rule="evenodd"/><path d="M631.202 348.385v2.337l4.936 2.723-.002-2.38-4.934-2.68z" fill="#d00" fill-rule="evenodd"/><path d="M631.202 350.726v2.337l4.936 2.723-.002-2.38-4.934-2.68z" fill-rule="evenodd"/><path d="M631.202 355.392v2.338l4.936 2.723-.002-2.38-4.934-2.68z" fill="#d00" fill-rule="evenodd"/><path d="M631.202 357.733v2.337l4.936 2.724-.002-2.38-4.934-2.68z" fill-rule="evenodd"/><path d="M631.202 362.46v2.338l4.936 2.723-.002-2.38-4.934-2.68z" fill="#d00" fill-rule="evenodd"/><path d="M631.202 364.802v2.337l4.936 2.723-.002-2.38-4.934-2.68z" fill-rule="evenodd"/><path d="M631.202 369.469v2.337l4.936 2.723-.002-2.38-4.934-2.68z" fill="#d00" fill-rule="evenodd"/><path d="M631.202 371.81v2.337l4.936 2.723-.002-2.38-4.934-2.68z" fill-rule="evenodd"/><path d="M631.202 376.791v2.338l4.936 2.723-.002-2.38-4.934-2.68z" fill="#d00" fill-rule="evenodd"/><path d="M631.202 379.132v2.338l4.936 2.723-.002-2.38-4.934-2.68z" fill-rule="evenodd"/><path d="M631.202 383.799v2.337l4.936 2.723-.002-2.38-4.934-2.68z" fill="#d00" fill-rule="evenodd"/><path d="M631.202 386.14v2.337l4.936 2.723-.002-2.38-4.934-2.68z" fill-rule="evenodd"/><path d="M631.202 391.116v2.337l4.936 2.723-.002-2.38-4.934-2.68z" fill="#d00" fill-rule="evenodd"/><path d="M631.202 393.457v2.337l4.936 2.723-.002-2.38-4.934-2.68z" fill-rule="evenodd"/><path d="M631.202 398.123v2.338l4.936 2.723-.002-2.38-4.934-2.68z" fill="#d00" fill-rule="evenodd"/><path d="M631.202 400.464v2.337l4.936 2.724-.002-2.38-4.934-2.68z" fill-rule="evenodd"/><path d="M631.202 405.446v2.338l4.936 2.723-.002-2.38-4.934-2.68z" fill="#d00" fill-rule="evenodd"/><path d="M631.202 407.787v2.337l4.936 2.724-.002-2.38-4.934-2.68z" fill-rule="evenodd"/><path d="M631.202 412.454v2.337l4.936 2.723-.002-2.38-4.934-2.68z" fill="#d00" fill-rule="evenodd"/><path d="M631.202 414.795v2.337l4.936 2.723-.002-2.38-4.934-2.68z" fill-rule="evenodd"/><path d="M631.202 419.522v2.338l4.936 2.723-.002-2.38-4.934-2.68z" fill="#d00" fill-rule="evenodd"/><path d="M631.202 421.863v2.338l4.936 2.723-.002-2.38-4.934-2.68z" fill-rule="evenodd"/><path d="M631.202 426.53v2.337l4.936 2.723-.002-2.38-4.934-2.68z" fill="#d00" fill-rule="evenodd"/><path d="M631.202 428.87v2.338l4.936 2.723-.002-2.38-4.934-2.68z" fill-rule="evenodd"/><path d="M631.202 433.853v2.337l4.936 2.723-.002-2.38-4.934-2.68z" fill="#d00" fill-rule="evenodd"/><path d="M631.202 436.194v2.337l4.936 2.723-.002-2.38-4.934-2.68z" fill-rule="evenodd"/><path d="M631.202 440.86v2.338l4.936 2.723-.002-2.38-4.934-2.68z" fill="#d00" fill-rule="evenodd"/><path d="M631.202 443.201v2.338l4.936 2.723-.002-2.38-4.934-2.68z" fill-rule="evenodd"/><path d="M631.202 446.767v2.338l4.936 2.723-.002-2.38-4.934-2.68z" fill="#d00" fill-rule="evenodd"/><path d="M631.202 449.108v2.337l4.936 2.723-.002-2.38-4.934-2.68z" fill-rule="evenodd"/><path d="M631.202 453.775v2.337l4.936 2.723-.002-2.38-4.934-2.68z" fill="#d00" fill-rule="evenodd"/><path d="M631.202 456.116v2.337l4.936 2.723-.002-2.38-4.934-2.68z" fill-rule="evenodd"/><path d="M631.202 461.098v2.337l4.936 2.723-.002-2.38-4.934-2.68z" fill="#d00" fill-rule="evenodd"/><path d="M631.202 463.439v2.337l4.936 2.723-.002-2.38-4.934-2.68z" fill-rule="evenodd"/><path d="M631.202 468.105v2.338l4.936 2.723-.002-2.38-4.934-2.68z" fill="#d00" fill-rule="evenodd"/><path d="M631.202 470.446v2.337l4.936 2.724-.002-2.38-4.934-2.68z" fill-rule="evenodd"/><path d="M631.202 475.174v2.337l4.936 2.723-.002-2.38-4.934-2.68z" fill="#d00" fill-rule="evenodd"/><path d="M631.202 477.515v2.337l4.936 2.723-.002-2.38-4.934-2.68z" fill-rule="evenodd"/><path d="M631.202 482.181v2.338l4.936 2.723-.002-2.38-4.934-2.68z" fill="#d00" fill-rule="evenodd"/><path d="M631.202 484.522v2.337l4.936 2.724-.002-2.38-4.934-2.68z" fill-rule="evenodd"/><path d="M631.202 489.504v2.338l4.936 2.723-.002-2.38-4.934-2.68z" fill="#d00" fill-rule="evenodd"/><path d="M631.202 491.845v2.337l4.936 2.724-.002-2.38-4.934-2.68z" fill-rule="evenodd"/><path d="M631.202 496.512v2.337l4.936 2.723-.002-2.38-4.934-2.68z" fill="#d00" fill-rule="evenodd"/><path d="M631.202 498.853v2.337l4.936 2.723-.002-2.38-4.934-2.68z" fill-rule="evenodd"/><path d="M631.202 503.574v2.338l4.936 2.723-.002-2.38-4.934-2.68z" fill="#d00" fill-rule="evenodd"/><path d="M631.202 505.915v2.337l4.936 2.724-.002-2.381-4.934-2.68z" fill-rule="evenodd"/><path d="M631.202 510.582v2.337l4.936 2.723-.002-2.38-4.934-2.68z" fill="#d00" fill-rule="evenodd"/><path d="M631.202 512.923v2.337l4.936 2.723-.002-2.38-4.934-2.68z" fill-rule="evenodd"/><path d="M631.202 517.905v2.337l4.936 2.723-.002-2.38-4.934-2.68z" fill="#d00" fill-rule="evenodd"/><path d="M631.202 520.246v2.337l4.936 2.723-.002-2.38-4.934-2.68z" fill-rule="evenodd"/><path d="M631.202 524.912v2.338l4.936 2.723-.002-2.38-4.934-2.68z" fill="#d00" fill-rule="evenodd"/><path d="M631.202 527.253v2.337l4.936 2.724-.002-2.38-4.934-2.68z" fill-rule="evenodd"/><path d="M631.202 531.98v2.338l4.936 2.723-.002-2.38-4.934-2.68z" fill="#d00" fill-rule="evenodd"/><path d="M631.202 534.322v2.337l4.936 2.723-.002-2.38-4.934-2.68z" fill-rule="evenodd"/><path d="M631.202 538.988v2.338l4.936 2.723-.002-2.38-4.934-2.68z" fill="#d00" fill-rule="evenodd"/><path d="M631.202 541.33v2.337l4.936 2.723-.002-2.38-4.934-2.68z" fill-rule="evenodd"/><path d="M631.202 546.311v2.338l4.936 2.723-.002-2.38-4.934-2.68z" fill="#d00" fill-rule="evenodd"/><path d="M631.202 548.652v2.338l4.936 2.723-.002-2.38-4.934-2.68z" fill-rule="evenodd"/><path d="M631.202 553.319v2.337l4.936 2.723-.002-2.38-4.934-2.68z" fill="#d00" fill-rule="evenodd"/><path d="M631.202 555.66v2.337l4.936 2.723-.002-2.38-4.934-2.68z" fill-rule="evenodd"/><path d="M631.202 560.636v2.337l4.936 2.723-.002-2.38-4.934-2.68z" fill="#d00" fill-rule="evenodd"/><path d="M631.202 562.977v2.337l4.936 2.723-.002-2.38-4.934-2.68z" fill-rule="evenodd"/><path d="M631.202 567.643v2.338l4.936 2.723-.002-2.38-4.934-2.68z" fill="#d00" fill-rule="evenodd"/><path d="M631.202 569.984v2.337l4.936 2.724-.002-2.38-4.934-2.68z" fill-rule="evenodd"/><path d="M631.202 574.966v2.338l4.936 2.723-.002-2.38-4.934-2.68z" fill="#d00" fill-rule="evenodd"/><path d="M631.202 577.307v2.337l4.936 2.724-.002-2.38-4.934-2.68z" fill-rule="evenodd"/><path d="M631.202 581.974v2.337l4.936 2.723-.002-2.38-4.934-2.68z" fill="#d00" fill-rule="evenodd"/><path d="M631.202 584.315v2.337l4.936 2.723-.002-2.38-4.934-2.68z" fill-rule="evenodd"/><path d="M631.202 589.042v2.338l4.936 2.723-.002-2.38-4.934-2.68z" fill="#d00" fill-rule="evenodd"/><path d="M631.202 591.383v2.338l4.936 2.723-.002-2.38-4.934-2.68z" fill-rule="evenodd"/><path d="M631.202 596.05v2.337l4.936 2.723-.002-2.38-4.934-2.68z" fill="#d00" fill-rule="evenodd"/><path d="M631.202 598.39v2.338l4.936 2.723-.002-2.38-4.934-2.68z" fill-rule="evenodd"/><path d="M631.202 603.373v2.337l4.936 2.723-.002-2.38-4.934-2.68z" fill="#d00" fill-rule="evenodd"/><path d="M631.202 605.714v2.337l4.936 2.723-.002-2.38-4.934-2.68z" fill-rule="evenodd"/><path d="M631.202 610.38v2.338l4.936 2.723-.002-2.38-4.934-2.68z" fill="#d00" fill-rule="evenodd"/><path d="M631.202 612.721v2.338l4.936 2.723-.002-2.38-4.934-2.68z" fill-rule="evenodd"/><path d="M631.202 617.653v2.337l4.936 2.723-.002-2.38-4.934-2.68z" fill="#d00" fill-rule="evenodd"/><path d="M631.202 619.993v2.338l4.936 2.723-.002-2.38-4.934-2.68z" fill-rule="evenodd"/><path d="M428.947 365.607V188.48H210.534v177.127c0 57.006 56.315 105.869 109.205 105.869 52.892 0 109.208-48.863 109.208-105.87z" fill="#ffce00" fill-rule="evenodd" stroke="#000" stroke-width="4.067"/><path d="M280.905 384.897c-.28-2.015-7.839.477-5.228 2.3 3.973 2.784.432 5.557.61 8.703 5.181-2.924 5.165-7.073 4.618-11.003zm-26.66 17.607c-.032-2.034 7.821-.739 5.522 1.468-3.498 3.361.424 5.554.73 8.691-5.565-2.09-6.187-6.19-6.252-10.159zm-20.375-11.782c1.02-1.757 7.073 3.42 3.969 4.119-4.729 1.065-2.503 4.974-3.856 7.818-3.688-4.675-2.106-8.506-.113-11.937zm3.42-17.004c1.953-.554 2.718 7.386 0 5.725-4.14-2.527-5.246 1.836-8.192 2.938.587-5.93 4.382-7.582 8.192-8.663z" fill-rule="evenodd" stroke="#000" stroke-width="2.034"/><path d="M289.071 356.036c-11.928 9.27-22.015 14.16-28.113 15.815-5.814 1.576-10.35 1.376-20.92-.336-4.234-.684-3.524 3.062-3.29 5.803.272 3.176-3.782 5.51 9.098 4.035-3.392 3.367-12.277 4.458-13 8.964-.201 1.262 1.777.7 2.151 1.82.802 2.41.646 4.37 3.766 4.094 8.08-4.224 12.79-6.468 14.244-9.589-.386 6.181-2.425 13.279-.427 17.26.986 1.955 2.757-.683 4.47-.667 1.395.012 2.754 3.003 3.611 1.733 4.84-7.177-.528-17.514 5.952-23.864 2.864 3.63 7.47 12.863 8.503 8.948 1.148-4.34 3.539-5.578 6.517-5.564 2.535.01-4.937-4.99-8.004-7.645 9.37-5.886 19.381-12.596 20.821-15.074" fill="#d00000" fill-rule="evenodd" stroke="#000" stroke-width="2.034" stroke-linecap="round" stroke-linejoin="round"/><path d="M401.642 373.718c-1.952-.554-2.718 7.386 0 5.725 4.14-2.527 5.247 1.836 8.193 2.938-.587-5.93-4.382-7.582-8.193-8.663zm3.421 17.004c-1.02-1.757-7.073 3.42-3.97 4.119 4.732 1.065 2.503 4.974 3.856 7.818 3.691-4.675 2.107-8.506.116-11.937zm-20.378 11.782c.035-2.034-7.816-.739-5.519 1.468 3.498 3.361-.424 5.554-.731 8.691 5.566-2.09 6.187-6.19 6.252-10.159zm-26.658-17.607c.28-2.015 7.841.477 5.231 2.3-3.975 2.784-.435 5.557-.613 8.703-5.18-2.924-5.164-7.073-4.618-11.003z" fill-rule="evenodd" stroke="#000" stroke-width="2.034"/><path d="M350.164 356.036c11.924 9.27 21.713 14.16 27.813 15.815 5.81 1.576 10.348 1.376 20.917-.336 4.235-.684 3.524 3.062 3.29 5.803-.272 3.176 3.783 5.51-9.098 4.035 3.393 3.367 12.28 4.458 13 8.964.202 1.262-1.777.7-2.15 1.82-.803 2.41-.646 4.37-3.767 4.094-8.08-4.224-12.789-6.468-14.243-9.589.386 6.181 2.425 13.279.426 17.26-.985 1.955-2.756-.683-4.469-.667-1.395.012-2.754 3.003-3.611 1.733-4.839-7.177.528-17.514-5.952-23.864-2.864 3.63-7.47 12.863-8.503 8.948-1.148-4.34-3.539-5.578-6.517-5.564-2.535.01 4.936-4.99 8.004-7.645-9.371-5.886-20.584-13.498-22.024-15.978" fill="#d00000" fill-rule="evenodd" stroke="#000" stroke-width="2.034" stroke-linecap="round" stroke-linejoin="round"/><path d="M354.793 249.828c2.222-5.066 4.502-10.124 10.648-14.628-9.992-14.554 10.436-20.451 20.184-17.676 7.658 2.18 15.311 8.645 27.277 14.628-2.9 30.584 3.8 63.636 7.605 91.427l-13.475-5.575-6.3-48.976c-.779-6.246-6.905-8.772-5.172 3.961l12.778 93.85-14.655-3.925-9.38-82c-.77-7.222-6.88-3.543-6.388 1.523l7.91 81.37-12.17-4.876-6.084-73.751c-.32-3.888-6.862-6.497-6.389 1.523l3.651 61.866-7.91-7.01-2.738-51.503c-.281-5.284-6.824-2.69-6.64 2.438l1.468 41.142-8.214-7.314-.913-21.333c-.317-7.408-3.644-5.826-4.437-.431-1.244 8.45-3.821 22.113-.29 26.03 6.585 7.305 17.61 16.081 30.565 24.411 4.454 2.864-11.114 3.967-16.711 1.798.373 9.508-1.09 19.19-2.523 16.703-5.443-9.448-9.318-17.75-17.556-23.103-.083 12.147 7.603 22.663 20.672 33.524-4.436 2.418-9.64 2.59-14.32 2.884 7.182 6.916 11.999 7.878 21.548 7.188l-.215 6.384c8.387 2.172 10.691 8 7.606 17.067-2.112-5.74-5.59-9.692-10.27-5.917 1.172 13.973-18.085-8.135-26.438-11.654 1.786 12.295 8.037 18.832 20.494 24.097-4.75 5.273-13.87 8.207-19.686 4.14 1.998 14.533-1.46 21.135-13.17 26.499 4.704-12.462-8.128-13.794-6.13-28.327-5.816 4.067-12.806 2.961-17.556-2.312 12.456-5.265 18.708-11.802 20.494-24.097-8.353 3.52-27.61 25.627-26.438 11.654-4.68-3.775-8.158.176-10.27 5.917-3.085-9.067-.78-14.895 7.606-17.066l-.215-6.385c9.549.69 14.365-.272 21.548-7.188-4.68-.295-9.884-.466-14.32-2.884 13.069-10.86 20.755-21.377 20.672-33.524-8.238 5.353-12.113 13.655-17.556 23.103-1.433 2.488-2.896-7.195-2.523-16.703-5.597 2.169-21.165 1.066-16.711-1.798 12.956-8.33 23.98-17.106 30.564-24.41 3.532-3.918.955-17.582-.289-26.031-.794-5.395-4.12-6.977-4.437.43l-.913 21.334-8.214 7.314 1.469-41.142c.183-5.127-6.36-7.722-6.641-2.438l-2.738 51.504-7.91 7.009 3.65-61.866c.474-8.02-6.068-5.411-6.388-1.523l-6.085 73.75-12.17 4.877 7.91-81.37c.493-5.066-5.618-8.745-6.388-1.524l-9.379 82.001-14.655 3.925 12.777-93.85c1.734-12.733-4.392-10.207-5.171-3.961l-6.3 48.976-13.476 5.575c3.807-27.791 10.507-60.843 7.606-91.427 11.966-5.983 19.619-12.448 27.277-14.628 9.748-2.775 30.176 3.122 20.183 17.676 6.147 4.504 8.427 9.562 10.648 14.628 7.527-.245 11.32 1.648 14.908 3.657 3.408-4.953 9.338-10.774 12.746-21.067 3.395-2.702 4.985-4.646 8.38-3.337-2.962-4.964-7.199-16.973-10.578-22.909-2.756-4.842-3.339-5.213-6.008-7.243 14.917-6.373 23.624 3.18 38.841 2.36-2.917 2.414-2.1 3.322-8.97 5.736 7.642 1.27 5.572 13.774 5.972 21.484.422 8.107 5.932 17.451-.09 24.976 3.587-2.01 7.38-3.902 14.906-3.657z" fill-rule="evenodd" stroke="#000" stroke-width="2.034" stroke-linecap="round" stroke-linejoin="round"/><path d="M307.552 202.045c4.512 6.556 9.05 16.922 11.36 25.383-1.903 2.62-6.336 5.392-11.601 6.029-3.965.479-8.97-2.498-9.458-5.145 7.226 1.15 14.288 1.4 21.058-.884-9.095 3.556-29.242 1.483-32.705-4.723 13.086 2.205 25.586 2.966 27.449-.685-4.88-9.046-16.767-11.34-22.548-4.742-.315-10.532 3.422-17.252 16.445-15.233z" fill="#d00000" fill-rule="evenodd" stroke="#000" stroke-width="2.038" stroke-linecap="round" stroke-linejoin="round"/><path d="M313.807 202.113c.634 2.209.252 4.418 2.704 6.629 1.869-1.977 4.215-3.003 6.463-4.219-3.057-2.24-6.114-2.07-9.169-2.41z" fill="#fff" fill-rule="evenodd" stroke="#000" stroke-width=".61"/></svg>