<svg height="128.1528mm" viewBox="0 0 182.26845 128.1528" width="182.26845mm" xmlns="http://www.w3.org/2000/svg"><g stroke-linecap="round" stroke-linejoin="round" transform="translate(-13.473919 -28.25061)"><path d="m13.473919-156.40341h182.26845v128.1528h-182.26845z" fill="#01a0c7" stroke-width="9.84492" transform="scale(1 -1)"/><g fill="#fff" stroke-width=".1"><path d="m19.061231 54.760919c35.867908 3.146845 60.06621-5.207851 92.787059-12.029866 30.93827-6.450362 47.18748-7.725812 78.00486 12.84449-30.31688-5.780184-45.26762-1.835917-87.34647 6.478029-16.412135 3.242713-28.902203 7.238311-40.505833 7.898794-14.85899.845779-34.623268-7.150188-42.939616-15.191447z"/><path d="m19.736 126.471c35.151382 6.81905 60.06621-2.67455 92.78706-9.49657 30.93827-6.45036 41.89892-10.36922 78.00486 13.73115-27.15025-6.79351-56.08864-2.17354-86.96647 6.54136-5.805181 1.63844-26.481152 6.25215-40.885834 6.25215-12.784257 0-34.623268-8.98683-42.939616-17.02809z"/><path d="m145.12137 62.371903c-14.73374-.02059-29.38028 3.894842-44.88459 6.946347-32.087498 6.315348-50.427181 13.032265-80.500517 5.367631 5.607732 10.779142 24.405554 18.931555 42.116292 17.923453.795156-.04526 1.59737-.09995 2.405021-.160713l5.118551 11.375019c-12.380727 2.30691-24.622476 3.1825-50.315275 1.49345 9.154351 8.11917 32.197843 16.20045 49.908582 15.19235 11.603618-.66048 16.630852-2.13044 34.233566-6.03477 45.88641-10.17774 57.22882-12.23963 86.65001-7.35511-13.81987-14.320507-29.93415-17.804071-46.70257-17.022734l-5.19814-11.552266c22.084-4.17352 30.8507-3.645954 52.57561.496093-15.85201-12.691774-30.6728-16.648158-45.40654-16.66875zm-26.29348 20.131071 4.52582 10.057784c-7.98324 1.460052-15.97029 3.296372-23.792345 4.835881-4.114072.809717-7.764361 1.585741-11.12697 2.322856l-4.460193-9.912574c5.968303-1.068584 12.509156-2.414654 19.904208-4.037996 5.57017-1.222747 10.37842-2.275485 14.94948-3.265951z"/></g></g></svg>