<svg xmlns="http://www.w3.org/2000/svg" width="900" height="600"><path fill="#fff" d="M0 0h900v600H0z"/><path fill="#063" d="M0 0h450v600H0z"/><path d="M120.0448 60.15c-5.4664 0-9.8974 4.4292-9.8974 9.8955 0 5.465 4.431 9.8954 9.8974 9.8954 5.4662 0 9.8974-4.4303 9.8974-9.8954 0-5.4663-4.4312-9.8955-9.8974-9.8955zm0 3.195c3.7018 0 6.7024 2.9995 6.7024 6.7005 0 3.6997-3.0006 6.7004-6.7024 6.7004-3.7008 0-6.7024-3.0007-6.7024-6.7004 0-3.701 3.0016-6.7005 6.7024-6.7005zM139.9412 60.15c-5.4662 0-9.8974 4.4303-9.8974 9.8955 0 5.4662 4.4312 9.8954 9.8974 9.8954 5.4664 0 9.8974-4.4292 9.8974-9.8954 0-5.4652-4.431-9.8955-9.8974-9.8955zm0 3.195c3.7018 0 6.7024 3.0007 6.7024 6.7005 0 3.7009-3.0006 6.7004-6.7024 6.7004-3.7007 0-6.7025-2.9995-6.7025-6.7004 0-3.6998 3.0018-6.7005 6.7025-6.7005zM175.3914 145.218a33.2218 33.2218 0 0 0 14.4241-19.4403 14.0045 14.0045 0 0 1 10.011 1.2199c1.5572-16.8314-7.7527-32.792-23.1724-39.726 6.3263 12.094 5.2031 26.7342-2.8926 37.7212 3.575 1.4562 7.6399 1.0442 10.851-1.099-.8092 6.3836-4.5487 12.0254-10.1138 15.2576-3.4495 2.0045-7.8695.8776-9.9394-2.5332l-30.2208-49.8113a220.0279 220.0279 0 0 1-6.9216 3.996l28.0372 51.071c1.9202 3.4976.6863 7.8876-2.7752 9.8722-5.5821 3.2021-12.3391 3.619-18.2725 1.128a11.636 11.636 0 0 0 6.3771-8.846c-13.566 1.5159-26.809-4.832-34.122-16.3554-1.7036 16.817 7.4674 32.8585 22.8262 39.9261a13.9858 13.9858 0 0 1 3.9482-9.2777 33.2328 33.2328 0 0 0 24.052-2.7695 13.7846 13.7846 0 0 1 11.5793-.6172 13.7717 13.7717 0 0 1 6.3242-9.7165z" fill="#fff" fill-rule="evenodd" stroke="#063" stroke-width=".3" stroke-linejoin="bevel" stroke-miterlimit="10"/><path d="M188.756 119.0101a11.6244 11.6244 0 0 1-4.1435 4.8838c-.029.2275-.061.4548-.0979.6812a5.9868 5.9868 0 0 0 2.3183-1.792c-1.8076 10.6698-9.4166 19.4408-19.726 22.739-1.0882.349-2.2733-.1059-2.8509-1.092l-32.7293-55.9587-1.262.728 32.1082 56.3175c.5655.9933.3669 2.2459-.48 3.0149-8.0119 7.2772-19.4137 9.479-29.5602 5.7095a5.9959 5.9959 0 0 0 2.7112-1.111 21.494 21.494 0 0 1-.6376-.2563 11.6346 11.6346 0 0 1-6.3021 1.146c12.2684 6.5222 27.3966 3.927 36.7893-6.312 13.5653-3.0127 23.3777-14.8136 23.8625-28.6979z" fill="#063" fill-rule="evenodd" stroke="#063" stroke-width=".3" stroke-linejoin="bevel" stroke-miterlimit="10"/><path d="M106.6615 127.6727c2.2514 14.5304 12.6755 26.4629 26.7744 30.6484a14.0812 14.0812 0 0 0-1.2928 1.5378c-14.5468-4.1138-24.8171-17.0864-25.4816-32.1862z" fill="#063" fill-rule="evenodd" stroke="#063" stroke-width=".3" stroke-linejoin="bevel" stroke-miterlimit="10"/><path d="M102.4969 155.5516a33.2333 33.2333 0 0 0 24.052 2.7695 13.99 13.99 0 0 1 3.9494 9.2769c15.3577-7.0668 24.5288-23.1083 22.825-39.9253-7.3128 11.5235-20.5558 17.8712-34.121 16.3554a11.6366 11.6366 0 0 0 6.3771 8.846 20.6574 20.6574 0 0 1-18.2734-1.128c-3.4603-1.9857-4.6944-6.3746-2.7752-9.8721l28.0372-51.072a219.2198 219.2198 0 0 1-6.9217-3.995l-30.2207 49.8112c-2.0688 3.4108-6.4889 4.5366-9.9394 2.5332a20.652 20.652 0 0 1-10.1137-15.2575 11.6402 11.6402 0 0 0 10.852 1.099c-8.096-10.9871-9.2191-25.6282-2.8938-37.7212-15.4187 6.934-24.7295 22.8946-23.1714 39.7259a13.9925 13.9925 0 0 1 10.01-1.22 33.2227 33.2227 0 0 0 14.4253 19.4403 13.7788 13.7788 0 0 1 6.3243 9.7165 13.7818 13.7818 0 0 1 11.578.6172z" fill="#fff" fill-rule="evenodd" stroke="#063" stroke-width=".3" stroke-linejoin="bevel" stroke-miterlimit="10"/><path d="M131.8817 154.02a11.6412 11.6412 0 0 1-6.3023-1.146 18.892 18.892 0 0 1-.6384.2551 5.9932 5.9932 0 0 0 2.7112 1.1122c-10.1456 3.7696-21.5484 1.5677-29.5602-5.7095-.846-.769-1.0455-2.0216-.4789-3.0149l32.108-56.3176-1.2618-.728-32.7305 55.9588c-.5767.9861-1.7617 1.4398-2.8508 1.092-10.3094-3.2982-17.9175-12.0692-19.726-22.739a6.0031 6.0031 0 0 0 2.3183 1.792 22.2926 22.2926 0 0 1-.0979-.6812 11.6295 11.6295 0 0 1-4.1427-4.8838c.4839 13.8843 10.2965 25.6852 23.8616 28.6978 9.3927 10.2391 24.5209 12.8343 36.7904 6.312z" fill="#063" fill-rule="evenodd" stroke="#063" stroke-width=".3" stroke-linejoin="bevel" stroke-miterlimit="10"/><path d="M110.0163 99.252a219.7223 219.7223 0 0 0 11.3836-5.4452l4.341-7.1545a222.0105 222.0105 0 0 1-6.9188-4.3392 219.587 219.587 0 0 0-13.3814 9.0156z" fill="#fff" fill-rule="evenodd" stroke="#063" stroke-width=".3" stroke-linejoin="bevel" stroke-miterlimit="10"/><path d="M100.47 126.9953a.3396.3396 0 0 1 .2574.2476.3385.3385 0 0 1-.1058.3409l-1.3974 2.3038a3.21 3.21 0 0 1-.6466-2.4104 3.086 3.086 0 0 1-.5774-2.3955 3.1027 3.1027 0 0 1-.5137-2.4016 3.0578 3.0578 0 0 1-.4012-2.4961 3.03 3.03 0 0 1-.1705-2.5221 3.022 3.022 0 0 1 .064-2.5282 3.0379 3.0379 0 0 1 .2973-2.5101 3.0367 3.0367 0 0 1 .5275-2.4723 2.9656 2.9656 0 0 1 .7532-2.4134 2.7021 2.7021 0 0 1 .9726-2.3336 3.0634 3.0634 0 0 1 1.185-2.234 3.0522 3.0522 0 0 1 1.3846-2.1153 3.0397 3.0397 0 0 1 1.575-1.9774 3.0324 3.0324 0 0 1 1.7596-1.8292 3.0047 3.0047 0 0 1 2-1.6186 2.9852 2.9852 0 0 1 2.2066-1.3254 3.0053 3.0053 0 0 1 2.369-1.0052 2.9946 2.9946 0 0 1 2.4858-.665 3.0074 3.0074 0 0 1 2.5537-.3142 3.005 3.005 0 0 1 2.5736.0448 2.9886 2.9886 0 0 1 2.5417.4019 3.1885 3.1885 0 0 1 2.5717.7938c.8238-.01 1.6129.3381 2.1605.9554.816-.006 1.604.2991 2.2035.8527a2.9981 2.9981 0 0 1 2.2624.6793 3.182 3.182 0 0 1 2.3091.5004 3.22 3.22 0 0 1 2.3414.3192 3.268 3.268 0 0 1 2.3589.1367 3.2663 3.2663 0 0 1 2.3622-.0478 3.2677 3.2677 0 0 1 2.3513-.2303.3517.3517 0 0 1 .2853-.2545.35.35 0 0 1 .3469.1606l2.9516 1.3923a5.099 5.099 0 0 1-3.3177.6352 3.076 3.076 0 0 1-2.5026.2453 2.9318 2.9318 0 0 1-2.5139.0509 3.0695 3.0695 0 0 1-2.5108-.1457 3.071 3.071 0 0 1-2.4917-.34 3.0615 3.0615 0 0 1-2.4579-.5325 3.0716 3.0716 0 0 1-2.4078-.723 3.0721 3.0721 0 0 1-2.3453-.9076 3.5457 3.5457 0 0 1-2.3052-1.007 2.8993 2.8993 0 0 1-2.0908-.6315 3.3395 3.3395 0 0 1-2.2724-.359 3.244 3.244 0 0 1-2.3012-.0399 3.292 3.292 0 0 1-2.2844.2802 3.3086 3.3086 0 0 1-2.2223.5954 3.0188 3.0188 0 0 1-2.119.8985 3.0762 3.0762 0 0 1-1.972 1.1848 3.277 3.277 0 0 1-1.7894 1.448 3.2323 3.2323 0 0 1-1.62 1.6856 3.1981 3.1981 0 0 1-1.4624 1.837 3.1656 3.1656 0 0 1-1.2867 1.9646 3.2662 3.2662 0 0 1-1.1003 2.0744 2.7758 2.7758 0 0 1-.9029 2.167 3.0403 3.0403 0 0 1-.7 2.241 3.279 3.279 0 0 1-.49 2.2957 3.2783 3.2783 0 0 1-.2753 2.3316 3.1382 3.1382 0 0 1-.0599 2.3475 2.8128 2.8128 0 0 1 .1587 2.3418 2.854 2.854 0 0 1 .3722 2.3186 3.0808 3.0808 0 0 1 .5067 2.3676 2.8842 2.8842 0 0 1 .5655 2.3465z" fill="#fff" fill-rule="evenodd" stroke="#063" stroke-width=".3" stroke-linejoin="bevel" stroke-miterlimit="10"/><path d="M130.8742 97.9376a3.05 3.05 0 0 0 .6654.373l.3331.6083a3.34 3.34 0 0 1-1.0542.9983 3.2397 3.2397 0 0 1-1.1851 1.9716 3.2886 3.2886 0 0 1-.899 2.1183 3.3068 3.3068 0 0 1-.5953 2.222 3.0172 3.0172 0 0 1-.2813 2.2837c.31.733.3242 1.5567.0399 2.3007a3.2762 3.2762 0 0 1 .3602 2.272c.4895.641.721 1.4429.6502 2.2468a3.1919 3.1919 0 0 1 .8598 2.184 3.1594 3.1594 0 0 1 1.0573 2.0963 3.2622 3.2622 0 0 1 1.247 1.9896c.7281.38 1.25 1.063 1.4255 1.8658a3.0314 3.0314 0 0 1 1.592 1.7263 3.2805 3.2805 0 0 1 1.7435 1.5718c.7791.2205 1.4496.72 1.8826 1.4042a3.1408 3.1408 0 0 1 2.003 1.2247 2.8156 2.8156 0 0 1 2.1076 1.0351 2.8516 2.8516 0 0 1 2.1945.8368 3.0784 3.0784 0 0 1 2.3043.745 2.8905 2.8905 0 0 1 2.2205.6033 35.8974 35.8974 0 0 1-1.7906 1.825 3.0827 3.0827 0 0 1-1.0064-.5635 3.1046 3.1046 0 0 1-2.3372-.756 3.0598 3.0598 0 0 1-2.363-.9005 3.033 3.033 0 0 1-2.2704-1.1139 3.0183 3.0183 0 0 1-2.1568-1.3195 3.0354 3.0354 0 0 1-2.0268-1.5119 3.0424 3.0424 0 0 1-1.8784-1.6933 2.9636 2.9636 0 0 1-1.7137-1.859 2.701 2.701 0 0 1-1.5342-2.0085 3.0645 3.0645 0 0 1-1.3437-2.1423 3.0574 3.0574 0 0 1-1.139-2.2578 3.0383 3.0383 0 0 1-.926-2.3524 3.0339 3.0339 0 0 1-.7041-2.4374 3.005 3.005 0 0 1-.403-2.5411 2.9825 2.9825 0 0 1-.0438-2.573 3.0032 3.0032 0 0 1 .3131-2.5532 2.994 2.994 0 0 1 .6665-2.4852 3.0033 3.0033 0 0 1 1.0053-2.3685 3.0037 3.0037 0 0 1 1.3257-2.206c.0808-.339.2215-.6611.4142-.9514.403.1147.825.1457 1.2408.0917zM146.62 69.492l-.838-1.45a220.4055 220.4055 0 0 0-11.541 5.527c1.6298 2.6348 4.8538 3.8087 7.7965 2.8402 2.9435-.9693 4.8379-3.8294 4.5824-6.9171z" fill="#fff" fill-rule="evenodd" stroke="#063" stroke-width=".3" stroke-linejoin="bevel" stroke-miterlimit="10"/><path d="M150.3588 75.9664l-1.256-2.175a9.8973 9.8973 0 0 1-5.959 5.6167 9.902 9.902 0 0 1-8.1517-.7928 217.9468 217.9468 0 0 1 6.1706 3.6978 220.0119 220.0119 0 0 0 9.196-6.3467zM185.4873 135.4553a.7583.7583 0 0 0-.053-.0158 33.3883 33.3883 0 0 1-2.01 2.7156 3.1172 3.1172 0 0 0 2.3252-.2743 3.0912 3.0912 0 0 0 2.453-.2961 3.1428 3.1428 0 0 0 2.4439-.3582 3.1522 3.1522 0 0 0 2.434-.4207 3.154 3.154 0 0 0 2.4228-.4828 1.21 1.21 0 0 0 1.4585-.342 1.22 1.22 0 0 0-.5576-2.3377 1.1589 1.1589 0 0 0-1.4076.2933 3.1805 3.1805 0 0 0-2.362.4706 3.181 3.181 0 0 0-2.3732.4098 3.184 3.184 0 0 0-2.3831.3491 3.1657 3.1657 0 0 0-2.391.2892zM116.0024 159.4122c-.004-.0179-.008-.036-.0132-.0539a33.5668 33.5668 0 0 1-3.3566-.382 3.1174 3.1174 0 0 0 1.3995 1.876 3.0935 3.0935 0 0 0 1.4824 1.9756 3.147 3.147 0 0 0 1.5331 1.9367 3.1523 3.1523 0 0 0 1.5812 1.8968 3.1551 3.1551 0 0 0 1.6299 1.857 1.2086 1.2086 0 0 0 1.0255 1.091 1.2207 1.2207 0 0 0 1.5669-.0927 1.221 1.221 0 0 0 .1797-1.5589 1.161 1.161 0 0 0-.9588-1.072 3.1798 3.1798 0 0 0-1.588-1.81 3.1806 3.1806 0 0 0-1.542-1.849 3.1737 3.1737 0 0 0-1.4934-1.8888 3.1617 3.1617 0 0 0-1.4462-1.9258zM171.0591 135.9031a3.1704 3.1704 0 0 1 2.407.0787c.774-.31 1.638-.303 2.4081.0172a3.0682 3.0682 0 0 1 2.408-.0439 3.176 3.176 0 0 1 .5915-.2055 20.6562 20.6562 0 0 1-3.4794 2.8502 3.1315 3.1315 0 0 1-1.9771-.1786 3.1447 3.1447 0 0 1-2.4687-.0797 3.1065 3.1065 0 0 1-2.4669-.1437 3.1266 3.1266 0 0 1-2.461-.2065.3516.3516 0 0 1-.426-.0419l-1.8423-2.6615a3.4364 3.4364 0 0 1 2.5028.275 3.1871 3.1871 0 0 1 2.399.2006 3.1922 3.1922 0 0 1 2.405.1395z" fill="#fff" fill-rule="evenodd" stroke="#063" stroke-width=".3" stroke-linejoin="bevel" stroke-miterlimit="10"/><path d="M194.9965 133.9366a4.8588 4.8588 0 0 0 .5067 2.3864M192.6344 134.4072a5.3985 5.3985 0 0 0 .446 2.3986M190.2613 134.817a6.4618 6.4618 0 0 0 .385 2.4095M187.8782 135.1661a2.0003 2.0003 0 0 0 .3244 2.4186M185.4873 135.4553a3.4848 3.4848 0 0 0 .2622 2.4255M178.2821 135.9552a4.662 4.662 0 0 0-.0836.4526M175.8742 135.999a3.6659 3.6659 0 0 0 .0138 2.4403M173.4661 135.9819a4.8049 4.8049 0 0 0-.0489 2.4393M171.0591 135.9031a2.613 2.613 0 0 0-.1106 2.4385M168.6541 135.7636a4.1036 4.1036 0 0 0-.1725 2.4342M166.255 135.563a3.5574 3.5574 0 0 0-.2344 2.4284M146.7487 133.8767a2.845 2.845 0 0 0 .5766-1.8649M144.4115 133.1207a3.5126 3.5126 0 0 0 .6095-1.8538M142.0485 132.2202c.5027-.4588.786-1.11.778-1.79M139.7782 131.1063a2.594 2.594 0 0 0 .9406-1.7113M137.6213 129.7868a1.9808 1.9808 0 0 0 1.0945-1.6165M129.1245 120.5718a2.54 2.54 0 0 0 1.7008-.9592M127.9855 118.314a2.9143 2.9143 0 0 0 1.7824-.7978M127.0596 115.9616a2.982 2.982 0 0 0 1.8485-.6293M126.3554 113.5242a1.8525 1.8525 0 0 0 1.9025-.4388M125.9525 110.983a2.745 2.745 0 0 0 1.9452-.1695M125.9086 108.4101a2.2698 2.2698 0 0 0 1.9492.1027M126.2218 105.8569a2.7514 2.7514 0 0 0 1.9173.3721M126.8883 103.3717a2.511 2.511 0 0 0 1.8462.6354M127.8936 101.0032a1.9547 1.9547 0 0 0 1.7398.8856M129.2193 98.7972c.417.5155.9717.9037 1.5991 1.12" fill="none" stroke="#063" stroke-width=".3" stroke-linejoin="bevel" stroke-miterlimit="10"/><path d="M145.4979 83.6895a2.923 2.923 0 0 1-.3262 1.1758l-2.0609-1.3275a3.2619 3.2619 0 0 1 .6413-.7231 3.2646 3.2646 0 0 1 .9757-2.151.3486.3486 0 0 1-.0768-.3741.349.349 0 0 1 .3111-.2203l2.6824-1.859a5.0825 5.0825 0 0 1-1.1082 3.1893 3.0775 3.0775 0 0 1-1.0384 2.2899z" fill="#fff" stroke="#063" stroke-width=".3" stroke-linejoin="bevel" stroke-miterlimit="10"/><path d="M176.6541 87.2716c11.4615 9.215 16.5858 24.207 13.1614 38.506a14.0244 14.0244 0 0 1 1.979-.3499c3.7098-14.652-2.392-30.0313-15.1403-38.156z" fill="#063" fill-rule="evenodd" stroke="#063" stroke-width=".3" stroke-linejoin="bevel" stroke-miterlimit="10"/><path d="M109.8984 96.665l1.2121 2.0983M148.4664 75.0728l.9218 1.5957M144.6878 68.5306l1.7717 3.0686M147.3143 76.6466l.6145 1.0641M143.0569 69.2735l2.5296 4.3814M145.9736 77.8902l.4898.8486M141.433 70.0285l2.9217 5.0583M144.4653 78.8466l.5247.9085M139.816 70.7955l3.0484 5.2787M142.7946 79.5208l.7152 1.2377M138.2069 71.5764l2.9238 5.0621M128.1042 154.02a11.6346 11.6346 0 0 0 6.3022-1.146" fill="none" stroke="#063" stroke-width=".3" stroke-linejoin="bevel" stroke-miterlimit="10"/><path d="M107.319 144.9924a3.1819 3.1819 0 0 1 1.0813 2.1512 3.1642 3.1642 0 0 1 1.1352 2.1232 3.1846 3.1846 0 0 1 1.189 2.0933 3.0628 3.0628 0 0 1 1.2419 2.0633c.1716.1207.33.2585.4738.41a20.6073 20.6073 0 0 1-4.2085-1.5878 3.1321 3.1321 0 0 1-.834-1.801 3.1463 3.1463 0 0 1-1.165-2.178 3.0988 3.0988 0 0 1-1.1083-2.207 3.1287 3.1287 0 0 1-1.0533-2.234.3527.3527 0 0 1-.1756-.3899l1.3845-2.926a3.433 3.433 0 0 1 1.0126 2.3046 3.1813 3.1813 0 0 1 1.0264 2.178z" fill="#fff" fill-rule="evenodd" stroke="#063" stroke-width=".3" stroke-linejoin="bevel" stroke-miterlimit="10"/><path d="M122.072 166.8858a4.8653 4.8653 0 0 0-1.8133 1.6325M120.4841 165.0757a5.4045 5.4045 0 0 0-1.8553 1.5856M118.942 163.2268a6.4627 6.4627 0 0 0-1.8944 1.5378M117.4486 161.338c-.9085 0-1.7017.6123-1.934 1.49M116.0024 159.4122a3.4856 3.4856 0 0 0-1.9703 1.44M110.7245 151.3601a3.6714 3.6714 0 0 0-2.01 1.1229M109.5355 149.2668a4.8174 4.8174 0 0 0-2.1377 1.1778M108.4002 147.1436a2.6143 2.6143 0 0 0-2.1675 1.123M107.319 144.9924a4.0947 4.0947 0 0 0-2.1946 1.0671M106.2926 142.8143a3.562 3.562 0 0 0-2.2215 1.0113M98.5776 127.4771a2.4626 2.4626 0 0 0 1.8924-.4818M98.0002 125.0817a2.8476 2.8476 0 0 0 1.9042-.4328M97.4865 122.68a3.522 3.522 0 0 0 1.9112-.3988M97.0853 120.184a2.3865 2.3865 0 0 0 1.9403-.2214M96.9148 117.6619a2.592 2.592 0 0 0 1.952-.041M96.9787 115.1337a1.98 1.98 0 0 0 1.948.1396M97.276 112.6236a3.1636 3.1636 0 0 0 1.9262.318M97.8036 110.1513a2.078 2.078 0 0 0 1.8884.4948M98.5568 107.7379a1.6709 1.6709 0 0 0 1.8353.6672M99.5294 105.4043c.2732.703 1.0492 1.07 1.7656.8337M100.7145 103.1703a2.5384 2.5384 0 0 0 1.6808.9933M102.099 101.055c.381.5516.9395.9555 1.583 1.144M103.674 99.0776c.3321.5813.85 1.034 1.4704 1.2844M105.4336 97.2484a1.853 1.853 0 0 0 1.3308 1.428M138.3346 98.9558a2.2331 2.2331 0 0 0 .0369-1.9516M135.8346 98.8153c.3111-.6103.4718-1.3243.1845-1.9467M140.8485 98.905a2.231 2.231 0 0 0-.1148-1.9487M143.3511 98.6596a3.3397 3.3397 0 0 0-.2661-1.9336" fill="none" stroke="#063" stroke-width=".3" stroke-linejoin="bevel" stroke-miterlimit="10"/><path d="M83.3307 87.2716c-11.4606 9.215-16.5847 24.207-13.1613 38.506a14.0288 14.0288 0 0 0-1.9791-.351c-3.7097-14.6509 2.3932-30.0302 15.1404-38.155zM153.3234 127.6727c-2.2514 14.5304-12.6755 26.4629-26.7745 30.6484.468.4807.8998.9952 1.294 1.5378 14.5466-4.1138 24.817-17.0864 25.4805-32.1862z" fill="#063" fill-rule="evenodd" stroke="#063" stroke-width=".3" stroke-linejoin="bevel" stroke-miterlimit="10"/><path d="M153.5747 90.6255l-4.7003 8.1378" fill="none" stroke="#063" stroke-width=".3" stroke-linejoin="bevel" stroke-miterlimit="10"/><path d="M109.6272 75.9653l4.5757-7.9232a220.1221 220.1221 0 0 1 40.3425 23.2866l-4.5768 7.9233a220.1372 220.1372 0 0 1-40.3414-23.2867z" fill="#fff" fill-rule="evenodd" stroke="#063" stroke-width=".3" stroke-linejoin="bevel" stroke-miterlimit="10"/><path d="M71.2298 119.0101a11.6295 11.6295 0 0 0 4.1427 4.8838" fill="none" stroke="#063" stroke-width=".3" stroke-linejoin="bevel" stroke-miterlimit="10"/><path d="M131.4048 75.0548a9.9092 9.9092 0 0 0 3.5873 3.5605 217.1788 217.1788 0 0 0-4.9996-2.7996c.4698-.2552.9405-.5086 1.4123-.7609z" fill="#fff" fill-rule="evenodd" stroke="#063" stroke-width=".3" stroke-linejoin="bevel" stroke-miterlimit="10"/><path d="M115.297 68.5306l-4.6991 8.138M116.929 69.2735l-4.8729 8.4372M118.5529 70.0285l-5.0304 8.7103M120.169 70.7955l-5.1733 8.9596M121.7789 71.5764l-5.3027 9.182M140.225 94.6417a1.7144 1.7144 0 0 1-.807.5375l-.8319-1.3724zM145.4979 83.6895a2.2341 2.2341 0 0 0-1.7458-.8748M106.4111 90.6255l2.2724 3.9352M111.5005 95.8723l1.2419 2.149M107.8696 89.5844l2.412 4.1765M113.1464 95.1542l1.22 2.1122M109.336 88.5552l2.7182 4.707M114.8602 94.5547l1.1222 1.9437M110.8092 87.539l2.9176 5.0532M116.8383 94.4122l.754 1.3065M112.2896 86.5356l3.2798 5.6796M107.4335 95.6299a2.7368 2.7368 0 0 0 1.1203 1.5985M109.6402 94.3044a2.2672 2.2672 0 0 0 .8857 1.7392M112.0092 93.2992a2.7481 2.7481 0 0 0 .6355 1.846M114.495 92.6341a2.5025 2.5025 0 0 0 .3721 1.9156M117.0487 92.32a1.9578 1.9578 0 0 0 .1028 1.9495M119.6223 92.3647a3.534 3.534 0 0 0-.1696 1.9448M121.7251 94.6685a2.4894 2.4894 0 0 0 .439-1.9018M123.8159 95.2999a1.9137 1.9137 0 0 0 .9197-1.7394M126.121 96.307a1.9587 1.9587 0 0 0 .7752-1.7911M128.4664 97.2146a2.1125 2.1125 0 0 0 .6333-1.846M152.1153 89.5833l-4.8719 8.4372M150.65 88.5552l-5.0306 8.7103M149.1766 87.539l-5.1742 8.9594M147.6963 86.5356l-5.3026 9.182M135.5945 128.275a3.162 3.162 0 0 0 1.2388-1.509M133.7162 126.5815a2.0736 2.0736 0 0 0 1.3735-1.3872M132.0024 124.7225a1.669 1.669 0 0 0 1.4954-1.2545M130.4682 122.7141c.7453.1147 1.4504-.374 1.604-1.1119M133.332 98.47a1.6327 1.6327 0 0 0 .3392-1.9217M130.8742 97.9376a2.6615 2.6615 0 0 0 .4879-1.8898M146.5363 81.3996a3.3433 3.3433 0 0 0-1.8085-.736" fill="none" stroke="#063" stroke-width=".3" stroke-linejoin="bevel" stroke-miterlimit="10"/><path d="M 600.00003,300 A 150,150 0 0 1 450,450 150,150 0 0 1 300,300 150,150 0 0 1 450,150 150,150 0 0 1 600.00003,300 Z" fill="#d21034"/><g transform="translate(-491.50698,-17.03405)"><path transform="translate(493.56992,-567.13196)" d="m 484.16602,764.16602 c -12.29929,0.0474 -24.51818,1.98543 -36.22852,5.74609 l -83.00044,114.2539 83.00044,114.36133 c 11.71605,3.72426 23.93481,5.62596 36.22852,5.63866 66.27416,0 119.99999,-53.72582 120,-119.99998 0,-66.27417 -53.72583,-120 -120,-120 z" fill="#fff"/><path d="m 941.50742,202.78015 a 120,120 0 0 0 -83.77144,114.25392 120,120 0 0 0 83.77144,114.36132 z" fill="#063"/></g><path transform="matrix(0,3.7795276,-3.7795276,0,861.34285,540.69008)" d="m -63.682584,72.936666 -11.663905,35.897794 30.536502,-22.186047 h -37.745194 l 30.536505,22.186047 z" fill="#d21034"/></svg>