<?xml version="1.0" encoding="UTF-8" standalone="no"?>
<svg
   xmlns="http://www.w3.org/2000/svg"
   height="100"
   width="150">
    <rect
       width="150"
       height="50"
       x="0"
       y="0"
       id="rect2466"
       style="fill:#002365;stroke:none" />
    <rect
       width="150"
       height="50.5"
       x="0"
       y="49.5"
       id="rect2468"
       style="fill:#000000;stroke:none" />
    <g
       id="stars"
       style="fill:#ffce40;stroke:none">
      <path
         d="m 30.342637,10.640824 -3.472427,10.68702 -13.321462,0 10.777295,7.830162 -3.718457,11.444248 9.735051,-7.072935 9.735051,7.072935 -3.718457,-11.444248 10.777295,-7.830162 -13.321462,0 -3.472427,-10.68702 z"
         id="path2482"/>
      <path
         d="m 74.290428,10.640824 -3.472426,10.68702 -13.321463,0 10.777295,7.830162 -3.718457,11.444248 9.735051,-7.072935 9.735051,7.072935 -3.718457,-11.444248 10.777295,-7.830162 -13.321462,0 -3.472427,-10.68702 z"
         id="path3254"/>
      <path
         d="m 118.2383,10.640824 -3.47243,10.68702 -13.32146,0 10.77729,7.830162 -3.71846,11.444248 9.73506,-7.072935 9.73505,7.072935 -3.71846,-11.444248 10.7773,-7.830162 -13.32147,0 -3.47242,-10.68702 z"
         id="path3256"/>
      <path
         d="m 30.342643,57.022492 -3.472426,10.68702 -13.321463,0 10.777295,7.830162 -3.718457,11.444247 9.735051,-7.072934 9.735052,7.072934 -3.718458,-11.444247 10.777296,-7.830162 -13.321463,0 -3.472427,-10.68702 z"
         id="path3260"/>
      <path
         d="m 74.290435,57.022492 -3.472427,10.68702 -13.321463,0 10.777296,7.830162 -3.718458,11.444247 9.735052,-7.072934 9.735051,7.072934 -3.718457,-11.444247 10.777295,-7.830162 -13.321463,0 -3.472426,-10.68702 z"
         id="path3262"/>
      <path
         d="m 118.2383,57.022492 -3.47242,10.68702 -13.32147,0 10.7773,7.830162 -3.71846,11.444247 9.73505,-7.072934 9.73505,7.072934 -3.71845,-11.444247 10.77729,-7.830162 -13.32146,0 -3.47243,-10.68702 z"
         id="path3264"/>
    </g>
</svg>
