<svg xmlns="http://www.w3.org/2000/svg" width="500.2" height="283.45" viewBox="0 0 500.2 283.45">
  <defs>
    <style>
      .cls-1 {
        fill: #a30014;
      }

      .cls-2 {
        fill: #107d00;
      }

      .cls-3 {
        fill: #fdd700;
      }
    </style>
  </defs>
  <g id="Layer_2" data-name="Layer 2">
    <g id="Layer_1-2" data-name="Layer 1">
      <g>
        <rect class="cls-1" width="500.2" height="283.45"/>
        <g>
          <circle class="cls-2" cx="250.1" cy="141.72" r="117.38"/>
          <g>
            <g>
              <path class="cls-3" d="M229.35,124.89A33.24,33.24,0,1,1,253,68.3,40.18,40.18,0,1,0,253,115,33.11,33.11,0,0,1,229.35,124.89Z"/>
              <path class="cls-3" d="M229.35,225A33.24,33.24,0,1,1,253,168.44a40.18,40.18,0,1,0,0,46.71A33.11,33.11,0,0,1,229.35,225Z"/>
            </g>
            <path class="cls-3" d="M312.9,175a33.24,33.24,0,1,1,23.65-56.59,40.18,40.18,0,1,0,0,46.71A33.15,33.15,0,0,1,312.9,175Z"/>
          </g>
        </g>
      </g>
    </g>
  </g>
</svg>
