<?xml version="1.0" encoding="UTF-8" standalone="no"?>
<!-- Created with Inkscape (http://www.inkscape.org/) -->

<svg
   xmlns:dc="http://purl.org/dc/elements/1.1/"
   xmlns:cc="http://creativecommons.org/ns#"
   xmlns:rdf="http://www.w3.org/1999/02/22-rdf-syntax-ns#"
   xmlns:svg="http://www.w3.org/2000/svg"
   xmlns="http://www.w3.org/2000/svg"
   xmlns:sodipodi="http://sodipodi.sourceforge.net/DTD/sodipodi-0.dtd"
   xmlns:inkscape="http://www.inkscape.org/namespaces/inkscape"
   width="129.29953"
   height="88.135811"
   id="svg5304"
   version="1.1"
   inkscape:version="0.48.4 r9939"
   sodipodi:docname="Nieuw document 51">
  <defs
     id="defs5306" />
  <sodipodi:namedview
     id="base"
     pagecolor="#ffffff"
     bordercolor="#666666"
     borderopacity="1.0"
     inkscape:pageopacity="0.0"
     inkscape:pageshadow="2"
     inkscape:zoom="5.6"
     inkscape:cx="119.35079"
     inkscape:cy="43.874571"
     inkscape:document-units="px"
     inkscape:current-layer="layer1"
     showgrid="false"
     fit-margin-top="0"
     fit-margin-left="0"
     fit-margin-right="0"
     fit-margin-bottom="0"
     inkscape:window-width="1600"
     inkscape:window-height="837"
     inkscape:window-x="-8"
     inkscape:window-y="-8"
     inkscape:window-maximized="1" />
  <metadata
     id="metadata5309">
    <rdf:RDF>
      <cc:Work
         rdf:about="">
        <dc:format>image/svg+xml</dc:format>
        <dc:type
           rdf:resource="http://purl.org/dc/dcmitype/StillImage" />
        <dc:title></dc:title>
      </cc:Work>
    </rdf:RDF>
  </metadata>
  <g
     inkscape:label="Laag 1"
     inkscape:groupmode="layer"
     id="layer1"
     transform="translate(-409.82419,-522.53223)">
    <rect
       style="opacity:0.98999999;fill:#004580;fill-opacity:1;fill-rule:evenodd;stroke:none"
       id="rect4787"
       width="129.29953"
       height="88.135811"
       x="409.82419"
       y="522.53223" />
    <rect
       style="opacity:0.98999999;fill:#f9f9f9;fill-opacity:1;fill-rule:evenodd;stroke:none"
       id="rect4789"
       width="44.839287"
       height="88.308212"
       x="409.44772"
       y="522.53296" />
    <rect
       style="opacity:0.98999999;fill:#f47320;fill-opacity:1;fill-rule:evenodd;stroke:none"
       id="rect4791"
       width="18.941755"
       height="44.151276"
       x="422.56393"
       y="522.45459" />
    <g
       transform="matrix(0.01933781,0,0,0.01961413,425.38516,543.55446)"
       id="layer1-8-9-0"
       inkscape:label="Laag 1"
       style="fill:#ffffff">
      <path
         inkscape:connector-curvature="0"
         id="path3874-8-2"
         d="m 310.61525,406.26601 c -28.11924,-1.03479 -51.69454,-4.74888 -62.27911,-9.81158 -7.47459,-3.57517 -7.76195,-7.24594 -0.86327,-11.02805 7.54399,-4.13589 26.58712,-7.78499 48.96001,-9.38187 11.32227,-0.80813 16.40846,-0.96856 30.70792,-0.96856 19.34811,0 31.79101,0.67465 47.11013,2.55427 20.10819,2.46725 34.69917,6.96264 36.99597,11.39825 1.40546,2.71421 -0.22477,4.99775 -5.30144,7.42596 -10.76826,5.15054 -33.90132,8.75016 -63.14239,9.82522 -7.48706,0.27524 -24.53355,0.26802 -32.18782,-0.0136 z m -72.4716,-34.26197 c -2.97387,-0.5766 -5.87887,-2.78336 -7.10403,-5.39657 -0.61502,-1.3118 -0.70892,-1.8025 -0.70892,-3.70479 0,-1.98707 0.0759,-2.34455 0.80916,-3.8115 2.95591,-5.91354 11.21451,-7.25541 16.17972,-2.62891 4.6789,4.35973 3.44837,11.76448 -2.42538,14.59475 -2.29279,1.10477 -4.40707,1.40137 -6.75055,0.94702 z m 173.84473,-0.007 c -2.49417,-0.47991 -5.18907,-2.27595 -6.52744,-4.3503 -2.27044,-3.51897 -1.63364,-8.26379 1.50109,-11.18468 4.96521,-4.62651 13.22381,-3.28464 16.17972,2.62891 0.73325,1.46695 0.80914,1.82443 0.80914,3.8115 0,1.90228 -0.0939,2.39299 -0.70891,3.70478 -1.87069,3.99012 -6.6447,6.27657 -11.2536,5.38979 z m -135.23301,-9.59113 c -3.14784,-0.75136 -5.94875,-2.6783 -7.08642,-4.87522 -0.92573,-1.78765 -0.87639,-4.31897 0.12202,-6.26033 1.54936,-3.01267 5.2621,-5.63746 9.49975,-6.71599 2.30615,-0.58694 6.40795,-0.64004 8.51925,-0.11028 4.74109,1.18961 7.5963,4.15776 7.60911,7.9101 0.0153,4.45231 -4.70441,8.7428 -11.07204,10.06539 -2.139,0.44429 -5.69994,0.43787 -7.59167,-0.0137 z m 93.05587,0.0142 c -2.27004,-0.50428 -4.06075,-1.24772 -5.97093,-2.47893 -5.32776,-3.43406 -6.55267,-8.66221 -2.93533,-12.52856 1.14012,-1.2186 3.40417,-2.42598 5.56665,-2.96857 2.11129,-0.52976 6.21311,-0.47667 8.51926,0.11028 4.23764,1.07852 7.95039,3.70331 9.49974,6.71598 0.98143,1.90833 1.04793,4.486 0.15917,6.17016 -1.10499,2.09395 -3.05769,3.60683 -5.95916,4.61693 -2.05963,0.71703 -6.47286,0.89731 -8.8794,0.36271 z m -46.74435,-1.93403 c -5.74214,-1.29619 -9.48286,-4.75478 -9.48941,-8.7737 -0.003,-2.25348 0.57252,-3.57973 2.31352,-5.32499 2.68039,-2.68693 6.49792,-4.06705 11.2498,-4.06705 4.75188,0 8.5694,1.38012 11.2498,4.06705 1.741,1.74526 2.31723,3.07151 2.31353,5.32499 -0.006,3.7077 -3.43384,7.14576 -8.51551,8.54104 -1.98564,0.54519 -7.15329,0.677 -9.12173,0.23266 z M 219.17934,340.48256 c -13.81234,-16.21932 -25.4839,-33.11296 -32.69047,-47.31687 -7.12103,-14.03526 -10.23023,-25.45295 -9.33365,-34.27529 0.57386,-5.64672 2.24513,-9.35554 5.80959,-12.89231 4.86387,-4.82608 11.41252,-7.23893 22.08427,-8.13691 5.4723,-0.46047 15.36773,0.05 23.67839,1.22157 1.83139,0.25817 3.39931,0.39433 3.48431,0.30259 0.085,-0.0918 0.38773,-0.79315 0.67276,-1.55866 3.64967,-9.80211 12.10442,-16.73919 23.3009,-19.1183 12.50194,-2.65651 28.42166,0.65219 42.40062,8.81238 l 1.90653,1.11292 7.03453,0.16713 7.03454,0.16713 -0.006,-3.8659 -0.006,-3.86591 -1.58036,-1.26369 c -2.83052,-2.26336 -5.41063,-6.26887 -6.46459,-10.03605 -0.62268,-2.22553 -0.61786,-7.56224 0.009,-9.59871 1.23289,-4.00769 2.91069,-6.73085 5.78901,-9.39593 2.75583,-2.55165 5.22965,-3.85886 9.84242,-5.20093 0.23698,-0.0689 0.30832,-1.6376 0.30832,-6.77997 l 0,-6.69028 -5.4263,0 -5.42631,0 0,-4.85536 0,-4.85536 5.36464,-0.0655 5.36464,-0.0655 0.0657,-6.37889 0.0657,-6.37889 4.67816,0 4.67816,0 0.0657,6.37889 0.0657,6.37889 5.36464,0.0655 5.36463,0.0655 0,4.85536 0,4.85536 -5.42629,0 -5.4263,0 0,6.69028 c 0,5.14237 0.0713,6.71102 0.3083,6.77997 4.98408,1.45009 7.16334,2.64785 10.19928,5.60567 2.61278,2.54557 3.91513,4.5758 5.06606,7.89767 0.7491,2.16205 0.80054,2.52445 0.81022,5.71062 0.0119,3.90564 -0.30806,5.39525 -1.82668,8.50519 -1.24216,2.54373 -3.11231,4.94433 -5.0734,6.51247 l -1.58035,1.26369 -0.006,3.86591 -0.006,3.8659 7.03405,-0.16712 7.03407,-0.16711 2.11677,-1.23181 c 13.62073,-7.92626 29.54159,-11.29091 41.72444,-8.81784 11.40255,2.31467 20.08098,9.34079 23.76778,19.24262 0.28503,0.76551 0.58776,1.46659 0.67277,1.55795 0.085,0.0914 2.04138,-0.0901 4.34755,-0.40327 2.30618,-0.31316 5.80244,-0.71027 7.76948,-0.88247 4.63827,-0.40604 14.72431,-0.41637 17.7588,-0.0182 9.60247,1.26008 15.49551,3.74874 19.9135,8.40957 6.76595,7.13787 7.20079,18.72495 1.30032,34.65026 -6.08602,16.42605 -20.05886,38.21063 -38.06177,59.34074 l -3.66672,4.30365 -6.88484,-3.39321 c -3.78621,-1.86628 -6.88438,-3.44566 -6.88438,-3.50975 0,-0.0641 2.26132,-3.42629 5.02513,-7.47157 15.33172,-22.44049 24.0104,-39.21064 26.88261,-51.94652 2.80569,-12.44095 -0.16795,-20.32605 -8.96931,-23.7836 -3.65187,-1.4346 -6.36019,-1.82451 -12.7736,-1.83897 -4.56156,-0.0103 -5.78637,0.0545 -5.94949,0.31448 -0.11297,0.18009 -0.27932,1.16391 -0.3697,2.18628 -1.28447,14.53239 -7.66642,32.9146 -18.17654,52.35468 -7.30728,13.516 -13.12355,23.74222 -13.50325,23.74157 -0.31312,-4.9e-4 -15.46246,-3.13211 -18.20982,-3.76422 -0.51424,-0.11831 -0.46318,-0.27598 1.20084,-3.70769 6.13943,-12.66147 11.39582,-26.71549 14.38279,-38.45537 2.1035,-8.26739 3.02957,-14.2282 3.25036,-20.92141 0.32312,-9.79444 -1.54593,-16.59861 -5.70279,-20.76101 -1.71837,-1.72063 -3.02413,-2.58464 -5.30907,-3.51295 -6.29986,-2.55948 -16.52485,-1.99187 -30.05664,1.66848 -1.94308,0.52561 -3.57124,0.99345 -3.61816,1.03966 -0.0469,0.0462 -1.93709,18.72831 -4.20039,41.5158 -2.26333,22.78749 -4.16844,41.48648 -4.23355,41.5533 -0.0652,0.0669 -4.65061,0.1215 -10.18995,0.1215 -5.53934,0 -10.1248,-0.0547 -10.18995,-0.1215 -0.0652,-0.0668 -1.97021,-18.76581 -4.23352,-41.5533 -2.26334,-22.78749 -4.15354,-41.4696 -4.20043,-41.5158 -0.0469,-0.0462 -1.67506,-0.51405 -3.61816,-1.03966 -13.53177,-3.66035 -23.75675,-4.22796 -30.05663,-1.66848 -2.28494,0.92831 -3.5907,1.79232 -5.30907,3.51295 -5.84688,5.85467 -7.28932,17.69908 -4.15874,34.14925 2.50323,13.15369 8.55372,30.44818 16.0891,45.98854 1.66403,3.43171 1.71509,3.58938 1.20085,3.70769 -2.74737,0.63211 -17.8967,3.76368 -18.20982,3.76422 -0.3797,7.2e-4 -6.19598,-10.22557 -13.50325,-23.74157 -6.66449,-12.32699 -11.61436,-24.01417 -14.69666,-34.70049 -1.58283,-5.48764 -3.0725,-13.04495 -3.47989,-17.65419 -0.0904,-1.02237 -0.23901,-1.97795 -0.33033,-2.12353 -0.26192,-0.41755 -7.59492,-0.61641 -10.8071,-0.29307 -11.12374,1.1197 -16.82371,5.8907 -17.83275,14.92637 -1.20014,10.74703 5.73885,28.27914 20.30993,51.31542 1.35264,2.13845 4.71982,7.19786 7.48262,11.24314 2.7628,4.04528 5.02328,7.40749 5.02328,7.47157 0,0.0641 -3.09936,1.64405 -6.88744,3.51102 l -6.88745,3.39451 -3.66605,-4.30494 z"
         style="fill:#ffffff" />
    </g>
    <g
       transform="matrix(0.0663179,0,0,0.07008945,397.56996,520.87055)"
       id="layer1-1-6-8"
       inkscape:label="Laag 1"
       style="fill:#ffffff">
      <path
         inkscape:connector-curvature="0"
         id="path3005-5-6"
         d="m 468.93401,522.91609 c -0.57519,-1.89874 -0.75727,-3.03083 -0.76115,-4.73265 -0.002,-0.87284 0.0588,-1.91856 0.13512,-2.32381 1.06635,-5.66298 5.6826,-10.09397 15.03729,-14.4338 1.57767,-0.7319 2.82476,-1.434 5.21257,-2.93464 1.72631,-1.08491 3.84496,-2.39906 4.70812,-2.92034 2.15074,-1.29888 7.88726,-4.90131 8.89518,-5.586 l 0.82409,-0.55983 -0.31965,-0.19365 c -0.17582,-0.1065 -0.76422,-0.43743 -1.30755,-0.73539 l -0.98787,-0.54175 -3.6642,2.21351 c -8.69789,5.25431 -15.18286,8.51289 -23.02202,11.56816 -2.87358,1.11998 -3.23317,1.21262 -4.96747,1.27991 -1.81489,0.0704 -3.21732,-0.1865 -4.49052,-0.82266 -2.30192,-1.15018 -2.58495,-3.06221 -0.74733,-5.04869 0.6244,-0.67499 0.80369,-0.78956 2.28512,-1.46023 4.72919,-2.14097 9.41375,-4.82914 13.86656,-7.95714 1.88532,-1.32439 5.47557,-4.02851 5.58383,-4.20564 0.0402,-0.0657 -0.19996,0.0365 -0.5336,0.22697 -6.86763,3.9221 -15.36392,7.88984 -23.30648,10.88407 -1.07894,0.40674 -2.21394,0.80901 -2.52221,0.89393 -2.79882,0.77102 -6.31707,0.69448 -8.9005,-0.19361 -2.67702,-0.92028 -3.87892,-2.62414 -2.88485,-4.08968 0.38718,-0.5708 3.02012,-1.93283 6.96513,-3.60309 10.49026,-4.44141 16.78871,-7.48387 22.49817,-10.8677 0.90634,-0.53716 1.63464,-0.99008 1.61842,-1.00648 -0.0162,-0.0164 -6.88674,2.55091 -15.26783,5.70512 -8.38109,3.15422 -15.66712,5.8564 -16.19118,6.00485 -1.68477,0.47722 -2.87588,0.6445 -4.65208,0.65333 -1.8148,0.009 -2.83773,-0.12947 -4.25972,-0.57668 -2.77317,-0.87213 -4.80135,-2.80854 -4.62248,-4.41332 0.0724,-0.64982 0.51962,-1.31792 1.1169,-1.66865 0.26341,-0.15467 1.84092,-0.72354 3.50558,-1.26414 4.0086,-1.30181 8.54598,-2.86492 12.11522,-4.17366 4.12962,-1.51421 10.48147,-3.95759 10.42822,-4.01144 -0.0247,-0.025 -6.26736,1.64879 -13.87248,3.71958 -15.98281,4.35196 -15.15042,4.13614 -16.61899,4.30891 -4.44505,0.52294 -8.86313,-0.99993 -12.88981,-4.44303 l -1.10858,-0.94791 3.12635,-0.52764 c 7.93174,-1.33867 14.74642,-3.00911 24.08868,-5.90471 1.41804,-0.43952 2.76923,-0.8503 3.00265,-0.91285 1.11622,-0.29913 -0.0741,-0.13509 -4.75284,0.65499 -12.9241,2.18244 -19.55094,2.91404 -24.73815,2.73108 -4.22758,-0.14912 -6.99535,-0.73343 -9.38081,-1.98041 -1.34582,-0.70352 -2.81126,-2.15124 -3.50647,-3.46405 -0.26139,-0.49358 -0.45439,-0.9185 -0.42891,-0.94427 0.0255,-0.0258 1.17308,-0.0931 2.55022,-0.14971 3.78852,-0.15561 7.42077,-0.52411 12.31248,-1.24914 2.61537,-0.38763 10.25508,-1.68431 11.93845,-2.0263 l 1.12098,-0.22774 -2.57826,0.0562 c -1.41804,0.0308 -4.62124,0.18473 -7.11822,0.34191 -7.90509,0.49757 -13.29648,0.49393 -16.64051,-0.0112 -5.91539,-0.89358 -9.80044,-3.36429 -11.78554,-7.49502 -0.551,-1.14656 -0.94366,-2.37239 -0.94366,-2.94596 l 0,-0.48921 0.54452,0.33882 c 1.81105,1.12686 4.01237,1.65187 8.06793,1.92419 3.20087,0.21494 6.85544,0.0833 9.37929,-0.33779 3.22018,-0.53729 9.85492,-1.09558 16.31028,-1.37247 5.34365,-0.2292 14.21437,-0.0164 19.61716,0.47056 11.38809,1.02647 21.73777,3.1611 31.84172,6.56737 13.30476,4.48537 25.52489,10.92345 37.53972,19.77753 l 2.24429,1.65389 1.71199,-1.11812 c 14.84676,-9.69669 29.98276,-16.94076 45.03788,-21.55508 12.93041,-3.9631 25.49782,-6.12897 40.24323,-6.93554 3.3937,-0.18563 14.34447,-0.18577 17.87965,-2.3e-4 5.81729,0.30533 10.57425,0.70782 16.50644,1.39662 l 3.16678,0.3677 -0.004,0.34542 c -0.003,0.26864 -0.25272,0.64779 -1.12448,1.70571 -2.94909,3.5788 -5.37023,5.61526 -7.74242,6.51224 -1.96771,0.74405 -3.71911,0.75737 -15.67905,0.11936 -7.10655,-0.37911 -9.13141,-0.45161 -12.38684,-0.44354 -1.72631,0.004 -3.0883,0.0283 -3.02664,0.0532 0.0617,0.025 2.28119,0.30024 4.93231,0.61167 6.88274,0.80851 10.63575,1.3732 15.1893,2.28547 2.50531,0.50192 7.55793,1.63991 7.87911,1.77461 0.1664,0.0698 -0.0618,0.36137 -1.34517,1.71882 -2.78713,2.94801 -4.63919,4.37317 -6.72591,5.1756 l -0.6964,0.2678 -3.45122,-0.62664 c -6.45105,-1.17131 -13.41692,-2.25331 -19.25707,-2.99116 -4.68025,-0.59132 -12.80006,-1.4381 -12.89261,-1.34452 -0.0243,0.0246 2.10993,0.51842 4.74274,1.09742 5.10436,1.12254 13.73124,3.14192 17.79031,4.16436 4.67319,1.17713 9.97694,2.57647 10.06856,2.65649 0.10752,0.0939 -0.63389,1.35391 -1.3542,2.30146 -1.43442,1.88694 -3.56916,3.41004 -5.74406,4.09826 l -0.61681,0.19519 -4.0913,-1.19731 c -8.57666,-2.50995 -15.96969,-4.50796 -24.38105,-6.58912 -2.95939,-0.73222 -6.46406,-1.6031 -7.78816,-1.93528 -1.3241,-0.33219 -2.42258,-0.58868 -2.44107,-0.56998 -0.0185,0.0187 1.01443,0.40445 2.29536,0.85723 9.32173,3.29506 15.11357,5.5864 20.93725,8.28309 1.74641,0.80869 9.49134,4.7261 10.68541,5.40471 l 0.59656,0.33903 -0.70867,0.50896 c -4.51857,3.24517 -6.82995,4.32317 -9.92388,4.62841 l -1.03206,0.10182 -2.83532,-1.1959 c -5.61083,-2.36657 -12.00524,-4.9172 -17.07175,-6.80968 -2.08284,-0.77799 -13.49043,-4.90569 -14.34856,-5.19185 -0.12331,-0.0411 2.90334,1.52709 6.72589,3.48491 8.84731,4.53139 11.98409,6.23073 16.47841,8.9271 2.27979,1.36777 6.2232,3.94484 6.21877,4.06404 -9.8e-4,0.0397 -0.36719,0.33257 -0.8127,0.65083 -2.93824,2.09897 -6.02232,3.55564 -9.08881,4.29281 l -1.10449,0.26551 -2.3145,-1.30292 c -4.7229,-2.6587 -11.27425,-5.80976 -21.65143,-10.4139 -6.82032,-3.02602 -6.58182,-2.92265 -6.44564,-2.79384 0.14073,0.13312 5.99895,3.73664 8.9118,5.48186 6.2538,3.74692 10.52539,6.11282 16.34979,9.05567 l 4.63554,2.34216 -0.93631,0.68073 c -1.99554,1.45083 -3.95032,2.38884 -6.20796,2.97892 -2.26584,0.59223 -2.20288,0.59709 -5.15345,-0.39757 -6.87637,-2.31808 -12.65617,-4.81669 -22.57821,-9.76056 -2.67668,-1.33372 -4.88341,-2.40805 -4.90383,-2.38739 -0.0716,0.0724 6.08348,3.89363 9.43423,5.857 4.67578,2.73975 11.62439,6.29356 17.07125,8.73095 1.43582,0.64251 2.57082,1.20539 2.52221,1.25085 -0.11531,0.10783 -3.88448,1.70707 -5.4727,2.32202 -1.24175,0.48081 -3.1145,1.04494 -4.36821,1.31584 -0.39105,0.0845 -1.39993,0.14308 -2.41012,0.13996 -2.48042,-0.008 -2.75755,-0.0981 -7.23032,-2.35813 -4.90427,-2.47811 -7.41964,-3.86975 -14.01227,-7.75234 -1.84962,-1.08929 -3.40077,-2.0018 -3.44702,-2.0278 -0.36825,-0.20707 0.21637,0.30015 2.01777,1.7506 6.34462,5.10857 10.53194,7.86417 16.59615,10.92156 l 3.0603,1.54292 -0.93044,0.79107 c -3.76958,3.20498 -7.13918,4.81984 -10.85398,5.20172 l -0.73148,0.0752 -1.79072,-1.16444 c -7.6789,-4.9933 -13.57607,-9.42878 -21.2028,-15.94742 -1.96104,-1.67611 -2.90122,-2.4098 -3.08271,-2.40564 -0.50478,0.0116 -16.29083,3.80971 -16.26476,3.91333 0.0145,0.0577 0.17795,0.52795 0.3632,1.04507 0.66397,1.85346 0.82194,2.67688 0.83082,4.33088 0.009,1.67302 -0.20122,2.71508 -0.78103,3.87213 -0.15747,0.31424 -0.26366,0.59423 -0.23599,0.62221 0.0276,0.028 6.27459,-0.0102 13.88203,-0.0849 l 13.83172,-0.13581 5.56125,3.84279 c 3.94819,2.72815 5.50821,3.86462 5.37835,3.9181 -0.10058,0.0414 -1.87277,0.18304 -3.93818,0.31471 -2.06541,0.13168 -5.41994,0.36197 -7.45452,0.51178 -16.47948,1.2133 -25.25449,0.94839 -35.423,-1.06942 -5.34631,-1.06091 -7.96624,-1.39709 -10.98562,-1.40963 -2.47162,-0.0103 -3.68243,0.14327 -5.23039,0.66325 -1.35925,0.45659 -2.16662,0.9471 -3.04373,1.84918 -0.97032,0.99796 -1.10468,0.97232 -1.48507,-0.28338 z m 6.5877,-7.67254 c 0.47522,-0.0976 1.04272,-0.17742 1.2611,-0.17742 0.35891,0 0.39688,-0.03 0.39513,-0.31173 -0.006,-0.95691 -0.5171,-2.47112 -0.97569,-2.89049 -0.20969,-0.19175 -0.2443,-0.16946 -1.05601,0.68015 -0.92849,0.97184 -1.52735,1.89747 -1.93468,2.9903 l -0.2691,0.72201 0.85761,-0.4177 c 0.47168,-0.22974 1.24642,-0.49754 1.72164,-0.59512 z m 11.35466,-3.1994 c 1.05218,-0.52768 1.73807,-1.45333 1.96212,-2.64801 0.16314,-0.86991 0.12465,-0.90492 -0.99326,-0.90336 -1.46608,0.002 -2.70871,0.41241 -4.42723,1.46211 -1.24994,0.76347 -1.27265,0.79708 -0.82687,1.22391 1.27685,1.22261 2.91375,1.55316 4.28524,0.86535 z"
         style="fill:#ffffff" />
    </g>
  </g>
</svg>
