<?xml version="1.0" encoding="UTF-8" standalone="no"?>
<!-- Created with Inkscape (http://www.inkscape.org/) -->

<svg
   xmlns:dc="http://purl.org/dc/elements/1.1/"
   xmlns:cc="http://creativecommons.org/ns#"
   xmlns:rdf="http://www.w3.org/1999/02/22-rdf-syntax-ns#"
   xmlns:svg="http://www.w3.org/2000/svg"
   xmlns="http://www.w3.org/2000/svg"
   xmlns:sodipodi="http://sodipodi.sourceforge.net/DTD/sodipodi-0.dtd"
   xmlns:inkscape="http://www.inkscape.org/namespaces/inkscape"
   width="383.64581mm"
   height="264.58307mm"
   viewBox="0 0 383.64581 264.58307"
   version="1.1"
   id="svg6755"
   inkscape:version="0.92.0 r15299"
   sodipodi:docname="Flag of the Gambian Navy.svg">
  <defs
     id="defs6749">
    <clipPath
       id="clipPath12526"
       clipPathUnits="userSpaceOnUse">
      <path
         inkscape:connector-curvature="0"
         id="path12528"
         d="M 11.9906,11.9906 H 583.285 V 829.8992 H 11.9906 Z" />
    </clipPath>
    <clipPath
       id="clipPath12526-0"
       clipPathUnits="userSpaceOnUse">
      <path
         inkscape:connector-curvature="0"
         id="path12528-1"
         d="M 11.9906,11.9906 H 583.285 V 829.8992 H 11.9906 Z" />
    </clipPath>
    <clipPath
       id="clipPath12526-4"
       clipPathUnits="userSpaceOnUse">
      <path
         inkscape:connector-curvature="0"
         id="path12528-2"
         d="M 11.9906,11.9906 H 583.285 V 829.8992 H 11.9906 Z" />
    </clipPath>
    <clipPath
       id="clipPath12526-6"
       clipPathUnits="userSpaceOnUse">
      <path
         inkscape:connector-curvature="0"
         id="path12528-9"
         d="M 11.9906,11.9906 H 583.285 V 829.8992 H 11.9906 Z" />
    </clipPath>
    <clipPath
       id="clipPath12526-9"
       clipPathUnits="userSpaceOnUse">
      <path
         inkscape:connector-curvature="0"
         id="path12528-99"
         d="M 11.9906,11.9906 H 583.285 V 829.8992 H 11.9906 Z" />
    </clipPath>
    <clipPath
       id="clipPath18928"
       clipPathUnits="userSpaceOnUse">
      <path
         inkscape:connector-curvature="0"
         id="path18930"
         d="M 11.9906,11.9906 H 583.285 V 829.8992 H 11.9906 Z" />
    </clipPath>
    <clipPath
       id="clipPath12526-62"
       clipPathUnits="userSpaceOnUse">
      <path
         inkscape:connector-curvature="0"
         id="path12528-5"
         d="M 11.9906,11.9906 H 583.285 V 829.8992 H 11.9906 Z" />
    </clipPath>
    <clipPath
       id="clipPath18928-4"
       clipPathUnits="userSpaceOnUse">
      <path
         inkscape:connector-curvature="0"
         id="path18930-1"
         d="M 11.9906,11.9906 H 583.285 V 829.8992 H 11.9906 Z" />
    </clipPath>
    <clipPath
       id="clipPath12526-2"
       clipPathUnits="userSpaceOnUse">
      <path
         inkscape:connector-curvature="0"
         id="path12528-18"
         d="M 11.9906,11.9906 H 583.285 V 829.8992 H 11.9906 Z" />
    </clipPath>
    <clipPath
       id="clipPath18928-5"
       clipPathUnits="userSpaceOnUse">
      <path
         inkscape:connector-curvature="0"
         id="path18930-4"
         d="M 11.9906,11.9906 H 583.285 V 829.8992 H 11.9906 Z" />
    </clipPath>
    <clipPath
       id="clipPath12526-3"
       clipPathUnits="userSpaceOnUse">
      <path
         inkscape:connector-curvature="0"
         id="path12528-3"
         d="M 11.9906,11.9906 H 583.285 V 829.8992 H 11.9906 Z" />
    </clipPath>
    <clipPath
       id="clipPath18928-3"
       clipPathUnits="userSpaceOnUse">
      <path
         inkscape:connector-curvature="0"
         id="path18930-3"
         d="M 11.9906,11.9906 H 583.285 V 829.8992 H 11.9906 Z" />
    </clipPath>
    <clipPath
       id="clipPath12526-44"
       clipPathUnits="userSpaceOnUse">
      <path
         inkscape:connector-curvature="0"
         id="path12528-34"
         d="M 11.9906,11.9906 H 583.285 V 829.8992 H 11.9906 Z" />
    </clipPath>
    <clipPath
       id="clipPath18928-6"
       clipPathUnits="userSpaceOnUse">
      <path
         inkscape:connector-curvature="0"
         id="path18930-34"
         d="M 11.9906,11.9906 H 583.285 V 829.8992 H 11.9906 Z" />
    </clipPath>
    <clipPath
       id="clipPath12526-93"
       clipPathUnits="userSpaceOnUse">
      <path
         inkscape:connector-curvature="0"
         id="path12528-13"
         d="M 11.9906,11.9906 H 583.285 V 829.8992 H 11.9906 Z" />
    </clipPath>
    <clipPath
       clipPathUnits="userSpaceOnUse"
       id="clipPath12526-8">
      <path
         d="M 11.9906,11.9906 H 583.285 V 829.8992 H 11.9906 Z"
         id="path12528-8"
         inkscape:connector-curvature="0" />
    </clipPath>
    <clipPath
       clipPathUnits="userSpaceOnUse"
       id="clipPath12526-0-5">
      <path
         d="M 11.9906,11.9906 H 583.285 V 829.8992 H 11.9906 Z"
         id="path12528-1-3"
         inkscape:connector-curvature="0" />
    </clipPath>
    <clipPath
       clipPathUnits="userSpaceOnUse"
       id="clipPath12526-4-9">
      <path
         d="M 11.9906,11.9906 H 583.285 V 829.8992 H 11.9906 Z"
         id="path12528-2-8"
         inkscape:connector-curvature="0" />
    </clipPath>
    <clipPath
       clipPathUnits="userSpaceOnUse"
       id="clipPath12526-6-3">
      <path
         d="M 11.9906,11.9906 H 583.285 V 829.8992 H 11.9906 Z"
         id="path12528-9-2"
         inkscape:connector-curvature="0" />
    </clipPath>
    <clipPath
       clipPathUnits="userSpaceOnUse"
       id="clipPath12526-9-1">
      <path
         d="M 11.9906,11.9906 H 583.285 V 829.8992 H 11.9906 Z"
         id="path12528-99-5"
         inkscape:connector-curvature="0" />
    </clipPath>
    <clipPath
       clipPathUnits="userSpaceOnUse"
       id="clipPath18928-34">
      <path
         d="M 11.9906,11.9906 H 583.285 V 829.8992 H 11.9906 Z"
         id="path18930-33"
         inkscape:connector-curvature="0" />
    </clipPath>
    <clipPath
       clipPathUnits="userSpaceOnUse"
       id="clipPath12526-62-9">
      <path
         d="M 11.9906,11.9906 H 583.285 V 829.8992 H 11.9906 Z"
         id="path12528-5-6"
         inkscape:connector-curvature="0" />
    </clipPath>
    <clipPath
       clipPathUnits="userSpaceOnUse"
       id="clipPath18928-4-5">
      <path
         d="M 11.9906,11.9906 H 583.285 V 829.8992 H 11.9906 Z"
         id="path18930-1-5"
         inkscape:connector-curvature="0" />
    </clipPath>
    <clipPath
       clipPathUnits="userSpaceOnUse"
       id="clipPath12526-2-2">
      <path
         d="M 11.9906,11.9906 H 583.285 V 829.8992 H 11.9906 Z"
         id="path12528-18-4"
         inkscape:connector-curvature="0" />
    </clipPath>
    <clipPath
       clipPathUnits="userSpaceOnUse"
       id="clipPath18928-5-7">
      <path
         d="M 11.9906,11.9906 H 583.285 V 829.8992 H 11.9906 Z"
         id="path18930-4-5"
         inkscape:connector-curvature="0" />
    </clipPath>
    <clipPath
       clipPathUnits="userSpaceOnUse"
       id="clipPath12526-3-8">
      <path
         d="M 11.9906,11.9906 H 583.285 V 829.8992 H 11.9906 Z"
         id="path12528-3-7"
         inkscape:connector-curvature="0" />
    </clipPath>
    <clipPath
       clipPathUnits="userSpaceOnUse"
       id="clipPath18928-3-8">
      <path
         d="M 11.9906,11.9906 H 583.285 V 829.8992 H 11.9906 Z"
         id="path18930-3-6"
         inkscape:connector-curvature="0" />
    </clipPath>
    <clipPath
       clipPathUnits="userSpaceOnUse"
       id="clipPath12526-44-1">
      <path
         d="M 11.9906,11.9906 H 583.285 V 829.8992 H 11.9906 Z"
         id="path12528-34-6"
         inkscape:connector-curvature="0" />
    </clipPath>
    <clipPath
       clipPathUnits="userSpaceOnUse"
       id="clipPath18928-6-3">
      <path
         d="M 11.9906,11.9906 H 583.285 V 829.8992 H 11.9906 Z"
         id="path18930-34-8"
         inkscape:connector-curvature="0" />
    </clipPath>
    <clipPath
       clipPathUnits="userSpaceOnUse"
       id="clipPath12526-93-1">
      <path
         d="M 11.9906,11.9906 H 583.285 V 829.8992 H 11.9906 Z"
         id="path12528-13-7"
         inkscape:connector-curvature="0" />
    </clipPath>
  </defs>
  <sodipodi:namedview
     id="base"
     pagecolor="#ffffff"
     bordercolor="#666666"
     borderopacity="1.0"
     inkscape:pageopacity="0.0"
     inkscape:pageshadow="2"
     inkscape:zoom="0.24748737"
     inkscape:cx="702.1938"
     inkscape:cy="606.13026"
     inkscape:document-units="mm"
     inkscape:current-layer="layer1"
     showgrid="false"
     inkscape:snap-bbox="true"
     inkscape:snap-bbox-midpoints="true"
     inkscape:window-width="1920"
     inkscape:window-height="1017"
     inkscape:window-x="-8"
     inkscape:window-y="-8"
     inkscape:window-maximized="1" />
  <metadata
     id="metadata6752">
    <rdf:RDF>
      <cc:Work
         rdf:about="">
        <dc:format>image/svg+xml</dc:format>
        <dc:type
           rdf:resource="http://purl.org/dc/dcmitype/StillImage" />
        <dc:title />
      </cc:Work>
    </rdf:RDF>
  </metadata>
  <g
     inkscape:label="Layer 1"
     inkscape:groupmode="layer"
     id="layer1"
     transform="translate(140.22918,-5.9583163)">
    <g
       id="g4712"
       transform="matrix(0.96666662,0,0,0.99999895,-413.51897,-231.11309)"
       style="fill:#ffffff">
      <rect
         style="opacity:1;fill:#ffffff;fill-opacity:1;stroke:none;stroke-width:0.13229167;stroke-linecap:square;stroke-linejoin:miter;stroke-miterlimit:4;stroke-dasharray:none;stroke-opacity:1;paint-order:normal"
         id="rect4675-1"
         width="396.875"
         height="264.58334"
         x="282.71359"
         y="237.07166" />
    </g>
    <g
       id="g7463">
      <rect
         y="5.9583254"
         x="-140.22917"
         height="29.398119"
         width="132.29167"
         id="rect7358-5"
         style="opacity:1;fill:#ce1126;fill-opacity:1;stroke:none;stroke-width:0.26458332;stroke-linecap:square;stroke-linejoin:miter;stroke-miterlimit:4;stroke-dasharray:none;stroke-opacity:1;paint-order:normal" />
      <rect
         y="64.754562"
         x="-140.22917"
         height="29.398119"
         width="132.29167"
         id="rect7358-5-0"
         style="opacity:1;fill:#3a7728;fill-opacity:1;stroke:none;stroke-width:0.26458332;stroke-linecap:square;stroke-linejoin:miter;stroke-miterlimit:4;stroke-dasharray:none;stroke-opacity:1;paint-order:normal" />
      <rect
         height="19.84375"
         y="40.133629"
         x="-140.22917"
         width="132.29167"
         id="rect7396-9"
         style="opacity:1;fill:#0c1c8c;fill-opacity:1;stroke:none;stroke-width:2.10353327;stroke-linecap:square;stroke-linejoin:miter;stroke-miterlimit:4;stroke-dasharray:none;stroke-opacity:1;paint-order:normal" />
    </g>
    <g
       style="fill:#ffe24b;stroke-width:3.22280002"
       id="g4"
       transform="matrix(0.12190419,0,0,0.12439618,-418.45269,-4.7803651)" />
    <g
       style="fill:#ffe24b;stroke-width:3.22280002"
       id="g6"
       transform="matrix(-0.12190419,0,0,0.12439618,218.62405,-4.7803651)" />
    <g
       style="fill:#ffe24b;stroke-width:3.22280002"
       id="g8"
       transform="matrix(0.12190419,0,0,0.12439618,-117.56848,-11.485872)" />
    <g
       style="fill:#ffe24b;stroke-width:3.22280002"
       id="g10"
       transform="matrix(-0.12190419,0,0,0.12439618,519.49697,-11.485872)" />
    <g
       style="fill:#ffe24b;stroke-width:3.22280002"
       id="g12"
       transform="matrix(0.009837,0,0,0.00811914,-283.0294,93.527554)" />
    <g
       style="fill:#ffe24b;stroke-width:3.22280002"
       id="g14"
       transform="matrix(-0.009837,0,0,0.00811914,-231.62136,93.527554)" />
    <g
       style="fill:#ffe24b;stroke-width:3.22280002"
       id="g16"
       transform="matrix(0.009837,0,0,0.00811914,-258.75016,93.090116)" />
    <g
       style="fill:#ffe24b;stroke-width:3.22280002"
       id="g18"
       transform="matrix(-0.009837,0,0,0.00811914,-207.34212,93.090116)" />
    <g
       id="g4884"
       transform="matrix(0.26458334,0,0,0.26458334,-381.01457,42.018917)">
      <g
         transform="translate(-2.7298237,-20.433499)"
         id="g6125" />
    </g>
    <path
       style="fill:#e39312;fill-opacity:1;stroke:none;stroke-width:0.26458332"
       d=""
       id="path3950"
       inkscape:connector-curvature="0" />
    <g
       id="g7910"
       transform="matrix(-1.3987647,0,0,1.4190132,742.23952,45.874179)"
       style="stroke-width:0.18780058;stroke-miterlimit:4;stroke-dasharray:none">
      <path
         sodipodi:nodetypes="ccccc"
         stroke-miterlimit="3.8636"
         d="m 413.00301,111.02069 5.01877,1.12324 c -1.414,2.38078 -4.30879,2.38859 -4.30879,2.38859 l -5.21613,-0.65238 c 0.1367,-3.09585 4.50615,-2.85964 4.50615,-2.85964 z"
         id="path51715"
         inkscape:connector-curvature="0"
         style="display:inline;fill:#1a1a1a;fill-opacity:1;stroke:#000000;stroke-width:0.18780058;stroke-miterlimit:4;stroke-dasharray:none;stroke-opacity:1" />
      <path
         style="display:inline;fill:#1a1a1a;fill-opacity:1;stroke:#000000;stroke-width:0.18780058;stroke-miterlimit:4;stroke-dasharray:none;stroke-opacity:1"
         inkscape:connector-curvature="0"
         id="path51717"
         d="m 410.24241,114.11171 5.15117,0.14684 c -0.89444,2.6024 -3.73025,3.16037 -3.73025,3.16037 l -5.24742,0.35215 c -0.50515,-3.06047 3.82645,-3.65959 3.82645,-3.65959 z"
         stroke-miterlimit="3.8636"
         sodipodi:nodetypes="ccccc" />
      <path
         sodipodi:nodetypes="ccccc"
         stroke-miterlimit="3.8636"
         d="m 407.85611,117.54066 5.12707,-0.49972 c -0.53276,2.69218 -3.26837,3.60063 -3.26837,3.60063 l -5.1546,1.00649 c -0.91722,-2.97099 3.29583,-4.10763 3.29583,-4.10763 z"
         id="path51719"
         inkscape:connector-curvature="0"
         style="display:inline;fill:#1a1a1a;fill-opacity:1;stroke:#000000;stroke-width:0.18780058;stroke-miterlimit:4;stroke-dasharray:none;stroke-opacity:1" />
      <path
         style="display:inline;fill:#1a1a1a;fill-opacity:1;stroke:#000000;stroke-width:0.18780058;stroke-miterlimit:4;stroke-dasharray:none;stroke-opacity:1"
         inkscape:connector-curvature="0"
         id="path51721"
         d="m 405.60918,121.43888 5.06262,-0.92432 c -0.28755,2.72636 -2.93081,3.85894 -2.93081,3.85894 l -5.04428,1.43145 c -1.18214,-2.88351 2.91238,-4.36631 2.91238,-4.36631 z"
         stroke-miterlimit="3.8636"
         sodipodi:nodetypes="ccccc" />
      <path
         sodipodi:nodetypes="ccccc"
         stroke-miterlimit="3.8636"
         d="m 404.18157,125.29729 4.86748,-1.62447 c 0.13075,2.73741 -2.31156,4.22857 -2.31156,4.22857 l -4.77207,2.12356 c -1.60867,-2.68674 2.21604,-4.72789 2.21604,-4.72789 z"
         id="path51723"
         inkscape:connector-curvature="0"
         style="display:inline;fill:#1a1a1a;fill-opacity:1;stroke:#000000;stroke-width:0.18780058;stroke-miterlimit:4;stroke-dasharray:none;stroke-opacity:1" />
      <path
         style="display:inline;fill:#1a1a1a;fill-opacity:1;stroke:#000000;stroke-width:0.18780058;stroke-miterlimit:4;stroke-dasharray:none;stroke-opacity:1"
         inkscape:connector-curvature="0"
         id="path51725"
         d="m 403.54229,129.19336 4.41372,-2.55283 c 0.71627,2.6527 -1.35306,4.59513 -1.35306,4.59513 l -4.21309,3.0223 c -2.15153,-2.31064 1.1523,-5.06481 1.1523,-5.06481 z"
         stroke-miterlimit="3.8636"
         sodipodi:nodetypes="ccccc" />
      <path
         style="display:inline;fill:#1a1a1a;fill-opacity:1;stroke:#000000;stroke-width:0.18780058;stroke-miterlimit:4;stroke-dasharray:none;stroke-opacity:1"
         inkscape:connector-curvature="0"
         id="path51727"
         d="m 425.74693,76.220858 -0.50502,-4.461917 c 2.9569,-0.489315 3.84133,2.756136 3.82788,2.840069 l 0.78247,4.99158 c -3.13935,0.725542 -4.10541,-3.369711 -4.10541,-3.369711 z"
         stroke-miterlimit="3.8636"
         sodipodi:nodetypes="cccccc" />
      <path
         sodipodi:nodetypes="ccccc"
         stroke-miterlimit="3.8636"
         d="m 428.87689,73.318098 c 2.66993,-1.055052 3.41284,2.27448 3.41337,2.283218 l 0.78246,4.991581 c -3.13935,0.725541 -4.1053,-3.369712 -4.1053,-3.369712 z"
         id="path51729"
         inkscape:connector-curvature="0"
         style="display:inline;fill:#1a1a1a;fill-opacity:1;stroke:#000000;stroke-width:0.18780058;stroke-miterlimit:4;stroke-dasharray:none;stroke-opacity:1" />
      <path
         style="display:inline;fill:#1a1a1a;fill-opacity:1;stroke:#000000;stroke-width:0.18780058;stroke-miterlimit:4;stroke-dasharray:none;stroke-opacity:1"
         inkscape:connector-curvature="0"
         id="path51731"
         d="m 432.28865,78.434213 -0.33922,-4.302811 c 2.7744,0.649036 3.66208,2.680963 3.66208,2.680963 l 0.78246,4.99158 c -3.13935,0.725542 -4.10541,-3.369711 -4.10541,-3.369711 z"
         stroke-miterlimit="3.8636"
         sodipodi:nodetypes="cccccc" />
      <path
         sodipodi:nodetypes="ccccc"
         stroke-miterlimit="3.8636"
         d="M 435.54338,79.262814 435.28706,74.3236 c 2.7744,0.649035 3.57918,3.317366 3.57918,3.317366 l 0.78246,4.99158 c -3.13935,0.725542 -4.10541,-3.369711 -4.10541,-3.369711 z"
         id="path51733"
         inkscape:connector-curvature="0"
         style="display:inline;fill:#1a1a1a;fill-opacity:1;stroke:#000000;stroke-width:0.18780058;stroke-miterlimit:4;stroke-dasharray:none;stroke-opacity:1" />
      <path
         style="display:inline;fill:#1a1a1a;fill-opacity:1;stroke:#000000;stroke-width:0.18780058;stroke-miterlimit:4;stroke-dasharray:none;stroke-opacity:1"
         inkscape:connector-curvature="0"
         id="path51735"
         d="m 438.73796,79.920122 -0.67129,-4.903204 c 2.81997,0.43183 3.84676,3.02905 3.84676,3.02905 l 1.20012,4.914608 c -3.068,0.96655 -4.37568,-3.040433 -4.37568,-3.040433 z"
         stroke-miterlimit="3.8636"
         sodipodi:nodetypes="ccccc" />
      <path
         sodipodi:nodetypes="ccccc"
         stroke-miterlimit="3.8636"
         d="m 442.07978,80.578128 -0.36334,-4.933015 c 2.78788,0.593475 3.65033,3.245177 3.65033,3.245177 l 0.89052,4.974886 c -3.12294,0.788084 -4.1776,-3.287005 -4.1776,-3.287005 z"
         id="path51737"
         inkscape:connector-curvature="0"
         style="display:inline;fill:#1a1a1a;fill-opacity:1;stroke:#000000;stroke-width:0.18780058;stroke-miterlimit:4;stroke-dasharray:none;stroke-opacity:1" />
      <path
         style="fill:#0c1c8c;fill-opacity:1;stroke:#000080;stroke-width:0.18780058;stroke-linejoin:miter;stroke-miterlimit:4;stroke-dasharray:none;stroke-opacity:1"
         d="m 437.00758,17.85321 a 13.310712,12.772896 0 0 0 -13.31099,12.773149 13.310712,12.772896 0 0 0 13.31099,12.77317 13.310712,12.772896 0 0 0 13.31098,-12.77317 13.310712,12.772896 0 0 0 -13.31098,-12.773149 z m 0,5.636553 a 7.4403172,7.1396934 0 0 1 7.43709,7.136596 7.4403172,7.1396934 0 0 1 -7.43709,7.140743 7.4403172,7.1396934 0 0 1 -7.44141,-7.140743 7.4403172,7.1396934 0 0 1 7.44141,-7.136596 z"
         id="path51739"
         inkscape:connector-curvature="0" />
      <path
         style="fill:#0c1c8c;fill-opacity:1;fill-rule:evenodd;stroke:#000080;stroke-width:0.18780058;stroke-linecap:butt;stroke-linejoin:miter;stroke-miterlimit:4;stroke-dasharray:none;stroke-opacity:1"
         d="m 441.19204,35.828078 0.11862,82.646092 c 0.48536,4.81652 2.26289,5.3907 8.15627,3.67368 15.92462,-4.6396 23.09302,-14.35437 28.112,-20.20318 -1.30502,0.20586 -3.78419,2.33943 -5.24987,3.51092 -1.05787,-0.19 -2.26567,-0.62663 -3.19493,-1.32903 7.32911,-6.340321 10.40543,-11.074094 13.47894,-21.438749 4.80091,9.47184 6.36425,22.688519 1.4168,34.542509 -1.62172,-1.51504 -3.28024,-2.47975 -4.77992,-5.87015 0.63751,-1.48483 2.03515,-6.46249 1.05491,-8.20265 -7.0659,27.71113 -35.85057,27.01183 -43.2973,37.04054 -7.4467,-10.02871 -36.23138,-9.32941 -43.29728,-37.04054 -0.98023,1.74016 0.41741,6.71782 1.05492,8.20265 -1.49968,3.3904 -3.1582,4.35511 -4.77992,5.87015 -4.94745,-11.85399 -3.38411,-25.070669 1.4168,-34.542509 3.07351,10.364655 6.14982,15.098428 13.47894,21.438749 -0.92926,0.7024 -2.13706,1.13905 -3.19493,1.32903 -1.46569,-1.17149 -3.94486,-3.30497 -5.24987,-3.51092 5.01897,5.84881 12.18738,15.56358 28.112,20.20318 5.89337,1.71702 7.67091,1.14284 8.15627,-3.67368 l 0.11862,-82.646092 c 1.98032,-1.369944 3.89484,-1.492256 4.18445,-1.492256 0.28963,0 2.20416,0.122291 4.18448,1.492256 z"
         id="path51741"
         inkscape:connector-curvature="0"
         sodipodi:nodetypes="ccscccccccccccccccsccsc" />
      <path
         sodipodi:nodetypes="ccccccccc"
         inkscape:connector-curvature="0"
         id="path51743"
         d="m 443.81291,61.075184 36.25789,-6.6374 v -6.476833 h -43.06324 -43.06321 v 6.476833 l 36.25788,6.6374 h 6.80533 z"
         style="fill:#0c1c8c;fill-opacity:1;fill-rule:evenodd;stroke:#000080;stroke-width:0.18780058;stroke-linecap:butt;stroke-linejoin:miter;stroke-miterlimit:4;stroke-dasharray:none;stroke-opacity:1" />
      <path
         style="fill:#0c1c8c;fill-opacity:1;stroke:#000080;stroke-width:0.18780058;stroke-linejoin:miter;stroke-miterlimit:4;stroke-dasharray:none;stroke-opacity:1"
         d="m 439.66442,54.51812 a 2.6568771,2.5495267 0 0 1 -2.65688,2.549531 2.6568771,2.5495267 0 0 1 -2.65688,-2.549531 2.6568771,2.5495267 0 0 1 2.65688,-2.54953 2.6568771,2.5495267 0 0 1 2.65688,2.54953 z"
         id="circle51745"
         inkscape:connector-curvature="0" />
      <path
         inkscape:connector-curvature="0"
         id="path51747"
         d="m 398.4387,46.407168 h 4.35092 v 10.812607 h -4.35092 z"
         style="display:inline;fill:#0c1c8c;fill-opacity:1;stroke:#000080;stroke-width:0.18780058;stroke-linejoin:miter;stroke-miterlimit:4;stroke-dasharray:none;stroke-opacity:1" />
      <path
         inkscape:connector-curvature="0"
         id="path51749"
         d="m 471.22555,46.407168 h 4.3509 v 10.812607 h -4.3509 z"
         style="display:inline;fill:#0c1c8c;fill-opacity:1;stroke:#000080;stroke-width:0.18780058;stroke-linejoin:miter;stroke-miterlimit:4;stroke-dasharray:none;stroke-opacity:1" />
      <path
         sodipodi:nodetypes="ccccc"
         inkscape:connector-curvature="0"
         style="display:inline;fill:#0c1c8c;fill-opacity:1;stroke:#000080;stroke-width:0.18780058;stroke-linejoin:miter;stroke-miterlimit:4;stroke-dasharray:none;stroke-opacity:1"
         d="m 424.33924,46.407168 h 4.35092 v 15.793545 h -4.35092 z"
         id="path51751" />
      <path
         id="path51753"
         d="m 446.16473,46.407168 h 4.35092 v 15.793545 h -4.35092 z"
         style="display:inline;fill:#0c1c8c;fill-opacity:1;stroke:#000080;stroke-width:0.18780058;stroke-linejoin:miter;stroke-miterlimit:4;stroke-dasharray:none;stroke-opacity:1"
         inkscape:connector-curvature="0"
         sodipodi:nodetypes="ccccc" />
      <path
         style="color:#000000;font-style:normal;font-variant:normal;font-weight:normal;font-stretch:normal;font-size:medium;line-height:normal;font-family:sans-serif;text-indent:0;text-align:start;text-decoration:none;text-decoration-line:none;text-decoration-style:solid;text-decoration-color:#000000;letter-spacing:normal;word-spacing:normal;text-transform:none;writing-mode:lr-tb;direction:ltr;baseline-shift:baseline;text-anchor:start;white-space:normal;clip-rule:nonzero;display:inline;overflow:visible;visibility:visible;opacity:1;isolation:auto;mix-blend-mode:normal;color-interpolation:sRGB;color-interpolation-filters:linearRGB;solid-color:#000000;solid-opacity:1;fill:#000080;fill-opacity:1;fill-rule:evenodd;stroke:none;stroke-width:0.18780058;stroke-linecap:butt;stroke-linejoin:miter;stroke-miterlimit:4;stroke-dasharray:none;stroke-dashoffset:0;stroke-opacity:1;color-rendering:auto;image-rendering:auto;shape-rendering:auto;text-rendering:auto;enable-background:accumulate"
         d="m 403.30591,115.27937 c 8.87457,9.3451 21.47629,14.2116 33.70167,14.2116 12.22537,0 24.82711,-4.8665 33.70166,-14.2116 -10.03616,7.54597 -22.36551,12.20271 -33.70166,12.55416 -11.33614,-0.35145 -23.66549,-5.00819 -33.70167,-12.55416 z"
         id="path51755"
         inkscape:connector-curvature="0"
         sodipodi:nodetypes="ccccc" />
      <path
         style="display:inline;fill:#1a1a1a;fill-opacity:1;stroke:#000000;stroke-width:0.18780058;stroke-miterlimit:4;stroke-dasharray:none;stroke-opacity:1"
         inkscape:connector-curvature="0"
         id="path51757"
         d="m 422.36648,31.825729 c 1.02105,-2.939701 5.15233,-1.558988 5.15233,-1.558988 l 4.50281,2.405467 c -2.04228,1.915412 -4.82759,1.158282 -4.82759,1.158282 z"
         stroke-miterlimit="3.8636" />
      <path
         stroke-miterlimit="3.8636"
         d="m 418.55154,34.418252 c 0.68227,-3.028733 4.9454,-2.086789 4.9454,-2.086789 l 4.74843,1.921928 c -1.81339,2.116939 -4.66791,1.6546 -4.66791,1.6546 z"
         id="path51759"
         inkscape:connector-curvature="0"
         style="display:inline;fill:#1a1a1a;fill-opacity:1;stroke:#000000;stroke-width:0.18780058;stroke-miterlimit:4;stroke-dasharray:none;stroke-opacity:1" />
      <path
         style="display:inline;fill:#1a1a1a;fill-opacity:1;stroke:#000000;stroke-width:0.18780058;stroke-miterlimit:4;stroke-dasharray:none;stroke-opacity:1"
         inkscape:connector-curvature="0"
         id="path51761"
         d="m 415.11932,37.329136 c 0.36685,-3.078623 4.70615,-2.545743 4.70615,-2.545743 l 4.92319,1.462022 c -1.5864,2.278605 -4.47457,2.089349 -4.47457,2.089349 z"
         stroke-miterlimit="3.8636" />
      <path
         stroke-miterlimit="3.8636"
         d="m 411.89568,40.669565 c -0.004,-3.09868 4.37085,-3.046844 4.37085,-3.046844 l 5.06545,0.910588 c -1.30362,2.438135 -4.19534,2.56798 -4.19534,2.56798 z"
         id="path51763"
         inkscape:connector-curvature="0"
         style="display:inline;fill:#1a1a1a;fill-opacity:1;stroke:#000000;stroke-width:0.18780058;stroke-miterlimit:4;stroke-dasharray:none;stroke-opacity:1" />
      <path
         style="display:inline;fill:#1a1a1a;fill-opacity:1;stroke:#000000;stroke-width:0.18780058;stroke-miterlimit:4;stroke-dasharray:none;stroke-opacity:1"
         inkscape:connector-curvature="0"
         id="path51765"
         d="m 409.47381,44.269917 c -0.40887,-3.073757 3.9387,-3.54824 3.9387,-3.54824 l 5.14441,0.294516 c -0.97508,2.575639 -3.82707,3.052048 -3.82707,3.052048 l -5.25604,0.201634 z"
         stroke-miterlimit="3.8636" />
      <path
         stroke-miterlimit="3.8636"
         d="m 407.77691,48.102031 c -0.91742,-2.971015 3.29455,-4.108583 3.29455,-4.108583 l 5.12701,-0.501227 c -0.53188,2.692388 -3.2673,3.601643 -3.2673,3.601643 l -5.15426,1.008082 z"
         id="path51767"
         inkscape:connector-curvature="0"
         style="display:inline;fill:#1a1a1a;fill-opacity:1;stroke:#000000;stroke-width:0.18780058;stroke-miterlimit:4;stroke-dasharray:none;stroke-opacity:1" />
      <path
         style="display:inline;fill:#1a1a1a;fill-opacity:1;stroke:#000000;stroke-width:0.18780058;stroke-miterlimit:4;stroke-dasharray:none;stroke-opacity:1"
         inkscape:connector-curvature="0"
         id="path51769"
         d="m 409.96592,47.311281 5.04684,-1.001312 c -0.24243,2.730472 -2.86674,3.903162 -2.86674,3.903162 l -5.01994,1.508188 c -1.22895,-2.865458 2.83984,-4.410038 2.83984,-4.410038 z"
         stroke-miterlimit="3.8636"
         sodipodi:nodetypes="ccccc" />
      <path
         sodipodi:nodetypes="ccccc"
         stroke-miterlimit="3.8636"
         d="m 408.88913,50.864366 4.92747,-1.448756 c 0.024,2.740226 -2.47472,4.142773 -2.47472,4.142773 l -4.8514,1.951063 c -1.50219,-2.742913 2.39865,-4.64508 2.39865,-4.64508 z"
         id="path51771"
         inkscape:connector-curvature="0"
         style="display:inline;fill:#1a1a1a;fill-opacity:1;stroke:#000000;stroke-width:0.18780058;stroke-miterlimit:4;stroke-dasharray:none;stroke-opacity:1" />
      <path
         style="display:inline;fill:#1a1a1a;fill-opacity:1;stroke:#000000;stroke-width:0.18780058;stroke-miterlimit:4;stroke-dasharray:none;stroke-opacity:1"
         inkscape:connector-curvature="0"
         id="path51773"
         d="m 408.4148,54.276435 4.67719,-2.076633 c 0.41108,2.711789 -1.86635,4.426541 -1.86635,4.426541 l -4.53083,2.564425 c -1.87599,-2.522089 1.71999,-4.914333 1.71999,-4.914333 z"
         stroke-miterlimit="3.8636"
         sodipodi:nodetypes="ccccc" />
      <path
         sodipodi:nodetypes="cccccc"
         stroke-miterlimit="3.8636"
         d="m 408.59727,57.773812 4.2282,-2.827374 c 0.89753,2.601452 -1.03344,4.670998 -1.03344,4.670998 l -3.66384,3.482101 c -3.27248,-1.564701 -0.44254,-4.764304 0.46906,-5.325725 z"
         id="path51775"
         inkscape:connector-curvature="0"
         style="display:inline;fill:#1a1a1a;fill-opacity:1;stroke:#000000;stroke-width:0.18780058;stroke-miterlimit:4;stroke-dasharray:none;stroke-opacity:1" />
      <path
         style="display:inline;fill:#1a1a1a;fill-opacity:1;stroke:#000000;stroke-width:0.18780058;stroke-miterlimit:4;stroke-dasharray:none;stroke-opacity:1"
         inkscape:connector-curvature="0"
         id="path51777"
         d="m 409.48032,61.661296 3.34105,-3.765276 c 1.55674,2.29733 0.23696,4.769677 0.23696,4.769677 l -2.99529,4.149459 c -3.09238,-1.542464 -1.5518,-3.992066 -0.58274,-5.15386 z"
         stroke-miterlimit="3.8636"
         sodipodi:nodetypes="cccccc" />
      <path
         sodipodi:nodetypes="ccccc"
         stroke-miterlimit="3.8636"
         d="m 411.32156,64.797087 2.79349,-4.155764 c 1.85932,2.079892 0.89143,4.697847 0.89143,4.697847 l -2.39788,4.492765 c -2.99116,-1.167506 -1.28707,-5.034848 -1.28707,-5.034848 z"
         id="path51779"
         inkscape:connector-curvature="0"
         style="display:inline;fill:#1a1a1a;fill-opacity:1;stroke:#000000;stroke-width:0.18780058;stroke-miterlimit:4;stroke-dasharray:none;stroke-opacity:1" />
      <path
         style="display:inline;fill:#1a1a1a;fill-opacity:1;stroke:#000000;stroke-width:0.18780058;stroke-miterlimit:4;stroke-dasharray:none;stroke-opacity:1"
         inkscape:connector-curvature="0"
         id="path51781"
         d="m 413.3715,68.053266 2.1217,-4.506772 c 2.15966,1.792888 1.60624,4.519488 1.60624,4.519488 l -1.47119,4.783853 c -3.13829,-0.729795 -2.25677,-4.796569 -2.25677,-4.796569 z"
         stroke-miterlimit="3.8636"
         sodipodi:nodetypes="cccccc" />
      <path
         sodipodi:nodetypes="cccccc"
         stroke-miterlimit="3.8636"
         d="m 415.91009,70.863418 1.26597,-4.793776 c 2.45362,1.402018 2.40663,4.179481 2.40663,4.179481 l -0.44737,4.753408 c -3.73146,-0.260537 -3.47014,-4.172669 -3.22525,-4.139092 z"
         id="path51783"
         inkscape:connector-curvature="0"
         style="display:inline;fill:#1a1a1a;fill-opacity:1;stroke:#000000;stroke-width:0.18780058;stroke-miterlimit:4;stroke-dasharray:none;stroke-opacity:1" />
      <path
         style="display:inline;fill:#1a1a1a;fill-opacity:1;stroke:#000000;stroke-width:0.18780058;stroke-miterlimit:4;stroke-dasharray:none;stroke-opacity:1"
         inkscape:connector-curvature="0"
         id="path51785"
         d="m 418.91605,72.650952 0.51629,-4.702925 c 2.80192,-0.0085 3.06218,3.663444 3.05812,3.68676 l -0.17462,5.04494 c -3.22446,0.166723 -3.3999,-4.028754 -3.3999,-4.028754 z"
         stroke-miterlimit="3.8636"
         sodipodi:nodetypes="cccccc" />
      <path
         sodipodi:nodetypes="ccccc"
         stroke-miterlimit="3.8636"
         d="m 422.29754,69.821398 c 2.72305,0.825386 3.34034,3.539333 3.34034,3.539333 l 0.43334,5.030574 c -3.18285,0.522745 -3.8617,-3.625297 -3.8617,-3.625297 z"
         id="path51787"
         inkscape:connector-curvature="0"
         style="display:inline;fill:#1a1a1a;fill-opacity:1;stroke:#000000;stroke-width:0.18780058;stroke-miterlimit:4;stroke-dasharray:none;stroke-opacity:1" />
      <path
         style="display:inline;fill:#1a1a1a;fill-opacity:1;stroke:#000000;stroke-width:0.18780058;stroke-miterlimit:4;stroke-dasharray:none;stroke-opacity:1"
         inkscape:connector-curvature="0"
         id="path51789"
         d="m 445.32816,81.582614 -0.46145,-4.437987 c 2.68823,-0.741601 3.76317,2.776828 3.76317,2.776828 l 0.84673,4.981911 c -3.12976,0.762758 -4.14854,-3.32071 -4.14854,-3.32071 z"
         stroke-miterlimit="3.8636"
         sodipodi:nodetypes="cccccc" />
      <path
         sodipodi:nodetypes="cccccc"
         stroke-miterlimit="3.8636"
         d="m 448.609,82.216183 -0.24338,-3.649036 c 2.63307,-0.297055 3.79113,2.550166 3.79113,2.550166 l -0.0474,5.047542 c -3.2193,0.241558 -3.50048,-3.948651 -3.50048,-3.948651 z"
         id="path51791"
         inkscape:connector-curvature="0"
         style="display:inline;fill:#1a1a1a;fill-opacity:1;stroke:#000000;stroke-width:0.18780058;stroke-miterlimit:4;stroke-dasharray:none;stroke-opacity:1" />
      <path
         style="display:inline;fill:#1a1a1a;fill-opacity:1;stroke:#000000;stroke-width:0.18780058;stroke-miterlimit:4;stroke-dasharray:none;stroke-opacity:1"
         inkscape:connector-curvature="0"
         id="path51793"
         d="m 452.00581,83.729407 0.25532,-3.033726 c 1.98791,-0.96088 3.41467,2.405087 3.41467,2.405087 l -0.75792,4.99505 c -3.22377,-0.178149 -2.91216,-4.366411 -2.91216,-4.366411 z"
         stroke-miterlimit="3.8636"
         sodipodi:nodetypes="cccccc" />
      <path
         sodipodi:nodetypes="cccccc"
         stroke-miterlimit="3.8636"
         d="m 454.77997,85.546943 0.87195,-3.287408 c 2.93737,-0.616219 3.0027,2.756158 2.82531,2.82911 l -1.00771,4.954215 c -3.21107,-0.326951 -2.68966,-4.495938 -2.68966,-4.495938 z"
         id="path51795"
         inkscape:connector-curvature="0"
         style="display:inline;fill:#1a1a1a;fill-opacity:1;stroke:#000000;stroke-width:0.18780058;stroke-miterlimit:4;stroke-dasharray:none;stroke-opacity:1" />
      <path
         style="display:inline;fill:#1a1a1a;fill-opacity:1;stroke:#000000;stroke-width:0.18780058;stroke-miterlimit:4;stroke-dasharray:none;stroke-opacity:1"
         inkscape:connector-curvature="0"
         id="path51797"
         d="m 456.8018,87.138662 1.82047,-2.917824 c 2.54179,-0.25823 1.92641,3.184919 1.87903,3.359196 l -2.264,4.55628 c -3.02452,-1.085414 -1.43561,-4.997716 -1.43561,-4.997716 z"
         stroke-miterlimit="3.8636"
         sodipodi:nodetypes="cccccc" />
      <path
         sodipodi:nodetypes="cccccc"
         stroke-miterlimit="3.8636"
         d="m 458.1503,89.084414 2.61095,-2.404473 c 2.09848,1.726896 0.91462,3.587403 0.90331,3.598257 l -3.2312,3.983138 c -2.7109,-1.683629 -0.28326,-5.176986 -0.28326,-5.176986 z"
         id="path51800"
         inkscape:connector-curvature="0"
         style="display:inline;fill:#1a1a1a;fill-opacity:1;stroke:#000000;stroke-width:0.18780058;stroke-miterlimit:4;stroke-dasharray:none;stroke-opacity:1" />
      <path
         style="display:inline;fill:#1a1a1a;fill-opacity:1;stroke:#000000;stroke-width:0.18780058;stroke-miterlimit:4;stroke-dasharray:none;stroke-opacity:1"
         inkscape:connector-curvature="0"
         id="path51802"
         d="m 458.99677,91.898459 3.29525,-2.27027 c 2.04225,2.631094 -0.1711,4.224379 -0.17264,4.224379 l -4.11758,3.141229 c -2.22164,-2.248689 0.99488,-5.095444 0.99488,-5.095444 z"
         stroke-miterlimit="3.8636"
         sodipodi:nodetypes="cccccc" />
      <path
         sodipodi:nodetypes="cccccc"
         stroke-miterlimit="3.8636"
         d="m 459.41179,94.281436 3.70218,-1.355324 c 1.69598,2.744605 -1.11132,4.051118 -1.2511,4.050758 l -4.85269,1.948185 c -1.50056,-2.743737 2.40156,-4.643725 2.40156,-4.643725 z"
         id="path51804"
         inkscape:connector-curvature="0"
         style="display:inline;fill:#1a1a1a;fill-opacity:1;stroke:#000000;stroke-width:0.18780058;stroke-miterlimit:4;stroke-dasharray:none;stroke-opacity:1" />
      <path
         style="display:inline;fill:#1a1a1a;fill-opacity:1;stroke:#000000;stroke-width:0.18780058;stroke-miterlimit:4;stroke-dasharray:none;stroke-opacity:1"
         inkscape:connector-curvature="0"
         id="path51806"
         d="m 458.52843,97.254651 4.59099,-0.924912 c 1.09637,2.828517 -2.39018,3.864381 -2.45869,3.859321 l -5.04406,1.43219 c -1.18194,-2.883589 2.91172,-4.366705 2.91172,-4.366705 z"
         stroke-miterlimit="3.8636"
         sodipodi:nodetypes="cccccc" />
      <path
         sodipodi:nodetypes="cccccc"
         stroke-miterlimit="3.8636"
         d="m 457.52928,100.18896 4.67677,-0.956059 c 1.10885,3.435259 -3.03638,4.498989 -3.30733,4.283279 l -5.25232,0.27711 c -0.45748,-3.06737 3.88285,-3.60446 3.88285,-3.60446 z"
         id="path51808"
         inkscape:connector-curvature="0"
         style="display:inline;fill:#1a1a1a;fill-opacity:1;stroke:#000000;stroke-width:0.18780058;stroke-miterlimit:4;stroke-dasharray:none;stroke-opacity:1" />
      <path
         style="display:inline;fill:#1a1a1a;fill-opacity:1;stroke:#000000;stroke-width:0.18780058;stroke-miterlimit:4;stroke-dasharray:none;stroke-opacity:1"
         inkscape:connector-curvature="0"
         id="path51810"
         d="m 455.2341,102.40422 5.00458,1.18032 c -1.44337,2.36449 -4.33803,2.33935 -4.33803,2.33935 l -5.2077,-0.71166 c 0.17506,-3.09407 4.54115,-2.80814 4.54115,-2.80814 z"
         stroke-miterlimit="3.8636"
         sodipodi:nodetypes="ccccc" />
      <path
         sodipodi:nodetypes="ccccc"
         stroke-miterlimit="3.8636"
         d="m 451.87969,104.08983 4.63967,2.15261 c -1.92394,2.02501 -4.74996,1.42316 -4.74996,1.42316 l -4.93986,-1.7347 c 0.84135,-2.9916 5.05019,-1.84119 5.05019,-1.84119 z"
         id="path51812"
         inkscape:connector-curvature="0"
         style="display:inline;fill:#1a1a1a;fill-opacity:1;stroke:#000000;stroke-width:0.18780058;stroke-miterlimit:4;stroke-dasharray:none;stroke-opacity:1" />
      <path
         style="display:inline;fill:#1a1a1a;fill-opacity:1;stroke:#000000;stroke-width:0.18780058;stroke-miterlimit:4;stroke-dasharray:none;stroke-opacity:1"
         inkscape:connector-curvature="0"
         id="path51814"
         d="m 447.54934,105.12864 4.47307,2.45597 c -2.06558,1.8922 -4.84133,1.10386 -4.84133,1.10386 l -4.80269,-2.05905 c 1.05538,-2.92845 5.17102,-1.50091 5.17102,-1.50091 z"
         stroke-miterlimit="3.8636"
         sodipodi:nodetypes="ccccc" />
      <path
         sodipodi:nodetypes="ccccc"
         stroke-miterlimit="3.8636"
         d="m 443.05274,105.82039 4.40314,2.56967 c -2.11747,1.83863 -4.8703,0.97946 -4.8703,0.97946 l -4.74372,-2.18135 c 1.13647,-2.90034 5.21095,-1.36791 5.21095,-1.36791 z"
         id="path51816"
         inkscape:connector-curvature="0"
         style="display:inline;fill:#1a1a1a;fill-opacity:1;stroke:#000000;stroke-width:0.18780058;stroke-miterlimit:4;stroke-dasharray:none;stroke-opacity:1" />
      <path
         style="display:inline;fill:#1a1a1a;fill-opacity:1;stroke:#000000;stroke-width:0.18780058;stroke-miterlimit:4;stroke-dasharray:none;stroke-opacity:1"
         inkscape:connector-curvature="0"
         id="path51818"
         d="m 437.74452,105.7884 4.03395,3.07756 c -2.34031,1.57029 -4.95969,0.38772 -4.95969,0.38772 l -4.42242,-2.73314 c 1.5053,-2.74132 5.34824,-0.73227 5.34824,-0.73227 z"
         stroke-miterlimit="3.8636"
         sodipodi:nodetypes="ccccc" />
      <path
         sodipodi:nodetypes="ccccc"
         stroke-miterlimit="3.8636"
         d="m 431.50857,105.61742 4.03395,3.07757 c -2.34031,1.57028 -4.95968,0.38771 -4.95968,0.38771 l -4.42243,-2.73313 c 1.50531,-2.74133 5.34825,-0.73227 5.34825,-0.73227 z"
         id="path51820"
         inkscape:connector-curvature="0"
         style="display:inline;fill:#1a1a1a;fill-opacity:1;stroke:#000000;stroke-width:0.18780058;stroke-miterlimit:4;stroke-dasharray:none;stroke-opacity:1" />
      <path
         style="display:inline;fill:#1a1a1a;fill-opacity:1;stroke:#000000;stroke-width:0.18780058;stroke-miterlimit:4;stroke-dasharray:none;stroke-opacity:1"
         inkscape:connector-curvature="0"
         id="path51822"
         d="m 425.82241,105.76369 4.17224,2.90282 c -2.26541,1.66835 -4.93687,0.59845 -4.93687,0.59845 l -4.54442,-2.54221 c 1.37709,-2.80271 5.30913,-0.95921 5.30913,-0.95921 z"
         stroke-miterlimit="3.8636"
         sodipodi:nodetypes="ccccc" />
      <path
         sodipodi:nodetypes="ccccc"
         stroke-miterlimit="3.8636"
         d="m 420.3962,106.83478 4.45199,2.49092 c -2.08159,1.87597 -4.85055,1.06589 -4.85055,1.06589 l -4.78501,-2.09665 c 1.08027,-2.92007 5.18363,-1.46033 5.18363,-1.46033 z"
         id="path51824"
         inkscape:connector-curvature="0"
         style="display:inline;fill:#1a1a1a;fill-opacity:1;stroke:#000000;stroke-width:0.18780058;stroke-miterlimit:4;stroke-dasharray:none;stroke-opacity:1" />
      <path
         style="display:inline;fill:#1a1a1a;fill-opacity:1;stroke:#000000;stroke-width:0.18780058;stroke-miterlimit:4;stroke-dasharray:none;stroke-opacity:1"
         inkscape:connector-curvature="0"
         id="path51826"
         d="m 416.28355,108.5219 4.89456,1.54781 c -1.62942,2.25043 -4.5134,2.01075 -4.5134,2.01075 l -5.13484,-1.0957 c 0.42369,-3.07183 4.75371,-2.46305 4.75371,-2.46305 z"
         stroke-miterlimit="3.8636"
         sodipodi:nodetypes="ccccc" />
    </g>
  </g>
</svg>
