<?xml version="1.0" encoding="UTF-8" standalone="no"?>
<svg
   xmlns:dc="http://purl.org/dc/elements/1.1/"
   xmlns:cc="http://creativecommons.org/ns#"
   xmlns:rdf="http://www.w3.org/1999/02/22-rdf-syntax-ns#"
   xmlns:svg="http://www.w3.org/2000/svg"
   xmlns="http://www.w3.org/2000/svg"
   xmlns:sodipodi="http://sodipodi.sourceforge.net/DTD/sodipodi-0.dtd"
   xmlns:inkscape="http://www.inkscape.org/namespaces/inkscape"
   width="1800"
   height="1200"
   id="svg2"
   version="1.1"
   inkscape:version="0.48.2 r9819"
   sodipodi:docname="AJAX1.svg">
  <metadata
     id="metadata18">
    <rdf:RDF>
      <cc:Work
         rdf:about="">
        <dc:format>image/svg+xml</dc:format>
        <dc:type
           rdf:resource="http://purl.org/dc/dcmitype/StillImage" />
      </cc:Work>
    </rdf:RDF>
  </metadata>
  <defs
     id="defs16">
    <clipPath
       id="r-1">
      <rect
         y="0"
         x="0"
         width="900"
         height="600"
         id="rect5-7" />
    </clipPath>
    <clipPath
       id="clipPath3007">
      <rect
         y="0"
         x="0"
         width="900"
         height="600"
         id="rect3009" />
    </clipPath>
  </defs>
  <sodipodi:namedview
     pagecolor="#ffffff"
     bordercolor="#666666"
     borderopacity="1"
     objecttolerance="10"
     gridtolerance="10"
     guidetolerance="10"
     inkscape:pageopacity="0"
     inkscape:pageshadow="2"
     inkscape:window-width="1280"
     inkscape:window-height="1004"
     id="namedview14"
     showgrid="false"
     fit-margin-top="0"
     fit-margin-left="0"
     fit-margin-right="0"
     fit-margin-bottom="0"
     inkscape:zoom="0.35777778"
     inkscape:cx="450"
     inkscape:cy="900"
     inkscape:window-x="-8"
     inkscape:window-y="-8"
     inkscape:window-maximized="1"
     inkscape:current-layer="svg2" />
  <clipPath
     id="r">
    <rect
       width="900"
       height="600"
       id="rect5"
       x="0"
       y="0" />
  </clipPath>
  <path
     style="opacity:0.98000004;color:#000000;fill:#ffffff;fill-opacity:1;fill-rule:nonzero;stroke:none;stroke-width:10;marker:none;visibility:visible;display:inline;overflow:visible;enable-background:accumulate"
     d="m 0,0 1800,0 0,1200 -1800,0 z"
     id="rect3028"
     inkscape:connector-curvature="0"
     sodipodi:nodetypes="ccccc" />
  <path
     style="fill:#003580"
     inkscape:connector-curvature="0"
     d="M 0,0 900,0 0,600 z"
     id="blue_area" />
  <path
     style="fill:#009543"
     inkscape:connector-curvature="0"
     d="m 0,600 900,0 0,-600 z"
     id="green_area" />
  <line
     style="stroke:#ffffff;stroke-width:200"
     x1="0"
     y1="600"
     x2="900"
     y2="0"
     clip-path="url(#r-1)"
     id="white_stripes" />
  <line
     style="stroke:#d21034;stroke-width:150"
     x1="0"
     y1="600"
     x2="900"
     y2="0"
     clip-path="url(#r-1)"
     id="red_stripe" />
  <path
     style="fill:#ffce00"
     inkscape:connector-curvature="0"
     d="m 266.60247,215.00005 -44.17613,-7.57358 7.5736,44.17611 -34.47085,-28.64698 -15.52914,42.04444 -15.52913,-42.04444 -34.47085,28.64698 7.57359,-44.17611 -44.176115,7.57358 28.646985,-34.47084 -42.044442,-15.52913 42.044442,-15.52914 -28.646985,-34.47085 44.176115,7.57359 -7.57359,-44.176118 34.47085,28.646988 15.52913,-42.044437 15.52914,42.044437 34.47085,-28.646988 -7.5736,44.176118 44.17613,-7.57359 -28.64699,34.47085 42.04444,15.52914 -42.04444,15.52913 28.64699,34.47084 z"
     id="star" />
  <path
     style="fill:#003580"
     inkscape:connector-curvature="0"
     d="m 239.99997,165.00001 a 59.999989,59.999989 0 0 1 -119.99997,0 59.999989,59.999989 0 1 1 119.99997,0 z"
     id="blue_gap" />
  <path
     style="fill:#ffce00"
     inkscape:connector-curvature="0"
     d="m 230.00001,164.99999 a 50.000012,50.000012 0 1 1 -100.00001,0 50.000012,50.000012 0 1 1 100.00001,0 z"
     id="yellow_circle" />
</svg>
