<?xml version="1.0" encoding="UTF-8" standalone="no"?>
<!-- Generator: Adobe Illustrator 16.0.0, SVG Export Plug-In . SVG Version: 6.00 Build 0)  -->

<svg
   xmlns:dc="http://purl.org/dc/elements/1.1/"
   xmlns:cc="http://creativecommons.org/ns#"
   xmlns:rdf="http://www.w3.org/1999/02/22-rdf-syntax-ns#"
   xmlns:svg="http://www.w3.org/2000/svg"
   xmlns="http://www.w3.org/2000/svg"
   xmlns:sodipodi="http://sodipodi.sourceforge.net/DTD/sodipodi-0.dtd"
   xmlns:inkscape="http://www.inkscape.org/namespaces/inkscape"
   enable-background="new 0 0 1125 750"
   xml:space="preserve"
   height="750px"
   width="1125px"
   version="1.1"
   y="0px"
   x="0px"
   viewBox="0 0 1125 750"
   id="svg2"
   inkscape:version="0.48.4 r9939"
   sodipodi:docname="Republic_of_China_Marine_Corp_Flag.svg"
   inkscape:export-filename="D:\網頁\Republic_of_China_Marine_Corp_Flag.png"
   inkscape:export-xdpi="30.24"
   inkscape:export-ydpi="30.24"><defs
   id="defs240" /><sodipodi:namedview
   pagecolor="#ffffff"
   bordercolor="#666666"
   borderopacity="1"
   objecttolerance="10"
   gridtolerance="10"
   guidetolerance="10"
   inkscape:pageopacity="0"
   inkscape:pageshadow="2"
   inkscape:window-width="1920"
   inkscape:window-height="1028"
   id="namedview238"
   showgrid="false"
   inkscape:zoom="1"
   inkscape:cx="515.96961"
   inkscape:cy="361.44757"
   inkscape:window-x="-8"
   inkscape:window-y="-8"
   inkscape:window-maximized="1"
   inkscape:current-layer="svg2" /><metadata
   id="metadata4"><rdf:RDF><cc:Work
       rdf:about=""><dc:format>image/svg+xml</dc:format><dc:type
         rdf:resource="http://purl.org/dc/dcmitype/StillImage" /><dc:title /></cc:Work></rdf:RDF></metadata>
<rect
   style="fill:#c80000;fill-opacity:1"
   height="750"
   width="1125"
   y="0"
   x="0"
   id="rect6" />
<g
   id="g8">
</g>
<g
   id="g10">
</g>
<g
   id="g12">
</g>
<g
   id="g14">
</g>
<g
   id="g16">
</g>
<g
   id="g18">
</g>
<rect
   id="rect22"
   x="-237.41"
   y="-734.84998"
   width="25.002001"
   height="9.7279997"
   transform="matrix(-0.72224027,0.69164224,-0.78336671,-0.62155981,0,0)"
   style="fill:#ffdb00;stroke:#000000;stroke-width:2.51167488000000020;stroke-linejoin:round;stroke-miterlimit:4;stroke-dasharray:none;stroke-dashoffset:0;fill-opacity:1"
   ry="4.8639998" /><rect
   id="rect24"
   x="699.52002"
   y="-160.28999"
   width="24.355"
   height="12.028"
   ry="6.0142002"
   transform="matrix(0.83286826,0.55347128,-0.51205352,0.85895355,0,0)"
   style="fill:#ffdb00;stroke:#000000;stroke-width:2.50149870000000000;stroke-linejoin:round;stroke-miterlimit:4;stroke-dasharray:none;stroke-dashoffset:0;fill-opacity:1" /><rect
   id="rect26"
   x="245.41"
   y="-756.06"
   width="30.906"
   height="15.648"
   ry="7.8239002"
   transform="matrix(-0.55608895,0.83112278,-0.83670598,-0.54765235,0,0)"
   style="fill:#ffdb00;stroke:#000000;stroke-width:2.50006389999999980;stroke-linejoin:round;stroke-miterlimit:4;stroke-dasharray:none;stroke-dashoffset:0;fill-opacity:1" /><rect
   id="rect28"
   x="621.89001"
   y="-278.79999"
   width="39.862999"
   height="14.992"
   transform="matrix(0.20482107,0.97879943,-0.72307705,0.69076738,0,0)"
   style="fill:#ffdb00;stroke:#000000;stroke-width:2.71285796000000000;stroke-linejoin:round;stroke-miterlimit:4;stroke-dasharray:none;stroke-dashoffset:0;fill-opacity:1"
   ry="7.4959998" /><rect
   id="rect30"
   x="603.90002"
   y="-179.09"
   width="39.862999"
   height="14.992"
   ry="7.4959998"
   transform="matrix(0.33853421,0.94095408,-0.62033422,0.78433759,0,0)"
   style="fill:#ffdb00;stroke:#000000;stroke-width:2.71285796000000000;stroke-linejoin:round;stroke-miterlimit:4;stroke-dasharray:none;stroke-dashoffset:0;fill-opacity:1" /><rect
   id="rect32"
   x="511.04999"
   y="302.57001"
   width="33.183998"
   height="15.072"
   transform="matrix(0.86887421,0.49503294,0.09003682,0.99593844,0,0)"
   style="fill:#ffdb00;stroke:#000000;stroke-width:2.75948596000000010;stroke-linejoin:round;stroke-miterlimit:4;stroke-dasharray:none;stroke-dashoffset:0;fill-opacity:1"
   ry="7.5360999" /><path
   inkscape:connector-curvature="0"
   id="path34"
   d="m 681.83,216.34 35.721,-30.854 m -43.378,20.776 35.721,-30.854 m -43.378,20.776 35.721,-30.854 m -281.13,314.89 c -48.214,-0.22495 -48.8,-49.381 -47.611,-65.361 -0.67691,-9.3115 14.237,0.72748 19.896,4.0288 -1.776,-36.79 -1.3407,-82.631 9.153,-117.4 -31.101,14.822 -69.579,72.298 -84.846,103.99 16.975,-5.6984 20.971,-5.1644 19.383,0.72438 -12.796,29.083 -18.106,56.074 -14.308,99.176 1.9459,34.091 14.774,80.574 11.984,111.91 36.911,-10.06 87.812,14.369 122.01,14.623 24.572,1.412 44.642,1.2152 92.809,-8.0605 8.8305,-2.6076 5.9812,9.9264 1.8558,19.912 26.492,-7.1361 83.068,-30.624 104.53,-70.66 -44.731,3.0858 -83.916,0.52721 -118.82,-10.622 6.846,9.646 12.713,20.881 7.4636,24.347 -94.886,-7.7103 -101.82,-40.02 -80.018,-66.666 l 275.82,-226.55 46.71,61.58 35.72,-30.85 -128.24,-169.11 -35.721,30.854 46.707,61.583 z m 358.34,-135.11 35.72,-30.85 m -43.378,20.776 35.721,-30.854 m -43.378,20.776 35.721,-30.854"
   style="fill:#ffdb00;stroke:#000000;stroke-width:2.50000000000000000;stroke-linecap:butt;stroke-linejoin:round;stroke-miterlimit:4;stroke-dasharray:none;fill-opacity:1" /><rect
   id="rect36"
   x="-539.51001"
   y="-353.03"
   width="26.954"
   height="10.284"
   transform="matrix(-0.96210029,-0.27269586,0.24083081,-0.97056711,0,0)"
   style="fill:#ffdb00;stroke:#000000;stroke-width:2.50067972999999990;stroke-linejoin:round;stroke-miterlimit:4;stroke-dasharray:none;stroke-dashoffset:0;fill-opacity:1"
   ry="5.1419001" /><g
   id="g38"
   style="fill:#ffdb00;stroke:#000000;stroke-width:2.50000000000000000;stroke-miterlimit:4;stroke-dasharray:none;fill-opacity:1"><path
     inkscape:connector-curvature="0"
     id="path40"
     d="m 668.94,337.32 -21.17,-29.97 64.51,-51.56 22.16,30.34 -65.5,51.19 -213.15,174.93 c -29.436,35.431 -10.817,91.085 105.25,81.31 4.6617,-3.2253 -0.54678,-11.032 -4.3406,-17.841 32.94,7.5824 47.275,7.4949 82.695,6.8191 -17.839,19.876 -49.498,35.876 -73.579,46.999 3.0718,-5.7626 7.0065,-21.029 -0.52444,-19.191 -65.021,16.947 -71.125,12.604 -117.62,11.017 -34.848,-3.8368 -80.021,-20.621 -100.63,-18.315 1.9736,-24.872 -12.835,-56.983 -14.617,-106.45 -1.2132,-47.019 2.7558,-52.822 16.899,-97.973 5.0247,-10.411 -4.4079,-7.8666 -12.276,-5.5676 18.757,-25.89 28.574,-46.132 49.517,-64.908 -3.991,33.75 -5.4754,56.049 -2.8182,74.9 -6.6919,-6.417 -14.194,-12.113 -16.767,-2.5362 -9.6852,28.996 4.6813,117.89 64.899,85.864 l 215.9,-179.03"
     style="fill:#ffdb00;stroke:#000000;stroke-width:2.50000000000000000;stroke-linecap:butt;stroke-linejoin:miter;stroke-miterlimit:4;stroke-dasharray:none;fill-opacity:1" /><path
     inkscape:connector-curvature="0"
     id="path42"
     d="m 658.35,322.34 65.147,-51.877"
     style="fill:#ffdb00;stroke:#000000;stroke-width:2.50000000000000000;stroke-linecap:butt;stroke-linejoin:miter;stroke-miterlimit:4;stroke-dasharray:none;fill-opacity:1" /></g><rect
   id="rect44"
   x="-546.28003"
   y="-363.48999"
   width="26.954"
   height="10.284"
   ry="5.1419001"
   transform="matrix(-0.96210029,-0.27269586,0.24083081,-0.97056711,0,0)"
   style="fill:#ffdb00;stroke:#000000;stroke-width:2.50067972999999990;stroke-linejoin:round;stroke-miterlimit:4;stroke-dasharray:none;stroke-dashoffset:0;fill-opacity:1" /><rect
   id="rect46"
   x="-471.57999"
   y="-506.17001"
   width="28.370001"
   height="10.42"
   transform="matrix(-0.99994976,-0.01002408,0.03252654,-0.99947087,0,0)"
   style="fill:#ffdb00;stroke:#000000;stroke-width:2.50031662000000000;stroke-linejoin:round;stroke-miterlimit:4;stroke-dasharray:none;stroke-dashoffset:0;fill-opacity:1"
   ry="5.2097998" /><rect
   id="rect48"
   x="-481.89999"
   y="-516.07001"
   width="28.370001"
   height="10.42"
   ry="5.2097998"
   transform="matrix(-0.99994976,-0.01002408,0.03252654,-0.99947087,0,0)"
   style="fill:#ffdb00;stroke:#000000;stroke-width:2.50031662000000000;stroke-linejoin:round;stroke-miterlimit:4;stroke-dasharray:none;stroke-dashoffset:0;fill-opacity:1" /><rect
   id="rect50"
   x="-494.23001"
   y="-525.95001"
   width="28.370001"
   height="10.42"
   transform="matrix(-0.99994976,-0.01002408,0.03252654,-0.99947087,0,0)"
   style="fill:#ffdb00;stroke:#000000;stroke-width:2.50031662000000000;stroke-linejoin:round;stroke-miterlimit:4;stroke-dasharray:none;stroke-dashoffset:0;fill-opacity:1"
   ry="5.2097998" /><rect
   id="rect52"
   x="-601.19"
   y="-428.38"
   width="28.370001"
   height="10.42"
   ry="5.2097998"
   transform="matrix(-0.97663717,-0.21489495,0.23682084,-0.97155334,0,0)"
   style="fill:#ffdb00;stroke:#000000;stroke-width:2.50031662000000000;stroke-linejoin:round;stroke-miterlimit:4;stroke-dasharray:none;stroke-dashoffset:0;fill-opacity:1" /><path
   inkscape:connector-curvature="0"
   id="path56"
   d="m 825.11,184.65 -69.352,59.085 m 80.4,-41.96 -22.1,-34.28 -67.875,56.406 c 1.5944,15.258 13.338,27.084 27.906,29.344 z"
   style="fill:#ffdb00;stroke:#000000;stroke-width:2.50000000000000000;stroke-linecap:butt;stroke-linejoin:miter;stroke-miterlimit:4;stroke-dasharray:none;fill-opacity:1" /><rect
   id="rect178"
   x="912.58002"
   y="-292.91"
   width="23.986"
   height="14.15"
   ry="7.0750999"
   transform="matrix(0.81252808,0.58292205,-0.11096182,0.99382467,0,0)"
   style="fill:#ffdb00;stroke:#000000;stroke-width:2.67691040000000010;stroke-linejoin:round;stroke-miterlimit:4;stroke-dasharray:none;stroke-dashoffset:0;fill-opacity:1" /><rect
   id="rect180"
   x="934.66998"
   y="-425.32001"
   width="23.986"
   height="14.15"
   transform="matrix(0.70355137,0.7106444,-0.27566765,0.96125301,0,0)"
   style="fill:#ffdb00;stroke:#000000;stroke-width:2.67691040000000010;stroke-linejoin:round;stroke-miterlimit:4;stroke-dasharray:none;stroke-dashoffset:0;fill-opacity:1"
   ry="7.0750999" /><path
   inkscape:connector-curvature="0"
   id="path58"
   d="m 778.88,173.41 c -1.2406,0.0131 -2.4816,0.0765 -3.75,0.1875 -25.876,2.2639 -45.013,25.067 -42.75,50.938 0.40218,4.5969 1.4301,9.0042 3.0312,13.094 7.4106,18.927 26.628,31.518 47.906,29.656 25.874,-2.2637 45.014,-25.065 42.75,-50.938 -0.17578,-2.0092 -0.47355,-3.7699 -0.875,-5.5312 l -12.781,10.531 c -0.4335,16.645 -13.324,30.67 -30.312,32.156 -18.266,1.5981 -34.371,-11.893 -35.969,-30.156 -1.5976,-18.26 11.921,-34.371 30.188,-35.969 4.2364,-0.37063 8.3699,0.0936 12.219,1.2188 l 12.01,-9.98 c -6.5794,-3.4465 -13.86,-5.3015 -21.688,-5.2188 z"
   style="fill:#ffdb00;stroke:#000000;stroke-width:2.50000000000000000;stroke-linecap:butt;stroke-linejoin:miter;stroke-miterlimit:4;stroke-dasharray:none;fill-opacity:1;stroke-opacity:1" /><rect
   id="rect60"
   x="-559.16998"
   y="271.69"
   width="36.490002"
   height="10.391"
   ry="5.1953001"
   transform="matrix(-0.22090357,-0.97529565,0.94670391,-0.32210511,0,0)"
   style="fill:#ffdb00;stroke:#000000;stroke-width:2.50694083999999990;stroke-linejoin:round;stroke-miterlimit:4;stroke-dasharray:none;stroke-dashoffset:0;fill-opacity:1" /><rect
   id="rect62"
   x="446.32999"
   y="210.47"
   width="39.862999"
   height="14.992"
   transform="matrix(0.72968345,0.6837851,-0.19540318,0.980723,0,0)"
   style="fill:#ffdb00;stroke:#000000;stroke-width:2.71285796000000000;stroke-linejoin:round;stroke-miterlimit:4;stroke-dasharray:none;stroke-dashoffset:0;fill-opacity:1"
   ry="7.4959998" /><rect
   id="rect64"
   x="493.26999"
   y="125.81"
   width="39.862999"
   height="14.992"
   ry="7.4959998"
   transform="matrix(0.65635725,0.75445023,-0.29413201,0.9557648,0,0)"
   style="fill:#ffdb00;stroke:#000000;stroke-width:2.71285796000000000;stroke-linejoin:round;stroke-miterlimit:4;stroke-dasharray:none;stroke-dashoffset:0;fill-opacity:1" /><rect
   id="rect66"
   x="490.79999"
   y="177.78"
   width="39.018002"
   height="14.114"
   ry="7.0570998"
   transform="matrix(0.70145687,0.7127119,-0.27226184,0.9622232,0,0)"
   style="fill:#ffdb00;stroke:#000000;stroke-width:2.68181943999999990;stroke-linejoin:round;stroke-miterlimit:4;stroke-dasharray:none;stroke-dashoffset:0;fill-opacity:1" /><rect
   id="rect68"
   x="652.71002"
   y="-546.02002"
   width="25.059"
   height="11.199"
   transform="matrix(0.48889398,0.87234321,-0.83649945,0.54796777,0,0)"
   style="fill:#ffdb00;stroke:#000000;stroke-width:2.50298928999999990;stroke-linejoin:round;stroke-miterlimit:4;stroke-dasharray:none;stroke-dashoffset:0;fill-opacity:1"
   ry="5.5994" /><rect
   id="rect70"
   x="547.72998"
   y="-688.22998"
   width="25.002001"
   height="9.7279997"
   ry="4.8639998"
   transform="matrix(0.23626826,0.97168787,-0.9305709,0.36611173,0,0)"
   style="fill:#ffdb00;stroke:#000000;stroke-width:2.51167488000000020;stroke-linejoin:round;stroke-miterlimit:4;stroke-dasharray:none;stroke-dashoffset:0;fill-opacity:1" /><rect
   id="rect72"
   x="383.04999"
   y="-772.21997"
   width="25.002001"
   height="9.7279997"
   transform="matrix(-0.0090935,0.99995865,-0.99191971,0.12686719,0,0)"
   style="fill:#ffdb00;stroke:#000000;stroke-width:2.51167488000000020;stroke-linejoin:round;stroke-miterlimit:4;stroke-dasharray:none;stroke-dashoffset:0;fill-opacity:1"
   ry="4.8639998" /><rect
   id="rect74"
   x="173.83"
   y="-812.69"
   width="25.002001"
   height="9.7279997"
   ry="4.8639998"
   transform="matrix(-0.28308922,0.95909358,-0.98866474,-0.15014005,0,0)"
   style="fill:#ffdb00;stroke:#000000;stroke-width:2.51167488000000020;stroke-linejoin:round;stroke-miterlimit:4;stroke-dasharray:none;stroke-dashoffset:0;fill-opacity:1" /><rect
   id="rect76"
   x="679.87"
   y="-128.67999"
   width="24.355"
   height="12.028"
   transform="matrix(0.85661855,0.51595025,-0.47341526,0.88083937,0,0)"
   style="fill:#ffdb00;stroke:#000000;stroke-width:2.50149870000000000;stroke-linejoin:round;stroke-miterlimit:4;stroke-dasharray:none;stroke-dashoffset:0;fill-opacity:1"
   ry="6.0142002" /><g
   id="g78"
   style="fill:#ffdb00;stroke:#000000;stroke-width:2.50000000000000000;stroke-miterlimit:4;stroke-dasharray:none;fill-opacity:1"><path
     inkscape:connector-curvature="0"
     id="path80"
     d="m 702.24,165.33 -7.657,-10.078 16.049,0 7.6572,10.078 z"
     style="fill:#ffdb00;stroke:#000000;stroke-width:2.50000000000000000;stroke-linecap:round;stroke-linejoin:round;stroke-miterlimit:4;stroke-dasharray:none;fill-opacity:1" /><path
     inkscape:connector-curvature="0"
     id="path82"
     d="m 733.6,185.48 -8.391,10.078 -7.657,-10.078 z"
     style="fill:#ffdb00;stroke:#000000;stroke-width:2.50000000000000000;stroke-linecap:round;stroke-linejoin:round;stroke-miterlimit:4;stroke-dasharray:none;fill-opacity:1" /><path
     inkscape:connector-curvature="0"
     id="path84"
     d="m 709.89,175.41 -7.6574,-10.078 16.049,2e-5 7.6567,10.078 z"
     style="fill:#ffdb00;stroke:#000000;stroke-width:2.50000000000000000;stroke-linecap:round;stroke-linejoin:round;stroke-miterlimit:4;stroke-dasharray:none;fill-opacity:1" /><path
     inkscape:connector-curvature="0"
     id="path86"
     d="m 717.55,185.48 -7.657,-10.078 16.048,0 7.657,10.078 z"
     style="fill:#ffdb00;stroke:#000000;stroke-width:2.50000000000000000;stroke-linecap:round;stroke-linejoin:round;stroke-miterlimit:4;stroke-dasharray:none;fill-opacity:1" /></g><g
   id="g88"
   transform="matrix(-0.26926342,0.96306656,0.96306656,0.26926342,696.36693,-524.62531)"
   style="fill:#ffdb00;stroke:#000000;stroke-width:2.50000000000000000;stroke-miterlimit:4;stroke-dasharray:none;fill-opacity:1"><path
     inkscape:connector-curvature="0"
     id="path90"
     d="m 702.24,165.33 -7.657,-10.078 16.049,0 7.6572,10.078 z"
     style="fill:#ffdb00;stroke:#000000;stroke-width:2.50000000000000000;stroke-linecap:round;stroke-linejoin:round;stroke-miterlimit:4;stroke-dasharray:none;fill-opacity:1" /><path
     inkscape:connector-curvature="0"
     id="path92"
     d="m 733.6,185.48 -8.391,10.078 -7.657,-10.078 z"
     style="fill:#ffdb00;stroke:#000000;stroke-width:2.50000000000000000;stroke-linecap:round;stroke-linejoin:round;stroke-miterlimit:4;stroke-dasharray:none;fill-opacity:1" /><path
     inkscape:connector-curvature="0"
     id="path94"
     d="m 709.89,175.41 -7.6574,-10.078 16.049,2e-5 7.6567,10.078 z"
     style="fill:#ffdb00;stroke:#000000;stroke-width:2.50000000000000000;stroke-linecap:round;stroke-linejoin:round;stroke-miterlimit:4;stroke-dasharray:none;fill-opacity:1" /><path
     inkscape:connector-curvature="0"
     id="path96"
     d="m 717.55,185.48 -7.657,-10.078 16.048,0 7.657,10.078 z"
     style="fill:#ffdb00;stroke:#000000;stroke-width:2.50000000000000000;stroke-linecap:round;stroke-linejoin:round;stroke-miterlimit:4;stroke-dasharray:none;fill-opacity:1" /></g><g
   id="g98"
   transform="matrix(0.27081558,-0.96263125,-0.96263125,-0.27081558,784.11197,1035.0792)"
   style="fill:#ffdb00;stroke:#000000;stroke-width:2.50000000000000000;stroke-miterlimit:4;stroke-dasharray:none;fill-opacity:1"><path
     inkscape:connector-curvature="0"
     id="path100"
     d="m 702.24,165.33 -7.657,-10.078 16.049,0 7.6572,10.078 z"
     style="fill:#ffdb00;stroke:#000000;stroke-width:2.50000000000000000;stroke-linecap:round;stroke-linejoin:round;stroke-miterlimit:4;stroke-dasharray:none;fill-opacity:1" /><path
     inkscape:connector-curvature="0"
     id="path102"
     d="m 733.6,185.48 -8.391,10.078 -7.657,-10.078 z"
     style="fill:#ffdb00;stroke:#000000;stroke-width:2.50000000000000000;stroke-linecap:round;stroke-linejoin:round;stroke-miterlimit:4;stroke-dasharray:none;fill-opacity:1" /><path
     inkscape:connector-curvature="0"
     id="path104"
     d="m 709.89,175.41 -7.6574,-10.078 16.049,2e-5 7.6567,10.078 z"
     style="fill:#ffdb00;stroke:#000000;stroke-width:2.50000000000000000;stroke-linecap:round;stroke-linejoin:round;stroke-miterlimit:4;stroke-dasharray:none;fill-opacity:1" /><path
     inkscape:connector-curvature="0"
     id="path106"
     d="m 717.55,185.48 -7.657,-10.078 16.048,0 7.657,10.078 z"
     style="fill:#ffdb00;stroke:#000000;stroke-width:2.50000000000000000;stroke-linecap:round;stroke-linejoin:round;stroke-miterlimit:4;stroke-dasharray:none;fill-opacity:1" /></g><g
   id="g108"
   transform="matrix(-0.99999926,0.00121562,-0.00121562,-0.99999926,1481.9559,509.53137)"
   style="fill:#ffdb00;stroke:#000000;stroke-width:2.50000000000000000;stroke-miterlimit:4;stroke-dasharray:none;fill-opacity:1"><path
     inkscape:connector-curvature="0"
     id="path110"
     d="m 702.24,165.33 -7.657,-10.078 16.049,0 7.6572,10.078 z"
     style="fill:#ffdb00;stroke:#000000;stroke-width:2.50000000000000000;stroke-linecap:round;stroke-linejoin:round;stroke-miterlimit:4;stroke-dasharray:none;fill-opacity:1" /><path
     inkscape:connector-curvature="0"
     id="path112"
     d="m 733.6,185.48 -8.391,10.078 -7.657,-10.078 z"
     style="fill:#ffdb00;stroke:#000000;stroke-width:2.50000000000000000;stroke-linecap:round;stroke-linejoin:round;stroke-miterlimit:4;stroke-dasharray:none;fill-opacity:1" /><path
     inkscape:connector-curvature="0"
     id="path114"
     d="m 709.89,175.41 -7.6574,-10.078 16.049,2e-5 7.6567,10.078 z"
     style="fill:#ffdb00;stroke:#000000;stroke-width:2.50000000000000000;stroke-linecap:round;stroke-linejoin:round;stroke-miterlimit:4;stroke-dasharray:none;fill-opacity:1" /><path
     inkscape:connector-curvature="0"
     id="path116"
     d="m 717.55,185.48 -7.657,-10.078 16.048,0 7.657,10.078 z"
     style="fill:#ffdb00;stroke:#000000;stroke-width:2.50000000000000000;stroke-linecap:round;stroke-linejoin:round;stroke-miterlimit:4;stroke-dasharray:none;fill-opacity:1" /></g><rect
   id="rect118"
   x="404.87"
   y="279.64999"
   width="39.862999"
   height="14.992"
   ry="7.4959998"
   transform="matrix(0.78070651,0.62489787,-0.11845305,0.99295965,0,0)"
   style="fill:#ffdb00;stroke:#000000;stroke-width:2.71285796000000000;stroke-linejoin:round;stroke-miterlimit:4;stroke-dasharray:none;stroke-dashoffset:0;fill-opacity:1" /><rect
   id="rect120"
   x="415.34"
   y="281.12"
   width="39.862999"
   height="14.992"
   transform="matrix(0.78070651,0.62489787,-0.11845305,0.99295965,0,0)"
   style="fill:#ffdb00;stroke:#000000;stroke-width:2.71285796000000000;stroke-linejoin:round;stroke-miterlimit:4;stroke-dasharray:none;stroke-dashoffset:0;fill-opacity:1"
   ry="7.4959998" /><rect
   id="rect122"
   x="388.67999"
   y="329.95999"
   width="39.862999"
   height="14.992"
   ry="7.4959998"
   transform="matrix(0.80835433,0.58869625,-0.07311086,0.99732382,0,0)"
   style="fill:#ffdb00;stroke:#000000;stroke-width:2.71285796000000000;stroke-linejoin:round;stroke-miterlimit:4;stroke-dasharray:none;stroke-dashoffset:0;fill-opacity:1" /><rect
   id="rect124"
   x="400.62"
   y="403.82001"
   width="33.183998"
   height="15.072"
   ry="7.5360999"
   transform="matrix(0.93021597,0.3670126,0.23015425,0.97315416,0,0)"
   style="fill:#ffdb00;stroke:#000000;stroke-width:2.75948596000000010;stroke-linejoin:round;stroke-miterlimit:4;stroke-dasharray:none;stroke-dashoffset:0;fill-opacity:1" /><rect
   id="rect126"
   x="491.10999"
   y="109.15"
   width="39.862999"
   height="14.992"
   transform="matrix(0.65635725,0.75445023,-0.29413201,0.9557648,0,0)"
   style="fill:#ffdb00;stroke:#000000;stroke-width:2.71285796000000000;stroke-linejoin:round;stroke-miterlimit:4;stroke-dasharray:none;stroke-dashoffset:0;fill-opacity:1"
   ry="7.4959998" /><rect
   id="rect128"
   x="525.07001"
   y="109.97"
   width="39.018002"
   height="14.114"
   transform="matrix(0.64608398,0.76326633,-0.34359271,0.93911876,0,0)"
   style="fill:#ffdb00;stroke:#000000;stroke-width:2.68181943999999990;stroke-linejoin:round;stroke-miterlimit:4;stroke-dasharray:none;stroke-dashoffset:0;fill-opacity:1"
   ry="7.0570998" /><rect
   id="rect130"
   x="582.53003"
   y="-98.356003"
   width="39.862999"
   height="14.992"
   transform="matrix(0.43297868,0.90140416,-0.5368785,0.84365957,0,0)"
   style="fill:#ffdb00;stroke:#000000;stroke-width:2.71285796000000000;stroke-linejoin:round;stroke-miterlimit:4;stroke-dasharray:none;stroke-dashoffset:0;fill-opacity:1"
   ry="7.4959998" /><rect
   id="rect132"
   x="532.08002"
   y="25.530001"
   width="39.862999"
   height="14.992"
   ry="7.4959998"
   transform="matrix(0.57519604,0.8180156,-0.39096854,0.92040404,0,0)"
   style="fill:#ffdb00;stroke:#000000;stroke-width:2.71285796000000000;stroke-linejoin:round;stroke-miterlimit:4;stroke-dasharray:none;stroke-dashoffset:0;fill-opacity:1" /><rect
   id="rect134"
   x="540.84003"
   y="66.446999"
   width="39.018002"
   height="14.114"
   ry="7.0570998"
   transform="matrix(0.61578048,0.78791776,-0.38000928,0.92498267,0,0)"
   style="fill:#ffdb00;stroke:#000000;stroke-width:2.68181943999999990;stroke-linejoin:round;stroke-miterlimit:4;stroke-dasharray:none;stroke-dashoffset:0;fill-opacity:1" /><rect
   id="rect136"
   x="588.45001"
   y="-40.108002"
   width="39.018002"
   height="14.114"
   transform="matrix(0.50682916,0.86204652,-0.49833733,0.86698322,0,0)"
   style="fill:#ffdb00;stroke:#000000;stroke-width:2.68181943999999990;stroke-linejoin:round;stroke-miterlimit:4;stroke-dasharray:none;stroke-dashoffset:0;fill-opacity:1"
   ry="7.0570998" /><rect
   id="rect138"
   x="627.71002"
   y="-151.45"
   width="40.637001"
   height="14.556"
   ry="7.2779002"
   transform="matrix(0.38498957,0.92292092,-0.57654657,0.81706429,0,0)"
   style="fill:#ffdb00;stroke:#000000;stroke-width:2.71696091000000010;stroke-linejoin:round;stroke-miterlimit:4;stroke-dasharray:none;stroke-dashoffset:0;fill-opacity:1" /><rect
   id="rect140"
   x="663.76001"
   y="-240.25"
   width="40.507"
   height="14.073"
   transform="matrix(0.2935182,0.95595349,-0.60484256,0.79634507,0,0)"
   style="fill:#ffdb00;stroke:#000000;stroke-width:2.77445196999999990;stroke-linejoin:round;stroke-miterlimit:4;stroke-dasharray:none;stroke-dashoffset:0;fill-opacity:1"
   ry="7.0363998" /><rect
   id="rect142"
   x="672.77002"
   y="-274.64001"
   width="38.987999"
   height="13"
   ry="6.4998002"
   transform="matrix(0.2679741,0.96342612,-0.62027839,0.78438174,0,0)"
   style="fill:#ffdb00;stroke:#000000;stroke-width:2.78158116000000000;stroke-linejoin:round;stroke-miterlimit:4;stroke-dasharray:none;stroke-dashoffset:0;fill-opacity:1" /><rect
   id="rect144"
   x="686.79999"
   y="-331.70001"
   width="39.452"
   height="13.07"
   transform="matrix(0.20884025,0.97794977,-0.66056854,0.75076574,0,0)"
   style="fill:#ffdb00;stroke:#000000;stroke-width:2.79021858999999980;stroke-linejoin:round;stroke-miterlimit:4;stroke-dasharray:none;stroke-dashoffset:0;fill-opacity:1"
   ry="6.5351" /><rect
   id="rect146"
   x="696.78003"
   y="-394.35999"
   width="39.452"
   height="13.07"
   ry="6.5351"
   transform="matrix(0.13372926,0.9910179,-0.71584508,0.69825913,0,0)"
   style="fill:#ffdb00;stroke:#000000;stroke-width:2.79021858999999980;stroke-linejoin:round;stroke-miterlimit:4;stroke-dasharray:none;stroke-dashoffset:0;fill-opacity:1" /><rect
   id="rect148"
   x="257.84"
   y="475.57999"
   width="39.419998"
   height="13.921"
   transform="matrix(0.9123305,0.40945459,0.11277258,0.99362083,0,0)"
   style="fill:#ffdb00;stroke:#000000;stroke-width:2.69529389999999980;stroke-linejoin:round;stroke-miterlimit:4;stroke-dasharray:none;stroke-dashoffset:0;fill-opacity:1"
   ry="6.9604998" /><rect
   id="rect150"
   x="162.46001"
   y="564.83002"
   width="39.419998"
   height="13.921"
   ry="6.9604998"
   transform="matrix(0.95655684,0.29154589,0.23675703,0.97156889,0,0)"
   style="fill:#ffdb00;stroke:#000000;stroke-width:2.69529389999999980;stroke-linejoin:round;stroke-miterlimit:4;stroke-dasharray:none;stroke-dashoffset:0;fill-opacity:1" /><rect
   id="rect152"
   x="29.752001"
   y="666.60999"
   width="39.448002"
   height="13.235"
   transform="matrix(0.9908984,0.13461187,0.40195813,0.91565805,0,0)"
   style="fill:#ffdb00;stroke:#000000;stroke-width:2.70651579000000010;stroke-linejoin:round;stroke-miterlimit:4;stroke-dasharray:none;stroke-dashoffset:0;fill-opacity:1"
   ry="6.6176" /><rect
   id="rect154"
   x="-92.695999"
   y="747.53998"
   width="39.448002"
   height="13.235"
   ry="6.6176"
   transform="matrix(0.99975019,-0.02235061,0.54049772,0.84134548,0,0)"
   style="fill:#ffdb00;stroke:#000000;stroke-width:2.70651579000000010;stroke-linejoin:round;stroke-miterlimit:4;stroke-dasharray:none;stroke-dashoffset:0;fill-opacity:1" /><rect
   id="rect156"
   x="-269.32001"
   y="826.35999"
   width="39.448002"
   height="13.235"
   transform="matrix(0.96977898,-0.24398512,0.71396805,0.70017828,0,0)"
   style="fill:#ffdb00;stroke:#000000;stroke-width:2.70651579000000010;stroke-linejoin:round;stroke-miterlimit:4;stroke-dasharray:none;stroke-dashoffset:0;fill-opacity:1"
   ry="6.6176" /><rect
   id="rect158"
   x="-364.23999"
   y="863.46002"
   width="39.448002"
   height="13.235"
   ry="6.6176"
   transform="matrix(0.92990531,-0.36779902,0.79881159,0.60158129,0,0)"
   style="fill:#ffdb00;stroke:#000000;stroke-width:2.70651579000000010;stroke-linejoin:round;stroke-miterlimit:4;stroke-dasharray:none;stroke-dashoffset:0;fill-opacity:1" /><rect
   id="rect160"
   x="-459.29001"
   y="887.95001"
   width="39.448002"
   height="13.235"
   transform="matrix(0.87420736,-0.48555278,0.87023123,0.49264349,0,0)"
   style="fill:#ffdb00;stroke:#000000;stroke-width:2.70651579000000010;stroke-linejoin:round;stroke-miterlimit:4;stroke-dasharray:none;stroke-dashoffset:0;fill-opacity:1"
   ry="6.6176" /><rect
   id="rect162"
   x="-558.91998"
   y="899.62"
   width="39.448002"
   height="13.235"
   ry="6.6176"
   transform="matrix(0.79588825,-0.60544355,0.93167596,0.36329039,0,0)"
   style="fill:#ffdb00;stroke:#000000;stroke-width:2.70651579000000010;stroke-linejoin:round;stroke-miterlimit:4;stroke-dasharray:none;stroke-dashoffset:0;fill-opacity:1" /><rect
   id="rect164"
   x="-637.38"
   y="898.57001"
   width="39.448002"
   height="13.235"
   transform="matrix(0.71526662,-0.69885168,0.96932438,0.24578497,0,0)"
   style="fill:#ffdb00;stroke:#000000;stroke-width:2.70651579000000010;stroke-linejoin:round;stroke-miterlimit:4;stroke-dasharray:none;stroke-dashoffset:0;fill-opacity:1"
   ry="6.6176" /><rect
   id="rect166"
   x="-683.46997"
   y="892.91998"
   width="39.448002"
   height="13.235"
   ry="6.6176"
   transform="matrix(0.64898535,-0.76080091,0.9876109,0.15692262,0,0)"
   style="fill:#ffdb00;stroke:#000000;stroke-width:2.70651579000000010;stroke-linejoin:round;stroke-miterlimit:4;stroke-dasharray:none;stroke-dashoffset:0;fill-opacity:1" /><rect
   id="rect168"
   x="818.44"
   y="-55.875999"
   width="23.986"
   height="14.15"
   transform="matrix(0.96112561,0.27611151,0.22932441,0.97335005,0,0)"
   style="fill:#ffdb00;stroke:#000000;stroke-width:2.67691040000000010;stroke-linejoin:round;stroke-miterlimit:4;stroke-dasharray:none;stroke-dashoffset:0;fill-opacity:1"
   ry="7.0750999" /><rect
   id="rect170"
   x="852.31"
   y="-130.89999"
   width="23.986"
   height="14.15"
   ry="7.0750999"
   transform="matrix(0.92961902,0.36852201,0.13331281,0.99107401,0,0)"
   style="fill:#ffdb00;stroke:#000000;stroke-width:2.67691040000000010;stroke-linejoin:round;stroke-miterlimit:4;stroke-dasharray:none;stroke-dashoffset:0;fill-opacity:1" /><rect
   id="rect172"
   x="878.54999"
   y="-200.94"
   width="23.986"
   height="14.15"
   transform="matrix(0.89125827,0.45349607,0.04043442,0.99918219,0,0)"
   style="fill:#ffdb00;stroke:#000000;stroke-width:2.67691040000000010;stroke-linejoin:round;stroke-miterlimit:4;stroke-dasharray:none;stroke-dashoffset:0;fill-opacity:1"
   ry="7.0750999" /><rect
   id="rect174"
   x="876.84998"
   y="-185.78999"
   width="23.986"
   height="14.15"
   ry="7.0750999"
   transform="matrix(0.89125827,0.45349607,0.04043442,0.99918219,0,0)"
   style="fill:#ffdb00;stroke:#000000;stroke-width:2.67691040000000010;stroke-linejoin:round;stroke-miterlimit:4;stroke-dasharray:none;stroke-dashoffset:0;fill-opacity:1" /><rect
   id="rect176"
   x="897.82001"
   y="-248.31"
   width="23.986"
   height="14.15"
   transform="matrix(0.84958768,0.52744741,-0.04444908,0.99901165,0,0)"
   style="fill:#ffdb00;stroke:#000000;stroke-width:2.67691040000000010;stroke-linejoin:round;stroke-miterlimit:4;stroke-dasharray:none;stroke-dashoffset:0;fill-opacity:1"
   ry="7.0750999" /><path
   inkscape:connector-curvature="0"
   id="path184"
   d="m 562.49543,229.10965 c 43.49196,0 87.27397,16.77946 118.48468,48.32746 14.81858,14.98141 26.7584,33.04519 34.84998,52.83449 8.39909,20.54087 12.6124,42.8893 12.61354,65.21514 v 5e-5 c 0,43.73006 -17.24513,87.32217 -47.46352,117.68574 -10e-6,10e-6 -3e-5,2e-5 -4e-5,4e-5 -31.26095,31.41124 -75.04067,47.96476 -118.48467,47.96476 -43.41203,0 -87.20545,-16.412 -118.48468,-47.76736 -30.29718,-30.37546 -47.46352,-74.0853 -47.46352,-117.88314 v -3e-5 c 0,-43.9013 17.18347,-87.70271 47.46352,-118.24585 31.21985,-31.49211 75.01441,-48.13125 118.48468,-48.13125 z"
   style="fill:#000096;stroke:#ffffff;stroke-width:2.91327596000000000;stroke-miterlimit:4;stroke-opacity:0.94117647000000004;stroke-dasharray:none;fill-opacity:1" /><path
   style="fill:none;stroke:#ffffff;stroke-width:2.91327596;stroke-miterlimit:4;stroke-dasharray:none"
   d="m 562.49543,229.10965 c -28.783,49.66054 -41.41025,108.37082 -41.48562,166.37947 -0.0182,13.84573 0.21898,27.70216 1.28591,41.5039 1.00804,13.03946 2.8011,26.02421 5.65805,38.764 6.77028,30.18876 19.5792,58.58303 34.54166,85.3826"
   id="path188"
   inkscape:connector-curvature="0" /><path
   style="fill:none;stroke:#ffffff;stroke-width:2.91327596;stroke-miterlimit:4;stroke-dasharray:none"
   d="m 562.49543,229.10965 c -26.74812,21.44584 -48.90005,49.22292 -63.48339,80.92789 -12.24243,26.61644 -19.36909,55.93709 -19.489,85.4492 v 10e-6 c -0.12427,30.66325 5.70796,61.5132 18.43958,89.16185 v 1e-5 c 14.26018,30.96768 37.23543,57.21547 64.53167,76.48866"
   id="path190"
   inkscape:connector-curvature="0" /><path
   style="fill:none;stroke:#ffffff;stroke-width:2.91327596;stroke-miterlimit:4;stroke-dasharray:none"
   d="m 562.49543,229.10965 c -23.42744,8.55074 -46.13206,19.81783 -65.88826,35.47232 -14.86653,11.77976 -27.92314,26.17049 -37.56772,42.83103 -8.06817,13.9373 -13.68466,29.3599 -16.95395,45.27363 v 2e-5 c -2.88538,14.04314 -3.98858,28.43828 -4.04671,42.80012 -0.0616,15.18 0.83614,30.42303 3.84699,45.276 3.16263,15.60216 8.77958,30.7013 16.96537,44.17719 10e-6,0 10e-6,2e-5 10e-6,2e-5 9.75203,16.05286 22.94555,29.65719 37.67392,40.86292 20.03026,15.24065 42.70519,26.37384 65.97162,35.33438"
   id="path192"
   inkscape:connector-curvature="0" /><path
   style="fill:none;stroke:#ffffff;stroke-width:2.91327596;stroke-miterlimit:4;stroke-dasharray:none"
   d="m 562.49543,229.10965 c 23.42745,8.55074 46.13206,19.81783 65.88826,35.47232 14.86654,11.77976 27.92315,26.17049 37.56773,42.83103 8.06817,13.9373 13.68466,29.3599 16.95395,45.27363 2.88538,14.04314 3.98847,28.43827 4.0467,42.80011 0.0615,15.18 -0.83614,30.42303 -3.84687,45.27601 -3.16263,15.60216 -8.77958,30.7013 -16.96537,44.17719 -10e-6,0 -10e-6,1e-5 -10e-6,1e-5 -9.75203,16.05287 -22.94556,29.65719 -37.67392,40.86292 -20.03026,15.24065 -42.70519,26.37384 -65.97162,35.33439"
   id="path194"
   inkscape:connector-curvature="0" /><path
   style="fill:none;stroke:#ffffff;stroke-width:2.91327596;stroke-miterlimit:4;stroke-dasharray:none"
   d="m 562.49543,229.10965 c 26.74812,21.44584 48.90005,49.22292 63.4834,80.92789 12.24242,26.61644 19.37023,55.93709 19.48899,85.4492 v 10e-6 c 0.12427,30.66325 -5.7083,61.5132 -18.43958,89.16185 -14.26018,30.96768 -37.23543,57.21546 -64.53281,76.48866"
   id="path196"
   inkscape:connector-curvature="0" /><path
   style="fill:none;stroke:#ffffff;stroke-width:2.91327596;stroke-miterlimit:4;stroke-dasharray:none"
   d="m 562.49543,229.10965 c 28.78187,49.65935 41.41026,108.37319 41.48563,166.37947 0.018,13.80649 -0.22107,27.62487 -1.28602,41.38617 0,10e-6 0,10e-6 -2e-5,2e-5 -1.00938,13.04422 -2.80384,26.03254 -5.65805,38.77708 -6.76868,30.22206 -19.56436,58.65915 -34.54166,85.48726"
   id="path198"
   inkscape:connector-curvature="0" /><path
   style="fill:none;stroke:#ffffff;stroke-width:2.91327596;stroke-miterlimit:4;stroke-dasharray:none"
   d="m 562.49543,229.10965 0,332.02165"
   id="path200"
   inkscape:connector-curvature="0" /><path
   style="fill:none;stroke:#ffffff;stroke-width:2.91327596;stroke-miterlimit:4;stroke-dasharray:none"
   d="m 627.77848,548.85886 c -8.10837,-7.16783 -18.20206,-11.52086 -28.45528,-14.46648 -11.93868,-3.4301 -24.35582,-4.9135 -36.74098,-4.95726 h -10e-6 c -12.49251,-0.0441 -25.02612,1.38184 -37.09155,4.75462 -10.6039,2.96417 -21.01687,7.4209 -29.50812,14.66984"
   id="path202"
   inkscape:connector-curvature="0" /><path
   style="fill:none;stroke:#ffffff;stroke-width:2.91327596;stroke-miterlimit:4;stroke-dasharray:none"
   d="m 685.81039,508.33129 c -36.42353,-23.53643 -79.43703,-35.54724 -122.29866,-35.26541 -43.38462,0.28415 -86.54657,12.8266 -124.20565,35.26541"
   id="path204"
   inkscape:connector-curvature="0" /><path
   style="fill:none;stroke:#ffffff;stroke-width:2.91327596;stroke-miterlimit:4;stroke-dasharray:none"
   d="M 718.01228,454.90102 C 668.69315,433.95583 615.69249,421.8142 562.42692,422.01756 c -53.23703,0.20319 -106.06982,12.59232 -155.6082,32.88346"
   id="path206"
   inkscape:connector-curvature="0" /><path
   style="fill:none;stroke:#ffffff;stroke-width:2.91327596;stroke-miterlimit:4;stroke-dasharray:none"
   d="m 728.43792,395.48912 -331.88498,0"
   id="path208"
   inkscape:connector-curvature="0" /><path
   style="fill:none;stroke:#ffffff;stroke-width:2.91327596;stroke-miterlimit:4;stroke-dasharray:none"
   d="m 629.84534,242.11938 c -8.2647,7.30602 -18.69765,11.46818 -29.19638,14.28454 -12.42628,3.33377 -25.30132,4.68897 -38.13297,4.65413 -12.75629,-0.0346 -25.54912,-1.43928 -37.88632,-4.81527 -5.47489,-1.49814 -10.85958,-3.39882 -15.98219,-5.90837 -4.46647,-2.18822 -8.75172,-4.84297 -12.47652,-8.21515"
   id="path210"
   inkscape:connector-curvature="0" /><path
   style="fill:none;stroke:#ffffff;stroke-width:2.91327596;stroke-miterlimit:4;stroke-dasharray:none"
   d="m 685.81039,282.64695 c -36.36644,23.49957 -79.16526,35.94443 -121.9675,35.86357 -43.57532,-0.0822 -86.93254,-12.94314 -124.53681,-35.86357"
   id="path212"
   inkscape:connector-curvature="0" /><path
   style="fill:none;stroke:#ffffff;stroke-width:2.91327596;stroke-miterlimit:4;stroke-dasharray:none"
   d="m 718.01228,336.07722 c -49.39907,20.97968 -102.49792,33.08682 -155.848,32.88347 -53.1708,-0.20259 -105.95906,-12.51028 -155.40266,-32.88347"
   id="path214"
   inkscape:connector-curvature="0" /><path
   style="fill:none;stroke:#ffffff;stroke-width:2.91327596;stroke-miterlimit:4;stroke-dasharray:none"
   d="m 562.49543,229.10965 c 43.49196,0 87.27397,16.77946 118.48468,48.32746 14.81858,14.98141 26.7584,33.04519 34.84998,52.83449 0,1e-5 10e-6,4e-5 10e-6,5e-5 8.39909,20.54086 12.6124,42.8893 12.6124,65.21514 0,43.73006 -17.24514,87.32217 -47.46352,117.68574 -10e-6,10e-6 -3e-5,2e-5 -4e-5,4e-5 -31.26095,31.41124 -75.04067,47.96476 -118.48467,47.96476 -43.41203,0 -87.20545,-16.412 -118.48468,-47.76736 -30.29718,-30.37546 -47.46352,-74.08649 -47.46352,-117.88314 0,-43.90131 17.18347,-87.70272 47.46352,-118.24585 31.21985,-31.49211 75.01441,-48.13125 118.48468,-48.13125 z"
   id="path216"
   inkscape:connector-curvature="0" /><g
   style="fill:#ffdb00;stroke-width:6.90899992000000030;stroke-miterlimit:4;stroke-dasharray:none;fill-opacity:1"
   transform="matrix(0.41290924,0,0,0.43060418,392.20197,283.63984)"
   id="g218"><g
     style="fill:#ffdb00;stroke-width:6.90899992000000030;stroke-miterlimit:4;stroke-dasharray:none;fill-opacity:1"
     id="g220"><path
       style="fill:#ffdb00;stroke-width:6.90899992000000030;stroke-miterlimit:4;stroke-dasharray:none;fill-opacity:1"
       d="m 376.98,26.96 c 0.88,-0.4 1.77,-0.8 2.66,-1.2 1.63,0.06 3.27,0.1 4.909,0.19 0.74,0.77 1.561,1.449 2.461,2.039 1.21,1.091 2.39,2.221 3.579,3.341 2.07,1.069 4.12,2.22 5.851,3.8 1.24,0.899 2.45,1.83 3.68,2.75 1.29,1.149 3.601,1.89 3.141,4.05 0.01,3.94 0.029,7.87 0.09,11.8 1.92,1.771 4.09,3.221 6.51,4.221 1.61,1.8 4.08,1.84 6.24,2.52 1.12,0.2 2.25,0.42 3.38,0.64 1.31,1.13 2.89,1.851 4.61,2.13 2.29,2.15 4.479,4.4 6.739,6.58 0.36,2.62 1.15,5.2 1.07,7.87 0.25,1.07 0.51,2.15 0.78,3.23 2.54,1.45 5.33,2.479 7.689,4.25 4.841,1.8 10.851,3.13 15.46,0.06 3.11,-1.729 7.03,-0.74 9.891,1.08 3.41,-0.21 6.529,1.3 9.88,1.66 3.05,1.45 4.52,4.5 6.24,7.23 1.6,-0.091 3.21,-0.021 4.819,0.13 1.931,1.84 3.45,4.04 5.19,6.05 2.479,1.35 5.28,2.359 8.16,2.13 2.31,-0.03 4.649,-0.91 6.93,-0.16 2.01,0.37 3.2,2.22 4.59,3.53 2.82,0.189 5.55,-0.42 7.851,-2.101 8.31,-2.239 16.01,-6.18 23.26,-10.75 2.35,-1.76 4.39,-4.13 7.2,-5.17 3.59,1.63 7.27,3.29 10.22,5.98 0.4,-0.351 1.189,-1.05 1.59,-1.41 4.96,-1.13 8.3,2.98 12.51,4.7 2.181,1.12 4.65,1.359 7.07,1.6 2.98,-2.649 5.8,-5.729 9.64,-7.14 1.7,-0.59 2.74,-2.17 4.061,-3.29 -0.67,-0.33 -2.021,-0.97 -2.7,-1.3 1.46,-7.23 5.39,-13.57 6.94,-20.761 1.76,-2.409 4.06,-4.369 5.67,-6.899 -0.45,-1.13 -0.96,-2.23 -1.341,-3.37 0.511,-1.42 1.131,-2.81 1.511,-4.27 -0.41,0.859 -1.21,2.59 -1.61,3.449 0.24,-4.51 -3.64,-1.109 -5.75,-1.319 -0.21,-0.7 -0.63,-2.101 -0.84,-2.801 1.18,-0.52 2.38,-1.029 3.55,-1.609 -1.32,0.39 -2.63,0.78 -3.92,1.17 2.25,-3.37 4.6,-6.71 7.56,-9.5 4.431,-2.14 9.601,-1.98 13.82,-4.55 4.32,1.16 7.8,-2.851 12.12,-2.061 3.73,0.05 6.6,2.65 9.96,3.82 -0.51,0.49 -1.52,1.46 -2.03,1.95 3.46,-3.55 9.391,-3.24 12.88,0.149 2.87,1.811 4.271,4.971 6.461,7.44 0.43,2.07 2.06,3.45 3.329,5.03 l -2.449,-0.891 c 3.54,4.351 7.739,9.12 7.67,15.061 4.09,1.149 5.489,5.689 6.8,9.239 -0.021,-0.54 -0.08,-1.619 -0.11,-2.149 1.58,-0.9 3.17,-1.79 4.761,-2.69 0.93,0.83 1.93,1.61 2.739,2.59 0.69,3.601 -0.39,7.44 1.09,10.921 3.431,-0.99 6.75,0.289 9.811,1.789 3.01,-2.55 6.439,0.61 8.57,2.811 1.92,2.33 5.199,0.99 7.77,1.08 -0.05,1.53 -0.07,3.05 -0.08,4.58 3.48,0.81 3.47,4.49 3.08,7.359 1.44,1.37 2.76,2.86 3.86,4.521 0.38,-0.32 1.14,-0.94 1.52,-1.25 1.601,-0.13 3.23,-0.271 4.83,-0.54 2.45,-0.47 4.771,-1.4 7.1,-2.28 0.16,-0.899 0.341,-1.81 0.53,-2.71 1.811,-2.109 3.66,-4.31 6.521,-4.96 3.51,-2.89 7.01,-6.43 11.83,-6.92 2.06,1.63 1.979,4.021 1.199,6.3 0.95,1.28 1.87,2.59 2.75,3.94 -0.119,1.38 -0.22,2.76 -0.3,4.14 -1.25,1.15 -2.49,2.3 -3.71,3.46 1.03,1.7 1.34,3.99 -0.18,5.53 0.17,1.189 0.37,2.39 0.59,3.59 -0.76,2.51 0.91,4.96 0.1,7.44 -1.09,4.109 -1.97,8.29 -3.569,12.239 -0.53,2.301 0.92,5.261 -1.271,6.971 -4.2,0.59 -8.399,-0.74 -12.569,-0.23 -0.46,1.32 -0.95,2.62 -1.46,3.92 -1.601,0.8 -4.391,2 -1.961,3.87 -0.14,0.21 -0.42,0.63 -0.569,0.84 0.77,1.75 1.51,3.521 2.569,5.141 0.69,3.319 1.141,6.71 2.221,9.939 1.63,3.07 0.43,6.78 0.779,10.12 -2.1,1.34 -4.26,2.561 -6.619,3.34 1.05,1.5 1.619,3.26 1.779,5.09 -2.39,0.57 -4.08,-2 -6.08,-2.96 -0.43,-1.46 -1.359,-2.62 -2.52,-3.56 -0.271,0.86 -0.82,2.59 -1.09,3.45 0.26,1.3 0.5,2.609 0.7,3.93 -0.83,0.79 -1.65,1.59 -2.45,2.4 -0.63,-0.051 -1.87,-0.16 -2.5,-0.21 -0.03,0.67 -0.11,2.01 -0.15,2.68 -0.87,1.03 -1.689,2.11 -2.42,3.25 -2.479,0.979 -5.11,1.5 -7.68,2.189 0.069,0.631 0.22,1.891 0.29,2.521 0.54,0.34 1.62,1.03 2.16,1.37 -0.051,1.76 -0.32,3.5 -1.08,5.1 -2.471,0.04 -4.88,0.44 -7.301,0.76 -2.76,0.271 -5.06,-1.43 -7.14,-2.979 -2.06,-0.17 -2.57,2.12 -3.09,3.61 -0.58,0.859 -1.14,1.72 -1.69,2.59 0.16,2.979 -1.68,6.52 -5.13,5.96 0.01,0.64 0.03,1.93 0.04,2.569 -1.6,1.65 -3.47,3.021 -5.75,3.5 -0.25,1.7 -1.29,2.75 -2.97,3.051 -1.18,1.859 -1.58,4.949 -4.311,5 0,0.68 -0.01,2.02 -0.01,2.699 -0.83,0.761 -1.649,1.53 -2.45,2.32 -2.06,0.07 -4.119,0.26 -6.069,0.9 -2.25,1.55 -4.65,2.87 -7.11,4.05 -1.8,1 -3.37,2.32 -4.89,3.69 -1.24,0.68 -1.66,2.02 -2.181,3.229 -3.6,3.17 -7.1,6.82 -12.01,7.79 -0.33,-1.43 -0.62,-2.86 -0.88,-4.3 0.811,-0.12 2.44,-0.351 3.26,-0.46 l -0.689,-1.3 c 0.76,-0.091 2.27,-0.28 3.029,-0.381 0.101,-3.02 -2.8,-3.109 -5.069,-3.359 -0.16,-1.37 -0.28,-2.73 -0.37,-4.101 0.62,-0.26 1.84,-0.77 2.46,-1.029 -0.05,-0.771 -0.15,-2.33 -0.21,-3.101 0.38,-0.02 1.12,-0.05 1.5,-0.069 1.87,-2.95 5.31,-5.141 5.61,-8.91 0.159,-2.38 -2.471,-3.46 -4.29,-4.13 0.319,-0.54 0.97,-1.601 1.29,-2.141 -2.03,1.561 -4.36,1.88 -6.841,1.49 -1.84,1.04 -2.67,3.18 -3.83,4.84 0.5,1.03 0.78,2.12 0.851,3.26 -0.7,-0.21 -2.101,-0.63 -2.8,-0.84 -0.88,1.96 -1.351,4.431 -3.601,5.3 -2.89,1.301 -5.149,3.48 -7.25,5.79 -0.17,-0.35 -0.52,-1.06 -0.7,-1.409 -0.449,1.67 -0.279,4.359 -2.77,3.17 3.66,2.72 -0.58,6.96 -3.29,8.569 -1.96,0.33 -3.85,1.021 -5.83,1.16 -1.08,-0.649 -2.46,-2.56 -3.439,-0.7 l -1.33,-0.47 c -0.67,1.22 -1.11,2.521 -1.36,3.89 -1.63,0.641 -1.94,2.32 -2.06,3.87 0.18,2.36 2.439,3.69 3.119,5.86 0.931,0.79 1.86,1.59 2.78,2.41 2.021,-0.26 4.061,-0.29 6.101,-0.17 0.38,-0.5 1.14,-1.5 1.52,-2 0.87,0.51 1.76,1.01 2.66,1.51 0.57,1.78 1.24,3.53 2.03,5.24 -0.57,1.81 -0.99,3.649 -1.48,5.49 2.6,2.17 6.28,2.71 9.22,0.859 0.051,-0.72 0.15,-2.17 0.2,-2.899 1.33,-0.91 2.66,-1.811 4.04,-2.671 -0.08,-0.5 -0.22,-1.5 -0.3,-2.01 1.67,-1.01 3.39,-1.939 5.17,-2.75 l -1.02,-1.479 c 0.729,0 2.189,-0.011 2.92,-0.011 1.279,0.83 2.51,1.73 3.699,2.711 0.42,-0.99 0.811,-1.99 1.21,-2.99 0.021,1.37 0.021,2.75 0.011,4.13 2.26,-1.01 4.199,1.18 6.439,1.09 1.51,0.26 2.32,-1.3 3.42,-2.01 2.45,1.83 5.36,1.88 8.29,1.56 -1.029,2.42 -1.85,5 -1.239,7.65 -0.841,0.979 -1.671,1.95 -2.511,2.91 -1.67,-0.521 -3.37,-0.91 -5.06,-1.23 -1.021,1.061 -2.05,2.11 -3.101,3.141 -2.909,0.42 -6.55,1.829 -6.8,5.229 -0.95,0.69 -1.899,1.37 -2.83,2.06 0.33,0.421 0.98,1.261 1.301,1.681 -3.49,1.62 -6.551,4.13 -8.44,7.529 -0.76,1.79 -3.63,1.801 -3.73,3.94 -0.42,2.84 -1.989,5.31 -2.489,8.13 1.739,0.65 3.18,1.85 4.75,2.85 1.27,0.44 2.58,0.82 3.87,1.29 1.31,0.67 2.67,1.261 3.909,2.08 0.99,1.8 1.46,3.851 2.07,5.82 2.65,4.17 3.82,9.11 6.92,13.03 1.08,1.14 0.63,2.779 0.74,4.189 1.36,1.11 2.8,2.12 4.479,2.7 1.44,0.73 2.62,1.84 3.83,2.91 -0.33,0.31 -0.979,0.92 -1.3,1.229 3.601,0.19 6.94,3.23 7.25,6.87 0.26,0.511 0.78,1.55 1.05,2.061 1.15,2.52 0.471,5.39 0.63,8.069 -1.899,3.141 -5.899,3.46 -8.3,6.08 -2.779,1.471 -3.21,5.431 -6.739,5.771 0.119,0.42 0.369,1.26 0.489,1.67 1.471,-0.91 2.8,-2.01 3.98,-3.28 4.109,-1.66 6.859,1.94 9.96,3.87 1.08,0.41 2.109,0.92 3.1,1.55 0.36,2.26 -2.3,4.05 -1.029,6.24 1.43,1.95 -0.98,2.96 -1.49,4.6 0.08,2.521 0.859,4.95 1.24,7.44 -0.601,-0.01 -1.78,-0.03 -2.37,-0.04 0.319,0.85 0.96,2.54 1.279,3.39 0.341,-0.699 0.67,-1.39 1,-2.09 l 0.841,2.86 c -0.261,-0.41 -0.771,-1.22 -1.03,-1.62 -0.83,2.03 -2.101,3.81 -3.21,5.68 -2.351,0.5 -4.221,1.811 -3.94,4.48 -0.91,0.28 -1.819,0.569 -2.71,0.88 0.141,3.63 -0.33,7.229 -1.13,10.77 -4.47,-1.17 -4.86,5.29 -8.92,5.591 -0.03,1.329 -0.06,2.67 -0.09,4.01 -2.28,3.97 -3.03,8.649 -2.97,13.18 -0.41,0.39 -1.24,1.17 -1.66,1.55 0.279,0.73 0.55,1.45 0.83,2.19 -1.15,2.93 -3.74,4.35 -6.721,4.8 1.561,2.15 -0.689,3.78 -2.01,5.28 -0.11,0.53 -0.34,1.58 -0.45,2.1 -2,1 -3.58,2.62 -5.43,3.84 -0.63,0.21 -1.89,0.641 -2.521,0.851 0,0.58 -0.01,1.729 -0.01,2.3 -2,1.91 -3.3,4.47 -5.55,6.11 -0.03,0.54 -0.1,1.6 -0.13,2.14 -1.64,1.28 -3.66,2.25 -4.64,4.18 -1.04,0.561 -1.98,1.261 -2.86,2.04 -1.24,0.01 -2.48,0.01 -3.72,0.01 0.31,0.45 0.909,1.36 1.22,1.811 -2.44,0.95 -4.57,2.41 -4.24,5.37 -1.24,0.1 -2.47,0.189 -3.7,0.27 -0.43,0.351 -1.279,1.061 -1.699,1.41 -2.511,0.89 -5.19,1.771 -7.561,0.061 0.01,0.859 0.021,2.59 0.021,3.46 -2.08,-0.301 -4.08,-0.91 -5.86,-2.021 -1.71,0.72 -2.79,2.13 -3.51,3.78 -0.8,-0.22 -2.391,-0.67 -3.19,-0.9 -1.38,2.03 -2.74,4.13 -2.78,6.69 -0.529,0.06 -1.609,0.17 -2.14,0.229 -1.979,1.53 -4.21,-0.96 -6.229,0.99 -0.49,1.13 -1.07,2.22 -1.73,3.25 -1.64,-0.91 -3.43,-1.37 -5.28,-1.45 -0.33,0.53 -0.989,1.58 -1.319,2.11 -1.62,0.229 -3.21,0.47 -4.801,0.82 -0.369,1.38 -0.77,2.76 -1.149,4.149 -1.36,-0.399 -2.72,-0.76 -4.09,-1.069 -0.061,-1.921 -1.011,-2.2 -2.521,-1.221 -1.46,0.87 -2.819,-0.34 -4.109,-0.89 -0.221,0.67 -0.671,2.02 -0.891,2.689 -3.25,0.921 -6.64,1.561 -9.81,2.841 -0.44,-0.311 -1.3,-0.931 -1.74,-1.24 -1.14,0.6 -2.28,1.189 -3.41,1.81 -0.6,0.061 -1.81,0.16 -2.41,0.221 -0.77,1.579 -1.529,3.17 -2.27,4.77 0.32,0.34 0.939,1.021 1.26,1.36 -2.28,2.569 1.29,5.64 -0.15,8.609 -0.609,0.04 -1.81,0.13 -2.409,0.17 -1.16,0.94 -2.681,0.841 -4.05,1.12 -0.91,0.351 -1.82,0.69 -2.721,1.011 -1.109,-3.271 -1.46,-7.561 -4.51,-9.631 -0.41,-0.75 -0.82,-1.489 -1.23,-2.22 1.33,-0.95 0.761,-2.7 1.011,-4.06 -0.62,-0.261 -1.87,-0.801 -2.49,-1.07 -1.73,-1.11 -3.7,-1.46 -5.73,-1.35 0.141,-0.45 0.431,-1.33 0.57,-1.771 -0.27,-0.32 -0.81,-0.97 -1.09,-1.29 0.08,0.58 0.22,1.73 0.3,2.3 -1.79,-0.949 -3.75,-1.3 -5.76,-1.26 0.14,-0.56 0.4,-1.67 0.54,-2.229 -1.24,0.5 -2.061,1.38 -2.46,2.649 -3.26,0.44 -6.62,0.9 -9.58,-0.87 l 0.1,-1.12 c -2.43,0.74 -4.939,0.87 -7.42,0.351 l 0.61,-1.4 c -0.64,0.23 -1.931,0.69 -2.57,0.931 l 0.58,-1.53 c -0.67,-0.061 -2,-0.18 -2.67,-0.25 -1.53,-2.96 -5.91,-3.21 -6,-7.11 l 2.06,0.48 c -1.56,-1.3 -3.89,-2.55 -3.399,-4.971 0.27,-1.609 1.91,-2.159 3.17,-2.79 0.649,-3.579 -3.62,-2.239 -5.33,-1.529 -0.93,-0.86 -1.91,-1.71 -2.17,-3 -0.51,-0.04 -1.55,-0.12 -2.07,-0.16 0.101,0.55 0.3,1.66 0.4,2.22 -4.16,-1.03 -7.01,-4.03 -9.36,-7.399 -1.79,0.97 -3.689,1.729 -5.43,2.79 -0.62,1.46 -1.17,2.97 -1.99,4.34 -0.6,-0.011 -1.79,-0.03 -2.38,-0.04 -0.8,0.72 -1.62,1.42 -2.47,2.08 -1.86,0.33 -2.82,-1.44 -3.971,-2.5 -0.52,1.47 -0.97,2.96 -1.33,4.479 -2.529,0.601 -3.84,-1.72 -5.25,-3.3 -0.91,2.68 -3.81,1.54 -4.17,-0.78 -1.649,1.65 -3.2,5.12 -6.04,3.721 -1.76,-1.53 -3.3,-3.29 -5.02,-4.841 -1.271,1.601 -2.33,3.351 -3.601,4.95 -2.739,-0.13 -5.449,-0.7 -8.159,-1.02 -0.24,1.63 -0.421,3.27 -0.53,4.93 1.5,1.88 2.83,4.36 1.74,6.8 -1.08,2.101 -0.181,4.28 0.579,6.32 -2,0.74 -4.34,1.53 -5.789,-0.68 -1.511,-0.011 -3,-0.011 -4.5,-0.051 -0.32,-1.1 -0.641,-2.189 -0.961,-3.279 0.181,-1.5 0.011,-2.96 -0.52,-4.38 -2.09,1.27 -3.9,3.56 -6.52,3.51 -2.021,-0.63 -4.061,-1.2 -6.19,-1.101 -0.38,-0.89 -0.75,-1.77 -1.11,-2.659 -0.699,-1.11 -1.37,-2.24 -2.02,-3.37 0.43,-0.87 0.859,-1.74 1.3,-2.601 -3.75,-1.02 -7.63,-1.38 -11.32,-2.58 0.58,-2.199 1.641,-4.239 3.261,-5.84 0.02,-1.3 0.04,-2.6 0.06,-3.88 0.88,-1.25 3.16,-1.939 2.94,-3.67 -2.49,-0.35 -5.301,-0.23 -7.261,-2.05 -0.109,-1.33 -0.14,-2.66 -0.1,-3.98 -0.29,-0.37 -0.87,-1.12 -1.16,-1.5 0.17,-0.96 0.33,-1.91 0.5,-2.87 -1.24,-1.08 -1.39,-2.699 -1.55,-4.21 0.42,-0.409 1.27,-1.229 1.689,-1.63 -2.649,0.04 -5.31,-0.17 -7.96,0.08 -2.18,0.61 -4.069,1.95 -6.189,2.73 -0.95,-0.53 -1.87,-1.101 -2.771,-1.69 0.24,-1.899 1.511,-3.24 2.91,-4.399 -0.12,-0.66 -0.34,-1.98 -0.46,-2.641 -0.399,-0.32 -1.22,-0.939 -1.63,-1.25 0.47,-1.68 0.84,-3.39 1.19,-5.09 0.81,-0.37 1.63,-0.73 2.449,-1.1 -0.199,-2.33 0.58,-4.48 2.41,-5.96 3.15,0.64 4.061,-2.5 5.38,-4.62 0.631,0.109 1.881,0.31 2.511,0.41 0.25,-0.58 0.75,-1.73 1,-2.311 0.729,-0.74 1.46,-1.47 2.189,-2.2 -3.2,0.271 -5.99,-1.279 -8.67,-2.8 -4.51,0.39 -8.82,-1.13 -13.31,-1.14 -0.851,-1 -1.53,-2.11 -2.03,-3.33 -0.99,0.43 -1.97,0.89 -2.92,1.39 -2,0.13 -4,0.2 -5.99,0.3 l 0.42,-1.92 c -1.359,0.511 -2.649,1.15 -3.92,1.84 -1.62,3.58 -6.62,2.87 -8.67,0.091 -0.06,-1.891 0.9,-3.61 1.74,-5.23 0.26,-1.01 0.54,-2.01 0.84,-3.01 0.76,-1.18 1.65,-2.28 2.59,-3.33 1.79,-0.11 3.53,-0.521 5.09,-1.43 2.58,-5.131 8.721,-5.761 13.261,-8.37 1.199,-0.55 2.43,-1.03 3.64,-1.55 -3.22,-1.07 -4.68,-4.49 -7.7,-5.83 -2.22,-1.07 -4.65,-1.551 -6.97,-2.341 -1.01,0.25 -2.03,0.49 -3.05,0.71 -2.391,3.32 -6.54,3.961 -10.07,5.44 l -0.26,-0.84 c -0.21,0.8 -0.62,2.399 -0.83,3.2 -0.36,-0.65 -0.721,-1.29 -1.08,-1.92 -3.44,0.55 -7.41,1.17 -9.54,4.26 -0.96,1.58 -2.37,2.75 -3.99,3.609 -7.09,0.61 -13.79,-2.319 -20.84,-2.06 -3.41,-0.8 -6.84,-2.51 -10.39,-2.02 -0.4,-3.03 2.81,-4.421 4.5,-6.37 0.06,-0.771 0.17,-2.311 0.229,-3.07 0.12,-2.47 1.04,-5.18 -1.149,-7.08 -2.261,0.64 -5.131,1.57 -6.86,-0.6 -1.57,-1.65 -4,-1.84 -5.63,-3.38 -1.92,-1.71 -4.7,-1.761 -6.98,-2.75 -3.37,0.04 -5.21,3.17 -7.83,4.77 -0.51,0.78 -1.029,1.56 -1.54,2.34 0.53,2.74 -1.319,4.88 -4.149,4.32 -1.38,-1.74 -4.33,-3.53 -2.78,-6.09 0.97,-2.16 3.92,-4.58 1.48,-6.87 -3.771,-0.24 -7.671,2.27 -11.23,0.04 -0.25,0.64 -0.76,1.92 -1.01,2.569 -0.01,-0.97 0.03,-2.739 -1.46,-2.47 -2.28,-0.359 -4.851,0.03 -6.79,-1.47 -1.851,-1.51 -3.53,-3.23 -5.601,-4.46 -1.649,2.52 -4.069,1.649 -5.619,-0.33 -1.33,1.16 -2.73,1.19 -4.011,-0.03 -0.069,-1.95 -0.29,-3.93 -1.35,-5.609 -2.561,-1.2 -5.39,-1.57 -8.03,-2.53 0.271,-1.55 0.71,-3.05 1.33,-4.49 -4.36,0.84 -6.4,-3.5 -9.05,-6.03 -2.59,-1.39 0.68,-4.239 -1.04,-6.01 -1.63,-2.51 -4.45,-0.26 -6.63,0.01 -0.8,-2.119 -1.5,-4.27 -2.391,-6.35 -0.989,-2.93 -4.989,-3.09 -6,-6.02 -1.01,-2.591 -2.93,-4.58 -4.979,-6.37 0.06,-3.58 -3.4,-5.08 -5.98,-6.71 -2.05,1.909 -3.869,4.58 -6.97,4.59 -0.74,-6.45 -6.82,-9.59 -11.02,-13.65 -0.051,-0.63 -0.16,-1.88 -0.221,-2.5 -1.3,-2.14 -3.739,-2.96 -5.229,-4.859 -1.75,2.13 -4.08,-0.631 -4.53,-2.381 -0.92,-3.13 -3.729,-6.939 -1,-9.909 -0.26,-0.9 -0.53,-1.79 -0.8,-2.681 1.52,-1.74 -0.05,-3.659 -0.38,-5.51 0.55,-2.12 1.319,-4.18 1.939,-6.28 1.87,-0.409 3.73,-0.829 5.61,-1.149 0.05,1.87 0.09,3.74 0.14,5.61 1.4,-0.4 3.021,-0.431 4.19,-1.41 0.689,-3.2 0.2,-6.521 0.36,-9.771 -0.681,-0.83 -1.37,-1.66 -2.07,-2.479 -0.021,-1.681 -0.021,-3.36 0.01,-5.04 0.601,-0.73 1.19,-1.46 1.78,-2.19 -0.36,-1.05 -0.63,-2.109 -0.82,-3.18 2.311,-0.74 7.09,-0.96 5.021,-4.65 -2.261,-0.8 -4.17,-2.3 -5.971,-3.83 0.41,-3.31 1.221,-6.62 -0.13,-9.87 0.29,-0.52 0.86,-1.579 1.15,-2.109 -3.74,-1.46 -8.05,-2.61 -10.58,-5.95 -1.93,-1.33 -3.82,-2.92 -4.03,-5.43 -1.16,-0.011 -2.319,-0.03 -3.479,-0.03 -0.44,-1.63 -0.931,-3.24 -1.41,-4.85 -1.021,-0.58 -2,-1.23 -2.92,-1.95 -3.28,-2.351 -7.19,-3.311 -11.09,-2.04 0.939,-0.41 1.88,-0.82 2.83,-1.22 -1.99,-0.801 -3.86,-1.801 -5.511,-3.16 0.471,-3.511 0.84,-7.101 2.09,-10.431 -0.649,-0.68 -1.29,-1.35 -1.939,-2.02 0.03,-0.55 0.08,-1.66 0.11,-2.21 -2.721,0.479 -4.631,-1.311 -6.58,-2.851 -2.301,-0.8 -4.75,-0.5 -7.131,-0.52 -0.899,-0.95 -1.8,-1.9 -2.689,-2.86 -0.51,-0.05 -1.55,-0.16 -2.061,-0.21 -2.159,-1.489 -4.479,-2.739 -6.6,-4.279 -0.12,-2.921 0.22,-5.801 1.15,-8.561 1.14,-1.189 2.31,-2.35 3.489,-3.49 -0.188,-2.98 -0.108,-6.02 1.562,-8.61 1.75,-0.011 3.51,-0.021 5.27,-0.07 1.271,-0.97 2.591,-1.87 3.87,-2.83 0.431,0.18 1.311,0.55 1.74,0.73 -0.38,-0.44 -1.15,-1.32 -1.53,-1.75 3.23,-0.71 6.471,-1.891 9.84,-1.061 -1.409,0.83 -2.989,1.28 -4.569,1.67 2.18,-0.47 5.04,0.79 6.49,-1.5 0.149,0.561 0.46,1.67 0.609,2.221 l 1.32,-0.311 c 0.08,0.79 0.22,2.38 0.3,3.18 0.021,-0.439 0.06,-1.319 0.08,-1.76 2.229,-0.399 4.45,-0.85 6.72,-0.97 1.811,-3.061 3.48,-7.08 7.76,-6.78 2.631,1.771 6.62,0.24 7.94,-2.47 0.66,0.1 1.33,0.2 2,0.31 1.66,3.71 5.46,0.58 8.38,0.58 -0.04,1.86 -0.109,3.73 -0.2,5.59 0.69,-0.06 2.08,-0.189 2.78,-0.25 1.13,0.351 2.25,1.551 3.51,1.091 2.29,-1.73 4.09,-4 5.98,-6.141 1.45,-0.33 2.899,-0.63 4.37,-0.89 0.41,0.51 1.25,1.54 1.66,2.06 1.46,-2.859 4.689,-2.859 7.39,-3.6 2.33,-0.71 5.11,0.28 6.09,2.59 3.311,-0.729 6.62,-1.43 9.9,-2.26 0.52,0.399 1.06,0.81 1.59,1.21 1.41,-0.07 2.82,-0.061 4.24,0.03 -0.17,-0.12 -0.5,-0.36 -0.66,-0.48 -0.46,-0.26 -1.36,-0.79 -1.811,-1.05 3.351,-0.22 6.141,-2.351 9.45,-2.8 0.09,-2.551 0.32,-5.11 1.23,-7.521 0.77,-0.09 2.31,-0.26 3.08,-0.35 -0.07,-0.62 -0.2,-1.87 -0.271,-2.5 0.54,-0.32 1.63,-0.97 2.17,-1.29 0.73,0.04 2.18,0.13 2.91,0.17 1.02,-6.98 -0.51,-14.38 1.9,-21.14 -0.9,-0.931 -1.83,-1.83 -2.79,-2.69 -0.46,-1.15 -0.931,-2.3 -1.4,-3.45 7.09,-2.069 14.54,1.54 21.71,-0.59 0.521,0.15 1.55,0.46 2.061,0.62 0.439,0.96 0.88,1.91 1.34,2.87 1.21,0.35 2.43,0.72 3.649,1.1 -0.5,-1.109 -0.989,-2.2 -1.51,-3.29 -0.01,-2.37 0.13,-4.88 1.8,-6.74 4.16,-5.359 8.101,-10.88 12.561,-16.01 2.47,-0.64 4.02,1.391 5.62,2.891 1.55,1.149 3.01,2.56 5.01,2.819 4.53,0.88 9.03,1.87 13.56,2.721 3.58,-5.75 0.63,-13.62 6.09,-18.49 3.03,-0.181 6.341,0.439 9.061,-1.29 3.76,-1.07 1.27,-7.101 5.899,-7.28 0.08,0.62 0.25,1.87 0.33,2.49 l 0.181,-2.3 c 2.87,1.399 5.96,2 9.12,2.31 1.04,-2.04 2.479,-3.82 4.09,-5.43 3.3,-0.42 6.189,1 9.029,2.45 0.12,-0.511 0.36,-1.521 0.49,-2.03 1.49,-1.4 2.92,-2.86 4.351,-4.32 -0.74,-1.55 -1.33,-3.17 -2.011,-4.74 0.99,-1.939 2.311,-3.67 3.87,-5.18 -1.16,-1.95 -1.729,-4.149 -2.59,-6.22 -1.9,-1.48 -3.82,-2.98 -5.02,-5.12 3.08,-2.021 6.229,-5.88 10.31,-4.5 1.18,0.71 2.34,0.26 3.44,-0.35 -0.061,-0.671 -0.19,-2.011 -0.25,-2.681 1.149,-0.75 2.31,-1.479 3.52,-2.13 1.18,-1.29 2.7,-1.74 4.55,-1.35 -0.689,0.64 -1.39,1.27 -2.109,1.87 l 3.18,-0.82 -1.63,2.55 c 0.689,-0.68 1.39,-1.36 2.09,-2.04 -0.15,2.94 3.67,2.67 4.23,5.3 0.52,0.301 1.55,0.92 2.069,1.221 3.21,0.75 5.36,-1.38 6.86,-3.92 2.79,-0.21 5.96,-0.421 7.78,2.13 2.17,-1.86 4.1,-4 5.47,-6.53 -0.78,-0.771 -1.55,-1.55 -2.32,-2.33 0.63,-1.14 1.24,-2.3 1.811,-3.479 2.279,-0.15 4.84,-0.7 6.83,0.8 0.63,-0.851 1.26,-1.71 1.89,-2.58 1.31,-1.76 2.63,-3.561 4.37,-4.94 2.21,-0.779 4.5,-0.38 6.75,-0.069 1.45,-0.771 2.64,-1.971 3.96,-2.951 z"
       id="path222"
       inkscape:connector-curvature="0" /><path
       style="fill:#ffdb00;stroke-width:6.90899992000000030;stroke-miterlimit:4;stroke-dasharray:none;fill-opacity:1"
       d="m 661.41,448.14 c 1.12,0.02 2.261,0.04 3.4,0.06 -0.021,0.41 -0.07,1.24 -0.1,1.65 1.26,0.21 2.38,0.74 3.35,1.6 -0.24,1.75 -1.45,3.431 -0.811,5.24 1.551,3.65 -1.569,6.771 -2.39,10.17 -0.71,4.37 -1.83,8.66 -3.01,12.93 -0.17,1.341 -1.09,2.29 -2.05,3.141 -0.851,1.8 -1.601,3.74 -3.221,5.02 -1.58,2.351 -0.859,5.65 -2.8,7.7 0.07,1.12 0.16,2.24 0.26,3.38 -0.689,-0.13 -2.079,-0.37 -2.77,-0.49 -0.09,-1.22 -0.53,-2.279 -1.31,-3.17 l 0.92,-0.779 c -2.37,-0.32 -3.811,-2.33 -5.42,-3.84 -0.271,-2.73 -1.24,-5.301 -2.25,-7.82 -0.761,-0.79 -1.521,-1.561 -2.28,-2.33 0.069,-1.41 0.04,-2.85 0.729,-4.12 0.351,-1.16 0.721,-2.3 1.12,-3.44 0.601,-2.25 2.13,-4.029 3.49,-5.85 1.81,-3.78 3.84,-7.52 6.79,-10.55 1.439,-2.57 2.67,-5.64 5.49,-6.98 0.953,-0.503 1.914,-1.003 2.863,-1.522 z"
       id="path224"
       inkscape:connector-curvature="0" /><path
       style="fill:#ffdb00;stroke-width:6.90899992000000030;stroke-miterlimit:4;stroke-dasharray:none;fill-opacity:1"
       d="m 509.58,533.67 c 2.061,-1.131 4.49,-0.551 6.74,-0.71 -0.04,0.42 -0.1,1.279 -0.13,1.71 1,0.33 2,0.67 3.01,1.02 0.44,1.89 0.87,3.78 1.23,5.69 -1.91,1.819 -3.41,4.01 -4.891,6.18 -0.3,1.13 -0.55,2.28 -0.75,3.44 h -1.399 c 0.189,1.92 0.229,3.909 -1.57,5.1 -1.49,0.36 -2.87,1.01 -4.2,1.74 -0.14,0.66 -0.42,1.97 -0.55,2.62 -1.7,-0.091 -3.479,-0.19 -4.74,-1.44 0.181,1.4 0.07,2.78 -0.33,4.11 -1.319,0.279 -2.64,0.39 -3.989,0.34 -0.28,-0.55 -0.86,-1.67 -1.15,-2.22 -2.939,-1.211 -6.34,-2.07 -8.66,-4.261 -0.34,-4.229 -1.76,-8.55 -0.3,-12.729 2.21,-1.7 4.59,-3.181 6.98,-4.601 0.02,-0.67 0.05,-2.01 0.069,-2.67 3.29,-0.739 6.4,-2.79 9.86,-2.12 1.77,0.561 3.3,-0.33 4.77,-1.199 z"
       id="path226"
       inkscape:connector-curvature="0" /></g></g><ellipse
   sodipodi:ry="69.610001"
   sodipodi:rx="69.807999"
   sodipodi:cy="701.65002"
   sodipodi:cx="1095.7"
   id="ellipse230"
   cx="1095.7"
   cy="701.65002"
   transform="matrix(-1.2029517,-0.18837859,0.18786988,-1.206209,1748.7552,1194.98)"
   ry="69.610001"
   rx="69.807999"
   d="m 1165.5079,701.65002 c 0,38.44455 -31.2541,69.61001 -69.8079,69.61001 -38.5539,0 -69.808,-31.16546 -69.808,-69.61001 0,-38.44454 31.2541,-69.61 69.808,-69.61 38.5538,0 69.8079,31.16546 69.8079,69.61 z"
   style="fill:#000096;fill-opacity:1" /><path
   inkscape:connector-curvature="0"
   id="path232"
   d="m 562.5204,85.483796 7.59029,28.261674 20.70099,-20.650837 -7.52088,28.298297 28.25597,-7.54125 -20.63038,20.75583 28.18657,7.61206 -28.18657,7.61206 20.63038,20.75705 -28.25597,-7.54125 7.52088,28.33248 -20.70099,-20.68624 -7.59029,28.26289 -7.5915,-28.26289 -20.701,20.68624 7.52089,-28.33248 -28.25597,7.54125 20.63037,-20.72165 -28.18657,-7.64624 28.18657,-7.61206 -20.63037,-20.75583 28.25597,7.54125 -7.52089,-28.298296 20.701,20.650836 7.5915,-28.262894 0,0 z"
   style="fill:#ffffff" /><ellipse
   sodipodi:ry="26.288"
   sodipodi:rx="26.362"
   sodipodi:cy="701.65002"
   sodipodi:cx="1095.7"
   id="ellipse234"
   cx="1095.7"
   cy="701.65002"
   transform="matrix(-1.2029517,-0.18837859,0.18786988,-1.206209,1748.7552,1194.9807)"
   ry="26.288"
   rx="26.362"
   d="m 1122.062,701.65002 c 0,14.51847 -11.8027,26.288 -26.362,26.288 -14.5594,0 -26.362,-11.76953 -26.362,-26.288 0,-14.51846 11.8026,-26.288 26.362,-26.288 14.5593,0 26.362,11.76954 26.362,26.288 z"
   style="fill:#000096;fill-opacity:1" /><ellipse
   sodipodi:ry="23.204"
   sodipodi:rx="23.268999"
   sodipodi:cy="701.65002"
   sodipodi:cx="1095.7"
   id="ellipse236"
   cx="1095.7"
   cy="701.65002"
   transform="matrix(-1.2029517,-0.18837859,0.18786988,-1.206209,1748.7552,1194.9807)"
   ry="23.204"
   rx="23.268999"
   d="m 1118.969,701.65002 c 0,12.81522 -10.4179,23.204 -23.269,23.204 -12.8512,0 -23.269,-10.38878 -23.269,-23.204 0,-12.81521 10.4178,-23.204 23.269,-23.204 12.8511,0 23.269,10.38879 23.269,23.204 z"
   style="fill:#ffffff" /></svg>