<?xml version="1.0" encoding="UTF-8"?>
<svg width="900" height="600" version="1.1" xmlns="http://www.w3.org/2000/svg" xmlns:cc="http://creativecommons.org/ns#" xmlns:dc="http://purl.org/dc/elements/1.1/" xmlns:rdf="http://www.w3.org/1999/02/22-rdf-syntax-ns#" xmlns:xlink="http://www.w3.org/1999/xlink"><metadata><rdf:RDF><cc:Work rdf:about=""><dc:format>image/svg+xml</dc:format><dc:type rdf:resource="http://purl.org/dc/dcmitype/StillImage"/><dc:title/></cc:Work></rdf:RDF></metadata><path d="m0 195h900v210h-900z" fill="#fff" stroke-width=".72457"/><path d="m251.26 375 48.738-150 48.738 150-127.6-92.705h157.72m172.4 92.705 48.738-150 48.738 150-127.6-92.705h157.72" fill="#007a3d"/><g id="black" transform="matrix(.6 0 0 .6 -.5862 -.58859)"><rect x=".977" y="667.65" width="1500" height="333.33" clip-rule="evenodd" fill-rule="evenodd"/></g><g id="red" transform="matrix(.6 0 0 .6 -.5862 -.5862)"><rect x=".977" y=".977" width="1500" height="333.33" clip-rule="evenodd" fill="#ce1126" fill-rule="evenodd"/></g><g transform="matrix(.85766 0 0 .86566 735.38 -11.083)" fill-rule="evenodd" stroke="#ce1126"><g fill="#fff" stroke="#ce1126"><g stroke-width="1.1606px"><path d="m-774.58 101.3c1.3795-1.5879 4.2931-3.8784 7.1215-3.1681 2.1676 0.5443 1.8907 3.4515 4.4167 4.7499-2.2059 1.7586-4.8364 2.7235-7.1001 2.5638-2.4362-0.17191-3.0485-1.8826-4.4381-4.1456z"/><path d="m-762.03 96.298c0.88906-1.9063 3.0596-4.9103 5.9743-5.0061 2.2337-0.0734 2.7677 2.7977 5.5536 3.3506-1.6366 2.2978-3.8999 3.9497-6.12 4.4192-2.3894 0.50534-3.449-0.97069-5.4078-2.7637z"/><path d="m-768.34 99.317c1.106-1.7892 3.6131-4.5186 6.5189-4.2727 2.2269 0.18844 2.4214 3.1023 5.1234 3.9773-1.8942 2.0906-4.3352 3.4662-6.595 3.6728-2.4321 0.22231-3.3117-1.3676-5.0473-3.3774z"/></g><g stroke-width="1.1606px"><path d="m-699.06 89.665c1.2084 1.3581 2.8458 4.1058 1.9114 6.4404-0.71609 1.7891-3.1855 1.2228-4.5914 3.2323-1.2608-2.0831-1.7902-4.4388-1.394-6.3535 0.42641-2.0607 1.9682-2.3895 4.0739-3.3192z"/><path d="m-702.53 84.053c1.643 0.97571 4.1641 3.2203 3.9934 5.906-0.13085 2.0582-3.9629 0.85301-4.7081 3.3663-1.9306-1.6951-1.689-2.9352-1.9171-5.014-0.24547-2.2373 0.83976-2.6082 2.6318-4.2583z"/><path d="m-706.44 80.23c1.7894 0.44 4.6885 1.7662 5.0738 4.1481 0.29524 1.8254-3.659 1.7317-3.8648 4.1068-2.2151-0.9949-2.2356-2.1353-2.8822-3.8892-0.696-1.8875 0.27788-2.4814 1.6734-4.3658z"/></g></g><path id="rect2833" d="m-822.33 45.775c-4.6863 4.6863-4.6863 12.284 0 16.971 3.5631 3.5631 8.7999 4.4184 13.17 2.5633l7.6235 7.6235-9.8995 9.8995 6.364 6.364 9.8995-9.8995s69.93 69.93 104.89 104.89c5.0106 5.0106 3.9432 12.276 0.19887 16.02-13.477 13.477-31.926-0.81131-36.593-9.7227-1.2152 5.9076-1.4885 12.106 0.39775 19.048l6.2314-3.4913c6.4081 6.9991 16.405 8.9624 24.881 8.1759 13.907-1.2904 25.659-10.461 32.704-8.5737-1.8877-7.0451 7.2833-18.796 8.5737-32.704 0.78652-8.4766-1.1768-18.473-8.1759-24.881l3.4913-6.2314c-6.9414-1.8863-13.14-1.613-19.048-0.39775 8.9114 4.6669 23.2 23.116 9.7227 36.593-3.7443 3.7443-11.01 4.8117-16.02-0.19888-34.965-34.965-104.89-104.89-104.89-104.89l9.8995-9.8995-6.364-6.364-9.8995 9.8995-7.6235-7.6235c1.8551-4.37 0.99984-9.6068-2.5633-13.17-4.6863-4.6863-12.284-4.6863-16.971 0zm4.9498 4.9497c1.9526-1.9526 5.1184-1.9526 7.0711 0s1.9526 5.1184 0 7.0711c-1.9526 1.9526-5.1184 1.9526-7.0711 0-1.9526-1.9526-1.9526-5.1184 0-7.0711z" fill="#fff" stroke="#ce1126" stroke-linecap="round" stroke-linejoin="round" stroke-width="1.1606"/><g transform="translate(-234.44)" stroke="#ce1126"><use transform="matrix(-1 0 0 1 -1245.1 0)" width="1008" height="672" stroke="#ce1126" xlink:href="#rect2833"/></g><g fill="#fff" stroke="#ce1126"><g stroke-width="1.1606px"><path d="m-767.21 161.98c-0.87582 1.9124-1.7538 5.5095 0.0585 7.7942 1.3906 1.753 3.847 2.4633 5.5669 0.6967 1.7053-1.7516 1.0648-4.1677-0.0162-6.1629-1.1634-2.1473-2.9742-1.9979-5.6092-2.3279l1e-5 -4e-5z"/><path d="m-768.27 155.68c-0.67917 1.9908-1.1943 5.6609 0.84163 7.7488 1.5602 1.6001 3.9341-0.10081 6.3264 1.4301 0.41123-2.791-0.0771-5.55-1.3532-7.4265-1.3734-2.0195-3.16-1.6888-5.8148-1.7524z"/><path d="m-770.3 148.69c-0.45808 2.053-0.57003 5.7574 1.6814 7.6109 1.7254 1.4205 3.8996-0.52912 6.4446 0.73183 0.1045-2.8192-0.68172-5.5086-2.1548-7.2347-1.5854-1.8578-3.3252-1.3342-5.9712-1.108z"/><path d="m-773.24 142.15c-0.23535 2.0902 0.0505 5.7853 2.4877 7.3868 1.8677 1.2273 3.8204-0.94415 6.4859 0.0367-0.19834-2.8141-1.2684-5.4037-2.918-6.962-1.7754-1.6771-3.4491-0.97006-6.0555-0.46144z"/><path d="m-775.77 135.14c-0.23535 2.0902 0.0505 5.7853 2.4877 7.3868 1.8677 1.2273 3.8204-0.94415 6.4859 0.0367-0.19834-2.8141-1.2684-5.4037-2.918-6.962-1.7754-1.6771-3.4491-0.97006-6.0555-0.46144z"/><path d="m-778.68 127.75c-0.23535 2.0902 0.0505 5.7853 2.4877 7.3868 1.8677 1.2273 3.8204-0.94415 6.4859 0.0367-0.19834-2.8141-1.2684-5.4037-2.918-6.962-1.7754-1.6771-3.4491-0.97006-6.0555-0.46144z"/><path d="m-780.41 120.1c-0.45969 2.0526-0.57454 5.7569 1.6755 7.6122 1.7242 1.4218 3.9-0.52609 6.444 0.73681 0.10669-2.8191-0.67744-5.5091-2.1492-7.2364-1.5839-1.859-3.3242-1.3368-5.9703-1.1126z"/><path d="m-782.29 112.09c-0.58396 2.0208-0.92443 5.7112 1.2083 7.7002 1.6344 1.5243 3.9249-0.28736 6.3871 1.1283 0.27834-2.8073-0.34034-5.5401-1.704-7.3539-1.4676-1.9521-3.2365-1.537-5.8914-1.4745z"/><path d="m-782.89 104.12c-0.82455 1.8625-1.6098 5.346 0.26594 7.4852 1.4374 1.6394 3.9304 0.16927 6.2027 1.7985 0.61654-2.6477 0.33373-5.3257-0.79992-7.2108-1.2201-2.0288-3.0261-1.8326-5.6687-2.073z"/></g><path d="m-782.69 96.575c-1.0136 1.6177-2.1988 4.7342-0.71284 6.9307 1.1388 1.6834 3.6684 0.6274 5.5923 2.4015 0.91932-2.3664 0.99814-4.8685 0.17619-6.7418-0.88463-2.0162-2.6055-2.0519-5.0557-2.5904z" stroke-width="1.1606px"/><path d="m-781.87 102.35c1.5654-1.4049 4.7402-3.317 7.4589-2.2621 2.0835 0.80846 1.4488 3.659 3.7947 5.2601-2.4066 1.4719-5.1364 2.1038-7.3628 1.6651-2.3962-0.47219-2.792-2.2455-3.8907-4.6631z" stroke-width="1.1606px"/><g stroke-width="1.1606px"><path d="m-780.5 89.665c-1.2084 1.3581-2.8458 4.1058-1.9114 6.4404 0.71609 1.7891 3.1855 1.2228 4.5914 3.2323 1.2608-2.0831 1.7902-4.4388 1.394-6.3535-0.42642-2.0607-1.9682-2.3895-4.0739-3.3192z"/><path d="m-777.03 84.053c-1.643 0.97571-4.1641 3.2203-3.9934 5.906 0.13085 2.0582 3.9629 0.85301 4.7081 3.3663 1.9306-1.6951 1.689-2.9352 1.9171-5.014 0.24546-2.2373-0.83976-2.6082-2.6318-4.2583z"/><path d="m-773.12 80.23c-1.7894 0.44-4.6885 1.7662-5.0738 4.1481-0.29525 1.8254 3.659 1.7317 3.8648 4.1068 2.2151-0.9949 2.2356-2.1353 2.8822-3.8892 0.696-1.8875-0.27788-2.4814-1.6734-4.3658z"/></g><g stroke-width="1.1606px"><path d="m-767.86 77.066c-1.8553 1.06e-4 -5.0334 0.63335-6.076 2.9943-0.79898 1.8093 3.0537 2.716 2.585 5.2198 2.4232-0.46486 2.7637-1.6368 3.8826-3.2831 1.2042-1.7717 0.42883-2.6318-0.3916-4.931z"/><path d="m-763.21 74.734c-1.8365-0.26354-5.0724-0.08835-6.4398 2.1005-1.048 1.6774 2.6368 3.1223 1.817 5.5341 2.4647-0.11579 2.9682-1.2275 4.3097-2.698 1.4438-1.5826 0.79847-2.5442 0.3131-4.9366z"/><path d="m-756.43 75.38c-1.5861-0.96245-4.6316-2.07-6.7478-0.59253-1.6217 1.1322 0.0217 4.3558-1.678 6.2531 2.3127 0.8598 4.1628-0.46192 5.9734-1.2887 1.9487-0.88986 1.9609-1.9806 2.4524-4.3719z"/><path d="m-749.94 76.837c-1.6608-1.2908-4.9628-2.9738-7.6001-1.7293-2.0212 0.95367-1.1866 3.7522-3.4135 5.5151 2.5046 1.2982 5.2722 1.7356 7.4621 1.1406 2.3568-0.64034 2.6263-2.4372 3.5515-4.9264z"/><path d="m-742.58 79.772c-1.463-1.5113-4.4958-3.6414-7.2818-2.7798-2.1351 0.66029-1.702 3.5483-4.1544 4.9809 2.2974 1.6372 4.9762 2.459 7.2279 2.1775 2.4234-0.30291 2.9427-2.0441 4.2083-4.3786z"/><path d="m-735.92 83.681c-1.2424-1.6973-3.955-4.2225-6.8328-3.7504-2.2054 0.36183-2.1716 3.282-4.797 4.3654 2.0517 1.9362 4.5928 3.117 6.8618 3.1464 2.442 0.03164 3.1948-1.6221 4.768-3.7614z"/><path d="m-729.32 87.856c-1.0993-1.7933-3.5962-4.5321-6.5029-4.2971-2.2276 0.1801-2.433 3.0932-5.1383 3.9581 1.8864 2.0977 4.3222 3.4825 6.5812 3.6975 2.4312 0.23142 3.3168-1.3551 5.0599-3.3585z"/><path d="m-723.68 91.553c-1.0993-1.7933-3.5961-4.5321-6.5029-4.2971-2.2276 0.1801-2.433 3.0932-5.1383 3.9581 1.8864 2.0977 4.3222 3.4825 6.5812 3.6975 2.4312 0.23142 3.3168-1.3551 5.0599-3.3585z"/><path d="m-717.53 96.298c-0.88906-1.9063-3.0596-4.9103-5.9743-5.0061-2.2337-0.0734-2.7677 2.7977-5.5536 3.3506 1.6366 2.2978 3.8999 3.9497 6.12 4.4192 2.3894 0.50534 3.449-0.97069 5.4078-2.7637z"/><path d="m-711.22 99.317c-1.106-1.7892-3.6131-4.5186-6.5189-4.2727-2.2269 0.18844-2.4214 3.1023-5.1234 3.9773 1.8942 2.0906 4.3352 3.4662 6.595 3.6728 2.4321 0.22231 3.3117-1.3676 5.0473-3.3774z"/><path d="m-704.98 101.3c-1.3795-1.5879-4.2931-3.8784-7.1215-3.1681-2.1676 0.5443-1.8907 3.4515-4.4167 4.7499 2.2059 1.7586 4.8364 2.7235 7.1 2.5638 2.4362-0.17191 3.0485-1.8826 4.4381-4.1456z"/><path d="m-697.69 102.35c-1.5654-1.4049-4.7402-3.317-7.4589-2.2621-2.0835 0.80846-1.4488 3.659-3.7947 5.2601 2.4066 1.4719 5.1364 2.1038 7.3628 1.6651 2.3962-0.47219 2.792-2.2455 3.8907-4.6631z"/><path d="m-690.26 101.61c-1.8222-1.0507-5.3238-2.2647-7.7655-0.6701-1.8712 1.222-0.66054 3.8796-2.6244 5.9314 2.6591 0.94223 5.4605 0.99573 7.548 0.10588 2.2466-0.95768 2.2671-2.7745 2.8419-5.3671z"/><path d="m-683.02 100.18c-1.943-0.8058-5.5724-1.5559-7.7869 0.34149-1.6972 1.4541-0.15242 3.9324-1.834 6.2213 2.7587 0.58985 5.5435 0.28 7.4982-0.87276 2.1036-1.2406 1.8886-3.0448 2.1227-5.69z"/><path d="m-676.16 97.786c-2.0409-0.50922-5.7413-0.71369-7.6505 1.4907-1.4631 1.6894 0.43153 3.9116-0.89254 6.4243 2.8156 0.17485 5.5239-0.54392 7.2862-1.9734 1.8968-1.5384 1.4169-3.2909 1.2568-5.9416z"/><path d="m-670.97 94.528c-2.1006-0.11022-5.772 0.39556-7.2252 2.9239-1.1137 1.9376 1.1704 3.7573 0.35038 6.4765 2.7972-0.36592 5.3184-1.5885 6.7755-3.3282 1.5682-1.8723 0.76253-3.5009 0.0993-6.0723z"/><path d="m-666.37 89.339c-2.0688 0.3814-5.5141 1.755-6.3088 4.6554-0.60907 2.2227 2.0559 3.5286 1.9234 6.4736 2.6297-1.0269 4.7817-2.8562 5.7729-4.9591 1.0668-2.2632-0.11434-3.7227-1.3875-6.17z"/><path d="m-662.54 84.141c-1.9667 0.74666-5.1094 2.7165-5.3704 5.7125-0.20008 2.296 2.6561 3.1022 3.0544 6.0231 2.4026-1.4824 4.1911-3.6683 4.7887-5.915 0.6431-2.418-0.7809-3.6417-2.4728-5.8206z"/><path d="m-658.36 78.433c-1.9267 0.84455-4.9664 2.9699-5.0765 5.9752-0.0844 2.3031 2.8086 2.9648 3.3533 5.862 2.3251-1.6012 4.0015-3.8743 4.4854-6.1482 0.52077-2.4473-0.96293-3.5979-2.7621-5.689z"/><path d="m-656.56 72.486c-1.6964 1.244-4.2 3.9806-3.6527 6.9377 0.41938 2.2662 3.3871 2.2816 4.5499 4.9905 1.9203-2.0693 3.0612-4.653 3.038-6.9777-0.0249-2.5019-1.7237-3.3016-3.9353-4.9505z"/></g><path d="m-658.49 66.68c-1.0106 1.8034-2.1085 5.2922-0.31454 7.7951 1.3748 1.9181 4.1008 0.77636 6.3503 2.8116 0.85508-2.6487 0.77116-5.4662-0.26617-7.5925-1.1164-2.2883-3.0225-2.3612-5.7696-3.0143z" stroke-width="1.1606px"/><path d="m-662.3 60.286c-0.39642 1.9886-0.3473 5.5986 2.1458 7.475 1.9106 1.438 4.1476-0.39764 6.9277 0.90959-0.0168-2.7467-0.98053-5.3939-2.6351-7.1224-1.7807-1.8603-3.6182-1.4025-6.4384-1.2621z" stroke-width="1.1606px"/><path d="m-666.41 57.371c-0.0279 1.5928 0.76018 2.911 2.8232 3.8611 2.1518 0.99092 4.3678-1.2073 7.6596 0.08835-0.0392-2.5637-3.0091-6.2191-5.2575-7.1376-2.0027-0.81809-5.1749 0.30945-5.2253 3.1882z" stroke-width="1.1606px"/><g stroke-width="1.1606px"><path d="m-712.35 161.98c0.87582 1.9124 1.7538 5.5095-0.0585 7.7942-1.3906 1.753-3.847 2.4633-5.5669 0.6967-1.7053-1.7516-1.0648-4.1677 0.0162-6.1629 1.1634-2.1473 2.9742-1.9979 5.6092-2.3279l-1e-5 -4e-5z"/><path d="m-711.28 155.68c0.67917 1.9908 1.1943 5.6609-0.84162 7.7488-1.5602 1.6001-3.9341-0.10081-6.3264 1.4301-0.41123-2.791 0.0771-5.55 1.3532-7.4265 1.3734-2.0195 3.16-1.6888 5.8148-1.7524z"/><path d="m-709.26 148.69c0.45808 2.053 0.57003 5.7574-1.6814 7.6109-1.7254 1.4205-3.8996-0.52912-6.4446 0.73183-0.1045-2.8192 0.68172-5.5086 2.1548-7.2347 1.5854-1.8578 3.3252-1.3342 5.9712-1.108z"/><path d="m-706.32 142.15c0.23535 2.0902-0.0505 5.7853-2.4877 7.3868-1.8677 1.2273-3.8204-0.94415-6.4859 0.0367 0.19834-2.8141 1.2684-5.4037 2.918-6.962 1.7754-1.6771 3.4491-0.97006 6.0555-0.46144z"/><path d="m-703.79 135.14c0.23535 2.0902-0.0505 5.7853-2.4877 7.3868-1.8677 1.2273-3.8204-0.94415-6.4859 0.0367 0.19834-2.8141 1.2684-5.4037 2.918-6.962 1.7754-1.6771 3.4491-0.97006 6.0555-0.46144z"/><path d="m-700.87 127.75c0.23535 2.0902-0.0505 5.7853-2.4877 7.3868-1.8677 1.2273-3.8204-0.94415-6.4859 0.0367 0.19834-2.8141 1.2684-5.4037 2.918-6.962 1.7754-1.6771 3.4491-0.97006 6.0555-0.46144z"/><path d="m-699.15 120.1c0.45968 2.0526 0.57454 5.7569-1.6755 7.6122-1.7242 1.4218-3.9-0.52609-6.444 0.73681-0.10669-2.8191 0.67744-5.5091 2.1492-7.2364 1.5839-1.859 3.3242-1.3368 5.9703-1.1126z"/><path d="m-697.27 112.09c0.58396 2.0208 0.92443 5.7112-1.2083 7.7002-1.6344 1.5243-3.9249-0.28736-6.3871 1.1283-0.27834-2.8073 0.34034-5.5401 1.704-7.3539 1.4676-1.9521 3.2365-1.537 5.8914-1.4745z"/><path d="m-696.67 104.12c0.82455 1.8625 1.6098 5.346-0.26593 7.4852-1.4374 1.6394-3.9304 0.16927-6.2027 1.7985-0.61654-2.6477-0.33373-5.3257 0.79992-7.2108 1.2201-2.0288 3.0261-1.8326 5.6687-2.073z"/></g><path d="m-696.87 96.575c1.0136 1.6177 2.1988 4.7342 0.71283 6.9307-1.1388 1.6834-3.6684 0.6274-5.5923 2.4015-0.91932-2.3664-0.99814-4.8685-0.17618-6.7418 0.88462-2.0162 2.6055-2.0519 5.0557-2.5904z" stroke-width="1.1606px"/><g stroke-width="1.1606px"><path d="m-711.7 77.066c1.8553 1.06e-4 5.0334 0.63335 6.076 2.9943 0.79897 1.8093-3.0537 2.716-2.585 5.2198-2.4232-0.46486-2.7637-1.6368-3.8826-3.2831-1.2042-1.7717-0.42883-2.6318 0.3916-4.931z"/><path d="m-716.35 74.734c1.8364-0.26354 5.0723-0.08835 6.4398 2.1005 1.048 1.6774-2.6368 3.1223-1.817 5.5341-2.4647-0.11579-2.9682-1.2275-4.3097-2.698-1.4438-1.5826-0.79847-2.5442-0.3131-4.9366z"/><path d="m-723.13 75.38c1.5861-0.96245 4.6316-2.07 6.7478-0.59253 1.6217 1.1322-0.0217 4.3558 1.678 6.2531-2.3127 0.8598-4.1628-0.46192-5.9734-1.2887-1.9487-0.88986-1.9609-1.9806-2.4524-4.3719z"/><path d="m-729.62 76.837c1.6608-1.2908 4.9628-2.9738 7.6001-1.7293 2.0212 0.95367 1.1866 3.7522 3.4135 5.5151-2.5046 1.2982-5.2722 1.7356-7.4621 1.1406-2.3568-0.64034-2.6263-2.4372-3.5515-4.9264z"/><path d="m-736.98 79.772c1.463-1.5113 4.4958-3.6414 7.2818-2.7798 2.1351 0.66029 1.702 3.5483 4.1544 4.9809-2.2974 1.6372-4.9762 2.459-7.2279 2.1775-2.4234-0.30291-2.9427-2.0441-4.2083-4.3786z"/><path d="m-743.64 83.681c1.2424-1.6973 3.955-4.2225 6.8328-3.7504 2.2054 0.36183 2.1716 3.282 4.797 4.3654-2.0517 1.9362-4.5928 3.117-6.8618 3.1464-2.442 0.03164-3.1948-1.6221-4.768-3.7614z"/><path d="m-750.24 87.856c1.0993-1.7933 3.5962-4.5321 6.5029-4.2971 2.2276 0.1801 2.433 3.0932 5.1383 3.9581-1.8864 2.0977-4.3222 3.4825-6.5812 3.6975-2.4312 0.23142-3.3168-1.3551-5.0599-3.3585z"/><path d="m-755.88 91.553c1.0993-1.7933 3.5962-4.5321 6.5029-4.2971 2.2276 0.1801 2.433 3.0932 5.1383 3.9581-1.8864 2.0977-4.3222 3.4825-6.5812 3.6975-2.4312 0.23142-3.3168-1.3551-5.0599-3.3585z"/><path d="m-789.3 101.61c1.8222-1.0507 5.3239-2.2647 7.7655-0.6701 1.8712 1.222 0.66054 3.8796 2.6244 5.9314-2.6591 0.94223-5.4605 0.99573-7.548 0.10588-2.2466-0.95768-2.2671-2.7745-2.8419-5.3671z"/><path d="m-796.54 100.18c1.943-0.8058 5.5724-1.5559 7.7869 0.34149 1.6972 1.4541 0.15243 3.9324 1.834 6.2213-2.7587 0.58985-5.5435 0.28-7.4982-0.87276-2.1036-1.2406-1.8886-3.0448-2.1227-5.69z"/><path d="m-803.39 97.786c2.0409-0.50922 5.7413-0.71369 7.6505 1.4907 1.4631 1.6894-0.43153 3.9116 0.89254 6.4243-2.8156 0.17485-5.5239-0.54392-7.2862-1.9734-1.8968-1.5384-1.4169-3.2909-1.2568-5.9416z"/><path d="m-808.59 94.528c2.1005-0.11022 5.772 0.39556 7.2252 2.9239 1.1137 1.9376-1.1704 3.7573-0.35039 6.4765-2.7972-0.36592-5.3184-1.5885-6.7755-3.3282-1.5682-1.8723-0.76253-3.5009-0.0993-6.0723z"/><path d="m-813.19 89.339c2.0688 0.3814 5.5141 1.755 6.3088 4.6554 0.60907 2.2227-2.0559 3.5286-1.9234 6.4736-2.6297-1.0269-4.7817-2.8562-5.7729-4.9591-1.0668-2.2632 0.11434-3.7227 1.3875-6.17z"/><path d="m-817.02 84.141c1.9667 0.74666 5.1094 2.7165 5.3704 5.7125 0.20008 2.296-2.6561 3.1022-3.0545 6.0231-2.4026-1.4824-4.1911-3.6683-4.7887-5.915-0.6431-2.418 0.7809-3.6417 2.4727-5.8206z"/><path d="m-821.19 78.433c1.9267 0.84455 4.9664 2.9699 5.0765 5.9752 0.0844 2.3031-2.8086 2.9648-3.3533 5.862-2.3251-1.6012-4.0015-3.8743-4.4854-6.1482-0.52077-2.4473 0.96292-3.5979 2.7621-5.689z"/><path d="m-823 72.486c1.6964 1.244 4.2 3.9806 3.6527 6.9377-0.41938 2.2662-3.3871 2.2816-4.5499 4.9905-1.9203-2.0693-3.0612-4.653-3.038-6.9777 0.0249-2.5019 1.7237-3.3016 3.9353-4.9505z"/></g><path d="m-821.07 66.68c1.0106 1.8034 2.1085 5.2922 0.31454 7.7951-1.3748 1.9181-4.1008 0.77636-6.3503 2.8116-0.85508-2.6487-0.77116-5.4662 0.26617-7.5925 1.1164-2.2883 3.0225-2.3612 5.7696-3.0143z" stroke-width="1.1606px"/><path d="m-817.26 60.286c0.39642 1.9886 0.3473 5.5986-2.1458 7.475-1.9106 1.438-4.1476-0.39764-6.9277 0.90959 0.0168-2.7467 0.98053-5.3939 2.6351-7.1224 1.7807-1.8603 3.6182-1.4025 6.4384-1.2621z" stroke-width="1.1606px"/><path d="m-813.15 57.371c0.0279 1.5928-0.76018 2.911-2.8232 3.8611-2.1518 0.99092-4.3678-1.2073-7.6596 0.08835 0.0392-2.5637 3.0091-6.2191 5.2575-7.1376 2.0027-0.81809 5.1749 0.30945 5.2253 3.1882z" stroke-width="1.1606px"/></g></g></svg>
