<?xml version="1.0" encoding="UTF-8" standalone="no"?>
<!-- Created with Inkscape (http://www.inkscape.org/) -->

<svg
   xmlns:dc="http://purl.org/dc/elements/1.1/"
   xmlns:cc="http://creativecommons.org/ns#"
   xmlns:rdf="http://www.w3.org/1999/02/22-rdf-syntax-ns#"
   xmlns:svg="http://www.w3.org/2000/svg"
   xmlns="http://www.w3.org/2000/svg"
   xmlns:sodipodi="http://sodipodi.sourceforge.net/DTD/sodipodi-0.dtd"
   xmlns:inkscape="http://www.inkscape.org/namespaces/inkscape"
   width="129.29953"
   height="88.135811"
   id="svg5053"
   version="1.1"
   inkscape:version="0.48.4 r9939"
   sodipodi:docname="Nieuw document 41">
  <defs
     id="defs5055" />
  <sodipodi:namedview
     id="base"
     pagecolor="#ffffff"
     bordercolor="#666666"
     borderopacity="1.0"
     inkscape:pageopacity="0.0"
     inkscape:pageshadow="2"
     inkscape:zoom="3.959798"
     inkscape:cx="125.25744"
     inkscape:cy="8.692997"
     inkscape:document-units="px"
     inkscape:current-layer="layer1"
     showgrid="false"
     fit-margin-top="0"
     fit-margin-left="0"
     fit-margin-right="0"
     fit-margin-bottom="0"
     inkscape:window-width="1600"
     inkscape:window-height="837"
     inkscape:window-x="-8"
     inkscape:window-y="-8"
     inkscape:window-maximized="1" />
  <metadata
     id="metadata5058">
    <rdf:RDF>
      <cc:Work
         rdf:about="">
        <dc:format>image/svg+xml</dc:format>
        <dc:type
           rdf:resource="http://purl.org/dc/dcmitype/StillImage" />
        <dc:title></dc:title>
      </cc:Work>
    </rdf:RDF>
  </metadata>
  <g
     inkscape:label="Laag 1"
     inkscape:groupmode="layer"
     id="layer1"
     transform="translate(-426.96704,-516.81793)">
    <rect
       style="opacity:0.98999999;fill:#015cab;fill-opacity:1;fill-rule:evenodd;stroke:none"
       id="rect4787"
       width="129.29953"
       height="88.135811"
       x="426.96704"
       y="516.81793" />
    <rect
       style="opacity:0.98999999;fill:#f9f9f9;fill-opacity:1;fill-rule:evenodd;stroke:none"
       id="rect4789"
       width="44.839287"
       height="88.308212"
       x="426.59058"
       y="516.81866" />
    <rect
       style="opacity:0.98999999;fill:#f47320;fill-opacity:1;fill-rule:evenodd;stroke:none"
       id="rect4791"
       width="18.941755"
       height="44.151276"
       x="439.70679"
       y="516.7403" />
    <g
       transform="matrix(0.02215304,0,0,0.02101905,442.28302,534.74477)"
       id="layer1-8-8-2-4"
       inkscape:label="Laag 1"
       style="fill:#ffffff">
      <path
         inkscape:connector-curvature="0"
         id="path3874-5-3-1"
         d="m 310.61525,406.26601 c -28.11924,-1.03479 -51.69454,-4.74888 -62.27911,-9.81158 -7.47459,-3.57517 -7.76195,-7.24594 -0.86327,-11.02805 7.54399,-4.13589 26.58712,-7.78499 48.96001,-9.38187 11.32227,-0.80813 16.40846,-0.96856 30.70792,-0.96856 19.34811,0 31.79101,0.67465 47.11013,2.55427 20.10819,2.46725 34.69917,6.96264 36.99597,11.39825 1.40546,2.71421 -0.22477,4.99775 -5.30144,7.42596 -10.76826,5.15054 -33.90132,8.75016 -63.14239,9.82522 -7.48706,0.27524 -24.53355,0.26802 -32.18782,-0.0136 z m -72.4716,-34.26197 c -2.97387,-0.5766 -5.87887,-2.78336 -7.10403,-5.39657 -0.61502,-1.3118 -0.70892,-1.8025 -0.70892,-3.70479 0,-1.98707 0.0759,-2.34455 0.80916,-3.8115 2.95591,-5.91354 11.21451,-7.25541 16.17972,-2.62891 4.6789,4.35973 3.44837,11.76448 -2.42538,14.59475 -2.29279,1.10477 -4.40707,1.40137 -6.75055,0.94702 z m 173.84473,-0.007 c -2.49417,-0.47991 -5.18907,-2.27595 -6.52744,-4.3503 -2.27044,-3.51897 -1.63364,-8.26379 1.50109,-11.18468 4.96521,-4.62651 13.22381,-3.28464 16.17972,2.62891 0.73325,1.46695 0.80914,1.82443 0.80914,3.8115 0,1.90228 -0.0939,2.39299 -0.70891,3.70478 -1.87069,3.99012 -6.6447,6.27657 -11.2536,5.38979 z m -135.23301,-9.59113 c -3.14784,-0.75136 -5.94875,-2.6783 -7.08642,-4.87522 -0.92573,-1.78765 -0.87639,-4.31897 0.12202,-6.26033 1.54936,-3.01267 5.2621,-5.63746 9.49975,-6.71599 2.30615,-0.58694 6.40795,-0.64004 8.51925,-0.11028 4.74109,1.18961 7.5963,4.15776 7.60911,7.9101 0.0153,4.45231 -4.70441,8.7428 -11.07204,10.06539 -2.139,0.44429 -5.69994,0.43787 -7.59167,-0.0137 z m 93.05587,0.0142 c -2.27004,-0.50428 -4.06075,-1.24772 -5.97093,-2.47893 -5.32776,-3.43406 -6.55267,-8.66221 -2.93533,-12.52856 1.14012,-1.2186 3.40417,-2.42598 5.56665,-2.96857 2.11129,-0.52976 6.21311,-0.47667 8.51926,0.11028 4.23764,1.07852 7.95039,3.70331 9.49974,6.71598 0.98143,1.90833 1.04793,4.486 0.15917,6.17016 -1.10499,2.09395 -3.05769,3.60683 -5.95916,4.61693 -2.05963,0.71703 -6.47286,0.89731 -8.8794,0.36271 z m -46.74435,-1.93403 c -5.74214,-1.29619 -9.48286,-4.75478 -9.48941,-8.7737 -0.003,-2.25348 0.57252,-3.57973 2.31352,-5.32499 2.68039,-2.68693 6.49792,-4.06705 11.2498,-4.06705 4.75188,0 8.5694,1.38012 11.2498,4.06705 1.741,1.74526 2.31723,3.07151 2.31353,5.32499 -0.006,3.7077 -3.43384,7.14576 -8.51551,8.54104 -1.98564,0.54519 -7.15329,0.677 -9.12173,0.23266 z M 219.17934,340.48256 c -13.81234,-16.21932 -25.4839,-33.11296 -32.69047,-47.31687 -7.12103,-14.03526 -10.23023,-25.45295 -9.33365,-34.27529 0.57386,-5.64672 2.24513,-9.35554 5.80959,-12.89231 4.86387,-4.82608 11.41252,-7.23893 22.08427,-8.13691 5.4723,-0.46047 15.36773,0.05 23.67839,1.22157 1.83139,0.25817 3.39931,0.39433 3.48431,0.30259 0.085,-0.0918 0.38773,-0.79315 0.67276,-1.55866 3.64967,-9.80211 12.10442,-16.73919 23.3009,-19.1183 12.50194,-2.65651 28.42166,0.65219 42.40062,8.81238 l 1.90653,1.11292 7.03453,0.16713 7.03454,0.16713 -0.006,-3.8659 -0.006,-3.86591 -1.58036,-1.26369 c -2.83052,-2.26336 -5.41063,-6.26887 -6.46459,-10.03605 -0.62268,-2.22553 -0.61786,-7.56224 0.009,-9.59871 1.23289,-4.00769 2.91069,-6.73085 5.78901,-9.39593 2.75583,-2.55165 5.22965,-3.85886 9.84242,-5.20093 0.23698,-0.0689 0.30832,-1.6376 0.30832,-6.77997 l 0,-6.69028 -5.4263,0 -5.42631,0 0,-4.85536 0,-4.85536 5.36464,-0.0655 5.36464,-0.0655 0.0657,-6.37889 0.0657,-6.37889 4.67816,0 4.67816,0 0.0657,6.37889 0.0657,6.37889 5.36464,0.0655 5.36463,0.0655 0,4.85536 0,4.85536 -5.42629,0 -5.4263,0 0,6.69028 c 0,5.14237 0.0713,6.71102 0.3083,6.77997 4.98408,1.45009 7.16334,2.64785 10.19928,5.60567 2.61278,2.54557 3.91513,4.5758 5.06606,7.89767 0.7491,2.16205 0.80054,2.52445 0.81022,5.71062 0.0119,3.90564 -0.30806,5.39525 -1.82668,8.50519 -1.24216,2.54373 -3.11231,4.94433 -5.0734,6.51247 l -1.58035,1.26369 -0.006,3.86591 -0.006,3.8659 7.03405,-0.16712 7.03407,-0.16711 2.11677,-1.23181 c 13.62073,-7.92626 29.54159,-11.29091 41.72444,-8.81784 11.40255,2.31467 20.08098,9.34079 23.76778,19.24262 0.28503,0.76551 0.58776,1.46659 0.67277,1.55795 0.085,0.0914 2.04138,-0.0901 4.34755,-0.40327 2.30618,-0.31316 5.80244,-0.71027 7.76948,-0.88247 4.63827,-0.40604 14.72431,-0.41637 17.7588,-0.0182 9.60247,1.26008 15.49551,3.74874 19.9135,8.40957 6.76595,7.13787 7.20079,18.72495 1.30032,34.65026 -6.08602,16.42605 -20.05886,38.21063 -38.06177,59.34074 l -3.66672,4.30365 -6.88484,-3.39321 c -3.78621,-1.86628 -6.88438,-3.44566 -6.88438,-3.50975 0,-0.0641 2.26132,-3.42629 5.02513,-7.47157 15.33172,-22.44049 24.0104,-39.21064 26.88261,-51.94652 2.80569,-12.44095 -0.16795,-20.32605 -8.96931,-23.7836 -3.65187,-1.4346 -6.36019,-1.82451 -12.7736,-1.83897 -4.56156,-0.0103 -5.78637,0.0545 -5.94949,0.31448 -0.11297,0.18009 -0.27932,1.16391 -0.3697,2.18628 -1.28447,14.53239 -7.66642,32.9146 -18.17654,52.35468 -7.30728,13.516 -13.12355,23.74222 -13.50325,23.74157 -0.31312,-4.9e-4 -15.46246,-3.13211 -18.20982,-3.76422 -0.51424,-0.11831 -0.46318,-0.27598 1.20084,-3.70769 6.13943,-12.66147 11.39582,-26.71549 14.38279,-38.45537 2.1035,-8.26739 3.02957,-14.2282 3.25036,-20.92141 0.32312,-9.79444 -1.54593,-16.59861 -5.70279,-20.76101 -1.71837,-1.72063 -3.02413,-2.58464 -5.30907,-3.51295 -6.29986,-2.55948 -16.52485,-1.99187 -30.05664,1.66848 -1.94308,0.52561 -3.57124,0.99345 -3.61816,1.03966 -0.0469,0.0462 -1.93709,18.72831 -4.20039,41.5158 -2.26333,22.78749 -4.16844,41.48648 -4.23355,41.5533 -0.0652,0.0669 -4.65061,0.1215 -10.18995,0.1215 -5.53934,0 -10.1248,-0.0547 -10.18995,-0.1215 -0.0652,-0.0668 -1.97021,-18.76581 -4.23352,-41.5533 -2.26334,-22.78749 -4.15354,-41.4696 -4.20043,-41.5158 -0.0469,-0.0462 -1.67506,-0.51405 -3.61816,-1.03966 -13.53177,-3.66035 -23.75675,-4.22796 -30.05663,-1.66848 -2.28494,0.92831 -3.5907,1.79232 -5.30907,3.51295 -5.84688,5.85467 -7.28932,17.69908 -4.15874,34.14925 2.50323,13.15369 8.55372,30.44818 16.0891,45.98854 1.66403,3.43171 1.71509,3.58938 1.20085,3.70769 -2.74737,0.63211 -17.8967,3.76368 -18.20982,3.76422 -0.3797,7.2e-4 -6.19598,-10.22557 -13.50325,-23.74157 -6.66449,-12.32699 -11.61436,-24.01417 -14.69666,-34.70049 -1.58283,-5.48764 -3.0725,-13.04495 -3.47989,-17.65419 -0.0904,-1.02237 -0.23901,-1.97795 -0.33033,-2.12353 -0.26192,-0.41755 -7.59492,-0.61641 -10.8071,-0.29307 -11.12374,1.1197 -16.82371,5.8907 -17.83275,14.92637 -1.20014,10.74703 5.73885,28.27914 20.30993,51.31542 1.35264,2.13845 4.71982,7.19786 7.48262,11.24314 2.7628,4.04528 5.02328,7.40749 5.02328,7.47157 0,0.0641 -3.09936,1.64405 -6.88744,3.51102 l -6.88745,3.39451 -3.66605,-4.30494 z"
         style="fill:#ffffff" />
    </g>
    <path
       style="fill:#ffffff"
       d="m 449.31352,558.74427 c -0.237,-0.3095 -0.4014,-0.4842 -0.6617,-0.7033 -0.1272,-0.1071 -0.1935,-0.1583 -0.4762,-0.3675 -0.471,-0.3487 -0.9274,-0.7042 -1.1824,-0.9213 -0.3569,-0.3038 -0.7471,-0.686 -0.9834,-0.9632 -0.079,-0.093 -0.2331,-0.2934 -0.3122,-0.4065 -0.2282,-0.3262 -0.3286,-0.5257 -0.4679,-0.9299 -0.103,-0.2989 -0.1572,-0.5205 -0.2171,-0.8889 -0.01,-0.061 -0.012,-0.068 -0.029,-0.084 -0.033,-0.034 -0.082,-0.035 -0.116,-0.01 -0.031,0.028 -0.032,0.05 -0.011,0.1788 0.065,0.4118 0.1961,0.8563 0.3696,1.2552 l 0.043,0.1 -0.1134,0.1602 c -0.1447,0.2042 -0.2595,0.3765 -0.3644,0.5471 -0.046,0.074 -0.085,0.1334 -0.087,0.1313 -0.01,-0.01 -0.061,-0.1622 -0.097,-0.2691 -0.1336,-0.4003 -0.2186,-0.8298 -0.2588,-1.3077 -0.015,-0.1711 -0.02,-0.5865 -0.011,-0.7552 0.025,-0.4507 0.095,-0.8622 0.2086,-1.2304 0.035,-0.115 0.1151,-0.3439 0.1475,-0.4234 0.058,-0.1424 0.071,-0.1595 0.1096,-0.148 0.042,0.012 0.056,0.036 0.2191,0.3837 0.2884,0.6143 0.5309,1.0481 0.838,1.4993 0.2375,0.3491 0.456,0.6286 0.7829,1.0013 l 0.1348,0.1539 -0.154,0 c -0.085,0 -0.2908,0.01 -0.4581,0.01 l -0.3042,0 -0.02,-0.034 c -0.052,-0.086 -0.1577,-0.2768 -0.2075,-0.3741 -0.092,-0.1801 -0.1441,-0.2947 -0.2433,-0.5361 -0.059,-0.143 -0.073,-0.1608 -0.1278,-0.1608 -0.035,-10e-5 -0.054,0.011 -0.068,0.039 -0.013,0.026 -0.011,0.039 0.015,0.1166 0.066,0.1905 0.2375,0.5645 0.3478,0.758 0.014,0.025 0.054,0.095 0.088,0.1555 0.034,0.061 0.076,0.1316 0.095,0.1581 0.062,0.091 0.1641,0.2295 0.2129,0.2889 0.2953,0.3589 0.8153,0.7745 1.6437,1.3136 0.2882,0.1875 0.3671,0.2316 0.4871,0.2721 0.1118,0.038 0.1516,0.044 0.2765,0.044 0.1204,0 0.1508,-0.01 0.2545,-0.038 0.097,-0.031 0.2493,-0.1141 0.3653,-0.1993 l 0.053,-0.039 0,-0.037 0,-0.037 0.023,-0.01 c 0.2149,-0.055 0.4945,-0.1699 0.7126,-0.2918 0.024,-0.013 0.044,-0.024 0.046,-0.024 0,0 0,0.075 0,0.1675 0,0.1824 0.01,0.2403 0.019,0.2555 0.011,0.012 0.1469,0.1011 0.2131,0.1398 0.099,0.058 0.2429,0.1031 0.3623,0.1139 0.1691,0.015 0.3782,-0.044 0.5785,-0.1653 0.2532,-0.1527 0.7882,-0.5168 1.0744,-0.7313 0.4813,-0.3606 0.7644,-0.6442 1.0243,-1.0261 0.1985,-0.2917 0.4725,-0.7878 0.6794,-1.23 0.087,-0.1854 0.087,-0.186 0.058,-0.2201 -0.019,-0.022 -0.04,-0.032 -0.07,-0.032 -0.051,0 -0.055,0.01 -0.1794,0.2655 -0.1698,0.3541 -0.4135,0.7993 -0.5663,1.0342 l -0.039,0.059 -0.4152,0 c -0.2285,0 -0.4354,0 -0.4601,-0.01 l -0.045,0 0.1133,-0.1269 c 0.442,-0.4948 0.8213,-1.0162 1.1624,-1.598 0.1611,-0.2746 0.3339,-0.6111 0.5174,-1.0076 0.1159,-0.2503 0.1388,-0.289 0.1789,-0.3023 0.026,-0.01 0.039,-0.01 0.052,0.012 0.033,0.046 0.1594,0.3884 0.2243,0.6092 0.1065,0.3619 0.1706,0.7586 0.1927,1.1922 0.01,0.1557 0,0.5482 -0.01,0.6994 -0.041,0.5355 -0.1411,1.0189 -0.3079,1.4818 -0.023,0.063 -0.045,0.1209 -0.048,0.1279 -0.01,0.012 -0.011,0.01 -0.071,-0.094 -0.1183,-0.1943 -0.2437,-0.3824 -0.4044,-0.6063 -0.047,-0.066 -0.086,-0.1231 -0.086,-0.1277 0,-0.01 0.04,-0.086 0.089,-0.1806 0.1933,-0.3741 0.3304,-0.6902 0.4563,-1.0514 0.036,-0.1037 0.046,-0.1462 0.04,-0.1722 -0.012,-0.05 -0.075,-0.071 -0.1194,-0.04 -0.022,0.015 -0.045,0.061 -0.083,0.1694 -0.1269,0.3583 -0.2925,0.7343 -0.4718,1.0718 -0.1437,0.2704 -0.1812,0.3333 -0.3181,0.5328 -0.2776,0.4048 -0.5734,0.7342 -1.0519,1.172 -0.337,0.3083 -0.89,0.7478 -1.5573,1.2375 -0.3011,0.2211 -0.3666,0.2737 -0.5228,0.4201 -0.212,0.1988 -0.3661,0.3732 -0.5511,0.6236 -0.03,0.04 -0.056,0.075 -0.06,0.077 0,0 -0.049,-0.055 -0.1045,-0.1272 z m -1.897,-0.2423 c -0.035,-0.011 -0.058,-0.027 -0.078,-0.054 -0.019,-0.027 -0.066,-0.1137 -0.066,-0.1234 0,0 0.019,-0.014 0.042,-0.024 0.023,-0.01 0.084,-0.037 0.1351,-0.06 0.051,-0.023 0.094,-0.04 0.097,-0.038 0,0 0.015,0.029 0.027,0.061 0.04,0.097 0.036,0.1465 -0.017,0.1991 -0.024,0.024 -0.037,0.032 -0.06,0.039 -0.035,0.01 -0.05,0.01 -0.081,0 z m -0.2226,-0.3662 c -0.01,-0.01 -0.046,-0.1522 -0.05,-0.1738 0,-0.02 0,-0.02 0.018,-0.023 0.012,0 0.076,-0.015 0.1434,-0.028 0.067,-0.013 0.1248,-0.023 0.1279,-0.022 0,0 0.015,0.033 0.026,0.072 0.012,0.038 0.022,0.072 0.022,0.076 0,0.01 -0.034,0.018 -0.1019,0.041 -0.057,0.019 -0.1209,0.041 -0.1416,0.048 -0.042,0.016 -0.04,0.015 -0.044,0.01 z m -0.088,-0.3966 c -0.01,-0.02 -0.01,-0.1818 0,-0.186 0,0 0.2559,0.01 0.288,0.011 l 0.018,0 0,0.077 0,0.077 -0.064,0.01 c -0.035,0 -0.099,0.011 -0.1407,0.017 -0.097,0.013 -0.094,0.013 -0.098,-0.01 z m 0.2405,-0.3497 c -0.039,-0.01 -0.1026,-0.02 -0.1409,-0.027 -0.048,-0.01 -0.069,-0.014 -0.069,-0.019 0,-0.021 0.058,-0.1791 0.066,-0.1791 0.01,0 0.1247,0.094 0.1985,0.1549 0.023,0.02 0.042,0.039 0.042,0.044 0,0.015 -0.012,0.042 -0.019,0.042 0,-3e-4 -0.039,-0.01 -0.077,-0.015 z m 0.7746,-0.7606 c -0.025,-0.01 -0.061,-0.022 -0.078,-0.03 -0.032,-0.014 -0.032,-0.015 -0.062,-0.073 -0.016,-0.032 -0.03,-0.061 -0.03,-0.064 0,-0.01 0.1706,-0.087 0.1753,-0.082 0,0 0.015,0.029 0.027,0.061 0.013,0.031 0.038,0.088 0.055,0.1255 0.024,0.053 0.03,0.071 0.025,0.074 -0.015,0.01 -0.068,0.01 -0.1136,-0.011 z m 0.263,-0.1248 c -0.016,-0.039 -0.042,-0.1 -0.059,-0.1351 -0.016,-0.035 -0.029,-0.064 -0.028,-0.065 0.01,-0.01 0.1858,-0.068 0.1875,-0.066 0,0 0.01,0.024 0.019,0.052 0.01,0.028 0.033,0.089 0.051,0.1355 0.018,0.047 0.032,0.085 0.031,0.086 0,0 -0.036,0.014 -0.079,0.028 -0.042,0.015 -0.08,0.028 -0.085,0.031 -0.01,0 -0.015,-0.012 -0.038,-0.068 z m 0.3705,-0.05 c 0,0 -0.01,-0.028 -0.018,-0.055 -0.01,-0.028 -0.027,-0.088 -0.043,-0.1332 -0.015,-0.045 -0.025,-0.084 -0.023,-0.087 0,0 0.013,-0.01 0.024,-0.01 0.011,0 0.05,-0.014 0.087,-0.025 0.038,-0.01 0.07,-0.017 0.072,-0.015 0,0 0.029,0.095 0.072,0.2547 0,0.011 0.01,0.021 0,0.022 0,0 -0.1184,0.037 -0.1643,0.05 -0.01,0 -0.01,0 -0.012,0 z m 0.3524,-0.1183 c 0,-0.011 -0.019,-0.072 -0.035,-0.1341 -0.017,-0.063 -0.031,-0.1169 -0.031,-0.1205 0,-0.01 0.1565,-0.061 0.1613,-0.057 0,0 0.01,0.022 0.019,0.046 0.01,0.024 0.032,0.083 0.052,0.1307 0.022,0.051 0.034,0.089 0.031,0.092 -0.01,0.01 -0.1747,0.063 -0.1855,0.063 0,0 -0.01,-0.01 -0.012,-0.02 z m 0.3749,-0.1369 c -0.01,-0.01 -0.032,-0.069 -0.062,-0.1329 l -0.055,-0.1158 0.081,-0.039 c 0.045,-0.022 0.082,-0.038 0.083,-0.037 0,0 0.014,0.025 0.029,0.053 0.025,0.05 0.082,0.1535 0.1018,0.1854 l 0.01,0.017 -0.059,0.03 c -0.032,0.017 -0.073,0.036 -0.09,0.043 l -0.032,0.014 -0.01,-0.017 z m 0.3437,-0.1816 c -0.01,-0.01 -0.04,-0.066 -0.077,-0.1246 -0.037,-0.058 -0.066,-0.1084 -0.063,-0.1104 0,0 0.035,-0.023 0.073,-0.048 0.056,-0.036 0.069,-0.043 0.074,-0.036 0,0.01 0.042,0.053 0.085,0.1081 0.044,0.055 0.082,0.1047 0.086,0.1098 0.01,0.01 0,0.015 -0.076,0.063 -0.046,0.029 -0.085,0.054 -0.087,0.055 0,0 -0.01,-0.01 -0.014,-0.016 z m -0.7925,-0.2469 c -0.01,-0.313 -0.01,-8.1109 0,-8.1154 0,0 0.03,0.01 0.063,0.015 0.1416,0.044 0.1983,0.055 0.3222,0.06 0.1045,0.01 0.3097,-0.01 0.3557,-0.015 0.018,-0.01 0.033,-0.01 0.033,-0.01 0,0 0,1.7786 0.01,3.9513 l 0.01,3.9504 -0.021,0.016 c -0.035,0.027 -0.1594,0.1056 -0.2317,0.1461 -0.1322,0.074 -0.3422,0.1696 -0.4672,0.2122 -0.029,0.01 -0.055,0.018 -0.056,0.018 0,0 0,-0.1043 -0.01,-0.2318 z m 1.0599,-0.043 c -0.037,-0.042 -0.081,-0.091 -0.097,-0.1092 l -0.03,-0.033 0.029,-0.026 c 0.015,-0.014 0.046,-0.042 0.066,-0.061 l 0.037,-0.034 0.1027,0.098 c 0.056,0.054 0.1049,0.1003 0.1077,0.1027 0,0 0,0.01 -0.01,0.018 -0.02,0.021 -0.1322,0.12 -0.136,0.1196 0,0 -0.033,-0.034 -0.07,-0.076 z m 0.3208,-0.2223 c -0.034,-0.03 -0.1627,-0.1357 -0.1858,-0.1524 l -0.015,-0.011 0.025,-0.031 c 0.015,-0.017 0.037,-0.047 0.051,-0.066 l 0.025,-0.034 0.093,0.056 c 0.051,0.031 0.1093,0.066 0.1297,0.078 0.024,0.014 0.036,0.023 0.033,0.028 -0.01,0.014 -0.1119,0.1475 -0.1191,0.1532 -0.01,0.01 -0.014,0 -0.037,-0.02 z m 0.1267,-0.3716 c -0.071,-0.036 -0.1297,-0.066 -0.1309,-0.067 0,0 0.066,-0.1451 0.073,-0.1562 0,0 0.034,0.012 0.074,0.03 0.04,0.017 0.1033,0.043 0.1398,0.057 l 0.066,0.025 -0.027,0.059 c -0.032,0.071 -0.055,0.1124 -0.062,0.1146 0,0 -0.063,-0.028 -0.1341,-0.063 z m 0.2189,-0.313 c -0.029,-0.01 -0.089,-0.029 -0.134,-0.043 -0.046,-0.014 -0.083,-0.025 -0.084,-0.026 0,0 0.01,-0.031 0.015,-0.068 0.01,-0.037 0.016,-0.072 0.016,-0.079 0,-0.011 0,-0.012 0.016,-0.01 0.033,0.01 0.1768,0.03 0.2203,0.035 0.025,0 0.052,0.01 0.058,0.01 l 0.012,0 -0.013,0.061 c -0.01,0.034 -0.015,0.068 -0.019,0.076 0,0.01 -0.01,0.026 -0.011,0.039 -0.01,0.028 -0.01,0.028 -0.076,0.01 z m 0.1014,-0.3735 c -0.021,0 -0.088,-0.01 -0.1476,-0.012 -0.06,-0.01 -0.1101,-0.01 -0.1111,-0.01 0,0 0,-0.041 0,-0.088 l 0.01,-0.086 0.1497,0 0.1498,0 0,0.082 c 0,0.045 0,0.09 -0.01,0.1005 l 0,0.019 -0.039,-0.01 z m -0.2678,-0.3753 c -0.01,-0.04 -0.02,-0.1444 -0.018,-0.1473 0.01,-0.01 0.2848,-0.064 0.2892,-0.061 0.01,0 0.024,0.1138 0.029,0.1646 l 0,0.033 -0.029,0 c -0.037,0.01 -0.2507,0.02 -0.2634,0.02 -0.01,-10e-5 -0.011,-0.01 -0.012,-0.012 z m -0.088,-0.3979 c -0.015,-0.046 -0.026,-0.084 -0.025,-0.085 0.01,-0.01 0.2761,-0.094 0.2813,-0.092 0,0 0.017,0.036 0.029,0.077 0.013,0.041 0.025,0.081 0.028,0.088 l 0.01,0.014 -0.1391,0.039 c -0.076,0.021 -0.142,0.04 -0.1458,0.042 -0.01,0 -0.015,-0.025 -0.034,-0.081 z m -0.1234,-0.3181 c -0.019,-0.04 -0.035,-0.076 -0.037,-0.08 0,-0.01 0.047,-0.031 0.1342,-0.073 l 0.137,-0.067 0.015,0.031 c 0.031,0.065 0.062,0.137 0.062,0.1428 0,0 -0.043,0.023 -0.094,0.044 -0.052,0.021 -0.1145,0.047 -0.139,0.057 l -0.045,0.019 -0.034,-0.073 z m -0.1642,-0.3202 c -0.025,-0.043 -0.043,-0.08 -0.041,-0.082 0.01,-0.01 0.2469,-0.1392 0.2538,-0.1408 0.01,0 0.099,0.1524 0.094,0.1576 0,0 -0.05,0.028 -0.1078,0.059 -0.057,0.031 -0.1153,0.062 -0.1292,0.07 l -0.025,0.015 -0.046,-0.078 z m -0.157,-0.2501 c -0.01,-0.01 -0.029,-0.042 -0.05,-0.072 l -0.039,-0.055 0.066,-0.044 c 0.037,-0.024 0.09,-0.061 0.1177,-0.081 0.028,-0.02 0.054,-0.038 0.058,-0.039 0.01,0 0.066,0.076 0.1073,0.1404 l 0.011,0.017 -0.1282,0.076 c -0.07,0.042 -0.1289,0.076 -0.1299,0.076 0,-10e-5 -0.01,-0.01 -0.013,-0.017 z m -0.1115,-0.4477 0,-0.1178 0.019,-0.014 0.018,-0.014 0.058,0.071 c 0.032,0.039 0.058,0.073 0.058,0.076 0,0 -0.025,0.023 -0.056,0.045 -0.03,0.022 -0.065,0.047 -0.076,0.055 l -0.021,0.015 0,-0.1177 z m -1.187,-0.9157 c -0.036,-0.038 -0.066,-0.07 -0.065,-0.072 0,0 0.033,-0.031 0.073,-0.066 l 0.071,-0.062 0,0.1267 c 0,0.1017 0,0.1282 -0.01,0.1341 -0.01,0.01 -0.018,0 -0.074,-0.061 z m -0.2608,-0.2801 c -0.033,-0.038 -0.059,-0.072 -0.058,-0.074 0,-0.01 0.2145,-0.1665 0.2284,-0.175 0,0 0.032,0.026 0.063,0.064 l 0.058,0.066 -0.034,0.028 c -0.019,0.015 -0.069,0.058 -0.1115,0.094 -0.042,0.036 -0.08,0.066 -0.082,0.066 0,0 -0.032,-0.031 -0.065,-0.069 z m -0.2379,-0.2987 c -0.052,-0.072 -0.056,-0.079 -0.046,-0.084 0.01,0 0.062,-0.04 0.1268,-0.082 l 0.1162,-0.076 0.049,0.069 c 0.027,0.038 0.051,0.072 0.052,0.076 0,0.01 -0.013,0.017 -0.035,0.03 -0.031,0.02 -0.183,0.1245 -0.2018,0.1393 0,0 -0.026,-0.023 -0.062,-0.074 z m -0.2016,-0.3061 c -0.024,-0.04 -0.046,-0.079 -0.049,-0.085 -0.01,-0.011 0,-0.013 0.061,-0.045 0.037,-0.018 0.095,-0.049 0.1304,-0.068 0.035,-0.019 0.066,-0.034 0.069,-0.034 0,0 0.012,0.012 0.021,0.028 0.01,0.015 0.028,0.047 0.042,0.072 0.015,0.024 0.026,0.046 0.026,0.049 0,0 -0.013,0.012 -0.029,0.02 -0.029,0.015 -0.1421,0.082 -0.1966,0.1169 l -0.031,0.02 -0.043,-0.074 z m -0.1573,-0.2947 c -0.039,-0.083 -0.063,-0.1424 -0.058,-0.1454 0.012,-0.01 0.2748,-0.1093 0.2763,-0.1073 0.01,0.012 0.07,0.156 0.068,0.1582 0,0 -0.2672,0.1253 -0.2702,0.1253 0,0 -0.01,-0.014 -0.015,-0.031 z m -0.1386,-0.3399 c -0.026,-0.08 -0.05,-0.1618 -0.048,-0.1636 0,0 0.2767,-0.077 0.285,-0.077 0,0 0.016,0.032 0.029,0.074 0.012,0.04 0.024,0.077 0.026,0.082 0,0.01 -0.019,0.016 -0.1337,0.053 -0.076,0.024 -0.1406,0.045 -0.1449,0.047 -0.01,0 -0.01,0 -0.013,-0.015 z m -0.096,-0.3622 c -0.01,-0.012 -0.024,-0.1382 -0.026,-0.1645 l 0,-0.021 0.1341,-0.012 c 0.074,-0.01 0.1415,-0.012 0.1506,-0.012 l 0.016,0 0.012,0.079 c 0.01,0.043 0.012,0.08 0.01,0.081 0,0 -0.2803,0.061 -0.2879,0.061 0,0 -0.01,-0.01 -0.01,-0.01 z m -0.047,-0.4728 0,-0.098 0.048,0 c 0.026,0 0.086,0.01 0.1327,0.01 0.046,0 0.095,0.01 0.1073,0.01 l 0.022,0 0,0.086 0,0.086 -0.1103,0 c -0.061,0 -0.1306,0 -0.1554,0 l -0.046,0 0,-0.098 z m 0.1971,-0.2653 c -0.052,-0.01 -0.115,-0.014 -0.1386,-0.016 l -0.042,-0.01 0,-0.02 c 0.012,-0.086 0.027,-0.165 0.031,-0.1688 0,0 0.07,0.01 0.1513,0.024 0.081,0.015 0.1473,0.028 0.1478,0.028 0,10e-5 0,0.023 -0.01,0.051 -0.01,0.028 -0.011,0.066 -0.014,0.084 -0.01,0.039 0.01,0.037 -0.1283,0.02 z m 0.066,-0.3548 c -0.068,-0.018 -0.1324,-0.036 -0.1437,-0.039 -0.019,-0.01 -0.02,-0.01 -0.017,-0.02 0,-0.015 0.057,-0.1634 0.059,-0.1663 0,0 0.059,0.019 0.1297,0.044 0.07,0.025 0.1344,0.047 0.142,0.049 l 0.014,0 -0.028,0.08 c -0.015,0.044 -0.029,0.081 -0.031,0.082 0,0 -0.058,-0.013 -0.1257,-0.032 z m 0.2326,-0.2923 c -0.015,-0.01 -0.12,-0.054 -0.1915,-0.083 -0.033,-0.013 -0.061,-0.025 -0.062,-0.026 -0.01,-0.01 0.085,-0.1741 0.094,-0.1741 0,0 0.032,0.015 0.066,0.034 0.034,0.019 0.091,0.05 0.127,0.068 0.036,0.018 0.066,0.034 0.067,0.035 0,0 -0.079,0.1521 -0.084,0.1521 0,-10e-5 -0.011,0 -0.016,-0.01 z m 4.2477,-0.1197 c -0.036,-0.01 -0.1204,-0.023 -0.1874,-0.035 l -0.1218,-0.023 0,-0.338 c 0,-0.3781 0.01,-0.8589 0.012,-0.8639 0,0 0.1824,0.028 0.313,0.053 l 0.06,0.012 0.01,0.083 c 0,0.045 0,0.2806 0,0.5223 0,0.4279 -0.01,0.6035 -0.013,0.6023 0,0 -0.032,-0.01 -0.069,-0.013 z m -0.5528,-0.043 c -0.033,-0.01 -0.069,-0.015 -0.079,-0.017 l -0.019,-0.01 0,-0.6797 0,-0.6798 0.3445,-0.2432 c 0.1894,-0.1337 0.3482,-0.2432 0.353,-0.2432 0.016,0 0.099,0.017 0.099,0.021 0,0 -0.011,0.011 -0.023,0.02 -0.012,0.01 -0.1438,0.1068 -0.2914,0.217 -0.1475,0.1101 -0.2754,0.2054 -0.2842,0.2116 l -0.016,0.011 -0.01,0.3236 c 0,0.178 -0.01,0.4587 -0.01,0.6238 0,0.2962 -0.01,0.4533 -0.011,0.4524 0,0 -0.03,-0.01 -0.063,-0.014 z m 0.8088,-0.5978 0,-0.5856 0.1805,-0.1383 c 0.099,-0.076 0.2051,-0.1567 0.235,-0.1793 l 0.054,-0.041 -0.01,0.5996 c 0,0.4018 -0.01,0.6019 -0.01,0.6063 -0.01,0.011 -0.415,0.2978 -0.4522,0.3199 -0.01,0 -0.01,-0.1131 -0.01,-0.5815 z m -1.2385,0.4586 c -0.068,-0.013 -0.1365,-0.026 -0.1528,-0.03 l -0.029,-0.01 0,-0.6004 c 0,-0.3302 0.01,-0.6016 0.01,-0.603 0,0 0.073,0.01 0.212,0.034 l 0.1021,0.019 0,0.1027 c 0.01,0.1823 0.01,0.9217 0.01,1.016 -0.01,0.089 -0.01,0.091 -0.015,0.091 -0.01,0 -0.067,-0.011 -0.1348,-0.024 z m -3.1815,-0.055 c -0.059,-0.037 -0.1168,-0.072 -0.1276,-0.078 l -0.02,-0.011 0.052,-0.072 c 0.029,-0.039 0.056,-0.075 0.06,-0.079 0.01,-0.01 0.018,0 0.072,0.041 0.035,0.026 0.089,0.064 0.1182,0.084 0.029,0.02 0.054,0.038 0.056,0.04 0,0 -0.088,0.1308 -0.099,0.1403 0,0 -0.053,-0.027 -0.1121,-0.064 z m 2.725,0.01 c -0.039,-0.01 -0.071,-0.016 -0.072,-0.017 0,0 0,-0.2113 -0.01,-0.4677 0,-0.2564 -0.01,-0.5535 -0.01,-0.6601 l 0,-0.194 -0.017,0 c -0.016,0 -0.012,-0.01 0.068,-0.06 0.046,-0.032 0.2014,-0.1407 0.3437,-0.2411 0.1423,-0.1005 0.272,-0.1919 0.2882,-0.2032 l 0.029,-0.02 0.046,0.01 c 0.025,0.01 0.049,0.01 0.052,0.012 0,0 -0.1034,0.085 -0.2376,0.1858 -0.1339,0.1002 -0.2709,0.2028 -0.3043,0.2279 l -0.061,0.046 0,0.048 c 0,0.026 -0.01,0.2772 -0.01,0.5572 0,0.28 -0.01,0.5736 -0.01,0.6525 0,0.1415 -0.01,0.1433 -0.015,0.1429 -0.01,-3e-4 -0.043,-0.01 -0.082,-0.016 z m -0.2961,-0.092 c -0.1085,-0.02 -0.5358,-0.1012 -0.5371,-0.1025 0,0 0.021,-0.013 0.049,-0.028 0.1907,-0.099 0.3645,-0.2549 0.4798,-0.4299 0.02,-0.03 0.042,-0.063 0.048,-0.075 l 0.012,-0.02 0,0.331 0,0.3309 -0.012,0 c -0.01,0 -0.025,0 -0.039,-0.01 z m -2.1353,-0.1454 c -0.018,-0.015 -0.068,-0.056 -0.1119,-0.092 -0.044,-0.036 -0.081,-0.066 -0.082,-0.069 0,0 0.026,-0.035 0.062,-0.073 l 0.065,-0.069 0.04,0.036 c 0.022,0.02 0.072,0.065 0.1107,0.1003 l 0.071,0.064 -0.033,0.035 c -0.019,0.019 -0.046,0.048 -0.061,0.065 l -0.028,0.03 -0.032,-0.027 z m 0.8735,0 c -0.1414,-0.011 -0.3346,-0.079 -0.4803,-0.169 -0.029,-0.018 -0.033,-0.023 -0.028,-0.03 0.011,-0.013 0.1468,-0.1246 0.1515,-0.1246 0,0 0.035,0.015 0.073,0.034 0.1593,0.079 0.2904,0.1034 0.4969,0.093 0.1,-0.01 0.1492,-0.014 0.2341,-0.042 0.2973,-0.1004 0.5239,-0.333 0.6164,-0.6329 0.023,-0.076 0.029,-0.1138 0.034,-0.2212 0.01,-0.1697 -0.016,-0.2859 -0.085,-0.438 -0.077,-0.1679 -0.2124,-0.3179 -0.3788,-0.4196 l -0.026,-0.016 0,-0.1088 0,-0.1089 0.012,0.01 c 0.01,0 0.031,0.014 0.053,0.026 0.2306,0.1218 0.3964,0.2896 0.5123,0.5182 0.067,0.1331 0.086,0.1974 0.1231,0.4355 0.022,0.1427 0.023,0.1491 0.013,0.1559 -0.01,0.01 -0.016,0.035 -0.033,0.1085 -0.012,0.055 -0.033,0.1314 -0.046,0.168 -0.083,0.2439 -0.2415,0.4467 -0.4572,0.5868 -0.1308,0.085 -0.2993,0.1506 -0.455,0.1772 -0.044,0.01 -0.2533,0.01 -0.3305,0.01 z m -0.6381,-0.2682 c -0.024,-0.025 -0.069,-0.074 -0.1022,-0.1064 l -0.06,-0.06 0.051,-0.045 c 0.028,-0.025 0.061,-0.054 0.074,-0.065 l 0.024,-0.02 0.083,0.097 c 0.046,0.053 0.09,0.1045 0.098,0.1138 l 0.015,0.017 -0.02,0.015 c -0.011,0.01 -0.042,0.034 -0.068,0.058 -0.026,0.023 -0.049,0.042 -0.049,0.042 0,0 -0.022,-0.021 -0.046,-0.047 z m -0.6236,-0.058 c -0.1114,-0.022 -0.2031,-0.04 -0.2039,-0.04 -0.01,0 0.01,-1.1956 0.015,-1.2011 0,0 0.1914,0.029 0.286,0.048 l 0.031,0.01 -0.019,0.075 c -0.01,0.041 -0.021,0.096 -0.025,0.1218 -0.01,0.061 -0.01,0.2955 0,0.3564 0.023,0.1767 0.098,0.3752 0.1992,0.5311 l 0.027,0.042 -0.051,0.05 c -0.028,0.028 -0.052,0.05 -0.054,0.05 0,0 -0.094,-0.018 -0.2054,-0.04 z m -0.4721,-0.036 -0.078,-0.017 0,-0.6784 0,-0.6784 0.039,-0.027 c 0.022,-0.015 0.1565,-0.1092 0.2995,-0.2093 0.3309,-0.2315 0.3563,-0.2484 0.3738,-0.2484 0.013,0 0.064,0.01 0.08,0.014 0.01,0 0.012,0 -0.3768,0.2914 -0.1159,0.086 -0.2131,0.1591 -0.2159,0.1617 -0.011,0.01 -0.013,0.089 -0.019,0.5541 -0.01,0.731 -0.012,0.855 -0.019,0.8543 0,0 -0.041,-0.01 -0.084,-0.017 z m 1.7651,0 c -0.063,-0.01 -0.141,-0.029 -0.2019,-0.057 -0.03,-0.014 -0.053,-0.026 -0.052,-0.028 0,0 0.01,-0.017 0.016,-0.033 0.038,-0.077 0.018,-0.1761 -0.048,-0.2386 -0.032,-0.031 -0.062,-0.047 -0.1124,-0.059 -0.044,-0.011 -0.092,-0.01 -0.1364,0.02 -0.016,0.01 -0.032,0.014 -0.034,0.012 -0.01,-0.01 -0.042,-0.079 -0.059,-0.1212 -0.035,-0.087 -0.036,-0.093 -0.035,-0.2741 l 0,-0.1662 0.019,-0.052 c 0.016,-0.047 0.019,-0.052 0.03,-0.05 0.01,0 0.1927,0.037 0.4139,0.077 0.6308,0.1169 1.0972,0.2055 1.1009,0.209 0,0 0,0.025 0,0.051 -0.015,0.1656 -0.077,0.309 -0.1914,0.4453 -0.1105,0.132 -0.2816,0.2301 -0.4486,0.2572 -0.063,0.01 -0.201,0.014 -0.2587,0.01 z m -0.3643,-0.1125 c -0.01,-0.01 -0.047,-0.058 -0.091,-0.1091 -0.076,-0.09 -0.078,-0.093 -0.067,-0.1001 0.031,-0.02 0.054,-0.027 0.084,-0.026 0.057,0 0.1088,0.034 0.1327,0.087 0.012,0.028 0.015,0.083 0.01,0.1074 -0.01,0.015 -0.042,0.058 -0.049,0.058 0,0 -0.01,-0.01 -0.016,-0.016 z m -1.81,-0.018 -0.1368,-0.028 0,-0.265 c 0,-0.2688 0.01,-0.9357 0.01,-0.9397 0,0 0.2729,0.048 0.277,0.052 0,0 0.012,0.7696 0.012,1.0526 l 0,0.1568 -0.012,0 c -0.01,0 -0.074,-0.013 -0.1491,-0.029 z m -0.405,-0.028 c -0.048,-0.01 -0.088,-0.019 -0.089,-0.02 0,0 0,-0.3052 0,-0.6762 l 0.01,-0.6745 0.1127,-0.08 c 0.2116,-0.1507 0.5012,-0.3532 0.5485,-0.3836 l 0.047,-0.031 0.041,0.01 c 0.022,0.01 0.042,0.01 0.045,0.012 0,0 -0.042,0.039 -0.3884,0.2983 l -0.2134,0.1602 0,0.08 c 0,0.044 -0.01,0.3464 -0.01,0.6722 0,0.3257 -0.01,0.6056 -0.01,0.6221 l 0,0.03 -0.088,-0.018 z m 1.7082,0 c -0.063,-0.1048 -0.1022,-0.1895 -0.1282,-0.2785 -0.059,-0.203 -0.065,-0.416 -0.015,-0.6175 0.056,-0.2253 0.2031,-0.4515 0.3945,-0.6046 l 0.06,-0.048 0,0.037 c 0,0.02 0,0.077 0.01,0.1255 l 0,0.088 -0.029,0.032 c -0.1858,0.2089 -0.2616,0.399 -0.2612,0.6552 0,0.1671 0.033,0.3027 0.1077,0.4402 l 0.03,0.056 -0.024,0.019 c -0.013,0.01 -0.046,0.039 -0.073,0.062 -0.027,0.024 -0.052,0.044 -0.055,0.047 0,0 -0.01,-0.01 -0.015,-0.014 z m -2.0722,-0.1139 c -0.1243,-0.025 -0.2942,-0.06 -0.3518,-0.073 l -0.048,-0.011 0,-0.092 c 0,-0.1668 0.025,-1.0228 0.031,-1.0714 0,-0.02 0.01,-0.026 0.014,-0.026 0.013,0 0.2181,0.037 0.3547,0.064 l 0.1014,0.02 0,0.2599 c 0.01,0.3654 0,0.9487 -0.01,0.9481 0,0 -0.046,-0.01 -0.096,-0.018 z m 5.8652,-0.2756 c -0.084,-0.017 -0.1543,-0.031 -0.1555,-0.031 -0.01,0 0.4609,-0.3511 0.4729,-0.3506 0.015,0 0.3096,0.056 0.3223,0.061 0.011,0.01 -0.076,0.073 -0.3327,0.2667 -0.1,0.075 -0.118,0.087 -0.1346,0.087 -0.011,-10e-5 -0.088,-0.015 -0.1724,-0.031 z m -0.8704,-0.1633 c -0.054,-0.01 -0.1157,-0.021 -0.1367,-0.025 l -0.039,-0.01 0.1394,-0.1049 c 0.1891,-0.142 0.3026,-0.2253 0.3211,-0.2357 0.015,-0.01 0.023,-0.01 0.1643,0.019 0.082,0.015 0.15,0.028 0.1515,0.03 0,0 -0.1519,0.1149 -0.3191,0.2305 -0.1236,0.086 -0.1667,0.1128 -0.177,0.112 0,0 -0.051,-0.01 -0.1053,-0.018 z m -1.5456,-0.289 c -0.2078,-0.039 -0.3697,-0.072 -0.364,-0.073 0.01,0 0.032,-0.01 0.058,-0.015 0.091,-0.021 0.1796,-0.071 0.2477,-0.1373 0.047,-0.046 0.076,-0.089 0.099,-0.1435 l 0.017,-0.042 0.027,0.018 c 0.015,0.01 0.047,0.039 0.073,0.063 0.079,0.077 0.1431,0.1732 0.1815,0.2732 0.022,0.055 0.041,0.1216 0.037,0.1243 0,0 -0.1702,-0.03 -0.3759,-0.069 z m 0.9244,0.031 c 0,-0.032 -0.056,-0.2264 -0.085,-0.2979 0,-0.01 0,-0.01 0.052,0 0.1793,0.031 0.3712,0.067 0.371,0.069 0,0 -0.3259,0.2321 -0.334,0.2349 0,0 -0.01,0 -0.01,-0.01 z m -1.8904,-0.2134 -0.087,-0.017 0.031,-0.042 0.031,-0.042 0.021,0.026 c 0.021,0.026 0.052,0.052 0.091,0.078 0.027,0.018 0.025,0.018 -0.087,-0.01 z m 0.4124,-0.047 c -0.052,-0.01 -0.1292,-0.028 -0.1724,-0.048 -0.044,-0.02 -0.1042,-0.071 -0.1314,-0.1094 l -0.022,-0.031 0,-0.3063 c 0,-0.3476 0.01,-0.5693 0.021,-0.6174 0.016,-0.058 0.045,-0.1083 0.093,-0.156 0.038,-0.037 0.053,-0.047 0.1014,-0.071 0.092,-0.044 0.1684,-0.053 0.2558,-0.033 0.1108,0.026 0.2022,0.093 0.2547,0.188 0.038,0.068 0.037,0.06 0.043,0.4083 0,0.1893 0,0.3692 0,0.4508 l -0.01,0.136 -0.018,0.027 c -0.043,0.066 -0.1385,0.129 -0.2297,0.1514 -0.051,0.012 -0.1366,0.017 -0.1926,0.01 z m -1.1221,-0.086 c -0.089,-0.015 -0.2245,-0.043 -0.2242,-0.047 0,-0.01 0.064,-0.052 0.2814,-0.2141 l 0.1535,-0.1144 0.036,0 c 0.02,0 0.044,0.01 0.053,0.01 l 0.017,0 -0.03,0.036 c -0.074,0.086 -0.1536,0.2012 -0.1942,0.2803 -0.015,0.029 -0.028,0.053 -0.031,0.054 0,0 -0.03,0 -0.062,-0.01 z m -0.9571,-0.179 c -0.053,-0.01 -0.096,-0.018 -0.097,-0.02 0,0 0.4352,-0.3285 0.4451,-0.3301 0.01,0 0.2425,0.04 0.2464,0.044 0,0 -0.1877,0.1414 -0.3593,0.2593 -0.1113,0.076 -0.093,0.073 -0.2354,0.046 z m -0.8356,-0.1579 c -0.1571,-0.029 -0.1741,-0.033 -0.1689,-0.037 0,0 0.1254,-0.072 0.2729,-0.1532 0.1766,-0.098 0.2729,-0.1486 0.2819,-0.148 0.017,0 0.214,0.037 0.2165,0.039 0.01,0.01 -0.3667,0.2668 -0.4305,0.3052 -0.032,0.019 -0.036,0.019 -0.1719,-0.01 z"
       id="path4556-3-1"
       inkscape:connector-curvature="0" />
  </g>
</svg>
