<?xml version="1.0" encoding="UTF-8"?>
<svg width="650" height="520" version="1.1" xml:space="preserve" xmlns="http://www.w3.org/2000/svg"><g transform="translate(797.38,163.83)" stroke="#775f00" stroke-width=".7"><g transform="translate(112.61,6.364)"><g transform="translate(-1.8438,2.7188)"><g transform="translate(-371.95,-9.6733)"><g transform="translate(-452.89,-605.04)"/></g></g></g></g><g transform="matrix(5.9688 0 0 5.9688 -3879.7 -4.0129e-6)"><rect x="650" y="-2.6579e-15" width="108.9" height="87.12" fill="#0575d0" stroke-width=".2178"/><g transform="matrix(.2094 0 0 .21077 652.1 .96683)"><g transform="matrix(1.2305,0,0,1.2305,111.09,61.706)" fill="#ffd700" stroke="#6c2c0b"><path d="m92.422 140.3c-12.347-8.4276-22.287-24.314-26.997-44.736l2.1717-7.4094 7.6181 2.4706-2.99-6.7402 3.1399-8.3995 8.5845 3.3869 3.6272-8.1861 8.2026 4.1527 16.954-25.286 17.265 25.286 8.2031-4.1527 3.6269 8.1861 8.5842-3.3869 3.1399 8.3995-2.9895 6.7402 7.6176-2.4706 2.1722 7.4094c-4.71 20.421-14.65 36.308-26.997 44.736 0 0-9.507-11.428-20.467-11.112-12.794 0.36798-20.467 11.112-20.467 11.112z" fill="#ffd700" stop-color="#000000" stroke-linecap="round" stroke-linejoin="round" stroke-width=".81266"/><g fill="#ffd700" stroke-width=".81266"><g transform="translate(-.1881)"><g transform="matrix(-.99976 -.021737 -.021737 .99976 227.99 3.4481)" fill="#ffd700" stroke="#6c2c0b" stroke-width=".81266"><path d="m131.73 136.79 26.23-48.146m2.3002 6.9416-25.418 42.856m-8.6476-5.6146 24.26-56.904m-21.317 58.886 24.652-51.008m-34.398 45.369 19.01-58.296m-7.9636 3.3718-14.709 53.721m7.1738 2.8269 19.346-52.468m-50.032 57.606-24.112-49.24m-2.5997 6.835 23.532 43.92m8.8835-5.2335-21.763-57.905m18.737 59.757-22.411-52.031m32.394 46.821-16.458-59.067m7.8095 3.7147 12.36 54.31m-7.2899 2.5124-17.047-53.259" fill="none" stroke="#6c2c0b" stroke-width=".81266"/></g></g></g><g transform="translate(-.57175 .50115)" fill="#ffd700" stroke-linejoin="round" stroke-width=".81266"><g transform="matrix(-.99671 .081077 .081077 .99671 224.21 -9.8296)"><path d="m109.51 124.16 1.8024-42.868h4.2829l1.8024 42.868c-1.2043 3.0866-6.7531 3.4784-7.8878 0z" fill="#ffd700"/><path d="m113.45 81.33v44.045" fill="none" stroke-linecap="round"/></g><g transform="rotate(4.6505,122.39,28.494)"><path d="m109.51 124.16 1.8024-42.868h4.2829l1.8024 42.868c-1.2043 3.0866-6.7531 3.4784-7.8878 0z" fill="#ffd700"/><path d="m113.45 81.33v44.045" fill="none" stroke-linecap="round"/></g><g transform="translate(.0077238)"><path d="m109.51 124.16 1.8024-42.868h4.2829l1.8024 42.868c-1.2043 3.0866-6.7531 3.4784-7.8878 0z" fill="#ffd700"/><path d="m113.45 81.33v44.045" fill="none" stroke-linecap="round"/></g></g><g fill="#ffd700" stroke-width=".81266"><g transform="matrix(-.82855 -.55992 -.55992 .82855 356.71 177.53)"><path d="m269.11 100.9c0.72529 1.5006 0.52734 2.7376-1.3058 4.2937 1.7846-0.29888 5.7003-1.2651 4.7293-5.7199 0 0 0.48284-1.4068 0.20689-2.0276-0.3953-0.88938-1.3817-1.7528-2.3546-1.7266-0.6647 0.01798-1.6928 1.0003-1.6928 1.0003s-0.89906-0.78211-1.4964-0.61063c-1.0832 0.31102-1.8223 1.8099-1.6888 2.9289 0 0-1.2235 0.20655-1.5886 0.64645-0.89438 1.0775-0.83986 4.1162-0.83986 4.1162l2.6313 1.3284s-0.0166-2.5717 0.73856-3.4904c0.25092-0.30524 0.55905-0.4757 1.0903-0.46512 1.0737 0.0214 1.0162-1.9149 1.5705-0.2736z" stroke-width=".81266"/><g transform="matrix(1.062,0,0,1.062,-16.228,-5.9413)" stroke-width=".76525"><path d="m259.7 87.38c-1.1363 0.07677-1.8033 0.71537-1.8244 1.2945-0.0212 0.57915 0.60377 1.0989 1.9252 1.2162-1.1363 0.07677-1.8033 0.71537-1.8244 1.2945-0.0213 0.57915 1.0056 1.109 2.327 1.2263-1.1364 0.07677-2.2051 0.70522-2.2262 1.2844-0.0213 0.57915 1.0056 1.109 2.327 1.2263-1.1363 0.07677-2.2051 0.70522-2.2262 1.2844-0.0213 0.57915 0.95538 1.1077 2.2768 1.2251-1.1363 0.07677-2.1549 0.70649-2.176 1.2856-0.0212 0.57915 0.95538 1.1077 2.2768 1.2251-1.1363 0.0769-2.1549 0.70647-2.176 1.2856-0.0212 0.57915 1.0558 1.1103 2.3773 1.2276-1.1363 0.0769-2.2553 0.70395-2.2764 1.2831-0.0212 0.57914 0.60379 1.0989 1.9252 1.2162l1.7081-0.0133-0.41958-17.849z" stroke-linejoin="round"/><path d="m259.89 81.625c0.77607 4.6504 1.1668 14.125 1.2268 20.751-1.5785 0.45907-2.9785 0.96276-4.0005 1.5611-0.27062-0.62479-0.74027-1.1617-1.3202-1.3362-0.56033-0.16863-1.4165 0.55669-1.4165 0.55669s-0.95633-0.93716-1.582-0.96204c-0.91577-0.0363-1.8546 0.76485-2.2375 1.5976-0.26722 0.58127 0.17032 1.9119 0.17032 1.9119-0.96759 4.183 2.7077 5.1395 4.3844 5.4423-1.7074-1.4871-1.879-2.6541-1.1781-4.0584 0.54158-1.5388 0.46423 0.28367 1.4754 0.2764 0.50037-4e-3 1.1576 0.19196 1.6988 0.0253 0.99966-0.30786 1.595-1.4186 2.5674-1.8039 0.37041-0.14676 0.92008-0.24255 1.4428-0.30511-3.4e-4 0.0421-1.2e-4 0.0898-4.9e-4 0.13138l1.9416-0.1489 0.70997 0.94695s1.0606-2.1773 2.0818-2.637c0.33929-0.15273 0.67044-0.16765 1.1144 0.0633 0.89708 0.4667 1.658-1.1914 1.4399 0.4253-0.015 1.5694-0.69918 2.5302-2.8963 3.0774 1.6308 0.49347 5.3389 1.3144 6.381-2.8506 0 0 0.99534-0.98512 1.0219-1.6243 0.038-0.9157-0.43323-2.0564-1.2652-2.4409-0.56843-0.26257-1.8467 0.13674-1.8467 0.13674s-0.4321-1.0358-1.0078-1.1406c-0.0979-0.01783-0.19723-0.02574-0.29781-0.02433-0.97239 0.01365-2.0292 0.88394-2.3508 1.7903 0 0-1.1188-0.33689-1.6107-0.11824-0.34356 0.15269-0.68864 0.4722-1.0063 0.8506l0.0798-19.146z"/></g><path d="m265.06 108.99c-2.3671 3.8968-5.87 1.8978-7.369 0.88427 2.4007 0.13615 3.3967-0.62357 3.9056-2.2107 0.72971-1.5712-0.56328-0.12875-1.3264-0.88428-0.64827-0.73832-0.58815-2.1605 0-2.9476 0.67461-0.90275 2.2432-1.4793 3.2424-0.95797 0.55093 0.28744 0.66321 1.4738 0.66321 1.4738s1.422-3e-3 1.9159 0.44214c0.72294 0.65163 0.8425 1.9571 0.51583 2.8739-0.22803 0.63998-1.5475 1.3264-1.5475 1.3264z" stroke-width=".81266"/><g stroke-linejoin="round" stroke-width=".81266"><g transform="matrix(-1,0,0,1,522.02,0)"><path d="m264.25 78.443c-0.63337 2.0815-0.0927 4.1239 1.0018 5.953 1.5041 2.5138 4.503 4.5503 6.0403 5.8817-8.1964 2.1735-9.8889-6.0809-11.441-9.9961z"/><path d="m264.73 71.094c-0.8269 2.227-0.3717 4.4883 0.70108 6.5537 1.4743 2.8384 4.6089 5.2547 6.197 6.8067-8.738 1.5255-10.377-7.2962-11.812-11.645z"/><path d="m265.03 65.306c-0.89312 2.2012-0.50575 4.4752 0.50479 6.5717 1.3887 2.8812 4.4497 5.3902 5.9906 6.9889-8.831 1.5296-10.154-7.6033-11.459-11.993z"/><path d="m266.15 59.907c-1.0551 2.1284-0.83868 4.4249 0.0124 6.5911 1.1696 2.9769 4.0346 5.7076 5.4518 7.417-8.4788 0.69724-9.5579-8.3407-10.531-12.816z"/></g><path d="m264.25 78.443c-0.63337 2.0815-0.0927 4.1239 1.0018 5.953 1.5041 2.5138 4.503 4.5503 6.0403 5.8817-8.1964 2.1735-9.8889-6.0809-11.441-9.9961z"/><path d="m264.73 71.094c-0.8269 2.227-0.3717 4.4883 0.70108 6.5537 1.4743 2.8384 4.6089 5.2547 6.197 6.8067-8.738 1.5255-10.377-7.2962-11.812-11.645z"/><path d="m265.03 65.306c-0.89312 2.2012-0.50575 4.4752 0.50479 6.5717 1.3887 2.8812 4.4497 5.3902 5.9906 6.9889-8.831 1.5296-10.154-7.6033-11.459-11.993z"/><path d="m266.15 59.907c-1.0551 2.1284-0.83868 4.4249 0.0124 6.5911 1.1696 2.9769 4.0346 5.7076 5.4518 7.417-8.4788 0.69724-9.5579-8.3407-10.531-12.816z"/><path d="m260.01 75.591h2.05c0.82342 3.8076 1.7677 13.644-1.025 16.022-2.9588-3.2071-1.8484-12.215-1.025-16.022z"/><path d="m259.91 68.183h2.2688c0.91131 3.8076 1.9564 13.644-1.1344 16.022-3.2746-3.2071-2.0457-12.215-1.1344-16.022z"/><path d="m259.79 60.071h2.515c1.0102 3.8076 2.1686 13.644-1.2575 16.022-3.6299-3.2071-2.2676-12.215-1.2575-16.022z"/></g></g><g transform="rotate(-34.05,224.42,302.55)"><path d="m269.11 100.9c0.72529 1.5006 0.52734 2.7376-1.3058 4.2937 1.7846-0.29888 5.7003-1.2651 4.7293-5.7199 0 0 0.48284-1.4068 0.20689-2.0276-0.3953-0.88938-1.3817-1.7528-2.3546-1.7266-0.6647 0.01798-1.6928 1.0003-1.6928 1.0003s-0.89906-0.78211-1.4964-0.61063c-1.0832 0.31102-1.8223 1.8099-1.6888 2.9289 0 0-1.2235 0.20655-1.5886 0.64645-0.89438 1.0775-0.83986 4.1162-0.83986 4.1162l2.6313 1.3284s-0.0166-2.5717 0.73856-3.4904c0.25092-0.30524 0.55905-0.4757 1.0903-0.46512 1.0737 0.0214 1.0162-1.9149 1.5705-0.2736z" stroke-width=".81266"/><g transform="matrix(1.062,0,0,1.062,-16.228,-5.9413)" stroke-width=".76525"><path d="m259.7 87.38c-1.1363 0.07677-1.8033 0.71537-1.8244 1.2945-0.0212 0.57915 0.60377 1.0989 1.9252 1.2162-1.1363 0.07677-1.8033 0.71537-1.8244 1.2945-0.0213 0.57915 1.0056 1.109 2.327 1.2263-1.1364 0.07677-2.2051 0.70522-2.2262 1.2844-0.0213 0.57915 1.0056 1.109 2.327 1.2263-1.1363 0.07677-2.2051 0.70522-2.2262 1.2844-0.0213 0.57915 0.95538 1.1077 2.2768 1.2251-1.1363 0.07677-2.1549 0.70649-2.176 1.2856-0.0212 0.57915 0.95538 1.1077 2.2768 1.2251-1.1363 0.0769-2.1549 0.70647-2.176 1.2856-0.0212 0.57915 1.0558 1.1103 2.3773 1.2276-1.1363 0.0769-2.2553 0.70395-2.2764 1.2831-0.0212 0.57914 0.60379 1.0989 1.9252 1.2162l1.7081-0.0133-0.41958-17.849z" stroke-linejoin="round"/><path d="m259.89 81.625c0.77607 4.6504 1.1668 14.125 1.2268 20.751-1.5785 0.45907-2.9785 0.96276-4.0005 1.5611-0.27062-0.62479-0.74027-1.1617-1.3202-1.3362-0.56033-0.16863-1.4165 0.55669-1.4165 0.55669s-0.95633-0.93716-1.582-0.96204c-0.91577-0.0363-1.8546 0.76485-2.2375 1.5976-0.26722 0.58127 0.17032 1.9119 0.17032 1.9119-0.96759 4.183 2.7077 5.1395 4.3844 5.4423-1.7074-1.4871-1.879-2.6541-1.1781-4.0584 0.54158-1.5388 0.46423 0.28367 1.4754 0.2764 0.50037-4e-3 1.1576 0.19196 1.6988 0.0253 0.99966-0.30786 1.595-1.4186 2.5674-1.8039 0.37041-0.14676 0.92008-0.24255 1.4428-0.30511-3.4e-4 0.0421-1.2e-4 0.0898-4.9e-4 0.13138l1.9416-0.1489 0.70997 0.94695s1.0606-2.1773 2.0818-2.637c0.33929-0.15273 0.67044-0.16765 1.1144 0.0633 0.89708 0.4667 1.658-1.1914 1.4399 0.4253-0.015 1.5694-0.69918 2.5302-2.8963 3.0774 1.6308 0.49347 5.3389 1.3144 6.381-2.8506 0 0 0.99534-0.98512 1.0219-1.6243 0.038-0.9157-0.43323-2.0564-1.2652-2.4409-0.56843-0.26257-1.8467 0.13674-1.8467 0.13674s-0.4321-1.0358-1.0078-1.1406c-0.0979-0.01783-0.19723-0.02574-0.29781-0.02433-0.97239 0.01365-2.0292 0.88394-2.3508 1.7903 0 0-1.1188-0.33689-1.6107-0.11824-0.34356 0.15269-0.68864 0.4722-1.0063 0.8506l0.0798-19.146z"/></g><path d="m265.06 108.99c-2.3671 3.8968-5.87 1.8978-7.369 0.88427 2.4007 0.13615 3.3967-0.62357 3.9056-2.2107 0.72971-1.5712-0.56328-0.12875-1.3264-0.88428-0.64827-0.73832-0.58815-2.1605 0-2.9476 0.67461-0.90275 2.2432-1.4793 3.2424-0.95797 0.55093 0.28744 0.66321 1.4738 0.66321 1.4738s1.422-3e-3 1.9159 0.44214c0.72294 0.65163 0.8425 1.9571 0.51583 2.8739-0.22803 0.63998-1.5475 1.3264-1.5475 1.3264z" stroke-width=".81266"/><g stroke-linejoin="round" stroke-width=".81266"><g transform="matrix(-1,0,0,1,522.02,0)"><path d="m264.25 78.443c-0.63337 2.0815-0.0927 4.1239 1.0018 5.953 1.5041 2.5138 4.503 4.5503 6.0403 5.8817-8.1964 2.1735-9.8889-6.0809-11.441-9.9961z"/><path d="m264.73 71.094c-0.8269 2.227-0.3717 4.4883 0.70108 6.5537 1.4743 2.8384 4.6089 5.2547 6.197 6.8067-8.738 1.5255-10.377-7.2962-11.812-11.645z"/><path d="m265.03 65.306c-0.89312 2.2012-0.50575 4.4752 0.50479 6.5717 1.3887 2.8812 4.4497 5.3902 5.9906 6.9889-8.831 1.5296-10.154-7.6033-11.459-11.993z"/><path d="m266.15 59.907c-1.0551 2.1284-0.83868 4.4249 0.0124 6.5911 1.1696 2.9769 4.0346 5.7076 5.4518 7.417-8.4788 0.69724-9.5579-8.3407-10.531-12.816z"/></g><path d="m264.25 78.443c-0.63337 2.0815-0.0927 4.1239 1.0018 5.953 1.5041 2.5138 4.503 4.5503 6.0403 5.8817-8.1964 2.1735-9.8889-6.0809-11.441-9.9961z"/><path d="m264.73 71.094c-0.8269 2.227-0.3717 4.4883 0.70108 6.5537 1.4743 2.8384 4.6089 5.2547 6.197 6.8067-8.738 1.5255-10.377-7.2962-11.812-11.645z"/><path d="m265.03 65.306c-0.89312 2.2012-0.50575 4.4752 0.50479 6.5717 1.3887 2.8812 4.4497 5.3902 5.9906 6.9889-8.831 1.5296-10.154-7.6033-11.459-11.993z"/><path d="m266.15 59.907c-1.0551 2.1284-0.83868 4.4249 0.0124 6.5911 1.1696 2.9769 4.0346 5.7076 5.4518 7.417-8.4788 0.69724-9.5579-8.3407-10.531-12.816z"/><path d="m260.01 75.591h2.05c0.82342 3.8076 1.7677 13.644-1.025 16.022-2.9588-3.2071-1.8484-12.215-1.025-16.022z"/><path d="m259.91 68.183h2.2688c0.91131 3.8076 1.9564 13.644-1.1344 16.022-3.2746-3.2071-2.0457-12.215-1.1344-16.022z"/><path d="m259.79 60.071h2.515c1.0102 3.8076 2.1686 13.644-1.2575 16.022-3.6299-3.2071-2.2676-12.215-1.2575-16.022z"/></g></g></g><g transform="translate(-.49359)" fill="#ffd700" stroke-linejoin="round" stroke-width=".81266"><g transform="matrix(-1,0,0,1,227.03,0)"><path d="m96.503 60.475 1.3518 0.24956 2.521 1.068c0.2581 5.4498-2.9944 17.603-8.3263 19.824-3.9802-5.4002 1.976-16.281 4.4534-21.142z"/><path d="m93.314 58.98 1.549 0.79611 1.0983 0.79611c-1.1662 5.3298-5.5162 18.18-11.242 18.94-2.441-6.2487 4.9397-16.482 8.5947-20.532z"/><path d="m91.178 59.379 1.1796 1.2813 0.27827 0.37995c-2.932 6.2535-10.967 15.91-16.604 14.65 0.09893-8.8334 10.322-13.8 15.146-16.311z"/><path d="m88.674 56.315 0.91081 1.5996-0.02385 0.16215c-3.1314 6.2774-14.851 14.079-20.358 11.443 1.4505-7.534 13.896-11.732 19.471-13.205z"/><path d="m85.687 53.385 0.5435 2.1597-0.0511-0.01634c-6.635 7.3922-22.524 11.586-28.14 5.5653 0.52779-5.2313 20.422-7.7859 27.648-7.7087z"/><path d="m86.979 48.326 0.30035 2.4965 0.15014 1.4449c-10.093 5.7641-31.74 8.4058-38.054-0.01401 1.2628-4.9009 28.234-5.1216 37.604-3.9274z"/><path d="m84.374 46.339-0.12576 2.5168-0.27597 0.86437c-13.489 2.9969-36.933 2.4143-42.823-6.6322 2.3268-4.5482 32.926 0.09193 43.225 3.251z"/><path d="m77.604 39.219-0.24968 2.5075 0.43449 3.495c-10.116 2.1445-37.98-2.4688-43.054-11.494 2.5481-4.428 32.739 1.828 42.869 5.4909z"/><path d="m87.241 39.443c-18.601 5.5693-63.256-9.0856-55.098-17.593 2.8989 1.0214 5.1109 2.2127 7.7503 3.2435 13.388 5.2287 28.661 8.2819 45.986 8.9676z"/><path d="m87.88 45.484 0.2776 1.3572-0.0065 0.76137c-4.1918 1.7854-15.701 6.5283-18.568 2.1588 1.9208-4.4073 13.687-4.7427 18.297-4.2773z"/><path d="m87.025 41.498 0.12972 1.5668-0.11004 0.85706c-3.8859 1.5901-18.214 5.31-21.215-0.57567 2.3011-3.8683 16.023-2.9204 21.195-1.8482z"/><path d="m84.634 37.615-0.1875 1.5609-0.78316 1.7522c-4.126 0.77756-20.419 0.68214-22.536-7.3398 3.0309-3.3276 18.656 1.9379 23.507 4.0266z"/><path d="m91.23 48.041 0.458 1.3074 0.09617 0.7553c-3.9129 2.3341-14.678 8.5851-18.108 4.6419 1.1047-3.8091 12.905-6.4722 17.553-6.7046z"/><path d="m89.807 50.433 0.57185 0.9563 0.20726 0.58073c-2.4364 2.5008-9.1704 9.2462-12.392 6.7055 0.11652-3.1953 8.2579-7.2792 11.613-8.2425z"/><path d="m92.161 50.408 0.79018 0.78558 0.34418 0.51161c-1.7438 3.0248-6.6046 11.224-10.354 9.5566-0.67573-3.1252 6.2058-9.0922 9.2193-10.854z"/><path d="m95.167 51.565 0.87478 0.69014 0.40039 0.46892c-1.3867 3.2042-5.2788 11.905-9.1938 10.677-1.0284-3.0275 5.1262-9.7418 7.9187-11.836z"/><path d="m100.52 52.809 2.056 0.85965c-0.47566 3.458-2.891 11.896-6.5046 12.668-1.8713-3.8626 2.3213-10.761 4.4486-13.528z"/><path d="m97.605 51.982 0.98596 0.51904 0.47919 0.38805c-0.77915 3.4034-3.0193 12.668-7.0926 12.175-1.5633-2.7892 3.2637-10.513 5.6274-13.082z"/><path d="m97.672 52.671c-1.2243 2.8712-2.0167 6.0227-1.0485 8.0967 2.1519-0.65303 3.8349-4.4643 4.8684-7.9985a7.9271 8.555 0 0 1-1.7358 0.20877 7.9271 8.555 0 0 1-2.0841-0.30696z"/><path d="m95.099 50.922c-1.8407 2.8846-3.4012 6.341-2.637 8.7645 2.5235-0.41589 4.9806-4.9612 6.4462-8.6602a7.2992 6.5536 32.924 0 1-2.7789-1.1296 7.2992 6.5536 32.924 0 1-0.23525-0.16341c-0.26685 0.38198-0.53357 0.77907-0.79497 1.1887z"/><path d="m93.084 49.505c-2.395 2.4439-4.6335 5.5052-4.3845 8.0341 2.5551 0.11241 5.8951-3.8299 8.0907-7.148a7.2992 6.5536 44.802 0 1-2.4869-1.6774 7.2992 6.5536 44.802 0 1-0.19658-0.20833c-0.33975 0.31888-0.6825 0.65256-1.0226 0.99964z"/><path d="m91.465 47.531c-2.8864 1.8378-5.7604 4.3122-6.0908 6.8317 2.4631 0.68839 6.6095-2.3946 9.4998-5.129a7.2992 6.5536 57.897 0 1-2.0422-2.1972 7.2992 6.5536 57.897 0 1-0.14427-0.24746c-0.40317 0.23361-0.8126 0.48096-1.2225 0.74195z"/><path d="m89.594 45.228c-3.2873 0.94994-6.7421 2.5143-7.7691 4.8386 2.1694 1.3546 7.0165-0.4351 10.56-2.2442a7.2992 6.5536 74.264 0 1-1.3403-2.6837 7.2992 6.5536 74.264 0 1-0.06869-0.27808c-0.45266 0.11054-0.9152 0.23249-1.382 0.3674z"/><path d="m93.224 41.438 0.4837 1.9557c-3.0809 1.5957-11.319 4.5894-14.024 2.4312 2.0604-3.505 10.07-4.3622 13.54-4.3868z"/><path d="m92.7 38.831 0.16742 2.0076c-3.2949 1.0869-11.904 2.7361-14.232 0.17628 2.5902-3.1339 10.635-2.7099 14.064-2.1839z"/><path d="m107.4 44.315s-1.9308 6.8462-7.8845 6.5222c-1.5801-0.08601-3.3451-0.85364-4.4025-2.3489-2.6405-3.7338 2.9287-9.4486-1.5696-13.981-4.023-4.0539-6.7938-0.4998-29.837-4.9353-18.864-3.631-31.567-7.7973-31.567-7.7973 1.6841 2.763 15.364 7.9531 30.667 12.026 10.801 2.8752 21.461 3.9893 22.793 4.9791 3.9289 2.9194 0.10924 6.9138 3.741 12.573 1.6164 2.5187 4.4703 4.3148 7.9273 4.725 7.3386 0.8708 10.118-2.8469 11.485-6.5333z"/></g><g transform="translate(-.26458)"><path d="m96.503 60.475 1.3518 0.24956 2.521 1.068c0.2581 5.4498-2.9944 17.603-8.3263 19.824-3.9802-5.4002 1.976-16.281 4.4534-21.142z"/><path d="m93.314 58.98 1.549 0.79611 1.0983 0.79611c-1.1662 5.3298-5.5162 18.18-11.242 18.94-2.441-6.2487 4.9397-16.482 8.5947-20.532z"/><path d="m91.178 59.379 1.1796 1.2813 0.27827 0.37995c-2.932 6.2535-10.967 15.91-16.604 14.65 0.09893-8.8334 10.322-13.8 15.146-16.311z"/><path d="m88.674 56.315 0.91081 1.5996-0.02385 0.16215c-3.1314 6.2774-14.851 14.079-20.358 11.443 1.4505-7.534 13.896-11.732 19.471-13.205z"/><path d="m85.687 53.385 0.5435 2.1597-0.0511-0.01634c-6.635 7.3922-22.524 11.586-28.14 5.5653 0.52779-5.2313 20.422-7.7859 27.648-7.7087z"/><path d="m86.979 48.326 0.30035 2.4965 0.15014 1.4449c-10.093 5.7641-31.74 8.4058-38.054-0.01401 1.2628-4.9009 28.234-5.1216 37.604-3.9274z"/><path d="m84.374 46.339-0.12576 2.5168-0.27597 0.86437c-13.489 2.9969-36.933 2.4143-42.823-6.6322 2.3268-4.5482 32.926 0.09193 43.225 3.251z"/><path d="m77.604 39.219-0.24968 2.5075 0.43449 3.495c-10.116 2.1445-37.98-2.4688-43.054-11.494 2.5481-4.428 32.739 1.828 42.869 5.4909z"/><path d="m87.241 39.443c-18.601 5.5693-63.256-9.0856-55.098-17.593 2.8989 1.0214 5.1109 2.2127 7.7503 3.2435 13.388 5.2287 28.661 8.2819 45.986 8.9676z"/><path d="m87.88 45.484 0.2776 1.3572-0.0065 0.76137c-4.1918 1.7854-15.701 6.5283-18.568 2.1588 1.9208-4.4073 13.687-4.7427 18.297-4.2773z"/><path d="m87.025 41.498 0.12972 1.5668-0.11004 0.85706c-3.8859 1.5901-18.214 5.31-21.215-0.57567 2.3011-3.8683 16.023-2.9204 21.195-1.8482z"/><path d="m84.634 37.615-0.1875 1.5609-0.78316 1.7522c-4.126 0.77756-20.419 0.68214-22.536-7.3398 3.0309-3.3276 18.656 1.9379 23.507 4.0266z"/><path d="m91.23 48.041 0.458 1.3074 0.09617 0.7553c-3.9129 2.3341-14.678 8.5851-18.108 4.6419 1.1047-3.8091 12.905-6.4722 17.553-6.7046z"/><path d="m89.807 50.433 0.57185 0.9563 0.20726 0.58073c-2.4364 2.5008-9.1704 9.2462-12.392 6.7055 0.11652-3.1953 8.2579-7.2792 11.613-8.2425z"/><path d="m92.161 50.408 0.79018 0.78558 0.34418 0.51161c-1.7438 3.0248-6.6046 11.224-10.354 9.5566-0.67573-3.1252 6.2058-9.0922 9.2193-10.854z"/><path d="m95.167 51.565 0.87478 0.69014 0.40039 0.46892c-1.3867 3.2042-5.2788 11.905-9.1938 10.677-1.0284-3.0275 5.1262-9.7418 7.9187-11.836z"/><path d="m100.52 52.809 2.056 0.85965c-0.47566 3.458-2.891 11.896-6.5046 12.668-1.8713-3.8626 2.3213-10.761 4.4486-13.528z"/><path d="m97.605 51.982 0.98596 0.51904 0.47919 0.38805c-0.77915 3.4034-3.0193 12.668-7.0926 12.175-1.5633-2.7892 3.2637-10.513 5.6274-13.082z"/><path d="m97.672 52.671c-1.2243 2.8712-2.0167 6.0227-1.0485 8.0967 2.1519-0.65303 3.8349-4.4643 4.8684-7.9985a7.9271 8.555 0 0 1-1.7358 0.20877 7.9271 8.555 0 0 1-2.0841-0.30696z"/><path d="m95.099 50.922c-1.8407 2.8846-3.4012 6.341-2.637 8.7645 2.5235-0.41589 4.9806-4.9612 6.4462-8.6602a7.2992 6.5536 32.924 0 1-2.7789-1.1296 7.2992 6.5536 32.924 0 1-0.23525-0.16341c-0.26685 0.38198-0.53357 0.77907-0.79497 1.1887z"/><path d="m93.084 49.505c-2.395 2.4439-4.6335 5.5052-4.3845 8.0341 2.5551 0.11241 5.8951-3.8299 8.0907-7.148a7.2992 6.5536 44.802 0 1-2.4869-1.6774 7.2992 6.5536 44.802 0 1-0.19658-0.20833c-0.33975 0.31888-0.6825 0.65256-1.0226 0.99964z"/><path d="m91.465 47.531c-2.8864 1.8378-5.7604 4.3122-6.0908 6.8317 2.4631 0.68839 6.6095-2.3946 9.4998-5.129a7.2992 6.5536 57.897 0 1-2.0422-2.1972 7.2992 6.5536 57.897 0 1-0.14427-0.24746c-0.40317 0.23361-0.8126 0.48096-1.2225 0.74195z"/><path d="m89.594 45.228c-3.2873 0.94994-6.7421 2.5143-7.7691 4.8386 2.1694 1.3546 7.0165-0.4351 10.56-2.2442a7.2992 6.5536 74.264 0 1-1.3403-2.6837 7.2992 6.5536 74.264 0 1-0.06869-0.27808c-0.45266 0.11054-0.9152 0.23249-1.382 0.3674z"/><path d="m93.224 41.438 0.4837 1.9557c-3.0809 1.5957-11.319 4.5894-14.024 2.4312 2.0604-3.505 10.07-4.3622 13.54-4.3868z"/><path d="m92.7 38.831 0.16742 2.0076c-3.2949 1.0869-11.904 2.7361-14.232 0.17628 2.5902-3.1339 10.635-2.7099 14.064-2.1839z"/><path d="m107.4 44.315s-1.9308 6.8462-7.8845 6.5222c-1.5801-0.08601-3.3451-0.85364-4.4025-2.3489-2.6405-3.7338 2.9287-9.4486-1.5696-13.981-4.023-4.0539-6.7938-0.4998-29.837-4.9353-18.864-3.631-31.567-7.7973-31.567-7.7973 1.6841 2.763 15.364 7.9531 30.667 12.026 10.801 2.8752 21.461 3.9893 22.793 4.9791 3.9289 2.9194 0.10924 6.9138 3.741 12.573 1.6164 2.5187 4.4703 4.3148 7.9273 4.725 7.3386 0.8708 10.118-2.8469 11.485-6.5333z"/></g></g><g transform="translate(-.89009)" fill="#ffd700" stroke-linejoin="round" stroke-width=".81266"><g transform="translate(.38496)"><g transform="matrix(-1 0 0 1 226.79 -.26458)"><path d="m103.2 72.837 2.2366 0.05802c0.7611 3.4476 1.4367 12.321-1.6959 14.38-3.1125-2.968-1.5763-11.037-0.54068-14.438z"/><path d="m105.93 76.347 2.4722-0.06799c1.0546 3.3993 2.3525 12.22-0.9768 14.453-3.62-2.7881-2.4267-10.931-1.4954-14.385z"/></g><g transform="translate(0 -.26458)"><path d="m103.2 72.837 2.2366 0.05802c0.7611 3.4476 1.4367 12.321-1.6959 14.38-3.1125-2.968-1.5763-11.037-0.54068-14.438z"/><path d="m105.93 76.347 2.4722-0.06799c1.0546 3.3993 2.3525 12.22-0.9768 14.453-3.62-2.7881-2.4267-10.931-1.4954-14.385z"/></g></g><g transform="translate(-.44712)"><path d="m114.23 76.612-3.3868 0.15947-1.2835 0.15948c-0.64106 3.4805-0.81584 12.288 2.9247 13.947 1.2855-1.2503 1.7463-3.1492 1.7456-5.1994z"/><path d="m114.23 76.612 3.3868 0.15947 1.2835 0.15948c0.64106 3.4805 0.81584 12.288-2.9247 13.947-1.2855-1.2503-1.7463-3.1492-1.7456-5.1994z"/></g><g transform="matrix(-1,0,0,1,227.61,0)"><path d="m127.96 68.5-2.2192-0.28455c-1.2792 3.2907-3.3032 11.956-0.52231 14.471 3.5296-2.4573 3.245-10.667 2.7415-14.186z"/><path d="m123.35 69.798-2.5958-0.14788c-1.2499 3.363-2.9809 12.137 0.42604 14.475 3.9212-2.6692 3.0053-10.846 2.1698-14.328z"/><path d="m113.83 71.154h4.352c0.99118 3.3739 2.1278 11.826-1.2338 13.933-3.6908-2.1959-4.1272-10.469-3.1182-13.933z"/></g><g transform="translate(-.048215)"><path d="m127.96 68.5-2.2192-0.28455c-1.2792 3.2907-3.3032 11.956-0.52231 14.471 3.5296-2.4573 3.245-10.667 2.7415-14.186z"/><path d="m123.35 69.798-2.5958-0.14788c-1.2499 3.363-2.9809 12.137 0.42604 14.475 3.9212-2.6692 3.0053-10.846 2.1698-14.328z"/><path d="m113.83 71.154h4.352c0.99118 3.3739 2.1278 11.826-1.2338 13.933-3.827-2.3111-4.1352-10.507-3.1182-13.933z"/></g><g transform="translate(.08801)"><g transform="matrix(-1,0,0,1,227.38,0)"><path d="m127.27 60.291-1.9928 0.29555c-0.30544 3.4561-2e-3 10.159 3.0792 13.896 2.4267-3.7018 0.20902-10.973-1.0864-14.191z"/><path d="m124.28 61.366-2.2326 0.1446c-0.62701 3.4745-0.9584 12.367 2.2516 14.304 2.9952-3.0863 1.1476-11.09-0.0189-14.448z"/><path d="m118.92 63.198-2.2185 0.28937c-0.39991 3.5079-0.15276 12.403 3.1763 14.127 2.7883-3.2744 0.42458-11.141-0.95775-14.417z"/></g><path d="m127.27 60.291-1.9928 0.29555c-0.30544 3.4561-2e-3 10.159 3.0792 13.896 2.4267-3.7018 0.20902-10.973-1.0864-14.191z"/><path d="m124.28 61.366-2.2326 0.1446c-0.62701 3.4745-0.9584 12.367 2.2516 14.304 2.9952-3.0863 1.1476-11.09-0.0189-14.448z"/><path d="m118.92 63.198-2.2185 0.28937c-0.39991 3.5079-0.15276 12.403 3.1763 14.127 2.7883-3.2744 0.42458-11.141-0.95775-14.417z"/></g><path d="m112.7 65.339h2.2285c0.89512 3.3739 1.9216 12.09-1.1142 14.197-3.2165-2.8418-2.0094-10.823-1.1142-14.197z"/><g transform="matrix(-1,0,0,1,227.56,0)"><path d="m105.2 55.215 0.81682 0.58947 0.8168 0.58947c-1.3182 3.2094-4.6707 9.022-9.125 10.923-0.45232-4.4031 4.8608-9.8395 7.4914-12.102z"/><path d="m106.42 55.855 0.90864 0.4348 0.9086 0.4348c-0.72638 3.3927-3.6517 11.656-7.0368 12.372-1.3962-3.8185 3.0333-10.547 5.2196-13.241z"/><path d="m108.06 56.997 1.975 0.39763c0.12739 3.4672-0.68326 12.195-3.7896 13.719-2.2896-3.3598 0.35544-10.969 1.8146-14.117z"/><path d="m111.04 58.006 2.2316 0.16028c0.60258 3.4788 0.87149 12.374-2.352 14.288-2.9735-3.1073-1.0697-11.098 0.12045-14.448z"/></g><path d="m105.2 55.215 0.81682 0.58947 0.8168 0.58947c-1.3182 3.2094-4.6707 9.022-9.125 10.923-0.45232-4.4031 4.8608-9.8395 7.4914-12.102z"/><path d="m106.42 55.855 0.90864 0.4348 0.9086 0.4348c-0.72638 3.3927-3.6517 11.656-7.0368 12.372-1.3962-3.8185 3.0333-10.547 5.2196-13.241z"/><path d="m108.06 56.997 1.975 0.39763c0.12739 3.4672-0.68326 12.195-3.7896 13.719-2.2896-3.3598 0.35544-10.969 1.8146-14.117z"/><path d="m111.04 58.006 2.2316 0.16028c0.60258 3.4788 0.87149 12.374-2.352 14.288-2.9735-3.1073-1.0697-11.098 0.12045-14.448z"/><path d="m119.59 50.59-1.5479 1.2894c1.5376 3.1102 5.285 8.6764 9.8604 10.264 0.14591-4.4239-5.5314-9.4787-8.3125-11.553z"/><path d="m107.97 50.59 0.77398 0.64469 0.77396 0.64469c-1.5376 3.1102-5.285 8.6764-9.8604 10.264-0.14591-4.4239 5.5313-9.4787 8.3125-11.553z"/><path d="m118.59 49.162-1.902 0.6642c0.34836 3.452 2.346 11.987 5.6317 13.071 1.8083-3.6416-1.8534-10.817-3.7297-13.735z"/><path d="m108.97 49.162 0.95099 0.3321 0.95096 0.3321c-0.34836 3.452-2.346 11.987-5.6317 13.071-1.8083-3.6416 1.8534-10.817 3.7297-13.735z"/><path d="m112.8 52.994h2.0146c0.80921 3.3739 1.7372 12.09-1.0073 14.197-2.9078-2.8418-1.8165-10.823-1.0073-14.197z"/><g transform="translate(.05316)"><path d="m115.58 49.384-1.975 0.39763c-0.12739 3.4672 0.68326 12.195 3.7896 13.719 2.2897-3.3598-0.35544-10.969-1.8146-14.117z"/><path d="m111.87 49.384 1.975 0.39763c0.12739 3.4672-0.68326 12.195-3.7896 13.719-2.2897-3.3598 0.35544-10.969 1.8146-14.117z"/></g><g transform="translate(.22178)"><path d="m116.57 43.768-1.7224 1.045c1.0582 3.3042 3.9366 9.3656 8.2252 11.615 1.0468-3.9449-4.0609-10.196-6.5027-12.66z"/><path d="m110.5 43.768 0.86121 0.52248 0.8612 0.52248c-1.0582 3.3042-3.9366 9.3656-8.2252 11.615-0.8019-4.353 4.0609-10.196 6.5027-12.66z"/></g><g transform="translate(.24742)"><path d="m116.04 43.723-2.1156 0.49493c0.0482 3.4693 1.1074 10.108 4.8362 13.515 1.5208-4.635-0.97295-10.938-2.7206-14.009z"/><path d="m111.02 43.723 2.1156 0.49493c-0.0482 3.4693-1.1074 10.108-4.8362 13.515-1.5208-4.635 0.97295-10.938 2.7206-14.009z"/></g><path d="m112.8 43.998h2.0146c0.80921 3.3739 1.7372 11.296-1.0073 13.403-2.9078-2.8418-1.8165-10.03-1.0073-13.403z"/></g><g transform="translate(-.825)" fill="#ffd700" stroke-width=".81266"><path d="m106.85 45.294c-0.27866 0.74946-0.4074 3.4914 0.71624 4.2561 1.2926-0.62033 1.7077-3.2885 2.0991-3.9569 0.17826 0.71128-0.23012 3.38 0.82011 4.3305 1.2674-0.6661 1.578-3.3465 1.9089-4.083 0.23729 0.66007 0.18817 3.3564 1.3565 4.1713 1.1683-0.81495 1.1187-3.5112 1.356-4.1713 0.33094 0.73643 0.64153 3.4168 1.9089 4.083 1.0502-0.95052 0.64184-3.6192 0.82011-4.3305 0.39135 0.6684 0.80651 3.3365 2.0991 3.9569 1.1053-0.42933 1.0591-2.9834 0.76275-4.4064-0.50509-2.4252-2.058-4.1236-1.7012-4.8529 0.72764 0.55177 2.0175 1.7874 3.1952 1.5296 0.18654-0.99076-9e-3 -3.4278-1.6655-5.1418 1.3994-0.80985 3.908-2.1848 3.7119-4.0052-2.1639-0.27547-4.2813 0.42986-5.543 0.33317-2.7058-0.20738-4.7598-0.54621-6.9911-0.53029v3.4e-5c-0.74377 0.0053-1.4853 0.09405-2.2402 0.32246-1.0098 0.30555-2.1806 0.93688-2.498 1.943-0.0198 0.06287-0.0367 0.12562-0.0512 0.1881-2.136-0.02296-4.9631 0.63286-5.8601 2.7575-0.48126 1.1398-0.48201 3.9475 0.44028 4.1817 0.76434 0.19406 0.60416-1.0153 1.666-1.7963 1.512-1.112 3.8383-0.67956 4.6212 1.897-0.2359 1.157-0.59452 2.4168-0.93197 3.3243z" stroke-linejoin="round"/><path d="m108.4 36.614c1.4017 4.7934 6.4562 3.9611 7.594-1.0849" fill="#ffd700"/><path d="m108.4 36.614c1.4017 4.7934 6.4562 3.9611 7.594-1.0849m-2.4249 0.82231a1.5369 1.5369 0 0 1 0.79761 1.3474 1.5369 1.5369 0 0 1-1.5369 1.5369 1.5369 1.5369 0 0 1-1.5369-1.5369 1.5369 1.5369 0 0 1 0.42367-1.0596m-4.7697-1.8333c-0.23622 3.0726 6.7076 1.8557 10.222 0.54243m-9.4561 7.0537c0.21524-0.85539 0.37362-1.6887 0.38116-2.3371 0.022-1.8878-1.6912-3.5224-1.1232-5.3228" fill="none"/></g><g transform="matrix(-1,0,0,1,225.78,0)" stroke-linecap="round" stroke-linejoin="round" stroke-width=".81266"><path d="m13.925 69.154c2.1101 60.326 36.207 109.36 80.526 120.19a31.348 31.348 0 0 1-12.91-25.327 31.348 31.348 0 0 1 10.882-23.716c-12.347-8.4276-22.287-24.314-27.071-44.698z" fill="#ffd700" stop-color="#000000"/><path d="m83.2 173.98c-19.448-4.0983-39.995-24.002-46.424-51.393l-14.375-7.0075m59.268 51.044c-17.224-6.7764-33.922-25.131-39.601-49.328l-22.609-11.242m62.515 52.986c-15.373-8.0982-29.486-25.184-34.615-47.035l-30.099-15.094m66.734 54.967c-14.071-8.692-26.581-24.874-31.343-45.164l-36.978-18.632m72.251 57.033c-13.523-8.9782-25.476-24.497-29.982-43.693l-43.327-21.897" fill="none" stop-color="#000000"/></g><g stroke-linecap="round" stroke-linejoin="round" stroke-width=".81266"><path d="m13.925 69.154c2.1101 60.326 36.207 109.36 80.526 120.19a31.348 31.348 0 0 1-12.91-25.327 31.348 31.348 0 0 1 10.882-23.716c-12.347-8.4276-22.287-24.314-27.071-44.698z" fill="#ffd700" stop-color="#000000"/><path d="m83.2 173.98c-19.448-4.0983-39.995-24.002-46.424-51.393l-14.375-7.0075m59.268 51.044c-17.224-6.7764-33.922-25.131-39.601-49.328l-22.609-11.242m62.515 52.986c-15.373-8.0982-29.486-25.184-34.615-47.035l-30.099-15.094m66.734 54.967c-14.071-8.692-26.581-24.874-31.343-45.164l-36.978-18.632m72.251 57.033c-13.523-8.9782-25.476-24.497-29.982-43.693l-43.327-21.897" fill="none" stop-color="#000000"/></g><path d="m112.89 128.66a35.359 35.359 0 0 0-35.359 35.359 35.359 35.359 0 0 0 35.359 35.359 35.359 35.359 0 0 0 35.359-35.359 35.359 35.359 0 0 0-35.359-35.359zm0.15658 1.5674a16.252 16.252 0 0 1 16.095 16.407 16.252 16.252 0 0 1-16.408 16.096 16.252 16.252 0 0 1-16.095-16.408 16.252 16.252 0 0 1 16.408-16.095z" fill="#ffd700" stop-color="#000000" stroke-linecap="round" stroke-linejoin="round" stroke-width=".81266"/><circle transform="scale(1,-1)" cx="112.89" cy="-153.06" r="24.406" fill="none" stop-color="#000000" stroke-linecap="round" stroke-linejoin="round" stroke-width=".81266"/><path transform="matrix(1.0119 -.1112 .1112 1.0119 -7.704 19.95)" d="m112.18 150.32-8.9111-5.4235-9.759 3.4612 2.4044-10.151-6.3075-8.2118 10.397-0.8501 5.8608-8.5364 4.0214 9.6256 9.9297 2.936-7.9118 6.799z" fill="#ffd700" stop-color="#000000" stroke-linecap="round" stroke-linejoin="round" stroke-width=".79828"/><path d="m103.23 159.45 14.638-19.723m-20.254 1.8602 23.342 7.4328m1.5896 10.43-14.638-19.723m20.254 1.8602-23.342 7.4328m8.066-18.526 0.0417 24.33" fill="none" stroke-linecap="round" stroke-width=".81266"/><g stroke-width=".81266"><path d="m117.63 201.21c1.5869-0.11587 3.628 1.0725 5.9052 0.10784 4.786-2.0275 1.4398-9.8696-1.8949-10.018-2.6274-0.11704-3.3319 1.1627-4.6911 1.0468-1.1087-0.0945-1.789-1.7845-4.0646-1.7845s-2.9559 1.69-4.0646 1.7845c-1.3592 0.11587-2.0638-1.1639-4.6912-1.0468-3.3348 0.14855-6.6809 7.9907-1.8949 10.018 2.2772 0.96468 4.3183-0.22371 5.9052-0.10784 1.2944 0.0945 2.0886 1.7845 4.7454 1.7845s3.451-1.69 4.7454-1.7845z" fill="#ffd700"/><path d="m118.54 194.29c-2.893 5.194 7.8552 6.7907 5.7757-1.2491m-19.857 8.6469c2.4588-0.085 4.179-5.2987-0.12545-6.143" fill="none" stroke-linecap="round"/><g fill="#ffd700"><g stroke="#6c2c0b" stroke-linecap="round" stroke-width=".81266"><path d="m90.698 185.29c-0.09572-2.0686-1.3188-4.0101-3.8767-4.8249-1.4843-0.47281-5.2569 0.11034-8.5001-0.88867-7.6486-2.356-15.369-6.8355-21.748-10.746 6.6016 5.9127 13.743 10.893 21.404 14.532 7.5802 3.6009 9.8572 7.2984 14.254 12.188 2.4773 2.7549 5.8397 2.5629 7.5483 1.2974 2.825-2.0924 1.4803-7.1987-2.5947-7.3125 0.21945-2.9544-2.5772-5.8974-6.4869-4.2459z" fill="#ffd700" stop-color="#000000" stroke-linejoin="round"/><path d="m91.933 184.9c-2.5194 0.46991-3.6775 3.7089-1.9264 5.6723 1.4036 1.5738 3.8121 1.5359 4.5382 0.2675 0.2769-0.48366 0.25855-1.1714-0.07891-1.9799m3.7757 0.84551c-1.5994-0.49431-2.9619 0.18007-3.6968 1.1344-0.48632 0.63152-0.49472 1.5101-0.04412 2.3895" fill="none"/></g></g><g transform="matrix(-1,0,0,1,225.78,0)" fill="#ffd700"><g stroke="#6c2c0b" stroke-linecap="round" stroke-width=".81266"><path d="m90.698 185.29c-0.09572-2.0686-1.3188-4.0101-3.8767-4.8249-1.4843-0.47281-5.2569 0.11034-8.5001-0.88867-7.6486-2.356-15.369-6.8355-21.748-10.746 6.6016 5.9127 13.743 10.893 21.404 14.532 7.5802 3.6009 9.8572 7.2984 14.254 12.188 2.4773 2.7549 5.8397 2.5629 7.5483 1.2974 2.825-2.0924 1.4803-7.1987-2.5947-7.3125 0.21945-2.9544-2.5772-5.8974-6.4869-4.2459z" fill="#ffd700" stop-color="#000000" stroke-linejoin="round"/><path d="m91.933 184.9c-2.5194 0.46991-3.6775 3.7089-1.9264 5.6723 1.4036 1.5738 3.8121 1.5359 4.5382 0.2675 0.2769-0.48366 0.25855-1.1714-0.07891-1.9799m3.7757 0.84551c-1.5994-0.49431-2.9619 0.18007-3.6968 1.1344-0.48632 0.63152-0.49472 1.5101-0.04412 2.3895" fill="none"/></g></g></g></g></g></g></svg>
