<?xml version="1.0" encoding="UTF-8" standalone="no"?>
<svg xmlns="http://www.w3.org/2000/svg" width="900" height="600">
<path d="M0,0h900v600H0z" fill="#fff"/>
<path d="M0,0h450v300H0z" fill="#d00"/>
<path d="M420,0v270H0v60h420v270h60v-270h420v-60h-420V0z" fill="#000"/>
<path d="M74.9,45.2l18.9,58l-48.6-35.6h59.4l-48.6,35.6zM250,21.5l18.9,58l-48.6-35.6h59.4l-48.6,35.6zM104.9,175.2l18.9,58l-48.6-35.6h59.4l-48.6,35.6zM255,146.5l18.9,58l-48.6-35.6h59.4l-48.6,35.6zM365,195l18.9,58l-48.6-35.6h59.4l-48.6,35.6z" fill="#fff"/>
</svg>