<svg id="svg2" xmlns="http://www.w3.org/2000/svg" viewBox="0 0 217 217">
  <defs>
    <style>
      .cls-1 {
        fill: #fff;
      }

      .cls-2 {
        fill: #002080;
      }

      .cls-3, .cls-4, .cls-5 {
        fill: #ffec2d;
      }

      .cls-4 {
        fill-rule: evenodd;
      }

      .cls-5 {
        stroke: #fec50c;
        stroke-width: 0.09px;
      }
    </style>
  </defs>
  <path id="rect4081" class="cls-1" d="M0,0V217H217V0Z"/>
  <g id="_000063ff" data-name="#000063ff">
    <path id="path5" class="cls-2" d="M0,0H217V217H0V0M8,8V209H209V8Z"/>
  </g>
  <g id="_ffc700ff" data-name="#ffc700ff">
    <path id="path13" class="cls-3" d="M24,24H193q0,84.5,0,169H24q0-84.5,0-169M40,40V177H177V40Z"/>
    <g id="g3874">
      <g id="use3659">
        <path id="be" class="cls-3" d="M115,67.85a1.94,1.94,0,0,0,2.49-1.7c.3-1.52-.35-9.22-.35-9.22s-3.5,6.86-3.8,8.39A2,2,0,0,0,115,67.85Z"/>
      </g>
      <g id="use3661">
        <path id="be-2" data-name="be" class="cls-3" d="M120.47,69.55a1.94,1.94,0,0,0,2.77-1.18c.59-1.44,1.44-9.11,1.44-9.11s-4.76,6-5.35,7.47A2,2,0,0,0,120.47,69.55Z"/>
      </g>
      <g id="use3663">
        <path id="be-3" data-name="be" class="cls-3" d="M125.56,72.3a1.92,1.92,0,0,0,2.94-.61c.86-1.29,3.17-8.65,3.17-8.65s-5.83,5-6.69,6.27A2,2,0,0,0,125.56,72.3Z"/>
      </g>
      <g id="use3665">
        <path id="be-4" data-name="be" class="cls-3" d="M130,76a1.92,1.92,0,0,0,3,0c1.09-1.1,4.78-7.85,4.78-7.85S131.12,71.86,130,73A2,2,0,0,0,130,76Z"/>
      </g>
      <g id="use3667">
        <path id="be-5" data-name="be" class="cls-3" d="M133.68,80.51a1.93,1.93,0,0,0,2.95.58c1.28-.87,6.2-6.77,6.2-6.77s-7.27,2.34-8.55,3.21A2,2,0,0,0,133.68,80.51Z"/>
      </g>
      <g id="use3669">
        <path id="be-6" data-name="be" class="cls-3" d="M136.4,85.65a1.93,1.93,0,0,0,2.78,1.15c1.42-.59,7.39-5.41,7.39-5.41s-7.59.86-9,1.46A2,2,0,0,0,136.4,85.65Z"/>
      </g>
      <g id="use3671">
        <path id="be-7" data-name="be" class="cls-3" d="M138.07,91.23a1.94,1.94,0,0,0,2.51,1.68c1.51-.3,8.29-3.85,8.29-3.85s-7.61-.65-9.12-.35A2,2,0,0,0,138.07,91.23Z"/>
      </g>
      <g id="use3673">
        <path id="be-8" data-name="be" class="cls-3" d="M138.64,97a2,2,0,0,0,2.13,2.14c1.54,0,8.88-2.14,8.88-2.14s-7.34-2.14-8.88-2.14A1.94,1.94,0,0,0,138.64,97Z"/>
      </g>
      <g id="use3675">
        <path id="be-9" data-name="be" class="cls-3" d="M138.07,102.85a2,2,0,0,0,1.68,2.52c1.51.3,9.12-.35,9.12-.35s-6.78-3.55-8.29-3.85A1.94,1.94,0,0,0,138.07,102.85Z"/>
      </g>
      <g id="use3677">
        <path id="be-10" data-name="be" class="cls-3" d="M136.4,108.43a2,2,0,0,0,1.16,2.8c1.42.6,9,1.46,9,1.46s-6-4.82-7.39-5.41A1.92,1.92,0,0,0,136.4,108.43Z"/>
      </g>
      <g id="use3679">
        <path id="be-11" data-name="be" class="cls-3" d="M133.68,113.57a2,2,0,0,0,.6,3c1.28.87,8.55,3.21,8.55,3.21s-4.92-5.9-6.2-6.77A1.92,1.92,0,0,0,133.68,113.57Z"/>
      </g>
      <g id="use3681">
        <path id="be-12" data-name="be" class="cls-3" d="M130,118.08a2,2,0,0,0,0,3c1.09,1.1,7.77,4.83,7.77,4.83s-3.69-6.75-4.78-7.85A1.91,1.91,0,0,0,130,118.08Z"/>
      </g>
      <g id="use3683">
        <path id="be-13" data-name="be" class="cls-3" d="M125.56,121.78a2,2,0,0,0-.58,3c.86,1.29,6.69,6.27,6.69,6.27s-2.31-7.36-3.17-8.65A1.92,1.92,0,0,0,125.56,121.78Z"/>
      </g>
      <g id="use3685">
        <path id="be-14" data-name="be" class="cls-3" d="M120.47,124.53a2,2,0,0,0-1.14,2.82c.59,1.44,5.35,7.47,5.35,7.47s-.85-7.67-1.44-9.11A1.93,1.93,0,0,0,120.47,124.53Z"/>
      </g>
      <g id="use3687">
        <path id="be-15" data-name="be" class="cls-3" d="M92.85,121.78a1.94,1.94,0,0,0-2.95.61c-.85,1.29-3.16,8.65-3.16,8.65s5.83-5,6.69-6.27A2,2,0,0,0,92.85,121.78Z"/>
      </g>
      <g id="use3689">
        <path id="be-16" data-name="be" class="cls-3" d="M88.39,118.08a1.93,1.93,0,0,0-3,0c-1.08,1.1-4.77,7.85-4.77,7.85s6.68-3.73,7.77-4.83A2,2,0,0,0,88.39,118.08Z"/>
      </g>
      <g id="use3691">
        <path id="be-17" data-name="be" class="cls-3" d="M84.73,113.57a1.93,1.93,0,0,0-3-.58c-1.28.87-6.2,6.77-6.2,6.77s7.27-2.34,8.55-3.21A2,2,0,0,0,84.73,113.57Z"/>
      </g>
      <g id="use3693">
        <path id="be-18" data-name="be" class="cls-3" d="M82,108.43a1.93,1.93,0,0,0-2.78-1.15c-1.43.59-7.39,5.41-7.39,5.41s7.59-.86,9-1.46A2,2,0,0,0,82,108.43Z"/>
      </g>
      <g id="use3695">
        <path id="be-19" data-name="be" class="cls-3" d="M80.34,102.85a1.94,1.94,0,0,0-2.51-1.68c-1.51.3-8.29,3.85-8.29,3.85s7.6.65,9.11.35A2,2,0,0,0,80.34,102.85Z"/>
      </g>
      <g id="use3697">
        <path id="be-20" data-name="be" class="cls-3" d="M79.77,97a2,2,0,0,0-2.14-2.14c-1.54,0-8.87,2.14-8.87,2.14s7.33,2.14,8.87,2.14A1.94,1.94,0,0,0,79.77,97Z"/>
      </g>
      <g id="use3699">
        <path id="be-21" data-name="be" class="cls-3" d="M80.34,91.23a2,2,0,0,0-1.69-2.52c-1.51-.3-9.11.35-9.11.35s6.78,3.55,8.29,3.85A1.94,1.94,0,0,0,80.34,91.23Z"/>
      </g>
      <g id="use3701">
        <path id="be-22" data-name="be" class="cls-3" d="M82,85.65a2,2,0,0,0-1.16-2.8c-1.42-.6-9-1.46-9-1.46s6,4.82,7.39,5.41A1.92,1.92,0,0,0,82,85.65Z"/>
      </g>
      <g id="use3703">
        <path id="be-23" data-name="be" class="cls-3" d="M84.73,80.51a2,2,0,0,0-.6-3c-1.28-.87-8.55-3.21-8.55-3.21s4.92,5.9,6.2,6.77A1.92,1.92,0,0,0,84.73,80.51Z"/>
      </g>
      <g id="use3705">
        <path id="be-24" data-name="be" class="cls-3" d="M88.39,76a2,2,0,0,0,0-3c-1.09-1.1-7.77-4.83-7.77-4.83S84.3,74.88,85.38,76A1.92,1.92,0,0,0,88.39,76Z"/>
      </g>
      <ellipse id="circle3707" class="cls-3" cx="109.17" cy="97.07" rx="25.91" ry="26.2"/>
      <g id="use3709">
        <path id="be-25" data-name="be" class="cls-3" d="M109.2,67.28a2,2,0,0,0,2.12-2.16c0-1.56-2.12-9-2.12-9s-2.11,7.41-2.11,9A1.94,1.94,0,0,0,109.2,67.28Z"/>
      </g>
      <g id="use3711">
        <path id="be-26" data-name="be" class="cls-3" d="M115,126.23a2,2,0,0,0-1.66,2.53c.3,1.53,3.8,8.39,3.8,8.39s.65-7.7.35-9.22A1.93,1.93,0,0,0,115,126.23Z"/>
      </g>
      <g id="use3713">
        <path id="be-27" data-name="be" class="cls-3" d="M109.2,126.8a2,2,0,0,0-2.11,2.16c0,1.56,2.11,9,2.11,9s2.12-7.41,2.12-9A2,2,0,0,0,109.2,126.8Z"/>
      </g>
      <g id="use3715">
        <path id="be-28" data-name="be" class="cls-3" d="M103.46,126.23a1.94,1.94,0,0,0-2.49,1.7c-.3,1.52.34,9.22.34,9.22s3.51-6.86,3.81-8.39A2,2,0,0,0,103.46,126.23Z"/>
      </g>
      <g id="use3717">
        <path id="be-29" data-name="be" class="cls-3" d="M97.94,124.53a1.94,1.94,0,0,0-2.77,1.18c-.59,1.44-1.44,9.11-1.44,9.11s4.76-6,5.35-7.47A2,2,0,0,0,97.94,124.53Z"/>
      </g>
      <g id="use3719">
        <path id="be-30" data-name="be" class="cls-3" d="M92.85,72.3a2,2,0,0,0,.58-3C92.57,68,86.74,63,86.74,63s2.31,7.36,3.16,8.65A1.93,1.93,0,0,0,92.85,72.3Z"/>
      </g>
      <g id="use3721">
        <path id="be-31" data-name="be" class="cls-3" d="M97.94,69.55a2,2,0,0,0,1.14-2.82c-.59-1.44-5.35-7.47-5.35-7.47s.85,7.67,1.44,9.11A1.93,1.93,0,0,0,97.94,69.55Z"/>
      </g>
      <g id="use3723">
        <path id="be-32" data-name="be" class="cls-3" d="M103.46,67.85a2,2,0,0,0,1.66-2.53c-.3-1.53-3.81-8.39-3.81-8.39s-.64,7.7-.34,9.22A1.93,1.93,0,0,0,103.46,67.85Z"/>
      </g>
      <path id="path3729" class="cls-4" d="M97.58,155.2l.15.05.15.05.05.15,0,.15,0,.15-.05.15-.15.1h-.35l-.1-.1-.1-.15-.05-.15.05-.15.1-.15.1-.05.2-.05"/>
      <path id="path3731" class="cls-4" d="M97.52,155.4l.1,0,0,.1,0,.1-.1,0-.1,0,0-.1,0-.1.1,0"/>
      <path id="path3733" class="cls-3" d="M97.56,156.09a.47.47,0,0,1-.46-.46.46.46,0,0,1,.46-.46.45.45,0,0,1,.45.46A.46.46,0,0,1,97.56,156.09Z"/>
      <g id="g3920">
        <path id="path3725" class="cls-4" d="M108.71,139.33l-.41.9-.45,1.15-.27.55-.22.5-.18.4-.23.24-.54-.49-.59-.45-.63-.35-.68-.3-.72-.2-.72-.2-.72-.15-.77-.1-1.58-.15-1.58-.05-1.53-.1-1.44-.2-.82-.15-.76-.2-.41-.15-.4-.15-.37-.2-.31-.2-.5-.35-.49-.4-.54-.45-.5-.5-1-1.1-1-1.1-1-1-.95-1-.45-.35-.45-.35-.41-.2-.4-.15-.77-.2-.68-.25-.67-.25-.68-.35-.59-.3-.58-.4-.55-.4-.49-.4-.54-.45-.45-.45-.46-.5-.45-.5-.85-1-.82-1.1-1.62-2.35L72.67,121l-1-1.15-1-1.15-.59-.6-.59-.55-.63-.5-.67-.55-.14.05-.14.15-.13.2-.09.25-.14.45,0,.2-.32-.15-.27-.15-.31-.15-.27-.1h-.59l-.32.1-.31.15.31.45.41.6.41.7.36.75.36.8.27.75.09.4.09.3,0,.35v.29H65l.36.6.4.6.46.6.49.55.5.55.49.55.5.45.45.35-.49.05-.68,0-.68.1-.49,0,.4.4.5.4.54.45.59.45.58.4.59.35.54.2.5.15.22,0,.18.05.14.05.09.1,0,0v.2l0,.1-.09.3,0,.3,0,.2v.15l0,.25,0,.2.09.1.13.1.18.1.23.05.22.1.23.1.23.1.18.15,0,.05v.1l0,.05-.18.15-.18.15-.19.2-.18.25v.2l0,.2,0,.25.05.3.77.3.81.3.36.1.36.15.27.15.23.15-1.49,1.3.4.4.5.3.63.35.63.25.72.25.68.15.59.15h.54l-.5.4-.63.45-.68.4-.49.4.45.35.63.35.72.4.86.45,2,.94,2.17,1,2.26.9,2.21.8,1,.35.9.25.81.25.72.15-1.44-.15-1.35-.2-1.36-.25-1.26-.3-1.26-.4-1.22-.4-1.17-.45-1.13-.5-2.21-1-2.08-1-1-.45-1-.45-1-.4-1-.4.23-.15.27-.1.36-.15.41-.1.85-.3.77-.3-1.35-.25-1.85-.4-.9-.3-.77-.25-.32-.15-.27-.15-.22-.15-.14-.15v0l0-.05.13,0,.14-.1.36-.15.5-.15,1.08-.35.9-.35L70,136l-1.71-.3-.64-.15-.49-.2-.18-.1-.18-.15-.14-.1-.09-.15.14-.1.4-.1.59-.1.68-.15.72-.1.63-.2L70,134l.27-.1.18-.15.18-.15-.36-.15-.37-.15-.45-.1-.45-.1L68,133l-1-.15-.54-.15-.5-.1-.5-.2-.49-.2-.45-.25-.41-.35-.36-.35-.27-.45.09-.05.18,0h.23l.36,0,.81.05.9.05,1,.1h1.27l.36-.05.27-.1.18-.1-1.08-.5-1.45-.7-.81-.45-.86-.45-.85-.5-.86-.5-.81-.55-.77-.6-.72-.6-.63-.6-.27-.35-.28-.3-.18-.3-.18-.35-.18-.3-.09-.35,0-.3,0-.35h.32l.36.05.36.15.36.15.72.5.82.5.36.25.4.25.41.2.36.15.41.1.36,0h.4l.36-.15-1.08-.9-1.22-1.15-1.4-1.34-1.39-1.5-1.4-1.6-1.31-1.6-.59-.85-.58-.8-.5-.8-.45-.75-.09-.2V113l0-.15.05-.15.13-.1.14-.15.13-.1.19,0,.18-.05h.36l.22.05.18,0,.18.15.14.15.81.9,1,1,1,1.15,1.08,1.15,1.09,1,1.08,1,.54.4.5.35.54.3.49.2-.36-.25-.4-.45-.55-.6-.58-.75-1.31-1.75-1.44-2-.73-1.1-.67-1.1-.63-1.1L57.65,110l-.55-1-.45-.9-.31-.85-.27-.7,0-.25v-.4l0-.15.09-.15.09-.15.09-.1.13-.1.32-.1.27-.1h.63l.18,0,.14,0,.18.1.13.15.36.35.36.5.82,1.15.85,1.45,1,1.55,1,1.6.54.75.55.75.58.65.63.6-.76-1.65-.86-1.9-.45-1-.41-1-.4-1.1-.36-1.1-.32-1.15-.32-1.1-.22-1.1-.18-1.1-.09-1-.05-1,.05-.5,0-.45,0-.45.09-.45.09-.15,0-.15.14-.15.09-.1.31-.15.32-.1h.32l.27,0,.13,0,.09.05.05.1,0,.15.45,1.6.41,1.7.41,1.74.4,1.7.41,1.7.54,1.6.27.75.32.75.36.7.4.7-.27-1.45-.18-1.3-.18-1.2L66,106l-.09-1-.05-.85.05-.7,0-.6.09-.5.13-.39.09-.15.09-.15.09-.1.14-.1.13,0h.41l.36.15.36.2.32,1.59.31,1.55.36,1.45.41,1.4.45,1.4.5,1.4.54,1.45.63,1.45.45.95.45,1,.5,1,.49,1,.54.9.55.9.58.9.59.9,1.08,1.49,1.13,1.4,1.17,1.4,1.22,1.3,1.26,1.3,1.31,1.2L84,130.18l1.4,1.1.95.7,1,.65,1,.65,1,.6,1.58.85,1.53.8,1.63.7,1.62.65,1.54.55,1.58.45,1.62.4,1.58.35,1.67.25,1.62.2,1.67.15,1.67.1"/>
        <path id="path3727" class="cls-4" d="M112.82,154.52l.77.1.36.15.09,0v.05H114l-.09,0-.73.15h-.58l-1.9-.15-2.3,0-2.48-.05-2.57.05-1.22,0-1.22.1-1.08.1-1,.1-.85.15-.77.2-.27.1-.27.1-.23.1-.18.15.09-.5.18-.5-.31.1-.32.1-.27.15-.27.15-.22.15-.19.2-.13.25,0,.25-.13-.35-.09-.3,0-.35,0-.3,0-.25,0-.3,0-.25.14-.25.09-.2.18-.25.18-.2.18-.2.5-.35.54-.35a3.76,3.76,0,0,0,1,.45,2.4,2.4,0,0,0,.94-.1,1.23,1.23,0,0,0,2-.5,2.59,2.59,0,0,0,0-1l.54,0,.63-.1.68-.2.72-.2.72-.15.68-.2.63-.1.54,0-.23.2-.54.45-.63.55-.45.35.59.15.49.1-.36.45-.36.45-.36.45-.27.4.36.15.36.1.41.1h.81l.41-.1.4-.1.32-.2.36.2.36.15.36.1.36.1.81.1.86.1h3.43"/>
        <path id="path3735" class="cls-4" d="M132.56,157l-.31.15-.32,0-.27.05-.23-.05-.22,0L131,157l-.18-.1-.22-.15-.36-.3-.37-.3-.18-.15-.22-.1-.18,0H129l-.4.95-.54,1.2-.18.3-.19.25-.18.15-.18.15-.22.1h-.23l-.22-.1-.27-.15-.09-.15-.09-.15-.09-.2-.09-.25-.09-.45,0-.3-.27.25-.27.35-.23.4-.27.45-.31.45-.32.35-.18.2-.22.15-.23.1-.27.1h-.14l-.22,0-.23,0-.18-.1-.54-.7-.59-.7-.4.7-.45.6-.23.25-.22.25-.23.2-.22.15-.19.1-.22,0h-.23l-.18,0-.18-.1-.13-.15-.18-.25-.09-.3-.09-.3-.18-.5-.05-.25-.09-.2-.09-.1h-.09l-1.22,2.2-.18.2-.31.15-.36.1-.37.1h-.4l-.32-.1-.09-.05-.13-.15,0-.1v-.2l.18-2.2-.13.05-.18.1-.18.1-.18.2-.37.45-.4.5-.41.55-.49.45-.23.2-.22.2-.28.15-.22,0-.32.05-.22-.05-.09,0-.09-.1,0-.15v-.15l0-.65.09-.65,0-.35,0-.3,0-.3-.18-.35-.27.45-.45.65-.54.65-.59.65-.31.25-.32.25-.27.1-.22.1-.1-.05h-.13l-.09-.1,0-.05-.09-.15,0-.15v-.2l0-.25,0-1.9-1.13.85-1.35.95-.32.15-.36.2-.31.1-.37.1-.31.1h-.32l-.31-.05-.27-.1.13-.4.14-.35.13-.35.18-.3.18-.3.18-.3.23-.25.23-.25.49-.4.59-.4.58-.3.68-.25.68-.2.76-.15.77-.15.77-.1,1.67-.1,1.71-.05h3.43l.86-.05.81,0,.81-.05.77-.1.76-.15.68-.15.68-.2.63-.3.59-.3.49-.4.5-.4.4-.55-.45-1,.36-.05.36-.1.37-.2.31-.25.14-.1.13-.15.09-.2.09-.15.05-.2V151l-.09-.2.76-.15.82-.1.85,0H128l1.84.1,1.9.15,1.94.25,1.89.2,1.85.2,1.72.1v.7l-.05.3-.09.3-.09.3-.09.25-.13.2-.18.25-.32.35-.41.3-.4.2-.45.1-.5.1-.5-.05-.45,0-.49-.15-.45-.25-.46-.25-.36-.35-.36-.4v.85l-.13,1.1-.09.55-.14.5-.09.2-.13.15-.09.15-.14.1m-36.27-4.7,1,.5.27-.25.36-.3.41-.25.36-.25,1.35-.6,1.17-.6.59-.25.5-.3.49-.3.41-.3,1-.75,1-.75,1-.7.9-.7.68-.6.54-.55.58-.6.64-.65.22-.25.27-.2.32-.2.36-.2.76-.39.77-.3,1-.3,1.13-.3,1.17-.25,1.31-.25,1.58-.2,1.58-.25,1.62-.2,1.58-.3.54-.1.5-.15.54-.15.54-.15.54-.75.86-1.05.58-.65.68-.6.77-.65.9-.65,1.35-.9,1.45-.8,1.48-.85,1.45-.75,1.35-.75,1.26-.7,1-.6.81-.6.23-.75.32-.75.4-.75.5-.75.54-.8.68-.8.72-.9.9-.95.81-.79.86-.8.45-.35.45-.35.5-.3.49-.3.5-.25.5-.2.54-.15.49-.15.54-.05.5,0,.54,0,.5.1-.05.6-.13.6-.18.6-.23.65-.31.65-.41.64-.5.7-.58.7.45,0,.4-.1.32-.1.32-.15.27-.1.31-.1.41,0,.45,0,0,.35v.35l0,.35-.09.3-.14.3-.18.3-.18.25-.22.25-.95,1-1,1,.54,0,.59.2.59.2.45.1-.54.45-.64.45-.63.45-.72.45-.72.45-.72.5-.72.55-.68.6.32.05.4.2.18.05.18.1.14.05.13-.05-.9.55-1.13.6-.54.3-.45.3-.22.15-.14.15-.09.15-.09.15,0,.2.09.15.19.15.13.15,0,.2-.09.15-.19.15-.18.15-.4.25-.54.25-.54.2-.5.2-.36.2-.27.15.9,1-.32.35-.31.25-.27.15-.32.15-.63.1h-.86l.09.45.14.45.09.5.09.5-.77.65-.94.74-1,.75-1.17.75-.68.4-.68.35-.72.3-.77.3-.81.3-.86.2-.9.2-.95.15,1.67.05h1.45l1.35-.15,1.22-.15,1.13-.25,1-.3,1-.4.95-.4,1.26-.65,1.22-.75,1.17-.8,1.22-.79-.72-.4-.72-.25-.36-.15-.37-.2-.4-.2-.41-.25.36-.3.41-.2.5-.2.54-.15,1.08-.25,1.13-.15,1-.15.9-.1.36-.1.32-.1.18-.1.13-.15,0-.05-.09-.1-.14-.05-.18-.1-.49-.1-.63-.1-.64-.05-.63-.1-.54-.15-.36-.15,1.22-.3,1.22-.3,1.08-.25.9-.25.77-.25.67-.3.32-.15.23-.15.22-.15.18-.2,0-.05-.09-.1-.18-.05-.23,0-.59-.05h-.67l-.72,0-.68-.05-.59-.1-.36-.1.32-.15.31-.15,1.09-.35.94-.3.86-.25.81-.3.86-.3.86-.4.4-.25.36-.25.14-.15.13-.2.14-.15,0-.15,0-.15-.14-.1-.13,0h-1.26l-.59,0h-.81l-.23,0-.18-.1-.18-.1,1.81-1.3,1.66-1.2,1.49-1,1.31-1,.54-.5.5-.5.4-.5.37-.5.27-.55.22-.55.14-.6v-.64h-.32l-.31,0-.37.14-.36.15-.72.5-.76.5-.41.25-.36.25-.41.2-.4.15-.36.1-.37.05h-.4l-.36-.15,1.08-.9,1.22-1.14,1.4-1.35,1.4-1.5,1.39-1.6,1.31-1.6.59-.85.58-.8.5-.8.45-.75.09-.2.05-.15-.05-.2,0-.15-.05-.15-.13-.1-.14-.15-.13,0-.18-.1-.19,0h-.36l-.18,0-.22.05-.14.15-.18.15-.81.9-.95,1.05-1,1.15-1.08,1.15-1.08,1-1.09,1-.54.4-.49.35-.55.3-.45.25.32-.3.4-.45.55-.6.58-.75,1.31-1.75,1.44-2,.73-1.1.67-1.1.68-1,.59-1.1.54-1,.45-.9.36-.85.22-.7,0-.25v-.4l0-.15-.09-.15-.09-.15-.09-.1-.13-.05-.27-.15-.32-.1h-.63l-.18.05-.14,0-.18.1-.13.15-.36.35-.36.5-.81,1.15-.86,1.45-.95,1.55-1,1.6-.58.75-.54.75-.59.65-.63.6.81-1.65.81-1.9.45-1,.41-1,.4-1.1.37-1.1.31-1.15.32-1.1.22-1.1.18-1.09.09-1.05,0-1,0-.5,0-.45,0-.45-.09-.45,0-.15L158,98.2l-.14-.15-.09-.1-.31-.15-.32-.1h-.32l-.27,0-.09,0-.13,0,0,.1,0,.15-.45,1.65-.41,1.65-.4,1.74-.41,1.7-.41,1.7-.54,1.6-.27.8-.31.7-.37.75-.4.65.27-1.45.18-1.3.18-1.2L153,106,153,105l.05-.85-.05-.7,0-.6-.09-.49-.14-.4-.09-.15-.09-.15-.09-.1-.14,0-.13,0-.14,0H152l-.14,0-.36.1-.36.2-.31,1.59-.32,1.55-.36,1.45-.41,1.4-.45,1.4-.49,1.4-.55,1.45-.63,1.45-.45,1-.45,1-.5,1-.49,1-.54.9-.54.9-.59.9-.59.9-1.08,1.5-1.13,1.39-1.17,1.4-1.22,1.3-1.26,1.3-1.31,1.2-1.35,1.15-1.4,1.1-.95.7-1,.7-1,.65-1,.65-1.58.8-1.57.8-1.63.65-1.62.65-1.36.45-1.35.45-1.4.35-1.4.35-1.39.25-1.45.2-1.4.2-1.44.1-.13,0-.14.05-.27.15-.32.25-.45.45-.58.6-.73.8-.85,1.05-.81,1-.95,1.15-.5.55-.49.55-.59.5-.59.5-.45.35-.45.3-.5.25-.49.25-1.08.5-1.09.45-1.08.45-1,.4-.4.2-.41.25-.36.2-.27.2-.27.3-.23.25-.13.25-.09.25,0,.35v.2"/>
        <path id="path3737" class="cls-5" d="M98.92,152.21a.17.17,0,0,1-.17-.18.17.17,0,1,1,.33,0A.17.17,0,0,1,98.92,152.21Z"/>
      </g>
    </g>
  </g>
</svg>
