<svg xmlns="http://www.w3.org/2000/svg" version="1.0" width="600" height="300">
  <path fill="#007600" style="fill:#009a49;fill-opacity:1" d="M0 0h600v300H0z"/>
  <clipPath id="a">
    <path d="M0 0h300v150H0z"/>
  </clipPath>
  <clipPath id="b">
    <path d="M150 75h150v75zv75H0zH0V0zV0h150z"/>
  </clipPath>
  <g clip-path="url(#a)">
    <path fill="#00247d" d="M0 0h300v150H0z"/>
    <path d="m0 0 300 150m0-150L0 150" stroke="#fff" stroke-width="30"/>
    <path d="m0 0 300 150m0-150L0 150" stroke="#cf142b" stroke-width="20" clip-path="url(#b)"/>
    <path d="M150 0v150M0 75h300" stroke="#fff" stroke-width="50"/>
    <path d="M150 0v150M0 75h300" stroke="#cf142b" stroke-width="30"/>
  </g>
  <g style="display:inline">
    <g style="display:inline;stroke-width:.4251917;stroke-miterlimit:4;stroke-dasharray:none">
      <path style="fill:#dbba2e;fill-opacity:1;stroke:#333;stroke-width:.4251917;stroke-linecap:butt;stroke-linejoin:miter;stroke-miterlimit:4;stroke-dasharray:none;stroke-opacity:1" d="M344.49101 405.71845c8.48873-3.17728 31.12274-.42522 28.51862-10.55276h6.10491c-1.39671 12.81898-22.0386 11.85358-34.62353 10.55276z" transform="matrix(1.8921 .18915 -.18915 1.8921 -100.99985494 -759.1216556)"/>
      <path style="fill:#dbba2e;fill-opacity:1;stroke:#333;stroke-width:.4251917;stroke-linecap:butt;stroke-linejoin:miter;stroke-miterlimit:4;stroke-dasharray:none;stroke-opacity:1" d="m375.36438 397.2588-5.05835-.43607c-1.21789-.56503-2.04301-3.83056.26164-4.79671l5.93048-.95934z" transform="matrix(1.8921 .18915 -.18915 1.8921 -100.99985494 -759.1216556)"/>
      <g style="stroke-width:.4251917;stroke-miterlimit:4;stroke-dasharray:none">
        <g style="stroke-width:.4251917;stroke-miterlimit:4;stroke-dasharray:none">
          <path d="M343.95264 289.58485c1.56025-.40862 3.14299-1.85375 4.97667-5.14027 1.33021-2.38415 1.25084-3.40148 2.76533-6.15548.87895-1.59831 2.35233-2.98117 4.6335-3.8467l19.84671-98.27519-3.74806 3.53234z" style="fill:#dbba2e;fill-opacity:1;stroke:#333;stroke-width:.4251917;stroke-linecap:butt;stroke-linejoin:miter;stroke-miterlimit:4;stroke-dasharray:none;stroke-opacity:1" transform="matrix(1.8921 .18915 -.18915 1.8921 -135.11986259 -341.35528748)"/>
          <path style="fill:#dbba2e;fill-opacity:1;stroke:#333;stroke-width:.4251917;stroke-linecap:butt;stroke-linejoin:miter;stroke-miterlimit:4;stroke-dasharray:none;stroke-opacity:1" d="m369.35383 182.44166-29.05536 87.1661c1.39295 1.87865 2.11128 4.8367 2.5165 8.29572l2.78735 9.07445 1.32699-2.53335c1.2668-2.41844 1.35512-5.48701 2.86961-8.24101.87895-1.59831 2.24805-3.08545 4.6335-4.26381l19.80824-93.73335z" transform="matrix(1.8921 .18915 -.18915 1.8921 -135.11986259 -341.35528748)"/>
          <path style="fill:#ffdb43;fill-opacity:1;stroke:none;stroke-width:.4251917;stroke-miterlimit:4;stroke-dasharray:none" d="m372.21875 181.65625-1.78125 1.53125-28.75 86.375c1.34223 2.1686 2.0287 4.94784 2.40625 8.15625.001.0108-.001.0204 0 .0312l1.8125 5.84375c.97784-2.04999 1.14399-5.02275 2.78125-8 .89271-1.62333 2.40113-3.16822 4.59375-4.40625l18.9375-89.53125z" transform="matrix(1.8921 .18915 -.18915 1.8921 -135.11986259 -341.35528748)"/>
          <path style="fill:#dbba2e;fill-opacity:1;stroke:#333;stroke-width:.4251917;stroke-linecap:butt;stroke-linejoin:miter;stroke-miterlimit:4;stroke-dasharray:none;stroke-opacity:1" d="m344.5028 282.20199 28.75149-103.38916-2.03294 2.32335-29.33232 96.99995z" transform="matrix(1.8921 .18915 -.18915 1.8921 -135.11986259 -341.35528748)"/>
        </g>
        <g style="stroke-width:.4251917;stroke-miterlimit:4;stroke-dasharray:none">
          <path style="color:#000;font-style:normal;font-variant:normal;font-weight:400;font-stretch:normal;font-size:medium;line-height:normal;font-family:Sans;-inkscape-font-specification:Sans;text-indent:0;text-align:start;text-decoration:none;text-decoration-line:none;letter-spacing:normal;word-spacing:normal;text-transform:none;direction:ltr;block-progression:tb;writing-mode:lr-tb;baseline-shift:baseline;text-anchor:start;display:inline;overflow:visible;visibility:visible;fill:#dfdfdf;fill-opacity:1;stroke:#333;stroke-width:.4251917;stroke-miterlimit:4;stroke-dasharray:none;stroke-opacity:1;marker:none;enable-background:accumulate" d="m369.09375 404.15625-1.78125.375 2.99506 14.19471c.9908 1.05852 1.57598.0491 1.78125-.375zm-5.625 2.5625-1.75.375 4.96875 23c.82539.80157 1.35923.43692 1.78125-.375zm-6.40625 2.875-1.75.375 7.375 34.125c.59375.3858 1.1875.81691 1.78125-.375zm-6.25 3.625-1.75.375 9.625 44.5c.49872.2364 1.08005 1.08086 1.78125-.375zm-6.375 3-1.75.375 12 55.5c.54578.2588 1.04347.90226 1.78125-.375zm-6.6875 3.5625-1.75.375 14.6875 67.9375c.59375.3625 1.1875.83346 1.78125-.375zm-8.43889 2.14028-1.75.375 18.59514 78.85972 1.78125-.375z" transform="matrix(1.8921 .18915 -.18915 1.8921 -100.99985494 -759.1216556)"/>
          <path style="color:#000;font-style:normal;font-variant:normal;font-weight:400;font-stretch:normal;font-size:medium;line-height:normal;font-family:Sans;-inkscape-font-specification:Sans;text-indent:0;text-align:start;text-decoration:none;text-decoration-line:none;letter-spacing:normal;word-spacing:normal;text-transform:none;direction:ltr;block-progression:tb;writing-mode:lr-tb;baseline-shift:baseline;text-anchor:start;display:inline;overflow:visible;visibility:visible;fill:#fff;fill-opacity:1;stroke:none;stroke-width:.4251917;stroke-miterlimit:4;stroke-dasharray:none;marker:none;enable-background:accumulate" d="m368.4375 404.28125-.46875.0937 2.99506 14.22596.46875-.125zm-5.59375 2.5625-.5.125 5 23 .46875-.125zM356.4375 409.75l-.5.0937 7.40625 34.125.46875-.125zm-6.25 3.59375-.5.125 9.65625 44.5.46875-.125zm-6.375 3-.5.125 12.03125 55.5.46875-.125zm-6.6875 3.5625-.5.0937 14.71875 67.96875.46875-.125zm-8.43889 2.17153-.5.0937 18.62639 78.85972.46875-.125z" transform="matrix(1.8921 .18915 -.18915 1.8921 -100.99985494 -759.1216556)"/>
        </g>
      </g>
      <path style="fill:#dbba2e;fill-opacity:1;stroke:#333;stroke-width:.4251917;stroke-linecap:butt;stroke-linejoin:miter;stroke-miterlimit:4;stroke-dasharray:none;stroke-opacity:1" d="M327.68171 203.67679c7.51913-6.62793 13.12174-2.98988 20.23822-6.39614 4.1767-1.99915 9.88661-7.9043 9.88661-7.9043l-12.05392 3.3536-24.82691 3.23231z" transform="matrix(1.8921 .18915 -.18915 1.8921 -135.11986259 -341.35528748)"/>
      <path d="M322.70671 201.30906s4.28548-1.98365 7.28819-3.08346c11.99006-4.39163 18.51422.62053 26.20941-4.34488 3.8908-2.51058 7.42834-7.84881 7.42834-7.84881l-12.19368 2.80315-24.94801 2.10236-7.28818 6.86771z" style="fill:#dbba2e;fill-opacity:1;stroke:#333;stroke-width:.4251917;stroke-linecap:butt;stroke-linejoin:miter;stroke-miterlimit:4;stroke-dasharray:none;stroke-opacity:1" transform="matrix(1.8921 .18915 -.18915 1.8921 -135.11986259 -341.35528748)"/>
      <path style="display:inline;fill:#dbba2e;fill-opacity:1;stroke:#333;stroke-width:.4251917;stroke-linecap:butt;stroke-linejoin:miter;stroke-miterlimit:4;stroke-dasharray:none;stroke-opacity:1" d="M326.62384 264.0219c-8.23027-7.4798-11.17504-13.65347-14.02059-20.36425 1.0166-1.0055 1.44658-2.0989 1.57355-3.12754l-15.1755-1.40275c1.87321 7.8209 12.09111 22.02326 27.62254 24.89454z" transform="matrix(1.8921 .18915 -.18915 1.8921 -135.11986259 -341.35528748)"/>
      <path style="fill:#dbba2e;fill-opacity:1;stroke:#333;stroke-width:.4251917;stroke-linecap:butt;stroke-linejoin:miter;stroke-miterlimit:4;stroke-dasharray:none;stroke-opacity:1" d="M326.56655 418.90196s5.61017-3.2032 8.68976-4.06456c9.18692-2.56959 20.05596.0599 29.01256-3.22362 4.34754-1.59382 7.28818-7.00787 7.28818-7.00787l-12.19368 2.80315-26.91021.56063-8.68975 7.84881z" transform="matrix(1.8921 .18915 -.18915 1.8921 -100.99985494 -759.1216556)"/>
      <path style="fill:#dbba2e;fill-opacity:1;stroke:#333;stroke-width:.4251917;stroke-linecap:butt;stroke-linejoin:miter;stroke-miterlimit:4;stroke-dasharray:none;stroke-opacity:1" d="M373.54502 175.98945s-.002 2.31536-2.94727 4.42091c-9.05025 6.4694-29.44474 1.2568-41.26175 5.15772-10.3379 3.41266-9.57862 11.05225-9.57862 11.05225s5.43454-5.78976 13.26271-6.48399c12.80872-1.13592 30.3965.39442 40.23021-7.51553 3.10857-2.50045 3.83144-7.22081 3.83144-7.22081s.0481-1.90209-.44209-2.65254c-1.10149-1.68636-2.34881-2.19353-3.92946-2.17778-1.21315.0121-2.28491.28599-3.00707 1.44096-.67709 1.0829-.83238 2.86282 0 3.83145 1.4047 1.63464 3.24287 1.08354 3.8419.14736z" transform="matrix(1.8921 .18915 -.18915 1.8921 -135.11986259 -341.35528748)"/>
      <path style="fill:#ffdb43;fill-opacity:1;stroke:none;stroke-width:.4251917;stroke-miterlimit:4;stroke-dasharray:none" d="M331.30856 189.28789c6.48361-.57499 15.70309-.61434 22.84769-1.35039 7.1446-.73605 13.80153-2.33957 18.46875-6.09375 2.61114-2.10033 3.42107-6.18231 3.46875-6.4375 0 0-.00001-.0303 0-.0312.00021-.0272.0172-.41256-.0312-.90625-.0501-.51069-.25014-1.13987-.28125-1.1875-.96816-1.48224-1.7033-1.89321-3.06253-1.87969-1.07166.0107-1.66774.29835-2.18752 1.12964-.22614.36168-.39171.9409-.40625 1.46875-.0145.52785.0967.97125.3125 1.1875 1.35683 1.3599 2.83461.71383 2.88571-.51198.0117-.28134-.26629-.62292-.54712-.64367-.45492-.0336-.67586.90114-.67586.90114s-.67606-.42961-.54712-1.12643c.0911-.49254.54388-1.0374 1.02988-1.15862.59341-.148 1.40777-.01 1.77011.48276 1.24959 1.69911.15469 3.65403-.2906 4.6818-.43042.99344-1.29415 2.25377-2.90625 3.40625-4.91451 3.51305-12.42461 3.726-20.15625 3.71875-3.46621-.003-7.6359-.0624-10.96931.0403-1.14831 1.86016-4.97325 3.31679-8.72213 4.31008z" transform="matrix(1.8921 .18915 -.18915 1.8921 -135.11986259 -341.35528748)"/>
      <g style="stroke-width:.4251917;stroke-miterlimit:4;stroke-dasharray:none">
        <path transform="matrix(1.8921 .18915 -.18915 1.8921 -100.99985494 -759.1216556)" d="M314.21386 435.3201c-.13146 1.33928 1.47297 3.92274 2.90075 3.98854 1.48544-.56257 2.00283-2.2777 1.78878-3.44404.23894 1.25193 1.68577 2.90165 3.08381 2.60442 1.29501-.91978 1.36206-2.70999.88853-3.73237.69611 1.1429 2.62648 2.18623 3.83379 1.4212.89414-1.31284.3342-3.01456-.44905-3.84369.87513.97935 2.94486 1.70809 4.01773.76373.67792-1.43647-.14116-3.02974-1.01023-3.68786 1.2308.62348 3.42289.52547 4.06483-.75155.0916-1.58576-1.26377-2.7572-2.29671-3.03475 1.38088.20425 3.42755-.58698 3.62923-2.00196-.41834-1.53233-2.07627-2.21096-3.12649-2.0831 1.33208-.43938 2.71668-2.14166 2.18989-3.47032-1.12337-1.12298-2.89957-.8898-3.7962-.33843 1.19862-.72258 2.32947-2.60301 1.62068-3.84416-1.27044-.95344-2.99604-.47224-3.78668.31501 0 0 .0886-1.12742.53671-1.60051 3.36703-3.55509 9.46866-3.70139 13.4678-6.5267 2.72023-1.87639 3.64322-3.52756 3.72954-6.83749 0 0-1.54775 1.79306-2.58996 2.27916-7.93277 3.69998-16.54042 3.33256-22.79164 8.90946-1.90283 1.73826-4.45473 6.3195-4.45473 6.3195s6.65489.11095 8.90946 2.17557c1.4255 1.3054 2.26342 3.59936 1.86477 5.49071-.47383 2.24801-2.61666 4.02992-4.66193 5.07632-2.35279 1.20373-7.87348.93239-7.87348.93239z" style="fill:#dbba2e;fill-opacity:1;stroke:#333;stroke-width:.4251917;stroke-linecap:butt;stroke-linejoin:miter;stroke-miterlimit:4;stroke-dasharray:none;stroke-opacity:1"/>
        <path d="M343.28125 402.34375c-3.06275 1.42852-7.22256 2.2455-10.223 3.0089 2.4189.61276 5.55921-.4285 7.87553-1.26474-4.69155 2.79562-6.82277 1.96179-9.80878 2.03709-3.87329 1.05362-7.41604 2.33711-10.375 4.96875-.80772.73787-1.94987 2.29001-2.8125 3.625-.43376.67128-.48472.77112-.75 1.21875.68757.0378 1.01928.009 2.21875.1875 2.0103.29853 4.33051.76523 5.78125 2.09375 1.68184 1.54015 2.63931 4.05192 2.15625 6.34375-.56791 2.69435-2.96261 4.59644-5.15625 5.71875-1.4588.74635-3.46366.94488-5.1875 1.03125-1.17221.0587-1.58441.0144-2.125 0 .003 2.08269.16483 4.26327.96875 5.96875.42282.61744.90641.91017 1.15625 1 .34941-.20132.64347-.46409.8125-.84375.14521-1.23399.45045-2.51943.93752-3.37471.92715.74513 1.23987 2.13947 1.90623 3.03096.35858.33355.68326.36673.96875.375.27139-.27907.496-.57518.5625-.96875-.10222-1.1949-.31763-2.62934-.21865-3.51543 1.20515.42924 1.99514 1.68523 2.9999 2.32793.46594.19612.79209.1612 1.0625.0625.16232-.36006.26472-.74778.1875-1.15625-.62043-.92828-.66859-1.74953-.603-2.63109 1.06005-.22453 2.04969.48175 2.79049.94359.48379.11591.80922.006 1.0625-.125.10923-.38804.16501-.79704.0312-1.1875-.48275-.79975-1.2675-1.7903-1.51111-2.31488 1.11671-.70259 2.29603-.14626 3.41736-.0914.49594-.0671.75523-.2837.9375-.5-.0431-.40049-.13151-.78057-.40625-1.09375-.8591-.55651-1.85789-1.26713-2.32526-1.81176.86597-.89494 2.21362-.73365 3.26276-1.03199.44335-.2182.61207-.4898.71875-.75-.1684-.35612-.3755-.71095-.71875-.90625-1.15784-.33171-2.52239-.49148-3.37199-.9751.85274-.87294 2.21401-1.29787 3.05954-2.11865.27369-.39635.28432-.72269.25-1-.33018-.23829-.67846-.42882-1.09375-.4375-1.03214.28285-1.88426.26145-2.95912.16549.3672-1.12043 1.2879-1.92636 1.89662-2.75924.22422-.46496.17833-.79077.0937-1.0625-.359-.1889-.72181-.30799-1.125-.25-1.03562.42857-1.92931 1.22421-3.02177 1.47464-.49396-.97365-.63082-1.80197-.48762-2.52104.22232-1.11638 1.11966-1.96947 2.40376-2.69442-1.66309-.67067-3.87029.83514-5.94372 1.80583.55823-.74671 3.791-3.14719 8.0165-2.77144.69872-.27873 1.44567-.54515 2.2163-.81076-1.51412-1.04821-2.95212-1.12656-4.7607-.9937 2.3029-.74074 4.19842-.38964 6.45231.41714 2.47134-.84383 4.92309-1.58432 6.75-2.875 1.78583-1.23185 2.63971-2.22147 3.03125-3.71873-.32563.26681-.6191.57236-1 .75001z" style="fill:#ffdb43;fill-opacity:1;stroke:none;stroke-width:.4251917;stroke-miterlimit:4;stroke-dasharray:none" transform="matrix(1.8921 .18915 -.18915 1.8921 -100.99985494 -759.1216556)"/>
      </g>
      <g style="stroke-width:.4251917;stroke-miterlimit:4;stroke-dasharray:none">
        <path transform="matrix(1.8921 .18915 -.18915 1.8921 -100.99985494 -759.1216556)" d="M297.65625 406.78125c-2.14486.0316-4.48614.71689-6.375 2.375-1.60545 1.76162-1.61637 3.57968-1.375 5.90625.0974.28489.36545.55886.6875.84375-.64716 1.73246-1.23042 3.86113-.9375 4.625.23445.36383 1.14441.0386 1.78125 0 .18443.18443.075.95538.0625 1.46875-.008.33775 1.03125.0937 1.03125.0937.0189.17694-.59085.64195-.53125.9375.0775.38458.875.6875.875.6875l.6875 2c1.82969.23892 3.92755-.43462 4.5625-.9375.23112 1.40177-.0276 1.88018 1 4.875-.27852.50243-.58425.91386-.53125 1.96875-2.09598 2.37282-2.66888 4.75218-3.03125 7.125-2.0904 1.53389-4.19075 4.45497-4.34375 6.65625-1.02348.73658-.71579 1.58269.34375 1.6875.60398 1.24177 2.03781 2.4889 4.71875 3 3.35516 11.48191 8.43201 19.44207 14.09375 25.28125 14.84921 15.31459 34.36459 16.7979 36.59375 27.9375-2.65506-1.98354-4.72016-.81441-5.5625.375-1.52498 2.15335-.97045 4.46772.46875 5.90625 1.50624 1.50555 4.31757 1.96385 6.34375.34375 1.44025-1.1516 2.22514-3.12794 2.125-5.09375-.21752-4.26986-3.54973-9.50454-7.28125-11.3125.21683-.52942 1.77725.4937 2.9375-.0625-2.48207-3.48386-4.69795-1.6472-5.1875-2.875.79371-.0383 1.4295-.0437 2.15625-.75-2.80748-3.38447-6.90697-2.43186-10.375-3.53125.38862-.76225 5.51109.97312 5.09375-4.0625-1.93287 2.52391-2.62977-.41569-4.5.84375-.0687-.70244 1.32505-.74385 1.40625-1.75-1.45688.13509-2.9162-.56299-4.125-.75-.96661-.14954-2.84375.625-2.84375.625s-.68492-.7067-1.125-.6875c-1.27707.0558-2.54647.027-3.75-.3125-2.64452-.74593-4.88657-2.42062-5.75-3.75 6.66649 2.99978 9.08456 2.07219 9.84375 1.8125-.74396-.70458-2.20597-1.79994-1.96875-2.3125 0 0 1.28401.89695 2.03125.96875.89439.0859 1.72808-.92817 2.59375-.6875.74929.20832 1.34662.96132 1.625 1.6875.19348.50472-.34565 1.16456-.0625 1.625.28939.47059 1.5.6875 1.5.6875s-.5981-.71671-.625-1.15625c-.0381-.6222.7084-1.12699.6875-1.75-.0359-1.0694-.61079-2.15936-1.40625-2.875-1.52211-1.36939-2.6961-1.33752-4.5625-.53125-.95172-.70566.94011-.90617 1.5-1.4375 0 0-1.27382-.9202-2.1875-1-1.80948-.15806-3.87114 1.09975-5.6875 1.09375-5.54458-.0184-7.34375-3.125-7.34375-3.125 4.08056 1.93147 7.34424 2.23031 8.9375-.75-1.04812-.51805-2.16126-.78973-3.4375-.28125.98121-1.11612.60521-1.83714 0-2.5-5.12775 4.18625-10.37675-1.50649-11.09375-3.03125 5.25112 2.66144 7.56688 2.19182 9.84375 1.3125 2.37652-.9178 4.20897-1.64598 5.875-1.15625 1.07146.31495 1.80379 2.15676-.25 2.3125 1.38506 1.22254 2.507.86492 3 .0312.47011-.795.35004-2.01192-.65625-2.6875 1.39022.11954 1.30429-.87061 2.71875-.71875-1.26409-2.784-2.90452-3.1235-5.46875-2.75 2.94722-2.24813 5.49544-4.41878 1.96875-9.40625-.29682 4.00954-4.22361 5.77372-4.75 5.625 2.6837-2.68661.20915-3.37354.34375-6.96875-1.45473.36138-1.0786 1.19279-1.125 1.90625-1.26467-1.45386-3.4635-1.49056-3.9375.0625 1.48708.0964 2.16058.71665 2.34375 2.28125.11711 1.00033-.2428 1.8294-1 2.4375-1.74767-1.58495-3.43805-3.10703-3.9375-5.84375-.70458-3.86079.23184-6.29785.90625-9.1875l1.53125-6.59365c.0636-.27251.11346-.55287.15625-.8125.0756-.0111.10878-.0191.1875-.0312.92301 1.60026 1.76419 1.66663 2.34375-.4375 1.88231 2.01239 2.51275 1.21053 2.65625-.75 3.0366 2.39213 2.35859-.0655 2.71875-1.15625 1.60224.86257 3.19775 1.76473 2.375-1.5625 2.13111.81419 2.95576.34622 1.71875-2.125 2.63916-.38806 2.62349-1.3425.75-2.71875 1.38279-1.11482 2.66907-2.05759-.28125-3.125 1.22082-1.59451 1.72127-2.50168-1.09375-2.3125 1.35416-2.05048-.0653-2.06268-1.625-1.59375.505-2.45559-.89486-1.43577-1.90625-1.03125.0681-1.24194-.45627-1.75979-1.90625-.5625-.0624-1.51085-1.21287-1.40577-2.1875-.25-.4951-.0431-.42873-.0624-.71875-.0625-.29002-.0001-.4375.0312-.4375.0312l-2.5 3.96875s3.11867-.53029 4.65625-.3125c2.78313.39421 5.12055 1.90426 4.1875 5.125-.54234 1.87206-3.03043 2.88964-4.96875 3.09375-1.80365.18993-3.9096-1.81474-5.71875-1.6875-1.17634.0827-2.02783.52124-2.625 1.03125-1.42863-.31672-2.95765-.49411-3.90625-1.46875-2.04947-2.10571-1.71875-5-1.71875-5 .8248-4.75284.15608-9.57972-2.125-11.5625-1.03359-.89843-2.98014-1.50038-5.125-1.46875z" style="fill:#dbba2e;fill-opacity:1;stroke:none;stroke-width:.4251917;stroke-miterlimit:4;stroke-dasharray:none"/>
        <path d="M339.14158 281.99919c-2.40923-1.35759-4.53558.56431-4.9687 2.43194-.51316 2.21274 1.07625 5.21081 3.32002 4.1628" style="fill:#dbba2e;fill-opacity:1;stroke:#333;stroke-width:.4251917;stroke-linecap:butt;stroke-linejoin:miter;stroke-miterlimit:4;stroke-dasharray:none;stroke-opacity:1" transform="matrix(1.8921 .18915 -.18915 1.8921 -135.11986259 -341.35528748)"/>
        <path d="M314.62492 197.44766c.39007-.0108.79021-.0831 1.15625-.0312 1.5176.21496 3.00171.70308 4.03125 1.75s1.44057 2.68687.90625 4.53125c-.36336 1.25425-1.33956 2.13063-2.40625 2.71875s-2.25707.91682-3.34375 1.03125c-1.27398.13415-2.36218-.44309-3.34375-.90625s-1.86372-.81941-2.40625-.78125c-1.48327.10432-2.17144.7504-2.53125 1.28125-.42298-.11162-.87689-.20938-1.375-.3125-1.13035-.23401-2.43446-.50068-3.4375-1.53125-2.43333-2.50011-2.21875-5.78125-2.21875-5.78125l-.96875-.53125c-1.11771 1.07402-2.00395 1.14123-3.53125 1.15625l.1875-2.65625s-1.03292-.27318-1.375-.65625c-.24529-.27468-.375-1.03125-.375-1.03125s-1.52127.0734-2.09375-.34375c-.46904-.3418-.78125-1.5625-.78125-1.5625s-.62777-.18031-.84375-.40625c-.59778-.62533-.33317-1.82389-1-2.375-.53881-.44531-2.0625-.4375-2.0625-.4375l.00008-.00001c-.53827 1.07181-.786 2.61603-.625 4.21875.0177.005.10183.0985.34375.3125-.0624 1.18679-.68374 3.15249-.75 4.28125-.0973.43228-.0842.49656-.0937.75.21067-.0375.37535-.0768.65625-.0937.29849-.0161.56566-.95303 1.3125-.65625.90912.36127.12597 1.04221.15625 1.25.0249.17112.001.29554 0 .4375.49562-.22264.8423.00015 1.5.34375-.28737.58075-.41336 1.57068-.53125 1.6875.26159.1207.21993.0397.3125.3125l.4375 1.25c.57905.003 1.50259-.12151 2.03125-.28125 2.26937-.68572 4.09977-2.83213 5.1875-4.34375.24964 2.20582-1.60167 3.95048-1.5625 4.1875.25821 1.56607-.061 1.80879.9375 4.71875.10421.28278.0808.6099-.0625.875-.31922.57586-.44825.53899-.40625 1.375.024.27965-.0681.56747-.25.78125-1.92891 2.18369-3.20959 3.90788-3.5625 6.21875-.0483.27452-.20929.52746-.4375.6875-1.84475 1.35364-4.35798 4.8751-4.46875 6.46875-.0165.25679-.12989.5062-.3125.6875.23946.0917.81839.33544.9375.5625.43666.53533 2.46978 1.62926 4.90625 2.09375.38369.0613.72223.34968.84375.71875 3.3112 11.33147 8.26601 19.12343 13.8125 24.84375 7.27399 7.50196 15.74623 11.63153 22.78125 15.3125 3.51751 1.84049 6.66461 3.58775 9.15625 5.625 1.30033 1.06319 2.48293 2.15821 3.28125 3.5 1.13535 1.90826 1.90849 3.9225 2 5.84375.0616 1.29289-.51825 2.88399-2.4375 3.5-.6655.2136-2.87928-.0803-3.0625-1.875-.20735-2.03114 2.3125-1.90625 2.3125-1.90625-.64242.88469-.90928 1.31514-.25 2.125.28011.34408.91369.16592 1.21875-.15625.64202-.67804.54661-1.23728.3125-2.0625-.38873-1.37027-2.07558-1.34895-2.71875-1.21875-.64317.1302-1.15847.57475-1.4375.96875-1.24657 1.76022-.78821 3.39982.34375 4.53125 1.11399 1.11348 3.36317 1.50881 4.9375.25 1.12344-.89828 1.80266-2.54033 1.71875-4.1875-.0958-1.88102-.99105-4.07665-2.15625-6.0625-.88102-1.50152-1.9966-2.70607-3.21875-3.6875-.93117-.74775-1.88659-1.38944-2.6875-2.03125.13551-.33087 2.52257-.39882 2.8125-.5-.37913-1.03351-3.71551-.30301-5.78125-2.3125 1.17239-.33108 1.82057-.71941 2.5-.75.0657-.003.0674-.029.125-.0312-.90819-.61611-1.88006-1.0688-3.03125-1.25-3.28577-.5172-7.72503-1.23246-9.40625-2.78125 2.82414-.56355 7.5.63792 7.8125-1.25-.8848.17969-1.50103-.67667-2.1875-.65625-.5994.0178-1.1476.18815-1.6875.46875-.5155-.99122-.0684-1.56534.125-1.84375-.88235-.20258-1.65314-.44858-2.1875-.53125-.10578-.0164-.7802.0609-1.3125.21875-.5323.1578-.96875.34375-.96875.34375-.38889.15341-.86547.0504-1.15625-.25 0 0-.15613-.12955-.3125-.25-.0782-.0602-.18392-.11084-.21875-.125-1.26511.0481-2.56281.0264-3.875-.34375-3.74826-1.17642-6.84435-4.32475-7.875-6.84375 2.34815 1.4087 6.6229 2.80596 10.125 3.0625-.56437-.60208-.88174-1.8311-.34375-2.40625.45867.21853 1.57159.92536 2.59375.875 1.20179-.0592 2.3333-.87153 2.8125-.75.42492.11814.72238.37992 1.03125.625-.13656-.19328-.14721-.44505-.3125-.59375-.65678-.59088-1.08414-.77358-1.53125-.8125-.44711-.0389-1.01175.0958-1.875.46875-.83774.1871-1.17772-.23306-1.625-.71875-.20414-.81169.5548-1.20922 1-1.6875-.66659-.0697-1.82456-.20431-2.78125.0937-.95669.29803-2.65102.96647-3.8125.96875-4.50528.009-6.59027-1.85631-8.84375-5.28125 3.89631.94541 4.70478 1.65917 7.25 1.59375.73864-.0311 1.30475-.24307 1.78125-.625-.39025-.0409-.763.006-1.21875.1875-.45067.22812-1.05157.0683-1.34375-.34375-.29218-.41203-.23936-1.02516.125-1.375.10254-.11663.0433-.0806.0937-.15625-2.48752 1.28902-5.0431.7056-6.96875-.3125-2.98725-1.57935-4.6354-4.74338-6.125-7.125 2.14013 1.42869 5.72104 3.4635 8.84375 3.71875 1.32695.10847 2.57553-.14513 3.65625-.5625 2.36397-.91295 4.22037-1.28955 6.375-.65625.15734.0463.82502.53596 1.15625 1.28125.56281 1.26637-.43286 1.59847-.3125 1.6875.0451-.252 1.41986-.079.78125-1.8125-.3203-.86947-1.43157-1.64662-1.5625-1.90625 1.72624.541 2.507-.25018 2.84375-.46875.0516-.0335.24132-.0544.3125-.0937-.34076-.46056-.64217-.86681-1.03125-.96875-1.9922-.52196-3.71654-.48563-6.4375.1875 1.73539-1.30799 4.62796-3.1046 5.5625-5.34375.25843-.66236.15745-1.93754-.21875-2.96875-.50783.98707-1.1219 1.81813-1.8125 2.40625-.62092.52877-1.25203.88784-1.78125 1.15625-.89851.45571-1.8448.85438-2.8125.25 1.00201-.97691 1.68181-1.83554 1.90625-2.71875.18921-.74455-.21602-1.4511-.5625-2.75-.18069.0911.0186 1.24731-.25 1.3125-.92389-1.21154-1.60814-1.63098-2.6875-1.78125.7991.54346 1.64445 1.8966 1.71875 2.53125.15462 1.3207-.39512 2.62547-1.40625 3.4375-.96526.77519-1.6091 1.18661-2.65625 1.34375-3.9085.58652-5.75-1.25-5.75-1.25l-2.21875-2.15635-.96875-2.71875-.5625-.90625c.37762-.0348.76429.0219 1.125.15625 1.22069.45476 1.55599 2.65974 3.5625 2.34375-.80704-1.56315-.65264-2.30278-.6875-3.09375l-1.5-1.875c-1.20304 1.1988-3.3056 2.36063-6.375 1.59375-2.55896-.63935-5.36799-3.84289-3.8125-8.28125.6632 3.54785 1.15619 5.1988 4.125 6.375 1.66215.65852 4.81682-.05 6.90625-2.875 0 0 .0797.75673-.125 1.625-.11094.47063-.53125 1.34375-.53125 1.34375l1.28125 1.5c1.55988 2.05894 2.17374 3.69331 3.5 3-.43402-.77667-.78282-1.63746-.96875-2.65625-.74874-4.10264.28256-6.81878.9375-9.625l1.53125-6.59375c.25384-1.09306.58644-2.0258 1.05073-2.74543.70099 1.45323 1.01236 2.18469 1.48052 2.89618.0866-.16402.70652-2.39895.81067-2.77706.60029.11809 1.31443 1.63237 2.01511 2.20598.0645-.19937.27935-2.08706.31099-2.5194.73691-.28911 1.61275 1.17283 2.42336 1.51705.0483-.4374.17739-1.94199.32659-2.39387.75095-.4146 1.75445.77646 2.55694 1.17515.0478-.20567-.15966-2.01656-.31286-2.63619.50335-.59481 1.7741.38489 2.60504.56269-.0531-.23981-.98254-1.68522-1.24089-2.20133.3381-.76318 1.8309-.51453 2.67839-.776-.13731-.17744-1.41841-1.38423-1.84641-1.69863-.0769-.56589 1.44245-1.08648 2.09172-1.69824-.0394-.23751-1.56405-.67169-2.20403-.90323-.37457-.71235.84867-1.43145 1.2845-2.07879-.22135-.0213-1.89228-.13372-2.35197-.10282-.49192-.46731.37189-1.19294.66916-1.70968-.22518.0331-1.66384.29543-1.95721.38358-.62159-.2885-.0328-1.52248.0509-2.02575-.20574.0931-1.80289.85932-2.06273.96325-.56969.22026-.28586-.6752-.25366-1.31639-.12613.044-1.20875.71792-1.40259.87798-2.33149 1.0861-1.36734 1.07364-1.8161 1.53216z" style="display:inline;fill:#ffdb43;fill-opacity:1;stroke:none;stroke-width:.4251917;stroke-miterlimit:4;stroke-dasharray:none" transform="matrix(1.8921 .18915 -.18915 1.8921 -135.11986259 -341.35528748)"/>
        <path d="M287 191.0727c-.3001.59589-.53885 1.38486-.53125 2.75 0 0 .86544-.53355 1.34375-.6875.39112-.12589 1.21875-.1875 1.21875-.1875s-.0457-1.1182-.40625-1.46875c-.40079-.38971-1.625-.40625-1.625-.40625Zm-.59375 4.90625-.8125 3.46875.59375-.125 1.34375-.5625-.46875-2.3125zm6.0625.0937c-.21392.0152-.45479.13356-.875.25-.90899.97222-1.79506 1.6711-3.15625 1.03125l-.5 1.125.75.8125-.0625 1.28125 1.4375.6875-.40625 1.90625.53125 1.125c2.36042-.52481 2.32096-2.2057 1.9375-4.375.9908-1.27385 1.38186-1.88167 1-3.46875-.27168-.3203-.44233-.39018-.65625-.375zm4.78125 5.7813c-.44597 1.21644-.89778 1.86975-1.34375 2.5625-.22049 1.82103.53854 3.24147 1 5.0625 1.58719-.0278 2.51095-1.59286 3.46875-2.25-2.62598-2.61431-2.13823-3.74976-3.125-5.375zm-3.1875 26.25-1.09375.875c3.35516 11.48191 8.65076 19.66082 14.3125 25.5 4.76463 4.91395 10.03373 8.40909 15.03125 11.25-7.12345-4.54357-15.90704-13.12361-21.21875-21.75-3.14541-5.10825-4.07641-9.21649-4.71875-14.53125zm21.15072-31.04618s2.7144.37478 3.77806 1.06051c.85601.55186 1.64281 1.36183 1.98845 2.31986.46494 1.2887.29939 2.83329-.19886 4.10947-.39838 1.02037-1.24887 1.88746-2.1873 2.45243-1.26707.76283-2.83078 1.12554-4.30832 1.06051-1.84276-.0811-3.79768-2.10989-5.56767-1.59076-2.45152.71903-1.81925 2.50856.77563 4.17226.2761-.48447-.51903-1.59447 1.16517-1.98613 1.22681-.28529 2.23483.45372 3.49433.46514 1.70932.0155 3.49649-.3948 4.97114-1.25935.99769-.58492 1.90417-1.46742 2.38614-2.51871.54605-1.19106.62647-2.62049.39769-3.91063-.58094-3.27604-2.66912-4.1452-5.42165-4.80675zm-14.24447 16.63993c.57266-1.78568 1.4414-3.351 4.1875-4.6875-1.4472-.30174-3.0393-.37476-4-1.40625 0 0-1.54179 1.78782-2.78125 2.46875-.55576.30533-1.875.375-1.875.375-.25789.18544-.81832.97604-.15625 1.53125-3.37573 2.12377-3.81391 6.278-4.1875 6.71875-1.53944.79542-4.55374 4.05437-4.375 6.5625 0 0 1.32272.29627 3.125-.8125 1.36475-.8396 2.125-4.0625 2.125-4.0625s1.0135 2.42407 1.9375 3.3125c2.63431 2.53292 7.62242 1.06126 9.28125-3.4375.39018-1.05817.25-3.625.25-3.625 1.293-2.73309 2.81625-4.08474 4.46198-4.70143-3.24854-4.54112-6.00879-.33222-7.99323 1.76393z" style="fill:#ffea80;fill-opacity:1;stroke:none;stroke-width:.4251917;stroke-miterlimit:4;stroke-dasharray:none" transform="matrix(1.8921 .18915 -.18915 1.8921 -135.11986259 -341.35528748)"/>
        <path style="color:#000;font-style:normal;font-variant:normal;font-weight:400;font-stretch:normal;font-size:medium;line-height:normal;font-family:Sans;-inkscape-font-specification:Sans;text-indent:0;text-align:start;text-decoration:none;text-decoration-line:none;letter-spacing:normal;word-spacing:normal;text-transform:none;direction:ltr;block-progression:tb;writing-mode:lr-tb;baseline-shift:baseline;text-anchor:start;display:inline;overflow:visible;visibility:visible;fill:#333;fill-opacity:1;stroke:none;stroke-width:.4251917;stroke-miterlimit:4;stroke-dasharray:none;marker:none;enable-background:accumulate" d="M288.9375 193.47895c-.73674-.026-1.53155.17095-2.125.875.51597.94284.36036-1.26294 4.03125.0625-.4839-.63485-1.16951-.91151-1.90625-.9375zm-.68276 1.84464c-.83442.3668-1.16874.38339-1.16874.38339.17734.15343.57461.38257 1.13275.11572.0908.31004.15246.66718.5625.9375l.0625.0312h.0937c.54539-.0461 1.19384-.28384 1.8125-1.03125l.21875-.28125c-1.07978-.3962-1.90978-.50881-2.71396-.15531zm1.18276.31161c.24829.008.47136.0251.65625.0937-.2608.33562-.77912.54378-1.125.5625-.1783-.15146-.25991-.40391-.3125-.59375.26274-.0473.53296-.0701.78125-.0625zm10.84375 32.375c-1.37205.39777-2.83418.21399-3.75-.15625-.75296-.3044-1.73554-1.01974-2.4375-2.125-.70196-1.10526-1.13439-2.59852-1.01563-4.54688-.60941 1.97253-.15357 3.5956.60938 4.79688.76294 1.20128 1.79463 1.99542 2.65625 2.34375 1.03095.41678 2.56388.59072 4.0625.15625.88044-.25525 1.74941-.72648 2.46875-1.5.12192.54649.38991.93892.6875 1.25.39679.41477.83278.72249 1.125 1.25.31829.57457.42442 1.25463.625 1.875.14715.45512.42856.83217.84375 1.125-.53471.31562-1.05214.59686-1.625.5-.71608-.12107-1.58199-.65568-2.625-1.9375-.063-.0775-.12441-.20499-.21875-.3125-.0943-.10751-.22696-.20228-.40625-.25l-.375-.0937.0625.375c.79679 4.13493 4.13728 6.08329 6.84375 6.09375 2.11034.008 4.53668-.98155 5.40625-2.78125l-.46875-.2188c-.73815 1.52772-2.98776 2.50725-4.9375 2.5-2.22714-.009-4.8945-1.54236-5.96875-4.6875.94552 1.06762 1.79542 1.67752 2.59375 1.8125.89008.15049 1.67663-.19789 2.40625-.71875l.40625-.3125-.46875-.15625c-.59958-.17709-.81813-.53123-1-1.09375-.18187-.56252-.28256-1.29419-.65625-1.96875-.34923-.63042-.83176-.97188-1.1875-1.34375-.34479-.36043-.58812-.74079-.625-1.46875.31528-.43822.59457-.94164.57812-1.60938-.94783 1.85213-2.23732 2.80536-3.60937 3.20313zm-1.8125-4.96875-.25.125c-.24999.14087.23127.52967-.40625 1.03125-.0594.0468-.23864.0745-.40625.0312-.16761-.0431-.3562-.334-.625-.25l-.28125.0937c.2064.34918.49586.55155.78125.625.28539.0735.54849.0377.75-.0625.44304-.2204.75722-.8552.4375-1.59375zm-.0312 8.78125c.56104 2.24642 2.04177 4.26679 4.1875 5.625 2.14574 1.35821 4.97209 2.06988 8.46875 1.34375-3.46139.21293-6.17311-.45847-8.21875-1.75-2.04564-1.29154-3.44081-3.21882-4.4375-5.21875zm2.5625 5.9375c1.30136 1.70681 3.90623 2.91247 6.8125 3.1875 2.90627.27503 6.12401-.38383 8.59375-2.8125-2.66611 1.924-5.73336 2.57728-8.53125 2.3125-2.79789-.26478-5.31375-1.44311-6.875-2.6875zm4.28125 11.375c2.2781 2.30851 4.77865 3.97285 7.375 4.90625 2.59635.93341 5.28851 1.12025 8.03125.125-2.76703.49919-5.35518.31607-7.875-.59375-2.51983-.90982-4.97132-2.53072-7.53125-4.4375zm34.23726 36.25095c-.10149.24026-.087.59177.0126.8428.0997.25103.2681.51005.5.71875.4638.41741 1.19271.67004 2 .375.83673-.3058 1.35497-.96555 1.53125-1.78125s.0184-1.77821-.375-2.75h.0001l-.46875.1875c.36506.9018.49125 1.75496.34375 2.4375-.1475.68254-.535 1.18761-1.21875 1.4375-.63342.2315-1.14762.0359-1.5-.28125-.17619-.15857-.30762-.36161-.375-.53125-.0674-.16966-.0365-.278-.0312-.34375.0444-.55371.12767-.56423.50506-.81468-.34237-.0991-.71695.0128-.9241.50313z" transform="matrix(1.8921 .18915 -.18915 1.8921 -135.11986259 -341.35528748)"/>
        <path d="M313.4375 211.8852c1.88231 2.01239 2.51275 1.21053 2.65625-.75 3.0366 2.39213 2.35859-.0655 2.71875-1.15625 1.60224.86257 3.19775 1.76473 2.375-1.5625 2.13111.81419 2.95576.34622 1.71875-2.125 2.63916-.38806 2.62349-1.3425.75-2.71875 1.38279-1.11482 2.66907-2.05759-.28125-3.125 1.22082-1.59451 1.72127-2.50168-1.09375-2.3125 1.35416-2.05048-.0653-2.06268-1.625-1.59375.505-2.45559-.89486-1.43577-1.90625-1.03125.0681-1.24194-.45627-1.75979-1.90625-.5625-.0624-1.51085-1.21287-1.40577-2.1875-.25-.4951-.0431-.42873-.0624-.71875-.0625-.29002-.0001-.4375.0312-.4375.0312l-2.5 3.96875s3.11867-.53029 4.65625-.3125c2.78313.39421 5.12055 1.90426 4.1875 5.125-.54234 1.87206-3.03043 2.88964-4.96875 3.09375-1.80365.18993-3.9096-1.81474-5.71875-1.6875-1.17634.0827-2.02783.52124-2.625 1.03125-1.42863-.31672-2.95765-.49411-3.90625-1.46875-2.04947-2.10571-1.71875-5-1.71875-5 .8248-4.75284.15608-9.57972-2.125-11.5625-1.03359-.89843-2.98014-1.50038-5.125-1.46875-2.14486.0316-4.48614.71689-6.375 2.375-1.60545 1.76162-1.61637 3.57968-1.375 5.90625.0974.28489.36545.55886.6875.84375-.64716 1.73246-1.23042 3.86113-.9375 4.625.23445.36383 1.14441.0386 1.78125 0 .18443.18443.075.95538.0625 1.46875-.008.33775 1.03125.0937 1.03125.0937.0189.17694-.59085.64195-.53125.9375.0775.38458.875.6875.875.6875l.6875 2c1.82969.23892 3.92755-.43462 4.5625-.9375.23112 1.40177-.0276 1.88018 1 4.875-.27852.50243-.58425.91386-.53125 1.96875-2.09598 2.37282-2.66888 4.75218-3.03125 7.125-2.0904 1.53389-4.19075 4.45497-4.34375 6.65625-1.02348.73658-.71579 1.58269.34375 1.6875.60398 1.24177 2.03781 2.4889 4.71875 3 3.35516 11.48191 8.43201 19.44207 14.09375 25.28125 14.84921 15.31459 34.36459 16.7979 36.59375 27.9375-2.65506-1.98354-4.72016-.81441-5.5625.375-1.52498 2.15335-.97045 4.46772.46875 5.90625 1.50624 1.50555 4.31757 1.96385 6.34375.34375 1.44025-1.1516 2.22514-3.12794 2.125-5.09375-.21752-4.26986-3.54973-9.50454-7.28125-11.3125.21683-.52942 1.77725.4937 2.9375-.0625-2.48207-3.48386-4.69795-1.6472-5.1875-2.875.79371-.0383 1.4295-.0437 2.15625-.75-2.80748-3.38447-6.90697-2.43186-10.375-3.53125.38862-.76225 5.51109.97312 5.09375-4.0625-1.93287 2.52391-2.62977-.41569-4.5.84375-.0687-.70244 1.32505-.74385 1.40625-1.75-1.45688.13509-2.9162-.56299-4.125-.75-.96661-.14954-2.84375.625-2.84375.625s-.68492-.7067-1.125-.6875c-1.27707.0558-2.54647.027-3.75-.3125-2.64452-.74593-4.88657-2.42062-5.75-3.75 6.66649 2.99978 9.08456 2.07219 9.84375 1.8125-.74396-.70458-2.20597-1.79994-1.96875-2.3125 0 0 1.28401.89695 2.03125.96875.89439.0859 1.72808-.92817 2.59375-.6875.74929.20832 1.34662.96132 1.625 1.6875.19348.50472-.34565 1.16456-.0625 1.625.28939.47059 1.5.6875 1.5.6875s-.5981-.71671-.625-1.15625c-.0381-.6222.7084-1.12699.6875-1.75-.0359-1.0694-.61079-2.15936-1.40625-2.875-1.52211-1.36939-2.6961-1.33752-4.5625-.53125-.95172-.70566.94011-.90617 1.5-1.4375 0 0-1.27382-.9202-2.1875-1-1.80948-.15806-3.87114 1.09975-5.6875 1.09375-5.54458-.0184-7.34375-3.125-7.34375-3.125 4.08056 1.93147 7.34424 2.23031 8.9375-.75-1.04812-.51805-2.16126-.78973-3.4375-.28125.98121-1.11612.60521-1.83714 0-2.5-5.12775 4.18625-10.37675-1.50649-11.09375-3.03125 5.25112 2.66144 7.56688 2.19182 9.84375 1.3125 2.37652-.9178 4.20897-1.64598 5.875-1.15625 1.07146.31495 1.80379 2.15676-.25 2.3125 1.38506 1.22254 2.507.86492 3 .0312.47011-.795.35004-2.01192-.65625-2.6875 1.39022.11954 1.30429-.87061 2.71875-.71875-1.26409-2.784-2.90452-3.1235-5.46875-2.75 2.94722-2.24813 5.49544-4.41878 1.96875-9.40625-.29682 4.00954-4.22361 5.77372-4.75 5.625 2.6837-2.68661.20915-3.37354.34375-6.96875-1.45473.36138-1.0786 1.19279-1.125 1.90625-1.26467-1.45386-3.4635-1.49056-3.9375.0625 1.48708.0964 2.16058.71665 2.34375 2.28125.11711 1.00033-.2428 1.8294-1 2.4375-1.74767-1.58495-3.43805-3.10703-3.9375-5.84375-.70458-3.86079.23184-6.29785.90625-9.1875l1.53125-6.5936c.0636-.27251.11346-.55287.25-.82813 1.01676 1.58464 1.85794 1.65101 2.4375-.45312z" style="display:inline;fill:none;stroke:#333;stroke-width:.4251917;stroke-linecap:butt;stroke-linejoin:miter;stroke-miterlimit:4;stroke-dasharray:none;stroke-opacity:1" transform="matrix(1.8921 .18915 -.18915 1.8921 -135.11986259 -341.35528748)"/>
        <path d="M285.99185 190.57611s.68675-1.41792 2.62957-.49305c2.10873 1.00385.81484 2.963 2.63595 3.17734.24284.58661.53425 1.11618 1.07617 1.45477.49278.30789 1.72565.24652 1.72565.24652s.22624.82968.49304 1.15043c.37894.45556 1.21886.45375 1.47914.98609.52141 1.06644-.19829 2.38484-.19829 2.38484.79952.0949 2.33592-.63704 2.56704-2.49738 1.18834-.16155 2.15136 1.6555 2.49609 2.5474 1.15408.2473 2.07095-2.13524 1.61261-3.45131-.22268-.63939-.39189-2.05435-.0822-2.05435.0953 0 .42577 1.09958 1.22041.92542 1.0079-.22091.92063-1.31118.57521-2.97066-.30369-1.45898-.99277-3.92739-1.74077-5.21632-.60305-1.03917-1.05136-2.15694-2.19137-1.77757-.4707.15664-.40777.93143-.40777.93143-.3766-.1076-.52367-.86359-1.08357-1.18106-.50038-.28371-1.31891-.40674-1.72565 0-.3099.3099-.15214 1.07137-.15214 1.07137s-1.98359-.93539-3.04044-.90392c-3.0322.0903-4.08883.92675-5.92563 1.78652-.53668.25121-1.41182.33314-1.38785.92522.0114.28178.73957.41087.73957.41087-1.18999.52014-1.30771 1.28563-1.31477 2.5474z" style="fill:#dbba2e;fill-opacity:1;stroke:#333;stroke-width:.4251917;stroke-linecap:butt;stroke-linejoin:miter;stroke-miterlimit:4;stroke-dasharray:none;stroke-opacity:1" transform="matrix(1.8921 .18915 -.18915 1.8921 -135.11986259 -341.35528748)"/>
        <path d="M301.51643 193.65504c.0264-.14211-.93833-3.17323-.80138-3.3876.13697-.21437 1.31742 2.80521 1.72235 2.80521.82721.80059 1.27916.25349.97572-1.3143-.26821-1.38574-1.1391-4.14366-1.74741-5.19189-.32583-.56146-.93737-1.10448-1.06689-.8732-.28507.50904 1.06464 3.48687.74945 3.93538-.49967-1.7523-2.35092-3.93152-3.04543-4.42324-.12863-.0911-.6389-.36635-.71353.10336.0882.482 1.92887 4.3719 1.47466 4.51705-.20689.0661-1.03462-2.75153-2.56402-3.5048-1.09187-.53778-.93479-.70747-2.42109-.77797-2.85844-.13558-3.70691.64693-5.63485 1.54936-.0848.0397-.24722.3427-.32563.3733.57746-.0845 1.83161.10923 2.52532.47077 1.28527.66984 1.9391 1.87234 2.89155 2.8081.51106.50211.51831.42676 1.45576.65177-.60808.52357-1.56333.30222-1.9305-.14565-.65985-.8049-1.23947-2.13941-2.84879-2.81149-1.0448-.43632-2.12103-.44677-3.05215.52761.39569.0439 1.4336.0224 1.87163.23089 1.3491.64223 1.53833 1.23363 1.96875 2.3148.55417 1.39202 2.90566 1.68017 4.53959 1.08453-.76655.46303-2.67746 1.01066-3.5565.46133.49382.59433.8284 1.06391 1.56916 1.18002 1.2124.19004 2.75614.91997 4.7249-1.78829-.3005 2.38509-3.07408 2.72356-3.15215 2.62256-.0354.3837.37238.44624.625.59375.29755.17375.84734.36821 1.15625 1 .13603.27822.17188.54476.21875.8125.74827-.0327.9037-1.64787.81197-2.90845.99582 2.41124 2.66673 1.57088 3.34428 3.65845.59101-1.09303.47711-2.70756 0-3.34375 0 0-1.29481-1.15041-1.82823-1.82696-1.09757-1.39207-1.48349-3.32369-2.77773-4.53508-.62326-.58336-2.26753-1.19045-2.26753-1.19045s1.96824.27041 2.72104.85032c1.3789 1.06222 1.75543 3.01294 2.77773 4.4217.88477 1.21924 1.74382 1.28463 1.60995 1.05036z" style="fill:#ffdb43;fill-opacity:1;stroke:none;stroke-width:.4251917;stroke-miterlimit:4;stroke-dasharray:none" transform="matrix(1.8921 .18915 -.18915 1.8921 -135.11986259 -341.35528748)"/>
        <path d="M298.09375 185.6977s.76668 1.78481 1.03125 2.71875c.29674 1.04752.13887 2.24457.625 3.21875.24877.49853 1.125 1.25 1.125 1.25s-.43073-1.38123-.53125-2.09375c-.11308-.8015.1342-1.66082-.0937-2.4375-.19593-.66759-.60591-1.25628-1.0625-1.78125-.30408-.34962-1.09375-.875-1.09375-.875zm-4.125.25c-.19577-.004-.36933.008-.5625.0312-.81043.0978-2.4375.40625-2.4375.40625s2.24156 1.03862 3.15625 1.71875c.525.39037 1.02089.85186 1.3125 1.4375.13688.27489.1875.90625.1875.90625s-.62936-.83235-.9375-1.15625c-.41263-.43373-.73222-.77617-1.21875-1.125-.80655-.57828-2.38877-1.29753-3.46875-1.3125-.29199-.004-.78125.28125-.78125.28125s1.50213.28904 2.15625.75c.95887.67573 1.87843 2.17727 2.84375 2.84375.52652.36352 1.17662.55408 1.8125.625.6522.0727 1.6875-.1875 1.6875-.1875s-.69074-1.66447-1.3125-2.28125c-.65858-.65331-1.31148-1.02295-2.15625-1.40625-.37533-.1703-1.1875-.40625-1.1875-.40625s1.9208-.056 2.6875.125c.84661.19986 2.03125 1.03125 2.03125 1.03125s-.83719-1.11289-1.40625-1.5c-.53461-.36368-1.17844-.59208-1.8125-.71875-.19081-.0381-.39798-.0589-.59375-.0625zm7 .8125s.60965 1.62212.71875 2.46875c.0603.46825-.1372.94617-.0312 1.40625.17595.76408 1.0625 2.09375 1.0625 2.09375s.3518-.40079.375-.65625c.0289-.31853-.2268-.62936-.3125-.9375-.15123-.54372-.19126-1.08163-.34375-1.625-.20836-.74248-.30002-1.56123-.75-2.1875-.17312-.24094-.71875-.5625-.71875-.5625zm-12.125 1.6875c-.69121.0443-1.125.34375-1.125.34375s1.56483.13934 2.1875.5625c.97449.66226 1.05095 2.2396 2.0625 2.84375.67239.40155 1.86892.54799 2.625.34375.46093-.12451 1.75-.9375 1.75-.9375s-1.26455.39365-1.625.40625c-.49881.0174-1.32267-.14836-1.75-.40625-1.11125-.67062-1.47809-2.29919-2.65625-2.84375-.56443-.26089-1.05403-.33909-1.46875-.3125zm9.09375 3s-1.15034.85984-1.78125 1.1875c-.59108.30698-1.1994.5189-1.84375.6875-.52926.13849-1.625.25-1.625.25s1.05309.5337 1.625.5625c2.02307.10189 3.6963-1.11255 3.625-2.6875zm.59375.65625s-.0807 1.02531.125 1.46875c.32206.69439 1.50048 1.13221 1.90625 1.78125.22004.35196.34375 1 .34375 1s-.38138-.51378-.65625-.8125c-.44131-.47961-1.36057-.94614-1.75-1.46875-.13383-.1796-.28125-.59375-.28125-.59375s-.10695.61831.0312 1c.17989.49685.63447.86977 1.03125 1.21875.5299.46607 1.29296.80604 1.75 1.34375.13348.15704.21875.5625.21875.5625s.21853-1.5584-.0937-2.25c-.42133-.93311-1.66219-1.29691-2.21875-2.15625-.21179-.327-.40624-1.09375-.40625-1.09375z" style="fill:#ffea80;fill-opacity:1;stroke:none;stroke-width:.4251917;stroke-miterlimit:4;stroke-dasharray:none" transform="matrix(1.8921 .18915 -.18915 1.8921 -135.11986259 -341.35528748)"/>
      </g>
      <g style="fill:#ffdb43;fill-opacity:1;stroke-width:.4251917;stroke-miterlimit:4;stroke-dasharray:none">
        <path transform="matrix(1.8921 .18915 -.18915 1.8921 -100.99985494 -759.1216556)" d="M313.63667 421.66731c3.26209.62405 3.84119-4.47322 5.56471-7.34068 3.21323-5.34592 8.95884-7.67383 14.72577-9.94545-6.81422 1.18918-14.18789 4.37721-18.51451 8.76147-2.97136 3.01095-4.0012 7.12765-1.77597 8.52466z" style="fill:#ffdb43;fill-opacity:1;stroke:#333;stroke-width:.4251917;stroke-linecap:butt;stroke-linejoin:miter;stroke-miterlimit:4;stroke-dasharray:none;stroke-opacity:1"/>
        <path transform="matrix(1.8921 .18915 -.18915 1.8921 -101.38765225 -759.85157579)" d="M323.96875 408.25c-3.09766 1.47651-5.88336 3.32392-8 5.46875-1.38989 1.40841-2.29655 3.0919-2.625 4.46875-.41562 1.74224 1.01169 2.64378 2.21059.76839 1.47073-4.1699 4.50554-7.78775 8.41441-10.70589z" style="fill:#ffea80;fill-opacity:1;stroke:none;stroke-width:.4251917;stroke-miterlimit:4;stroke-dasharray:none"/>
      </g>
      <path style="color:#000;font-style:normal;font-variant:normal;font-weight:400;font-stretch:normal;font-size:medium;line-height:normal;font-family:Sans;-inkscape-font-specification:Sans;text-indent:0;text-align:start;text-decoration:none;text-decoration-line:none;letter-spacing:normal;word-spacing:normal;text-transform:none;direction:ltr;block-progression:tb;writing-mode:lr-tb;baseline-shift:baseline;text-anchor:start;display:inline;overflow:visible;visibility:visible;fill:#333;fill-opacity:1;stroke:none;stroke-width:.4251917;stroke-miterlimit:4;stroke-dasharray:none;marker:none;enable-background:accumulate" d="M373.46875 173.1977c-.37764-.16669-.8378-.15911-1.15625.0625-.56961.39641-.47948.86094-.25 1.09375 0 0 .0865-.12087.1875-.28125.10099-.16038.23128-.34782.28125-.375.2071-.11263.52581-.14767.71875-.0625.27417.12103.53085.47937.59375.78125.0215.10323.0274.31438-.0312.5625s-.18216.52149-.28125.78125c-.19818.51952-.40625.96875-.40625.96875l.46875.21875s.19808-.4543.40625-1c.10408-.27285.21467-.56201.28125-.84375.0666-.28174.11345-.568.0625-.8125-.0991-.47558-.42265-.89408-.875-1.09375z" transform="matrix(1.8921 .18915 -.18915 1.8921 -135.11986259 -341.35528748)"/>
      <g style="fill:#ffdb43;fill-opacity:1;stroke-width:.4251917;stroke-miterlimit:4;stroke-dasharray:none">
        <path d="M367.5 408.40625c-9.69199 2.61942-21.29936 2.16112-30.40625 2.96875-2.1434.19009-3.98323.80484-5.65625 1.53125.21175.0982.4272.13281.625.28125a.85908575.85908575 0 0 1 .25.25c.28933.50665.29937 1.04016.25 1.5625.84219-.35829 1.74059-.76508 2.46875-.96875 9.50314-2.65804 20.36278-.0637 28.96875-3.21875 1.32386-.48533 2.46804-1.40137 3.5-2.40625zM359.90625 413.4375c-8.15636 1.46022-16.99379.13673-24.4375 2.21875-.6568.18371-1.57244.62776-2.4375 1 .46037.16655.89522.42661 1.28125.8125a.84885764.84885764 0 0 1 .125.125c5.77925-1.96787 10.39661-1.8613 14.3125-1.78125 4.08564.0835 7.35371.10281 11-2.25.0526-.0339.10374-.0899.15625-.125zM345.15625 417.40625c-3.10147.0489-6.53922.40124-10.65625 1.875-.13625.60638-.41789 1.15768-.8125 1.625-.0942.11157-.24061.14737-.34375.25.19496.0903.37822.21863.5625.34375 3.19285-1.9763 6.14308-2.43862 8.9375-2.6875 2.46682-.21971 4.83943-.49915 7.34375-1.40625-1.61237-.005-3.26601-.0279-5.03125 0z" style="display:inline;fill:#ffdb43;fill-opacity:1;stroke:none;stroke-width:.4251917;stroke-miterlimit:4;stroke-dasharray:none" transform="matrix(1.8921 .18915 -.18915 1.8921 -100.99985494 -759.1216556)"/>
      </g>
    </g>
  </g>
</svg>
