<?xml version="1.0" encoding="UTF-8" standalone="no"?>
<!-- Created with Inkscape (http://www.inkscape.org/) -->

<svg
   xmlns:dc="http://purl.org/dc/elements/1.1/"
   xmlns:cc="http://creativecommons.org/ns#"
   xmlns:rdf="http://www.w3.org/1999/02/22-rdf-syntax-ns#"
   xmlns:svg="http://www.w3.org/2000/svg"
   xmlns="http://www.w3.org/2000/svg"
   xmlns:sodipodi="http://sodipodi.sourceforge.net/DTD/sodipodi-0.dtd"
   xmlns:inkscape="http://www.inkscape.org/namespaces/inkscape"
   width="781.85809"
   height="521.23871"
   id="svg3860"
   version="1.1"
   inkscape:version="0.48.4 r9939"
   sodipodi:docname="Brussel vlag.svg">
  <defs
     id="defs3862" />
  <sodipodi:namedview
     id="base"
     pagecolor="#ffffff"
     bordercolor="#666666"
     borderopacity="1.0"
     inkscape:pageopacity="0.0"
     inkscape:pageshadow="2"
     inkscape:zoom="0.98994949"
     inkscape:cx="465.06005"
     inkscape:cy="250.08409"
     inkscape:document-units="px"
     inkscape:current-layer="layer1"
     showgrid="false"
     fit-margin-top="0"
     fit-margin-left="0"
     fit-margin-right="0"
     fit-margin-bottom="0"
     inkscape:window-width="1600"
     inkscape:window-height="837"
     inkscape:window-x="-8"
     inkscape:window-y="-8"
     inkscape:window-maximized="1" />
  <metadata
     id="metadata3865">
    <rdf:RDF>
      <cc:Work
         rdf:about="">
        <dc:format>image/svg+xml</dc:format>
        <dc:type
           rdf:resource="http://purl.org/dc/dcmitype/StillImage" />
      </cc:Work>
    </rdf:RDF>
  </metadata>
  <g
     inkscape:label="Laag 1"
     inkscape:groupmode="layer"
     id="layer1"
     transform="translate(99.500473,-123.1714)">
    <rect
       style="fill:#04882f;fill-opacity:1;fill-rule:evenodd;stroke:none"
       id="rect3800"
       width="781.85809"
       height="274.48666"
       x="-99.500473"
       y="123.1714" />
    <rect
       style="fill:#da0e19;fill-opacity:1;fill-rule:evenodd;stroke:none"
       id="rect3802"
       width="781.85809"
       height="259.60919"
       x="-99.500473"
       y="384.8009" />
    <path
       style="fill:#fcdd04;fill-opacity:1;stroke:none"
       d="m 410.14872,467.16719 c -9.3732,6.3103 -11.2493,10.2229 -0.1316,9.9797 l -10.3941,8.516 c -0.5553,13.2067 -2.3638,25.9291 -9.8679,36.3262 -1.6149,2.1548 -0.1124,4.2355 4.4734,3.1935 7.9331,-2.9237 14.2276,-9.1141 16.0518,-24.2174 9.4689,3.3699 18.537,5.3802 19.7356,-19.2942 10.2779,5.9085 17.0468,1.9384 18.1568,-17.9634 8.2692,3.5529 15.5409,0.1565 21.5778,-11.8426 -22.64,65.4203 -55.45,122.9986 -102.9756,118.1249 -4.9217,10.8795 -14.3991,18.8442 -26.7917,23.9503 -31.4255,12.9481 -82.1947,9.0431 -119.3888,-10.1461 -20.9014,-10.7834 -41.1936,-23.3777 -55.7699,-40.4355 -15.9354,-18.6482 -28.8454,-39.434 -37.1496,-60.8721 l 4.8377,2.2581 1.3957,-4.4221 c 7.4616,19.345 17.3745,37.9155 32.7482,54.7601 l 4.7447,-1.4113 -1.2388,-48.4076 -27.7615,-28.6085 0.4604,-31.2698 4.4735,6.0544 5.197,-5.7882 5.2629,6.4535 6.1838,-6.3205 0,26.3464 23.683,20.891 c 0.4784,0.3162 3.2984,1.7378 1.7104,-2.4617 l -8.4205,-18.2962 -0.7237,-29.0742 6.118,6.0544 4.2762,-5.9213 5.6575,5.9878 5.197,-6.0544 1.842,32.2678 18.42,27.0783 1.2044,24.3473 c 0.6279,9.2797 8.5193,8.0141 14.5134,9.5031 l 19.5373,9.8794 4.2796,-1.5995 -0.8527,-47.852 c -4.359,-26.9288 -8.3953,-65.927 -13.1956,-76.3464 l -10.8851,0.2823 6.7133,-12.5558 -44.0764,-58.1485 14.736,5.0564 31.9718,43.7777 15.7886,-41.3826 c 0.4366,-9.1369 -3.4411,-18.2739 -7.3679,-27.4109 -5.4747,8.6274 -12.0089,14.0405 -22.8936,6.2539 -0.4583,15.0367 -9.0716,19.8623 -19.8673,21.9554 -4.7038,9.068 -5.264,23.0028 -24.4722,15.0361 -5.3275,18.9875 -13.1323,26.3424 -25.3932,12.7741 -4.0431,20.8595 -11.6546,27.2836 -24.1283,14.0385 -2.2505,6.6141 -4.4961,11.6716 -7.2933,14.6208 -16.9664,17.8888 -31.270995,-16.5337 -8.3348,-79.3129 4.4097,-12.0696 9.4427,-25.429 16.0002,-39.6533 l -6.3263,-4.8927 c 3.1218,-17.0691 37.2973,-63.9423 74.4957,-75.5104 1.7862,-0.5555 3.5791,-1.0318 5.3767,-1.4151 21.7234,-4.6318 47.397,1.9503 50.5628,42.6769 0.9702,5.4172 3.7481,8.9046 9.1804,9.5585 l 9.0126,1.3972 c 5.9478,1.4249 8.6931,-3.7897 4.4735,-8.5161 -29.8471,-12.0737 -25.0335,-54.6982 -9.9994,-62.7391 7.8115,-5.5438 15.7866,-7.1722 23.0888,-6.066 16.317,2.472 25.327,18.7317 29.5397,35.2068 l -4.8681,2.7943 c 0.3322,10.6169 -1.2997,20.2064 -11.0519,25.548 -5.5867,3.7385 -5.9968,9.0474 -4.6051,14.9031 4.4963,6.0697 16.9447,8.8057 24.7353,-0.7984 5.3162,-5.9473 2.3734,-12.8227 1.8421,-19.4272 -0.4486,-13.4078 2.4351,-22.6518 7.013,-28.8699 8.9483,-12.1539 25.6358,-13.9098 41.8866,-4.8607 20.4924,11.4109 41.0433,37.9096 59.3836,63.0045 l -7.1048,6.387 c 20.5079,29.6603 39.9375,68.4551 39.0026,106.441 -3.4075,35.4378 -23.8259,17.9788 -24.5298,3.4689 -10.6437,10.6558 -25.8297,0.7327 -26.5773,-15.7014 -11.4419,11.5253 -22.2853,8.4385 -26.0512,-13.3063 -9.5805,10.7206 -16.4925,1.0705 -22.3671,-16.4998 -11.9266,13.4103 -23.166,-3.6213 -21.3147,-19.161 -8.6609,6.5485 -17.2855,13.3532 -28.6826,0.5322 l -3.947,29.1408 27.7617,61.0758 -13.8152,-0.2661 -3.5525,20.7578 c 0,8.648 -0.011,17.3002 -3.0967,28.7193 -1.823,11.6764 -4.3616,22.9392 -3.8765,35.9493 l -18.72135,-17.07204 -4.66766,-14.0545 -0.13289,-1.89246 c -1.0958,-25.7819 -2.8165,-42.1659 -4.9749,-47.4289 -2.5479,-6.2124 -6.4951,2.5378 -9.1664,30.6809 l 18.0488,22.5815 2.419,15.8071 -21.026,-26.3451 -6.1403,32.9314 3.9075,59.0883 c 9.9679,10.4089 15.8506,-0.7575 22.8867,-5.8335 l -2.605,-68.121 20.0024,19.2884 22.3284,29.356 -4.1865,8.7503 -16.2811,-20.8879 1.0233,23.8047 12.022,-8.1859 4.605,-4.391 c 7.2351,-6.2532 6.557,-15.5663 5.526,-25.0159 -8.7537,-4.2055 -14.5282,-9.7022 -15.9201,-17.0985 l 17.499,-2.4617 c 0.9576,5.5404 7.9232,10.9095 11.2494,-0.3992 l 2.4997,-1.0645 0.7894,-7.1854 6.6446,3.4597 c 8.0251,-1.2516 16.1107,-2.2645 25.8537,3.26 l 13.6176,0.3327 z"
       id="path2996-1-4"
       inkscape:connector-curvature="0"
       sodipodi:nodetypes="ccccccccccssscccccccccccccccccccccccccccccccccccccccccssccsscccccsccccccssccccccccccccccccccsccccccccccccccccccccccccc" />
    <path
       sodipodi:type="arc"
       style="fill:#da0e19;fill-opacity:1;fill-rule:evenodd;stroke:none"
       id="path2998-7-0"
       sodipodi:cx="72.276787"
       sodipodi:cy="642.94257"
       sodipodi:rx="4.0625"
       sodipodi:ry="7.1875"
       d="m 76.339287,642.94257 c 0,3.96954 -1.818843,7.1875 -4.0625,7.1875 -2.243657,0 -4.0625,-3.21796 -4.0625,-7.1875 0,-3.96955 1.818843,-7.1875 4.0625,-7.1875 2.243657,0 4.0625,3.21795 4.0625,7.1875 z"
       transform="matrix(0.57357305,0.2466328,-0.24738177,0.57183651,496.99012,86.806263)" />
  </g>
</svg>
