<svg id="svg" version="1.1" xmlns="http://www.w3.org/2000/svg" xmlns:xlink="http://www.w3.org/1999/xlink" width="400" height="266.6666666666667" viewBox="0, 0, 400,266.6666666666667"><g id="svgg"><path id="path0" d="M170.767 71.074 C 165.889 75.513,165.169 77.819,168.561 78.133 C 171.944 78.447,174.460 81.578,171.349 81.605 C 170.668 81.611,166.286 82.991,165.200 83.541 C 164.760 83.764,163.364 84.261,162.098 84.646 C 160.832 85.031,159.280 85.720,158.649 86.176 C 158.019 86.633,156.775 87.439,155.885 87.967 C 153.811 89.198,153.690 89.274,151.895 90.467 C 151.067 91.017,150.311 91.467,150.214 91.467 C 150.118 91.467,149.250 91.994,148.286 92.638 C 147.322 93.282,145.645 94.306,144.560 94.914 L 142.587 96.018 141.915 95.409 C 140.268 93.917,138.849 92.390,138.280 91.499 C 137.941 90.968,137.371 90.263,137.013 89.932 L 136.362 89.330 135.754 89.978 C 134.853 90.937,135.356 92.263,137.094 93.512 C 137.812 94.028,138.401 94.529,138.403 94.625 C 138.409 94.981,140.715 97.290,141.609 97.835 C 143.294 98.862,143.475 98.792,150.343 94.474 C 151.327 93.855,152.561 93.114,153.085 92.827 C 153.608 92.540,154.192 92.117,154.384 91.886 C 154.575 91.655,154.881 91.467,155.064 91.467 C 155.247 91.467,156.162 90.954,157.098 90.327 C 161.204 87.578,166.794 85.067,168.812 85.067 C 169.026 85.066,169.831 84.826,170.603 84.533 C 171.374 84.240,172.420 84.000,172.927 84.000 C 177.026 84.000,176.383 78.993,171.961 76.484 C 170.248 75.513,170.209 74.894,171.776 73.563 C 173.409 72.177,173.807 71.337,173.166 70.629 C 172.513 69.907,171.930 70.015,170.767 71.074 M225.319 73.558 C 224.859 73.930,224.664 74.453,224.516 75.713 C 224.375 76.905,224.143 77.566,223.693 78.046 C 223.016 78.771,223.239 78.767,219.200 78.130 C 213.048 77.159,194.820 76.793,193.769 77.619 C 192.847 78.345,192.874 78.460,194.133 79.168 C 196.574 80.539,195.345 81.373,190.841 81.403 C 187.165 81.428,185.698 80.370,186.358 78.170 C 186.892 76.385,186.674 75.467,185.714 75.467 C 183.994 75.467,183.167 80.238,184.600 81.893 C 186.875 84.520,199.200 83.306,199.200 80.456 C 199.200 79.702,198.497 78.667,197.985 78.667 C 197.353 78.667,197.549 78.140,198.284 77.860 C 199.350 77.455,200.408 77.552,200.905 78.102 C 201.723 79.006,204.594 79.501,212.000 80.017 C 214.420 80.186,217.000 80.432,217.733 80.563 C 218.467 80.695,220.253 80.948,221.704 81.125 L 224.341 81.448 225.089 80.551 C 225.641 79.890,225.878 79.262,225.991 78.160 C 226.075 77.339,226.337 76.046,226.575 75.287 C 227.222 73.217,226.673 72.462,225.319 73.558 M230.747 74.656 C 230.140 75.025,229.807 75.499,229.592 76.295 C 229.427 76.911,229.061 77.844,228.779 78.370 C 228.497 78.895,228.267 79.530,228.267 79.780 C 228.267 80.030,228.147 80.309,228.000 80.400 C 227.506 80.705,227.728 81.067,228.409 81.067 C 229.354 81.067,230.339 80.354,230.953 79.226 C 231.240 78.698,231.899 77.497,232.416 76.556 C 233.723 74.178,232.958 73.307,230.747 74.656 M236.954 77.158 C 234.754 79.196,234.172 81.293,235.462 82.529 C 236.493 83.516,236.187 83.895,234.171 84.129 C 232.231 84.354,231.883 84.564,232.089 85.387 C 232.257 86.054,234.143 87.200,235.072 87.200 C 236.193 87.200,239.450 84.497,239.472 83.549 C 239.474 83.430,239.834 82.805,240.272 82.160 C 242.430 78.974,239.599 74.706,236.954 77.158 M238.000 79.822 C 238.000 80.517,237.477 80.474,237.378 79.770 C 237.316 79.339,237.400 79.178,237.644 79.259 C 237.840 79.324,238.000 79.578,238.000 79.822 M247.733 82.133 C 247.356 82.511,247.200 83.022,247.200 83.884 C 247.200 85.929,245.796 87.012,242.665 87.383 C 241.110 87.567,240.797 88.073,241.659 89.009 C 243.667 91.189,246.797 90.121,248.525 86.667 C 250.145 83.430,249.593 80.273,247.733 82.133 M255.560 87.199 C 254.860 87.481,253.007 88.896,251.703 90.144 C 251.173 90.652,250.187 91.487,249.513 92.000 C 247.762 93.333,247.794 94.159,249.667 95.930 C 252.474 98.584,255.110 100.995,257.000 102.640 C 258.811 104.215,259.621 105.270,263.372 110.933 C 265.136 113.598,265.970 114.798,266.150 114.933 C 266.248 115.007,266.614 115.593,266.964 116.236 C 267.922 117.997,268.096 118.267,268.602 118.773 C 268.857 119.029,269.392 119.799,269.790 120.486 C 270.188 121.172,271.034 122.543,271.670 123.533 C 272.624 125.020,272.868 125.670,273.069 127.267 C 274.040 134.986,274.137 135.339,275.407 135.758 C 277.282 136.376,280.656 135.166,281.976 133.402 C 282.962 132.083,280.262 131.352,278.943 132.581 L 278.319 133.162 277.694 132.381 C 276.942 131.441,276.947 131.532,277.582 130.492 C 277.906 129.960,278.396 129.585,278.914 129.471 C 280.096 129.211,279.927 128.922,278.333 128.479 C 276.657 128.012,276.476 127.366,277.790 126.539 C 278.992 125.782,278.939 125.121,277.667 125.016 C 276.752 124.940,276.602 124.808,275.913 123.470 C 275.498 122.665,275.069 121.945,274.961 121.870 C 274.852 121.795,274.262 121.073,273.651 120.267 C 273.040 119.460,272.060 118.200,271.473 117.467 C 270.887 116.733,270.406 115.998,270.404 115.832 C 270.402 115.666,269.890 114.861,269.267 114.041 C 268.115 112.528,265.800 109.071,263.867 105.977 C 261.932 102.882,262.233 103.217,257.857 99.277 C 250.949 93.055,251.138 93.311,252.502 92.046 C 253.490 91.129,255.906 89.299,256.710 88.858 C 257.466 88.443,257.522 87.587,256.818 87.209 C 256.229 86.894,256.312 86.895,255.560 87.199 M208.867 101.524 C 208.422 101.685,208.459 102.904,208.933 103.733 C 209.143 104.100,209.319 105.030,209.324 105.800 C 209.336 107.606,210.327 107.864,211.088 106.260 C 211.942 104.460,210.318 100.999,208.867 101.524 M181.324 102.277 C 180.639 103.006,179.904 105.509,180.303 105.756 C 180.430 105.834,180.533 106.119,180.533 106.390 C 180.533 106.692,180.831 106.985,181.308 107.151 C 182.202 107.463,182.390 107.120,182.396 105.166 C 182.399 104.501,182.564 103.930,182.814 103.722 C 183.065 103.513,183.196 103.057,183.147 102.556 C 183.040 101.463,182.208 101.335,181.324 102.277 M127.448 102.556 C 126.817 103.316,127.478 103.852,129.227 104.000 C 131.143 104.162,131.470 104.932,130.284 106.487 C 129.908 106.980,129.600 107.473,129.600 107.582 C 129.600 107.690,128.826 108.803,127.879 110.053 C 126.579 111.771,126.088 112.669,125.868 113.728 C 125.708 114.499,125.406 115.356,125.197 115.632 C 124.988 115.908,124.813 116.280,124.808 116.459 C 124.804 116.638,124.514 117.418,124.165 118.192 C 123.815 118.966,123.444 119.900,123.340 120.267 C 122.367 123.694,120.343 124.651,117.721 122.923 C 117.288 122.637,116.573 122.400,116.133 122.396 C 115.693 122.392,114.805 122.149,114.160 121.856 C 112.813 121.245,112.709 121.278,112.951 122.242 C 113.175 123.133,113.620 123.357,115.552 123.546 C 116.405 123.630,117.263 123.831,117.458 123.993 C 117.654 124.155,118.565 124.409,119.484 124.557 C 120.402 124.705,121.483 125.060,121.885 125.346 C 122.287 125.632,122.718 125.867,122.844 125.867 C 124.438 125.867,125.843 129.441,124.937 131.193 C 123.938 133.125,119.118 133.309,118.524 131.438 C 118.350 130.889,117.700 130.786,117.067 131.208 C 116.550 131.552,118.019 132.976,119.131 133.210 C 119.536 133.295,120.047 133.478,120.267 133.617 C 123.106 135.401,128.001 133.583,128.000 130.744 C 127.999 129.458,127.054 127.442,125.906 126.277 C 124.636 124.988,124.467 123.944,125.305 122.565 C 125.582 122.107,125.888 121.313,125.984 120.800 C 126.080 120.287,126.405 119.267,126.707 118.533 C 127.249 117.214,127.457 116.749,129.043 113.293 C 129.491 112.318,130.250 110.998,130.730 110.360 C 132.252 108.336,134.400 104.917,134.400 104.518 C 134.400 102.918,128.524 101.259,127.448 102.556 M136.160 106.292 C 135.980 106.764,136.166 107.200,136.549 107.200 C 136.869 107.200,136.879 106.214,136.561 106.017 C 136.430 105.936,136.250 106.060,136.160 106.292 M188.000 108.267 C 188.000 108.413,188.120 108.533,188.267 108.533 C 188.418 108.533,188.533 109.304,188.533 110.311 C 188.533 112.192,188.312 112.323,187.858 110.712 C 187.515 109.493,185.809 109.201,185.648 110.333 C 185.601 110.663,185.681 110.933,185.826 110.933 C 185.971 110.933,186.286 111.450,186.528 112.081 C 186.837 112.892,187.189 113.313,187.726 113.516 C 188.887 113.954,189.461 119.391,188.426 120.147 C 188.187 120.322,188.059 120.643,188.142 120.860 C 188.387 121.497,189.882 119.914,190.148 118.737 C 190.411 117.569,190.436 109.273,190.177 108.906 C 189.754 108.308,188.000 107.793,188.000 108.267 M204.835 109.750 C 204.100 110.596,203.733 111.528,203.733 112.551 C 203.733 113.567,204.432 113.598,204.857 112.600 C 205.028 112.197,205.387 111.618,205.654 111.313 C 206.007 110.910,206.093 110.530,205.969 109.913 C 205.764 108.888,205.604 108.865,204.835 109.750 M198.028 110.355 C 197.943 110.493,198.099 110.665,198.375 110.737 C 198.667 110.814,198.951 111.208,199.056 111.683 C 199.154 112.130,199.407 112.639,199.617 112.814 C 200.338 113.413,200.138 116.915,199.353 117.429 C 198.547 117.957,198.395 118.808,198.906 119.933 C 199.283 120.765,199.733 121.092,199.733 120.533 C 199.733 120.387,199.976 120.024,200.273 119.727 C 201.585 118.415,201.445 113.429,200.019 110.667 C 199.784 110.212,198.264 109.973,198.028 110.355 M178.258 111.493 C 178.161 111.801,178.160 112.581,178.257 113.226 L 178.433 114.400 180.121 114.400 C 183.041 114.400,183.000 112.788,180.045 111.455 C 178.599 110.802,178.477 110.805,178.258 111.493 M212.000 111.467 C 211.662 111.760,211.193 112.004,210.959 112.009 C 208.640 112.057,209.005 114.400,211.332 114.400 L 213.006 114.400 213.187 113.197 C 213.498 111.123,213.087 110.524,212.000 111.467 M195.733 115.449 C 195.733 115.775,196.718 116.082,197.069 115.865 C 197.219 115.773,197.273 115.585,197.189 115.448 C 196.989 115.125,195.733 115.125,195.733 115.449 M210.816 117.940 C 208.448 118.178,207.895 118.463,208.174 119.304 C 208.277 119.614,208.337 120.518,208.308 121.314 C 208.248 122.930,208.455 123.190,209.807 123.196 C 210.481 123.199,210.734 123.057,210.920 122.570 C 211.051 122.223,211.332 121.873,211.544 121.792 C 211.784 121.700,211.978 121.119,212.062 120.244 C 212.149 119.342,212.362 118.723,212.660 118.505 C 213.501 117.890,212.960 117.725,210.816 117.940 M179.592 118.426 C 179.379 119.097,179.652 120.689,180.137 121.600 C 180.332 121.967,180.557 122.477,180.637 122.733 C 180.785 123.206,181.712 123.342,182.800 123.049 C 183.282 122.919,183.335 122.670,183.355 120.443 L 183.377 117.981 181.572 117.926 C 179.954 117.877,179.749 117.929,179.592 118.426 M281.628 123.687 C 280.782 124.420,280.715 125.161,281.434 125.836 C 281.991 126.360,282.036 126.534,281.785 127.199 C 281.203 128.742,282.627 130.068,284.130 129.383 C 284.473 129.227,284.906 128.678,285.092 128.163 C 285.394 127.329,285.548 127.217,286.494 127.146 C 287.874 127.043,288.923 125.559,288.078 124.906 C 286.821 123.936,285.571 124.246,284.962 125.678 L 284.599 126.533 284.299 125.783 C 284.135 125.370,284.000 124.740,284.000 124.383 C 284.000 124.026,283.969 123.733,283.932 123.733 C 283.894 123.733,283.476 123.622,283.003 123.487 C 282.327 123.293,282.033 123.336,281.628 123.687 M188.000 123.969 C 184.065 124.663,184.112 127.692,188.058 127.750 C 188.974 127.764,189.087 127.813,188.627 127.998 C 187.892 128.295,187.600 128.773,187.943 129.116 C 188.289 129.462,189.333 129.139,189.333 128.686 C 189.333 128.496,189.621 127.916,189.974 127.398 C 190.336 126.864,190.513 126.353,190.382 126.222 C 190.255 126.095,190.052 125.513,189.930 124.930 C 189.695 123.797,189.505 123.703,188.000 123.969 M201.527 124.878 C 201.362 125.896,201.692 127.988,202.056 128.232 C 202.193 128.325,202.386 128.619,202.485 128.886 C 202.762 129.634,203.602 129.326,203.591 128.481 C 203.583 127.857,203.709 127.758,204.694 127.610 C 207.890 127.131,206.518 124.000,203.112 124.000 C 201.688 124.000,201.668 124.011,201.527 124.878 M193.067 127.666 C 193.067 127.903,193.628 128.000,194.987 128.000 C 196.470 128.000,196.835 127.928,196.590 127.683 C 196.149 127.242,193.067 127.227,193.067 127.666 M197.467 127.733 C 197.376 127.880,197.549 128.000,197.851 128.000 C 198.153 128.000,198.400 127.880,198.400 127.733 C 198.400 127.587,198.227 127.467,198.016 127.467 C 197.804 127.467,197.557 127.587,197.467 127.733 M203.637 137.085 C 202.704 137.819,202.743 138.702,203.754 139.713 C 204.544 140.503,205.600 140.819,205.600 140.267 C 205.600 140.120,205.480 140.000,205.333 140.000 C 205.187 140.000,205.063 139.430,205.058 138.733 C 205.046 136.910,204.566 136.354,203.637 137.085 M190.414 137.450 C 190.020 137.925,190.356 140.435,190.803 140.349 C 191.315 140.250,191.603 137.889,191.157 137.443 C 190.798 137.083,190.717 137.084,190.414 137.450 M193.865 137.469 C 193.445 137.975,193.673 139.921,194.216 140.464 C 194.560 140.807,194.644 140.743,194.911 139.933 C 195.079 139.426,195.510 138.735,195.871 138.396 C 196.372 137.925,196.457 137.696,196.231 137.423 C 195.830 136.941,194.278 136.971,193.865 137.469 M198.894 138.691 C 198.516 139.953,198.729 140.477,199.838 141.021 C 200.687 141.437,201.333 141.081,201.333 140.198 C 201.333 137.640,199.541 136.532,198.894 138.691 M186.191 139.168 C 183.841 141.733,183.869 141.930,186.557 141.813 C 189.279 141.695,189.950 139.946,187.716 138.791 C 186.938 138.389,186.894 138.400,186.191 139.168 M127.867 146.276 C 127.305 146.534,125.837 146.648,122.933 146.662 C 119.552 146.677,118.606 146.768,117.733 147.161 L 116.667 147.642 118.241 148.233 C 120.390 149.039,121.700 149.273,125.666 149.560 C 129.030 149.804,130.070 150.195,130.124 151.236 C 130.146 151.649,128.910 151.664,128.159 151.259 C 127.513 150.910,126.490 150.800,123.467 150.755 C 121.340 150.723,118.804 150.630,117.832 150.549 C 115.653 150.368,115.195 150.701,115.758 152.059 C 116.247 153.240,119.574 156.686,121.052 157.543 C 121.720 157.930,122.951 158.936,123.788 159.779 C 125.368 161.371,127.212 162.470,129.309 163.068 C 129.983 163.260,131.013 163.603,131.600 163.830 C 132.410 164.144,133.824 164.250,137.467 164.271 C 140.107 164.287,143.167 164.411,144.267 164.548 C 146.987 164.886,155.915 165.303,163.239 165.434 C 166.561 165.494,169.480 165.656,169.726 165.793 C 170.393 166.166,169.034 167.733,168.043 167.735 C 164.863 167.741,164.489 169.436,167.490 170.235 C 168.284 170.447,169.378 170.810,169.922 171.042 C 170.724 171.385,171.942 171.459,176.413 171.437 C 180.127 171.418,182.012 171.506,182.212 171.706 C 182.574 172.067,183.172 174.258,183.188 175.280 C 183.195 175.691,183.387 176.388,183.616 176.830 C 184.933 179.377,183.468 180.403,178.533 180.392 C 171.869 180.376,164.159 179.975,162.189 179.542 C 160.698 179.215,159.912 179.175,158.822 179.373 C 158.040 179.514,157.175 179.542,156.900 179.434 C 156.151 179.140,143.340 179.160,142.559 179.457 C 141.645 179.804,140.008 181.579,139.845 182.400 C 139.772 182.767,139.537 183.406,139.323 183.822 C 138.387 185.636,139.058 186.400,141.585 186.400 C 143.156 186.400,143.412 186.680,143.517 188.521 C 143.665 191.092,148.943 192.412,151.482 190.513 C 153.568 188.953,153.816 188.912,154.898 189.942 C 158.114 193.003,163.525 192.826,165.117 189.609 C 165.513 188.807,166.055 188.065,166.319 187.961 C 167.806 187.374,179.117 187.918,183.600 188.792 C 185.067 189.078,186.886 189.287,187.644 189.256 C 189.221 189.192,189.578 189.399,189.043 190.065 C 188.250 191.053,188.117 191.685,188.142 194.354 C 188.161 196.436,188.261 197.166,188.550 197.349 C 189.446 197.916,189.865 197.609,190.679 195.788 C 191.301 194.397,191.704 193.860,192.413 193.478 L 193.336 192.981 194.262 194.024 C 194.806 194.637,195.259 195.483,195.363 196.078 C 195.592 197.395,196.667 198.063,197.556 197.441 C 197.979 197.144,198.256 197.114,198.644 197.321 C 199.398 197.725,199.553 197.685,200.667 196.800 C 201.220 196.360,201.759 196.000,201.864 196.000 C 201.969 196.000,202.431 196.360,202.891 196.800 C 204.405 198.247,205.499 197.569,205.225 195.352 C 205.134 194.608,204.985 193.190,204.894 192.200 C 204.740 190.532,204.682 190.400,204.098 190.400 C 203.508 190.400,202.408 191.218,202.394 191.667 C 202.370 192.417,199.505 194.971,198.780 194.889 C 197.902 194.789,197.904 194.836,198.669 192.698 C 199.534 190.278,198.146 189.204,195.689 190.391 C 193.743 191.331,193.215 190.213,194.947 188.821 C 196.147 187.857,197.148 187.766,206.933 187.725 C 210.380 187.711,215.660 187.543,218.667 187.352 C 224.866 186.959,224.364 186.881,225.096 188.351 C 225.677 189.517,226.045 189.973,228.111 192.077 C 230.750 194.766,236.221 195.957,238.839 194.412 C 239.348 194.112,239.915 193.867,240.100 193.867 C 240.698 193.867,244.533 189.913,244.533 189.296 C 244.533 189.154,244.785 188.485,245.093 187.809 C 245.951 185.926,245.905 182.288,244.996 180.081 C 241.453 171.477,231.993 170.317,226.578 177.822 C 225.060 179.926,223.329 180.172,208.157 180.443 L 199.647 180.594 198.624 179.452 C 197.127 177.781,197.204 176.970,198.986 175.632 C 200.219 174.706,201.015 172.837,200.626 171.779 C 200.334 170.986,201.162 168.800,201.754 168.800 C 201.927 168.800,202.216 168.622,202.397 168.404 C 202.650 168.099,203.315 168.016,205.296 168.044 C 211.147 168.126,218.454 167.584,218.858 167.039 C 219.211 166.564,219.253 166.561,219.574 166.993 C 220.086 167.683,222.512 167.885,224.000 167.363 C 224.913 167.042,226.297 166.940,229.790 166.937 C 235.031 166.933,239.475 166.542,240.718 165.977 C 241.623 165.565,246.718 165.083,250.268 165.073 C 251.443 165.069,252.823 164.941,253.335 164.787 C 253.847 164.633,257.507 164.415,261.467 164.304 C 267.277 164.141,268.823 164.019,269.476 163.674 C 269.921 163.438,270.761 163.159,271.343 163.053 C 273.367 162.685,276.866 160.559,277.685 159.200 C 277.906 158.833,278.781 158.173,279.629 157.733 C 282.574 156.205,286.110 152.068,285.413 150.963 C 284.984 150.283,273.346 150.532,272.915 151.230 C 272.724 151.539,270.667 151.538,270.667 151.230 C 270.667 150.152,271.595 149.813,275.212 149.567 C 277.185 149.433,279.843 149.074,281.118 148.769 C 286.080 147.582,285.067 146.897,278.000 146.660 C 275.360 146.572,272.781 146.357,272.268 146.183 C 271.049 145.769,269.488 145.786,268.000 146.231 C 267.340 146.429,265.480 146.732,263.867 146.906 C 262.253 147.079,259.253 147.403,257.200 147.626 C 250.764 148.323,250.254 148.348,249.239 148.013 C 248.704 147.836,248.267 147.576,248.267 147.433 C 248.267 146.130,245.400 145.446,243.272 146.243 C 242.314 146.602,236.600 147.206,234.206 147.202 C 233.547 147.201,232.718 147.421,232.206 147.732 C 231.393 148.228,230.847 148.266,224.267 148.277 C 218.631 148.288,216.984 148.372,216.133 148.693 C 215.547 148.915,214.732 149.203,214.322 149.333 C 213.912 149.463,212.967 150.080,212.220 150.705 C 210.700 151.979,209.757 152.106,208.597 151.193 C 207.719 150.502,206.001 150.506,204.860 151.201 C 204.099 151.665,203.515 151.733,200.305 151.733 C 196.261 151.733,196.186 151.713,196.558 150.734 C 197.366 148.609,195.324 147.034,192.151 147.334 C 190.968 147.447,189.040 147.561,187.867 147.589 C 186.693 147.617,185.471 147.781,185.151 147.954 C 184.405 148.355,177.472 148.373,175.342 147.979 C 174.173 147.763,173.369 147.774,172.107 148.025 C 170.580 148.329,170.262 148.307,168.613 147.790 C 167.354 147.394,165.416 147.125,162.267 146.907 C 159.773 146.735,157.268 146.430,156.700 146.230 C 154.650 145.509,152.635 145.879,151.984 147.096 C 151.296 148.381,149.961 148.480,143.467 147.727 C 135.496 146.801,132.452 146.375,131.968 146.116 C 131.290 145.753,128.797 145.850,127.867 146.276 M176.188 149.461 C 192.020 149.551,193.261 149.603,192.911 150.169 C 191.598 152.294,193.894 153.627,198.585 153.462 C 200.459 153.397,201.111 153.466,201.351 153.755 C 201.809 154.307,203.653 154.220,204.965 153.585 C 206.880 152.658,208.465 152.925,209.409 154.333 C 210.157 155.450,210.192 155.467,211.718 155.467 C 213.516 155.467,214.018 155.835,213.625 156.867 C 213.221 157.931,213.675 158.130,216.108 157.954 C 219.989 157.672,220.393 156.529,217.745 153.328 C 215.855 151.044,215.854 151.068,217.867 150.283 C 219.343 149.706,225.562 149.407,227.720 149.809 C 228.570 149.968,229.424 149.984,229.779 149.849 C 230.112 149.723,232.638 149.540,235.392 149.444 C 238.147 149.348,240.940 149.172,241.600 149.054 C 242.630 148.870,242.885 148.920,243.405 149.404 L 244.009 149.968 242.738 150.783 C 241.178 151.783,236.128 152.478,228.373 152.759 C 223.576 152.932,222.190 153.230,222.897 153.937 C 223.637 154.677,235.250 154.239,236.499 153.424 C 238.090 152.387,242.432 153.339,241.067 154.426 C 239.925 155.335,239.163 155.521,236.000 155.658 C 234.241 155.734,232.706 155.933,232.400 156.125 C 231.314 156.804,227.920 156.901,226.773 156.286 C 225.149 155.416,222.849 155.653,223.927 156.579 C 224.734 157.272,225.368 157.431,228.533 157.730 C 231.500 158.011,232.461 157.940,234.638 157.279 C 235.772 156.935,237.588 156.948,237.943 157.303 C 238.283 157.643,235.516 158.923,234.000 159.128 C 231.723 159.436,231.112 160.533,233.218 160.533 C 235.560 160.533,236.126 161.428,233.987 161.749 C 233.261 161.858,232.645 162.131,232.429 162.440 C 231.497 163.771,224.153 163.820,223.387 162.500 C 223.151 162.094,221.600 161.989,221.600 162.379 C 221.600 162.514,221.968 162.705,222.418 162.804 C 222.868 162.903,223.309 163.182,223.399 163.425 C 223.652 164.115,224.040 164.280,225.333 164.248 C 227.082 164.206,227.200 164.230,227.200 164.630 C 227.200 165.109,222.926 165.491,222.158 165.080 C 221.395 164.671,220.063 164.703,220.480 165.120 C 221.384 166.024,220.759 166.625,219.564 166.002 C 218.366 165.377,217.100 165.486,216.486 166.267 C 215.864 167.057,214.156 167.204,213.585 166.516 C 212.737 165.493,211.851 165.307,211.189 166.012 C 210.444 166.804,210.267 166.814,208.997 166.133 C 207.716 165.447,206.984 165.459,206.217 166.180 L 205.599 166.761 204.425 166.174 C 203.779 165.852,202.886 165.615,202.441 165.649 C 201.984 165.684,201.419 165.518,201.143 165.269 C 200.807 164.965,200.531 164.905,200.261 165.076 C 200.044 165.213,199.417 165.327,198.867 165.329 C 198.157 165.332,197.867 165.450,197.867 165.733 C 197.867 165.953,197.627 166.373,197.333 166.667 C 196.306 167.694,197.857 168.307,198.960 167.309 C 199.554 166.771,200.533 167.046,200.533 167.751 C 200.533 168.360,199.635 169.333,199.073 169.333 C 198.856 169.333,198.489 169.623,198.257 169.978 C 197.664 170.883,197.119 171.016,196.336 170.446 C 195.725 170.000,195.560 169.989,194.586 170.324 C 193.745 170.614,193.349 170.628,192.766 170.386 C 192.097 170.109,191.919 170.162,191.016 170.905 C 189.734 171.962,189.440 171.946,188.219 170.754 C 187.307 169.863,187.153 169.802,186.528 170.087 C 185.709 170.460,184.237 169.482,183.713 168.218 C 183.460 167.606,183.294 167.515,182.664 167.641 C 182.084 167.757,181.848 167.664,181.615 167.228 C 181.449 166.919,180.868 166.484,180.324 166.261 C 179.779 166.038,179.080 165.548,178.771 165.171 C 178.210 164.488,178.197 164.486,173.571 164.429 C 166.444 164.341,164.835 163.148,171.474 162.874 C 173.237 162.802,174.749 162.673,174.833 162.589 C 175.380 162.042,174.295 161.866,170.318 161.855 C 167.424 161.847,165.736 161.730,165.200 161.501 L 164.400 161.159 165.037 160.817 C 165.483 160.577,167.056 160.474,170.303 160.470 C 174.557 160.466,174.933 160.427,174.933 159.992 C 174.933 159.272,173.665 158.946,172.027 159.244 C 168.907 159.811,162.149 158.573,162.326 157.467 C 162.395 157.035,163.527 156.877,164.533 157.159 C 166.171 157.618,172.948 157.193,174.103 156.559 C 175.284 155.910,174.139 155.746,168.468 155.753 C 162.297 155.762,160.250 155.486,159.098 154.493 C 158.033 153.577,158.482 153.233,160.903 153.111 C 162.338 153.038,163.077 153.127,163.693 153.446 C 165.204 154.227,174.651 154.540,175.094 153.823 C 175.588 153.023,174.585 152.782,171.074 152.858 C 168.827 152.906,167.328 152.823,166.914 152.627 C 166.558 152.459,164.587 152.174,162.533 151.994 C 157.786 151.580,155.349 150.454,156.747 149.323 C 157.217 148.942,157.527 148.907,158.589 149.116 C 159.292 149.255,167.211 149.410,176.188 149.461 M140.706 150.156 C 141.274 150.377,142.032 150.366,143.701 150.111 C 145.457 149.843,146.329 149.837,147.773 150.085 C 148.783 150.258,150.358 150.412,151.272 150.427 C 154.100 150.472,154.895 150.954,154.049 152.112 C 153.397 153.002,136.067 152.093,134.982 151.111 C 134.712 150.867,134.365 150.667,134.212 150.667 C 133.803 150.667,133.305 149.986,133.536 149.743 C 133.813 149.452,139.782 149.795,140.706 150.156 M266.770 150.000 C 266.754 150.147,266.484 150.397,266.172 150.557 C 265.859 150.717,265.383 151.047,265.114 151.290 C 264.799 151.575,264.157 151.735,263.312 151.737 C 262.591 151.739,259.887 151.914,257.304 152.125 C 248.191 152.871,245.570 152.727,245.604 151.482 C 245.633 150.432,250.846 149.836,257.333 150.141 C 258.140 150.179,259.760 150.087,260.933 149.937 C 263.559 149.601,266.811 149.636,266.770 150.000 M185.187 151.849 C 183.803 153.961,193.045 162.088,194.642 160.163 C 194.987 159.747,193.842 158.596,192.735 158.247 C 192.404 158.143,191.543 157.475,190.821 156.762 C 190.100 156.050,189.423 155.467,189.317 155.467 C 189.211 155.467,188.933 154.988,188.699 154.404 C 188.279 153.354,186.379 151.200,185.873 151.200 C 185.730 151.200,185.421 151.492,185.187 151.849 M177.327 152.951 C 176.986 153.846,176.944 153.747,177.933 154.360 C 178.537 154.733,178.940 155.294,179.262 156.203 C 179.654 157.314,179.923 157.619,181.060 158.237 C 181.795 158.638,182.968 159.552,183.665 160.270 C 185.353 162.007,187.278 163.028,188.452 162.808 C 189.558 162.600,189.549 162.456,188.366 161.467 C 185.734 159.265,182.686 156.287,182.111 155.356 C 180.300 152.422,177.973 151.252,177.327 152.951 M132.278 153.377 C 133.034 153.641,133.318 154.213,132.840 154.509 C 132.541 154.693,123.993 154.241,123.429 154.011 C 120.819 152.944,129.294 152.337,132.278 153.377 M277.733 153.455 C 277.733 153.838,277.486 154.024,276.800 154.158 C 272.785 154.940,265.475 154.423,267.770 153.519 C 269.793 152.722,277.733 152.671,277.733 153.455 M141.054 153.355 C 141.794 153.514,142.400 153.764,142.400 153.911 C 142.400 154.076,143.438 154.147,145.133 154.098 C 151.723 153.908,157.204 154.525,156.498 155.376 C 156.205 155.729,155.210 155.761,148.893 155.618 C 141.783 155.457,141.620 155.465,141.337 155.993 C 141.138 156.365,140.781 156.532,140.191 156.529 C 138.901 156.523,138.564 156.206,139.236 155.631 C 139.918 155.047,139.715 154.845,138.000 154.398 C 136.154 153.918,136.040 153.813,136.943 153.428 C 137.931 153.006,139.313 152.982,141.054 153.355 M263.149 153.293 C 264.157 153.577,263.856 153.970,262.349 154.339 C 260.080 154.895,260.114 154.869,260.762 155.560 C 261.444 156.285,261.283 156.533,260.130 156.533 C 259.604 156.533,259.090 156.319,258.775 155.967 C 258.272 155.407,258.187 155.403,251.052 155.591 C 244.770 155.756,243.794 155.728,243.502 155.375 C 242.806 154.538,248.430 153.909,254.880 154.102 C 256.246 154.143,257.503 154.058,257.680 153.912 C 258.510 153.227,261.652 152.871,263.149 153.293 M195.192 155.482 C 194.823 156.171,195.130 158.933,195.576 158.933 C 196.034 158.933,196.587 156.065,196.250 155.435 C 195.901 154.784,195.557 154.799,195.192 155.482 M199.973 155.515 C 198.226 156.110,198.181 160.693,199.915 161.352 C 201.175 161.831,201.401 161.311,201.190 158.416 C 200.968 155.374,200.895 155.200,199.973 155.515 M203.667 155.755 C 203.081 156.096,203.091 157.215,203.690 158.235 C 204.336 159.334,204.641 159.151,204.845 157.544 C 205.076 155.728,204.698 155.154,203.667 155.755 M132.000 156.015 C 132.000 156.170,132.540 156.536,133.200 156.827 C 134.482 157.395,134.623 157.617,134.017 158.120 C 133.389 158.640,128.170 158.198,127.493 157.567 C 127.201 157.295,126.415 156.926,125.747 156.747 C 124.473 156.407,124.217 156.122,125.000 155.917 C 126.013 155.652,132.000 155.736,132.000 156.015 M276.116 155.973 C 276.726 156.212,276.473 156.402,275.200 156.660 C 274.687 156.764,273.845 157.120,273.330 157.453 C 271.934 158.353,266.581 158.703,266.162 157.921 C 265.916 157.460,266.020 157.347,267.054 156.952 C 267.698 156.706,268.369 156.332,268.545 156.119 C 268.896 155.697,275.104 155.577,276.116 155.973 M151.949 156.938 C 160.241 157.180,160.724 158.399,152.533 158.411 C 146.243 158.420,141.458 157.900,141.677 157.230 C 141.785 156.902,144.141 156.586,145.600 156.704 C 146.113 156.746,148.971 156.851,151.949 156.938 M258.105 157.166 C 258.732 157.921,256.109 158.230,247.600 158.404 C 247.453 158.407,246.193 158.348,244.800 158.274 C 243.407 158.199,242.177 158.137,242.067 158.136 C 241.582 158.130,241.926 157.330,242.467 157.206 C 244.473 156.746,257.728 156.712,258.105 157.166 M136.901 159.337 C 137.457 159.701,137.544 159.879,137.305 160.167 C 136.863 160.700,133.248 160.673,132.800 160.133 C 131.764 158.885,135.195 158.219,136.901 159.337 M267.680 159.306 C 268.432 160.069,267.486 160.533,265.182 160.533 C 262.750 160.533,262.147 160.051,263.509 159.196 C 264.603 158.510,266.957 158.572,267.680 159.306 M153.454 159.243 C 153.828 159.413,154.133 159.641,154.133 159.750 C 154.133 160.197,155.968 160.533,158.407 160.533 C 161.310 160.533,162.428 161.023,160.896 161.623 C 159.833 162.039,153.344 161.761,151.467 161.219 C 150.660 160.986,148.620 160.726,146.933 160.641 C 140.596 160.323,140.562 159.409,146.879 159.184 C 149.182 159.102,151.451 159.012,151.921 158.984 C 152.391 158.956,153.081 159.073,153.454 159.243 M257.162 159.524 C 258.183 160.057,257.048 160.378,253.501 160.560 C 251.543 160.660,249.710 160.865,249.430 161.015 C 248.052 161.752,240.537 162.160,239.017 161.580 C 237.571 161.028,238.935 160.533,241.905 160.533 C 244.303 160.533,245.867 160.209,245.867 159.713 C 245.867 159.027,255.888 158.860,257.162 159.524 M206.166 159.708 C 205.740 159.977,205.990 160.533,206.537 160.533 C 207.279 160.533,208.302 159.920,207.941 159.691 C 207.494 159.407,206.627 159.415,206.166 159.708 M231.106 160.717 C 231.005 160.817,230.055 160.980,228.994 161.078 L 227.067 161.255 229.400 161.294 C 231.314 161.326,231.733 161.261,231.733 160.933 C 231.733 160.514,231.417 160.405,231.106 160.717 M182.734 162.072 C 182.116 162.173,181.661 163.186,181.993 163.722 C 182.559 164.638,186.112 165.641,186.901 165.108 C 187.831 164.479,184.198 161.833,182.734 162.072 M201.878 162.846 C 201.023 163.933,201.644 164.264,202.650 163.257 C 203.604 162.304,203.650 162.133,202.953 162.133 C 202.670 162.133,202.187 162.454,201.878 162.846 M163.763 163.389 C 164.534 164.162,163.495 164.617,161.473 164.392 C 160.443 164.278,158.561 164.157,157.292 164.123 C 154.656 164.054,154.056 163.848,154.826 163.274 C 155.486 162.783,163.257 162.883,163.763 163.389 M245.189 163.293 C 245.959 163.855,245.274 164.088,242.682 164.145 C 241.427 164.173,239.592 164.288,238.604 164.401 C 236.872 164.598,236.000 164.372,236.000 163.723 C 236.000 162.948,244.193 162.564,245.189 163.293 M192.267 164.400 L 192.267 165.333 194.200 165.329 C 195.852 165.326,197.214 165.020,196.792 164.748 C 194.384 163.192,192.267 163.029,192.267 164.400 M218.609 163.796 C 219.059 164.013,219.299 164.008,219.529 163.778 C 219.766 163.541,219.621 163.471,218.920 163.485 C 218.056 163.502,218.037 163.521,218.609 163.796 M215.084 164.772 C 214.906 165.061,215.681 165.397,216.028 165.182 C 216.164 165.098,216.206 164.918,216.122 164.782 C 215.927 164.465,215.277 164.460,215.084 164.772 M189.191 165.882 C 189.095 166.037,189.090 166.457,189.180 166.815 C 189.499 168.085,192.267 167.354,192.267 166.000 C 192.267 165.522,189.479 165.415,189.191 165.882 M170.933 168.533 C 170.933 168.680,170.640 168.800,170.282 168.800 C 169.924 168.800,169.557 168.680,169.467 168.533 C 169.371 168.378,169.642 168.267,170.118 168.267 C 170.566 168.267,170.933 168.387,170.933 168.533 M197.164 173.658 C 196.935 174.029,196.548 173.606,196.715 173.169 C 196.839 172.846,196.921 172.830,197.086 173.098 C 197.203 173.287,197.238 173.539,197.164 173.658 M238.403 176.160 C 244.781 179.363,244.722 188.471,238.300 191.890 C 234.629 193.844,229.717 191.667,227.890 187.275 C 225.026 180.391,232.047 172.967,238.403 176.160 M232.653 180.399 C 230.266 182.787,230.251 185.122,232.607 187.581 C 235.249 190.338,239.450 188.140,239.450 184.000 C 239.450 179.878,235.348 177.705,232.653 180.399 M188.554 182.133 L 188.369 183.333 188.163 182.210 C 187.955 181.081,188.149 180.294,188.533 180.710 C 188.646 180.833,188.655 181.473,188.554 182.133 M236.467 182.486 C 237.740 183.633,236.853 186.133,235.173 186.133 C 233.132 186.133,232.702 183.027,234.606 182.030 C 235.387 181.620,235.549 181.660,236.467 182.486 M143.568 183.847 L 144.336 184.476 143.508 184.658 C 142.475 184.884,142.133 184.684,142.133 183.851 C 142.133 183.038,142.578 183.037,143.568 183.847 M221.903 184.048 C 224.738 184.425,225.234 185.050,222.733 185.093 C 217.632 185.181,214.720 185.379,213.509 185.721 C 211.964 186.158,199.682 186.437,199.289 186.045 C 198.478 185.234,200.927 184.892,206.413 185.051 C 208.247 185.104,209.324 185.000,210.263 184.681 C 211.106 184.395,212.492 184.232,214.178 184.220 C 215.613 184.210,217.181 184.109,217.661 183.995 C 218.925 183.695,219.286 183.700,221.903 184.048 M172.133 184.587 C 173.453 184.742,176.573 184.944,179.067 185.035 C 183.897 185.211,185.395 185.552,183.874 186.130 C 182.663 186.591,167.509 186.055,165.758 185.489 C 164.923 185.220,163.474 185.065,161.758 185.063 C 159.059 185.058,158.173 184.849,158.515 184.296 C 158.735 183.940,168.393 184.146,172.133 184.587 M155.333 184.533 C 155.440 184.706,154.141 184.800,151.631 184.800 C 149.341 184.800,147.698 184.691,147.600 184.533 C 147.493 184.360,148.792 184.267,151.302 184.267 C 153.592 184.267,155.236 184.375,155.333 184.533 M150.667 187.205 C 150.667 187.472,149.109 188.800,148.795 188.800 C 147.954 188.800,148.455 187.311,149.417 186.953 C 150.037 186.723,150.667 186.850,150.667 187.205 M161.586 187.850 C 161.832 188.146,161.831 188.372,161.582 188.850 C 161.120 189.738,161.129 189.736,160.561 189.038 C 160.087 188.455,160.079 188.360,160.463 187.933 C 160.973 187.367,161.173 187.352,161.586 187.850 M192.383 189.572 C 192.464 189.703,192.373 189.871,192.182 189.945 C 191.699 190.130,190.400 189.856,190.400 189.569 C 190.400 189.260,192.192 189.263,192.383 189.572 M184.727 190.726 C 183.511 191.872,182.860 196.510,183.827 197.129 C 184.846 197.782,185.788 196.339,186.436 193.137 C 187.015 190.270,186.292 189.250,184.727 190.726 " stroke="none" fill="#fafbfc" fill-rule="evenodd"></path><path id="path1" d="M0.000 133.333 L 0.000 266.667 200.000 266.667 L 400.000 266.667 400.000 133.333 L 400.000 0.000 200.000 0.000 L 0.000 0.000 0.000 133.333 M173.166 70.629 C 173.807 71.337,173.409 72.177,171.776 73.563 C 170.209 74.894,170.248 75.513,171.961 76.484 C 176.383 78.993,177.026 84.000,172.927 84.000 C 172.420 84.000,171.374 84.240,170.603 84.533 C 169.831 84.826,169.026 85.066,168.812 85.067 C 166.794 85.067,161.204 87.578,157.098 90.327 C 156.162 90.954,155.247 91.467,155.064 91.467 C 154.881 91.467,154.575 91.655,154.384 91.886 C 154.192 92.117,153.608 92.540,153.085 92.827 C 152.561 93.114,151.327 93.855,150.343 94.474 C 143.475 98.792,143.294 98.862,141.609 97.835 C 140.715 97.290,138.409 94.981,138.403 94.625 C 138.401 94.529,137.812 94.028,137.094 93.512 C 135.356 92.263,134.853 90.937,135.754 89.978 L 136.362 89.330 137.013 89.932 C 137.371 90.263,137.941 90.968,138.280 91.499 C 138.849 92.390,140.268 93.917,141.915 95.409 L 142.587 96.018 144.560 94.914 C 145.645 94.306,147.322 93.282,148.286 92.638 C 149.250 91.994,150.118 91.467,150.214 91.467 C 150.311 91.467,151.067 91.017,151.895 90.467 C 153.690 89.274,153.811 89.198,155.885 87.967 C 156.775 87.439,158.019 86.633,158.649 86.176 C 159.280 85.720,160.832 85.031,162.098 84.646 C 163.364 84.261,164.760 83.764,165.200 83.541 C 166.286 82.991,170.668 81.611,171.349 81.605 C 174.460 81.578,171.944 78.447,168.561 78.133 C 166.016 77.898,165.918 75.738,168.345 73.369 C 171.893 69.907,172.302 69.674,173.166 70.629 M226.845 73.487 C 226.933 73.718,226.812 74.528,226.575 75.287 C 226.337 76.046,226.075 77.339,225.991 78.160 C 225.878 79.262,225.641 79.890,225.089 80.551 L 224.341 81.448 221.704 81.125 C 220.253 80.948,218.467 80.695,217.733 80.563 C 217.000 80.432,214.420 80.186,212.000 80.017 C 204.594 79.501,201.723 79.006,200.905 78.102 C 200.408 77.552,199.350 77.455,198.284 77.860 C 197.549 78.140,197.353 78.667,197.985 78.667 C 198.497 78.667,199.200 79.702,199.200 80.456 C 199.200 83.306,186.875 84.520,184.600 81.893 C 183.167 80.238,183.994 75.467,185.714 75.467 C 186.674 75.467,186.892 76.385,186.358 78.170 C 185.698 80.370,187.165 81.428,190.841 81.403 C 195.345 81.373,196.574 80.539,194.133 79.168 C 192.874 78.460,192.847 78.345,193.769 77.619 C 194.820 76.793,213.048 77.159,219.200 78.130 C 223.239 78.767,223.016 78.771,223.693 78.046 C 224.143 77.566,224.375 76.905,224.516 75.713 C 224.764 73.611,226.321 72.123,226.845 73.487 M233.220 74.489 C 233.295 74.685,232.933 75.615,232.416 76.556 C 231.899 77.497,231.240 78.698,230.953 79.226 C 230.339 80.354,229.354 81.067,228.409 81.067 C 227.728 81.067,227.506 80.705,228.000 80.400 C 228.147 80.309,228.267 80.030,228.267 79.780 C 228.267 79.530,228.497 78.895,228.779 78.370 C 229.061 77.844,229.427 76.911,229.592 76.295 C 230.035 74.650,232.761 73.293,233.220 74.489 M240.464 77.517 C 241.383 78.665,241.301 80.641,240.272 82.160 C 239.834 82.805,239.474 83.430,239.472 83.549 C 239.450 84.497,236.193 87.200,235.072 87.200 C 234.143 87.200,232.257 86.054,232.089 85.387 C 231.883 84.564,232.231 84.354,234.171 84.129 C 236.187 83.895,236.493 83.516,235.462 82.529 C 234.444 81.554,234.439 80.644,235.442 79.063 C 237.172 76.335,239.055 75.756,240.464 77.517 M237.378 79.770 C 237.427 80.117,237.587 80.370,237.733 80.333 C 238.127 80.235,238.057 79.397,237.644 79.259 C 237.400 79.178,237.316 79.339,237.378 79.770 M249.313 81.976 C 251.286 84.353,245.966 91.246,243.102 90.025 C 240.848 89.064,240.610 87.627,242.665 87.383 C 245.796 87.012,247.200 85.929,247.200 83.884 C 247.200 82.122,248.477 80.968,249.313 81.976 M256.818 87.209 C 257.522 87.587,257.466 88.443,256.710 88.858 C 255.906 89.299,253.490 91.129,252.502 92.046 C 251.138 93.311,250.949 93.055,257.857 99.277 C 262.233 103.217,261.932 102.882,263.867 105.977 C 265.800 109.071,268.115 112.528,269.267 114.041 C 269.890 114.861,270.402 115.666,270.404 115.832 C 270.406 115.998,270.887 116.733,271.473 117.467 C 272.060 118.200,273.040 119.460,273.651 120.267 C 274.262 121.073,274.852 121.795,274.961 121.870 C 275.069 121.945,275.498 122.665,275.913 123.470 C 276.602 124.808,276.752 124.940,277.667 125.016 C 278.939 125.121,278.992 125.782,277.790 126.539 C 276.476 127.366,276.657 128.012,278.333 128.479 C 279.927 128.922,280.096 129.211,278.914 129.471 C 278.396 129.585,277.906 129.960,277.582 130.492 C 276.947 131.532,276.942 131.441,277.694 132.381 L 278.319 133.162 278.943 132.581 C 280.262 131.352,282.962 132.083,281.976 133.402 C 280.656 135.166,277.282 136.376,275.407 135.758 C 274.137 135.339,274.040 134.986,273.069 127.267 C 272.868 125.670,272.624 125.020,271.670 123.533 C 271.034 122.543,270.188 121.172,269.790 120.486 C 269.392 119.799,268.857 119.029,268.602 118.773 C 268.096 118.267,267.922 117.997,266.964 116.236 C 266.614 115.593,266.248 115.007,266.150 114.933 C 265.970 114.798,265.136 113.598,263.372 110.933 C 259.621 105.270,258.811 104.215,257.000 102.640 C 255.110 100.995,252.474 98.584,249.667 95.930 C 247.794 94.159,247.762 93.333,249.513 92.000 C 250.187 91.487,251.173 90.652,251.703 90.144 C 253.429 88.492,255.368 87.121,256.218 86.950 C 256.264 86.941,256.534 87.058,256.818 87.209 M210.515 102.590 C 211.885 104.231,211.545 107.200,209.987 107.200 C 209.377 107.200,209.333 107.106,209.324 105.800 C 209.319 105.030,209.143 104.100,208.933 103.733 C 207.725 101.619,208.960 100.726,210.515 102.590 M183.147 102.556 C 183.196 103.057,183.065 103.513,182.814 103.722 C 182.564 103.930,182.399 104.501,182.396 105.166 C 182.390 107.120,182.202 107.463,181.308 107.151 C 180.831 106.985,180.533 106.692,180.533 106.390 C 180.533 106.119,180.430 105.834,180.303 105.756 C 179.904 105.509,180.639 103.006,181.324 102.277 C 182.208 101.335,183.040 101.463,183.147 102.556 M131.579 102.427 C 132.789 102.763,134.400 103.957,134.400 104.518 C 134.400 104.917,132.252 108.336,130.730 110.360 C 130.250 110.998,129.491 112.318,129.043 113.293 C 127.457 116.749,127.249 117.214,126.707 118.533 C 126.405 119.267,126.080 120.287,125.984 120.800 C 125.888 121.313,125.582 122.107,125.305 122.565 C 124.467 123.944,124.636 124.988,125.906 126.277 C 127.054 127.442,127.999 129.458,128.000 130.744 C 128.001 133.583,123.106 135.401,120.267 133.617 C 120.047 133.478,119.536 133.295,119.131 133.210 C 118.019 132.976,116.550 131.552,117.067 131.208 C 117.700 130.786,118.350 130.889,118.524 131.438 C 119.118 133.309,123.938 133.125,124.937 131.193 C 125.843 129.441,124.438 125.867,122.844 125.867 C 122.718 125.867,122.287 125.632,121.885 125.346 C 121.483 125.060,120.402 124.705,119.484 124.557 C 118.565 124.409,117.654 124.155,117.458 123.993 C 117.263 123.831,116.405 123.630,115.552 123.546 C 113.620 123.357,113.175 123.133,112.951 122.242 C 112.709 121.278,112.813 121.245,114.160 121.856 C 114.805 122.149,115.693 122.392,116.133 122.396 C 116.573 122.400,117.288 122.637,117.721 122.923 C 120.343 124.651,122.367 123.694,123.340 120.267 C 123.444 119.900,123.815 118.966,124.165 118.192 C 124.514 117.418,124.804 116.638,124.808 116.459 C 124.813 116.280,124.988 115.908,125.197 115.632 C 125.406 115.356,125.708 114.499,125.868 113.728 C 126.088 112.669,126.579 111.771,127.879 110.053 C 128.826 108.803,129.600 107.690,129.600 107.582 C 129.600 107.473,129.908 106.980,130.284 106.487 C 131.470 104.932,131.143 104.162,129.227 104.000 C 127.478 103.852,126.817 103.316,127.448 102.556 C 127.865 102.053,129.995 101.987,131.579 102.427 M136.800 106.682 C 136.800 107.218,136.411 107.382,136.148 106.957 C 135.935 106.613,136.275 105.840,136.561 106.017 C 136.693 106.098,136.800 106.398,136.800 106.682 M189.254 108.328 C 189.664 108.508,190.080 108.768,190.177 108.906 C 190.436 109.273,190.411 117.569,190.148 118.737 C 189.882 119.914,188.387 121.497,188.142 120.860 C 188.059 120.643,188.187 120.322,188.426 120.147 C 189.461 119.391,188.887 113.954,187.726 113.516 C 187.189 113.313,186.837 112.892,186.528 112.081 C 186.286 111.450,185.971 110.933,185.826 110.933 C 185.681 110.933,185.601 110.663,185.648 110.333 C 185.809 109.201,187.515 109.493,187.858 110.712 C 188.312 112.323,188.533 112.192,188.533 110.311 C 188.533 109.304,188.418 108.533,188.267 108.533 C 188.120 108.533,188.000 108.413,188.000 108.267 C 188.000 107.913,188.350 107.930,189.254 108.328 M205.969 109.913 C 206.093 110.530,206.007 110.910,205.654 111.313 C 205.387 111.618,205.028 112.197,204.857 112.600 C 204.432 113.598,203.733 113.567,203.733 112.551 C 203.733 110.400,205.621 108.173,205.969 109.913 M200.019 110.667 C 201.445 113.429,201.585 118.415,200.273 119.727 C 199.976 120.024,199.733 120.387,199.733 120.533 C 199.733 121.092,199.283 120.765,198.906 119.933 C 198.395 118.808,198.547 117.957,199.353 117.429 C 200.138 116.915,200.338 113.413,199.617 112.814 C 199.407 112.639,199.154 112.130,199.056 111.683 C 198.951 111.208,198.667 110.814,198.375 110.737 C 198.099 110.665,197.943 110.493,198.028 110.355 C 198.264 109.973,199.784 110.212,200.019 110.667 M180.045 111.455 C 182.024 112.348,182.406 112.847,181.971 113.978 C 181.847 114.301,181.415 114.400,180.121 114.400 L 178.433 114.400 178.257 113.226 C 177.922 110.992,178.265 110.652,180.045 111.455 M213.199 111.463 C 213.291 111.755,213.286 112.535,213.187 113.197 L 213.006 114.400 211.332 114.400 C 209.005 114.400,208.640 112.057,210.959 112.009 C 211.193 112.004,211.662 111.760,212.000 111.467 C 212.771 110.798,212.988 110.797,213.199 111.463 M197.189 115.448 C 197.273 115.585,197.219 115.773,197.069 115.865 C 196.718 116.082,195.733 115.775,195.733 115.449 C 195.733 115.125,196.989 115.125,197.189 115.448 M212.660 118.505 C 212.362 118.723,212.149 119.342,212.062 120.244 C 211.978 121.119,211.784 121.700,211.544 121.792 C 211.332 121.873,211.051 122.223,210.920 122.570 C 210.734 123.057,210.481 123.199,209.807 123.196 C 208.455 123.190,208.248 122.930,208.308 121.314 C 208.337 120.518,208.277 119.614,208.174 119.304 C 207.895 118.463,208.448 118.178,210.816 117.940 C 212.960 117.725,213.501 117.890,212.660 118.505 M183.355 120.443 C 183.335 122.670,183.282 122.919,182.800 123.049 C 181.712 123.342,180.785 123.206,180.637 122.733 C 180.557 122.477,180.332 121.967,180.137 121.600 C 178.805 119.097,179.289 117.857,181.572 117.926 L 183.377 117.981 183.355 120.443 M283.932 123.733 C 283.969 123.733,284.000 124.026,284.000 124.383 C 284.000 124.740,284.135 125.370,284.299 125.783 L 284.599 126.533 284.962 125.678 C 285.571 124.246,286.821 123.936,288.078 124.906 C 288.923 125.559,287.874 127.043,286.494 127.146 C 285.548 127.217,285.394 127.329,285.092 128.163 C 284.906 128.678,284.473 129.227,284.130 129.383 C 282.627 130.068,281.203 128.742,281.785 127.199 C 282.036 126.534,281.991 126.360,281.434 125.836 C 280.268 124.741,281.411 123.030,283.003 123.487 C 283.476 123.622,283.894 123.733,283.932 123.733 M189.930 124.930 C 190.052 125.513,190.255 126.095,190.382 126.222 C 190.513 126.353,190.336 126.864,189.974 127.398 C 189.621 127.916,189.333 128.496,189.333 128.686 C 189.333 129.139,188.289 129.462,187.943 129.116 C 187.600 128.773,187.892 128.295,188.627 127.998 C 189.087 127.813,188.974 127.764,188.058 127.750 C 184.112 127.692,184.065 124.663,188.000 123.969 C 189.505 123.703,189.695 123.797,189.930 124.930 M205.373 124.600 C 207.134 125.891,206.818 127.291,204.694 127.610 C 203.709 127.758,203.583 127.857,203.591 128.481 C 203.602 129.326,202.762 129.634,202.485 128.886 C 202.386 128.619,202.193 128.325,202.056 128.232 C 201.692 127.988,201.362 125.896,201.527 124.878 C 201.714 123.729,203.963 123.566,205.373 124.600 M196.590 127.683 C 196.835 127.928,196.470 128.000,194.987 128.000 C 193.628 128.000,193.067 127.903,193.067 127.666 C 193.067 127.227,196.149 127.242,196.590 127.683 M198.400 127.733 C 198.400 127.880,198.153 128.000,197.851 128.000 C 197.549 128.000,197.376 127.880,197.467 127.733 C 197.557 127.587,197.804 127.467,198.016 127.467 C 198.227 127.467,198.400 127.587,198.400 127.733 M205.058 138.733 C 205.063 139.430,205.187 140.000,205.333 140.000 C 205.480 140.000,205.600 140.120,205.600 140.267 C 205.600 140.819,204.544 140.503,203.754 139.713 C 202.743 138.702,202.704 137.819,203.637 137.085 C 204.566 136.354,205.046 136.910,205.058 138.733 M191.313 139.072 C 190.989 140.682,190.594 140.705,190.306 139.130 C 190.025 137.590,190.454 136.740,191.157 137.443 C 191.479 137.764,191.510 138.093,191.313 139.072 M196.231 137.423 C 196.457 137.696,196.372 137.925,195.871 138.396 C 195.510 138.735,195.079 139.426,194.911 139.933 C 194.521 141.117,193.901 140.634,193.678 138.973 C 193.455 137.310,195.238 136.227,196.231 137.423 M201.024 138.631 C 201.650 140.718,201.174 141.677,199.838 141.021 C 198.729 140.477,198.516 139.953,198.894 138.691 C 199.364 137.123,200.562 137.089,201.024 138.631 M188.804 139.741 C 189.454 140.955,188.620 141.724,186.557 141.813 C 183.869 141.930,183.841 141.733,186.191 139.168 C 186.998 138.286,188.162 138.542,188.804 139.741 M131.968 146.116 C 132.452 146.375,135.496 146.801,143.467 147.727 C 149.961 148.480,151.296 148.381,151.984 147.096 C 152.635 145.879,154.650 145.509,156.700 146.230 C 157.268 146.430,159.773 146.735,162.267 146.907 C 165.416 147.125,167.354 147.394,168.613 147.790 C 170.262 148.307,170.580 148.329,172.107 148.025 C 173.369 147.774,174.173 147.763,175.342 147.979 C 177.472 148.373,184.405 148.355,185.151 147.954 C 185.471 147.781,186.693 147.617,187.867 147.589 C 189.040 147.561,190.968 147.447,192.151 147.334 C 195.324 147.034,197.366 148.609,196.558 150.734 C 196.186 151.713,196.261 151.733,200.305 151.733 C 203.515 151.733,204.099 151.665,204.860 151.201 C 206.001 150.506,207.719 150.502,208.597 151.193 C 209.757 152.106,210.700 151.979,212.220 150.705 C 212.967 150.080,213.912 149.463,214.322 149.333 C 214.732 149.203,215.547 148.915,216.133 148.693 C 216.984 148.372,218.631 148.288,224.267 148.277 C 230.847 148.266,231.393 148.228,232.206 147.732 C 232.718 147.421,233.547 147.201,234.206 147.202 C 236.600 147.206,242.314 146.602,243.272 146.243 C 245.400 145.446,248.267 146.130,248.267 147.433 C 248.267 147.576,248.704 147.836,249.239 148.013 C 250.254 148.348,250.764 148.323,257.200 147.626 C 259.253 147.403,262.253 147.079,263.867 146.906 C 265.480 146.732,267.340 146.429,268.000 146.231 C 269.488 145.786,271.049 145.769,272.268 146.183 C 272.781 146.357,275.360 146.572,278.000 146.660 C 285.067 146.897,286.080 147.582,281.118 148.769 C 279.843 149.074,277.185 149.433,275.212 149.567 C 271.595 149.813,270.667 150.152,270.667 151.230 C 270.667 151.538,272.724 151.539,272.915 151.230 C 273.346 150.532,284.984 150.283,285.413 150.963 C 286.110 152.068,282.574 156.205,279.629 157.733 C 278.781 158.173,277.906 158.833,277.685 159.200 C 276.866 160.559,273.367 162.685,271.343 163.053 C 270.761 163.159,269.921 163.438,269.476 163.674 C 268.823 164.019,267.277 164.141,261.467 164.304 C 257.507 164.415,253.847 164.633,253.335 164.787 C 252.823 164.941,251.443 165.069,250.268 165.073 C 246.718 165.083,241.623 165.565,240.718 165.977 C 239.475 166.542,235.031 166.933,229.790 166.937 C 226.297 166.940,224.913 167.042,224.000 167.363 C 222.512 167.885,220.086 167.683,219.574 166.993 C 219.253 166.561,219.211 166.564,218.858 167.039 C 218.454 167.584,211.147 168.126,205.296 168.044 C 203.315 168.016,202.650 168.099,202.397 168.404 C 202.216 168.622,201.927 168.800,201.754 168.800 C 201.162 168.800,200.334 170.986,200.626 171.779 C 201.015 172.837,200.219 174.706,198.986 175.632 C 197.204 176.970,197.127 177.781,198.624 179.452 L 199.647 180.594 208.157 180.443 C 223.329 180.172,225.060 179.926,226.578 177.822 C 231.993 170.317,241.453 171.477,244.996 180.081 C 245.905 182.288,245.951 185.926,245.093 187.809 C 244.785 188.485,244.533 189.154,244.533 189.296 C 244.533 189.913,240.698 193.867,240.100 193.867 C 239.915 193.867,239.348 194.112,238.839 194.412 C 236.221 195.957,230.750 194.766,228.111 192.077 C 226.045 189.973,225.677 189.517,225.096 188.351 C 224.364 186.881,224.866 186.959,218.667 187.352 C 215.660 187.543,210.380 187.711,206.933 187.725 C 197.148 187.766,196.147 187.857,194.947 188.821 C 193.215 190.213,193.743 191.331,195.689 190.391 C 198.146 189.204,199.534 190.278,198.669 192.698 C 197.904 194.836,197.902 194.789,198.780 194.889 C 199.505 194.971,202.370 192.417,202.394 191.667 C 202.408 191.218,203.508 190.400,204.098 190.400 C 204.682 190.400,204.740 190.532,204.894 192.200 C 204.985 193.190,205.134 194.608,205.225 195.352 C 205.499 197.569,204.405 198.247,202.891 196.800 C 202.431 196.360,201.969 196.000,201.864 196.000 C 201.759 196.000,201.220 196.360,200.667 196.800 C 199.553 197.685,199.398 197.725,198.644 197.321 C 198.256 197.114,197.979 197.144,197.556 197.441 C 196.667 198.063,195.592 197.395,195.363 196.078 C 195.259 195.483,194.806 194.637,194.262 194.024 L 193.336 192.981 192.413 193.478 C 191.704 193.860,191.301 194.397,190.679 195.788 C 189.865 197.609,189.446 197.916,188.550 197.349 C 188.261 197.166,188.161 196.436,188.142 194.354 C 188.117 191.685,188.250 191.053,189.043 190.065 C 189.578 189.399,189.221 189.192,187.644 189.256 C 186.886 189.287,185.067 189.078,183.600 188.792 C 179.117 187.918,167.806 187.374,166.319 187.961 C 166.055 188.065,165.513 188.807,165.117 189.609 C 163.525 192.826,158.114 193.003,154.898 189.942 C 153.816 188.912,153.568 188.953,151.482 190.513 C 148.943 192.412,143.665 191.092,143.517 188.521 C 143.412 186.680,143.156 186.400,141.585 186.400 C 139.058 186.400,138.387 185.636,139.323 183.822 C 139.537 183.406,139.772 182.767,139.845 182.400 C 140.008 181.579,141.645 179.804,142.559 179.457 C 143.340 179.160,156.151 179.140,156.900 179.434 C 157.175 179.542,158.040 179.514,158.822 179.373 C 159.912 179.175,160.698 179.215,162.189 179.542 C 164.159 179.975,171.869 180.376,178.533 180.392 C 183.468 180.403,184.933 179.377,183.616 176.830 C 183.387 176.388,183.195 175.691,183.188 175.280 C 183.172 174.258,182.574 172.067,182.212 171.706 C 182.012 171.506,180.127 171.418,176.413 171.437 C 171.942 171.459,170.724 171.385,169.922 171.042 C 169.378 170.810,168.284 170.447,167.490 170.235 C 164.489 169.436,164.863 167.741,168.043 167.735 C 169.034 167.733,170.393 166.166,169.726 165.793 C 169.480 165.656,166.561 165.494,163.239 165.434 C 155.915 165.303,146.987 164.886,144.267 164.548 C 143.167 164.411,140.107 164.287,137.467 164.271 C 133.824 164.250,132.410 164.144,131.600 163.830 C 131.013 163.603,129.983 163.260,129.309 163.068 C 127.212 162.470,125.368 161.371,123.788 159.779 C 122.951 158.936,121.720 157.930,121.052 157.543 C 119.574 156.686,116.247 153.240,115.758 152.059 C 115.195 150.701,115.653 150.368,117.832 150.549 C 118.804 150.630,121.340 150.723,123.467 150.755 C 126.490 150.800,127.513 150.910,128.159 151.259 C 128.910 151.664,130.146 151.649,130.124 151.236 C 130.070 150.195,129.030 149.804,125.666 149.560 C 121.700 149.273,120.390 149.039,118.241 148.233 L 116.667 147.642 117.733 147.161 C 118.606 146.768,119.552 146.677,122.933 146.662 C 125.837 146.648,127.305 146.534,127.867 146.276 C 128.797 145.850,131.290 145.753,131.968 146.116 M156.747 149.323 C 155.349 150.454,157.786 151.580,162.533 151.994 C 164.587 152.174,166.558 152.459,166.914 152.627 C 167.328 152.823,168.827 152.906,171.074 152.858 C 174.585 152.782,175.588 153.023,175.094 153.823 C 174.651 154.540,165.204 154.227,163.693 153.446 C 163.077 153.127,162.338 153.038,160.903 153.111 C 158.482 153.233,158.033 153.577,159.098 154.493 C 160.250 155.486,162.297 155.762,168.468 155.753 C 174.139 155.746,175.284 155.910,174.103 156.559 C 172.948 157.193,166.171 157.618,164.533 157.159 C 163.527 156.877,162.395 157.035,162.326 157.467 C 162.149 158.573,168.907 159.811,172.027 159.244 C 173.665 158.946,174.933 159.272,174.933 159.992 C 174.933 160.427,174.557 160.466,170.303 160.470 C 167.056 160.474,165.483 160.577,165.037 160.817 L 164.400 161.159 165.200 161.501 C 165.736 161.730,167.424 161.847,170.318 161.855 C 174.295 161.866,175.380 162.042,174.833 162.589 C 174.749 162.673,173.237 162.802,171.474 162.874 C 164.835 163.148,166.444 164.341,173.571 164.429 C 178.197 164.486,178.210 164.488,178.771 165.171 C 179.080 165.548,179.779 166.038,180.324 166.261 C 180.868 166.484,181.449 166.919,181.615 167.228 C 181.848 167.664,182.084 167.757,182.664 167.641 C 183.294 167.515,183.460 167.606,183.713 168.218 C 184.237 169.482,185.709 170.460,186.528 170.087 C 187.153 169.802,187.307 169.863,188.219 170.754 C 189.440 171.946,189.734 171.962,191.016 170.905 C 191.919 170.162,192.097 170.109,192.766 170.386 C 193.349 170.628,193.745 170.614,194.586 170.324 C 195.560 169.989,195.725 170.000,196.336 170.446 C 197.119 171.016,197.664 170.883,198.257 169.978 C 198.489 169.623,198.856 169.333,199.073 169.333 C 199.635 169.333,200.533 168.360,200.533 167.751 C 200.533 167.046,199.554 166.771,198.960 167.309 C 197.857 168.307,196.306 167.694,197.333 166.667 C 197.627 166.373,197.867 165.953,197.867 165.733 C 197.867 165.450,198.157 165.332,198.867 165.329 C 199.417 165.327,200.044 165.213,200.261 165.076 C 200.531 164.905,200.807 164.965,201.143 165.269 C 201.419 165.518,201.984 165.684,202.441 165.649 C 202.886 165.615,203.779 165.852,204.425 166.174 L 205.599 166.761 206.217 166.180 C 206.984 165.459,207.716 165.447,208.997 166.133 C 210.267 166.814,210.444 166.804,211.189 166.012 C 211.851 165.307,212.737 165.493,213.585 166.516 C 214.156 167.204,215.864 167.057,216.486 166.267 C 217.100 165.486,218.366 165.377,219.564 166.002 C 220.759 166.625,221.384 166.024,220.480 165.120 C 220.063 164.703,221.395 164.671,222.158 165.080 C 222.926 165.491,227.200 165.109,227.200 164.630 C 227.200 164.230,227.082 164.206,225.333 164.248 C 224.040 164.280,223.652 164.115,223.399 163.425 C 223.309 163.182,222.868 162.903,222.418 162.804 C 221.968 162.705,221.600 162.514,221.600 162.379 C 221.600 161.989,223.151 162.094,223.387 162.500 C 224.153 163.820,231.497 163.771,232.429 162.440 C 232.645 162.131,233.261 161.858,233.987 161.749 C 236.126 161.428,235.560 160.533,233.218 160.533 C 231.112 160.533,231.723 159.436,234.000 159.128 C 235.516 158.923,238.283 157.643,237.943 157.303 C 237.588 156.948,235.772 156.935,234.638 157.279 C 232.461 157.940,231.500 158.011,228.533 157.730 C 225.368 157.431,224.734 157.272,223.927 156.579 C 222.849 155.653,225.149 155.416,226.773 156.286 C 227.920 156.901,231.314 156.804,232.400 156.125 C 232.706 155.933,234.241 155.734,236.000 155.658 C 239.163 155.521,239.925 155.335,241.067 154.426 C 242.432 153.339,238.090 152.387,236.499 153.424 C 235.250 154.239,223.637 154.677,222.897 153.937 C 222.190 153.230,223.576 152.932,228.373 152.759 C 236.128 152.478,241.178 151.783,242.738 150.783 L 244.009 149.968 243.405 149.404 C 242.885 148.920,242.630 148.870,241.600 149.054 C 240.940 149.172,238.147 149.348,235.392 149.444 C 232.638 149.540,230.112 149.723,229.779 149.849 C 229.424 149.984,228.570 149.968,227.720 149.809 C 225.562 149.407,219.343 149.706,217.867 150.283 C 215.854 151.068,215.855 151.044,217.745 153.328 C 220.393 156.529,219.989 157.672,216.108 157.954 C 213.675 158.130,213.221 157.931,213.625 156.867 C 214.018 155.835,213.516 155.467,211.718 155.467 C 210.192 155.467,210.157 155.450,209.409 154.333 C 208.465 152.925,206.880 152.658,204.965 153.585 C 203.653 154.220,201.809 154.307,201.351 153.755 C 201.111 153.466,200.459 153.397,198.585 153.462 C 193.894 153.627,191.598 152.294,192.911 150.169 C 193.261 149.603,192.020 149.551,176.188 149.461 C 167.211 149.410,159.292 149.255,158.589 149.116 C 157.527 148.907,157.217 148.942,156.747 149.323 M133.536 149.743 C 133.305 149.986,133.803 150.667,134.212 150.667 C 134.365 150.667,134.712 150.867,134.982 151.111 C 136.067 152.093,153.397 153.002,154.049 152.112 C 154.895 150.954,154.100 150.472,151.272 150.427 C 150.358 150.412,148.783 150.258,147.773 150.085 C 146.329 149.837,145.457 149.843,143.701 150.111 C 142.032 150.366,141.274 150.377,140.706 150.156 C 139.782 149.795,133.813 149.452,133.536 149.743 M260.933 149.937 C 259.760 150.087,258.140 150.179,257.333 150.141 C 252.568 149.917,246.216 150.373,245.840 150.967 C 244.749 152.690,247.278 152.946,257.304 152.125 C 259.887 151.914,262.591 151.739,263.312 151.737 C 264.157 151.735,264.799 151.575,265.114 151.290 C 265.383 151.047,265.859 150.717,266.172 150.557 C 267.792 149.729,265.074 149.408,260.933 149.937 M187.204 152.270 C 187.792 152.859,188.465 153.819,188.699 154.404 C 188.933 154.988,189.211 155.467,189.317 155.467 C 189.423 155.467,190.100 156.050,190.821 156.762 C 191.543 157.475,192.404 158.143,192.735 158.247 C 193.842 158.596,194.987 159.747,194.642 160.163 C 193.045 162.088,183.803 153.961,185.187 151.849 C 185.757 150.979,185.954 151.021,187.204 152.270 M180.508 153.289 C 181.035 153.851,181.757 154.781,182.111 155.356 C 182.686 156.287,185.734 159.265,188.366 161.467 C 189.549 162.456,189.558 162.600,188.452 162.808 C 187.278 163.028,185.353 162.007,183.665 160.270 C 182.968 159.552,181.795 158.638,181.060 158.237 C 179.923 157.619,179.654 157.314,179.262 156.203 C 178.940 155.294,178.537 154.733,177.933 154.360 C 176.944 153.747,176.986 153.846,177.327 152.951 C 177.756 151.823,179.286 151.985,180.508 153.289 M123.137 153.280 C 122.929 154.075,123.315 154.161,128.240 154.419 C 132.728 154.655,133.067 154.626,133.067 154.010 C 133.067 152.979,123.402 152.267,123.137 153.280 M270.667 153.070 C 267.734 153.330,266.975 153.604,267.561 154.190 C 268.445 155.074,277.733 154.403,277.733 153.455 C 277.733 152.850,274.897 152.696,270.667 153.070 M136.943 153.428 C 136.040 153.813,136.154 153.918,138.000 154.398 C 139.715 154.845,139.918 155.047,139.236 155.631 C 138.564 156.206,138.901 156.523,140.191 156.529 C 140.781 156.532,141.138 156.365,141.337 155.993 C 141.620 155.465,141.783 155.457,148.893 155.618 C 155.210 155.761,156.205 155.729,156.498 155.376 C 157.204 154.525,151.723 153.908,145.133 154.098 C 143.438 154.147,142.400 154.076,142.400 153.911 C 142.400 153.220,138.284 152.856,136.943 153.428 M258.933 153.381 C 258.420 153.528,257.856 153.767,257.680 153.912 C 257.503 154.058,256.246 154.143,254.880 154.102 C 248.430 153.909,242.806 154.538,243.502 155.375 C 243.794 155.728,244.770 155.756,251.052 155.591 C 258.187 155.403,258.272 155.407,258.775 155.967 C 259.090 156.319,259.604 156.533,260.130 156.533 C 261.283 156.533,261.444 156.285,260.762 155.560 C 260.114 154.869,260.080 154.895,262.349 154.339 C 263.128 154.149,263.765 153.874,263.765 153.730 C 263.765 153.118,260.644 152.893,258.933 153.381 M196.250 155.435 C 196.587 156.065,196.034 158.933,195.576 158.933 C 195.395 158.933,195.184 158.315,195.080 157.482 C 194.827 155.459,195.569 154.162,196.250 155.435 M201.190 158.416 C 201.401 161.311,201.175 161.831,199.915 161.352 C 198.181 160.693,198.226 156.110,199.973 155.515 C 200.895 155.200,200.968 155.374,201.190 158.416 M204.746 155.802 C 205.083 156.207,204.788 158.939,204.404 158.977 C 204.011 159.016,203.242 157.568,203.219 156.747 C 203.193 155.757,204.194 155.137,204.746 155.802 M125.000 155.917 C 124.217 156.122,124.473 156.407,125.747 156.747 C 126.415 156.926,127.201 157.295,127.493 157.567 C 128.170 158.198,133.389 158.640,134.017 158.120 C 134.623 157.617,134.482 157.395,133.200 156.827 C 132.540 156.536,132.000 156.170,132.000 156.015 C 132.000 155.736,126.013 155.652,125.000 155.917 M268.545 156.119 C 268.369 156.332,267.698 156.706,267.054 156.952 C 266.020 157.347,265.916 157.460,266.162 157.921 C 266.581 158.703,271.934 158.353,273.330 157.453 C 273.845 157.120,274.687 156.764,275.200 156.660 C 277.710 156.151,276.483 155.776,272.233 155.752 C 269.602 155.737,268.795 155.818,268.545 156.119 M143.221 156.781 C 141.592 156.953,141.214 157.386,142.323 157.813 C 142.892 158.031,149.448 158.415,152.533 158.411 C 156.608 158.405,159.343 157.827,157.872 157.283 C 157.593 157.180,154.928 157.025,151.949 156.938 C 148.971 156.851,146.113 156.746,145.600 156.704 C 145.087 156.663,144.016 156.697,143.221 156.781 M245.067 156.987 C 242.529 157.090,241.867 157.246,241.867 157.738 C 241.867 157.956,241.957 158.134,242.067 158.136 C 242.177 158.137,243.407 158.199,244.800 158.274 C 246.193 158.348,247.453 158.407,247.600 158.404 C 252.470 158.305,257.102 158.034,257.671 157.815 C 260.022 156.912,255.016 156.583,245.067 156.987 M133.686 158.840 C 132.808 159.030,132.390 159.640,132.800 160.133 C 133.248 160.673,136.863 160.700,137.305 160.167 C 137.939 159.403,135.394 158.470,133.686 158.840 M263.509 159.196 C 262.777 159.655,262.676 159.824,262.942 160.144 C 263.386 160.679,266.896 160.683,267.616 160.150 C 269.108 159.044,265.199 158.136,263.509 159.196 M146.879 159.184 C 140.562 159.409,140.596 160.323,146.933 160.641 C 148.620 160.726,150.660 160.986,151.467 161.219 C 153.344 161.761,159.833 162.039,160.896 161.623 C 162.428 161.023,161.310 160.533,158.407 160.533 C 155.968 160.533,154.133 160.197,154.133 159.750 C 154.133 159.395,152.795 158.932,151.921 158.984 C 151.451 159.012,149.182 159.102,146.879 159.184 M246.600 159.266 C 246.197 159.401,245.867 159.602,245.867 159.713 C 245.867 160.209,244.303 160.533,241.905 160.533 C 238.935 160.533,237.571 161.028,239.017 161.580 C 240.537 162.160,248.052 161.752,249.430 161.015 C 249.710 160.865,251.543 160.660,253.501 160.560 C 257.048 160.378,258.183 160.057,257.162 159.524 C 256.495 159.177,247.524 158.957,246.600 159.266 M207.941 159.691 C 208.188 159.848,208.092 159.994,207.595 160.220 C 206.734 160.613,206.217 160.618,205.982 160.237 C 205.614 159.642,207.177 159.206,207.941 159.691 M231.733 160.933 C 231.733 161.261,231.314 161.326,229.400 161.294 L 227.067 161.255 228.994 161.078 C 230.055 160.980,231.005 160.817,231.106 160.717 C 231.417 160.405,231.733 160.514,231.733 160.933 M186.768 164.152 C 187.698 165.463,185.497 165.705,183.217 164.542 C 181.959 163.900,181.767 163.632,181.975 162.803 C 182.294 161.535,185.565 162.456,186.768 164.152 M203.467 162.287 C 203.467 162.372,203.099 162.808,202.650 163.257 C 201.644 164.264,201.023 163.933,201.878 162.846 C 202.363 162.229,203.467 161.841,203.467 162.287 M154.826 163.274 C 154.056 163.848,154.656 164.054,157.292 164.123 C 158.561 164.157,160.443 164.278,161.473 164.392 C 163.495 164.617,164.534 164.162,163.763 163.389 C 163.257 162.883,155.486 162.783,154.826 163.274 M236.733 163.243 C 235.000 163.876,236.277 164.666,238.604 164.401 C 239.592 164.288,241.427 164.173,242.682 164.145 C 245.274 164.088,245.959 163.855,245.189 163.293 C 244.597 162.859,237.892 162.820,236.733 163.243 M195.467 164.066 C 196.127 164.396,196.723 164.703,196.792 164.748 C 197.214 165.020,195.852 165.326,194.200 165.329 L 192.267 165.333 192.267 164.400 C 192.267 163.229,193.531 163.097,195.467 164.066 M219.529 163.778 C 219.299 164.008,219.059 164.013,218.609 163.796 C 218.037 163.521,218.056 163.502,218.920 163.485 C 219.621 163.471,219.766 163.541,219.529 163.778 M216.122 164.782 C 216.206 164.918,216.164 165.098,216.028 165.182 C 215.681 165.397,214.906 165.061,215.084 164.772 C 215.277 164.460,215.927 164.465,216.122 164.782 M192.267 166.000 C 192.267 167.354,189.499 168.085,189.180 166.815 C 188.931 165.824,189.233 165.600,190.816 165.600 C 191.928 165.600,192.267 165.693,192.267 166.000 M169.467 168.533 C 169.557 168.680,169.924 168.800,170.282 168.800 C 170.640 168.800,170.933 168.680,170.933 168.533 C 170.933 168.387,170.566 168.267,170.118 168.267 C 169.642 168.267,169.371 168.378,169.467 168.533 M196.715 173.169 C 196.628 173.397,196.663 173.649,196.793 173.729 C 197.133 173.939,197.336 173.503,197.086 173.098 C 196.921 172.830,196.839 172.846,196.715 173.169 M231.865 176.271 C 226.716 179.256,225.652 185.912,229.661 190.048 C 237.234 197.861,248.105 185.982,240.758 177.923 C 238.450 175.392,234.611 174.679,231.865 176.271 M237.318 179.856 C 241.070 182.624,239.540 188.800,235.102 188.800 C 232.990 188.800,230.933 186.432,230.933 184.000 C 230.933 180.450,234.759 177.967,237.318 179.856 M188.142 180.787 C 188.040 180.951,188.049 181.592,188.163 182.210 L 188.369 183.333 188.554 182.133 C 188.735 180.953,188.505 180.199,188.142 180.787 M234.606 182.030 C 232.702 183.027,233.132 186.133,235.173 186.133 C 236.853 186.133,237.740 183.633,236.467 182.486 C 235.549 181.660,235.387 181.620,234.606 182.030 M142.133 183.851 C 142.133 184.684,142.475 184.884,143.508 184.658 L 144.336 184.476 143.568 183.847 C 142.578 183.037,142.133 183.038,142.133 183.851 M217.661 183.995 C 217.181 184.109,215.613 184.210,214.178 184.220 C 212.492 184.232,211.106 184.395,210.263 184.681 C 209.324 185.000,208.247 185.104,206.413 185.051 C 200.927 184.892,198.478 185.234,199.289 186.045 C 199.682 186.437,211.964 186.158,213.509 185.721 C 214.720 185.379,217.632 185.181,222.733 185.093 C 225.234 185.050,224.738 184.425,221.903 184.048 C 219.286 183.700,218.925 183.695,217.661 183.995 M158.515 184.296 C 158.173 184.849,159.059 185.058,161.758 185.063 C 163.474 185.065,164.923 185.220,165.758 185.489 C 167.509 186.055,182.663 186.591,183.874 186.130 C 185.395 185.552,183.897 185.211,179.067 185.035 C 176.573 184.944,173.453 184.742,172.133 184.587 C 168.393 184.146,158.735 183.940,158.515 184.296 M147.600 184.533 C 147.698 184.691,149.341 184.800,151.631 184.800 C 154.141 184.800,155.440 184.706,155.333 184.533 C 155.236 184.375,153.592 184.267,151.302 184.267 C 148.792 184.267,147.493 184.360,147.600 184.533 M149.417 186.953 C 148.455 187.311,147.954 188.800,148.795 188.800 C 149.109 188.800,150.667 187.472,150.667 187.205 C 150.667 186.850,150.037 186.723,149.417 186.953 M160.463 187.933 C 160.079 188.360,160.087 188.455,160.561 189.038 C 160.847 189.389,161.121 189.629,161.171 189.571 C 162.237 188.341,161.542 186.734,160.463 187.933 M190.400 189.569 C 190.400 189.856,191.699 190.130,192.182 189.945 C 192.373 189.871,192.464 189.703,192.383 189.572 C 192.192 189.263,190.400 189.260,190.400 189.569 M186.519 190.758 C 187.022 192.181,185.478 197.338,184.552 197.329 C 183.426 197.318,183.277 196.768,183.579 193.738 C 183.878 190.729,185.815 188.766,186.519 190.758 " stroke="none" fill="#18113a" fill-rule="evenodd"></path></g></svg>