<?xml version="1.0" encoding="UTF-8"?>
<svg id="flag" width="660" height="480" version="1.1" viewBox="0 0 220 160" xmlns="http://www.w3.org/2000/svg" xmlns:cc="http://creativecommons.org/ns#" xmlns:dc="http://purl.org/dc/elements/1.1/" xmlns:rdf="http://www.w3.org/1999/02/22-rdf-syntax-ns#">
 <rect id="rect9" width="220" height="160" fill="#99ccff"/>
 <g id="g3855" transform="matrix(.145438 0 0 .145438 81.3298 18.3807)">
  <g id="g1104" transform="matrix(.748751 0 0 -1.05512 -110.435 629.702)">
   <g id="g986">
    <path id="path610" transform="matrix(2.01653 0 0 -1.01271 -18.9096 414.95)" d="m143.362-83.7001-19.842-51.0509c7.076-5.176 14.105-9.709 21.082-13.621l5.209 18.292c3.746-2.347 7.466-4.474 11.161-6.39l-4.464-17.998c9.358-4.338 18.621-7.558 27.78-9.708l2.48 17.608c3.911-1.03 7.796-1.826 11.657-2.392l-0.744-17.614c9.462-1.164 18.807-1.186 28.027-0.122l-0.247 17.45c4.662 0.585 9.291 1.495 13.89 2.715l3.224-16.983c5.252 1.378 10.462 3.11 15.626 5.185 4.08 1.638 8.131 3.49 12.153 5.552l-3.968 17.04c3.403 1.81 6.793 3.782 10.169 5.908l5.209-16.498c6.191 3.828 12.31 8.154 18.354 12.954l-18.85 49.9939c-45.203 27.5329-91.782 26.1522-137.906-0.321z" fill="#99ccff"/>
    <path id="path556" transform="matrix(2.01653 0 0 -1.01271 -18.9096 414.95)" d="m146.215-82.1426c45.203 24.4674 90.127 25.6043 132.634 0.2631-45.732-38.0405-91.709-33.4125-132.634-0.2631z" fill="#ff0000"/>
    <g fill="#000099">
     <path id="path590" transform="matrix(2.01653 0 0 -1.01271 -18.9096 414.95)" d="m150.307-103.67-6.511 4.5444 3.907 11.6612 6.511-4.5073z"/>
     <path id="path591" transform="matrix(2.01653 0 0 -1.01271 -18.9096 414.95)" d="m171.7-115.528c-5.442 2.413-10.838 5.269-16.184 8.536l3.348 12.078c5.192-3.155 10.401-5.886 15.626-8.175z"/>
     <path id="path592" transform="matrix(2.01653 0 0 -1.01271 -18.9096 414.95)" d="m195.139-123.036c-6.001 1.177-11.955 2.923-17.858 5.196l2.418 12.618c5.44-2.072 10.897-3.66 16.37-4.745z"/>
     <path id="path593" transform="matrix(2.01653 0 0 -1.01271 -18.9096 414.95)" d="m221.554-124.456c-7.186-0.65-14.32-0.44-21.393 0.568l0.372 13.147c6.86-1.014 13.743-1.234 20.649-0.618z"/>
     <path id="path594" transform="matrix(2.01653 0 0 -1.01271 -18.9096 414.95)" d="m245.551-119.061c-6.547-2.363-13.06-3.974-19.532-4.88-0.683-0.096-1.179 12.984-0.558 13.07 5.936 0.826 11.89 2.271 17.858 4.362z"/>
     <path id="path595" transform="matrix(2.01653 0 0 -1.01271 -18.9096 414.95)" d="m265.828-109.347c-5.227-3.129-10.437-5.758-15.626-7.91l-2.791 12.282c4.951 1.979 9.912 4.402 14.882 7.2869z"/>
     <path id="path596" transform="matrix(2.01653 0 0 -1.01271 -18.9096 414.95)" d="m281.454-98.5216c-3.604-2.8404-7.201-5.4344-10.79-7.7904l-3.72 11.4569c3.468 2.2111 6.94 4.6483 10.417 7.3161z"/>
     <path id="path597" transform="matrix(2.01653 0 0 -1.01271 -18.9096 414.95)" d="m252.806-123.33 2.604-11.986c-6.017-2.56-12.033-4.535-18.044-5.946l-0.93 12.559c5.464 1.303 10.921 3.09 16.37 5.373z"/>
     <path id="path598" transform="matrix(2.01653 0 0 -1.01271 -18.9096 414.95)" d="m211.509-131.332c6.45-0.166 12.902 0.316 19.346 1.465l0.744-12.578c-6.892-1.209-13.777-1.686-20.648-1.465z"/>
     <path id="path599" transform="matrix(2.01653 0 0 -1.01271 -18.9096 414.95)" d="m140.82-118.211-3.349 2.301 3.907 11.296 3.162-2.208z"/>
     <path id="path600" transform="matrix(2.01653 0 0 -1.01271 -18.9096 414.95)" d="m160.352-129.99c-5.35 2.738-10.683 5.86-15.998 9.349l3.349 11.611c5.197-3.468 10.406-6.545 15.626-9.223z"/>
     <path id="path601" transform="matrix(2.01653 0 0 -1.01271 -18.9096 414.95)" d="m181.559-138.77c-5.471 1.725-10.928 3.868-16.37 6.412l2.79 11.825c5.077-2.371 10.163-4.361 15.254-5.962z"/>
     <path id="path602" transform="matrix(2.01653 0 0 -1.01271 -18.9096 414.95)" d="m205.742-143.608c-6.276 0.523-12.541 1.624-18.788 3.275l1.302 12.384c5.886-1.554 11.778-2.584 17.672-3.077z"/>
     <path id="path603" transform="matrix(2.01653 0 0 -1.01271 -18.9096 414.95)" d="m260.433-133.043-2.604 11.959c4.534 2.156 9.061 4.659 13.579 7.514l3.349-11.472c-4.774-3.047-9.549-5.71-14.324-8.001z"/>
     <path id="path604" transform="matrix(2.01653 0 0 -1.01271 -18.9096 414.95)" d="m279.407-121.951-3.72 11.193c2.794 1.906 5.585 3.949 8.371 6.13l4.093-10.846c-2.914-2.306-5.828-4.464-8.744-6.477z"/>
     <path id="path605" transform="matrix(2.01653 0 0 -1.01271 -18.9096 414.95)" d="m290.383-121.098 3.348-9.651c-3.227-2.645-6.451-5.099-9.673-7.37l-3.162 10.226c3.164 2.11 6.327 4.375 9.487 6.795z"/>
     <path id="path606" transform="matrix(2.01653 0 0 -1.01271 -18.9096 414.95)" d="m261.921-138.689 2.047-11.247c-6.088-2.882-12.165-5.132-18.231-6.782l-1.674 11.193c5.956 1.751 11.909 4.026 17.858 6.836z"/>
     <path id="path607" transform="matrix(2.01653 0 0 -1.01271 -18.9096 414.95)" d="m141.75-138.317c-3.228 2.085-6.452 4.314-9.673 6.687l3.534 10.361c3.282-2.396 6.568-4.646 9.859-6.748z"/>
     <path id="path608" transform="matrix(2.01653 0 0 -1.01271 -18.9096 414.95)" d="m179.513-156.001c-5.347 1.561-10.679 3.516-15.998 5.862l2.232 11.07c5.263-2.374 10.534-4.367 15.812-5.972z"/>
     <path id="path609" transform="matrix(2.01653 0 0 -1.01271 -18.9096 414.95)" d="m221.182-160.192c-5.974-0.53-11.926-0.578-17.858-0.145l-0.186 10.919c5.887-0.595 11.779-0.698 17.672-0.3z"/>
    </g>
   </g>
   <g id="g1009">
    <path id="path569" transform="matrix(2.01653 0 0 -1.01271 -18.9096 414.95)" d="m124.264-35.926c4.65-8.3315 11.533-9.647 17.61-16.4874 3.051-3.4348 4.677-5.6869 6.945-10.1731 7.627-15.0835 14.882-22.9763 25.547-27.7119 0.31 7.1035-0.62 10.7867-2.232 15.0835 1.984-2.9813 3.286-4.0337 4.96-6.6646 0-3.9464 0.187-7.3665 1.117-10.7867 0.88-3.2371 2.418-5.5249 4.092-6.753 1.116 1.7543 2.232 3.0697 2.729 5.6133 0.806-4.6483 1.55-7.8051 2.48-11.2251 9.859-2.631 21.765-4.473 33.98-2.807-1.426 4.122-3.286 6.753-8.433 10.875 7.937-2.5436 14.262-3.333 21.145-2.5436 2.047 0.2347 2.82 1.3534 1.674 3.1571-11.534 18.1533-24.511 23.1225-45.018 21.3104-2.976-0.2631-9.301 3.9463-12.835 6.5772 2.542 1.6659 6.118 4.6999 5.519 9.3839-0.556 4.341-4.031 6.4016-6.946 5.6123-3.023-0.8188-4.898-4.2095-5.456-8.0685-7.255 6.4899-17.354 10.5047-27.284 19.9949-4.546 4.3463-7.875 6.4899-10.665 12.9799-3.721-0.1758-7.069-2.8067-8.929-7.3666z" fill="#ff0000"/>
    <path id="path568" transform="matrix(2.01653 0 0 -1.01271 -18.9096 414.95)" d="m146.337-50.3086c8.205-4.5725 19.968-11.4003 25.797-17.0136 8.591-8.2736 10.305-8.3379 19.284-10.6109 16.06 1.6659 28.958 1.3154 42.6-19.2056-9.676-0.9335-25.672 1.4028-33.981 10.3478-0.992 0-2.604 0.0884-3.225 0.0011 2.729-3.5959 5.545-6.6025 8.93-9.8228 7.317-1.4028 10.665-4.0334 11.906-9.4714-1.736 0-4.465-0.35-7.069 0.263-2.233 4.649-4.341 7.1037-9.301 10.2608-3.81 4.2242-8.5 11.1856-13.394 14.7331-1.081 0.6335-1.24 1.226-2.108-0.8788 6.697-7.5411 12.153-13.1524 17.362-23.3251-0.992 0.35-2.852 0.526-4.651 0.789-1.426 3.77-3.162 6.7528-6.697 9.208 0.558-2.9814 1.178-5.086 1.675-8.682-0.745 0.263-1.985 0.439-3.349 0.789-1.116 2.631-2.976 10.787-5.767 16.0488-0.744-2.6309-1.116-5.2618-2.79-7.6297-2.418 4.2095-3.162 7.6297-2.79 15.5224-5.209 7.3665-12.092 13.6807-20.463 18.4163-0.699-0.542 0.467-2.3615 0.744-3.4202 7.627-4.9987 11.906-9.9974 13.394-22.0996-5.581 3.4202-12.618 9.4671-16.928 19.9949-2.047 4.9987-5.272 9.4713-9.179 15.7855z" fill="#ffffff"/>
    <path id="path567" transform="matrix(2.01653 0 0 -1.01271 -18.9096 414.95)" d="m199.417-81.7016c10.059 0.1683 19.124-4.8094 22.944-9.6481-7.322 1.1608-16.607 4.6946-22.944 9.6481z" fill="#ff0000"/>
    <path id="path566" transform="matrix(2.01653 0 0 -1.01271 -18.9096 414.95)" d="m175.606-63.2874c-0.733 1.266 0.171 3.4244 1.302 3.7706 1.059 0.3241 2.373-1.005 2.14-2.4994-0.299-1.9153-2.563-2.7887-3.442-1.2712z" fill="#ffffff"/>
    <g fill="#ff0000">
     <path id="path571" transform="matrix(2.01653 0 0 -1.01271 -18.9096 414.95)" d="m283.004-155.019c-8.458-0.48-10.665-4.385-23.316-4.56-1.363-0.701-2.851-1.578-3.47-3.158 12.772-10.348 36.454-15.758 54.565-2.279 2.357 1.754 2.711 5.809-0.248 6.667-9.627 2.904-18.23 3.858-27.531 3.33z"/>
     <path id="path574" transform="matrix(2.01653 0 0 -1.01271 -18.9096 414.95)" d="m227.445-150.985c0.992-3.157 2.108-6.314 3.968-9.822-0.124-12.102 2.853-24.38 10.914-33.675 4.292-4.95 6.944-9.646 10.789-13.329 1.684-1.614 5.209-1.404 4.588 3.507-1.985 15.727-12.277 28.589-21.33 43.672-2.204 3.673-4.092 6.315-5.456 9.647-0.997 0.543-2.357 0.351-3.473 0z"/>
     <path id="path573" transform="matrix(2.01653 0 0 -1.01271 -18.9096 414.95)" d="m248.155-165.718c3.408-4.386 8.676-7.359 12.898-12.277 12.65-14.733 30.099-26.132 42.041-26.66 5.745-0.254 9.199-0.961 14.634-2.456 4.465-1.228 4.626 4.477 2.233 6.315-17.362 13.33-29.516 19.118-47.87 24.554-8.815 2.612-13.89 5.788-21.083 13.331-0.744-0.176-2.233-1.579-2.853-2.807z"/>
    </g>
    <g fill="#ffffff">
     <path id="path560" transform="matrix(2.01653 0 0 -1.01271 -18.9096 414.95)" d="m258.859-163.297c18.006 1.158 25.373 9.646 51.019 0.771-14.557-10.101-32.115-8.139-51.019-0.771z"/>
     <path id="path561" transform="matrix(2.01653 0 0 -1.01271 -18.9096 414.95)" d="m263.907-176.592c19.766-6.319 36.839-14.813 53.449-26.765-14.959 1.199-33.03 5.777-53.449 26.765z"/>
     <path id="path562" transform="matrix(2.01653 0 0 -1.01271 -18.9096 414.95)" d="m234.278-164.385c8.942-9.91 14.378-23.039 18.826-37.042-10.095 8.489-18.007 19.293-18.826 37.042z"/>
    </g>
    <g fill="#ff0000">
     <path id="path572" transform="matrix(2.01653 0 0 -1.01271 -18.9096 414.95)" d="m253.488-173.085c-2.085-0.068-3.786-2.486-3.72-5.435 0.068-3.049 1.935-5.285 4.092-5.264 2.053 0.02 3.842 2.183 3.844 5.087 4e-3 3.194-1.958 5.687-4.216 5.612z"/>
     <path id="path557" transform="matrix(2.01653 0 0 -1.01271 -18.9096 414.95)" d="m263.781-163.964c8.711 1.666 20.824 3.356 28.896 0-7.485-3.968-19.619-3.14-28.896 0z"/>
     <path id="path558" transform="matrix(2.01653 0 0 -1.01271 -18.9096 414.95)" d="m270.292-180.802c3.602-3.849 18.043-12.003 26.352-14.381-5.013 5.688-18.201 13.379-26.352 14.381z"/>
     <path id="path559" transform="matrix(2.01653 0 0 -1.01271 -18.9096 414.95)" d="m235.878-168.962c0.216-4.937 6.288-15.928 10.913-23.065-3.131 10.71-6.236 18.739-10.913 23.065z"/>
     <path id="path570" transform="matrix(2.01653 0 0 -1.01271 -18.9096 414.95)" d="m235.134-148.836c-0.651-3.42 1.767-5.393 4.464-4.473-0.186 1.447-0.651 3.815-1.023 5.394-1.116-0.263-2.418-0.658-3.441-0.921z"/>
    </g>
   </g>
  </g>
  <g id="g613" transform="translate(5.22408)">
   <path id="path695" d="m132.923 765.581-56.175 28.1129v28.1119h-174.141v-56.2248z" fill="#ff0000"/>
   <path id="path565" d="m113.893 770.08h-206.792v47.2278h165.154v-26.3905z" fill="#99ccff"/>
   <path id="path692" d="m250.89 765.581 56.1735 28.1129v28.1119h174.142v-56.2248z" fill="#ff0000"/>
   <path id="path690" d="m72.2547 793.694h239.304v56.2237h-239.304z" fill="#ff0000"/>
   <path id="path563" d="m269.919 770.08h206.793v47.2278h-165.153v-26.3905z" fill="#99ccff"/>
   <path id="path564" d="m76.7481 798.191v47.2278h230.315v-47.2278z" fill="#99ccff"/>
   <g fill="#ff0000">
    <path id="path689" d="m250.89 793.694v-28.1129l56.1735 28.1129z"/>
    <path id="path691" d="m391.325 737.469 89.88 28.1119h-89.88z"/>
    <path id="path693" d="m132.923 793.694v-28.1129l-56.175 28.1129z"/>
    <path id="path694" d="m-7.5138 737.469v28.1119h-89.8793z"/>
   </g>
   <g id="g1144" transform="matrix(.748751 0 0 -1.05512 -111.322 629.702)" fill="#000099">
    <path id="path578" transform="matrix(2.01653 0 0 -1.01271 -18.9096 414.95)" d="m170.584 590.58h5.952v11.576h-5.952z"/>
    <path id="path579" transform="matrix(2.01653 0 0 -1.01271 -18.9096 414.95)" d="m170.584 585.318v-8.419h18.602v25.257h-5.953v-16.838z"/>
    <path id="path580" transform="matrix(2.01653 0 0 -1.01271 -18.9096 414.95)" d="m195.139 576.899h16.37v25.257h-16.556v-8.419h10.603v-8.419h-4.464v3.157h-5.953z"/>
    <path id="path581" transform="matrix(2.01653 0 0 -1.01271 -18.9096 414.95)" d="m215.787 576.899h8.93v14.996h-5.953v-6.577h-2.977z"/>
    <path id="path582" transform="matrix(2.01653 0 0 -1.01271 -18.9096 414.95)" d="m229.181 576.899h18.602v25.257h-5.952v-16.838h-6.697v16.838h-5.953z"/>
   </g>
   <g id="g1150" transform="matrix(.748751 0 0 -1.05512 -111.322 629.702)">
    <g fill="#000099">
     <path id="path589" transform="matrix(2.01653 0 0 -1.01271 -18.9096 414.95)" d="m32.7402 551.643h5.9527v8.418h5.2087v-8.418h5.9527v23.152h-5.9527v-8.419h-5.2087v8.419h-5.9527z"/>
     <path id="path588" transform="matrix(2.01653 0 0 -1.01271 -18.9096 414.95)" d="m53.9469 574.795 7.4409-23.152h4.4646l7.4409 23.152h-5.9527l-1.4882-4.21h-4.4646l-1.4882 4.21z"/>
     <path id="path586" transform="matrix(2.01653 0 0 -1.01271 -18.9096 414.95)" d="m82.5945 551.643v23.152h-5.9528v-23.152z"/>
     <path id="path585" transform="matrix(2.01653 0 0 -1.01271 -18.9096 414.95)" d="m94.872 568.48v6.315h-5.9527v-23.152h12.2777v6.314h-6.325v4.209h6.325v6.314z"/>
     <path id="path584" transform="matrix(2.01653 0 0 -1.01271 -18.9096 414.95)" d="m104.545 574.795 7.441-23.152h4.465l7.441 23.152h-5.953l-1.488-4.21h-4.465l-1.488 4.21z"/>
    </g>
    <path id="path583" transform="matrix(2.01653 0 0 -1.01271 -18.9096 414.95)" d="m113.567 564.271 0.745-3.157 0.744 3.157z" fill="#99ccff"/>
    <path id="path587" transform="matrix(2.01653 0 0 -1.01271 -18.9096 414.95)" d="m62.969 564.271 0.7441-3.157 0.7441 3.157z" fill="#99ccff"/>
   </g>
   <g fill="#000099">
    <path id="path575" d="m422.035 810.563 5.80548-4.4985 2.43392 2.62323 3.18282-2.24925 5.05659 4.4985-4.68063 4.12238-3.55878-3.18528-3.37005 2.81129z"/>
    <path id="path576" d="m409.863 778.89 4.86785-4.68656 4.68364 4.12238-4.49491 4.12451z"/>
    <path id="path577" d="m326.163 774.953c1.87225-1.68721 4.12045-2.43731 6.17993-2.43731-0.18874 5.62258 0 8.81 0 14.0575 0 10.5677 6.74009 16.6797 20.4105 17.8049 19.4744 1.60279 29.2101-0.75011 49.6191-6.93474 1.12335-4.87355 6.17993-10.4961 12.7343-10.1211 1.8662 0.10685 3.73845 1.12516 3.74147 3.00042 3e-3 2.62323-1.12033 4.87141-2.99408 6.55861 3.746 3.18528 8.61385 0.187 11.4237-1.6872 1.88433-1.25765 4.86785-1.49914 5.80397 0.18699 5.05659 0.37612 9.54998-0.18699 11.6095-4.87248-2.05948-2.24818-5.24381-2.43624-8.2379-1.12409-0.92706-0.46053-1.68653-0.93709-1.87376-1.87419 8.80108-7.87184 11.9839-5.99764 14.7938-3.18635 1.87074 0.18806 3.7445 0.37506 5.9912 0.37506 1.68502 2.81129-1.12335 6.55968-5.24381 7.49571-2.05947 3.3744-6.63441 7.95731-12.1711 9.93409-2.62115 0.9371-6.36564 0.9371-10.1101-0.75011-3.93323 1.31108-7.33197 2.31443-12.1711 2.43624-3.98608 0.10044-6.55438-0.37505-10.1116-1.49914-15.7284 6.18463-26.3323 10.4619-44.0039 10.8701-24.3423 0.56204-35.9517-8.58134-35.9517-25.8626 0-4.87355 0.37445-5.43667 0.56168-12.3703z"/>
   </g>
  </g>
  <g id="g584" transform="translate(-2.36268)">
   <path id="path698" d="m202.384 685.389c-11.0432-18.5389-28.049-27.132-46.9558-33.9076-18.5383-6.65898-40.8679-12.7198-62.3188-17.7632-72.9043-17.1307-88.2646-35.4965-88.2646-78.4491v-362.609h389.291v365.736c0 36.6505-25.8582 64.7453-58.0715 74.1451-18.4492 5.39397-58.7539 12.3169-78.5031 18.2024-24.6171 7.33653-45.4987 16.0151-55.1771 34.6448z" fill="#99ccff"/>
   <path id="path686" d="m397.432 575.124-191.107-305.437c-5.08375-8.12315-8.4221-8.12655-13.4817 0l-191.238 307.083c6.1589 31.373 29.3838 47.5537 90.3452 61.8858 21.33 5.00712 43.5193 11.0346 61.7752 17.5879 18.9415 6.79899 34.6518 14.8813 44.8163 32.6104 1.19434 2.07611 2.41582 4.97178 4.42549 4.97178 0.46201 0 1.26376-0.42308 2.86122-3.9717 8.00388-17.8155 27.6474-26.6534 53.1719-34.2602 19.1876-5.71125 59.5104-12.6502 78.4866-18.1852 28.9852-8.46816 53.3501-31.5387 59.9453-62.2855z" fill="#000099"/>
   <g id="g1522" transform="matrix(.748751 0 0 -1.05512 -111.322 629.702)">
    <g id="g1481" stroke="#ffffff" stroke-linecap="round" stroke-linejoin="round" stroke-width="1.97697">
     <path id="path677" transform="matrix(2.01653 0 0 -1.01271 -18.9096 414.95)" d="m202.394 292.379-0.88 35.97z" fill="none"/>
     <path id="path678" transform="matrix(2.01653 0 0 -1.01271 -18.9096 414.95)" d="m201.785 319.931c1.195 0.543 2.447 0.734 3.702 0.674 1.256-0.06 2.516-0.371 3.728-0.833" fill="none"/>
     <path id="path679" transform="matrix(2.01653 0 0 -1.01271 -18.9096 414.95)" d="m201.92 312.852c1.15 0.391 2.351 0.606 3.575 0.604 1.225-2e-3 2.474-0.221 3.72-0.7"/>
     <path id="path680" transform="matrix(2.01653 0 0 -1.01271 -18.9096 414.95)" d="m202.057 306.346c1.212 0.438 2.446 0.702 3.655 0.714s2.393-0.227 3.503-0.794" fill="none"/>
     <path id="path681" transform="matrix(2.01653 0 0 -1.01271 -18.9096 414.95)" d="m202.269 300.128c1.348 0.334 2.478 0.574 3.575 0.588 1.096 0.014 2.159-0.197 3.371-0.764" fill="none"/>
    </g>
    <g id="g1510" fill="#ffffff" stroke="#000099" stroke-width="2.82516">
     <path id="path672" transform="matrix(2.01653 0 0 -1.01271 -18.9096 414.95)" d="m215.91 144.378c0 3.508 0.186 7.367 0.186 11.576 2.791 0 5.644 0.527 8.248 2.105 2.358 1.428 4.317 3.193 6.511 1.316 0.311-1.666 1.799-5.876 2.047-8.156-2.108-0.351-3.847-0.472-5.767-2.368-3.287-3.245-6.636-4.823-11.225-4.473z"/>
     <path id="path682" transform="matrix(2.01653 0 0 -1.01271 -18.9096 414.95)" d="m212.067 138.853-2.841 189.783c2.976-0.669 5.411-0.955 8.117-2.581l-1.431-187.29z"/>
     <path id="path673" transform="matrix(2.01653 0 0 -1.01271 -18.9096 414.95)" d="m188.442 175.949c3.162 18.68 2.571 34.561-2.08 52.714 1.082 0.814 2.367 2.009 3.382 3.061 15.998-5.524 27.532-3.42 37.577 12.629 8.185-11.05 10.23-31.273 2.79-45.778-6.883-13.418-19.904-16.312-41.669-22.626z"/>
     <path id="path675" transform="matrix(2.01653 0 0 -1.01271 -18.9096 414.95)" d="m180.443 296.182 1.365-90.461c3.347-4.208 2.355-9.996-0.497-11.574-0.372-3.157-1.111-5.438-2.853-5.438-1.736 0-2.727 2.281-3.596 5.262-3.1 1.228-3.596 8.595 0.124 11.751l-1.612 87.368z"/>
     <path id="path674" transform="matrix(2.01653 0 0 -1.01271 -18.9096 414.95)" d="m158.492 214.36c4.34 25.433 1.613 45.602-8.807 69.281l4.218 1.58c4.589-7.543 10.418-11.753 17.859-13.508 5.19-1.224 11.863-0.163 12.215 7.105 0.311 6.401-0.433 10.611-3.039 16.223l2.481 1.141c8.805-10.437 11.772-21.002 13.766-37.096 2.108-17.014-3.72-25.783-14.138-32.886-7.42-5.06-14.634-8.332-24.555-11.84z"/>
     <path id="path676" transform="matrix(2.01653 0 0 -1.01271 -18.9096 414.95)" d="m222.417 294.912c-1.786-1.081-3.536-1.945-5.277-2.585 0.068 11.287 0.271 22.762 0.271 33.765 1.739-0.936 3.436-2.107 5.073-3.526z"/>
     <path id="path683" transform="matrix(2.01653 0 0 -1.01271 -18.9096 414.95)" d="m198.301 243.827c10.79-1.929 19.793-1.206 29.64 7.893 13.952 12.892 11.285 34.727 0.31 47.356-13.208-10.7-23.253-11.226-39.437 1.052-0.682 0-5.518-2.544-5.518-2.807 15.005-15.083 18.354-29.114 15.005-53.494z"/>
     <path id="path684" transform="matrix(2.01653 0 0 -1.01271 -18.9096 414.95)" d="m277.198 267.57c2.768-0.197 4.512-0.559 6.93-1.348 0.558-2.894-0.847-5.981-2.86-6.084-2.59-0.132-3.791 3.618-4.07 7.432z"/>
     <path id="path685" transform="matrix(2.01653 0 0 -1.01271 -18.9096 414.95)" d="m343.074 372.873c1.152-3.783 2.281-8.393 2.976-12.498-3.563-5.716-8.772-8.862-14.614-8.862-6.651 0-12.917 4.802-19.579 10.458-4.36 3.699-9.743 6.38-15.765 6.38-5.604 0-9.848-0.708-15.847-4.456-6.464-4.029-11.243-7.12-18.568-7.12-8.173 0-12.893 3.568-19.823 7.612-6.302 3.668-9.964 5.542-16.451 5.542-6.372 0-9.814-1.759-15.789-5.738-6.255-4.16-11.081-7.416-18.254-7.416-7.267 0-12.51 2.565-18.067 5.459-6.314 3.272-10.813 4.275-16.719 4.275-7.906 0-12.534-0.723-19.521-4.275-6.197-3.157-13.184-5.723-20.102-5.723-6.976 0-12.615 2.204-19.0795 5.706-4.7667 2.582-8.127 5.171-11.5588 8.578 1.1846 4.261 2.7204 8.184 4.67 11.822 1.8044-1.352 3.8938-2.993 6.8888-4.614 6.4645-3.502 12.1035-5.706 19.0795-5.706 6.918 0 13.905 2.566 20.102 5.723 6.987 3.551 11.615 4.274 19.521 4.274 5.906 0 10.405-1.003 16.719-4.274 5.557-2.894 10.8-5.46 18.067-5.46 7.173 0 11.999 3.256 18.254 7.416 5.975 3.979 9.417 5.739 15.789 5.739 6.487 0 10.149-1.875 16.451-5.542 6.93-4.044 11.65-7.613 19.823-7.613 7.325 0 12.104 3.092 18.568 7.12 5.999 3.749 10.243 4.456 15.847 4.456 6.022 0 11.405-2.68 15.765-6.379 6.662-5.657 12.928-10.459 19.579-10.459 4.624 0 8.289 1.234 11.638 5.575z"/>
     <path id="path687" transform="matrix(2.01653 0 0 -1.01271 -18.9096 414.95)" d="m339.493 382.41c-3.144-2.022-6.325-2.483-8.057-2.483-6.651 0-12.917 4.801-19.579 10.458-4.36 3.699-9.743 6.379-15.765 6.379-5.604 0-9.848-0.707-15.847-4.455-6.464-4.029-11.243-7.121-18.568-7.121-8.173 0-12.893 3.569-19.823 7.613-6.302 3.668-9.964 5.542-16.451 5.542-6.372 0-9.814-1.76-15.789-5.739-6.255-4.16-11.081-7.416-18.254-7.416-7.267 0-12.51 2.566-18.067 5.46-6.314 3.272-10.813 4.275-16.719 4.275-7.906 0-12.534-0.723-19.521-4.275-6.197-3.157-13.184-5.723-20.102-5.723-6.976 0-12.615 2.204-19.0795 5.706l-1.0105 0.639c3.276 3.835 7.361 7.498 12.103 10.739 2.523-0.657 5.169-1.298 7.987-1.298 6.918 0 13.905 2.565 20.102 5.722 6.987 3.552 11.615 4.275 19.521 4.275 5.906 0 10.405-1.003 16.719-4.275 5.557-2.894 10.8-5.459 18.067-5.459 7.173 0 11.999 3.256 18.254 7.416 5.975 3.979 9.417 5.738 15.789 5.738 6.487 0 10.149-1.874 16.451-5.541 6.93-4.045 11.65-7.613 19.823-7.613 7.325 0 12.104 3.092 18.568 7.12 5.999 3.749 10.243 4.456 15.847 4.456 6.022 0 11.405-2.681 15.765-6.38 6.662-5.656 13.266-10.166 19.916-10.166 2.999-4.232 5.476-8.47 7.72-13.594z"/>
     <path id="path688" transform="matrix(2.01653 0 0 -1.01271 -18.9096 414.95)" d="m255.1 357.654c8.868-15.432 12.588-28.849 4.961-49.633 8.929-1.579 24.927-5.525 33.484-8.419 0.93-5.788 0.744-10.524-1.116-15.259-2.48-0.351-5.209 0.35-7.813 0.526-0.496-2.105-0.513-4.173-0.372-6.841 1.736-3.332 2.604-7.542 1.612-12.452-3.1 1.227-6.821 2.104-10.417 2.104-0.744 5.788 1.984 8.946 3.349 11.927 0.247 1.929 0.247 3.507 0.247 5.788-4.464 1.052-11.657 2.105-16.742 3.157 5.085-8.769 12.65-22.275 14.138-38.237 1.152-12.35-2.852-23.502-10.789-28.062-5.086-2.921-9.798-4.034-13.642-4.91l0.125-10.702c3.347-4.207 2.355-9.995-0.497-11.573-0.372-3.158-1.111-5.438-2.853-5.438-1.736 0-2.728 2.28-3.596 5.262-3.101 1.228-3.596 8.594 0.124 11.75l-0.124 10.744c-3.225 0.352-6.945 1.008-10.045 3.289-0.372 1.228-0.124 2.806-0.372 4.209 6.821 11.226 4.668 27.185 0.575 37.358 1.082 2.967 1.556 5.454 1.894 8.228 6.231-5.261 14.821-7.808 19.482-4.018 3.72 3.026 4.278 10.261 1.488 16.049-1.817 3.768-3.256 5.525-5.953 6.577-0.279-6.446-0.372-14.864-0.372-23.152-2.604-0.394-4.465-0.131-6.697 1.053-0.279 6.314-0.186 16.311-0.279 23.809-4.464 1.579-10.51 2.763-14.231 4.604 1.879 8.502 2.022 14.363-1.86 19.995-10.629 15.421-25.45 16.872-38.569 8.595-1.984-6.753-1.798-15.961-1.612-23.854-13.58-6.84-31.252-13.681-45.018-18.416-1.488 3.946-2.604 8.419-1.86 12.628 6.139 3.42 11.906 6.314 18.23 11.05-0.744 13.154-1.488 30.255-1.86 42.621 3.907 5.524 8.061 9.997 13.022 15.261 7.193-3.861 12.951-6.497 20.218-6.497 7.173 0 11.999 3.256 18.254 7.416 5.975 3.979 9.417 5.738 15.789 5.738 6.487 0 10.149-1.874 16.451-5.542 4.851-2.83 8.619-5.429 13.246-6.733z"/>
    </g>
   </g>
   <path id="path1216" d="m-5.26197 182.542h409.51v375.843c0 41.5282-29.4734 73.4108-65.3496 83.8854-19.488 5.68984-59.8322 12.6302-78.4562 18.1773-25.3818 7.56101-43.1081 16.133-49.995 31.4856-2.04922 4.56985-4.65571 6.9583-7.47225 6.9583-2.84354 0-5.90167-2.43568-8.8182-7.52058-9.31483-16.2409-23.473-23.667-42.1307-30.3611-17.96-6.44322-40.0274-12.4457-61.2298-17.4295-74.1499-17.4294-96.0578-38.6068-96.0578-88.272zm207.649 502.852c9.67882-18.6305 30.5598-27.3092 55.1765-34.6454 19.7486-5.8855 60.0535-12.809 78.5023-18.202 32.2125-9.40065 58.0706-37.4948 58.0706-74.1462v-365.738h-389.287v362.611c0 42.9531 15.3602 61.3192 88.2631 78.4496 21.4518 5.04332 43.781 11.1044 62.3185 17.7635 18.9071 6.77494 35.9122 15.3683 46.956 33.9077z" fill="#ff0000"/>
   <g id="g1353" transform="matrix(.748751 0 0 -1.05512 -111.322 629.702)">
    <g fill="#ff0000">
     <path id="path642" transform="matrix(2.01653 0 0 -1.01271 -18.9096 414.95)" d="m154.726 106.165v-0.724l2.51-0.757z"/>
     <path id="path643" transform="matrix(2.01653 0 0 -1.01271 -18.9096 414.95)" d="m153.2 106.867 2e-3 -0.801c-2.593 0.658-5.185 1.003-7.766 1.003-0.594 0-1.198-0.017-1.791-0.049l-0.151 2.697c3.663-0.345 6.625-1.272 9.706-2.85z"/>
     <path id="path644" transform="matrix(2.01653 0 0 -1.01271 -18.9096 414.95)" d="m142.017 109.963 0.128-3.075c-3.069-0.345-6.116-1.184-9.126-2.549l-0.605 4.358c2.546 0.888 5.057 1.299 7.976 1.299 0.558 0 1.093-0.017 1.627-0.033z"/>
     <path id="path645" transform="matrix(2.01653 0 0 -1.01271 -18.9096 414.95)" d="m130.973 108.137 0.627-4.472c-1.151-0.592-3.73-2.101-4.87-2.841l-0.755 4.703c0.221 0.115 1.73 1.016 1.777 1.032 1.162 0.428 2.174 1.135 3.221 1.578z"/>
     <path id="path646" transform="matrix(2.01653 0 0 -1.01271 -18.9096 414.95)" d="m159.329 94.0955 0.5 7.3995c1.384-0.658 2.756-1.398 4.139-2.2366l0.024-7.6128c-1.558 0.9534-3.117 1.7585-4.663 2.4499z"/>
     <path id="path647" transform="matrix(2.01653 0 0 -1.01271 -18.9096 414.95)" d="m149.784 96.6937 0.302 7.8923c2.744-0.428 5.511-1.25 8.29-2.434l-0.5-7.4483c-2.697 1.0524-5.383 1.7101-8.092 1.99z"/>
     <path id="path648" transform="matrix(2.01653 0 0 -1.01271 -18.9096 414.95)" d="m138.879 95.8708-0.966 8.0742c2.489 0.69 4.988 1.019 7.522 1.019 1.047 0 2.105-0.066 3.163-0.181l-0.302-7.9746c-0.523 0.0327-1.046 0.0495-1.581 0.0495-2.582 0-5.197-0.3452-7.836-0.9871z"/>
     <path id="path649" transform="matrix(2.01653 0 0 -1.01271 -18.9096 414.95)" d="m128.17 91.4972-1.162 7.1687c3.112 2.1541 6.755 3.9461 9.452 4.8341l0.965-8.0238c-2.558-0.7399-6.561-2.2058-9.255-3.979z"/>
     <path id="path650" transform="matrix(2.01653 0 0 -1.01271 -18.9096 414.95)" d="m153.737 84.2453 0.756 9.4387c3.15-0.8882 6.301-2.3184 9.499-4.341 0-4.5052-0.012-6.0016-0.012-6.0016-6e-3 -3.0203-0.426-3.3992-2.151-2.4331-2.744 1.5291-5.441 2.6309-8.092 3.337z"/>
     <path id="path651" transform="matrix(2.01653 0 0 -1.01271 -18.9096 414.95)" d="m144.063 85.1009-0.546 9.4713c1.069 0.1147 2.14 0.181 3.198 0.181 2.116 0 4.208-0.2305 6.301-0.7072l-0.756-9.4544c-1.93 0.4104-3.859 0.6082-5.789 0.6082-0.803 0-1.605-0.0336-2.408-0.0989z"/>
     <path id="path652" transform="matrix(2.01653 0 0 -1.01271 -18.9096 414.95)" d="m134.588 82.8804-1.279 8.9788c2.976 1.2333 5.895 2.0879 8.767 2.532l0.499-9.4545c-2.627-0.3451-5.278-1.0523-7.987-2.0563z"/>
     <path id="path653" transform="matrix(2.01653 0 0 -1.01271 -18.9096 414.95)" d="m129.844 80.842-1.395 8.7641 3.43 1.6606 1.268-8.9451c-0.605-0.2462-2.686-1.2165-3.303-1.4796z"/>
     <path id="path654" transform="matrix(2.01653 0 0 -1.01271 -18.9096 414.95)" d="m189.028 105.633c-5.022-4.473-9.627-6.1558-16.15-6.1558-5.705 0-9.851 2.4008-15.13 5.9638-5.456 3.683-10.416 5.612-17.362 5.612-4.713 0-8.433-1.052-12.898-3.507-4.965-2.731-8.614-4.912-14.386-4.912-3.968 0-6.944 1.404-10.169 3.509-3.7846 2.471-6.7856 4.56-11.4094 4.56-3.4727 0-5.3329-1.053-7.3167-2.983v11.576c1.9838 1.93 3.844 2.983 7.3167 2.983 4.6238 0 7.624-2.089 11.4094-4.56 3.225-2.105 6.201-3.509 10.169-3.509 5.772 0 9.421 2.181 14.386 4.912 4.465 2.455 8.185 3.507 12.898 3.507 6.946 0 11.906-1.929 17.362-5.612 5.279-3.564 9.425-5.964 15.13-5.964 5.022 0 8.608 0.577 12.48 3.189z"/>
     <path id="path655" transform="matrix(2.01653 0 0 -1.01271 -18.9096 414.95)" d="m135.921 41.7731-4.836 37.3588c4.34 2.1047 7.993 3.2529 13.022 3.859l0.247-22.0122c0.021-1.889 0.652-3.8338 1.985-3.9464 1.435-0.121 2.443 1.7048 2.48 3.859l0.372 22.0554c4.296-0.6577 7.745-1.7101 11.719-3.9463l-4.526-37.0516 2.447-1.4996c1.065-0.6536 1.488-1.4986 1.617-3.316l0.941-6.9361c0.298-2.2026 0.06-3.3844-1.688-3.6139l-3.193-0.4198-8.247-11.5234c-1.389-1.9416-2.759-1.8869-4-0.1957l-8.464 11.5433-3.193 0.4199c-1.748 0.2305-1.986 1.4112-1.688 3.6138l0.941 6.9362c0.13 1.8174 0.552 2.6624 1.618 3.316z"/>
     <path id="path656" transform="matrix(2.01653 0 0 -1.01271 -18.9096 414.95)" d="m102.438 104.044c-3.7138 2.428-6.5317 4.34-10.9144 4.34-0.279 0-0.5461-0.016-0.814-0.032v-4.311z"/>
     <path id="path657" transform="matrix(2.01653 0 0 -1.01271 -18.9096 414.95)" d="m89.2214 108.137v-4.096h-5.1387v0.841c1.6162 1.628 3.1854 2.763 5.1387 3.255z"/>
     <path id="path658" transform="matrix(2.01653 0 0 -1.01271 -18.9096 414.95)" d="m124.543 104.672 5.301-35.0113h-46.5054v3.157h43.7384l-4.627 30.7933c0.692 0.328 1.385 0.684 2.093 1.061z"/>
     <path id="path659" transform="matrix(2.01653 0 0 -1.01271 -18.9096 414.95)" d="m119.427 101.297c0.581 0.181 1.023 0.428 1.604 0.659l1.791-0.017 1.151-7.893h-4.546z"/>
     <path id="path660" transform="matrix(2.01653 0 0 -1.01271 -18.9096 414.95)" d="m106.778 94.046v7.531c2.186-0.872 4.208-1.234 6.266-1.234 1.582 0 3.186 0.231 4.895 0.576v-6.873z"/>
     <path id="path661" transform="matrix(2.01653 0 0 -1.01271 -18.9096 414.95)" d="m94.5 94.046v7.893h10.789v-7.893z"/>
     <path id="path662" transform="matrix(2.01653 0 0 -1.01271 -18.9096 414.95)" d="m84.0827 94.046v7.893h8.9291v-7.893z"/>
     <path id="path663" transform="matrix(2.01653 0 0 -1.01271 -18.9096 414.95)" d="m112.23 84.2127v7.7286h12.174l1.174-7.7286z"/>
     <path id="path664" transform="matrix(2.01653 0 0 -1.01271 -18.9096 414.95)" d="m100.953 84.2127v7.7286h9.789v-7.7286z"/>
     <path id="path665" transform="matrix(2.01653 0 0 -1.01271 -18.9096 414.95)" d="m84.0827 84.2127v7.7286h15.3819v-7.7286z"/>
     <path id="path666" transform="matrix(2.01653 0 0 -1.01271 -18.9096 414.95)" d="m84.0827 72.8177v9.2903h8.5571v-9.2903z"/>
     <path id="path667" transform="matrix(2.01653 0 0 -1.01271 -18.9096 414.95)" d="m94.128 72.8177v9.2903h10.789v-9.2903z"/>
     <path id="path668" transform="matrix(2.01653 0 0 -1.01271 -18.9096 414.95)" d="m106.406 72.8177v9.2903h10.417v-9.2903z"/>
     <path id="path669" transform="matrix(2.01653 0 0 -1.01271 -18.9096 414.95)" d="m118.311 72.8177v9.2903h7.708l1.419-9.2903z"/>
    </g>
    <path id="path670" transform="matrix(2.01653 0 0 -1.01271 -18.9096 414.95)" d="m142.448 28.8816c-1.302 0-2.046 0.6578-2.046 2.6309v3.0256c0 2.2362 0.558 3.1571 2.046 3.1571h7.719c1.582 0 2.232-1.184 2.232-3.0256v-2.894c0-1.8416-0.744-2.894-1.952-2.894z" fill="#99ccff"/>
    <path id="path671" transform="matrix(2.01653 0 0 -1.01271 -18.9096 414.95)" d="m144.075 48.4819c0 1.9237 1.042 3.4864 2.326 3.4864 1.283 0 2.325-1.5627 2.325-3.4864s-1.042-3.4865-2.325-3.4865c-1.284 0-2.326 1.5628-2.326 3.4865z" fill="#99ccff"/>
    <path id="path696" transform="matrix(2.01653 0 0 -1.01271 -18.9096 414.95)" d="m178.016 131.464 4.405-10.333c-2.939-1.346-5.748-1.659-9.543-1.659-5.705 0-9.851 2.4-15.13 5.964-5.456 3.683-10.416 5.612-17.362 5.612-4.713 0-8.433-1.052-12.898-3.507-4.965-2.731-8.614-4.912-14.386-4.912-3.968 0-6.944 1.404-10.169 3.509-3.7854 2.471-6.7856 4.56-11.4094 4.56-3.4727 0-5.3329-1.053-7.3167-2.983v11.576c1.9838 1.93 3.844 2.983 7.3167 2.983 4.6238 0 7.624-2.089 11.4094-4.56 3.225-2.105 6.201-3.509 10.169-3.509 5.772 0 9.421 2.181 14.386 4.912 4.465 2.455 8.185 3.507 12.898 3.507 6.946 0 11.906-1.929 17.362-5.612 5.279-3.564 9.425-5.964 15.13-5.964 1.96 0 3.485 0.113 5.138 0.416z" fill="#ff0000"/>
   </g>
   <g id="g1448" transform="matrix(.748751 0 0 -1.05512 -111.322 629.702)">
    <path id="path624" transform="matrix(2.01653 0 0 -1.01271 -18.9096 414.95)" d="m294.539 41.7731 2.446-1.4996c1.067-0.6536 1.488-1.4986 1.619-3.316l0.94-6.9362c0.299-2.2026 0.06-3.3833-1.687-3.6138l-3.194-0.4199-8.464-11.5433c-1.241-1.6912-2.61-1.7459-4 0.1957l-8.246 11.5233-3.194 0.4199c-1.748 0.2295-1.986 1.4112-1.688 3.6139l0.941 6.9361c0.129 1.8174 0.551 2.6624 1.617 3.316l2.447 1.4996-4.526 37.0515c3.974 2.2363 7.424 3.2887 11.719 3.9464l0.372-22.0554c0.037-2.1542 1.045-3.98 2.48-3.859 1.333 0.1126 1.964 2.0574 1.985 3.9464l0.248 22.0122c5.028-0.6061 8.681-1.7543 13.021-3.859z" fill="#ff0000"/>
    <path id="path639" transform="matrix(2.01653 0 0 -1.01271 -18.9096 414.95)" d="m288.012 28.8816h-7.999c-1.209 0-1.953 1.0524-1.953 2.894v2.894c0 1.8416 0.651 3.0256 2.232 3.0256h7.72c1.488 0 2.046-0.9209 2.046-3.1571v-3.0256c0-1.9731-0.744-2.6309-2.046-2.6309z" fill="#99ccff"/>
    <path id="path640" transform="matrix(2.01653 0 0 -1.01271 -18.9096 414.95)" d="m286.385 48.4819c0-1.9237-1.042-3.4865-2.325-3.4865-1.285 0-2.326 1.5628-2.326 3.4865s1.041 3.4864 2.326 3.4864c1.283 0 2.325-1.5627 2.325-3.4864z" fill="#99ccff"/>
    <g fill="#ff0000">
     <path id="path611" transform="matrix(2.01653 0 0 -1.01271 -18.9096 414.95)" d="m275.735 106.165v-0.724l-2.512-0.757z"/>
     <path id="path612" transform="matrix(2.01653 0 0 -1.01271 -18.9096 414.95)" d="m277.26 106.867-2e-3 -0.801c2.593 0.658 5.185 1.003 7.767 1.003 0.593 0 1.197-0.017 1.79-0.049l0.151 2.697c-3.662-0.345-6.625-1.272-9.706-2.85z"/>
     <path id="path613" transform="matrix(2.01653 0 0 -1.01271 -18.9096 414.95)" d="m288.443 109.963-0.128-3.075c3.069-0.345 6.115-1.184 9.126-2.549l0.605 4.358c-2.546 0.888-5.057 1.299-7.976 1.299-0.558 0-1.093-0.017-1.627-0.033z"/>
     <path id="path614" transform="matrix(2.01653 0 0 -1.01271 -18.9096 414.95)" d="m299.488 108.137c1.047-0.443 2.058-1.15 3.22-1.578 0.047-0.016 1.556-0.917 1.777-1.032l-0.755-4.703c-1.14 0.74-3.719 2.249-4.87 2.841z"/>
     <path id="path615" transform="matrix(2.01653 0 0 -1.01271 -18.9096 414.95)" d="m271.131 94.0955c-1.546-0.6914-3.104-1.4965-4.663-2.4499l0.024 7.6128c1.384 0.8386 2.756 1.5786 4.139 2.2366z"/>
     <path id="path616" transform="matrix(2.01653 0 0 -1.01271 -18.9096 414.95)" d="m280.676 96.6937c-2.709-0.2799-5.395-0.9376-8.092-1.99l-0.5 7.4483c2.779 1.184 5.546 2.006 8.29 2.434z"/>
     <path id="path617" transform="matrix(2.01653 0 0 -1.01271 -18.9096 414.95)" d="m291.582 95.8708c-2.64 0.6419-5.255 0.9871-7.836 0.9871-0.535 0-1.059-0.0168-1.582-0.0495l-0.302 7.9746c1.058 0.115 2.116 0.181 3.163 0.181 2.534 0 5.033-0.329 7.522-1.019z"/>
     <path id="path618" transform="matrix(2.01653 0 0 -1.01271 -18.9096 414.95)" d="m302.29 91.4972c-2.694 1.7732-6.697 3.2391-9.255 3.979l0.965 8.0238c2.697-0.888 6.34-2.681 9.452-4.8341z"/>
     <path id="path619" transform="matrix(2.01653 0 0 -1.01271 -18.9096 414.95)" d="m276.724 84.2453c-2.652-0.7061-5.349-1.8079-8.092-3.337-1.727-0.9661-2.146-0.5862-2.152 2.4331 0 0-0.012 1.4964-0.012 6.0016 3.198 2.0226 6.349 3.4528 9.5 4.341z"/>
     <path id="path620" transform="matrix(2.01653 0 0 -1.01271 -18.9096 414.95)" d="m286.397 85.1009c-0.803 0.0653-1.605 0.0989-2.407 0.0989-1.931 0-3.86-0.1978-5.79-0.6082l-0.756 9.4544c2.093 0.4767 4.185 0.7072 6.302 0.7072 1.058 0 2.127-0.0663 3.197-0.181z"/>
     <path id="path621" transform="matrix(2.01653 0 0 -1.01271 -18.9096 414.95)" d="m295.872 82.8804c-2.709 1.004-5.36 1.7112-7.987 2.0563l0.499 9.4545c2.872-0.4441 5.791-1.2987 8.767-2.532z"/>
     <path id="path622" transform="matrix(2.01653 0 0 -1.01271 -18.9096 414.95)" d="m300.616 80.842c-0.616 0.2631-2.698 1.2334-3.303 1.4796l1.268 8.9451 3.43-1.6606z"/>
     <path id="path623" transform="matrix(2.01653 0 0 -1.01271 -18.9096 414.95)" d="m241.432 105.633 3.67 8.609c3.872-2.612 7.458-3.189 12.48-3.189 5.705 0 9.851 2.4 15.13 5.964 5.457 3.683 10.416 5.612 17.362 5.612 4.713 0 8.434-1.052 12.898-3.507 4.965-2.731 8.614-4.912 14.386-4.912 3.968 0 6.944 1.404 10.169 3.509 3.786 2.471 6.786 4.56 11.41 4.56 3.472 0 5.332-1.053 7.316-2.983v-11.576c-1.984 1.93-3.844 2.983-7.316 2.983-4.624 0-7.625-2.089-11.41-4.56-3.225-2.105-6.201-3.509-10.169-3.509-5.772 0-9.421 2.181-14.386 4.912-4.464 2.455-8.185 3.507-12.898 3.507-6.946 0-11.905-1.929-17.362-5.612-5.279-3.563-9.425-5.9638-15.13-5.9638-6.524 0-11.127 1.6828-16.15 6.1558z"/>
     <path id="path625" transform="matrix(2.01653 0 0 -1.01271 -18.9096 414.95)" d="m328.022 104.044c3.714 2.428 6.531 4.34 10.915 4.34 0.279 0 0.546-0.016 0.814-0.032v-4.311z"/>
     <path id="path626" transform="matrix(2.01653 0 0 -1.01271 -18.9096 414.95)" d="m341.239 108.137v-4.096h5.138v0.841c-1.616 1.628-3.185 2.763-5.138 3.255z"/>
     <path id="path627" transform="matrix(2.01653 0 0 -1.01271 -18.9096 414.95)" d="m305.917 104.672c0.708-0.377 1.401-0.734 2.093-1.061l-4.627-30.7933h43.739v-3.1571h-46.506z"/>
     <path id="path628" transform="matrix(2.01653 0 0 -1.01271 -18.9096 414.95)" d="m311.033 101.297v-7.251h-4.546l1.151 7.893 1.791 0.017c0.581-0.231 1.023-0.478 1.604-0.659z"/>
     <path id="path629" transform="matrix(2.01653 0 0 -1.01271 -18.9096 414.95)" d="m323.683 94.046h-11.162v6.873c1.709-0.345 3.314-0.576 4.895-0.576 2.058 0 4.08 0.362 6.267 1.234z"/>
     <path id="path630" transform="matrix(2.01653 0 0 -1.01271 -18.9096 414.95)" d="m335.96 94.046h-10.789v7.893h10.789z"/>
     <path id="path631" transform="matrix(2.01653 0 0 -1.01271 -18.9096 414.95)" d="m346.377 94.046h-8.929v7.893h8.929z"/>
     <path id="path632" transform="matrix(2.01653 0 0 -1.01271 -18.9096 414.95)" d="m318.23 84.2127h-13.348l1.174 7.7286h12.174z"/>
     <path id="path633" transform="matrix(2.01653 0 0 -1.01271 -18.9096 414.95)" d="m329.507 84.2127h-9.789v7.7286h9.789z"/>
     <path id="path634" transform="matrix(2.01653 0 0 -1.01271 -18.9096 414.95)" d="m346.377 84.2127h-15.381v7.7286h15.381z"/>
     <path id="path635" transform="matrix(2.01653 0 0 -1.01271 -18.9096 414.95)" d="m346.377 72.8177h-8.557v9.2903h8.557z"/>
     <path id="path636" transform="matrix(2.01653 0 0 -1.01271 -18.9096 414.95)" d="m336.332 72.8177h-10.789v9.2903h10.789z"/>
     <path id="path637" transform="matrix(2.01653 0 0 -1.01271 -18.9096 414.95)" d="m324.055 72.8177h-10.418v9.2903h10.418z"/>
     <path id="path638" transform="matrix(2.01653 0 0 -1.01271 -18.9096 414.95)" d="m312.149 72.8177h-9.127l1.419 9.2903h7.708z"/>
     <path id="path641" transform="matrix(2.01653 0 0 -1.01271 -18.9096 414.95)" d="m252.444 131.464c1.653-0.303 3.178-0.416 5.138-0.416 5.705 0 9.851 2.4 15.13 5.964 5.457 3.683 10.416 5.612 17.362 5.612 4.713 0 8.434-1.052 12.898-3.507 4.965-2.731 8.614-4.912 14.386-4.912 3.968 0 6.944 1.404 10.169 3.509 3.786 2.471 6.786 4.56 11.41 4.56 3.472 0 5.332-1.053 7.316-2.983v-11.576c-1.984 1.93-3.844 2.983-7.316 2.983-4.624 0-7.624-2.089-11.41-4.56-3.225-2.105-6.201-3.509-10.169-3.509-5.772 0-9.421 2.181-14.386 4.912-4.464 2.455-8.185 3.507-12.898 3.507-6.946 0-11.905-1.929-17.362-5.612-5.279-3.564-9.425-5.964-15.13-5.964-3.794 0-6.603 0.313-9.543 1.659z"/>
    </g>
   </g>
  </g>
 </g>
</svg>
