<?xml version="1.0" encoding="UTF-8" standalone="no"?>
<!-- Created with Inkscape (http://www.inkscape.org/) -->
<svg
   xmlns:dc="http://purl.org/dc/elements/1.1/"
   xmlns:cc="http://creativecommons.org/ns#"
   xmlns:rdf="http://www.w3.org/1999/02/22-rdf-syntax-ns#"
   xmlns:svg="http://www.w3.org/2000/svg"
   xmlns="http://www.w3.org/2000/svg"
   xmlns:sodipodi="http://sodipodi.sourceforge.net/DTD/sodipodi-0.dtd"
   xmlns:inkscape="http://www.inkscape.org/namespaces/inkscape"
   width="600"
   height="400"
   id="svg2"
   sodipodi:version="0.32"
   inkscape:version="0.46"
   version="1.0"
   sodipodi:docbase="C:\Documents and Settings\David Nelson\Archives\Svg"
   sodipodi:docname="Naval_Ensign_of_Bulgaria_1991-2005.svg"
   inkscape:output_extension="org.inkscape.output.svg.inkscape">
  <defs
     id="defs4">
    <inkscape:perspective
       sodipodi:type="inkscape:persp3d"
       inkscape:vp_x="0 : 200 : 1"
       inkscape:vp_y="0 : 1000 : 0"
       inkscape:vp_z="600 : 200 : 1"
       inkscape:persp3d-origin="300 : 133.33333 : 1"
       id="perspective80" />
  </defs>
  <sodipodi:namedview
     id="base"
     pagecolor="#ffffff"
     bordercolor="#666666"
     borderopacity="1.0"
     inkscape:pageopacity="0.0"
     inkscape:pageshadow="2"
     inkscape:zoom="1.11"
     inkscape:cx="300"
     inkscape:cy="218.85828"
     inkscape:document-units="px"
     inkscape:current-layer="layer1"
     inkscape:window-width="1024"
     inkscape:window-height="712"
     inkscape:window-x="-4"
     inkscape:window-y="-4"
     showguides="true"
     inkscape:guide-bbox="true"
     showgrid="false"
     inkscape:grid-points="false"
     gridtolerance="20px"
     inkscape:grid-bbox="false">
    <inkscape:grid
       id="GridFromPre046Settings"
       type="xygrid"
       originx="0px"
       originy="0px"
       spacingx="42.666666px"
       spacingy="42.6667px"
       color="#0000ff"
       empcolor="#0000ff"
       opacity="0.2"
       empopacity="0.4"
       empspacing="5" />
  </sodipodi:namedview>
  <metadata
     id="metadata7">
    <rdf:RDF>
      <cc:Work
         rdf:about="">
        <dc:format>image/svg+xml</dc:format>
        <dc:type
           rdf:resource="http://purl.org/dc/dcmitype/StillImage" />
      </cc:Work>
    </rdf:RDF>
  </metadata>
  <g
     inkscape:label="Layer 1"
     inkscape:groupmode="layer"
     id="layer1">
    <g
       id="g2681"
       transform="scale(1.5625,1.5625)">
      <rect
         y="0"
         x="0"
         height="256"
         width="384"
         id="rect6653"
         style="opacity:1;fill:#ffffff;fill-opacity:1;fill-rule:evenodd;stroke:none;stroke-width:1;stroke-linecap:butt;stroke-linejoin:round;stroke-miterlimit:4;stroke-dasharray:none;stroke-dashoffset:0;stroke-opacity:1" />
      <rect
         y="170.6666"
         x="-6.3948846e-014"
         height="42.666698"
         width="384"
         id="rect6724"
         style="opacity:1;fill:#009972;fill-opacity:1;fill-rule:evenodd;stroke:none;stroke-width:1;stroke-linecap:butt;stroke-linejoin:round;stroke-miterlimit:4;stroke-dasharray:none;stroke-dashoffset:0;stroke-opacity:1" />
      <rect
         y="213.3333"
         x="-6.3948846e-014"
         height="42.666698"
         width="384"
         id="rect6726"
         style="opacity:1;fill:#d41f22;fill-opacity:1;fill-rule:evenodd;stroke:none;stroke-width:1;stroke-linecap:butt;stroke-linejoin:round;stroke-miterlimit:4;stroke-dasharray:none;stroke-dashoffset:0;stroke-opacity:1" />
      <g
         id="g2465">
        <path
           style="fill:#fbea0e;fill-opacity:1;fill-rule:evenodd;stroke:#000000;stroke-width:0.63999999px;stroke-linecap:butt;stroke-linejoin:miter;stroke-opacity:1"
           d="M 95.672399,37.259077 C 102.87361,38.272935 113.0796,45.334165 112.52744,35.493311 C 110.49413,38.038586 108.40803,35.67124 106.42752,31.96178 C 105.26194,29.778667 104.19106,28.213765 101.07671,27.467103 C 97.834036,26.689675 94.28119,25.326781 94.28119,25.326781 L 95.672399,37.259077 z "
           id="path5765"
           sodipodi:nodetypes="ccsscc" />
        <path
           style="fill:#fbea0e;fill-opacity:1;fill-rule:evenodd;stroke:#000000;stroke-width:0.63999999px;stroke-linecap:butt;stroke-linejoin:miter;stroke-opacity:1"
           d="M 101.40104,44.457548 L 106.59459,49.651105 C 112.13244,51.134966 112.38804,47.021014 112.73819,44.140868 C 110.1623,47.658684 108.26866,44.544144 107.4813,41.987442 C 105.36833,35.126261 102.76948,34.130101 99.500956,33.437073 L 93.990718,33.310401 L 94.940759,39.327327 L 101.40104,44.457548 z "
           id="path2422"
           sodipodi:nodetypes="cccscccc" />
        <path
           style="fill:#fbea0e;fill-opacity:1;fill-rule:evenodd;stroke:#000000;stroke-width:0.63999999px;stroke-linecap:butt;stroke-linejoin:miter;stroke-opacity:1"
           d="M 99.304395,52.331968 C 99.304395,52.331968 105.41565,58.839598 108.97516,58.689599 C 111.97446,58.563208 113.26897,56.566087 113.63145,53.406497 C 110.22098,55.418008 108.00106,52.67422 106.60224,49.377013 C 105.13824,45.926168 102.91655,43.660577 99.931204,41.944854 L 93.349713,41.004641 L 93.260169,49.51133 L 99.304395,52.331968 z "
           id="path2420"
           sodipodi:nodetypes="cscscccc" />
        <path
           style="fill:#fbea0e;fill-opacity:1;fill-rule:evenodd;stroke:#000000;stroke-width:0.63999999px;stroke-linecap:butt;stroke-linejoin:miter;stroke-opacity:1"
           d="M 84.863242,44.978167 C 81.907862,43.07261 80.992361,40.64665 75.643211,39.394205 C 71.940864,38.52734 71.53991,40.038444 69.66967,39.913644 C 67.898391,39.795448 65.581856,39.446241 64.475286,36.407434 C 63.816518,34.598359 65.483721,33.572975 66.55304,32.381787 C 64.574539,32.596241 59.530691,34.786443 60.319779,37.641101 C 61.059321,40.316518 62.929242,42.835484 66.42318,42.835484 C 70.433417,42.835484 72.395883,40.741022 75.123773,41.471958 C 79.41559,42.621947 84.084084,46.406623 84.084084,46.406623 L 84.863242,44.978167 z "
           id="path2416"
           sodipodi:nodetypes="cssscssscc" />
        <path
           style="fill:#ffffff;fill-opacity:1;fill-rule:evenodd;stroke:#000000;stroke-width:0.63999999px;stroke-linecap:butt;stroke-linejoin:miter;stroke-opacity:1"
           d="M 72.929145,47.061115 C 73.023607,44.862498 74.131925,43.4312 75.547115,42.883492 L 75.547115,47.684441 L 72.929145,47.061115 z "
           id="path2412"
           sodipodi:nodetypes="cccc" />
        <path
           style="fill:#fbea0e;fill-opacity:1;fill-rule:evenodd;stroke:#000000;stroke-width:0.63999999px;stroke-linecap:butt;stroke-linejoin:miter;stroke-opacity:1"
           d="M 61.723178,49.802894 L 51.753208,42.46137 C 51.753208,42.46137 54.789021,41.117181 55.378651,39.289107 C 56.319123,36.373294 54.01911,35.078292 54.01911,35.078292 C 52.671684,34.26954 50.550434,34.305716 49.376353,33.203549 C 48.125283,32.029108 47.403371,30.262118 44.592957,30.316134 L 39.336063,31.494403 L 39.426699,35.482391 C 34.891036,34.549052 33.224429,36.676038 32.283559,39.577144 C 33.03059,44.236925 34.198548,48.167099 38.520339,46.630631 C 28.318388,56.060076 36.274848,53.492001 38.520339,54.697243 C 44.431148,56.257639 44.268019,52.815969 46.496314,51.343707 L 59.004095,60.044772 L 61.723178,49.802894 z "
           id="path2400"
           sodipodi:nodetypes="ccscsccccccccc" />
        <path
           style="fill:#fbea0e;fill-opacity:1;fill-rule:evenodd;stroke:none;stroke-width:1px;stroke-linecap:butt;stroke-linejoin:miter;stroke-opacity:1"
           d="M 36.485031,80.281066 L 33.850444,90.65974 L 42.153383,90.340396 L 42.153383,83.234997 L 36.485031,80.281066 z "
           id="path2325" />
        <path
           style="fill:#fbea0e;fill-opacity:1;fill-rule:evenodd;stroke:#000000;stroke-width:0.63999999px;stroke-linecap:butt;stroke-linejoin:miter;stroke-opacity:1"
           d="M 71.700261,51.621433 C 70.652586,47.753768 71.703406,46.432959 76.441377,46.588556 C 78.941053,46.670646 81.547194,48.630882 81.547194,48.630882 L 71.700261,51.621433 z "
           id="path2349"
           sodipodi:nodetypes="cscc" />
        <path
           style="fill:#fbea0e;fill-opacity:1;fill-rule:evenodd;stroke:#000000;stroke-width:0.63999999px;stroke-linecap:butt;stroke-linejoin:miter;stroke-opacity:1"
           d="M 58.488759,59.808132 C 58.488759,59.808132 58.147355,58.958213 56.514893,56.431783 C 54.878662,53.899521 49.450532,50.354354 49.450532,50.354354 C 49.450532,50.354354 52.421624,52.735748 55.476017,53.522928 C 58.830267,54.387387 63.059817,52.022928 63.059817,52.022928 L 63.423423,58.873143 L 58.488759,59.808132 z "
           id="path2390"
           sodipodi:nodetypes="cscsccc" />
        <path
           style="fill:#fbea0e;fill-opacity:1;fill-rule:evenodd;stroke:#000000;stroke-width:0.63999999px;stroke-linecap:butt;stroke-linejoin:miter;stroke-opacity:1"
           d="M 62.504018,58.234234 C 55.387864,57.734849 52.123156,61.930144 48.32335,63.415632 C 45.935773,64.349026 45.487217,62.27027 45.487217,62.27027 C 43.529345,64.306468 47.124867,66.015421 48.486973,68.051619 L 66.921841,64.39737 L 62.504018,58.234234 z "
           id="path2388"
           sodipodi:nodetypes="cscccc" />
        <path
           style="fill:#ffffff;fill-opacity:1;fill-rule:evenodd;stroke:#000000;stroke-width:0.63999999px;stroke-linecap:butt;stroke-linejoin:miter;stroke-opacity:1"
           d="M 72.679815,35.841247 C 72.934231,37.849483 71.53947,40.315824 74.48746,41.575846 C 74.918231,38.508097 75.881847,37.394115 76.793767,36.090577 L 72.679815,35.841247 z "
           id="path2414"
           sodipodi:nodetypes="cccc" />
        <path
           style="fill:#fbea0e;fill-opacity:1;fill-rule:evenodd;stroke:#000000;stroke-width:0.63999999px;stroke-linecap:butt;stroke-linejoin:miter;stroke-opacity:1"
           d="M 95.368882,57.782323 C 98.812156,62.532215 101.93967,68.196146 108.212,67.399725 C 112.72312,66.82693 113.84433,63.795364 115.68931,61.584612 C 113.81035,62.901466 112.12477,63.154699 110.57804,62.644266 C 108.50259,61.748915 107.30791,60.119583 106.21476,58.405649 C 104.7874,55.19085 101.35451,51.808922 97.986852,48.432432 L 90.506939,48.3701 L 95.368882,57.782323 z "
           id="path2418"
           sodipodi:nodetypes="cscccccc" />
        <path
           style="fill:#fbea0e;fill-opacity:1;fill-rule:evenodd;stroke:#000000;stroke-width:0.63999999;stroke-linecap:butt;stroke-linejoin:miter;stroke-miterlimit:4;stroke-dasharray:none;stroke-opacity:1"
           d="M 78.545455,24.477922 L 91.199499,24.477922 C 89.425906,26.896883 89.846109,28.112074 89.641558,29.58961 C 90.730199,26.629017 91.280939,21.327822 95.501299,22.358442 C 98.611207,23.117887 92.661506,33.043116 92.633767,32.457143 C 95.035783,30.690041 95.847259,27.968615 96.623377,25.225974 C 97.291177,25.289034 98.524339,25.43633 97.684115,32.203799 C 97.467766,33.946353 96.568027,34.559942 95.819975,34.513287 C 95.819975,34.513287 96.436364,37.319481 98.244156,38.566234 C 100.05195,39.812987 102.60779,39.563636 102.60779,39.563636 C 100.58457,41.180034 100.20241,42.202572 99.615584,42.805194 C 98.334964,44.120292 95.251948,43.428571 95.251948,43.428571 C 96.290153,44.851498 95.802878,46.978493 100.86234,46.545455 C 100.28149,49.67152 98.283098,51.521801 94.379221,51.657143 C 95.392142,53.829952 96.429571,55.972127 98.742857,56.519481 L 94.628571,59.387013 L 63.335065,58.14026 L 62.337662,55.522078 C 62.337662,55.522078 60.92588,54.955807 60.342857,53.402597 C 59.667269,51.602786 59.966636,50.035632 60.342857,48.54026 C 60.342857,48.54026 65.309674,50.161757 68.208543,50.161757 C 71.9801,50.161757 71.846943,49.485883 75.428571,48.664935 C 79.010199,47.843987 82.41039,47.418182 82.41039,47.418182 C 83.116883,46.268806 83.996787,43.666241 83.781818,40.561039 C 83.496823,36.444317 81.697377,34.628268 79.792208,34.451948 C 78.141708,34.299197 77.057552,37.113149 74.555844,36.571429 C 71.612444,35.934064 71.14409,35.477455 71.438961,33.32987 C 71.301854,31.656268 71.287974,30.035477 73.433766,29.34026 C 70.443367,26.246007 73.802413,26.175299 77.672727,26.348052 L 78.545455,24.477922 z "
           id="path2343"
           sodipodi:nodetypes="cccsccscscscccccccscsscssscccc" />
        <path
           style="fill:none;fill-opacity:0.75;fill-rule:evenodd;stroke:#000000;stroke-width:0.63999999px;stroke-linecap:butt;stroke-linejoin:miter;stroke-opacity:1"
           d="M 90.264935,41.184416 C 91.253558,42.209183 91.847814,43.529724 91.511688,45.548052 C 88.194977,45.682019 88.301381,49.80962 86.774026,52.031169"
           id="path2347"
           sodipodi:nodetypes="ccc" />
        <path
           style="fill:#fbea0e;fill-opacity:1;fill-rule:evenodd;stroke:#000000;stroke-width:0.63999999px;stroke-linecap:butt;stroke-linejoin:miter;stroke-opacity:1"
           d="M 95.701861,58.995231 L 91.138044,53.117588 C 89.009629,51.305034 86.578246,50.704355 84.084872,50.351638 C 81.108871,50.458108 78.742253,51.539592 76.685956,53.117588 C 74.662347,55.417559 71.604526,56.295487 68.111512,56.575025 C 65.734028,56.514172 63.949743,56.008418 62.303018,55.399496 C 61.637827,57.145616 57.599041,57.842172 64.584926,61.968627 L 95.701861,58.995231 z "
           id="path2279"
           sodipodi:nodetypes="cccccccc" />
        <path
           style="fill:#fbea0e;fill-opacity:1;fill-rule:evenodd;stroke:#000000;stroke-width:0.63999999px;stroke-linecap:butt;stroke-linejoin:miter;stroke-opacity:1"
           d="M 55.655144,64.946921 C 55.655144,64.946921 53.341462,65.073698 51.154557,66.214692 C 48.905004,67.388372 48.286226,68.449138 46.146862,68.496679 C 44.007498,68.54422 42.343549,66.658411 42.343549,66.658411 C 43.780153,69.038161 44.558615,71.541313 48.555627,73.440986 L 59.204902,71.792884 L 59.395068,65.517418 L 55.655144,64.946921 z "
           id="path2341"
           sodipodi:nodetypes="cssccccc" />
        <path
           style="fill:#fbea0e;fill-opacity:1;fill-rule:evenodd;stroke:#000000;stroke-width:0.63999999px;stroke-linecap:butt;stroke-linejoin:miter;stroke-opacity:1"
           d="M 59.250056,67.743832 C 56.149032,70.628054 52.280008,71.976277 48.176164,72.854859 C 48.176164,72.854859 48.886029,74.321913 52.435353,76.072913 C 56.797055,78.224686 67.295191,76.451508 67.295191,76.451508 L 67.295191,67.554534 L 59.250056,67.743832 z "
           id="path2337"
           sodipodi:nodetypes="ccsccc" />
        <path
           style="fill:#fbea0e;fill-opacity:1;fill-rule:evenodd;stroke:#000000;stroke-width:0.63999999px;stroke-linecap:butt;stroke-linejoin:miter;stroke-opacity:1"
           d="M 67.615086,61.590889 C 65.4338,61.816927 63.183641,61.965341 60.941716,62.787058 C 58.775988,63.580847 56.603185,63.820205 54.455486,63.853859 C 55.389513,67.200862 57.833923,69.798144 62.452668,69.460429 L 70.385164,68.641996 L 73.721849,65.620093 L 71.14064,62.409321 L 67.615086,61.590889 z "
           id="path2276"
           sodipodi:nodetypes="cscccccc" />
        <path
           id="path1379"
           style="fill:#fbea0e;fill-opacity:1;fill-rule:evenodd;stroke:#000000;stroke-width:0.63999999px;stroke-linecap:butt;stroke-linejoin:miter;stroke-opacity:1"
           d="M 133.82826,34.491156 C 127.1505,34.552435 123.50089,38.587285 123.54991,44.979264 C 124.38328,50.51436 126.07276,54.33725 128.58421,56.516183 C 131.88776,59.668372 131.43124,61.567209 131.52088,63.648096 L 130.47207,67.633577 C 132.52218,66.030188 135.40049,67.187443 135.92588,60.501664 C 137.44839,59.964966 139.2388,60.232006 139.7016,56.516183 C 142.34483,56.162176 143.14069,53.652918 142.42851,49.384269 C 144.5594,49.067939 144.58747,46.648784 144.52613,44.140215 C 143.48206,39.662917 142.49276,34.411646 133.82826,34.491156 z M 132.35992,46.237837 C 132.36672,48.688461 132.662,51.283325 134.87707,54.838086 C 135.54601,56.206935 136.17393,57.184974 135.92888,60.501664 M 136.02423,45.096453 C 136.23598,46.900968 136.34054,49.251088 137.99308,50.935538 C 139.22365,52.488945 139.60673,54.465232 139.70573,56.52156 M 142.45427,49.273868 C 140.81794,46.753472 139.97646,44.498024 139.36304,42.318596"
           sodipodi:nodetypes="cccccccccscccccccc" />
        <path
           style="fill:#fbea0e;fill-opacity:1;fill-rule:evenodd;stroke:#000000;stroke-width:0.63999999px;stroke-linecap:butt;stroke-linejoin:miter;stroke-opacity:1"
           d="M 100.95717,66.117551 C 97.281044,62.02133 98.615862,55.837216 86.989119,55.053752 C 84.552005,55.117341 81.390433,56.064636 78.302766,57.071975 C 76.098862,58.279385 73.209448,59.423637 69.840231,59.479272 L 65.414711,59.202677 C 66.023146,62.159662 67.757584,64.312359 70.94661,65.426064 L 100.95717,66.117551 z "
           id="path2274"
           sodipodi:nodetypes="ccccccc" />
        <path
           style="fill:#fbea0e;fill-opacity:1;fill-rule:evenodd;stroke:none;stroke-width:1px;stroke-linecap:butt;stroke-linejoin:miter;stroke-opacity:1"
           d="M 77.129968,88.211386 L 80.264662,90.191192 L 102.20752,89.613749 L 99.567777,81.034586 L 85.461654,76.167562 L 74.325242,79.384748 L 77.129968,88.211386 z "
           id="path2323" />
        <rect
           style="fill:#fbea0e;fill-opacity:1;fill-rule:evenodd;stroke:none;stroke-width:1;stroke-linecap:butt;stroke-linejoin:round;stroke-miterlimit:4;stroke-dasharray:none;stroke-dashoffset:0;stroke-opacity:1"
           id="rect2327"
           width="8.1760893"
           height="7.6248817"
           x="93.244019"
           y="117.00669" />
        <rect
           style="fill:#fbea0e;fill-opacity:1;fill-rule:evenodd;stroke:none;stroke-width:1;stroke-linecap:butt;stroke-linejoin:round;stroke-miterlimit:4;stroke-dasharray:none;stroke-dashoffset:0;stroke-opacity:1"
           id="rect2331"
           width="6.6143541"
           height="3.3071771"
           x="101.87943"
           y="140.8" />
        <rect
           style="fill:#fbea0e;fill-opacity:1;fill-rule:evenodd;stroke:none;stroke-width:1;stroke-linecap:butt;stroke-linejoin:round;stroke-miterlimit:4;stroke-dasharray:none;stroke-dashoffset:0;stroke-opacity:1"
           id="rect2333"
           width="10.656459"
           height="6.063158"
           x="102.88995"
           y="146.31197" />
        <path
           style="fill:#fbea0e;fill-opacity:1;fill-rule:evenodd;stroke:#000000;stroke-width:0.63999999px;stroke-linecap:butt;stroke-linejoin:miter;stroke-opacity:1"
           d="M 38.940562,117.97484 C 41.169419,123.44943 46.722126,126.19956 56.272489,125.67292 L 50.240078,116.30917 L 38.940562,117.97484 z "
           id="path5777"
           sodipodi:nodetypes="cccc" />
        <path
           style="fill:#fbea0e;fill-opacity:1;fill-rule:evenodd;stroke:#000000;stroke-width:0.63999999px;stroke-linecap:butt;stroke-linejoin:miter;stroke-opacity:1"
           d="M 83.485667,96.412776 C 71.694163,97.738061 58.986606,94.177729 49.428337,107.4136 C 45.11954,112.84563 39.763573,115.26704 32.248976,111.48239 C 36.318201,117.22252 40.137095,122.4088 49.729729,119.46929 C 53.319609,123.95189 56.620848,128.59686 66.457002,129.56593 C 66.127257,134.36694 62.942739,136.97657 59.52498,139.51188 C 56.010206,142.11916 53.865637,141.10547 52.44226,137.40213 C 51.482774,134.52879 49.893973,132.28477 45.588284,132.75763 C 42.21352,135.16541 41.418167,137.37477 42.026892,139.47612 C 38.857205,140.0898 37.369984,142.01206 36.960636,144.77266 C 37.545822,147.16672 36.408562,150.422 41.566323,150.52977 L 44.068587,155.49165 C 44.068587,155.49165 45.011116,158.48055 49.05045,158.48055 C 52.8596,158.48055 54.462246,155.48089 54.462246,155.48089 C 57.782693,159.38948 60.861328,158.90539 63.711712,156.52853 C 67.561976,153.3179 67.954249,149.70557 61.369369,145.5976 C 64.235511,143.8307 67.035206,143.0605 69.489489,147.47147 C 71.41581,146.56989 73.021711,145.13428 73.705706,142.16216 C 76.975561,142.65604 79.623049,144.39466 80.593458,149.48743 C 82.604232,147.93047 84.87296,147.14737 85.47791,141.37294 C 90.455047,136.59939 85.707758,133.85176 80.829803,131.13135 C 82.556461,129.60052 83.946253,127.91864 83.624611,125.34629 C 83.3079,122.81337 80.316162,122.77658 77.599762,122.46538 C 72.904853,122.24308 68.487722,120.9969 68.487032,115.99782 C 68.487032,111.48673 72.350584,109.35112 76.540541,109.68387 C 80.482568,109.80875 83.807549,110.13932 86.20475,110.77914 L 83.485667,96.412776 z "
           id="path5767"
           sodipodi:nodetypes="cccccscccccczcsccccccscsccc" />
        <path
           style="fill:#fbea0e;fill-opacity:1;fill-rule:evenodd;stroke:#000000;stroke-width:0.63999999px;stroke-linecap:butt;stroke-linejoin:miter;stroke-opacity:1"
           d="M 42.325451,83.705637 C 38.933438,80.233645 38.398426,80.985241 36.46315,80.426723 M 37.459106,88.576673 C 35.649619,88.524991 34.466234,89.22463 33.98147,90.762616 M 44.335697,92.336278 C 44.966218,93.20151 45.480119,94.358295 45.596888,96.507908 M 68.563398,84.960123 C 69.630156,86.327325 70.694797,87.969371 72.922167,89.226038 M 95.762064,86.54169 C 95.762064,86.54169 98.310935,86.264089 99.091181,86.816763 C 99.871427,87.369437 99.366254,88.384227 99.366254,88.384227 C 99.366254,88.384227 97.230291,88.907295 96.230281,88.117172 C 95.263492,87.353297 95.566083,86.402498 95.450035,85.516354 C 92.277523,84.957437 94.179019,83.617903 95.319994,82.395372 C 91.839605,82.88482 90.421151,81.312333 89.338112,79.404431 C 87.531268,80.509987 85.275474,80.580406 81.015493,79.404431 C 80.003777,79.125145 78.426117,79.131589 77.374347,80.444758 C 76.526713,81.503056 77.624707,83.587524 82.445943,83.585904 C 81.824204,85.500287 80.429103,87.903899 78.420753,89.471629 M 94.67534,117.98674 C 95.36749,120.67667 96.543907,123.26133 99.905779,125.37088 M 107.60799,142.97747 C 105.11035,141.80305 103.08642,141.55768 101.49729,142.65081 M 108.6,147.6 C 105.32834,147.29501 103.77349,148.70682 104.5,152.4 M 68.572848,71.656675 C 64.953762,72.288197 61.346923,72.889099 56.235473,77.251531 C 56.235473,77.251531 53.670639,78.076414 51.357907,79.403399 C 49.045175,80.730384 46.984545,82.559471 46.984545,82.559471 C 46.80778,74.175263 43.858114,74.155135 40.311653,74.382374 C 38.818795,75.82592 36.216379,74.162703 36.438291,80.407603 C 27.685361,82.826075 31.265858,86.835957 33.999508,90.736568 C 32.982324,93.90562 34.25331,94.786502 34.57334,96.618339 C 34.668974,99.009306 36.256602,100.93295 39.737821,100.77862 C 42.950622,100.6362 44.312552,98.371722 45.619593,96.474882 C 53.258924,101.35579 55.64786,97.048504 55.661642,88.5847 C 57.745318,88.622876 59.451821,88.032432 60.50515,86.353363 C 64.676436,91.139603 68.740917,91.281264 72.912204,89.218355 C 74.974224,90.158056 76.694067,89.465995 78.43738,89.449576 L 84.088867,96.838359 L 84.272869,110.8225 C 85.13353,113.99016 86.267725,117.2262 89.066914,120.87849 C 91.427622,123.45832 92.029655,127.50372 91.448943,132.53473 C 95.796032,132.17701 98.509149,129.64065 99.91303,125.35865 C 105.95977,130.0988 110.83257,129.91873 115.89911,125.83705 C 116.3741,129.24396 117.53616,128.12259 118.12922,136.21476 C 118.37488,139.56668 115.58444,144.80862 110.36782,137.28758 C 109.21116,135.61999 108.87069,134.1245 105.06508,134.1245 C 101.25352,134.1245 98.834926,138.34956 101.50465,142.66219 C 98.414569,144.55418 100.01014,146.44617 99.777252,148.33816 C 100.96071,150.58176 101.71713,153.7506 104.54436,152.43269 C 106.72755,154.44672 108.17304,158.56133 111.4748,158.56133 C 114.91903,158.56133 118.61348,158.05095 118.97931,147.7848 C 120.64012,150.62553 122.83873,152.8274 126.58595,152.80806 C 134.1962,152.76879 134.34627,141.15192 127.73411,140.32169 C 125.14646,139.99678 122.99791,142.47451 122.99791,142.47451 C 124.44205,140.02115 125.71022,136.44764 129.3515,135.50819 C 134.80989,134.09993 130.98923,126.77765 130.53279,126.45162 C 140.16159,128.17689 139.67083,123.35422 140.77065,119.56075 C 137.74506,119.89328 134.87653,120.63547 131.5172,120.34828 C 131.5172,120.34828 132.20798,120.34209 135.94898,119.4048 C 144.17578,117.3436 140.91993,112.27915 142.84571,108.6416 C 140.72486,111.01268 138.54903,112.33885 135.35197,111.8942 C 133.04876,111.57386 130.97535,112.08927 129.14891,114.6387 C 126.95777,107.89459 123.85011,105.7051 119.49083,111.48491 C 114.91267,117.55492 111.14931,113.73793 107.35407,111.73515 C 108.45814,99.226383 104.91414,100.1454 103.35019,95.344263 C 106.26577,96.8921 108.14571,99.453026 113.77757,99.453026 C 124.80689,99.453026 129.40485,89.192369 129.40485,81.906605 C 129.40485,75.399687 127.54735,68.720698 124.19576,61.07023 C 119.42297,50.175665 119.29279,43.916806 118.98667,37.218064 C 118.77446,32.574281 122.24623,26.636225 126.466,26.636225 C 130.06212,26.636225 130.17927,28.525224 131.5157,30.98859 L 136.42105,30.521394 C 137.55334,24.755765 132.9002,20.699009 126.49953,21.072317 C 113.83793,21.803895 114.41767,31.261068 113.50704,37.844429 C 113.66225,46.656769 116.80822,55.171439 119.62707,64.819139 C 122.81744,75.738422 123.82884,77.232662 123.82884,82.244156 C 123.82884,87.555126 117.74282,95.129837 111.59425,92.872181 C 102.25884,89.444369 101.17305,81.653376 100.47191,73.593438 L 96.781286,64.688156 L 76.024576,64.688156 L 68.572848,71.656675 z M 52.549882,85.194785 C 54.017621,85.78798 55.050511,86.924735 55.675893,88.570877"
           id="path2314"
           sodipodi:nodetypes="ccccccccccccccccccccsczccczcsscscccccscscccccccccccscscccsccscsccccsssssccscssscccccc" />
        <rect
           style="fill:#fbea0e;fill-opacity:1;fill-rule:evenodd;stroke:#000000;stroke-width:0.63999999;stroke-linecap:butt;stroke-linejoin:round;stroke-miterlimit:4;stroke-dasharray:none;stroke-dashoffset:0;stroke-opacity:1"
           id="rect2281"
           width="8.842783"
           height="6.3069849"
           x="129.71582"
           y="30.509045"
           rx="3.3" />
        <path
           style="fill:#fbea0e;fill-opacity:1;fill-rule:evenodd;stroke:#000000;stroke-width:0.63999999px;stroke-linecap:butt;stroke-linejoin:miter;stroke-opacity:1"
           d="M 81.05884,66.862706 C 74.626225,71.132449 70.889559,72.724868 67.745127,72.724868 C 64.609131,72.724868 61.521348,70.305236 61.759116,67.884456 C 68.092679,68.030575 69.838556,66.0593 72.430728,64.478623 C 74.983559,62.81149 78.168805,61.987576 81.626479,61.5269 L 88.324619,61.867484 L 81.05884,66.862706 z "
           id="path2271"
           sodipodi:nodetypes="czccccc" />
        <path
           style="fill:#fbea0e;fill-opacity:1;fill-rule:evenodd;stroke:#000000;stroke-width:0.63999999px;stroke-linecap:butt;stroke-linejoin:miter;stroke-opacity:1"
           d="M 80.736834,72.099434 C 81.765992,67.629833 78.433897,61.897764 89.707593,60.393687 C 93.323839,60.810953 96.942613,61.240019 101.41334,65.644863 C 103.53641,69.480942 107.21743,70.646271 111.3687,71.005439 C 113.71157,70.704557 114.99276,70.04978 116.51047,69.473845 C 115.14568,73.334172 112.36094,76.711855 107.53971,76.584813 C 103.87858,76.48834 100.8041,74.070814 98.350154,71.443037 C 96.491886,69.180083 94.388765,67.243597 90.801588,67.285855 C 85.676599,67.907009 83.32408,70.068423 80.736834,72.099434 z "
           id="path2269"
           sodipodi:nodetypes="cccccsccc" />
        <path
           style="fill:#ffffff;fill-opacity:1;fill-rule:evenodd;stroke:#000000;stroke-width:0.63999999px;stroke-linecap:butt;stroke-linejoin:miter;stroke-opacity:1"
           d="M 33.282263,72.248345 C 36.16014,71.458015 38.56041,72.578112 40.69386,74.765491 C 39.942435,76.178068 39.208098,77.604315 36.638458,77.56232 C 34.195533,75.128898 33.505583,73.571964 33.282263,72.248345 z "
           id="path2290"
           sodipodi:nodetypes="cccc" />
        <path
           style="fill:#ffffff;fill-opacity:1;fill-rule:evenodd;stroke:#000000;stroke-width:0.63999999px;stroke-linecap:butt;stroke-linejoin:miter;stroke-opacity:1"
           d="M 26.043628,87.457942 C 26.054185,85.062609 27.218047,83.223688 30.205751,82.316929 C 31.755804,83.190795 32.750623,84.619894 32.443215,87.351221 C 30.305609,88.070806 28.017981,88.137958 26.043628,87.457942 z "
           id="path2292"
           sodipodi:nodetypes="cccc" />
        <path
           style="fill:#ffffff;fill-opacity:1;fill-rule:evenodd;stroke:#000000;stroke-width:0.63999999px;stroke-linecap:butt;stroke-linejoin:miter;stroke-opacity:1"
           d="M 30.432074,100.50368 C 31.489907,99.583353 32.569986,98.671924 35.401965,98.461255 C 36.421144,95.676434 34.480626,94.712964 33.291463,93.287122 C 29.046699,95.795505 28.890637,98.176116 30.432074,100.50368 z "
           id="path2294"
           sodipodi:nodetypes="cccc" />
        <path
           style="fill:#ffffff;fill-opacity:1;fill-rule:evenodd;stroke:#000000;stroke-width:0.63999999px;stroke-linecap:butt;stroke-linejoin:miter;stroke-opacity:1"
           d="M 51.461651,96.93036 C 54.024112,97.78155 54.946915,99.247611 56.076418,100.63616 C 57.167997,97.363462 56.753009,94.844048 54.118638,93.434324 C 53.002967,94.101317 51.53062,93.995513 51.461651,96.93036 z "
           id="path2296"
           sodipodi:nodetypes="cccc" />
        <path
           style="fill:#ffffff;fill-opacity:1;fill-rule:evenodd;stroke:#000000;stroke-width:0.63999999px;stroke-linecap:butt;stroke-linejoin:miter;stroke-opacity:1"
           d="M 94.488654,140.49097 C 94.499933,138.37666 94.382917,136.21959 98.404215,135.44196 C 99.808693,135.84564 101.41,135.97376 101.49545,138.22407 C 100.30389,140.49385 98.942823,141.06846 97.476845,140.59401 C 96.6211,140.20887 95.868818,139.56507 94.488654,140.49097 z "
           id="path2306"
           sodipodi:nodetypes="ccccc" />
        <path
           style="fill:#ffffff;fill-opacity:1;fill-rule:evenodd;stroke:#000000;stroke-width:0.63999999px;stroke-linecap:butt;stroke-linejoin:miter;stroke-opacity:1"
           d="M 95.416024,152.64981 C 94.024284,150.3969 94.830868,148.34383 96.446435,146.36431 C 100.38081,144.0297 101.16238,146.8747 101.28937,150.79507 C 97.911993,149.83599 96.332857,150.87496 95.416024,152.64981 z "
           id="path2308"
           sodipodi:nodetypes="cccc" />
        <path
           style="fill:#ffffff;fill-opacity:1;fill-rule:evenodd;stroke:#000000;stroke-width:0.63999999px;stroke-linecap:butt;stroke-linejoin:miter;stroke-opacity:1"
           d="M 103.44587,161.49663 C 100.7545,159.39836 100.85836,156.45502 104.49468,152.44373 C 106.69559,152.33678 108.23288,153.60812 108.52432,157.46698 C 105.31913,158.16204 104.72813,159.97746 103.44587,161.49663 z "
           id="path2310"
           sodipodi:nodetypes="cccc" />
        <path
           style="fill:#ffffff;fill-opacity:1;fill-rule:evenodd;stroke:#000000;stroke-width:0.63999999px;stroke-linecap:butt;stroke-linejoin:miter;stroke-opacity:1"
           d="M 132.51081,148.57969 C 134.58778,147.68788 136.59912,147.97752 138.53871,149.55858 C 138.09196,145.88651 137.03118,142.72613 132.51081,142.44875 C 130.51056,144.1021 128.97184,145.84551 132.51081,148.57969 z "
           id="path2312"
           sodipodi:nodetypes="cccc" />
        <path
           style="fill:none;fill-opacity:0.75;fill-rule:evenodd;stroke:#000000;stroke-width:0.63999999px;stroke-linecap:butt;stroke-linejoin:miter;stroke-opacity:1"
           d="M 56.374995,85.478731 C 56.374995,85.478731 56.884057,83.660652 57.480387,83.442483 C 58.076717,83.224313 58.236707,84.606053 58.760314,84.606053 C 59.283921,84.606053 59.138475,83.718831 59.574814,83.442483 C 60.011153,83.166135 59.996608,83.777009 60.50567,83.500661 C 61.014732,83.224313 61.102,82.613439 61.611062,82.337091 C 62.120124,82.060743 61.800143,82.642528 62.541919,82.395269 C 63.283695,82.14801 64.578167,81.348056 64.578167,81.348056"
           id="path2339"
           sodipodi:nodetypes="cssssssc" />
        <path
           style="fill:#fbea0e;fill-opacity:1;fill-rule:evenodd;stroke:#000000;stroke-width:0.63999999px;stroke-linecap:butt;stroke-linejoin:miter;stroke-opacity:1"
           d="M 79.542857,28.592208 L 84.52987,28.592208 C 84.52987,28.592208 82.036363,26.597403 80.78961,26.597403 C 79.542857,26.597403 79.542857,28.592208 79.542857,28.592208 z "
           id="path2345"
           sodipodi:nodetypes="ccsc" />
        <path
           style="fill:none;fill-opacity:0.75;fill-rule:evenodd;stroke:#000000;stroke-width:0.64000016px;stroke-linecap:square;stroke-linejoin:miter;stroke-opacity:1"
           d="M 85.038986,9.3695902 L 85.038986,14.359925"
           id="path2384" />
        <path
           sodipodi:type="arc"
           style="fill:#fbea0e;fill-opacity:1;fill-rule:evenodd;stroke:#000000;stroke-width:0.63999999;stroke-linecap:butt;stroke-linejoin:round;stroke-miterlimit:4;stroke-dasharray:none;stroke-dashoffset:0;stroke-opacity:1"
           id="path2382"
           sodipodi:cx="85.038986"
           sodipodi:cy="14.568515"
           sodipodi:rx="1.5306116"
           sodipodi:ry="1.5306116"
           d="M 86.569598 14.568515 A 1.5306116 1.5306116 0 1 1  83.508375,14.568515 A 1.5306116 1.5306116 0 1 1  86.569598 14.568515 z" />
        <g
           id="g2372">
          <path
             sodipodi:nodetypes="csccc"
             id="path2357"
             d="M 82.547518,14.498321 C 79.236088,12.957811 76.28855,14.912889 76.28855,17.686852 C 76.28855,19.181721 76.615727,20.618028 78.414237,22.410601 L 82.429424,22.410601 L 82.547518,14.498321 z "
             style="fill:#fbea0e;fill-opacity:1;fill-rule:evenodd;stroke:#000000;stroke-width:0.63999999px;stroke-linecap:butt;stroke-linejoin:miter;stroke-opacity:1" />
          <path
             sodipodi:nodetypes="ccscc"
             id="path2355"
             d="M 84.873613,22.978764 L 84.873613,15.680368 C 82.951476,13.63766 80.152367,15.384264 80.152367,18.826228 C 80.152367,20.852291 82.229715,22.978764 82.229715,22.978764 L 84.873613,22.978764 z "
             style="fill:#fbea0e;fill-opacity:1;fill-rule:evenodd;stroke:#000000;stroke-width:1.27999973;stroke-linecap:butt;stroke-linejoin:miter;stroke-miterlimit:4;stroke-dasharray:none;stroke-opacity:1" />
        </g>
        <g
           id="g2376"
           transform="matrix(-1,0,0,1,170.1622,0)">
          <path
             style="fill:#fbea0e;fill-opacity:1;fill-rule:evenodd;stroke:#000000;stroke-width:0.63999999px;stroke-linecap:butt;stroke-linejoin:miter;stroke-opacity:1"
             d="M 82.547518,14.498321 C 79.236088,12.957811 76.28855,14.912889 76.28855,17.686852 C 76.28855,19.181721 76.615727,20.618028 78.414237,22.410601 L 82.429424,22.410601 L 82.547518,14.498321 z "
             id="path2378"
             sodipodi:nodetypes="csccc" />
          <path
             style="fill:#fbea0e;fill-opacity:1;fill-rule:evenodd;stroke:#000000;stroke-width:1.27999973;stroke-linecap:butt;stroke-linejoin:miter;stroke-miterlimit:4;stroke-dasharray:none;stroke-opacity:1"
             d="M 84.873613,22.978764 L 84.873613,15.680368 C 82.951476,13.63766 80.152367,15.384264 80.152367,18.826228 C 80.152367,20.852291 82.229715,22.978764 82.229715,22.978764 L 84.873613,22.978764 z "
             id="path2380"
             sodipodi:nodetypes="ccscc" />
        </g>
        <rect
           style="fill:#fbea0e;fill-opacity:1;fill-rule:evenodd;stroke:#000000;stroke-width:0.63999999;stroke-linecap:butt;stroke-linejoin:round;stroke-miterlimit:4;stroke-dasharray:none;stroke-dashoffset:0;stroke-opacity:1"
           id="rect2353"
           width="12.872217"
           height="2.0075953"
           x="78.532326"
           y="22.410601" />
        <path
           style="fill:none;fill-opacity:0.75;fill-rule:evenodd;stroke:#000000;stroke-width:0.63999987px;stroke-linecap:square;stroke-linejoin:miter;stroke-opacity:1"
           d="M 83.496753,10.470106 L 86.581219,10.470106"
           id="path2386" />
        <path
           style="fill:#ffffff;fill-opacity:1;fill-rule:evenodd;stroke:#000000;stroke-width:0.63999999px;stroke-linecap:butt;stroke-linejoin:miter;stroke-opacity:1"
           d="M 30.473717,49.782972 C 31.253409,51.837532 31.643874,53.618172 34.715797,55.063929 C 36.40901,55.860815 38.525011,54.54449 38.525011,54.54449 C 38.779305,51.98284 38.048985,48.889522 34.715797,50.821849 C 32.464275,52.12711 31.772313,50.552238 30.473717,49.782972 z "
           id="path2392"
           sodipodi:nodetypes="cscsc" />
        <path
           style="fill:#ffffff;fill-opacity:1;fill-rule:evenodd;stroke:#000000;stroke-width:0.63999999px;stroke-linecap:butt;stroke-linejoin:miter;stroke-opacity:1"
           d="M 27.01778,36.694847 C 26.907305,36.070471 32.039093,34.590755 33.669935,36.741626 C 34.663084,39.153578 35.17963,41.314687 32.62245,41.858045 C 30.615016,42.500606 28.030628,37.416229 27.01778,36.694847 z "
           id="path2394"
           sodipodi:nodetypes="cccc" />
        <path
           style="fill:#ffffff;fill-opacity:1;fill-rule:evenodd;stroke:#000000;stroke-width:0.63999999px;stroke-linecap:butt;stroke-linejoin:miter;stroke-opacity:1"
           d="M 37.486135,27.36055 C 40.009691,25.683802 42.464692,25.858002 44.758272,30.390607 C 42.764707,32.09428 40.923811,32.805609 39.390742,31.516057 C 39.688695,29.864367 38.795317,28.553058 37.486135,27.36055 z "
           id="path2396"
           sodipodi:nodetypes="cccc" />
        <path
           style="fill:#ffffff;fill-opacity:1;fill-rule:evenodd;stroke:#000000;stroke-width:0.63999999px;stroke-linecap:butt;stroke-linejoin:miter;stroke-opacity:1"
           d="M 50.298948,33.680383 C 50.298948,33.680383 51.186322,32.554933 51.251251,30.996618 C 51.316181,29.438303 50.558667,27.447123 50.558667,27.447123 C 53.839399,27.856873 55.06492,29.899639 54.194736,35.152125 C 51.440825,35.230484 51.301817,34.477544 50.298948,33.680383 z "
           id="path2398"
           sodipodi:nodetypes="csccc" />
        <path
           style="fill:none;fill-opacity:0.75;fill-rule:evenodd;stroke:#000000;stroke-width:0.63999999px;stroke-linecap:butt;stroke-linejoin:miter;stroke-opacity:1"
           d="M 41.51133,38.382746 C 41.226167,36.855187 40.135268,36.133364 39.154791,35.301119"
           id="path2404"
           sodipodi:nodetypes="cc" />
        <path
           style="fill:none;fill-opacity:0.75;fill-rule:evenodd;stroke:#000000;stroke-width:0.63999999px;stroke-linecap:butt;stroke-linejoin:miter;stroke-opacity:1"
           d="M 48.399672,38.382746 C 49.700614,37.471802 50.744991,36.355607 50.846847,34.485394"
           id="path2406"
           sodipodi:nodetypes="cc" />
        <path
           style="fill:none;fill-opacity:0.75;fill-rule:evenodd;stroke:#000000;stroke-width:0.63999999px;stroke-linecap:butt;stroke-linejoin:miter;stroke-opacity:1"
           d="M 38.157794,46.902539 C 38.71921,46.276886 39.19918,45.61051 40.695605,45.452361"
           id="path2408"
           sodipodi:nodetypes="cc" />
        <path
           style="fill:none;fill-opacity:0.75;fill-rule:evenodd;stroke:#000000;stroke-width:0.63999999px;stroke-linecap:butt;stroke-linejoin:miter;stroke-opacity:1"
           d="M 46.586951,51.253071 L 46.405678,48.443352"
           id="path2410" />
        <path
           style="fill:#ffffff;fill-opacity:1;fill-rule:evenodd;stroke:#000000;stroke-width:0.63999999px;stroke-linecap:butt;stroke-linejoin:miter;stroke-opacity:1"
           d="M 60.499824,157.43386 C 60.878737,155.28125 61.624421,153.46207 64.562586,153.63606 C 65.646532,154.76871 66.665414,155.92738 66.593967,157.52218 C 66.299989,158.90572 65.745851,160.38682 63.591056,162.46816 C 63.754993,158.66678 62.447893,157.48057 60.499824,157.43386 z "
           id="path2304"
           sodipodi:nodetypes="ccccc" />
        <path
           style="fill:#ffffff;fill-opacity:1;fill-rule:evenodd;stroke:#000000;stroke-width:0.63999999px;stroke-linecap:butt;stroke-linejoin:miter;stroke-opacity:1"
           d="M 40.362656,155.4908 C 40.405638,153.52913 40.329424,151.47211 42.659,151.33972 C 45.581265,152.11061 45.218257,153.70282 44.425418,155.40248 C 43.071164,155.7457 41.71691,155.6045 40.362656,155.4908 z "
           id="path2302"
           sodipodi:nodetypes="cccc" />
        <path
           style="fill:#ffffff;fill-opacity:1;fill-rule:evenodd;stroke:#000000;stroke-width:0.63999999px;stroke-linecap:butt;stroke-linejoin:miter;stroke-opacity:1"
           d="M 32.375134,148.46377 C 31.80947,145.21964 33.23957,143.37255 36.057012,142.49659 C 39.883522,144.23173 40.185384,145.96686 37.580548,147.702 C 36.436815,146.62526 34.86874,146.50329 32.375134,148.46377 z "
           id="path2300"
           sodipodi:nodetypes="cccc" />
        <path
           style="fill:#ffffff;fill-opacity:1;fill-rule:evenodd;stroke:#000000;stroke-width:0.63999999px;stroke-linecap:butt;stroke-linejoin:miter;stroke-opacity:1"
           d="M 38.342315,132.46665 C 41.399157,129.99034 43.376038,131.4739 45.452149,132.59361 C 45.315668,134.36631 45.299856,136.19934 42.532039,136.65637 C 41.135464,134.88805 39.73889,133.55928 38.342315,132.46665 z "
           id="path2298"
           sodipodi:nodetypes="cccc" />
        <path
           style="fill:#fbea0e;fill-opacity:1;fill-rule:evenodd;stroke:#000000;stroke-width:0.63999999px;stroke-linecap:butt;stroke-linejoin:miter;stroke-opacity:1"
           d="M 79.047215,90.928218 C 82.689615,90.980123 85.229499,92.922055 85.582963,98.612137 C 84.822677,102.07507 84.489228,106.24939 84.434791,110.88874 C 81.288672,108.93025 78.469894,106.82068 78.340648,103.46979 C 78.34079,101.65635 79.018251,100.2493 80.195387,99.142062 C 80.992128,98.623807 82.936294,97.687468 82.039643,96.3572 C 79.392108,92.429335 79.175767,93.238084 79.047215,90.928218 z "
           id="path2285"
           sodipodi:nodetypes="cccccsc" />
        <path
           style="fill:none;fill-opacity:0.75;fill-rule:evenodd;stroke:#000000;stroke-width:0.63999999px;stroke-linecap:butt;stroke-linejoin:miter;stroke-opacity:1"
           d="M 85.4163,141.29268 C 83.508612,137.99912 80.659508,136.85503 77.431613,136.36691"
           id="path5769"
           sodipodi:nodetypes="cc" />
        <path
           style="fill:none;fill-opacity:0.75;fill-rule:evenodd;stroke:#000000;stroke-width:0.63999999px;stroke-linecap:butt;stroke-linejoin:miter;stroke-opacity:1"
           d="M 46.846414,141.58072 C 45.926675,141.04245 44.739136,140.44467 41.992263,139.50037"
           id="path5771"
           sodipodi:nodetypes="cc" />
        <path
           style="fill:none;fill-opacity:0.75;fill-rule:evenodd;stroke:#000000;stroke-width:0.63999999px;stroke-linecap:butt;stroke-linejoin:miter;stroke-opacity:1"
           d="M 48.541514,144.43157 C 44.531129,144.33803 41.008968,144.86586 41.452912,150.44147"
           id="path5773"
           sodipodi:nodetypes="cc" />
        <path
           style="fill:none;fill-opacity:0.75;fill-rule:evenodd;stroke:#000000;stroke-width:0.63999999px;stroke-linecap:butt;stroke-linejoin:miter;stroke-opacity:1"
           d="M 55.476017,148.43817 C 53.914533,150.20008 52.718504,152.14471 54.397316,155.52677"
           id="path5775"
           sodipodi:nodetypes="cc" />
        <path
           sodipodi:type="arc"
           style="fill:#000000;fill-opacity:1;fill-rule:evenodd;stroke:none;stroke-width:1;stroke-linecap:butt;stroke-linejoin:round;stroke-miterlimit:4;stroke-dasharray:none;stroke-dashoffset:0;stroke-opacity:1"
           id="path1385"
           sodipodi:cx="80.409058"
           sodipodi:cy="27.602955"
           sodipodi:rx="0.8830452"
           sodipodi:ry="0.8830452"
           d="M 81.292103 27.602955 A 0.8830452 0.8830452 0 1 1  79.526012,27.602955 A 0.8830452 0.8830452 0 1 1  81.292103 27.602955 z" />
      </g>
    </g>
  </g>
</svg>
