<?xml version="1.0" encoding="utf-8"?>
<!-- Generator: Adobe Illustrator 19.0.1, SVG Export Plug-In . SVG Version: 6.00 Build 0)  -->
<svg version="1.1" id="Layer_1" xmlns="http://www.w3.org/2000/svg" xmlns:xlink="http://www.w3.org/1999/xlink" x="0px" y="0px"
	 viewBox="0 0 576 360" style="enable-background:new 0 0 576 360;" xml:space="preserve">
<style type="text/css">
	.st0{fill:#156734;}
	.st1{fill:#CB2027;}
	.st2{fill:#E5BF59;}
	.st3{fill:#FFFFFF;}
	.st4{fill:#292929;}
	.st5{fill:#2A2A2A;}
	.st6{fill:#2B2C2B;}
	.st7{fill:#E5BE57;}
</style>
<g>
	<rect class="st0" width="576" height="360"/>
	<rect y="143.7" class="st1" width="576" height="72.6"/>
	<g id="g32" transform="translate(414.6963,244.2334)">
		<path id="path34" class="st2" d="M-126.8-176.5c38.9,0,70.5,46.9,70.5,104.8c0,57.9-31.5,104.8-70.5,104.8
			c-38.9,0-70.5-46.9-70.5-104.8C-197.2-129.6-165.7-176.5-126.8-176.5"/>
	</g>
	<g id="g36" transform="translate(414.6963,241.3389)">
		<path id="path38" class="st1" d="M-126.8-170.4c37.3,0,67.6,45.5,67.6,101.6c0,56.1-30.3,101.6-67.6,101.6
			c-37.3,0-67.6-45.5-67.6-101.6C-194.4-124.9-164.1-170.4-126.8-170.4"/>
	</g>
	<g id="g40" transform="translate(416.4697,233.3047)">
		<path id="path42" class="st2" d="M-126.6-153.6l4.1,13.8l13.4,0l-10.9,8.5l4.2,13.8l-10.8-8.5l-10.8,8.5l4.2-13.8l-10.9-8.5
			l13.4,0L-126.6-153.6z"/>
	</g>
	<g id="g44" transform="translate(416.4697,229.3877)">
		<path id="path46" class="st3" d="M-126.6-145.4l-3.2,10.8l-10.5,0l8.5,6.7l-3.3,10.8l8.5-6.7l8.5,6.7l-3.3-10.8l8.5-6.7l-10.5,0
			L-126.6-145.4z"/>
	</g>
	<g id="g48" transform="translate(387.2432,208.2656)">
		<path id="path50" class="st2" d="M-129.4-101.1c10.4,8,16.4,17.5,15.8,29c1.9,4.6,3.5,9.3,5.8,13.7c1.1,2.1,1.9,1.1,2.2-0.8
			c0.8-5.7,1.6-11.4,2.4-17.2c-1.1-3-2.2-6-3.3-9c3,0.7,6.3,1.2,10.4,0.7c2.6-0.3,5.3-0.4,4.9,3.5c7.3-0.8,7.9,3.9,6.1,10.4
			c-1.7-0.8-2.8-5.4-5.9-1.6c0.5,4.2,1.1,8.4,1.6,12.6c0.4,2.8,2.1,5.4,4,1.9c2.3-5.6,4.7-11.1,7-16.7c-1.7-4-1.8-9.3,13.1-26.9
			c-0.8,18-3.9,28.2-9.8,29.5c-2.6,6.1-5.3,12.1-7.9,18.2c2.8,2.5,6.3,1.7,11.3-7.2c2.1-3.7,4-7.6,5.2-12c1.2-2.6,2.7-4.7,7.6,0.6
			c7.5,11,9.2,41.9,2.7,43.9c-1.3,16.3-2.7,32.6-4,48.9c-1.5-1.9-3-3.8-4.5-5.7c-3.1-1.5-5.3-4.2-7-7.3C-76,4.2-76.6,1.1-77.5-2
			c-0.4-1.4-1.4-2.7-2.7-4.1c-2.2-1.3-3.2-0.3-3.5,1.9c5.2,11.6,10.5,23.1,15.7,34.7c-0.2,1.4-0.8,2.1-2.5,1.4
			c-0.5-1.7-1.1-3.4-1.6-5.2c-2.2-3-3.7-6-4.9-9.1c-0.8-0.9-1.6-1.8-2.4-2.7c-1.1,0.5-2.2,1-3.3,1.5c0.9,2.2,1.9,4.5,2.8,6.7
			c1.2,0.3,2.5-0.1,3.4,2.6l-1.3,2.1c-0.2,0.4-0.8-2.3-1.7-2.3c-0.7,0-1.5,3.1-1.5,3l-0.5-2.5c-1.5-1.3-2.2-0.4-2.4,1.9
			c-1.1-0.9-1.3-2-1.3-3c0.5-1.1,1.2-2,3.2-1.6c-0.7-2.2-1.3-4.3-2-6.5c-0.5,0.5-1,1.1-1.5,1.6c-0.4-0.1-0.9-0.1-1.3-0.2
			c-0.6,1.1-1.3,2.3-1.9,3.4c-1.1-0.5-2.2-0.9-3.3-1.4h-1c-0.9,0.8-1.8,1.5-2.7,2.3c-1.1-0.8-2.2-1.7-3.3-2.5
			c-1.2,1-2.4,2.1-3.7,3.1c-1.6-2-3.4-3.5-5.4-3.9c-0.6,1.9-1.2,3.8-1.8,5.7c0.7,0.1,1.3,0.2,2,0.3c1.9,0.3,1,2.4,0.4,3.5
			c-0.6-2.4-1.5-2.6-2.5-1.7c-0.1,1.1-0.1,2.2-0.2,3.3c-1.6,0.3-1.7-1-1.9-2.3c-1.7,0.7-1.5,1.9-1.3,3.1c-2.1-0.6-2.4-1.9-2.2-3.5
			c0.2-1.2,1.4-1.6,3.2-1.7c0.7-2.5,1.5-5,2.2-7.5c-0.7-0.5-1.5-0.4-2.3,0.1c-0.4-0.3-0.8-0.7-1.2-1c-0.6,0.5-1.2,1.1-1.8,1.6
			c-1.9,4.5-5.9,10.7-5.6,13.5c-1.4,3-3.5,1.9-3.2-0.9c0.9-1.8,1.8-3.7,2.7-5.5c1.1-2.6,2.3-5.1,3.4-7.7c1.5-4,3.1-8,4.6-12
			c1.3-2.7,2.7-5.4,4-8.1c0.4-1.4-1.3-1.3-2.3-0.7c-2.4,1.5-3.3,3.7-4.4,5.8c-2.4,4-4.7,8-7.1,12.1c-1.4,1.4-2.8,2.7-4.2,4.1
			c-1.2,0.3-1.4,1.4-1.9,2.3c-1.6,2.2-3.4,3.8-5.4,4.5c-0.6-6-1.2-12.1-1.8-18.1c-0.4-5.1-0.7-10.1-1.1-15.2
			c-0.6-5.7-1.1-11.4-1.7-17c-3.1-4.7-4.4-9.9-2.9-15.8c0.7-6,1.4-12.1,2.1-18.1c0.2-1.7,0.3-3.3,0.5-5c1.5-2.8,2.9-5.5,4.4-8.3
			c1.7-3.3,3.6-6.4,7-3.1c1.9,6.9,4.5,13.8,11.2,21.1c4.8,1.8,6.7,0.7,6-2.7c-2-4.7-4-9.5-6-14.2C-123.9-74.7-128-83.4-129.4-101.1"
			/>
	</g>
	<g id="g52" transform="translate(443.3887,201.5762)">
		<path id="path54" class="st4" d="M-124-87.1L-124-87.1c0.5,0.3,0.8,0.9,0.5,1.5l-7.5,17.1c-0.2,0.5-0.9,0.8-1.4,0.5
			c-0.5-0.3-0.8-0.9-0.5-1.5l7.5-17.1C-125.1-87.1-124.5-87.3-124-87.1"/>
	</g>
	<g id="g56" transform="translate(390.1484,201.2051)">
		<path id="path58" class="st4" d="M-129.1-86.3L-129.1-86.3c-0.5,0.3-0.7,1-0.4,1.5l8.3,16.7c0.3,0.5,0.9,0.7,1.4,0.4
			c0.5-0.3,0.7-1,0.4-1.5l-8.3-16.7C-128-86.4-128.6-86.6-129.1-86.3"/>
	</g>
	<g id="g60" transform="translate(414.7236,183.7666)">
		<path id="path62" class="st2" d="M-126.8-49.7c0.4,0,0.7,0.6,0.7,1.4c0,0.8-0.3,1.4-0.7,1.4c-0.4,0-0.7-0.6-0.7-1.4
			C-127.4-49.1-127.1-49.7-126.8-49.7"/>
	</g>
	<g id="g64" transform="translate(418.6611,183.8301)">
		<path id="path66" class="st2" d="M-126.4-49.9c0.4,0,0.7,0.6,0.7,1.4c0,0.8-0.3,1.4-0.7,1.4c-0.4,0-0.7-0.6-0.7-1.4
			C-127.1-49.3-126.8-49.9-126.4-49.9"/>
	</g>
	<g id="g68" transform="translate(412.791,183.1768)">
		<path id="path70" class="st4" d="M-127-48.5l2.2,3.7l1.5-4l2.6,3.6l1.9-4.5l1,1.2l-1.2,3.9l1.2,2.8l-0.9-0.3l-0.1,2.1l-0.7,1.1
			l-0.3-3.2l-1.7,2.2l2.1,3l2-4.2h0.8l-1,3.7l-0.1,3.5l-1,1.6l-0.2-2.3l-0.9-0.8l-0.5,3.2l1.3,2.2l2.5-4.1l1,1l-2.5,4.6l-1.2,0.1
			l-1.9-2l-1.8,2.1l-1.8-2l-2.6,3l-3.4-3.6l1-1.6l2.2,3.2l1.4-1.6l-0.1-3.7l-0.7-0.4l-0.2,2.8l-1,0.8l-0.2-5.2l-1-2l0.8-1.2l2.2,3.5
			l1.8-2.5l-1-2.1l-0.2,1.7l-1,1l-0.1-3.6l-0.9-0.1l1-1.1v-1.3l-1.2-2.3L-127-48.5z"/>
	</g>
	<g id="g72" transform="translate(414.7607,178.1396)">
		<path id="path74" class="st2" d="M-126.8-37.9c0.2-0.6,0.8-1,1.2-1.1c0.3,0.8,0.2,1.7,0.5,2.5c0.2-0.8,0.5-1.8,0.6-2.6
			c0.7,0.1,1.3,0.4,1.3,1.6c-0.4,1.2-1,2.3-1.9,3.3C-125.8-35.6-126.3-36.8-126.8-37.9"/>
	</g>
	<g id="g76" transform="translate(416.9443,173.5703)">
		<path id="path78" class="st2" d="M-126.6-28.4c0.6,0.5,1.2,1.1,1.8,1.6c-0.5,2-0.4,4-2.5,6.1c-1.8-1.2-2.2-3-2.5-4.8
			c0.6-0.8,1.3-1.7,1.9-2.5c-0.1,1.4-0.1,2.7,0.6,4.1C-126.3-25.4-126.4-26.9-126.6-28.4"/>
	</g>
	<g id="g80" transform="translate(416.1455,119.624)">
		<path id="path82" class="st4" d="M-126.6,84.7L-126.6,84.7c0.5,0.1,0.8,0.6,0.8,1.2l-2,21.9c0,0.5-0.4,0.8-0.9,0.7
			c-0.5-0.1-0.8-0.6-0.8-1.2l2-21.9C-127.4,84.9-127.1,84.6-126.6,84.7"/>
	</g>
	<g id="g84" transform="translate(409.1436,119.1436)">
		<path id="path86" class="st5" d="M-127.3,85.7l1.1,0.8l-7.6,19.6l-1.2-0.9L-127.3,85.7z"/>
	</g>
	<g id="g88" transform="translate(412.6123,118.168)">
		<path id="path90" class="st6" d="M-127,87.8l1.2,0.6l-4.2,20.8l-1.3-0.7L-127,87.8z"/>
	</g>
	<g id="g92" transform="translate(418.8906,119.6475)">
		<path id="path94" class="st4" d="M-126.4,84.7L-126.4,84.7c-0.5,0.1-0.8,0.6-0.8,1.2l2,21.9c0,0.5,0.4,0.8,0.9,0.7
			c0.5-0.1,0.8-0.6,0.8-1.2l-2-21.9C-125.6,84.9-125.9,84.5-126.4,84.7"/>
	</g>
	<g id="g96" transform="translate(425.834,121.333)">
		<path id="path98" class="st4" d="M-125.7,81.1l-1.1,0.8l7.6,19.6l1.2-0.9L-125.7,81.1z"/>
	</g>
	<g id="g100" transform="translate(421.8047,118.9551)">
		<path id="path102" class="st4" d="M-126.1,86.1l-1.2,0.6l5.5,20l1.3-0.7L-126.1,86.1z"/>
	</g>
	<g id="g104" transform="translate(405.9287,103.1934)">
		<path id="path106" class="st4" d="M-127.6,119.1c1.9-4,3.7-2.1,2.8,1.3c-0.2-1.1-0.7-1.1-1.4-0.6
			C-126.3,118.9-126.8,118.7-127.6,119.1"/>
	</g>
	<g id="g108" transform="translate(407.6094,108.4131)">
		<path id="path110" class="st4" d="M-127.4,108.2c1.6-3.3,3.1-1.7,2.3,1.1c-0.2-0.9-0.6-0.9-1.2-0.5
			C-126.4,108-126.8,107.9-127.4,108.2"/>
	</g>
	<g id="g112" transform="translate(409.1582,114.1338)">
		<path id="path114" class="st4" d="M-127.3,96.2c1.5-3,2.8-1.6,2.1,1c-0.2-0.8-0.6-0.8-1.1-0.4C-126.3,96.1-126.7,95.9-127.3,96.2"
			/>
	</g>
	<g id="g116" transform="translate(429.4023,104.9453)">
		<path id="path118" class="st4" d="M-125.4,115.5c-1.9-4-3.7-2.1-2.8,1.3c0.2-1.1,0.7-1.1,1.4-0.6
			C-126.7,115.3-126.2,115.1-125.4,115.5"/>
	</g>
	<g id="g120" transform="translate(427.7207,110.1641)">
		<path id="path122" class="st4" d="M-125.5,104.5c-1.6-3.3-3.1-1.7-2.3,1.1c0.2-0.9,0.6-0.9,1.2-0.5
			C-126.6,104.4-126.2,104.2-125.5,104.5"/>
	</g>
	<g id="g124" transform="translate(426.1709,115.8848)">
		<path id="path126" class="st4" d="M-125.7,92.5c-1.4-3-2.8-1.6-2.1,1c0.2-0.8,0.6-0.8,1.1-0.4C-126.6,92.4-126.3,92.2-125.7,92.5"
			/>
	</g>
	<g id="g128" transform="translate(402.6094,159.8486)">
		<path id="path130" class="st4" d="M-127.9,0.4c-1.8-0.3-3.6-1.5-5.3-2.5c-6.4-4.7-8.6-11-10.6-17.4c-2.5-4.6-5.1-0.7-6.7,2.1
			c-3,5.3-2.8,13.4-4.3,20.1c-0.6,5.9-0.4,12-0.3,18c0.8,3.4,2.6,5.4,6,5c1.2,14,2.4,28,3.6,42c0.6-0.6,1.3-1.1,1.9-1.7
			c-0.1-2.1-0.2-4.2-0.2-6.3c1.2-1.5,2.5-2.9,3.7-4.4c-0.1-0.8-0.1-1.5-0.2-2.3c-1.3,1.1-2.6,2.2-3.8,3.2c-0.2-2.4-0.4-4.8-0.6-7.2
			c1.1-1.3,2.2-2.7,3.4-4c-0.1-0.7-0.3-1.4-0.4-2.2c-1.2,1-2.3,1.9-3.5,2.9c-0.1-2.3-0.3-4.7-0.4-7c1.1-1.2,2.1-2.4,3.2-3.6
			c-0.2-0.6-0.4-1.3-0.5-1.9c-1,0.9-2,1.8-2.9,2.7c-0.3-3.6-0.5-7.2-0.8-10.9c0.8-0.6,1.5-1.2,2.3-1.8l1.8,1.6l3.8,35.2
			c0.6-0.6,1.2-1.3,1.8-1.9c-0.1-1.9-0.2-3.8-0.3-5.7c1.1-1.9,2.3-3.8,3.4-5.7c-0.6-0.3-1.1-0.7-1.7-1c-0.7,1.1-1.5,2.2-2.2,3.3
			l-0.5-6.5c0.9-1.2,1.7-2.4,2.6-3.5L-136,37c-0.9,0.9-1.8,1.7-2.7,2.6c-0.4-2.1-0.7-4.3-1.1-6.4c1.2-1.3,2.3-2.7,3.5-4
			c-0.5-0.4-0.9-0.8-1.4-1.2c-0.8,0.8-1.6,1.5-2.4,2.3c-0.2-1.7-0.4-3.4-0.6-5.1c1.3,0.1,2.6,0,3.8-0.6c0.7,4.9,1.3,9.7,2,14.6
			c0.6,4.1,1.2,8.3,1.8,12.4c0.5-0.7,1-1.5,1.5-2.2c-1.1-9.4-2.2-18.7-3.2-28.1c0.5-1,1.1-2,1.6-3c-6.2,6.8-9,4.9-11.3,1.5
			c-4.8,6.1-6.7,4-8.2,0.7c-0.1-1.7-0.1-3.3-0.2-5c0.9,0.4,1.8,0.7,2.7,1.1c0,1.4,0,2.8,0,4.3c1.4,1.7,0.9,1.7,2.3,0
			c0-1.7,0-3.3,0-5c0.4-0.2,0.7-0.3,1.1-0.5c1.7,1.3,3.6,1.8,6,0.6c0,1,0.1,1.9,0.1,2.9c0.1,1.5,0.8,3.8,2,2.4
			c0.7-0.9,0.4-4.1,0.3-5.3c2.2,0.7,4.2,1,4.9-2.4c-3.2,1.2-4.8-0.1-6-2.2c-3.2,4.8-5.4,3.5-7.3,0.7c-2.7,2.9-4.7,2.6-6.1-0.2
			c0-2.2,0.1-4.4,0.1-6.6c0.7,0.5,1.5,1,2.2,1.5c0.1,0.8,0.2,1.7,0.2,2.5c0.2,3.2,1.9,3.5,2.1,0.4c0.1-0.8,0.1-1.6,0.2-2.4
			c1.3-0.2,2.5-0.7,3.6-1.6c0,1.3,0,2.7,0,4c0,3,2,3.6,2.1,0.2c0-1.3,0.1-2.6,0.1-3.8c1.4,1.1,2.9,1.8,4.4,1.5
			c0.1,0.7,0,1.5,0.2,2.3c1.5,7.1,3.4-2.3,2.7-3.6c1.9-1.4,3.2-2.8,3.2-4.2C-129.8,2.6-128.1,2.9-127.9,0.4"/>
	</g>
	<g id="g132" transform="translate(385.3115,178.1084)">
		<path id="path134" class="st2" d="M-129.6-37.9c0,3,0.1,6,0.1,9.1c1.1-1.6,1.3-4.9,1.3-8.4c0.3,3.9,5,8.7,2.6,11.5
			c-2.3,2.6-4.6,2.4-6.6,0.8c-1.9-1.6-1.6-2.4-1.3-4.9C-133.1-33.4-131.7-36.1-129.6-37.9"/>
	</g>
	<g id="g136" transform="translate(380.4727,166.6465)">
		<path id="path138" class="st2" d="M-130.1-13.9c1.3,0.9,2.7,1.8,4,2.8c0.1,1.8,0.2,3.6,0.3,5.3c0.5-1.7,0.9-3.4,1.4-5.1
			c1.9-0.5,3.7-1.5,5.2-4.3c0.6,1.2,1.3,2.4,2.2,3.4c0.2,0.3-0.2,6.3,0,6.1c0.9-0.8,0.7-3,1-4.6l4.7,3.7c-0.4,6.2-6.9,6.8-9.8,2.2
			c-4,4.3-7,3-9.6-0.2C-130.4-7.7-130.3-10.8-130.1-13.9"/>
	</g>
	<g id="g140" transform="translate(432.2051,161.4785)">
		<path id="path142" class="st4" d="M-125.1-3c1.6-0.3,3.1-1.4,4.7-2.3c5.6-4.3,7.5-10.1,9.3-15.8c2.2-4.2,4.5-0.6,5.9,1.9
			c2.6,4.9,2.5,12.2,3.7,18.3c0.5,5.4,0.4,10.9,0.2,16.4c-0.7,3.1-2.2,4.9-5.3,4.6c-1.1,12.8-2.1,25.5-3.2,38.3
			c-0.6-0.5-1.1-1-1.7-1.5c0.1-1.9,0.1-3.8,0.2-5.7c-1.1-1.3-2.2-2.7-3.3-4c0.1-0.7,0.1-1.4,0.2-2.1c1.1,1,2.3,2,3.4,3
			c0.2-2.2,0.3-4.3,0.5-6.5c-1-1.2-2-2.4-3-3.6l0.4-2l3,2.6c0.1-2.1,0.2-4.3,0.3-6.4c-0.9-1.1-1.9-2.2-2.8-3.3
			c0.2-0.6,0.3-1.1,0.5-1.7c0.9,0.8,1.7,1.6,2.6,2.4c0.2-3.3,0.5-6.6,0.7-9.9c-0.7-0.6-1.3-1.1-2-1.7c-0.5,0.5-1.1,1-1.6,1.4
			c-1.1,10.7-2.2,21.4-3.4,32.1c-0.5-0.6-1.1-1.1-1.6-1.7c0.1-1.7,0.2-3.4,0.2-5.2c-1-1.7-2-3.5-3-5.2c0.5-0.3,1-0.6,1.4-0.9
			c0.7,1,1.3,2,2,3c0.1-2,0.3-4,0.4-5.9c-0.8-1.1-1.5-2.1-2.3-3.2c0.1-0.7,0.2-1.3,0.4-2c0.8,0.8,1.6,1.6,2.3,2.4
			c0.3-2,0.6-3.9,0.9-5.9c-1-1.2-2-2.4-3.1-3.6c0.4-0.4,0.8-0.7,1.2-1.1c0.7,0.7,1.4,1.4,2.1,2.1c0.2-1.5,0.3-3.1,0.5-4.6
			c-1.2,0.1-2.3,0-3.4-0.6c-0.6,4.4-1.2,8.8-1.8,13.3c-0.5,3.8-1.1,7.5-1.6,11.3c-0.4-0.7-0.9-1.4-1.3-2c0.9-8.5,1.9-17,2.8-25.6
			c-0.5-0.9-0.9-1.8-1.4-2.7c5.4,6.2,7.9,4.5,9.9,1.3c4.2,5.6,5.9,3.6,7.2,0.7c0.1-1.5,0.1-3,0.2-4.5c-0.8,0.3-1.6,0.7-2.3,1
			c0,1.3,0,2.6,0,3.9c-1.2,1.6-0.8,1.6-2,0c0-1.5,0-3,0-4.5c-0.3-0.2-0.6-0.3-0.9-0.5c-1.5,1.1-3.2,1.7-5.3,0.5
			c0,0.9-0.1,1.8-0.1,2.7c-0.1,1.3-0.7,3.5-1.7,2.2c-0.6-0.8-0.3-3.7-0.3-4.9c-1.9,0.6-3.7,0.9-4.3-2.2c2.8,1.1,4.2-0.1,5.3-2
			c2.8,4.4,4.7,3.2,6.4,0.6c2.3,2.6,4.1,2.4,5.4-0.2c0-2-0.1-4-0.1-6c-0.7,0.5-1.3,0.9-2,1.4c-0.1,0.8-0.1,1.5-0.2,2.3
			c-0.2,2.9-1.6,3.1-1.8,0.3c0-0.7-0.1-1.5-0.1-2.2c-1.1-0.2-2.2-0.6-3.2-1.5c0,1.2,0,2.4,0,3.6c0,2.7-1.8,3.3-1.8,0.2
			c0-1.2-0.1-2.3-0.1-3.5c-1.2,1-2.5,1.7-3.8,1.4c-0.1,0.7,0,1.4-0.2,2.1c-1.3,6.5-3-2.1-2.4-3.3c-1.6-1.3-2.8-2.5-2.8-3.8
			C-123.4-1-125-0.7-125.1-3"/>
	</g>
	<g id="g144" transform="translate(447.3926,178.1191)">
		<path id="path146" class="st2" d="M-123.6-37.9c0,2.8-0.1,5.5-0.1,8.3c-0.9-1.5-1.1-4.5-1.1-7.6c-0.3,3.5-4.4,8-2.3,10.5
			c2,2.4,4,2.2,5.8,0.7c1.7-1.4,1.4-2.2,1.1-4.5C-120.6-33.8-121.8-36.3-123.6-37.9"/>
	</g>
	<g id="g148" transform="translate(451.6406,167.6738)">
		<path id="path150" class="st2" d="M-123.2-16c-1.2,0.8-2.4,1.7-3.5,2.5c-0.1,1.6-0.2,3.2-0.3,4.9c-0.4-1.6-0.8-3.1-1.2-4.7
			c-1.7-0.5-3.3-1.4-4.6-3.9c-0.5,1.1-1.2,2.2-1.9,3.1c-0.2,0.3,0.1,5.7,0,5.6c-0.8-0.7-0.6-2.8-0.9-4.2l-4.1,3.3
			c0.4,5.6,6.1,6.2,8.6,2c3.5,3.9,6.2,2.8,8.5-0.2C-122.9-10.4-123-13.2-123.2-16"/>
	</g>
	<g id="g152" transform="translate(415.5537,239.4844)">
		<path id="path154" class="st2" d="M-126.7-166.5l3.2-0.1l-1.2,3.7l-3.2-0.1L-126.7-166.5z"/>
	</g>
	<g id="g156" transform="translate(419.5605,239.3047)">
		<path id="path158" class="st2" d="M-126.3-166.2l3.2,0.2l-1.5,3.6l-3.2-0.3L-126.3-166.2z"/>
	</g>
	<g id="g160" transform="translate(423.2119,238.5879)">
		<path id="path162" class="st2" d="M-125.9-164.7l3.2,0.2l-1.5,3.6l-3.2-0.3L-125.9-164.7z"/>
	</g>
	<g id="g164" transform="translate(427.252,237.5605)">
		<path id="path166" class="st2" d="M-125.6-162.5l3,0.9l-2.1,2.9l-2.8-0.5L-125.6-162.5z"/>
	</g>
	<g id="g168" transform="translate(431.0811,236.1924)">
		<path id="path170" class="st2" d="M-125.2-159.6l3,1.1l-2.3,3l-3-1.2L-125.2-159.6z"/>
	</g>
	<g id="g172" transform="translate(434.7363,234.4375)">
		<path id="path174" class="st2" d="M-124.8-156l3.2,1.6l-2.8,2.5l-2.7-1.3L-124.8-156z"/>
	</g>
	<g id="g176" transform="translate(412.0596,239.5576)">
		<path id="path178" class="st2" d="M-127-166.7l3.2-0.1l-1.2,3.7l-3.2-0.1L-127-166.7z"/>
	</g>
	<g id="g180" transform="translate(408.667,239.3594)">
		<path id="path182" class="st2" d="M-127.3-166.3l3.2-0.1l-1.2,3.7l-3.1,0.6L-127.3-166.3z"/>
	</g>
	<g id="g184" transform="translate(405.0146,238.6035)">
		<path id="path186" class="st2" d="M-127.7-164.7l3.2-0.6l-1.2,4.3l-3.1,0.6L-127.7-164.7z"/>
	</g>
	<g id="g188" transform="translate(401.2168,237.4766)">
		<path id="path190" class="st2" d="M-128.1-162.3l3.1-1l-1.1,4.2l-2.9,1.3L-128.1-162.3z"/>
	</g>
	<g id="g192" transform="translate(397.4785,236.0332)">
		<path id="path194" class="st2" d="M-128.4-159.3l3-1.3l-0.8,4.3l-2.8,1.5L-128.4-159.3z"/>
	</g>
	<g id="g196" transform="translate(393.9014,234.083)">
		<path id="path198" class="st2" d="M-128.8-155.2l2.9-1.5l-0.6,4.2l-2.8,1.8L-128.8-155.2z"/>
	</g>
	<g id="g200" transform="translate(390.3613,231.7744)">
		<path id="path202" class="st2" d="M-129.1-150.4l2.9-2l-0.5,4.4l-2.7,2L-129.1-150.4z"/>
	</g>
	<g id="g204" transform="translate(386.7842,229.168)">
		<path id="path206" class="st2" d="M-129.5-144.9l2.9-2.5l-0.2,4.5l-2.8,2.1L-129.5-144.9z"/>
	</g>
	<g id="g208" transform="translate(383.4502,226.4111)">
		<path id="path210" class="st2" d="M-129.8-139.1l2.7-2.7l0.1,4.5l-2.7,2.4L-129.8-139.1z"/>
	</g>
	<g id="g212" transform="translate(380.127,223.1436)">
		<path id="path214" class="st2" d="M-130.1-132.3l2.6-2.7l0.3,4.3l-2.6,2.4L-130.1-132.3z"/>
	</g>
	<g id="g216" transform="translate(377.1553,219.8809)">
		<path id="path218" class="st2" d="M-130.4-125.4l2.6-2.7l0.2,4.1l-2.3,2.8L-130.4-125.4z"/>
	</g>
	<g id="g220" transform="translate(438.3906,232.3652)">
		<path id="path222" class="st2" d="M-124.5-151.6l2.9,2.1l-3.1,2.1l-2.5-1.6L-124.5-151.6z"/>
	</g>
	<g id="g224" transform="translate(441.6641,229.8027)">
		<path id="path226" class="st2" d="M-124.2-146.2l2.9,2.1l-2.7,1.9l-2.5-1.6L-124.2-146.2z"/>
	</g>
	<g id="g228" transform="translate(445.2002,226.627)">
		<path id="path230" class="st2" d="M-123.8-139.6l2.6,2.5l-3,1.4l-2.2-2.1L-123.8-139.6z"/>
	</g>
	<g id="g232" transform="translate(448.2607,223.6025)">
		<path id="path234" class="st2" d="M-123.5-133.2l2.6,2.5l-3,1.4l-2.2-2.1L-123.5-133.2z"/>
	</g>
	<g id="g236" transform="translate(451.5381,220.0654)">
		<path id="path238" class="st2" d="M-123.2-125.8l2.4,2.7l-3.1,1.2l-2.1-2.2L-123.2-125.8z"/>
	</g>
	<g id="g240" transform="translate(454.1641,216.7021)">
		<path id="path242" class="st2" d="M-123-118.8l2.6,3.1l-2.7,1.4l-2.6-2.8L-123-118.8z"/>
	</g>
	<g id="g244" transform="translate(457.1016,212.7686)">
		<path id="path246" class="st2" d="M-122.7-110.5l2.1,3.5l-2.9,0.9l-2.2-3.2L-122.7-110.5z"/>
	</g>
	<g id="g248" transform="translate(459.5469,208.5098)">
		<path id="path250" class="st2" d="M-122.5-101.6l2.3,3.8l-3.1,0.6l-2.2-3.2L-122.5-101.6z"/>
	</g>
	<g id="g252" transform="translate(462.001,203.9473)">
		<path id="path254" class="st2" d="M-122.2-92l1.9,4.1l-3.1,0.2l-1.7-3.5L-122.2-92z"/>
	</g>
	<g id="g256" transform="translate(464.3027,198.9785)">
		<path id="path258" class="st2" d="M-122-81.6l1.8,4.1l-2.9,0l-1.9-3.9L-122-81.6z"/>
	</g>
	<g id="g260" transform="translate(466.3545,193.9502)">
		<path id="path262" class="st2" d="M-121.8-71.1l1.5,4.2l-2.9-0.2l-1.7-4L-121.8-71.1z"/>
	</g>
	<g id="g264" transform="translate(468.0957,188.9883)">
		<path id="path266" class="st2" d="M-121.6-60.7l1.4,4.3l-2.9-0.4l-1.5-4.1L-121.6-60.7z"/>
	</g>
	<g id="g268" transform="translate(469.6523,183.6631)">
		<path id="path270" class="st2" d="M-121.5-49.5l1.4,4.3l-2.9-0.4l-1.5-4.1L-121.5-49.5z"/>
	</g>
	<g id="g272" transform="translate(470.8867,178.2373)">
		<path id="path274" class="st2" d="M-121.4-38.2l1.4,5l-2.9-1.2l-1.3-4.5L-121.4-38.2z"/>
	</g>
	<g id="g276" transform="translate(472.0283,172.6299)">
		<path id="path278" class="st2" d="M-121.3-26.4l1,5.2l-2.8-1.5l-0.8-4.6L-121.3-26.4z"/>
	</g>
	<g id="g280" transform="translate(473.0371,167.0156)">
		<path id="path282" class="st2" d="M-121.2-14.6l0.7,5.2l-2.7-1.6l-0.6-4.7L-121.2-14.6z"/>
	</g>
	<g id="g284" transform="translate(473.6445,161.2139)">
		<path id="path286" class="st2" d="M-121.1-2.5l0.6,5.2l-2.7-1.7l-0.5-4.7L-121.1-2.5z"/>
	</g>
	<g id="g288" transform="translate(474.1611,155.3232)">
		<path id="path290" class="st2" d="M-121.1,9.9l0.2,5.1l-2.5-2l-0.5-4.7L-121.1,9.9z"/>
	</g>
	<g id="g292" transform="translate(474.3271,149.7314)">
		<path id="path294" class="st2" d="M-121,21.6l0.1,5.3l-2.6-2.3l0-5.1L-121,21.6z"/>
	</g>
	<g id="g296" transform="translate(374.1885,215.7256)">
		<path id="path298" class="st2" d="M-130.7-116.7l2.1-2.9l0.1,5.3l-1.5,2.2L-130.7-116.7z"/>
	</g>
	<g id="g300" transform="translate(371.7471,211.8809)">
		<path id="path302" class="st2" d="M-130.9-108.7l2-3.1l0.6,4.4l-2.2,3.3L-130.9-108.7z"/>
	</g>
	<g id="g304" transform="translate(369.208,207.5752)">
		<path id="path306" class="st2" d="M-131.1-99.6l2-3.1l0.6,4.4l-2.2,3.3L-131.1-99.6z"/>
	</g>
	<g id="g308" transform="translate(366.7646,203.2969)">
		<path id="path310" class="st2" d="M-131.4-90.7l1.7-3.3l1,4.3l-1.9,3.5L-131.4-90.7z"/>
	</g>
	<g id="g312" transform="translate(364.5293,198.125)">
		<path id="path314" class="st2" d="M-131.6-79.8l1.5-3.6l1.4,4.3l-1.6,3.7L-131.6-79.8z"/>
	</g>
	<g id="g316" transform="translate(362.4326,192.9141)">
		<path id="path318" class="st2" d="M-131.8-68.9l1.6-4.2l1.3,4.1l-1.3,4.2L-131.8-68.9z"/>
	</g>
	<g id="g320" transform="translate(360.668,187.7891)">
		<path id="path322" class="st2" d="M-132-58.2l1.3-4.3l1.6,3.9l-1,4.3L-132-58.2z"/>
	</g>
	<g id="g324" transform="translate(359.1191,182.5752)">
		<path id="path326" class="st2" d="M-132.1-47.2l1.3-4.3l1.6,3.9l-1,4.3L-132.1-47.2z"/>
	</g>
	<g id="g328" transform="translate(357.7998,177.0469)">
		<path id="path330" class="st2" d="M-132.2-35.7l1.1-4.4l1.8,3.8l-0.8,4.4L-132.2-35.7z"/>
	</g>
	<g id="g332" transform="translate(356.751,171.5244)">
		<path id="path334" class="st2" d="M-132.3-24.1l0.8-4.4l2.1,3.7l-0.5,4.4L-132.3-24.1z"/>
	</g>
	<g id="g336" transform="translate(355.8291,165.9131)">
		<path id="path338" class="st2" d="M-132.4-12.3l0.8-4.4l2.1,3.7l-0.5,4.4L-132.4-12.3z"/>
	</g>
	<g id="g340" transform="translate(355.2373,160.1279)">
		<path id="path342" class="st2" d="M-132.5-0.2l0.5-4.5l2.3,3.5l-0.2,4.5L-132.5-0.2z"/>
	</g>
	<g id="g344" transform="translate(354.96,154.2637)">
		<path id="path346" class="st2" d="M-132.5,12.1l0.3-4.5l2.4,3.4l0,4.5L-132.5,12.1z"/>
	</g>
	<g id="g348" transform="translate(354.9238,147.9355)">
		<path id="path350" class="st2" d="M-132.5,25.4l-0.1-5.5l2.6,3l0.2,4.7L-132.5,25.4z"/>
	</g>
	<g id="g352" transform="translate(355.1338,141.9824)">
		<path id="path354" class="st2" d="M-132.5,37.8l-0.2-5.5l2.6,3l0.3,4.7L-132.5,37.8z"/>
	</g>
	<g id="g356" transform="translate(355.3848,136.165)">
		<path id="path358" class="st2" d="M-132.5,50l-0.6-5.4l2.8,2.8l0.6,4.7L-132.5,50z"/>
	</g>
	<g id="g360" transform="translate(355.9248,130.666)">
		<path id="path362" class="st2" d="M-132.4,61.6l-0.4-5l2.8,2.1l0.8,4.7L-132.4,61.6z"/>
	</g>
	<g id="g364" transform="translate(356.7666,124.875)">
		<path id="path366" class="st2" d="M-132.3,73.7l-0.7-5l2.8,1.9l1,4.6L-132.3,73.7z"/>
	</g>
	<g id="g368" transform="translate(357.9619,119.3652)">
		<path id="path370" class="st2" d="M-132.2,85.3l-1.1-4.9l3,1.6l1.3,4.5L-132.2,85.3z"/>
	</g>
	<g id="g372" transform="translate(359.4082,113.7158)">
		<path id="path374" class="st2" d="M-132.1,97.1l-1.6-4.7l3.1,1.3l1.8,4.3L-132.1,97.1z"/>
	</g>
	<g id="g376" transform="translate(360.9199,108.3838)">
		<path id="path378" class="st2" d="M-131.9,108.3l-1.6-4.7l3.1,0.9l1.6,4.1L-131.9,108.3z"/>
	</g>
	<g id="g380" transform="translate(362.6904,103.1699)">
		<path id="path382" class="st2" d="M-131.8,119.2l-1.5-4.4l3,0.5l1.5,3.9L-131.8,119.2z"/>
	</g>
	<g id="g384" transform="translate(474.1426,143.9209)">
		<path id="path386" class="st2" d="M-121.1,33.8l0.1,5.3l-2.6-2.3l0-5.1L-121.1,33.8z"/>
	</g>
	<g id="g388" transform="translate(473.9248,138.04)">
		<path id="path390" class="st2" d="M-121.1,46.1l-0.4,5.3l-2.4-2.5l0.4-5.1L-121.1,46.1z"/>
	</g>
	<g id="g392" transform="translate(473.3105,132.1865)">
		<path id="path394" class="st2" d="M-121.1,58.4l-0.5,5.2l-2.2-3.1l0.3-4.7L-121.1,58.4z"/>
	</g>
	<g id="g396" transform="translate(472.4805,126.6143)">
		<path id="path398" class="st2" d="M-121.2,70.1l-0.5,5.2l-2.2-3.1l0.3-4.7L-121.2,70.1z"/>
	</g>
	<g id="g400" transform="translate(471.4834,120.9395)">
		<path id="path402" class="st2" d="M-121.3,82l-1,5.2l-1.9-3.4l0.8-4.6L-121.3,82z"/>
	</g>
	<g id="g404" transform="translate(470.1191,115.5664)">
		<path id="path406" class="st2" d="M-121.4,93.2l-1,5.2l-1.9-3.4l0.8-4.6L-121.4,93.2z"/>
	</g>
	<g id="g408" transform="translate(468.6309,110.2334)">
		<path id="path410" class="st2" d="M-121.6,104.4l-1.5,5l-1.5-3.5l1.2-4.5L-121.6,104.4z"/>
	</g>
	<g id="g412" transform="translate(466.8613,105.0195)">
		<path id="path414" class="st2" d="M-121.8,115.3l-1.5,5l-1.5-3.5l1.2-4.5L-121.8,115.3z"/>
	</g>
	<g id="g416" transform="translate(464.9902,100.0322)">
		<path id="path418" class="st2" d="M-121.9,125.8l-2,4.8l-1.1-3.7l1.7-4.3L-121.9,125.8z"/>
	</g>
	<g id="g420" transform="translate(462.9619,95.2578)">
		<path id="path422" class="st2" d="M-122.1,135.8l-2,4.8l-1.1-3.7l1.7-4.3L-122.1,135.8z"/>
	</g>
	<g id="g424" transform="translate(364.667,98.1748)">
		<path id="path426" class="st2" d="M-131.6,129.7l-1.8-4.3l3.1,0.2l1.8,3.7L-131.6,129.7z"/>
	</g>
	<g id="g428" transform="translate(366.9756,93.4424)">
		<path id="path430" class="st2" d="M-131.4,139.6l-2.1-4.1l3.1,0l2,3.6L-131.4,139.6z"/>
	</g>
	<g id="g432" transform="translate(394.3271,80.0049)">
		<path id="path434" class="st7" d="M-128.7,167.8l5.8-3.5l1.1,2.6l6.1,2.2l-10.7,6.8l1.7-5.1L-128.7,167.8z"/>
	</g>
	<g id="g436" transform="translate(403.001,81.1836)">
		<path id="path438" class="st7" d="M-127.9,165.3l4.1-1.6l0.1,2.9L-127.9,165.3z"/>
	</g>
	<g id="g440" transform="translate(441.8047,83.3848)">
		<path id="path442" class="st7" d="M-124.2,160.7l-6.2-2.4l-0.3,2.4l-7.3,3.9l11.7,3l-1.7-4.1L-124.2,160.7z"/>
	</g>
	<g id="g444" transform="translate(433.1465,83.4326)">
		<path id="path446" class="st7" d="M-125,160.6l-4.5-0.9l-0.2,3.7L-125,160.6z"/>
	</g>
	<g id="g448" transform="translate(399.0693,88.4424)">
		<path id="path450" class="st7" d="M-128.3,150.1h1.2c0.6,0.5,1.3,1.1,1.9,1.6c0.4-0.7,0.8-1.4,1.2-2.1c0.7,0.4,1.4,0.8,2.1,1.2
			c0.4-1,0.8-2,1.2-2.9c0.5,0.6,1,1.2,1.5,1.7c0.4-1,0.7-2,1.1-3c6.1-1.4,12.6-2.1,19.7-2c0.9,1.2,1.7,2.4,2.6,3.6
			c0.6-0.7,1.1-1.4,1.7-2.2c0.4,0.9,0.8,1.9,1.2,2.8c0.7-1,1.5-1.9,2.2-2.9c0.2,0.7,0.4,1.5,0.6,2.2c0.9-0.6,1.9-1.3,2.8-1.9
			c-0.6,2.9-1.1,5.7-1.7,8.6c-13.4-3-25.4-1.2-36.5,3C-126.5,155.3-127.4,152.7-128.3,150.1"/>
	</g>
	<g id="g452" transform="translate(460.5498,90.793)">
		<path id="path454" class="st2" d="M-122.4,145.1l-2.5,4.5l-0.8-3.8l2.1-4.1L-122.4,145.1z"/>
	</g>
	<g id="g456" transform="translate(369.4766,88.832)">
		<path id="path458" class="st2" d="M-131.1,149.3l-2.5-3.8l3.1-0.3l2.4,3.3L-131.1,149.3z"/>
	</g>
	<g id="g460" transform="translate(372.0576,84.4541)">
		<path id="path462" class="st2" d="M-130.9,158.4l-2.5-3.8l3.1-0.7l2.3,3.3L-130.9,158.4z"/>
	</g>
	<g id="g464" transform="translate(374.8877,80.2666)">
		<path id="path466" class="st2" d="M-130.6,167.2l-2.9-3.5l3-1.1l2.7,3L-130.6,167.2z"/>
	</g>
	<g id="g468" transform="translate(457.9463,85.626)">
		<path id="path470" class="st2" d="M-122.6,156l-2.2,3.8l-0.7-4.4l2-3.6L-122.6,156z"/>
	</g>
	<g id="g472" transform="translate(455.1709,81.5605)">
		<path id="path474" class="st2" d="M-122.9,164.5l-2.4,3.7l-0.5-4.4l2.1-3.5L-122.9,164.5z"/>
	</g>
	<g id="g476" transform="translate(452.2754,77.8789)">
		<path id="path478" class="st2" d="M-123.2,172.2l-2.6,3.5l-0.3-4.5l2.3-3.3L-123.2,172.2z"/>
	</g>
	<g id="g480" transform="translate(449.251,74.4961)">
		<path id="path482" class="st2" d="M-123.4,179.3l-2.6,3.5l-0.3-4.5l2.3-3.3L-123.4,179.3z"/>
	</g>
	<g id="g484" transform="translate(446.0391,70.9775)">
		<path id="path486" class="st2" d="M-123.8,186.7l-2.7,2.5l-0.2-4.2l2.8-2.8L-123.8,186.7z"/>
	</g>
	<g id="g488" transform="translate(442.7021,68.0322)">
		<path id="path490" class="st2" d="M-124.1,192.9l-2.7,2.5l-0.2-4.2l2.8-2.8L-124.1,192.9z"/>
	</g>
	<g id="g492" transform="translate(439.2207,65.6357)">
		<path id="path494" class="st2" d="M-124.4,197.9l-2.8,2.4l0-4.2l3-2.7L-124.4,197.9z"/>
	</g>
	<g id="g496" transform="translate(435.6826,63.3125)">
		<path id="path498" class="st2" d="M-124.8,202.7l-3,2.1l0.3-4.2l3.2-2.4L-124.8,202.7z"/>
	</g>
	<g id="g500" transform="translate(432.0781,61.373)">
		<path id="path502" class="st2" d="M-125.1,206.8l-3.1,2l0.5-4.1l3.3-2.2L-125.1,206.8z"/>
	</g>
	<g id="g504" transform="translate(377.6895,76.6445)">
		<path id="path506" class="st2" d="M-130.3,174.8l-2.6-3.1l2.7-1.5l2.7,3L-130.3,174.8z"/>
	</g>
	<g id="g508" transform="translate(380.8975,73.2617)">
		<path id="path510" class="st2" d="M-130,181.9l-2.6-3.1l2.7-1.5l2.4,2.7L-130,181.9z"/>
	</g>
	<g id="g512" transform="translate(383.7744,69.999)">
		<path id="path514" class="st2" d="M-129.7,188.7l-2.4-2.8l2.5-1.8l2.9,2.2L-129.7,188.7z"/>
	</g>
	<g id="g516" transform="translate(387.3955,67.3242)">
		<path id="path518" class="st2" d="M-129.4,194.3l-2.8-2.6l2.5-1.8l2.8,1.9L-129.4,194.3z"/>
	</g>
	<g id="g520" transform="translate(388.1279,66.5889)">
		<path id="path522" class="st2" d="M-129.3,195.9l2.6-2.6l2.8,1.7l-2.3,2.7L-129.3,195.9z"/>
	</g>
	<g id="g524" transform="translate(391.6348,64.0508)">
		<path id="path526" class="st2" d="M-129,201.2l2.3-2.8l3,1.4l-2.1,3L-129,201.2z"/>
	</g>
	<g id="g528" transform="translate(395.2256,61.9697)">
		<path id="path530" class="st2" d="M-128.6,205.6l2-3.1l3.1,1l-1.7,3.2L-128.6,205.6z"/>
	</g>
	<g id="g532" transform="translate(398.8389,60.3379)">
		<path id="path534" class="st2" d="M-128.3,209l2-3.1l3.3,0.7l-1.8,3.5L-128.3,209z"/>
	</g>
	<g id="g536" transform="translate(402.5088,58.8457)">
		<path id="path538" class="st2" d="M-127.9,212.1l1.9-3.4l3.3,0.2l-1.9,3.6L-127.9,212.1z"/>
	</g>
	<g id="g540" transform="translate(406.3252,57.9102)">
		<path id="path542" class="st2" d="M-127.6,214.1l1.8-3.6l3.3,0.1l-1.7,3.8L-127.6,214.1z"/>
	</g>
	<g id="g544" transform="translate(410.127,57.4463)">
		<path id="path546" class="st2" d="M-127.2,215l1.7-3.7l3.3,0l-1.6,3.8L-127.2,215z"/>
	</g>
	<g id="g548" transform="translate(414.0674,57.2197)">
		<path id="path550" class="st2" d="M-126.8,215.5l1.4-3.8l3.2-0.3l-1.3,4L-126.8,215.5z"/>
	</g>
	<g id="g552" transform="translate(417.8457,57.4834)">
		<path id="path554" class="st2" d="M-126.5,215l1.2-3.9l3.2-0.5l-1.1,4L-126.5,215z"/>
	</g>
	<g id="g556" transform="translate(421.6436,57.6426)">
		<path id="path558" class="st2" d="M-126.1,214.6l1.3-4.2l3-1.1l-1,4.4L-126.1,214.6z"/>
	</g>
	<g id="g560" transform="translate(425.5635,58.5166)">
		<path id="path562" class="st2" d="M-125.7,212.8l0.9-4.3l2.9-1.4l-0.7,4.5L-125.7,212.8z"/>
	</g>
	<g id="g564" transform="translate(416.79,162.6992)">
		<path id="path566" class="st3" d="M-126.6-5.6c11.1,0,20.1,10.2,20.1,22.9c0,12.6-9,22.9-20.1,22.9c-11.1,0-20.1-10.2-20.1-22.9
			C-146.7,4.7-137.7-5.6-126.6-5.6"/>
	</g>
	<g id="g568" transform="translate(416.79,147.9268)">
		<path id="path570" class="st2" d="M-126.6,25.4c3.3,0,5.9,3,5.9,6.7s-2.6,6.7-5.9,6.7c-3.2,0-5.9-3-5.9-6.7
			S-129.8,25.4-126.6,25.4"/>
	</g>
	<g id="g572" transform="translate(416.5898,187.3857)">
		<path id="path574" class="st4" d="M-126.6-57.3C-123.7-62-121.1-56.2-126.6-57.3"/>
	</g>
</g>
</svg>
