<svg xmlns="http://www.w3.org/2000/svg" xmlns:xlink="http://www.w3.org/1999/xlink" width="2100" height="1400" viewBox="-120 -80 560 373.33333">
  <defs>
    <path id="a" d="M-1 55.425626h2V-38c2-2 2-5 2-8 0-2 0-10-3-18.66323C-3-56-3-48-3-46c0 3 0 6 2 8z" stroke-miterlimit="10" transform="rotate(30)" style="stroke-miterlimit:10"/>
  </defs>
  <path d="M-120-80.000002h560V293.33333h-560z" style="fill:#92c5e4;fill-opacity:1;stroke:none"/>
  <path d="M-120-80.000001h240v160h-240z" style="fill:#fff;stroke:none"/>
  <path d="M-120-80.000001h240v48h-240z" style="stroke:none"/>
  <path d="M-120 31.999999h240v48h-240z" style="fill:#060;stroke:none"/>
  <use xlink:href="#a" style="stroke:#000" width="240" height="160"/>
  <use style="fill:#fff;stroke:none" xlink:href="#a" width="240" height="160"/>
  <g style="fill:#fff;stroke:none" transform="scale(-1 1)">
    <use xlink:href="#a" style="stroke:#000" width="1" height="1"/>
    <use style="fill:#fff;stroke:none" xlink:href="#a" width="1" height="1"/>
  </g>
  <path style="fill:#b00;stroke:none" d="M-120-24.000001v48h101c3 8 13 24 19 24s16-16 19-24h101v-48H19c-3-8-13-24-19-24s-16 16-19 24z"/>
  <path style="fill:#000" d="M19 23.999998c3-8 5-15.9999985 5-23.99999833C24-8.0000005 22-16.000002 19-24.000002c-3 8-5 16.0000015-5 24.00000167C14 7.9999995 16 15.999998 19 23.999998M-19 23.999998c-3-8-5-15.9999985-5-23.99999833C-24-8.0000005-22-16.000002-19-24.000002c3 8 5 16.0000015 5 24.00000167C-14 7.9999995-16 15.999998-19 23.999998"/>
  <g style="fill:#fff">
    <ellipse style="stroke:none" ry="6" rx="4"/>
    <path style="fill:#fff;stroke:none" d="M1 5.85s4 8 4 21-4 21-4 21zM-1-5.85s-4-8-4-21 4-21 4-21zM-1 5.85s-4 8-4 21 4 21 4 21zM1-5.85s4-8 4-21-4-21-4-21z"/>
  </g>
  <path style="fill:#000;stroke:none" d="M376.31475 106.66663c0 53.19313-43.12157 96.3147-96.31471 96.3147-53.19315 0-96.31471-43.12157-96.31471-96.3147 0-53.19315 43.12156-96.31469 96.31471-96.31469 53.19314 0 96.31471 43.12154 96.31471 96.31469z"/>
  <path style="fill:#fff;stroke:none" d="M347.42033 106.66663c0 37.2352-30.18508 67.42028-67.42029 67.42028-37.2352 0-67.4203-30.18508-67.4203-67.42028 0-37.2352 30.1851-67.42029 67.4203-67.42029 37.23521 0 67.42029 30.18509 67.42029 67.42029z"/>
  <path style="fill:#b00;fill-opacity:1;stroke:none" d="M342.60459 106.66663c0 34.57555-28.029 62.60455-62.60455 62.60455-34.57555 0-62.60456-28.029-62.60456-62.60455 0-34.57555 28.02901-62.60456 62.60456-62.60456s62.60455 28.02901 62.60455 62.60456z"/>
  <path style="fill:#fff;stroke:none" d="M313.71019 106.66663c0 18.6176-15.09255 33.71015-33.71015 33.71015-18.61761 0-33.71016-15.09255-33.71016-33.71015s15.09255-33.71015 33.71016-33.71015c18.6176 0 33.71015 15.09255 33.71015 33.71015z"/>
  <path style="fill:#060;fill-opacity:1;stroke:none" d="M308.89445 106.66663c0 15.95794-12.93647 28.8944-28.89441 28.8944s-28.89442-12.93646-28.89442-28.8944 12.93648-28.89441 28.89442-28.89441 28.89441 12.93647 28.89441 28.89441z"/>
</svg>
