<?xml version="1.0" encoding="UTF-8" standalone="no"?>
<!-- Created with Inkscape (http://www.inkscape.org/) -->

<svg
   xmlns:dc="http://purl.org/dc/elements/1.1/"
   xmlns:cc="http://creativecommons.org/ns#"
   xmlns:rdf="http://www.w3.org/1999/02/22-rdf-syntax-ns#"
   xmlns:svg="http://www.w3.org/2000/svg"
   xmlns="http://www.w3.org/2000/svg"
   xmlns:sodipodi="http://sodipodi.sourceforge.net/DTD/sodipodi-0.dtd"
   xmlns:inkscape="http://www.inkscape.org/namespaces/inkscape"
   width="600"
   height="400"
   id="svg2"
   sodipodi:version="0.32"
   inkscape:version="0.92.3 (2405546, 2018-03-11)"
   version="1.0"
   sodipodi:docname="Naval_Flag_of_Azerbaijan.svg">
  <defs
     id="defs4" />
  <sodipodi:namedview
     id="base"
     pagecolor="#ffffff"
     bordercolor="#666666"
     borderopacity="1.0"
     inkscape:pageopacity="0.0"
     inkscape:pageshadow="2"
     inkscape:zoom="0.80408885"
     inkscape:cx="12.062666"
     inkscape:cy="-1.7723284"
     inkscape:document-units="px"
     inkscape:current-layer="layer1"
     inkscape:window-width="1920"
     inkscape:window-height="1017"
     inkscape:window-x="-8"
     inkscape:window-y="-8"
     showguides="true"
     inkscape:guide-bbox="true"
     showgrid="false"
     fit-margin-top="0"
     fit-margin-left="0"
     fit-margin-right="0"
     fit-margin-bottom="0"
     inkscape:window-maximized="1" />
  <metadata
     id="metadata7">
    <rdf:RDF>
      <cc:Work
         rdf:about="">
        <dc:format>image/svg+xml</dc:format>
        <dc:type
           rdf:resource="http://purl.org/dc/dcmitype/StillImage" />
        <dc:title />
      </cc:Work>
    </rdf:RDF>
  </metadata>
  <g
     inkscape:label="Layer 1"
     inkscape:groupmode="layer"
     id="layer1"
     transform="translate(0,-100)">
    <rect
       style="color:#000000;display:inline;overflow:visible;visibility:visible;fill:#ffffff;fill-opacity:1;fill-rule:evenodd;stroke:none;stroke-width:4;marker:none"
       id="rect2962"
       width="600"
       height="400"
       x="-600"
       y="100"
       transform="scale(-1,1)" />
    <path
       inkscape:connector-curvature="0"
       style="color:#000000;display:inline;overflow:visible;visibility:visible;fill:#00b5e2;fill-opacity:1;fill-rule:evenodd;stroke:none;stroke-width:4;marker:none"
       d="m 0,420 v 9.01224 C 3.1859778,430.86001 12.940086,436 23.06338,436 34.460716,436 44.515676,429.94468 46.126761,428.94695 47.688985,429.91589 57.804425,436 69.234156,436 80.659059,436 90.728011,429.92021 92.297539,428.94695 93.859759,429.91589 103.9752,436 115.40493,436 c 11.42974,0 21.50116,-6.08411 23.06338,-7.05305 1.56953,0.97326 11.63846,7.05305 23.06339,7.05305 11.39732,0 21.45229,-6.05532 23.06338,-7.05305 1.56222,0.96894 11.67766,7.05305 23.10738,7.05305 11.6429,0 22.09799,-6.4135 23.32748,-7.18367 0.10661,0.0889 1.80615,1.55513 6.16197,3.39593 4.48552,1.8956 10.46692,3.78774 16.63732,3.78774 11.42972,0 21.54517,-6.08411 23.10739,-7.05305 1.56953,0.97326 11.63847,7.05305 23.06339,7.05305 11.42491,0 21.49385,-6.07979 23.06337,-7.05305 1.56222,0.96894 11.67767,7.05305 23.10739,7.05305 6.1704,0 12.1518,-1.89214 16.63732,-3.78774 4.35583,-1.8408 6.05536,-3.30696 6.16198,-3.39593 1.22948,0.77017 11.68458,7.18367 23.32747,7.18367 11.42973,0 21.54517,-6.08411 23.10739,-7.05305 1.61109,0.99773 11.66605,7.05305 23.06339,7.05305 11.42491,0 21.49384,-6.07979 23.06338,-7.05305 1.56223,0.96894 11.63364,7.05305 23.06338,7.05305 11.42972,0 21.54516,-6.08411 23.10739,-7.05305 1.56954,0.97326 11.63848,7.05305 23.06338,7.05305 11.42973,0 21.54517,-6.08411 23.1074,-7.05305 1.61109,0.99773 11.66604,7.05305 23.06338,7.05305 10.12329,0 19.87741,-5.13999 23.06337,-6.98776 V 420 l -1.10034,0.71838 c 0,0 -11.22689,6.92244 -21.96303,6.92244 -10.73615,0 -21.96303,-6.92244 -21.96303,-6.92244 L 553.82924,420 l -1.10036,0.71838 c 0,0 -11.22689,6.92244 -21.96303,6.92244 -10.73614,0 -21.96303,-6.92244 -21.96303,-6.92244 L 507.70247,420 l -1.10035,0.71838 c 0,0 -11.2709,6.92244 -22.00704,6.92244 -10.73616,0 -21.96303,-6.92244 -21.96303,-6.92244 L 461.5317,420 l -1.10035,0.71838 c 0,0 -11.22688,6.92244 -21.96303,6.92244 -10.73613,0 -21.96304,-6.92244 -21.96304,-6.92244 L 415.40493,420 l -1.14437,0.71838 c 0,0 -11.22686,6.92244 -21.96302,6.92244 -10.73615,0 -21.96303,-6.92244 -21.96303,-6.92244 l -0.48415,-0.32655 -1.71655,0.32655 c 0,0 -2.69787,1.69966 -6.8662,3.46121 -4.16832,1.76156 -9.72876,3.46123 -15.09684,3.46123 -10.73613,0 -22.00703,-6.92244 -22.00703,-6.92244 L 323.06338,420 l -1.10035,0.71838 c 0,0 -11.22688,6.92244 -21.96302,6.92244 -10.73616,0 -21.96303,-6.92244 -21.96303,-6.92244 L 276.93662,420 l -1.10035,0.71838 c 0,0 -11.27091,6.92244 -22.00704,6.92244 -5.36807,0 -10.92851,-1.69967 -15.09683,-3.46123 -4.16833,-1.76155 -6.86621,-3.46121 -6.86621,-3.46121 l -1.71654,-0.32655 -0.48415,0.32655 c 0,0 -11.22689,6.92244 -21.96304,6.92244 -10.73615,0 -21.96302,-6.92244 -21.96302,-6.92244 L 184.59508,420 l -1.10036,0.71838 c 0,0 -11.2269,6.92244 -21.96302,6.92244 -10.73616,0 -21.96304,-6.92244 -21.96304,-6.92244 L 138.46831,420 l -1.10035,0.71838 c 0,0 -11.22688,6.92244 -21.96303,6.92244 -10.73613,0 -22.007042,-6.92244 -22.007042,-6.92244 L 92.297539,420 l -1.100358,0.71838 c 0,0 -11.226881,6.92244 -21.963025,6.92244 -10.736145,0 -21.963029,-6.92244 -21.963029,-6.92244 L 46.170775,420 l -1.144366,0.71838 c 0,0 -11.226883,6.92244 -21.963029,6.92244 -10.736144,0 -21.9630279,-6.92244 -21.9630279,-6.92244 z"
       id="path2847" />
    <path
       inkscape:connector-curvature="0"
       style="color:#000000;display:inline;overflow:visible;visibility:visible;fill:#00b5e2;fill-opacity:1;fill-rule:evenodd;stroke:none;stroke-width:4;marker:none"
       d="m 0,435.99997 v 64 h 600 v -64 c 0,0 -11.52493,7.56117 -23.06337,7.56117 -11.53847,0 -23.10739,-7.56117 -23.10739,-7.56117 0,0 -11.52495,7.56117 -23.06339,7.56117 -11.53847,0 -23.06337,-7.56117 -23.06338,-7.56117 0,0 -11.56895,7.56117 -23.10739,7.56117 -11.53847,0 -23.06337,-7.56117 -23.06338,-7.56117 0,0 -11.52492,7.56117 -23.06338,7.56117 -11.53847,0 -23.06339,-7.56117 -23.06339,-7.56117 0,0 -11.56894,7.56117 -23.10739,7.56117 -11.53847,0 -23.06339,-7.56117 -23.06337,-7.56117 0,0 -11.52495,7.56117 -23.0634,7.56117 -11.53845,0 -23.10739,-7.56117 -23.10739,-7.56117 0,0 -11.52493,7.56117 -23.06337,7.56117 -11.53847,0 -23.06339,-7.56117 -23.06339,-7.56117 0,0 -11.56894,7.56117 -23.10739,7.56117 -11.53847,0 -23.0634,-7.56117 -23.06339,-7.56117 0,0 -11.52492,7.56117 -23.06338,7.56117 -11.53846,0 -23.10738,-7.56117 -23.10738,-7.56117 0,0 -11.52493,7.56117 -23.06338,7.56117 -11.53847,0 -23.06339,-7.56117 -23.06339,-7.56117 0,0 -11.52491,7.56117 -23.06338,7.56117 -11.53847,0 -23.107391,-7.56117 -23.107391,-7.56117 0,0 -11.524921,7.56117 -23.063383,7.56117 -11.538462,0 -23.063381,-7.56117 -23.063381,-7.56117 0,0 -11.568934,7.56117 -23.107395,7.56117 C 11.52492,443.56114 0,435.99997 0,435.99997 Z"
       id="rect2710"
       sodipodi:nodetypes="ccccscscscscscscscscscscscscsc" />
    <path
       inkscape:connector-curvature="0"
       style="color:#000000;display:inline;overflow:visible;visibility:visible;fill:#ef3340;fill-opacity:1;fill-rule:evenodd;stroke:none;stroke-width:4;marker:none"
       d="m 162.91507,193.99413 c -44.36691,0.56261 -80.224595,36.75038 -80.224605,81.25 0,44.85001 36.399985,81.25 81.249995,81.25 30.11872,0 56.47505,-16.40538 70.50782,-40.77149 -12.22747,16.08866 -31.56839,26.46485 -53.32032,26.46485 -36.94559,0 -66.94336,-29.99775 -66.94336,-66.94336 1e-5,-36.94561 29.99775,-66.94336 66.94336,-66.94336 21.75508,0 41.09314,10.42102 53.32032,26.51367 -14.02757,-24.38599 -40.37422,-40.82031 -70.50782,-40.82031 -0.35039,0 -0.67604,-0.004 -1.02539,0 z"
       id="path2689" />
    <path
       sodipodi:type="star"
       style="color:#000000;display:inline;overflow:visible;visibility:visible;fill:#ef3340;fill-opacity:1;fill-rule:evenodd;stroke:none;stroke-width:4;marker:none"
       id="path2702"
       sodipodi:sides="8"
       sodipodi:cx="184.36903"
       sodipodi:cy="112.60185"
       sodipodi:r1="22.102722"
       sodipodi:r2="11.051361"
       sodipodi:arg1="-1.5707963"
       sodipodi:arg2="-1.1780972"
       inkscape:flatsided="false"
       inkscape:rounded="0"
       inkscape:randomized="0"
       d="m 184.36903,90.49913 4.22918,11.8926 11.39981,-5.418862 -5.41886,11.399812 11.8926,4.22917 -11.8926,4.22918 5.41886,11.39981 -11.39981,-5.41886 -4.22918,11.89259 -4.22917,-11.89259 -11.39981,5.41886 5.41886,-11.39982 -11.8926,-4.22917 11.8926,-4.22917 -5.41886,-11.399813 11.39981,5.418863 z"
       transform="matrix(1.8097318,0,0,1.8097318,-83.174298,71.464088)" />
    <path
       inkscape:connector-curvature="0"
       style="fill:#00b5e2;fill-opacity:1;fill-rule:evenodd;stroke:none"
       d="m 414.47757,332.17772 c 0.56091,-0.65601 1.11989,-1.33919 1.66017,-1.95312 0.62928,-0.71507 1.24176,-1.32961 1.85547,-2.00196 -3.71574,-3.18576 -6.79544,-7.39281 -7.61719,-10.40039 l 8.05664,0.3418 c -8.73901,-4.50339 -15.38589,-11.25064 -19.14062,-21.19141 0.54139,9.02272 -0.71343,13.28874 2.24609,28.75977 l 4.00391,-4.58984 c 2.64162,4.80911 5.57593,8.28137 8.93554,11.03515 z"
       id="path2633" />
    <path
       inkscape:connector-curvature="0"
       style="fill:#00b5e2;fill-opacity:1;fill-rule:evenodd;stroke:none"
       d="m 495.82524,330.37108 c 0.0419,0.1797 0.11219,0.35669 0.1464,0.53711 0.3201,1.68581 0.45037,3.38005 0.48828,5.07813 5.86106,-3.35207 10.57984,-7.52574 14.59961,-14.84375 l 4.00391,4.58984 c 2.95952,-15.47103 1.70469,-19.73705 2.24609,-28.75977 -3.75473,9.94077 -10.40162,16.68802 -19.14063,21.19141 l 8.05664,-0.3418 c -1.02479,3.75077 -5.41319,9.50494 -10.40039,12.54883 z"
       id="path2629" />
    <path
       inkscape:connector-curvature="0"
       style="fill:#00b5e2;fill-opacity:1;fill-rule:evenodd;stroke:none"
       d="m 463.9893,280.56639 c -0.92426,0.43421 -1.7697,0.89907 -2.88086,1.26954 -3.36142,1.12073 -6.14675,2.34948 -8.49609,3.61328 v 17.23632 c -2e-5,6.87496 -5.61027,19.82635 -10.74219,25.73243 -3.13934,3.61287 -8.63511,3.91298 -13.47656,3.95507 -1.31141,1.21696 -2.5883,2.39972 -4.44336,4.49219 -0.19416,0.219 -0.42456,0.4918 -0.63477,0.73242 8.75808,4.37963 19.86335,7.95904 34.96094,16.94336 11.11672,-6.60954 19.719,-10.16136 27.19727,-13.3789 0.42012,-1.8 0.8789,-3.71575 0.8789,-4.44336 0,-1.58196 -0.50176,-3.03988 -0.83007,-4.54102 -4.08513,-0.21683 -8.22366,-0.80514 -10.79102,-3.75976 -5.13192,-5.90608 -10.74219,-18.85747 -10.74219,-25.73243 z"
       id="path2625" />
    <path
       inkscape:connector-curvature="0"
       style="fill:#00b5e2;fill-opacity:1;fill-rule:evenodd;stroke:none"
       d="m 457.20219,196.87499 c -10.17128,0.58382 -18.31056,9.0722 -18.31054,19.38476 10e-6,8.70031 5.8054,16.10322 13.7207,18.55469 v 12.93945 h -35.98633 l 35.98633,15.9668 v 10.79102 c 1.70589,-0.78482 3.30262,-1.62157 5.32226,-2.29493 2.46902,-0.82318 4.18077,-1.77151 6.05469,-2.68554 v -5.81055 l 35.98633,-15.9668 H 463.9893 v -12.93945 c 7.93778,-2.43768 13.76955,-9.83831 13.76952,-18.55469 2e-5,-10.68832 -8.74529,-19.38476 -19.43358,-19.38476 -0.37577,0 -0.75244,-0.0213 -1.12305,0 z m 0.19532,4.63867 c 0.31328,-0.0199 0.60928,0 0.92773,0 8.15206,1e-5 14.69727,6.59401 14.69727,14.74609 3e-5,8.15208 -6.54519,14.7461 -14.69727,14.7461 -8.15209,0 -14.69727,-6.59401 -14.69727,-14.7461 -1e-5,-7.83363 6.06281,-14.25667 13.76954,-14.74609 z"
       id="path2225" />
    <path
       inkscape:connector-curvature="0"
       style="fill:#00b5e2;fill-opacity:1;fill-rule:evenodd;stroke:none"
       d="m 463.84282,230.61522 c 0.10203,0.0701 0.24075,0.12497 0.34179,0.19531 l -0.19531,-0.19531 h -0.14641 z"
       id="path2402" />
    <path
       inkscape:connector-curvature="0"
       style="fill:#00b5e2;fill-opacity:1;fill-rule:evenodd;stroke:none"
       d="m 427.71001,206.73827 -1.26954,3.71094 1.85547,0.63476 c 2.61042,0.90197 5.15616,1.82508 7.61719,2.73438 0.14594,-1.33714 0.36,-2.6485 0.73242,-3.90625 -2.29994,-0.84274 -4.66229,-1.65483 -7.08008,-2.49024 z m 19.2871,7.22656 c -0.14687,0.74724 -0.24414,1.5006 -0.24414,2.29492 0,0.65773 0.0453,1.27803 0.14641,1.9043 7.49045,3.19412 13.97402,6.51852 19.23827,10.20508 6.79999,4.76201 11.49947,10.01016 13.96485,16.25976 h 4.05273 c -2.64125,-7.70236 -8.09245,-14.05603 -15.77141,-19.43359 -5.92676,-4.15051 -13.14384,-7.79841 -21.38672,-11.23047 z"
       id="path2430" />
    <path
       inkscape:connector-curvature="0"
       style="fill:#00b5e2;fill-opacity:1;fill-rule:evenodd;stroke:none"
       d="m 431.1768,321.92382 c -1.38885,0.18095 -2.60156,0.86475 -3.85742,1.75781 -1.33666,0.95051 -2.94909,2.85686 -4.44336,4.3457 -0.006,-0.005 -0.0428,0.003 -0.0487,0 -2.44545,2.43224 -4.97147,4.94624 -7.71484,8.1543 -2.17633,2.54495 -4.3111,5.08764 -6.5918,7.66601 l -1.31836,1.41602 2.92969,2.58789 1.31828,-1.41602 c 2.46606,-2.78792 4.79803,-5.50945 7.12891,-8.20312 3.26378,-3.7718 6.05932,-6.62977 8.49609,-8.88672 0.77747,-0.72009 1.84097,-2.02853 2.49023,-2.49023 0.84044,-0.59764 1.56364,-0.91258 1.95313,-1.02539 0.0422,-0.0109 0.11312,-0.0428 0.14641,-0.0487 0.009,-10e-4 0.0397,8.6e-4 0.0488,0 0.009,-8.6e-4 0.0406,0.001 0.0487,0 0.006,-10e-4 0.043,0.002 0.0487,0 0.0156,-0.005 0.0386,-0.0441 0.0487,-0.0487 0.005,-0.003 0.045,0.002 0.0488,0 0.0173,0.0266 0.058,0.10171 0.1464,0.24414 0.20839,0.33534 0.40983,1.46967 0.53711,2.92968 0.53524,-0.065 1.15645,-0.003 1.66016,-0.0976 0.82222,-0.15453 1.54033,-0.38421 2.24609,-0.63477 -0.18222,-1.64608 -0.43667,-3.14358 -1.12305,-4.24804 -0.82882,-1.33375 -2.52682,-2.14168 -4.0039,-2.00196 -0.0692,0.006 -0.12703,-0.009 -0.19531,0 z"
       id="path2501" />
    <path
       inkscape:connector-curvature="0"
       style="fill:#00b5e2;fill-opacity:1;fill-rule:evenodd;stroke:none"
       d="m 485.32718,257.71483 -5.02928,2.19727 c -0.69119,1.479 -1.3165,2.96042 -2.58789,4.39453 -2.27701,2.56844 -6.06197,4.95076 -10.59571,7.22656 -1.90981,0.95867 -3.89234,1.91531 -6.25,2.7832 -0.73804,0.27169 -1.16938,0.6176 -1.95312,0.87891 -1.22254,0.40761 -2.05388,0.93027 -3.17384,1.36719 -2.19842,0.85765 -4.44065,1.6757 -6.25,2.63672 -3.0697,1.63045 -5.68455,3.39498 -7.66602,5.27343 -3.74432,3.54971 -5.61162,7.59804 -5.32226,11.52344 0.28937,3.92541 2.75386,7.41505 6.68945,9.96094 1.48728,0.96209 3.41425,1.63836 5.32227,2.34375 0.0286,-0.10609 0.0702,-0.23684 0.0977,-0.3418 0.36685,-1.40281 0.45419,-2.42758 0.58594,-3.51562 -1.3788,-0.55516 -2.8682,-1.08632 -3.90625,-1.75782 -3.21025,-2.07668 -4.69866,-4.48426 -4.88281,-6.98242 -0.18414,-2.49815 0.93681,-5.39818 4.10156,-8.39843 1.2638,-1.1981 3.07213,-2.40032 4.98047,-3.56446 1.75242,-1.06903 3.93662,-2.04709 6.25,-3.02734 1.47597,-0.62542 2.68467,-1.28539 4.39453,-1.85547 0.29005,-0.0967 0.44773,-0.24363 0.73242,-0.3418 2.40342,-0.82876 4.21997,-1.80364 6.25,-2.73437 5.73153,-2.62783 10.53194,-5.51014 13.52539,-8.88672 2.52275,-2.84561 3.97502,-5.96789 4.6875,-9.17969 z m -17.23633,50.58594 c 0.3961,1.43756 1.02029,2.98214 1.61133,4.54101 5.47619,1.69241 9.7781,4.16197 12.84181,7.17774 2.77513,2.7317 4.56713,5.88834 5.66405,9.22851 0.67529,2.05625 1.07516,4.18466 1.17188,6.34766 0.006,0.14406 0.0387,0.2963 0.0487,0.43945 2.7e-4,0.005 -9.9e-4,0.0433 0,0.0487 0.005,0.21414 0.0488,0.42016 0.0488,0.63477 0,1.3963 -0.38686,3.87898 -1.17188,6.64062 -0.90093,3.16941 -2.34982,6.74432 -4.73633,10.10743 -4.46596,6.29351 -11.71423,11.66992 -24.02343,11.66992 -7.03271,0 -13.31118,-2.51413 -17.57813,-7.17774 -2.54501,-2.78161 -4.28711,-6.46745 -5.17578,-10.83984 -1.55925,-0.68486 -2.83848,-1.27966 -4.29687,-1.9043 0.72571,6.23738 3.01571,11.47235 6.59179,15.38086 5.07774,5.54975 12.48672,8.44727 20.45899,8.44727 13.48251,0 22.15451,-6.22377 27.19726,-13.33008 3.60502,-5.08022 5.05185,-10.02714 5.81055,-14.20898 0.005,9e-5 0.0428,-3.5e-4 0.0488,0 0.3015,-1.66435 0.78125,-3.61285 0.78125,-4.78516 0,-2.748 -0.50636,-5.45122 -1.31836,-8.10547 -1.26041,-4.11998 -3.41631,-8.05891 -6.78711,-11.37695 -4.09833,-4.03421 -9.81256,-7.15935 -17.1875,-8.93555 z"
       id="path2503" />
  </g>
</svg>
