<?xml version="1.0" encoding="UTF-8" standalone="no"?>
<!-- Created with Inkscape (http://www.inkscape.org/) -->

<svg
   xmlns:dc="http://purl.org/dc/elements/1.1/"
   xmlns:cc="http://creativecommons.org/ns#"
   xmlns:rdf="http://www.w3.org/1999/02/22-rdf-syntax-ns#"
   xmlns:svg="http://www.w3.org/2000/svg"
   xmlns="http://www.w3.org/2000/svg"
   xmlns:sodipodi="http://sodipodi.sourceforge.net/DTD/sodipodi-0.dtd"
   xmlns:inkscape="http://www.inkscape.org/namespaces/inkscape"
   width="179.92148mm"
   height="123.54113mm"
   viewBox="0 0 179.92148 123.54113"
   version="1.1"
   id="svg8"
   inkscape:version="0.92.3 (2405546, 2018-03-11)"
   sodipodi:docname="Flag of Karmiel.svg">
  <defs
     id="defs2" />
  <sodipodi:namedview
     id="base"
     pagecolor="#ffffff"
     bordercolor="#666666"
     borderopacity="1.0"
     inkscape:pageopacity="0.0"
     inkscape:pageshadow="2"
     inkscape:zoom="0.7"
     inkscape:cx="124.11533"
     inkscape:cy="29.591757"
     inkscape:document-units="mm"
     inkscape:current-layer="layer1"
     showgrid="false"
     fit-margin-top="0"
     fit-margin-left="0"
     fit-margin-right="0"
     fit-margin-bottom="0"
     inkscape:window-width="1920"
     inkscape:window-height="1005"
     inkscape:window-x="-9"
     inkscape:window-y="-9"
     inkscape:window-maximized="1" />
  <metadata
     id="metadata5">
    <rdf:RDF>
      <cc:Work
         rdf:about="">
        <dc:format>image/svg+xml</dc:format>
        <dc:type
           rdf:resource="http://purl.org/dc/dcmitype/StillImage" />
        <dc:title></dc:title>
      </cc:Work>
    </rdf:RDF>
  </metadata>
  <g
     inkscape:label="Layer 1"
     inkscape:groupmode="layer"
     id="layer1"
     transform="translate(382.87579,-2.1252497)">
    <g
       transform="matrix(0.35123763,0,0,-0.35123763,-337.41462,113.64294)"
       id="g2264">
      <rect
         transform="scale(1,-1)"
         y="-317.49927"
         x="-129.43137"
         height="351.7309"
         width="512.25"
         id="rect2078"
         style="opacity:1;fill:#ffffff;fill-opacity:1;stroke:none;stroke-width:26.02643013;stroke-linecap:round;stroke-linejoin:round;stroke-miterlimit:4;stroke-dasharray:none;stroke-dashoffset:0;stroke-opacity:1" />
      <g
         transform="translate(0,-0.47471809)"
         id="g2173">
        <rect
           style="opacity:1;fill:#034ea2;fill-opacity:1;stroke:none;stroke-width:7.49924374;stroke-linecap:round;stroke-linejoin:round;stroke-miterlimit:4;stroke-dasharray:none;stroke-dashoffset:0;stroke-opacity:1"
           id="rect2085"
           width="512.25"
           height="36.622593"
           x="-129.43137"
           y="-300.42227"
           transform="scale(1,-1)" />
        <rect
           transform="scale(1,-1)"
           y="-20.417397"
           x="-129.43137"
           height="36.622593"
           width="512.25"
           id="rect2087"
           style="opacity:1;fill:#034ea2;fill-opacity:1;stroke:none;stroke-width:7.49924374;stroke-linecap:round;stroke-linejoin:round;stroke-miterlimit:4;stroke-dasharray:none;stroke-dashoffset:0;stroke-opacity:1" />
      </g>
      <g
         id="g2121"
         transform="matrix(4.6742848,0,0,4.6742848,95.709691,224.0639)">
        <path
           d="M 0,0 Z"
           style="fill:#ffffff;fill-opacity:1;fill-rule:nonzero;stroke:none"
           id="path2119"
           inkscape:connector-curvature="0" />
      </g>
      <path
         inkscape:connector-curvature="0"
         id="path2115"
         style="opacity:1;fill:#ffffff;fill-opacity:1;fill-rule:nonzero;stroke:none;stroke-width:4.55815506"
         d="M 64.634147,209.90953 H 189.84666 V 69.960497 c 0,0 -5.98942,-14.763865 -13.5514,-15.552425 -7.58477,-0.79312 -39.48728,-2.393031 -42.67799,-5.182623 -3.19071,-2.785032 -6.37687,-5.588298 -6.37687,-5.588298 0,0 -4.7815,5.187181 -17.14321,6.381418 -12.370838,1.203352 -38.671393,2.798707 -42.263219,7.183652 -3.587267,4.380386 -4.384945,16.742103 -4.384945,19.531694 0,2.794149 1.185121,133.175615 1.185121,133.175615" />
      <path
         inkscape:connector-curvature="0"
         id="path2151"
         style="fill:#034ea2;fill-opacity:1;fill-rule:nonzero;stroke:none;stroke-width:4.67428493"
         d="m 194.84473,216.40275 h -25.40941 c -1.68274,-1.85569 -4.908,-3.42625 -4.908,-3.42625 1.09378,-0.78995 2.01929,-2.25768 2.73446,-3.76747 h 20.27704 L 187.7071,73.177989 v -0.154251 c -0.10284,-20.417276 -15.95334,-19.24403 -36.20701,-19.24403 -16.64046,0 -22.95542,-5.912971 -24.69425,-8.053793 v -0.01402 l -0.0281,0.01402 c -1.74818,2.140822 -8.05379,8.053793 -24.71294,8.053793 -20.244326,0 -36.090152,-1.173246 -36.188312,19.24403 h -0.0187 v 0.154251 L 65.689567,209.20903 h 18.977596 c 0.897463,2.27637 2.15952,3.94977 2.15952,3.94977 -1.121829,0.71049 -2.6176,2.18289 -3.603874,3.24395 H 58.388334 L 58.57998,67.559499 v -0.19632 1.673394 c 0.116857,-22.441241 18.140899,-22.833881 40.427889,-22.833881 18.687791,0 25.521591,-6.735645 27.269781,-8.979301 l 0.50014,-0.715166 c 0,0 5.4549,9.694467 27.79798,9.694467 22.26829,0 40.31103,0.39264 40.40451,22.833881 l 0.0187,-1.673394 v 0.19632 z" />
      <g
         id="g2125"
         transform="matrix(4.6742848,0,0,4.6742848,118.25891,86.725932)">
        <path
           d="M 0,0 C 0,0 0.007,0.002 0.015,0.002 0.022,0 0.045,-0.009 0.049,-0.009 Z"
           style="fill:#ffffff;fill-opacity:1;fill-rule:nonzero;stroke:none"
           id="path2123"
           inkscape:connector-curvature="0" />
      </g>
      <g
         id="g2129"
         transform="matrix(4.6742848,0,0,4.6742848,127.12603,87.379864)">
        <path
           d="m 0,0 -0.036,0.029 c 0,0 0.06,-0.029 0.102,-0.043 H 0.044 Z m 0.124,-0.058 c 0,0 0.031,-0.005 0.056,-0.009 0.019,-0.009 0.02,-0.009 0.038,-0.015 H 0.18 Z m 2.317,-0.071 c 0,0 0.009,-0.005 0.014,-0.009 L 2.434,-0.14 H 2.385 Z M 1.678,-0.314 C 1.669,-0.325 1.662,-0.338 1.662,-0.338 l -0.02,-0.013 c 0.012,0.013 0.028,0.029 0.036,0.037 M 1.625,-0.371 C 1.614,-0.385 1.607,-0.4 1.607,-0.4 c 0,0 -0.008,-0.007 -0.026,-0.014 0.026,0.018 0.026,0.025 0.044,0.043 M 1.512,-0.533 c 0,0 -0.032,-0.023 -0.045,-0.039 -0.009,0.005 -0.014,0.011 -0.02,0.016 0.006,0.005 0.065,0.023 0.065,0.023 M 1.031,-0.938 c 0,0 0.018,0.006 0.024,0.011 0,-0.005 -0.046,-0.069 -0.046,-0.069 L 0.967,-1.027 0.949,-1.058 C 0.914,-1.07 0.896,-1.097 0.896,-1.097 Z m 3.704,-1.221 v -0.002 z m -5.336,-0.306 h 0.011 c 0,-0.045 -0.004,-0.088 -0.004,-0.088 0,0 -0.002,0.065 -0.007,0.088 m 2.577,0.037 0.001,-0.031 v -0.007 c 0,0.001 -0.001,0.038 -0.001,0.038 M 1.881,-2.559 1.888,-2.586 1.877,-2.597 c 0.004,0.018 0.004,0.038 0.004,0.038 M 1.28,-4.624 v -0.012 z"
           style="fill:#ffffff;fill-opacity:1;fill-rule:nonzero;stroke:none"
           id="path2127"
           inkscape:connector-curvature="0" />
      </g>
      <g
         id="g2133"
         transform="matrix(4.6742848,0,0,4.6742848,77.548228,83.812457)">
        <path
           d="M 0,0 C 0.011,0.149 -0.016,0.336 0.011,0.473 0.005,0.538 0,0.6 -0.004,0.663 H 0.011 C 0.005,0.693 0,0.718 0,0.756 H 0.011 C 0.005,0.778 0,0.809 0,0.843 c 0.022,0.12 0,0.289 -0.026,0.451 -0.243,0 -0.584,-0.033 -0.79,0.022 h -0.089 v 0.009 c -0.022,0 -0.042,0 -0.064,0.002 V 1.341 H -1.038 V 1.349 H -1.096 C -1.096,1.354 -1.1,1.354 -1.1,1.36 H -1.151 V 1.367 H -1.198 V 1.38 H -1.244 C -1.327,1.405 -1.403,1.427 -1.48,1.447 -1.465,1.354 -1.427,1.259 -1.447,1.18 -1.438,1.13 -1.434,1.078 -1.425,1.031 h -0.009 c 0.007,-0.044 0.009,-0.084 0.014,-0.13 h -0.014 c 0.009,-0.032 0.012,-0.072 0.016,-0.105 h -0.009 c 0.002,-0.04 0.005,-0.078 0.009,-0.109 H -1.425 C -1.422,0.649 -1.418,0.614 -1.412,0.574 H -1.425 C -1.422,0.538 -1.418,0.5 -1.412,0.462 H -1.425 C -1.42,0.425 -1.418,0.391 -1.409,0.354 h -0.013 c 0.004,-0.036 0.01,-0.072 0.015,-0.11 H -1.42 c 0.002,-0.037 0.011,-0.077 0.015,-0.113 h -0.013 c 0.006,-0.036 0.011,-0.073 0.015,-0.108 h -0.015 c 0.009,-0.034 0.015,-0.074 0.02,-0.11 -0.014,-0.073 -0.005,-0.177 -0.02,-0.244 0,-0.02 0.006,-0.034 0.006,-0.058 C -1.44,-0.554 -1.474,-0.72 -1.501,-0.885 H -1.516 V -0.907 H -1.521 C -1.525,-0.94 -1.532,-0.972 -1.536,-1.005 h -0.015 c 0,-0.006 0.006,-0.013 0.006,-0.018 h -0.013 c 0,-0.015 0,-0.026 0.005,-0.036 -0.01,-0.026 -0.025,-0.046 -0.025,-0.079 0.104,-0.013 0.213,-0.022 0.324,-0.032 v -0.009 h 0.099 v -0.017 h 0.088 v -0.011 h 0.104 V -1.212 H 0.679 C 0.658,-1.322 0.634,-1.43 0.611,-1.536 V -1.634 C 0.589,-1.725 0.6,-1.845 0.579,-1.943 0.579,-2.079 0.585,-2.224 0.585,-2.365 0.56,-2.495 0.594,-2.672 0.567,-2.802 0.572,-2.826 0.572,-2.85 0.579,-2.868 H 0.567 c 0,-0.024 0.005,-0.042 0.005,-0.058 H 0.56 c 0,-0.015 0,-0.027 0.007,-0.046 H 0.554 C 0.56,-2.983 0.56,-2.997 0.56,-3.015 H 0.545 C 0.55,-3.026 0.55,-3.037 0.55,-3.046 H 0.538 C 0.541,-3.059 0.541,-3.07 0.545,-3.084 H 0.534 V -3.113 H 0.525 c 0,-0.02 -0.007,-0.038 -0.007,-0.055 H 0.505 C 0.505,-3.182 0.501,-3.2 0.496,-3.213 H 0.487 C 0.489,-3.222 0.494,-3.233 0.494,-3.246 0.487,-3.253 0.476,-3.253 0.469,-3.257 0.461,-3.281 0.458,-3.302 0.454,-3.322 H 0.441 C 0.44,-3.333 0.433,-3.348 0.433,-3.357 0.426,-3.362 0.416,-3.362 0.411,-3.37 0.411,-3.375 0.412,-3.386 0.412,-3.39 0.401,-3.393 0.393,-3.406 0.382,-3.41 V -3.437 C 0.367,-3.442 0.352,-3.457 0.34,-3.464 0.316,-3.492 0.297,-3.519 0.274,-3.544 H 0.249 C 0.243,-3.557 0.234,-3.564 0.227,-3.579 H 0.2 C 0.2,-3.584 0.194,-3.59 0.194,-3.602 H 0.171 L 0.149,-3.626 H 0.119 V -3.633 H 0.098 V -3.642 H 0.074 C 0.076,-3.648 0.076,-3.655 0.076,-3.659 0.011,-3.668 -0.06,-3.682 -0.131,-3.699 H -0.473 C -0.488,-3.702 -0.488,-3.744 -0.495,-3.757 -0.499,-3.759 -0.51,-3.76 -0.513,-3.769 -0.516,-3.78 -0.52,-3.793 -0.52,-3.809 c -0.005,-0.004 -0.015,-0.01 -0.024,-0.01 0,-0.005 0,-0.018 0.004,-0.025 l -0.02,-0.024 v -0.023 h -0.01 v -0.02 H -0.584 C -0.58,-3.913 -0.58,-3.92 -0.58,-3.933 h -0.012 c 0,-0.006 0.001,-0.009 0.001,-0.02 h -0.013 c -0.006,-0.02 -0.009,-0.044 -0.014,-0.066 h -0.009 c 0,-0.014 0,-0.021 0.005,-0.034 h -0.016 c 0.002,-0.009 0.002,-0.016 0.002,-0.022 h -0.01 c 0,-0.011 0,-0.022 0.004,-0.032 h -0.016 c 0.005,-0.008 0.005,-0.015 0.007,-0.022 h -0.012 c 0,-0.01 0.001,-0.022 0.003,-0.031 h -0.014 c 0,-0.013 0,-0.024 0.008,-0.042 h -0.011 v -0.031 h -0.014 c 0,-0.009 0.003,-0.016 0.003,-0.031 h -0.008 c 0,-0.007 0,-0.022 0.004,-0.033 h -0.01 c 0,-0.014 0,-0.03 0.006,-0.042 H -0.71 c 0,-0.008 0.003,-0.021 0.003,-0.036 H -0.716 V -4.414 H -0.724 V -4.516 H -0.736 C -0.74,-4.644 -0.747,-4.767 -0.749,-4.893 h 1.261 c 0.06,0.018 0.146,0.026 0.206,0.048 h 0.047 v 0.012 c 0.025,0 0.051,0 0.073,0.006 v 0.013 c 0.031,0.007 0.073,0.012 0.107,0.023 -0.004,0.002 -0.004,0.005 -0.004,0.011 0.022,0.002 0.044,0.007 0.064,0.007 0,0.006 -0.004,0.007 -0.004,0.017 0.018,0.001 0.035,0.003 0.046,0.011 v 0.011 c 0.016,0.001 0.038,0.001 0.05,0.009 0.004,0.007 0.006,0.012 0.008,0.018 0.025,0.009 0.051,0.02 0.073,0.023 0,0.004 0,0.011 -0.004,0.017 0.016,0 0.026,0.007 0.04,0.009 0,0.007 0.004,0.011 0.008,0.022 h 0.023 c 0.007,0.007 0.007,0.016 0.011,0.021 h 0.025 c 0.008,0.011 0.02,0.029 0.03,0.044 0.321,0.224 0.499,0.565 0.632,0.938 0.002,0.031 0.009,0.069 0.011,0.094 h 0.014 c -0.005,0.017 -0.005,0.028 -0.005,0.04 H 1.974 C 1.97,-3.492 1.97,-3.477 1.968,-3.464 h 0.013 c -0.002,0.007 -0.002,0.022 -0.002,0.027 h 0.009 c 0,0.015 -0.003,0.027 -0.003,0.036 h 0.012 c 0,0.039 0.011,0.082 0.011,0.12 h 0.015 c -0.005,0.019 -0.01,0.035 -0.01,0.059 H 2.024 C 2.023,-3.208 2.023,-3.193 2.018,-3.181 H 2.03 c -0.002,0.013 -0.002,0.03 -0.006,0.048 h 0.008 c 0,0.012 -0.002,0.032 -0.002,0.049 h 0.011 c 0,0.02 -0.009,0.042 -0.009,0.058 h 0.012 c -0.003,0.025 -0.003,0.045 -0.003,0.067 0.014,0.091 0,0.214 0.018,0.309 -0.005,0.029 -0.009,0.067 -0.015,0.098 h 0.015 c -0.005,0.038 -0.009,0.073 -0.018,0.111 0.033,0.149 -0.017,0.344 0.011,0.498 -0.008,0.035 -0.011,0.073 -0.02,0.109 0.018,0.066 0.009,0.16 0.027,0.22 -0.005,0.027 -0.007,0.046 -0.007,0.073 h 0.007 c 0,0.047 0.002,0.103 0.002,0.163 h 0.013 c 0,0.011 -0.004,0.037 -0.006,0.056 H 2.081 C 2.079,-1.311 2.079,-1.294 2.074,-1.279 H 2.09 c 0,0.014 -0.005,0.03 -0.009,0.041 H 2.09 v 0.042 h 0.009 v 0.106 h 0.009 v 0.031 h 0.013 c 0.007,0.07 0.014,0.137 0.02,0.208 h 0.011 c 0.003,0.037 0.007,0.077 0.011,0.11 h 0.008 c 0.008,0.036 0.014,0.067 0.014,0.101 h 0.018 v 0.066 h 0.014 c -0.005,0.011 -0.005,0.02 -0.005,0.031 h 0.01 c 0,0.011 0,0.027 -0.005,0.036 h 0.015 c 0,0.007 0,0.018 -0.006,0.033 H 2.241 C 2.237,-0.465 2.237,-0.453 2.235,-0.438 H 2.248 C 2.243,-0.431 2.243,-0.42 2.243,-0.409 h 0.014 c 0,0.02 0,0.044 0.006,0.066 h 0.005 c 0,0.016 -0.002,0.03 -0.002,0.043 h 0.011 v 0.036 H 2.29 c -0.008,0.015 -0.008,0.021 -0.008,0.031 h 0.01 C 2.31,-0.182 2.301,-0.102 2.333,-0.064 2.326,-0.018 2.322,-0.031 2.301,0 Z M 14.978,-0.009 H 13.879 C 13.7,-0.007 13.52,-0.004 13.348,0 c -0.004,0.006 -0.004,0.006 -0.004,0.016 -0.029,0 -0.051,0 -0.087,0.002 V 0.023 H 13.18 v 0.01 H 13.131 C 13.126,0.038 13.126,0.042 13.126,0.042 H 13.08 V 0.055 H 13.04 V 0.067 H 12.991 C 12.99,0.069 12.99,0.074 12.99,0.074 c -0.025,0.01 -0.057,0.011 -0.075,0.017 -0.08,0.027 -0.151,0.054 -0.227,0.083 -0.02,-0.043 -0.04,-0.09 -0.064,-0.141 -0.005,-0.002 -0.016,-0.01 -0.023,-0.01 0,-0.005 0.003,-0.017 0.003,-0.023 -0.013,-0.007 -0.025,-0.011 -0.036,-0.02 0,-0.011 0.004,-0.016 0.004,-0.024 -0.013,-0.007 -0.024,-0.014 -0.033,-0.02 v -0.023 c -0.013,-0.015 -0.026,-0.02 -0.044,-0.033 v -0.025 c -0.026,-0.024 -0.058,-0.051 -0.084,-0.077 v -0.021 c -0.01,-0.006 -0.023,-0.019 -0.034,-0.021 -0.022,-0.025 -0.049,-0.061 -0.071,-0.09 H 12.277 C 12.248,-0.389 12.221,-0.42 12.188,-0.453 12.186,-0.458 12.172,-0.46 12.157,-0.465 12.152,-0.474 12.143,-0.489 12.135,-0.5 h -0.022 c -0.011,-0.011 -0.019,-0.025 -0.034,-0.043 h -0.02 c -0.011,-0.011 -0.016,-0.02 -0.026,-0.031 h -0.018 c -0.009,-0.009 -0.018,-0.022 -0.024,-0.033 h -0.025 c -0.005,-0.013 -0.012,-0.02 -0.022,-0.033 -0.02,-0.016 -0.047,-0.029 -0.083,-0.034 -0.024,0.221 -0.107,0.358 -0.224,0.483 0,0.009 0,0.017 -0.002,0.027 -0.009,0.004 -0.02,0.004 -0.022,0.008 -0.009,0.011 -0.009,0.018 -0.009,0.023 -0.016,0.013 -0.034,0.026 -0.052,0.031 -0.004,0.008 -0.009,0.015 -0.018,0.026 h -0.022 c -0.006,0.005 -0.009,0.018 -0.018,0.018 h -0.021 c -0.005,0.007 -0.011,0.016 -0.016,0.027 h -0.04 v 0.011 h -0.038 v 0.011 h -0.184 c -0.08,0.015 -0.154,0.032 -0.226,0.051 0,0.005 -0.004,0.013 -0.004,0.013 -0.022,0.003 -0.039,0.01 -0.055,0.014 V 0.074 H 10.884 V 0.091 H 10.848 C 10.841,0.095 10.834,0.1 10.832,0.111 H 10.805 V 0.122 H 10.787 L 10.756,0.145 H 10.73 V 0.153 C 10.712,0.158 10.703,0.164 10.692,0.167 10.687,0.174 10.68,0.18 10.672,0.187 H 10.65 c -0.007,0.009 -0.009,0.015 -0.018,0.026 h -0.026 c -0.003,0.003 -0.007,0.01 -0.014,0.018 H 10.57 c -0.005,0.007 -0.01,0.02 -0.016,0.027 H 10.527 C 10.52,0.269 10.51,0.278 10.503,0.289 h -0.027 c -0.007,0.005 -0.013,0.015 -0.02,0.02 -0.02,0.011 -0.043,0.024 -0.064,0.033 -0.051,-0.111 -0.105,-0.211 -0.154,-0.319 0,-0.007 0.003,-0.023 0.003,-0.032 h -0.013 c 0,-0.015 -10e-4,-0.033 -0.007,-0.049 h -0.008 c 0,0 0,-0.013 0.001,-0.018 h -0.012 c 10e-4,-0.011 10e-4,-0.026 10e-4,-0.031 h -0.007 c -0.008,-0.019 -0.008,-0.031 -0.009,-0.049 h -0.015 c 0,-0.008 0.008,-0.018 0.008,-0.035 h -0.013 c 0.002,-0.005 0,-0.014 0,-0.014 h -0.011 c 0,-0.028 0,-0.044 -0.007,-0.071 h -0.008 c 0.004,-0.009 0.004,-0.013 0.004,-0.024 h -0.013 c -0.005,-0.016 -0.005,-0.043 -0.005,-0.065 h -0.011 c 0,-0.011 0.002,-0.024 0.002,-0.035 H 10.11 v -0.031 h -0.012 c 0,-0.007 0,-0.022 0.007,-0.034 h -0.011 c 0.002,-0.015 0.002,-0.027 0.002,-0.042 h -0.009 c 10e-4,-0.009 10e-4,-0.025 10e-4,-0.036 H 10.08 c 0,-0.011 0,-0.026 0.007,-0.04 h -0.015 c 0,-0.017 0,-0.031 0.008,-0.044 h -0.013 c 0,-0.018 0.004,-0.029 0.004,-0.047 h -0.017 c 0.008,-0.013 0.008,-0.028 0.008,-0.046 h -0.011 c 0.003,-0.01 0.003,-0.023 0.003,-0.042 h -0.007 c 0,-0.019 0,-0.038 0.004,-0.054 H 10.04 v -0.189 h -0.013 c 0.003,-0.025 0.005,-0.051 0.013,-0.076 0.007,-0.004 0.022,-0.009 0.04,-0.009 0.007,-0.011 0.008,-0.017 0.014,-0.026 h 0.022 l 0.029,-0.022 c 0.004,0 0.015,0 0.024,-0.002 0,0 0.003,-0.003 0.003,-0.011 h 0.024 c 0,0 0,-10e-4 0.003,-0.009 h 0.022 c 0.192,-0.085 0.437,-0.116 0.722,-0.11 v -0.022 h -0.026 c -0.014,-0.022 -0.033,-0.046 -0.05,-0.062 H 10.841 C 10.834,-1.367 10.825,-1.378 10.819,-1.39 10.795,-1.414 10.772,-1.438 10.745,-1.456 V -1.481 C 10.721,-1.496 10.703,-1.514 10.68,-1.536 v -0.02 c -0.011,-0.012 -0.028,-0.023 -0.042,-0.031 0.003,-0.009 0.003,-0.018 0.003,-0.027 -0.011,-0.003 -0.027,-0.014 -0.035,-0.02 v -0.022 c -0.003,0 -0.014,-0.007 -0.018,-0.014 -0.003,-0.009 -0.007,-0.017 -0.007,-0.031 h -0.016 c 0.005,-0.005 0.005,-0.013 0.005,-0.022 -0.01,-0.002 -0.02,-0.005 -0.023,-0.009 -0.006,-0.014 -0.006,-0.033 -0.009,-0.045 -0.006,-0.006 -0.014,-0.006 -0.022,-0.013 -0.006,-0.022 -0.011,-0.044 -0.013,-0.066 -0.011,-10e-4 -0.02,-0.007 -0.027,-0.01 0,-0.011 -0.002,-0.031 -0.002,-0.044 h -0.018 c -0.002,-0.015 -0.002,-0.028 -0.002,-0.046 h -0.013 v -0.031 h -0.013 c 0.006,-0.009 0.006,-0.018 0.006,-0.025 h -0.013 c 0,-0.011 -10e-4,-0.027 -0.008,-0.042 h -0.008 c 0,-0.011 0,-0.023 0.004,-0.031 h -0.017 c 0,-0.012 0,-0.016 0.004,-0.021 h -0.008 c 0,-0.015 0.004,-0.026 0.004,-0.035 h -0.016 c 0,-0.009 0,-0.016 0.002,-0.025 h -0.007 c -0.028,-0.126 -0.055,-0.251 -0.077,-0.386 0.004,-0.018 0.004,-0.036 0.011,-0.054 -0.013,-0.048 -0.018,-0.122 -0.029,-0.177 0,-0.056 0.009,-0.114 0.011,-0.176 -0.022,-0.12 0.018,-0.28 -0.011,-0.398 0.011,-0.231 0.016,-0.462 0.022,-0.696 h -0.011 c 0,-0.033 0.007,-0.062 0.011,-0.098 -0.022,-0.113 0.007,-0.26 -0.013,-0.365 0.002,-0.026 0.007,-0.042 0.009,-0.068 -0.018,-0.101 -0.038,-0.205 -0.062,-0.309 h 0.967 c 0.142,-0.001 0.325,-0.02 0.405,0.035 0.009,0.013 0.011,0.025 0.019,0.031 0.014,0.009 0.023,0.02 0.038,0.025 0,0.004 -0.006,0.013 -0.006,0.022 h 0.011 c 0.006,0.024 0.013,0.046 0.018,0.067 h 0.01 c 0,0.006 0,0.022 -0.004,0.029 h 0.009 v 0.048 h 0.011 c -0.006,0.021 -0.011,0.043 -0.011,0.065 h 0.016 c -0.005,0.029 -0.011,0.056 -0.016,0.087 h 0.016 c -0.005,0.033 -0.011,0.07 -0.016,0.098 h 0.016 c -0.005,0.039 -0.016,0.071 -0.016,0.1 h 0.013 c -0.008,0.037 -0.013,0.077 -0.013,0.113 h 0.013 c -0.008,0.034 -0.013,0.066 -0.013,0.098 0.024,0.148 -0.02,0.345 0.005,0.496 -0.005,0.075 -0.01,0.142 -0.014,0.209 h 0.009 c 0,0.037 -0.005,0.068 -0.009,0.102 0.027,0.147 -0.02,0.346 0.009,0.496 -0.004,0.046 -0.005,0.089 -0.005,0.135 h 0.005 v 0.042 h 0.013 c -0.002,0.014 -0.008,0.032 -0.008,0.043 h 0.013 c -0.002,0.018 -0.002,0.031 -0.005,0.044 h 0.011 c 0,0.018 -0.006,0.029 -0.006,0.045 h 0.013 c 0,0.013 -0.006,0.022 -0.006,0.035 h 0.013 c 0.008,0.035 0.008,0.071 0.017,0.111 h 0.005 v 0.018 h 0.007 c 0.004,0.024 0.007,0.047 0.011,0.071 h 0.006 c 0.004,0.009 0.004,0.025 0.011,0.042 h 0.012 c -0.004,0.011 -0.004,0.014 -0.004,0.02 h 0.011 c 0,0.009 -0.001,0.025 0,0.034 h 0.011 c 0.002,0.015 0.002,0.031 0.002,0.047 h 0.013 c 0.007,0.013 0.007,0.03 0.009,0.042 0.006,0.004 0.013,0.006 0.022,0.009 0.007,0.022 0.009,0.047 0.017,0.069 0.007,0.006 0.017,0.006 0.023,0.009 0,0.018 0.003,0.031 0.011,0.046 0.003,0.002 0.011,0.011 0.018,0.011 v 0.027 h 0.009 c 0.006,0.006 0.006,0.016 0.013,0.027 0.005,0 0.012,0.011 0.019,0.011 0,0.009 0,0.018 -0.004,0.022 0.012,0.009 0.026,0.016 0.039,0.022 0,0.007 -0.007,0.014 -0.007,0.022 0.013,0.003 0.016,0.007 0.02,0.012 v 0.024 c 0.005,0.004 0.016,0.007 0.024,0.009 0.007,0.013 0.007,0.022 0.007,0.036 0.018,0.008 0.035,0.017 0.045,0.031 0.14,0.202 0.346,0.345 0.622,0.444 h 0.049 c 0.186,0.054 0.479,0.042 0.736,0.042 -0.002,-0.037 -0.025,-0.057 -0.035,-0.087 0,-0.008 0.003,-0.015 0.003,-0.022 h -0.015 c 0,-0.022 0,-0.035 -0.004,-0.059 h -0.011 v -0.016 h -0.011 c 0,-0.024 -0.003,-0.047 -0.003,-0.071 h -0.009 v -0.031 h -0.009 c -0.006,-0.027 -0.006,-0.053 -0.006,-0.08 h -0.005 v -0.043 h -0.011 c 0.001,-0.017 0.001,-0.037 0.011,-0.055 h -0.013 c 0,-0.036 0,-0.072 -0.003,-0.112 h -0.011 c 0.003,-0.055 0.011,-0.11 0.014,-0.164 h -0.018 c 0.007,-0.04 0.015,-0.077 0.015,-0.113 h -0.011 c 0.003,-0.032 0.011,-0.074 0.016,-0.109 h -0.013 c 0.008,-0.034 0.011,-0.075 0.013,-0.109 h -0.013 c 0.008,-0.034 0.011,-0.073 0.014,-0.111 H 13.39 c 0.003,-0.038 0.005,-0.074 0.006,-0.111 H 13.39 c 0.003,-0.034 0.006,-0.071 0.016,-0.11 h -0.013 c 0.002,-0.072 0.013,-0.148 0.016,-0.222 h -0.014 c 0.001,-0.033 0.011,-0.071 0.014,-0.109 h -0.013 c 0.01,-0.037 0.013,-0.073 0.013,-0.111 h -0.013 c 0.01,-0.031 0.013,-0.069 0.013,-0.098 h -0.013 c 0.01,-0.031 0.013,-0.059 0.013,-0.089 h -0.013 c 0.01,-0.02 0.01,-0.037 0.013,-0.055 h -0.014 c 0,-0.016 0.001,-0.029 0.011,-0.045 H 13.39 c 0.003,-0.015 0.003,-0.03 0.005,-0.046 h -0.013 c 0,-0.009 0,-0.022 0.008,-0.029 h -0.015 c 0,-0.013 0,-0.024 0.004,-0.033 h -0.015 c -0.006,-0.027 -0.01,-0.047 -0.015,-0.067 h -0.012 c -0.002,-0.015 -0.008,-0.027 -0.008,-0.045 -0.009,-0.011 -0.02,-0.017 -0.034,-0.022 0.003,-0.009 0.003,-0.018 0.003,-0.02 -0.003,-0.006 -0.016,-0.013 -0.022,-0.015 -0.011,-0.011 -0.019,-0.03 -0.032,-0.047 h -0.022 c -0.007,-0.002 -0.009,-0.012 -0.011,-0.016 h -0.027 c 0,-0.013 -0.004,-0.017 -0.009,-0.024 -0.013,0 -0.024,0 -0.036,-0.002 v -0.014 h -0.022 v -0.004 c -0.035,-0.016 -0.084,0 -0.106,-0.023 H 12.566 C 12.559,-3.719 12.555,-3.73 12.555,-3.73 h -0.011 v -0.027 c -0.005,-0.002 -0.016,-0.003 -0.022,-0.014 0,0 0,-0.009 0.004,-0.02 -0.007,0 -0.018,-0.002 -0.025,-0.009 -0.006,-0.019 -0.013,-0.044 -0.013,-0.068 -0.009,-0.005 -0.019,-0.005 -0.027,-0.005 0,-0.018 -0.004,-0.033 -0.006,-0.047 h -0.013 c 0,-0.015 -0.005,-0.028 -0.005,-0.044 h -0.013 c 0,-0.009 0.004,-0.024 0.004,-0.033 h -0.013 c 0,-0.016 -0.004,-0.029 -0.004,-0.043 h -0.01 V -4.075 H 12.388 V -4.097 H 12.38 c 0.003,-0.01 0.003,-0.018 0.008,-0.032 h -0.016 c 0,-0.006 0,-0.017 10e-4,-0.022 h -0.007 v -0.051 h -0.011 c 0,-0.004 0.006,-0.02 0.006,-0.031 h -0.01 c 0,-0.009 0,-0.016 0.004,-0.031 h -0.014 c 0.003,-0.007 0.003,-0.022 0.005,-0.033 h -0.014 c 10e-4,-0.014 0.005,-0.03 0.009,-0.042 h -0.015 c 0.002,-0.016 0.002,-0.03 0.002,-0.047 h -0.009 c 0.005,-0.012 0.007,-0.025 0.007,-0.043 H 12.31 c 0.007,-0.013 0.007,-0.026 0.007,-0.044 h -0.011 c 0,-0.012 0,-0.029 0.004,-0.043 h -0.009 c 0,-0.019 0.005,-0.037 0.005,-0.055 -0.016,-0.085 -0.031,-0.215 -0.016,-0.322 h 0.8 c 0.132,0 0.305,-0.012 0.411,0.013 h 0.136 c 0,0.005 0,0.005 -0.004,0.011 0.029,0 0.058,0 0.087,0.002 0,0 0,0.007 -0.004,0.009 h 0.075 c 0,0.004 0,0.005 -0.001,0.013 h 0.067 c -0.008,0 -0.008,0.005 -0.008,0.012 h 0.055 v 0.006 c 0.025,0.009 0.053,0.009 0.079,0.013 v 0.012 h 0.041 c 0,0 -0.008,0.004 -0.008,0.011 h 0.041 c -0.003,0.002 -0.003,0.005 -0.003,0.011 h 0.025 v 0.007 h 0.035 v 0.017 c 0.022,0.003 0.05,0.011 0.069,0.023 v 0.008 h 0.024 c 0,10e-4 0,0.007 -0.004,0.012 0.024,0.006 0.047,0.013 0.075,0.022 0.002,0.006 0.007,0.011 0.007,0.024 0.018,0 0.035,0.007 0.05,0.009 0,0.007 0.007,0.011 0.007,0.022 0.016,0.003 0.029,0.007 0.041,0.008 0.002,0.013 0.006,0.023 0.017,0.035 h 0.022 c 0.013,0.009 0.02,0.022 0.021,0.035 0.032,0.023 0.06,0.043 0.091,0.074 -0.003,0.009 -0.003,0.011 -0.003,0.024 0.015,0.009 0.03,0.022 0.05,0.031 0,0.015 0.002,0.02 0.002,0.033 0.008,0.005 0.017,0.008 0.022,0.01 0.007,0.017 0.011,0.031 0.011,0.047 0.008,0 0.013,0.008 0.022,0.012 0.007,0.023 0.007,0.041 0.018,0.063 h 0.011 c 0,0.009 -0.002,0.015 -0.002,0.022 h 0.007 c 0.008,0.02 0.013,0.04 0.015,0.069 h 0.015 c 0,0.013 -0.002,0.022 0,0.034 h 0.01 c 0.002,0.011 0.004,0.028 0.006,0.042 h 0.013 c 0,0.022 0.003,0.044 0.003,0.064 h 0.011 c -0.003,0.014 -0.003,0.022 -0.007,0.036 h 0.018 c -0.007,0.009 -0.007,0.024 -0.007,0.033 h 0.015 v 0.073 h 0.016 c -0.004,0.018 -0.008,0.034 -0.008,0.047 h 0.009 c 0.004,0.031 0.004,0.06 0.004,0.087 H 14.8 v 0.169 h 0.011 c 0,0.024 0,0.044 -0.01,0.066 h 0.015 c -0.005,0.023 -0.005,0.045 -0.005,0.065 h 0.011 c -0.01,0.024 -0.011,0.051 -0.011,0.08 h 0.011 c -0.006,0.029 -0.011,0.064 -0.011,0.096 h 0.011 c -0.01,0.035 -0.011,0.068 -0.011,0.1 0.016,0.122 -0.021,0.297 0,0.418 0,0.04 -0.01,0.075 -0.011,0.113 0.022,0.124 -0.02,0.293 10e-4,0.422 -10e-4,0.034 -0.007,0.071 -0.011,0.107 h 0.01 c 0,0.036 -0.006,0.067 -0.01,0.098 h 0.01 c -0.004,0.036 -0.01,0.073 -0.015,0.113 H 14.8 c -0.006,0.038 -0.01,0.065 -0.015,0.098 H 14.8 c -0.006,0.035 -0.01,0.066 -0.015,0.102 H 14.8 c -0.008,0.027 -0.01,0.06 -0.015,0.087 H 14.8 c -0.006,0.027 -0.01,0.053 -0.015,0.082 H 14.8 c -0.004,0.027 -0.01,0.054 -0.008,0.085 H 14.8 c 0,0.044 -0.004,0.089 -0.006,0.142 0.028,0.147 0.017,0.336 0.051,0.476 0,0.064 0.004,0.122 0.011,0.184 0.027,0.14 0.055,0.278 0.08,0.411 h 0.009 v 0.021 h 0.015 c 0,0.017 -0.006,0.022 -0.006,0.031 h 0.01 c 0,0.016 -0.003,0.027 -0.003,0.035 h 0.014 c -0.003,0.011 -0.003,0.023 -0.008,0.036 h 0.014 c 0,0.005 -0.003,0.013 -0.003,0.018 h 0.011 c 0,0.015 0,0.031 -0.006,0.044 h 0.011 c -0.005,0.027 -0.005,0.027 -0.016,0.049 M 9.203,0 H 9.078 V 0.016 H 8.991 C 8.989,0.018 8.989,0.018 8.989,0.023 H 8.913 v 0.01 H 8.866 C 8.858,0.038 8.858,0.042 8.858,0.042 H 8.814 c 0,0.005 -0.003,0.013 -0.003,0.013 H 8.76 c 0,0.003 0,0.01 -0.002,0.012 H 8.71 V 0.074 H 8.684 V 0.091 C 8.658,0.091 8.632,0.095 8.606,0.1 v 0.011 c -0.017,0.005 -0.042,0.007 -0.06,0.011 0,0.003 0,0.009 -0.006,0.009 C 8.521,0.136 8.506,0.144 8.488,0.145 V 0.153 H 8.462 V 0.167 H 8.436 l -0.023,0.02 c -0.013,0 -0.02,0 -0.031,0.004 V 0.196 C 8.367,0.202 8.36,0.207 8.346,0.213 8.342,0.216 8.336,0.223 8.332,0.231 8.31,0.231 8.295,0.238 8.28,0.244 8.266,0.258 8.258,0.269 8.251,0.278 H 8.224 C 8.21,0.293 8.196,0.305 8.182,0.32 H 8.146 C 8.14,0.309 8.136,0.3 8.136,0.289 H 8.126 C 8.128,0.282 8.128,0.273 8.128,0.269 8.118,0.262 8.113,0.258 8.102,0.258 8.102,0.251 8.11,0.238 8.11,0.231 8.099,0.231 8.093,0.223 8.084,0.22 8.08,0.207 8.079,0.191 8.079,0.174 8.069,0.174 8.064,0.167 8.057,0.167 V 0.145 L 8.035,0.122 C 8.035,0.116 8.039,0.109 8.039,0.1 H 8.026 c 0,-0.009 0,-0.015 0.007,-0.026 H 8.017 C 8.021,0.069 8.021,0.065 8.021,0.055 8.007,0.051 8.002,0.047 7.995,0.042 7.995,0.031 7.99,0.018 7.986,0 H 7.979 C 7.973,-0.02 7.968,-0.044 7.96,-0.064 H 7.95 V -0.102 H 7.939 C 7.943,-0.107 7.943,-0.115 7.943,-0.12 H 7.935 C 7.928,-0.145 7.918,-0.164 7.917,-0.191 H 7.899 C 7.901,-0.2 7.906,-0.205 7.91,-0.222 H 7.895 c 0,-0.007 0,-0.011 0.004,-0.021 H 7.886 c 0,-0.006 0,-0.021 0.005,-0.033 H 7.875 V -0.3 H 7.87 c 0,-0.016 -0.004,-0.043 -0.004,-0.065 H 7.851 C 7.855,-0.376 7.855,-0.389 7.855,-0.4 H 7.844 c 0,-0.009 0.007,-0.02 0.007,-0.031 H 7.837 V -0.465 H 7.829 C 7.832,-0.474 7.833,-0.489 7.837,-0.5 H 7.821 c 0,-0.007 0,-0.016 0.008,-0.032 H 7.813 C 7.792,-0.674 7.779,-0.816 7.757,-0.96 7.762,-0.989 7.768,-1.011 7.773,-1.038 7.79,-1.052 7.813,-1.065 7.837,-1.081 V -1.09 C 7.855,-1.096 7.873,-1.101 7.886,-1.105 7.895,-1.112 7.899,-1.12 7.901,-1.127 7.943,-1.138 7.982,-1.151 8.021,-1.16 V -1.17 H 8.05 V -1.179 H 8.084 C 8.155,-1.207 8.253,-1.238 8.353,-1.238 8.342,-1.33 8.328,-1.438 8.306,-1.521 8.302,-1.568 8.296,-1.614 8.296,-1.656 8.275,-1.75 8.258,-1.868 8.236,-1.965 8.24,-1.992 8.246,-2.019 8.247,-2.043 8.224,-2.166 8.266,-2.328 8.24,-2.45 8.246,-2.517 8.251,-2.583 8.253,-2.65 H 8.24 C 8.247,-2.679 8.251,-2.702 8.251,-2.726 H 8.24 c 0.006,-0.019 0.006,-0.042 0.006,-0.057 h -0.01 c 0,-0.019 0.004,-0.038 0.004,-0.056 H 8.233 c 0,-0.013 0,-0.027 0.003,-0.045 H 8.224 C 8.233,-2.897 8.233,-2.917 8.233,-2.941 H 8.218 C 8.21,-2.977 8.233,-3.021 8.206,-3.046 8.21,-3.054 8.211,-3.059 8.211,-3.059 c 0.364,-0.005 0.842,-0.054 1.067,0.078 0,0.008 0.007,0.009 0.007,0.022 0.018,0.006 0.032,0.006 0.05,0.011 0.007,0.015 0.021,0.031 0.029,0.044 h 0.024 c 0.007,0.007 0.008,0.012 0.01,0.02 0.02,0.018 0.042,0.032 0.055,0.045 v 0.022 c 0.014,0.015 0.031,0.022 0.046,0.034 -0.003,0.011 -0.003,0.015 -0.004,0.02 0.007,0.004 0.015,0.011 0.022,0.013 0.003,0.011 0.004,0.024 0.004,0.033 h 0.015 c 0.006,0.015 0.007,0.029 0.007,0.045 0.009,0.002 0.015,0.008 0.026,0.013 0,0.018 0,0.036 0.007,0.053 h 0.008 c 0.005,0.016 0.005,0.031 0.009,0.045 H 9.607 C 9.606,-2.552 9.598,-2.541 9.598,-2.53 H 9.61 c 0,0.013 -0.003,0.022 -0.003,0.035 h 0.011 c 0,0.009 0,0.021 -0.004,0.032 H 9.629 C 9.625,-2.45 9.621,-2.441 9.618,-2.428 h 0.02 C 9.635,-2.415 9.632,-2.401 9.632,-2.386 H 9.64 v 0.111 h 0.012 c -10e-4,0.023 -10e-4,0.047 -0.012,0.067 0.027,0.107 -0.002,0.252 0.012,0.363 0,0.033 -10e-4,0.068 -0.012,0.099 0.027,0.118 -0.005,0.265 0.012,0.379 0,0.155 -10e-4,0.308 -0.012,0.46 h 0.012 c 0,0.02 0,0.04 -10e-4,0.056 h 0.012 c -0.005,0.02 -0.011,0.037 -0.011,0.057 h 0.015 c -0.004,0.013 -0.004,0.029 -0.009,0.045 h 0.011 c 0,0.011 0,0.029 -0.002,0.044 h 0.009 c 0,0.011 0,0.029 -0.007,0.042 h 0.015 c 0,0.028 0.004,0.052 0.007,0.08 h 0.011 v 0.029 h 0.007 c -0.002,0.011 -0.002,0.022 -0.007,0.038 h 0.014 c 0,0.009 0,0.016 -0.006,0.027 h 0.015 c 0.002,0.038 0.005,0.076 0.011,0.113 0.015,0.049 0.04,0.107 0.052,0.154 0,0.022 0.004,0.048 0.004,0.066 h 0.011 c -0.001,0.011 -0.001,0.018 -0.004,0.023 h 0.015 c 0.004,0.039 0.011,0.082 0.021,0.124 H 9.203 Z m 9.784,-0.009 H 17.22 c -0.386,0 -0.797,-0.022 -1.088,0.078 L 16.13,0.074 c -0.027,0.01 -0.049,0.011 -0.074,0.017 -0.004,0 -0.004,0.004 -0.004,0.009 -0.014,0 -0.033,0.009 -0.053,0.011 v 0.011 h -0.036 c 0,0.003 -0.002,0.009 -0.002,0.009 -0.016,0.005 -0.033,0.013 -0.054,0.014 v 0.008 h -0.02 C 15.885,0.164 15.872,0.167 15.87,0.174 15.85,0.18 15.835,0.185 15.821,0.187 15.814,0.196 15.807,0.202 15.805,0.213 h -0.028 c -0.003,0.003 -0.009,0.01 -0.016,0.018 h -0.023 c -0.003,0.007 -0.014,0.02 -0.017,0.027 -0.04,0.02 -0.076,0.024 -0.103,0.062 H 15.59 C 15.587,0.309 15.585,0.3 15.583,0.289 15.572,0.282 15.567,0.282 15.561,0.278 15.556,0.262 15.552,0.251 15.552,0.231 15.546,0.231 15.538,0.223 15.527,0.22 15.532,0.214 15.532,0.207 15.532,0.196 L 15.51,0.174 c 0,-0.007 0.002,-0.01 0.002,-0.021 H 15.501 V 0.131 h -0.009 c 0.002,-0.006 0.002,-0.013 0.002,-0.02 H 15.479 C 15.485,0.1 15.485,0.095 15.485,0.091 h -0.013 c 0,-0.007 0,-0.017 0.005,-0.024 h -0.013 c 0.003,-0.009 0.003,-0.016 0.003,-0.025 -0.003,0 -0.011,-0.004 -0.011,-0.004 V 0.023 h -0.011 c 0,-0.005 0,-0.017 0.005,-0.023 h -0.016 c 0,-0.007 0,-0.011 0.005,-0.02 h -0.012 c -0.004,-0.016 -0.004,-0.031 -0.009,-0.044 h -0.009 v -0.023 h -0.013 c 0,-0.015 0.003,-0.02 0.005,-0.033 h -0.013 v -0.025 h -0.012 c 0.009,-0.011 0.009,-0.019 0.009,-0.03 H 15.37 c 0,-0.009 0.004,-0.016 0.004,-0.025 h -0.009 c 0,-0.005 0,-0.022 0.005,-0.033 H 15.356 V -0.249 H 15.343 C 15.339,-0.287 15.339,-0.316 15.335,-0.354 15.27,-0.551 15.26,-0.789 15.246,-1.023 15.285,-1.034 15.29,-1.045 15.318,-1.06 v -0.016 c 0.017,0 0.036,-0.003 0.052,-0.005 0.004,-0.009 0.006,-0.015 0.015,-0.024 h 0.024 v -0.011 c 0.018,-0.004 0.036,-0.007 0.048,-0.011 0.007,-0.003 0.007,-0.011 0.007,-0.011 0.013,0 0.024,0 0.037,-0.002 v -0.011 h 0.037 c 0,0 0,-10e-4 10e-4,-0.009 h 0.037 c 0.003,0 0.003,-0.01 0.003,-0.01 h 0.039 v -0.009 h 0.058 v -0.017 h 0.078 v -0.011 h 1.792 c -0.002,-0.018 -0.011,-0.038 -0.016,-0.064 -0.006,-0.001 -0.011,-0.005 -0.024,-0.008 0,-0.01 0,-0.015 0.007,-0.026 h -0.011 c 0,-0.006 0,-0.009 0.002,-0.017 h -0.009 c 0,-0.016 0,-0.027 0.004,-0.032 H 17.486 C 17.482,-1.37 17.482,-1.389 17.477,-1.401 h -0.015 c 0.006,-0.013 0.007,-0.024 0.007,-0.037 h -0.01 v -0.018 h -0.011 c -0.022,-0.107 -0.036,-0.214 -0.057,-0.321 0.008,-0.38 0.011,-0.753 0.011,-1.127 h -0.005 c 0.002,-0.037 0.005,-0.068 0.005,-0.097 h -0.005 c 0.002,-0.036 0.005,-0.069 0.005,-0.101 h -0.005 c 0.002,-0.031 0.005,-0.066 0.005,-0.101 h -0.005 c 0.002,-0.03 0.005,-0.065 0.015,-0.099 h -0.013 c 0.003,-0.031 0.005,-0.068 0.013,-0.099 h -0.013 c 0.003,-0.036 0.005,-0.063 0.013,-0.098 -0.033,-0.147 0.014,-0.339 -0.01,-0.489 0.002,-0.098 0.01,-0.196 0.015,-0.298 -0.015,-0.129 -0.02,-0.259 -0.038,-0.398 H 17.37 C 17.362,-4.713 17.362,-4.747 17.357,-4.78 17.349,-4.815 17.324,-4.853 17.323,-4.893 h 0.974 c 0.144,-0.002 0.339,-0.02 0.419,0.035 0.013,0.018 0.029,0.04 0.042,0.056 0.007,0 0.015,0.004 0.02,0.011 v 0.018 c 0.008,0.006 0.019,0.007 0.022,0.017 v 0.021 c 0.004,0 0.005,0 0.009,0.002 0,0 0,0.009 -0.004,0.02 h 0.015 c -0.004,0.006 -0.004,0.022 -0.004,0.029 h 0.011 v 0.037 h 0.007 v 0.041 h 0.008 c -0.006,0.02 -0.006,0.04 -0.008,0.061 h 0.011 c -0.003,0.029 -0.009,0.061 -0.011,0.094 h 0.011 c -0.003,0.036 -0.009,0.065 -0.011,0.104 h 0.011 c -0.009,0.034 -0.011,0.07 -0.011,0.105 h 0.008 c -0.006,0.036 -0.008,0.069 -0.008,0.103 h 0.008 c -0.006,0.032 -0.008,0.07 -0.015,0.106 h 0.009 c -0.002,0.036 -0.003,0.069 -0.009,0.1 h 0.009 c -0.002,0.034 -0.003,0.076 -0.009,0.114 h 0.007 c 0,0.062 -0.007,0.137 -0.014,0.21 h 0.014 c -0.001,0.03 -0.007,0.065 -0.014,0.098 0.022,0.123 -0.015,0.294 0.007,0.417 -0.007,0.035 -0.011,0.073 -0.018,0.113 h 0.014 c -0.003,0.033 -0.007,0.064 -0.014,0.097 0.025,0.125 -0.012,0.296 0.007,0.421 -10e-4,0.036 -0.007,0.073 -0.012,0.111 0.023,0.128 -0.018,0.297 0.005,0.42 -0.004,0.035 -0.009,0.075 -0.012,0.109 0.023,0.153 -0.024,0.369 0.003,0.518 -0.003,0.034 -0.007,0.067 -0.011,0.098 0.011,0.077 0.011,0.176 0.027,0.247 -10e-4,0.018 -0.007,0.035 -0.007,0.053 h 0.011 v 0.091 h 0.014 v 0.089 h 0.011 c -0.003,0.011 -0.003,0.029 -0.009,0.04 h 0.018 c -0.003,0.013 -0.005,0.024 -0.005,0.033 h 0.013 c 0,0.014 0,0.027 -0.008,0.034 h 0.017 c -0.002,0.017 -0.007,0.029 -0.007,0.046 h 0.012 c -0.003,0.011 -0.005,0.02 -0.005,0.03 h 0.009 c 0,0.011 -0.002,0.028 -0.002,0.037 h 0.016 c -0.005,0.007 -0.007,0.018 -0.007,0.033 h 0.011 v 0.036 h 0.009 c 0,0.007 -0.003,0.018 -0.003,0.029 h 0.011 c -0.003,0.009 -0.003,0.02 -0.008,0.033 h 0.02 c -0.005,0.011 -0.005,0.022 -0.011,0.032 h 0.015 c 0.007,0.033 0.007,0.068 0.013,0.101 h 0.012 v 0.021 h 0.008 c 0,0.017 0,0.022 -0.004,0.031 h 0.013 c 0,0.016 -0.004,0.027 -0.004,0.035 h 0.015 c -0.006,0.011 -0.006,0.023 -0.006,0.036 h 0.009 v 0.018 h 0.014 c -0.003,0.015 -0.011,0.031 -0.011,0.044 h 0.011 c 0,0.027 -0.003,0.027 -0.014,0.049 M 6.781,0 H 6.661 C 6.655,0.006 6.654,0.006 6.654,0.016 H 6.564 V 0.023 H 6.501 v 0.01 H 6.443 C 6.33,0.065 6.221,0.091 6.119,0.122 6.119,0.125 6.118,0.131 6.118,0.131 6.088,0.144 6.065,0.145 6.04,0.153 6.037,0.158 6.037,0.164 6.037,0.167 H 6.01 V 0.174 H 5.988 c 0,0.006 -0.001,0.013 -0.001,0.013 -0.01,0 -0.018,0 -0.029,0.004 V 0.196 H 5.934 V 0.213 H 5.908 V 0.22 H 5.883 V 0.231 H 5.855 C 5.854,0.238 5.848,0.251 5.841,0.258 5.801,0.278 5.773,0.278 5.747,0.309 H 5.709 C 5.709,0.3 5.701,0.289 5.701,0.278 5.696,0.273 5.685,0.269 5.676,0.269 5.681,0.258 5.681,0.254 5.681,0.244 5.674,0.238 5.669,0.231 5.659,0.231 5.658,0.22 5.652,0.213 5.648,0.196 H 5.64 C 5.64,0.185 5.63,0.167 5.63,0.153 5.62,0.149 5.616,0.145 5.61,0.145 5.61,0.131 5.605,0.116 5.605,0.1 5.596,0.095 5.584,0.091 5.578,0.091 5.573,0.067 5.573,0.042 5.559,0.023 5.558,0.018 5.545,0.018 5.54,0.016 c 0,-0.01 0.003,-0.02 0.003,-0.025 L 5.52,-0.031 V -0.058 H 5.512 c 0,0 0.002,-0.013 0.002,-0.018 H 5.498 c 0,-0.011 0.005,-0.018 0.005,-0.026 H 5.492 c 0,-0.005 0.006,-0.013 0.006,-0.018 H 5.484 c 0,-0.011 0.001,-0.016 0.001,-0.025 H 5.474 c 0,-0.004 0.004,-0.015 0.004,-0.019 H 5.463 c 0.004,-0.01 0.004,-0.018 0.004,-0.027 H 5.451 C 5.448,-0.205 5.443,-0.233 5.441,-0.249 H 5.427 c 0,-0.015 0.002,-0.027 0.002,-0.038 H 5.418 C 5.418,-0.3 5.416,-0.316 5.416,-0.331 H 5.401 c 0,-0.012 0.002,-0.023 0.002,-0.034 H 5.392 V -0.389 H 5.381 c 0,-0.011 0,-0.02 0.006,-0.031 H 5.374 V -0.438 H 5.362 c 0,-0.036 -0.004,-0.069 -0.008,-0.105 H 5.345 v -0.02 H 5.332 c 0,-0.011 0.002,-0.02 0.002,-0.033 H 5.323 C 5.325,-0.611 5.325,-0.627 5.331,-0.64 H 5.316 c 0,-0.014 0,-0.023 0.007,-0.034 H 5.31 c 0,-0.013 0,-0.024 0.004,-0.031 H 5.301 V -0.789 H 5.284 C 5.29,-0.8 5.29,-0.814 5.29,-0.829 H 5.278 C 5.284,-0.838 5.284,-0.856 5.284,-0.874 H 5.274 C 5.263,-0.909 5.284,-0.936 5.262,-0.96 5.284,-1.011 5.323,-1.011 5.373,-1.038 5.374,-1.045 5.378,-1.052 5.381,-1.059 h 0.028 c 0,0 0,-0.006 0.007,-0.017 h 0.018 c 0.182,-0.091 0.332,-0.136 0.613,-0.131 0.008,-0.136 -0.014,-0.287 -0.044,-0.392 0,-0.015 0,-0.024 0.004,-0.035 H 5.994 C 5.992,-1.656 5.988,-1.679 5.987,-1.701 h -0.01 c 0,-0.013 -0.001,-0.027 -0.008,-0.045 H 5.958 C 5.951,-1.777 5.94,-1.812 5.934,-1.845 5.927,-1.845 5.921,-1.85 5.91,-1.856 5.908,-1.872 5.898,-1.899 5.896,-1.921 5.888,-1.925 5.879,-1.927 5.87,-1.932 5.876,-1.938 5.876,-1.95 5.876,-1.956 5.87,-1.959 5.859,-1.959 5.854,-1.965 c 0,-0.011 0,-0.012 0.001,-0.022 -0.014,-0.009 -0.025,-0.018 -0.034,-0.025 0,-0.007 0,-0.011 0.002,-0.022 C 5.814,-2.039 5.799,-2.047 5.79,-2.054 V -2.077 H 5.783 C 5.765,-2.097 5.745,-2.121 5.727,-2.141 5.673,-2.132 5.681,-2.106 5.645,-2.085 H 5.62 C 5.584,-2.054 5.545,-2.023 5.503,-1.987 5.394,-1.899 5.29,-1.816 5.18,-1.732 5.123,-1.687 5.074,-1.645 5.025,-1.599 H 5.011 C 5.007,-1.596 5,-1.587 4.998,-1.579 H 4.973 c -0.044,0.04 -0.082,0.074 -0.132,0.111 -0.085,0.07 -0.174,0.143 -0.268,0.211 -0.082,0.061 -0.16,0.13 -0.237,0.198 C 4.224,-0.996 4.14,-0.912 4.045,-0.838 4,-0.809 3.956,-0.77 3.907,-0.741 c 0,0.011 0,0.016 -10e-4,0.021 -0.039,0.026 -0.073,0.051 -0.113,0.08 0,0.009 0,0.013 -0.004,0.02 -0.008,0.006 -0.012,0.009 -0.023,0.013 0,0.004 -0.004,0.011 -0.004,0.011 -0.011,0.005 -0.024,0.015 -0.038,0.022 0,0.009 0,0.016 -0.004,0.02 -0.013,0.011 -0.024,0.018 -0.039,0.022 v 0.025 c -0.017,0.007 -0.028,0.015 -0.043,0.018 0,0.009 0,0.018 -10e-4,0.024 -0.015,0.007 -0.028,0.014 -0.041,0.027 0,0.003 -0.003,0.009 -0.003,0.018 -0.007,0.006 -0.02,0.007 -0.026,0.011 -0.001,0.009 -0.001,0.017 -0.001,0.02 -0.016,0.013 -0.029,0.015 -0.044,0.024 0,0.009 0,0.014 -0.004,0.022 -0.005,0.005 -0.016,0.009 -0.022,0.012 -0.007,0.015 -0.014,0.02 -0.015,0.031 H 3.466 c -0.006,0.015 -0.013,0.031 -0.018,0.051 -0.008,0 -0.022,0.002 -0.03,0.006 C 3.415,-0.229 3.411,-0.213 3.404,-0.2 3.395,-0.196 3.382,-0.191 3.375,-0.191 3.37,-0.174 3.366,-0.16 3.362,-0.145 3.35,-0.138 3.339,-0.136 3.329,-0.133 3.32,-0.107 3.308,-0.087 3.298,-0.064 h -0.01 c 0,0.006 -0.004,0.013 -0.004,0.02 H 3.271 c 0,0.008 -0.004,0.013 -0.007,0.024 H 3.259 C 3.255,-0.011 3.255,-0.007 3.255,0 H 3.239 c 0,0.006 0,0.018 -0.006,0.023 H 3.22 C 3.219,0.038 3.209,0.051 3.206,0.067 H 3.193 C 3.188,0.084 3.184,0.095 3.173,0.111 H 3.164 C 3.16,0.118 3.16,0.125 3.159,0.131 H 3.148 c 0,0.013 0,0.014 -0.002,0.022 H 3.133 c -0.018,0.032 0,0.034 -0.031,0.06 L 3.086,0.22 C 3.078,0.202 3.06,0.174 3.046,0.153 3.035,0.145 3.026,0.144 3.011,0.131 3.011,0.125 3.013,0.118 3.017,0.111 3.006,0.1 2.992,0.095 2.978,0.091 2.982,0.084 2.984,0.074 2.984,0.067 2.978,0.065 2.967,0.058 2.962,0.055 2.962,0.047 2.966,0.042 2.966,0.033 2.95,0.023 2.939,0.018 2.928,0.016 2.935,0.006 2.935,-0.004 2.935,-0.009 2.922,-0.011 2.915,-0.018 2.911,-0.02 2.906,-0.031 2.906,-0.044 2.897,-0.058 H 2.889 c 0,0 0,-0.013 0.006,-0.018 C 2.881,-0.087 2.87,-0.094 2.856,-0.102 2.855,-0.115 2.855,-0.131 2.852,-0.145 c -0.01,0 -0.015,-0.004 -0.024,-0.011 V -0.174 C 2.822,-0.182 2.815,-0.183 2.808,-0.191 2.808,-0.196 2.811,-0.205 2.811,-0.205 2.8,-0.213 2.799,-0.218 2.788,-0.222 2.785,-0.233 2.785,-0.249 2.781,-0.264 2.771,-0.269 2.764,-0.271 2.756,-0.276 2.755,-0.289 2.755,-0.305 2.753,-0.316 2.741,-0.325 2.737,-0.327 2.726,-0.331 2.724,-0.345 2.722,-0.365 2.722,-0.376 2.713,-0.376 2.708,-0.383 2.697,-0.389 2.695,-0.4 2.695,-0.414 2.693,-0.431 H 2.674 C 2.678,-0.435 2.678,-0.445 2.686,-0.453 H 2.671 V -0.474 H 2.659 C 2.663,-0.485 2.663,-0.492 2.666,-0.5 H 2.653 c 0,-0.005 0,-0.011 0.003,-0.016 H 2.642 c 0,-0.009 0,-0.018 0.006,-0.027 H 2.633 v -0.02 H 2.619 C 2.626,-0.569 2.626,-0.58 2.626,-0.583 H 2.611 c 0,-0.011 0.004,-0.017 0.004,-0.024 H 2.604 c 0,-0.007 0,-0.015 0.006,-0.02 H 2.597 C 2.588,-0.654 2.582,-0.674 2.581,-0.698 H 2.564 C 2.57,-0.705 2.57,-0.72 2.57,-0.727 H 2.559 V -0.749 H 2.548 c 0,-0.016 -0.004,-0.032 -0.007,-0.045 H 2.528 c 0,-0.02 -0.002,-0.037 -0.002,-0.057 H 2.513 c 0,-0.012 0.002,-0.023 0.002,-0.034 H 2.507 c 0,-0.011 10e-4,-0.022 0,-0.031 H 2.499 V -0.94 H 2.488 c 0,-0.009 0.004,-0.02 0.004,-0.032 h -0.01 c 0,-0.011 0,-0.024 0.003,-0.033 H 2.47 c 0,-0.018 0,-0.044 -0.004,-0.071 H 2.453 c 0.01,-0.056 0.022,-0.056 0.054,-0.094 10e-4,-0.009 10e-4,-0.017 10e-4,-0.026 0.007,0 0.018,-0.004 0.033,-0.011 0.003,-0.018 0.015,-0.038 0.029,-0.063 0.007,-0.002 0.016,-0.006 0.027,-0.009 v -0.026 c 0.007,-0.006 0.018,-0.006 0.029,-0.009 v -0.024 c 0.007,-0.003 0.022,-0.003 0.027,-0.011 0.003,-0.003 0.003,-0.018 0.003,-0.018 h 0.015 c 0,-0.011 0.003,-0.023 0.015,-0.034 0.007,-0.008 0.017,-0.011 0.025,-0.013 0,-0.003 0,-0.016 0.002,-0.024 0.009,-0.003 0.018,-0.003 0.028,-0.009 0.003,-0.009 0.012,-0.021 0.015,-0.034 0.021,-0.013 0.032,-0.02 0.055,-0.029 0,-0.011 0.004,-0.02 0.004,-0.026 0.013,-0.005 0.037,-0.02 0.051,-0.032 C 2.87,-1.576 2.87,-1.581 2.871,-1.587 2.899,-1.614 2.935,-1.634 2.967,-1.663 V -1.679 C 3.033,-1.725 3.095,-1.776 3.16,-1.823 3.228,-1.872 3.292,-1.95 3.37,-1.987 3.362,-2.039 3.308,-2.079 3.277,-2.121 3.264,-2.125 3.259,-2.126 3.251,-2.132 3.255,-2.137 3.255,-2.145 3.255,-2.157 3.233,-2.166 3.217,-2.181 3.195,-2.197 c 0,-0.01 0.007,-0.018 0.007,-0.024 C 3.188,-2.224 3.178,-2.232 3.166,-2.241 3.17,-2.252 3.171,-2.252 3.171,-2.266 3.159,-2.272 3.148,-2.275 3.133,-2.288 c 0,-0.011 0,-0.018 -0.009,-0.029 -0.007,0 -0.013,-0.011 -0.02,-0.011 0,-0.013 0,-0.018 0.004,-0.024 -0.006,-0.005 -0.016,-0.005 -0.026,-0.013 0,-0.005 0,-0.012 0.004,-0.021 C 3.078,-2.39 3.073,-2.393 3.066,-2.395 3.06,-2.408 3.059,-2.415 3.053,-2.428 H 3.046 c 0,-0.011 0,-0.015 0.002,-0.022 C 3.039,-2.457 3.031,-2.461 3.02,-2.463 3.026,-2.47 3.026,-2.479 3.026,-2.486 3.019,-2.49 3.011,-2.49 3.004,-2.495 3.002,-2.512 2.997,-2.523 2.997,-2.541 2.989,-2.545 2.982,-2.545 2.973,-2.552 2.973,-2.563 2.967,-2.581 2.967,-2.595 2.956,-2.597 2.95,-2.601 2.944,-2.606 V -2.628 L 2.922,-2.65 c 0,-0.004 0,-0.014 0.006,-0.022 H 2.915 V -2.695 H 2.906 c 0,-0.007 0,-0.009 0.005,-0.022 H 2.895 C 2.897,-2.723 2.897,-2.732 2.897,-2.739 H 2.889 V -2.763 H 2.875 c 0.006,-0.005 0.006,-0.009 0.006,-0.02 H 2.866 C 2.87,-2.791 2.87,-2.797 2.871,-2.802 H 2.856 c 0,-0.01 0.008,-0.019 0.01,-0.024 H 2.852 c 0,-0.013 -0.01,-0.028 -0.01,-0.042 H 2.828 c 0,-0.009 0,-0.016 0.003,-0.024 H 2.82 C 2.822,-2.904 2.822,-2.917 2.822,-2.926 H 2.815 C 2.811,-2.941 2.808,-2.953 2.808,-2.972 H 2.788 C 2.799,-2.981 2.799,-2.991 2.799,-3.001 H 2.785 c 0.003,-0.01 0.003,-0.02 0.003,-0.025 H 2.777 c 0,-0.016 0,-0.038 -0.006,-0.058 H 2.756 C 2.755,-3.113 2.753,-3.144 2.744,-3.181 H 2.737 c 0,-0.007 0,-0.012 0.004,-0.021 H 2.726 C 2.719,-3.253 2.713,-3.297 2.708,-3.348 H 2.695 C 2.697,-3.357 2.697,-3.37 2.697,-3.377 H 2.688 C 2.693,-3.39 2.693,-3.401 2.693,-3.41 H 2.678 C 2.674,-3.452 2.671,-3.492 2.671,-3.539 H 2.659 c 0,-0.005 0.004,-0.023 0.007,-0.04 C 2.642,-3.67 2.639,-3.791 2.619,-3.891 2.615,-4.062 2.615,-4.242 2.615,-4.414 H 2.604 V -4.529 H 2.597 V -4.571 H 2.586 c 0,-0.015 0.002,-0.033 0.006,-0.044 H 2.581 C 2.582,-4.628 2.582,-4.636 2.586,-4.647 H 2.57 C 2.574,-4.66 2.577,-4.68 2.577,-4.691 H 2.564 C 2.552,-4.756 2.535,-4.827 2.515,-4.893 h 1.832 c 0.005,0.024 0.008,0.048 0.022,0.066 h 0.008 c -0.004,0.009 -0.004,0.02 -0.004,0.025 0.007,0 0.012,0.004 0.022,0.011 0.005,0.018 0.01,0.044 0.019,0.066 h 0.011 c -0.003,0.007 -0.003,0.012 -0.003,0.018 h 0.013 v 0.023 h 0.01 c 0,0.011 0,0.017 -0.007,0.026 h 0.018 c -0.001,0.007 -0.001,0.011 -0.001,0.022 h 0.007 c 0.004,0.016 0.004,0.027 0.007,0.043 h 0.009 c 0.004,0.013 0.011,0.029 0.011,0.048 H 4.5 c 0,0.01 0.003,0.029 0.009,0.041 h 0.009 c 0,0.009 0,0.02 -0.007,0.031 h 0.014 v 0.022 h 0.013 c 0,0.018 0.007,0.031 0.007,0.042 h 0.013 c -0.003,0.013 -0.006,0.023 -0.006,0.034 h 0.011 v 0.028 h 0.01 c 0,0.016 10e-4,0.034 10e-4,0.05 h 0.017 c 0,0.011 -0.002,0.026 -0.004,0.033 h 0.011 c 0,0.009 -0.006,0.015 -0.006,0.022 h 0.013 v 0.036 h 0.013 c -0.007,0.004 -0.007,0.022 -0.007,0.033 h 0.011 c 0,0.013 0,0.022 -0.004,0.034 h 0.011 c 0,0.01 0,0.024 -0.002,0.032 h 0.015 c -0.004,0.005 -0.004,0.016 -0.008,0.021 h 0.017 c 0.016,0.128 0.03,0.249 0.049,0.377 H 3.848 c -0.013,0.081 -0.011,0.156 0.005,0.217 0,0.059 0,0.122 0.003,0.179 0.021,0.131 0.05,0.254 0.068,0.387 h 0.013 c 0.007,0.016 0.007,0.034 0.007,0.058 0.004,0 0.007,0 0.012,0.002 0,0 0,0.012 -0.005,0.016 h 0.012 c 0,0.011 0,0.024 -0.003,0.033 h 0.013 c 0.004,0.015 0.004,0.027 0.005,0.045 h 0.015 c 0,0.004 -0.006,0.013 -0.006,0.022 H 4 v 0.024 h 0.007 v 0.022 l 0.026,0.021 c -0.006,0.004 -0.006,0.013 -0.006,0.024 0.013,0.005 0.015,0.007 0.021,0.009 v 0.022 c 0.011,0.018 0.036,0.055 0.054,0.067 0.009,0.009 -0.006,0 0.009,0.009 0.033,-0.043 0.094,-0.071 0.14,-0.107 0.089,-0.08 0.184,-0.158 0.274,-0.233 H 4.552 C 4.558,-2.897 4.563,-2.91 4.569,-2.917 H 4.58 C 4.689,-3.008 4.803,-3.101 4.914,-3.19 4.989,-3.253 5.069,-3.31 5.147,-3.37 5.176,-3.393 5.205,-3.417 5.232,-3.442 h 0.024 c 0.118,-0.102 0.242,-0.2 0.36,-0.302 0.161,-0.129 0.324,-0.249 0.489,-0.371 V -4.139 C 6.129,-4.16 6.159,-4.178 6.187,-4.202 v -0.02 c 0.016,-0.011 0.034,-0.02 0.054,-0.027 0,-0.008 0.002,-0.02 0.002,-0.022 0.018,-0.015 0.04,-0.026 0.056,-0.033 0.002,-0.009 0.002,-0.02 0.002,-0.023 0.017,-0.012 0.025,-0.019 0.042,-0.02 v -0.028 c 0.007,-0.002 0.018,-0.007 0.027,-0.011 0,-0.005 0,-0.012 0.004,-0.023 0.012,-0.002 0.027,-0.011 0.042,-0.02 0,-0.004 0,-0.013 0.003,-0.022 0.007,0 0.011,-0.004 0.024,-0.009 0.005,-0.013 0.011,-0.024 0.016,-0.035 h 0.013 c 0,-0.007 0,-0.02 0.005,-0.021 0.009,0 0.017,-0.007 0.024,-0.013 0.006,-0.013 0.009,-0.027 0.016,-0.042 0.008,-0.005 0.024,-0.009 0.03,-0.013 0.003,-0.014 0.012,-0.027 0.017,-0.044 0.011,-10e-4 0.019,-0.005 0.028,-0.008 0.007,-0.022 0.022,-0.048 0.03,-0.071 0.006,0 0.017,-0.006 0.026,-0.006 0.006,-0.011 0.007,-0.021 0.007,-0.021 L 6.679,-4.756 C 6.681,-4.767 6.681,-4.773 6.681,-4.78 h 0.014 c 0,-0.009 0,-0.018 0.004,-0.022 H 6.71 c 0.002,-0.005 0.002,-0.016 0.002,-0.025 h 0.013 c 0,-0.006 0.007,-0.013 0.007,-0.018 H 6.739 C 6.743,-4.854 6.743,-4.86 6.743,-4.869 h 0.012 v -0.024 h 0.02 c 0.006,-0.02 0.02,-0.044 0.03,-0.069 h 0.012 c 0.027,-0.032 0.013,-0.049 0.047,-0.078 0,0 0,-0.003 0.002,-0.009 h 0.015 c 0.009,0.029 0.024,0.051 0.04,0.071 0.007,0 0.012,0.004 0.026,0.009 0,0.007 -0.003,0.016 -0.008,0.024 0.009,0.005 0.025,0.012 0.033,0.02 v 0.023 c 0.011,0.004 0.022,0.015 0.034,0.022 -0.003,0.005 -0.003,0.013 -0.003,0.022 0.005,0.005 0.025,0.013 0.036,0.025 -0.003,0 -0.006,0.015 -0.006,0.019 0.01,0.007 0.017,0.007 0.026,0.012 0,0.004 -0.001,0.013 -0.001,0.022 0.004,0.007 0.019,0.013 0.032,0.024 -0.004,0.003 -0.004,0.011 -0.004,0.022 0.004,0.001 0.013,0.001 0.024,0.009 0,0.012 0.005,0.027 0.005,0.041 0.011,0.004 0.013,0.011 0.024,0.017 0.004,0.009 0.004,0.02 0.008,0.031 h 0.011 v 0.021 H 7.17 c 0,0.006 0,0.011 -0.006,0.022 0.009,0.005 0.02,0.007 0.026,0.009 0.003,0.026 0.007,0.042 0.013,0.068 0.007,0.001 0.015,0.001 0.025,0.012 -0.002,0.006 -0.002,0.009 -0.002,0.02 l 0.018,0.024 c 0,0.009 -10e-4,0.011 -10e-4,0.022 h 0.01 v 0.024 h 0.011 v 0.018 h 0.013 c 0,0.008 0,0.014 -0.006,0.021 h 0.013 c 0,0.011 0,0.018 -0.005,0.028 0.005,0 0.009,0 0.013,0.001 v 0.019 h 0.011 v 0.023 H 7.31 c 0.007,0.018 0.012,0.04 0.016,0.062 H 7.34 c 0.004,0.02 0.004,0.04 0.004,0.058 h 0.011 c 0,0.011 0.007,0.027 0.007,0.045 h 0.015 v 0.032 h 0.005 v 0.021 h 0.015 c -0.004,0.011 -0.004,0.02 -0.007,0.033 h 0.014 c 0,0.009 -0.007,0.013 -0.007,0.02 H 7.41 c 0.004,0.022 0.004,0.045 0.005,0.069 h 0.013 c 0,0.022 0.005,0.044 0.005,0.064 H 7.44 v 0.027 h 0.013 c 0,0.024 0,0.049 0.006,0.073 0.005,0.021 0.036,0.098 0.014,0.134 H 7.464 C 7.459,-3.659 7.459,-3.655 7.459,-3.642 H 7.45 C 7.446,-3.638 7.446,-3.628 7.446,-3.626 H 7.433 c 0,0.009 0,0.017 -0.005,0.024 H 7.415 c 0,0.012 -0.001,0.018 -0.001,0.023 l -0.032,0.022 v 0.018 c -0.005,0.006 -0.02,0.012 -0.027,0.017 -0.005,0.018 -0.011,0.03 -0.015,0.045 -0.012,0 -0.018,0.006 -0.03,0.013 v 0.022 c -0.007,0 -0.018,0.005 -0.026,0.005 0,0.009 -0.005,0.02 -0.005,0.027 H 7.268 C 7.264,-3.401 7.255,-3.39 7.25,-3.377 7.243,-3.375 7.237,-3.37 7.226,-3.37 c 0,0.008 0,0.021 -0.004,0.022 -0.012,0.007 -0.025,0.016 -0.038,0.026 0,0.005 0,0.012 -0.005,0.02 -0.015,0.007 -0.028,0.016 -0.039,0.021 -10e-4,0.008 -10e-4,0.019 -10e-4,0.024 -0.024,0.011 -0.04,0.024 -0.056,0.035 v 0.02 c -0.024,0.014 -0.05,0.03 -0.075,0.041 v 0.028 C 6.961,-3.101 6.906,-3.064 6.859,-3.026 6.79,-2.972 6.719,-2.91 6.648,-2.85 H 6.625 C 6.599,-2.826 6.579,-2.802 6.552,-2.783 H 6.528 c 0,0.006 -0.003,0.011 -0.003,0.011 -0.031,0.022 -0.059,0.055 -0.106,0.068 v 0.021 c 0.011,0.004 0.024,0.004 0.035,0.011 0,0.008 0.005,0.018 0.012,0.022 0.011,0.013 0.028,0.022 0.041,0.029 0.047,0.051 0.092,0.109 0.137,0.158 0.024,0.022 0.055,0.048 0.081,0.068 v 0.025 c 0.018,0.013 0.039,0.029 0.065,0.053 0,0.009 -0.002,0.011 -0.002,0.018 0.006,0.007 0.013,0.007 0.022,0.011 0,0.013 0,0.022 0.007,0.036 0.016,0.011 0.03,0.024 0.044,0.031 0,0.006 0,0.014 -0.002,0.024 0.016,0.011 0.022,0.016 0.036,0.022 -10e-4,0.009 -0.005,0.014 -0.005,0.018 0.011,0.007 0.016,0.012 0.026,0.016 -0.006,0.009 -0.006,0.015 -0.006,0.02 0.009,0.004 0.015,0.007 0.023,0.015 0.006,0.009 0.006,0.021 0.014,0.029 h 0.011 c -0.01,0.012 -0.01,0.016 -0.01,0.023 0.013,0.002 0.022,0.007 0.024,0.011 0.003,0.017 0.007,0.031 0.011,0.047 0.007,0 0.016,0.004 0.02,0.009 0.005,0.01 0.005,0.022 0.005,0.031 h 0.02 c 0.001,0.024 0.008,0.046 0.011,0.068 0.008,10e-4 0.019,0.011 0.023,0.018 v 0.014 l 0.021,0.022 v 0.022 H 7.09 v 0.022 c 0.009,0.007 0.015,0.007 0.02,0.013 0.005,0.012 0.005,0.031 0.015,0.045 h 0.003 v 0.022 h 0.015 c 0.004,0.023 0.008,0.04 0.015,0.065 H 7.172 C 7.17,-1.634 7.17,-1.623 7.164,-1.614 h 0.015 c 0,0.009 0,0.018 -0.006,0.027 h 0.013 c 0,0.006 0,0.011 -0.002,0.019 h 0.013 c 0.006,0.027 0.011,0.047 0.013,0.067 h 0.016 c -0.004,0.007 -0.008,0.02 -0.008,0.033 h 0.011 c 0.008,0.014 0.008,0.027 0.008,0.043 H 7.25 c 0,0.011 0,0.024 -0.006,0.035 h 0.013 c 0,0.005 0,0.014 -0.002,0.023 h 0.013 c 0.003,0.015 0.003,0.037 0.009,0.053 h 0.007 c 0,0.009 0,0.022 -0.005,0.035 h 0.013 v 0.022 h 0.011 c 0.003,0.019 0.003,0.045 0.003,0.061 h 0.011 c 0,0.009 -0.002,0.017 -0.002,0.026 h 0.011 c 0,0.01 -10e-4,0.019 -10e-4,0.032 h 0.012 c 0,0.011 0,0.022 -0.008,0.033 h 0.015 c 0,0.015 -0.004,0.024 0,0.029 h 0.011 c 0,0.017 -0.005,0.027 -0.005,0.038 h 0.005 v 0.033 H 7.37 c 0,0.009 -0.008,0.022 -0.008,0.033 h 0.015 c 0,0.012 0,0.023 -0.007,0.032 h 0.012 c 0.008,0.039 0.008,0.077 0.011,0.111 h 0.013 c 0.004,0.048 0.015,0.099 0.019,0.142 h 0.01 c 0.005,0.04 0.011,0.076 0.015,0.113 h 0.009 c 0,0.016 0,0.031 -0.006,0.042 H 7.47 c 0.003,0.04 0.003,0.074 0.003,0.112 H 7.49 c 0.005,0.046 0.013,0.095 0.016,0.144 h 0.015 c 0,0.012 -0.004,0.027 -0.01,0.033 h 0.015 c 0,0.01 -0.002,0.021 -0.002,0.038 h 0.009 c 0,0.009 -0.001,0.023 -0.004,0.041 H 7.544 C 7.539,-0.156 7.539,-0.145 7.539,-0.133 H 7.55 c 0.003,0.039 0.003,0.075 0.009,0.113 h 0.014 v 0.011 H 7.05 C 6.964,-0.009 6.847,-0.018 6.781,0 M 22.363,-0.009 H 20.594 V 0 h -0.111 v 0.016 c -0.025,0 -0.051,0 -0.08,0.002 v 0.005 h -0.06 C 20.238,0.051 20.136,0.084 20.036,0.111 V 0.122 C 20.014,0.125 20,0.131 19.979,0.131 v 0.014 h -0.036 v 0.008 c -0.016,0.005 -0.035,0.011 -0.05,0.014 -0.004,0 -0.004,0.007 -0.004,0.007 h -0.027 c -0.004,0.011 -0.01,0.017 -0.017,0.022 -0.024,0.011 -0.048,0.018 -0.073,0.024 -0.009,0.011 -0.012,0.011 -0.018,0.024 -0.025,0.01 -0.05,0.014 -0.075,0.025 -0.003,0.004 -0.008,0.013 -0.017,0.02 H 19.64 V 0.3 C 19.618,0.309 19.615,0.305 19.589,0.309 19.582,0.269 19.562,0.26 19.547,0.231 V 0.213 c 0,-0.006 -0.011,-0.011 -0.018,-0.017 0,-0.011 -0.008,-0.029 -0.011,-0.043 h -0.01 V 0.131 h -0.01 V 0.111 L 19.482,0.091 V 0.067 C 19.478,0.065 19.465,0.058 19.458,0.055 c 0.004,-0.008 0.004,-0.013 0,-0.022 h -0.009 c 0.002,-0.01 0.002,-0.015 0.002,-0.017 H 19.44 c 0,-0.016 0,-0.025 0.003,-0.036 H 19.432 C 19.43,-0.044 19.423,-0.064 19.416,-0.087 h -0.011 c 0.004,-0.007 0.004,-0.015 0.004,-0.02 h -0.015 c 0.004,-0.011 0.004,-0.019 0.004,-0.026 h -0.014 c 0,-0.005 0,-0.012 0.006,-0.023 h -0.012 c 0,-0.008 0.001,-0.019 0.001,-0.035 h -0.012 c 0,-0.013 -0.004,-0.027 -0.007,-0.042 h -0.013 c 0.002,-0.01 0.005,-0.016 0.009,-0.031 H 19.34 c 0.005,-0.007 0.005,-0.018 0.005,-0.023 h -0.011 c -0.002,-0.024 -0.002,-0.044 -0.002,-0.067 h -0.017 c 0,-0.011 0.003,-0.011 0.003,-0.022 h -0.011 c 0,-0.024 -0.006,-0.044 -0.006,-0.062 H 19.29 c 0,-0.015 0.004,-0.027 0.004,-0.036 h -0.01 v -0.033 h -0.013 c 0.007,-0.009 0.007,-0.026 0.007,-0.037 h -0.011 c 0,-0.01 0.002,-0.019 0,-0.03 h -0.009 c 0,-0.017 0.006,-0.029 0.006,-0.046 h -0.013 c 0.003,-0.007 0.003,-0.02 0.003,-0.034 h -0.011 c 0.006,-0.015 0.006,-0.027 0.006,-0.044 h -0.011 c 0.004,-0.007 0.004,-0.027 0.005,-0.044 h -0.011 c 0,-0.014 0.006,-0.029 0.006,-0.047 h -0.012 c 0,-0.011 0.006,-0.025 0.006,-0.04 h -0.017 c 0.006,-0.009 0.006,-0.027 0.008,-0.045 h -0.011 c -0.012,-0.038 0.014,-0.084 -0.012,-0.11 0,-0.016 0.007,-0.034 0.012,-0.054 0.009,-0.002 0.024,-0.007 0.037,-0.011 0.002,-0.007 0.009,-0.011 0.015,-0.027 h 0.026 c 0.004,-0.003 0.008,-0.009 0.011,-0.014 0.083,-0.033 0.164,-0.061 0.246,-0.089 H 19.6 c 0.16,-0.046 0.412,-0.028 0.605,-0.028 h 1.192 c 0,-0.02 0,-0.027 -0.004,-0.038 h -0.016 c 0,-0.011 0,-0.02 0.005,-0.026 h -0.016 c 0.004,-0.005 0.004,-0.01 0.008,-0.021 h -0.017 c 0,-0.013 0.007,-0.022 0.007,-0.03 h -0.01 c -0.008,-0.019 -0.008,-0.03 -0.009,-0.045 h -0.017 c 0.004,-0.011 0.004,-0.023 0.004,-0.034 h -0.006 c -0.002,-0.03 -0.002,-0.053 -0.002,-0.08 H 21.312 V -1.51 h -0.011 c 0.003,-0.02 0.003,-0.029 0.011,-0.046 -0.016,-0.051 -0.019,-0.134 -0.027,-0.191 0.001,-0.116 0.008,-0.23 0.008,-0.35 h -0.014 c 0.007,-0.029 0.007,-0.06 0.014,-0.089 -0.034,-0.16 0.011,-0.359 -0.019,-0.518 0.005,-0.055 0.005,-0.104 0.011,-0.153 -0.022,-0.096 -0.031,-0.197 -0.05,-0.287 h -0.014 c 0,-0.017 0,-0.017 0.003,-0.024 h -0.011 v -0.035 h -0.01 c -0.004,-0.019 -0.011,-0.043 -0.015,-0.065 h -0.01 c -0.01,-0.024 -0.013,-0.046 -0.019,-0.065 -0.011,-0.008 -0.014,-0.013 -0.024,-0.015 0,-0.015 -0.007,-0.027 -0.007,-0.042 -0.013,-0.003 -0.02,-0.016 -0.031,-0.02 0,-0.007 0,-0.018 0.003,-0.027 -0.018,-0.005 -0.035,-0.02 -0.048,-0.027 -0.022,-0.029 -0.049,-0.064 -0.073,-0.093 H 20.952 C 20.948,-3.564 20.941,-3.579 20.934,-3.588 H 20.91 c -0.003,-0.007 -0.013,-0.016 -0.013,-0.021 -0.022,-0.01 -0.043,-0.017 -0.071,-0.024 v -0.009 h -0.019 v -0.017 h -0.039 v -0.007 c -0.003,0 -0.016,0 -0.02,-0.002 V -3.682 H 20.7 v -0.004 h -0.048 v -0.013 h -0.091 c 0,-0.003 0,-0.003 0.007,-0.01 h -1.086 c -0.033,-0.048 -0.059,-0.092 -0.084,-0.135 v -0.024 c -0.008,-0.005 -0.014,-0.005 -0.02,-0.005 0,-0.018 -0.007,-0.033 -0.011,-0.047 H 19.36 c -0.004,-0.015 -0.004,-0.028 -0.011,-0.044 h -0.011 c 0.002,-0.009 0.002,-0.024 0.007,-0.033 h -0.013 c 0,-0.016 -0.011,-0.029 -0.011,-0.043 h -0.01 c 0,-0.013 0.004,-0.026 0.004,-0.035 h -0.014 c 0,-0.007 0.006,-0.014 0.006,-0.022 h -0.013 c 0.004,-0.01 0.004,-0.018 0.004,-0.032 h -0.014 c 0,-0.006 0.006,-0.017 0.006,-0.022 h -0.012 c 0,-0.016 0,-0.031 0.004,-0.051 h -0.013 c 0.002,-0.004 0.002,-0.02 0.002,-0.031 h -0.007 c 0,-0.009 0,-0.017 0.003,-0.031 h -0.013 c 0,-0.007 0.004,-0.022 0.004,-0.033 h -0.009 c 0,-0.014 0.002,-0.031 0,-0.042 h -0.011 c 0.004,-0.008 0.005,-0.021 0.004,-0.036 h -0.01 c 0,-0.013 0.006,-0.027 0.006,-0.04 h -0.012 c 0.006,-0.018 0.006,-0.036 0.006,-0.058 h -0.011 c 0.002,-0.012 0.005,-0.029 0.005,-0.043 h -0.011 c 0,-0.017 0,-0.028 0.006,-0.042 h -0.014 c 0.005,-0.022 0.005,-0.041 0.008,-0.057 -0.015,-0.052 -0.015,-0.132 -0.022,-0.187 0,-0.031 0.005,-0.052 0.007,-0.078 h -0.013 c 0,-0.005 0.006,-0.013 0.006,-0.013 h 1.368 c 0.158,0 0.393,-0.02 0.518,0.013 h 0.124 v 0.011 c 0.021,0 0.051,0 0.076,0.002 v 0.009 h 0.075 c 0,0.004 -0.008,0.012 -0.008,0.012 h 0.067 c 0.097,0.028 0.195,0.057 0.297,0.09 -0.003,0.001 -0.003,0.003 -0.006,0.009 0.018,0.002 0.035,0.003 0.05,0.014 l -0.004,0.008 h 0.027 c 0,10e-4 -0.002,0.007 -0.002,0.012 h 0.038 c 0.006,0.006 0.006,0.013 0.009,0.022 h 0.024 v 0.007 h 0.025 l 0.018,0.026 h 0.03 c 0,0.007 0.002,0.011 0.009,0.022 h 0.027 c -0.007,0.003 -0.007,0.007 -0.007,0.008 0.012,0.008 0.023,0.008 0.034,0.013 0.004,0.006 0.014,0.011 0.014,0.022 h 0.025 c 0.005,0.009 0.009,0.022 0.018,0.035 h 0.027 c 0.008,0.014 0.02,0.025 0.031,0.042 h 0.022 c 0.022,0.021 0.036,0.043 0.055,0.065 0.039,0.04 0.079,0.074 0.123,0.112 v 0.024 c 0.007,0.011 0.023,0.018 0.042,0.029 -0.004,0.009 -0.004,0.017 -0.004,0.022 0.013,0.009 0.02,0.014 0.032,0.022 v 0.02 c 0.006,0.013 0.014,0.013 0.025,0.016 0,0.004 0.003,0.022 0.005,0.033 h 0.009 v 0.022 c 0.007,0 0.016,0.005 0.024,0.012 0.003,0.01 0.003,0.024 0.007,0.032 h 0.015 c 0.004,0.021 0.007,0.041 0.012,0.067 0.009,0 0.017,0.005 0.028,0.007 0,0.016 0,0.031 0.005,0.045 h 0.011 c 0.003,0.024 0.007,0.046 0.014,0.068 h 0.009 c 0,0.009 0,0.02 -10e-4,0.029 h 0.018 c 0,0.018 0.002,0.034 0.003,0.047 h 0.013 c -0.004,0.013 -0.004,0.025 -0.004,0.035 h 0.01 c -0.004,0.005 -0.004,0.018 -0.004,0.018 h 0.015 c -0.004,0.012 -0.004,0.022 -0.004,0.034 h 0.011 c -0.002,0.009 -0.002,0.018 -0.002,0.027 H 22.6 v 0.064 h 0.015 v 0.033 h 0.007 c -0.002,0.007 -0.005,0.024 -0.005,0.031 h 0.011 c 0,0.014 0,0.023 -0.006,0.038 h 0.018 c -0.007,0.011 -0.007,0.025 -0.009,0.042 h 0.014 c 0,0.011 -0.005,0.023 -0.005,0.03 h 0.008 c 0,0.015 0,0.032 -0.003,0.05 h 0.015 c -0.005,0.009 -0.005,0.027 -0.012,0.041 h 0.014 c 0,0.013 0,0.031 -0.002,0.044 h 0.013 c -0.009,0.011 -0.009,0.031 -0.009,0.043 h 0.014 v 0.111 h 0.01 c -0.004,0.021 -0.006,0.035 -0.01,0.059 h 0.014 c -0.004,0.02 -0.004,0.042 -0.008,0.06 h 0.014 c -0.006,0.025 -0.01,0.047 -0.01,0.069 h 0.01 c 0,0.062 -0.006,0.118 -0.01,0.176 h 0.01 c 0,0.036 -0.006,0.067 -0.01,0.1 h 0.01 c 0,0.035 -0.01,0.067 -0.01,0.102 h 0.01 c 0,0.027 -0.01,0.056 -0.01,0.085 0.025,0.151 -0.024,0.342 0.01,0.487 -0.006,0.315 -0.01,0.624 -0.014,0.938 0.014,0.154 0.035,0.304 0.049,0.453 0.038,0.141 0.071,0.285 0.106,0.431 h 0.011 c 0,0.01 0,0.014 10e-4,0.021 h 0.009 c 0,0.017 0,0.022 -0.005,0.031 h 0.011 v 0.035 h 0.009 c 0.012,0.041 0.009,0.098 0.022,0.136 -0.111,0.036 -0.397,0.011 -0.534,0.011"
           style="fill:#034ea2;fill-opacity:1;fill-rule:nonzero;stroke:none"
           id="path2131"
           inkscape:connector-curvature="0" />
      </g>
      <g
         id="g2137"
         transform="matrix(4.6742848,0,0,4.6742848,96.211246,216.28309)">
        <path
           d="m 0,0 z m 4.986,-0.433 c 0.185,0.084 0.766,0.182 1.385,0.224 0.617,-0.046 1.199,-0.14 1.386,-0.224 0,0 0.037,-0.02 0.049,-0.025 C 7.93,-0.516 8.052,-0.582 8.052,-0.582 8.121,-0.62 8.195,-0.662 8.275,-0.714 7.868,-0.696 7.454,-0.785 7.083,-0.998 H 7.078 c -0.265,-0.154 -1.149,-0.154 -1.413,0 -0.373,0.213 -0.79,0.302 -1.196,0.284 0.078,0.052 0.155,0.094 0.222,0.132 0,0 0.126,0.066 0.242,0.124 0.012,0.005 0.053,0.025 0.053,0.025"
           style="fill:#ffffff;fill-opacity:1;fill-rule:nonzero;stroke:none"
           id="path2135"
           inkscape:connector-curvature="0" />
      </g>
      <g
         id="g2141"
         transform="matrix(4.6742848,0,0,4.6742848,108.0643,201.25432)">
        <path
           d="m 0,0 c 0,0 0.038,1.19 0.597,1.663 0,0 -0.677,1.15 -3.093,0.996 -2.295,-0.155 -2.379,-2.148 -2.379,-2.737 0,-0.798 0.835,-2.381 3.013,-3.332 2.18,-0.95 3.074,-1.728 3.41,-1.655 C 1.548,-5.065 0,-4.004 0,0 m -2.339,3.053 c 1.944,0 3.251,-0.952 3.251,-0.952 0.12,0.598 0.992,1.031 0.992,1.031 0,0 -1.19,1.664 -1.664,2.817 -0.48,1.148 -1.191,2.255 -2.383,2.255 -1.19,0 -3.606,-0.516 -3.606,-2.697 0,-2.181 1.945,-2.768 1.945,-2.768 0,0 0.592,0.314 1.465,0.314 M 10.167,2.659 C 7.75,2.813 7.077,1.663 7.077,1.663 7.632,1.19 7.673,0 7.673,0 c 0,-4.004 -1.548,-5.065 -1.548,-5.065 0.336,-0.073 1.228,0.705 3.41,1.655 2.177,0.951 3.011,2.534 3.011,3.332 0,0.589 -0.084,2.582 -2.379,2.737 M 9.813,8.204 C 8.622,8.204 7.906,7.097 7.432,5.949 6.958,4.796 5.77,3.132 5.77,3.132 c 0,0 0.871,-0.433 0.994,-1.031 0,0 1.302,0.952 3.245,0.952 0.874,0 1.467,-0.314 1.467,-0.314 0,0 1.944,0.587 1.944,2.768 0,2.181 -2.419,2.697 -3.607,2.697 M 4.82,1.73 c -0.438,-0.254 -1.531,-0.254 -1.964,0 -0.88,0.504 -2.46,0.295 -2.46,-2.084 0,-5.197 3.202,-5.582 3.464,-5.582 0.253,0 3.413,0.385 3.413,5.582 0,2.379 -1.575,2.588 -2.453,2.084 M 2.221,3.29 C 2.642,3.486 3.781,3.562 3.835,3.564 3.893,3.562 5.027,3.486 5.452,3.29 c 0,0 1.469,1.663 1.821,4.398 0.388,2.955 -2.724,2.386 -3.438,2.39 C 3.124,10.085 0.012,10.643 0.396,7.688 0.756,4.953 2.221,3.29 2.221,3.29"
           style="fill:#ed1d24;fill-opacity:1;fill-rule:nonzero;stroke:none"
           id="path2139"
           inkscape:connector-curvature="0" />
      </g>
      <g
         id="g2145"
         transform="matrix(4.6742848,0,0,4.6742848,136.36896,111.83993)">
        <path
           d="M 0,0 C -0.033,0.027 -0.1,0.087 -0.062,0.134 -0.525,0.154 -0.839,0.382 -1.261,0.503 -1.57,0.727 -2.357,0.732 -2.457,0.369 -1.723,0.091 -0.818,-0.422 0,0 m 4.371,-1.592 c -0.663,0.747 -1.805,0.47 -2.78,0.883 -0.792,-0.529 0.974,-0.496 0.258,-0.97 -1.527,0.325 -2.36,1.77 -4.366,1.366 L -2.72,-0.625 c 0.872,-0.377 0.812,-1.229 1.494,-1.789 0.565,-0.156 1.15,-0.049 1.661,0.069 1.738,0.195 3.337,-0.609 4.698,0.325 -0.235,0.221 -0.48,0.364 -0.762,0.428 m 1.88,1.108 c 1.583,-0.038 2.313,-1.072 4.062,-0.87 l 0.029,5.699 C 9.176,4.182 8.652,4.734 7.737,4.954 6.121,2.991 2.801,4.158 1.354,2.028 0.224,2.365 0.317,4.147 -1.475,3.737 l -0.91,-0.17 -1.541,-0.378 c -1.295,0.509 -1.386,2.227 -3.01,2.209 -1.05,0.661 -2.544,0.227 -3.422,0.976 -0.983,-0.627 -2.848,-0.92 -4.125,-1.142 V 0.643 c 0,0 1.728,0.333 2.393,0.625 1.206,-0.312 1.596,0.659 2.545,0.86 1.25,0.38 1.71,-0.809 2.701,-1.01 0.768,-0.829 1.637,-1.849 2.851,-2.349 0.569,-0.181 0.93,-0.623 0.976,-1.052 -0.171,-0.367 -0.668,-0.291 -1.068,-0.36 -1.158,0.42 -2.712,0.344 -3.726,-0.223 -0.425,0.092 -0.796,0.401 -1.276,0.232 -2.149,-0.34 -3.963,0.571 -5.393,1.792 -0.12,-0.658 -0.04,-1.512 0.904,-1.952 3.724,-0.728 8.952,0.202 11.879,-1.646 3.184,1.744 6.703,0.868 10.576,1.164 0.663,0.188 1.354,0.428 1.403,1.088 C 9.637,-2.643 9.077,-3.013 8.23,-2.823 l 0.196,0.262 c -0.887,0.169 -1.167,0.069 -1.944,0.233 0.519,0.218 0.843,-0.004 1.439,0.294 L 7.325,-1.592 C 6.75,-1.512 6.343,-2.194 5.896,-1.934 6.04,-1.432 5.36,-0.849 6.251,-0.484 M 5.35,-2.27 c -2.002,-0.776 -4.072,-0.029 -6.191,-0.531 -1.309,0.338 -0.971,1.607 -2.154,2.132 -0.749,0.567 -1.089,1.427 -2.219,1.687 0.066,0.93 2.525,0.623 1.933,1.897 0.748,0.398 1.366,0.507 2.287,0.311 C 0.28,2.911 0.833,1.585 2.218,1.287 2.943,0.35 3.832,-0.347 5.296,-0.486 4.778,-1.211 6.118,-1.632 5.35,-2.27 m -13.341,1.323 -0.678,0.029 c -0.793,0.987 -2.294,0.162 -3.355,0.393 l -0.026,-0.318 c -0.358,-0.466 -1.074,0.092 -1.439,-0.026 1.174,-0.74 2.67,-1.941 4.553,-1.325 0.925,-0.618 1.992,0.193 3.031,0.151 0.868,0.024 1.587,-0.487 2.399,-0.172 0.122,0.183 -0.125,0.274 -0.118,0.403 -0.52,0.318 -0.934,-0.015 -1.465,0.111 -0.87,0.968 -1.786,-0.331 -2.766,0.056 0.229,0.202 0.031,0.505 -0.136,0.698"
           style="fill:#0db14b;fill-opacity:1;fill-rule:nonzero;stroke:none"
           id="path2143"
           inkscape:connector-curvature="0" />
      </g>
      <g
         id="g2149"
         transform="matrix(4.6742848,0,0,4.6742848,173.23318,139.62715)">
        <path
           d="m 0,0 -4.39,-1.895 c -0.039,0.109 -0.083,0.218 -0.127,0.319 l 4.262,2.167 -0.637,1.118 -3.992,-2.627 c -0.06,0.095 -0.119,0.197 -0.187,0.289 l 3.822,2.876 -0.825,0.981 -3.469,-3.272 c -0.078,0.086 -0.155,0.17 -0.241,0.253 L -2.518,3.703 -3.504,4.528 -6.343,0.705 C -6.434,0.776 -6.531,0.843 -6.627,0.909 L -4.018,4.913 -5.131,5.56 -7.265,1.298 c -0.103,0.053 -0.207,0.098 -0.316,0.147 l 1.874,4.407 -1.206,0.44 -1.37,-4.576 C -8.39,1.749 -8.501,1.778 -8.61,1.803 L -7.528,6.478 -8.799,6.703 -9.35,1.947 c -0.012,0 -0.026,0 -0.005,-0.038 v -3.815 l -0.007,0.041 c 1.792,0.411 1.699,-1.366 2.83,-1.704 1.446,2.126 4.767,0.956 6.38,2.927 C 0,-0.678 0.144,-0.729 0.282,-0.778 Z m -20.029,0.803 0.887,-0.445 c 0.343,0.122 0.65,0.258 0.894,0.418 0.374,-0.32 0.86,-0.423 1.374,-0.49 l -2.511,1.632 z m 8.661,5.938 -1.266,-0.223 1.12,-4.684 c -0.117,-0.031 -0.225,-0.051 -0.338,-0.085 l -1.409,4.627 -1.206,-0.442 1.915,-4.434 c -0.104,-0.046 -0.205,-0.093 -0.304,-0.149 l -2.208,4.331 -1.11,-0.646 2.673,-4.047 c -0.094,-0.062 -0.189,-0.133 -0.278,-0.2 l -2.936,3.897 -0.986,-0.827 3.35,-3.541 c -0.082,-0.08 -0.162,-0.16 -0.237,-0.241 l -3.582,3.344 -0.828,-0.989 3.053,-2.266 c 0.402,-0.062 0.785,-0.153 1.123,-0.364 1.623,0.015 1.714,-1.707 3.01,-2.212 l 1.058,0.28 v 4.099 c 0.04,-0.006 0.009,-0.006 -0.028,-0.006 z"
           style="fill:#fff200;fill-opacity:1;fill-rule:nonzero;stroke:none"
           id="path2147"
           inkscape:connector-curvature="0" />
      </g>
      <g
         id="g2157"
         transform="matrix(4.6742848,0,0,4.6742848,115.56325,212.05158)">
        <path
           d="m 0,0 c 0,0 0.809,0.189 1.474,-0.249 0.614,-0.405 1.362,-0.131 1.71,0.062 0.355,0.187 0.877,0.33 1.231,0.143 0,0 -0.794,0.811 -2.164,0.811 C 0.873,0.767 0,0 0,0"
           style="fill:#000000;fill-opacity:1;fill-rule:nonzero;stroke:none"
           id="path2155"
           inkscape:connector-curvature="0" />
      </g>
      <g
         id="g2161"
         transform="matrix(4.6742848,0,0,4.6742848,126.8465,171.82549)">
        <path
           d="m 0,0 c -0.058,0 -0.271,0.022 -0.556,0.111 v -9.464 l 0.919,0.164 V 0.062 C 0.177,0.013 0.044,0 0,0"
           style="fill:#0db14b;fill-opacity:1;fill-rule:nonzero;stroke:none"
           id="path2159"
           inkscape:connector-curvature="0" />
      </g>
    </g>
  </g>
</svg>
