<?xml version="1.0" encoding="UTF-8"?>
<!-- Created with Inkscape (http://www.inkscape.org/) -->
<svg id="svg8" width="900mm" height="500mm" version="1.1" viewBox="0 0 900 500" xmlns="http://www.w3.org/2000/svg" xmlns:cc="http://creativecommons.org/ns#" xmlns:dc="http://purl.org/dc/elements/1.1/" xmlns:rdf="http://www.w3.org/1999/02/22-rdf-syntax-ns#" xmlns:xlink="http://www.w3.org/1999/xlink">
 <metadata id="metadata5">
  <rdf:RDF>
   <cc:Work rdf:about="">
    <dc:format>image/svg+xml</dc:format>
    <dc:type rdf:resource="http://purl.org/dc/dcmitype/StillImage"/>
   </cc:Work>
  </rdf:RDF>
 </metadata>
 <g id="layer1" transform="translate(355.6756,74.172623)">
  <rect id="rect815" x="-355.6756" y="-74.172623" width="900" height="500" fill="#db2916"/>
  <rect id="rect828" x="-355.6756" y="92.327377" width="900" height="167" fill="#ffffff"/>
  <rect id="rect835" x="-355.6756" y="258.82739" width="900" height="167" fill="#18adf7"/>
  <g id="g18" transform="matrix(.27306844 0 0 .27306844 788.69846 312.2375)" fill="#ffba2e">
   <g id="g859" transform="matrix(.48654622 0 0 .48654622 -1291.5972 -169.85671)" fill="#ffba2e">
    <g id="g868" transform="translate(-258.38098,-293.61475)" fill="#ffba2e">
     <g id="c" transform="matrix(15.418899,0,0,15.418899,-2313.3378,-258.844)">
      <path id="t" transform="rotate(18,0,-85)" d="m0-85v85h42.5" fill="#ffba2e"/>
      <use id="use7" transform="scale(-1,1)" width="100%" height="100%" fill="#ffba2e" xlink:href="#t"/>
     </g>
     <use id="use10" transform="rotate(72,-2313.3378,-258.84402)" width="100%" height="100%" xlink:href="#c"/>
     <use id="use12" transform="rotate(144,-2313.3376,-258.84401)" width="100%" height="100%" xlink:href="#c"/>
     <use id="use14" transform="rotate(216 -2313.3377 -258.84401)" width="100%" height="100%" xlink:href="#c"/>
     <use id="use16" transform="rotate(-72,-2313.3377,-258.84396)" width="100%" height="100%" xlink:href="#c"/>
    </g>
   </g>
  </g>
 </g>
</svg>
