<?xml version="1.0" encoding="utf-8"?>
<!-- Generator: Adobe Illustrator 26.4.1, SVG Export Plug-In . SVG Version: 6.00 Build 0)  -->
<svg version="1.1" id="Layer_1" xmlns="http://www.w3.org/2000/svg" xmlns:xlink="http://www.w3.org/1999/xlink" x="0px" y="0px"
	 viewBox="0 0 768 512" style="enable-background:new 0 0 768 512;" xml:space="preserve">
<style type="text/css">
	.st0{fill:#FFE800;}
	.st1{fill:none;stroke:#000000;stroke-width:3;stroke-miterlimit:10;}
	.st2{fill:#FFFFE8;}
	.st3{fill:none;stroke:#FFFFE8;stroke-width:7.1055;stroke-miterlimit:10;}
	.st4{fill:#3000A8;}
	.st5{fill:#FFE800;stroke:#000000;stroke-width:3;stroke-miterlimit:10;}
</style>
<rect x="0" width="768" height="512"/>
<rect class="st0" width="381.75" height="253.75"/>
<g>
	<path d="M215.83,107.6c-3.37-3.81-9.95-9.55-12.33-19.7c-0.82-3.48-0.91-6.48-0.85-8.5h-16.77h-16.77c0.06,2.02-0.03,5.03-0.85,8.5
		c-2.38,10.15-8.96,15.89-12.33,19.7c-15.68,17.73-12.02,50.33-5.81,62.08c0.55,1.05,3.65,6.7,8.08,13.75
		c3.06,4.86,4.46,6.73,5.39,8.22c9.24,14.79-2.37,32.39,5.72,42.08c2.31,2.76,6.82,5.61,16.58,5.44c9.76,0.17,14.27-2.68,16.58-5.44
		c8.09-9.7-3.52-27.29,5.72-42.08c0.93-1.49,2.33-3.36,5.39-8.22c4.43-7.05,7.53-12.7,8.08-13.75
		C227.85,157.93,231.52,125.33,215.83,107.6z"/>
	<path d="M120.12,25.06c6.95,5.52,5.64,11.11,12.66,23.43c7.68,13.49,17.11,20.6,19.18,22.11c6.55,4.8,12.86,7.37,17.15,8.79
		c-0.49,4.57-0.98,9.13-1.46,13.7c-32.79-16.09-42.19-29.51-44.22-39.21c-0.52-2.5-1.67-10.08-6.43-18.9
		c-3.85-7.14-8.51-12.2-11.91-15.4C109.16,19.91,115.03,21.02,120.12,25.06z"/>
	<path class="st1" d="M127.02,92.79c2.21,0.01,4.77,0.17,7.58,0.6c2.67,0.41,5.05,0.98,7.09,1.59"/>
	<path d="M251.65,25.06c-6.95,5.52-5.64,11.11-12.66,23.43c-7.68,13.49-17.11,20.6-19.18,22.11c-6.55,4.8-12.86,7.37-17.15,8.79
		c0.49,4.57,0.98,9.13,1.46,13.7c32.79-16.09,42.19-29.51,44.22-39.21c0.52-2.5,1.67-10.08,6.43-18.9
		c3.85-7.14,8.51-12.2,11.91-15.4C262.6,19.91,256.73,21.02,251.65,25.06z"/>
	<path class="st2" d="M233.41,82.23c-7.71,1.39-13.42,4.65-16.82,6.99c-1.8-0.43-4.51-0.78-7.45,0.01c0.1-2.81,0.18-4.31-0.72-5.92
		c-0.69-1.23-2.17-2.89-5.76-3.92c-0.14,2.62-0.03,7.09,1.93,12.13c0,0,0,0,0,0c-2.6,2.05-4.57,5.07-6.9,8.56
		c-2.6,3.9-6.53,9.66-11.81,17.02c-5.28-7.37-9.21-13.13-11.81-17.02c-2.33-3.49-4.29-6.5-6.9-8.56c0,0,0,0,0,0
		c1.96-5.04,2.07-9.51,1.93-12.13c-3.59,1.03-5.07,2.7-5.76,3.92c-0.91,1.61-0.82,3.11-0.72,5.92c-2.94-0.8-5.65-0.44-7.45-0.01
		c-3.4-2.35-9.11-5.6-16.82-6.99c-14.33-2.59-25.68,3.05-29.39,5.1c5.54,3.74,14.12,8.84,25.42,12.76
		c13.47,4.67,19.59,3.77,26.46,6.71c8.73,3.73,19.22,13.72,25.04,41.27c5.82-27.55,16.31-37.53,25.04-41.27
		c6.87-2.94,12.99-2.04,26.46-6.71c11.29-3.91,19.88-9.01,25.42-12.76C259.09,85.28,247.74,79.64,233.41,82.23z"/>
	<path class="st2" d="M162.66,123.26c-2.94,1.14-2.65,9.37-0.99,14.95c1.79,6.03,6.62,13.89,11.69,13.46
		c0.39-0.03,1.47-0.14,2.41-0.92c3.63-3.02,0.87-12.46-2.76-18.43C170.76,128.64,165.64,122.1,162.66,123.26z"/>
	<path d="M169.06,129.09c-1.15-0.11-2.28,0.58-2.88,1.37c-1.01,1.32-0.62,3.03-0.24,4.72c0.41,1.82,1.02,4.5,3.45,6.14
		c1.48,1.01,4.12,1.95,5.24,0.9c1.06-0.99,0.25-3.29-0.71-6.05C172.87,133.16,171.53,129.33,169.06,129.09z"/>
	<path class="st2" d="M211.43,123.26c2.94,1.14,2.65,9.37,0.99,14.95c-1.79,6.03-6.62,13.89-11.69,13.46
		c-0.39-0.03-1.47-0.14-2.41-0.92c-3.63-3.02-0.87-12.46,2.76-18.43C203.34,128.64,208.46,122.1,211.43,123.26z"/>
	<path d="M205.03,129.09c1.15-0.11,2.28,0.58,2.88,1.37c1.01,1.32,0.62,3.03,0.24,4.72c-0.41,1.82-1.02,4.5-3.45,6.14
		c-1.48,1.01-4.12,1.95-5.24,0.9c-1.06-0.99-0.25-3.29,0.71-6.05C201.22,133.16,202.56,129.33,205.03,129.09z"/>
	<path class="st3" d="M173.74,221.65c1.06,0.15,2.65,0.44,4.49,1.09c3.31,1.17,3.62,2.14,6,2.65c2.89,0.61,5.6-0.16,6.76-0.57
		c2.32-0.82,2.91-1.8,5.06-2.08c1.68-0.22,3.12,0.14,4.06,0.47"/>
</g>
<rect x="386.25" y="258.28" class="st0" width="381.75" height="253.75"/>
<g>
	<path d="M602.08,365.87c-3.37-3.81-9.95-9.55-12.33-19.7c-0.82-3.48-0.91-6.48-0.85-8.5h-16.77h-16.77
		c0.06,2.02-0.03,5.03-0.85,8.5c-2.38,10.15-8.96,15.89-12.33,19.7c-15.68,17.73-12.02,50.33-5.81,62.08
		c0.55,1.05,3.65,6.7,8.08,13.75c3.06,4.86,4.46,6.73,5.39,8.22c9.24,14.79-2.37,32.39,5.72,42.08c2.31,2.76,6.82,5.61,16.58,5.44
		c9.76,0.17,14.27-2.68,16.58-5.44c8.09-9.7-3.52-27.29,5.72-42.08c0.93-1.49,2.33-3.36,5.39-8.22c4.43-7.05,7.53-12.7,8.08-13.75
		C614.1,416.2,617.77,383.6,602.08,365.87z"/>
	<path d="M506.37,283.34c6.95,5.52,5.64,11.11,12.66,23.43c7.68,13.49,17.11,20.6,19.18,22.11c6.55,4.8,12.86,7.37,17.15,8.79
		c-0.49,4.57-0.98,9.13-1.46,13.7c-32.79-16.09-42.19-29.51-44.22-39.21c-0.52-2.5-1.67-10.08-6.43-18.9
		c-3.85-7.14-8.51-12.2-11.91-15.4C495.41,278.18,501.28,279.3,506.37,283.34z"/>
	<path class="st1" d="M513.27,351.06c2.21,0.01,4.77,0.17,7.58,0.6c2.67,0.41,5.05,0.98,7.09,1.59"/>
	<path d="M637.9,283.34c-6.95,5.52-5.64,11.11-12.66,23.43c-7.68,13.49-17.11,20.6-19.18,22.11c-6.55,4.8-12.86,7.37-17.15,8.79
		c0.49,4.57,0.98,9.13,1.46,13.7c32.79-16.09,42.19-29.51,44.22-39.21c0.52-2.5,1.67-10.08,6.43-18.9
		c3.85-7.14,8.51-12.2,11.91-15.4C648.85,278.18,642.98,279.3,637.9,283.34z"/>
	<path class="st2" d="M619.66,340.5c-7.71,1.39-13.42,4.65-16.82,6.99c-1.8-0.43-4.51-0.78-7.45,0.01c0.1-2.81,0.18-4.31-0.72-5.92
		c-0.69-1.23-2.17-2.89-5.76-3.92c-0.14,2.62-0.03,7.09,1.93,12.13c0,0,0,0,0,0c-2.6,2.05-4.57,5.07-6.9,8.56
		c-2.6,3.9-6.53,9.66-11.81,17.02c-5.28-7.37-9.21-13.13-11.81-17.02c-2.33-3.49-4.29-6.5-6.9-8.56c0,0,0,0,0,0
		c1.96-5.04,2.07-9.51,1.93-12.13c-3.59,1.03-5.07,2.7-5.76,3.92c-0.91,1.61-0.82,3.11-0.72,5.92c-2.94-0.8-5.65-0.44-7.45-0.01
		c-3.4-2.35-9.11-5.6-16.82-6.99c-14.33-2.59-25.68,3.05-29.39,5.1c5.54,3.74,14.12,8.84,25.42,12.76
		c13.47,4.67,19.59,3.77,26.46,6.71c8.73,3.73,19.22,13.72,25.04,41.27c5.82-27.55,16.31-37.53,25.04-41.27
		c6.87-2.94,12.99-2.04,26.46-6.71c11.29-3.91,19.88-9.01,25.42-12.76C645.34,343.56,633.99,337.92,619.66,340.5z"/>
	<path class="st2" d="M548.91,381.54c-2.94,1.14-2.65,9.37-0.99,14.95c1.79,6.03,6.62,13.89,11.69,13.46
		c0.39-0.03,1.47-0.14,2.41-0.92c3.63-3.02,0.87-12.46-2.76-18.43C557.01,386.91,551.89,380.38,548.91,381.54z"/>
	<path d="M555.31,387.37c-1.15-0.11-2.28,0.58-2.88,1.37c-1.01,1.32-0.62,3.03-0.24,4.72c0.41,1.82,1.02,4.5,3.45,6.14
		c1.48,1.01,4.12,1.95,5.24,0.9c1.06-0.99,0.25-3.29-0.71-6.05C559.12,391.43,557.78,387.6,555.31,387.37z"/>
	<path class="st2" d="M597.68,381.54c2.94,1.14,2.65,9.37,0.99,14.95c-1.79,6.03-6.62,13.89-11.69,13.46
		c-0.39-0.03-1.47-0.14-2.41-0.92c-3.63-3.02-0.87-12.46,2.76-18.43C589.59,386.91,594.71,380.38,597.68,381.54z"/>
	<path d="M591.28,387.37c1.15-0.11,2.28,0.58,2.88,1.37c1.01,1.32,0.62,3.03,0.24,4.72c-0.41,1.82-1.02,4.5-3.45,6.14
		c-1.48,1.01-4.12,1.95-5.24,0.9c-1.06-0.99-0.25-3.29,0.71-6.05C587.47,391.43,588.81,387.6,591.28,387.37z"/>
	<path class="st3" d="M559.99,479.92c1.06,0.15,2.65,0.44,4.49,1.09c3.31,1.17,3.62,2.14,6,2.65c2.89,0.61,5.6-0.16,6.76-0.57
		c2.32-0.82,2.91-1.8,5.06-2.08c1.68-0.22,3.12,0.14,4.06,0.47"/>
</g>
<rect y="258.25" class="st4" width="381.75" height="253.75"/>
<path class="st5" d="M272.61,359.17c-5.83-8.33-15.89-10.14-19.42-10.77c0,0-11.75-2.11-23.01,3.27
	c-20.67,9.88-27.55,42.73-25.09,69.65c-3.37,0-6.54,0.02-9.12,0.05c-0.28-10.29,0.51-21.82,2.66-33.48
	c5.54-30.07,19.67-58.82,12.66-75.4c-1.11-2.62-2.55-5.2-2.55-5.2c-5.96-10.64-14.27-17.06-20.08-20.69
	c-5.81,3.63-14.12,10.06-20.08,20.69c0,0-1.44,2.58-2.55,5.2c-7.01,16.58,7.12,45.34,12.66,75.4c2.15,11.66,2.94,23.21,2.66,33.49
	c-2.53-0.03-5.75-0.06-9.23-0.06c2.47-26.92-4.42-59.78-25.09-69.66c-11.26-5.38-23.01-3.27-23.01-3.27
	c-3.53,0.63-13.58,2.44-19.42,10.77c-8.32,11.89-4.66,32.23,7.37,38.83c5,2.75,10.35,2.52,13.8,1.98c-1.72-7.69-0.07-14.7,4.16-17.2
	c6.89-4.08,17.57,5.65,18.61,6.61c8.43,7.85,11.61,20.13,11.2,32.04c-1.91,0.04-3.76,0.1-5.45,0.18
	c-6.74,0.32-12.63,1.01-14.27,4.16c-0.9,1.73-0.9,5.56,0,7.29c1.64,3.15,7.53,3.84,14.27,4.16c0.87,0.04,1.77,0.08,2.71,0.11
	c-0.05,0.15-0.09,0.3-0.14,0.44c-4.74,14.26-14.53,23.01-20.22,27.26c2.27,0.67,6.09,1.45,10.44,0.49
	c9.56-2.1,14.72-11.08,17.19-15.38c2.01-3.5,3.69-7.8,5.01-12.63c3.87,0.01,7.58-0.01,10.58-0.04c-1.58,9.43-4.3,16.53-7.79,19.76
	c-0.75,0.7-3.73,3.24-4.02,6.98c-0.37,4.82,3.93,8.87,8.18,12.86c2.53,2.38,6.59,5.71,12.43,8.65c5.83-2.93,9.89-6.26,12.43-8.65
	c4.25-4,8.55-8.05,8.18-12.86c-0.29-3.74-3.27-6.28-4.02-6.98c-3.49-3.23-6.21-10.33-7.79-19.75c3.05,0.03,6.7,0.05,10.47,0.03
	c1.31,4.83,3,9.13,5.01,12.63c2.47,4.3,7.63,13.27,17.19,15.38c4.35,0.96,8.18,0.17,10.44-0.49c-5.69-4.25-15.48-13-20.22-27.26
	c-0.05-0.16-0.1-0.32-0.15-0.47c0.63-0.02,1.24-0.05,1.84-0.08c6.74-0.32,12.63-1.01,14.27-4.16c0.9-1.73,0.9-5.56,0-7.29
	c-1.64-3.15-7.53-3.84-14.27-4.16c-1.43-0.07-2.97-0.12-4.57-0.16c-0.42-11.91,2.76-24.2,11.2-32.06
	c1.04-0.97,11.72-10.69,18.61-6.61c4.23,2.5,5.88,9.51,4.16,17.2c3.44,0.54,8.8,0.76,13.8-1.98
	C277.27,391.4,280.94,371.07,272.61,359.17z"/>
<rect x="386.25" class="st4" width="381.75" height="253.75"/>
<path class="st5" d="M658.86,100.92c-5.83-8.33-15.89-10.14-19.42-10.77c0,0-11.75-2.11-23.01,3.27
	c-20.67,9.88-27.55,42.73-25.09,69.65c-3.37,0-6.54,0.02-9.12,0.05c-0.28-10.29,0.51-21.82,2.66-33.48
	c5.54-30.07,19.67-58.82,12.66-75.4c-1.11-2.62-2.55-5.2-2.55-5.2c-5.96-10.64-14.27-17.06-20.08-20.69
	c-5.81,3.63-14.12,10.06-20.08,20.69c0,0-1.44,2.58-2.55,5.2c-7.01,16.58,7.12,45.34,12.66,75.4c2.15,11.66,2.94,23.21,2.66,33.49
	c-2.53-0.03-5.75-0.06-9.23-0.06c2.47-26.92-4.42-59.78-25.09-69.66c-11.26-5.38-23.01-3.27-23.01-3.27
	c-3.53,0.63-13.58,2.44-19.42,10.77c-8.32,11.89-4.66,32.23,7.37,38.83c5,2.75,10.35,2.52,13.8,1.98c-1.72-7.69-0.07-14.7,4.16-17.2
	c6.89-4.08,17.57,5.65,18.61,6.61c8.43,7.85,11.61,20.13,11.2,32.04c-1.91,0.04-3.76,0.1-5.45,0.18
	c-6.74,0.32-12.63,1.01-14.27,4.16c-0.9,1.73-0.9,5.56,0,7.29c1.64,3.15,7.53,3.84,14.27,4.16c0.87,0.04,1.77,0.08,2.71,0.11
	c-0.05,0.15-0.09,0.3-0.14,0.44c-4.74,14.26-14.53,23.01-20.22,27.26c2.27,0.67,6.09,1.45,10.44,0.49
	c9.56-2.1,14.72-11.08,17.19-15.38c2.01-3.5,3.69-7.8,5.01-12.63c3.87,0.01,7.58-0.01,10.58-0.04c-1.58,9.43-4.3,16.53-7.79,19.76
	c-0.75,0.7-3.73,3.24-4.02,6.98c-0.37,4.82,3.93,8.87,8.18,12.86c2.53,2.38,6.59,5.71,12.43,8.65c5.83-2.93,9.89-6.26,12.43-8.65
	c4.25-4,8.55-8.05,8.18-12.86c-0.29-3.74-3.27-6.28-4.02-6.98c-3.49-3.23-6.21-10.33-7.79-19.75c3.05,0.03,6.7,0.05,10.47,0.03
	c1.31,4.83,3,9.13,5.01,12.63c2.47,4.3,7.63,13.27,17.19,15.38c4.35,0.96,8.18,0.17,10.44-0.49c-5.69-4.25-15.48-13-20.22-27.26
	c-0.05-0.16-0.1-0.32-0.15-0.47c0.63-0.02,1.24-0.05,1.84-0.08c6.74-0.32,12.63-1.01,14.27-4.16c0.9-1.73,0.9-5.56,0-7.29
	c-1.64-3.15-7.53-3.84-14.27-4.16c-1.43-0.07-2.97-0.12-4.57-0.16c-0.42-11.91,2.76-24.2,11.2-32.06
	c1.04-0.97,11.72-10.69,18.61-6.61c4.23,2.5,5.88,9.51,4.16,17.2c3.44,0.54,8.8,0.76,13.8-1.98
	C663.52,133.15,667.19,112.82,658.86,100.92z"/>
</svg>
