<svg width="1000" height="600" viewBox="0 0 200 120" xmlns="http://www.w3.org/2000/svg">
	<defs>
		<style>
			.fil3 {fill:#009EE0}
			.fil1 {fill:#1B1918}
			.fil0 {fill:#DB0016}
			.fil4 {fill:#FCB900}
			.fil2 {fill:white}
		</style>
	</defs>
	<g>
		<polygon class="fil0" points="0,0 200,0 200,120 0,120 "/>
		<path class="fil2" d="M138.7628 100.3537c.605.5577 1.378 3.217.7356 4.4781-.9578-.5955-1.9622-.514-2.3957.5066-.2505.5888-.3077 1.7523-.3359 1.7523 0 0 .5172 1.3112.4805 1.7346-.261 0-7.0489.0035-7.0489.0035.0177-.5316.4163-1.2047.9543-1.8478-.732-.0022-4.131-.011-4.1825-.011-.1041-.7676 2.1918-2.8388 2.9936-3.1058.0025-.0007.005.0014.007 0 .0004-.0004.0008-.0004.0008-.0004l.2088.036-.2183-.0378.116-.1887c.1782-.2893.3518-.5535.5144-.8008.4953-.7532.8862-1.3483.9821-2.0306.5447-3.8897-1.0763-9.731-4.3578-12.2284l-1.0044-.7969c.3475.151.6869.2978 1.0156.4403-3.6322-1.5745-8.6272-3.7137-9.4202-4.8948-.458-.682-1.1973-1.9495-1.76-2.9337-.0342.007-1.948.3976-2.6197.3976-.1228 0-.2089-.011-.271-.0336-.3838-.14-1.4125-1.4047-1.5829-1.616-1.4623.1337-2.9983.3302-4.3074.5013-.1334.0173-.751.1044-1.6828.2264l-.1393 11.8859-2.1234 1.6361-1.9202-1.6968-.0233-11.3157c-3.2166.3545-7.0802.6939-9.8008.6473h-.0004c-.7052 0-2.3492-.0582-2.3643-.0589.0384-.036.0772-.0702.116-.1051-.9112.8272-1.7984 1.8249-2.3646 2.9481-.4135-.1488-1.3462-.5044-1.3462-.5044l-1.6461-.5938-.0025-.0222c.0805-.5221.2632-1.0237.5497-1.469l.2928-.4339c.2596-.2095.3852-.5274.3852-.8308 0-.1083-.0194-.2166-.0504-.322l-.0015-.0046c-.1206-.3994-.4614-.7395-1.0202-.7532-.1111.0053-.2102.0278-.304.0571l7.669-10.8246c-.1771-.465-.24-.9991-.1934-1.6895 1.008-.9592 2.2804-1.6489 3.3624-1.7332-.0155-.1467-.0166-.2346-.0166-.2346.7712-2.5096 3.6026-6.7169 5.4088-8.1336-1.1585-.4826-1.8902-1.5593-2.2063-1.9255l3.4297-4.578.1782-.9405c2.014-.0621 4.4905-.2343 4.4905-.2343l.0028-.0042c.6082-.0508 1.0912-.1048 1.4136-.1577 1.0922-.1792 1.6637-.6283 1.609-1.276-.032-.3831-.2205-.6166-.5948-.5542-.383.0638-.8046.1171-1.2474.162-1.9477.1968-4.3074.2232-5.673.2183h-.0004l.004-15.4365c0-.007.081.0416.2275.1347a7.4054 7.4054 0 0 1-.0459-.689s.8036.2473 1.338.2477c1.8797.0003 2.4752-1.5762 3.0001-3.187l.0882-.302v-.0003c.0194-.2262.1729-.4308.4177-.4682l.0004-.0003c-.1659-.0152-.4495-.0222-.4918-.0092 0 0-.2667.031-.1828-.2004.0844-.231.1574-.3767.204-.6184.187-.969.586-1.3462.5944-1.3543h-1.9904l2.1287-4.4997c.2085.2395.5196.5338.8865.8463l-.0427-.0518c.823-.6834 2.4458-1.4778 3.9853-1.7371 1.4598 1.2993 3.1094 2.9107 3.5702 4.7187.128.5017-.0141 1.05-.151 1.5801-.188.7264-.4198 1.458.386 2.0694 0 0-.254.0808-.6594.1672a8.3908 8.3908 0 0 1 .056-.0116c.258 2.6892 2.9687 2.9027 4.2366 2.9164.0035.121-.0032.2396-.0067.3588 1.0763.0903 2.5947.8911 3.1288 1.8464l-3.478.0004-7.4515.0007c-.1001 1.4789-.1785 3.0462-.1933 4.6352v.0063c-.0222 2.406.107 4.8574.5355 7.1237.2173 1.1507.5102 2.255.9035 3.2783-.0374-.099-.3595-.9324.0028.0089.024.0582.0508.115.0752.1728-.5662.404-1.1222.8855-1.723 1.2051l.0039-.0021c1.2904 2.0267 2.2073 4.4954 2.7608 6.7818h-1.7392c-.0882 1.7018-2.4408 4.01-4.7858 4.366l-.0003 2.3784c.0017.6484.0056 1.9968-1.0181 2.172l-.2745.0085-.0363 3.1426 10.3526.1983c.0254.0278.0564.0508.0847.0762-.0127 3.248.2166 4.2947 1.7847 5.8804l1.0629-.1365.2226-1.095c-.9031-.6192-1.3145-1.735-1.4062-4.6715.0067-.0064.0148-.0117.0215-.0187v.0003c.9303.0247 2.0941.0667 4.0566.3923.012.012.0336.0702.0635.1535-.0363 3.4378.5218 4.7748 1.6221 5.8688l.001.0004 1.1011.2466.4237-1.13c-1.1077-1.0964-1.4492-2.1445-1.4492-4.7886.002-.0018.0046-.005.0067-.0067 3.0607.7401 6.6608 2.8878 8.7573 4.3268v.001c.083 3.118-1.0191 6.0005-.8981 8.2858.0924 1.7452.9204 2.4289 4.0576 5.2497 1.1113.1732 1.669 1.18 2.1174 1.9932.4685.8505.5853.7458.563 3.3757-.0225 2.6166-.1308 5.087.5013 7.4906M94.7266 19.3645l33.8124-.8823 1.3691-1.5829-1.6782-1.6542-33.527-.0786c-.169.5556-.1714 1.4559.0325 2.1078-.1274.4907-.1147 1.4284-.0088 2.0902m-5.0529-5.0719c.0145.7229.3884.907.7341 1.034-.3457-.1266-.7196-.3115-.734-1.034m10.317 16.7112c.5287.1901 1.4657.6223 1.4657.6223l-.0017 6.4022c-.6964-.4078-5.1252-3.0103-5.8294-3.591-.0116-.0084-.0292-.024-.043-.0349-.0155.1676-.0265.3383-.0265.515v.2252l-3.0021-1.256-.666-3.097.1954.0099c.078.0042.156.006.2335.006 1.7089 0 3.2756-.991 4.5823-1.9604-1.2961.961-2.8473 1.9424-4.54 1.959a2.346 2.346 0 0 1-.08-.1372c-.4403-.8587-.7229-1.3893-1.0972-2.0458-.5552-.9726-1.2636-2.2839-1.6898-3.434h-3.0903s1.2587-3.4014 2.0405-4.7117c-.549-.1432-1.2252-.5549-1.5565-1.121-.3676-.629-.114-.924-.114-.924l1.9548-.0438s.0014-.4247-.0014-.5856h.0003c-.129.0053-.237-.0099-.3125-.0416-.652-.2748-1.5346-.83-1.9802-1.4598.7663-1.421 2.2758-1.8027 3.2393-2.0295 0 .0053.001.0091.001.0144.0579-.1495.204-.3542.204-.3542l2.609.4414.0064.0243c-.2081.9112-.3224 1.9089-.3365 2.9669-.043 3.2681 1.2537 5.842 3.0783 7.0566.0152.1983.049.7676.049.7676h-.9599c.7275.761 2.568 3.6054 2.568 3.6054l.0341.037a.58.58 0 0 1 .355-.123c.3573 0 .702.2984.8575.593.128.242.1337.4805.0156.6533l-.0988.0946.1249.1347c.4268.3235 1.1306.5768 1.8111.8217m-22.2765-4.494-3.6922-1.2263.084-.84.7683.3404c.0095.0043.0254.0085.0363.0127-.0543-.0247-.1093-.049-.1566-.0751l.2367-1.0308c1.482.7232 3.2495-.2703 4.7742.2374.9165.3055 1.3857.9634 1.4947 1.6185v-.001c7.3579 2.799 13.2627 9.6326 13.48 21.3413a78.4303 78.4303 0 0 1-2.7301-.2145h-.0015c-4.8485-.4632-9.4512-1.3748-14.3467-2.829.4363-1.422.6808-2.795.3072-4.1655-.1206.0176-.242.0345-.3644.0448-1.9403.163-3.0607-.9024-3.2568-.8248-.2717.1076-.603.2603-.9497.455-.2389-.304-.508-.6162-.797-.951 1.8045-1.208 5.0945-3.5857 7.1244-5.0624.8107 1.3173 1.4884 3.1454 1.3035 4.8913.5895-.485 1.1018-1.3145 1.2175-1.5353-.0307-.5779-.2114-1.3568-.327-1.8525-.2294-.9846-.592-1.7984-.9695-2.3964 1.2167-.8914 2.5203-2.2902 2.4673-4.0128.1687.1213.3348.2444.4992.369-.9257-.7013-1.9184-1.3536-2.977-1.9572.396.226.7803.461 1.1584.7002.2205 1.2612-.4543 2.3598-2.0898 3.5903-1.033-1.3321-2.6797-3.1715-4.191-3.6457.593-.3506 1.2756-.7221 1.8976-.9807m-9.7406 7.0256c1.0164-1.0619 3.7772-3.0533 4.2535-3.6107a10.251 10.251 0 0 0 .2395-.2917c0-.0004.0003-.0007.0003-.0011v.0004c.2981-.375.454-.6082.7472-.7938.8784-.556 1.6778-.3686 2.2822-.0321.9256.5154 2.3078 1.9872 3.273 3.1951-.0017.0102-.0014.0215-.0028.0318-2.238 1.5896-6.0448 4.223-7.081 4.9463-1.1232-1.4753-2.3914-2.6967-3.7119-3.4442m-2.4832 5.297c.049-.0378.0758-.0963.0988-.1598h.0003c-.001.1026.0014.2017.0036.2931-.2184.011-.3877.0953-.5088.2473-.437.5479.0639 2.0613.0639 2.0613s.4008.0854.5793.0854c.4184 0 .5284-.2304.557-.3676.1362-.6548.2815-.9504.5779-1.1723.715-.5359 1.2498-.5676 1.953-.6435 1.0406-.1122 1.3073-.4445 1.4682-.6777.1009-.146.144-.2582.1693-.3358-.0028-.0381-.0063-.0759-.0056-.1143l-.2455-.3316c-.9212-1.2926-2.0903-2.4391-3.2968-3.2382-.4822.424-.8523.7447-.9645.8259-.8826.6367-1.5416 1.4132-1.1722 3.6604 0 0 .405.115.7221-.1326m2.3633 3.1986.309-.1383-.2614-.5535.145-.0603c.7355-.3062 1.5892-.8072 2.0464-1.3226.163-.1838.3705-.3806.4488-.4537.0017-.002.0035-.006.005-.0077.278-.278.6935-.345.8628-.3613.0304.0025.0586.0064.089.0082.255.3129.5365.6466.7813.9877-.3729.3232-.7017.6957-.9158 1.1145-.212.4148-.4526.8325-.8936 1.1324-.3556.2423-1.241.5796-1.8743.5796h-.0003c-.3144-.0004-.5458-.0811-.6873-.241-.1241-.139-.1721-.329-.1439-.564l.0102-.0858zm21.7551 14.726c.1044-1.0805.448-2.1127 1.0185-2.9795a4.7273 4.7273 0 0 1 .4314-.5535c.3574-1.516.61-2.9648.7705-4.3544-4.8303-.1845-10.6257-.6664-15.585-1.8178-.9511 1.7025-2.0783 3.2455-2.8935 4.4241-1.9146 2.7672-3.434 5.5076-3.7571 6.0989 3.7962-1.2672 12.2498-2.2663 20.0152-.8178m4.9156-5.219a32.515 32.515 0 0 0 .2004-2.5883 141.0924 141.0924 0 0 1-2.8924-.08c-.1609 1.3892-.4163 2.839-.7737 4.3543.8739-.9702 2.153-1.5999 3.4657-1.686m-40.701 16.0592c-.1528-.0748-.3183-.0995-.4185-.0995-.5673 0-1.0897.3302-1.3317.8414-.2106.4449-.199.9627.2568 1.3893.461-.6657.975-1.4013 1.4933-2.1312m36.0945-5.5517L83.171 76.2236l-1.8566 3.6167c-1.8193-.3736-4.8557-1.4069-4.8557-1.4069s-1.3486 1.1589-2.3724 1.482c-.5465.1729-7.0245-3.7059-9.1924-9.109-.5856-1.4595-1.827-2.2854-3.0529-2.951-.5973-.3246-2.5661-.0015-3.5056.7482-1.0897.8696-2.281 2.6797-2.5918 3.0942-.235.3136.2067 2.0528.1922 2.9718-.006.4195-.6304 1.5875-.9443 1.4055-1.3646-.7923-2.2504.3291-2.4497.9377-.1055.3207.2494.9458.401 1.0569.0036.0025.0015.0039-.002.005.0063-.0011.0091-.0025.0049-.0057.4138.3291.8809.8964 1.0456 1.132 0 0-5.1495 4.5065-5.1706 4.5294-.7564-.949-.6562-3.6012-.2731-5.1118-.1573-2.3004.3948-3.8079 1.1772-5.0906l-4.4446 2.0504c-.573-1.0213 1.4718-4.8126 1.4718-4.8126l.031-.0092c-.011.001-.0236.0018-.0346.0028.1747-.52 1.0605-3.1256 2.2748-4.8863 1.7949-2.6025 11.551-5.843 11.551-5.843 1.6545-.5836 4.095.1936 4.9036 1.0325.4794.497 1.7628 2.0398 1.9657 2.2846l-.0928 1.0608c6.3945-2.5516 13.335-3.737 22.5672-2.3626M52.9456 78.069c.0205.0053-.0173-.0134 0 0m22.9182 7.7597s1.9834-1.609 3.9773-1.3317l1.8835-2.7492c-2.4452-.0177-8.4572 3.0988-5.8608 4.081m8.1468-1.6705c.0028.0116.007.023.0095.0346-.0025-.011-.0039-.0222-.0067-.0335zm.6025 1.428 1.7787.4996.1972-.895-2.5612-.9684a4.136 4.136 0 0 0 .5853 1.3639M117.8695 67.28c.4375.0275 2.831.1824 4.137.4053.0018-.0007.0032-.0021.005-.0035.1207-3.355-.673-5.4624-2.1689-7.1773-1.8986-.1824-4.1716-.2568-4.1716-.2568 1.3663 1.7773 2.1379 4.1451 2.1252 6.9282v.0339c.0275.0211.0486.0469.0733.0702m-7.8376-2.5386-2.55 2.2828c.5853.0124 5.8379.1203 8.6904.198 0-.0096.0004-.0195.0004-.029.049-3.1838-.6435-4.361-1.5798-5.792-1.228 1.56-2.811 2.6336-4.561 3.3402m33.6684 5.9947c.5345-.1478 1.4863-.2465 1.4863-.2465s-1.04 2.2817-2.9087 3.3517c-.7955.4558-1.7042.6805-2.692.6805-1.5046 0-3.0918-.5514-4.3544-1.5134-1.4513-1.1056-2.4807-2.6843-2.7658-4.2365-.7143-.404-2.3727-1.3184-2.3727-1.3184-.0674.1422-.0018.3218.1305.5747.6964 1.329 1.4238 2.708 1.8429 4.0323-1.5977-1.2919-5.431-3.3624-8.3947-4.0743l-.0004-.0003c.122-3.477-.7221-5.6254-1.8792-7.2045.0039.0011.0084.0018.012.0025 1.47.3528 2.4105.3676 9.2177 4.5142 2.0543 1.2516 4.903 3.302 5.8748 3.26.9716-.042 1.7078-1.3335 1.602-2.3703-.2201-2.1414-1.4958-3.7903-2.8462-5.5362-1.4916-1.9286-3.0339-3.9229-3.083-6.6636-.0472-2.6293 1.2365-5.2522 3.4333-7.0164 1.1388-.9144 3.6287-2.4278 5.2335-2.643l.3527.6614c-1.367.7056-2.0464 1.7646-2.3216 3.1898-.1623 2.5527 1.2026 4.4902 2.5234 6.3642.96 1.3624 1.948 2.7643 2.3601 4.4146-.0042-.8717-.7757-1.7536-.3178-2.8628.2279-.5531.7563-1.1423.7563-1.1423s-.2222.8622.4258 2.0776c3.2 6.0014 1.3625 11.6455-1.3289 13.705.0046 0 .0095.0015.0141 0"/>
		<path class="fil3" d="M122.7712 69.8104a1.5458 1.5458 0 0 1-.812-.4565c-.047 3.5045.5118 4.8521 1.622 5.9553l.001.0003 1.101.2466.4234-1.13c-1.108-1.0964-1.4492-2.1452-1.4489-4.791-.2053.1732-.5016.2568-.8865.1753M80.796 35.919c.1495.6749.31 1.5826.2328 2.3117.6332-.5207 1.192-1.4714 1.2224-1.53-.0286-.5962-.2135-1.3483-.3323-1.8577-.229-.9846-.5916-1.7981-.9695-2.3964 1.2168-.8911 2.5203-2.2902 2.4674-4.0129a27.143 27.143 0 0 0-1.3194-.888c.2201 1.2613-.454 2.3602-2.0899 3.5903-1.0326-1.332-2.6793-3.1715-4.191-3.6456-.6526.3863-1.3391.8371-1.6002 1.0037.4805-.0357.9158.1097 1.2799.3125.9253.515 2.3068 1.9858 3.2723 3.1937l.0011.0004c.0762-.4565.4385-.8668 1.1444-.8668.0297 0 .0558.007.0843.0092.0029-.0018.0053-.004.0078-.006-.0025.0017-.0046.0039-.0074.006.575.0476.8971.5567.9066 1.0424.0021.108-.0144.2184-.0437.326-.108.3983-.4329.7532-1.0199.7765l-.0459.001-.001-.0003a32.7807 32.7807 0 0 0-.071.0515c.4717.7673.8633 1.6383 1.0722 2.5788m-10.5943 1.7977.2459.3317c0-.0011.0003-.0018.0003-.0029a1.1625 1.1625 0 0 1 .0773-.3866c.001-.0028.0028-.0046.0039-.0074a1.1267 1.1267 0 0 1 .0846-.1704c.0057-.0088.013-.0162.019-.0254.0311-.0466.064-.0924.1027-.1337.0138-.0152.0318-.0268.0466-.041.035-.0327.0684-.0659.109-.0941.0261-.0184.0575-.0314.0857-.0473.0343-.0198.066-.0416.1037-.0571.0424-.0177.0904-.0286.1366-.0417.0296-.008.056-.0197.0871-.026a1.3618 1.3618 0 0 1 .2586-.024c.0339 0 .0635.0049.0942.0091h-.0004c.7793.0568 1.075.7846.9024 1.3797l.0233.0342c1.8218-1.2178 5.1827-3.648 7.2126-5.1251-.652-.0004-1.0414-.5595-1.0414-1.1007 0-.0515.0063-.103.0134-.1549-2.2412 1.5925-6.0526 4.228-7.0817 4.9467-1.1225-1.4757-2.3911-2.697-3.7112-3.4445-.381.3369-.749.6621-1.0686.9433 1.2065.799 2.3753 1.9456 3.2964 3.2381m2.5033 4.5131-1.9322 3.0805.1612.0691c7.2863 3.1253 19.6131 3.5927 26.3127 3.5927 4.721-.008 8.7726-.2395 10.1124-.4596 1.0922-.1792 1.6637-.6283 1.6094-1.276-.0325-.3831-.2208-.6167-.5951-.5542-2.9203.4871-8.047.3683-8.047.3683-9.906 0-17.8755-1.385-27.5082-4.7805zm39.7486 6.2061c-1.6835-4.3716-1.5783-10.1928-1.2485-15.0523l18.1441-.0018c1.1494 12.7106-1.9374 20.8905-9.0593 24.6885-3.351-2.1223-6.216-5.7055-7.8363-9.6344m-17.778 15.9523c-.0101.0318-.0324.186-.0168.3327-1.0824.0843-2.3548.774-3.3627 1.7332-.0466.6904.0162 1.2248.1933 1.689l-5.7242 8.0805-1.9445 2.7446c-.0836.0261-.1577.0638-.2283.1058a.8328.8328 0 0 0-.0472.0307 1.0226 1.0226 0 0 0-.3218.3514c-.0031.0056-.0067.0116-.0098.018a1.1016 1.1016 0 0 0-.095.2328l-.2885.4223a58.9537 58.9537 0 0 1-1.5159-.289l1.8567-3.6166 7.2644-15.2662a7.2571 7.2571 0 0 1-.3182-.6858c-5.6618-.9842-14.5895-1.2474-22.459 1.983.6731-2.3837 1.536-3.968 1.8698-4.6584 3.7645-1.2778 12.2717-2.297 20.0808-.84.1048-1.0806.448-2.1124 1.0189-2.9789.9006-1.3663 2.5512-2.2496 4.2058-2.2496 1.5176 0 2.8765.8248 3.6131 2.0962l-.6018.8036c.3157.3662 1.0477 1.4425 2.2063 1.9255-1.7837 1.3984-4.5632 5.5157-5.3753 8.0352m4.1794 4.9855c.0543.0578.103.1189.1414.1862.4558.7945-.2593 1.9213-1.154 1.863-.3287-.0211-.559-.0934-.8127-.201-.0427.1549-.7899 2.8085-2.2564 5.002l4.4665.0004s.6075-2.395 2.1301-3.7271l-.0088-5.5298Zm11.1774-4.6324-2.5506 2.2832c.5853.012 5.8385.1203 8.6907.1976 0-.0099.0003-.0194.0003-.029.049-3.1838-.6434-4.361-1.58-5.7919.002-.0028.0042-.0049.0063-.0074-1.2284 1.5639-2.8141 2.6395-4.5667 3.3475m6.0367 4.1184-10.3533-.1986.0007-.0565-.0004.0004.0332-2.825h.0004l.0031-.2615.2738-.0085c1.0237-.1753 1.0202-1.5236 1.0185-2.172l.0003-2.3784c2.3446-.356 4.6973-2.6642 4.7854-4.366h1.7396c.7116.005 1.1084.0674 1.3674.3704.6777.792.5845 2.2038.2275 3.2882.1168-.0017.3503-.0042.4554-.0046h.0501c1.3664 1.7773 2.1382 4.1452 2.1252 6.9283v.0338c-.1736-.1337-.4054-.2233-.6978-.241-.4-.0243-.7024.0816-.92.2534-.5052.3993-.532 1.1726-.109 1.6376m1.748.0532c-.2.186-.4763.3137-.8284.3232-.3577 0-.634-.1207-.8357-.3002-.0127 3.248.2166 4.2944 1.785 5.88l1.0626-.1364.2226-1.095c-.9027-.6192-1.314-1.735-1.4062-4.6716m4.1886-1.227c-1.2192-.1745-2.7975-.3403-4.1367-.4067.4477.424.4195 1.1762-.03 1.6154.93.0247 2.0938.0667 4.0566.3923-.4452-.5352-.4568-1.3007.11-1.601m.8256-.1146c.3676.0438.6413.2025.834.4128a.0427.0427 0 0 0 .0063.0017c.1217-3.477-.7221-5.6254-1.8792-7.2044-.47-.1115-1.1787-.2028-1.9499-.277 1.4958 1.715 2.2896 3.8224 2.1693 7.1774.2004-.1041.4702-.1517.8195-.1105m.8343.4135c2.9644.7105 6.802 2.783 8.401 4.0756.2061.6499.3387 1.2866.355 1.8973-2.0966-1.439-5.6967-3.5867-8.7574-4.3268.436-.3736.448-1.1568.0014-1.6461"/>
		<path class="fil4" d="M95.373 24.5135s1.1045-1.6164 1.386-2.0708c-.8988.1676-2.1664-.5599-2.1664-1.4675l.0131-7.584c0-.8129 1.3427-1.298 1.9749-1.1233l-1.7248-2.0063c-1.7466 1.3117-2.6582 3.9487-2.6998 7.1011-.044 3.3514 1.319 5.9771 3.217 7.1508m27.4582 43.058c-1.8091-.2152-1.5346 1.9266-.06 2.2388 1.5653.3312 1.6845-2.0461.06-2.2388M82.6687 19.701v-4.377c-1.3807.0008-2.1925 1.0644-2.207 2.1094-.0148 1.0632.7797 2.276 2.207 2.2676m4.0094-1.2682 2.0482-.0459s.0014-.4247-.0014-.586c-.1288.0053-.2364-.0098-.3119-.0416-.652-.2748-1.5346-.83-1.9805-1.4594l-3.5828.2254c-.2032.671-.1841 1.233-.0212 1.9156zm-6.8824 14.8562.0459-.001c.7454-.0294 1.0735-.5924 1.0636-1.1025-.0102-.5098-.3609-1.0513-.9913-1.0513-.8019 0-1.1607.5292-1.1607 1.0541 0 .5408.3899 1.1007 1.0425 1.1007m-9.6866 6.5341c.1715-.1301.7063-.556.9737-.7605.1213.048.2593.0765.4152.0793.7373.9038 1.7032 1.9795 1.3236 2.9126l-.0853.1859 1.2252.4216s.4565-.3288.3658-1.3642c-.0907-1.0305-.8354-1.8641-1.7452-2.9168 0 0-.0148.0257-.0416.0642.2233-.629-.0953-1.4545-.978-1.4545-.9062 0-1.2576.8093-1.0622 1.4358-.2878.2244-.7426.568-.9059.6844-.1834.1316-.1594.3722-.0384.5433.0938.1323.3774.302.5531.169m.3066 8.3446c.0395 0 .0797-.0018.1213-.0046.9617-.071 1.3752-.7758 1.3519-1.4009-.023-.6198-.4861-1.2478-1.3279-1.2478-.026 0-.0522.0004-.0794.0014-1.005.0455-1.441.701-1.427 1.33.0145.6407.4964 1.3215 1.361 1.3219m54.1166-1.8373-2.6941-.0056.0003-3.93 2.5728-.0063c.8009.008 1.1692.4215 1.1692.4215l-.0015-3.9066s-.4843.5291-1.3409.5577l-2.39.001v-2.5103c.0469-1.0016.4176-1.4517.4176-1.4517l-4.1197-.0053s.5253.3849.5997 1.2354l.0163 2.7753-2.45.0025c-.9113-.0286-1.3396-.6706-1.3396-.6706v4.0767s.4523-.5175 1.2841-.5306l2.4987-.0014.0142 3.98-2.9119-.0236c-.5507-.0123-.8505-.393-.8505-.393v3.8961s.441-.598 1.3374-.6498l2.4218.0039.0025 2.8592c-.0269.6943-.6633 1.1508-.6633 1.1508l4.3992-.0152s-.6569-.5355-.6569-1.1215l-.0039-2.8744 2.7531.0025c.733 0 1.0396.5224 1.0396.5224l-.0007-3.7384s-.4.3493-1.1035.3493M89.9176 62.0456l.5176-1.088s0 .0004.0003.0008c-.1171-.2216-.2205-.452-.316-.6865-5.6615-.9847-14.591-1.2482-22.4615 1.9826-.001.0056-.0032.0109-.0046.0165-.1721.5578-.2603 1.3896-.303 2.1372 6.3944-2.5517 13.335-3.7374 22.5672-2.3626M48.8207 83.7302l.8146 1.0527 5.2084-4.6006-.8495-.9839zm.9042-10.2023-4.4447 2.0503.64 1.2573 2.9756-1.5275c.2117-.6611.5-1.2407.829-1.7801m43.6797 12.3638-1.3677-3.2509-1.0234 2.9179-7.07-2.6547c.0624-.5867.256-1.1525.575-1.6482l.2931-.4339c.2597-.2092.3845-.5278.3849-.8308.0003-.5235-.3637-1.0626-1.0721-1.0802-.5546.0272-.8897.3817-1.0019.7902L78.713 86.155l5.9916.0391.0378-.4194a4.1525 4.1525 0 0 1-.7169-1.553l6.3278 2.3919-3.7017 3.5098 4.7929-2.0148 3.2067 5.5986-.8985-6.2103 4.8567-2.0281zM117.098 66.969c-1.7758-.108-1.7268 2.2659-.1093 2.267 1.5032-.042 1.6686-2.1725.1093-2.267m14.1934 40.0125-4.3216-.0117.0156 1.1702h3.5736c.1969-.3866.446-.7796.7324-1.1585m-1.093 1.8475-.0017 1.0364 7.0415.0184.0088-1.0587zM101.329 56.5938h4.5282l-.0303 2.587c-1.011-.0047-1.4411.5742-1.4404 1.072.001.697.491 1.13 1.4136 1.221l-.0216 1.8196-4.4234-.0236-.0071-1.766c.8548-.0625 1.4351-.4816 1.3977-1.2185-.0391-.7783-.6107-1.0337-1.4065-1.0397l-.0102-2.6511z"/>
		<path class="fil1" d="M61.2544 64.1822c-.5651.5408-1.9836 1.5927-3.147 1.6682-.7991.0523-1.087-.31-1.045-.4296.0483-.1376.4438.159.9334.1442 1.0915-.0331 2.8364-1.1846 3.145-1.4252.1486-.1153.1616-.0039.1136.0424m68.6698 21.144c-.047-.093.0945-.1682.1464-.079-.0032-.0063-.0042-.0084.0003.0004.5151.9134 1.0919 1.802 1.8934 2.4913.271.2332.7888.6121 1.3314 1.0245.5503-.049 1.0985.1168 1.5596.5144.8467.7302.6132 1.8767-.0268 2.8352-.1697.254-.3768.162-.2466-.0776.2547-.4681.9874-1.632.1517-2.4924-.612-.6304-1.561-.6325-2.68.011-.0985.0568-.2272-.0942-.1299-.1796.302-.2642.6308-.4367.9666-.534-.5288-.3776-1.1793-.9388-1.5391-1.3269-.9331-1.0082-1.101-1.5113-1.427-2.1872M115.122 39.2132c.236.1983.6268.4272 1.185.4445l2.6056-.0021-.017-2.9263c-.044-.5098-.235-.865-.4004-1.0841l3.5056.0042c-.12.2417-.273.666-.3027 1.2954v2.6677l2.54-.0014c.5458-.018.9497-.2222 1.191-.389l.001 3.2843c-.2085-.1256-.544-.2628-1.0174-.2678l-2.7241.0064-.0004 4.2298 2.8441.0053c.4262 0 .75-.1193.9536-.225l.0003 3.0867c-.189-.1481-.4797-.2945-.8893-.2945l-2.9034-.0029.0042 3.0251c0 .3863.2417.7422.4435.9723l-3.6559.0127c.1944-.2202.4167-.5634.4333-.9935l-.0029-3.0152-2.571-.0038c-.5574.0317-.9508.2554-1.1878.4434v-3.2138c.1626.1065.3965.2102.6974.217l3.0657.0246-.0152-4.2813-2.6483.0018c-.52.0081-.902.1972-1.1345.3577zm1.1345 3.3203 2.3491-.001.013 3.6784-2.7576-.0222c-.4692-.0106-.726-.3232-.7362-.3359l-.2678-.3404v4.7855l.2706-.3673c.0042-.0053.4089-.5422 1.2164-.5888l2.2722.0035.0025 2.7037c-.0236.6103-.5955 1.0309-.6011 1.035l-.3782.2731 5.2835-.018-.3235-.2645c-.006-.0053-.6018-.4985-.6018-1.0058l-.0035-2.7242 2.6028.0022c.6325 0 .9.431.9101.4487l.2798.4762-.001-4.6206-.2484.217c-.0039.003-.3651.3125-1.0047.3125l-2.545-.0057.0004-3.6308 2.4218-.006c.7172.0078 1.0453.3578 1.0583.3719l.2625.2942-.0018-4.6867-.2607.2847c-.0042.0046-.4508.483-1.2301.509l-2.2401.0008v-2.3534c.0434-.9303.381-1.3596.3834-1.3631l.2022-.2452-4.8892-.0057.3623.2706c.019.0145.4727.3616.539 1.1162l.0152 2.6243-2.2944.0025c-.8178-.0258-1.2037-.5814-1.22-.6047l-.274-.4046v4.965l.2628-.301c.0042-.0049.417-.4674 1.1712-.4794m28.6689 28.1377c-.327.6082-1.282 2.1999-2.7228 3.0406-.7277.4244-3.497 1.5825-6.8827-.8241-2.394-1.7018-2.7195-4.2122-2.7195-4.2122l-2.5746-1.4302s-.2674.2882.0649.8527c0 0 1.2594 2.2952 1.6736 3.5419-1.8447-1.35-5.3189-3.1136-7.939-3.7705.0822-2.8282-.4557-5.0211-1.6855-6.8538 2.2743.3687 8.1425 4.0457 10.4179 5.4321 1.8348 1.118 3.4449 2.2666 4.3455 2.2602 1.2513-.0084 1.8517-1.7451 1.7445-2.535-.295-2.1749-1.512-3.8488-2.8755-5.6117-1.4778-1.9106-3.0046-3.8844-3.053-6.5758-.0462-2.5834 1.2164-5.1615 3.3776-6.8971 1.132-.9088 3.4925-2.3382 5.0567-2.5958l.2328.4357c-1.2538.6897-1.9755 1.718-2.2659 3.223-.1683 2.625 1.2122 4.5843 2.5474 6.4791.95 1.3476 1.9322 2.7415 2.3375 4.3646l.3017 1.2076s.0215-.617-.0064-1.2446c-.0416-.936-.7493-1.8493-.3291-2.805.1107-.2526.2797-.5207.4314-.727.011.3894.121.9697.4802 1.676 4.1133 8.0924-.4498 13.1036-1.6401 13.7841.9479-.1291 1.3631-.1746 1.6824-.2148m-12.9883 1.4781c.1736.5553.2773 1.0506.3175 1.5134-1.416-.9528-5.0602-3.2614-8.3146-4.1169.1192-.1736.1894-.387.2032-.6167a1.4313 1.4313 0 0 0-.1365-.7023c2.9781.8054 6.519 2.7954 7.93 3.9221zm-.1622 6.4364c-.2364 1.3173-.4597 2.4363-.4011 3.6668.1033 2.1703 1.7483 3.1556 4.1402 5.3827 1.1807.0847 1.8715 1.628 2.189 2.1647.3534.5976.4282.745.4085 3.0617 0 0-.2262 5.574.5171 7.5728.5648.4558 1.2835 2.945.8012 4.1836-.3687-.2025-2.5273-1.2164-2.77 2.1502-.7645-.6915-2.3636-1.4789-3.2368-1.6652.762-.8353 1.2418-2.1614 1.3283-3.6981.2398-4.2535.484-9.0276-3.9035-11.6484-1.579-.9434-11.682-4.7498-12.9156-6.4781-.839-1.1751-2.511-4.264-2.528-4.295l-.0014-.0029c-.0639-.1432-.5334-1.1949-.9384-2.055-.4237-.9006-1.0718-1.0526-1.144-1.067-.084-.0174-.1602.0363-.1765.1177a.1498.1498 0 0 0 .1179.1764c.0225.0043.564.12.9313.9003.3122.6636.6622 1.4397.8378 1.8313-1.7123-.0808-4.075.146-9.295.8467l.1284-10.9175c2.104.0388 9.1564.1704 10.1382.1951-.1104 4.1811.8555 4.8458 1.8803 5.9662.447-.0564 1.2435-.1602 1.2435-.1602s.1697-.8431.2629-1.2915c-1.2453-.8477-1.2722-2.328-1.4179-4.475 2.1979.061 3.5232.3196 3.8362.3747.048 1.1137-.2276 4.2665 1.6979 6.0233.3785.0843 1.2721.2847 1.2721.2847s.3224-.8495.5027-1.3405c-1.4182-1.3184-1.4182-2.8177-1.4721-4.5692 3.1732.7694 7.24 3.3905 8.4469 4.2005.031 1.7-.2367 3.2096-.4801 4.5642m5.3146 31.1483h-6.7423l.001-.7553 6.7476-.0032zm-9.9558-1.7438-.0116-.8696 3.7175.0099c-.2307.2917-.3813.5108-.5489.8597zm2.8501-3.974.1715.0313c1.3455.2307 2.3523 1.3914 2.3622 1.403 0 0-.845.676-1.4147 1.3586-.5016-.0014-3.2699.013-3.9769.0113.1546-.7553 2.116-2.5298 2.858-2.8043m3.1566 1.3466c.6925.0423 2.813 1.0238 3.4964 1.8066.1284.3291.4092 1.1112.4557 1.506-.949.0003-5.7696.0032-6.7285.0035.1743-1.046 1.6972-2.5816 2.7764-3.3161m-1.4175-4.4997c.4957-3.9388-1.0922-9.8397-4.4154-12.3688l-.1093-.0867c1.5825.6858 2.922 1.2717 3.4988 1.6083 4.256 2.481 3.9892 7.2044 3.7543 11.3721-.089 1.5882-.653 3.2068-1.6813 3.877 0 0-1.1494-1.306-2.564-1.513.177-.2879 1.3878-1.8623 1.5169-2.8889m-18.2947-20.187c-.102 0-.1757-.0085-.2198-.0244-.222-.0811-.817-.7204-1.3388-1.3511.8823-.0759 1.6277-.1179 2.2712-.1288l.0455-.0003c.2434 0 .7916.0229 1.0012.0317.0913.1644.328.588.6293 1.1187-.643.1266-1.8976.3542-2.3886.3542m-12.2048-24.2324c-1.5705 0-2.5876-1.2527-3.1877-2.021l3.3793-4.5114.1623-.8565c1.832-.06 4.0167-.2064 4.3363-.228l2.7556 1.3216c-2.0666 2.0937-2.9295 3.8886-2.9605 6.2953Zm4.4553 2.5908c-.586.0321-.9229.2501-1.1081.4353-.2159.2163-.3348.4943-.334.7832.001.7482.5009 1.2256 1.4117 1.3536l-.018 1.536-4.1257-.0219-.006-1.481c.9028-.11 1.4344-.623 1.397-1.3616-.037-.7377-.5105-1.1332-1.4069-1.178l-.0095-2.3565h4.226zm-.0268 2.2694c-.5415-.0843-1.1148-.3415-1.1159-1.0516 0-.2081.0879-.411.247-.5708.1464-.146.4166-.3182.8918-.3468zm-.3563 30.4117-1.9678 1.5165-1.7766-1.5705-.0459-28.2406 4.1212.0215zm-3.8058-32.3156c.7341.0377 1.077.3171 1.106.8932.0391.7673-.6619.984-1.0986 1.0442zM89.587 80.8643c1.6119-1.363 2.3002-1.7233 3.155-2.2884.7394-.489 1.4502-1.228 2.1106-2.202l4.504.0003s.5245-2.1336 1.8559-3.5204l.0152 7.4253c-3.8517.422-8.0134.7966-11.6407.5852m-2.6962 2.7948a102.3838 102.3838 0 0 1-1.064-.3994c.9744-1.8764 2.4846-3.4918 3.9765-4.96 2.087-2.0546 4.4591-4.3742 5.3732-8.0392.3252.182 1.1962.8492 1.6728 1.045-.2423.8223-1.6834 5.2687-4.2721 7.0195-.3616.2445-4.1416 2.3834-5.6864 5.334m4.2132 2.0941.9454-2.6955 1.2587 2.9926 4.3703-.3556-4.0908 1.7085.8025 5.546-2.8815-5.0306-4.1568 1.7477 3.2784-3.1084-6.4742-2.4472-.0035-.0148a3.8826 3.8826 0 0 1-.0759-.9814zm-4.8243.1454-1.572-.4413a3.9623 3.9623 0 0 1-.46-.991l2.1668.8188zm-1.712.1446-5.5718-.0363 3.9504-5.782c.085.4953.4611.9697 1.1706.9817a1.5385 1.5385 0 0 0 .274-.0296c-1.4435 2.303-.0211 4.3427.1973 4.6408zm-8.728-.3856c-.5211-.2226-.4721-.4893-.4555-.5796.1975-1.0812 3.9412-3.007 6.048-3.1693l-1.6633 2.4281a3.668 3.668 0 0 0-.4011-.0222c-1.6652 0-3.1846 1.081-3.5282 1.343m5.6981-5.9249 1.7247-3.3591h2.2123l-1.7487 2.4687c-.489.1937-.6322.497-.745.8001l-.2202.3221a59.9416 59.9416 0 0 1-1.2231-.2318m-4.8218-1.3702c1.0421-1.0682 1.9872-3.467 4.1833-3.841.3535-.0603.2007-.326-.0575-.2942-2.2677.278-3.4142 3.012-4.4895 4.1-.0907.0769-1.3596 1.145-2.311 1.4453l.0017-.0014c-.6473 0-6.9039-3.7723-9.01-9.0206-.6007-1.4975-1.8549-2.34-3.1206-3.0272-.1757-.0952-1.922-.5842-3.6703.7631-.944.7274-2.5746 3.0515-2.6184 3.1214-.286.4547.1584 2.1064.1623 3.0596.0018.3888-.5433 1.2767-.7232 1.2767-.3316-.1936-.665-.3065-.9853-.2924-1.0749.0473-2.202 1.2068-1.4612 2.2394-.0113-.0014-2.0588-.4607-3.932.4985-.1426-2.8452.8265-4.41 2.0104-6.0128.0427-.062 3.8954-5.7238 5.7323-8.0535.7596-.9624 4.7234-2.2797 6.4693-1.2912.6036.3415 4.5875 3.351 4.5875 3.351v-.0042s4.8288 3.9113 5.6402 4.0792c.1627.0338.2805-.2082.0593-.2942-.2879-.1119-1.4397-.8862-2.7732-1.9026 3.6195-.9747 5.4377.041 5.7732.2576.198.1277.3179-.1623.1648-.2509-.488-.2829-2.3453-1.3508-6.2396-.237-.5846-.4477-2.6307-2.0366-2.6307-2.0366-.0046-.394-.0063-1.0114.0173-1.482 10.2704-4.1918 19.6967-2.7119 22.1996-2.3481 0 0-7.7103 16.31-8.4614 17.5055-1.2594-.259-3.7782-1.0572-4.5173-1.3074m-22.927.8167c-3.5663 3.1203-4.6246 4.0489-4.9418 4.328-.6-.9762-.516-3.3603-.1707-4.783.9578-.4488 1.6662-.6181 2.6769-.6439l.0515-.0003c.3157 0 .8117.0624 1.1405.104.1803.023.2903.0367.3531.0406.3433.2843.7052.7116.8904.9546m.8439.9889-4.977 4.3963-.63-.8139 4.954-4.3395zm-8.647-3.5345-.501-.9843 3.8736-1.7872c-.2441.4477-.4374.8901-.5863 1.341zm.8626-5.7299c.8625-.122 2.6843.0727 3.997.7183-.3461.5073-1.083 1.5871-1.221 1.7872l-4.2651 1.967c-.2494-.9038.9405-3.441 1.489-4.4725m6.3568-3.038c-.2995.4247-.5937.8452-.8735 1.2473-.0794-.2353-.02-.46.0579-.6244.1555-.3284.4632-.5588.8156-.623m-4.0584-1.9075c1.7456-2.5319 11.3775-5.753 11.4745-5.7855 1.8948-.6304 4.1974.4219 4.7488.9941.4572.4745 1.6467 1.9018 1.917 2.2267-.1073.8961-.126 1.863-.1214 2.369-.2935-.223-2.3714-1.848-4.132-2.9973-1.3347-.871-5.2558-.1894-6.8408 1.371-.0653.0645-1.9773 2.6648-2.4218 3.2769-.1704-.0596-1.2013-.2935-1.8334.8622-.2248.411-.1768 1.0573.1982 1.47-.213.3094-.8502 1.2347-1.1193 1.6267-1.379-.6894-3.1359-.8922-4.0524-.7804.3563-1.0322 1.155-3.1429 2.1826-4.6334m18.6349-3.5916c9.9949-4.0485 20.5045-2.257 22.231-1.9607.0843.2035.1683.3863.255.5549l-.4381.9204c-2.5495-.3747-12.0964-1.8824-22.314 2.3004.0008-.0105-.0098-.5538.266-1.815m1.8536-4.6482c9.2477-2.4836 17.3157-1.2954 19.8123-.8393a7.7018 7.7018 0 0 0 .4329 3.2c-1.7445-.291-12.3204-1.9924-21.9919 1.9206.569-1.917 1.711-4.2083 1.7467-4.2813m3.8389-6.1567c.7052-1.0301 2.0606-2.9471 2.8458-4.3381 4.137.9497 9.2975 1.5519 15.3417 1.7896-.162 1.3445-.4107 2.7365-.7401 4.1392-.1588.1792-1.3173 1.5473-1.4447 3.428-3.042-.5564-11.26-1.5752-19.5693.7365.5267-.9458 1.9138-3.3418 3.5666-5.7552m21.473-.3863h-.0329a33.6675 33.6675 0 0 0 .1436-1.8697c.7807.0113 1.5159.0166 2.1897.0166a151.2037 151.2037 0 0 0 3.7807-.0544l-.0825.4368-2.478 3.3073c-.5372-.7465-1.766-1.8366-3.5207-1.8366m-3.6255 1.5755c.283-1.2725.4995-2.523.6438-3.7264.8643.0321 1.7385.0565 2.6042.0723a32.9486 32.9486 0 0 1-.1795 2.3016c-1.1173.1026-2.2257.5948-3.0685 1.3525M94.579 64.204c-2.0624-.6247-3.6823-2.1717-4.4147-4.2213-1.4478-4.0527.834-8.2378 4.669-8.3051 1.2728-.0226 2.7002.7394 3.4325 1.9367l-.6138.8195s1.0199 1.4598 2.118 1.9551c-1.792 1.53-4.3581 5.3834-5.191 7.8151m1.9572 3.5151c-.8763-.7877-1.524-1.7342-1.7438-3.212.7461-2.3965 3.4784-6.5187 5.2836-7.9824.3616.1397.7327.2131 1.1049.2188l.0405 5.1008c-.9839.43-3.7003 4.3991-4.6852 5.8748m2.5453 3.1253c.3393-.5341.2183-1.1677-.0208-1.4595l2.1508-2.0655.0082 5.1107c-1.3328 1.2009-1.9537 3.1507-2.0945 3.6442l-4.075-.0003c1.208-1.8948 1.8977-4.0482 2.0776-4.6514 1.1303.4367 1.674-.1383 1.9537-.5782m-2.3083-2.9288c.2029-.3037.5715-.8523 1.0146-1.4944 2.2451-3.2166 3.113-4.0403 3.4287-4.2467l-.0025 4.7265-2.3594 2.2656c-.3058-.2928-1.18-.6453-1.307-.7194a6.5967 6.5967 0 0 1-.7744-.5316m-4.1684 1.4845c-.942-.839-1.2404-1.579-1.1631-2.8773.9638-.903 2.1333-1.5204 3.0988-1.6397.334 1.6256 1.3085 2.8865 2.8557 3.823.3186.1927 1.2895.5289 1.47.9282.1465.3242.1606.7035-.0437 1.0563-.2085.3605-.5478.5986-.921.5838-.9085-.036-1.7809-.8068-2.5425-1.253-.7455-.4372-1.8948-.7928-2.7542-.6213m-7.681 11.5235c.2649-.2233.5207-.6897.3859-1.2241l7.3329-10.0017c.8473-.1372 1.6852.133 2.2655.4234-.9126 3.6163-3.1115 5.7841-5.2384 7.8825 0 0-3.048 2.8733-4.1258 5.1509l-1.41-.5084c.0829-.4667.255-.912.5108-1.3091zm.1224-.9324c0 .4442-.2854.8996-.9225.9155h-.0014c-.6082-.0106-.8873-.4523-.8943-.8859-.0075-.4547.3009-.9306.9041-.9599.6252.016.9148.4932.914.9303M91.458 68.447c.1926.3916.4795.7521.8986 1.1331l-7.1773 9.784c-.2046-.3606-.5779-.5842-1.0287-.6022zm-.1365-.326-5.6335 7.9527h-2.2793l7.0369-14.7885c.9066 1.5614 2.3364 2.6924 4.0625 3.2107a1.7014 1.7014 0 0 0-.0049.0903c-1.0534.1287-2.3142.8071-3.3447 1.7886 0 0-.1213 1.0086.163 1.7462M70.9929 45.242l1.7752-2.8308.0003.0004c9.65 3.4018 17.5247 4.7688 27.558 4.789 3.2082.0067 5.1986.0292 8.1626-.3782.0716-.0099.2939 0 .3299.4268.0631.7483-.9024 1.0203-1.4838 1.1152-1.3141.2159-5.2963.4498-10.0884.4579-6.6877 0-18.9915-.4653-26.2538-3.5804m-.467 2.7718c-.8492.0819-1.3085-.6018-1.3209-1.1712-.0127-.5563.4435-1.1568 1.2834-1.1765.8283-.0198 1.2305.5535 1.251 1.102.02.5553-.3521 1.1628-1.2136 1.2457m1.2668-8.7492c.3698-.0734.6587-.2904.8234-.6153.8315.9624 1.4803 1.735 1.5618 2.6617.0607.6936-.133 1.0308-.24 1.1617-.328-.1062-.6593-.2141-.994-.3245l.0144-.031c.3856-.9473-.43-1.9577-1.1656-2.8526m-1.4072 2.988c-.322.2385-1.1927.546-1.7893.5535-.7458.0099-.7055-.4463-.683-.6371l.0004-.0004c.7292-.316 1.245-.5962 1.7519-.89.6262-.3634.9758-1.6581.9945-1.686.2346-.2335.6075-.2942.7602-.3094 0 0 .4801.585.6583.8248-1.021.8957-.8283 1.505-1.693 2.1446m-.2582-2.1128c-.1415.34-.3401.7112-.6195.884-.3743.2311-.7712.4407-1.2725.6714l-.1312-.2776c.6512-.271 1.5067-.743 2.0232-1.2778m-3.355-.4396c-.3178.2625-.49.5652-.6346 1.2612-.0342.1651-.1866.34-.8731.1835-.1376-.454-.3524-1.4605-.0628-1.8387.1753-.2283.5457-.1976.5457-.1976s-.126-1.1677.3006-1.511c.2808-.226.6498-.255.8696-.0842.2184.17.225.453.019.7778a.15.15 0 1 0 .2533.1605c.3472-.546.1817-.9652-.0885-1.175-.3224-.2505-.9006-.2788-1.2718.115-.2575.273-.3746.6473-.3909 1.242-.158.252-.5122.2058-.5386.2026-.331-2.157.3446-2.8448 1.1278-3.41.0988-.0712.3665-.2995.8897-.7588 2.135 1.4813 3.3807 3.4315 3.3807 3.4315-.4989 1.4136-2.1975.5027-3.526 1.6012m1.2202-5.9813c1.1472.671 2.317 1.748 3.403 3.1305-.0407.0046-.3843.0244-.6982.2942-.2928.2516-.3285.5077-.3373.5352 0 0-1.289-1.9297-3.2103-3.2156.2604-.2293.5465-.4822.8428-.7443m5.014-2.7909c.1934-.0772.4587-.2582.7102-.678.195-.3242.3097-.4925.6188-.4343.0656.53.2977.773.5672 1.0404-.388.1862-.7496.2737-1.1246.2737-.146 0-.295-.013-.4548-.0398-.1337-.0219-.2413-.0921-.3167-.162m-2.3862.5521c.7313-.5838 1.3673-1.0922 1.646-1.3786.0953.4607.296 1.4111 1.5117 1.3282 1.4009-.0953 1.9445-.8287 2.0479-.7867.0691.018.1061.0762.309.14.1503.0477.4283-.1742.2138-.3171-.1323-.0885-.3528-.1824-.5641-.313-.3433-.212-1.0305-.6543-1.559-.6444-.4473.0084-.5503.278-.7658.5873-.2128.3045-.5052.4364-.701.4936-.2152-.3574-.2498-.7038-.1626-.8784.6262-.9748 1.7166-1.4397 2.8268-.7733.8925.5355 2.2412 1.936 3.1447 3.053-1.7022 1.2071-6.8507 4.7843-6.8507 4.7843-1.1098-1.4362-2.3149-2.5619-3.501-3.2717.5726-.5627 1.5417-1.3352 2.4043-2.0232m5.2144-3.8258c1.414.4794 2.9647 2.2027 3.8714 3.3415-.5359.0607-.8506.3566-.9984.6918-.9176-1.1194-2.2232-2.5023-3.1387-3.0117-.2903-.162-.5831-.2656-.8745-.3111.3111-.2.7306-.4668 1.1402-.7105m2.6384-1.2513c.1817.6198.7652 1.0548 1.4432 1.0548.4156-.0011.7747-.1471 1.0481-.4244.3101.1785.6304.3729.9956.6032.1661 1.117-.4311 2.1386-1.9258 3.2904-1.0245-1.306-2.472-2.8812-3.8676-3.4671.9691-.557 1.597-.8223 2.3065-1.057m-4.2901-1.2237.0515-.5144.586.2597.0282.0095c.9232.4194 2.6232.58 3.5768.8262a1.6917 1.6917 0 0 0-.0074.3503l-.696.2438zm.913-1.2774c.3605.145 1.2534.3291 2.4468.1185 1.2393-.2184 1.8846-.0466 2.1746.0504 1.125.3747 1.5296 1.3145 1.4005 2.024-.2946 1.6156-2.5555 1.2629-2.3911-.2675.7676.1764.8502.4466.9772.4336.0416-.0043.0836-.0173.1132-.0515.0543-.0625.0511-.1616-.0152-.2117-1.1289-.8646-2.8984-.5782-4.8754-1.3564zm3.0571 15.8933c1.5011-.2314 2.3968-.951 2.9782-1.4545.5348-.4635 1.053-1.2188 1.2626-1.5825.2699-.2205.5627.0187.5708.0268a.1505.1505 0 0 0 .2117-.005.1503.1503 0 0 0-.0046-.212c-.0124-.0123-.3645-.328-.8001-.1407-.0328-.507-.2114-1.2051-.307-1.6182-.2497-1.0827-.6208-1.8324-.9154-2.3241.925-.6996 2.3163-2.0306 2.4133-3.7593 5.8011 4.2757 8.5937 10.256 8.3023 17.7822-4.7343-.4618-9.1969-1.3423-14.0162-2.7647.3517-1.1769.6403-2.5467.3044-3.948m2.6018-7.6062c.0092.454-.2717.9239-.919.9493l-.042.001c-.5574-.001-.8911-.484-.8911-.9507 0-.4173.2646-.9045 1.011-.9045.5345 0 .8326.466.841.9049m1.0178 2.6885s.2943 1.2545.326 1.7872c-.085.1436-.4505.7412-.9003 1.2044.0053-.533-.0794-1.186-.256-1.9823-.1835-.8262-.5159-1.6517-.99-2.4568.4636-.0497.8195-.3037.992-.7013.2738.4742.605 1.1896.8283 2.1488M80.3391 31.07c1.3973-1.1063 2.0104-2.1212 1.9441-3.2272.343.2222.6735.4466.985.6692.0116 1.6489-1.2937 2.9538-2.2134 3.6671-.0095-.4501-.2564-.9239-.7157-1.109m-8.3157 5.8567c.243-.1686 4.892-3.3983 6.5874-4.5991.0494.4547.3376.8943.805 1.0509-2.1858 1.589-4.9692 3.5934-6.6608 4.7382.0159-.2844-.0585-.5655-.2152-.7906-.1277-.1838-.3051-.32-.5164-.3994m-1.2164 2.1594c-.1574.1231-.587.4473-.81.6096-.2424.1764-.5426-.3002-.315-.4632.2554-.1827.5048-.3754.7542-.567a1.115 1.115 0 0 0 .3708.4206m-.2113-1.0047c0-.2477.0853-.478.2399-.648.1739-.1916.4254-.2929.727-.2929.6206 0 .8982.4537.8982.9028 0 .4579-.2946.9507-.9409.9507-.635 0-.9242-.473-.9242-.9126m6.9963 1.4915c-1.8359.1277-2.9912-.865-3.2205-.829-.1902.0296-.5814.2244-.9353.4163-.1926-.24-.4028-.4865-.6117-.7285 1.7054-1.1494 4.627-3.254 6.8563-4.875.4854.823 1.2693 2.5004 1.2044 4.6023-.895.8199-2.031 1.326-3.2932 1.414m-2.9161 1.694c-.0522-.5895-.2783-1.1363-.7497-1.796a7.616 7.616 0 0 1 .4396-.2029c1.1857.6883 2.1844.8333 2.8152.8333.1746 0 .3468-.0106.5154-.0325.2395 1.1815.0063 2.3502-.2561 3.2805-.9225-.273-1.9022-.575-2.9175-.8996.1132-.262.2-.6459.1531-1.1828m6.7571-15.4934c4.891 1.9255 12.8366 7.1717 13.153 20.9533a76.9936 76.9936 0 0 1-2.4204-.1905c.3415-8.6826-3.3599-15.3208-11.0053-19.7372.1923-.291.2872-.6495.2727-1.0256m14.3066 8.563c.194-1.7864 1.2577-3.0614 2.3086-4.0756l.0215.023c.465.3552 1.1793.612 1.8704.861.423.1521 1.1222.4664 1.3663.5772l-.0017 6.0442c-1.0598-.623-4.867-2.8706-5.5651-3.4298m-3.0554-.5584-.6093-2.829h.0007c.0805.0043.161.006.2413.006 1.753-.0003 3.345-1.0057 4.6715-1.9896a.4415.4415 0 0 1 .2918-.1094c.295 0 .5937.2646.7253.513.1012.1915.11.3736.0243.4991-1.2865 1.2013-2.624 2.7623-2.624 5.049zm-1.3723-5.2317c-.7384-1.2937-1.264-2.3463-1.6023-3.2096h4.549c.666.7281 2.1608 3.0057 2.4557 3.4586-1.2252.9007-2.6885 1.8102-4.2718 1.8567a1.5436 1.5436 0 0 1-.03-.054c-.465-.9062-.7426-1.4238-1.1006-2.0517m-4.694-3.5095c.2832-.75 1.3951-3.6004 2.0555-4.6563-.2254-.0758-1.1934-.2935-1.6584-1.1024-.2194-.382-.1894-.6047-.1538-.7l2.015-.0447s.0012-.4047 0-.5955c.5413-.0734 1.275-.4442 1.8638-1.2996.2177-.3158.2882-.6672.194-.9635-.0737-.2307-.2423-.4046-.4748-.4896-.3362-.1228-.6166-.2745-.6353-.8725.031-.0705.0822-.1552.1234-.2187l2.3696.4008c-.193.8893-.2977 1.8524-.3108 2.8656-.0405 3.0801 1.1388 5.8074 3.0833 7.142.0103.1474.0247.38.0346.5344zm-3.6697-6.7465c-.1323-.6114-.1277-1.0957.0162-1.6224l3.3959-.2138c.467.6124 1.3278 1.1624 1.9946 1.4432.0624.0265.1365.043.2212.0501.0007.0953.0007.2057.0007.2925l-1.9022.0427zm6.5836-3.833c.0758.7353.5566.9117.8244 1.0097.1457.0533.2462.1563.2917.2988.0653.2043.0075.4668-.1548.7024-.6022.8745-1.354 1.1755-1.8158 1.1846-.3595.0074-1.6316-.8032-2.0665-1.3649.7157-1.2393 2.0365-1.6185 2.921-1.8305m5.3033-3.9903 1.3892 1.616c-.743.0269-1.7688.5303-1.7688 1.3075l-.013 7.5837c0 .9041 1.1041 1.6326 2.0266 1.6421-.328.5017-.9214 1.3741-1.1377 1.6923-1.9096-1.259-3.0656-3.9024-3.0254-6.944.0413-3.137.961-5.6389 2.529-6.8976m33.3334 4.9276 1.3776 1.3582-34.6982.3697c-.1468-.551-.1595-1.2862-.0307-1.8062zm.3002 2.939-33.613.877c-.0837-.617-.0837-1.35.0003-1.7879l34.7212-.3704zm-26.8623 13.9351c.7003 3.8915 4.4062 5.9852 7.6835 5.9856.4346 0 .9575-.0258 1.395-.0554-.0135 2.255.1057 4.5819.4956 6.7638-.0438-.0046-1.469-.2201-2.474-.0388-.844.152-1.3442 1.1035-1.6779 1.779-2.448.2421-5.4254.2096-5.4254.2096zm1.3702-.7997c1.9798 0 2.6102-1.669 3.0794-3.097.0533.0874.1214.1622.2028.208a.4892.4892 0 0 0-.0313.1165c-.031.23.109.4124.1252.4325l.0984.1224c-.0691.0522-.1616.1238-.2296.2762-.1553.4054.036.835.4519 1.029.2342.1221.5058.1885.7796.1885.6731 0 1.2859-.3327 1.3116-.3472.9388-.424 1.639-1.1634 2.025-2.1385.7098.302 1.4961.368 2.0472.368h.0007c.7126 0 1.3522-.095 1.8083-.1867.2515 1.852 1.6694 2.8212 4.2189 2.8836.0028.6558-.065 1.0834-.2657 1.7403l-7.6863.0007s-.2639 3.091-.2215 4.827c-.5719.0501-.9032.0621-1.401.0621-3.5729-.0003-7.3091-2.4952-7.4958-6.6826.279.0751.792.1972 1.1822.1972m5.2349-1.7784c-.2258-.2836-.3634-.5814-.4847-.8442-.1764-.3824-.3288-.7084-.7028-.713-.2388-.0024-.5715.194-.5845.194-.089 0-.2276-.2352-.2258-.4822.0127-.1432.11-.2946.2748-.3323.126.006.4237.1549.727.0734.4682.2081.9586 1.0954.9586 1.0954.4268.701.7038.315.7027.1527-.0003-.0794.0018-.2628-.0007-.3838.1196-.0222.351-.0166.4868.0857.3447.2597.4322.4544.5416.6407-.1334.1661-.5236.5633-.665.6085-.1944.062-.6752.2392-1.028-.0949m-1.371-.7218c-.0274-.2095-.2645-.2205-.3139-.1661-.0335-.264.424-.3796.4974-.369.1725.025.267.1845.4304.5383.1224.2646.2741.5937.5317.9158.153.1612.3333.255.551.2882-.1863.0879-.6258.2692-1.0781.2692h-.0056a1.406 1.406 0 0 1-.6474-.1577c-.2794-.1305-.4032-.3944-.3076-.6452.061-.205.4078-.1725.3422-.6735m-.6812-2.4073c.1425-.7398.4145-1.1162.5129-1.2327h.8844s-.0024.7232-.0024.9585c1.2742-.0635 1.3638-.4737 1.5698-.4004.0628.7476.3038 1.304.6706 1.699.1965.2128.4343.392.7229.5447a3.7227 3.7227 0 0 1-.4163.781c-.0723-.1506-.2427-.4204-.58-.6303-.1545-.096-.5806-.2805-1.01-.0004-.3037-.2339-.8918-.7419-1.0131-1.1028l-.2015-.5983-.0892.6251c-.0032.1376-.2237.1376-.6315.0159-.1016-.03-.5182-.0325-.6262-.013.025-.0738.1725-.4537.2096-.6463m1.8771-1.1148a.0074.0074 0 0 0-.0014-.0021c.3902-.0717.7115.091.8347.1799-.0582.0349-.3327.2265-.7726.2956.0818-.183-.0088-.3676-.0607-.4734m-3.1835-.4174 1.9318-4.0844c2.6575 2.572 4.5777 3.1697 4.6373 3.1411.0596-.0286.2022-.084.4174-.084.491 0 .7327.4054.7436.7818.012.4106-.2476.8407-.8544.8788-.6936-.0067-.8474-.6333-.8474-.6333zm6.6753-5.1322c1.553 1.386 3.0462 2.9006 3.4706 4.5957.2875 1.1493-.9592 2.4705.0734 3.5422-.4134.1069-1.2672.2925-2.2024.2925h-.0324c-.8887 0-2.0987-.1644-2.823-.9455-.448-.4833-.6396-1.1377-.599-2.0532h1.2623c.187.3828.598.6333 1.0555.6333.8149-.0476 1.1655-.6484 1.1497-1.1868-.0156-.5334-.3793-1.0731-1.0435-1.0731-.1362 0-.2794.0236-.4266.0702-.8477-.248-2.4602-1.3335-3.5972-2.2874.8089-.6199 2.2824-1.3325 3.7126-1.5879m7.6175 11.8054c.8778.1425 1.795.5768 2.5651 1.362h-2.783c.1382-.5679.1894-.8374.218-1.362m9.906 2.0038c1.0414 12.1641-1.9012 20.2315-8.7479 23.986-3.1552-2.0534-5.9683-5.5456-7.5501-9.3806-1.6479-4.281-1.5449-10.0108-1.2446-14.6037zm-19.5097 16.309a2.2918 2.2918 0 0 1-.7275-.1295l-2.3234-1.1152c.3676-.0363.6664-.0734.8926-.1104 1.5917-.261 1.7695-1.0121 1.7342-1.4365-.038-.4463-.267-.702-.629-.702-.044 0-.7535.1044-1.1084.1446.3143-.6135.7482-1.332 1.3765-1.4467.9511-.1736 2.081.0306 2.486.0592.2893 1.7396.941 3.351.9557 3.3867-.7888.5824-1.6764 1.3652-2.6567 1.3497m3.8371 6.428h-6.1831c.085-2.4426 1.3307-4.6563 3.5359-6.4252l.023-.0116c1.096 1.755 2.0227 4.0284 2.6242 6.4368m1.4447.6177c.915 1.07.3249 3.3899-.3426 4.2397-1.8087 2.3026-4.531 3.73-8.098 4.2478.8163-.4007.8131-1.5991.8117-2.2108l.0004-2.2511c2.1985-.4015 4.565-2.5605 4.7734-4.3434h1.6016c.7472.0053 1.052.0822 1.2535.3178m2.8215 9.8845c-.1595-.0723-.339-.1146-.5384-.1266a2.0377 2.0377 0 0 0-.1213-.004c-.2463 0-.4674.047-.6611.1394.008-2.8857-.6096-4.1028-1.5487-5.5474.1862-.2607.3588-.6107.4974-1.0065.108-.0014.241-.0028.3235-.0032 1.3137 1.7389 2.02 3.997 2.0486 6.5483m-9.7801-.0635 2.2472-2.0119c1.8225-.7398 3.3246-1.8207 4.468-3.2141.8015 1.2308 1.472 2.3921 1.4439 5.412-2.4547-.066-6.4859-.1514-8.1591-.186m1.4813-1.7286-3.4763 3.1122.0276-2.352c1.233-.146 2.389-.401 3.4487-.7602m-2.1505-8.4102h4.47c-.207 1.517-2.2475 3.6117-4.4707 4.0379zm-.2999-.3676-.001 6.9628c.0014.607.0049 1.8697-.8735 2.0214l-.1175.0039.1051-9.0037c.0321-2.2553.8975-4.0315 2.9842-6.1125.1767.0423.3648.0649.5503.0649.1418 0 .2837-.013.4265-.0388-1.9127 1.7356-2.9718 3.8322-3.074 6.102m8.8815 12.3278-9.7388-.1866 1.4986-1.3416c1.644.0342 5.7436.1203 8.3044.188-.122.1771-.1958.388-.2138.6107a1.3151 1.3151 0 0 0 .1496.7295m1.209.3824c-.7-.0017-1.0662-.5087-1.0658-1.0096.0004-.4784.2847-.9963 1.1666-.9578h.0014c-.0342-.0025.0237.001.0004 0 .7154.0437.9613.5373.955.9468-.0085.4922-.374 1.0005-1.0577 1.0206m2.0705 4.564-.182.8942-.882.1136c-1.4665-1.5007-1.6887-2.5626-1.6905-5.436.2025.109.4336.164.6862.164.2557-.007.4857-.069.6882-.1848v.0004c.1027 2.5717.477 3.7775 1.3801 4.4485m2.5252-4.5656c-1.5833-.2477-2.6272-.3066-3.44-.3313.1316-.2138.2-.4597.1983-.7108-.0018-.2124-.0547-.4184-.1535-.5955 1.0601.0631 2.3203.187 3.4583.3404-.103.1238-.1718.2695-.2042.434-.0544.2744-.0043.581.141.8632m-1.8139-8.4364c1.5286 1.7756 2.1791 3.9 2.0983 6.8626-1.233-.193-3.2208-.3312-3.9204-.376-.001-2.619-.6802-4.9255-1.9689-6.7254.6784.0272 2.3439.1023 3.791.2388m5.164 13.8159-.344.9172-.932-.2092c-.962-.969-1.5568-2.226-1.5498-5.4913l.0004.0003a1.689 1.689 0 0 0 .6332.2762c.1087.0233.2148.035.3161.035.1626 0 .315-.0304.4526-.0903.0219 2.4084.3546 3.4745 1.4235 4.562m-1.8747-4.772a1.2222 1.2222 0 0 1-.2554-.0282c-.7352-.1556-1.1324-.8036-1.0792-1.3148.043-.4085.3578-.6427.8636-.6427.0717 0 .1468.0049.2269.014.719.0854 1.064.6598 1.033 1.1833-.022.3637-.2414.7884-.7889.7884m-1.3536-8.7767c1.2961 1.791 1.8796 3.9458 1.8256 6.755-.1954-.1327-.4261-.2173-.6808-.2473a2.107 2.107 0 0 0-.259-.0163c-.152 0-.2935.018-.4215.054.0694-2.8822-.5447-4.9946-1.9738-6.7694.6508.0695 1.157.1446 1.5095.224M82.5189 19.5472c-.5017-.03-.9448-.2275-1.2884-.5757-.3947-.4008-.6262-.9751-.6187-1.5364.0127-.9137.684-1.8824 1.907-1.9565zm62.8048 37.3187c-.7765-1.4436-.0155-3.2488.0088-3.2893 0 0-1.873 1.8531-1.9354 2.7506-.4078-.6904-.8699-1.3462-1.32-1.9851-1.286-1.8239-2.6152-3.7098-2.4663-6.0939.5207-2.426 2.4595-3.0995 2.4595-3.0995l-.6353-1.1913s-2.1548.0494-5.6483 2.739c-2.2483 1.7307-3.617 4.5247-3.567 7.2979.0508 2.8582 1.6299 4.899 3.158 6.8739 1.3184 1.7046 2.5634 3.3147 2.773 5.3551.0504.4967-.2749 1.8606-1.3124 1.9869-.5048.0003-3.3179-1.776-4.6779-2.617-8.8808-5.492-9.369-5.3646-16.0514-5.6617l-.4861-.0215c.326-1.3067.1743-2.4804-.4191-3.1732-.3119-.3652-.7401-.4643-1.36-.4869-.5912-2.3396-1.4926-4.5695-2.5523-6.319.211-.1368.7235-.4783 1.1264-.7729 2.9524 6.5307 7.5766 9.1193 7.8578 9.288 11.0829-5.769 9.8425-20.1296 9.3705-25.3891-1.4256 0-6.1503.0007-7.2955.0007-.7087-1.0132-2.0806-1.65-2.982-1.8225-.001-.0578-.0081-.4149-.0081-.4149s-3.7747.32-4.196-2.293c.2717-.0734.428-.1302.9398-.29-.4744-.4745-1.2714-.5644-.8276-1.898.1655-.497.3447-1.2368.2068-1.9695-.4276-2.269-3.802-5.0056-3.802-5.0056s-2.2877.3306-4.0862 1.6662c-.247-.2212-.9384-.984-.9384-.984l-2.594 5.4833h1.9019c-.1295.273-.2424.585-.297.9384-.0597.3891-.5123.919.0592 1.1963a2.1926 2.1926 0 0 0-.0836.3598c-.5468 1.6778-1.059 2.8713-2.697 2.9457-.3006 0-1.5977-.3482-1.5977-.3482l-.1482.5049c-.3288-.1457-.7775-.3394-1.0915-.452-.6032-.2173-1.2255-.4406-1.586-.6713.1086-.2582.0839-.5658-.0756-.8671-.205-.3877-.6452-.7797-1.1673-.7797a.9324.9324 0 0 0-.2353.0307c-.3419-.5217-1.2848-1.948-1.9773-2.85h.5877l-.0462-.75 1.9078-2.8727s-.495.1866-.9927.176c-.5701-.0124-1.3042-.1993-1.5815-1.143l.002-1.2383c2.834-.0733 33.7631-.8787 33.7631-.8787l1.6831-1.9428-2.0235-1.9985s-30.3743-.0652-33.4145-.072l.0028-1.3839c.24-.5337.6809-.7796 1.3095-.804.5652-.0215 1.3808.3412 1.3808.3412l-2.7337-3.1885s-1.8009.8852-2.6765 4.1956c-.8671-.134-2.5167-.4303-2.5167-.4303s-.1926.274-.2755.4173c-.8178.1944-2.3626.6011-3.217 1.9974l-3.2078.2022s-.0007-.6463-.0007-1.1755c-.5342-.1323-2.799.102-2.9059 2.4356-.0536 1.166.6079 2.7093 2.9066 2.6144-.0057-.9782 0-1.2485 0-1.2485l3.2967-.0067c-.007.2054.0504.429.1714.66.2794.532.8393 1.0066 1.4415 1.2366-.7775 1.4887-2.03 4.857-2.03 4.857h3.3536c.3489.8862.8816 1.9537 1.6256 3.2576.2974.5221.544.9761.8865 1.638l-.3146-.016.8004 3.7226 3.6562 1.5293v-.6026c1.2965.8636 4.342 2.66 5.199 3.163l-.0019 8.4826c-1.568-.0021-4.4785-.0607-6.0226-.1485-.2875-10.2888-5.207-18.0312-13.522-21.2754-.2057-.7736-.7973-1.4326-1.68-1.6905-2.0415-.5955-3.4325.6308-5.1276-.4272-.0338.1757-.2451 1.0675-.2451 1.0675l-.6996-.3094-.1605 1.5992 3.1076 1.0322c-.9324.4776-2.3869 1.4185-2.6596 1.5963-.3873.0353-1.1797.1168-2.1329 1.5392-.1894.1686-1.2132 1.076-1.645 1.3885-.9973.7207-2.6014 2.1682-3.6622 3.126-.4452.4018-.8297.7482-.9172.8107-1.718 1.2262-1.495 2.7492-1.299 4.0926l.0209.1407s.1714.0328.1852.0356c-.309.7867.1065 1.9403.2028 2.187l.035.0902.093.0283c.276.0843.523.1266.735.1266.4963 0 .8307-.2399.9179-.658.1248-.6018.255-.806.453-.9697.7245-.5987 1.7525-.5327 2.04-.6047a.8476.8476 0 0 0 .1503.3676c.048.0685.1143.1327.1895.187-.4996.3422-1.4595.8435-1.8507 1.039l-.175.087.259.5486-.2484.0999s-.1545.6826.1623 1.0946c.2007.2607.528.393.9948.393h.0014c2.006-.0765 2.7605-1.2065 3.078-1.9152.1051-.2346.3263-.5119.5387-.7221.3225.5252.4128.9225.2956 1.2177-.0165.0269-1.604 2.5725-2.0637 3.2812-1.2316.0614-1.7653.8901-1.7473 1.6867.0173.7662.5651 1.7452 1.7543 1.6605 1.6034-.1143 1.7967-1.3046 1.7798-1.7646a1.6703 1.6703 0 0 0-.1055-.5239c1.0802.3888 2.278.7444 3.572 1.0598-.7487 1.2763-1.837 2.85-2.2138 3.3768-1.3829 1.9321-2.6769 4.0724-4.1949 6.6918-1.2255 2.1142-1.7984 3.9339-2.0658 5.1926-.4618-.5497-1.165-1.3773-1.5008-1.7265-.5302-.5518-1.9723-1.2852-3.7736-1.3677-1.1099-.0512-3.0487.7115-6.32 2.0831-3.6608 1.5353-6.047 2.958-6.9015 4.1385-1.223 1.6901-1.991 4.0008-2.3124 4.9565-.1577.2836-1.8239 3.3214-1.5642 4.7565l-.0554.0254.9645 1.8948 2.594-1.3314c-.1722.8071-.2265 1.6658-.1662 2.6109-.3478 1.42-.4643 3.8852.1729 5.0783l-.024.0211 1.2428 1.6062 5.7478-5.0772-1.0978-1.2703c-.1754-.2392-.67-.823-.991-1.0862-.2226-.1828-.2991-.6001-.1739-.9504.0847-.2367.5246-1.2206 1.9064-.4512.6265.3489 1.275-1.3226 1.307-1.771.0265-.3732-.249-2.6687-.2388-2.8102l.0092-.013c.5052-.7017 1.7367-2.4268 2.4977-2.9856.7983-.5867 2.729-.9578 3.0977-.7289.7458.4636 2.2589 1.1258 2.9179 2.788 2.0845 5.262 8.3012 9.3342 9.4826 9.3342h.0004c1.0551-.0649 2.4649-1.426 2.4821-1.4407 2.7651.9659 4.9234 1.4139 5.6981 1.5582l-.696 1.0146c-2.0648.1002-6.4393 2.0348-6.6442 3.5856-.1253.9483 1.036 1.2393 1.036 1.2393s1.6888-1.3314 3.2738-1.409l-1.149 1.682 6.9713.0456.0423-.4692 1.5875.446.1895-.862 2.8638 1.0827-4.6894 4.4465 6.2762-2.6392 3.9667 6.9244-1.123-7.7601 6.6433-2.7739-7.1523.5807-1.6217-3.8545-1.2054 3.4378-3.4287-1.2876c.442-.8128 1.1046-1.6387 1.972-2.4585 3.2936.2579 9.0876-.266 11.6886-.5556l.018 11.0836 2.2543 1.9925 2.4867-1.9163.138-11.755c2.0983-.2995 3.9444-.5228 5.4913-.6639.6223.763 1.2347 1.4975 1.627 1.5804.6608.1401 1.6524-.0754 2.8205-.3044.743 1.2943 1.2968 2.2144 1.6478 2.7369.7557 1.1253 6.9346 4.021 8.5136 4.562 3.9384 2.7899 5.4159 7.376 5.1968 12.6768-.0257.6146-1.0791 2.1746-1.5018 2.7884-2.134 1.057-3.1104 3.0346-3.1104 3.0346l.0247 1.8708h3.253c-.0223.078-.0445.163-.0445.163l-.0021 1.5808h7.7389l.013-1.5572s-.1527-.9899-.4716-1.6253c.0578-1.0396.3203-2.2556 1.229-2.2556.5409 0 1.2792.5609 1.2792.5609s1.3282-2.285-.5535-5.1679c-.5327-2.0792-.507-4.223-.4808-6.4706.0144-.1157.3418-2.847-.4668-4.172 0 0-.9528-2.267-2.3812-2.3742-.8414-.895-3.9243-2.9376-3.8795-4.9325.0272-1.2051.2088-2.3576.4141-3.5768.229-1.3657.466-2.7775.4837-4.4186.018-1.6873-.4547-2.9404-2.0553-6.0561.3517.1947 1.438.8092 1.438.8092.351 1.6496 1.435 3.2276 2.8723 4.2944 3.3274 2.4702 6.2819 1.531 7.4235.8544 2.221-1.3158 3.3016-4.0672 3.3016-4.0672s-.6519.0681-.9803.1101c2.0507-2.3544 3.6974-7.4764.5528-13.323"/>
	</g>
</svg>