<svg width="1200" height="600" enable-background="new 0 0 1000 500" version="1.1" viewBox="0 0 1199.9999 599.99999" xmlns="http://www.w3.org/2000/svg">
 <path d="M -2.6e-5,1.2e-5 H 1200 V 600 H -2.6000001e-5 Z" fill="#00247d"/>
 <path d="m-5e-5 0h599.99999v299.99999h-599.99999z" fill="#00247d"/>
 <polygon transform="matrix(1.2,0,0,1.2,-5e-5,0)" points="0 222.049 0 250 55.902 250 208.333 173.783 208.333 250 291.667 250 291.667 173.783 444.098 250 499.999 250 499.999 222.049 389.234 166.666 499.999 166.666 499.999 83.332 389.234 83.332 499.999 27.949 499.999 0 444.098 0 291.667 76.215 291.667 0 208.333 0 208.333 76.215 55.902 0 0 0 0 27.949 110.765 83.332 0 83.332 0 166.666 110.765 166.666" fill="#fff"/>
 <g fill="#cf142b">
  <polygon transform="matrix(1.2,0,0,1.2,-5e-5,0)" points="462.731 0 296.065 83.332 333.333 83.332 499.999 0"/>
  <polygon transform="matrix(1.2,0,0,1.2,-5e-5,0)" points="0 0 0 18.633 129.399 83.332 166.667 83.332"/>
  <polygon transform="matrix(1.2,0,0,1.2,-5e-5,0)" points="37.268 250 203.934 166.666 166.667 166.666 0 250"/>
  <polygon transform="matrix(1.2,0,0,1.2,-5e-5,0)" points="499.999 250 499.999 231.365 370.601 166.666 333.333 166.666"/>
  <path id="path2938_1_" d="m269.99994 0h60v120h270v60h-270v119.99999h-60v-119.99999h-269.99999v-60h269.99999z"/>
 </g>
 <g transform="matrix(48.609468,0,0,48.609468,-202.63733,921.85868)">
  <g transform="matrix(.01298993 0 0 .01298993 20.421978 -15.604714)">
   <path d="m178.75719 301.84618-4.18-3.57793v2.57793c0 1.41785-0.47235 2.57792-1.04966 2.57792-3.79349 0-14.04266-9.4224-17.50487-16.0928-3.62745-6.98876-1.21758-20.1549 4.68401-25.59059 3.36847-3.10255 7.17506-4.31661 13.53441-4.31661 4.9518 0 5.85392-0.34175 8.57898-3.25 1.67491-1.7875 4.15228-4.9179 5.50527-6.95643l2.45997-3.70644-6.1499-5.69372c-6.83523-6.32822-10.5631-12.00069-11.59501-17.64341-0.37718-2.0625-1.0914-3.75-1.58715-3.75s-4.14913 0.9-8.11861 2-8.68879 2-10.48734 2h-3.2701v5.53212c0 6.72794-1.94827 11.73265-5.46416 14.03636-1.44717 0.94822-3.30863 3.34572-4.13658 5.32778-1.88609 4.5152-5.85853 8.75107-10.39926 11.08891-1.925 0.99111-4.4 2.81577-5.5 4.05482-1.1 1.23904-3.8 3.5651-6 5.16902-6.62079 4.82691-14.87381 13.25712-17 17.365-1.100001 2.12524-3.575001 4.91737-5.500001 6.20473-3.83401 2.56404-4.74981 4.59818-4.90032 10.8844l-0.09968 4.16313-3.17034-1.16313c-1.74369-0.63973-4.67232-2.5697-6.50806-4.28882l-3.33772-3.12568-0.61975 3.87568c-0.34086 2.13162-1.04182 3.87568-1.55768 3.87568-1.45507 0-5.08314-2.04682-7.45995-4.20862-2.07669-1.88883-2.19288-1.89329-3.25786-0.12503-1.01233 1.68082-1.41627 1.49032-4.84651-2.28556-3.92936-4.3253-6.84885-11.21979-7.84656-18.52995-0.70674-5.17823 1.6483-15.12063 4.28386-18.08535 2.58484-2.90768 9.18436-5.71776 13.48878-5.74353 2.01752-0.0121 4.39565-0.3011 5.28474-0.64228 2.23561-0.85788 6.50296-7.28504 16.14022-24.30914l8.23979-14.55549-4.16648-1.21809c-2.29156-0.66994-6.8085-2.81083-10.03763-4.75752-5.09679-3.07261-6.71553-3.53944-12.27306-3.53944h-6.4019l1.72401 2.63117c1.71761 2.62141 1.71492 2.62834-0.72695 1.86955-7.26855-2.25867-11.39804-5.10244-15.49927-10.67356-2.36174-3.2082-4.58103-7.13961-4.93177-8.73649-0.4299-1.95733-1.42716-3.10156-3.06046-3.51149-1.33253-0.33444-4.00602-1.99819-5.94111-3.69722s-3.51495-2.70503-3.5108-2.23555c0.01167 1.32247 5.71464 23.09649 7.92227 30.24735l1.9739 6.39377-2.98701 2.79028c-4.88172 4.56021-13.05067 6.41346-21.34338 4.84205-6.86034-1.29997-10.3613601-4.90871-12.1659301-12.54024-3.53269-14.93984-4.15409-51.9108-1.25503-74.67035 1.05251-8.26293 0.999-8.92337-0.89135-11-1.10609-1.2151-2.51732-3.19219-3.13605-4.39353-1.56165-3.03214-1.34486-11.30708 0.37504-14.31574 0.78602-1.375 1.44508-3.4518 1.46456-4.61513 0.01949-1.16333 0.93544-3.25931 2.03544-4.657731 1.1-1.398424 2-3.449584 2-4.558134 0-2.600638 4.6767101-8.168996 6.8609101-8.168996 1.13914 0 3.37174-3.395317 6.90772-10.505204 17.35872-34.903599 41.29291-62.609325 62.76766-72.6585741 3.50967-1.6423737 7.30524-2.8399038 8.4346-2.6611782 1.775 0.2809007 1.11861 1.4206834-4.84161 8.4071668-15.64618 18.3402285-31.26227 44.1897555-41.94638 69.4344275-5.79103 13.683188-5.8306 13.988645-2.25555 17.413755 3.45268 3.307877 4.56264 6.224498 6.0865 15.993348 1.22736 7.86814 4.25143 15.60136 7.11391 18.19188 1.85727 1.6808 2.02271 1.67293 3.75691-0.1787 1.59724-1.7054 1.74243-3.15282 1.2147-12.10899-0.53156-9.0212-0.88222-10.47556-3.09937-12.85462l-2.5-2.68256 3.8661 1.6021 3.86609 1.60211-0.62285-2.74748c-1.62766-7.179757-1.71881-9.127236-0.61844-13.213702 1.42302-5.284675 5.64671-9.503836 10.75831-10.746761 3.59246-0.873534 3.74064-1.075092 3.51038-4.774866-0.14533-2.335059-1.10416-4.78225-2.42431-6.187493-2.62646-2.795731-1.63942-2.939791 6.19679-0.90443l5.46793 1.420228 2.76024-3.344323c3.65215-4.424977 14.342041-11.496134 17.379391-11.496134 2.34876 0 2.37189 0.07703 0.88605 2.95034-0.83912 1.622687-1.52568 3.331855-1.52568 3.79815 0 0.948571 14.68963-5.905209 16.94035-7.903907 1.2124-1.076638 1.32363-0.974881 0.7028 0.642962-0.40565 1.057117-1.01211 3.925193-1.34769 6.373502-0.78065 5.695464 0.96957 4.880501 2.79486-1.301384l1.31772-4.462842 2.65322 2.971791c1.45926 1.634485 3.4608 4.762701 4.44785 6.95159s2.42057 3.979798 3.18561 3.979798c0.76503 0 3.56925-2.037534 6.2316-4.527854l4.84065-4.527855 0.65939 3.514871c0.36267 1.933178 0.36372 6.783213 2e-3 10.777854l-0.65705 7.262984 3.95536 2.587263 3.95535 2.587262 2.2907-4.824862c2.67595-5.636339 8.6196-10.832973 16.74479-14.640268 4.95864-2.323516 7.07767-2.709395 14.87846-2.709395 5.18824 0 9.69937 0.479385 10.5 1.115805 2.67591 2.127103 7.34162 2.235496 12.86903 0.298973 7.95882-2.788367 13.59893-2.481557 21.38817 1.163468 6.22788 2.914376 10.64649 3.268963 10.64649 0.854366 0-1.566922-3.89247-4.930402-5.75-4.968575-1.34287-0.0276-1.05206-0.608059 1.25-2.495033 5.36768-4.399832 14.66092-2.893762 19.4117 3.145875 1.52864 1.943347 2.0883 4.093383 2.0883 8.022582 0 4.966488 0.29028 5.629993 3.88315 8.875939 5.02191 4.536993 6.47237 8.185929 5.91683 14.885011l-0.44684 5.388319 14.07343 0.45655c17.14228 0.556121 21.63108 2.003711 29.28626 9.444551 7.8503 7.6305 10.88774 16.50573 9.07055 26.50369-1.16975 6.43583-2.84285 9.76165-7.50896 14.92648l-3.61243 3.99853 2.59599 2.59598c1.77565 1.77565 3.60326 2.56735 5.78354 2.50536l3.18756-0.0906-2.36454 2.53369c-3.50319 3.75381-9.41918 6.4376-15.59587 7.07509l-5.47612 0.56519 0.60366 3.77505 0.60365 3.77506-6.13589-2.40464c-5.26849-2.06471-5.90462-2.14909-4.49993-0.59692 2.31074 2.55334 2.04324 3.2688-1.0985 2.93808l-2.73446-0.28785 0.33238 6.88333c0.30708 6.35944 0.69042 7.38691 5.03669 13.5 5.26024 7.39859 11.12165 11.49518 13.31213 9.30395 0.70825-0.70849 1.244-3.31464 1.19056-5.79143l-0.0972-4.50326 3.97035 3.80371c2.18369 2.09203 4.99088 6.0537 6.23819 8.8037l2.26784 5 0.90694-3.43982c0.90501-3.43249 0.91186-3.42328 3.20897 4.31457 1.26612 4.26492 2.30203 9.32489 2.30203 11.24437 0 2.32162 0.78019 4.27017 2.3305 5.82047 2.3839 2.3839 3.8741 6.70081 4.97514 14.41232 0.34174 2.39356 0.9692 5.31856 1.39433 6.5 0.78426 2.17943 0.45634 11.62511-0.4345 12.51595-0.26737 0.26738-1.12287-0.38101-1.9011-1.44086-1.35536-1.84583-1.46304-1.80063-2.55628 1.073-1.54876 4.07097-4.49817 7.11877-10.88419 11.24722l-5.3761 3.47557 0.55509 4.6386c0.3053 2.55124 0.88677 5.49538 1.29216 6.54255 0.67273 1.73775 0.364 1.85391-3.53684 1.33069-2.66244-0.3571-5.74145-1.75259-8.16606-3.70106l-3.89215-3.12782v3.54713c0 4.06308-0.66315 4.25653-5.78984 1.68902-2.04059-1.02196-4.89752-2.14294-6.34874-2.49109-3.58593-0.86025-8.53775-6.73507-9.88071-11.72244-1.25153-4.64784-0.41482-13.95243 1.48877-16.55574 0.68703-0.93957 4.12495-3.09528 7.63983-4.79047 6.0499-2.9178 6.39069-3.2688 6.39069-6.58216 0-3.0499-0.59472-3.89747-4.62464-6.59078-2.94236-1.96647-8.94445-4.26196-16.5-6.31039-23.37904-6.33844-32.9403-9.49427-37.16116-12.26556l-4.2858-2.81393-0.84604 2.24033c-1.01237 2.68082-0.26271 4.28076 3.83158 8.17742 3.55867 3.38689 3.84208 5.81085 1.18825 10.16289-1.40437 2.30306-1.75843 4.27023-1.37725 7.65209 0.38368 3.40394-5e-3 5.52264-1.53902 8.40002-1.12866 2.11635-2.53115 5.42644-3.11665 7.35575-2.8275 9.31714-22.66509 23.57375-35.7808 25.71449-4.38432 0.7156-4.97837 1.15799-7.03847 5.24151-1.2375 2.45297-2.25 5.71459-2.25 7.24805 0 3.62559-0.78625 3.51889-5.82-0.78981z"/>
   <g fill="#fdc82f">
    <path d="m74.098479 284.03194c1.82495-2.78521 1.82454-2.8818-0.01797-4.22907-1.03707-0.75833-2.42643-1.37877-3.08746-1.37877-2.5371 0-3.15281 5.60954-1.21843 11.10078l1.19743 3.39922 0.62942-3.02092c0.34618-1.66151 1.46984-4.30356 2.49701-5.87124z"/>
    <path d="m181.81976 288.25744c1.30299-3.10039 1.4613-4.48523 0.62755-5.48983-1.21616-1.46539-4.46208-1.81274-5.23612-0.56033-0.64013 1.03576 1.33672 10.21973 2.19698 10.20665 0.36796-6e-3 1.45318-1.87602 2.41159-4.15649z"/>
    <path d="m85.501109 283.24149c0.08646-1.91221-3.65767-3.48364-5.03014-2.11117-0.53986 0.53986-0.229 2.88853 0.77059 5.82217l1.67549 4.91727 1.25399-3.47283c0.6897-1.91006 1.28823-4.23001 1.33007-5.15544z"/>
    <path d="m172.02895 280.27212c-1.49043-4.69595-5.09376 0.37758-4.01416 5.65198 0.22516 1.1 0.45369 2.675 0.50785 3.5 0.0542 0.825 0.99721-0.48089 2.09566-2.90198 1.09846-2.42109 1.73325-5.23359 1.41065-6.25z"/>
    <path d="m63.577189 286.22785c0-0.65794 1.16789-2.88151 2.59531-4.94128 2.97464-4.29241 2.53158-5.86247-1.65433-5.86247-2.92787 0-2.94098 0.0268-2.94098 6 0 3.33333 0.44444 6 1 6 0.55 0 1-0.53831 1-1.19625z"/>
    <path d="m166.57719 280.23297c0-1.83011-0.52268-2.80887-1.5-2.80887-1.12727 0-1.4921 1.18031-1.4682 4.75 0.0294 4.39396 0.14186 4.6045 1.5 2.80887 0.80751-1.06762 1.4682-3.20512 1.4682-4.75z"/>
    <path d="m161.55281 276.04385c-1.12759-1.1871-2.39252 5.90148-1.35002 7.56536 0.54935 0.87678 1.0508-0.0179 1.50499-2.68511 0.37463-2.2 0.30489-4.39611-0.15497-4.88025z"/>
    <path d="m191.95954 280.87009c0.33971-0.88526 0.61765-4.36276 0.61765-7.72778 0-4.40356 0.3045-5.81371 1.08651-5.0317 0.64782 0.64782 0.95064 3.95954 0.75 8.20225-0.18508 3.91366-0.11151 7.09976 0.16349 7.08022 0.275-0.0195 1.44643-0.82668 2.60318-1.79365 3.68599-3.08128 4.53256-5.79324 3.88569-12.44765-0.51315-5.27875-0.41136-5.92293 0.66803-4.22768 0.70039 1.1 1.2891 4.81194 1.30826 8.24876 0.0192 3.43682 0.3417 6.24932 0.71675 6.25 1.10971 2e-3 4.48082-5.29621 5.08938-7.99876 0.30962-1.375 0.20922-4.71895-0.2231-7.431-0.67383-4.22696-0.59646-4.67171 0.54185-3.11497 0.73035 0.99881 1.59997 3.89276 1.93249 6.431 0.99494 7.59482 1.09007 7.79161 2.32008 4.79987 0.63656-1.5483 1.16428-5.5983 1.1727-9 0.0173-6.98375 1.44143-6.27245 2.63305 1.3151 0.62038 3.95021 0.79503 4.19456 1.4295 2 0.39753-1.375 0.80418-4.75 0.90368-7.5l0.1809-5 1.37367 3c0.75553 1.65 1.40087 4.125 1.4341 5.5 0.0482 1.99586 0.25836 2.19752 1.04201 1 0.53988-0.825 0.76892-4.2 0.50897-7.5-0.41252-5.237-0.32399-5.65029 0.69614-3.25 2.01401 4.73884 3.09915 3.14321 2.41351-3.54895-0.49027-4.78537-0.2908-6.76778 0.8301-8.25 2.281-3.01626 1.86001-4.46197-2.46094-8.45105-5.60081-5.17064-5.34314-10.12278 0.89647-17.22931 2.79432-3.18255 2.95-3.74286 1.99795-7.19089-0.83045-3.00764-1.85067-4.11087-5.21346-5.63764-8.39952-3.81354-22.87758-1.95472-33.18096 4.26006-7.99738 4.82385-9.5 6.59779-9.5 11.21531 0 3.8245 0.57064 4.624 9.5 13.3101 5.225 5.08265 9.5 9.61217 9.5 10.0656 0 0.45344-1.60137 3.49795-3.55859 6.7656-4.19987 7.01181-13.14579 16.44117-15.59823 16.44117-2.66459 0-3.15664 1.80952-0.60801 2.23599 1.80103 0.30137 1.41388 0.62586-1.89051 1.58455-2.28543 0.66306-5.21043 2.09355-6.5 3.17886l-2.34466 1.97328 2.5 1.96145 2.5 1.96144 3-2.82779c2.93089-2.76265 6.62174-5.06778 8.11426-5.06778 0.41015 0-1.13526 1.61007-3.43426 3.57792-4.74421 4.06087-5.20747 5.42208-1.8453 5.42208 1.33706 0 3.48492 1.29092 5.02645 3.02103 2.16398 2.42869 3.05564 2.82628 4.54765 2.02778 1.02075-0.54629 2.13384-1.71756 2.47355-2.60282z"/>
    <path d="m308.07719 274.18941c-1.7084-1.25513-4.53482-0.83816-5.14788 0.75946-0.32233 0.83998 0.70227 3.42238 2.28139 5.75l2.86649 4.22523 0.5-5c0.27947-2.79468 0.0589-5.32404-0.5-5.73469z"/>
    <path d="m92.642929 282.38892c1.19782-0.64106 1.93426-2.09003 1.93426-3.80572 0-1.5238 1.11965-4.28814 2.48811-6.14299 1.36846-1.85484 2.77616-4.97977 3.128231-6.94427 0.35206-1.96451 1.05827-4.24684 1.56934-5.07184 0.89495-1.44468 0.58586 1.68588-0.93796 9.5-0.51532 2.64254-0.39718 2.84558 0.99151 1.704 2.35115-1.93276 4.76077-7.5834 4.76077-11.16415 0-1.85061 0.41397-2.90204 1-2.53985 0.55 0.33992 1 2.2666 1 4.28152v3.66349l1.65752-2.36643c0.91163-1.30154 1.69913-4.32656 1.75-6.72226 0.11577-5.45251 1.20066-5.63498 2.0932-0.35207 1.0898 6.45045 2.82415 3.63173 2.24036-3.64109-0.28093-3.49974-0.33395-6.36316-0.11783-6.36316s1.14074 1.86893 2.05472 4.15318l1.66177 4.15317 2.33013-2.70894c2.52189-2.93188 2.92368-5.61983 1.29495-8.66315-0.59561-1.11291-0.64104-1.93426-0.10699-1.93426 1.25008 0 2.14217 2.5327 2.14217 6.08179 0 3.345 0.60474 3.58589 3.17126 1.26322 2.22123-2.01019 2.30784-4.73564 0.32874-10.34501-0.825-2.3383-1.46663-4.75738-1.42584-5.37573 0.11001-1.66755 3.76514 6.57405 3.85168 8.68475 0.0408 0.99496 0.52416 1.5309 1.07416 1.19098 1.47043-0.90878 1.15126-7.61142-0.5-10.5-2.07149-3.62369-1.7564-4.88765 0.53327-2.13922 1.0817 1.29844 1.96673 3.21094 1.96673 4.25 0 3.20924 4.66108 2.4453 6.47432-1.06112 2.10249-4.06576 1.92487-4.84863-0.97432-4.29441-2.30353 0.44035-2.5 0.18616-2.5-3.23438 0-8.09696 4.18172-11.18793 19-14.04407 8.93455-1.72208 18.88321-4.81345 35.5-11.03098 9.04078-3.3828 11.17468-3.78705 22.24621-4.21436l12.2462-0.47265-2.24296-3.99081c-3.64949-6.4934-11.93326-12.13413-19.6263-13.3643-2.25518-0.36062-3.81786-1.08865-3.48674-1.62442 0.97613-1.57941 9.31443 0.16651 15.32684 3.20922 10.88139 5.50679 13.36548 9.28306 17.71089 26.92383 1.52762 6.20157 2.31589 7.7119 4.82586 9.2463 3.73052 2.28056 24.99019 9.31744 32.81926 10.86307 7.37633 1.45625 19.00947 6.22892 23.46372 9.62634 3.72852 2.84388 6.21918 7.6822 6.21328 12.06984-5e-3 4.03933-3.32794 8.89835-6.65111 9.72695-5.76684 1.43789-9.20221 3.70639-10.27553 6.7853-1.40644 4.03451-1.4756 3.88806 1.68038 3.55772 1.84025-0.19262 3.45484-1.3869 4.88059-3.61006 1.17182-1.82721 3.03685-3.95698 4.14451-4.73281 1.67984-1.17661 1.5059-0.47265-1.04856 4.24365-2.33034 4.30252-2.66399 5.50134-1.39562 5.01463 0.91677-0.3518 2.66073-0.27198 3.87547 0.17738 1.93869 0.71717 2.47145 0.255 4.35937-3.78181 1.18293-2.52936 3.17611-5.49883 4.42931-6.59883l2.27854-2-1.51637 3c-0.834 1.65-1.80887 4.36033-2.16639 6.02295-0.62272 2.89596-0.45637 3.08013 3.95979 4.38406 3.97244 1.17292 4.81179 1.15913 6.07068-0.0998 1.13307-1.13307 1.22726-2.07531 0.41978-4.19916-0.57261-1.50606-1.01129-3.94649-0.97486-5.42319 0.0501-2.03273 0.58451-1.28415 2.19986 3.08182 1.17348 3.17169 2.60617 5.61115 3.18375 5.42103 1.9377-0.63785 3.62372-5.15754 3.14761-8.43775-0.49526-3.41217 0.19651-4.05603 2.20254-2.05 0.93333 0.93333 1.2 0.84076 1.2-0.41659 0-0.88913-1.2375-2.52307-2.75-3.63097l-2.75-2.01438 4.36382 0.57791c4.11239 0.5446 4.30279 0.46387 3.3046-1.40128-1.54413-2.88522-3.29482-4.09348-6.67243-4.60504-1.6478-0.24957-0.85548-0.3521 1.76071-0.22785l4.75669 0.2259-1.7616-3.01628c-0.97422-1.66809-3.32381-3.60987-5.2567-4.34429l-3.49509-1.32801 4.25 0.57834c3.60855 0.49105 4.25 0.31283 4.25-1.18082 0-3.15914-3.04495-5.41254-7.40499-5.48003-3.48178-0.0539-3.75589-0.19962-1.83047-0.97315 2.97946-1.19698 4.48034-5.18918 3.20852-8.53432l-0.97744-2.57086-2.61535 2.05724c-1.43844 1.13148-3.03053 1.80063-3.53798 1.48701-0.52034-0.32159-0.63079-3.14979-0.25329-6.48637 0.44722-3.95296 0.31422-5.91616-0.40082-5.91616-0.58858 0-1.34826 0.45-1.68818 1-1.15646 1.8712-5.98586 0.95141-11.9614-2.27812-4.43922-2.39921-7.31178-4.98949-11.25-10.14448-4.99962-6.54433-5.2886-7.24373-5.2886-12.79966 0-6.66975-1.38329-9.90883-6.16468-14.43508-3.7766-3.57507-14.19381-10.83717-23.83532-16.61619-8.61481-5.16363-4.36518-3.90643 11 3.25421 12.58877 5.86674 18.99945 8.3532 19.70849 7.64416 0.2113-0.2113-1.15231-2.01333-3.03023-4.00451-4.11687-4.36515-2.34965-4.87936 4.4228-1.28691 2.41942 1.28338 5.67414 2.65142 7.23273 3.04008 3.03063 0.75575 2.9869 0.0565-0.23589-3.77145-1.53656-1.82509-1.44436-1.87435 2.4021-1.28316 2.2 0.33812 6.7 0.91734 10 1.28714l6 0.67236-2.25-2.45364c-3.19191-3.48082-2.8113-5.65244 1.66173-9.48119 5.56228-4.7611 9.08827-12.30987 9.08827-19.457 0-10.44586-4.78254-17.55239-15-22.28899-7.36467-3.4141-35.15041-2.8662-78.54575 1.54884-19.77712 2.01212-37.30876-1.41832-44.89332-8.78434-8.81844-8.564363-7.18658-17.486531 3.83363-20.960348 7.81071-2.462109 12.70091-1.368954 23.79072 5.318182 12.37651 7.463015 20.36862 11.120155 25.98308 11.889703 4.11038 0.563392 5.54009 0.16601 12.90615-3.587179 7.12957-3.632696 8.84724-4.130642 12.32847-3.573971 2.22462 0.355732 4.9076 1.412858 5.96217 2.349169 1.86271 1.653819 1.89786 1.588275 1.23247-2.297617-0.84787-4.951565-5.39274-9.5-9.49255-9.5-1.57486 0-5.50501 1.209375-8.73366 2.6875-9.89075 4.528137-20.14296 3.402121-27.12141-2.978787-3.54571-3.242105-2.65003-3.639215 2.41948-1.072704 5.53648 2.802926 8.836 3.12363 7.93324 0.77109-1.53594-4.002598-1.87153-6.691269-0.74856-5.997235 0.63021 0.389494 1.14584 1.305339 1.14584 2.035212 0 2.369581 6.45135 4.554924 13.44658 4.554924 5.76205 0 6.97782-0.333491 9.15581-2.511482 2.02406-2.02406 2.45191-3.318999 2.20455-6.67228-0.33273-4.510347-2.44837-6.373259-2.97984-2.62387-0.21194 1.495218-1.61693 2.938208-3.9908 4.09876-4.03246 1.971409-2.08855 2.367396-19.63046-3.998857-4.13342-1.500089-4.60636-1.454678-12.63512 1.213191-4.84713 1.610652-9.33155 2.52692-10.70584 2.187447-1.30068-0.321292-4.8318-1.285281-7.84692-2.142199-12.29497-3.49431-29.37204 3.189673-33.64112 13.167171-3.17115 7.41145-0.27255 16.43253 7.50831 23.36748 8.89731 7.93005 30.4783 15.29846 38.52016 13.15197 2.24241-0.59854 4.19629-0.96907 4.34194-0.82342 0.14566 0.14565-1.96414 1.78586-4.68843 3.6449-2.72429 1.85905-4.77934 3.55399-4.56679 3.76654s2.3263-0.29113 4.69721-1.11931c13.20269-4.61176 22.53822-6.04321 14.48289-2.22071-3.48987 1.65606-7.78497 5.53635-6.07712 5.49021 4.56422-0.12329 10.40601-2.57144 13.63663-5.71477 5.19793-5.0575 5.64767-3.55278 0.77904 2.60649-2.23145 2.823-3.89217 5.13273-3.69048 5.13273 2.2245 0 12.69816-4.59006 14.64678-6.41893 4.2107-3.95191 10.18452-7.58291 12.42257-7.55066 1.85974 0.0268 1.91055 0.14702 0.42767 1.01207-1.97019 1.14933-5.094 6.95752-3.74194 6.95752 0.50709 0 4.91534-1.79811 9.79612-3.99581 10.96597-4.93771 22.29882-7.40384 31.12238-6.77252 7.68942 0.55017 10.11246 1.83337 12.9308 6.84793 5.14206 9.14906 0.30289 19.74262-10.92458 23.91525-5.73242 2.13043-37.27993 2.50738-51 0.60938-6.325-0.87499-23.875-2.29081-39-3.14628s-32.00329-1.81752-37.5073-2.1379l-10.00731-0.5825 0.50837 7.66836c0.3509 5.29302 0.97268 7.96187 2.00731 8.61591 1.21852 0.77029 1.10083 0.95042-0.6291 0.96287-1.17041 8e-3 -2.88041-0.99719-3.8-2.23469l-1.67197-2.25 0.59387 2.5c0.32664 1.375 0.85766 5.90323 1.18006 10.06273 0.45455 5.86442 0.22912 8.22234-1.00384 10.5l-1.59001 2.93727-0.04-4.55887c-0.022-2.50738-0.70073-5.43238-1.50824-6.5-1.36237-1.80122-1.47191-1.61677-1.51973 2.55887-0.0283 2.475-1.39265 8.30338-3.0318 12.95195-3.48294 9.8775-3.50467 10.04805-1.28027 10.04805 1.28765 0 1.41921 0.28079 0.54238 1.15762-2.28918 2.28918-4.0792-0.85073-4.10961-7.20873-0.0156-3.267-0.48821-6.72949-1.05018-7.69444-0.82046-1.40878-1.02969-0.96635-1.06195 2.24555-0.0456 4.54051-3.29797 12.13924-7.93643 18.54245-1.73185 2.39075-2.90897 4.97183-2.61583 5.73574 0.31377 0.81769 0.0186 1.21981-0.7177 0.97773-0.69724-0.22925-1.47194-2.74389-1.75068-5.68265l-0.5-5.27144-2.41667 3.28402c-1.32916 1.80621-2.41666 3.8758-2.41666 4.59909 0 0.72328-0.32686 1.31506-0.72635 1.31506-1.23684 0-1.70238-2.40185-0.87222-4.5 1.04844-2.64981 1.13877-7.5 0.13968-7.5-1.52018 0-8.41769 13.05881-8.56216 16.21041-0.10872 2.37192 0.42298 3.46715 2.09845 4.32249 3.10943 1.58739 1.77605 2.47666-2.06274 1.37571-1.74247-0.49974-3.26292-0.90861-3.37878-0.90861-0.46871 0-11.483501 19.17262-16.660691 29-3.04234 5.775-6.91793 11.9625-8.61242 13.75-2.81169 2.96603-3.60723 3.25-9.10482 3.25-3.33189 0-7.28865 0.654-8.85394 1.46345-3.03847 1.57126-7.46334 8.0922-6.52323 9.61332 0.74122 1.19933 3.45255 1.19929 3.45255-4e-5 0-1.64176 5.25387-7.22275 7.6609-8.13791 2.38378-0.90631 8.3391-0.21887 8.3391 0.96261 0 0.35828-1.71869 0.48752-3.81932 0.28719-3.35043-0.31951-4.20979 0.0805-7 3.25837-1.74937 1.99243-3.18068 4.02565-3.18068 4.51826 0 1.86602 4.6207 1.50325 7.5-0.58883 3.85639-2.80202 10.5-5.55086 10.5-4.34445 0 0.51146-1.07569 1.19991-2.39042 1.52988-1.31473 0.32998-3.58599 1.84787-5.04725 3.37309l-2.65682 2.77313 2.54724 1.66902c1.95046 1.27798 2.54725 1.35728 2.54725 0.33846 0-0.7318 2.1375-2.87967 4.75-4.77305 7.61758-5.52074 8.07709-5.53457 2.5-0.0752-2.8875 2.82653-5.25 5.37128-5.25 5.655s1.10842 0.23766 2.46316-0.10236c1.90515-0.47816 3.09449 0.057 5.25 2.36228 3.36701 3.60097 2.98982 3.44716 5.35258 2.18265z"/>
    <path d="m295.70251 277.39292c1.50331-3.35774 1.576-4.1462 0.42309-4.58862-1.53917-0.59063-5.54841 1.22001-5.54841 2.50576 0 1.74081 2.26014 7.18723 2.77068 6.6767 0.29669-0.29669 1.35628-2.36392 2.35464-4.59384z"/>
    <path d="m288.47465 273.6157c1.06372-1.98759 0.93691-2.1916-1.36228-2.1916-2.13441 0-2.53518 0.46132-2.53518 2.91821 0 1.60502 0.30972 3.72533 0.68827 4.71181 0.59206 1.54289 0.78248 1.44133 1.36227-0.72661 0.37071-1.38612 1.20182-3.50643 1.84692-4.71181z"/>
    <path d="m60.577189 276.7241c0-2.01099-0.28907-2.41093-1.13278-1.56722-0.62303 0.62303-0.86216 1.83803-0.53139 2.7 0.91543 2.38558 1.66417 1.87592 1.66417-1.13278z"/>
    <path d="m167.32716 272.45286c0.67708-1.08419 2.92283-2.8643 4.99055-3.95581 3.92792-2.07348 3.21888-2.76841-1.13549-1.11288-2.84101 1.08015-6.60503 4.52214-6.60503 6.03993 0 1.64266 1.43381 1.13626 2.74997-0.97124z"/>
    <path d="m171.85441 265.53583c2.25006-0.65025 2.5883-0.95857 1.12066-1.02154-2.65218-0.11379-8.20774 3.6311-10.25072 6.90981-1.07388 1.72344-0.39836 1.34185 2.17476-1.22846 2.05289-2.05066 5.18277-4.14757 6.9553-4.65981z"/>
   </g>
   <path d="m32.636829 217.78356c2.99194-1.19714 3.95056-2.07554 3.54676-3.25-2.51081-7.30283-6.87492-25.51604-8.17304-34.10946-2.96511-19.62865-1.51712-59.7589 2.54139-70.4336 0.59466-1.56408 0.95612-2.94667 0.80323-3.07243s-2.07798-0.52223-4.27798-0.88105l-4-0.65238 2.96092 2.47547c1.62851 1.36152 2.75351 2.65944 2.5 2.88428-1.64689 1.46066-5.29426 2.67971-8.01762 2.67971-2.67054 0-2.99296 0.23524-1.98575 1.44885 0.66134 0.79686 2.82616 1.98472 4.81071 2.63968l3.60827 1.19084-2.74403 2.36032c-1.73504 1.49242-4.01048 2.36031-6.18826 2.36031-2.07183 0-3.45687 0.49808-3.47592 1.25-0.01743 0.6875-0.67817 5.975-1.46832 11.75-1.65793 12.11738-1.97533 50.72454-0.50562 61.5 2.14702 15.74129 3.06654 18.61826 6.4169 20.07694 4.18426 1.82175 8.73296 1.74927 13.64836-0.21748z" fill="#fff"/>
   <g fill="#fdc82f">
    <path d="m114.60914 195.37122c3.53528-5.85109 4.12884-7.56887 3.64517-10.54934-0.92886-5.72391 1.96354-2.33204 4.18657 4.90952l1.86016 6.05948 1.19414-3.6183c1.62838-4.93403-0.0351-10.76543-4.4718-15.67636-4.04776-4.48039-4.6383-7.08143-0.80017-3.52437 1.45532 1.34874 3.02273 2.45225 3.48316 2.45225 1.649 0 6.18712 10.60472 6.84695 16l0.67263 5.5 2.66585-5.5c2.03203-4.19234 2.66817-7.02279 2.67562-11.90484 9e-3 -6.17651-0.13282-6.54048-3.99023-10.20994-2.2-2.09281-4-4.47768-4-5.29971 0-1.12611 0.58338-0.95107 2.36617 0.70994 1.30139 1.2125 4.2304 3.69583 6.50892 5.5185 2.27851 1.82268 4.96908 4.92464 5.97904 6.89326l1.8363 3.5793 1.20393-4.78125c1.63645-6.49893 0.63678-10.0171-4.38216-15.42226-2.34054-2.52065-4.57994-5.708-4.97645-7.083l-0.72092-2.5 1.78223 2.5c2.20888 3.09847 3.64673 4.00072 9.67054 6.06823l4.76761 1.63636-0.58155-3.6023c-1.56007-9.66365-5.88487-15.77535-14.4239-20.38351-4.74287-2.55954-3.261-2.99638 2.73275-0.80559 5.94418 2.17268 10.24642 5.03634 13.3321 8.87412l2.18107 2.71269-0.66092-4.3204c-0.80146-5.23916-3.0107-8.81587-6.58794-10.66573-3.61598-1.8699-9.02682-7.01854-9.02682-8.58939 0-0.76724 0.92976-0.39965 2.33987 0.92509 5.89228 5.53551 13.98052 4.29 15.22516-2.34453 0.3601-1.91949 0.33521-4.28087-0.0553-5.24751-0.6434-1.59258-0.78664-1.55941-1.5262 0.35337-1.85013 4.78515-7.52364 3.32779-9.96201-2.55896-1.04977-2.53439-1.67343-2.97321-3.4034-2.39475-1.16496 0.38954-3.8217 0.96353-5.90386 1.27553-3.48469 0.52217-4.10434 1.14496-7.7916 7.83115-2.20321 3.99512-3.64962 7.14512-3.21425 7 1.3875-0.4625 1.46449 0.65365 0.25769 3.73613-1.59455 4.07291-0.7466 33.85462 1.02469 35.98889 1.05254 1.26823 0.90952 1.51111-0.88977 1.51111-1.38916 0-2.55479-0.9681-3.3111-2.75-1.22803-2.89329-5.67822-8.25-6.85386-8.25-0.95834 0-4.93605 9.45695-4.93605 11.73538 0 1.02554 0.54 2.40462 1.2 3.06462s0.7725 1.18569 0.25 1.1682c-1.28265-0.0429-4.45-2.50094-4.45-3.4534 0-0.42059-1.2112-3.46363-2.69156-6.7623l-2.69156-5.99759-1.80844 2.23333c-2.374961 2.93295-2.295511 5.01176 0.19156 5.01176 3.12962 0 2.49606 4.09151-1.492871 9.64081-6.9835 9.71529-9.48949 14.71236-9.45771 18.85919l0.03065 4 1.48807-2.74268c1.1028-2.03259 2.51639-2.90711 5.45996-3.3778 2.60502-0.41656 3.971901-1.15731 3.971901-2.15247 0-2.90017 5.45888-10.19137 8.39709-11.21563 4.12035-1.43636 4.12785-1.37219 0.26544 2.27053-6.68337 6.30323-8.47522 20.87258-3.36592 27.368l2.11412 2.68767 1.19915-4.70067c0.65954-2.58536 3.09947-7.84579 5.42207-11.68983z"/>
    <path d="m87.658209 199.57549c-2.89035-5.40068-0.73593-11.75331 7.2861-21.48414 3.09809-3.75802 5.632881-7.36067 5.632881-8.00589 0-0.64523-1.350001-1.77071-3.000001-2.50107s-3.03163-2.07771-3.07029-2.99411c-0.06392-1.51529-0.13184-1.51915-0.75-0.0427-0.37384 0.89293-2.70471 3.95969-5.17971 6.81501-10.78427 12.44146-11.70208 19.33956-3.69836 27.79649 3.29792 3.48466 4.51941 3.66765 2.77938 0.41637z"/>
    <path d="m78.432909 194.90414c-2.01347-3.41257-2.07602-8.37585-0.18094-14.35789 0.44479-1.40406 0.36882-1.42048-0.56514-0.12215-0.59346 0.825-1.10022 2.625-1.12613 4-0.0455 2.4144-0.09739 2.43354-1.51531 0.55887-0.80751-1.06762-1.4682-3.60074-1.4682-5.62916 0-2.02841-1.17621-6.2572-2.61379-9.3973-3.61253-7.8908-3.11888-15.62045 1.40771-22.04239 1.74068-2.46951 2.72414-4.49002 2.18547-4.49002-1.46283 0-4.97939 3.79775-4.97939 5.37756 0 0.75765-0.6853 1.9463-1.52289 2.64144-1.25665 1.04293-1.42352 1.00493-0.95449-0.21734 0.31262-0.81468-0.12708-2.05843-0.97711-2.76389s-1.54551-1.891-1.54551-2.63453c0-0.74354-1.2375-1.99842-2.75-2.78863-4.50422-2.35324-12.13753-10.68538-14.82905-16.18666-1.66699-3.4072-2.81254-8.031-3.39974-13.72238-1.03776-10.05846-1.8848-11.9922-5.99951-13.696571-2.70858-1.121933-9.46997-0.89405-10.72551 0.36148-0.85506 0.855061 2.9286 5.629531 4.46128 5.629531 1.62198 0 1.55376 1.71286-0.73687 18.49999-1.4404 10.5561-1.29263 30.02934 0.2375 31.29924 0.69196 0.57427 3.50446 1.95484 6.25 3.06792l4.9919 2.02378-5.25 0.0545c-2.8875 0.03-5.25 0.49416-5.25 1.03148 0 1.754 4.98788 4.29787 10.80296 5.50962l5.69704 1.18714-4.2778 1.32976c-2.35278 0.73137-4.11835 1.81728-3.92347 2.41315 0.49653 1.51821 7.7417 3.79528 10.45127 3.2847 3.85623-0.72664 2.46308 1.06099-1.98143 2.54249l-4.23143 1.41048 4.90957 1.67285c2.70026 0.92007 6.15285 1.67286 7.67241 1.67286 1.51957 0 3.01502 0.40803 3.32324 0.90674s-0.34262 0.6706-1.44631 0.38198c-2.36273-0.61787-4.99762 1.27358-4.99231 3.58372 0.0021 0.89516 0.9584 3.19359 2.12521 5.10762l2.12147 3.48006 1.12479-3.48006c1.57946-4.88681 4.88997-5.23386 7.59549-0.79626 1.112 1.82391 2.02351 4.1037 2.02556 5.0662 0.0031 1.47071 0.95594 1.75 5.97001 1.75h5.96628z"/>
    <path d="m99.577189 195.9241c0-1.97327-4.36233-1.97327-6 0-1.0676 1.28638-0.72901 1.5 2.37755 1.5 2.55329 0 3.62245-0.44272 3.62245-1.5z"/>
    <path d="m90.660779 165.67612 2.91641-3.32161v-15.89378c0-13.11555-0.27469-16.16846-1.57143-17.4652-1.23413-1.23413-1.27706-1.57143-0.2-1.57143 0.75429 0 1.9013 0.52987 2.54892 1.17749 1.36515 1.36515-3.8872-11.4525-6.94717-16.95366-1.93832-3.48465-1.71036-3.36016 3.54916 1.93823 4.88147 4.91754 5.62052 6.17033 5.62052 9.52749 0 2.12599 0.70052 4.86557 1.5567 6.08794 2.086281 2.97859 6.800321 2.97859 8.886601 0 2.22822-3.18123 1.92694-5.28777-0.9433-6.59554-2.85634-1.30143-2.96665-2.4301-1.02994-10.53794l1.39882-5.85599-7.434441 0.37542c-7.79257 0.39351-8.64337-0.12787-6.03336-3.69726 1.27183-1.73933 1.08733-2.12928-2-4.227181-1.8706-1.2711-3.40108-2.799969-3.40108-3.397486 0-0.7395 0.39913-0.76486 1.25-0.07942 0.6875 0.553834 2.76307 1.330797 4.61239 1.726585 1.84931 0.395787 5.12371 2.310852 7.276431 4.255712 2.15272 1.94485 4.09117 3.35896 4.30768 3.14246 0.2165-0.21651 0.0639-3.18971-0.33899-6.607125-0.57977-4.917074-0.47196-5.997146 0.51672-5.176615 0.68714 0.570276 1.55464 3.480374 1.92778 6.46688 0.66502 5.32263 0.74283 5.43002 3.93438 5.43002 3.1362 0 3.27948-0.17742 3.89588-4.82405 0.35197-2.653234 1.25027-5.658743 1.99624-6.678912 1.14378-1.564221 1.14981-0.852821 0.0384 4.540252-0.72483 3.51731-1.20515 6.50783-1.06738 6.64561 0.13778 0.13777 2.4447-1.30951 5.1265-3.2162 2.68179-1.90668 5.72636-3.4667 6.7657-3.4667 1.03935 0 2.76014-0.465833 3.82398-1.035184 2.86548-1.533556 2.46123 0.643793-0.47695 2.568964-2.24105 1.46839-2.31206 1.76995-1.00616 4.27305 1.87641 3.59666 1.77881 4.45696-0.3749 3.30434-0.98574-0.52756-4.56697-0.7076-7.95828-0.40008l-6.16601 0.55911 1.20448 15.61942-2.64396 0.66359c-3.20965 0.80558-3.48896 3.60178-0.64396 6.44678 4.34248 4.34248 8.28299 1.90853 11.35543-7.01395 1.78718-5.19004 3.06031-7.08275 6.55928-9.75151 2.38792-1.82132 4.60845-3.04471 4.93452-2.71865 0.32607 0.32607-0.0561 0.99392-0.84923 1.48411-2.04199 1.26202-0.54423 2.35341 2.26283 1.64888 7.43589-1.86629 13.69271-9.9424 13.72072-17.710309 0.0295-8.17835-5.38669-11.301463-11.16592-6.438561-3.54009 2.978788-6.14646 3.38665-3.0183 0.472323 2.26708-2.112107 2.76172-3.612077 3.54867-10.761163 0.44158-4.011508 0.33243-4.248667-1.68795-3.667588-3.33185 0.958271-6.93473 3.809266-9.41005 7.446259-2.62619 3.858677-2.96505 2.577492-0.61931-2.341568 1.20266-2.522009 1.44415-4.663542 0.92001-8.158764l-0.71069-4.739172-4.031 3.874837c-2.21705 2.13116-4.78171 5.604113-5.69924 7.717674l-1.66825 3.842838-0.0837-4.342838c-0.0461-2.388561-0.48289-6.734538-0.97077-9.657728l-0.88704-5.31489-4.38012 3.754193c-4.88613 4.187887-7.07049 8.451569-7.22033 14.093468l-0.10045 3.782119-0.89068-3.782498c-0.48987-2.080374-1.56966-5.095527-2.39955-6.70034-0.82988-1.604813-1.527601-4.177689-1.550501-5.717502l-0.04162-2.79966-3.45838 3.91661c-3.93435 4.455659-4.28237 7.188369-1.859 14.597385 0.87965 2.689384 1.41279 5.449513 1.18476 6.133619-0.22804 0.684105-0.99546-0.830762-1.70539-3.366372-0.70992-2.53561-2.55623-5.82258-4.10289-7.304378l-2.81211-2.694176-1.58187 3.058996c-0.87003 1.682448-1.58187 3.981343-1.58187 5.108656 0 2.280854-1.02268 2.626979-2.72678 0.922876-1.37114-1.371138-5.55577-0.447808-7.70329 1.699714-2.17261 2.172607-1.96285 7.736558 0.47156 12.5084 2.44071 4.78419 4.47347 6.91827 8.47222 8.89456l2.98629 1.47589-6 0.52411-6 0.5241 2.72443 2.76989c1.49844 1.52343 4.07863 3.04072 5.73377 3.37175s2.76508 0.99708 2.46655 1.48011c-0.98341 1.5912-6.6279 0.91582-10.05672-1.20331-2.93017-1.81095-3.36803-1.86949-3.36803-0.45034 0 2.47558 2.72032 7.2106 4.5448 7.91072 3.21494 1.23369 6.38864 0.61407 7.50104-1.46447 0.61391-1.1471 1.3412-1.86064 1.6162-1.58564 1.32833 1.32832-2.33873 4.98409-7.72876 7.70497-8.14525 4.11171-9.93328 6.08569-9.93328 10.96632 0 2.2 0.45 4 1 4s1-0.43844 1-0.97432c0-1.17307 5.03761-3.89136 8.06891-4.35397 1.22667-0.1872 3.25206-2.04151 4.64414-4.25185 2.26545-3.59708 2.41579-3.68258 1.82578-1.03832-0.35363 1.58485-2.33684 5.40985-4.40713 8.5-5.05449 7.54444-6.33208 11.03464-6.28456 17.16869 0.02203 2.84366 0.17793 5.29662 0.34645 5.45103 0.16853 0.1544 3.23141-1.37319 6.80641-3.39464 4.59795-2.59987 7.45103-5.08835 9.75-8.50401 1.7875-2.65575 3.25-4.30986 3.25-3.67579 0 2.24099-3.85792 8.6118-7.00827 11.57318-4.24512 3.99048-8.70829 10.52249-9.58993 14.03522-0.69775 2.78008-0.57687 2.73502 5.52601-2.05967 3.43165-2.69606 7.55175-6.39665 9.15578-8.22353z"/>
    <path d="m101.57719 127.98312c0-1.05548 1.91911-1.49891 2.48992-0.57533 0.34546 0.55897-0.0734 1.01631-0.9309 1.01631-0.85746 0-1.55902-0.19844-1.55902-0.44098z"/>
    <path d="m115.57719 127.4241c0-0.55 0.45-1 1-1s1 0.45 1 1-0.45 1-1 1-1-0.45-1-1z"/>
    <path d="m99.119889 126.4932c-0.31643-0.512-0.11798-1.21356 0.44099-1.55902 0.558971-0.34546 1.016311 0.0734 1.016311 0.9309 0 1.75653-0.600061 2.01516-1.457301 0.62812z"/>
    <path d="m119.57719 126.4241c0-0.55 0.45-1 1-1s1 0.45 1 1-0.45 1-1 1-1-0.45-1-1z"/>
    <path d="m101.57719 123.4241c0-0.55 0.45-1 1-1s1 0.45 1 1-0.45 1-1 1-1-0.45-1-1z"/>
    <path d="m117.57719 123.4241c0-0.55 0.45-1 1-1s1 0.45 1 1-0.45 1-1 1-1-0.45-1-1z"/>
    <path d="m141.34701 107.8652c4.88185-3.9073 6.63723-7.8198 5.02085-11.190816-0.70987-1.48046-2.32908-3.209328-3.59824-3.841928-1.87414-0.934142-2.01339-1.263075-0.74132-1.751212 2.51782-0.96618 6.50293 1.091787 7.57514 3.911912 0.75694 1.990904 0.55531 3.586183-0.85542 6.767934-2.09036 4.7146-3.4726 6.0844-7.7036 7.63426l-2.96723 1.08693z"/>
    <path d="m79.172499 105.92485c-4.14413-3.84064-5.93593-8.938611-4.58278-13.038717 1.34225-4.067046 4.19535-5.21106 7.53643-3.021899 3.04062 1.992286 3.35481 4.113924 0.3729 2.518055-3.20876-1.717274-4.92186-0.47255-4.92186 3.576177 0 3.967483 1.19537 6.807834 4.29928 10.215634 2.7853 3.058 0.65248 2.8614-2.70397-0.24925z"/>
    <path d="m112.68314 159.21421c2.10485-4.16968 2.74461-6.33992 1.94726-6.60571-0.65311-0.2177-2.38554-1.42635-3.84984-2.68589l-2.66237-2.29008-2.84722 2.39579c-1.56598 1.31768-3.2076 2.39578-3.64806 2.39578-1.751771 0-3.473941-3.44762-4.657621-9.32412l-1.244-6.17588 0.05766 11c0.03171 6.05 0.36904 11.86268 0.74963 12.91706 0.61987 1.71726 0.97111 1.5511 3.3703-1.59439 1.473071-1.9313 2.698961-4.14398 2.724201-4.91706 0.0252-0.77309 1.34749 1.40689 2.93833 4.84439s3.13871 6.25 3.43971 6.25c0.30101 0 1.95791-2.79445 3.68202-6.20989z"/>
    <path d="m122.81376 141.21984c0.14489-5.88734-0.11737-10.32154-0.58279-9.85378s-1.44555 4.30176-2.17806 8.51999-1.98779 8.67062-2.78951 9.8942c-1.6213 2.47441-0.85776 5.15089 2.81379 9.86347l2 2.56707 0.23657-5.14335c0.13011-2.82884 0.35511-9.96026 0.5-15.8476z"/>
   </g>
   <path d="m104.47751 135.1741c0.0548-0.9625-0.57532-1.75-1.40032-1.75-1.60462 0-2.02034 3.48243-0.79604 6.66821 0.6188 1.6102 0.7882 1.52937 1.40032-0.66821 0.383-1.375 0.74122-3.2875 0.79604-4.25z" fill="#fff"/>
   <path d="m294.36561 138.94046c4.65909-1.91676 7.23246-5.57863 7.17978-10.2167-0.0438-3.85666-1.85972-5.89959-6.34474-7.13796-4.67872-1.29186-20.88549 1.99275-32.62443 6.61196-12.29301 4.83722-20.28587 7.20779-23.99903 7.11776-1.925-0.0467-5.3 0.56716-7.5 1.36409l-4 1.44897 12 1.22434c6.6 0.67339 12.45 1.40898 13 1.63464s9.325 0.25434 19.5 0.0637c14.80907-0.27742 19.35558-0.69855 22.78842-2.11083z" fill="#00247d"/>
   <path d="m115.96713 136.1741c0.52545-2.22935 0.30392-2.75-1.17009-2.75-1.49701 0-1.74438 0.6327-1.40017 3.58112 0.45354 3.88496 1.54164 3.53311 2.57026-0.83112z" fill="#fff"/>
   <path d="m195.17668 132.1741c0.59887-1.7875 1.27148-3.85695 1.49469-4.59877 0.2753-0.91499-1.36306-1.80067-5.09418-2.75387-12.6544-3.23284-29.00214-14.15988-31.99533-21.38607l-1.25202-3.02264-1.62632 3.25568c-1.59715 3.19726-1.58148 3.27565 0.87367 4.36904 4.80387 2.1394 6.5 5.1162 6.5 11.40784 0 4.53291-0.51743 6.51109-2.35223 8.99278-1.3308 1.80001-1.97507 3.55871-1.48368 4.0501 0.4777 0.4777 7.6112 1.26776 15.85223 1.75568 8.24102 0.48793 15.66107 0.95308 16.48899 1.03368 0.87525 0.0852 1.96106-1.21376 2.59418-3.10345z" fill="#00247d"/>
   <g fill="#fdc82f">
    <path d="m205.91093 133.99678c0.4545-1.18443 5e-3 -1.24425-2.64302-0.35154-4.36166 1.47056-4.52879 1.77886-0.96438 1.77886 1.72798 0 3.29807-0.62123 3.6074-1.42732z"/>
    <path d="m12.577189 118.6241c0-1.54 0.46221-3.26221 1.02713-3.82713 0.70283-0.70283 0.22108-1.39438-1.52585-2.19033-2.2871201-1.04209-2.6691701-0.90816-3.6689701 1.28616-0.89192 1.95755-0.7817 2.95959 0.54889 4.99034 2.1804201 3.32774 3.6188001 3.22478 3.6188001-0.25904z"/>
    <path d="m21.577189 120.61216c0-0.44657-1.30847-1.77934-2.90771-2.9617-2.49533-1.84488-2.99171-1.93086-3.5-0.60628-1.29672 3.37921-0.63237 4.37992 2.90771 4.37992 1.925 0 3.5-0.36537 3.5-0.81194z"/>
    <path d="m114.24688 120.4241c1.20781 0 1.37658-0.84175 0.85214-4.25-1.60748-10.44669-1.55658-10.31666-4.12144-10.52892-2.77292-0.2295-3.72171 1.51051-4.78825 8.78139-0.59037 4.02476-0.41916 4.62143 1.61371 5.62365 1.25078 0.61664 2.87345 0.95303 3.60594 0.74753 0.73248-0.20551 2.00953-0.37365 2.8379-0.37365z"/>
    <path d="m15.583349 110.1741c0.0034-0.6875 0.63311-2.45166 1.39938-3.92036 1.32448-2.53859 1.25314-2.72837-1.44581-3.84631-1.56146-0.64678-3.31618-0.88106-3.89937-0.52062-1.7717501 1.095-1.2642 7.31918 0.68964 8.45719 2.35551 1.37196 3.24879 1.32535 3.25616-0.1699z"/>
    <path d="m24.577189 110.57909c0-0.46476-0.89156-1.65186-1.98124-2.63801-1.62137-1.46733-2.25711-1.56406-3.5-0.53255-2.68385 2.2274-1.80158 4.01557 1.98124 4.01557 1.925 0 3.5-0.38026 3.5-0.84501z"/>
   </g>
   <path d="m222.57719 103.47515c2.475-0.44039 3.9387-0.85703 3.25267-0.92587-1.91868-0.19254-12.86667-5.528338-21.75267-10.601758-9.9207-5.664174-14.11721-6.901418-18.37454-5.417305-7.29889 2.544408-6.16218 9.261064 2.2651 13.384152 7.89629 3.863291 23.74526 5.493911 34.60944 3.560781z" fill="#00247d"/>
   <path d="m25.545389 102.67411c-0.0175-0.4125-0.67843-1.60427-1.46875-2.64838-1.21671-1.607439-1.68199-1.695013-3.03586-0.571401-1.43984 1.194961-1.36833 1.454931 0.71874 2.612951 2.67557 1.48454 3.83094 1.66974 3.78587 0.60683z" fill="#fdc82f"/>
   <path d="m22.577189 94.88237c0-1.392192-4.21107-2.415666-6-1.458261-2.1864 1.170123-2.83626 6.55458-0.87019 7.209941 0.96332 0.3211 6.87019-4.624085 6.87019-5.75168z" fill="#fdc82f"/>
   <path d="m259.33351 100.17411c-0.6139-1.870063-6.26391-2.078928-9.45382-0.349481-2.75976 1.496231-2.7059 1.520021 3.53083 1.559441 4.6323 0.0293 6.22312-0.29569 5.92299-1.20996z" fill="#00247d"/>
   <path d="m32.956249 96.261552c0.12133-0.185594 1.96218-4.837443 4.09077-10.337443 8.26163-21.346957 17.50649-39.123374 30.81282-59.248251l7.43722-11.248252-4.60994 4.205589c-16.17224 14.753749-32.98326 38.388048-43.85772 61.658751-3.52143 7.535656-4.21657 9.87796-3.42573 11.543108 0.54569 1.14898 1.22823 2.835871 1.51676 3.748647 0.42926 1.357969 1.18712 1.51017 4.16991 0.837443 2.00491-0.452182 3.74457-0.973998 3.86591-1.159592z" fill="#fff"/>
  </g>
  <path d="m21.920548-11.745227s0.01024 0.333373 0.41432 0.272761c0.138107-0.02072 0.21138-0.103463 0.460217-0.04067 0.01076 0.0027-0.133027-0.227994-0.132931-0.231322-0.248928-0.07901-0.325898 0.0169-0.464005 0.03761-0.130822 0.01962-0.220363-2e-3 -0.284247-0.0405m-0.603193 0.23421c-0.245139-0.07596-0.322109 0.01995-0.460216 0.04067-0.404078 0.06061-0.41432-0.272761-0.417561-0.273736 0.05804 0.03731 0.147579 0.05898 0.278401 0.03936 0.138107-0.02072 0.215077-0.116625 0.464004-0.03761m5.82e-4 -7.73e-4m2.229004 0s0.01024 0.333373 0.41432 0.272761c0.138107-0.02072 0.216244-0.120294 0.460216-0.04067 0.0083 0.0027-0.133026-0.218228-0.135372-0.231322-0.248927-0.07901-0.325897 0.0169-0.464004 0.03761-0.130822 0.01962-0.220363-2e-3 -0.281806-0.0405" fill="#cf142b" fill-rule="evenodd"/>
  <path d="m22.050456-11.513132c-0.24514-0.07596-0.32211 0.01995-0.460217 0.04067-0.404078 0.06061-0.41432-0.272761-0.414611-0.272375 0.06441 0.03807 0.151362 0.05661 0.275451 0.038 0.138107-0.02072 0.215077-0.116625 0.462823-0.0405m0.0066 0.0021m1.477729-0.0021c-0.0037-0.0057 0.138773 0.236927 0.136553 0.23421-0.245139-0.07596-0.322109 0.01995-0.460216 0.04067-0.404078 0.06061-0.41432-0.272761-0.41339-0.272374 0.06563 0.03807 0.152582 0.05661 0.276671 0.038 0.138107-0.02072 0.215077-0.116625 0.460382-0.0405zm0.74581 0.0029c0.0647 0.03768 0.151653 0.05623 0.275742 0.03761 0.0746-0.01119 0.13136-0.04432 0.209656-0.06128 0.407312-0.06144 0.417554 0.27193 0.420794 0.272905-0.05804-0.03731-0.147578-0.05898-0.281859-0.03848-0.0783 0.01705-0.134981 0.05007-0.209431 0.06123-0.404077 0.06061-0.41432-0.272761-0.41432-0.272761" fill="#fdc82f" fill-rule="evenodd"/>
  <path d="m21.310709-11.513132c-0.245139-0.07596-0.322109 0.01995-0.460216 0.04067-0.404078 0.06061-0.41432-0.272761-0.417561-0.273736 0.05804 0.03731 0.147579 0.05898 0.278401 0.03936 0.138107-0.02072 0.215077-0.116625 0.464004-0.03761 0.0647 0.03768 0.151653 0.05623 0.275742 0.03761 0.138107-0.02072 0.215077-0.116625 0.462823-0.0405 0.06388 0.03845 0.153425 0.06012 0.284247 0.0405 0.138107-0.02072 0.215077-0.116625 0.464005-0.03761 0.0647 0.03768 0.151652 0.05623 0.275741 0.03761 0.138107-0.02072 0.215077-0.116625 0.460382-0.0405 0.06144 0.03845 0.150984 0.06012 0.281806 0.0405 0.138107-0.02072 0.215077-0.116625 0.464004-0.03761 0.0647 0.03768 0.151653 0.05623 0.275742 0.03761 0.0746-0.01119 0.13136-0.04432 0.209656-0.06128 0.407312-0.06144 0.417554 0.27193 0.420794 0.272905-0.05804-0.03731-0.147578-0.05898-0.281859-0.03848-0.0783 0.01705-0.134981 0.05007-0.209431 0.06123-0.404077 0.06061-0.41432-0.272761-0.41432-0.272761m-2.96875 0s0.01024 0.333372 0.41432 0.272761c0.138107-0.02072 0.215077-0.116625 0.460217-0.04067m-0.129908-0.232095s0.01024 0.333372 0.41432 0.272761c0.138107-0.02072 0.215077-0.116625 0.460217-0.04067m-0.134791-0.232095s0.01024 0.333372 0.41432 0.272761c0.138107-0.02072 0.215077-0.116625 0.460216-0.04067m-0.129907-0.232095s0.01024 0.333372 0.41432 0.272761c0.138107-0.02072 0.215077-0.116625 0.460216-0.04067" fill="none" stroke="#000" stroke-width=".075"/>
  <path d="m21.234234-10.654768c0.04219 0.0076 0.07396 0.02031 0.09531 0.03828 0.02917 0.02448 0.04375 0.05937 0.04375 0.104688 0 0.04766-0.01589 0.08464-0.04766 0.110937-0.01849 0.0151-0.03906 0.02487-0.06172 0.0293-0.01823 0.0037-0.03815 0.0055-0.05977 0.0055h-0.28789v-0.03984h0.01563c0.02344 0 0.03958-0.0042 0.04844-0.0125 0.0042-0.0042 7e-3 -0.01055 0.0086-0.01914 5.21e-4 -0.0031 7.81e-4 -0.01198 7.81e-4 -0.02656v-0.337109c0-0.01719-1e-3 -0.02891-0.0031-0.03516-0.0049-0.01562-0.02318-0.02331-0.05469-0.02305h-0.01563v-0.03984h0.293359c0.04193 0 0.07565 0.0138 0.101172 0.04141 0.02292 0.02526 0.03438 0.05495 0.03438 0.08906 0 0.02812-0.0083 0.05247-0.025 0.07305-0.01328 0.01667-0.02982 0.02825-0.04961 0.03477-0.0083 0.0026-0.02044 0.0047-0.03633 0.0062zm-0.128906-0.196484v0.189844h0.02461c0.02448 0 0.04219-2e-3 0.05312-0.0059 0.03047-0.01094 0.0457-0.04232 0.0457-0.09414 0-0.0362-0.0099-0.06146-0.02969-0.07578-0.01094-0.0078-0.02513-0.01224-0.04258-0.01328-0.0078-5.2e-4 -0.01979-7.8e-4 -0.03594-7.8e-4zm0 0.230469v0.160937c0 0.0224 0.0021 0.03724 0.0062 0.04453 0.0062 0.0112 0.02096 0.0168 0.04414 0.0168 0.0224 0 0.03906-0.0027 0.05-0.0082 0.02969-0.01484 0.04453-0.04909 0.04453-0.102734 0-0.04401-0.01185-0.07539-0.03555-0.09414-0.01094-0.0083-0.02357-0.01354-0.03789-0.01563-7e-3 -1e-3 -0.02149-0.0016-0.04336-0.0016zm0.416406 0.129687c0.01771 0 0.0332 0.0063 0.04649 0.01875 0.01458 0.0138 0.02187 0.03073 0.02187 0.05078 0 0.02083-0.0074 0.03789-0.02227 0.05117-0.01302 0.01172-0.02865 0.01758-0.04687 0.01758-0.01797 0-0.03359-0.0059-0.04687-0.01758-0.01484-0.01328-0.02227-0.03021-0.02227-0.05078s0.0073-0.03763 0.02187-0.05117c0.01354-0.0125 0.02956-0.01875 0.04805-0.01875zm0.707813-0.416797v0.155469h-0.0332c-0.0049-0.01719-0.0094-0.03047-0.01328-0.03984-0.01094-0.0276-0.03034-0.04831-0.0582-0.06211-0.02057-0.01016-0.04349-0.01523-0.06875-0.01523-0.02396 0-0.04284 0.0053-0.05664 0.01602-0.01563 0.01224-0.02344 0.02787-0.02344 0.04687 0 0.02266 0.01445 0.04401 0.04336 0.06406 0.01614 0.0112 0.04284 0.02552 0.08008 0.04297 0.04088 0.01901 0.07083 0.03542 0.08984 0.04922 0.04453 0.03255 0.0668 0.07643 0.0668 0.131641-1e-6 0.03932-0.01146 0.07422-0.03437 0.104687-0.03411 0.04557-0.08451 0.06836-0.151172 0.06836-0.03932 0-0.07292-0.0086-0.100782-0.02578-0.01068-0.0065-0.02513-0.0168-0.04336-0.03086l-0.01563 0.03906h-0.03789l7e-3 -0.178125h0.03086c0.0091 0.03464 0.0207 0.06107 0.03477 0.0793 0.03229 0.04141 0.07227 0.06211 0.119922 0.06211 0.02656 0 0.04831-0.0066 0.06524-0.01992 0.02109-0.01667 0.03164-0.03854 0.03164-0.06563 0-0.02005-7e-3 -0.0375-0.02109-0.05234-0.01094-0.01146-0.03333-0.02578-0.06719-0.04297-0.0094-0.0047-0.03398-0.01641-0.07383-0.03516-0.03333-0.01589-0.0595-0.03281-0.07852-0.05078-0.0263-0.02526-0.03945-0.05885-0.03945-0.100781 0-0.04115 0.01406-0.07578 0.04219-0.103906 0.03151-0.03203 0.07383-0.04805 0.126953-0.04805 0.05052 1e-6 0.09427 0.01419 0.13125 0.04258l0.01367-0.03086zm0.173437 0.416797c0.01771 0 0.0332 0.0063 0.04649 0.01875 0.01458 0.0138 0.02187 0.03073 0.02187 0.05078 0 0.02083-0.0074 0.03789-0.02227 0.05117-0.01302 0.01172-0.02865 0.01758-0.04687 0.01758-0.01797 0-0.03359-0.0059-0.04687-0.01758-0.01484-0.01328-0.02226-0.03021-0.02226-0.05078s0.0073-0.03763 0.02187-0.05117c0.01354-0.0125 0.02956-0.01875 0.04805-0.01875zm0.621485-0.416797 0.18125 0.445313c0.01015 0.02474 0.01914 0.04023 0.02695 0.04648 0.0083 0.0068 0.02148 0.01016 0.03945 0.01016h0.01797v0.03984h-0.258594v-0.03984h0.03633c0.0083 0 0.01497-0.0017 0.01992-0.0051 0.0057-0.0039 0.0086-0.0092 0.0086-0.01602 0-0.0047-0.0017-0.01146-0.0051-0.02031l-0.03906-0.09648h-0.16289l-0.03711 0.09648c-0.0034 0.0088-0.0051 0.01563-0.0051 0.02031 0 0.0083 0.0031 0.01432 0.0094 0.01797 0.0034 0.0021 0.01094 0.0031 0.02266 0.0031h0.03555v0.03984h-0.204687v-0.03984c0.01693 2.6e-4 0.03034-0.0013 0.04023-0.0047 0.01797-6e-3 0.03268-0.02331 0.04414-0.05195l0.178906-0.445315zm0.01133 0.325-0.06523-0.167187-0.0668 0.167187zm0.360938 0.0918c0.01771 1e-6 0.0332 0.0063 0.04648 0.01875 0.01458 0.0138 0.02187 0.03073 0.02187 0.05078 0 0.02083-0.0074 0.03789-0.02227 0.05117-0.01302 0.01172-0.02865 0.01758-0.04687 0.01758-0.01797 0-0.03359-0.0059-0.04687-0.01758-0.01484-0.01328-0.02227-0.03021-0.02227-0.05078s0.0073-0.03763 0.02188-0.05117c0.01354-0.0125 0.02956-0.01875 0.04805-0.01875zm0.850781-0.415625c5.2e-4 0.04661 0.0042 0.111199 0.01094 0.19375l7.8e-4 0.0078h-0.0418c-0.0088-0.03437-0.02214-0.06419-0.03984-0.08945-0.01615-0.02318-0.03646-0.04128-0.06094-0.0543-0.02474-0.01328-0.05091-0.01992-0.07852-0.01992-0.05599 1e-6 -0.100391 0.02461-0.133203 0.07383-0.02656 0.03958-0.03984 0.09453-0.03984 0.164844 0 0.04974 0.0079 0.09388 0.02383 0.132422 0.01458 0.0349 0.03737 0.06081 0.06836 0.07773 0.02396 0.01328 0.05091 0.01992 0.08086 0.01992 0.05234 0 0.0987-0.01719 0.139063-0.05156 0.02396-0.02031 0.04349-0.04518 0.05859-0.07461l0.03984 0.0293c-0.01589 0.03281-0.03568 0.06003-0.05938 0.08164-0.05078 0.04609-0.114584 0.06914-0.191407 0.06914-0.07813 0-0.143359-0.02292-0.195703-0.06875-0.06042-0.05313-0.09062-0.123958-0.09062-0.2125 0-0.08359 0.02734-0.152604 0.08203-0.207031 0.05703-0.05651 0.128125-0.08476 0.213281-0.08477 0.06328 0 0.119141 0.01667 0.167579 0.05l0.01602-0.0375zm0.158593 0.415625c0.01771 1e-6 0.0332 0.0063 0.04648 0.01875 0.01458 0.0138 0.02187 0.03073 0.02187 0.05078 0 0.02083-0.0074 0.03789-0.02227 0.05117-0.01302 0.01172-0.02865 0.01758-0.04687 0.01758-0.01797 0-0.03359-0.0059-0.04687-0.01758-0.01484-0.01328-0.02227-0.03021-0.02227-0.05078s0.0073-0.03763 0.02187-0.05117c0.01354-0.0125 0.02956-0.01875 0.04805-0.01875z" fill="#fdc82f"/>
 </g>
</svg>
