<?xml version="1.0" encoding="UTF-8" standalone="no"?>
<!-- Created using Karbon14, part of koffice: http://www.koffice.org/karbon -->

<svg
   xmlns:dc="http://purl.org/dc/elements/1.1/"
   xmlns:cc="http://creativecommons.org/ns#"
   xmlns:rdf="http://www.w3.org/1999/02/22-rdf-syntax-ns#"
   xmlns:svg="http://www.w3.org/2000/svg"
   xmlns="http://www.w3.org/2000/svg"
   xmlns:sodipodi="http://sodipodi.sourceforge.net/DTD/sodipodi-0.dtd"
   xmlns:inkscape="http://www.inkscape.org/namespaces/inkscape"
   width="750"
   height="500"
   id="svg2"
   sodipodi:version="0.32"
   inkscape:version="0.92.3 (2405546, 2018-03-11)"
   sodipodi:docname="Naval_Ensign_of_Bolivia.svg"
   version="1.1">
  <metadata
     id="metadata28">
    <rdf:RDF>
      <cc:Work
         rdf:about="">
        <dc:format>image/svg+xml</dc:format>
        <dc:type
           rdf:resource="http://purl.org/dc/dcmitype/StillImage" />
        <dc:title />
      </cc:Work>
    </rdf:RDF>
  </metadata>
  <sodipodi:namedview
     inkscape:window-height="1644"
     inkscape:window-width="3200"
     inkscape:pageshadow="2"
     inkscape:pageopacity="0.0"
     guidetolerance="10.0"
     gridtolerance="10.0"
     objecttolerance="10.0"
     borderopacity="1.0"
     bordercolor="#666666"
     pagecolor="#ffffff"
     id="base"
     inkscape:zoom="4.9972537"
     inkscape:cx="176.38153"
     inkscape:cy="404.6015"
     inkscape:window-x="-16"
     inkscape:window-y="-16"
     inkscape:current-layer="g1906"
     showgrid="false"
     inkscape:window-maximized="1"
     fit-margin-top="0"
     fit-margin-left="0"
     fit-margin-right="0"
     fit-margin-bottom="0" />
  <defs
     id="defs4" />
  <g
     transform="matrix(1,0,0,-1,0,500)"
     id="g6">
    <g
       id="g1906">
      <path
         d="M 0,0 0,500 750,500 750,0 0,0 Z"
         id="path9"
         style="fill:#003f82;fill-opacity:1;fill-rule:evenodd;stroke:none;stroke-linecap:square"
         inkscape:connector-curvature="0" />
      <path
         d="M 0,310 V 500 H 190 V 310 Z"
         id="path11"
         style="fill:#d81e05;fill-opacity:1;stroke:none;stroke-width:1.41421235"
         inkscape:connector-curvature="0" />
      <path
         d="M 0,310 V 436.66666 H 190 V 310 Z"
         id="path13"
         style="fill:#f7e214;fill-opacity:1;stroke:none;stroke-width:1.15469968"
         inkscape:connector-curvature="0" />
      <path
         d="m 0,310 v 63.33333 H 190 V 310 Z"
         id="path15"
         style="fill:#007a3d;fill-opacity:1;stroke:none;stroke-width:0.81649595"
         inkscape:connector-curvature="0" />
      <path
         id="path4133"
         d="m 54.7467,290 4.3097,-13.262 13.945,-10e-4 -11.2814,-8.197 4.3087,-13.262 -11.282,8.196 -11.282,-8.196 4.3087,13.262 -11.2814,8.197 13.945,10e-4 4.3097,13.262 z"
         style="fill:#f7e214;fill-opacity:1;fill-rule:evenodd;stroke:none;stroke-width:0.70693099;stroke-linecap:square"
         inkscape:connector-curvature="0" />
      <path
         id="path4137"
         d="m 127.7479,290 4.31,-13.262 13.944,-10e-4 -11.281,-8.197 4.309,-13.262 -11.282,8.196 -11.2822,-8.196 4.3087,13.262 -11.2814,8.197 13.9449,10e-4 4.31,13.262 z"
         style="fill:#f7e214;fill-opacity:1;fill-rule:evenodd;stroke:none;stroke-width:0.70693099;stroke-linecap:square"
         inkscape:connector-curvature="0" />
      <path
         id="path4139"
         d="m 200.749,290 4.31,-13.262 13.944,-10e-4 -11.281,-8.197 4.309,-13.262 -11.282,8.196 -11.282,-8.196 4.309,13.262 -11.282,8.197 13.945,10e-4 4.31,13.262 z"
         style="fill:#f7e214;fill-opacity:1;fill-rule:evenodd;stroke:none;stroke-width:0.70693099;stroke-linecap:square"
         inkscape:connector-curvature="0" />
      <path
         id="path4141"
         d="m 273.75,290 4.31,-13.262 13.944,-10e-4 -11.281,-8.197 4.309,-13.262 -11.282,8.196 -11.282,-8.196 4.309,13.262 -11.282,8.197 13.945,10e-4 4.31,13.262 z"
         style="fill:#f7e214;fill-opacity:1;fill-rule:evenodd;stroke:none;stroke-width:0.70693099;stroke-linecap:square"
         inkscape:connector-curvature="0" />
      <path
         id="path4143"
         d="m 346.751,290 4.31,-13.262 13.944,-10e-4 -11.281,-8.197 4.309,-13.262 -11.282,8.196 -11.282,-8.196 4.309,13.262 -11.282,8.197 13.945,10e-4 4.31,13.262 z"
         style="fill:#f7e214;fill-opacity:1;fill-rule:evenodd;stroke:none;stroke-width:0.70693099;stroke-linecap:square"
         inkscape:connector-curvature="0" />
      <path
         id="path4153"
         d="m 564.129,210.414 9.201,-28.314 29.771,-0.001 -24.085,-17.5 9.199,-28.315 -24.086,17.499 -24.086,-17.499 9.198,28.315 -24.084,17.5 29.771,0.001 9.201,28.314 z"
         style="fill:#f7e214;fill-opacity:1;fill-rule:evenodd;stroke:none;stroke-width:0.83333302;stroke-linecap:square"
         inkscape:connector-curvature="0" />
      <path
         d="m 190,500 190.00002,0 0,-190 L 190,310"
         id="path4"
         inkscape:connector-curvature="0"
         style="fill:#ffffff" />
      <path
         d="M 190,445.71429 190,391.42856 271.42855,310 l 54.28577,0 m 0,190 -54.28577,0 108.57147,-108.57144 0,54.28573"
         id="path6"
         inkscape:connector-curvature="0"
         style="fill:#742c64" />
      <path
         d="m 217.14288,500 54.28567,0 108.57147,-108.57144 0,-54.2857 m -162.85714,27.14285 -27.14288,0 0,-54.28571 81.42855,0"
         id="path8"
         inkscape:connector-curvature="0"
         style="fill:#eb7711" />
      <path
         d="m 217.14288,500 27.1428,0 0,-54.28571 54.28577,0 0,-54.28573 54.28567,0 0,-54.2857 27.1429,0 0,27.14285 -54.2857,0 0,54.28572 -54.28578,0 0,54.28571 -54.28566,0 M 190,337.14286 l 27.14287,0 0,-27.14286 L 190,310"
         id="path10"
         inkscape:connector-curvature="0"
         style="fill:#fcdd09" />
      <path
         d="M 190,472.85714 190,445.71429 325.71432,310 l 27.1428,0 0,27.14286 -27.1428,0 0,27.14285 -27.14287,0 0,27.14285 -27.1429,0 0,27.14286 -27.14287,0 0,27.14287 -27.1428,0 0,27.14285 M 325.71432,500 l 54.2857,0 0,-54.28571"
         id="path12"
         inkscape:connector-curvature="0"
         style="fill:#078930" />
      <path
         d="m 190,445.71429 27.14288,0 0,-54.28573 54.28567,0 0,-54.2857 54.28577,0 0,-27.14286 -27.14287,0 0,54.28571 -54.28577,0 0,54.28571 -54.28568,0 M 325.71432,500 l 27.1428,0 0,-54.28571 27.1429,0 0,27.14285 -54.2857,0"
         id="path14"
         inkscape:connector-curvature="0"
         style="fill:#0f47af" />
      <path
         d="m 271.42855,500 27.1429,0 0,-54.28571 54.28567,0 0,-54.28573 27.1429,0 0,27.14286 -54.2857,0 0,54.28572 -54.28578,0 M 190,391.42856 l 27.14287,0 0,-54.2857 54.28567,0 0,-27.14286 -27.14286,0 0,54.28571 -54.28568,0"
         id="path16"
         inkscape:connector-curvature="0"
         style="fill:#da121a" />
      <path
         inkscape:connector-curvature="0"
         style="fill:#f7e214;fill-opacity:1;fill-rule:evenodd;stroke:none;stroke-width:0.70693099;stroke-linecap:square"
         d="m 419.7548,290 4.31,-13.262 13.944,-10e-4 -11.281,-8.197 4.309,-13.262 -11.282,8.196 -11.282,-8.196 4.309,13.262 -11.282,8.197 13.945,10e-4 4.31,13.262 z"
         id="path4182" />
      <path
         id="path4207"
         d="m 419.7548,352.75 4.31,-13.262 13.944,-10e-4 -11.281,-8.197 4.309,-13.262 -11.282,8.196 -11.282,-8.196 4.309,13.262 -11.282,8.197 13.945,10e-4 4.31,13.262 z"
         style="fill:#f7e214;fill-opacity:1;fill-rule:evenodd;stroke:none;stroke-width:0.70693099;stroke-linecap:square"
         inkscape:connector-curvature="0" />
      <path
         inkscape:connector-curvature="0"
         style="fill:#f7e214;fill-opacity:1;fill-rule:evenodd;stroke:none;stroke-width:0.70693099;stroke-linecap:square"
         d="m 419.7548,415.5 4.31,-13.262 13.944,-10e-4 -11.281,-8.197 4.309,-13.262 -11.282,8.196 -11.282,-8.196 4.309,13.262 -11.282,8.197 13.945,10e-4 4.31,13.262 z"
         id="path4209" />
      <path
         id="path4211"
         d="m 419.7548,478.25 4.31,-13.262 13.944,-10e-4 -11.281,-8.197 4.309,-13.262 -11.282,8.196 -11.282,-8.196 4.309,13.262 -11.282,8.197 13.945,10e-4 4.31,13.262 z"
         style="fill:#f7e214;fill-opacity:1;fill-rule:evenodd;stroke:none;stroke-width:0.70693099;stroke-linecap:square"
         inkscape:connector-curvature="0" />
    </g>
  </g>
</svg>
