<svg xmlns="http://www.w3.org/2000/svg" xmlns:xlink="http://www.w3.org/1999/xlink" viewBox="-15 -7.5 30 15" width="1200" height="600">
  <defs>
    <clipPath id="a">
      <path d="M-15-7.5h30v15h-30z"/>
    </clipPath>
  </defs>
  <path style="fill:#6ba4b8;stroke:none" d="M-15-7.5h30v15h-30z"/>
  <g clip-path="url(#a)" transform="matrix(.5 0 0 .5 -7.4999986 -3.7500005)">
    <circle r="20" style="fill:#012169;fill-opacity:1"/>
    <path d="m-20-10 40 20m-40 0 40-20" style="stroke:#fff;stroke-width:3"/>
    <path d="m-20-10 40 20m-40 0 40-20" style="stroke:#e4002b;stroke-width:2;stroke-opacity:1"/>
    <path d="m0 0 20 10h-3L-3 0m3 0 20-10h3L3 0M0 0l-20 10h-3L-3 0m3 0-20-10h3L3 0" style="fill:#fff;stroke:none"/>
    <path d="M-20 0h40M0-10v20" style="stroke:#fff;stroke-width:5"/>
    <path d="M-20 0h40M0-10v20" style="stroke:#e4002b;stroke-width:3;stroke-opacity:1"/>
  </g>
  <g transform="translate(.00000137 -4.3e-7)">
    <path d="m5.3098676 3.8949626.044639.6733262.6701883-.0788-.4985977.4547117.4794647.4748422-.6663783-.1063096-.072306.6709195-.3323626-.5872782-.5696283.3617799.2519281-.6260137-.6380087-.2197869.6465108-.1933481-.2259556-.63585.5542607.3849122.3562456-.5731052Z" id="b" style="fill:#fff"/>
    <path d="m7.7953431.32806063.049308.43798768.4226132.12514805-.4013147.18223904.0115726.4406027L7.580189 1.18868l-.4154626.1471595.2175541-.38332162-.2683427-.34965264.4317887.08845229.2496166-.3632569Z" style="fill:#fff"/>
    <use transform="translate(-2.265649 -6.875003)" xlink:href="#b" width="100%" height="100%"/>
    <use transform="translate(5.067702 -6.104152)" xlink:href="#b" width="100%" height="100%"/>
    <use transform="translate(2.500004 -10)" xlink:href="#b" width="100%" height="100%"/>
    <use transform="matrix(2.03731 -.50932 .50932 2.0373 -20.25164 -3.796425)" xlink:href="#b" width="100%" height="100%"/>
  </g>
  <circle cx="11.685001" cy="4.1849995" r="2.5" style="fill:#012169;fill-opacity:1;stroke:none"/>
  <circle cx="11.685001" cy="4.1849995" r="1.6750001" style="fill:#fff;stroke:none;stroke-width:38"/>
  <path d="M10.983719 3.9693478s.01706-.0029.03117-.0158c.01071-.0098.0212-.037069.0212-.037069s.06528-.1600312.171551-.249536c.168524-.1420125.285648-.1524983.285648-.1524983s.16077-.045569.28587-.000148c.175023.063659.266744.1498404.266744.1498404s.09889.078948.108188.090758c.0088.01115.13123.1149092.13123.1149092l.05509.050809s.340739.2844671.506309.3036676c.293993.034049.315114-.2136448.315114-.2136448s.005-.055089.02821-.053469c.02984.0021.0754.246803-.123106.3613432-.157816.090978-.436374.0081-.436374.0081s-.153976-.055019-.239862-.1032405c-.08707-.048959-.193928-.1159432-.193928-.1159432s-.0016-.005-.04128-.01351c-.02851-.0061-.05997.028279-.05997.028279s-.125322.1019115-.18322.1457774c-.06528.049179-.25153.1329288-.25153.1329288s-.05783.1394266-.06875.2500529c-.01758.1765727-.0028.2538189-.0028.2538189s.0064.062848-.01078.088248c-.02075.030719-.08109.056049-.08109.056049s-.101542.048449-.19821.1060464c-.104497.062329-.225536.1765737-.225536.1765737s-.02762.028579-.04645.032489c-.01876.004-.01617-.031759-.01617-.031759s-.04084.030649-.06093.032569c-.02001.002-.01787-.029469-.01787-.029469s-.01625.007-.03183.01891c-.01027.0079-.03759.039069-.03759.039069s-.01388-.01344.0083-.054209c.0078-.01447.03899-.041649.03899-.041649s.01027-.0098.01403-.01566c.0055-.0083.0075-.01721.0075-.01721s.01322-.038179.0579-.074738c.01935-.01588.07112-.039949.07112-.039949s.301304-.079018.365405-.3042576c.04077-.1429715.04438-.4290636.04438-.4290636s-.0009-.0069-.0074-.01366c-.0063-.0066-.01004-.01034-.01004-.01034l-.04845-.048739s-.0058-.0061-.01639-.0089c-.0097-.0026-.02105.0009-.02105.0009s-.02755.0072-.04594.01c-.02031.0031-.04505-.004-.04505-.004s-.02156-.01034-.03626.0015c-.011.0088-.0042.024739-.0042.024739s.03227.098738.03471.1092963c.0044.0192.02053.1025765.02053.1025765l.03153.050729s.01093-.0021.01359-.003c.0026-.000733.01514-.0037.01514-.0037s.0018-.044239.01883-.046009c.026-.0027.02105.094008.02105.094008s-.0009.0049-.0049.009c-.0047.0048-.0113.0076-.0113.0076s-.02282.0062-.03449.0099c-.02075.0066-.04416.01219-.07053-.0024-.01263-.007-.02718-.026879-.02718-.026879s-.06292-.095638-.06632-.099618c-.0033-.004-.07333-.099548-.112103-.1153522-.02548-.01056-.06469-.01846-.06469-.01846s-.04062-.0099-.05554-.01329c-.04431-.01012-.08449-.033089-.08449-.033089s-.100657-.075918-.13123-.1032405c-.0175-.01558-.118749-.098588-.124953-.1026505-.0072-.0048-.01957-.0009-.01957-.0009s-.03803.01056-.07644.0048c-.02289-.0034-.05457-.0092-.07969-.01071-.0095-.0006669-.04069.0024-.04985.0029-.02348.0013-.08544.01676-.116312-.0078-.02334-.01846-.03973-.062549-.03774-.079908.0029-.024219.0178-.033819.0178-.033819s.02038-.01462.05059-.032199c.04077-.023779.06469-.031899.06469-.031899s.02555-.0072.03973-.01263c.01403-.0052.03323-.022749.03323-.022749s.04453-.038259.06728-.049999c.01676-.0087.05554-.021639.05554-.021639s.0322-.01.03501-.0113c.02053-.0098.03604-.026069.03604-.026069s.06071-.082198.138615-.1118813c.0081-.0031.02998-.01004.05125-.01654.02533-.0078.05-.01521.05-.01521s.01647-.0076.02422.0006669c.0075.0081-.006.027319-.006.027319s-.04276.086328-.09859.1304178c-.0195.01536-.06935.029609-.06935.029609s-.0209.0076-.0209.01728c.000237.01211.01477.0192.01477.0192l.08375.062769s.01307.0081.01898.01c.01219.0037.02504-.0009669.02504-.0009669s.06056-.01499.06587-.01617c.0054-.0013.08249-.01691.08249-.01691" style="fill:#e4002b;fill-opacity:1;fill-rule:nonzero;stroke:none"/>
</svg>
