<?xml version="1.0" encoding="UTF-8" standalone="no"?>
<svg
   xmlns:dc="http://purl.org/dc/elements/1.1/"
   xmlns:cc="http://creativecommons.org/ns#"
   xmlns:rdf="http://www.w3.org/1999/02/22-rdf-syntax-ns#"
   xmlns:svg="http://www.w3.org/2000/svg"
   xmlns="http://www.w3.org/2000/svg"
   xmlns:sodipodi="http://sodipodi.sourceforge.net/DTD/sodipodi-0.dtd"
   xmlns:inkscape="http://www.inkscape.org/namespaces/inkscape"
   version="1.1"
   width="2000"
   height="1333.3334"
   id="svg2"
   sodipodi:docname="Vietnam Border Defense Force flag.svg"
   inkscape:version="1.0.2 (e86c870879, 2021-01-15)"
   viewBox="0 0 2000 1333.3334">
  <sodipodi:namedview
     pagecolor="#ffffff"
     bordercolor="#666666"
     borderopacity="1"
     objecttolerance="10"
     gridtolerance="10"
     guidetolerance="10"
     inkscape:pageopacity="0"
     inkscape:pageshadow="2"
     inkscape:window-width="1600"
     inkscape:window-height="837"
     id="namedview25"
     showgrid="false"
     inkscape:lockguides="true"
     inkscape:snap-global="false"
     inkscape:zoom="0.46739177"
     inkscape:cx="1000"
     inkscape:cy="668"
     inkscape:window-x="-8"
     inkscape:window-y="-8"
     inkscape:window-maximized="1"
     inkscape:current-layer="svg2"
     inkscape:document-rotation="0" />
  <metadata
     id="metadata12">
    <rdf:RDF>
      <cc:Work
         rdf:about="">
        <dc:format>image/svg+xml</dc:format>
        <dc:type
           rdf:resource="http://purl.org/dc/dcmitype/StillImage" />
        <dc:title />
      </cc:Work>
    </rdf:RDF>
  </metadata>
  <defs
     id="defs10" />
  <rect
     width="2000"
     height="1333.3334"
     x="0"
     y="0"
     id="rect6"
     style="fill:#da251d" />
  <polyline
     style="fill:#ffff00;fill-opacity:1"
     points="20.71,8.15 9.29,8.15 18.53,14.85 15,4 11.47,14.85 "
     id="g1"
     transform="matrix(66.666667,0,0,66.666667,0,38.333351)" />
  <path
     d="m 134.51862,235.81447 -21.10893,-0.0576 -6.53631,-8.87747 C 95.441165,224.0234 89.725055,215.16802 89.725055,200.31321 v -79.24135 c 0,-18.40236 9.067173,-27.603523 27.201485,-27.603523 18.17901,0 27.26851,9.201163 27.26851,27.603523 v 79.24135 c 0,14.52018 -5.40261,23.30661 -16.20783,26.35931 z m -9.28421,-114.74261 c 0,-5.8959 -2.74695,-8.86619 -8.24088,-8.91086 h -0.13412 c -5.44923,0 -8.17385,2.9703 -8.17385,8.91086 v 79.24135 c 0,5.94056 2.74695,8.91082 8.24084,8.91082 5.53859,0 8.30787,-2.97026 8.30787,-8.91082 z"
     style="font-style:normal;font-variant:normal;font-weight:normal;font-stretch:normal;font-size:medium;line-height:1.25;font-family:Gobold;-inkscape-font-specification:Gobold;letter-spacing:0px;word-spacing:0px;fill:#ffff00;fill-opacity:1;stroke:none;stroke-width:3.43033814"
     id="path899"
     inkscape:connector-curvature="0"
     sodipodi:nodetypes="cccsssssccccsssscc" />
  <path
     d="m 207.21856,201.47041 q 0,27.60348 -27.26847,27.67047 -27.20152,0 -27.20152,-27.67047 V 95.545304 h 18.96064 V 201.47041 q 0,8.91081 8.24088,8.91081 8.30783,0 8.30783,-8.91081 V 95.545304 h 18.96064 z"
     style="font-style:normal;font-variant:normal;font-weight:normal;font-stretch:normal;font-size:medium;line-height:1.25;font-family:Gobold;-inkscape-font-specification:Gobold;letter-spacing:0px;word-spacing:0px;fill:#ffff00;fill-opacity:1;stroke:none;stroke-width:3.43033814"
     id="path901"
     inkscape:connector-curvature="0" />
  <path
     d="m 235.87174,95.545304 12.93076,51.254086 12.93076,-51.254086 h 20.09965 l -22.98059,74.569646 -0.53599,1.60797 v 55.274 h -18.96067 v -55.274 l -0.60299,-1.60797 -22.98059,-74.569646 z"
     style="font-style:normal;font-variant:normal;font-weight:normal;font-stretch:normal;font-size:medium;line-height:1.25;font-family:Gobold;-inkscape-font-specification:Gobold;letter-spacing:0px;word-spacing:0px;fill:#ffff00;fill-opacity:1;stroke:none;stroke-width:3.43033814"
     id="path903"
     inkscape:connector-curvature="0" />
  <path
     d="m 290.38643,95.545304 h 49.17712 v 18.692666 h -30.21648 v 31.6458 h 25.99555 v 18.75966 h -25.99555 v 43.66086 h 30.21648 v 18.69263 h -49.17712 z"
     style="font-style:normal;font-variant:normal;font-weight:normal;font-stretch:normal;font-size:medium;line-height:1.25;font-family:Gobold;-inkscape-font-specification:Gobold;letter-spacing:0px;word-spacing:0px;fill:#ffff00;fill-opacity:1;stroke:none;stroke-width:3.43033814"
     id="path905"
     inkscape:connector-curvature="0"
     sodipodi:nodetypes="ccccccccccccc" />
  <path
     d="M 402.58709,95.545304 V 114.23797 H 384.83242 V 226.99692 H 365.87174 V 114.23797 H 348.11706 V 95.545304 Z"
     style="font-style:normal;font-variant:normal;font-weight:normal;font-stretch:normal;font-size:medium;line-height:1.25;font-family:Gobold;-inkscape-font-specification:Gobold;letter-spacing:0px;word-spacing:0px;fill:#ffff00;fill-opacity:1;stroke:none;stroke-width:3.43033814"
     id="path907"
     inkscape:connector-curvature="0" />
  <path
     d="M 497.72536,95.545304 V 114.23797 H 479.97068 V 226.99692 H 461.01004 V 114.23797 H 443.25536 V 95.545304 Z"
     style="font-style:normal;font-variant:normal;font-weight:normal;font-stretch:normal;font-size:medium;line-height:1.25;font-family:Gobold;-inkscape-font-specification:Gobold;letter-spacing:0px;word-spacing:0px;fill:#ffff00;fill-opacity:1;stroke:none;stroke-width:3.43033814"
     id="path909"
     inkscape:connector-curvature="0" />
  <path
     d="m 506.55971,95.545304 h 18.96065 v 48.803486 h 16.54871 V 95.545304 h 18.96064 V 226.99692 h -18.96064 v -63.88847 h -16.54871 v 63.88847 h -18.96065 z"
     style="font-style:normal;font-variant:normal;font-weight:normal;font-stretch:normal;font-size:medium;line-height:1.25;font-family:Gobold;-inkscape-font-specification:Gobold;letter-spacing:0px;word-spacing:0px;fill:#ffff00;fill-opacity:1;stroke:none;stroke-width:3.43033814"
     id="path911"
     inkscape:connector-curvature="0"
     sodipodi:nodetypes="ccccccccccccc" />
  <path
     d="m 628.75597,180.36576 6.16391,46.63116 h -19.16166 l -3.68494,-27.87149 h -19.36265 l -3.75193,27.87149 h -19.09467 l 6.16391,-46.43014 13.39976,-85.021476 h 25.99551 z m -19.16166,0 -7.23585,-54.67101 -7.23589,54.67101 z"
     style="font-style:normal;font-variant:normal;font-weight:normal;font-stretch:normal;font-size:medium;line-height:1.25;font-family:Gobold;-inkscape-font-specification:Gobold;letter-spacing:0px;word-spacing:0px;fill:#ffff00;fill-opacity:1;stroke:none;stroke-width:3.43033814"
     id="path913"
     inkscape:connector-curvature="0" />
  <path
     d="m 643.75417,95.545304 h 18.96064 L 680.6705,171.78992 V 95.545304 h 17.5537 V 226.99692 h -18.96068 l -17.28568,-73.83264 v 73.83264 h -18.22367 z"
     style="font-style:normal;font-variant:normal;font-weight:normal;font-stretch:normal;font-size:medium;line-height:1.25;font-family:Gobold;-inkscape-font-specification:Gobold;letter-spacing:0px;word-spacing:0px;fill:#ffff00;fill-opacity:1;stroke:none;stroke-width:3.43033814"
     id="path915"
     inkscape:connector-curvature="0" />
  <path
     d="m 761.52851,201.47041 c 0,18.40232 -9.0895,27.62581 -27.26851,27.67047 -18.13434,0 -27.20148,-9.22349 -27.20148,-27.67047 v -80.39855 c 0,-18.40236 9.06714,-27.603523 27.20148,-27.603523 18.17901,0 27.26851,9.201163 27.26851,27.603523 v 1.75787 h -18.96064 v -1.75787 c 0,-5.8959 -2.74695,-8.86619 -8.24087,-8.91086 h -0.13413 c -5.44923,0 -8.17384,2.9703 -8.17384,8.91086 v 80.39855 c 0,5.94055 2.74694,8.91081 8.24087,8.91081 5.53855,0 8.30783,-2.97026 8.30783,-8.91081 v -30.81947 h -8.24084 v -18.75966 h 27.20149 z"
     style="font-style:normal;font-variant:normal;font-weight:normal;font-stretch:normal;font-size:medium;line-height:1.25;font-family:Gobold;-inkscape-font-specification:Gobold;letter-spacing:0px;word-spacing:0px;fill:#ffff00;fill-opacity:1;stroke:none;stroke-width:3.43033814"
     id="path917"
     inkscape:connector-curvature="0"
     sodipodi:nodetypes="scssssccscsssssccccs" />
  <g
     id="g918"
     transform="matrix(1.3032901,0,0,1.3032901,-228.60102,-386.88644)">
    <path
       sodipodi:nodetypes="cccccccc"
       inkscape:connector-curvature="0"
       id="rect862"
       d="m 412.31105,354.87006 h 11.41858 l 6.82199,10.62494 h -7.31461 l -5.22092,-6.0156 -5.58502,6.0156 h -6.95049 z"
       style="fill:#ffff00;fill-opacity:1;stroke:none;stroke-width:2.7134757;stroke-miterlimit:4;stroke-dasharray:none;stroke-dashoffset:0;stroke-opacity:1" />
    <path
       sodipodi:nodetypes="ccccc"
       inkscape:connector-curvature="0"
       id="path888"
       d="m 434.95585,343.87279 h 10.48647 l -9.05329,10.40765 h -6.32106 z"
       style="fill:#ffff00;fill-opacity:1;stroke:none;stroke-width:14.34602165;stroke-miterlimit:4;stroke-dasharray:none;stroke-dashoffset:0;stroke-opacity:1" />
  </g>
  <g
     id="g922"
     transform="matrix(1.3032901,0,0,1.3032901,-149.81217,-385.56612)">
    <path
       sodipodi:nodetypes="ccssccssc"
       inkscape:connector-curvature="0"
       id="rect910"
       d="m 564.15572,350.74765 h 6.53219 c 0.0597,2.90247 0.88851,5.21608 2.4069,6.38499 2.16341,1.66547 6.54093,1.97862 8.77094,-0.10758 1.90638,-1.78344 1.98809,-3.52698 2.4322,-6.27741 h 6.40497 c -0.32233,5.05381 -1.43878,7.55234 -3.76876,9.89238 -5.0411,5.06288 -13.35139,4.74084 -18.20802,1.24847 -3.25491,-2.34058 -5.03759,-6.25569 -4.57042,-11.14085 z"
       style="fill:#ffff00;fill-opacity:1;stroke:none;stroke-width:11.24595547;stroke-miterlimit:4;stroke-dasharray:none;stroke-dashoffset:0;stroke-opacity:1" />
    <path
       style="fill:#ffff00;fill-opacity:1;stroke:none;stroke-width:12.98832703;stroke-miterlimit:4;stroke-dasharray:none;stroke-dashoffset:0;stroke-opacity:1"
       d="m 578.20065,342.35545 h 9.37353 l -8.09246,9.54381 h -5.6502 z"
       id="path914"
       inkscape:connector-curvature="0"
       sodipodi:nodetypes="ccccc" />
  </g>
  <g
     aria-label="BIÊN PHÒNG VIÊT NAM˙"
     id="text1004"
     style="font-style:normal;font-variant:normal;font-weight:normal;font-stretch:normal;font-size:98.589px;line-height:1.25;font-family:Gobold;-inkscape-font-specification:'Gobold, Normal';font-variant-ligatures:normal;font-variant-caps:normal;font-variant-numeric:normal;font-variant-east-asian:normal;text-align:center;letter-spacing:0px;word-spacing:0px;text-anchor:middle;fill:#ffff00;fill-opacity:1"
     transform="translate(11.645835)">
    <path
       d="m 575.29613,1139.7857 h 20.98868 q 18.14846,0.048 18.14846,19.8815 v 14.201 q 0,9.2909 -7.46157,13.142 7.46157,3.8512 7.46157,13.142 v 14.2492 q 0,19.7852 -19.01497,19.8333 h -20.12217 z m 13.62338,13.4308 v 27.0542 h 4.28439 q 2.84021,0 3.89927,-0.3851 3.70672,-1.4923 3.70672,-6.0174 v -14.201 q 0,-6.4507 -5.92112,-6.4507 z m 0,40.5332 v 27.0542 h 5.96926 q 5.92112,0 5.92112,-6.4025 v -14.2492 q 0,-4.5251 -3.70672,-5.9692 -1.05906,-0.4333 -3.89927,-0.4333 z"
       id="path1046" />
    <path
       d="m 625.74597,1139.7857 h 13.62338 v 94.449 h -13.62338 z"
       id="path1048" />
    <path
       d="m 651.06716,1139.7857 h 35.33415 v 13.4308 h -21.71076 v 27.0542 h 18.67799 v 13.479 h -18.67799 v 27.0542 h 21.71076 v 13.4308 h -35.33415 z m 0.91465,-3.7067 10.30178,-12.1311 h 12.70874 l 10.49433,12.1311 h -10.30178 l -6.54692,-4.4769 -6.49879,4.4769 z"
       id="path1050" />
    <path
       d="m 697.56959,1139.7857 h 13.62338 l 12.9013,54.7824 v -54.7824 h 12.61246 v 94.449 h -13.62338 l -12.41991,-53.0493 v 53.0493 h -13.09385 z"
       id="path1052" />
    <path
       d="m 773.6776,1139.7857 h 19.83334 q 18.14846,0.048 18.14846,19.8815 v 14.201 q 0,14.6343 -13.04571,18.8706 -3.12905,1.0109 -9.0983,1.0109 h -2.21441 v 40.485 H 773.6776 Z m 13.62338,13.4308 v 27.0542 h 3.12905 q 2.84021,0 3.89927,-0.3851 3.70672,-1.4923 3.70672,-6.0174 v -14.201 q 0,-6.4507 -5.92112,-6.4507 z"
       id="path1054" />
    <path
       d="M 821.76862,1139.7857 H 835.392 v 40.485 h 11.89038 v -40.485 h 13.62338 v 94.449 h -13.62338 v -40.485 H 835.392 v 40.485 h -13.62338 z"
       id="path1056" />
    <path
       d="m 912.07767,1215.8937 q 0,19.8334 -19.59264,19.8815 -19.5445,0 -19.5445,-19.8815 v -57.767 q 0,-19.8333 19.5445,-19.8333 19.59264,0 19.59264,19.8333 z m -13.62338,-57.767 q 0,-6.3543 -5.92112,-6.4025 h -0.0963 q -5.87297,0 -5.87297,6.4025 v 57.767 q 0,6.4025 5.92111,6.4025 5.96926,0 5.96926,-6.4025 z m -21.85518,-34.1788 H 887.286 l 6.83576,12.1792 h -7.55784 z"
       id="path1058" />
    <path
       d="m 923.14968,1139.7857 h 13.62338 l 12.9013,54.7824 v -54.7824 h 12.61245 v 94.449 h -13.62338 l -12.4199,-53.0493 v 53.0493 h -13.09385 z"
       id="path1060" />
    <path
       d="m 1012.9774,1215.8937 q 0,19.8334 -19.59269,19.8815 -19.54449,0 -19.54449,-19.8815 v -57.767 q 0,-19.8333 19.54449,-19.8333 19.59269,0 19.59269,19.8333 v 12.7088 h -13.62343 v -12.7088 q 0,-6.3543 -5.92112,-6.4025 h -0.0963 q -5.87298,0 -5.87298,6.4025 v 57.767 q 0,6.4025 5.92111,6.4025 5.96926,0 5.96926,-6.4025 v -22.144 h -5.92112 v -13.479 h 19.54458 z"
       id="path1062" />
    <path
       d="m 1077.3876,1234.2347 h -18.678 l -9.6279,-61.0404 -4.4288,-33.4086 h 13.7678 l 9.5797,72.7864 9.6279,-72.7864 h 13.7678 l -4.4288,33.5049 z"
       id="path1064" />
    <path
       d="m 1099.8204,1139.7857 h 13.6234 v 94.449 h -13.6234 z"
       id="path1066" />
    <path
       d="m 1125.1416,1139.7857 h 35.3342 v 13.4308 h -21.7108 v 27.0542 h 18.678 v 13.479 h -18.678 v 27.0542 h 21.7108 v 13.4308 h -35.3342 z m 0.9147,-3.7067 10.3017,-12.1311 h 12.7088 l 10.4943,12.1311 h -10.3018 l -6.5469,-4.4769 -6.4988,4.4769 z"
       id="path1068" />
    <path
       d="m 1206.93,1139.7857 v 13.4308 h -12.7568 v 81.0182 h -13.6234 v -81.0182 h -12.7569 v -13.4308 z"
       id="path1070" />
    <path
       d="m 1240.0498,1139.7857 h 13.6234 l 12.9013,54.7824 v -54.7824 h 12.6124 v 94.449 h -13.6234 l -12.4199,-53.0493 v 53.0493 h -13.0938 z"
       id="path1072" />
    <path
       d="m 1329.6849,1200.7299 4.4288,33.5048 h -13.7678 l -2.6476,-20.0258 h -13.9123 l -2.6957,20.0258 h -13.7197 l 4.4288,-33.3604 9.6278,-61.0886 h 18.678 z m -13.7678,0 -5.199,-39.2816 -5.199,39.2816 z"
       id="path1074" />
    <path
       d="m 1371.9511,1204.4847 15.8378,-64.699 h 13.6233 v 94.449 h -13.0457 v -53.0012 l -11.6496,53.0012 h -9.2428 l -11.9866,-53.0012 v 53.0012 h -13.1901 v -94.449 h 13.6233 z"
       id="path1076" />
    <path
       d="m 1136.9598,1237.9414 h 11.6978 v 11.6497 h -11.6978 z"
       id="path1078"
       sodipodi:nodetypes="ccccc" />
  </g>
</svg>
