<svg xmlns="http://www.w3.org/2000/svg" xmlns:xlink="http://www.w3.org/1999/xlink" width="900" height="600"><defs><clipPath clipPathUnits="userSpaceOnUse" id="d"><path d="m -109.44854,181.5283 c -0.0743,0.005 -0.14904,0.007 -0.22429,0.007 -1.64187,0 -5.45544,-0.84238 -6.92547,-2.10534 -1.53974,1.16668 -5.41628,2.10534 -7.03156,2.10534 -0.0758,0 -0.15062,-0.009 -0.22481,-0.0229 -0.004,0.36798 0.0154,0.74941 0.0382,1.09633 0.0855,1.29667 0.3129,2.59794 0.65818,3.85022 1.08693,3.94096 3.31152,7.29006 6.50134,9.83059 3.19246,-2.54265 5.41973,-5.89492 6.50902,-9.8388 0.34583,-1.25198 0.57398,-2.55315 0.66026,-3.84968 0.0202,-0.36299 0.0404,-0.80747 0.0391,-1.07276 z" fill="#fff" stroke="#c09300" stroke-width=".242"/></clipPath></defs><path clip-rule="evenodd" fill-rule="evenodd" d="M0.977 667.645H1500.977V1000.977H0.977z" transform="matrix(0.6,0,0,0.6000024,-0.5862,-0.58858883)"/><path clip-rule="evenodd" fill="#fff" fill-rule="evenodd" d="M0.977 334.311H1500.977V667.645H0.977z" transform="matrix(0.6,0,0,0.5999988,-0.5862,-0.58618883)"/><path clip-rule="evenodd" fill="#ce1126" fill-rule="evenodd" d="M0.977 0.977H1500.977V334.311H0.977z" transform="matrix(0.6,0,0,0.5999988,-0.5862,-0.58619883)"/><g transform="matrix(0.8576616,0,0,0.86565775,735.37741,-11.082999)" fill-rule="evenodd"><path d="m -774.57529,101.30184 c 1.37946,-1.587924 4.29307,-3.87836 7.12147,-3.168105 2.16758,0.5443 1.89066,3.451475 4.41668,4.749885 -2.20589,1.75856 -4.83645,2.72353 -7.10006,2.56378 -2.43618,-0.17191 -3.04851,-1.88259 -4.43809,-4.14556 z" fill="#fff" stroke="#000" stroke-width="1.161"/><path d="m -762.02506,96.298423 c 0.88906,-1.906303 3.05961,-4.910287 5.97426,-5.006051 2.23366,-0.0734 2.76771,2.797687 5.55356,3.350589 -1.63659,2.297842 -3.8999,3.949653 -6.12003,4.419182 -2.38939,0.505339 -3.44896,-0.970689 -5.40779,-2.76372 z" fill="#fff" stroke="#000" stroke-width="1.161"/><path d="m -768.34327,99.317191 c 1.10599,-1.789191 3.6131,-4.518589 6.51893,-4.272682 2.22691,0.18844 2.42137,3.102293 5.1234,3.977342 -1.8942,2.090579 -4.33522,3.466239 -6.59504,3.672789 -2.4321,0.22231 -3.3117,-1.36755 -5.04729,-3.377449 z" fill="#fff" stroke="#000" stroke-width="1.161"/><path d="m -699.05752,89.664971 c 1.20842,1.358069 2.84585,4.105836 1.91144,6.440363 -0.71609,1.789075 -3.18554,1.222758 -4.59137,3.232346 -1.26075,-2.083097 -1.79019,-4.438777 -1.39397,-6.353499 0.42641,-2.060707 1.96815,-2.389454 4.0739,-3.31921 z" fill="#fff" stroke="#000" stroke-width="1.161"/><path d="m -702.52565,84.052508 c 1.64298,0.97571 4.16411,3.220285 3.99336,5.905973 -0.13085,2.058182 -3.9629,0.853011 -4.70806,3.36628 -1.93057,-1.695121 -1.689,-2.935197 -1.91706,-5.013982 -0.24547,-2.23728 0.83976,-2.608167 2.63176,-4.258271 z" fill="#fff" stroke="#000" stroke-width="1.161"/><path d="m -706.44387,80.229707 c 1.78944,0.440002 4.68851,1.766164 5.07375,4.148137 0.29524,1.825425 -3.65905,1.731689 -3.86485,4.106778 -2.21512,-0.994896 -2.23557,-2.135332 -2.88225,-3.889165 -0.696,-1.887547 0.27788,-2.481354 1.67335,-4.36575 z" fill="#fff" stroke="#000" stroke-width="1.161"/><path id="a" d="m -822.32666,45.77512 c -4.6863,4.686295 -4.6863,12.28427 0,16.970563 3.5631,3.563106 8.7999,4.418385 13.16986,2.563265 l 7.6235,7.623491 -9.8995,9.8995 6.36396,6.36396 9.8995,-9.8995 c 0,0 69.92991,69.929911 104.89487,104.894871 5.01061,5.0106 3.94315,12.2761 0.19887,16.02038 -13.47702,13.47703 -31.92586,-0.81131 -36.59277,-9.72271 -1.21521,5.90758 -1.48853,12.10629 0.39775,19.04768 l 6.23137,-3.49134 c 6.40812,6.99914 16.40468,8.96244 24.88132,8.17593 13.9072,-1.2904 25.6586,-10.4614 32.70369,-8.57367 -1.88773,-7.0451 7.28328,-18.79649 8.57367,-32.70369 0.78652,-8.47664 -1.17679,-18.4732 -8.17592,-24.88132 l 3.49134,-6.23138 c -6.9414,-1.88628 -13.14011,-1.61295 -19.04769,-0.39775 8.91141,4.66691 23.19975,23.11575 9.72272,36.59278 -3.74428,3.74428 -11.00978,4.81173 -16.02039,-0.19888 C -718.87547,142.86234 -788.80538,72.932439 -788.80538,72.932439 l 9.89949,-9.899493 -6.36396,-6.363961 -9.89949,9.899494 -7.6235,-7.623494 c 1.85513,-4.369962 0.99984,-9.60676 -2.56326,-13.169864 -4.68629,-4.686293 -12.28427,-4.686293 -16.97056,0 z m 4.94975,4.949748 c 1.95261,-1.952619 5.11844,-1.952619 7.07106,0 1.95262,1.952619 1.95262,5.118449 0,7.071068 -1.95262,1.952618 -5.11845,1.952618 -7.07106,0 -1.95262,-1.952619 -1.95262,-5.118449 0,-7.071068 z" fill="#fff" fill-opacity="1" stroke="#000" stroke-width="1.161" stroke-linecap="round" stroke-linejoin="round" stroke-miterlimit="4" stroke-dasharray="none" stroke-dashoffset="0" stroke-opacity="1"/><use xlink:href="#a" transform="translate(-234.43659) matrix(-1,0,0,1,-1245.1227,0)" width="1008" height="672"/><path d="m -767.21301,161.98425 c -0.87582,1.91243 -1.75384,5.50954 0.0585,7.7942 1.39062,1.75304 3.84699,2.46327 5.56691,0.6967 1.70529,-1.75155 1.06481,-4.16772 -0.0162,-6.16293 -1.16343,-2.14732 -2.97423,-1.99787 -5.6092,-2.32793 l 10e-6,-4e-5 z" fill="#fff" stroke="#000" stroke-width="1.161"/><path d="m -768.27499,155.68287 c -0.67917,1.99077 -1.1943,5.66092 0.84163,7.74885 1.5602,1.6001 3.93409,-0.10081 6.32638,1.43007 0.41123,-2.79096 -0.0771,-5.55004 -1.35318,-7.4265 -1.37336,-2.01952 -3.15997,-1.68882 -5.81477,-1.75238 z" fill="#fff" stroke="#000" stroke-width="1.161"/><path d="m -770.29644,148.69401 c -0.45808,2.05295 -0.57003,5.75738 1.6814,7.61091 1.72535,1.42046 3.89965,-0.52912 6.44458,0.73183 0.1045,-2.81916 -0.68172,-5.50856 -2.15477,-7.23471 -1.58535,-1.85776 -3.32525,-1.33425 -5.97116,-1.108 z" fill="#fff" stroke="#000" stroke-width="1.161"/><path d="m -773.23651,142.14632 c -0.23535,2.09023 0.0505,5.78531 2.48767,7.38678 1.86769,1.2273 3.82044,-0.94415 6.48589,0.0367 -0.19834,-2.81412 -1.26836,-5.40373 -2.91798,-6.96201 -1.77538,-1.67708 -3.44913,-0.97006 -6.05553,-0.46144 z" fill="#fff" stroke="#000" stroke-width="1.161"/><path d="m -775.76588,135.14188 c -0.23535,2.09023 0.0505,5.78531 2.48767,7.38678 1.86769,1.2273 3.82044,-0.94415 6.48589,0.0367 -0.19834,-2.81412 -1.26836,-5.40373 -2.91798,-6.96201 -1.77538,-1.67708 -3.44913,-0.97006 -6.05553,-0.46144 z" fill="#fff" stroke="#000" stroke-width="1.161"/><path d="m -778.6844,127.7483 c -0.23535,2.09023 0.0505,5.78531 2.48767,7.38678 1.86769,1.2273 3.82043,-0.94415 6.48589,0.0367 -0.19834,-2.81412 -1.26836,-5.40373 -2.91798,-6.96201 -1.77539,-1.67708 -3.44913,-0.97006 -6.05553,-0.46144 z" fill="#fff" stroke="#000" stroke-width="1.161"/><path d="m -780.4099,120.10127 c -0.45969,2.0526 -0.57454,5.75693 1.67548,7.61221 1.72424,1.4218 3.90004,-0.52609 6.44401,0.73681 0.10669,-2.81908 -0.67744,-5.50909 -2.14915,-7.23639 -1.5839,-1.85898 -3.32421,-1.33683 -5.97029,-1.11263 z" fill="#fff" stroke="#000" stroke-width="1.161"/><path d="m -782.29018,112.09039 c -0.58396,2.02076 -0.92443,5.7112 1.20831,7.70019 1.63436,1.52427 3.92487,-0.28736 6.38711,1.12827 0.27834,-2.80733 -0.34034,-5.54014 -1.70402,-7.35394 -1.46762,-1.95208 -3.23653,-1.53699 -5.89135,-1.47452 z" fill="#fff" stroke="#000" stroke-width="1.161"/><path d="m -782.89026,104.11723 c -0.82455,1.86252 -1.60981,5.34602 0.26594,7.48521 1.43741,1.63938 3.93043,0.16927 6.20273,1.79852 0.61654,-2.64773 0.33373,-5.3257 -0.79992,-7.21079 -1.22006,-2.02882 -3.0261,-1.83257 -5.6687,-2.07295 z" fill="#fff" stroke="#000" stroke-width="1.161"/><path d="m -782.69236,96.574828 c -1.01364,1.617722 -2.19882,4.734152 -0.71284,6.930712 1.13875,1.68335 3.66841,0.6274 5.59231,2.40153 0.91932,-2.36636 0.99814,-4.86847 0.17619,-6.741848 -0.88463,-2.016205 -2.6055,-2.051928 -5.05566,-2.590394 z" fill="#fff" stroke="#000" stroke-width="1.161"/><path d="m -781.87391,102.34776 c 1.56543,-1.40493 4.74019,-3.317039 7.4589,-2.26209 2.08352,0.80846 1.44882,3.65899 3.79466,5.26013 -2.40663,1.47194 -5.13642,2.10383 -7.36284,1.66507 -2.39615,-0.47219 -2.79199,-2.24552 -3.89072,-4.66311 z" fill="#fff" stroke="#000" stroke-width="1.161"/><path d="m -780.50172,89.664971 c -1.20842,1.358069 -2.84585,4.105836 -1.91144,6.440363 0.71609,1.789075 3.18554,1.222758 4.59137,3.232346 1.26075,-2.083097 1.79019,-4.438777 1.39397,-6.353499 -0.42642,-2.060707 -1.96816,-2.389454 -4.0739,-3.31921 z" fill="#fff" stroke="#000" stroke-width="1.161"/><path d="m -777.03359,84.052508 c -1.64298,0.97571 -4.16412,3.220285 -3.99337,5.905973 0.13085,2.058182 3.9629,0.853011 4.70807,3.36628 1.93057,-1.695121 1.68899,-2.935197 1.91706,-5.013982 0.24546,-2.23728 -0.83976,-2.608167 -2.63176,-4.258271 z" fill="#fff" stroke="#000" stroke-width="1.161"/><path d="m -773.11537,80.229707 c -1.78944,0.440002 -4.68851,1.766164 -5.07375,4.148137 -0.29525,1.825425 3.65905,1.731689 3.86485,4.106778 2.21512,-0.994896 2.23557,-2.135332 2.88225,-3.889165 0.696,-1.887547 -0.27788,-2.481354 -1.67335,-4.36575 z" fill="#fff" stroke="#000" stroke-width="1.161"/><path d="m -767.85946,77.065847 c -1.85527,1.06e-4 -5.03342,0.633352 -6.07598,2.9943 -0.79898,1.809313 3.05371,2.715953 2.585,5.219771 2.4232,-0.464858 2.76366,-1.636844 3.88258,-3.283076 1.20423,-1.771742 0.42883,-2.631802 -0.3916,-4.930995 z" fill="#fff" stroke="#000" stroke-width="1.161"/><path d="m -763.20699,74.733997 c -1.83646,-0.263537 -5.07235,-0.08835 -6.43984,2.100484 -1.04796,1.677414 2.63677,3.122338 1.81701,5.53414 2.46467,-0.115791 2.96822,-1.227502 4.30972,-2.698023 1.44379,-1.582633 0.79847,-2.544155 0.3131,-4.936601 z" fill="#fff" stroke="#000" stroke-width="1.161"/><path d="m -756.43297,75.379679 c -1.5861,-0.962451 -4.63159,-2.069971 -6.74776,-0.592529 -1.62173,1.132236 0.0217,4.355841 -1.67801,6.253138 2.31274,0.859797 4.16276,-0.461916 5.9734,-1.288744 1.9487,-0.889856 1.96091,-1.980648 2.45237,-4.371865 z" fill="#fff" stroke="#000" stroke-width="1.161"/><path d="m -749.9394,76.837261 c -1.66081,-1.290791 -4.96275,-2.97377 -7.60012,-1.729331 -2.02117,0.953672 -1.18663,3.752221 -3.41346,5.515136 2.50463,1.298193 5.27225,1.735588 7.4621,1.140593 2.35681,-0.640341 2.62634,-2.437203 3.55148,-4.926398 z" fill="#fff" stroke="#000" stroke-width="1.161"/><path d="m -742.58214,79.771881 c -1.46302,-1.511298 -4.4958,-3.641436 -7.28183,-2.779829 -2.13509,0.660288 -1.70195,3.54832 -4.15436,4.980934 2.29742,1.637164 4.97616,2.45901 7.22788,2.177539 2.42339,-0.302913 2.94266,-2.044095 4.20831,-4.378644 z" fill="#fff" stroke="#000" stroke-width="1.161"/><path d="m -735.91527,83.681108 c -1.24238,-1.697324 -3.95505,-4.222527 -6.8328,-3.750369 -2.20538,0.361831 -2.17161,3.281969 -4.79703,4.365424 2.05172,1.936218 4.59275,3.116981 6.8618,3.146364 2.44204,0.03164 3.19475,-1.622079 4.76803,-3.761419 z" fill="#fff" stroke="#000" stroke-width="1.161"/><path d="m -729.31851,87.855886 c -1.09928,-1.793321 -3.59615,-4.53209 -6.50289,-4.297068 -2.2276,0.1801 -2.43297,3.093203 -5.13826,3.958125 1.88635,2.09766 4.32221,3.482452 6.58124,3.697464 2.43125,0.231418 3.3168,-1.355137 5.05991,-3.358521 z" fill="#fff" stroke="#000" stroke-width="1.161"/><path d="m -723.67606,91.552673 c -1.09928,-1.793321 -3.59614,-4.53209 -6.50288,-4.297068 -2.22761,0.1801 -2.43297,3.093203 -5.13826,3.958125 1.88635,2.09766 4.32221,3.482452 6.58124,3.697464 2.43125,0.231418 3.31679,-1.355137 5.0599,-3.358521 z" fill="#fff" stroke="#000" stroke-width="1.161"/><path d="m -717.53418,96.298423 c -0.88906,-1.906303 -3.05961,-4.910287 -5.97426,-5.006051 -2.23366,-0.0734 -2.76771,2.797687 -5.55356,3.350589 1.63659,2.297842 3.8999,3.949653 6.12003,4.419182 2.38939,0.505339 3.44896,-0.970689 5.40779,-2.76372 z" fill="#fff" stroke="#000" stroke-width="1.161"/><path d="m -711.21597,99.317191 c -1.10599,-1.789191 -3.6131,-4.518589 -6.51893,-4.272682 -2.22691,0.18844 -2.42137,3.102293 -5.1234,3.977342 1.8942,2.090579 4.33522,3.466239 6.59504,3.672789 2.4321,0.22231 3.3117,-1.36755 5.04729,-3.377449 z" fill="#fff" stroke="#000" stroke-width="1.161"/><path d="m -704.98395,101.30184 c -1.37946,-1.587924 -4.29307,-3.87836 -7.12147,-3.168105 -2.16758,0.5443 -1.89066,3.451475 -4.41668,4.749885 2.20588,1.75856 4.83645,2.72353 7.10005,2.56378 2.43619,-0.17191 3.04851,-1.88259 4.43809,-4.14556 z" fill="#fff" stroke="#000" stroke-width="1.161"/><path d="m -697.68533,102.34776 c -1.56543,-1.40493 -4.74019,-3.317039 -7.4589,-2.26209 -2.08352,0.80846 -1.44882,3.65899 -3.79466,5.26013 2.40662,1.47194 5.13642,2.10383 7.36284,1.66507 2.39615,-0.47219 2.79199,-2.24552 3.89072,-4.66311 z" fill="#fff" stroke="#000" stroke-width="1.161"/><path d="m -690.2622,101.61284 c -1.82221,-1.05069 -5.32385,-2.264658 -7.7655,-0.6701 -1.87121,1.22199 -0.66054,3.87955 -2.6244,5.93135 2.65907,0.94223 5.46052,0.99573 7.54801,0.10588 2.24663,-0.95768 2.26706,-2.77454 2.84189,-5.36713 z" fill="#fff" stroke="#000" stroke-width="1.161"/><path d="m -683.01526,100.18235 c -1.94295,-0.805801 -5.57236,-1.555948 -7.78688,0.34149 -1.69716,1.45409 -0.15242,3.93243 -1.83397,6.22133 2.75873,0.58985 5.54351,0.28 7.49815,-0.87276 2.10365,-1.24063 1.88855,-3.04483 2.1227,-5.69004 z" fill="#fff" stroke="#000" stroke-width="1.161"/><path d="m -676.16497,97.786325 c -2.04086,-0.509218 -5.74132,-0.713687 -7.65048,1.490722 -1.46314,1.689353 0.43153,3.911643 -0.89254,6.424303 2.81565,0.17485 5.52386,-0.54392 7.28625,-1.9734 1.89675,-1.53845 1.41688,-3.29091 1.25676,-5.941625 z" fill="#fff" stroke="#000" stroke-width="1.161"/><path d="m -670.96748,94.52811 c -2.10055,-0.110215 -5.77198,0.395561 -7.22516,2.92392 -1.1137,1.937618 1.1704,3.7573 0.35038,6.47653 2.79725,-0.36592 5.31841,-1.58852 6.77548,-3.32817 1.56816,-1.872281 0.76253,-3.500893 0.0993,-6.07228 z" fill="#fff" stroke="#000" stroke-width="1.161"/><path d="m -666.37408,89.339466 c -2.06881,0.381404 -5.5141,1.755014 -6.3088,4.65539 -0.60907,2.222728 2.05594,3.528649 1.92338,6.473644 2.62969,-1.026886 4.78166,-2.856155 5.77288,-4.959068 1.06679,-2.263235 -0.11434,-3.722728 -1.38747,-6.169966 z" fill="#fff" stroke="#000" stroke-width="1.161"/><path d="m -662.54411,84.140584 c -1.9667,0.74666 -5.10937,2.716548 -5.37039,5.712478 -0.20008,2.295965 2.65608,3.102161 3.05445,6.023091 2.4026,-1.482355 4.19114,-3.66828 4.78868,-5.914993 0.6431,-2.417998 -0.7809,-3.641699 -2.47275,-5.820576 z" fill="#fff" stroke="#000" stroke-width="1.161"/><path d="m -658.36461,78.43329 c -1.9267,0.844554 -4.9664,2.969889 -5.07653,5.97515 -0.0844,2.30312 2.80863,2.964759 3.35329,5.861979 2.32507,-1.601226 4.00149,-3.874272 4.48536,-6.148176 0.52077,-2.447262 -0.96293,-3.597853 -2.76212,-5.688953 z" fill="#fff" stroke="#000" stroke-width="1.161"/><path d="m -656.56219,72.486121 c -1.69641,1.244048 -4.20001,3.980606 -3.65271,6.937664 0.41938,2.266189 3.38712,2.281592 4.54994,4.990542 1.92033,-2.069337 3.06122,-4.65303 3.03805,-6.977732 -0.0249,-2.501933 -1.72369,-3.301618 -3.93528,-4.950474 z" fill="#fff" stroke="#000" stroke-width="1.161"/><path d="m -658.48825,66.679692 c -1.01062,1.803436 -2.10851,5.292171 -0.31454,7.79509 1.37482,1.918148 4.10079,0.776361 6.35029,2.81164 0.85508,-2.648699 0.77116,-5.466238 -0.26617,-7.592479 -1.11642,-2.288338 -3.02247,-2.361183 -5.76958,-3.014251 z" fill="#fff" stroke="#000" stroke-width="1.161"/><path d="m -662.29612,60.286459 c -0.39642,1.988594 -0.3473,5.5986 2.14576,7.474963 1.91057,1.437977 4.14762,-0.397641 6.92767,0.909587 -0.0168,-2.746723 -0.98053,-5.39393 -2.63506,-7.122418 -1.7807,-1.860259 -3.61817,-1.402469 -6.43837,-1.262132 z" fill="#fff" stroke="#000" stroke-width="1.161"/><path d="m -666.41415,57.370633 c -0.0279,1.592779 0.76018,2.91104 2.82315,3.861062 2.15179,0.99092 4.36775,-1.207283 7.65963,0.08835 -0.0392,-2.563695 -3.00906,-6.219145 -5.25749,-7.13763 -2.00266,-0.818091 -5.17492,0.309448 -5.22529,3.188214 z" fill="#fff" stroke="#000" stroke-width="1.161"/><path d="m -712.34623,161.98425 c 0.87582,1.91243 1.75384,5.50954 -0.0585,7.7942 -1.39062,1.75304 -3.84699,2.46327 -5.56691,0.6967 -1.70529,-1.75155 -1.06481,-4.16772 0.0162,-6.16293 1.16343,-2.14732 2.97423,-1.99787 5.6092,-2.32793 l -1e-5,-4e-5 z" fill="#fff" stroke="#000" stroke-width="1.161"/><path d="m -711.28426,155.68287 c 0.67917,1.99077 1.19431,5.66092 -0.84162,7.74885 -1.5602,1.6001 -3.93409,-0.10081 -6.32638,1.43007 -0.41123,-2.79096 0.0771,-5.55004 1.35318,-7.4265 1.37336,-2.01952 3.15997,-1.68882 5.81477,-1.75238 z" fill="#fff" stroke="#000" stroke-width="1.161"/><path d="m -709.2628,148.69401 c 0.45808,2.05295 0.57003,5.75738 -1.6814,7.61091 -1.72535,1.42046 -3.89965,-0.52912 -6.44458,0.73183 -0.1045,-2.81916 0.68172,-5.50856 2.15477,-7.23471 1.58535,-1.85776 3.32525,-1.33425 5.97116,-1.108 z" fill="#fff" stroke="#000" stroke-width="1.161"/><path d="m -706.32273,142.14632 c 0.23535,2.09023 -0.0505,5.78531 -2.48767,7.38678 -1.86769,1.2273 -3.82044,-0.94415 -6.48589,0.0367 0.19834,-2.81412 1.26836,-5.40373 2.91798,-6.96201 1.77538,-1.67708 3.44913,-0.97006 6.05553,-0.46144 z" fill="#fff" stroke="#000" stroke-width="1.161"/><path d="m -703.79336,135.14188 c 0.23535,2.09023 -0.0505,5.78531 -2.48767,7.38678 -1.86769,1.2273 -3.82044,-0.94415 -6.48589,0.0367 0.19834,-2.81412 1.26836,-5.40373 2.91798,-6.96201 1.77538,-1.67708 3.44913,-0.97006 6.05553,-0.46144 z" fill="#fff" stroke="#000" stroke-width="1.161"/><path d="m -700.87484,127.7483 c 0.23535,2.09023 -0.0505,5.78531 -2.48767,7.38678 -1.86769,1.2273 -3.82044,-0.94415 -6.48589,0.0367 0.19834,-2.81412 1.26836,-5.40373 2.91798,-6.96201 1.77538,-1.67708 3.44913,-0.97006 6.05553,-0.46144 z" fill="#fff" stroke="#000" stroke-width="1.161"/><path d="m -699.14934,120.10127 c 0.45968,2.0526 0.57454,5.75693 -1.67548,7.61221 -1.72424,1.4218 -3.90005,-0.52609 -6.44401,0.73681 -0.10669,-2.81908 0.67744,-5.50909 2.14915,-7.23639 1.5839,-1.85898 3.32421,-1.33683 5.97029,-1.11263 z" fill="#fff" stroke="#000" stroke-width="1.161"/><path d="m -697.26906,112.09039 c 0.58396,2.02076 0.92443,5.7112 -1.20831,7.70019 -1.63436,1.52427 -3.92487,-0.28736 -6.38711,1.12827 -0.27834,-2.80733 0.34034,-5.54014 1.70402,-7.35394 1.46762,-1.95208 3.23653,-1.53699 5.89135,-1.47452 z" fill="#fff" stroke="#000" stroke-width="1.161"/><path d="m -696.66899,104.11723 c 0.82455,1.86252 1.60981,5.34602 -0.26593,7.48521 -1.43742,1.63938 -3.93044,0.16927 -6.20274,1.79852 -0.61654,-2.64773 -0.33373,-5.3257 0.79992,-7.21079 1.22006,-2.02882 3.0261,-1.83257 5.6687,-2.07295 z" fill="#fff" stroke="#000" stroke-width="1.161"/><path d="m -696.86688,96.574828 c 1.01363,1.617722 2.19882,4.734152 0.71283,6.930712 -1.13875,1.68335 -3.66841,0.6274 -5.59231,2.40153 -0.91932,-2.36636 -0.99814,-4.86847 -0.17618,-6.741848 0.88462,-2.016205 2.60549,-2.051928 5.05566,-2.590394 z" fill="#fff" stroke="#000" stroke-width="1.161"/><path d="m -711.69978,77.065847 c 1.85526,1.06e-4 5.03342,0.633352 6.07598,2.9943 0.79897,1.809313 -3.05371,2.715953 -2.585,5.219771 -2.4232,-0.464858 -2.76366,-1.636844 -3.88258,-3.283076 -1.20423,-1.771742 -0.42883,-2.631802 0.3916,-4.930995 z" fill="#fff" stroke="#000" stroke-width="1.161"/><path d="m -716.35225,74.733997 c 1.83645,-0.263537 5.07234,-0.08835 6.43983,2.100484 1.04797,1.677414 -2.63677,3.122338 -1.81701,5.53414 -2.46467,-0.115791 -2.96822,-1.227502 -4.30972,-2.698023 -1.44379,-1.582633 -0.79847,-2.544155 -0.3131,-4.936601 z" fill="#fff" stroke="#000" stroke-width="1.161"/><path d="m -723.12627,75.379679 c 1.5861,-0.962451 4.63159,-2.069971 6.74776,-0.592529 1.62173,1.132236 -0.0217,4.355841 1.67801,6.253138 -2.31274,0.859797 -4.16276,-0.461916 -5.9734,-1.288744 -1.9487,-0.889856 -1.96091,-1.980648 -2.45237,-4.371865 z" fill="#fff" stroke="#000" stroke-width="1.161"/><path d="m -729.61984,76.837261 c 1.66081,-1.290791 4.96275,-2.97377 7.60012,-1.729331 2.02117,0.953672 1.18663,3.752221 3.41346,5.515136 -2.50463,1.298193 -5.27225,1.735588 -7.4621,1.140593 -2.35681,-0.640341 -2.62634,-2.437203 -3.55148,-4.926398 z" fill="#fff" stroke="#000" stroke-width="1.161"/><path d="m -736.9771,79.771881 c 1.46301,-1.511298 4.49579,-3.641436 7.28183,-2.779829 2.13509,0.660288 1.70195,3.54832 4.15436,4.980934 -2.29743,1.637164 -4.97616,2.45901 -7.22788,2.177539 -2.42339,-0.302913 -2.94266,-2.044095 -4.20831,-4.378644 z" fill="#fff" stroke="#000" stroke-width="1.161"/><path d="m -743.64397,83.681108 c 1.24238,-1.697324 3.95505,-4.222527 6.8328,-3.750369 2.20538,0.361831 2.17161,3.281969 4.79703,4.365424 -2.05172,1.936218 -4.59275,3.116981 -6.8618,3.146364 -2.44204,0.03164 -3.19475,-1.622079 -4.76803,-3.761419 z" fill="#fff" stroke="#000" stroke-width="1.161"/><path d="m -750.24073,87.855886 c 1.09928,-1.793321 3.59615,-4.53209 6.50289,-4.297068 2.2276,0.1801 2.43297,3.093203 5.13826,3.958125 -1.88635,2.09766 -4.32221,3.482452 -6.58124,3.697464 -2.43125,0.231418 -3.3168,-1.355137 -5.05991,-3.358521 z" fill="#fff" stroke="#000" stroke-width="1.161"/><path d="m -755.88319,91.552673 c 1.09928,-1.793321 3.59615,-4.53209 6.50289,-4.297068 2.2276,0.1801 2.43297,3.093203 5.13826,3.958125 -1.88635,2.09766 -4.32221,3.482452 -6.58124,3.697464 -2.43125,0.231418 -3.3168,-1.355137 -5.05991,-3.358521 z" fill="#fff" stroke="#000" stroke-width="1.161"/><path d="m -789.29705,101.61284 c 1.82221,-1.05069 5.32386,-2.264658 7.76551,-0.6701 1.87121,1.22199 0.66054,3.87955 2.6244,5.93135 -2.65907,0.94223 -5.46053,0.99573 -7.54802,0.10588 -2.24663,-0.95768 -2.26706,-2.77454 -2.84189,-5.36713 z" fill="#fff" stroke="#000" stroke-width="1.161"/><path d="m -796.54399,100.18235 c 1.94296,-0.805801 5.57236,-1.555948 7.78688,0.34149 1.69716,1.45409 0.15243,3.93243 1.83397,6.22133 -2.75872,0.58985 -5.54351,0.28 -7.49815,-0.87276 -2.10365,-1.24063 -1.88855,-3.04483 -2.1227,-5.69004 z" fill="#fff" stroke="#000" stroke-width="1.161"/><path d="m -803.39427,97.786325 c 2.04086,-0.509218 5.74132,-0.713687 7.65048,1.490722 1.46314,1.689353 -0.43153,3.911643 0.89254,6.424303 -2.81565,0.17485 -5.52386,-0.54392 -7.28625,-1.9734 -1.89676,-1.53845 -1.41688,-3.29091 -1.25677,-5.941625 z" fill="#fff" stroke="#000" stroke-width="1.161"/><path d="m -808.59176,94.52811 c 2.10054,-0.110215 5.77197,0.395561 7.22516,2.92392 1.1137,1.937618 -1.1704,3.7573 -0.35039,6.47653 -2.79725,-0.36592 -5.31841,-1.58852 -6.77547,-3.32817 -1.56816,-1.872281 -0.76253,-3.500893 -0.0993,-6.07228 z" fill="#fff" stroke="#000" stroke-width="1.161"/><path d="m -813.18516,89.339466 c 2.06881,0.381404 5.5141,1.755014 6.3088,4.65539 0.60907,2.222728 -2.05594,3.528649 -1.92338,6.473644 -2.6297,-1.026886 -4.78166,-2.856155 -5.77288,-4.959068 -1.0668,-2.263235 0.11434,-3.722728 1.38746,-6.169966 z" fill="#fff" stroke="#000" stroke-width="1.161"/><path d="m -817.01513,84.140584 c 1.9667,0.74666 5.10937,2.716548 5.37039,5.712478 0.20008,2.295965 -2.65609,3.102161 -3.05446,6.023091 -2.40259,-1.482355 -4.19113,-3.66828 -4.78867,-5.914993 -0.6431,-2.417998 0.7809,-3.641699 2.47274,-5.820576 z" fill="#fff" stroke="#000" stroke-width="1.161"/><path d="m -821.19463,78.43329 c 1.9267,0.844554 4.9664,2.969889 5.07653,5.97515 0.0844,2.30312 -2.80864,2.964759 -3.3533,5.861979 -2.32506,-1.601226 -4.00148,-3.874272 -4.48535,-6.148176 -0.52077,-2.447262 0.96292,-3.597853 2.76212,-5.688953 z" fill="#fff" stroke="#000" stroke-width="1.161"/><path d="m -822.99705,72.486121 c 1.6964,1.244048 4.2,3.980606 3.65271,6.937664 -0.41938,2.266189 -3.38712,2.281592 -4.54994,4.990542 -1.92033,-2.069337 -3.06122,-4.65303 -3.03805,-6.977732 0.0249,-2.501933 1.72369,-3.301618 3.93528,-4.950474 z" fill="#fff" stroke="#000" stroke-width="1.161"/><path d="m -821.07099,66.679692 c 1.01062,1.803436 2.1085,5.292171 0.31454,7.79509 -1.37482,1.918148 -4.10079,0.776361 -6.35029,2.81164 -0.85508,-2.648699 -0.77116,-5.466238 0.26617,-7.592479 1.11642,-2.288338 3.02247,-2.361183 5.76958,-3.014251 z" fill="#fff" stroke="#000" stroke-width="1.161"/><path d="m -817.26312,60.286459 c 0.39642,1.988594 0.3473,5.5986 -2.14576,7.474963 -1.91057,1.437977 -4.14762,-0.397641 -6.92767,0.909587 0.0168,-2.746723 0.98053,-5.39393 2.63506,-7.122418 1.7807,-1.860259 3.61817,-1.402469 6.43837,-1.262132 z" fill="#fff" stroke="#000" stroke-width="1.161"/><path d="m -813.14509,57.370633 c 0.0279,1.592779 -0.76018,2.91104 -2.82315,3.861062 -2.15179,0.99092 -4.36775,-1.207283 -7.65963,0.08835 0.0392,-2.563695 3.00906,-6.219145 5.25749,-7.13763 2.00266,-0.818091 5.17492,0.309448 5.22529,3.188214 z" fill="#fff" stroke="#000" stroke-width="1.161"/></g><g transform="matrix(0.22933669,0,0,0.22933669,345.84695,100.69847)" fill="#fff" stroke="#c09300"><path d="m 457.60208,879.34399 293.822,272.76201 -20.918,-495.38002 c -3.073,-75.078 -68.316,-57.853 -115.709,-30.77 -48.01,30.77 -102.783,30.77 -160.648,10.454 -57.852,20.315 -112.629,20.315 -160.64,-10.455 -47.388,-27.08 -112.624,-44.308 -115.704,30.77 l -20.931,495.38102 z" stroke-width="5.45" stroke-linejoin="round"/><path d="m 393.47,246.49 -4.734,112.32 -8.035,7.168 4.879,-115.47 c 2.294,-1.578 6.313,-4.017 7.89,-4.017 z m 9.62,8.04 -4.017,93.955 -8.032,8.22 4.877,-108.49 c 1.579,1.577 6.314,5.45 7.172,6.31 z m 8.75,7.17 -3.155,78.362 -6.455,6.31 4.018,-89.406 c 1.574,1.578 4.73,3.874 5.592,4.734 z m 9.47,4.02 -3.156,66.787 -6.313,5.12 3.156,-74.345 c 1.579,0.717 4.735,2.438 6.313,2.438 z m 8.75,0 -2.297,55.657 -6.455,6.313 2.44,-61.252 c 1.575,0 5.593,0 6.312,-0.718 z" transform="translate(-225.92792,881.60599) matrix(4.29012,0,0,4.29012,-1250.5,-1299.595)" id="b" fill="#c09300" stroke="none"/><use xlink:href="#b" transform="matrix(-1,0,0,1,908.25417,5.1265624e-7)" width="100%" height="100%"/><path d="m 467.68408,933.65699 41.24,187.71501 -13.547,13.536 -14.154,-10.463 -23.39,-167.39201 9.849,167.39201 -13.544,17.228 -13.54,-17.228 9.85,-167.39201 -23.383,167.39201 -14.168,10.463 -13.533,-13.536 41.233,-187.71601 h 27.087 z" fill="#c09300" stroke-width="4.607"/><g id="c" fill="none" stroke="#c09300" stroke-width="1.27" stroke-linejoin="round"><path d="m 587.732,-30.405 -81.856,290.463 112.637,17.236 47.998,-218.47 -78.78,-89.23 z" fill="#fff" stroke-width="5.101" transform="translate(-225.92792,881.60599)"/><path d="m 560.661,68.697 9.848,23.994 53.219,-50.83" stroke-width="5.448" transform="translate(-225.92792,881.60599)"/><path d="M 597.513,8.55 608.649,112.997 642.5,68.688 m -13.54,17.212 18.49,63.816 m 7.25,-23.446 -37.4,56.806 m 11.665,56.698 -11.97,-56.62 -10.45,-57.587 -25.056,33.93 -10.989,-39.121 -35.07,35.971 17.836,65.429 24.615,-40.477 13.538,41.238 25.27,-39.307" stroke-width="5.448" transform="translate(-225.92792,881.60599)"/><path d="m 529.858,253.301 22.736,-31.934 14.813,49.152 20.31,-34.46 13.547,41.244" stroke-width="5.448" transform="translate(-225.92792,881.60599)"/></g><use xlink:href="#c" transform="matrix(-1,0,0,1,908.25417,5.1265624e-7)" width="100%" height="100%"/><g stroke-width="1.27" stroke-linecap="round" stroke-linejoin="round"><path d="m 680.055,389.899 c 85.558,0 167.418,-6.769 215.42,-20.31 20.316,-3.684 20.316,-14.147 20.316,-27.694 20.315,-6.768 9.845,-30.762 24,-30.762 -14.155,3.7 -17.228,-24 -34.462,-20.299 0,-24.01 -24.006,-27.083 -44.317,-20.325 -40.626,13.546 -112.637,16.625 -180.958,16.625 -68.316,-3.079 -139.716,-3.079 -180.953,-16.625 -20.31,-6.758 -44.304,-3.685 -44.304,20.325 -17.239,-3.7 -20.315,24 -34.467,20.3 14.152,0 3.687,23.993 24,30.761 0,13.547 0,24.01 20.926,27.694 47.385,13.541 129.253,20.31 214.798,20.31 z" stroke-width="10.202" transform="translate(-225.92792,881.60599)"/><path d="m 563.75,260.036 c 27.69,3.695 58.466,6.769 82.478,3.695 13.528,0 23.378,23.383 -3.701,27.083 -23.995,3.068 -61.542,0 -81.856,-3.7 -17.233,-3.078 -54.776,-9.844 -78.783,-16.625 -24.003,-10.452 -6.762,-30.751 6.766,-27.68 20.931,6.765 48.015,13.54 75.099,17.228 z m 232.653,0 c -27.7,3.695 -58.466,6.769 -81.86,3.695 -14.16,0 -24.008,23.383 3.077,27.083 24.005,3.068 61.55,0 81.847,-3.7 17.242,-3.078 54.78,-9.844 78.784,-16.625 24.01,-10.452 6.78,-30.751 -6.767,-27.68 -20.926,6.765 -48.006,13.54 -75.081,17.228 z" stroke-width="5.448" transform="translate(-225.92792,881.60599)"/><path d="m 478.805,246.523 c -20.923,-3.695 -30.77,20.299 -23.993,33.835 3.073,-6.768 17.23,-6.768 20.312,-13.536 3.681,-10.455 -3.082,-10.455 3.681,-20.3 z m 81.856,62.936 c 0,-13.526 13.533,-11.863 13.533,-25.404 0,-6.766 -3.685,-17.234 -10.454,-17.234 -6.772,0 -13.546,6.768 -13.546,13.536 -3.08,13.544 10.467,15.578 10.467,29.102 z m 97.429,-38.955 c 20.294,0 18.283,27.089 8.432,40.627 0,-9.846 -17.23,-13.538 -17.23,-20.299 0,-10.476 15.556,-10.476 8.798,-20.328 z m 223.215,-23.981 c 20.926,-3.695 30.778,20.299 24.004,33.835 -3.08,-6.768 -17.233,-6.768 -20.31,-13.536 -3.694,-10.455 3.08,-10.455 -3.694,-20.3 z m -81.855,62.936 c 0,-13.526 -13.528,-11.863 -13.528,-25.404 0,-6.766 3.687,-17.234 10.459,-17.234 6.766,0 13.54,6.768 13.54,13.536 3.08,13.544 -10.471,15.578 -10.471,29.102 z m -97.43,-38.955 c -20.302,0 -18.288,27.089 -8.44,40.627 0,-9.846 17.228,-13.538 17.228,-20.299 0.003,-10.476 -15.556,-10.476 -8.787,-20.328 z" stroke-width="5.448" transform="translate(-225.92792,881.60599)"/><path d="m 485.584,253.301 c 6.778,0 17.236,3.079 20.315,6.766 l -20.335,-6.779 z m 33.806,10.468 c 3.697,0 17.239,3.073 24.007,6.758 l -24.025,-6.779 z m 123.127,13.514 c -6.769,0 -20.31,0 -23.994,3.068 l 23.982,-3.089 z m -37.539,0 c -3.684,-3.7 -17.231,-3.7 -23.997,0 h 23.982 z M 874.57,253.301 c -6.769,0 -16.623,3.079 -20.316,6.766 z m -33.85,10.468 c -3.69,0 -17.234,3.073 -24.004,6.758 l 24.024,-6.779 z m -123.126,13.514 c 6.776,0 20.314,0 24.004,3.068 l -24.024,-3.089 z m 37.538,0 c 3.69,-3.7 17.24,-3.7 24.005,0 h -24.025 z" stroke-width="3.822" transform="translate(-225.92792,881.60599)"/><g fill="#c09300" stroke="none"><path d="m 479.878,307.4 c -2.291,-0.438 -3.494,-2.251 -2.918,-4.396 0.703,-2.613 2.796,-4.108 4.773,-3.408 1.258,0.444 3.56,2.765 3.57,3.598 0.012,0.956 -1.205,3.229 -1.728,3.234 -0.226,0.002 -0.576,0.2 -0.778,0.437 -0.429,0.507 -1.773,0.753 -2.919,0.534 z m 235.656,16.817 c -0.852,-0.316 -2.21,-2.225 -2.208,-3.105 0.008,-1.661 2.463,-4.367 3.984,-4.382 0.752,-0.005 2.81,1.064 3.579,1.864 1.394,1.45 1.09,3.83 -0.662,5.182 -0.862,0.666 -3.433,0.907 -4.692,0.44 z m 1.545,10.639 c -1.803,-0.61 -2.462,-1.492 -2.609,-3.49 -0.152,-2.083 0.05,-2.407 2.25,-3.607 l 1.569,-0.855 1.486,0.663 c 2.06,0.918 2.975,1.908 3.048,3.292 0.078,1.492 -1.029,3.018 -2.747,3.788 -1.508,0.676 -1.598,0.682 -2.997,0.21 z" transform="translate(-225.92792,881.60599)"/><path d="m 498.797,288.137 c -1.485,-0.047 -3.523,1.318 -4.692,2.01 -2.785,0.654 -6.026,2.365 -8.714,0.537 -2.648,-0.818 -6.17,-0.173 -6.57,3.084 0.68,2.796 4.598,4.394 6.972,2.547 1.762,-2.306 6.57,-3.659 7.105,0.268 -1.96,2.97 -1.737,6.902 -3.351,10.055 -0.263,1.964 -1.08,3.829 -2.145,5.497 -1.983,0.199 -4.092,-0.035 -5.765,1.206 -2.686,0.147 -5.426,1.482 -6.972,3.754 -1.73,2.48 -3.383,5 -3.888,8.044 0.46,3.11 4.022,4.002 6.704,4.156 2.86,0.788 5.724,1.82 8.58,2.682 4.656,1.042 9.018,2.725 13.675,3.753 6.797,2.05 13.934,2.992 20.78,4.827 0.718,0.238 1.39,0.445 2.145,0.536 2.842,0.59 4.324,-2.5 4.558,-4.826 1.41,-4.975 2.486,-10.035 3.888,-15.016 0.965,-1.997 2.13,-6.509 -1.742,-5.496 -2.21,1.324 -4.084,3.318 -6.838,3.485 -3.75,0.219 -1.61,4.055 -0.134,5.631 0.326,2.52 -0.471,5.53 -2.145,7.508 -2.23,1.414 -5.026,-0.24 -7.374,-0.804 -2.465,0.042 -7.393,-1.216 -5.094,-4.559 0.816,-2.475 0.888,-5.183 1.877,-7.641 1.259,-2.637 1.439,-5.514 2.01,-8.312 -1.55,-3.335 -4.198,1.097 -6.3,1.474 -1.45,1.007 -6.888,1.434 -4.023,4.022 2.468,1.875 0.576,5.134 0.134,7.508 -0.158,3.304 -3.594,4.093 -6.301,3.352 -2.693,-0.13 -6.441,-2.135 -4.156,-5.095 0.52,-2.467 1.381,-4.891 1.877,-7.374 1.018,-2.993 1.876,-5.846 2.95,-8.848 0.465,-2.66 1.42,-5.182 2.68,-7.508 0.075,-2.94 2.05,-5.47 2.011,-8.446 -0.2,-1.454 -0.851,-1.983 -1.742,-2.011 z M 483.38,319.24 c 0.35,-0.06 0.6,-0.008 0.938,0.134 1.071,0.456 1.103,1.327 0,2.28 -0.482,0.415 -1.03,0.816 -1.207,0.804 -2.006,-0.173 -2.598,-0.471 -2.68,-1.207 -0.075,-0.649 0.13,-0.835 1.474,-1.475 0.667,-0.318 1.124,-0.475 1.475,-0.536 z m -4.446,21.537 c -2.128,-2 -1.785,-3.46 1.361,-5.806 1.347,-1.003 2.163,-0.89 3.703,0.515 2.37,2.162 2.465,3.53 0.373,5.383 -1.034,0.916 -1.486,1.104 -2.69,1.116 -1.259,0.013 -1.616,-0.144 -2.747,-1.208 z m 13.085,3.947 a 3.688,3.688 0 0 1 -2.67,-4.666 c 0.55,-1.865 0.87,-2.048 3.604,-2.076 3.067,-0.03 3.662,0.483 3.691,3.183 0.017,1.52 -0.1,1.872 -0.857,2.576 -0.888,0.826 -2.596,1.271 -3.768,0.982 z m 382.293,0.343 c -0.974,-0.81 -1.17,-1.177 -1.181,-2.209 -0.013,-1.761 1.002,-3.053 3.2,-4.049 2.926,-1.325 4.118,-1.143 5.22,0.797 1.465,2.58 1.395,3.633 -0.36,5.371 -0.969,0.96 -1.15,1.016 -3.368,1.038 -2.177,0.013 -2.426,-0.045 -3.511,-0.948 z M 509.394,350 c -1.561,-0.416 -2.37,-1.588 -2.39,-3.46 -0.018,-1.433 0.086,-1.661 1.087,-2.445 0.65,-0.508 1.674,-0.943 2.482,-1.053 1.145,-0.157 1.564,-0.057 2.485,0.59 2.362,1.66 2.864,3.303 1.496,4.897 -1.457,1.697 -2.837,2.091 -5.16,1.471 z m 94.04,4.205 c -0.347,-0.432 -1.112,-0.687 -1.191,-1.232 0.137,-2.38 0.251,-4.79 1.01,-7.07 0.412,-2.244 0.05,-4.588 0.833,-6.773 0.802,-3.977 0.801,-8.077 1.725,-12.028 0.043,-2.035 0.236,-4.071 0.826,-6.03 0.676,-3.096 0.058,-6.333 0.97,-9.392 -0.098,-1.15 1.225,-4.218 2.387,-2.4 1.687,2.473 3.91,4.483 6.096,6.5 1.878,1.084 0.154,2.68 -1.144,3.217 -1.781,0.702 -2.214,2.664 -2.088,4.385 -0.25,1.779 -0.963,3.462 -1.036,5.277 -0.377,2.67 -0.303,5.383 -0.65,8.05 -0.781,2.613 -0.482,5.405 -0.743,8.098 0.034,1.71 -0.778,3.263 -0.666,4.979 -0.208,1.74 -0.286,3.836 -1.747,5.03 -1.41,0.712 -3.45,0.589 -4.583,-0.611 z M 730.85,312.161 c -2.069,1.565 -3.919,3.412 -5.765,5.23 -2.542,1.925 2.088,3.045 2.681,4.692 0.675,2.515 0.635,5.193 0.805,7.776 0.769,2.365 1.108,4.884 0.938,7.374 -0.222,2.67 -3.704,2.107 -5.228,3.62 -2.11,0.888 -2.952,2.962 -4.559,4.423 -1.056,2.071 -1.339,4.618 -1.474,6.972 0.151,1.921 -1.298,4.072 0,5.765 0.167,0.239 0.365,0.566 0.536,0.804 0.434,0.623 1.47,0.126 2.145,0.268 2.16,-0.12 4.412,0.203 6.435,-0.67 5.191,-0.898 10.43,-0.97 15.686,-1.207 3.214,0.103 6.307,-1.016 9.519,-0.938 2.517,0.557 3.65,-2.172 3.62,-4.156 -1.426,-2.804 -0.194,-6.129 -1.341,-8.983 -1.008,-2.885 -0.611,-6.126 -1.073,-9.116 -0.063,-2.353 -3.049,-3.225 -4.558,-1.475 -1.465,1.48 -3.83,1.776 -4.96,3.62 -1.273,2.584 2.691,2.587 3.351,4.558 0.755,1.992 0.508,4.207 0.67,6.301 0.49,2.542 -2.27,2.687 -4.021,2.95 -2.303,0.863 -5.535,1.44 -6.838,-1.34 -0.819,-2.058 -0.707,-4.26 -0.938,-6.436 -0.057,-3.826 -0.977,-7.587 -1.207,-11.395 -0.22,-4.706 -1.033,-9.381 -1.34,-14.077 -0.044,-1.954 -0.304,-5.14 -3.084,-4.558 z m -2.681,35.394 1.34,0.134 0.134,1.609 0.134,1.608 -1.743,0.537 c -0.923,0.273 -1.73,0.404 -1.742,0.402 a 10.938,10.938 0 0 1 -0.805,-0.537 c -0.942,-0.68 -0.701,-1.651 0.536,-2.949 0.698,-0.73 1.025,-0.872 2.145,-0.804 z M 599.615,307.743 c -1.63,0.579 -3.7,2.973 -5.362,2.95 -3.776,0.266 -3.249,3.943 -0.537,5.228 0.358,1.115 0.022,2.522 0.134,3.754 0.527,3.387 -1.61,6.113 -1.206,9.519 -0.19,3.733 -1.317,7.369 -1.475,11.127 -1.06,3.876 -1.072,7.86 -1.743,11.798 -0.447,3.532 -3.001,2.286 -5.229,1.341 -0.017,-1.531 -0.116,-3.027 -0.134,-4.558 0.929,-3.506 -1.892,-4.529 -4.692,-4.96 -2.944,0.278 -4.388,-2.245 -3.754,-4.827 1.265,-1.506 4.445,-1.087 6.435,-1.34 4.21,0.872 4.04,-4.77 1.877,-6.704 -1.479,-2.727 -5.14,-3.9 -6.167,-6.703 0.41,-3.717 -2.058,-7.432 -5.094,-9.25 -4.67,-0.328 -8.196,3.702 -9.921,7.641 -1.942,0.561 -3.878,1.144 -5.765,1.877 -3.042,0.761 -7.378,6.036 -3.218,8.044 2.335,0.643 9.44,2.264 6.301,5.496 -1.768,3.034 -5.152,3.086 -8.178,2.28 -3.104,0.002 -6.56,-1.51 -6.435,-5.095 -0.633,-3.217 -0.529,-6.684 -2.01,-9.653 -0.638,-3.6 -4.723,-2.758 -4.961,0.536 -3.146,2.292 -2.727,5.997 -0.536,8.715 1.367,3.127 0.013,6.768 -1.34,9.652 -0.82,3.754 -4.96,3.882 -7.911,5.095 -1.448,0.562 -6.986,-0.334 -4.96,2.815 3.23,1.14 7.09,2.166 10.457,1.34 3.53,-0.437 6.596,-2.851 8.312,-5.898 2.371,-2.403 6.444,-1.145 9.519,-1.207 3.315,-0.008 6.704,2.328 9.92,0.805 0.933,-2.421 5.243,-6.417 6.57,-2.28 -0.226,3.702 3.043,5.688 6.435,5.23 3.706,-0.212 2.336,2.62 2.28,4.826 0.244,4.009 2.83,6.112 6.166,7.776 1.137,0.306 2.338,0.203 3.486,0 3.209,-1.009 6.665,-2.44 7.642,-6.033 1.302,-2.92 1.333,-6.224 2.279,-9.25 0.76,-4.848 1.741,-9.696 1.877,-14.613 1.184,-4.455 0.844,-9.164 1.742,-13.675 0.568,-3.354 0.99,-6.707 1.341,-10.055 -0.393,-1.79 -1.166,-2.09 -2.145,-1.743 z m -29.092,17.83 c 0.65,0.08 1.01,0.876 1.073,2.28 0.068,1.561 0.885,2.834 1.877,3.083 0.782,0.196 0.715,1.025 -0.134,1.609 -0.494,0.34 -1.377,0.545 -2.95,0.536 -2.48,-0.013 -4.017,-0.655 -5.362,-2.011 l -0.805,-0.804 1.207,-0.805 a 27.579,27.579 0 0 0 2.413,-2.145 c 1.222,-1.247 2.032,-1.822 2.681,-1.743 z m 283.282,-33.79 c -2.433,0.112 -4.879,0.506 -7.105,1.073 -4.463,-0.278 -6.703,4.406 -2.413,6.703 2.58,6.583 6.608,-1.359 10.725,-0.804 6.167,1.2 6.688,7.86 7.642,12.87 0.347,4.963 1.777,9.789 3.217,14.48 4.128,4.588 -3.092,7.465 -6.167,3.887 -2.622,-2.85 -8.239,-6.347 -11.395,-2.413 -3.877,1.642 -4.036,6.823 -7.24,8.312 -5.187,1.58 -5.84,-4.8 -8.58,-7.507 -2.52,-3.537 -7.338,-3.846 -11.262,-5.095 -1.84,-3.727 -0.881,-10.063 -4.692,-12.602 -3.2,1.305 -9.066,7.302 -4.156,10.055 4.795,4.121 -2.093,6.01 -4.29,8.848 -3.139,3.495 -3.64,8.306 -4.157,12.737 -5.402,2.984 -6.454,-3.38 -7.105,-7.374 -0.42,-4.768 -4.444,-3.369 -7.24,-1.609 -4.086,1.656 -6.126,5.536 -8.982,8.58 -0.343,2.779 0.16,5.82 0.134,8.715 0.928,3.48 5.158,1.846 7.776,1.608 4.199,-1.756 5.918,2.692 2.547,5.23 -2.282,2.9 -9.523,1.385 -8.848,6.032 2.333,0.273 4.764,0.185 7.105,0 4.678,-1.278 9.701,-4.579 10.189,-9.787 0.616,-4.54 7.154,-3.713 10.725,-4.692 4.465,-1.287 9.845,-1.618 10.86,4.022 3.043,3.196 9.646,6.795 13.004,2.413 3.408,-2.082 5.046,-5.739 4.826,-9.653 -0.695,-3.366 5.443,-3.488 6.971,-1.609 2.237,3.681 9.228,2.595 12.603,0.537 3.587,-2.648 4.365,-7.315 9.519,-7.374 7.646,-2.29 15.59,-3.61 23.059,-6.435 6.05,-1.319 -0.9,-5.139 -2.413,-7.374 -4.607,-2.278 -8.615,7.044 -13.81,2.413 -4.013,-3.072 -3.74,-8.909 -5.228,-13.407 -1.017,-5.823 -0.76,-12.538 -4.96,-17.16 -2.885,-3.067 -6.804,-3.806 -10.86,-3.62 z m -29.226,40.623 c 0.54,-0.013 1.148,0.254 2.145,0.804 1.88,1.038 3.22,2.758 3.217,4.156 -10e-4,0.912 -0.233,0.974 -1.608,1.609 -0.846,0.39 -1.808,0.809 -2.146,0.804 -0.776,-0.008 -2.678,-1.53 -2.68,-2.145 -0.004,-0.255 -0.25,-1.229 -0.537,-2.01 -0.505,-1.376 -0.427,-1.358 0.268,-2.28 0.444,-0.59 0.801,-0.924 1.34,-0.938 z m 28.02,1.474 c 1.597,-0.104 2.546,0.394 3.217,1.61 0.78,1.41 0.25,2.492 -1.743,3.35 -0.873,0.378 -1.746,0.684 -1.877,0.671 -0.131,-0.013 -0.851,-0.44 -1.609,-0.938 -1.158,-0.763 -1.327,-1.132 -1.34,-2.011 -0.013,-1.353 1.498,-2.56 3.351,-2.682 z m -38.344,0.402 c 0.468,-0.072 0.894,0.172 1.475,0.67 0.772,0.664 1.016,1.197 1.207,2.548 0.134,0.939 0.113,2.153 0,2.681 -0.209,0.97 -0.229,0.926 -2.413,0.939 -2.747,0.026 -3.002,-0.274 -2.95,-2.816 0.034,-1.616 0.05,-2.051 0.939,-2.949 0.688,-0.696 1.275,-1 1.742,-1.073 z m -23.595,6.168 c 0.856,0.2 1.664,0.847 1.877,1.876 0.281,1.363 0.034,1.983 -1.073,2.548 -0.953,0.485 -3.149,0.647 -3.754,0.268 -0.196,-0.123 -0.6,-0.442 -0.804,-0.805 -0.292,-0.52 -0.238,-0.77 0.134,-1.072 0.26,-0.211 0.538,-0.514 0.536,-0.67 -0.002,-0.157 0.289,-0.7 0.67,-1.207 0.627,-0.832 1.558,-1.14 2.413,-0.938 z m 39.683,5.094 c 0.764,-0.004 1.41,0.261 1.877,0.67 0.795,0.697 0.768,1.718 -0.134,2.414 -0.58,0.447 -3.74,0.406 -4.826,0 -0.484,-0.181 -0.668,-0.424 -0.67,-0.939 -0.009,-0.604 0.16,-0.977 1.206,-1.475 0.877,-0.418 1.784,-0.665 2.548,-0.67 z m -73.666,20.673 c -0.411,-0.268 -1.02,-0.502 -0.407,-0.95 0.741,-1.298 2.222,-1.747 3.537,-2.23 2.35,-1.018 4.379,-2.747 5.893,-4.798 0.214,-1.429 1.818,-2.204 1.811,-3.697 0.013,-2.038 0.134,-4.126 -0.363,-6.118 -0.55,-1.826 -1.937,-3.226 -3.546,-4.178 -1.1,-0.865 -2.891,-1.103 -3.298,-2.635 -0.225,-1.47 1.088,-2.59 1.547,-3.9 0.958,-1.81 1.764,-3.706 2.793,-5.47 1.111,-1.235 2.826,-0.068 3.401,1.125 0.812,1.191 1.531,2.47 1.934,3.85 1.297,1.424 2.447,3.093 2.913,4.985 0.637,1.332 1.644,2.584 1.585,4.144 0,1.787 1.008,3.378 0.945,5.175 0.057,2.405 0.056,4.912 -0.823,7.182 -0.6,1.26 -1.804,2.015 -2.602,3.143 -1.368,1.268 -2.876,2.484 -4.632,3.158 -1.24,0.395 -1.96,1.826 -3.515,1.479 -2.207,0.039 -4.447,0.339 -6.637,-0.017 0.138,0.232 -0.671,-0.393 -0.536,-0.246 z m -29.387,1.931 c -1.042,-1.071 -1.267,-1.525 -1.279,-2.576 -0.012,-1.062 0.192,-1.483 1.211,-2.513 1.88,-1.899 2.8,-1.945 6.045,-0.302 3.102,1.57 4.151,1.712 4.429,0.6 0.268,-1.073 2.054,-2.055 3.75,-2.062 1.073,-0.009 1.68,0.205 2.54,0.874 1.078,0.84 1.13,0.97 1.158,2.914 0.017,1.987 -0.009,2.062 -1.246,3.158 -1.19,1.047 -1.381,1.111 -2.855,0.964 -1.876,-0.189 -3.001,-1.047 -3.307,-2.525 -0.221,-1.072 -0.598,-1.328 -0.88,-0.6 -0.09,0.235 -0.552,0.524 -1.025,0.643 -0.873,0.22 -2.355,1.152 -3.407,2.145 -0.398,0.375 -1.095,0.552 -2.225,0.563 -1.526,0.013 -1.738,-0.078 -2.91,-1.283 z m -85.03,-38.182 c -2.852,0.03 -5.923,2.429 -6.302,5.228 0.652,3.228 3.333,6.39 1.609,9.787 1.19,4.346 -3.267,5.995 -6.302,3.486 -1.832,-4.167 -2.76,-8.734 -5.496,-12.468 -3.45,-0.977 -4.953,4.534 -7.374,6.435 1.2,3.24 4.701,6.145 5.094,10.189 0.838,3.925 -1.55,8.282 -4.96,10.323 -2.942,2.809 -6.973,1.805 -10.591,2.413 -4.394,2.568 3.225,3.507 5.229,3.62 4.494,0.457 9.16,-0.136 12.467,-3.486 3.3,-1.575 3.045,-7.281 6.972,-7.91 6.814,-0.304 13.568,1.045 20.378,1.207 3.644,0.872 9.282,-0.434 11.798,2.279 0.008,4.751 4.036,7.681 7.91,9.519 2.14,0.595 4.394,-2.057 6.569,-2.548 4.141,-1.32 2.882,-6.443 5.363,-8.446 7.08,-0.383 14.227,-0.302 21.316,-0.402 1.35,0.034 1.748,-1.887 2.682,-2.681 -0.156,-2.74 -0.255,-5.46 -0.67,-8.178 -1.366,-3.46 0.22,-7.914 -2.28,-10.86 -3.56,-0.97 -6.59,2.29 -10.189,2.548 -3.973,1.77 -7.32,5.439 -7.507,9.92 -2.353,3.847 -6.125,-0.684 -4.827,-3.887 -0.148,-1.396 0.302,-3.022 -0.134,-4.29 -2.175,-2.61 -5.983,-1.757 -8.982,-2.145 -4.37,0.174 -8.635,-0.77 -13.005,-0.67 -3.83,-0.29 -7.816,0.333 -11.53,-0.67 -4.425,-0.127 -3.816,-4.455 -4.558,-7.509 -0.785,-0.582 -1.73,-0.814 -2.68,-0.804 z m 8.58,15.82 c 1.471,0.03 2.859,0.222 4.29,0.401 1.848,0.305 3.817,-0.635 5.63,0 4.19,0.713 8.381,0.545 12.603,0.939 1.114,-0.017 1.912,0.792 2.68,1.475 0.01,2.932 0.004,5.915 0,8.848 -0.127,1.105 0.328,2.566 -0.67,3.352 -0.32,0.22 -0.679,0.46 -1.072,0.536 -1.161,-0.3 -2.39,-1.064 -2.95,-2.145 -0.177,-1.534 0.077,-3.02 0.134,-4.558 -0.03,-0.398 0.174,-1.017 0,-1.341 -0.912,-0.647 -1.947,-1.068 -3.083,-1.073 -3.644,-0.125 -7.216,-0.393 -10.86,-0.536 -3.032,-0.191 -6.148,0.26 -9.116,-0.536 -1.151,-0.419 -2.65,-0.275 -3.351,-1.475 -1.005,-1.168 0.444,-2.56 1.474,-3.083 1.366,-0.621 2.819,-0.833 4.29,-0.805 z m 48.396,1.072 c 0.681,-0.009 0.898,0.214 1.207,1.475 0.197,0.805 0.427,1.79 0.536,2.145 0.156,0.506 -0.093,0.67 -0.804,0.938 -2.12,0.8 -4.229,0.72 -4.96,-0.268 -0.333,-0.448 0.055,-1.864 0.67,-2.413 1.242,-1.11 2.616,-1.875 3.351,-1.877 z" transform="translate(-225.92792,881.60599)"/></g></g><g transform="matrix(4.29012,0,0,4.29012,-1476.4279,-417.98899)" stroke-width="1.27"><path d="m 462.31,253.09 c 0.667,0.04 -0.902,-3.568 -0.902,-3.568 1.765,1.804 8.43,2.235 8.43,2.235 -4,-1.766 -7.998,-15.096 -7.528,-25.721 0.432,-10.664 -1.528,-14.86 -3.097,-16.428 -2,-2 -8.43,-3.764 -12.664,-4 -2.392,-0.117 -2,1.804 -2,1.804 -4.43,-1.137 -8.86,-1.568 -10.86,-0.235 -1.883,1.255 -2.275,7.528 -0.902,6.43 3.332,-2.666 6.234,-0.235 8.233,2.666 1.764,2.549 1.647,9.763 -0.902,18.192 -2.666,8.861 -9.959,17.722 -9.959,17.722 3.96,0 9.528,-3.528 9.528,-3.528 l -1.333,5.528 c 4.195,-2 7.528,-5.097 7.528,-5.097 l 3.999,4.195 c 1.333,-1.764 4,-4.195 4,-4.195 0,0 3.332,3.529 8.429,4 z" stroke-width="1.218"/><path d="m 446.12,227.57 c 0,0 -2.235,16.428 -6.43,21.094 m 9.96,-21.524 c 0,0 -0.863,16.623 -3.764,21.956 m 6.894,-21.286 c 0,0 0,18.192 1.098,21.289 m 2.862,-20.389 c 0,0 0.902,15.291 4.666,20.819" fill="none"/><path d="m 442.08,219.61 c -0.196,-1.45 -0.549,-2.588 -1.059,-3.333 -2,-2.901 -4.9,-5.332 -8.233,-2.666 0,0 1.137,-3.529 3.568,-3.646 1.882,-0.118 6.155,1.411 9.92,7.841 0,0 -2.784,-0.627 -3.45,-0.039 -1.256,1.098 -0.746,1.843 -0.746,1.843 z" fill="#c09300" stroke-width=".354"/><path d="m 432.44,209.26 c 0.274,-0.902 0.706,-1.725 1.255,-2.078 2,-1.333 6.43,-0.902 10.86,0.235 0,0 -0.392,-1.921 2,-1.803 4.234,0.235 10.664,2 12.663,3.999 0.47,0.51 1.02,1.255 1.49,2.391 h -0.078 c -0.98,-1.372 -3.764,-1.293 -4.431,-1.215 -1.059,0.118 -1.725,0.078 -3.137,0.431 -0.666,0.157 -1.686,0.353 -2.235,0.784 -0.43,0.353 -0.784,1.647 -1.45,1.647 -1.059,0 -0.98,-0.274 -1.255,-0.588 -0.353,-0.431 -0.549,-1.059 -0.902,-1.02 -1.097,0.197 -2.862,-0.666 -5.096,-2.43 -2.235,-1.765 -3.098,-2.196 -5.999,-2 -2.862,0.235 -3.764,1.843 -3.764,1.843 z" fill="#c09300" stroke-width=".354"/><circle cx="448.824" cy="210.672" r="1.176" stroke="none"/></g><path d="m 449.98,327.23 c 32.642,-25.106 29.843,-61.883 29.843,-61.883 -0.8613,0.17223 -1.6795,0.25835 -2.5408,0.25835 -6.8471,0 -23.178,-3.9171 -26.988,-8.8926 -4.0812,4.5034 -20.77,8.8926 -27.574,8.8926 -0.86129,0 -1.7225,-0.0861 -2.5407,-0.25835 0,0 -2.8422,36.776 29.8,61.883 z" stroke-width="1.15" transform="matrix(4.2901418,0,0,4.2901418,-1476.4363,-417.99538)"/><path d="m 477.22,268.04 c -0.28097,0.0176 -0.5633,0.0264 -0.8477,0.0264 -6.2055,0 -20.619,-3.1838 -26.175,-7.9572 -5.8195,4.4095 -20.471,7.9572 -26.576,7.9572 -0.28635,0 -0.56925,-0.035 -0.84965,-0.0865 -0.0142,1.3908 0.0581,2.8324 0.14448,4.1436 0.323,4.9008 1.1826,9.819 2.4876,14.552 4.1081,14.895 12.516,27.553 24.572,37.155 12.066,-9.61 20.484,-22.28 24.601,-37.186 1.3071,-4.7319 2.1694,-9.6497 2.4955,-14.55 0.0763,-1.3719 0.15265,-3.05185 0.14777,-4.0545 z" fill="none" stroke-width=".916" transform="matrix(4.2901418,0,0,4.2901418,-1476.4363,-417.99538)"/><g transform="matrix(16.042066,0,0,16.042066,2325.4644,-2179.2848)" clip-path="url(#d)" stroke="none" fill-rule="evenodd"><path fill="#ce1126" d="M-123.976 179.26H-119.093V196.458H-123.976z"/><path d="M-119.093 179.26H-114.21000000000001V196.458H-119.093z"/><path fill="#000" d="M-114.21 179.26H-109.327V196.458H-114.21z"/></g></g></svg>