<?xml version="1.0" encoding="UTF-8"?>
<svg version="1.1" viewBox="0 0 700 466.67" xml:space="preserve" xmlns="http://www.w3.org/2000/svg" xmlns:cc="http://creativecommons.org/ns#" xmlns:dc="http://purl.org/dc/elements/1.1/" xmlns:rdf="http://www.w3.org/1999/02/22-rdf-syntax-ns#" xmlns:xlink="http://www.w3.org/1999/xlink"><metadata><rdf:RDF><cc:Work rdf:about=""><dc:format>image/svg+xml</dc:format><dc:type rdf:resource="http://purl.org/dc/dcmitype/StillImage"/></cc:Work></rdf:RDF></metadata><defs><clipPath id="b"><path id="a" d="m188.89 73.823v223.87c0 24.063 22.709 34.326 48.263 35.829 14.06 0.82702 31.514 1.8418 44.668 3.0643 13.016 1.2225 18.209 10.725 18.209 10.725s5.1928-9.5026 18.209-10.725c13.154-1.2225 30.608-2.2373 44.668-3.0643 25.554-1.5032 48.204-11.766 48.204-35.829v-223.87z"/></clipPath></defs><rect y=".0030002" width="700" height="466.67" fill="#16246b"/><use transform="matrix(1.0013 0 0 1.0183 49.623 18.912)" width="600" height="400" fill="#ffffff" xlink:href="#a"/><line transform="matrix(1.0013 0 0 1.0183 49.623 18.912)" x1="137.2" x2="455.6" y2="400" clip-path="url(#b)" fill="none" stroke="#d20019" stroke-width="45.853"/><use transform="matrix(1.0013 0 0 1.0183 49.623 18.912)" width="600" height="400" fill="none" stroke="#000000" stroke-width="1.4855" xlink:href="#a"/></svg>
