<svg xmlns="http://www.w3.org/2000/svg" width="900" height="600" viewBox="0 0 18 12">
  <defs>
    <linearGradient gradientTransform="translate(-8.158 -924.6411)" y2="1226.687" x2="176.24561" y1="1057.6338" x1="176.24561" gradientUnits="userSpaceOnUse" id="n">
      <stop style="stop-color:#ce2028" offset=".3"/>
      <stop style="stop-color:#fdf4f0" offset=".3"/>
      <stop style="stop-color:#fef9f6" offset=".3356"/>
      <stop style="stop-color:#fffefd" offset=".51899564"/>
      <stop style="stop-color:#fff" offset=".6404"/>
      <stop style="stop-color:#fdfdfd" offset=".6404"/>
      <stop style="stop-color:#f6f6f6" offset=".6404"/>
      <stop style="stop-color:#ebebeb" offset=".6404"/>
      <stop style="stop-color:#dadada" offset=".6404"/>
      <stop style="stop-color:#c4c4c4" offset=".6404"/>
      <stop style="stop-color:#a8a8a8" offset=".6404"/>
      <stop style="stop-color:#888" offset=".6404"/>
      <stop style="stop-color:#626262" offset=".6404"/>
      <stop style="stop-color:#373737" offset=".6404"/>
      <stop style="stop-color:#090909" offset=".6404"/>
      <stop style="stop-color:#000" offset=".64039999"/>
    </linearGradient>
    <linearGradient id="m">
      <stop offset="0" style="stop-color:#000;stop-opacity:1"/>
      <stop style="stop-color:#000;stop-opacity:.49803922" offset=".35715428"/>
      <stop offset="1" style="stop-color:#000;stop-opacity:0"/>
    </linearGradient>
    <linearGradient id="e">
      <stop offset="0" style="stop-color:#000;stop-opacity:1"/>
      <stop style="stop-color:#000;stop-opacity:.49803922" offset=".54063183"/>
      <stop offset="1" style="stop-color:#000;stop-opacity:0"/>
    </linearGradient>
    <linearGradient id="c">
      <stop style="stop-color:#000;stop-opacity:1" offset="0"/>
      <stop offset=".5" style="stop-color:#000;stop-opacity:.49803922"/>
      <stop style="stop-color:#000;stop-opacity:0" offset="1"/>
    </linearGradient>
    <linearGradient id="a">
      <stop offset="0" style="stop-color:#00001e;stop-opacity:1"/>
      <stop style="stop-color:#d1e6c8;stop-opacity:1" offset=".6669811"/>
      <stop style="stop-color:#8b6000;stop-opacity:1" offset="1"/>
    </linearGradient>
    <linearGradient id="b">
      <stop style="stop-color:#af7782;stop-opacity:1" offset="0"/>
      <stop offset=".85110754" style="stop-color:#7f6271;stop-opacity:1"/>
      <stop style="stop-color:#726271;stop-opacity:1" offset="1"/>
    </linearGradient>
    <linearGradient id="d" gradientUnits="userSpaceOnUse" x1="176.24561" y1="1057.6338" x2="176.24561" y2="1226.687" gradientTransform="translate(-8.158 -924.6411)">
      <stop offset=".3" style="stop-color:#ce2028"/>
      <stop offset=".3" style="stop-color:#fdf4f0"/>
      <stop offset=".3356" style="stop-color:#fef9f6"/>
      <stop offset=".4163" style="stop-color:#fffefd"/>
      <stop offset=".6404" style="stop-color:#fff"/>
      <stop offset=".6404" style="stop-color:#fdfdfd"/>
      <stop offset=".6404" style="stop-color:#f6f6f6"/>
      <stop offset=".6404" style="stop-color:#ebebeb"/>
      <stop offset=".6404" style="stop-color:#dadada"/>
      <stop offset=".6404" style="stop-color:#c4c4c4"/>
      <stop offset=".6404" style="stop-color:#a8a8a8"/>
      <stop offset=".6404" style="stop-color:#888"/>
      <stop offset=".6404" style="stop-color:#626262"/>
      <stop offset=".6404" style="stop-color:#373737"/>
      <stop offset=".6404" style="stop-color:#090909"/>
      <stop offset=".6404" style="stop-color:#000"/>
    </linearGradient>
    <linearGradient gradientTransform="translate(-8.158 -924.6411)" y2="1226.687" x2="176.24561" y1="1057.6338" x1="176.24561" gradientUnits="userSpaceOnUse" id="f">
      <stop style="stop-color:#ce2028" offset=".3"/>
      <stop style="stop-color:#fdf4f0" offset=".3"/>
      <stop style="stop-color:#fef9f6" offset=".3356"/>
      <stop style="stop-color:#fffefd" offset=".42081466"/>
      <stop style="stop-color:#fff" offset=".6404"/>
      <stop style="stop-color:#fdfdfd" offset=".6404"/>
      <stop style="stop-color:#f6f6f6" offset=".6404"/>
      <stop style="stop-color:#ebebeb" offset=".6404"/>
      <stop style="stop-color:#dadada" offset=".6404"/>
      <stop style="stop-color:#c4c4c4" offset=".6404"/>
      <stop style="stop-color:#a8a8a8" offset=".6404"/>
      <stop style="stop-color:#888" offset=".6404"/>
      <stop style="stop-color:#626262" offset=".6404"/>
      <stop style="stop-color:#373737" offset=".6404"/>
      <stop style="stop-color:#090909" offset=".6404"/>
      <stop style="stop-color:#000" offset=".6404"/>
    </linearGradient>
    <linearGradient id="g">
      <stop style="stop-color:#000;stop-opacity:1" offset="0"/>
      <stop offset=".5" style="stop-color:#000;stop-opacity:.49803922"/>
      <stop style="stop-color:#000;stop-opacity:0" offset="1"/>
    </linearGradient>
    <linearGradient id="h" gradientUnits="userSpaceOnUse" x1="176.24561" y1="1057.6338" x2="176.24561" y2="1226.687" gradientTransform="translate(-8.158 -924.6411)">
      <stop offset=".3" style="stop-color:#ce2028"/>
      <stop offset=".3" style="stop-color:#fdf4f0"/>
      <stop offset=".3356" style="stop-color:#fef9f6"/>
      <stop offset=".4163" style="stop-color:#fffefd"/>
      <stop offset=".6404" style="stop-color:#fff"/>
      <stop offset=".6404" style="stop-color:#fdfdfd"/>
      <stop offset=".6404" style="stop-color:#f6f6f6"/>
      <stop offset=".6404" style="stop-color:#ebebeb"/>
      <stop offset=".6404" style="stop-color:#dadada"/>
      <stop offset=".6404" style="stop-color:#c4c4c4"/>
      <stop offset=".6404" style="stop-color:#a8a8a8"/>
      <stop offset=".6404" style="stop-color:#888"/>
      <stop offset=".6404" style="stop-color:#626262"/>
      <stop offset=".6404" style="stop-color:#373737"/>
      <stop offset=".6404" style="stop-color:#090909"/>
      <stop offset=".6404" style="stop-color:#000"/>
    </linearGradient>
    <linearGradient gradientTransform="translate(-8.158 -924.6411)" y2="1226.687" x2="176.24561" y1="1057.6338" x1="176.24561" gradientUnits="userSpaceOnUse" id="i">
      <stop style="stop-color:#ce2028" offset=".3"/>
      <stop style="stop-color:#fdf4f0" offset=".30000001"/>
      <stop style="stop-color:#fef9f6" offset=".3356"/>
      <stop style="stop-color:#fffefd" offset=".49140292"/>
      <stop style="stop-color:#fff" offset=".6404"/>
      <stop style="stop-color:#fdfdfd" offset=".6404"/>
      <stop style="stop-color:#f6f6f6" offset=".6404"/>
      <stop style="stop-color:#ebebeb" offset=".6404"/>
      <stop style="stop-color:#dadada" offset=".6404"/>
      <stop style="stop-color:#c4c4c4" offset=".6404"/>
      <stop style="stop-color:#a8a8a8" offset=".6404"/>
      <stop style="stop-color:#888" offset=".6404"/>
      <stop style="stop-color:#626262" offset=".6404"/>
      <stop style="stop-color:#373737" offset=".6404"/>
      <stop style="stop-color:#090909" offset=".6404"/>
      <stop style="stop-color:#000" offset=".72535264"/>
    </linearGradient>
    <linearGradient id="j">
      <stop offset="0" style="stop-color:#000;stop-opacity:1"/>
      <stop style="stop-color:#000;stop-opacity:.49803922" offset=".54063183"/>
      <stop offset="1" style="stop-color:#000;stop-opacity:0"/>
    </linearGradient>
    <linearGradient id="k">
      <stop style="stop-color:#000;stop-opacity:1" offset="0"/>
      <stop offset=".5" style="stop-color:#000;stop-opacity:.49803922"/>
      <stop style="stop-color:#000;stop-opacity:0" offset="1"/>
    </linearGradient>
    <linearGradient id="l" gradientUnits="userSpaceOnUse" x1="176.24561" y1="1057.6338" x2="176.24561" y2="1226.687" gradientTransform="translate(-8.158 -924.6411)">
      <stop offset=".3" style="stop-color:#ce2028"/>
      <stop offset=".3" style="stop-color:#fdf4f0"/>
      <stop offset=".3356" style="stop-color:#fef9f6"/>
      <stop offset=".4163" style="stop-color:#fffefd"/>
      <stop offset=".6404" style="stop-color:#fff"/>
      <stop offset=".6404" style="stop-color:#fdfdfd"/>
      <stop offset=".6404" style="stop-color:#f6f6f6"/>
      <stop offset=".6404" style="stop-color:#ebebeb"/>
      <stop offset=".6404" style="stop-color:#dadada"/>
      <stop offset=".6404" style="stop-color:#c4c4c4"/>
      <stop offset=".6404" style="stop-color:#a8a8a8"/>
      <stop offset=".6404" style="stop-color:#888"/>
      <stop offset=".6404" style="stop-color:#626262"/>
      <stop offset=".6404" style="stop-color:#373737"/>
      <stop offset=".6404" style="stop-color:#090909"/>
      <stop offset=".6404" style="stop-color:#000"/>
    </linearGradient>
    <linearGradient id="o" gradientUnits="userSpaceOnUse" x1="176.24561" y1="1057.6338" x2="176.24561" y2="1226.687" gradientTransform="translate(-8.158 -924.6411)">
      <stop offset=".3" style="stop-color:#ce2028"/>
      <stop offset=".3" style="stop-color:#fdf4f0"/>
      <stop offset=".3356" style="stop-color:#fef9f6"/>
      <stop offset=".4163" style="stop-color:#fffefd"/>
      <stop offset=".6404" style="stop-color:#fff"/>
      <stop offset=".6404" style="stop-color:#fdfdfd"/>
      <stop offset=".6404" style="stop-color:#f6f6f6"/>
      <stop offset=".6404" style="stop-color:#ebebeb"/>
      <stop offset=".6404" style="stop-color:#dadada"/>
      <stop offset=".6404" style="stop-color:#c4c4c4"/>
      <stop offset=".6404" style="stop-color:#a8a8a8"/>
      <stop offset=".6404" style="stop-color:#888"/>
      <stop offset=".6404" style="stop-color:#626262"/>
      <stop offset=".6404" style="stop-color:#373737"/>
      <stop offset=".6404" style="stop-color:#090909"/>
      <stop offset=".6404" style="stop-color:#000"/>
    </linearGradient>
    <linearGradient id="p">
      <stop offset="0" style="stop-color:#000;stop-opacity:1"/>
      <stop style="stop-color:#000;stop-opacity:.49803922" offset=".54063183"/>
      <stop offset="1" style="stop-color:#000;stop-opacity:0"/>
    </linearGradient>
    <linearGradient id="q">
      <stop style="stop-color:#000;stop-opacity:1" offset="0"/>
      <stop offset=".5" style="stop-color:#000;stop-opacity:.49803922"/>
      <stop style="stop-color:#000;stop-opacity:0" offset="1"/>
    </linearGradient>
    <linearGradient gradientTransform="translate(-8.158 -924.6411)" y2="1226.687" x2="176.24561" y1="1057.6338" x1="176.24561" gradientUnits="userSpaceOnUse" id="r">
      <stop style="stop-color:#ce2028" offset=".3"/>
      <stop style="stop-color:#fdf4f0" offset=".3"/>
      <stop style="stop-color:#fef9f6" offset=".3356"/>
      <stop style="stop-color:#fffefd" offset=".51899564"/>
      <stop style="stop-color:#fff" offset=".6404"/>
      <stop style="stop-color:#fdfdfd" offset=".6404"/>
      <stop style="stop-color:#f6f6f6" offset=".6404"/>
      <stop style="stop-color:#ebebeb" offset=".6404"/>
      <stop style="stop-color:#dadada" offset=".6404"/>
      <stop style="stop-color:#c4c4c4" offset=".6404"/>
      <stop style="stop-color:#a8a8a8" offset=".6404"/>
      <stop style="stop-color:#888" offset=".6404"/>
      <stop style="stop-color:#626262" offset=".6404"/>
      <stop style="stop-color:#373737" offset=".6404"/>
      <stop style="stop-color:#090909" offset=".6404"/>
      <stop style="stop-color:#000" offset=".64039999"/>
    </linearGradient>
    <linearGradient id="s">
      <stop offset="0" style="stop-color:#000;stop-opacity:1"/>
      <stop style="stop-color:#000;stop-opacity:.49803922" offset=".35715428"/>
      <stop offset="1" style="stop-color:#000;stop-opacity:0"/>
    </linearGradient>
    <linearGradient id="t" gradientUnits="userSpaceOnUse" x1="176.24561" y1="1057.6338" x2="176.24561" y2="1226.687" gradientTransform="translate(-8.158 -924.6411)">
      <stop offset=".3" style="stop-color:#ce2028"/>
      <stop offset=".3" style="stop-color:#fdf4f0"/>
      <stop offset=".3356" style="stop-color:#fef9f6"/>
      <stop offset=".4163" style="stop-color:#fffefd"/>
      <stop offset=".6404" style="stop-color:#fff"/>
      <stop offset=".6404" style="stop-color:#fdfdfd"/>
      <stop offset=".6404" style="stop-color:#f6f6f6"/>
      <stop offset=".6404" style="stop-color:#ebebeb"/>
      <stop offset=".6404" style="stop-color:#dadada"/>
      <stop offset=".6404" style="stop-color:#c4c4c4"/>
      <stop offset=".6404" style="stop-color:#a8a8a8"/>
      <stop offset=".6404" style="stop-color:#888"/>
      <stop offset=".6404" style="stop-color:#626262"/>
      <stop offset=".6404" style="stop-color:#373737"/>
      <stop offset=".6404" style="stop-color:#090909"/>
      <stop offset=".6404" style="stop-color:#000"/>
    </linearGradient>
    <linearGradient id="u">
      <stop offset="0" style="stop-color:#000;stop-opacity:1"/>
      <stop style="stop-color:#000;stop-opacity:.49803922" offset=".54063183"/>
      <stop offset="1" style="stop-color:#000;stop-opacity:0"/>
    </linearGradient>
    <linearGradient id="v">
      <stop style="stop-color:#000;stop-opacity:1" offset="0"/>
      <stop offset=".5" style="stop-color:#000;stop-opacity:.49803922"/>
      <stop style="stop-color:#000;stop-opacity:0" offset="1"/>
    </linearGradient>
    <linearGradient id="w" gradientUnits="userSpaceOnUse" x1="176.24561" y1="1057.6338" x2="176.24561" y2="1226.687" gradientTransform="translate(-8.158 -924.6411)">
      <stop offset=".3" style="stop-color:#ce2028"/>
      <stop offset=".3" style="stop-color:#fdf4f0"/>
      <stop offset=".3356" style="stop-color:#fef9f6"/>
      <stop offset=".4163" style="stop-color:#fffefd"/>
      <stop offset=".6404" style="stop-color:#fff"/>
      <stop offset=".6404" style="stop-color:#fdfdfd"/>
      <stop offset=".6404" style="stop-color:#f6f6f6"/>
      <stop offset=".6404" style="stop-color:#ebebeb"/>
      <stop offset=".6404" style="stop-color:#dadada"/>
      <stop offset=".6404" style="stop-color:#c4c4c4"/>
      <stop offset=".6404" style="stop-color:#a8a8a8"/>
      <stop offset=".6404" style="stop-color:#888"/>
      <stop offset=".6404" style="stop-color:#626262"/>
      <stop offset=".6404" style="stop-color:#373737"/>
      <stop offset=".6404" style="stop-color:#090909"/>
      <stop offset=".6404" style="stop-color:#000"/>
    </linearGradient>
    <linearGradient id="x">
      <stop offset="0" style="stop-color:#000;stop-opacity:1"/>
      <stop style="stop-color:#000;stop-opacity:.49803922" offset=".54063183"/>
      <stop offset="1" style="stop-color:#000;stop-opacity:0"/>
    </linearGradient>
    <linearGradient id="y">
      <stop style="stop-color:#000;stop-opacity:1" offset="0"/>
      <stop offset=".5" style="stop-color:#000;stop-opacity:.49803922"/>
      <stop style="stop-color:#000;stop-opacity:0" offset="1"/>
    </linearGradient>
    <linearGradient gradientTransform="translate(-8.158 -924.6411)" y2="1226.687" x2="176.24561" y1="1057.6338" x1="176.24561" gradientUnits="userSpaceOnUse" id="z">
      <stop style="stop-color:#ce2028" offset=".3"/>
      <stop style="stop-color:#fdf4f0" offset=".3"/>
      <stop style="stop-color:#fef9f6" offset=".3356"/>
      <stop style="stop-color:#fffefd" offset=".51899564"/>
      <stop style="stop-color:#fff" offset=".6404"/>
      <stop style="stop-color:#fdfdfd" offset=".6404"/>
      <stop style="stop-color:#f6f6f6" offset=".6404"/>
      <stop style="stop-color:#ebebeb" offset=".6404"/>
      <stop style="stop-color:#dadada" offset=".6404"/>
      <stop style="stop-color:#c4c4c4" offset=".6404"/>
      <stop style="stop-color:#a8a8a8" offset=".6404"/>
      <stop style="stop-color:#888" offset=".6404"/>
      <stop style="stop-color:#626262" offset=".6404"/>
      <stop style="stop-color:#373737" offset=".6404"/>
      <stop style="stop-color:#090909" offset=".6404"/>
      <stop style="stop-color:#000" offset=".64039999"/>
    </linearGradient>
    <linearGradient id="A">
      <stop offset="0" style="stop-color:#000;stop-opacity:1"/>
      <stop style="stop-color:#000;stop-opacity:.49803922" offset=".35715428"/>
      <stop offset="1" style="stop-color:#000;stop-opacity:0"/>
    </linearGradient>
  </defs>
  <path style="fill:#253768;fill-opacity:1" d="M0 0v12h18V0H0z"/>
  <path style="fill:#fffefe;fill-opacity:1;stroke:#000;stroke-width:1;stroke-linecap:square;stroke-miterlimit:4;stroke-opacity:1;stroke-dasharray:none" d="M-3060.3525-3085.6015c57.7104 37.7904 54.9251 97.3393-6.221 133.0063-61.1462 35.667-157.4984 33.9456-215.2088-3.8448-57.7104-37.7904-54.9251-97.3393 6.221-133.0063 59.2697-34.5725 152.0807-34.1651 210.5498.9242" transform="matrix(-.0063 -.01388 .02769 -.01069 72.586667 -70.911999)"/>
  <path style="fill:#253768;fill-opacity:1;stroke:#2d98bd;stroke-width:2.98834991;stroke-linecap:square;stroke-miterlimit:4;stroke-opacity:1;stroke-dasharray:none" d="M-2918.4246-2951.4617c0 105.0221-85.1373 190.1594-190.1594 190.1594-105.0221 0-190.1593-85.1373-190.1593-190.1594 0-105.0221 85.1372-190.1593 190.1593-190.1593s190.1594 85.1372 190.1594 190.1593z" transform="matrix(.02016 0 0 .02 71.778003 65.051085)"/>
  <path style="fill:#97584e;fill-opacity:1;stroke:#000;stroke-width:1px;stroke-linecap:butt;stroke-linejoin:miter;stroke-opacity:1" d="m-4482.1963-4825.093 12.6917-5.2058c31.2838-.254 39.852 7.5253 22.5417 16.194-6.7093-1.0334-19.1727.4127-22.7493-.3916-5.37-2.6357-5.5474-7.5486-12.4841-10.5966z" transform="matrix(.02 0 0 .02 98.334807 98.340997)"/>
  <path style="fill:#97584e;fill-opacity:1;stroke:#000;stroke-width:1px;stroke-linecap:butt;stroke-linejoin:miter;stroke-opacity:1" d="m-4504.5899-4823.9562 12.4405-5.7806c12.1852 3.1082 20.5562 10.6244 23.2584 15.1466-6.7495-.7256-19.1338 1.2888-22.7434.6488-5.4849-2.3875-5.8867-7.2871-12.9555-10.0148z" transform="matrix(.02 0 0 .02 98.334807 98.340997)"/>
  <path style="fill:#97584e;fill-opacity:1;stroke:#000;stroke-width:1px;stroke-linecap:butt;stroke-linejoin:miter;stroke-opacity:1" d="m-4520.5227-4818.1004 10.95-7.3095c12.4423 1.8247 20.847 7.7277 24.0047 11.9445l-10.0437 2.0475c-5.2692-2.6832-14.7642-3.9382-24.911-6.6825z" transform="matrix(.02 0 0 .02 98.334807 98.340997)"/>
  <path style="fill:#bba456;fill-opacity:1;stroke:#000;stroke-width:1px;stroke-linecap:butt;stroke-linejoin:miter;stroke-opacity:1" d="m-4470.8508-4704.0248.094 12.9688-16.2813.031c-.8217-5.0354-21.4039-15.2104-23.3125 8.9375-1.3381 19.1236 21.1758 12.2835 23.0938 6.5l17-.1563v148.1876c-11.6423 39.8971-37.6704 15.1742-65.2813-16.625l20-3.0938-50.4063-25.2188 2.9063 49.5 9.8437-13.1562c20.1295 41.617 43.3164 57.4617 74.2813 69.1562 7.7677 3.3842 12.4053 11.103 18.3437 16.9688 4.7481-6.1897 11.103-14.7797 18.375-17 30.9649-11.6945 54.1207-27.5392 74.25-69.1562l9.8438 13.1874 2.9062-49.5312-50.375 25.2188 19.9688 3.0937c-27.6109 31.7993-53.6391 56.5221-65.2812 16.625v-148.1875l17 .1562c1.9178 5.7836 24.463 12.6236 23.125-6.5-1.9086-24.1479-22.5221-13.9729-23.3438-8.9374h-16.2812l.125-13c-6.8991-.2156-13.6962-.053-20.594.031z" transform="matrix(.02 0 0 .02 98.334807 98.340997)"/>
  <path style="fill:#bba456;fill-opacity:1;stroke:#000;stroke-width:.69311357;stroke-linecap:square;stroke-miterlimit:4;stroke-opacity:1;stroke-dasharray:none" d="M-3049.2507-3076.1249c7.0203 7.4382 6.6815 19.1591-.7567 26.1794-7.4382 7.0203-19.1592 6.6815-26.1794-.7567-7.0203-7.4383-6.6815-19.1592.7567-26.1795 7.21-6.8048 18.5001-6.7246 25.6127.1819" transform="matrix(.03072 0 0 .03072 103.1971282 97.88689074)"/>
  <path style="fill:#253768;fill-opacity:1;stroke:#000;stroke-width:1;stroke-linecap:square;stroke-miterlimit:4;stroke-opacity:1;stroke-dasharray:none" d="M-3049.2507-3076.1249c7.0203 7.4382 6.6815 19.1591-.7567 26.1794-7.4382 7.0203-19.1592 6.6815-26.1794-.7567-7.0203-7.4383-6.6815-19.1592.7567-26.1795 7.21-6.8048 18.5001-6.7246 25.6127.1819" transform="matrix(.02129 0 0 .02129 74.326751 69.009967)"/>
  <text xml:space="preserve" style="font-size:39.51364899px;font-style:normal;font-weight:400;line-height:125%;letter-spacing:0;word-spacing:0;fill:#000;fill-opacity:1;stroke:none;font-family:Sans" x="-3971.2922" y="-5072.019" transform="matrix(.02 0 0 .02 98.334807 98.340997)"><tspan x="-3971.2922" y="-5072.019" style="font-weight:700;font-family:Times New Roman;-inkscape-font-specification:Times New Roman">IqN</tspan></text>
  <g style="font-size:40px;font-style:normal;font-weight:400;line-height:125%;letter-spacing:0;word-spacing:0;fill:#bba456;fill-opacity:1;stroke:none;font-family:Sans">
    <path d="m-1276.1591-3174.7105-5.5231.4945-.2758-3.8898-4.2091.4868-.4169-5.0583 5.2444-.4824.4746 3.9304 4.3418-.4596zm-25.3574 19.4766-9.1527-13.8541 5.4298-3.5873 7.9131 11.9777c1.1578-.765 1.9609-1.3434 2.4094-1.7352.6882-.6077 1.2019-1.2625 1.5411-1.9644-1.1065.1192-2.1167-.035-3.0307-.4639-.9139-.4285-1.6391-1.0487-2.1754-1.8605-.7034-1.0647-.9442-2.196-.7224-3.394.2217-1.1979.865-2.1486 1.9297-2.852 1.5703-1.0375 3.75-1.7893 6.5391-2.2554 3.0635-.5137 4.9513-.2315 5.6635.8465.9231 1.3974.5759 3.5194-1.0419 6.3661-1.6178 2.8466-3.7841 5.1668-6.499 6.9604zm10.573-13.2077c.3881-.7726.6152-1.3766.6812-1.8121.066-.4355-.01-.8129-.2176-1.1323-.2638-.3993-.6809-.6399-1.2512-.7219-.5704-.082-1.0951.035-1.5742.3518-.3061.2022-.4809.4945-.5245.877-.044.3825.062.7667.317 1.1527.2022.3061.4964.5561.8827.7502.3863.1941.9485.3723 1.6866.5346z" style="font-size:49px;font-weight:700;fill:#bba456" transform="matrix(.02 .00056 -.00054 .02077 36.000363 70.602669)"/>
    <path d="m-1310.3957-3168.431-9.8871-11.2504 4.8883-4.296 8.3077 9.4532c.6989-.8477 1.1773-1.6928 1.435-2.5352.1536-.4534.3242-1.3466.5119-2.6795l5.5409-2.3212c-.2288 1.7936-.7555 3.3448-1.5801 4.6535-.8248 1.3087-2.3334 2.9265-4.5259 4.8534zm-3.4158 2.4923-5.4036 1.245-.805-3.8155-4.1031 1.0577-1.1046-4.9537 5.1292-1.195 1.0076 3.8286 4.2381-1.049z" style="font-size:49px;font-weight:700;fill:#bba456" transform="matrix(.02 .00056 -.00054 .02077 36.000363 70.602669)"/>
    <path d="m-1319.7956-3178.9638-2.485-2.246c-1.3845-1.2513-1.8711-2.7231-1.4597-4.4153.4474-1.8746 2.0134-4.297 4.6979-7.2672l4.5722-5.0588c1.0375-1.1478 1.6852-2.1856 1.9433-3.1134.1242-.4467.1703-1.2113.1382-2.2939l5.9277-2.7049c-.1693 1.5671-.5349 2.9351-1.097 4.104-.6538 1.3657-1.7347 2.8827-3.2427 4.5512l-3.1605 3.4968c-2.2353 2.4732-3.6205 4.3388-4.1554 5.5967-.4349 1.0045-.3683 1.7634.1997 2.2768l2.485 2.246zM-1328.9525-3187.3622l-8.8767-6.2188c-.8623-.6041-1.3938-1.2491-1.5948-1.9352-.2506-.8377-.024-1.7595.6812-2.7654.4027-.5748.8668-1.1748 1.3923-1.7998.5256-.6251 1.0851-1.2361 1.6786-1.8331l.772.4825c-.2158.5305-.2173 1.026 0 1.4867.2128.4607.5739.8696 1.0834 1.2265l6.7409 4.7224c1.0448-2.1308 1.5976-4.0319 1.6584-5.7032.054-1.3838-.225-2.8062-.8373-4.2674l5.694-5.1254c.8105 2.457.8684 4.9319.1736 7.4249-.6373 2.2995-2.0221 4.9712-4.1545 8.0151zM-1333.6186-3223.7931l-4.5698 3.1411-2.149-3.2539-3.4287 2.4895-2.8453-4.2028 4.3328-2.9938 2.3422 3.1918 3.5576-2.5311zm-7.5972 17.4268c-.4369.8515-.9466 1.6791-1.5293 2.4827-.5826.8036-1.1224 1.4275-1.6192 1.8717-.9508.8747-2.4179 1.3231-4.4012 1.3452-1.8408.024-3.3998-.2922-4.677-.9476-1.1069-.5679-1.7902-1.4026-2.0498-2.5039-.2596-1.1013-.062-2.2905.5936-3.5678.5971-1.1636 1.35-2.2205 2.2588-3.1705.9087-.95 2.2328-2.0544 3.9723-3.3132l-.5042-.9041c.5762-.529 1.3086-1.1527 2.1971-1.8711.8885-.7184 1.6598-1.3131 2.3139-1.7843l1.4526 2.3051c.6242 1.0195 1.1841 2.0597 1.6795 3.1206.7123 1.477 1.0899 2.7151 1.133 3.7142.043.9992-.2303 2.0735-.8201 3.223zm-4.0243.087c.1384-.2696-.067-1.0832-.6165-2.4408-.5495-1.3575-1.143-2.5854-1.7807-3.6835-1.6437.9673-2.7095 1.9264-3.1974 2.8772-.233.4542-.2452.9409-.037 1.4603.2086.5193.5754.9137 1.1005 1.1831.7096.3641 1.6111.6161 2.7047.7559 1.0936.1398 1.7022.089 1.826-.1522zM-1372.4659-3217.4987c-.3858 1.3661-.8992 2.5678-1.5402 3.605s-1.6907 2.3775-3.1493 4.0208l-1.2254-.9428c.9233-1.8608 1.5583-3.4052 1.9051-4.6332.2645-.9363.5757-2.3318.9338-4.1865.358-1.8547.6722-3.701.9427-5.5389.2704-1.838.4915-4.0587.6632-6.6621.059-.9116.1334-1.5286.2244-1.851.1344-.4758.601-1.2183 1.3999-2.2276.7988-1.0091 1.8577-2.2059 3.1769-3.5903l-.9205 8.5411c-.3691 3.2438-.7747 6.0298-1.2167 8.3579-.3407 1.7933-.7387 3.4958-1.1939 5.1076zM-1383.389-3213.3419l-12.8957-2.6198 1.2955-6.3775 10.0822 2.0481.3971-16.4967-1.3006-1.2896c.1874-.9222.517-1.8237.9889-2.7045.6008-1.1149 1.4978-2.4057 2.691-3.8723l.9642.7818c-.019.094-.1011.3376-.2462.7313-.1048.5158.1218 1.0827.6799 1.7006.4895.5552 1.3133 1.2271 2.4714 2.0158-.3439.9718-.7495 1.9067-1.2167 2.8046-.4672.898-.949 1.6871-1.4453 2.3676l-.7774-.4998-.3927 15.0328z" style="font-size:49px;font-weight:700;fill:#bba456" transform="matrix(.02 .00056 -.00054 .02077 36.000363 70.602669)"/>
    <path d="m-1395.0483-3244.7559-3.1554 4.5599-3.165-2.278-2.3204 3.5455-4.153-2.9176 2.9863-4.338 3.3235 2.1512 2.426-3.6299zm-.2104 28.9369-17.4538-1.9419.7196-6.4679 4.2803.4763c.7292.081 1.4152.1895 2.0582.3252 1.7226.3843 3.6883.8197 5.8971 1.3061-2.3039-.7859-3.8794-1.6633-4.7265-2.6323-.8471-.9689-1.1789-2.2777-.9955-3.9263.2734-2.4572 1.0866-4.6096 2.4397-6.4571 1.353-1.8476 2.735-2.6928 4.1459-2.5359 1.6011.1782 2.8462 1.717 3.7353 4.6164.8891 2.8995 1.1158 6.307.6802 10.2226zm-2.136-10.2281c-.419-1.4268-.9349-2.5595-1.5478-3.398-.6128-.8385-1.268-1.2966-1.9655-1.3742-.3171-.035-.606.037-.8667.2165-.2607.1796-.407.4121-.4387.6975-.076.6817.3618 1.4004 1.3128 2.1562.9511.7558 2.1197 1.3231 3.5059 1.702z" style="font-size:49px;font-weight:700;fill:#bba456" transform="matrix(.02 .00056 -.00054 .02077 36.000363 70.602669)"/>
    <path d="M-1411.9109-3219.4429c.024 2.7434-1.1177 5.4648-3.4235 8.1643-2.3058 2.6995-4.5912 4.0589-6.856 4.0782-1.3239.011-2.775-.399-4.3532-1.2309-1.5783-.8319-4.005-2.4781-7.28-4.9385l.9929-1.3962c1.7325 1.1337 3.1506 1.8872 4.2544 2.2606.9118.3112 1.942.4619 3.0904.4521 1.5471-.013 3.0746-.4569 4.5825-1.3312 1.7777-1.036 3.6138-2.6947 5.5085-4.9759-.6691.1014-1.2269.154-1.6735.1579-1.5791.014-2.8395-.4902-3.7814-1.511-.9418-1.0208-1.4203-2.4164-1.4355-4.1869-.02-2.3924.5102-4.7019 1.5918-6.9284 1.1756-2.4186 2.5291-3.6345 4.0603-3.6476 1.276-.011 2.368.8491 3.2761 2.58.908 1.731 1.3725 3.8246 1.3935 6.2808zm-2.9124-4.8323c-.4686-2.5641-1.3887-3.8403-2.7604-3.8286-.4945 0-.8875.203-1.1793.5963-.2917.3933-.4356.8212-.4316 1.2838 0 .5742.3239 1.046.9572 1.4154.6332.3695 1.4682.5498 2.5049.5409zM-1441.4914-3244.7063l-1.996 5.1735-3.6115-1.4708-1.4227 3.9913-4.7221-1.8604 1.8837-4.9181 3.7359 1.3104 1.5055-4.0983zm3.5768 18.6713c.1206.9495.1675 1.9203.1407 2.9125-.027.9922-.1196 1.812-.2786 2.4592-.2903 1.2589-1.2475 2.4577-2.8716 3.5965-1.5055 1.0594-2.9703 1.6795-4.3944 1.8603-1.2342.1568-2.2695-.1459-3.1059-.9079-.8364-.7621-1.345-1.8551-1.5258-3.2792-.1648-1.2976-.1406-2.595.072-3.8922.2131-1.2973.6817-2.9566 1.4059-4.978l-.9268-.4612c.1765-.762.4284-1.6904.7557-2.7851.3273-1.0947.6277-2.0211.9012-2.7794l2.5009 1.0812c1.091.4886 2.1406 1.0306 3.1488 1.6261 1.4221.8163 2.4332 1.6245 3.0332 2.4246.6001.8001.9814 1.841 1.1442 3.1226zm-3.2717 2.3449c-.038-.3006-.6674-.8558-1.8877-1.6656-1.2203-.8097-2.4037-1.4875-3.5503-2.0333-.8097 1.7268-1.1473 3.1202-1.0127 4.1804.064.5064.3292.9149.7948 1.2256.4655.3107.991.4288 1.5765.3545.7912-.1005 1.6774-.4019 2.6587-.9044.9813-.5024 1.4549-.8882 1.4207-1.1572zM-1469.5807-3218.1627c.4018 1.3616.608 2.652.6186 3.8712.011 1.2192-.1631 2.9128-.5211 5.0806l-1.5394-.1443c-.2107-2.0665-.4967-3.7117-.8579-4.9356-.2755-.9332-.756-2.2798-1.4418-4.0398-.6858-1.76-1.4041-3.4896-2.1551-5.1889-.751-1.6992-1.7477-3.6959-2.9903-5.9901-.4364-.8025-.702-1.3643-.7968-1.6856-.14-.4742-.141-1.3512 0-2.6309.1379-1.2797.3959-2.8567.774-4.7312l3.7743 7.7169c1.4169 2.9413 2.5589 5.5146 3.426 7.72.6677 1.6989 1.2386 3.3515 1.7127 4.9577zM-1476.5404-3208.8489l-12.3529 4.5353-2.243-6.109 9.6578-3.5459-8.3168-14.2524-1.7838-.4156c-.3243-.8834-.5166-1.8238-.577-2.8211-.073-1.2644.013-2.8339.2594-4.7085l1.231.1597c.033.09.091.3405.174.7517.1815.4942.6718.8579 1.4711 1.0911.708.2159 1.7618.3557 3.1615.4195.2171 1.0078.3623 2.0165.4356 3.026.073 1.0096.077 1.9342.012 2.7739l-.924-.018 7.5524 13.0038z" style="font-size:49px;font-weight:700;fill:#bba456" transform="matrix(.02 .00056 -.00054 .02077 36.000363 70.602669)"/>
    <path d="m-1487.9877-3204.7602-3.2057 1.504c-1.1408.5353-2.2528.7751-3.336.7195-1.0832-.056-2.1325-.4707-3.1478-1.2452-.3966 1.5956-1.234 2.9839-2.5122 4.165-.8473.7852-1.8558 1.4522-3.0255 2.0009l-2.2743 1.0671-2.7642-5.8916 2.2743-1.067c1.1985-.5624 2.0109-1.0184 2.437-1.3681.4262-.3497.9492-.9342 1.569-1.7536-.8329-.6487-1.4963-1.0863-1.9901-1.3127-.5999-.2647-1.1093-.2988-1.528-.1023-.1589.074-.2815.1981-.3678.3707-.086.1727-.1451.4513-.1761.8358l-1.014.3172c-1.2263-2.6136-1.6507-4.6917-1.2733-6.2343.3775-1.5425 1.5409-2.7711 3.4903-3.6858 2.0072-.9417 3.7694-1.2883 5.2866-1.04 1.5173.2484 2.5977 1.0585 3.2413 2.4303.3455.7365.5242 1.5116.536 2.3253.012.8137-.1301 1.9947-.4256 3.5428.3309.1796.7069.2674 1.128.2637.4211 0 .7904-.08 1.1081-.2293l3.2058-1.504z" style="font-size:49px;font-weight:700;fill:#bba456" transform="matrix(.02 .00056 -.00054 .02077 36.000363 70.602669)"/>
    <path d="M-1504.5359-3196.461c.5155.8252.7243 2.2134.6266 4.1645-.098 1.9511-.4697 3.8243-1.1161 5.6197-.714 1.9882-1.5715 3.2949-2.5726 3.9202-1.1905.7437-2.6802 1.204-4.469 1.3811-1.5539.1619-4.1407.1603-7.7606 0l.066-1.7905c1.7246.051 3.0476-.014 3.9691-.1942.9215-.1807 1.8152-.5414 2.681-1.0823.9334-.583 1.7021-1.4299 2.306-2.5406.6039-1.1106 1.2629-2.8857 1.977-5.3253.995-3.4049 1.1546-5.6485.4785-6.7308-.338-.5411-.9981-1.1161-1.9802-1.7251-1.1124-.6968-2.2273-1.157-3.3448-1.3805l-2.286-6.1887c1.5114.3724 2.9019 1.0177 4.1714 1.9361 1.2695.9185 2.3944 2.1623 3.3746 3.7315zM-1528.9273-3189.4748c.8712 1.1209 1.5344 2.2469 1.9894 3.3781.455 1.1312.9116 2.7712 1.3698 4.9201l-1.4858.4277c-.9507-1.8469-1.8176-3.2741-2.6008-4.2816-.5971-.7682-1.5362-1.8464-2.8172-3.2345-1.281-1.3881-2.5813-2.7361-3.9008-4.0438-1.3195-1.3077-2.9765-2.8026-4.9709-4.4848-.6993-.5877-1.1517-1.0138-1.3573-1.2783-.3035-.3904-.6246-1.2064-.9635-2.4481-.3389-1.2417-.6745-2.804-1.0069-4.6872l6.3313 5.8062c2.393 2.2208 4.3957 4.1996 6.0082 5.9361 1.2418 1.3378 2.3767 2.6678 3.4045 3.9901zM-1555.5215-3200.0717l1.387 5.3689-3.793.9053 1.1654 4.0738-4.9229 1.2346-1.3297-5.0959 3.8008-1.1081-1.1603-4.209zm23.3445 21.8488-12.1795 11.2858-4.4233-4.7735 10.5298-9.7572c-.9431-1.0178-1.6446-1.7161-2.1042-2.0948-.7115-.5802-1.4412-.9804-2.1891-1.2008.2978 1.0723.3097 2.0943.036 3.0658-.2741.9715-.7679 1.7879-1.4816 2.4492-.936.8673-2.013 1.2891-3.2311 1.2653-1.2181-.024-2.2608-.5037-3.1281-1.4397-1.2792-1.3806-2.3758-3.4089-3.2898-6.0848-1.0054-2.939-1.0343-4.8476-.087-5.7258 1.2285-1.1383 3.3787-1.141 6.4507-.01 3.0721 1.1329 5.7139 2.8927 7.9255 5.2794zm-14.7526-8.2821c-.8254-.2571-1.4584-.3828-1.8988-.377-.4404.01-.801.1388-1.0818.399-.351.3252-.5205.7759-.5086 1.3519.012.5762.213 1.0748.6033 1.496.2494.2691.5663.394.9508.3748.3845-.019.7464-.186 1.0856-.5004.2691-.2494.468-.5804.5966-.9931.1286-.4127.2129-.9964.2529-1.7512z" style="font-size:49px;font-weight:700;fill:#bba456" transform="matrix(.02 .00056 -.00054 .02077 36.000363 70.602669)"/>
    <path d="m-1543.6057-3167.5412-9.9097 11.2305-4.8797-4.3058 8.3266-9.4365c-.9293-.586-1.8281-.9537-2.6963-1.1029-.4692-.095-1.3768-.1512-2.7227-.1689l-3.0033-5.2028c1.8081.0001 3.4134.3264 4.8159.979 1.4025.6525 3.1981 1.9445 5.3868 3.8757zm2.9041 3.0732 1.9185 5.2028-3.6831 1.281 1.5681 3.9364-4.7743 1.7222-1.834-4.9368 3.6704-1.4837-1.5765-4.0715z" style="font-size:49px;font-weight:700;fill:#bba456" transform="matrix(.02 .00056 -.00054 .02077 36.000363 70.602669)"/>
    <path d="m-1584.0549-3171.1945 2.2075 4.6753-3.4905 1.7387 2.0556 3.7052-4.5168 2.3148-2.0899-4.4221 3.4521-1.9381-1.8626-3.7767zm30.8688 14.2429-1.7583 2.5946c-.3222.4754-.7165.844-1.183 1.1059-.9019.5064-2.0402.6791-3.4148.5182-1.8829-.2354-4.1106-1.0708-6.6834-2.506.5007 1.6495.8121 2.8818.9342 3.6967.1813 1.1826.1063 2.0182-.2247 2.5067-.1701.2509-.4244.541-.7632.8702l-2.1128 2.0942c-.9092.8867-1.4906 1.4176-1.7441 1.5927-.2535.175-.4991.182-.7368.021-.3565-.2416-1.1712-1.4633-2.4441-3.665-1.2728-2.2018-1.9951-3.6594-2.1666-4.373-.1328-.5717-.1968-1.4725-.1919-2.7023 0-.7344.038-1.7472.1226-3.0384l.097-1.4658c-.2117-.086-.4199-.1834-.6248-.2934-.2049-.1099-.3932-.2231-.5648-.3394-.5018-.34-1.054-.8828-1.6566-1.6284-.6027-.7456-1.2638-1.7958-1.9835-3.1506l13.6476 6.4741c2.1468 1.0117 3.729 1.506 4.7467 1.4827.6637-.013 1.1835-.2962 1.5593-.8508l1.7583-2.5946zm-16.4118.121-2.6451-1.2146c-.088.5568-.1536.9943-.1958 1.3125-.1092.9857-.1464 1.8083-.1116 2.4677.049.4959.1146.9255.1959 1.2889.1115.461.2399.7407.3851.8391.1849.1253.4868-.01.9056-.398.4188-.3905.7803-.8102 1.0846-1.2592.1968-.2905.3201-.6501.3698-1.0789.05-.4287.054-1.0812.012-1.9575z" style="font-size:49px;font-weight:700;fill:#bba456" transform="matrix(.02 .00056 -.00054 .02077 36.000363 70.602669)"/>
  </g>
  <path style="fill:#97584e;fill-opacity:1;stroke:#000;stroke-width:1px;stroke-linecap:butt;stroke-linejoin:miter;stroke-opacity:1" d="m-4540.2957-4807.8049 8.4895-10.0629c12.4596-1.7024 24.7981 1.2363 29.0026 4.4104l-10.8355 5.6338c-5.3857-1.2364-16.1468-.1628-26.6566.019z" transform="matrix(.02 0 0 .02 98.334807 98.340997)"/>
  <path style="fill:#97584e;fill-opacity:1;stroke:#000;stroke-width:1px;stroke-linecap:butt;stroke-linejoin:miter;stroke-opacity:1" d="m-4560.1581-4796.8119 7.3594-10.9165c12.1725-3.0014 19.6553-1.7339 26.1334-.8117l-6.9925 8.8465c-5.4873-.6507-16.0709 1.5725-26.5003 2.8817z" transform="matrix(.02 0 0 .02 98.334807 98.340997)"/>
  <path style="fill:#97584e;fill-opacity:1;stroke:#000;stroke-width:1px;stroke-linecap:butt;stroke-linejoin:miter;stroke-opacity:1" d="m-4578.2119-4784.8674 5.4517-11.9838c11.535-5.0085 22.7558-4.1963 27.662-2.2776l-7.4555 7.0345c-5.5193.2662-15.5891 4.21-25.6582 7.2269z" transform="matrix(.02 0 0 .02 98.334807 98.340997)"/>
  <path style="fill:#97584e;fill-opacity:1;stroke:#000;stroke-width:1px;stroke-linecap:butt;stroke-linejoin:miter;stroke-opacity:1" d="m-4596.4739-4768.6448 3.9495-12.5592c10.8156-6.3406 20.9373-6.9858 27.4101-7.9449l-6.7743 10.2019c-5.4456.9373-14.9593 6.0798-24.5853 10.3022z" transform="matrix(.02 0 0 .02 98.334807 98.340997)"/>
  <path style="fill:#97584e;fill-opacity:1;stroke:#000;stroke-width:1px;stroke-linecap:butt;stroke-linejoin:miter;stroke-opacity:1" d="m-4614.0292-4755.0207 3.3796-12.7243c10.5328-6.9322 23.4608-9.453 29.6036-8.4616-8.3634 10.0436-21.7051 14.9861-32.9832 21.1859z" transform="matrix(.02 0 0 .02 98.334807 98.340997)"/>
  <path style="fill:#97584e;fill-opacity:1;stroke:#000;stroke-width:1px;stroke-linecap:butt;stroke-linejoin:miter;stroke-opacity:1" d="m-4625.797-4742.1066 2.2391-12.9737c9.8734-7.7265 21.1457-9.5944 26.7305-9.3019l-5.978 8.7864c-5.272 1.6552-14.0147 8.0206-22.9916 13.4892z" transform="matrix(.02 0 0 .02 98.334807 98.340997)"/>
  <path style="fill:#97584e;fill-opacity:1;stroke:#000;stroke-width:1px;stroke-linecap:butt;stroke-linejoin:miter;stroke-opacity:1" d="m-4635.3643-4727.1866 1.0848-13.1207c9.1526-8.5681 19.0635-10.2382 25.1658-12.6001l-4.5398 10.2542c-5.1053 2.1142-13.2518 9.2267-21.7108 15.4666z" transform="matrix(.02 0 0 .02 98.334807 98.340997)"/>
  <g style="font-size:39.51364899px;font-style:normal;font-weight:400;line-height:125%;letter-spacing:0;word-spacing:0;fill:#bba456;fill-opacity:1;stroke:none;font-family:Sans">
    <path d="m-2205.7749-2604.8087 14.6701-15.6826 3.1665 2.9621-14.6701 15.6826zM-2195.1266-2596.1646l11.7414-17.9805 7.6411 4.9897c1.9215 1.2548 3.2122 2.328 3.8721 3.2196.6599.8917.9819 1.9213.9659 3.0888-.016 1.1676-.371 2.2829-1.0651 3.3458-.8811 1.3492-2.0051 2.2043-3.3722 2.5654-1.3672.361-2.9146.1408-4.6421-.6608.4859.9705.8055 1.8965.9588 2.778.1533.8816.2068 2.3045.1605 4.2687l-.095 4.9414-4.3418-2.8353-.07-5.6265c-.019-2.0069-.082-3.3044-.1873-3.8925-.1059-.5881-.3069-1.0751-.6031-1.461-.2962-.3859-.8613-.8511-1.6953-1.3957l-.7359-.4806-4.9016 7.5062zm10.4062-8.0055 2.686 1.754c1.7416 1.1373 2.8772 1.7739 3.4066 1.9097.5295.1358 1.0344.1039 1.5146-.096.4802-.1995.8965-.5692 1.249-1.1088.3951-.6051.5526-1.1991.4726-1.7821-.08-.5829-.3824-1.1156-.907-1.5982-.2677-.2331-1.1374-.8302-2.6092-1.7913l-2.8332-1.8502zM-2156.2411-2575.4483l-4.2727-1.9982.3634-5.2132-7.7757-3.6364-3.6721 3.6678-4.1664-1.9486 16.6738-15.9092 4.1533 1.9424zm-3.6325-11.0781.6954-8.4718-6.0031 5.9896zM-2132.8002-2571.715c.868.9796 1.8613 1.8276 2.9798 2.544l-2.2385 2.629c-.5943-.3362-1.158-.7404-1.6913-1.2129-.118-.097-.9144-.9302-2.389-2.4993-1.508.2863-3.095.2396-4.761-.1411-3.2179-.7353-5.5219-2.2584-6.9122-4.5695-1.3903-2.3111-1.6939-5.1802-.9108-8.6076.7809-3.4177 2.3023-5.8675 4.5642-7.3491 2.2618-1.4817 4.9588-1.8646 8.0914-1.1459 3.1036.7092 5.3477 2.2212 6.7321 4.5359 1.3844 2.3148 1.6861 5.181.9052 8.5988-.4132 1.8088-1.0288 3.3411-1.8466 4.5968-.6201.9602-1.461 1.8348-2.5229 2.624zm-2.8539-3.1614c.6885-.5139 1.2716-1.1921 1.7496-2.0345.4779-.8425.8507-1.8492 1.1183-3.0202.5524-2.4181.4321-4.3464-.3612-5.7848-.7933-1.4385-2.0516-2.3545-3.7747-2.7482-1.7231-.3938-3.2573-.1132-4.6024.8417-1.3451.9548-2.2928 2.6366-2.8431 5.0451-.5591 2.4468-.4417 4.3994.3519 5.858.7938 1.4586 2.0094 2.3749 3.6468 2.749.6093.1392 1.2081.1709 1.7964.095-.7285-.7574-1.4995-1.3944-2.313-1.9109l1.7366-2.1426c1.2812.7936 2.4461 1.8111 3.4948 3.0525zM-2124.0848-2566.2651l3.035-21.2591 4.2923.6128-3.035 21.2591zM-2067.1728-2566.6767l-3.6985-21.1538 4.1557-.7266 11.1276 12.6129-2.4698-14.1265 3.968-.6939 3.6985 21.1538-4.2855.7493-10.9398-12.3038 2.4119 13.7948zM-2024.0237-2581.6965l-4.3644 1.7892-3.5851-3.8023-7.9425 3.2559.2101 5.1856-4.2559 1.7447-.406-23.0425 4.2424-1.7391zm-10.6094-4.8331-5.7604-6.2509.3388 8.4733zM-2015.5049-2586.6792l-17.3289-14.8252 4.081-2.3357 12.6116 11.0946-3.3308-16.4063 3.992-2.2847 3.9926 22.4579zM-1996.4599-2599.914l-5.5065-7.1668-13.8149-5.0692 4.0307-3.0969 9.1838 3.6581-1.2502-9.7537 3.9609-3.0433 1.3341 14.6954 5.4887 7.1437z" style="font-size:30px;font-weight:700;fill:#bba456;fill-opacity:1;font-family:Sans;-inkscape-font-specification:Sans" transform="matrix(.02 .0004 -.0004 .02 49.992145 61.746321)"/>
  </g>
  <g style="fill:#1e8951;fill-opacity:1">
    <path style="fill:#1e8951;fill-opacity:1;stroke:#000;stroke-width:1px;stroke-linecap:butt;stroke-linejoin:miter;stroke-opacity:1" d="M-3217.9831-3003.9936c-3.2754-10.0934 1.3899-14.4707 11.7612-21.9424-.967 7.8935-3.4806 17.5942-11.7612 21.9424z" transform="matrix(.02 0 0 .02 70.368167 65.0516892)"/>
    <path style="fill:#1e8951;fill-opacity:1;stroke:#000;stroke-width:1px;stroke-linecap:butt;stroke-linejoin:miter;stroke-opacity:1" d="M-1586.329-3096.7569c4.4926-10.6967 7.0365-11.0637 15.8365-15.333-3.0718 7.2597-6.4096 12.607-15.8365 15.333zM-1587.3252-3097.117c3.5147-8.4686 1.3611-12.6707-3.0581-21.3963-1.9504 7.6377-2.7944 13.5194 3.0581 21.3963zM-1589.7046-3079.7772c2.8911-11.2359 5.3547-11.9685 13.4411-17.4709-1.9846 7.6289-4.5102 13.4044-13.4411 17.4709zM-1590.7425-3079.9888c2.2472-8.8893-.494-12.734-6.1339-20.7251-.8202 7.84-.8008 13.782 6.1339 20.7251zM-1591.0165-3066.6785c3.3134-11.1187 3.9597-10.4412 12.2481-15.6341-2.2713 7.5484-3.17 11.9079-12.2481 15.6341zM-1591.3957-3066.7028c.4244-9.1591-3.0302-12.3781-10.154-19.0801.7639 7.8457 1.971 13.6638 10.154 19.0801zM-1590.248-3052.2135c.3666-11.3847 4.8964-11.1781 13.1067-16.9379-1.5485 7.7291-4.4209 12.3712-13.1067 16.9379zM-1591.3105-3052.264c-.4422-9.1583-3.782-11.8815-11.5067-17.8809 1.5012 7.7385 2.8489 13.2614 11.5067 17.8809zM-1589.1102-3035.6204c-1.1531-11.3321 3.3639-11.7307 10.7338-18.5328-.5052 7.8664-2.7337 12.8498-10.7338 18.5328zM-1590.1699-3035.529c-1.6581-9.0177-5.331-11.2718-13.786-16.1888 2.5186 7.4696 4.59 12.7637 13.786 16.1888zM-1586.2086-3017.613c-2.1373-11.1884 2.3276-11.9796 9.076-19.3987.183 7.8804-1.6021 13.0393-9.076 19.3987zM-1587.2562-3017.4296c-2.4385-8.8386-6.2941-10.7636-15.146-14.9242 3.1608 7.2214 5.6863 12.3146 15.146 14.9242zM-1578.3645-3000.5841c-3.5375-10.8275.7912-12.1779 6.5453-20.3922 1.1799 7.7937.063 13.1372-6.5453 20.3922zM-1579.3804-3000.2694c-3.5386-8.4585-7.607-9.8795-16.9147-12.8852 4.0502 6.7628 7.2006 11.495 16.9147 12.8852z" transform="matrix(.02 0 0 .02 37.607423 67.271571)"/>
    <path style="fill:#1e8951;fill-opacity:1;stroke:#000;stroke-width:1.07725525px;stroke-linecap:butt;stroke-linejoin:miter;stroke-opacity:1" d="M-1569.0429-2984.2273c-4.6239-11.3662-.075-13.1462 5.4841-22.4102 1.86 8.2853 1.0657 14.1121-5.4841 22.4102zM-1570.0792-2983.6481c-4.9282-8.56-9.4687-9.5271-19.823-11.4778 5.2449 6.6784 9.253 11.3087 19.823 11.4778zM-1555.7988-2966.5343c-5.9715-10.7197-1.6727-13.0396 2.7189-22.9107 2.8535 7.9977 2.7734 13.8779-2.7189 22.9107zM-1556.757-2965.8334c-5.9324-7.8973-10.5567-8.3053-21.0714-8.9827 6.0179 5.9912 10.5592 10.0999 21.0714 8.9827z" transform="matrix(.02 0 0 .02 37.607423 67.271571)"/>
    <path style="fill:#1e8951;fill-opacity:1;stroke:#000;stroke-width:1.27380991px;stroke-linecap:butt;stroke-linejoin:miter;stroke-opacity:1" d="M-1539.6093-2951.466c-8.925-11.4401-4.3236-14.9318-.9861-27.2632 4.7873 8.8261 5.7622 15.7112.9861 27.2632zM-1540.6015-2950.473c-8.3665-8.1495-13.8437-7.7859-26.2523-6.6669 8.12 5.9068 14.1726 9.8824 26.2523 6.6669z" transform="matrix(.02 0 0 .02 37.607423 67.271571)"/>
  </g>
  <path transform="matrix(.02 0 0 .02 70.368167 65.0516892)" d="m-3219.6137-3005.2387 3.1957.8563c-11.3852 32.1392-18.9996 65.4528-2.1966 106.3719 10.5127 18.5301 12.9876 32.9171 53.8638 67.0985l-3.0281 3.028c-18.8635-16.6268-55.4632-50.8551-62.1425-99.9113-2.7326-20.0694-.4983-41.6423 10.3077-77.4434z" style="fill:#3d423d;fill-opacity:1;stroke:#000;stroke-width:1px;stroke-linecap:butt;stroke-linejoin:miter;stroke-opacity:1"/>
  <g style="fill:#1e8951;fill-opacity:1">
    <path style="fill:#1e8951;fill-opacity:1;stroke:#000;stroke-width:1px;stroke-linecap:butt;stroke-linejoin:miter;stroke-opacity:1" d="M-3217.9831-3003.9936c-3.2754-10.0934 1.3899-14.4707 11.7612-21.9424-.967 7.8935-3.4806 17.5942-11.7612 21.9424z" transform="matrix(-.02 0 0 .02 -52.156593 65.0067252)"/>
    <path style="fill:#1e8951;fill-opacity:1;stroke:#000;stroke-width:1px;stroke-linecap:butt;stroke-linejoin:miter;stroke-opacity:1" d="M-1586.329-3096.7569c4.4926-10.6967 7.0365-11.0637 15.8365-15.333-3.0718 7.2597-6.4096 12.607-15.8365 15.333zM-1587.3252-3097.117c3.5147-8.4686 1.3611-12.6707-3.0581-21.3963-1.9504 7.6377-2.7944 13.5194 3.0581 21.3963zM-1589.7046-3079.7772c2.8911-11.2359 5.3547-11.9685 13.4411-17.4709-1.9846 7.6289-4.5102 13.4044-13.4411 17.4709zM-1590.7425-3079.9888c2.2472-8.8893-.494-12.734-6.1339-20.7251-.8202 7.84-.8008 13.782 6.1339 20.7251zM-1591.0165-3066.6785c3.3134-11.1187 3.9597-10.4412 12.2481-15.6341-2.2713 7.5484-3.17 11.9079-12.2481 15.6341zM-1591.3957-3066.7028c.4244-9.1591-3.0302-12.3781-10.154-19.0801.7639 7.8457 1.971 13.6638 10.154 19.0801zM-1590.248-3052.2135c.3666-11.3847 4.8964-11.1781 13.1067-16.9379-1.5485 7.7291-4.4209 12.3712-13.1067 16.9379zM-1591.3105-3052.264c-.4422-9.1583-3.782-11.8815-11.5067-17.8809 1.5012 7.7385 2.8489 13.2614 11.5067 17.8809zM-1589.1102-3035.6204c-1.1531-11.3321 3.3639-11.7307 10.7338-18.5328-.5052 7.8664-2.7337 12.8498-10.7338 18.5328zM-1590.1699-3035.529c-1.6581-9.0177-5.331-11.2718-13.786-16.1888 2.5186 7.4696 4.59 12.7637 13.786 16.1888zM-1586.2086-3017.613c-2.1373-11.1884 2.3276-11.9796 9.076-19.3987.183 7.8804-1.6021 13.0393-9.076 19.3987zM-1587.2562-3017.4296c-2.4385-8.8386-6.2941-10.7636-15.146-14.9242 3.1608 7.2214 5.6863 12.3146 15.146 14.9242zM-1578.3645-3000.5841c-3.5375-10.8275.7912-12.1779 6.5453-20.3922 1.1799 7.7937.063 13.1372-6.5453 20.3922zM-1579.3804-3000.2694c-3.5386-8.4585-7.607-9.8795-16.9147-12.8852 4.0502 6.7628 7.2006 11.495 16.9147 12.8852z" transform="matrix(-.02 0 0 .02 -19.395849 67.226607)"/>
    <path style="fill:#1e8951;fill-opacity:1;stroke:#000;stroke-width:1.07725525px;stroke-linecap:butt;stroke-linejoin:miter;stroke-opacity:1" d="M-1569.0429-2984.2273c-4.6239-11.3662-.075-13.1462 5.4841-22.4102 1.86 8.2853 1.0657 14.1121-5.4841 22.4102zM-1570.0792-2983.6481c-4.9282-8.56-9.4687-9.5271-19.823-11.4778 5.2449 6.6784 9.253 11.3087 19.823 11.4778zM-1555.7988-2966.5343c-5.9715-10.7197-1.6727-13.0396 2.7189-22.9107 2.8535 7.9977 2.7734 13.8779-2.7189 22.9107zM-1556.757-2965.8334c-5.9324-7.8973-10.5567-8.3053-21.0714-8.9827 6.0179 5.9912 10.5592 10.0999 21.0714 8.9827z" transform="matrix(-.02 0 0 .02 -19.395849 67.226607)"/>
    <path style="fill:#1e8951;fill-opacity:1;stroke:#000;stroke-width:1.27380991px;stroke-linecap:butt;stroke-linejoin:miter;stroke-opacity:1" d="M-1539.6093-2951.466c-8.925-11.4401-4.3236-14.9318-.9861-27.2632 4.7873 8.8261 5.7622 15.7112.9861 27.2632zM-1540.6015-2950.473c-8.3665-8.1495-13.8437-7.7859-26.2523-6.6669 8.12 5.9068 14.1726 9.8824 26.2523 6.6669z" transform="matrix(-.02 0 0 .02 -19.395849 67.226607)"/>
  </g>
  <path transform="matrix(-.02 0 0 .02 -52.156593 65.0067252)" d="m-3219.6137-3005.2387 3.1957.8563c-11.3852 32.1392-18.9996 65.4528-2.1966 106.3719 10.5127 18.5301 12.9876 32.9171 53.8638 67.0985l-3.0281 3.028c-18.8635-16.6268-55.4632-50.8551-62.1425-99.9113-2.7326-20.0694-.4983-41.6423 10.3077-77.4434z" style="fill:#3d423d;fill-opacity:1;stroke:#000;stroke-width:1px;stroke-linecap:butt;stroke-linejoin:miter;stroke-opacity:1"/>
  <path style="fill:#97584e;fill-opacity:1;stroke:#000;stroke-width:1px;stroke-linecap:butt;stroke-linejoin:miter;stroke-opacity:1" d="M-4645.3669-4709.184v-13.1654c8.4155-9.2931 17.3306-12.3427 23.2175-15.1993l-2.8549 11.1619c-4.9138 2.5276-12.4465 10.2872-20.3626 17.2028z" transform="matrix(.02 0 0 .02 98.334807 98.340997)"/>
  <path style="fill:#97584e;fill-opacity:1;stroke:#000;stroke-width:1px;stroke-linecap:butt;stroke-linejoin:miter;stroke-opacity:1" d="M-4654.5826-4690.5769v-13.1654c8.4155-9.2931 14.4757-12.5909 20.3626-15.4475v11.4101c-4.9138 2.5276-12.4465 10.2872-20.3626 17.2028z" transform="matrix(.02 0 0 .02 98.334807 98.340997)"/>
  <path style="fill:#97584e;fill-opacity:1;stroke:#000;stroke-width:1px;stroke-linecap:butt;stroke-linejoin:miter;stroke-opacity:1" d="m-4660.7769-4668.5119-1.7928-13.0428c7.0716-10.3525 12.6263-14.4448 18.0694-18.0765l1.5537 11.3038c-4.5238 3.1732-10.9296 11.8863-17.8303 19.8155z" transform="matrix(.02 0 0 .02 98.334807 98.340997)"/>
  <path style="fill:#97584e;fill-opacity:1;stroke:#000;stroke-width:1px;stroke-linecap:butt;stroke-linejoin:miter;stroke-opacity:1" d="m-4664.9569-4647.8557-3.2341-12.762c5.8748-11.0756 11.5536-14.6201 16.5584-18.8353l2.1884 9.9194c-4.1423 3.6573-9.5379 13.0295-15.5127 21.6779z" transform="matrix(.02 0 0 .02 98.334807 98.340997)"/>
  <path style="fill:#97584e;fill-opacity:1;stroke:#000;stroke-width:1px;stroke-linecap:butt;stroke-linejoin:miter;stroke-opacity:1" d="m-4669.9492-4626.6171-3.2341-12.762c5.8748-11.0756 10.9392-15.7611 15.944-19.9763l2.8028 11.0604c-4.1423 3.6573-9.5379 13.0295-15.5127 21.6779z" transform="matrix(.02 0 0 .02 98.334807 98.340997)"/>
  <path style="fill:#97584e;fill-opacity:1;stroke:#000;stroke-width:1px;stroke-linecap:butt;stroke-linejoin:miter;stroke-opacity:1" d="m-4670.9262-4608.6017-3.8187-12.5995c5.3583-11.3345 10.2015-16.2483 15.0067-20.6896l.4546 12.7814c-2.6859 8.6571-6.0694 11.6052-11.6426 20.5077zM-4500.547-4422.3531c4.9975-.061 8.7722-.6105 15.8863.1755 7.1178 4.0684 10.5898 7.4076 14.3064 10.7957-7.717 1.4403-15.8711 2.4435-26.5942.8777l-3.5107-11.4101z" transform="matrix(.02 0 0 .02 98.334807 98.340997)"/>
  <path style="fill:#97584e;fill-opacity:1;stroke:#000;stroke-width:1px;stroke-linecap:butt;stroke-linejoin:miter;stroke-opacity:1" d="M-4493.3923-4410.0299c-7.0696.019-26.5813-3.4766-26.9093-8.5394-19.3879-8.4705.651-5.2709-.2724-10.5596l21.7012 7.2104c4.2682 4.6901 2.4712 2.8577 5.4805 11.8886z" transform="matrix(.02 0 0 .02 98.334807 98.340997)"/>
  <path style="fill:#97584e;fill-opacity:1;stroke:#000;stroke-width:1px;stroke-linecap:butt;stroke-linejoin:miter;stroke-opacity:1" d="M-4508.191-4412.0669c-5.3645-.2866-27.9206-8.1062-28.6173-13.2169-18.8746-9.5597.9498-5.2253.3287-10.558l21.7203 8.7675c3.9945 4.9253 4.0777 5.8199 6.5683 15.0074z" transform="matrix(.02 0 0 .02 98.334807 98.340997)"/>
  <path style="fill:#97584e;fill-opacity:1;stroke:#000;stroke-width:1px;stroke-linecap:butt;stroke-linejoin:miter;stroke-opacity:1" d="M-4529.4784-4419.3373c-5.3135-.7917-27.0309-10.7052-27.2421-15.8588-17.8881-11.2985 1.4387-5.1124 1.3237-10.4799l20.7959 10.7783c3.5118 5.2804 3.5102 6.1788 5.1225 15.5604z" transform="matrix(.02 0 0 .02 98.334807 98.340997)"/>
  <path style="fill:#97584e;fill-opacity:1;stroke:#000;stroke-width:1px;stroke-linecap:butt;stroke-linejoin:miter;stroke-opacity:1" d="M-4550.1694-4429.0686c-5.2541-1.1202-26.3137-12.3638-26.2043-17.5205-17.1516-12.388 1.7535-5.0132 1.9722-10.3774l20.0861 12.0494c3.177 5.4883 3.1196 6.3849 4.146 15.8485z" transform="matrix(.02 0 0 .02 98.334807 98.340997)"/>
  <path style="fill:#97584e;fill-opacity:1;stroke:#000;stroke-width:1px;stroke-linecap:butt;stroke-linejoin:miter;stroke-opacity:1" d="M-4571.9949-4440.8434c-6.1263-4.2684-12.4125-5.2529-16.5938-11.4636-6.0727-9.6897-4.9314-13.8795-4.0612-19.1771l18.4695 14.4053c2.4852 5.8343 2.319 6.7173 2.1855 16.2354z" transform="matrix(.02 0 0 .02 98.334807 98.340997)"/>
  <path style="fill:#97584e;fill-opacity:1;stroke:#000;stroke-width:1px;stroke-linecap:butt;stroke-linejoin:miter;stroke-opacity:1" d="M-4589.6175-4453.9704c-5.8288-4.6666-12.0356-6.0671-15.7944-12.5423-5.4145-10.0722-3.997-14.1768-2.7763-19.4048l17.4702 15.6022c2.0915 5.9867 1.8669 6.8567 1.1005 16.3449z" transform="matrix(.02 0 0 .02 98.334807 98.340997)"/>
  <path style="fill:#97584e;fill-opacity:1;stroke:#000;stroke-width:1px;stroke-linecap:butt;stroke-linejoin:miter;stroke-opacity:1" d="M-4605.0133-4466.1912c-5.3655-5.1926-11.4136-7.1691-14.5486-13.9682-4.446-10.5356-2.6498-14.4892-.9442-19.5797l15.93 17.1719c1.5208 6.1564 1.2156 7.0015-.4372 16.376z" transform="matrix(.02 0 0 .02 98.334807 98.340997)"/>
  <path style="fill:#97584e;fill-opacity:1;stroke:#000;stroke-width:1px;stroke-linecap:butt;stroke-linejoin:miter;stroke-opacity:1" d="m-4618.0308-4477.8523-8.9357-8.651c-7.5303-16.0688-7.1022-23.3661-4.7278-29.4869l13.5284 18.5069c1.2314 6.2208 2.2241 10.344.1351 19.631z" transform="matrix(.02 0 0 .02 98.334807 98.340997)"/>
  <path style="fill:#97584e;fill-opacity:1;stroke:#000;stroke-width:1px;stroke-linecap:butt;stroke-linejoin:miter;stroke-opacity:1" d="m-4629.2193-4492.4089-8.5565-9.0264c-6.8339-16.377-3.5491-25.0307-.9144-31.0441l10.178 20.4517c.9634 6.2679 1.7783 10.43-.7071 19.6188z" transform="matrix(.02 0 0 .02 98.334807 98.340997)"/>
  <path style="fill:#97584e;fill-opacity:1;stroke:#000;stroke-width:1px;stroke-linecap:butt;stroke-linejoin:miter;stroke-opacity:1" d="m-4640.3399-4510.4042-7.1392-10.1551c-6.0735-16.674-2.3941-25.1675.5144-31.0533l9.2265 20.8982c.6741 6.3056.3037 11.2454-2.6017 20.3102z" transform="matrix(.02 0 0 .02 98.334807 98.340997)"/>
  <path style="fill:#97584e;fill-opacity:1;stroke:#000;stroke-width:1px;stroke-linecap:butt;stroke-linejoin:miter;stroke-opacity:1" d="m-4650.2794-4531.2671-6.9887-10.2882c-4.1035-17.2647.5339-25.2754 4.1039-30.7852l6.7465 21.8254c-.06 6.3413.073 10.5802-3.8617 19.248z" transform="matrix(.02 0 0 .02 98.334807 98.340997)"/>
  <path style="fill:#97584e;fill-opacity:1;stroke:#000;stroke-width:1px;stroke-linecap:butt;stroke-linejoin:miter;stroke-opacity:1" d="m-4659.0339-4551.3702-5.6341-11.0881c2.0366-15.6825 3.8061-24.9628 7.957-30.0209l3.9376 22.5024c-.8595 6.2831-1.2631 10.5048-6.2605 18.6066z" transform="matrix(.02 0 0 .02 98.334807 98.340997)"/>
  <path style="fill:#97584e;fill-opacity:1;stroke:#000;stroke-width:1px;stroke-linecap:butt;stroke-linejoin:miter;stroke-opacity:1" d="m-4663.166-4572.5196-5.51-11.957c2.0366-15.6825 6.0403-23.9697 10.1912-29.0278l1.7034 21.5093c-.8595 6.2831-1.3872 11.3737-6.3846 19.4755z" transform="matrix(.02 0 0 .02 98.334807 98.340997)"/>
  <path style="fill:#97584e;fill-opacity:1;stroke:#000;stroke-width:1px;stroke-linecap:butt;stroke-linejoin:miter;stroke-opacity:1" d="m-4667.7838-4593.4486-3.8187-12.5995c5.3583-11.3345 6.1054-14.1382 10.9106-18.5795l3.3095 10.9195c-3.9694 3.8442-4.8314 11.345-10.4014 20.2595zM-4521.0662-4406.5283c4.8824-.2214 9.4693-.5645 16.2604 0 4.5292 2.8971 8.144 6.4301 12.1472 10.5425l-16.716.098c-6.6675-1.6341-8.1747-7.6206-11.6916-10.641zM-4468.9958-4422.7266h15.0191l1.3654 12.909c-4.7995 5.355-13.6331 8.5181-18.4326-.1862z" transform="matrix(.02 0 0 .02 98.334807 98.340997)"/>
  <path style="fill:#97584e;fill-opacity:1;stroke:#000;stroke-width:1px;stroke-linecap:butt;stroke-linejoin:miter;stroke-opacity:1" d="m-4472.9057-4409.9417 18.6187-.4965.3724 5.2753-19.4256 1.1792z" transform="matrix(.02 0 0 .02 98.334807 98.340997)"/>
  <path style="fill:#97584e;fill-opacity:1;stroke:#000;stroke-width:1px;stroke-linecap:butt;stroke-linejoin:miter;stroke-opacity:1" d="M-4433.155-4408.7282c-4.7366-1.2046-9.1593-2.4684-15.9241-3.2894-5.0217 1.921-9.1169 4.2457-13.8692 7.4632l15.464 4.7322c6.8602-.2515 10.2742-6.6598 14.3294-8.9063z" transform="matrix(.02 0 0 .02 98.334807 98.340997)"/>
  <path style="fill:#97584e;fill-opacity:1;stroke:#000;stroke-width:1px;stroke-linecap:butt;stroke-linejoin:miter;stroke-opacity:1" d="M-4490.063-4407.8641c4.7366-1.2046 9.1593-2.4684 15.9241-3.2894 5.0217 1.921 9.1169 4.2457 13.8692 7.4632l-15.464 4.7322c-6.8602-.2515-10.2742-6.6598-14.3294-8.9063z" transform="matrix(.02 0 0 .02 98.334807 98.340997)"/>
  <path style="fill:#97584e;fill-opacity:1;stroke:#000;stroke-width:1px;stroke-linecap:butt;stroke-linejoin:miter;stroke-opacity:1" d="M-4505.0921-4406.4026c4.8463-.6324 9.3879-1.3611 16.2024-1.3713 4.7574 2.5048 8.5469 5.3002 12.8827 9.0603l-15.9172 2.8587c-6.7816-1.066-9.4089-7.8349-13.168-10.548zM-4418.6281-4824.8203l-12.4405-5.7806c-12.1852 3.1082-20.5562 10.6244-23.2584 15.1466 6.7495-.7256 19.1338 1.2888 22.7434.6488 5.4849-2.3875 5.8867-7.2871 12.9555-10.0148z" transform="matrix(.02 0 0 .02 98.334807 98.340997)"/>
  <path style="fill:#97584e;fill-opacity:1;stroke:#000;stroke-width:1px;stroke-linecap:butt;stroke-linejoin:miter;stroke-opacity:1" d="m-4402.6953-4818.9645-10.95-7.3095c-12.4423 1.8247-20.847 7.7277-24.0047 11.9445l10.0437 2.0475c5.2692-2.6832 14.7642-3.9382 24.911-6.6825zM-4363.0599-4797.676l-7.3594-10.9165c-12.1725-3.0014-29.31-2.9627-35.7881-2.0405l16.6472 10.0753c5.4873-.6507 16.0709 1.5725 26.5003 2.8817z" transform="matrix(.02 0 0 .02 98.334807 98.340997)"/>
  <path style="fill:#97584e;fill-opacity:1;stroke:#000;stroke-width:1px;stroke-linecap:butt;stroke-linejoin:miter;stroke-opacity:1" d="m-4382.9223-4808.669-8.4895-10.0629c-12.4596-1.7024-24.7981 1.2363-29.0026 4.4104l10.8355 5.6338c5.3857-1.2364 14.918-2.0937 25.4278-1.9119zM-4345.0061-4785.7315c23.1063 6.3309 1.4233-5.8938-5.4517-11.9838-11.535-5.0085-25.3889-4.5474-30.2951-2.6287l7.4555 7.0345c5.5193.2662 18.2222 4.5611 28.2913 7.578z" transform="matrix(.02 0 0 .02 98.334807 98.340997)"/>
  <path style="fill:#97584e;fill-opacity:1;stroke:#000;stroke-width:1px;stroke-linecap:butt;stroke-linejoin:miter;stroke-opacity:1" d="M-4326.7441-4769.5089c2.4871-1.9248 9.8627-.9429-3.9495-12.5592-10.8156-6.3406-27.4322-9.0923-33.905-10.0514l6.7743 10.2019c5.4456.9373 21.4542 8.1863 31.0802 12.4087z" transform="matrix(.02 0 0 .02 98.334807 98.340997)"/>
  <path style="fill:#97584e;fill-opacity:1;stroke:#000;stroke-width:1px;stroke-linecap:butt;stroke-linejoin:miter;stroke-opacity:1" d="m-4309.1888-4755.8848-3.3796-12.7243c-10.5328-6.9322-23.4608-9.453-29.6036-8.4616 8.3634 10.0436 21.7051 14.9861 32.9832 21.1859z" transform="matrix(.02 0 0 .02 98.334807 98.340997)"/>
  <path style="fill:#97584e;fill-opacity:1;stroke:#000;stroke-width:1px;stroke-linecap:butt;stroke-linejoin:miter;stroke-opacity:1" d="m-4297.421-4742.9707-2.2391-12.9737c-9.8734-7.7265-21.1457-9.5944-26.7305-9.3019l5.978 8.7864c5.272 1.6552 14.0147 8.0206 22.9916 13.4892z" transform="matrix(.02 0 0 .02 98.334807 98.340997)"/>
  <path style="fill:#97584e;fill-opacity:1;stroke:#000;stroke-width:1px;stroke-linecap:butt;stroke-linejoin:miter;stroke-opacity:1" d="m-4287.8537-4728.0507-1.0848-13.1207c-9.1526-8.5681-19.0635-10.2382-25.1658-12.6001l4.5398 10.2542c5.1053 2.1142 13.2518 9.2267 21.7108 15.4666z" transform="matrix(.02 0 0 .02 98.334807 98.340997)"/>
  <path style="fill:#97584e;fill-opacity:1;stroke:#000;stroke-width:1px;stroke-linecap:butt;stroke-linejoin:miter;stroke-opacity:1" d="M-4277.8511-4710.0481v-13.1654c-8.4155-9.2931-17.3306-12.3427-23.2175-15.1993l2.8549 11.1619c4.9138 2.5276 12.4465 10.2872 20.3626 17.2028z" transform="matrix(.02 0 0 .02 98.334807 98.340997)"/>
  <path style="fill:#97584e;fill-opacity:1;stroke:#000;stroke-width:1px;stroke-linecap:butt;stroke-linejoin:miter;stroke-opacity:1" d="M-4268.6354-4691.441v-13.1654c-8.4155-9.2931-14.4757-12.5909-20.3626-15.4475v11.4101c4.9138 2.5276 12.4465 10.2872 20.3626 17.2028z" transform="matrix(.02 0 0 .02 98.334807 98.340997)"/>
  <path style="fill:#97584e;fill-opacity:1;stroke:#000;stroke-width:1px;stroke-linecap:butt;stroke-linejoin:miter;stroke-opacity:1" d="m-4262.4411-4669.376 1.7928-13.0428c-7.0716-10.3525-12.6263-14.4448-18.0694-18.0765l-1.5537 11.3038c4.5238 3.1732 10.9296 11.8863 17.8303 19.8155z" transform="matrix(.02 0 0 .02 98.334807 98.340997)"/>
  <path style="fill:#97584e;fill-opacity:1;stroke:#000;stroke-width:1px;stroke-linecap:butt;stroke-linejoin:miter;stroke-opacity:1" d="m-4258.2611-4648.7198 3.2341-12.762c-5.8748-11.0756-11.5536-14.6201-16.5584-18.8353l-2.1884 9.9194c4.1423 3.6573 9.5379 13.0295 15.5127 21.6779z" transform="matrix(.02 0 0 .02 98.334807 98.340997)"/>
  <path style="fill:#97584e;fill-opacity:1;stroke:#000;stroke-width:1px;stroke-linecap:butt;stroke-linejoin:miter;stroke-opacity:1" d="m-4253.2688-4627.4812 3.2341-12.762c-5.8748-11.0756-10.9392-15.7611-15.944-19.9763l-2.8028 11.0604c4.1423 3.6573 9.5379 13.0295 15.5127 21.6779z" transform="matrix(.02 0 0 .02 98.334807 98.340997)"/>
  <path style="fill:#97584e;fill-opacity:1;stroke:#000;stroke-width:1px;stroke-linecap:butt;stroke-linejoin:miter;stroke-opacity:1" d="m-4252.2918-4609.4658 3.8187-12.5995c-5.3583-11.3345-10.2015-16.2483-15.0067-20.6896l-.4546 12.7814c2.6859 8.6571 6.0694 11.6052 11.6426 20.5077zM-4422.671-4423.2172c-4.9975-.061-8.7722-.6105-15.8863.1755-7.1178 4.0684-10.5898 7.4076-14.3064 10.7957 7.717 1.4403 15.8711 2.4435 26.5942.8777l3.5107-11.4101z" transform="matrix(.02 0 0 .02 98.334807 98.340997)"/>
  <path style="fill:#97584e;fill-opacity:1;stroke:#000;stroke-width:1px;stroke-linecap:butt;stroke-linejoin:miter;stroke-opacity:1" d="M-4429.8257-4410.894c7.0696.019 26.5813-3.4766 26.9093-8.5394 19.3879-8.4705-.651-5.2709.2724-10.5596l-21.7012 7.2104c-4.2682 4.6901-2.4712 2.8577-5.4805 11.8886z" transform="matrix(.02 0 0 .02 98.334807 98.340997)"/>
  <path style="fill:#97584e;fill-opacity:1;stroke:#000;stroke-width:1px;stroke-linecap:butt;stroke-linejoin:miter;stroke-opacity:1" d="M-4415.027-4412.931c5.3645-.2866 27.9206-8.1062 28.6173-13.2169 18.8746-9.5597-.9498-5.2253-.3287-10.558l-21.7203 8.7675c-3.9945 4.9253-4.0777 5.8199-6.5683 15.0074z" transform="matrix(.02 0 0 .02 98.334807 98.340997)"/>
  <path style="fill:#97584e;fill-opacity:1;stroke:#000;stroke-width:1px;stroke-linecap:butt;stroke-linejoin:miter;stroke-opacity:1" d="M-4393.7396-4420.2014c5.3135-.7917 27.0309-10.7052 27.2421-15.8588 17.8881-11.2985-1.4387-5.1124-1.3237-10.4799l-20.7959 10.7783c-3.5118 5.2804-3.5102 6.1788-5.1225 15.5604z" transform="matrix(.02 0 0 .02 98.334807 98.340997)"/>
  <path style="fill:#97584e;fill-opacity:1;stroke:#000;stroke-width:1px;stroke-linecap:butt;stroke-linejoin:miter;stroke-opacity:1" d="M-4373.0486-4429.9327c5.2541-1.1202 26.3137-12.3638 26.2043-17.5205 17.1516-12.388-1.7535-5.0132-1.9722-10.3774l-20.0861 12.0494c-3.177 5.4883-3.1196 6.3849-4.146 15.8485z" transform="matrix(.02 0 0 .02 98.334807 98.340997)"/>
  <path style="fill:#97584e;fill-opacity:1;stroke:#000;stroke-width:1px;stroke-linecap:butt;stroke-linejoin:miter;stroke-opacity:1" d="M-4351.2231-4441.7075c6.1263-4.2684 12.4125-5.2529 16.5938-11.4636 6.0727-9.6897 4.9314-13.8795 4.0612-19.1771l-18.4695 14.4053c-2.4852 5.8343-2.319 6.7173-2.1855 16.2354z" transform="matrix(.02 0 0 .02 98.334807 98.340997)"/>
  <path style="fill:#97584e;fill-opacity:1;stroke:#000;stroke-width:1px;stroke-linecap:butt;stroke-linejoin:miter;stroke-opacity:1" d="M-4333.6005-4454.8345c5.8288-4.6666 12.0356-6.0671 15.7944-12.5423 5.4145-10.0722 3.997-14.1768 2.7763-19.4048l-17.4702 15.6022c-2.0915 5.9867-1.8669 6.8567-1.1005 16.3449z" transform="matrix(.02 0 0 .02 98.334807 98.340997)"/>
  <path style="fill:#97584e;fill-opacity:1;stroke:#000;stroke-width:1px;stroke-linecap:butt;stroke-linejoin:miter;stroke-opacity:1" d="M-4318.2047-4467.0553c5.3655-5.1926 11.4136-7.1691 14.5486-13.9682 4.446-10.5356 2.6498-14.4892.9442-19.5797l-15.93 17.1719c-1.5208 6.1564-1.2156 7.0015.4372 16.376z" transform="matrix(.02 0 0 .02 98.334807 98.340997)"/>
  <path style="fill:#97584e;fill-opacity:1;stroke:#000;stroke-width:1px;stroke-linecap:butt;stroke-linejoin:miter;stroke-opacity:1" d="m-4305.1872-4478.7164 8.9357-8.651c7.5303-16.0688 7.1022-23.3661 4.7278-29.4869l-13.5284 18.5069c-1.2314 6.2208-2.2241 10.344-.1351 19.631z" transform="matrix(.02 0 0 .02 98.334807 98.340997)"/>
  <path style="fill:#97584e;fill-opacity:1;stroke:#000;stroke-width:1px;stroke-linecap:butt;stroke-linejoin:miter;stroke-opacity:1" d="m-4293.9987-4493.273 8.5565-9.0264c6.8339-16.377 3.5491-25.0307.9144-31.0441l-10.178 20.4517c-.9634 6.2679-1.7783 10.43.7071 19.6188z" transform="matrix(.02 0 0 .02 98.334807 98.340997)"/>
  <path style="fill:#97584e;fill-opacity:1;stroke:#000;stroke-width:1px;stroke-linecap:butt;stroke-linejoin:miter;stroke-opacity:1" d="m-4282.8781-4511.2683 7.1392-10.1551c6.0735-16.674 2.3941-25.1675-.5144-31.0533l-9.2265 20.8982c-.6741 6.3056-.3037 11.2454 2.6017 20.3102z" transform="matrix(.02 0 0 .02 98.334807 98.340997)"/>
  <path style="fill:#97584e;fill-opacity:1;stroke:#000;stroke-width:1px;stroke-linecap:butt;stroke-linejoin:miter;stroke-opacity:1" d="m-4272.9386-4532.1312 6.9887-10.2882c4.1035-17.2647-.5339-25.2754-4.1039-30.7852l-6.7465 21.8254c.06 6.3413-.073 10.5802 3.8617 19.248z" transform="matrix(.02 0 0 .02 98.334807 98.340997)"/>
  <path style="fill:#97584e;fill-opacity:1;stroke:#000;stroke-width:1px;stroke-linecap:butt;stroke-linejoin:miter;stroke-opacity:1" d="m-4264.1841-4552.2343 5.6341-11.0881c-2.0366-15.6825-3.8061-24.9628-7.957-30.0209l-3.9376 22.5024c.8595 6.2831 1.2631 10.5048 6.2605 18.6066z" transform="matrix(.02 0 0 .02 98.334807 98.340997)"/>
  <path style="fill:#97584e;fill-opacity:1;stroke:#000;stroke-width:1px;stroke-linecap:butt;stroke-linejoin:miter;stroke-opacity:1" d="m-4260.052-4573.3837 5.51-11.957c-2.0366-15.6825-6.0403-23.9697-10.1912-29.0278l-1.7034 21.5093c.8595 6.2831 1.3872 11.3737 6.3846 19.4755z" transform="matrix(.02 0 0 .02 98.334807 98.340997)"/>
  <path style="fill:#97584e;fill-opacity:1;stroke:#000;stroke-width:1px;stroke-linecap:butt;stroke-linejoin:miter;stroke-opacity:1" d="m-4255.4342-4594.3127 3.8187-12.5995c-5.3583-11.3345-6.1054-14.1382-10.9106-18.5795l-3.3095 10.9195c3.9694 3.8442 4.8314 11.345 10.4014 20.2595zM-4402.1518-4407.3924c-4.8824-.2214-9.4693-.5645-16.2604 0-4.5292 2.8971-8.144 6.4301-12.1472 10.5425l16.716.098c6.6675-1.6341 8.1747-7.6206 11.6916-10.641z" transform="matrix(.02 0 0 .02 98.334807 98.340997)"/>
  <path style="fill:#97584e;fill-opacity:1;stroke:#000;stroke-width:1px;stroke-linecap:butt;stroke-linejoin:miter;stroke-opacity:1" d="M-4418.1259-4407.2667c-4.8463-.6324-9.3879-1.3611-16.2024-1.3713-4.7574 2.5048-8.5469 5.3002-12.8827 9.0603l15.9172 2.8587c6.7816-1.066 9.4089-7.8349 13.168-10.548zM-4484.9459-4422.4163h16.2604l4.3444 12.4125-10.4265-.1241zM-4438.7714-4422.7886h-16.2604l-4.3444 12.4125 10.4265-.1241z" transform="matrix(.02 0 0 .02 98.334807 98.340997)"/>
  <g>
    <path style="fill:#fff;stroke:#000;stroke-width:1.20000005;stroke-miterlimit:4;stroke-opacity:1;stroke-dasharray:none" d="m105.725 149.81875-1.4375 2.90625-2.8125 5.125-.0312.0312L.60000002 209.3187l10.96874998 47L6.6 257.85l2.28125 9.1875 11.125-2.5625 1.03125 6.8125-4.75 3.71875 54.40625 16.4375 17.0625 11.09375H410.2875l.0625-.1875.6875-1.78125.15625-.90625-.4375-.46875-.125-.34375-.53125-.3125-1.4375-.875-.0937-.5v-.5l-.15625-1.3125-.1875-.5-.65625-.53125-.375-.21875-.40625-.15625-.5625-.1875-.3125-.0937-.25-.0625-.1875-.375-.59375-.84375-.34375-.40625.125-.625.0625-.46875-.21875-.5625-.3125-.625-1.5-2.5625-1.25-1.5-.25-.78125-.375-.78125-.625-.53125-.84375-.375-3.71875-2.375.59375-2.09375.375-.625-.0312-1.03125-.4375-.25-.4375-.4375-.46875-.15625-.28125-.5-.5-.5625-.34375-.125-.4375-1.53125-.3125-.5625-.3125-.53125-.375-.28125-1.21875-.28125-.25-.28125-.375-.90625-.6875-.28125.0312-.375.3125-.21875.46875-.0312.3125-.3125.1875-.375.21875-.40635-.0625-.59375-.4375-.375-.28125-.59375-1.03125-.71875-.28125-.15625-.40625-.3125-.28125-.40625-.0312-.6875-.0937-.40625-.40625-.25-.375.0312-.375.1875-.5.0937-.5625.0312-.46875-.46875-.46875-.28125-.28125-.28125-.375-.375-.4375-.25-.5625.0937-.4375.25-.40625.15625-1.375 1.25-.71875.21875-.9375.15625-.625.15625-1.3125.1875-.71875-.71875-2.03125-.53125-.84375-.78125-3.15625-3-5.34375-4.5625-.84375-.75-1.625-1.25-1.4375-1.46875-1.21875-.6875-1.125-.5-1-1.5625-3.9375-2.84375-2.40625-1.65625-4.625-3.1875-.5-.28125-.5625.1875-.8125-.125-.71875-.5-2.84375-1.4375-1.0625-.375-1.6875.0937-2.46875-.0625-2.40625.28125-.8125-.5625-.84375-.21875-.84375.0312-2.46875-.1875-.34375-.0625-.46875-.3125-.40625-.59375.0937-.6875.15625-.4375.4375-.59375.34375-.25.3125-.21875.1875-.0937 1.09375-.78125.28125-.1875.5-.5-.0937-.4375-.4375-.40625-.375-.0312-.5-.0312-.53125-.125-.4375-.0625-2.75-.90625-.5625-.59375-.15625-.625.25-.46875.28125-.34375h.65625l.34375.0625.78125.15625.78125.3125 2.375-1.15625 1.3125-3.375-.0312-1.1875.1875-1.21875-.25-.75-.5-.375-2.125-1.15625-.40625-.3125-.1875-.46875-.125-.625-1.40625-1.40625-2.28125-2.59375-.8125-.53125-.21875-.34375v-.25c-.06-.611.941-1.698 1.125-2.125.183-.427.174-.98225-.375-1.53125-.55-.55-1.40975-.1875-1.59375-.1875-.184 0-1.59375.71875-1.59375.71875-.916.305-2.1725-.781-1.5625-2.125.61-1.344 1.09725-1.5105 1.28125-1.9375.182-.427-.3125-1.46875-.3125-1.46875s-.67425-1.29525-1.40625-1.90625c-.732-.61-1.288-.543-2.875.25-1.588.794-2.75.59375-2.75.59375l-1.40625-.25-.28125-1.28125.3125-.625-1.53125-1.40625-1.21875-.8125-.625-.78125-1.34375-1.09375-.25-.4375-.0312-2.15625-.125-.53125-1.21875-.8125-.65625-.90625-.625-1.0625-.46875-.59375-.625-.90625-.5625-1.25-1.90625-3.125-.75-.5-.6875-.0312-.5.0625-1.15625-.0937-.71875-.21875-.9375-1.1875-.15625-.25.0312-.28125.125-.3125.5-.125.78125-.75.5-.34375.40625-.3125.46875-.65625.375-.84375.375-.5-.21875-.71875-.0937-.40625.0937-.1875.3125-.5.3125-.25.5625-.59375.2812-.5937.25-.4375 1.59375-1.34375.1875-.8125.0312-.53125-.46875-1.8125.40625-.59375.0312-.71875.53125-.6875.28125-1.46875v-.71875l-.1875-1.03125-1-2.03125-.1875-.3125-.46875-.5-.21875.0625-.46875-.0937-.3125.25-.34375.21875-.21875.5-.0625.25-.0937.15625-.90625-.8125-.1875-.40625.0312-.25-.0625-.375-.125-.28125-.15625-.40625-.15625-.5-.65625-1.53125-.125-.8125-.21875-.46875-.0937-.5625-.0312-.46875-.0312-.6875.125-.40625.15625-.15625.34375.0625 1.375.125.28125-.25.28125-.3125.3125-.25.5-1.5-.28125-1.40625.125-.3125-.0937-.625.0625-.59375.46875-1.0625.28125-.15625.34375-.125 1 .78125.46875.34375.53125.65625.53125.25.4375.0937 1.90625-.25h1.3125l.21875-.125.375.0312.5625.53125.5625.28125.75-.0312.15625-.34375-.0312-.90625-.375-1.71875.0625-.90625h-205.625z" transform="matrix(.007 0 0 .007 7.4091822 4.8684977)"/>
    <path d="m138.086 170.796-1.652-1.667 1.667-1.652 1.667-1.652 1.652 1.667 1.652 1.667-1.667 1.652-1.667 1.652-1.652-1.667zm-11.34-.837c-.594-.217-1.558-.932-2.19-1.623-1.191-1.303-1.462-1.911-.662-1.483 1.193.639 3.556 1.054 4.397.774 3.102-1.036 3.807-5.177 1.33-7.804-.486-.515-.884-1.114-.884-1.331 0-.217.517-.623 1.148-.902.884-.391 1.316-.817 1.882-1.856.574-1.055.81-1.285 1.086-1.056.394.327 1.725 3.503 1.725 4.117 0 .324.481.395 2.658.395h2.658l-.415-.996c-.228-.547-.604-1.284-.835-1.637-.374-.572-.376-.673-.017-.929.221-.158.957-.676 1.636-1.151.678-.475 1.312-1.072 1.407-1.327.235-.632 1.705-2.455 1.978-2.455.121 0 .221 1.911.221 4.247v4.247h33.181v-12.168l-.923-.571-.923-.571-.935.713-.935.713v8.697h-13.936c-7.666 0-13.937-.048-13.937-.106 0-.093 6.935-9.459 7.783-10.512.176-.219.612-.816.968-1.327s.719-.989.805-1.062c.088-.073.447-.551.801-1.062.353-.511.765-1.069.916-1.239.151-.171 2.663-3.538 5.583-7.483 2.92-3.945 5.396-7.18 5.504-7.189.107-.009.259.313.338.714.438 2.222.774 3.466 1.121 4.15.444.875.184 1.202-.989 1.238-.555.017-1.834 1.587-7.831 9.615-3.942 5.277-7.207 9.689-7.256 9.805-.049.116 3.505.211 7.897.211h7.986l.004-2.854c.002-1.569.092-2.977.199-3.128.501-.706 5.781-4.395 6.149-4.297.229.061 1.641 1.043 3.138 2.182l2.721 2.072v17.706h-46.11l-.463 1.712c-.556 2.052-1.465 3.532-2.686 4.368-1.151.788-3.756 1.006-5.293.443zm57.471-20.305c0-9.637.087-13.847.288-13.972.158-.098.845.406 1.526 1.12.681.714 1.895 1.861 2.699 2.548 1.268 1.086 1.4 1.286 1.009 1.524-1.307.794-1.274.544-1.274 9.705v8.608h2.541c2.256 0 2.673-.077 3.716-.689 1.295-.759 1.381-.659.74.856-.24.565-.508 1.685-.598 2.488l-.162 1.46-5.243.072-5.242.072v-13.792zM211.666 159.855c.139-3.881.54-5.198 1.964-6.448 1.096-.962 2.664-1.418 4.479-1.301l1.359.088.082-1.588c.103-2.012-.079-2.73-.748-2.943-.803-.255-.639-1.089.334-1.696.476-.297 1.642-1.326 2.59-2.287.948-.961 1.818-1.747 1.932-1.747.114 0 .208 3.837.208 8.527v8.528h3.73v-8.775c0-7.622-.055-8.83-.419-9.194-.23-.23-.53-.419-.666-.419-.598 0-.175-1.067.618-1.562.477-.297 1.636-1.32 2.578-2.274.941-.954 1.811-1.673 1.932-1.598.121.075.22 5.465.22 11.979v11.843h3.73v-24.253l-.666-.579c-.366-.318-.666-.724-.666-.901 0-.177.829-.991 1.842-1.81 1.013-.819 2.1-1.851 2.416-2.295 1.36-1.911 1.338-2.196 1.338 16.647v17.454h-28.31l.123-3.396zm7.936-2.598v-1.732h-1.045c-1.403 0-2.685 1.218-2.685 2.552v.912h3.73v-1.732zm23.184-7.84c0-9.674.087-13.901.289-14.026.159-.098.849.408 1.532 1.125.684.717 1.902 1.868 2.708 2.558 1.273 1.09 1.406 1.291 1.013 1.53-1.312.797-1.279.547-1.279 9.743v8.642h2.603c2.361 0 2.697-.064 3.618-.69.559-.379 1.081-.624 1.161-.544.08.08-.064.66-.321 1.289-.257.629-.542 1.803-.633 2.609l-.166 1.466-5.263.072-5.263.072v-13.846zm-20.974-14.498c-.47-.172-1.01-.477-1.199-.677-.29-.306-.146-.336.908-.185 1.894.27 3.055-.051 4.111-1.14l.929-.956 1.291.458c.71.252 1.452.396 1.65.32.512-.197 1.44-1.668 1.347-2.136-.113-.571.411-.484.735.121.636 1.188.105 2.695-1.11 3.154-.595.225-1.17.231-2.134.025-1.184-.254-1.378-.227-1.897.259-1.164 1.09-2.932 1.379-4.631.757zm3.226-4.394c-.642-.438-1.997-2.683-2.048-3.397-.045-.612.064-.799.499-.862.762-.109 1.114.398 1.7 2.449.479 1.674.435 2.209-.151 1.81z" style="fill:#009e60" transform="matrix(.014 0 0 .014 5.9951822 4.3644977)"/>
    <path d="m82.4125 299.06875 34.8125 22.625 30 15.84375 118.84375 103.96875 2.78125.3125 78.78125 6.46875 5.25-2.40625 1.3125.0312 1.9375-2.28125 4.78125-5.09375 2.78125-4.78125 5.4375-6.875.59375-1.65625 1.125-2.0625 3.15625-7.25 1.875-5.1875.65625-1.09375.125-1.375.875-1.78125 1.28125-3.875.90625-2.1875.84375-1.75 2.6875-3.125 6.25-3.125 1.28125-.46875 16-.40625 11.6875 4.6875v-.96875l-.25-1.65625-.25-1.4375-.40625-.75-.40625-.5937-.6875-.9375-.84375-.875-.21875-1.03125-.0937-.875-.40625-1.21875v-.96875l.5.375.21875.625.4375.875.15625 1.125.125.625.3125.6875 2.25 3.09375.0625.9375.28125.9375.65625.96875.875.59375h.0312l.40625-.1875.46875-.40625.625-.46875.59375-.5.625-.53125.59375-.4375 1.8125-.28125 1.3125.1875 1.34375.0312.90625.0937.9375.25 1.28125.75.6875.625 1.4375 1.03125 1.28125.625.71875.6875 1.15625.8125.6875.15625.5.28125.34375.3125.875.34375.75.25.8125.21875 1.21875.15625 3.84375-.25 1.03125-.15625.59375-.8125-.4375-.0312-.90625-.0937-.96875-.1875-.4375-.375-.40625-.4375-.6875-.53125-1.78125-1.0625-.34375-.625-.5-.90625-.28125-.71875-.0312-.6875-.125-.75-.4375-.59375-.96875-1.09375-1.15625-1.75-.15625-.59375.4375-.71875.625-.9375.125-.75-.1875-.8125-.375-.4375-.3125-.5-.46875-.5-.625-.46875-.6875-.59375-.5625-.4375-.875-.78125-.84375-.875-.4375-.8125-1.65625-1.625-.28125-.0937-.25.1875-.46875.4375-.4375.3125-.5625.21875-.53125-.25-.5-.21875-.28125-.5-.34375-.90625-.28125-1.28125-.15625-1.59375-.65625-.40625-.875-.40625-.71875-.34375-.96875-.3125-.59375-.0312-.6875-.28125-.65625-.0937-1.21875-.4375-1.21875-.28125-1.125-.28125-.6875-.125-.53125.1561-1.78125-.375.4375-.6875 4.375.875.53125.0625-1.375-28.28125-15.25.4375-.96875-21.4375 5.375-16.75.3125-1.21875.53125-1.59375.6875-1.78125.15625-.90625-.4375-.46875-.0312-.125H82.4126z" style="fill:#000;fill-opacity:1;stroke:#000;stroke-width:1.20000005;stroke-miterlimit:4;stroke-opacity:1;stroke-dasharray:none" transform="matrix(.007 0 0 .007 7.4091822 4.8684977)"/>
    <path style="fill:#ce1126;stroke:#ce1126;stroke-width:1.20000005;stroke-miterlimit:4;stroke-opacity:1;stroke-dasharray:none" d="m183.53745.60000002-.75.65624998-.6875.9375-1.09375-.4375-.1875.71875.53125 1.375-.375.59375-1.375.28125-.1875 1.3125-1.21875.84375-1.1875 2.34375-1.90625 3.34375-.71875.53125h-1.3125l-2.5.78125-2.3125-.09375-1.0625.53125-1.28125-.15625.0625.9375.75.90625-.90625.71875-25.09375 25.4375-18.03125 3.375-5.3125 8.8125-.34375 6.0625-.21875 5.25-1.125 4.8125 5.09375 22.6875-5.28125 7.34375-.0937 4-1.96875 7.125-.71875 3.875-.1875 5.59375v16.8125l-2.59375 3.375-4.21875 8.53125H311.35l-.28125-.84375-.25-1.625-.375-.28125-.3125-.0937-.28125-.59375-.125-.25-.5625-.84375-.59375-.3125-.375-.21875-.0625-.46875v-.40625l.0312-.46875 1.25-2.65625-.0312-.40625-.0625-.46875.0937-.34375.15625-.1875 2.15625-.625.53125-.3125.5625-.40625.53125-.53125.0625-2.21875.0312-.8125.5-.4375.8125.3125.65625.46875.59375-.0625.40625-.34375.3125-.375.125-.65625.6875-.96875.5-.5v-.53125l-.28125-.59375-.3125-.65625v-.5625l.1875-.5625-.0312-.5.125-1.375.6875-.40625.46875-.25.3125-.21875-.0937-.59375.375-.28125.6875-.25 1.03125-.34375.78125-.3125.8125.625.96875.53125.65625.375 1.1875-.46875v-.625l.96875-.71875.59375-.1875h1.125l.96875-.25.78125-.5625.6875-1-.21875-.1875-.53125.0937-.125-.15625-.3125-.75-.1875-.53125.375-1.40625h.46875l.46875-.0937.3125-.0937.40625-.375-.25-.71875-.125-.625-.34375-.46875-1.0625-.25-.53125.15625-.34375-.15625-.0937-.1875-.1875-.21875-.21875.0312-.25-.0312-.1875-1.375.34375-.21875.625-.53125.0937-1.46875-.28125-.5-.1875-.375-.0937-.625v-.40625l-.46875-.25-.53125-.125-.5625-.0312-.3125-.34375-.34375-.53125-.875-.8125-.375-.625-.34375-.625-.21875-.46875-.65635-.9375-.4375-.75-.40625-1.3125-.59375-.6875-.21875-.5.6875-1.40625-.125-.5625-.0312-.5-.40625-.40625-.25-.21875-.1875-.59375.21875-1.1875.6875.28125.3125.21875.28125.0625.21875-.5-.21875-.40625-.40625-.46875-.0312-.625v-.59375l-.125-.5-.0312-.75.9375-2.4375.75-.4375.28125-.0625.84375.3125.34375.03125.4375-.25.5-.125.65625-.0625.53125.1875.34375.1875 1-.25.25-.5625.59375-.5625 1.21875-.28125.25-.34375.375.03125.4375-.09375.53125.28125 1.3125-1.0625.125-.40625.4375-.03125.5-.34375.4375-.34375.8125-.625.28125-.375.625-.78125-.0937-1.09375-.625-.375-1.15625-.46875-.84375-.21875-.65625 1.15625-.4375.15625-.21875-.03125-.71875-.34375-.65625.09375-.25.25v.25l-.0312.3125-.40625-.09375-.375-.0625-.219-.21875-.9375.25-.71875-.03125-.5625-.40625-.25-.53125-.3125-1.53125-.5625-.15625-.46875.21875-.40625-.25-.34375-.25-.40625-.28125-.375-.125-.28125.125-.5.28125-.375.375-.46875.25-.46875.4686-2.0625-.1875-1.28125.75h-.25l-.25-.1875-.1875-.15625-.4375-.1875-.90625.4375-1.59375.875-.9375-.03125-.9375-.21875-.4375-.0625-.28125-.03125-.375.15625-.34375.125-.125.28125-.0937.21875-.5625-.15625-.28125-.09375-.25-.59375-.90625-1.375-3-3.34375-.8125-1.34375-1.25-1.3125-.65625-.5-1.375-.9375-1.25-.46875-.71875-.25-1.34375-.03125-.90625.15625-1.34375.25-.59375.28125-1.40625 1.375h-.34375l-.71875-.125-.59375-.25-.28125-.625-.375-.5.0312-2.21875.21875-.78125.3125-.71875.15625-.3125.34375-.71875.1875-.21875.0937-.40625v-.40625l-.28125-.25-.1875-.03125-.78125-.90625-.15625-.3125-.15625-.34375-.65625-.53125.3125-3.6875-.1875-.28125-.28125-.6875-.25-.21875-.3125-.0625-.34375.1875-.375.21875-.4375-.15625-.46875-.15625-.21875-.34375.0625-.40625.3125-.34375.25-.3125.53125-.75-1.21875-1.375.1875-.53125.25-.5-.0625-.6875-.15625-.75-.59375-1.96875-1.4375-1.90625-.5625.03125-.75.3125-1.40625.3125-.5625.1875-.625.1875-2.15625-1.15625-.0937-.9375-.46875-.375-.40625-.4375-.25-.6875.0937-.6875-.5625-.6875-.53125-.59375-.6875-.5-.21875-.21875-.25-.375.0625-.5625.15625-.3125.3125-.15625.4375-.25-.0937-2.0625 1-1.25.25-.75-.125-2.5625-.375-1.6875-.59375-.71875-.59375-.75-.8125-.5-.84375-.40625-.46875-.625-1.9375-.9375-.65625.09375-.59375.1875-1.4375-.34375-.5625-.4375-.25-1.3125.3125-.59375.25-.375.0625-.59375.125-.59375.28125-.25 1.15625-.90625.40625-.59375-.0625-1.5-.5-1-.28125-.84375-.15625-.6875.0312-.34375.1875-.5.25-.375.15625-.8125.125-.6875-.0312-.625-.3125-.46875-.5-.09375-.5625-.25-.34375-.34375-.40625.0625-.1875.28125-.4375.21875-1.28125-.75-.0625-.5-.34375-.3125-.625-.5625-.1875-.53125-.625-1.6875.0625-.4375.1875-.375.3125-.34375-.125-.1875-.3125-.3125-.5625-.5625-.375-.75-1.40625-.96875-2-.1875-3.8125 1.25-.21875.21875-.40625.3125-2.46875 2.75-.40625.28125-1.125.875-.3125.09375-.71875.625-.75.625-.6875.03125-.53125.0625-.5-.0625-.4375.03125-1.125.625-.125.03125-.3125.6875.0625.34375.1875.34375-.0625.3125-.3125.34375-.375.53125-2.6875 1.625-.5-.34375-.625-.375.21875-.9375-.375-.75-.46875-1.4375.0625-.34375-.28125-.59375-1-.5-.8125-.65625.0937-1.125.5625-1 1.09375-1.28125.78125-.625 1.09375-3.28125.0312-.3125-.4375-1.03125-.6875-.5625-.28125-.84375-.78125-.65625-.875-.3125-.375-.5625-.78125-.1875-2.03125-.84375-1.84375-.0625-1.125-.4375-1.71875.03125-1.5 1.5-.59375.4375-.5625.625-.25.5625-.5 1.03125-.46875.8125-.6875.75-.9375-.21875-.78125-.09375-.75 1.1875-.90625.375-2.09375-2.1875-.875-.03125h-1.46875l-1.65625.21875-.90625.34375-1-.0625-.96875-.09375-1.65625-1.375-.8125-.0625-.65625.15625-.3125.3125-2.03125-.875-.59375-.625-1-.28125-1.59375-.90625-.5-.3125-.5625-.21875-.59375-1.0625-.8125-.375-1.125.28125-.375.5-.5.40625-.53125-.28125-2.84375-2.0625-1.15625-.3125-1.21875-.65625-1.4375-.5625-1 .09375-1.5625.375-1.625.21875-1 .71875-.65625.6875-1.03125.375-.96875.40625-1.53125-.6875-.8125-.1875-1.15625-.34375-.6875-.34375-1.25-.5-.28125-.71875-1.59375-.84374998z" transform="matrix(.007 0 0 .007 7.4091822 4.8684977)"/>
  </g>
</svg>
