<?xml version="1.0" encoding="utf-8"?>
<!-- Generator: Adobe Illustrator 25.0.1, SVG Export Plug-In . SVG Version: 6.00 Build 0)  -->
<svg version="1.2" baseProfile="tiny" id="레이어_1"
	 xmlns="http://www.w3.org/2000/svg" xmlns:xlink="http://www.w3.org/1999/xlink" x="0px" y="0px" viewBox="0 0 3714 2477"
	 overflow="visible" xml:space="preserve">
<g>
	<g transform="translate(-343 0)">
		<rect x="343" fill="#FFFFFF" width="1856" height="1238"/>
		
			<path fill-rule="evenodd" stroke="#000000" stroke-width="13.75" stroke-linecap="round" stroke-linejoin="round" stroke-miterlimit="10" d="
			M1080.08,709.695l-22.49,71.097c-29.06,40.005-101.274,114.445-151.913,168.932c-50.639,54.486,8.305,114.846,85.074,81.426
			l-18.23-55.903l139.159,35.853l-66.24,125.79l-30.38-53.48c-108.572,38.49-118.7-23.9-263.731-44.97
			c-21.066-145.026-83.453-155.154-44.967-263.724l-53.475-30.384l125.788-66.236l35.852,139.157l-55.905-18.23
			c-33.422,76.769,26.939,135.712,81.427,85.073c54.488-50.639,128.928-122.85,168.931-151.917L1080.08,709.695z"/>
		
			<path fill-rule="evenodd" stroke="#000000" stroke-width="13.75" stroke-linecap="round" stroke-linejoin="round" stroke-miterlimit="10" d="
			M1719.96,160.355c-7.05-7.056-18.49-7.056-25.55,0c-7.05,7.056-7.05,18.495,0,25.551c7.06,7.056,18.5,7.056,25.55,0
			C1727.02,178.85,1727.02,167.411,1719.96,160.355z M1754.59,125.733c26.17,26.177,26.17,68.618,0,94.796
			c-13.09,13.088-30.25,19.633-47.4,19.632l-7.79-1.515l-14.75,14.751l58.73,87.107l-52.17,52.176l-87.11-58.734l-105.04,105.041
			l-57.73-57.729l105.04-105.041l-58.73-87.107l52.17-52.176l87.11,58.734l14.75-14.751l-1.51-7.786
			c0-17.155,6.54-34.31,19.63-47.398C1685.97,99.556,1728.41,99.556,1754.59,125.733z"/>
		
			<path fill-rule="evenodd" stroke="#000000" stroke-width="13.75" stroke-linecap="round" stroke-linejoin="round" stroke-miterlimit="10" d="
			M1461.383,709.695l22.484,71.098c29.067,40.005,101.279,114.444,151.918,168.932c50.639,54.488-8.304,114.85-85.073,81.428
			l18.23-55.906l-139.157,35.852l66.235,125.788l30.384-53.474c108.57,38.486,118.698-23.902,263.728-44.968
			c21.066-145.03,83.453-155.158,44.968-263.728l53.474-30.384l-125.787-66.236l-35.852,139.156l55.905-18.229
			c33.422,76.769-26.939,135.712-81.428,85.073c-54.488-50.639-128.927-122.851-168.932-151.918L1461.383,709.695z"/>
		
			<path fill-rule="evenodd" stroke="#000000" stroke-width="13.75" stroke-linecap="round" stroke-linejoin="round" stroke-miterlimit="10" d="
			M821.497,160.356c7.055-7.056,18.495-7.056,25.551,0s7.056,18.495,0,25.551c-7.056,7.056-18.495,7.055-25.551,0
			S814.442,167.411,821.497,160.356z M786.875,125.733c-26.177,26.177-26.177,68.619,0,94.796
			c13.089,13.089,30.244,19.633,47.398,19.633l7.787-1.516l14.75,14.75l-58.734,87.107l52.177,52.177l87.107-58.734l105.041,105.041
			l57.729-57.729L995.089,276.218l58.734-87.107l-52.177-52.177l-87.107,58.734l-14.75-14.75l1.515-7.786
			c0-17.154-6.544-34.31-19.633-47.398C855.493,99.556,813.052,99.556,786.875,125.733z"/>
		<path fill-rule="evenodd" fill="#CD2E3A" d="M1583,589c0,172.313-139.69,312-312,312S959,761.313,959,589s139.69-312,312-312
			S1583,416.687,1583,589z"/>
		<path fill-rule="evenodd" fill="#0047A0" d="M1011.327,415.985c-47.724,71.672-28.347,168.522,43.233,216.304
			c71.59,47.781,168.31,28.414,216.03-43.258c47.72-71.672,144.44-91.039,216.03-43.258c71.58,47.781,91.554,144.897,43.834,216.569
			c-95.45,143.343-289.514,181.798-432.684,86.235C954.6,753.015,915.88,559.328,1011.327,415.985z"/>
	</g>
</g>
<polyline fill="#001B69" points="0,2477 3714,2477 3714,0 1856,0 1856,1238 0,1238 "/>
</svg>
