<svg xmlns="http://www.w3.org/2000/svg" width="980" height="700" viewBox="-50 -30 980 700"><path d="M -50,670 H 930 V -30 H -50 Z" fill="#fff"/><path d="m 509.86,36.081962 c 6.818,-0.112 18.116,2.17 17.864,7.406 18.956,-3.262 20.93,4.578 19.81,11.55 -1.806,-2.772 -3.99,-4.27 -5.684,-4.55 -2.52,-0.42 -5.18,0.392 -7.868,2.044 -2.702,1.666 -5.684,4.34 -7,6.006 6.678,1.596 11.858,0.56 17.094,-0.35 2.59,-0.462 6.216,-1.918 8.358,-3.416 2.156,-1.512 2.828,-2.926 6.216,-6.384 3.99,-4.088 8.232,-2.94 6.916,3.402 -3.066,5.894 -8.176,8.54 -14.616,9.59 -3.094,0.504 -7.714,1.61 -12.95,1.61 -5.236,0 -11.102,-0.756 -14.308,-0.084 1.918,1.204 4.102,3.29 8.4,4.116 4.382,0.84 11.032,-2.604 15.092,-3.542 -0.518,3.402 -4.816,6.594 -13.3,8.26 -13.93,3.038 -25.508,5.348 -33.152,9.492 -7.658,4.158 -12.488,9.366 -15.932,13.44 -6.86,8.105998 -7.224,14.335998 -7.658,15.707998 -1.4,12.95 3.108,20.244 11.508,22.484 4.2,1.12 11.662,-0.98 14.392,-4.2 2.73,-3.22 5.404,-8.736 4.634,-17.36 -0.728,-3.402 -4.62,-12.235998 -1.302,-14.055998 a 398.622,398.622 0 0 1 47.026,-21.966 c 3.64,-1.372 6.664,3.584 7.84,5.516 22.68,-2.758 43.148,-18.116 52.36,-34.468 6.272,-11.144 16.618,0.014 14.882,10.542 -2.8,11.732 -11.76,20.23 -22.498,26.25 -11.018,6.062 -24.78,12.04 -38.71,11.718 -7.504,1.428 -7.434,11.129998 1.568,12.949998 17.612,0.112 31.668,-0.322 44.94,-13.117998 10.052,-9.198 15.722,1.75 12.81,7.951998 -4.928,19.124 -32.2,24.486 -59.808,18.298 -10.682,-1.778 -4.284,9.674 -1.26,9.8 11.522,8.26 32.172,16.352 50.358,-0.084 8.316,-6.37 13.944,-1.022 10.85,8.176 -8.078,23.982 -38.92,18.942 -60.116,7.14 -5.46,-3.052 -10.402,4.018 -3.766,9.394 26.348,18.41 39.522,18.62 51.408,11.55 14.882,-5.866 16.184,10.64 7.35,16.058 -9.828,6.02 -34.818,1.512 -53.158,-10.024 -7.868,-5.838 -8.218,3.304 -3.234,6.916 21.756,18.816 30.338,23.758 53.018,20.692 11.256,-0.868 11.088,12.992 2.24,18.424 -12.082,7.42 -35.686,-4.9 -53.998,-20.076 -7.7,-4.13 -8.96,2.632 -5.152,10.626 11.186,14.112 21.686,22.442 31.808,26.292 10.108,3.85 19.838,3.248 26.726,0.882 8.4,-2.898 9.45,5.838 4.816,13.776 -2.8,4.788 -14.392,6.314 -26.908,1.876 -12.516,-4.438 -25.956,-14.84 -35.182,-27.02 -8.022,-7.042 -7.028,2.394 -3.36,9.044 18.48,29.204 35.364,40.04 57.61,38.192 9.87,-1.68 12.11,5.992 5.824,13.076 -11.046,9.17 -24.85,8.876 -36.932,-0.168 -10.724,-10.36 -31.262,-32.634 -42.042,-44.576 -7.588,-6.062 -10.01,-0.098 -7.784,12.194 2.03,7.042 7.098,14.462 20.916,19.88 9.436,5.376 2.352,12.796 -4.732,12.936 -3.892,0.084 -11.802,-4.48 -17.85,-11.284 -7.952,-8.96 -8.428,-14.98 -12.81,-28.924 -4.144,-6.79 -11.55,-3.626 -11.55,3.5 3.542,13.972 6.594,16.478 13.776,22.19 6.86,6.44 -4.788,8.596 -8.708,5.95 -11.34,-7.658 -15.498,-17.556 -19.292,-26.558 -2.744,-6.496 -10.682,-3.36 -7,7.266 8.806,25.34 23.268,35.336 48.566,40.46 2.562,0.462 4.13,1.96 3.234,4.942 -3.402,3.528 -6.804,6.72 -10.192,10.248 15.638,4.55 28.35,7.112 44.016,11.676 7.672,-5.04 13.888,-9.31 21.56,-14.35 2.03,-4.732 2.968,-11.97 14.308,-6.86 7.686,-3.556 11.228,-2.254 15.484,1.302 -6.16,0.224 -8.82,1.876 -11.242,4.676 -3.15,8.302 -10.416,9.1 -17.85,6.748 -4.83,4.06 -7.42,7.196 -12.25,11.284 9.03,-0.308 15.33,-0.476 24.332,-0.742 8.596,-9.24 15.456,-8.722 21.616,-1.484 4.69,0.714 6.678,0.812 9.884,6.51 -5.04,-2.072 -8.232,-2.688 -10.416,-0.434 -9.142,5.292 -15.12,4.116 -19.642,0 -8.82,0.532 -16.772,0.994 -25.592,1.568 3.234,2.758 7.7,4.228 10.934,7 13.244,-3.78 20.16,1.316 22.484,12.124 1.778,4.368 2.604,8.848 1.848,13.524 -1.288,-4.27 -3.36,-7.938 -7.14,-10.248 -11.802,3.01 -16.24,-1.82 -16.884,-8.876 -5.698,-4.648 -14.28,-5.67 -19.95,-10.36 -6.636,2.114 -9.856,3.43 -16.534,5.544 -2.38,7.224 -7.756,10.08 -16.492,8.232 -10.402,0.322 -8.568,4.592 -9.408,8.008 -2.772,-4.9 -2.688,-9.66 3.71,-14 2.338,-6.342 7.504,-9.212 14.266,-5.558 6.37,-1.82 8.05,-4.41 14.392,-6.216 -16.058,-5.11 -27.44,-6.272 -43.484,-11.368 -4.018,3.78 -7.196,6.496 -11.242,9.884 -2.142,1.26 -4.172,1.596 -5.432,0 -10.052,-14.56 -14.546,-27.37 -23.884,-36.96 -3.57,-3.976 -8.078,-9.338 -13.076,-10.64 -2.506,-0.658 -5.572,-0.252 -7.532,1.876 -1.96,2.142 -3.5,6.076 -2.842,11.942 0.938,8.428 2.968,11.102 5.334,16.142 2.38,5.054 5.264,8.162 8.232,12.04 5.936,7.742 13.776,12.236 18.41,15.26 9.282,6.062 13.202,3.416 20.398,3.024 9.282,1.05 11.76,5.572 4.158,11.816 -7.112,3.696 -13.496,4.158 -18.69,3.192 -4.452,-0.826 -9.66,-6.58 -13.384,-9.66 -4.186,-4.844 -11.116,0.896 -6.384,6.51 8.596,10.22 17.178,16.94 27.776,16.8 11.13,1.498 9.058,7.756 1.666,10.808 -13.3,5.488 -25.312,-4.788 -31.416,-11.55 -4.704,-5.152 -8.05,-5.348 -7.224,2.618 4.676,14.448 11.06,20.02 21.49,20.748 8.456,-0.784 8.54,5.74 2.366,10.15 -14.098,9.744 -24.29,-6.86 -29.05,-16.898 -3.402,-9.044 -8.61,-4.746 -9.156,2.716 -0.07,9.968 4.438,18.102 16.506,28.308 -9.24,14.7 -19.992,29.652 -29.232,44.408 -9.24,-14.756 -19.992,-29.708 -29.232,-44.408 12.068,-10.206 16.576,-18.34 16.506,-28.308 -0.546,-7.462 -5.754,-11.76 -9.156,-2.716 -4.76,10.038 -14.952,26.642 -29.05,16.898 -6.174,-4.41 -6.09,-10.934 2.38,-10.15 10.416,-0.728 16.8,-6.3 21.476,-20.748 0.826,-7.98 -2.52,-7.77 -7.224,-2.618 -6.104,6.762 -18.116,17.038 -31.416,11.55 -7.392,-3.052 -9.464,-9.31 1.666,-10.808 10.598,0.14 19.18,-6.58 27.776,-16.8 4.732,-5.614 -2.198,-11.34 -6.384,-6.524 -3.71,3.094 -8.932,8.848 -13.384,9.674 -5.18,0.966 -11.578,0.504 -18.69,-3.192 -7.588,-6.244 -5.124,-10.78 4.158,-11.816 7.196,0.392 11.116,3.038 20.398,-3.024 4.634,-3.024 12.46,-7.518 18.41,-15.26 2.968,-3.878 5.866,-6.986 8.232,-12.04 2.366,-5.04 4.396,-7.7 5.334,-16.142 0.658,-5.88 -0.882,-9.8 -2.842,-11.942 -1.96,-2.128 -5.026,-2.52 -7.532,-1.876 -4.998,1.302 -9.506,6.664 -13.076,10.64 -9.338,9.59 -13.832,22.4 -23.884,36.96 -1.26,1.596 -3.29,1.26 -5.432,0 a 229.194,229.194 0 0 1 -11.242,-9.884 c -16.044,5.096 -27.44,6.258 -43.484,11.368 6.342,1.806 8.022,4.41 14.392,6.216 6.762,-3.654 11.928,-0.784 14.266,5.558 6.398,4.34 6.482,9.1 3.71,14 -0.84,-3.416 0.994,-7.686 -9.408,-8.008 -8.736,1.862 -14.112,-1.008 -16.492,-8.232 -6.678,-2.1 -9.898,-3.43 -16.52,-5.558 -5.698,4.704 -14.28,5.74 -19.964,10.374 -0.644,7.056 -5.082,11.886 -16.884,8.876 -3.78,2.31 -5.852,5.978 -7.14,10.248 -0.756,-4.676 0.07,-9.156 1.848,-13.524 2.324,-10.808 9.24,-15.904 22.484,-12.124 3.248,-2.772 7.7,-4.242 10.934,-7 -8.82,-0.56 -16.772,-1.036 -25.592,-1.568 -4.536,4.116 -10.5,5.292 -19.642,0 -2.184,-2.254 -5.362,-1.638 -10.416,0.434 3.22,-5.698 5.194,-5.796 9.884,-6.51 6.16,-7.238 13.02,-7.756 21.616,1.484 9.002,0.28 15.302,0.42 24.332,0.742 -4.844,-4.088 -7.42,-7.21 -12.25,-11.284 -7.434,2.352 -14.7,1.554 -17.85,-6.748 -2.422,-2.8 -5.096,-4.452 -11.242,-4.676 4.256,-3.556 7.798,-4.858 15.484,-1.316 11.34,-5.096 12.278,2.142 14.308,6.874 7.672,5.04 13.888,9.31 21.56,14.35 15.666,-4.564 28.378,-7.126 44.016,-11.676 -3.388,-3.514 -6.79,-6.72 -10.192,-10.248 -0.896,-2.968 0.672,-4.48 3.234,-4.942 25.298,-5.124 39.76,-15.12 48.566,-40.46 3.682,-10.612 -4.256,-13.762 -7,-7.28 -3.794,9.016 -7.938,18.914 -19.292,26.572 -3.92,2.646 -15.582,0.49 -8.708,-5.95 7.182,-5.712 10.22,-8.218 13.776,-22.19 0,-7.126 -7.406,-10.29 -11.55,-3.5 -4.382,13.944 -4.858,19.964 -12.81,28.924 -6.048,6.804 -13.958,11.368 -17.85,11.284 -7.084,-0.14 -14.168,-7.56 -4.732,-12.95 13.818,-5.404 18.9,-12.824 20.916,-19.866 2.226,-12.292 -0.196,-18.256 -7.784,-12.194 -10.78,11.942 -31.318,34.23 -42.042,44.576 -12.082,9.044 -25.9,9.338 -36.932,0.168 -6.3,-7.084 -4.06,-14.756 5.824,-13.076 22.26,1.848 39.144,-8.988 57.61,-38.192 3.668,-6.65 4.662,-16.086 -3.36,-9.058 -9.24,12.194 -22.666,22.596 -35.182,27.034 -12.516,4.438 -24.108,2.912 -26.908,-1.876 -4.634,-7.938 -3.584,-16.66 4.816,-13.776 6.888,2.366 16.618,2.968 26.74,-0.882 10.108,-3.85 20.608,-12.18 31.794,-26.292 3.822,-7.994 2.548,-14.756 -5.152,-10.64 -18.312,15.204 -41.916,27.496 -53.998,20.09 -8.848,-5.432 -9.016,-19.292 2.24,-18.424 22.68,3.08 31.262,-1.876 53.018,-20.692 4.984,-3.612 4.62,-12.754 -3.234,-6.916 -18.34,11.536 -43.33,16.044 -53.158,10.024 -8.834,-5.418 -7.532,-21.924 7.35,-16.058 11.886,7.07 25.06,6.86 51.408,-11.55 6.636,-5.376 1.68,-12.446 -3.766,-9.408 -21.182,11.816 -52.038,16.856 -60.116,-7.14 -3.08,-9.184 2.534,-14.532 10.85,-8.162 18.2,16.436 38.836,8.344 50.358,0.084 3.024,-0.126 9.422,-11.578 -1.26,-9.8 -27.608,6.188 -54.88,0.84 -59.808,-18.298 -2.912,-6.201998 2.758,-17.149998 12.81,-7.951998 13.272,12.795998 27.328,13.229998 44.94,13.117998 9.002,-1.82 9.072,-11.521998 1.568,-12.949998 -13.93,0.308 -27.692,-5.656 -38.71,-11.718 -10.738,-6.02 -19.684,-14.518 -22.498,-26.25 -1.736,-10.528 8.61,-21.686 14.882,-10.542 9.212,16.352 29.68,31.71 52.36,34.468 1.176,-1.932 4.2,-6.888 7.84,-5.516 13.356,5.068 31.822,13.566 47.04,21.98 3.29,1.82 -0.588,10.639998 -1.316,14.027998 -0.77,8.638 1.904,14.168 4.62,17.36 2.744,3.22 10.206,5.32 14.406,4.2 8.4,-2.24 12.922,-9.52 11.508,-22.47 -0.434,-1.372 -0.798,-7.602 -7.658,-15.707998 -3.444,-4.074 -8.26,-9.282 -15.932,-13.44 -7.644,-4.144 -19.222,-6.454 -33.152,-9.492 -8.484,-1.666 -12.782,-4.858 -13.3,-8.26 4.06,0.938 10.71,4.382 15.092,3.542 4.298,-0.84 6.482,-2.912 8.4,-4.116 -3.206,-0.672 -9.072,0.098 -14.308,0.084 -5.236,0 -9.856,-1.106 -12.95,-1.61 -6.44,-1.064 -11.55,-3.696 -14.616,-9.59 -1.316,-6.342 2.926,-7.49 6.916,-3.402 3.388,3.458 4.06,4.872 6.216,6.384 2.142,1.498 5.768,2.954 8.358,3.416 5.236,0.91 10.416,1.946 17.094,0.35 a 31.57,31.57 0 0 0 -7,-6.006 c -2.688,-1.652 -5.334,-2.464 -7.868,-2.044 -1.68,0.28 -3.878,1.778 -5.684,4.55 -1.12,-6.972 0.854,-14.812 19.81,-11.55 -0.252,-5.236 11.06,-7.518 17.85,-7.406 3.864,0.07 11.76,2.324 17.458,4.998 a 125.776,125.776 0 0 0 28.434,5.46 c -6.048,5.082 -7.238,5.376 -13.342,9.716 9.24,3.36 16.408,10.332 19.6,14.882 -8.064,0.378 -10.724,-0.294 -13.468,0.868 11.242,3.262 16.324,5.166 22.26,11.116 -2.1,0.378 -5.222,0.938 -6.552,1.442 -1.4,0.518 -0.812,1.232 0.14,2.24 2.562,1.596 12.432,13.215998 15.344,15.917998 2.912,-2.702 12.782,-14.321998 15.358,-15.931998 0.938,-0.994 1.512,-1.708 0.14,-2.24 -1.344,-0.49 -4.48,-1.05 -6.58,-1.428 5.95,-5.95 11.032,-7.854 22.274,-11.116 -2.73,-1.162 -5.404,-0.49 -13.468,-0.868 3.206,-4.55 10.36,-11.522 19.6,-14.882 -6.104,-4.34 -7.294,-4.62 -13.342,-9.716 a 125.776,125.776 0 0 0 28.42,-5.46 c 5.712,-2.66 13.608,-4.928 17.472,-4.998 z m -0.994,12.208 c -5.544,0 -8.96,1.904 -8.96,4.2 0,2.352 3.416,4.242 8.96,4.242 5.516,0 9.016,-2.072 9.016,-4.41 0,-2.31 -3.5,-4.032 -9.016,-4.032 z m -137.732,0 c -5.516,0 -9.002,1.722 -9.016,4.032 0,2.338 3.5,4.41 9.016,4.41 5.544,0 8.96,-1.89 8.96,-4.242 0,-2.296 -3.416,-4.2 -8.96,-4.2 z" fill-rule="evenodd"/><path d="M 930,670 V 530 H -50 v 140 z" fill="#e41e20"/></svg>