<?xml version="1.0" encoding="UTF-8" standalone="no"?>
<!-- Created with Inkscape (http://www.inkscape.org/) -->

<svg
   xmlns:dc="http://purl.org/dc/elements/1.1/"
   xmlns:cc="http://creativecommons.org/ns#"
   xmlns:rdf="http://www.w3.org/1999/02/22-rdf-syntax-ns#"
   xmlns:svg="http://www.w3.org/2000/svg"
   xmlns="http://www.w3.org/2000/svg"
   xmlns:sodipodi="http://sodipodi.sourceforge.net/DTD/sodipodi-0.dtd"
   xmlns:inkscape="http://www.inkscape.org/namespaces/inkscape"
   version="1.0"
   width="1000"
   height="500"
   id="svg2"
   inkscape:version="0.92.4 (5da689c313, 2019-01-14)"
   sodipodi:docname="Flag_of_the_Canadian_Army.svg">
  <sodipodi:namedview
     pagecolor="#ffffff"
     bordercolor="#666666"
     borderopacity="1"
     objecttolerance="10"
     gridtolerance="10"
     guidetolerance="10"
     inkscape:pageopacity="0"
     inkscape:pageshadow="2"
     inkscape:window-width="1600"
     inkscape:window-height="837"
     id="namedview12"
     showgrid="false"
     inkscape:zoom="0.882"
     inkscape:cx="376.41724"
     inkscape:cy="250"
     inkscape:window-x="-8"
     inkscape:window-y="-8"
     inkscape:window-maximized="1"
     inkscape:current-layer="svg2" />
  <defs
     id="defs4" />
  <metadata
     id="metadata7">
    <rdf:RDF>
      <cc:Work
         rdf:about="">
        <dc:format>image/svg+xml</dc:format>
        <dc:type
           rdf:resource="http://purl.org/dc/dcmitype/StillImage" />
        <dc:title />
      </cc:Work>
    </rdf:RDF>
  </metadata>
  <rect
     style="fill:#da291c;fill-opacity:1;fill-rule:nonzero;stroke:none"
     id="rect3314"
     y="-3.8146977e-06"
     x="0"
     height="500"
     width="1000" />
  <path
     style="fill:#ffff00;fill-opacity:1;stroke:none"
     id="path4431"
     d="m 0,0 0,254 504,0 0,-254 z"
     inkscape:connector-curvature="0"
     sodipodi:nodetypes="ccccc" />
  <path
     d="M 0,0 0,250 500,250 500,0 0,0 Z"
     id="path2049"
     style="fill:#da291c;fill-opacity:1;stroke:none"
     inkscape:connector-curvature="0" />
  <path
     d="M 125,0 H 375 V 250 H 125 Z m 129.6875,230.72915 -2.34375,-44.9479 a 4.9479166,4.9479166 0 0 1 5.78125,-5.10415 l 44.73958,7.86455 -6.04167,-16.66665 a 3.3854166,3.3854166 0 0 1 1.04167,-3.8021 l 49.01042,-39.6875 -11.04167,-5.15625 a 3.3854166,3.3854166 0 0 1 -1.77083,-4.11455 l 9.6875,-29.7917 -28.22917,5.9896 a 3.3854166,3.3854166 0 0 1 -3.80208,-1.97915 L 306.25,80.46875 284.21875,104.1146 a 3.3854166,3.3854166 0 0 1 -5.78125,-2.96875 l 10.625,-54.7917 -17.03125,9.84375 a 3.3854166,3.3854166 0 0 1 -4.73959,-1.40625 L 250,20.83335 232.70834,54.79165 a 3.3854166,3.3854166 0 0 1 -4.73959,1.40625 l -17.03125,-9.84375 10.625,54.7917 a 3.3854166,3.3854166 0 0 1 -5.78125,2.96875 L 193.75,80.46875 l -5.46875,12.8646 a 3.3854166,3.3854166 0 0 1 -3.80209,1.97915 L 156.25,89.3229 l 9.6875,29.7917 a 3.3854166,3.3854166 0 0 1 -1.77083,4.11455 l -11.04167,5.15625 49.01041,39.6875 a 3.3854166,3.3854166 0 0 1 1.04167,3.8021 l -6.04167,16.66665 44.73959,-7.86455 a 4.9479166,4.9479166 0 0 1 5.78125,5.10415 l -2.34375,44.9479 z"
     id="maple leaf"
     style="fill:#ffffff"
     inkscape:connector-curvature="0" />
  <path
     inkscape:connector-curvature="0"
     style="fill:#ffffff"
     d="m 754.04688,60.10156 c -0.44245,-0.0786 -0.8195,0.3741 -1.52149,1.28906 -0.79782,1.03985 -2.18018,5.31485 -3.07031,9.5 -3.24714,15.26717 -6.13538,21.77837 -8.58789,19.35938 -0.69703,-0.6875 -2.18891,-1.24137 -3.31641,-1.23047 -1.67796,0.0163 -2.85119,2.05797 -6.46094,11.25 -2.42555,6.17656 -5.39489,14.1321 -6.59961,17.67969 -1.20471,3.54759 -2.66557,6.60922 -3.24609,6.80273 -0.58053,0.19351 -2.68841,-1.08218 -4.68359,-2.83398 -1.99518,-1.75179 -3.8803,-2.93026 -4.18946,-2.62109 -1.04031,1.04031 -4.33174,14.88963 -6.43945,27.09374 -2.70972,15.68989 -2.5542,15.24284 -4.70312,13.39844 -5.47151,-4.69617 -7.73593,-2.50378 -8.67579,8.39844 -0.93269,10.81885 -2.15963,17.17937 -4.09961,21.26758 l -1.56835,3.30859 -4.84766,-1.84179 c -2.66621,-1.01309 -11.52892,-3.20216 -19.69336,-4.86524 -8.16444,-1.66309 -16.41652,-3.48212 -18.33789,-4.04102 C 639.1884,180.61433 639,180.67091 639,183.5 c 0,1.375 -0.92862,3.42862 -2.06445,4.56445 -2.20955,2.20955 -5.77491,2.02767 -10.93555,-0.55859 -1.375,-0.68909 -3.57869,-1.58496 -4.89648,-1.99219 -2.32162,-0.71743 -2.37595,-0.61376 -1.74219,3.34961 l 0.65429,4.08984 -3.25781,-0.5664 c -5.8804,-1.02298 -13.86273,-3.45807 -19.48242,-5.94336 C 594.23758,185.09989 591.35656,184 590.875,184 c -1.74591,0 -0.78171,2.92048 4.125,12.5 2.75,5.3689 5,11.10051 5,12.73633 0,2.86682 -0.14442,2.95949 -4,2.59179 -2.52499,-0.2408 -4,0.0351 -4,0.7461 0,1.8381 5.34476,8.50897 11.95703,14.92578 5.68092,5.51299 13.04297,14.45968 13.04297,15.84961 0,0.31987 -2.25,0.87934 -5,1.24414 -2.75,0.3648 -5,0.99542 -5,1.40039 0,1.56588 4.20213,5.96559 7.76562,8.13086 2.05349,1.24775 3.95938,2.55656 4.23438,2.9082 0.275,0.35164 2.75,1.92602 5.5,3.49805 10.42017,5.95667 13.43703,9.41968 12.66992,14.53906 -0.14303,0.95456 3.03285,3.97314 8.10156,7.70313 4.58449,3.37367 9.13845,7.0216 10.1211,8.10742 1.73368,1.9157 1.6959,2.02168 -1.29883,3.57031 -1.69741,0.87777 -6.57539,2.88782 -10.83984,4.4668 C 633.57644,302.50121 630,304.13651 630,304.97656 c 0,0.36044 1.88817,1.71698 4.19531,3.01367 4.16203,2.33919 4.1757,2.36496 1.75,3.36719 -1.34464,0.55556 -6.84639,3.15155 -12.22656,5.76953 -5.38017,2.61798 -11.79267,5.06119 -14.25,5.42969 -3.80753,0.57097 -4.46875,1.01211 -4.46875,2.98047 0,3.67596 -4.30497,7.83054 -13.4043,12.9375 -7.81648,4.387 -13.52847,8.92662 -12.51172,9.94336 0.23413,0.23413 4.02467,1.41819 8.42188,2.63086 4.39721,1.21268 11.03556,3.06198 14.75195,4.10937 l 6.75586,1.9043 -2.14062,2.89648 c -1.17797,1.59329 -1.89629,3.53704 -1.59571,4.32032 0.8779,2.28778 10.14168,2.76604 23.22266,1.19922 6.6,-0.79054 14.66546,-1.44554 17.92383,-1.45704 l 5.92383,-0.0215 -2.17383,2.31445 C 648.97796,367.5874 648,369.00707 648,369.46875 c 0,0.46169 8.38049,0.5747 18.62305,0.25195 l 18.62304,-0.58593 -2.62304,2.73632 c -3.28218,3.42586 -3.44862,6.1421 -0.37305,6.0918 3.43699,-0.0561 13.79081,-2.33506 29.25,-6.4375 16.27873,-4.31993 26.2668,-4.93012 33.30469,-2.03516 l 4.30664,1.77149 -0.64844,5.61914 c -2.04496,17.73509 -8.91015,35.05327 -17.40039,43.89258 -2.73385,2.84625 -2.10869,5.10348 2.61523,9.45117 1.95726,1.80138 4.06688,3.80314 4.68946,4.44922 1.71944,1.78433 7.24969,-4.79302 11.30664,-13.44922 1.87556,-4.00184 6.24013,-17.16336 9.69922,-29.24805 3.45908,-12.08469 6.57125,-22.25288 6.91406,-22.5957 0.34282,-0.34281 6.83065,0.55289 14.41797,1.99219 12.81976,2.43188 26.20459,4.51023 39.17578,6.08007 5.75499,0.69651 5.81594,0.61538 3.62891,-4.69531 -1.19215,-2.89485 1.95408,-3.17897 14.35742,-1.29883 6.39773,0.96979 12.98281,1.60094 14.63281,1.40235 3.16223,-0.38061 3.52138,-1.63409 1.93359,-6.75781 -0.69084,-2.22933 -0.54047,-2.35062 2.16211,-1.75782 14.30255,3.13718 44.60947,0.46103 40.56641,-3.58203 -2.53313,-2.53313 -0.8977,-3.78765 8.91406,-6.83594 5.54205,-1.72178 11.82858,-4.12699 13.97071,-5.34375 l 3.89648,-2.21093 -4.85547,-2.05078 c -2.66952,-1.12784 -8.48874,-4.68177 -12.93359,-7.89649 -8.07252,-5.83842 -8.07979,-5.84567 -6.02735,-7.75781 2.66189,-2.47993 1.35906,-3.79664 -6.12695,-6.19141 -3.025,-0.96769 -10.16942,-3.79451 -15.87695,-6.28125 l -10.37696,-4.52148 3.44727,-1.76953 c 6.80137,-3.48931 6.7085,-4.47645 -0.74805,-7.85742 C 866.7486,300.37071 863.51788,299 863.26758,299 861.94957,299 850,290.41033 850,289.46289 c 0,-1.49922 3.5393,-4.62894 9,-7.95898 4.82137,-2.94017 10,-7.40501 10,-8.6211 0,-0.40885 -1.0125,-0.88675 -2.25,-1.0625 -2.19402,-0.3116 -2.17536,-0.3854 0.75,-2.97265 5.649,-4.99608 12.00388,-9.675 20.25,-14.90625 9.21088,-5.84329 10.36266,-7.94141 4.35742,-7.94141 -6.93833,0 -5.88965,-2.06983 7.58008,-14.94531 6.92506,-6.61955 14.54072,-13.50218 16.92188,-15.29492 4.94595,-3.72376 5.38418,-4.75977 2.01367,-4.75977 -6.30733,0 -6.19159,-8.85872 0.25586,-19.52539 4.18157,-6.918 4.19633,-6.97638 1.84375,-7.27344 -1.30446,-0.16472 -8.5505,1.29778 -16.10157,3.25 -17.2769,4.46668 -17.80137,4.48579 -16.33007,0.58789 0.61488,-1.62901 0.8011,-3.27897 0.41406,-3.66601 -0.38704,-0.38704 -5.09002,0.27262 -10.45313,1.46679 -12.49195,2.7815 -18.16295,2.80499 -21.61718,0.0879 C 855.1856,184.78781 854,183.15656 854,182.30273 c 0,-1.22208 -0.69156,-1.40972 -3.25,-0.88281 -22.13242,4.55819 -34.25073,6.39179 -34.96094,5.29102 -1.61055,-2.49625 -2.8533,-8.52741 -3.85351,-18.71094 -0.56722,-5.775 -1.23437,-11.09753 -1.48243,-11.82812 -0.29617,-0.87234 -1.73255,-1.21564 -4.18554,-1 -3.64851,0.32072 -3.75267,0.23515 -4.44531,-3.67188 -5.99836,-33.83547 -5.91581,-33.5 -8.27149,-33.5 -1.23292,0 -3.05529,0.9 -4.05078,2 -1.86099,2.05637 -4.01289,2.59667 -4.86328,1.2207 -0.26496,-0.42871 -2.36978,-7.74121 -4.67578,-16.25 -2.306,-8.50878 -4.51203,-15.82173 -4.9043,-16.25 -0.39228,-0.42827 -1.87449,0.13423 -3.29297,1.25 -4.76743,3.75006 -4.54867,4.04966 -10.21484,-13.9707 -1.98878,-6.325 -4.50736,-12.625 -5.59571,-14 -0.95763,-1.20986 -1.4638,-1.81982 -1.90624,-1.89844 z"
     id="path4423" />
  <path
     style="fill:#0f2e5e;fill-opacity:1;fill-rule:evenodd;stroke:none;stroke-width:0.09324305;stroke-linecap:butt;stroke-linejoin:miter;stroke-miterlimit:4;stroke-dasharray:none;stroke-opacity:1"
     d="m 830.03362,312.13352 -172.08538,-108.04146 -7.66826,0.24745 3.06437,7.0227 170.8546,109.98504 z"
     id="path42978"
     inkscape:connector-curvature="0"
     sodipodi:nodetypes="cccccc" />
  <path
     style="fill:#ffffff;fill-opacity:1;fill-rule:evenodd;stroke:none;stroke-width:0.09324305;stroke-linecap:butt;stroke-linejoin:miter;stroke-miterlimit:4;stroke-dasharray:none;stroke-opacity:1"
     d="m 650.27998,204.33951 3.06437,7.0227 170.8546,109.98504 2.91732,-4.60683 z"
     id="path42980"
     inkscape:connector-curvature="0"
     sodipodi:nodetypes="ccccc" />
  <path
     sodipodi:nodetypes="cc"
     inkscape:connector-curvature="0"
     id="path42982"
     d="M 650.73827,204.62149 826.7597,316.51453"
     style="fill:none;fill-rule:evenodd;stroke:#000000;stroke-width:0.71274137;stroke-linecap:butt;stroke-linejoin:miter;stroke-miterlimit:4;stroke-dasharray:none;stroke-opacity:1" />
  <path
     sodipodi:nodetypes="cccccc"
     inkscape:connector-curvature="0"
     id="path42984"
     d="m 830.03362,312.13352 -172.08538,-108.04146 -7.66826,0.24745 3.06437,7.0227 170.8546,109.98504 z"
     style="fill:none;fill-rule:evenodd;stroke:#000000;stroke-width:0.71274137;stroke-linecap:butt;stroke-linejoin:miter;stroke-miterlimit:4;stroke-dasharray:none;stroke-opacity:1" />
  <path
     sodipodi:nodetypes="cccscccccccccscccccccc"
     inkscape:connector-curvature="0"
     id="path42970"
     d="m 838.11528,330.5337 c 0.6824,0.58334 1.50891,0.86751 2.43369,0.90724 1.16889,0.88857 2.57493,1.21533 4.28622,0.8122 2.37822,0.10758 4.23596,-0.50663 5.1182,-1.8998 0.85156,-1.34473 0.65852,-3.20069 -0.35769,-5.22008 -0.27701,-1.1928 -0.75605,-2.36262 -1.85088,-2.79263 -0.58239,-1.27084 -1.15182,-1.49429 -1.80434,-1.95073 -0.43214,-0.51714 -0.55762,-0.99271 -1.76996,-1.56167 -0.56415,-0.8499 -1.30825,-1.48154 -2.33816,-1.70995 -0.63263,-0.77897 -1.41578,-1.4829 -2.72964,-1.61143 -0.59804,-0.7734 -1.39133,-1.18276 -2.43193,-1.12973 -0.58976,-0.99958 -1.53582,-1.11029 -2.57667,-0.88435 -0.90352,-0.74253 -2.0325,-0.91796 -3.30518,-0.59663 -2.52746,-0.17739 -4.50979,0.4282 -5.43027,1.88177 -0.91875,1.45083 -0.62153,3.49684 0.61362,5.70116 0.33908,0.60515 0.7489,1.22223 1.22365,1.84224 0.29161,1.17245 1.04351,1.76778 1.96509,2.21445 0.32467,0.91049 0.92544,1.45179 1.79767,1.61825 0.54295,0.94367 1.21977,1.74928 2.41532,1.78863 0.76581,0.54883 0.67364,1.08605 2.52618,1.51808 0.85264,0.88991 1.52754,0.94603 2.21524,1.07273 z"
     style="fill:#ffdb22;fill-opacity:1;stroke:#000000;stroke-width:0.71274143;stroke-linejoin:miter;stroke-miterlimit:4;stroke-dasharray:none;stroke-dashoffset:0;stroke-opacity:1" />
  <path
     d="m 834.17326,313.59704 c -0.76064,1.59909 -5.31877,7.70068 -7.10476,8.9689 m 9.69349,-8.0916 c -0.76063,1.59909 -5.93879,8.67979 -7.72478,9.94801 m 10.10816,-8.6673 c -0.76063,1.59909 -6.16521,8.9174 -7.9514,10.18549 m 10.58816,-8.74439 c -0.76063,1.59909 -6.35212,9.3325 -8.13812,10.60072 m 10.56817,-8.83322 c -0.76063,1.59909 -6.26852,9.08055 -8.05472,10.34864 m 9.87478,-8.73885 c -0.76063,1.59909 -5.92408,8.53663 -7.71028,9.80472 m 9.39256,-7.97736 c -0.76063,1.59909 -5.31876,7.70068 -7.10475,8.9689"
     style="fill:none;fill-rule:evenodd;stroke:#000000;stroke-width:0.71274143;stroke-linecap:butt;stroke-linejoin:miter;stroke-miterlimit:4;stroke-dasharray:none;stroke-opacity:1"
     id="path42972"
     inkscape:connector-curvature="0" />
  <path
     sodipodi:nodetypes="cccccccccc"
     inkscape:connector-curvature="0"
     id="path42986"
     d="m 830.91674,312.42789 2.00716,-15.71515 -9.41258,-0.6361 0.37483,12.75503 -5.86592,1.32251 1.31234,5.8682 -11.69078,5.1144 3.39919,8.04557 14.5484,-8.34184 z"
     style="fill:#ffdb22;fill-opacity:1;fill-rule:evenodd;stroke:#000000;stroke-width:0.71274137;stroke-linecap:butt;stroke-linejoin:miter;stroke-miterlimit:4;stroke-dasharray:none;stroke-opacity:1" />
  <circle
     r="5.8285875"
     cy="896.02087"
     cx="-175.61287"
     id="circle42990"
     style="fill:#ffdb22;fill-opacity:1;stroke:#000000;stroke-width:0.71274143;stroke-linejoin:miter;stroke-miterlimit:4;stroke-dasharray:none;stroke-dashoffset:0;stroke-opacity:1"
     transform="matrix(-0.53500637,0.84484803,0.84484803,0.53500637,0,0)" />
  <path
     inkscape:connector-curvature="0"
     id="path42992"
     d="m 847.73044,328.87833 a 1.0683725,1.0683725 0 0 1 1.43324,-0.27085 1.0683725,1.0683725 0 0 1 0.33026,1.47079 1.0683725,1.0683725 0 0 1 -1.47708,0.34019 1.0683725,1.0683725 0 0 1 -0.32402,-1.48075 1.0683725,1.0683725 0 0 1 0.0375,-0.0593 z m 3.86293,-0.86736 a 1.0683725,1.0683725 0 0 1 1.42701,-0.26102 1.0683725,1.0683725 0 0 1 0.33023,1.47084 1.0683725,1.0683725 0 0 1 -1.47079,0.33026 1.0683725,1.0683725 0 0 1 -0.33031,-1.47082 1.0683725,1.0683725 0 0 1 0.044,-0.0694 z m -2.99551,4.73032 a 1.0683725,1.0683725 0 0 1 1.43327,-0.2709 1.0683725,1.0683725 0 0 1 0.33022,1.47084 1.0683725,1.0683725 0 0 1 -1.47078,0.33026 1.0683725,1.0683725 0 0 1 -0.33032,-1.47082 1.0683725,1.0683725 0 0 1 0.0376,-0.0593 z m 3.81542,-0.81432 a 1.0683725,1.0683725 0 0 1 1.47084,-0.33023 1.0683725,1.0683725 0 0 1 0.34019,1.47708 1.0683725,1.0683725 0 0 1 -1.487,0.3339 1.0683725,1.0683725 0 0 1 -0.32403,-1.48075 z"
     style="fill:#ffdb22;fill-opacity:1;stroke:#000000;stroke-width:0.71274143;stroke-linejoin:miter;stroke-miterlimit:4;stroke-dasharray:none;stroke-dashoffset:0;stroke-opacity:1" />
  <path
     sodipodi:nodetypes="cccccc"
     inkscape:connector-curvature="0"
     id="path4287"
     d="m 675.24508,312.13352 172.08538,-108.04146 7.66826,0.24745 -3.06437,7.0227 -170.8546,109.98504 z"
     style="fill:#ffffff;fill-rule:evenodd;stroke:none;stroke-width:0.09324305;stroke-linecap:butt;stroke-linejoin:miter;stroke-miterlimit:4;stroke-dasharray:none;stroke-opacity:1" />
  <path
     sodipodi:nodetypes="ccccc"
     inkscape:connector-curvature="0"
     id="path4289"
     d="m 854.99872,204.33951 -3.06437,7.0227 -170.8546,109.98504 -2.91732,-4.60683 z"
     style="fill:#0f2e5e;fill-opacity:1;fill-rule:evenodd;stroke:none;stroke-width:0.09324305;stroke-linecap:butt;stroke-linejoin:miter;stroke-miterlimit:4;stroke-dasharray:none;stroke-opacity:1" />
  <path
     style="fill:none;fill-rule:evenodd;stroke:#000000;stroke-width:0.71274137;stroke-linecap:butt;stroke-linejoin:miter;stroke-miterlimit:4;stroke-dasharray:none;stroke-opacity:1"
     d="M 854.54043,204.62149 678.519,316.51453"
     id="path4291"
     inkscape:connector-curvature="0"
     sodipodi:nodetypes="cc" />
  <path
     style="fill:none;fill-rule:evenodd;stroke:#000000;stroke-width:0.71274137;stroke-linecap:butt;stroke-linejoin:miter;stroke-miterlimit:4;stroke-dasharray:none;stroke-opacity:1"
     d="m 675.24508,312.13352 172.08538,-108.04146 7.66826,0.24745 -3.06437,7.0227 -170.8546,109.98504 z"
     id="path4293"
     inkscape:connector-curvature="0"
     sodipodi:nodetypes="cccccc" />
  <path
     style="fill:#ffdb22;fill-opacity:1;stroke:#000000;stroke-width:0.71274143;stroke-linejoin:miter;stroke-miterlimit:4;stroke-dasharray:none;stroke-dashoffset:0;stroke-opacity:1"
     d="m 667.16342,330.5337 c -0.6824,0.58334 -1.50891,0.86751 -2.43369,0.90724 -1.16889,0.88857 -2.57493,1.21533 -4.28622,0.8122 -2.37822,0.10758 -4.23596,-0.50663 -5.1182,-1.8998 -0.85156,-1.34473 -0.65852,-3.20069 0.35769,-5.22008 0.27701,-1.1928 0.75605,-2.36262 1.85088,-2.79263 0.58239,-1.27084 1.15182,-1.49429 1.80434,-1.95073 0.43214,-0.51714 0.55762,-0.99271 1.76996,-1.56167 0.56415,-0.8499 1.30825,-1.48154 2.33816,-1.70995 0.63263,-0.77897 1.41578,-1.4829 2.72964,-1.61143 0.59804,-0.7734 1.39133,-1.18276 2.43193,-1.12973 0.58976,-0.99958 1.53582,-1.11029 2.57667,-0.88435 0.90352,-0.74253 2.0325,-0.91796 3.30518,-0.59663 2.52746,-0.17739 4.50979,0.4282 5.43027,1.88177 0.91875,1.45083 0.62153,3.49684 -0.61362,5.70116 -0.33908,0.60515 -0.7489,1.22223 -1.22365,1.84224 -0.29161,1.17245 -1.04351,1.76778 -1.96509,2.21445 -0.32467,0.91049 -0.92544,1.45179 -1.79767,1.61825 -0.54295,0.94367 -1.21977,1.74928 -2.41532,1.78863 -0.76581,0.54883 -0.67364,1.08605 -2.52618,1.51808 -0.85264,0.88991 -1.52754,0.94603 -2.21524,1.07273 z"
     id="path4299"
     inkscape:connector-curvature="0"
     sodipodi:nodetypes="cccscccccccccscccccccc" />
  <path
     inkscape:connector-curvature="0"
     id="path4301"
     style="fill:none;fill-rule:evenodd;stroke:#000000;stroke-width:0.71274143;stroke-linecap:butt;stroke-linejoin:miter;stroke-miterlimit:4;stroke-dasharray:none;stroke-opacity:1"
     d="m 671.10544,313.59704 c 0.76064,1.59909 5.31877,7.70068 7.10476,8.9689 m -9.69349,-8.0916 c 0.76063,1.59909 5.93879,8.67979 7.72478,9.94801 m -10.10816,-8.6673 c 0.76063,1.59909 6.16521,8.9174 7.9514,10.18549 m -10.58816,-8.74439 c 0.76063,1.59909 6.35212,9.3325 8.13812,10.60072 m -10.56817,-8.83322 c 0.76063,1.59909 6.26852,9.08055 8.05472,10.34864 m -9.87478,-8.73885 c 0.76063,1.59909 5.92408,8.53663 7.71028,9.80472 m -9.39256,-7.97736 c 0.76063,1.59909 5.31876,7.70068 7.10475,8.9689" />
  <path
     style="fill:#ffdb22;fill-opacity:1;fill-rule:evenodd;stroke:#000000;stroke-width:0.71274137;stroke-linecap:butt;stroke-linejoin:miter;stroke-miterlimit:4;stroke-dasharray:none;stroke-opacity:1"
     d="m 674.36197,312.42789 -2.00716,-15.71515 9.41258,-0.6361 -0.37483,12.75503 5.86592,1.32251 -1.31234,5.8682 11.69078,5.1144 -3.39919,8.04557 -14.5484,-8.34184 z"
     id="path4303"
     inkscape:connector-curvature="0"
     sodipodi:nodetypes="cccccccccc" />
  <circle
     style="fill:#ffdb22;fill-opacity:1;stroke:#000000;stroke-width:0.71274143;stroke-linejoin:miter;stroke-miterlimit:4;stroke-dasharray:none;stroke-dashoffset:0;stroke-opacity:1"
     id="circle4307"
     cx="629.72083"
     cy="-375.71085"
     r="5.8285875"
     transform="matrix(0.53500637,0.84484803,-0.84484803,0.53500637,0,0)" />
  <path
     style="fill:#ffdb22;fill-opacity:1;stroke:#000000;stroke-width:0.71274143;stroke-linejoin:miter;stroke-miterlimit:4;stroke-dasharray:none;stroke-dashoffset:0;stroke-opacity:1"
     d="m 657.54826,328.87833 a 1.0683725,1.0683725 0 0 0 -1.43324,-0.27085 1.0683725,1.0683725 0 0 0 -0.33026,1.47079 1.0683725,1.0683725 0 0 0 1.47708,0.34019 1.0683725,1.0683725 0 0 0 0.32402,-1.48075 1.0683725,1.0683725 0 0 0 -0.0375,-0.0593 z m -3.86293,-0.86736 a 1.0683725,1.0683725 0 0 0 -1.42701,-0.26102 1.0683725,1.0683725 0 0 0 -0.33023,1.47084 1.0683725,1.0683725 0 0 0 1.47079,0.33026 1.0683725,1.0683725 0 0 0 0.33031,-1.47082 1.0683725,1.0683725 0 0 0 -0.044,-0.0694 z m 2.99551,4.73032 a 1.0683725,1.0683725 0 0 0 -1.43327,-0.2709 1.0683725,1.0683725 0 0 0 -0.33022,1.47084 1.0683725,1.0683725 0 0 0 1.47078,0.33026 1.0683725,1.0683725 0 0 0 0.33032,-1.47082 1.0683725,1.0683725 0 0 0 -0.0376,-0.0593 z m -3.81542,-0.81432 a 1.0683725,1.0683725 0 0 0 -1.47084,-0.33023 1.0683725,1.0683725 0 0 0 -0.34019,1.47708 1.0683725,1.0683725 0 0 0 1.487,0.3339 1.0683725,1.0683725 0 0 0 0.32403,-1.48075 z"
     id="path4309"
     inkscape:connector-curvature="0" />
  <path
     inkscape:connector-curvature="0"
     style="color:#000000;font-style:normal;font-variant:normal;font-weight:normal;font-stretch:normal;font-size:medium;line-height:normal;font-family:sans-serif;text-indent:0;text-align:start;text-decoration:none;text-decoration-line:none;text-decoration-style:solid;text-decoration-color:#000000;letter-spacing:normal;word-spacing:normal;text-transform:none;direction:ltr;block-progression:tb;writing-mode:lr-tb;baseline-shift:baseline;text-anchor:start;white-space:normal;clip-rule:nonzero;display:inline;overflow:visible;visibility:visible;opacity:1;isolation:auto;mix-blend-mode:normal;color-interpolation:sRGB;color-interpolation-filters:linearRGB;solid-color:#000000;solid-opacity:1;fill:#da291c;fill-opacity:1;fill-rule:evenodd;stroke:#000000;stroke-width:0.71274137;stroke-linecap:butt;stroke-linejoin:miter;stroke-miterlimit:4;stroke-dasharray:none;stroke-dashoffset:0;stroke-opacity:1;color-rendering:auto;image-rendering:auto;shape-rendering:auto;text-rendering:auto;enable-background:accumulate"
     d="m 752.58921,203.3265 c -0.0762,-0.006 -0.15563,-0.003 -0.23805,0.0111 0,0 -1.03327,0.0833 -1.4046,3.22126 -0.2686,2.26986 -1.88249,5.53702 -3.40223,5.61701 -1.44983,0.0763 -2.48164,-4.91109 -3.4579,-1.98231 0,0 -0.28321,2.86941 0.10162,6.84343 0.38483,3.97401 0.29994,8.7685 -0.63061,9.20577 -1.97616,0.92863 -3.34572,-1.86837 -4.99337,-3.45929 -1.78211,-1.72076 -4.79611,-2.94675 -4.24025,-1.46447 0,0 0.20007,1.52693 -0.74476,1.81527 -2.93075,0.89439 -4.81536,-5.14641 -6.85735,-3.49828 -1.65774,1.33798 2.53223,3.17224 2.02686,4.84998 -0.46872,1.55606 -0.98587,0.98463 -0.93826,1.93359 0.15877,3.1649 4.7631,4.77009 3.26441,9.29209 -0.7423,2.23976 -5.49591,0.77399 -5.49591,0.77399 -1.53154,0.62529 1.25617,3.07635 4.12472,4.90706 2.55095,1.62802 5.53352,3.02283 3.90476,3.85186 -1.12006,0.57011 -3.42571,1.2726 -2.68253,1.63569 0,0 1.7092,1.1626 3.74051,1.34196 2.31087,0.20406 5.32822,-0.94814 6.64436,0.18653 4.58808,3.95548 7.59747,1.04885 8.43596,1.70529 0.0655,0.0648 -0.11813,1.10057 -0.0988,2.25377 0.0968,5.78827 1.34149,23.55108 1.16655,32.96708 -0.0167,0.89585 -1.35089,1.74494 -1.2626,2.63659 0.0808,0.81603 1.5104,1.33917 1.5104,1.33917 0,0 -1.59172,0.6688 -1.722,1.39625 -0.22713,1.26821 1.91945,2.03831 1.97118,3.32566 0.0989,2.46158 0.0796,5.47928 -0.006,8.70881 -5.57924,-9.27142 -19.96124,-22.46137 -44.38207,-29.91426 0,0 -0.87745,-0.20583 -0.34801,-0.70717 0.67555,-0.6397 1.76638,-2.15501 2.03382,-3.95071 0.64501,-4.33089 -1.15181,-6.02358 -1.36841,-7.88888 -0.37605,-3.24339 2.59985,-6.50205 1.39207,-8.35244 -0.98324,-1.50635 -2.78273,3.17455 -4.51728,2.69784 -3.74395,-1.02894 -7.17057,-11.29388 -7.17057,-11.29388 -1.20302,-0.3655 -0.54646,4.41641 -1.99623,4.50475 -2.38602,0.14536 -2.05758,-2.59651 -3.73493,-3.00967 -0.78348,-0.19325 -1.42012,0.30869 -2.02129,0.004 -1.90124,-0.96302 -2.02655,-6.38738 -3.77113,-5.1632 -1.47293,1.03355 -0.87336,7.63953 -0.85334,7.99329 0.0747,1.3211 -2.47595,-0.14145 -3.02497,1.03431 0.65042,3.36056 4.49959,7.239 3.86161,9.17236 -0.50341,1.52558 -2.53314,0.22675 -3.91172,-0.0362 -0.81447,-0.15537 -1.73055,0.22356 -2.20922,0.0362 -2.92055,-1.14322 -6.00749,-2.19755 -10.36678,-2.57255 -2.67866,0.0595 1.21561,2.32476 1.45611,3.66115 0.52629,2.92462 -9.09074,-0.69261 -9.43686,1.95865 0,0 -0.22031,1.01411 2.67417,2.28161 2.09375,0.91685 4.75029,3.4102 4.38504,4.88757 -0.34846,1.4094 -5.41959,0.94714 -2.90109,2.73264 0,0 2.66188,1.10478 6.57615,1.89182 3.91427,0.78705 8.4774,2.26225 8.62529,3.27973 0.31404,2.16075 -2.75969,2.65712 -4.76089,3.77112 -2.16451,1.20493 -4.21506,3.73287 -2.6352,3.63193 0,0 1.51873,0.25248 1.52015,1.24033 0.004,3.06417 -6.32193,3.11171 -5.3386,5.54463 0.79829,1.9751 3.77026,-1.50025 5.22863,-0.52899 1.3526,0.90083 0.6554,1.22858 1.57722,1.45889 3.07437,0.76812 5.94953,-3.1717 9.84056,-0.42319 1.92725,1.36135 -0.85751,5.48477 -0.85751,5.48477 0.15306,1.64717 3.30849,-0.30718 5.89403,-2.51965 2.29928,-1.96752 4.50241,-4.41651 4.82214,-2.6171 0.21989,1.23743 0.22029,3.64861 0.78374,3.04307 0,0 1.60998,-1.2978 2.37209,-3.18924 0.86703,-2.15176 0.96104,-4.99996 2.11038,-6.3033 1.67357,-1.89785 6.09656,-1.07476 5.49313,-7.35155 -0.0759,-0.78891 -1.33768,-2.15669 0.0403,-1.8779 18.20963,4.40665 31.72167,15.50134 40.95757,27.47953 2.29531,2.97682 0.16914,6.44632 3.66393,7.54781 -0.52251,10.70815 -1.3917,21.17761 -1.18743,21.17761 l 6.37987,0 c 0.20437,0 -1.0651,-10.47942 -1.87513,-21.19292 3.42263,-1.11926 1.32563,-4.57033 3.60965,-7.5325 9.23589,-11.97819 22.74794,-23.07288 40.95757,-27.47953 1.37805,-0.27879 0.11761,1.08899 0.0418,1.8779 -0.60343,6.27679 3.81955,5.4537 5.49312,7.35155 1.14934,1.30334 1.24336,4.15154 2.11039,6.3033 0.76211,1.89144 2.37209,3.18924 2.37209,3.18924 0.56345,0.60554 0.56385,-1.80564 0.78374,-3.04307 0.31973,-1.79941 2.52147,0.64958 4.82075,2.6171 2.58554,2.21247 5.74236,4.16682 5.89542,2.51965 0,0 -2.78476,-4.12342 -0.85751,-5.48477 3.89103,-2.74851 6.76479,1.19131 9.83917,0.42319 0.92181,-0.23031 0.22462,-0.55806 1.57721,-1.45889 1.45838,-0.97126 4.43174,2.50409 5.23003,0.52899 0.98333,-2.43292 -5.34356,-2.48046 -5.33999,-5.54463 10e-4,-0.98785 1.52014,-1.24033 1.52014,-1.24033 1.57986,0.10094 -0.46929,-2.427 -2.6338,-3.63193 -2.0012,-1.114 -5.07494,-1.61037 -4.76089,-3.77112 0.14789,-1.01748 4.71102,-2.49268 8.62528,-3.27973 3.91427,-0.78704 6.57616,-1.89182 6.57616,-1.89182 2.5185,-1.7855 -2.55402,-1.32324 -2.90248,-2.73264 -0.36526,-1.47737 2.29268,-3.97072 4.38643,-4.88757 2.89447,-1.2675 2.67278,-2.28161 2.67278,-2.28161 -0.34612,-2.65126 -9.96176,0.96597 -9.43547,-1.95865 0.2405,-1.33639 4.13337,-3.60164 1.45471,-3.66115 -4.35928,0.375 -7.44484,1.42933 -10.36538,2.57255 -0.47867,0.18737 -1.39475,-0.19156 -2.20922,-0.0362 -1.37858,0.26293 -3.40831,1.56177 -3.91172,0.0362 -0.63799,-1.93336 3.21119,-5.8118 3.86161,-9.17236 -0.54902,-1.17576 -3.1011,0.28679 -3.02637,-1.03431 0.02,-0.35376 0.62098,-6.95974 -0.85195,-7.99329 -1.74458,-1.22418 -1.86988,4.20018 -3.77112,5.1632 -0.60117,0.30451 -1.2392,-0.19743 -2.02268,-0.004 -1.67735,0.41316 -1.34752,3.15503 -3.73354,3.00967 -1.44978,-0.0883 -0.79321,-4.87025 -1.99623,-4.50475 0,0 -3.42662,10.26494 -7.17057,11.29388 -1.73455,0.47671 -3.53404,-4.20419 -4.51728,-2.69784 -1.20778,1.85039 1.76673,5.10905 1.39068,8.35244 -0.2166,1.8653 -2.01204,3.55799 -1.36702,7.88888 0.26744,1.7957 1.35688,3.31101 2.03243,3.95071 0.52944,0.50134 -0.34662,0.70717 -0.34662,0.70717 -24.59068,7.50473 -39.00706,20.82866 -44.5018,30.10915 -0.15579,-3.3028 -0.22059,-6.39307 -0.11971,-8.9037 0.0517,-1.28735 3.17275,-2.05745 2.94562,-3.32566 -0.13028,-0.72745 -2.69644,-1.39625 -2.69644,-1.39625 0,0 2.40403,-0.52314 2.48484,-1.33917 0.0883,-0.89165 -2.22038,-1.74074 -2.23706,-2.63659 -0.17493,-9.416 -0.6324,-30.09659 -0.67376,-35.76932 0,0 2.50833,1.96836 5.71167,1.49369 4.33148,-0.64111 5.42792,-2.85181 7.14969,-3.60129 2.99401,-1.30268 6.97762,0.59659 8.39699,-1.09695 1.15548,-1.37868 -3.84691,-1.73904 -3.89502,-3.53726 -0.10387,-3.88137 8.72273,-10.14404 8.72273,-10.14403 0,-1.25732 -4.38578,0.76011 -4.89175,-0.60139 -0.8327,-2.2407 1.88808,-2.72265 1.79578,-4.44767 -0.0431,-0.80571 -0.70962,-1.26985 -0.59303,-1.93358 0.36874,-2.09909 5.52198,-3.79556 3.84352,-5.10891 -1.4171,-1.10887 -7.56179,1.38563 -7.89445,1.50762 -1.24232,0.45555 -0.58496,-2.40993 -1.86955,-2.59344 -3.02636,1.59925 -5.61967,6.40878 -7.65502,6.36038 -1.60605,-0.0382 -0.95195,-2.35754 -1.10112,-3.75302 -0.0881,-0.82445 -0.71807,-1.59096 -0.67794,-2.10343 0.24484,-3.12676 0.35718,-6.38603 -0.55126,-10.66606 -0.83564,-2.54568 -1.87188,1.83702 -3.08066,2.45561 -2.56265,1.31145 -2.01821,-8.26893 -4.37946,-8.46937 z"
     id="path4356" />
  <path
     style="color:#000000;font-style:normal;font-variant:normal;font-weight:normal;font-stretch:normal;font-size:medium;line-height:normal;font-family:sans-serif;text-indent:0;text-align:start;text-decoration:none;text-decoration-line:none;text-decoration-style:solid;text-decoration-color:#000000;letter-spacing:normal;word-spacing:normal;text-transform:none;direction:ltr;block-progression:tb;writing-mode:lr-tb;baseline-shift:baseline;text-anchor:start;white-space:normal;clip-rule:nonzero;display:inline;overflow:visible;visibility:visible;opacity:1;isolation:auto;mix-blend-mode:normal;color-interpolation:sRGB;color-interpolation-filters:linearRGB;solid-color:#000000;solid-opacity:1;fill:#000000;fill-opacity:1;fill-rule:evenodd;stroke:none;stroke-width:1px;stroke-linecap:butt;stroke-linejoin:miter;stroke-miterlimit:4;stroke-dasharray:none;stroke-dashoffset:0;stroke-opacity:1;color-rendering:auto;image-rendering:auto;shape-rendering:auto;text-rendering:auto;enable-background:accumulate"
     d="m 803.19877,272.34709 c -0.63444,-1.75161 -1.8193,-3.70607 -2.41879,-5.59785 -0.34608,-1.09097 -0.43959,-2.55722 -0.46015,-3.77079 -0.0205,-1.21355 0.39615,-2.14803 0.39615,-2.14803 0,0 0.0692,1.06905 0.0892,2.25234 0.02,1.1833 0.35452,2.50528 0.65423,3.45107 0.55939,1.76524 1.73786,3.71468 2.40984,5.57002 0.0435,0.11933 0.0748,0.23743 0.11143,0.35607 0.036,-0.0768 0.0606,-0.125 0.10769,-0.22909 0.18699,-0.41307 0.7424,-1.34994 1.07697,-2.127 0.66914,-1.55413 1.65102,-3.17486 2.70731,-5.63522 0.70111,-1.63306 1.44833,-3.32009 2.20478,-5.00584 -1.28285,-1.96618 -1.89094,-5.30203 -2.48505,-8.66614 1.18707,3.03882 1.80975,6.03528 2.8608,7.83332 1.40446,-3.10896 2.83387,-6.17059 4.1127,-8.7787 0.44732,-0.76479 0.95239,-1.89987 1.81577,-2.13486 -0.49712,0.85547 -0.60649,1.21998 -1.04964,1.87989 -0.93595,1.90883 -1.98747,4.19996 -3.04982,6.57142 2.29123,-0.55685 3.75202,-2.02229 5.59387,-3.80073 -0.69118,1.78154 -3.1167,4.0976 -5.96105,4.61471 -1.16811,2.62389 -2.34119,5.33028 -3.38769,7.76784 -1.05563,2.45885 -2.03686,4.07805 -2.70731,5.63522 -0.33085,0.76844 -0.87366,1.68666 -1.07157,2.11651 5.87134,-1.74375 12.79403,-3.99753 18.99769,-5.90295 2.39642,-2.28049 4.1172,-4.43147 5.23869,-6.0027 0.0981,1.6173 -1.64582,3.55003 -3.71394,5.53758 5.04207,-1.52693 9.45957,-2.75013 12.06651,-3.09228 -4.9516,2.05593 -10.19925,3.70875 -15.52381,5.25602 5.29941,-0.0274 8.63463,0.49563 10.35544,1.40692 -4.0258,-0.083 -6.31717,-0.86454 -13.05143,-0.63709 -4.68671,1.33247 -9.40162,2.62574 -14.00754,4.0684 3.96141,2.4146 9.24144,5.45799 13.78231,8.14885 3.36696,0.69597 6.85332,-0.23879 9.70086,1.24 -2.8447,-0.57509 -5.33158,-0.0656 -8.12923,-0.30333 3.43953,2.05765 6.2771,3.82748 7.38568,4.77382 -3.50825,-1.47836 -8.04161,-4.13385 -12.75189,-6.99439 0.0299,0.88732 0.31645,2.18238 0.70481,3.57664 0.47734,1.71375 1.08246,3.58967 1.09812,5.26922 -0.69932,-1.47179 -1.30218,-3.34355 -1.7852,-5.07766 -0.4529,-1.62586 -0.81069,-3.10345 -0.72186,-4.19845 -3.42448,-2.08615 -6.9002,-4.23146 -10.16296,-6.13166 0.2506,1.29368 0.25989,2.54754 0.5907,3.79024 0.46557,1.74906 1.86233,3.27493 2.44919,5.22838 0.24351,0.81068 -0.0175,2.3071 -0.0175,2.3071 0,0 -0.28094,-1.55332 -0.46477,-2.16528 -0.52287,-1.74036 -2.13003,-3.20854 -2.65657,-5.18661 -0.42204,-1.58546 -0.3757,-3.05287 -0.75397,-4.48494 -0.055,-0.20287 -0.11096,-0.39189 -0.1789,-0.58003 z"
     id="path4427"
     inkscape:connector-curvature="0"
     sodipodi:nodetypes="ccscssccssscccccccccsscccccccccccccccccccscccscc" />
  <path
     sodipodi:nodetypes="ccscssccssscccccccccsscccccccccccccccccccscccscc"
     inkscape:connector-curvature="0"
     id="path4437"
     d="m 702.0807,272.34709 c 0.63444,-1.75161 1.8193,-3.70607 2.41879,-5.59785 0.34608,-1.09097 0.43959,-2.55722 0.46015,-3.77079 0.0205,-1.21355 -0.39615,-2.14803 -0.39615,-2.14803 0,0 -0.0692,1.06905 -0.0892,2.25234 -0.02,1.1833 -0.35452,2.50528 -0.65423,3.45107 -0.55939,1.76524 -1.73786,3.71468 -2.40984,5.57002 -0.0435,0.11933 -0.0748,0.23743 -0.11143,0.35607 -0.036,-0.0768 -0.0606,-0.125 -0.10769,-0.22909 -0.18699,-0.41307 -0.7424,-1.34994 -1.07697,-2.127 -0.66914,-1.55413 -1.65102,-3.17486 -2.70731,-5.63522 -0.70111,-1.63306 -1.44833,-3.32009 -2.20478,-5.00584 1.28285,-1.96618 1.89094,-5.30203 2.48505,-8.66614 -1.18707,3.03882 -1.80975,6.03528 -2.8608,7.83332 -1.40446,-3.10896 -2.83387,-6.17059 -4.1127,-8.7787 -0.44732,-0.76479 -0.95239,-1.89987 -1.81577,-2.13486 0.49712,0.85547 0.60649,1.21998 1.04964,1.87989 0.93595,1.90883 1.98747,4.19996 3.04982,6.57142 -2.29123,-0.55685 -3.75202,-2.02229 -5.59387,-3.80073 0.69118,1.78154 3.1167,4.0976 5.96105,4.61471 1.16811,2.62389 2.34119,5.33028 3.38769,7.76784 1.05563,2.45885 2.03686,4.07805 2.70731,5.63522 0.33085,0.76844 0.87366,1.68666 1.07157,2.11651 -5.87134,-1.74375 -12.79403,-3.99753 -18.99769,-5.90295 -2.39642,-2.28049 -4.1172,-4.43147 -5.23869,-6.0027 -0.0981,1.6173 1.64582,3.55003 3.71394,5.53758 -5.04207,-1.52693 -9.45957,-2.75013 -12.06651,-3.09228 4.9516,2.05593 10.19925,3.70875 15.52381,5.25602 -5.29941,-0.0274 -8.63463,0.49563 -10.35544,1.40692 4.0258,-0.083 6.31717,-0.86454 13.05143,-0.63709 4.68671,1.33247 9.40162,2.62574 14.00754,4.0684 -3.96141,2.4146 -9.24144,5.45799 -13.78231,8.14885 -3.36696,0.69597 -6.85332,-0.23879 -9.70086,1.24 2.8447,-0.57509 5.33158,-0.0656 8.12923,-0.30333 -3.43953,2.05765 -6.2771,3.82748 -7.38568,4.77382 3.50825,-1.47836 8.04161,-4.13385 12.75189,-6.99439 -0.0299,0.88732 -0.31645,2.18238 -0.70481,3.57664 -0.47734,1.71375 -1.08246,3.58967 -1.09812,5.26922 0.69932,-1.47179 1.30218,-3.34355 1.7852,-5.07766 0.4529,-1.62586 0.81069,-3.10345 0.72186,-4.19845 3.42448,-2.08615 6.9002,-4.23146 10.16296,-6.13166 -0.2506,1.29368 -0.25989,2.54754 -0.5907,3.79024 -0.46557,1.74906 -1.86233,3.27493 -2.44919,5.22838 -0.24351,0.81068 0.0175,2.3071 0.0175,2.3071 0,0 0.28094,-1.55332 0.46477,-2.16528 0.52287,-1.74036 2.13003,-3.20854 2.65657,-5.18661 0.42204,-1.58546 0.3757,-3.05287 0.75397,-4.48494 0.055,-0.20287 0.11096,-0.39189 0.1789,-0.58003 z"
     style="color:#000000;font-style:normal;font-variant:normal;font-weight:normal;font-stretch:normal;font-size:medium;line-height:normal;font-family:sans-serif;text-indent:0;text-align:start;text-decoration:none;text-decoration-line:none;text-decoration-style:solid;text-decoration-color:#000000;letter-spacing:normal;word-spacing:normal;text-transform:none;direction:ltr;block-progression:tb;writing-mode:lr-tb;baseline-shift:baseline;text-anchor:start;white-space:normal;clip-rule:nonzero;display:inline;overflow:visible;visibility:visible;opacity:1;isolation:auto;mix-blend-mode:normal;color-interpolation:sRGB;color-interpolation-filters:linearRGB;solid-color:#000000;solid-opacity:1;fill:#000000;fill-opacity:1;fill-rule:evenodd;stroke:none;stroke-width:1px;stroke-linecap:butt;stroke-linejoin:miter;stroke-miterlimit:4;stroke-dasharray:none;stroke-dashoffset:0;stroke-opacity:1;color-rendering:auto;image-rendering:auto;shape-rendering:auto;text-rendering:auto;enable-background:accumulate" />
  <path
     sodipodi:nodetypes="ccscssccssscccccccccsscccccccccccccccccccscccscc"
     inkscape:connector-curvature="0"
     id="path4425"
     d="m 754.03403,245.19867 c 1.86171,0.0681 4.08496,0.59826 6.06944,0.59023 1.14454,-0.004 2.5691,-0.36382 3.73076,-0.71552 1.16166,-0.35169 1.92384,-1.03431 1.92384,-1.03431 0,0 -1.03895,0.26123 -2.17163,0.60416 -1.1327,0.34292 -2.49362,0.42893 -3.48575,0.43293 -1.85174,0.007 -4.06824,-0.51808 -6.04021,-0.59023 -0.12694,-0.005 -0.24893,0.001 -0.37307,0.003 0.0621,-0.0578 0.10047,-0.0959 0.18514,-0.17261 0.33606,-0.3044 1.05809,-1.11981 1.69555,-1.67606 1.27489,-1.11252 2.51752,-2.54316 4.53677,-4.30151 1.34026,-1.1671 2.7178,-2.39461 4.09129,-3.63052 2.26438,0.61982 5.62632,0.17821 9.01089,-0.28538 -3.25628,-0.20046 -6.29956,0.12344 -8.33295,-0.32714 2.53022,-2.28825 5.00775,-4.58578 7.09958,-6.60121 0.59126,-0.65985 1.5174,-1.48795 1.47699,-2.38183 -0.66237,0.73499 -0.97594,0.95064 -1.46864,1.57443 -1.53097,1.47505 -3.39055,3.17709 -5.32329,4.91402 -0.17082,-2.35174 0.77745,-4.19082 1.90714,-6.48845 -1.48467,1.20309 -2.94763,4.22086 -2.56977,7.08704 -2.14071,1.91484 -4.35845,3.85965 -6.35898,5.6017 -2.018,1.75727 -3.25937,3.18682 -4.53677,4.30151 -0.63037,0.55008 -1.33851,1.34777 -1.6872,1.6677 -0.13609,-6.1233 -0.10826,-13.40357 -0.1921,-19.89272 1.43799,-2.97919 2.95939,-5.27552 4.11218,-6.82394 -1.56977,0.40136 -2.87631,2.65299 -4.13584,5.23002 -0.0888,-5.26747 -0.27574,-9.84737 -0.74755,-12.43401 -0.44249,5.34318 -0.41063,10.84487 -0.25475,16.38749 -1.5952,-5.05369 -3.11348,-8.06899 -4.50753,-9.42851 1.31061,3.8074 2.75571,5.74979 4.59941,12.23075 0.16524,4.86965 0.37644,9.75415 0.41205,14.58058 -3.51075,-3.03277 -8.02356,-7.12856 -11.97461,-10.62848 -1.69267,-2.9926 -1.86936,-6.59776 -4.14837,-8.85637 1.41781,2.53236 1.69363,5.05586 2.77579,7.64666 -3.01125,-2.64511 -5.56432,-4.80517 -6.80446,-5.57108 2.48078,2.88775 6.39585,6.39135 10.56027,10.00065 -0.8539,0.24304 -2.17455,0.36638 -3.62078,0.42319 -1.77762,0.0699 -3.74871,0.0676 -5.35252,0.56658 1.61517,0.21551 3.58162,0.21683 5.38036,0.14617 1.68646,-0.0662 3.20266,-0.17763 4.21798,-0.5972 3.0338,2.62205 6.13957,5.27481 8.94686,7.79978 -1.30833,0.1572 -2.5049,0.53196 -3.78923,0.5972 -1.80764,0.0918 -3.68766,-0.77113 -5.72698,-0.73223 -0.84631,0.0162 -2.19113,0.72249 -2.19113,0.72249 0,0 1.56478,-0.20775 2.20365,-0.21995 1.81688,-0.0346 3.70635,1.0463 5.75065,0.94243 1.63858,-0.0832 3.02144,-0.57628 4.50058,-0.65427 0.20997,-0.01 0.40705,-0.0143 0.60694,-0.007 z"
     style="color:#000000;font-style:normal;font-variant:normal;font-weight:normal;font-stretch:normal;font-size:medium;line-height:normal;font-family:sans-serif;text-indent:0;text-align:start;text-decoration:none;text-decoration-line:none;text-decoration-style:solid;text-decoration-color:#000000;letter-spacing:normal;word-spacing:normal;text-transform:none;direction:ltr;block-progression:tb;writing-mode:lr-tb;baseline-shift:baseline;text-anchor:start;white-space:normal;clip-rule:nonzero;display:inline;overflow:visible;visibility:visible;opacity:1;isolation:auto;mix-blend-mode:normal;color-interpolation:sRGB;color-interpolation-filters:linearRGB;solid-color:#000000;solid-opacity:1;fill:#000000;fill-opacity:1;fill-rule:evenodd;stroke:none;stroke-width:1px;stroke-linecap:butt;stroke-linejoin:miter;stroke-miterlimit:4;stroke-dasharray:none;stroke-dashoffset:0;stroke-opacity:1;color-rendering:auto;image-rendering:auto;shape-rendering:auto;text-rendering:auto;enable-background:accumulate" />
  <path
     sodipodi:nodetypes="sssss"
     inkscape:connector-curvature="0"
     id="path4448"
     d="m 756.1874,331.70813 c 0,1.77575 -2.17397,3.21527 -3.65377,3.21527 -1.47978,0 -2.67938,-1.43952 -2.67939,-3.21527 0,-1.77574 1.19961,-3.21527 2.67939,-3.21527 1.4798,0 3.65377,1.43953 3.65377,3.21527 z"
     style="fill:#842a30;fill-opacity:1;stroke:#000000;stroke-width:0.71274137;stroke-linejoin:miter;stroke-miterlimit:4;stroke-dasharray:none;stroke-dashoffset:0;stroke-opacity:1" />
  <path
     sodipodi:nodetypes="ccsscccccsscccc"
     inkscape:connector-curvature="0"
     id="path69200"
     d="m 739.42516,183.55159 -5.23356,-1.24654 c 0,0 -3.74799,-4.37246 -4.04305,-6.98905 -0.13594,-1.20545 0.98606,-3.11602 1.02217,-4.3273 0.0187,-0.62721 -0.46662,-1.20903 -0.46382,-1.8348 -0.88328,-4.7986 5.38456,-6.51922 7.88374,-4.65737 2.01231,-3.38593 10.85831,-0.40536 14.04873,0.71612 3.19043,-1.12148 12.03643,-4.10205 14.04875,-0.71612 2.49918,-1.86185 8.767,-0.14123 7.88373,4.65737 0.003,0.62577 -0.4825,1.20759 -0.46382,1.8348 0.0361,1.21128 1.15812,3.12185 1.02218,4.3273 -0.29507,2.61659 -4.04306,6.98905 -4.04306,6.98905 l -5.23357,1.24654 -13.21421,-1.24654 z"
     style="display:inline;fill:#da291c;fill-opacity:1;stroke:#000000;stroke-width:0.72609055;stroke-linecap:butt;stroke-linejoin:miter;stroke-miterlimit:4;stroke-dasharray:none;stroke-opacity:1" />
  <path
     id="path69206"
     style="color:#000000;font-style:normal;font-variant:normal;font-weight:normal;font-stretch:normal;font-size:medium;line-height:normal;font-family:Sans;-inkscape-font-specification:Sans;text-indent:0;text-align:start;text-decoration:none;text-decoration-line:none;letter-spacing:normal;word-spacing:normal;text-transform:none;direction:ltr;block-progression:tb;writing-mode:lr-tb;baseline-shift:baseline;text-anchor:start;display:inline;overflow:visible;visibility:visible;fill:#ffdb22;fill-opacity:1;stroke:#000000;stroke-width:0.72609055;stroke-miterlimit:4;stroke-dasharray:none;stroke-opacity:1;marker:none;enable-background:accumulate"
     d="m 769.91474,154.12544 c 1.41878,-0.067 2.9332,0.15475 4.49894,0.82347 3.81329,1.62863 5.29974,5.29042 5.16173,8.79703 -0.13802,3.5066 -1.59106,7.07058 -3.43446,9.82134 l -2.67125,-1.78753 c 1.5458,-2.30666 2.78728,-5.48908 2.89218,-8.15432 0.1049,-2.66525 -0.60696,-4.61084 -3.21353,-5.7241 -2.29457,-0.97999 -3.99923,-0.67106 -6.04545,0.12051 -2.04621,0.79157 -4.2754,2.17673 -7.02959,3.03277 -4.3321,1.34647 -6.86891,0.98414 -6.86891,0.98414 l 0,-3.21353 c 0,0 2.25882,0.28968 5.90486,-0.84355 2.25436,-0.70068 4.39144,-2.00956 6.82874,-2.95243 1.21865,-0.47143 2.55796,-0.83684 3.97674,-0.9038 z"
     inkscape:connector-curvature="0"
     sodipodi:nodetypes="sssccssssccsss" />
  <path
     style="display:inline;fill:#ffffff;fill-opacity:1;stroke:#000000;stroke-width:0.72609055;stroke-miterlimit:4;stroke-dasharray:none;stroke-opacity:1"
     d="m 759.4877,156.5733 a 1.7419246,1.7419246 0 0 1 -1.74192,1.74193 1.7419246,1.7419246 0 0 1 -1.74193,-1.74193 1.7419246,1.7419246 0 0 1 1.74193,-1.74192 1.7419246,1.7419246 0 0 1 1.74192,1.74192 z"
     id="circle69210"
     inkscape:connector-curvature="0" />
  <path
     style="display:inline;fill:#f9f9f9;fill-opacity:1;stroke:#000000;stroke-width:0.72609055;stroke-miterlimit:4;stroke-dasharray:none;stroke-opacity:1"
     d="m 762.84703,155.33829 a 1.7419246,1.7419246 0 0 1 -1.74192,1.74193 1.7419246,1.7419246 0 0 1 -1.74193,-1.74193 1.7419246,1.7419246 0 0 1 1.74193,-1.74192 1.7419246,1.7419246 0 0 1 1.74192,1.74192 z"
     id="circle69212"
     inkscape:connector-curvature="0" />
  <path
     style="display:inline;fill:#f9f9f9;fill-opacity:1;stroke:#000000;stroke-width:0.72609055;stroke-miterlimit:4;stroke-dasharray:none;stroke-opacity:1"
     d="m 766.11292,153.78566 a 1.7419246,1.7419246 0 0 1 -1.74192,1.74193 1.7419246,1.7419246 0 0 1 -1.74193,-1.74193 1.7419246,1.7419246 0 0 1 1.74193,-1.74192 1.7419246,1.7419246 0 0 1 1.74192,1.74192 z"
     id="circle69214"
     inkscape:connector-curvature="0" />
  <path
     style="display:inline;fill:#f9f9f9;fill-opacity:1;stroke:#000000;stroke-width:0.72609055;stroke-miterlimit:4;stroke-dasharray:none;stroke-opacity:1"
     d="m 769.59296,152.66134 a 1.7419246,1.7419246 0 0 1 -1.74192,1.74193 1.7419246,1.7419246 0 0 1 -1.74193,-1.74193 1.7419246,1.7419246 0 0 1 1.74193,-1.74192 1.7419246,1.7419246 0 0 1 1.74192,1.74192 z"
     id="circle69216"
     inkscape:connector-curvature="0" />
  <path
     style="display:inline;fill:#f9f9f9;fill-opacity:1;stroke:#000000;stroke-width:0.72609055;stroke-miterlimit:4;stroke-dasharray:none;stroke-opacity:1"
     d="m 773.12655,152.44718 a 1.7419246,1.7419246 0 0 1 -1.74192,1.74193 1.7419246,1.7419246 0 0 1 -1.74193,-1.74193 1.7419246,1.7419246 0 0 1 1.74193,-1.74192 1.7419246,1.7419246 0 0 1 1.74192,1.74192 z"
     id="circle69218"
     inkscape:connector-curvature="0" />
  <path
     style="display:inline;fill:#f9f9f9;fill-opacity:1;stroke:#000000;stroke-width:0.72609055;stroke-miterlimit:4;stroke-dasharray:none;stroke-opacity:1"
     d="m 776.66013,153.19673 a 1.7419246,1.7419246 0 0 1 -1.74192,1.74193 1.7419246,1.7419246 0 0 1 -1.74193,-1.74193 1.7419246,1.7419246 0 0 1 1.74193,-1.74192 1.7419246,1.7419246 0 0 1 1.74192,1.74192 z"
     id="circle69220"
     inkscape:connector-curvature="0" />
  <path
     style="display:inline;fill:#f9f9f9;fill-opacity:1;stroke:#000000;stroke-width:0.72609055;stroke-miterlimit:4;stroke-dasharray:none;stroke-opacity:1"
     d="m 779.60478,155.12414 a 1.7419246,1.7419246 0 0 1 -1.74192,1.74193 1.7419246,1.7419246 0 0 1 -1.74193,-1.74193 1.7419246,1.7419246 0 0 1 1.74193,-1.74192 1.7419246,1.7419246 0 0 1 1.74192,1.74192 z"
     id="circle69222"
     inkscape:connector-curvature="0" />
  <path
     style="display:inline;fill:#f9f9f9;fill-opacity:1;stroke:#000000;stroke-width:0.72609055;stroke-miterlimit:4;stroke-dasharray:none;stroke-opacity:1"
     d="m 781.79989,157.96171 a 1.7419246,1.7419246 0 0 1 -1.74192,1.74193 1.7419246,1.7419246 0 0 1 -1.74193,-1.74193 1.7419246,1.7419246 0 0 1 1.74193,-1.74192 1.7419246,1.7419246 0 0 1 1.74192,1.74192 z"
     id="circle69224"
     inkscape:connector-curvature="0" />
  <path
     style="display:inline;fill:#f9f9f9;fill-opacity:1;stroke:#000000;stroke-width:0.72609055;stroke-miterlimit:4;stroke-dasharray:none;stroke-opacity:1"
     d="m 782.9242,161.44175 a 1.7419246,1.7419246 0 0 1 -1.74192,1.74193 1.7419246,1.7419246 0 0 1 -1.74193,-1.74193 1.7419246,1.7419246 0 0 1 1.74193,-1.74192 1.7419246,1.7419246 0 0 1 1.74192,1.74192 z"
     id="circle69226"
     inkscape:connector-curvature="0" />
  <path
     style="display:inline;fill:#f9f9f9;fill-opacity:1;stroke:#000000;stroke-width:0.72609055;stroke-miterlimit:4;stroke-dasharray:none;stroke-opacity:1"
     d="m 782.92421,164.97534 a 1.7419246,1.7419246 0 0 1 -1.74192,1.74193 1.7419246,1.7419246 0 0 1 -1.74193,-1.74193 1.7419246,1.7419246 0 0 1 1.74193,-1.74192 1.7419246,1.7419246 0 0 1 1.74192,1.74192 z"
     id="circle69228"
     inkscape:connector-curvature="0" />
  <path
     style="display:inline;fill:#f9f9f9;fill-opacity:1;stroke:#000000;stroke-width:0.72609055;stroke-miterlimit:4;stroke-dasharray:none;stroke-opacity:1"
     d="m 782.17466,168.45538 a 1.7419246,1.7419246 0 0 1 -1.74192,1.74193 1.7419246,1.7419246 0 0 1 -1.74193,-1.74193 1.7419246,1.7419246 0 0 1 1.74193,-1.74192 1.7419246,1.7419246 0 0 1 1.74192,1.74192 z"
     id="circle69230"
     inkscape:connector-curvature="0" />
  <path
     style="display:inline;fill:#f9f9f9;fill-opacity:1;stroke:#000000;stroke-width:0.72609055;stroke-miterlimit:4;stroke-dasharray:none;stroke-opacity:1"
     d="m 780.78264,171.98896 a 1.7419246,1.7419246 0 0 1 -1.74192,1.74193 1.7419246,1.7419246 0 0 1 -1.74193,-1.74193 1.7419246,1.7419246 0 0 1 1.74193,-1.74192 1.7419246,1.7419246 0 0 1 1.74192,1.74192 z"
     id="circle69232"
     inkscape:connector-curvature="0" />
  <path
     id="path69236"
     style="color:#000000;font-style:normal;font-variant:normal;font-weight:normal;font-stretch:normal;font-size:medium;line-height:normal;font-family:Sans;-inkscape-font-specification:Sans;text-indent:0;text-align:start;text-decoration:none;text-decoration-line:none;letter-spacing:normal;word-spacing:normal;text-transform:none;direction:ltr;block-progression:tb;writing-mode:lr-tb;baseline-shift:baseline;text-anchor:start;display:inline;overflow:visible;visibility:visible;fill:#ffdb22;fill-opacity:1;stroke:#000000;stroke-width:0.72609055;stroke-miterlimit:4;stroke-dasharray:none;stroke-opacity:1;marker:none;enable-background:accumulate"
     d="m 735.36401,154.12544 c -1.41878,-0.067 -2.9332,0.15475 -4.49894,0.82347 -3.81329,1.62863 -5.29974,5.29042 -5.16173,8.79703 0.13802,3.5066 1.59106,7.07058 3.43446,9.82134 l 2.67125,-1.78753 c -1.5458,-2.30666 -2.78728,-5.48908 -2.89218,-8.15432 -0.1049,-2.66525 0.60696,-4.61084 3.21353,-5.7241 2.29457,-0.97999 3.99923,-0.67106 6.04545,0.12051 2.04621,0.79157 4.2754,2.17673 7.02959,3.03277 4.3321,1.34647 6.86891,0.98414 6.86891,0.98414 l 0,-3.21353 c 0,0 -2.25882,0.28968 -5.90486,-0.84355 -2.25436,-0.70068 -4.39144,-2.00956 -6.82874,-2.95243 -1.21865,-0.47143 -2.55796,-0.83684 -3.97674,-0.9038 z"
     inkscape:connector-curvature="0"
     sodipodi:nodetypes="sssccssssccsss" />
  <path
     style="display:inline;fill:#ffffff;fill-opacity:1;stroke:#000000;stroke-width:0.72609055;stroke-miterlimit:4;stroke-dasharray:none;stroke-opacity:1"
     d="m 745.79105,156.5733 a 1.7419246,1.7419246 0 0 0 1.74192,1.74193 1.7419246,1.7419246 0 0 0 1.74193,-1.74193 1.7419246,1.7419246 0 0 0 -1.74193,-1.74192 1.7419246,1.7419246 0 0 0 -1.74192,1.74192 z"
     id="circle69240"
     inkscape:connector-curvature="0" />
  <path
     style="display:inline;fill:#f9f9f9;fill-opacity:1;stroke:#000000;stroke-width:0.72609055;stroke-miterlimit:4;stroke-dasharray:none;stroke-opacity:1"
     d="m 742.43172,155.33829 a 1.7419246,1.7419246 0 0 0 1.74192,1.74193 1.7419246,1.7419246 0 0 0 1.74193,-1.74193 1.7419246,1.7419246 0 0 0 -1.74193,-1.74192 1.7419246,1.7419246 0 0 0 -1.74192,1.74192 z"
     id="circle69242"
     inkscape:connector-curvature="0" />
  <path
     style="display:inline;fill:#f9f9f9;fill-opacity:1;stroke:#000000;stroke-width:0.72609055;stroke-miterlimit:4;stroke-dasharray:none;stroke-opacity:1"
     d="m 739.16583,153.78566 a 1.7419246,1.7419246 0 0 0 1.74192,1.74193 1.7419246,1.7419246 0 0 0 1.74193,-1.74193 1.7419246,1.7419246 0 0 0 -1.74193,-1.74192 1.7419246,1.7419246 0 0 0 -1.74192,1.74192 z"
     id="circle69244"
     inkscape:connector-curvature="0" />
  <path
     style="display:inline;fill:#f9f9f9;fill-opacity:1;stroke:#000000;stroke-width:0.72609055;stroke-miterlimit:4;stroke-dasharray:none;stroke-opacity:1"
     d="m 735.68579,152.66134 a 1.7419246,1.7419246 0 0 0 1.74192,1.74193 1.7419246,1.7419246 0 0 0 1.74193,-1.74193 1.7419246,1.7419246 0 0 0 -1.74193,-1.74192 1.7419246,1.7419246 0 0 0 -1.74192,1.74192 z"
     id="circle69246"
     inkscape:connector-curvature="0" />
  <path
     style="display:inline;fill:#f9f9f9;fill-opacity:1;stroke:#000000;stroke-width:0.72609055;stroke-miterlimit:4;stroke-dasharray:none;stroke-opacity:1"
     d="m 732.1522,152.44718 a 1.7419246,1.7419246 0 0 0 1.74192,1.74193 1.7419246,1.7419246 0 0 0 1.74193,-1.74193 1.7419246,1.7419246 0 0 0 -1.74193,-1.74192 1.7419246,1.7419246 0 0 0 -1.74192,1.74192 z"
     id="circle69248"
     inkscape:connector-curvature="0" />
  <path
     style="display:inline;fill:#f9f9f9;fill-opacity:1;stroke:#000000;stroke-width:0.72609055;stroke-miterlimit:4;stroke-dasharray:none;stroke-opacity:1"
     d="m 728.61862,153.19673 a 1.7419246,1.7419246 0 0 0 1.74192,1.74193 1.7419246,1.7419246 0 0 0 1.74193,-1.74193 1.7419246,1.7419246 0 0 0 -1.74193,-1.74192 1.7419246,1.7419246 0 0 0 -1.74192,1.74192 z"
     id="circle69250"
     inkscape:connector-curvature="0" />
  <path
     style="display:inline;fill:#f9f9f9;fill-opacity:1;stroke:#000000;stroke-width:0.72609055;stroke-miterlimit:4;stroke-dasharray:none;stroke-opacity:1"
     d="m 725.67397,155.12414 a 1.7419246,1.7419246 0 0 0 1.74192,1.74193 1.7419246,1.7419246 0 0 0 1.74193,-1.74193 1.7419246,1.7419246 0 0 0 -1.74193,-1.74192 1.7419246,1.7419246 0 0 0 -1.74192,1.74192 z"
     id="circle69252"
     inkscape:connector-curvature="0" />
  <path
     style="display:inline;fill:#f9f9f9;fill-opacity:1;stroke:#000000;stroke-width:0.72609055;stroke-miterlimit:4;stroke-dasharray:none;stroke-opacity:1"
     d="m 723.47886,157.96171 a 1.7419246,1.7419246 0 0 0 1.74192,1.74193 1.7419246,1.7419246 0 0 0 1.74193,-1.74193 1.7419246,1.7419246 0 0 0 -1.74193,-1.74192 1.7419246,1.7419246 0 0 0 -1.74192,1.74192 z"
     id="circle69254"
     inkscape:connector-curvature="0" />
  <path
     style="display:inline;fill:#f9f9f9;fill-opacity:1;stroke:#000000;stroke-width:0.72609055;stroke-miterlimit:4;stroke-dasharray:none;stroke-opacity:1"
     d="m 722.35455,161.44175 a 1.7419246,1.7419246 0 0 0 1.74192,1.74193 1.7419246,1.7419246 0 0 0 1.74193,-1.74193 1.7419246,1.7419246 0 0 0 -1.74193,-1.74192 1.7419246,1.7419246 0 0 0 -1.74192,1.74192 z"
     id="circle69256"
     inkscape:connector-curvature="0" />
  <path
     style="display:inline;fill:#f9f9f9;fill-opacity:1;stroke:#000000;stroke-width:0.72609055;stroke-miterlimit:4;stroke-dasharray:none;stroke-opacity:1"
     d="m 722.35454,164.97534 a 1.7419246,1.7419246 0 0 0 1.74192,1.74193 1.7419246,1.7419246 0 0 0 1.74193,-1.74193 1.7419246,1.7419246 0 0 0 -1.74193,-1.74192 1.7419246,1.7419246 0 0 0 -1.74192,1.74192 z"
     id="circle69258"
     inkscape:connector-curvature="0" />
  <path
     style="display:inline;fill:#f9f9f9;fill-opacity:1;stroke:#000000;stroke-width:0.72609055;stroke-miterlimit:4;stroke-dasharray:none;stroke-opacity:1"
     d="m 723.10409,168.45538 a 1.7419246,1.7419246 0 0 0 1.74192,1.74193 1.7419246,1.7419246 0 0 0 1.74193,-1.74193 1.7419246,1.7419246 0 0 0 -1.74193,-1.74192 1.7419246,1.7419246 0 0 0 -1.74192,1.74192 z"
     id="circle69260"
     inkscape:connector-curvature="0" />
  <path
     style="display:inline;fill:#f9f9f9;fill-opacity:1;stroke:#000000;stroke-width:0.72609055;stroke-miterlimit:4;stroke-dasharray:none;stroke-opacity:1"
     d="m 724.49611,171.98896 a 1.7419246,1.7419246 0 0 0 1.74192,1.74193 1.7419246,1.7419246 0 0 0 1.74193,-1.74193 1.7419246,1.7419246 0 0 0 -1.74193,-1.74192 1.7419246,1.7419246 0 0 0 -1.74192,1.74192 z"
     id="circle69262"
     inkscape:connector-curvature="0" />
  <path
     inkscape:connector-curvature="0"
     sodipodi:nodetypes="ccccccccccccc"
     id="path69268"
     d="m 751.68819,143.65497 c -0.30038,-1.41846 -1.57617,-2.52442 -2.81977,-3.64069 2.52682,-0.23831 5.05363,-0.23147 7.58046,0 -1.14126,1.16382 -2.77141,2.19189 -2.8863,3.64069 1.47153,-0.63784 2.41974,-1.92953 3.55247,-2.99071 -0.26823,2.13588 -0.0833,4.27175 0,6.40762 -1.12554,-0.90324 -2.08526,-2.04818 -3.55247,-2.45335 0.43628,1.32511 1.51058,2.34361 2.91427,3.20381 l -7.69235,0 c 1.273,-0.89027 2.42814,-1.85954 2.90369,-3.20381 -1.39773,0.45046 -2.40252,1.61693 -3.52449,2.56985 0.1977,-2.15529 0.17498,-4.31058 0,-6.46587 1.08067,1.17359 2.0883,2.49926 3.52449,2.93246 z"
     style="fill:#ffdb22;fill-opacity:1;stroke:#000000;stroke-width:0.72609055;stroke-miterlimit:4;stroke-dasharray:none;stroke-opacity:1" />
  <path
     inkscape:connector-curvature="0"
     id="circle69270"
     d="m 750.9623,143.91831 a 1.6770776,1.6770776 0 0 0 1.67708,1.67708 1.6770776,1.6770776 0 0 0 1.67707,-1.67708 1.6770776,1.6770776 0 0 0 -1.67707,-1.67708 1.6770776,1.6770776 0 0 0 -1.67708,1.67708 z"
     style="display:inline;fill:#f9f9f9;fill-opacity:1;stroke:#000000;stroke-width:0.72609055;stroke-miterlimit:4;stroke-dasharray:none;stroke-opacity:1" />
  <path
     inkscape:connector-curvature="0"
     id="ellipse69272"
     d="m 757.19344,152.47959 a 4.55407,4.5539781 0 0 1 -4.55407,4.55397 4.55407,4.5539781 0 0 1 -4.55407,-4.55397 4.55407,4.5539781 0 0 1 4.55407,-4.55398 4.55407,4.5539781 0 0 1 4.55407,4.55398 z"
     style="fill:#ffdb22;fill-opacity:1;stroke:#000000;stroke-width:0.72609055;stroke-miterlimit:4;stroke-dasharray:none;stroke-opacity:1" />
  <path
     sodipodi:nodetypes="ccccccccccccccc"
     id="path69274"
     d="m 752.45449,147.46163 c -0.41981,0 -0.75633,0.33653 -0.75633,0.75633 l 0,3.0232 -3.03652,0 c -0.4198,0 -0.77033,0.33652 -0.77033,0.75633 l 0,0.33827 c 0,0.4198 0.35053,0.75632 0.77033,0.75632 l 7.96947,0 c 0.41981,0 0.75633,-0.33652 0.75633,-0.75632 l 0,-0.33827 c 0,-0.41981 -0.33652,-0.75633 -0.75633,-0.75633 l -3.03652,0 0,-3.0232 c 0,-0.4198 -0.33652,-0.75633 -0.75632,-0.75633 l -0.38378,0 z"
     style="display:inline;fill:#ffdb22;fill-opacity:1;stroke:#000000;stroke-width:0.72609055;stroke-miterlimit:4;stroke-dasharray:none;stroke-opacity:1"
     inkscape:connector-curvature="0" />
  <path
     inkscape:connector-curvature="0"
     id="rect69278"
     d="m 750.80556,157.25326 3.66762,0 c 0.81667,0 1.47414,0.65747 1.47414,1.47414 l 0,8.2819 c 0,0.81667 -0.65747,1.47413 -1.47414,1.47413 l -3.66762,0 c -0.81667,0 -1.47414,-0.65746 -1.47414,-1.47413 l 0,-8.2819 c 0,-0.81667 0.65747,-1.47414 1.47414,-1.47414 z"
     style="fill:#fddd10;fill-opacity:1;stroke:#000000;stroke-width:0.72609055;stroke-miterlimit:4;stroke-dasharray:none;stroke-opacity:1" />
  <path
     style="fill:#ffdb22;fill-opacity:1;stroke:#000000;stroke-width:0.72609055;stroke-miterlimit:4;stroke-dasharray:none;stroke-opacity:1"
     d="m 749.79296,156.72126 10e-6,0 c 0.50376,0 0.90931,0.51243 0.90931,1.14896 l 0,9.74015 c 0,0.63652 -0.40555,1.14896 -0.90931,1.14896 l -10e-6,0 c -0.50375,0 -0.90931,-0.51244 -0.90931,-1.14896 l 0,-9.74015 c 0,-0.63653 0.40556,-1.14896 0.90931,-1.14896 z"
     id="rect69282"
     inkscape:connector-curvature="0" />
  <path
     style="display:inline;fill:#ffdb22;fill-opacity:1;stroke:#000000;stroke-width:0.72609055;stroke-miterlimit:4;stroke-dasharray:none;stroke-opacity:1"
     d="m 755.48577,156.72126 0,0 c 0.50376,0 0.90932,0.51243 0.90932,1.14896 l 0,9.74015 c 0,0.63652 -0.40556,1.14896 -0.90932,1.14896 l 0,0 c -0.50375,0 -0.90931,-0.51244 -0.90931,-1.14896 l 0,-9.74015 c 0,-0.63653 0.40556,-1.14896 0.90931,-1.14896 z"
     id="rect69284"
     inkscape:connector-curvature="0" />
  <path
     inkscape:connector-curvature="0"
     id="circle69286"
     d="m 750.89745,157.31947 a 1.7419246,1.7419246 0 0 0 1.74192,1.74193 1.7419246,1.7419246 0 0 0 1.74193,-1.74193 1.7419246,1.7419246 0 0 0 -1.74193,-1.74192 1.7419246,1.7419246 0 0 0 -1.74192,1.74192 z"
     style="display:inline;fill:#f9f9f9;fill-opacity:1;stroke:#000000;stroke-width:0.72609055;stroke-miterlimit:4;stroke-dasharray:none;stroke-opacity:1" />
  <path
     inkscape:connector-curvature="0"
     id="circle69288"
     d="m 750.89745,160.55161 a 1.7419246,1.7419246 0 0 0 1.74192,1.74193 1.7419246,1.7419246 0 0 0 1.74193,-1.74193 1.7419246,1.7419246 0 0 0 -1.74193,-1.74192 1.7419246,1.7419246 0 0 0 -1.74192,1.74192 z"
     style="display:inline;fill:#f9f9f9;fill-opacity:1;stroke:#000000;stroke-width:0.72609055;stroke-miterlimit:4;stroke-dasharray:none;stroke-opacity:1" />
  <path
     inkscape:connector-curvature="0"
     id="circle69290"
     d="m 750.89745,163.78374 a 1.7419246,1.7419246 0 0 0 1.74192,1.74193 1.7419246,1.7419246 0 0 0 1.74193,-1.74193 1.7419246,1.7419246 0 0 0 -1.74193,-1.74192 1.7419246,1.7419246 0 0 0 -1.74192,1.74192 z"
     style="display:inline;fill:#ffffff;fill-opacity:1;stroke:#000000;stroke-width:0.72609055;stroke-miterlimit:4;stroke-dasharray:none;stroke-opacity:1" />
  <path
     inkscape:connector-curvature="0"
     id="circle69292"
     d="m 750.89745,167.03949 a 1.7419246,1.7419246 0 0 0 1.74192,1.74193 1.7419246,1.7419246 0 0 0 1.74193,-1.74193 1.7419246,1.7419246 0 0 0 -1.74193,-1.74192 1.7419246,1.7419246 0 0 0 -1.74192,1.74192 z"
     style="display:inline;fill:#ffffff;fill-opacity:1;stroke:#000000;stroke-width:0.72609055;stroke-miterlimit:4;stroke-dasharray:none;stroke-opacity:1" />
  <path
     style="fill:#ffdb22;fill-opacity:1;stroke:#000000;stroke-width:0.72609055;stroke-miterlimit:4;stroke-dasharray:none;stroke-opacity:1"
     d="m 731.65847,178.90155 c 4.86178,3.88063 8.53663,4.2005 10.49045,-0.64271 3.49682,2.21367 6.99364,2.65646 10.49045,-0.6427 3.49682,3.52603 6.99364,3.21878 10.49045,0.6427 1.25928,5.13683 4.86643,5.10833 10.49045,0.64271 l -2.46304,12.50647 -36.95314,0.10913 z"
     id="path69296"
     inkscape:connector-curvature="0"
     sodipodi:nodetypes="cccccccc" />
  <path
     inkscape:connector-curvature="0"
     id="rect69300"
     d="m 750.71721,182.38536 3.84433,0 c 0.55852,0 1.00815,0.44964 1.00815,1.00815 l 0,1.14366 c 0,0.55851 -0.44963,1.00815 -1.00815,1.00815 l -3.84433,0 c -0.55852,0 -1.00815,-0.44964 -1.00815,-1.00815 l 0,-1.14366 c 0,-0.55851 0.44963,-1.00815 1.00815,-1.00815 z"
     style="display:inline;fill:#0f42a7;fill-opacity:1;stroke:#000000;stroke-width:0.72609055;stroke-miterlimit:4;stroke-dasharray:none;stroke-opacity:1" />
  <path
     inkscape:connector-curvature="0"
     id="ellipse69302"
     d="m 745.7249,184.39345 a 1.5850193,2.7817509 84.524813 0 1 -2.3783,1.94136 1.5850193,2.7817509 84.524813 0 1 -3.11846,-1.16226 1.5850193,2.7817509 84.524813 0 1 2.3783,-1.94136 1.5850193,2.7817509 84.524813 0 1 3.11846,1.16226 z"
     style="display:inline;fill:#187144;fill-opacity:1;stroke:#000000;stroke-width:0.72609049;stroke-miterlimit:4;stroke-dasharray:none;stroke-opacity:1" />
  <path
     sodipodi:nodetypes="cccssc"
     id="path69304"
     d="m 733.68823,187.35193 2.8416,-1.99362 -4.2978,-1.53125 c 0,0 -0.65736,0.58663 -0.78141,1.09375 -0.17166,0.70173 -0.16797,1.18694 0.31256,1.74999 0.4284,0.50196 1.92505,0.68113 1.92505,0.68113 z"
     style="display:inline;fill:#da291c;fill-opacity:1;stroke:#000000;stroke-width:0.72609055;stroke-linecap:butt;stroke-linejoin:miter;stroke-miterlimit:4;stroke-dasharray:none;stroke-opacity:1"
     inkscape:connector-curvature="0" />
  <path
     inkscape:connector-curvature="0"
     id="ellipse69306"
     d="m 759.55385,184.39345 a 2.7817509,1.5850193 5.4751865 0 0 2.3783,1.94136 2.7817509,1.5850193 5.4751865 0 0 3.11846,-1.16226 2.7817509,1.5850193 5.4751865 0 0 -2.3783,-1.94136 2.7817509,1.5850193 5.4751865 0 0 -3.11846,1.16226 z"
     style="display:inline;fill:#187144;fill-opacity:1;stroke:#000000;stroke-width:0.72609049;stroke-miterlimit:4;stroke-dasharray:none;stroke-opacity:1" />
  <path
     sodipodi:nodetypes="cccssc"
     id="path69308"
     d="m 771.59052,187.35193 -2.84161,-1.99362 4.2978,-1.53125 c 0,0 0.65737,0.58663 0.78142,1.09375 0.17165,0.70173 0.16797,1.18694 -0.31257,1.74999 -0.42839,0.50196 -1.92504,0.68113 -1.92504,0.68113 z"
     style="display:inline;fill:#da291c;fill-opacity:1;stroke:#000000;stroke-width:0.72609055;stroke-linecap:butt;stroke-linejoin:miter;stroke-miterlimit:4;stroke-dasharray:none;stroke-opacity:1"
     inkscape:connector-curvature="0" />
  <path
     id="path69312"
     style="display:inline;fill:#ffdb22;fill-opacity:1;stroke:#000000;stroke-width:0.72609055;stroke-linecap:butt;stroke-linejoin:miter;stroke-miterlimit:4;stroke-dasharray:none;stroke-opacity:1"
     d="m 748.10833,181.45995 c -1.61225,0.22031 -3.27096,-0.3935 -4.68743,-1.70737 -1.21362,2.1647 -3.30094,3.28002 -5.46181,3.39494 -2.12902,0.11323 -4.32943,-0.74468 -5.8359,-2.5269 -0.45906,-1.15177 -0.92369,-2.23819 -1.34661,-3.08776 -0.82345,-1.65415 -2.53143,-4.72993 -2.53143,-4.72993 1.71645,-1.09293 3.20841,-1.97153 5.24912,-2.09919 -0.87667,2.18144 -0.81563,3.70664 -0.8332,5.28684 1.83694,-0.29529 2.68051,-1.59678 3.66605,-2.48792 l 1.16648,4.58711 c -1.8389,-0.76251 -3.06476,-0.38095 -4.24929,0.0778 0,0 0.75915,1.38464 1.3331,1.86595 0.65651,0.55051 1.38084,0.86535 2.24963,1.01071 0.82193,0.13753 1.74843,0.1849 2.49958,-0.15549 1.58224,-0.71701 2.3886,-2.28065 2.1663,-2.17694 0,0 0.15872,-1.37185 -0.24995,-1.86594 -0.30592,-0.36986 -0.93427,-0.67015 -1.41644,-0.54424 -0.76025,0.19855 -1.16646,1.7882 -1.16646,1.7882 0,0 -0.73077,-1.35333 -0.91651,-2.09919 -0.16358,-0.65681 -0.40739,-1.41873 -0.0833,-2.02144 0.24182,-0.44976 0.80289,-0.76347 1.3331,-0.85522 0.70207,-0.1215 1.99966,0.46648 1.99966,0.46648 0,0 -0.38737,-1.21878 -0.49992,-1.86594 -0.0578,-0.33256 0.0285,-0.77721 0.16664,-1.08847 0.31565,-0.71108 0.81849,-1.08695 1.13862,-1.49368 0.42794,0.3982 0.95517,0.54103 1.44845,1.15788 0.21592,0.27002 0.41673,0.68122 0.44828,1.01684 0.0614,0.65312 0.007,1.92336 0.007,1.92336 0,0 1.10286,-0.8676 1.8154,-0.91088 0.53812,-0.0327 1.16461,0.14269 1.51751,0.52318 0.47292,0.50987 0.43728,1.30434 0.45178,1.97852 0.0165,0.76557 -0.33535,2.24501 -0.33535,2.24501 0,0 -0.81255,-1.44769 -1.60178,-1.46574 -0.50053,-0.0114 -1.03049,0.42377 -1.22958,0.85245 -0.26597,0.57267 0.24929,1.86602 0.24929,1.86602 3.11759,2.27106 6.34355,-0.0583 7.0052,-2.32837 l 0,-0.85522 c -1.30533,0.16775 -1.86081,0.38173 -3.16614,1.7882 l -0.41659,-5.67559 c 1.24979,1.05438 2.33294,1.43334 3.58273,1.24396 -0.11733,-1.64901 -1.05677,-2.34798 -2.49957,-3.79085 2.35157,-0.58793 4.85415,-0.7342 7.12891,0 -1.4428,1.44287 -2.38224,2.14184 -2.49957,3.79085 1.24978,0.18938 2.33293,-0.18958 3.58273,-1.24396 l -0.4166,5.67559 c -1.30533,-1.40647 -1.8608,-1.62045 -3.16613,-1.7882 l 0,0.85522 c 0.66164,2.27005 3.8876,4.59943 7.00519,2.32837 0,0 0.51526,-1.29335 0.2493,-1.86602 -0.19909,-0.42868 -0.72906,-0.86391 -1.22959,-0.85245 -0.78922,0.018 -1.60177,1.46574 -1.60177,1.46574 0,0 -0.35182,-1.47944 -0.33536,-2.24501 0.0145,-0.67418 -0.0211,-1.46865 0.45179,-1.97852 0.35289,-0.38049 0.97938,-0.55586 1.51751,-0.52318 0.71253,0.0433 1.8154,0.91088 1.8154,0.91088 0,0 -0.0544,-1.27024 0.007,-1.92336 0.0316,-0.33562 0.23237,-0.74682 0.44829,-1.01684 0.49328,-0.61685 1.02051,-0.75968 1.44845,-1.15788 0.32012,0.40673 0.82297,0.7826 1.13862,1.49368 0.13819,0.31126 0.22449,0.75591 0.16664,1.08847 -0.11256,0.64716 -0.49992,1.86594 -0.49992,1.86594 0,0 1.29759,-0.58798 1.99966,-0.46648 0.53021,0.0917 1.09128,0.40546 1.3331,0.85522 0.32407,0.60271 0.0803,1.36463 -0.0833,2.02144 -0.18574,0.74586 -0.91651,2.09919 -0.91651,2.09919 0,0 -0.40621,-1.58965 -1.16646,-1.7882 -0.48217,-0.12591 -1.11052,0.17438 -1.41644,0.54424 -0.40867,0.49409 -0.24995,1.86594 -0.24995,1.86594 -0.22231,-0.10371 0.58406,1.45993 2.1663,2.17694 0.75115,0.34039 1.67765,0.29302 2.49958,0.15549 0.86879,-0.14536 1.59312,-0.4602 2.24962,-1.01071 0.57396,-0.48131 1.33311,-1.86595 1.33311,-1.86595 -1.18453,-0.4587 -2.41039,-0.84026 -4.24929,-0.0778 l 1.16648,-4.58711 c 0.98554,0.89114 1.8291,2.19263 3.66605,2.48792 -0.0176,-1.5802 0.0435,-3.1054 -0.8332,-5.28684 1.98027,0.007 3.60743,1.05173 5.24912,2.09919 0,0 -1.70799,3.07578 -2.53143,4.72993 -0.42292,0.84957 -0.88755,1.93599 -1.34661,3.08776 -1.50647,1.78222 -3.70688,2.64013 -5.8359,2.5269 -2.16087,-0.11492 -4.24819,-1.23024 -5.46181,-3.39494 -1.41647,1.31387 -3.07518,1.92768 -4.68743,1.70737 -1.59567,-0.21804 -3.14583,-1.25313 -4.53112,-3.23524 -1.38529,1.98211 -2.93546,3.0172 -4.53113,3.23524 z"
     inkscape:connector-curvature="0"
     sodipodi:nodetypes="scscsccccccssscsscscscccccccscccssccccccccccccccsscccscccccccscscsscsssccccccscscscs" />
  <path
     inkscape:connector-curvature="0"
     id="circle69316"
     d="m 750.89753,173.69569 a 1.7419246,1.7419246 0 0 0 1.74192,1.74193 1.7419246,1.7419246 0 0 0 1.74193,-1.74193 1.7419246,1.7419246 0 0 0 -1.74193,-1.74192 1.7419246,1.7419246 0 0 0 -1.74192,1.74192 z"
     style="display:inline;fill:#f9f9f9;fill-opacity:1;stroke:#000000;stroke-width:0.72609055;stroke-miterlimit:4;stroke-dasharray:none;stroke-opacity:1" />
  <path
     style="display:inline;fill:#f9f9f9;fill-opacity:1;stroke:#000000;stroke-width:0.72609055;stroke-miterlimit:4;stroke-dasharray:none;stroke-opacity:1"
     d="m 729.88942,177.35164 a 1.7419246,1.7419246 0 0 0 1.74192,1.74193 1.7419246,1.7419246 0 0 0 1.74193,-1.74193 1.7419246,1.7419246 0 0 0 -1.74193,-1.74192 1.7419246,1.7419246 0 0 0 -1.74192,1.74192 z"
     id="circle69320"
     inkscape:connector-curvature="0" />
  <path
     style="display:inline;fill:#f9f9f9;fill-opacity:1;stroke:#000000;stroke-width:0.72609055;stroke-miterlimit:4;stroke-dasharray:none;stroke-opacity:1"
     d="m 771.90564,177.35164 a 1.7419246,1.7419246 0 0 0 1.74192,1.74193 1.7419246,1.7419246 0 0 0 1.74193,-1.74193 1.7419246,1.7419246 0 0 0 -1.74193,-1.74192 1.7419246,1.7419246 0 0 0 -1.74192,1.74192 z"
     id="circle69322"
     inkscape:connector-curvature="0" />
  <path
     inkscape:connector-curvature="0"
     id="rect69326"
     d="m 741.33652,176.76363 2.82503,-0.40297 c 0.5869,-0.0837 1.12678,0.32137 1.2105,0.90827 0.0837,0.5869 -0.32137,1.12678 -0.90827,1.2105 l -2.82503,0.40298 c -0.5869,0.0837 -1.12679,-0.32137 -1.2105,-0.90827 -0.0837,-0.5869 0.32137,-1.12679 0.90827,-1.21051 z"
     style="fill:#ffdb22;fill-opacity:1;stroke:#000000;stroke-width:0.72609055;stroke-miterlimit:4;stroke-dasharray:none;stroke-opacity:1" />
  <path
     inkscape:connector-curvature="0"
     id="rect69328"
     d="m 763.9424,176.76363 -2.82503,-0.40297 c -0.5869,-0.0837 -1.12679,0.32137 -1.2105,0.90827 -0.0837,0.5869 0.32137,1.12678 0.90827,1.2105 l 2.82503,0.40298 c 0.5869,0.0837 1.12678,-0.32137 1.2105,-0.90827 0.0837,-0.5869 -0.32137,-1.12679 -0.90827,-1.21051 z"
     style="fill:#ffdb22;fill-opacity:1;stroke:#000000;stroke-width:0.72609055;stroke-miterlimit:4;stroke-dasharray:none;stroke-opacity:1" />
  <path
     inkscape:connector-curvature="0"
     style="fill:#ffffff;fill-opacity:1;stroke:#000000;stroke-width:0.72609055;stroke-linejoin:round;stroke-miterlimit:4;stroke-dasharray:none;stroke-opacity:1"
     d="m 733.27193,193.45953 c -0.58111,-5.90666 13.22394,-6.00224 19.36745,-6.00628 6.14351,0.003 19.94857,0.0996 19.36745,6.00628 -0.32479,3.30124 -8.671,6.0063 -19.36745,6.0063 -10.69645,0 -19.04266,-2.70506 -19.36745,-6.0063 z"
     id="path69332" />
  <path
     style="fill:#b3b3b3;fill-opacity:1;stroke:#000000;stroke-width:0.72609055;stroke-linejoin:round;stroke-miterlimit:4;stroke-dasharray:none;stroke-opacity:1"
     d="m 752.63938,191.94248 c -4.24725,0.003 -12.66889,0.0749 -15.72126,3.06216 0.71587,0.3731 1.60028,0.74276 2.65494,1.07417 3.23226,1.01567 7.86121,1.68659 13.06632,1.68659 5.2051,0 9.83173,-0.67096 13.06312,-1.68659 1.05437,-0.3314 1.94217,-0.70107 2.65815,-1.07417 -3.05239,-2.9874 -11.47404,-3.05955 -15.72127,-3.06216 z"
     id="path69334"
     inkscape:connector-curvature="0" />
  <path
     inkscape:connector-curvature="0"
     style="display:inline;fill:#000000;fill-opacity:1;stroke:none;stroke-width:0.44227797;stroke-miterlimit:4;stroke-dasharray:none;stroke-opacity:1"
     d="m 751.35668,188.81298 c -0.56822,-0.0233 -1.37558,0.18276 -1.37558,0.18276 l 1.53269,0.35913 c 0,0 -0.44666,0.10113 -0.78237,0.21162 -0.23987,0.079 -0.8946,0.41043 -0.8946,0.41043 l 1.74751,0.0128 c 0,0 -0.50856,0.22353 -0.71183,0.3976 -0.15481,0.13249 -0.36874,0.47777 -0.36874,0.47777 0,0 1.55099,-0.5946 2.36957,-0.74069 0.84245,-0.15039 2.57158,-0.13147 2.57158,-0.13147 l -0.96514,-0.45211 c 0,0 -0.92667,-0.13118 -1.70905,-0.35592 -0.44715,-0.12838 -0.96744,-0.35361 -1.41404,-0.37195 z m -7.43578,0.31423 c -0.56675,0.0447 -1.3403,0.3495 -1.3403,0.3495 l 1.56796,0.16994 c 0,0 -0.42609,0.15498 -0.7439,0.30462 -0.22707,0.10704 -0.83047,0.51303 -0.83047,0.51303 l 1.73148,-0.19559 c 0,0 -0.46995,0.28408 -0.6477,0.48097 -0.13537,0.14988 -0.30141,0.51623 -0.30141,0.51623 0,0 1.45589,-0.77709 2.24773,-1.01965 0.81493,-0.24964 2.5331,-0.43608 2.5331,-0.43608 l -1.01965,-0.33026 c 0,0 -0.93437,-0.0212 -1.74111,-0.15071 -0.46108,-0.074 -1.01028,-0.23709 -1.45573,-0.20201 z m 14.78498,0.0705 c -0.56567,-0.0553 -1.3884,0.10903 -1.3884,0.10903 l 1.50704,0.44249 c 0,0 -0.44974,0.0755 -0.792,0.16674 -0.24455,0.0653 -0.92025,0.35912 -0.92025,0.35912 l 1.7411,0.11223 c 0,0 -0.52008,0.19365 -0.73427,0.35591 -0.16319,0.12362 -0.39761,0.45532 -0.39761,0.45532 0,0 1.58792,-0.50321 2.41447,-0.60281 0.85066,-0.10245 2.57158,0.0128 2.57158,0.0128 l -0.93308,-0.50661 c 0,0 -0.91381,-0.18366 -1.68019,-0.45211 -0.43801,-0.1535 -0.9438,-0.40857 -1.38839,-0.45211 z m 6.34558,0.67977 1.30823,0.85292 c 0,0 -0.45289,-0.057 -0.80803,-0.0673 -0.25375,-0.007 -0.99079,0.0802 -0.99079,0.0802 l 1.63529,0.60602 c 0,0 -0.5543,0.0344 -0.80802,0.12827 -0.19322,0.0716 -0.51945,0.32064 -0.51945,0.32064 0,0 1.67316,-0.0283 2.49462,0.11223 0.8454,0.14464 2.45936,0.74711 2.45936,0.74711 l -0.7439,-0.75032 c 0,0 -0.81807,-0.43577 -1.47177,-0.91063 -0.37362,-0.27141 -0.78321,-0.65894 -1.196,-0.82727 -0.26263,-0.10704 -0.60105,-0.18105 -0.87537,-0.22765 -0.27426,-0.0468 -0.48417,-0.0641 -0.48417,-0.0641 z m -25.15466,0.57716 c 0,0 -0.92355,0.17063 -1.74111,0.20842 -0.23362,0.0115 -0.48897,0.003 -0.7439,0.01 -0.25493,0.007 -0.50744,0.0272 -0.72145,0.0898 -0.54457,0.15892 -1.23449,0.61244 -1.23449,0.61244 l 1.57117,-0.15071 c 0,0 -0.38254,0.23804 -0.66053,0.4489 -0.19863,0.15071 -0.69901,0.67015 -0.69901,0.67015 l 1.65132,-0.54189 c 0,0 -0.39843,0.36793 -0.52906,0.5964 -0.0995,0.17399 -0.17956,0.56755 -0.17956,0.56755 0,0 1.25389,-1.0545 1.97517,-1.45253 0.74232,-0.40966 2.3792,-0.9427 2.3792,-0.9427 l -1.06775,-0.11543 z"
     id="path69336" />
</svg>
