<?xml version="1.0" encoding="UTF-8" standalone="no"?>
<!-- Created with Inkscape (http://www.inkscape.org/) -->

<svg
   xmlns:dc="http://purl.org/dc/elements/1.1/"
   xmlns:cc="http://creativecommons.org/ns#"
   xmlns:rdf="http://www.w3.org/1999/02/22-rdf-syntax-ns#"
   xmlns:svg="http://www.w3.org/2000/svg"
   xmlns="http://www.w3.org/2000/svg"
   xmlns:sodipodi="http://sodipodi.sourceforge.net/DTD/sodipodi-0.dtd"
   xmlns:inkscape="http://www.inkscape.org/namespaces/inkscape"
   width="129.29953"
   height="88.135811"
   id="svg3134"
   version="1.1"
   inkscape:version="0.48.4 r9939"
   sodipodi:docname="Nieuw document 4">
  <defs
     id="defs3136" />
  <sodipodi:namedview
     id="base"
     pagecolor="#ffffff"
     bordercolor="#666666"
     borderopacity="1.0"
     inkscape:pageopacity="0.0"
     inkscape:pageshadow="2"
     inkscape:zoom="7.9195959"
     inkscape:cx="44.472684"
     inkscape:cy="53.991728"
     inkscape:document-units="px"
     inkscape:current-layer="layer1"
     showgrid="false"
     fit-margin-top="0"
     fit-margin-left="0"
     fit-margin-right="0"
     fit-margin-bottom="0"
     inkscape:window-width="1600"
     inkscape:window-height="837"
     inkscape:window-x="-8"
     inkscape:window-y="-8"
     inkscape:window-maximized="1" />
  <metadata
     id="metadata3139">
    <rdf:RDF>
      <cc:Work
         rdf:about="">
        <dc:format>image/svg+xml</dc:format>
        <dc:type
           rdf:resource="http://purl.org/dc/dcmitype/StillImage" />
        <dc:title></dc:title>
      </cc:Work>
    </rdf:RDF>
  </metadata>
  <g
     inkscape:label="Laag 1"
     inkscape:groupmode="layer"
     id="layer1"
     transform="translate(-221.25275,-285.38937)">
    <rect
       style="opacity:0.98999999;fill:#003c7a;fill-opacity:1;fill-rule:evenodd;stroke:none"
       id="rect4787"
       width="129.29953"
       height="88.135811"
       x="221.25275"
       y="285.38937" />
    <rect
       style="opacity:0.98999999;fill:#f9f9f9;fill-opacity:1;fill-rule:evenodd;stroke:none"
       id="rect4789"
       width="44.839287"
       height="88.308212"
       x="220.87628"
       y="285.39011" />
    <rect
       style="opacity:0.98999999;fill:#f47320;fill-opacity:1;fill-rule:evenodd;stroke:none"
       id="rect4791"
       width="18.941755"
       height="44.151276"
       x="233.99249"
       y="285.31174" />
    <path
       sodipodi:nodetypes="ccccccccccccccc"
       inkscape:connector-curvature="0"
       id="path9771-4-1"
       d="m 243.20003,312.19 c -0.9429,0.041 -1.3096,0.7482 -1.4661,1.3083 -0.4922,0.5601 -0.7925,1.1044 -0.9142,1.634 -0.5627,0.5954 -0.6331,1.2337 -0.7465,1.8683 l -0.017,0.137 c -0.2371,0.577 -0.2373,1.189 -0.1678,1.8112 -0.2853,1.1625 0.2218,2.3704 1.7822,2.491 -0.2902,0.3589 -0.055,0.6234 0.093,0.7027 l 0.1042,0.2 0.1157,0.2515 0,0.069 c -0.7866,0.5873 -1.3704,1.2557 -1.4351,2.1311 -0.1429,1.2606 0.6682,2.8209 2.6524,3.0109 l 0.2524,-3.8622 z"
       style="fill:#f47523;fill-opacity:1;stroke:none" />
    <path
       sodipodi:nodetypes="ccccccccccccccc"
       inkscape:connector-curvature="0"
       id="path9771-1-8-7"
       d="m 243.19843,312.1914 c 0.943,0.041 1.3097,0.7483 1.4662,1.3083 0.4921,0.5602 0.7924,1.1044 0.9142,1.634 0.5627,0.5955 0.633,1.2338 0.7464,1.8683 l 0.017,0.1371 c 0.237,0.5769 0.2371,1.1889 0.1678,1.8112 0.2852,1.1624 -0.2218,2.3704 -1.7823,2.491 0.2902,0.3589 0.055,0.6234 -0.093,0.7027 l -0.1041,0.2 -0.1157,0.2513 0,0.069 c 0.7866,0.5873 1.3703,1.2556 1.435,2.1311 0.1429,1.2605 -0.6682,2.8208 -2.6524,3.0108 l -0.2524,-3.8621 z"
       style="fill:#f47523;fill-opacity:1;stroke:none" />
    <path
       inkscape:connector-curvature="0"
       id="path9718-2-6-4"
       d="m 242.82633,327.7756 c -0.3956,-0.069 -0.7451,-0.2054 -1.0639,-0.4138 -0.7935,-0.5189 -1.2522,-1.3531 -1.2515,-2.2764 0,-0.4333 0.077,-0.7749 0.2606,-1.1623 0.2086,-0.4402 0.55,-0.8326 0.9538,-1.0968 0.1266,-0.083 0.2346,-0.1706 0.2413,-0.1964 0.01,-0.029 -0.019,-0.098 -0.07,-0.1801 -0.045,-0.074 -0.094,-0.1732 -0.1087,-0.2216 -0.017,-0.058 -0.053,-0.1042 -0.1044,-0.1351 -0.1593,-0.097 -0.2205,-0.3551 -0.1303,-0.5504 l 0.044,-0.096 -0.1421,-0.016 c -0.4182,-0.046 -1.0006,-0.3428 -1.2443,-0.6331 -0.3396,-0.4044 -0.447,-0.8 -0.3939,-1.4506 0.015,-0.1899 0.028,-0.6057 0.028,-0.9239 0,-0.6352 0.014,-0.7403 0.1526,-1.1811 0.056,-0.1776 0.082,-0.3136 0.093,-0.481 0.015,-0.251 0.1236,-0.7281 0.2107,-0.9295 0.087,-0.2008 0.2083,-0.3889 0.3637,-0.5641 0.1391,-0.1568 0.1517,-0.1811 0.2218,-0.4275 0.1343,-0.473 0.3063,-0.7711 0.6846,-1.187 0.1312,-0.1442 0.1584,-0.1903 0.1998,-0.3385 0.084,-0.3026 0.2184,-0.5411 0.4093,-0.7286 0.2145,-0.211 0.3226,-0.2824 0.5419,-0.358 0.5003,-0.1725 1.1331,-0.044 1.4691,0.2977 0.1466,0.1491 0.3089,0.4087 0.4297,0.6874 0.061,0.1397 0.1141,0.2188 0.2129,0.315 0.1606,0.1566 0.3909,0.4921 0.5168,0.7526 0.1292,0.2676 0.2569,0.6143 0.277,0.7517 0.014,0.096 0.039,0.1394 0.1521,0.2627 0.1663,0.1811 0.2635,0.3363 0.3875,0.6187 0.139,0.3169 0.1844,0.518 0.2016,0.894 0.014,0.3051 0.021,0.3416 0.1038,0.5485 0.16,0.399 0.1789,0.5474 0.141,1.1098 -0.02,0.2942 -0.02,0.4801 0,0.7243 0.03,0.3624 0.01,0.7372 -0.061,0.9958 -0.1161,0.443 -0.4607,0.8545 -0.8777,1.0477 -0.1203,0.056 -0.4367,0.1462 -0.6809,0.1947 -0.064,0.012 -0.064,0.013 -0.025,0.088 0.051,0.1 0.051,0.3356 0,0.4269 -0.021,0.038 -0.072,0.104 -0.1119,0.1456 -0.041,0.042 -0.074,0.099 -0.074,0.1284 0,0.069 -0.076,0.2309 -0.1581,0.3362 -0.076,0.098 -0.1,0.068 0.2083,0.2647 0.8735,0.5595 1.3662,1.6542 1.1993,2.6647 -0.1312,0.7944 -0.5659,1.4552 -1.2479,1.8967 -0.3145,0.2036 -0.6476,0.3317 -1.0343,0.3975 -0.2605,0.044 -0.6701,0.044 -0.9262,0 z m 0.7957,-0.068 c 0.3576,-0.031 0.8037,-0.1933 1.14,-0.4138 0.787,-0.5159 1.2158,-1.3009 1.2147,-2.2234 0,-0.5386 -0.1623,-1.045 -0.4836,-1.5143 -0.1534,-0.2241 -0.4767,-0.5268 -0.7508,-0.7031 -0.1349,-0.087 -0.2509,-0.1719 -0.2577,-0.1893 -0.01,-0.017 0.025,-0.082 0.071,-0.1429 0.096,-0.1289 0.1593,-0.2677 0.1593,-0.3488 0,-0.034 0.032,-0.086 0.081,-0.1314 0.1104,-0.1023 0.1332,-0.1552 0.1332,-0.3081 0,-0.1423 -0.022,-0.2002 -0.1109,-0.2942 l -0.058,-0.061 0.126,-0.015 c 0.1852,-0.022 0.5827,-0.126 0.7236,-0.1892 0.4581,-0.2053 0.8023,-0.6381 0.9014,-1.1331 0.043,-0.2138 0.045,-0.335 0.03,-1.5522 l -0.01,-0.747 -0.1111,-0.315 c -0.1,-0.2827 -0.1126,-0.344 -0.1268,-0.5952 -0.01,-0.1541 -0.031,-0.356 -0.05,-0.4488 -0.071,-0.3481 -0.2654,-0.7521 -0.4995,-1.0377 -0.1145,-0.1395 -0.1554,-0.2112 -0.1844,-0.3224 -0.051,-0.194 -0.2607,-0.6914 -0.3622,-0.8572 -0.1012,-0.1655 -0.3164,-0.449 -0.4479,-0.5901 -0.062,-0.066 -0.1177,-0.161 -0.1519,-0.2568 -0.1226,-0.3438 -0.3867,-0.7495 -0.5681,-0.8725 -0.3839,-0.2605 -1.0318,-0.3066 -1.4398,-0.1022 -0.2168,0.1085 -0.4229,0.2987 -0.5628,0.5195 -0.076,0.1202 -0.2013,0.4185 -0.2224,0.5306 -0.011,0.06 -0.08,0.1658 -0.2173,0.3362 -0.2486,0.3082 -0.3594,0.4678 -0.4574,0.6586 -0.078,0.1512 -0.2619,0.6627 -0.2626,0.7284 0,0.02 -0.039,0.072 -0.085,0.1167 -0.1047,0.099 -0.3187,0.4135 -0.388,0.5701 -0.088,0.1993 -0.2199,0.7543 -0.2327,0.9809 -0.01,0.1439 -0.033,0.2687 -0.077,0.3968 -0.082,0.2332 -0.1585,0.5586 -0.1796,0.7629 -0.01,0.086 0,0.3383 0.014,0.5611 0.025,0.3572 0.025,0.4477 -0.013,0.766 -0.087,0.7553 0.032,1.1408 0.4858,1.5877 0.1395,0.1372 0.2246,0.198 0.3821,0.2729 0.2385,0.1135 0.5517,0.2071 0.7629,0.228 0.2181,0.022 0.2265,0.026 0.1673,0.088 -0.1743,0.1823 -0.1568,0.4574 0.038,0.5934 0.067,0.047 0.1048,0.098 0.135,0.1818 0.023,0.064 0.074,0.1637 0.1132,0.2213 0.062,0.09 0.069,0.1155 0.051,0.1861 -0.017,0.069 -0.054,0.1032 -0.2306,0.2179 -0.5156,0.3347 -0.8959,0.8219 -1.0924,1.3996 -0.3106,0.9134 -0.076,1.9364 0.6058,2.6453 0.4667,0.4851 1.0686,0.7745 1.7178,0.8262 0.2105,0.017 0.2761,0.016 0.5818,-0.011 z m -0.6823,-0.2211 c -0.4717,-0.065 -0.8712,-0.2376 -1.2493,-0.538 -0.9273,-0.7366 -1.1784,-2.0944 -0.5746,-3.1079 0.2174,-0.3652 0.5126,-0.6606 0.8664,-0.8675 0.1888,-0.1103 0.2271,-0.1581 0.2521,-0.3135 0.012,-0.073 0,-0.1032 -0.062,-0.1895 -0.109,-0.1474 -0.1643,-0.2793 -0.1649,-0.3932 l 0,-0.099 1.2707,0 1.2706,0 0,0.099 c 0,0.1218 -0.06,0.2536 -0.174,0.3873 -0.163,0.1908 -0.1162,0.3088 0.2072,0.5218 0.4413,0.2906 0.6946,0.5661 0.9075,0.9874 0.074,0.147 0.1568,0.3564 0.1927,0.4902 0.055,0.2052 0.063,0.2771 0.063,0.5952 0,0.4011 -0.046,0.6312 -0.196,0.9839 -0.2205,0.5208 -0.7178,1.0114 -1.2781,1.2611 -0.3582,0.1596 -0.9305,0.2382 -1.3299,0.1827 z m 0.7535,-0.3428 c 0.098,-0.02 0.237,-0.057 0.3088,-0.083 0.512,-0.184 1.0324,-0.6954 1.2362,-1.2149 0.1375,-0.3502 0.1532,-0.4394 0.1531,-0.8686 0,-0.348 -0.01,-0.4212 -0.057,-0.5952 -0.1531,-0.5332 -0.5061,-1.0643 -0.9281,-1.3964 -0.1178,-0.093 -0.2142,-0.1788 -0.2142,-0.1914 0,-0.012 -0.059,-0.023 -0.1319,-0.023 l -0.1319,0 0.2004,0.2277 c 0.5549,0.6301 0.8414,1.1386 0.9422,1.6721 0.095,0.5035 -0.094,1.0966 -0.4752,1.4923 -0.1053,0.1092 -0.2482,0.2281 -0.3339,0.2779 -0.082,0.048 -0.1527,0.084 -0.156,0.081 0,0 0.02,-0.095 0.052,-0.2025 0.032,-0.1082 0.058,-0.2006 0.058,-0.2056 0,-0.01 -0.047,0.017 -0.1057,0.049 -0.2257,0.124 -0.4066,0.1663 -0.7137,0.167 -0.3173,0 -0.4394,-0.029 -0.6887,-0.1637 -0.4119,-0.2236 -0.7519,-0.6939 -0.8937,-1.2361 -0.072,-0.2722 -0.077,-0.7568 -0.013,-0.9921 0.1075,-0.3897 0.3443,-0.716 0.7216,-0.994 0.1014,-0.075 0.1945,-0.1443 0.207,-0.1546 0.013,-0.01 -0.069,-0.018 -0.1808,-0.018 l -0.2034,0 -0.064,0.092 c -0.035,0.05 -0.1377,0.145 -0.227,0.2103 -0.2658,0.1943 -0.5466,0.5575 -0.7397,0.957 -0.2456,0.5081 -0.2758,1.1266 -0.082,1.6859 0.1983,0.5731 0.5806,1.0061 1.1191,1.2674 0.4246,0.206 0.8616,0.2582 1.3419,0.1602 z m 0.4689,-4.5294 c 0.01,-0.023 -0.1956,-0.03 -0.9065,-0.035 -0.886,-0.01 -0.9622,0 -0.9,0.06 0.01,0.01 0.4168,0.013 0.9065,0.01 0.6776,-0.01 0.8927,-0.013 0.9,-0.035 z m 0.1237,-0.2107 c 0.058,-0.074 0.1185,-0.171 0.1343,-0.2158 l 0.029,-0.082 -1.1653,-0.01 c -0.6409,0 -1.1701,0 -1.1759,0.01 -0.018,0.017 0.1061,0.2543 0.1667,0.3192 0.031,0.033 0.077,0.072 0.1025,0.087 0.032,0.018 0.3214,0.026 0.9246,0.027 l 0.8787,0 0.1057,-0.1341 z m -1.3687,-0.011 c -0.027,-0.03 -0.056,-0.082 -0.064,-0.1172 l -0.015,-0.064 0.6908,0 0.6907,0 -0.015,0.052 c -0.01,0.029 -0.034,0.079 -0.058,0.1109 l -0.042,0.058 -0.5689,0.01 c -0.5648,0.01 -0.5692,0.01 -0.6178,-0.047 z m -1.0905,-0.5106 c -0.066,-0.072 -0.059,-0.2478 0.014,-0.3049 0.051,-0.04 0.1311,-0.043 1.4177,-0.043 l 1.3642,0 0.058,0.057 c 0.078,0.077 0.078,0.1949 0,0.2777 l -0.058,0.062 -1.375,0 c -1.3678,0 -1.3752,0 -1.4203,-0.05 z m 2.8069,-0.079 c 0.05,-0.075 0.027,-0.1701 -0.044,-0.1872 -0.029,-0.01 -0.6461,-0.01 -1.3709,-0.01 l -1.3179,0.01 -0.032,0.065 c -0.027,0.057 -0.026,0.073 0.01,0.1226 l 0.038,0.057 1.3408,0 1.3408,0 0.039,-0.058 z m -1.905,-0.046 c -0.01,-0.019 -0.01,-0.045 0,-0.058 0.01,-0.016 0.278,-0.024 0.7978,-0.024 l 0.7824,0 0,0.058 0,0.058 -0.7845,0 c -0.664,0 -0.7866,-0.01 -0.7978,-0.034 z m -0.2422,-0.4718 c -0.013,-0.024 -0.036,-0.09 -0.052,-0.1479 -0.066,-0.2477 -0.3195,-1.1098 -0.4081,-1.3889 -0.1787,-0.5635 -0.3081,-0.8848 -0.5783,-1.4355 -0.3906,-0.7964 -0.5104,-1.112 -0.6913,-1.8207 l -0.069,-0.2684 -0.01,0.2437 c -0.01,0.209 0,0.2848 0.067,0.5336 0.1123,0.4413 0.207,0.6855 0.5412,1.3955 0.3776,0.8024 0.5451,1.1857 0.6569,1.5035 0.1022,0.2907 0.2541,0.7973 0.2424,0.8088 -0.01,0.01 -0.044,-0.084 -0.087,-0.1961 -0.1302,-0.3395 -0.3495,-0.8123 -0.5045,-1.0877 -0.2367,-0.4208 -0.5986,-1.1488 -0.7203,-1.4497 -0.1733,-0.4277 -0.2536,-0.7261 -0.3583,-1.3314 l -0.016,-0.093 -0.035,0.105 c -0.024,0.069 -0.036,0.2012 -0.037,0.3852 0,0.2625 0,0.2955 0.084,0.5261 0.1275,0.3657 0.2941,0.7129 0.5719,1.1923 0.359,0.6194 0.5777,1.0202 0.7305,1.3393 0.1564,0.3263 0.1739,0.3697 0.1414,0.3499 -0.073,-0.044 -0.3153,-0.3868 -0.4683,-0.6625 -0.097,-0.1746 -0.2705,-0.4593 -0.3854,-0.6327 -0.3702,-0.558 -0.644,-1.0558 -0.7478,-1.3598 -0.1185,-0.3467 -0.1335,-0.928 -0.037,-1.4221 0.05,-0.2532 0.123,-0.4482 0.241,-0.6404 0.076,-0.1237 0.2734,-0.3282 0.2956,-0.3063 0.01,0.01 0,0.067 -0.017,0.1362 -0.034,0.1592 -0.014,0.4842 0.048,0.734 0.092,0.3716 0.4354,1.227 0.7703,1.9169 0.2543,0.5239 0.3582,0.8003 0.49,1.3033 0.099,0.3756 0.3886,1.7853 0.3711,1.8026 -0.01,0.01 -0.021,-0.01 -0.034,-0.032 z m 0.3683,0.021 c -0.031,-0.047 -0.059,-0.3984 -0.074,-0.9394 -0.022,-0.7436 -0.055,-1.2009 -0.1218,-1.6573 -0.1136,-0.7831 -0.3195,-1.9529 -0.4377,-2.4859 -0.2519,-1.137 -0.2998,-1.5126 -0.2783,-2.1825 0.035,-1.1169 0.3613,-1.6252 1.0947,-1.7095 0.8698,-0.1 1.371,0.3851 1.464,1.417 0.061,0.6701 0.011,1.168 -0.2277,2.296 -0.3702,1.7494 -0.5597,3.2213 -0.5991,4.6528 -0.016,0.563 -0.026,0.6593 -0.07,0.6167 -0.031,-0.031 -0.034,-0.7495 -0.01,-1.3558 0.05,-1.1042 0.1351,-1.8737 0.3223,-2.9178 0.3181,-1.7739 0.3513,-2.0443 0.3515,-2.8593 0,-0.4611 -0.01,-0.6367 -0.039,-0.779 -0.062,-0.2917 -0.2437,-0.5788 -0.4732,-0.7469 -0.089,-0.064 -0.1455,-0.07 -0.096,-0.01 0.045,0.055 0.1462,0.3637 0.1838,0.5609 0.053,0.276 0.083,1.0435 0.059,1.4815 -0.011,0.2026 -0.058,0.7043 -0.1042,1.1152 -0.1263,1.124 -0.1508,1.4671 -0.2277,3.1959 -0.092,2.0699 -0.099,2.2086 -0.1192,2.2777 -0.042,0.1465 -0.053,-0.2458 -0.039,-1.3655 0.023,-1.8362 0.075,-3.1266 0.1709,-4.1898 0.1638,-1.8299 0.1421,-2.4057 -0.1136,-3.0104 -0.065,-0.1542 -0.075,-0.1676 -0.09,-0.1154 -0.01,0.032 -0.029,1.2718 -0.044,2.7538 -0.055,5.2151 -0.066,5.9515 -0.082,5.9679 -0.038,0.037 -0.058,-0.066 -0.072,-0.3768 -0.015,-0.3422 -0.049,-3.1753 -0.076,-6.4621 -0.01,-1.0495 -0.024,-1.9082 -0.033,-1.9082 -0.026,0 -0.1654,0.3415 -0.2179,0.5355 -0.039,0.1433 -0.05,0.2773 -0.06,0.7133 -0.013,0.5465 0.01,0.9663 0.1124,2.2174 0.099,1.1983 0.137,2.1225 0.1581,3.8634 0.014,1.1943 0.01,1.4407 -0.04,1.4121 -0.035,-0.022 -0.045,-0.1771 -0.072,-1.1556 -0.043,-1.6323 -0.1352,-3.0041 -0.2962,-4.4233 -0.1103,-0.9725 -0.1402,-1.4364 -0.1247,-1.9373 0.015,-0.4775 0.067,-0.732 0.2152,-1.0474 0.046,-0.098 0.079,-0.1781 0.072,-0.1781 -0.036,0 -0.2308,0.1541 -0.3251,0.2571 -0.2574,0.2815 -0.2895,0.4488 -0.2881,1.5052 0,0.9163 0.01,0.9604 0.2622,2.3438 0.3117,1.6837 0.3974,2.4448 0.4238,3.7601 0.012,0.5927 0,0.9261 -0.042,0.8694 z m 1.0762,0.012 c 0,-0.042 0.2289,-1.1582 0.3122,-1.5235 0.1392,-0.6102 0.2863,-1.0256 0.5666,-1.6001 0.2481,-0.5087 0.5372,-1.2013 0.6799,-1.629 0.135,-0.4047 0.1842,-0.8045 0.1283,-1.0419 -0.012,-0.051 -0.017,-0.098 -0.011,-0.1038 0.029,-0.029 0.2938,0.2877 0.3724,0.4449 0.2386,0.4768 0.3008,1.2605 0.1474,1.8542 -0.069,0.2682 -0.3528,0.7983 -0.7479,1.3988 -0.1268,0.1925 -0.3029,0.4814 -0.3915,0.6419 -0.1533,0.2778 -0.3573,0.571 -0.4623,0.6643 -0.048,0.044 -0.048,0.043 -0.021,-0.036 0.051,-0.143 0.482,-0.956 0.7742,-1.459 0.4054,-0.6979 0.539,-0.9721 0.6854,-1.408 0.083,-0.2468 0.1,-0.5441 0.043,-0.7858 -0.048,-0.2099 -0.053,-0.2041 -0.1067,0.1537 -0.043,0.2792 -0.1726,0.7348 -0.3003,1.0504 -0.1218,0.3014 -0.4407,0.9465 -0.7787,1.5756 -0.1241,0.2311 -0.2868,0.5643 -0.3615,0.7406 -0.074,0.1763 -0.14,0.3163 -0.1453,0.3111 -0.015,-0.015 0.1075,-0.417 0.2248,-0.7367 0.1387,-0.3779 0.2454,-0.6216 0.6076,-1.3888 0.3463,-0.7335 0.441,-0.9739 0.5539,-1.4069 0.073,-0.2799 0.082,-0.345 0.076,-0.5635 l -0.01,-0.247 -0.091,0.3501 c -0.1797,0.6879 -0.3241,1.0619 -0.6806,1.7623 -0.2974,0.5845 -0.4855,1.1057 -0.842,2.3331 -0.099,0.3397 -0.1899,0.628 -0.2029,0.6408 -0.013,0.013 -0.024,0.016 -0.024,0.01 z m -1.9746,-0.3781 c -0.1128,-0.1679 -0.3525,-0.4889 -0.5327,-0.7136 -0.7592,-0.9471 -0.9688,-1.2771 -1.1768,-1.8535 l -0.068,-0.189 0.015,0.1284 c 0.022,0.1908 0.1119,0.4401 0.2604,0.7197 0.2696,0.5078 0.4165,0.7202 0.8449,1.2217 0.1131,0.1326 0.2682,0.3198 0.3443,0.416 0.1186,0.15 0.1274,0.1673 0.062,0.1211 -0.184,-0.1289 -0.6113,-0.536 -0.7822,-0.7455 -0.1981,-0.2428 -0.296,-0.3864 -0.529,-0.7759 -0.1413,-0.2363 -0.146,-0.2413 -0.1307,-0.1401 0.051,0.3369 0.362,0.7918 0.9006,1.317 l 0.3572,0.3482 -0.1663,-0.089 c -0.3883,-0.2079 -0.5486,-0.352 -0.8437,-0.7589 -0.3556,-0.4902 -0.4374,-0.7118 -0.4745,-1.2847 -0.025,-0.387 0,-0.8614 0.056,-1.0964 l 0.031,-0.1285 0.031,0.1401 c 0.059,0.2707 0.1508,0.5168 0.3224,0.8636 0.2133,0.4314 0.3698,0.6865 0.7051,1.1492 0.3166,0.4369 0.6519,0.93 0.7503,1.1033 0.075,0.1319 0.2515,0.5376 0.2382,0.5468 0,0 -0.1,-0.1322 -0.2127,-0.3 z m 0.7328,0.1734 c -0.01,-0.083 -0.056,-0.5509 -0.1016,-1.0388 -0.1277,-1.3605 -0.1773,-1.6495 -0.5598,-3.2678 -0.1305,-0.552 -0.2533,-1.0773 -0.2731,-1.1671 -0.064,-0.2919 -0.1023,-0.6922 -0.1031,-1.0809 0,-0.2301 -0.01,-0.3754 -0.023,-0.3672 -0.013,0.01 -0.046,0.074 -0.076,0.1473 -0.048,0.1184 -0.054,0.174 -0.054,0.4838 0,0.4385 0.034,0.6613 0.1803,1.1904 0.1178,0.4258 0.5219,2.1171 0.5089,2.1299 -0.012,0.011 -0.2916,-0.6541 -0.4085,-0.9709 -0.151,-0.4095 -0.2555,-0.7768 -0.358,-1.2594 -0.084,-0.3948 -0.088,-0.4338 -0.089,-0.8845 0,-0.2593 -0.01,-0.4641 -0.016,-0.4552 -0.037,0.041 -0.093,0.2685 -0.1135,0.4603 -0.062,0.5941 0.1018,1.2876 0.5787,2.4504 0.1475,0.3595 0.2969,0.7399 0.3322,0.8454 0.1519,0.4551 0.4447,1.9221 0.4022,2.0157 -0.02,0.044 -0.033,0.013 -0.078,-0.1907 -0.2389,-1.0754 -0.4069,-1.5991 -0.7557,-2.3553 -0.2498,-0.5415 -0.2903,-0.647 -0.4699,-1.2217 -0.2542,-0.8136 -0.2935,-1.0941 -0.2148,-1.5354 0.087,-0.4902 0.2638,-0.8305 0.6326,-1.2194 l 0.1519,-0.1601 0,0.4213 c 0.01,0.7484 0.046,1.0115 0.3666,2.4763 0.2931,1.3405 0.3819,1.8521 0.4715,2.718 0.055,0.5353 0.1021,1.4304 0.092,1.7539 l -0.01,0.2334 -0.018,-0.1517 z m 1.0537,-0.1401 c 0,-0.6275 0.073,-1.6199 0.1897,-2.4322 0.083,-0.5836 0.1273,-0.8089 0.414,-2.1311 0.1224,-0.5649 0.2391,-1.1373 0.2591,-1.2722 0.045,-0.3038 0.093,-1.0702 0.082,-1.2863 -0.01,-0.088 0,-0.1608 0.01,-0.1608 0.01,0 0.074,0.062 0.144,0.1383 0.2565,0.2786 0.5158,0.7983 0.6006,1.2038 0.05,0.2407 0.05,0.6637 -1e-4,0.922 -0.059,0.3017 -0.3394,1.1065 -0.5452,1.5639 -0.4365,0.9697 -0.5757,1.3934 -0.8694,2.6467 -0.045,0.1933 -0.058,0.2217 -0.075,0.175 -0.026,-0.068 0,-0.238 0.1378,-0.9076 0.1817,-0.8797 0.2444,-1.0874 0.5594,-1.8524 0.3119,-0.7574 0.4621,-1.2063 0.5593,-1.6704 0.1044,-0.4994 0.081,-1.0724 -0.053,-1.3084 -0.031,-0.055 -0.032,-0.049 -0.016,0.07 0.033,0.2435 0.016,0.6557 -0.038,0.957 -0.066,0.3672 -0.2134,0.9674 -0.3122,1.2722 -0.1197,0.3692 -0.5453,1.3886 -0.5118,1.226 0.068,-0.3311 0.3586,-1.5312 0.4773,-1.973 0.1927,-0.7168 0.2112,-0.8297 0.2122,-1.2955 0,-0.3491 0,-0.3976 -0.054,-0.5188 -0.03,-0.074 -0.065,-0.1399 -0.077,-0.1474 -0.014,-0.01 -0.022,0.1476 -0.022,0.3952 0,0.569 -0.039,0.8143 -0.3086,1.9516 -0.4385,1.848 -0.4999,2.1807 -0.5932,3.2096 -0.06,0.6644 -0.1428,1.4626 -0.1544,1.4938 -0.01,0.013 -0.01,-0.1079 -0.011,-0.2684 z m 0.5443,0.2765 c 0,-0.027 0.1296,-0.322 0.2134,-0.4858 0.094,-0.1837 0.4048,-0.6497 0.7193,-1.0782 0.3174,-0.4325 0.5126,-0.7433 0.7164,-1.14 0.1995,-0.3885 0.2789,-0.5898 0.3591,-0.9104 l 0.043,-0.175 0.031,0.1283 c 0.06,0.2493 0.083,0.7009 0.055,1.0835 -0.042,0.6034 -0.1144,0.7926 -0.4991,1.3207 -0.2386,0.3278 -0.3331,0.4206 -0.6062,0.5959 -0.4248,0.2726 -0.4312,0.2542 -0.041,-0.1171 0.3879,-0.3688 0.6361,-0.6696 0.7719,-0.9353 0.087,-0.1711 0.1693,-0.4129 0.1546,-0.4564 -0.01,-0.014 -0.077,0.094 -0.1613,0.2397 -0.3068,0.5316 -0.5367,0.8242 -0.916,1.1659 -0.2382,0.2146 -0.438,0.3797 -0.438,0.3619 0,-0.013 0.3922,-0.4916 0.7385,-0.9012 0.3949,-0.4671 0.7964,-1.247 0.8408,-1.634 l 0.015,-0.1284 -0.062,0.1751 c -0.1579,0.4458 -0.4624,0.9716 -0.8275,1.4292 -0.095,0.119 -0.2859,0.3582 -0.4241,0.5315 -0.1383,0.1733 -0.3489,0.4562 -0.4679,0.6285 -0.1189,0.1724 -0.2163,0.308 -0.2163,0.3016 z m -2.933,-0.2666 c -0.4078,-0.2568 -0.6954,-0.488 -0.8979,-0.7218 -0.078,-0.09 -0.1519,-0.1739 -0.1647,-0.1868 -0.013,-0.013 0.016,0.055 0.064,0.1496 0.1081,0.213 0.2617,0.3754 0.5703,0.603 0.2873,0.2119 0.2925,0.2169 0.1425,0.1341 -0.2533,-0.1398 -0.5056,-0.3164 -0.6127,-0.4288 -0.062,-0.064 -0.1117,-0.1086 -0.1117,-0.098 0,0.052 0.2106,0.3201 0.3181,0.4043 0.067,0.052 0.2388,0.1515 0.3825,0.2205 0.2813,0.1351 0.2386,0.1455 -0.1017,0.025 -0.4068,-0.144 -0.6762,-0.4259 -0.8422,-0.8811 -0.035,-0.097 -0.05,-0.2079 -0.057,-0.444 -0.01,-0.2214 0,-0.3047 0.015,-0.2801 0.014,0.019 0.081,0.127 0.149,0.2395 0.2432,0.3995 0.7068,0.8871 1.0986,1.1554 0.2014,0.1379 0.4417,0.3302 0.4147,0.3317 -0.01,0 -0.1722,-0.1 -0.3675,-0.2229 z m 3.502,0.1302 c 0.058,-0.053 0.2026,-0.1632 0.3206,-0.2445 0.2061,-0.1417 0.5504,-0.4645 0.7852,-0.7359 0.1359,-0.1571 0.263,-0.3377 0.3783,-0.5375 l 0.087,-0.1511 -0.01,0.3268 c -0.01,0.2784 -0.018,0.3501 -0.07,0.4841 -0.1167,0.3051 -0.3491,0.5997 -0.5762,0.7305 -0.1137,0.065 -0.3701,0.1623 -0.4876,0.1841 -0.06,0.011 -0.024,-0.015 0.1306,-0.093 0.1176,-0.06 0.2459,-0.1302 0.285,-0.1564 0.1131,-0.076 0.273,-0.231 0.335,-0.3257 0.081,-0.1236 0.071,-0.1388 -0.015,-0.023 -0.085,0.1137 -0.3088,0.2647 -0.5923,0.3998 -0.1111,0.053 -0.1814,0.083 -0.1564,0.067 0.1908,-0.1229 0.5268,-0.3882 0.6237,-0.4923 0.064,-0.07 0.1583,-0.2037 0.2085,-0.2984 l 0.091,-0.1723 -0.242,0.2497 c -0.2899,0.2991 -0.4417,0.4201 -0.834,0.6648 -0.3756,0.2345 -0.3907,0.2415 -0.2622,0.1242 z"
       style="fill:#ffffff;fill-opacity:1" />
    <g
       transform="matrix(0.02068481,0,0,0.01971577,236.45173,303.1348)"
       id="layer1-8-7-2-5-0"
       inkscape:label="Laag 1"
       style="fill:#ffffff">
      <path
         inkscape:connector-curvature="0"
         id="path3874-6-2-0-9"
         d="m 310.61525,406.26601 c -28.11924,-1.03479 -51.69454,-4.74888 -62.27911,-9.81158 -7.47459,-3.57517 -7.76195,-7.24594 -0.86327,-11.02805 7.54399,-4.13589 26.58712,-7.78499 48.96001,-9.38187 11.32227,-0.80813 16.40846,-0.96856 30.70792,-0.96856 19.34811,0 31.79101,0.67465 47.11013,2.55427 20.10819,2.46725 34.69917,6.96264 36.99597,11.39825 1.40546,2.71421 -0.22477,4.99775 -5.30144,7.42596 -10.76826,5.15054 -33.90132,8.75016 -63.14239,9.82522 -7.48706,0.27524 -24.53355,0.26802 -32.18782,-0.0136 z m -72.4716,-34.26197 c -2.97387,-0.5766 -5.87887,-2.78336 -7.10403,-5.39657 -0.61502,-1.3118 -0.70892,-1.8025 -0.70892,-3.70479 0,-1.98707 0.0759,-2.34455 0.80916,-3.8115 2.95591,-5.91354 11.21451,-7.25541 16.17972,-2.62891 4.6789,4.35973 3.44837,11.76448 -2.42538,14.59475 -2.29279,1.10477 -4.40707,1.40137 -6.75055,0.94702 z m 173.84473,-0.007 c -2.49417,-0.47991 -5.18907,-2.27595 -6.52744,-4.3503 -2.27044,-3.51897 -1.63364,-8.26379 1.50109,-11.18468 4.96521,-4.62651 13.22381,-3.28464 16.17972,2.62891 0.73325,1.46695 0.80914,1.82443 0.80914,3.8115 0,1.90228 -0.0939,2.39299 -0.70891,3.70478 -1.87069,3.99012 -6.6447,6.27657 -11.2536,5.38979 z m -135.23301,-9.59113 c -3.14784,-0.75136 -5.94875,-2.6783 -7.08642,-4.87522 -0.92573,-1.78765 -0.87639,-4.31897 0.12202,-6.26033 1.54936,-3.01267 5.2621,-5.63746 9.49975,-6.71599 2.30615,-0.58694 6.40795,-0.64004 8.51925,-0.11028 4.74109,1.18961 7.5963,4.15776 7.60911,7.9101 0.0153,4.45231 -4.70441,8.7428 -11.07204,10.06539 -2.139,0.44429 -5.69994,0.43787 -7.59167,-0.0137 z m 93.05587,0.0142 c -2.27004,-0.50428 -4.06075,-1.24772 -5.97093,-2.47893 -5.32776,-3.43406 -6.55267,-8.66221 -2.93533,-12.52856 1.14012,-1.2186 3.40417,-2.42598 5.56665,-2.96857 2.11129,-0.52976 6.21311,-0.47667 8.51926,0.11028 4.23764,1.07852 7.95039,3.70331 9.49974,6.71598 0.98143,1.90833 1.04793,4.486 0.15917,6.17016 -1.10499,2.09395 -3.05769,3.60683 -5.95916,4.61693 -2.05963,0.71703 -6.47286,0.89731 -8.8794,0.36271 z m -46.74435,-1.93403 c -5.74214,-1.29619 -9.48286,-4.75478 -9.48941,-8.7737 -0.003,-2.25348 0.57252,-3.57973 2.31352,-5.32499 2.68039,-2.68693 6.49792,-4.06705 11.2498,-4.06705 4.75188,0 8.5694,1.38012 11.2498,4.06705 1.741,1.74526 2.31723,3.07151 2.31353,5.32499 -0.006,3.7077 -3.43384,7.14576 -8.51551,8.54104 -1.98564,0.54519 -7.15329,0.677 -9.12173,0.23266 z M 219.17934,340.48256 c -13.81234,-16.21932 -25.4839,-33.11296 -32.69047,-47.31687 -7.12103,-14.03526 -10.23023,-25.45295 -9.33365,-34.27529 0.57386,-5.64672 2.24513,-9.35554 5.80959,-12.89231 4.86387,-4.82608 11.41252,-7.23893 22.08427,-8.13691 5.4723,-0.46047 15.36773,0.05 23.67839,1.22157 1.83139,0.25817 3.39931,0.39433 3.48431,0.30259 0.085,-0.0918 0.38773,-0.79315 0.67276,-1.55866 3.64967,-9.80211 12.10442,-16.73919 23.3009,-19.1183 12.50194,-2.65651 28.42166,0.65219 42.40062,8.81238 l 1.90653,1.11292 7.03453,0.16713 7.03454,0.16713 -0.006,-3.8659 -0.006,-3.86591 -1.58036,-1.26369 c -2.83052,-2.26336 -5.41063,-6.26887 -6.46459,-10.03605 -0.62268,-2.22553 -0.61786,-7.56224 0.009,-9.59871 1.23289,-4.00769 2.91069,-6.73085 5.78901,-9.39593 2.75583,-2.55165 5.22965,-3.85886 9.84242,-5.20093 0.23698,-0.0689 0.30832,-1.6376 0.30832,-6.77997 l 0,-6.69028 -5.4263,0 -5.42631,0 0,-4.85536 0,-4.85536 5.36464,-0.0655 5.36464,-0.0655 0.0657,-6.37889 0.0657,-6.37889 4.67816,0 4.67816,0 0.0657,6.37889 0.0657,6.37889 5.36464,0.0655 5.36463,0.0655 0,4.85536 0,4.85536 -5.42629,0 -5.4263,0 0,6.69028 c 0,5.14237 0.0713,6.71102 0.3083,6.77997 4.98408,1.45009 7.16334,2.64785 10.19928,5.60567 2.61278,2.54557 3.91513,4.5758 5.06606,7.89767 0.7491,2.16205 0.80054,2.52445 0.81022,5.71062 0.0119,3.90564 -0.30806,5.39525 -1.82668,8.50519 -1.24216,2.54373 -3.11231,4.94433 -5.0734,6.51247 l -1.58035,1.26369 -0.006,3.86591 -0.006,3.8659 7.03405,-0.16712 7.03407,-0.16711 2.11677,-1.23181 c 13.62073,-7.92626 29.54159,-11.29091 41.72444,-8.81784 11.40255,2.31467 20.08098,9.34079 23.76778,19.24262 0.28503,0.76551 0.58776,1.46659 0.67277,1.55795 0.085,0.0914 2.04138,-0.0901 4.34755,-0.40327 2.30618,-0.31316 5.80244,-0.71027 7.76948,-0.88247 4.63827,-0.40604 14.72431,-0.41637 17.7588,-0.0182 9.60247,1.26008 15.49551,3.74874 19.9135,8.40957 6.76595,7.13787 7.20079,18.72495 1.30032,34.65026 -6.08602,16.42605 -20.05886,38.21063 -38.06177,59.34074 l -3.66672,4.30365 -6.88484,-3.39321 c -3.78621,-1.86628 -6.88438,-3.44566 -6.88438,-3.50975 0,-0.0641 2.26132,-3.42629 5.02513,-7.47157 15.33172,-22.44049 24.0104,-39.21064 26.88261,-51.94652 2.80569,-12.44095 -0.16795,-20.32605 -8.96931,-23.7836 -3.65187,-1.4346 -6.36019,-1.82451 -12.7736,-1.83897 -4.56156,-0.0103 -5.78637,0.0545 -5.94949,0.31448 -0.11297,0.18009 -0.27932,1.16391 -0.3697,2.18628 -1.28447,14.53239 -7.66642,32.9146 -18.17654,52.35468 -7.30728,13.516 -13.12355,23.74222 -13.50325,23.74157 -0.31312,-4.9e-4 -15.46246,-3.13211 -18.20982,-3.76422 -0.51424,-0.11831 -0.46318,-0.27598 1.20084,-3.70769 6.13943,-12.66147 11.39582,-26.71549 14.38279,-38.45537 2.1035,-8.26739 3.02957,-14.2282 3.25036,-20.92141 0.32312,-9.79444 -1.54593,-16.59861 -5.70279,-20.76101 -1.71837,-1.72063 -3.02413,-2.58464 -5.30907,-3.51295 -6.29986,-2.55948 -16.52485,-1.99187 -30.05664,1.66848 -1.94308,0.52561 -3.57124,0.99345 -3.61816,1.03966 -0.0469,0.0462 -1.93709,18.72831 -4.20039,41.5158 -2.26333,22.78749 -4.16844,41.48648 -4.23355,41.5533 -0.0652,0.0669 -4.65061,0.1215 -10.18995,0.1215 -5.53934,0 -10.1248,-0.0547 -10.18995,-0.1215 -0.0652,-0.0668 -1.97021,-18.76581 -4.23352,-41.5533 -2.26334,-22.78749 -4.15354,-41.4696 -4.20043,-41.5158 -0.0469,-0.0462 -1.67506,-0.51405 -3.61816,-1.03966 -13.53177,-3.66035 -23.75675,-4.22796 -30.05663,-1.66848 -2.28494,0.92831 -3.5907,1.79232 -5.30907,3.51295 -5.84688,5.85467 -7.28932,17.69908 -4.15874,34.14925 2.50323,13.15369 8.55372,30.44818 16.0891,45.98854 1.66403,3.43171 1.71509,3.58938 1.20085,3.70769 -2.74737,0.63211 -17.8967,3.76368 -18.20982,3.76422 -0.3797,7.2e-4 -6.19598,-10.22557 -13.50325,-23.74157 -6.66449,-12.32699 -11.61436,-24.01417 -14.69666,-34.70049 -1.58283,-5.48764 -3.0725,-13.04495 -3.47989,-17.65419 -0.0904,-1.02237 -0.23901,-1.97795 -0.33033,-2.12353 -0.26192,-0.41755 -7.59492,-0.61641 -10.8071,-0.29307 -11.12374,1.1197 -16.82371,5.8907 -17.83275,14.92637 -1.20014,10.74703 5.73885,28.27914 20.30993,51.31542 1.35264,2.13845 4.71982,7.19786 7.48262,11.24314 2.7628,4.04528 5.02328,7.40749 5.02328,7.47157 0,0.0641 -3.09936,1.64405 -6.88744,3.51102 l -6.88745,3.39451 -3.66605,-4.30494 z"
         style="fill:#ffffff" />
    </g>
  </g>
</svg>
