<?xml version="1.0" encoding="utf-8"?>
<!-- Generator: Adobe Illustrator 26.0.1, SVG Export Plug-In . SVG Version: 6.00 Build 0)  -->
<svg version="1.1"
	 id="svg2482" inkscape:version="0.48.4 r9939" sodipodi:docname="Flag of Turkish Air Forces Command.svg" xmlns:cc="http://creativecommons.org/ns#" xmlns:dc="http://purl.org/dc/elements/1.1/" xmlns:inkscape="http://www.inkscape.org/namespaces/inkscape" xmlns:rdf="http://www.w3.org/1999/02/22-rdf-syntax-ns#" xmlns:sodipodi="http://sodipodi.sourceforge.net/DTD/sodipodi-0.dtd" xmlns:svg="http://www.w3.org/2000/svg"
	 xmlns="http://www.w3.org/2000/svg" xmlns:xlink="http://www.w3.org/1999/xlink" x="0px" y="0px" viewBox="0 0 383 383"
	 style="enable-background:new 0 0 383 383;" xml:space="preserve">
<style type="text/css">
	.st0{fill:#000080;}
	.st1{fill:#FFFFFF;}
	.st2{fill:#C3C2BE;}
	.st3{fill:#575757;}
	.st4{fill:#FEFEFE;}
</style>
<sodipodi:namedview  bordercolor="#666666" borderopacity="1" fit-margin-bottom="0" fit-margin-left="0" fit-margin-right="0" fit-margin-top="0" gridtolerance="10" guidetolerance="10" id="namedview3961" inkscape:current-layer="svg2482" inkscape:cx="175.34396" inkscape:cy="286.87387" inkscape:pageopacity="0" inkscape:pageshadow="2" inkscape:window-height="706" inkscape:window-maximized="1" inkscape:window-width="1366" inkscape:window-x="-8" inkscape:window-y="-8" inkscape:zoom="2.464752" objecttolerance="10" pagecolor="#ffffff" showgrid="true">
	
		<inkscape:grid  empspacing="5" enabled="true" id="grid6602" originx="0px" originy="0px" snapvisiblegridlinesonly="true" type="xygrid" visible="true">
		</inkscape:grid>
</sodipodi:namedview>
<rect id="Bayrak" y="0" class="st0" width="383" height="383"/>
<rect id="Bayrak_1_" x="60" y="63" class="st1" width="263" height="262"/>
<g id="g7371" transform="matrix(1.2450445,0,0,1.2450445,-300.87112,-427.06595)">
	<g id="g6947">
		<g id="g3022" transform="translate(234.31499,335.37268)">
			<g>
				<path id="path3024_00000024691836016692059970000005151344965763821487_" inkscape:connector-curvature="0" class="st2" d="
					M143.35,115.88c4.15,0.22,8.12-0.95,9.23-5.37c0.52-2.04-0.04-4.97-2.02-6.02c-1.3-0.69-2.51-1.37-3.91-1.85
					c-1.31-0.45-2.67-0.53-4.05-0.38c-1.38,0.15-2-0.45-3.02-1.35c-0.21-0.18-0.8-0.67-1.1-0.45c-0.22,0.16-0.22,1.07-0.26,1.33
					c-0.08,0.45-0.38,0.81-0.43,1.25c-0.72-0.07-1.22-1.07-1.56-1.59c-0.47-0.72-1.04-1.35-1.46-2.11c-0.24-0.44-0.47-0.88-0.5-1.38
					c-0.02-0.4,0-0.81,0-1.2c0-0.77-0.07-1.64,0.58-2.13c0.75-0.56,1.93-0.85,2.82-0.97c1.37-0.19,2.84-0.22,4.13-0.78
					c1.24-0.54,2.06-1.8,3.46-1.93c1.67-0.15,3.3-0.51,4.97-0.7c2.48-0.29,5.01-0.29,7.47,0.19c2.05,0.41,4.04,1.2,5.71,2.47
					c0.86,0.65,1.47,1.51,2.26,2.2c2.75,2.38,5.69,5,8.88,6.8c-1.81,1.16-4.49-1.15-6.33-0.94c0.69,1.12,1.58,1.99,2.54,2.87
					c3.82,3.5,6.97,9.25,12.38,10.4c1.57,0.33,2.83,0.09,4.18-0.76c3.36-2.13,6.41-4.64,9.67-6.87c1.14-0.78,2.46-1.43,3.69-2.04
					c1.59-0.8,3.14-1.79,4.83-2.38c1.67-0.57,4.1-0.3,5.77,0.19c4.6,1.35,7.78,4.95,10.43,8.76c1.02,1.47,2.3,2.99,3.08,4.6
					c0.82,1.7,1.59,3.35,2.56,4.99c0.68,1.15,1.22,2.38,1.79,3.61c0.45,0.98,1.11,1.64,1.53,2.66c0.64,1.55,1.3,3.07,2.08,4.56
					c1.29,2.48,3.06,4.29,4.62,6.55c0.86,1.23,1.76,2.46,2.87,3.48c0.36,0.32,1.16,0.66,0.85,1.1c-0.15,0.22-0.74,0.21-0.96,0.22
					c-1.69,0.17-3.33-0.47-5-0.47c-2.07,0-1.99,2.8-1.94,4.24c0.12,3.68,0.78,7.09,1.4,10.71c0.59,3.37,1.11,6.8,2.28,10.04
					c0.76,2.09,1.27,4.2,2.25,6.21c0.24,0.48,0.63,0.97,0.8,1.48c0.14,0.42-0.07,0.49-0.51,0.54c-0.63,0.07-1.32-0.12-1.92-0.3
					c-1.19-0.37-2.29-0.95-3.34-1.62c-0.35-0.22-0.73-0.81-1.21-0.63c-0.53,0.21-0.35,1.05-0.3,1.45c0.14,1.33,0.47,2.63,0.66,3.95
					c0.47,3.18,0.72,6.4,1.64,9.49c1.05,3.51,1.75,7.25,3.36,10.57c0.46,0.95,1.58,2.12,1.44,3.23c-0.92,0.13-1.79-0.12-2.62-0.53
					c-2.74-1.35-5.57-3.16-7.77-5.28c-1.52-1.46-1.84,0.79-1.96,2.04c-0.22,2.22-0.02,4.51,0.17,6.72c0.27,3.08,0.71,6.14,1.15,9.2
					c0.43,3.01,0.35,6.04,0.84,9.04c0.26,1.57,0.19,3.17,0.35,4.74c0.07,0.69,1.07,3.27,0.61,3.8c-1.34,1.5-4.01-2.95-4.51-3.7
					c-4.66-6.97-8.38-13.91-8.81-22.45c-0.11-2.04,0.44-3.94,0.73-5.94c0.33-2.32,0.64-5.71,0.11-7.97
					c-0.73-3.12-4.1-5.23-5.41-8.18c-2.05-4.64-1.85-10.14-1.85-15.1c0-2.84-0.44-5.71-1.81-8.26c-1.59-2.97-3.95-5.75-6.14-8.29
					c-1.45-1.69-2.59-2.76-4.47-3.92c-2.4-1.5-4.59-3.28-6.65-5.21c-1.4-1.32-3.34-4.2-5.28-4.56c-2.73-0.51-3.6,3.14-4.15,5.08
					c-0.38,1.3-0.66,2.68-1.28,3.9c-0.71,1.4-2.56,1.83-2.01,3.7c0.34,1.17,1.33,2.06,1.62,3.29c0.66,2.71,0.15,5.52,0.31,8.27
					c0.14,2.49,0.57,4.92,0.87,7.39c0.1,0.86-0.01,1.68,0.15,2.51c0.2,1.1,0.85,2.12,1.16,3.19c0.49,1.69,0.99,4.54,2.72,5.47
					c1.21,0.65,3.98,1.16,5.37,1.23c2.3,0.12,4.61,0.25,6.91,0.08c1.85-0.14,4.05-0.87,5.69,0.38c1.53,1.16,1.59,3.24,1.2,4.97
					c-0.41,1.81-0.36,4.76-2.18,5.87c-0.4-0.57-0.61-1.37-1.16-1.88c0.19,0.17,0.35,2.27,0.37,2.62c0.05,0.87-0.12,1.65-0.47,2.46
					c-0.73,1.64-1.79,1.74-2.38-0.16c-0.25-0.79-1.02-6.74-2.86-5.63c-0.82,0.5-0.07,3.36,0.08,4.11c0.43,2.01,0.56,4.09-1.19,5.45
					c-1.46,1.14-3.7,1.19-3-1.15c0.37-1.22,0.91-2.11,0.98-3.4c0.09-1.61-0.7-2.73-1.91-3.7c-1.56-1.24-3.07-1.35-4.76-2.22
					c-1.42-0.73-2.67-2.18-4.24-2.6c-1.64-0.43-2.38,0.72-3.42,1.79c-1.38,1.43-2.97,3.41-3.43,5.36
					c-0.67,2.85,17.53,20.93,21.01,24.85c1.08,1.21,0.86,2.63-0.49,3.51c-1.33,0.86-3.35,1.19-4.81,0.55
					c0.22,0.09-0.59,2.39-0.71,2.63c-0.38,0.71-1.07,1.41-1.74,1.86c-0.85,0.57-1.88,0.75-2.87,0.55c-0.98-0.19-1.5-0.64-1.74,0.59
					c-0.27,1.33-0.82,2.77-2.16,3.31c-0.8,0.33-1.65,0.58-2.51,0.67c-0.84,0.09-1.6-0.29-2.37-0.26c-1.34,0.06-1.62,1.84-2.51,2.56
					c-1.82,1.5-3.61-0.06-5.16-1.02c-1.46,2.16-3.36,2.89-5.91,2c-0.7-0.25-1.44-0.47-2.08-0.84c-0.48-0.28-0.93-1.06-1.47-1.06
					c-1-0.01-1.73,1.7-2.42,2.23c-2.1,1.62-4.79-1.09-5.39-3.02c-0.86,0.99-1.51,1.77-2.93,1.94c-1.66,0.2-3.99-0.29-4.44-2.18
					c-0.26-1.07-0.29-1.39-1.5-0.83c-1.06,0.49-1.75,0.72-2.91,0.21c-0.61-0.27-1.08-0.65-1.52-1.15c-0.67-0.76-1.75-2.33-1.55-3.4
					c-1.4,0.43-4.2,1.32-5.33-0.11c-0.33-0.42-0.66-2.01-0.75-2.55c-0.05-0.33-0.05-0.67,0.02-1c-0.15,0.68-3.26-1.14-3.51-1.45
					c-0.79-0.93-1.01-2.58-0.83-3.75c0.22-1.45,2.41-3.16,3.32-4.15c2.33-2.51,4.71-4.95,7.04-7.44c2.45-2.63,4.89-5.28,7.11-8.12
					c0.86-1.1,1.86-2.12,2.62-3.31c0.78-1.23,1.89-2.82,0.5-4.03c-1.25-1.1-3.06-1.04-4.24-2.32c-0.83-0.91-1.44-1.78-2.68-1.94
					c-1.4-0.18-2.63,0.27-3.81,0.99c-2.1,1.29-4.59,2.18-6.23,4.1c-1.06,1.23-1.69,2.94-1.47,4.57c0.12,0.91,0.52,1.59,1.06,2.3
					c0.47,0.61,0.91,1.34-0.18,1.63c-2.12,0.56-3.88-1.82-4.81-3.38c-0.75-1.26-0.74-2.91-0.43-4.3c0.2-0.91,1.5-2.72,0.31-3.27
					c-2.93-1.35-2.82,3.65-3.08,5.34c-0.11,0.71-0.27,1.42-0.27,2.14c0,0.42,0.78,1.98-0.1,1.94c-0.62-0.02-1.37-1.37-1.69-1.82
					c-0.45-0.66-0.76-1.38-1.01-2.13c-0.3-0.87-0.67-1.72-0.86-2.63c-0.15-0.75-0.24-1.56-0.18-2.32c0.06-0.83,0.28-1.6,0.38-2.42
					c0.07-0.59-0.11-1.04-0.22-1.64c-0.32-1.84,0.63-4.05,2.22-5.05c2.43-1.53,5.96,0.22,8.61,0.32c1.79,0.07,3.69,0.23,5.42-0.36
					c1.45-0.49,3.21-2.23,3.71-3.71c0.38-1.16,0.35-2.51,0.22-3.7c-0.21-1.9,0.08-3.94,0.42-5.81c0.24-1.32,0.8-2.48,0.96-3.84
					c0.3-2.54,0.86-5.04,1.3-7.56c0.2-1.15,0.29-2.13,0.23-3.26c-0.05-1.2,0.57-2.24,1.05-3.31c0.81-1.83,0.02-2.63-1.3-3.79
					c-0.69-0.61-1.64-1.1-2.18-1.87c-1.2-1.71-0.19-3.96-1.46-5.53c-0.45-0.55-1.26-0.79-1.93-0.86c-1.23-0.12-1.95,0.71-2.86,1.37
					c-0.97,0.71-1.06,1.46-1.66,2.5c-1.33,2.32-4.42-0.26-5.43,2.32c-0.45,1.14-0.95,2.39-2.08,3.01c-1.12,0.61-2.63,0.42-3.32,1.79
					c-0.76,1.5-0.66,3.86-2.35,4.71c-1,0.5-1.78,0.04-2.33,1.19c-0.44,0.91-0.39,1.99-0.73,2.94c-0.47,1.33-1.23,2.68-2.23,3.69
					c-0.6,0.6-1.41,0.81-1.77,1.66c-0.34,0.81-0.45,1.96-0.59,2.83c-0.23,1.41-0.26,2.84-0.25,4.27c0.02,3.85,0.15,7.95-0.44,11.77
					c-0.27,1.72-0.79,3.41-1.58,4.97c-0.3,0.58-0.65,1.2-1.03,1.74c-0.41,0.55-1.04,0.83-1.64,1.11c-0.59,0.28-0.94,0.52-1.02,1.2
					c-0.12,1.01-0.4,2-0.46,3.02c-0.07,1.17,0.02,2.35,0.02,3.53c0,1.64,0.02,3.27-0.09,4.91c-0.26,3.68-0.18,7.35-0.18,11.04
					c0,2.09,0.07,4.1-1.02,5.93c-1.06,1.78-1.22,3.9-2.37,5.64c-0.36,0.54-0.86,0.75-1.3,1.25c-0.43,0.5-0.71,1.13-1.15,1.63
					c-0.77,0.88-3.62,3.8-5.03,2.87c-0.81-0.54-0.79-2.83-0.91-3.61c-0.36-2.37-0.1-4.76-0.33-7.12c-0.27-2.87-0.17-5.86-0.1-8.75
					c0.08-3.06,1.35-5.87,1.59-8.91c0.13-1.74,0.3-3.48,0.64-5.18c0.29-1.45,1.16-2.51,1.01-4.08c-0.48,0.04-0.78,0.54-1.08,0.93
					c-0.65,0.86-1.26,1.7-1.96,2.53c-0.92,1.08-2.04,2.02-3.35,2.6c-0.98,0.43-3.09,1.12-4.15,0.84c-0.44-0.12-0.64-0.32-0.73-0.74
					c-0.21-0.96,1.06-2.39,1.45-3.19c1.01-2.08,1.56-3.97,1.94-6.24c0.39-2.38,0.65-4.75,1.06-7.12c0.49-2.81,1.42-5.87,1.27-8.72
					c-1.18-0.07-1.97,0.17-3,0.7c-0.75,0.38-2.04,1.17-2.84,0.44c-0.53-0.49-0.38-1.5-0.33-2.15c0.16-2.07,1.84-3.55,2.21-5.49
					c0.34-1.83,0.47-3.67,0.97-5.5c0.83-3.06,2.23-5.98,2.44-9.14c0.15-2.27,0.17-4.54,0.17-6.82c0-1.24,0.66-3.79-0.88-4.24
					c-1.47-0.43-7.14,1.85-6-1.9c0.35-1.14,1.92-2.17,2.77-2.9c1.2-1.04,2.45-2.02,3.63-3.07c1.11-0.99,1.89-2.33,2.71-3.55
					c1.51-2.24,2.71-4.67,3.84-7.11c0.57-1.25,1.14-2.5,1.73-3.74c0.46-0.96,1.07-1.84,1.5-2.81c0.9-2.04,1.94-3.87,3.12-5.77
					c1.17-1.89,2.54-3.71,3.98-5.42c1.46-1.74,3.08-3.69,5.37-4.34c2.48-0.71,4.72-0.79,7.26-0.12c2.99,0.79,5.67,2.41,8.16,4.19
					c1,0.71,1.43,1.42,2.14,2.35c2.13,2.76,4.78,4.54,8,5.81C137.61,114.93,140.52,115.73,143.35,115.88L143.35,115.88z
					 M150.25,182.96c0-0.11,0.01-0.22,0.01-0.33c0.01-0.76,0-1.53,0-2.28c0-0.64-0.06-1.27,0.12-1.88c0.34-1.14-0.44-2.52-1.06-3.42
					c-0.34-0.5-0.71-0.61-1.2-0.22c-0.54,0.43-1,1.06-1.44,1.59c-0.54,0.66-1.05,1.35-1.55,2.05c-0.37,0.52-0.75,0.93-0.78,1.59
					c-0.03,0.73,0.24,1.43,0.52,2.09c0.51,1.22,1.23,2.21,2.11,3.19c0.35,0.38,0.52,0.68,1.06,0.64c0.49-0.03,1.01-0.12,1.36-0.51
					C150.08,184.73,150.22,183.94,150.25,182.96z M175.49,185.5c0.15-0.17,0.29-0.34,0.41-0.53c0.76-1.18,1.55-2.16,1.36-3.66
					c-0.07-0.56-0.3-1.15-0.44-1.7c-0.16-0.65-0.37-1.29-0.65-1.89c-0.33-0.73-0.73-1.59-1.35-2.12c-0.6-0.51-1.44-1.36-2.27-0.68
					c-0.64,0.52-0.86,1.89-0.83,2.64c0.03,0.94-0.05,1.89-0.07,2.83c-0.04,1.47-0.16,2.97-0.02,4.44c0.07,0.81,0.33,1.35,1.16,1.6
					C173.82,186.74,174.81,186.25,175.49,185.5L175.49,185.5z"/>
				<path class="st3" d="M156.01,237.92c-0.36,0-0.73-0.06-1.1-0.17c-1.3-0.41-2.42-1.47-3.15-2.58c-0.64,0.58-1.41,1.04-2.54,1.18
					c-2.27,0.28-4.99-0.54-5.58-2.96l-0.02-0.1c0-0.02-0.01-0.03-0.01-0.05c-0.01,0-0.02,0.01-0.03,0.01
					c-1.18,0.54-2.21,0.91-3.76,0.21c-0.7-0.31-1.3-0.76-1.87-1.41c-0.26-0.29-1.24-1.45-1.65-2.75c-1.75,0.46-4.02,0.77-5.26-0.8
					c-0.61-0.77-0.94-2.94-0.96-3.04c-0.01-0.04-0.01-0.08-0.02-0.12c-1.35-0.41-3.02-1.55-3.24-1.82c-1.02-1.2-1.27-3.16-1.05-4.57
					c0.22-1.45,1.65-2.82,2.8-3.92c0.3-0.29,0.57-0.55,0.78-0.77c1.3-1.4,2.61-2.77,3.92-4.14c1.05-1.1,2.1-2.2,3.14-3.31
					c2.36-2.53,4.85-5.23,7.05-8.05c0.31-0.4,0.64-0.79,0.97-1.18c0.58-0.69,1.14-1.34,1.59-2.05l0.1-0.15
					c1-1.56,1.12-2.08,0.59-2.54c-0.44-0.38-1.03-0.6-1.66-0.84c-0.87-0.32-1.85-0.69-2.66-1.55c-0.12-0.13-0.23-0.25-0.34-0.38
					c-0.67-0.76-1.06-1.16-1.72-1.25c-0.99-0.13-1.96,0.13-3.14,0.85c-0.63,0.39-1.29,0.74-1.94,1.08c-1.55,0.82-3.01,1.6-4.04,2.81
					c-0.93,1.08-1.4,2.52-1.23,3.76c0.1,0.7,0.4,1.21,0.86,1.81c0.31,0.4,0.94,1.22,0.63,2.13c-0.13,0.38-0.47,0.89-1.37,1.13
					c-1.45,0.38-3.66,0.02-5.96-3.85c-1.06-1.78-0.8-3.93-0.55-5.05c0.07-0.34,0.23-0.7,0.39-1.08c0.13-0.29,0.35-0.81,0.39-1.08
					c-0.16-0.06-0.38-0.13-0.49-0.06c-0.62,0.36-0.83,2.63-0.91,3.61c-0.04,0.41-0.07,0.77-0.11,1.05
					c-0.03,0.17-0.05,0.34-0.08,0.51c-0.08,0.5-0.17,0.98-0.17,1.43c0.02,0.08,0.05,0.19,0.08,0.3c0.19,0.65,0.45,1.54-0.07,2.2
					c-0.16,0.21-0.53,0.55-1.19,0.51c-1.05-0.04-1.78-1.17-2.31-2c-0.07-0.1-0.12-0.19-0.17-0.26c-0.59-0.86-0.93-1.77-1.15-2.39
					c-0.08-0.25-0.17-0.49-0.27-0.73c-0.24-0.64-0.48-1.3-0.63-2.01c-0.19-0.97-0.26-1.84-0.2-2.61c0.04-0.53,0.13-1.02,0.22-1.5
					c0.06-0.32,0.12-0.64,0.16-0.96c0.03-0.24-0.02-0.45-0.1-0.83c-0.04-0.16-0.07-0.33-0.11-0.51c-0.39-2.28,0.76-4.9,2.69-6.11
					c2.01-1.26,4.45-0.73,6.61-0.26c0.94,0.2,1.83,0.4,2.59,0.43l0.52,0.02c1.54,0.07,3.14,0.14,4.53-0.33
					c1.16-0.39,2.67-1.91,3.06-3.05c0.27-0.81,0.32-1.88,0.17-3.26c-0.22-2.02,0.07-4.13,0.42-6.1c0.12-0.65,0.3-1.24,0.47-1.81
					c0.2-0.67,0.4-1.3,0.47-1.96c0.21-1.79,0.55-3.57,0.87-5.29c0.15-0.78,0.29-1.55,0.43-2.33c0.21-1.18,0.27-2.06,0.22-3.03
					c-0.05-1.26,0.44-2.31,0.88-3.24c0.09-0.18,0.17-0.36,0.25-0.54c0.49-1.11,0.28-1.43-1.04-2.59c-0.21-0.19-0.46-0.36-0.7-0.54
					c-0.55-0.41-1.18-0.86-1.63-1.5c-0.76-1.08-0.83-2.27-0.89-3.31c-0.05-0.88-0.09-1.63-0.53-2.17c-0.19-0.23-0.67-0.42-1.23-0.48
					c-0.56-0.06-0.94,0.22-1.62,0.77c-0.17,0.14-0.35,0.28-0.53,0.41c-0.48,0.35-0.63,0.68-0.91,1.27
					c-0.13,0.28-0.28,0.59-0.47,0.92c-0.96,1.67-2.6,1.62-3.68,1.58c-1.24-0.04-1.46,0.04-1.68,0.6c-0.48,1.22-1.08,2.74-2.55,3.54
					c-0.48,0.26-0.99,0.4-1.45,0.53c-0.79,0.22-1.21,0.35-1.45,0.82c-0.2,0.4-0.34,0.93-0.49,1.49c-0.35,1.3-0.78,2.91-2.32,3.68
					c-0.5,0.25-0.95,0.33-1.28,0.38c-0.46,0.08-0.46,0.08-0.58,0.33c-0.18,0.38-0.26,0.85-0.34,1.35c-0.08,0.48-0.16,0.98-0.35,1.49
					c-0.57,1.59-1.44,3.04-2.47,4.07c-0.29,0.29-0.59,0.49-0.85,0.67c-0.39,0.26-0.6,0.41-0.7,0.66c-0.22,0.52-0.33,1.31-0.43,2.01
					c-0.03,0.2-0.06,0.4-0.09,0.59c-0.21,1.27-0.25,2.55-0.24,4.1l0.01,1.59c0.03,3.42,0.06,6.96-0.46,10.34
					c-0.29,1.88-0.86,3.66-1.68,5.28c-0.39,0.77-0.76,1.38-1.11,1.87c-0.55,0.75-1.33,1.11-1.96,1.41l-0.07,0.04
					c-0.41,0.2-0.42,0.21-0.44,0.39c-0.05,0.46-0.14,0.91-0.22,1.35c-0.1,0.56-0.2,1.08-0.23,1.6c-0.04,0.71-0.02,1.42,0,2.18
					c0.01,0.43,0.02,0.86,0.02,1.29l0,0.58c0,1.44,0,2.92-0.09,4.4c-0.21,2.97-0.2,6-0.19,8.94c0,0.68,0.01,1.36,0.01,2.03l0,0.37
					c0,2.03,0.01,4.13-1.17,6.09c-0.45,0.75-0.72,1.59-1.01,2.49c-0.35,1.06-0.7,2.16-1.38,3.19c-0.29,0.44-0.62,0.71-0.92,0.94
					c-0.18,0.14-0.33,0.27-0.46,0.42c-0.16,0.19-0.32,0.43-0.48,0.69c-0.2,0.31-0.4,0.63-0.66,0.94c-0.95,1.08-4.2,4.49-6.39,3.05
					c-1.07-0.71-1.2-2.46-1.3-3.73c-0.02-0.24-0.03-0.45-0.06-0.59c-0.21-1.39-0.22-2.77-0.23-4.11c-0.01-1.06-0.01-2.06-0.11-3.06
					c-0.26-2.77-0.19-5.63-0.12-8.39l0.01-0.49c0.05-1.74,0.45-3.38,0.84-4.97c0.33-1.37,0.65-2.66,0.75-3.99
					c0.13-1.7,0.3-3.53,0.66-5.31c0-0.01,0.01-0.03,0.01-0.04c-0.08,0.1-0.16,0.19-0.24,0.29c-1.12,1.31-2.37,2.28-3.72,2.88
					c-0.13,0.06-3.1,1.35-4.83,0.89c-0.83-0.23-1.3-0.73-1.47-1.52c-0.24-1.11,0.51-2.25,1.11-3.17c0.18-0.27,0.35-0.53,0.43-0.7
					c0.91-1.87,1.47-3.65,1.84-5.95c0.18-1.11,0.33-2.21,0.49-3.31c0.17-1.25,0.35-2.54,0.57-3.81c0.14-0.78,0.3-1.57,0.47-2.38
					c0.36-1.7,0.73-3.45,0.79-5.1c-0.46,0.08-0.92,0.25-1.5,0.55l-0.19,0.1c-0.89,0.47-2.55,1.34-3.82,0.18
					c-0.86-0.79-0.75-2.05-0.68-2.81l0.02-0.19c0.1-1.35,0.73-2.45,1.27-3.43c0.42-0.74,0.81-1.45,0.95-2.17
					c0.12-0.65,0.22-1.3,0.31-1.96c0.17-1.18,0.35-2.4,0.68-3.62c0.28-1.03,0.62-2.04,0.95-3.02c0.68-2.01,1.32-3.92,1.45-5.91
					c0.15-2.3,0.17-4.6,0.17-6.75c0-0.31,0.03-0.66,0.07-1.02c0.06-0.69,0.19-2.11-0.21-2.23c-0.24-0.06-1.11,0.06-1.68,0.14
					c-1.73,0.24-3.69,0.51-4.7-0.67c-0.55-0.64-0.65-1.54-0.31-2.66c0.37-1.22,1.58-2.17,2.54-2.94c0.2-0.16,0.39-0.31,0.55-0.45
					c0.54-0.47,1.1-0.93,1.66-1.4c0.65-0.54,1.32-1.1,1.96-1.66c0.81-0.72,1.43-1.66,2.08-2.67c0.15-0.23,0.3-0.46,0.45-0.69
					c1.5-2.22,2.69-4.66,3.76-6.97l0.46-1.01c0.42-0.92,0.84-1.83,1.27-2.74c0.23-0.49,0.49-0.94,0.75-1.38
					c0.28-0.48,0.54-0.93,0.75-1.4c0.81-1.84,1.76-3.61,3.18-5.9c1.1-1.78,2.47-3.65,4.07-5.54c1.55-1.86,3.3-3.93,5.87-4.66
					c2.76-0.78,5.16-0.82,7.81-0.12c3.38,0.89,6.31,2.79,8.49,4.34c0.96,0.69,1.48,1.38,2.03,2.12c0.11,0.14,0.22,0.29,0.34,0.45
					c1.89,2.45,4.29,4.19,7.56,5.48c1.16,0.44,4.24,1.5,7.5,1.67c4.6,0.24,7.35-1.31,8.17-4.59c0.44-1.73-0.06-4.09-1.5-4.86
					l-0.49-0.26c-1.09-0.58-2.12-1.13-3.27-1.53c-1.08-0.37-2.26-0.48-3.6-0.33c-1.65,0.18-2.54-0.48-3.48-1.31
					c-0.07,0.34-0.19,0.61-0.29,0.83c-0.06,0.14-0.13,0.28-0.13,0.35l-0.11,1.01l-1.01-0.09c-1.13-0.1-1.77-1.14-2.19-1.83
					c-0.05-0.08-0.1-0.16-0.14-0.23c-0.18-0.27-0.37-0.53-0.56-0.78c-0.32-0.43-0.65-0.87-0.94-1.39c-0.25-0.46-0.59-1.08-0.63-1.83
					c-0.02-0.28-0.01-0.58-0.01-0.88c0-0.13,0.01-0.25,0.01-0.38l0-0.21c-0.01-0.79-0.02-1.99,1-2.75c1.02-0.76,2.51-1.06,3.3-1.17
					c0.33-0.05,0.67-0.08,1.02-0.12c1.03-0.11,2-0.22,2.84-0.58c0.37-0.16,0.74-0.44,1.12-0.74c0.71-0.55,1.51-1.17,2.65-1.27
					c0.89-0.08,1.76-0.22,2.68-0.37c0.74-0.12,1.5-0.24,2.27-0.33c2.8-0.33,5.42-0.26,7.78,0.2c2.37,0.47,4.43,1.37,6.13,2.66
					c0.55,0.42,1,0.9,1.43,1.36c0.3,0.32,0.58,0.62,0.88,0.89l0.61,0.53c2.57,2.23,5.23,4.53,8.09,6.14l1.5,0.84l-1.45,0.93
					c-1.25,0.8-2.68,0.48-3.94,0.04c0.1,0.09,0.19,0.18,0.29,0.27c1.18,1.08,2.29,2.36,3.38,3.61c2.48,2.85,5.05,5.81,8.52,6.55
					c1.29,0.27,2.28,0.09,3.41-0.63c1.92-1.22,3.79-2.6,5.6-3.94c1.31-0.97,2.67-1.97,4.04-2.91c1.14-0.78,2.4-1.41,3.62-2.02
					l0.19-0.1c0.48-0.24,0.95-0.5,1.43-0.76c1.12-0.61,2.27-1.24,3.52-1.67c1.97-0.68,4.68-0.33,6.4,0.18
					c5.1,1.5,8.42,5.47,10.99,9.16c0.28,0.41,0.58,0.81,0.89,1.23c0.82,1.12,1.67,2.27,2.28,3.52l0.32,0.65
					c0.71,1.47,1.38,2.87,2.2,4.26c0.61,1.04,1.11,2.12,1.6,3.18l0.24,0.52c0.18,0.39,0.41,0.74,0.65,1.1
					c0.31,0.47,0.64,0.96,0.9,1.6c0.75,1.81,1.38,3.19,2.04,4.48c0.78,1.51,1.76,2.76,2.79,4.08c0.58,0.75,1.18,1.52,1.76,2.35
					c0.75,1.08,1.65,2.32,2.72,3.31c0.06,0.05,0.14,0.11,0.22,0.16c0.38,0.26,0.9,0.62,1.01,1.27c0.06,0.36-0.02,0.72-0.25,1.03
					c-0.41,0.59-1.18,0.63-1.64,0.65l-0.09,0c-1.06,0.1-2.07-0.07-3.05-0.24c-0.71-0.12-1.38-0.23-2.03-0.23
					c-0.26,0-0.38,0.08-0.46,0.16c-0.54,0.56-0.48,2.27-0.45,3.01c0.11,3.22,0.64,6.24,1.19,9.43l0.37,2.16
					c0.51,2.96,1.04,6.01,2.05,8.84c0.25,0.7,0.48,1.41,0.71,2.11c0.45,1.4,0.88,2.72,1.5,3.99c0.07,0.15,0.17,0.31,0.27,0.47
					c0.21,0.33,0.44,0.71,0.58,1.14c0.19,0.58,0.05,0.99-0.1,1.24c-0.35,0.55-0.97,0.62-1.27,0.65c-0.81,0.09-1.6-0.11-2.34-0.34
					c-1.12-0.34-2.26-0.89-3.49-1.67c0.08,0.66,0.2,1.3,0.33,1.97c0.11,0.57,0.21,1.13,0.3,1.71c0.11,0.76,0.21,1.52,0.31,2.29
					c0.32,2.46,0.62,4.78,1.3,7.05c0.3,1.01,0.58,2.06,0.85,3.06c0.66,2.49,1.35,5.06,2.45,7.35c0.11,0.22,0.29,0.5,0.47,0.79
					c0.54,0.83,1.21,1.87,1.06,3.02l-0.1,0.78l-0.78,0.11c-1.03,0.15-2.05-0.05-3.22-0.63c-2.19-1.08-5.36-2.89-8.01-5.45
					c-0.07,0.25-0.16,0.67-0.23,1.38c-0.21,2.07-0.02,4.26,0.16,6.38l0.01,0.15c0.25,2.93,0.65,5.75,1.15,9.14
					c0.21,1.47,0.3,2.94,0.39,4.36c0.1,1.54,0.19,3.13,0.45,4.66c0.16,0.99,0.2,1.97,0.24,2.92c0.03,0.65,0.05,1.27,0.11,1.88
					c0.01,0.13,0.14,0.58,0.23,0.91c0.51,1.8,0.77,2.95,0.12,3.68c-0.42,0.47-0.98,0.7-1.57,0.65c-1.59-0.13-3.14-2.23-4.44-4.26
					l-0.13-0.2c-4.39-6.57-8.52-13.91-8.98-22.97c-0.08-1.57,0.19-3.04,0.45-4.47c0.1-0.55,0.21-1.11,0.29-1.67
					c0.27-1.88,0.65-5.37,0.13-7.58c-0.35-1.5-1.47-2.79-2.65-4.16c-1.01-1.18-2.06-2.39-2.7-3.84c-1.97-4.46-1.96-9.69-1.94-14.31
					l0-1.21c0-3.11-0.55-5.65-1.69-7.77c-1.57-2.94-4.04-5.8-6.01-8.11c-1.31-1.52-2.38-2.57-4.23-3.72
					c-2.25-1.4-4.48-3.14-6.82-5.33c-0.42-0.4-0.87-0.9-1.33-1.43c-1.06-1.19-2.37-2.67-3.43-2.87c-1.38-0.26-2.12,1.35-2.87,4.01
					l-0.1,0.34c-0.1,0.32-0.18,0.64-0.27,0.96c-0.28,1.04-0.57,2.11-1.08,3.12c-0.34,0.66-0.82,1.12-1.24,1.52
					c-0.72,0.68-0.86,0.88-0.7,1.43c0.12,0.42,0.39,0.84,0.66,1.29c0.36,0.58,0.78,1.24,0.97,2.06c0.45,1.85,0.39,3.72,0.34,5.52
					c-0.03,1.01-0.06,1.97,0,2.92c0.09,1.66,0.32,3.26,0.55,4.96c0.11,0.79,0.22,1.58,0.31,2.37c0.05,0.43,0.05,0.84,0.06,1.22
					c0,0.43,0.01,0.84,0.08,1.22c0.1,0.53,0.33,1.06,0.58,1.63c0.2,0.46,0.41,0.94,0.56,1.46c0.07,0.26,0.15,0.54,0.23,0.83
					c0.38,1.45,0.91,3.44,1.99,4.02c0.96,0.52,3.52,1.04,4.93,1.11l0.35,0.02c2.12,0.11,4.31,0.22,6.44,0.07
					c0.38-0.03,0.79-0.09,1.2-0.15c1.59-0.22,3.58-0.5,5.19,0.74c1.61,1.23,2.17,3.37,1.58,6.02c-0.08,0.37-0.15,0.81-0.22,1.29
					c-0.27,1.84-0.61,4.13-2.44,5.24l-0.29,0.18c0,0.85-0.19,1.67-0.57,2.55c-0.75,1.7-1.74,1.9-2.27,1.87
					c-0.64-0.04-1.51-0.44-2.04-2.13c-0.06-0.18-0.11-0.43-0.2-0.91c-0.41-2.01-0.75-3.09-1.01-3.65c0.03,0.44,0.13,1.13,0.38,2.23
					l0.06,0.29c0.45,2.09,0.68,4.73-1.56,6.48c-1.08,0.84-2.78,1.39-3.93,0.6c-0.39-0.26-1.23-1.07-0.7-2.87
					c0.13-0.44,0.28-0.82,0.42-1.19c0.26-0.68,0.48-1.26,0.52-1.97c0.06-1.08-0.39-1.93-1.52-2.83c-0.82-0.65-1.63-0.94-2.57-1.28
					c-0.64-0.23-1.31-0.46-2.02-0.83c-0.65-0.33-1.23-0.78-1.8-1.21c-0.76-0.57-1.48-1.12-2.22-1.31c-0.73-0.19-1.05,0.04-1.98,1.05
					c-0.14,0.15-0.28,0.31-0.43,0.46c-1.73,1.79-2.82,3.46-3.16,4.83c0.16,2.32,11.73,14.44,16.68,19.63
					c1.85,1.94,3.31,3.47,4.09,4.35c0.72,0.81,1.05,1.77,0.92,2.69c-0.13,0.93-0.7,1.77-1.62,2.37c-1.32,0.86-3.04,1.2-4.53,0.98
					c-0.25,0.91-0.64,1.8-0.65,1.81c-0.45,0.83-1.23,1.66-2.08,2.23c-1.05,0.71-2.35,0.96-3.65,0.7c-0.19-0.04-0.37-0.08-0.54-0.13
					c-0.43,2.07-1.36,3.4-2.76,3.98c-0.95,0.4-1.89,0.65-2.79,0.74c-0.61,0.07-1.15-0.04-1.63-0.14c-0.3-0.06-0.58-0.12-0.81-0.11
					c-0.24,0.01-0.44,0.29-0.84,0.95c-0.28,0.47-0.59,0.99-1.06,1.38c-2.07,1.7-4.13,0.5-5.57-0.44c-1.7,1.97-3.87,2.5-6.49,1.59
					l-0.41-0.14c-0.61-0.21-1.24-0.43-1.85-0.78c-0.3-0.17-0.54-0.41-0.75-0.63c-0.08-0.08-0.19-0.19-0.27-0.26
					c-0.19,0.14-0.56,0.63-0.76,0.91c-0.31,0.41-0.6,0.8-0.95,1.07C157.45,237.68,156.75,237.92,156.01,237.92z M152.43,231.32
					l0.59,1.74c0.31,1,1.42,2.36,2.52,2.71c0.48,0.15,0.88,0.09,1.25-0.2c0.13-0.1,0.36-0.42,0.55-0.67
					c0.59-0.79,1.32-1.78,2.49-1.78c0.01,0,0.01,0,0.02,0c0.76,0.01,1.28,0.53,1.65,0.9c0.11,0.11,0.26,0.26,0.33,0.3
					c0.42,0.25,0.93,0.42,1.47,0.61l0.43,0.15c2.05,0.71,3.46,0.23,4.7-1.61l0.56-0.82l0.85,0.53c0.2,0.12,0.39,0.25,0.6,0.39
					c1.6,1.05,2.45,1.46,3.36,0.71c0.19-0.16,0.4-0.5,0.59-0.83c0.48-0.8,1.13-1.9,2.52-1.96c0.49-0.02,0.92,0.07,1.32,0.15
					c0.37,0.08,0.7,0.14,0.99,0.11c0.7-0.08,1.45-0.28,2.22-0.6c0.76-0.31,1.26-1.15,1.54-2.56c0.09-0.45,0.27-1.08,0.83-1.44
					c0.59-0.37,1.19-0.2,1.67-0.07c0.13,0.04,0.28,0.08,0.44,0.11c0.76,0.15,1.5,0.01,2.1-0.39c0.58-0.38,1.13-0.97,1.41-1.5
					c0.11-0.25,0.6-1.69,0.63-2.04c-0.02,0.24,0.15,0.67,0.59,0.86c0,0,0,0-0.01,0l0.82-1.9l0.07,0.03
					c1.06,0.43,2.67,0.22,3.77-0.49c0.29-0.19,0.64-0.49,0.7-0.91c0.06-0.41-0.2-0.79-0.42-1.04c-0.75-0.85-2.2-2.37-4.04-4.29
					c-13.52-14.17-17.7-19.39-17.2-21.49c0.41-1.76,1.66-3.73,3.69-5.84c0.14-0.14,0.27-0.28,0.4-0.42c0.9-0.97,2.01-2.19,4.03-1.65
					c1.14,0.3,2.05,0.99,2.94,1.66c0.52,0.39,1.02,0.77,1.51,1.02c0.59,0.31,1.16,0.51,1.77,0.72c1.02,0.36,2.07,0.74,3.16,1.6
					c1.05,0.84,2.43,2.22,2.3,4.57c-0.06,1.03-0.36,1.82-0.65,2.59c-0.13,0.33-0.26,0.67-0.37,1.05c-0.1,0.33-0.09,0.5-0.08,0.58
					c0.21,0.04,0.82-0.04,1.46-0.53c1.07-0.84,1.31-2.12,0.81-4.42l-0.06-0.27c-0.47-2.08-0.82-4.18,0.45-4.95
					c0.54-0.33,1.14-0.38,1.68-0.14c1.42,0.63,2.02,3.03,2.55,5.64c0.07,0.33,0.11,0.58,0.15,0.7c0.07,0.23,0.14,0.39,0.2,0.5
					c0.07-0.1,0.16-0.25,0.25-0.45c0.3-0.7,0.42-1.32,0.39-1.98c-0.03-0.56-0.16-1.94-0.25-2.23c0,0.01,0.05,0.16,0.22,0.32
					l1.39-1.53c0,0,0,0,0.01,0.01c0.01,0.01,0.02,0.02,0.03,0.03c0.28,0.26,0.48,0.55,0.65,0.84c0.4-0.79,0.56-1.89,0.71-2.89
					c0.07-0.51,0.15-0.99,0.25-1.44c0.24-1.05,0.45-2.96-0.81-3.92c-0.93-0.72-2.25-0.53-3.65-0.33c-0.46,0.06-0.9,0.13-1.33,0.16
					c-2.26,0.16-4.51,0.05-6.7-0.06l-0.35-0.02c-1.47-0.07-4.39-0.59-5.81-1.35c-1.88-1.01-2.53-3.5-3.01-5.31
					c-0.07-0.28-0.14-0.54-0.21-0.78c-0.11-0.39-0.29-0.79-0.47-1.21c-0.28-0.65-0.58-1.32-0.71-2.08c-0.1-0.55-0.11-1.07-0.11-1.57
					c0-0.35-0.01-0.68-0.04-1c-0.09-0.78-0.2-1.55-0.31-2.33c-0.23-1.66-0.47-3.38-0.57-5.13c-0.06-1.04-0.03-2.09,0-3.1
					c0.05-1.74,0.1-3.39-0.28-4.98c-0.11-0.49-0.4-0.95-0.71-1.44c-0.33-0.52-0.69-1.11-0.9-1.8c-0.53-1.82,0.55-2.84,1.26-3.51
					c0.33-0.32,0.65-0.61,0.82-0.95c0.41-0.82,0.67-1.74,0.93-2.72c0.09-0.34,0.18-0.67,0.28-1l0.09-0.32
					c0.56-1.99,1.73-6.13,5.24-5.48c1.76,0.33,3.27,2.03,4.6,3.53c0.44,0.49,0.85,0.96,1.2,1.29c2.24,2.09,4.36,3.76,6.49,5.08
					c2.07,1.28,3.29,2.48,4.71,4.12c2.04,2.38,4.59,5.34,6.27,8.48c1.3,2.42,1.93,5.28,1.93,8.75l0,1.22
					c-0.01,4.63-0.03,9.41,1.77,13.47c0.52,1.17,1.42,2.22,2.38,3.33c1.29,1.5,2.63,3.05,3.09,5.04c0.57,2.41,0.26,5.87-0.09,8.35
					c-0.09,0.59-0.19,1.18-0.3,1.76c-0.25,1.36-0.49,2.65-0.42,3.98c0.43,8.57,4.41,15.6,8.64,21.93l0.15,0.23
					c1.36,2.12,2.15,2.89,2.55,3.17c-0.08-0.48-0.28-1.16-0.39-1.55c-0.17-0.61-0.27-0.97-0.3-1.26c-0.07-0.67-0.1-1.35-0.12-2
					c-0.04-0.93-0.08-1.81-0.22-2.68c-0.27-1.63-0.37-3.27-0.47-4.86c-0.09-1.38-0.18-2.82-0.37-4.2c-0.5-3.42-0.9-6.28-1.16-9.26
					l-0.01-0.15c-0.19-2.21-0.39-4.5-0.16-6.77c0.15-1.49,0.44-2.93,1.57-3.34c0.47-0.17,1.23-0.2,2.14,0.67
					c2.46,2.38,5.44,4.09,7.51,5.1c0.28,0.14,0.54,0.24,0.78,0.32c-0.12-0.21-0.26-0.43-0.39-0.63c-0.21-0.33-0.43-0.67-0.6-1.01
					c-1.19-2.46-1.9-5.13-2.59-7.72c-0.26-0.99-0.54-2.02-0.83-3c-0.73-2.43-1.05-4.95-1.37-7.38c-0.1-0.75-0.2-1.5-0.31-2.26
					c-0.08-0.54-0.18-1.08-0.28-1.62c-0.14-0.76-0.29-1.56-0.38-2.37l-0.01-0.09c-0.07-0.48-0.28-1.94,0.96-2.42
					c0.95-0.36,1.65,0.27,1.98,0.58c0.06,0.05,0.11,0.11,0.17,0.14c1.11,0.71,2.12,1.2,3.08,1.5c0.22,0.07,0.43,0.13,0.65,0.18
					c-0.09-0.15-0.17-0.3-0.25-0.44c-0.69-1.42-1.16-2.87-1.61-4.27c-0.22-0.68-0.44-1.36-0.69-2.04c-1.08-3-1.62-6.15-2.15-9.19
					l-0.37-2.15c-0.57-3.27-1.11-6.35-1.22-9.71c-0.04-1.16-0.11-3.32,1.03-4.51c0.5-0.52,1.17-0.79,1.94-0.79
					c0.82,0,1.61,0.13,2.38,0.26c0.54,0.09,1.05,0.18,1.56,0.22c-1.01-1.03-1.83-2.17-2.54-3.19c-0.54-0.79-1.13-1.53-1.69-2.26
					c-1.05-1.34-2.13-2.72-3-4.4c-0.69-1.34-1.34-2.77-2.12-4.64c-0.18-0.45-0.44-0.83-0.71-1.24c-0.27-0.42-0.56-0.85-0.8-1.38
					l-0.24-0.52c-0.48-1.05-0.94-2.04-1.5-2.99c-0.87-1.47-1.56-2.9-2.29-4.42l-0.31-0.65c-0.52-1.07-1.31-2.15-2.08-3.19
					c-0.32-0.43-0.63-0.85-0.92-1.27c-2.37-3.39-5.4-7.04-9.88-8.35c-1.54-0.45-3.73-0.69-5.15-0.21c-1.08,0.37-2.11,0.94-3.21,1.53
					c-0.5,0.27-0.99,0.54-1.49,0.79l-0.2,0.1c-1.16,0.58-2.35,1.18-3.37,1.87c-1.35,0.92-2.69,1.91-3.98,2.87
					c-1.84,1.36-3.73,2.76-5.72,4.02c-1.59,1.01-3.12,1.29-4.95,0.9c-4.15-0.89-6.94-4.1-9.65-7.21c-1.09-1.26-2.12-2.44-3.21-3.44
					c-0.95-0.87-1.94-1.82-2.72-3.1l-0.85-1.39l1.62-0.18c0.71-0.08,1.42,0.09,2.13,0.33c-1.6-1.22-3.13-2.54-4.63-3.84l-0.62-0.53
					c-0.39-0.34-0.72-0.69-1.04-1.04c-0.39-0.42-0.75-0.81-1.17-1.12c-1.45-1.1-3.23-1.87-5.28-2.28c-2.15-0.42-4.56-0.48-7.15-0.18
					c-0.73,0.08-1.46,0.2-2.18,0.32c-0.91,0.15-1.86,0.3-2.82,0.38c-0.54,0.05-1.02,0.42-1.57,0.85c-0.45,0.34-0.95,0.73-1.56,1
					c-1.13,0.49-2.3,0.62-3.44,0.74c-0.32,0.04-0.64,0.07-0.96,0.11c-1.01,0.14-1.88,0.43-2.35,0.78c-0.16,0.12-0.17,0.52-0.17,1.07
					l0,0.22c0,0.14,0,0.28-0.01,0.42c0,0.24-0.01,0.48,0,0.72c0.01,0.27,0.16,0.56,0.37,0.95c0.22,0.39,0.49,0.76,0.78,1.15
					c0.22,0.29,0.43,0.58,0.64,0.89c0.05,0.07,0.1,0.15,0.15,0.23c0.05-0.57,0.16-1.16,0.65-1.5c0.44-0.32,1.22-0.5,2.38,0.52
					l0.1,0.09c0.97,0.86,1.29,1.11,2.13,1.01c1.65-0.18,3.12-0.04,4.49,0.43c1.31,0.45,2.41,1.04,3.57,1.66l0.49,0.26
					c2.4,1.28,3.18,4.66,2.54,7.19c-1.07,4.26-4.73,6.45-10.29,6.15h0c-3.55-0.19-6.87-1.33-8.14-1.81
					c-3.64-1.44-6.33-3.39-8.45-6.15c-0.13-0.16-0.24-0.32-0.35-0.47c-0.51-0.68-0.88-1.17-1.57-1.67
					c-2.03-1.45-4.76-3.22-7.82-4.03c-2.26-0.6-4.34-0.57-6.71,0.11c-1.97,0.56-3.43,2.3-4.84,3.98c-1.55,1.84-2.86,3.62-3.91,5.32
					c-1.37,2.2-2.28,3.89-3.05,5.65c-0.25,0.57-0.55,1.09-0.85,1.6c-0.24,0.42-0.47,0.82-0.67,1.24c-0.43,0.9-0.84,1.81-1.26,2.71
					l-0.46,1.01c-1.1,2.39-2.34,4.92-3.92,7.26c-0.15,0.22-0.29,0.44-0.44,0.66c-0.7,1.07-1.43,2.18-2.44,3.08
					c-0.66,0.59-1.35,1.15-2.01,1.7c-0.55,0.45-1.09,0.91-1.63,1.37c-0.19,0.16-0.39,0.32-0.62,0.5c-0.66,0.52-1.66,1.32-1.85,1.92
					c-0.17,0.54-0.09,0.72-0.09,0.72c0.3,0.31,2.08,0.06,2.84-0.04c1.06-0.15,1.9-0.26,2.55-0.07c2.03,0.6,1.81,2.98,1.68,4.4
					c-0.03,0.31-0.06,0.6-0.06,0.83c0,2.18-0.02,4.53-0.18,6.89c-0.15,2.26-0.87,4.38-1.56,6.43c-0.32,0.95-0.65,1.94-0.92,2.91
					c-0.3,1.1-0.46,2.21-0.63,3.38c-0.1,0.68-0.2,1.36-0.32,2.04c-0.2,1.06-0.7,1.95-1.18,2.81c-0.49,0.87-0.95,1.69-1.02,2.58
					l-0.02,0.21c-0.02,0.28-0.08,0.95,0.03,1.12c0.08,0.07,0.4,0.05,1.44-0.5l0.21-0.11c1.1-0.56,2.08-0.89,3.53-0.81l0.93,0.05
					l0.05,0.93c0.12,2.21-0.36,4.47-0.83,6.66c-0.16,0.78-0.33,1.55-0.46,2.3c-0.21,1.24-0.39,2.51-0.56,3.74
					c-0.15,1.12-0.31,2.24-0.49,3.37c-0.41,2.51-1.02,4.46-2.03,6.52c-0.14,0.29-0.34,0.59-0.56,0.92c-0.24,0.37-0.8,1.22-0.82,1.56
					c0,0,0,0,0,0c0.6,0.16,2.3-0.29,3.45-0.79c1.06-0.47,2.06-1.25,2.98-2.33c0.58-0.69,1.11-1.39,1.66-2.13l0.37-0.5
					c0.33-0.44,0.82-1.11,1.7-1.19l1.02-0.09l0.1,1.01c0.12,1.23-0.25,2.2-0.59,3.05c-0.18,0.45-0.34,0.88-0.43,1.33
					c-0.33,1.67-0.5,3.42-0.62,5.06c-0.12,1.5-0.47,2.94-0.81,4.33c-0.38,1.55-0.74,3.02-0.78,4.53l-0.01,0.49
					c-0.07,2.7-0.14,5.49,0.11,8.13c0.11,1.09,0.11,2.19,0.12,3.25c0.01,1.32,0.02,2.57,0.2,3.82c0.03,0.18,0.05,0.44,0.07,0.74
					c0.04,0.47,0.15,1.9,0.42,2.2c0.25,0.16,1.91-0.74,3.65-2.71c0.16-0.19,0.31-0.43,0.48-0.68c0.2-0.31,0.4-0.63,0.67-0.94
					c0.25-0.29,0.5-0.49,0.72-0.67c0.22-0.18,0.38-0.3,0.49-0.48c0.52-0.79,0.82-1.71,1.14-2.69c0.31-0.97,0.64-1.97,1.21-2.92
					c0.88-1.47,0.88-3.12,0.88-5.02l0-0.38c0-0.68,0-1.35,0-2.03c-0.01-2.97-0.02-6.04,0.19-9.09c0.09-1.41,0.09-2.79,0.09-4.26
					l0-0.58c0-0.41-0.01-0.83-0.02-1.24c-0.02-0.76-0.04-1.56,0.01-2.35c0.04-0.65,0.15-1.26,0.26-1.86
					c0.08-0.42,0.15-0.82,0.2-1.22c0.15-1.22,0.91-1.68,1.6-2.01l0.08-0.04c0.48-0.23,0.94-0.44,1.17-0.76
					c0.28-0.4,0.6-0.92,0.94-1.59c0.72-1.42,1.22-2.99,1.48-4.65c0.5-3.21,0.47-6.67,0.44-10.01l-0.01-1.6
					c-0.01-1.65,0.03-3.04,0.26-4.44c0.03-0.17,0.05-0.36,0.08-0.55c0.12-0.82,0.25-1.75,0.57-2.52c0.35-0.82,0.95-1.24,1.44-1.57
					c0.21-0.14,0.4-0.27,0.55-0.42c0.81-0.82,1.52-1.99,1.98-3.3c0.12-0.33,0.19-0.72,0.25-1.13c0.1-0.59,0.21-1.27,0.52-1.91
					c0.58-1.22,1.49-1.37,2.1-1.47c0.26-0.04,0.48-0.08,0.7-0.19c0.66-0.33,0.91-1.12,1.25-2.37c0.17-0.63,0.34-1.29,0.64-1.88
					c0.66-1.32,1.87-1.65,2.75-1.89c0.37-0.1,0.73-0.2,1-0.35c0.81-0.44,1.22-1.48,1.61-2.48c0.79-2,2.52-1.94,3.67-1.91
					c1.1,0.03,1.51,0,1.83-0.55c0.16-0.28,0.28-0.53,0.39-0.77c0.32-0.68,0.66-1.39,1.56-2.05c0.16-0.12,0.31-0.24,0.46-0.36
					c0.75-0.6,1.69-1.36,3.11-1.21c0.66,0.07,1.87,0.31,2.62,1.23c0.86,1.06,0.93,2.28,0.99,3.36c0.05,0.88,0.09,1.63,0.52,2.24
					c0.26,0.36,0.7,0.68,1.16,1.03c0.28,0.21,0.58,0.42,0.85,0.66c1.21,1.07,2.72,2.4,1.57,4.99c-0.09,0.19-0.18,0.39-0.27,0.58
					c-0.37,0.78-0.72,1.52-0.69,2.26c0.06,1.11-0.02,2.16-0.25,3.48c-0.14,0.79-0.29,1.57-0.44,2.36c-0.32,1.69-0.65,3.43-0.85,5.14
					c-0.1,0.85-0.33,1.6-0.55,2.32c-0.16,0.54-0.32,1.05-0.42,1.58c-0.32,1.82-0.6,3.75-0.4,5.51c0.19,1.7,0.11,3.02-0.26,4.14
					c-0.59,1.76-2.58,3.76-4.36,4.36c-1.76,0.6-3.55,0.51-5.29,0.43l-0.51-0.02c-0.94-0.04-1.96-0.26-2.94-0.47
					c-1.86-0.4-3.78-0.82-5.07-0.01c-1.21,0.76-2,2.56-1.75,4c0.03,0.14,0.06,0.28,0.09,0.42c0.1,0.43,0.21,0.92,0.14,1.52
					c-0.05,0.38-0.12,0.74-0.19,1.11c-0.08,0.44-0.16,0.85-0.19,1.27c-0.04,0.58,0.01,1.27,0.17,2.04c0.12,0.56,0.33,1.12,0.55,1.71
					c0.1,0.26,0.19,0.52,0.28,0.78c0.26,0.74,0.51,1.29,0.81,1.76c0.04-0.43,0.11-0.84,0.17-1.24c0.03-0.16,0.05-0.32,0.08-0.48
					c0.04-0.25,0.07-0.57,0.1-0.93c0.17-1.82,0.39-4.31,1.94-5.21c0.5-0.29,1.34-0.52,2.5,0.01c1.79,0.82,0.92,2.86,0.54,3.73
					c-0.11,0.26-0.24,0.55-0.27,0.7c-0.31,1.4-0.2,2.7,0.31,3.56c0.68,1.14,1.97,2.95,3.3,2.95c0.01,0,0.01,0,0.02,0
					c-0.01-0.01-0.02-0.03-0.03-0.04c-0.56-0.73-1.1-1.57-1.27-2.79c-0.24-1.84,0.4-3.85,1.71-5.38c1.29-1.51,3-2.42,4.65-3.29
					c0.64-0.34,1.25-0.66,1.83-1.02c1.59-0.97,3.01-1.32,4.49-1.13c1.46,0.19,2.28,1.11,3,1.92c0.1,0.11,0.2,0.23,0.31,0.35
					c0.46,0.5,1.11,0.74,1.86,1.02c0.74,0.27,1.58,0.59,2.31,1.22c2,1.75,0.56,4-0.21,5.21l-0.1,0.15
					c-0.53,0.83-1.15,1.57-1.76,2.28c-0.31,0.37-0.62,0.73-0.92,1.11c-2.26,2.88-4.78,5.63-7.17,8.19c-1.04,1.11-2.1,2.22-3.15,3.32
					c-1.3,1.37-2.61,2.73-3.89,4.12c-0.23,0.25-0.53,0.54-0.87,0.86c-0.78,0.74-2.07,1.99-2.19,2.75c-0.14,0.91,0.03,2.22,0.57,2.89
					c0.4,0.32,2.04,1.22,2.5,1.27c-0.2-0.01-0.66,0.19-0.76,0.65l2.02,0.45c0,0,0,0.01,0,0.01l0,0c-0.04,0.18-0.04,0.38-0.01,0.61
					c0.11,0.69,0.39,1.83,0.55,2.09c0.66,0.83,3.18,0.05,4.14-0.24l1.65-0.51l-0.27,1.68c-0.09,0.46,0.52,1.63,1.3,2.51
					c0.38,0.43,0.74,0.7,1.16,0.89c0.75,0.33,1.08,0.25,2.06-0.2c0.6-0.27,1.28-0.54,1.94-0.22c0.66,0.32,0.82,0.97,0.98,1.66
					l0.02,0.09c0.31,1.27,2.2,1.52,3.32,1.39c0.96-0.12,1.38-0.56,2.23-1.55L152.43,231.32z M128.4,222.18
					c0,0.01,0.01,0.01,0.01,0.02C128.41,222.19,128.4,222.19,128.4,222.18z M121.67,198.86L121.67,198.86L121.67,198.86z
					 M228.34,196.47L228.34,196.47L228.34,196.47z M138.52,101.4L138.52,101.4L138.52,101.4z M173.41,187.55
					c-0.31,0-0.62-0.04-0.93-0.13c-1.72-0.53-1.85-2.01-1.9-2.5c-0.11-1.2-0.06-2.4-0.01-3.56c0.01-0.33,0.03-0.67,0.04-1
					c0.01-0.32,0.02-0.64,0.04-0.96c0.03-0.63,0.06-1.22,0.04-1.81c-0.03-0.9,0.19-2.65,1.21-3.48c1.43-1.18,2.84,0.04,3.44,0.56
					l0.15,0.13c0.82,0.7,1.29,1.73,1.63,2.48c0.29,0.62,0.52,1.3,0.71,2.08c0.04,0.17,0.1,0.35,0.15,0.53
					c0.12,0.41,0.25,0.83,0.31,1.28c0.22,1.73-0.58,2.93-1.28,3.99l-0.24,0.36c-0.12,0.2-0.29,0.42-0.51,0.66l0,0
					C175.45,187.08,174.43,187.55,173.41,187.55z M173.2,175.7c-0.22,0.2-0.47,1.09-0.45,1.83c0.02,0.67-0.01,1.33-0.04,1.97
					c-0.01,0.31-0.03,0.62-0.04,0.92c-0.01,0.34-0.02,0.68-0.04,1.02c-0.04,1.09-0.09,2.22,0.01,3.29c0.05,0.59,0.18,0.63,0.44,0.71
					c0.75,0.22,1.39-0.37,1.64-0.64c0.13-0.14,0.22-0.26,0.29-0.37l0.26-0.4c0.69-1.04,1.07-1.67,0.96-2.58
					c-0.04-0.28-0.14-0.61-0.24-0.96c-0.06-0.21-0.13-0.42-0.18-0.62c-0.16-0.65-0.35-1.21-0.58-1.71
					c-0.27-0.58-0.62-1.37-1.09-1.77l-0.16-0.14C173.78,176.07,173.37,175.71,173.2,175.7z M147.92,187.01
					c-0.85,0-1.29-0.5-1.59-0.84l-0.12-0.14c-1.1-1.22-1.81-2.3-2.3-3.49c-0.25-0.61-0.64-1.53-0.59-2.53
					c0.04-0.88,0.48-1.46,0.82-1.93l0.15-0.21c0.45-0.63,0.99-1.38,1.59-2.11c0.11-0.13,0.2-0.24,0.3-0.36
					c0.37-0.46,0.79-0.97,1.3-1.38c0.46-0.37,0.94-0.52,1.43-0.45c0.49,0.07,0.92,0.37,1.28,0.89c1.17,1.7,1.56,3.1,1.2,4.3
					c-0.1,0.33-0.09,0.73-0.09,1.19c0,0.13,0,0.26,0,0.39l0,0.75c0,0.51,0,1.03,0,1.54c0,0.06,0,0.13,0,0.2l0,0.15
					c-0.03,1.05-0.18,2.16-1.13,3.18c-0.68,0.74-1.67,0.81-2.05,0.83C148.04,187.01,147.98,187.01,147.92,187.01z M148.58,175.8
					c-0.27,0.25-0.54,0.58-0.8,0.91c-0.11,0.13-0.21,0.26-0.31,0.38c-0.55,0.67-1.06,1.38-1.5,1.99l-0.17,0.23
					c-0.28,0.38-0.41,0.57-0.42,0.81c-0.02,0.49,0.18,1.03,0.44,1.63c0.41,0.98,0.98,1.85,1.92,2.9l0.15,0.17
					c0.04,0.05,0.07,0.09,0.11,0.13c0.35-0.03,0.55-0.08,0.63-0.17c0.42-0.45,0.56-0.89,0.59-1.82c0-0.06,0-0.12,0-0.18l0-0.13
					c0.01-0.52,0-1.02,0-1.52l-0.01-1.11c-0.01-0.55-0.02-1.18,0.17-1.82C149.48,177.87,149.49,177.17,148.58,175.8z"/>
			</g>
			<path class="st3" d="M137.7,121.05c-2.49,0-4.95-0.25-7.58-1.54c-0.37-0.18-0.78-0.58-1.75-1.54c-2.74-2.72-9.17-9.08-16.26-9.15
				c0,0-0.01,0-0.01,0c-2.49,0-7.95,6.4-9.11,8.81l-1.86-0.9c0.93-1.91,6.88-9.98,10.98-9.98c0.01,0,0.02,0,0.03,0
				c7.93,0.08,14.77,6.86,17.7,9.75c0.5,0.5,1.07,1.06,1.24,1.17c2.94,1.44,5.69,1.36,8.87,1.26c0.75-0.02,1.52-0.05,2.31-0.05
				l0.01,2.07c-0.78,0-1.53,0.03-2.26,0.05C139.23,121.03,138.46,121.05,137.7,121.05z"/>
			<path class="st3" d="M87.56,143.55c-0.04,0-0.08,0-0.12,0l0.16-2.06c-0.13-0.01-0.24,0.03-0.28,0.05l0.06-0.04
				c0.05-0.03,0.11-0.07,0.16-0.1c1.85-1.04,3.79-2.19,5.4-3.9c2.24-2.38,3-4.46,3.97-7.08c0.48-1.31,0.98-2.66,1.72-4.2l1.87,0.89
				c-0.69,1.45-1.18,2.76-1.64,4.02c-0.97,2.62-1.88,5.09-4.4,7.78c-1.81,1.93-3.9,3.18-5.89,4.29l-0.06,0.04
				C88.33,143.35,88.01,143.55,87.56,143.55z"/>
			<path class="st3" d="M127.45,144.1l-1.91-0.79c0.04-0.1-0.12-0.51-0.19-0.71c-0.07-0.17-0.13-0.35-0.18-0.51
				c-0.19-0.66-0.28-1.3-0.37-1.95c-0.31-2.32-0.11-4.86,0.58-7.15l1.98,0.6c-0.61,2.01-0.79,4.23-0.51,6.27
				c0.08,0.58,0.16,1.14,0.31,1.66c0.03,0.1,0.08,0.23,0.13,0.35C127.5,142.45,127.8,143.25,127.45,144.1z"/>
			<path class="st3" d="M132.6,140.18c-1.88-0.86-1.77-3.59-1.69-5.39c0.01-0.25,0.02-0.48,0.02-0.66c0-0.2,0-0.4-0.01-0.6
				c-0.02-0.76-0.03-1.56,0.15-2.37c0.2-0.9,0.55-1.71,0.9-2.49c0.12-0.27,0.24-0.54,0.35-0.81l1.92,0.78
				c-0.12,0.29-0.24,0.58-0.37,0.86c-0.32,0.72-0.62,1.41-0.77,2.11c-0.13,0.57-0.11,1.21-0.1,1.88c0,0.22,0.01,0.43,0.01,0.65
				c0,0.2-0.01,0.46-0.02,0.75c-0.03,0.78-0.13,3.15,0.49,3.43L132.6,140.18z"/>
			<path class="st3" d="M137.34,138.68l-2.07-0.06c0.04-1.24,0.24-2.45,0.43-3.62c0.08-0.5,0.17-1,0.24-1.5
				c0.1-0.73,0.1-1.47,0.1-2.25c0-0.63,0-1.27,0.05-1.93c0.04-0.52,0.2-0.97,0.34-1.36c0.1-0.29,0.19-0.55,0.22-0.77l2.06,0.21
				c-0.05,0.48-0.2,0.89-0.33,1.26c-0.11,0.31-0.21,0.58-0.23,0.83c-0.05,0.58-0.05,1.15-0.04,1.77c0,0.82,0,1.67-0.12,2.55
				c-0.07,0.52-0.16,1.03-0.24,1.55C137.56,136.5,137.38,137.58,137.34,138.68z"/>
			<path class="st3" d="M120.2,148.87c-0.83-0.79-1.35-2.11-1.74-3.08l-0.06-0.14c-0.9-2.25-0.61-4.97-0.23-7.56
				c0.16-1.16,0.5-2.3,0.83-3.4l0.14-0.48c0.05-0.18,0.11-0.36,0.17-0.54c0.13-0.38,0.25-0.74,0.26-1.03l2.07,0.03
				c-0.01,0.62-0.2,1.18-0.37,1.68c-0.05,0.15-0.1,0.3-0.15,0.45l-0.14,0.49c-0.31,1.03-0.62,2.09-0.76,3.1
				c-0.25,1.72-0.67,4.58,0.1,6.5l0.06,0.15c0.3,0.75,0.74,1.87,1.24,2.34L120.2,148.87z"/>
			<path class="st3" d="M116.28,154.98l-2.06-0.19c0.02-0.17-0.07-0.43-0.17-0.7c-0.06-0.16-0.11-0.33-0.16-0.5
				c-0.22-0.81-0.32-1.61-0.42-2.39c-0.06-0.46-0.11-0.91-0.2-1.36c-1.07-5.95-1.41-14.22,2.99-19.86l1.63,1.27
				c-3.94,5.04-3.58,12.69-2.59,18.22c0.09,0.49,0.15,0.98,0.21,1.48c0.09,0.74,0.18,1.44,0.36,2.1c0.03,0.13,0.08,0.25,0.12,0.37
				C116.16,153.84,116.34,154.36,116.28,154.98z"/>
			<path class="st3" d="M136.56,140.05c-0.02,0-0.03,0-0.05,0l0.06-2.07c-0.19-0.01-0.41,0.12-0.49,0.24l0.04-0.06
				c0.04-0.05,0.07-0.11,0.12-0.17c0.28-0.4,0.55-0.84,0.83-1.32c0.22-0.37,0.44-0.75,0.68-1.1c0.41-0.62,0.84-1.21,1.26-1.79
				c0.39-0.54,0.78-1.07,1.15-1.63c0.4-0.6,0.92-1.38,0.96-1.95l2.06,0.16c-0.09,1.1-0.78,2.14-1.28,2.91
				c-0.4,0.61-0.81,1.17-1.21,1.72c-0.42,0.58-0.82,1.14-1.2,1.71c-0.22,0.33-0.42,0.68-0.62,1.02c-0.29,0.49-0.59,0.99-0.92,1.47
				l-0.07,0.1C137.71,139.49,137.36,140.05,136.56,140.05z"/>
			<path class="st3" d="M110.75,164.31l-1.93-0.75l0,0.01c0.04-0.14,0-0.56-0.01-0.74c-0.04-0.5-0.11-0.97-0.18-1.46
				c-0.11-0.75-0.22-1.52-0.23-2.32c-0.01-0.93-0.01-1.86,0-2.79l0-9.71c0-0.84-0.01-1.69-0.03-2.53c-0.01-0.72-0.02-1.44-0.03-2.16
				c-0.01-1.37,0.3-2.45,0.62-3.6l0.11-0.41c0.54-1.89,1.15-3.92,2.01-5.96l1.91,0.8c-0.82,1.94-1.41,3.9-1.93,5.72l-0.12,0.41
				c-0.31,1.09-0.55,1.94-0.54,3.02c0,0.71,0.02,1.42,0.03,2.13c0.01,0.86,0.03,1.71,0.03,2.57l0,9.72c0,0.92-0.01,1.84,0,2.76
				c0,0.66,0.1,1.33,0.21,2.04c0.07,0.51,0.15,1.03,0.2,1.57C110.91,163.11,110.97,163.75,110.75,164.31z"/>
			<path class="st3" d="M89.12,175.54l-1.14-1.72c0.23-0.17,0.61-1.04,0.77-1.41c0.07-0.17,0.14-0.32,0.2-0.45
				c0.79-1.67,1.24-3.47,1.71-5.37c0.12-0.47,0.23-0.94,0.36-1.4c0.14-0.54,0.29-1.08,0.43-1.62c0.46-1.72,0.95-3.51,1.27-5.28
				c0.19-1.03,0.54-2.06,0.88-3.06c0.22-0.65,0.43-1.26,0.59-1.86c0.44-1.61,0.89-3.21,1.33-4.81c0.6-2.15,1.2-4.3,1.78-6.45
				c0.41-1.53,0.67-3.13,0.93-4.68c0.26-1.6,0.54-3.26,0.97-4.89l2,0.54c-0.41,1.53-0.68,3.13-0.93,4.69
				c-0.26,1.6-0.54,3.26-0.97,4.88c-0.58,2.16-1.18,4.31-1.78,6.47c-0.44,1.59-0.89,3.19-1.33,4.79c-0.18,0.66-0.41,1.33-0.63,1.98
				c-0.33,0.97-0.64,1.89-0.8,2.77c-0.34,1.86-0.83,3.68-1.31,5.45c-0.14,0.53-0.29,1.07-0.43,1.61c-0.12,0.46-0.24,0.92-0.35,1.38
				c-0.48,1.91-0.97,3.89-1.85,5.75c-0.05,0.11-0.11,0.25-0.18,0.39C90.3,174.04,89.85,175.05,89.12,175.54z"/>
			<path class="st3" d="M92.83,194.43c-0.08-0.88,0.25-1.85,0.54-2.7c0.11-0.32,0.21-0.62,0.28-0.88c0.43-1.76,0.76-3.6,1.07-5.38
				c0.12-0.69,0.24-1.38,0.37-2.06c0.27-1.45,0.27-2.95,0.25-4.37c-0.02-1.18,0.02-2.26,0.06-3.4l0.03-0.76
				c0.03-0.83,0.02-1.68,0.01-2.5c-0.01-1-0.02-2.04,0.04-3.08c0.15-2.65,0.56-5.32,0.95-7.91c0.2-1.29,0.4-2.62,0.57-3.92
				c0.19-1.47,0.37-2.95,0.55-4.42c0.36-2.9,0.73-5.89,1.14-8.84c0.65-4.58,1.7-8.42,3.41-12.47l1.91,0.81
				c-1.64,3.87-2.65,7.56-3.27,11.95c-0.41,2.93-0.78,5.91-1.14,8.8c-0.18,1.48-0.36,2.95-0.55,4.43c-0.17,1.32-0.38,2.67-0.57,3.97
				c-0.39,2.53-0.79,5.15-0.93,7.71c-0.05,0.97-0.04,1.98-0.03,2.95c0.01,0.85,0.02,1.72-0.01,2.59l-0.03,0.76
				c-0.04,1.11-0.08,2.16-0.06,3.28c0.02,1.46,0.02,3.15-0.28,4.79c-0.13,0.68-0.25,1.36-0.37,2.04c-0.32,1.81-0.65,3.69-1.1,5.52
				c-0.08,0.32-0.2,0.67-0.32,1.05c-0.21,0.63-0.48,1.41-0.44,1.86L92.83,194.43z"/>
			<path class="st3" d="M102.95,191.96c-0.81-0.85-1.04-2.03-1.25-3.07c-0.06-0.3-0.12-0.6-0.19-0.86
				c-0.24-0.88-0.34-1.73-0.44-2.56c-0.03-0.3-0.07-0.6-0.11-0.91c-0.79-5.77-0.68-12.4,0.34-20.29c0.12-0.94,0.23-1.89,0.34-2.84
				c0.23-1.96,0.46-3.98,0.79-5.95c0.07-0.41,0.25-1.43,0.46-2.7c0.57-3.29,1.43-8.27,1.54-9.07c0.5-3.31,1.86-6.28,3.25-9.01
				l1.84,0.94c-1.52,2.97-2.62,5.53-3.05,8.37c-0.12,0.82-0.98,5.81-1.55,9.11c-0.22,1.27-0.39,2.28-0.46,2.7
				c-0.32,1.92-0.55,3.92-0.78,5.85c-0.11,0.96-0.22,1.91-0.35,2.86c-1,7.7-1.11,14.16-0.34,19.74c0.04,0.32,0.08,0.64,0.12,0.95
				c0.09,0.78,0.18,1.52,0.38,2.25c0.09,0.32,0.15,0.66,0.22,1.01c0.16,0.8,0.32,1.62,0.72,2.04L102.95,191.96z"/>
			<path class="st3" d="M147.77,103.15l-1.69-1.19c0.16-0.23,0.19-0.49,0.11-1.08c-0.08-0.57-0.34-1.15-0.83-1.85l-0.28-0.41
				c-0.62-0.89-1.2-1.73-1.9-2.45c-0.97-0.98-1.89-1.76-2.74-2.32l1.14-1.73c0.97,0.64,2,1.51,3.07,2.59
				c0.83,0.85,1.49,1.8,2.13,2.73l0.28,0.4c0.68,0.97,1.06,1.85,1.18,2.76C148.34,101.44,148.35,102.31,147.77,103.15z"/>
			<path class="st3" d="M139.38,100.71l-1.98-0.61c0.04-0.12,0.07-0.24,0.11-0.37c0.24-0.82,0.53-1.85,1.35-2.55
				c1.35-1.13,2.5-0.63,3.43-0.22l0.74,0.32c0.65,0.28,1.26,0.55,1.89,0.77l-0.68,1.95c-0.7-0.24-1.38-0.54-2.04-0.83l-0.74-0.32
				c-0.9-0.39-0.93-0.37-1.27-0.09c-0.34,0.29-0.52,0.92-0.7,1.53C139.45,100.44,139.42,100.58,139.38,100.71z"/>
			<path class="st3" d="M148.68,175.55l-0.12-2.07c-0.22,0.01-0.34,0.1-0.34,0.1c0.76-0.58,3.4-5.58,3.84-6.67
				c0.26-0.66,1.82-6.2,2.19-8.3l0.07-0.4c0.43-2.48,0.88-5.04,1.06-7.56l2.06,0.15c-0.19,2.62-0.65,5.24-1.09,7.76l-0.07,0.4
				c-0.38,2.16-1.96,7.84-2.31,8.71C153.94,167.77,150.57,175.44,148.68,175.55z"/>
			<path class="st3" d="M171.74,174.87c-0.02-0.09-0.17-0.35-0.27-0.5c-0.12-0.19-0.26-0.41-0.36-0.65
				c-0.15-0.35-0.28-0.7-0.41-1.05c-0.1-0.26-0.2-0.53-0.3-0.79c-0.25-0.61-0.51-1.22-0.77-1.83c-0.95-2.24-1.93-4.56-2.71-6.94
				c-0.74-2.27-1.4-4.51-1.97-6.68c-0.52-1.97-0.71-3.82-0.9-5.78l-0.04-0.42l2.06-0.21l0.04,0.42c0.19,1.87,0.36,3.64,0.84,5.46
				c0.56,2.13,1.21,4.34,1.94,6.56c0.75,2.3,1.72,4.57,2.65,6.78c0.26,0.61,0.52,1.23,0.78,1.84c0.12,0.28,0.23,0.57,0.33,0.86
				c0.12,0.31,0.23,0.63,0.37,0.93c0.06,0.12,0.14,0.25,0.22,0.39c0.21,0.33,0.47,0.75,0.55,1.24L171.74,174.87z"/>
			<path class="st3" d="M142.38,172.88c-0.78,0-1.47-0.44-1.92-0.73c-0.62-0.4-1.21-0.77-1.79-1.12c-0.19-0.11-0.28-0.13-0.28-0.13
				c0.02,0,0.09,0,0.18-0.03l-0.79-1.91c0.57-0.24,1.23-0.13,1.96,0.3c0.6,0.36,1.2,0.74,1.79,1.12c0.19,0.12,0.51,0.33,0.72,0.4
				c0.02-0.06,0.03-0.12,0.05-0.17c0.08-0.29,0.17-0.64,0.4-0.97c1.04-1.5,2.7-0.72,3.41-0.38l0.16,0.08
				c0.44,0.2,0.79,0.37,1.1,0.34c0.39-0.03,0.77-0.1,1.18-0.17c0.4-0.07,0.79-0.14,1.19-0.18c0.11-0.01,0.22-0.03,0.34-0.04
				c0.58-0.08,1.29-0.17,1.99,0.04l-0.6,1.98c-0.27-0.08-0.71-0.02-1.12,0.03c-0.13,0.02-0.27,0.04-0.4,0.05
				c-0.36,0.04-0.71,0.1-1.06,0.16c-0.44,0.08-0.89,0.15-1.36,0.19c-0.84,0.08-1.55-0.25-2.12-0.52l-0.19-0.09
				c-0.23-0.11-0.69-0.33-0.86-0.31c0.01,0.04-0.03,0.21-0.06,0.32c-0.13,0.49-0.37,1.41-1.41,1.68
				C142.72,172.86,142.55,172.88,142.38,172.88z"/>
			<path class="st3" d="M180.19,172.86c-0.28,0-0.54-0.09-0.76-0.21c-0.61-0.32-0.95-0.86-1.22-1.3c-0.12-0.2-0.25-0.41-0.36-0.51
				c-0.02-0.02-0.03-0.03-0.05-0.04c-0.03,0.02-0.07,0.05-0.09,0.07c-0.21,0.16-0.49,0.38-0.86,0.55c-0.88,0.39-1.66,0.12-2.23-0.07
				c-0.25-0.09-0.49-0.17-0.65-0.17c-0.72,0-1.37,0.28-2.12,0.6l-0.25,0.11l-0.81-1.91l0.25-0.1c0.88-0.38,1.79-0.77,2.93-0.77
				c0.51,0,0.96,0.16,1.32,0.28c0.36,0.12,0.59,0.19,0.71,0.14c0.14-0.06,0.28-0.18,0.43-0.29c0.44-0.34,1.47-1.15,2.81,0.08
				c0.32,0.29,0.53,0.63,0.72,0.93c0.06,0.09,0.12,0.19,0.18,0.28c0.09-0.07,0.18-0.13,0.27-0.2c0.26-0.18,0.52-0.37,0.61-0.53
				l1.8,1.02c-0.31,0.56-0.81,0.91-1.21,1.2c-0.13,0.09-0.26,0.18-0.37,0.28c-0.01,0.01-0.03,0.03-0.04,0.05
				C180.87,172.73,180.52,172.86,180.19,172.86z"/>
			<path class="st3" d="M183.07,120.93c-0.02,0-0.04,0-0.07,0c-0.55,0-1.11-0.12-1.65-0.24c-0.64-0.14-1.3-0.28-1.68-0.15
				l-0.66-1.96c0.91-0.31,1.9-0.1,2.77,0.09c0.46,0.1,0.89,0.19,1.23,0.19c0.02,0,0.04,0,0.06,0c3.28,0,6.04-1.26,9.18-3.14
				c1.43-0.86,2.83-1.88,4.19-2.86l1.01-0.73c0.58-0.41,1.12-0.9,1.7-1.43c0.84-0.76,1.7-1.54,2.73-2.11
				c3.13-1.75,7.08-1.95,10.84-0.54c3.94,1.48,7.07,4.49,8.35,8.08l-1.95,0.7c-1.08-3.02-3.75-5.57-7.13-6.84
				c-3.19-1.19-6.51-1.04-9.1,0.41c-0.82,0.46-1.56,1.13-2.35,1.84c-0.6,0.54-1.21,1.1-1.89,1.58l-1,0.72
				c-1.39,1.01-2.84,2.05-4.34,2.96C190.35,119.28,187.05,120.93,183.07,120.93z"/>
			<path class="st3" d="M183.65,138.47c-0.03-0.04-0.07-0.08-0.11-0.12c-0.07-0.08-0.14-0.15-0.2-0.23
				c-0.48-0.61-0.86-1.25-1.24-1.91c-0.27-0.47-0.54-0.93-0.81-1.39c-0.36-0.61-0.72-1.22-1.06-1.85c-0.07-0.13-0.14-0.26-0.21-0.38
				c-0.23-0.41-0.47-0.83-0.65-1.31c-0.19-0.49-0.23-0.97-0.27-1.4c-0.01-0.13-0.02-0.26-0.04-0.39l2.05-0.26
				c0.02,0.16,0.03,0.31,0.05,0.47c0.03,0.33,0.05,0.62,0.14,0.85c0.12,0.33,0.31,0.66,0.51,1.02c0.08,0.14,0.16,0.28,0.23,0.42
				c0.33,0.6,0.67,1.19,1.02,1.78c0.28,0.47,0.55,0.94,0.82,1.42c0.35,0.6,0.67,1.15,1.07,1.66c0.04,0.05,0.07,0.08,0.1,0.12
				c0.19,0.21,0.52,0.57,0.58,1.12l-2.06,0.23C183.61,138.41,183.65,138.47,183.65,138.47z"/>
			<path class="st3" d="M189.19,140.09l-0.65-1.96c-0.24,0.08-0.37,0.25-0.4,0.31c0.02-0.04,0.04-0.09,0.05-0.13
				c0.03-0.08,0.06-0.16,0.08-0.22c0.38-0.86,0.6-1.53,0.74-2.27c0.17-0.94,0.18-1.93,0.17-2.94c-0.01-1.68-0.79-3.18-1.62-4.76
				l-0.05-0.1l1.83-0.96l0.05,0.1c0.91,1.73,1.85,3.53,1.86,5.71c0.01,1.11,0,2.2-0.21,3.32c-0.16,0.89-0.44,1.73-0.88,2.72
				l-0.03,0.08C190.03,139.28,189.82,139.88,189.19,140.09z"/>
			<path class="st3" d="M186.04,138.02l-2.05-0.27l0.03-0.22c0.08-0.6,0.15-1.16,0.16-1.75c0.01-1.91-0.08-3.52-0.27-5.04
				c-0.14-1.16-0.23-2.51,0.15-3.78l1.98,0.6c-0.27,0.9-0.19,1.98-0.08,2.92c0.2,1.61,0.29,3.3,0.28,5.31
				c-0.01,0.71-0.09,1.37-0.18,2L186.04,138.02z"/>
			<path class="st3" d="M195.35,145.02l-1.94-0.72c0.12-0.31,0.25-0.62,0.38-0.92c0.24-0.56,0.46-1.08,0.58-1.61
				c0.57-2.55,0.07-5.42-0.37-7.95l2.04-0.35c0.45,2.59,1.01,5.81,0.35,8.76c-0.16,0.71-0.43,1.35-0.7,1.97
				C195.57,144.46,195.45,144.74,195.35,145.02z"/>
			<path class="st3" d="M201.8,151.04l-0.44-0.04l0.24-2.06c-0.51-0.06-0.91,0.29-1.01,0.54c0.23-0.58,0.96-4.83,1.03-5.52
				c0.18-1.7,0.05-3.58-0.38-5.59c-0.36-1.68-0.86-3.6-1.82-5.1l1.74-1.12c1.14,1.78,1.7,3.92,2.1,5.78
				c0.48,2.22,0.62,4.32,0.42,6.24c-0.01,0.06-0.75,5.96-1.54,6.59L201.8,151.04z"/>
			<path class="st3" d="M206.52,155.54l-1.5-1.43c-0.03,0.03-0.04,0.05-0.04,0.05c0.03-0.05,0.09-0.22,0.12-0.32l0.04-0.11
				c0.41-1.13,0.69-2.02,0.89-2.82c0.64-2.47,0.88-5.26,0.7-8.07c-0.19-3.12-1.26-6.39-2.29-9.54c-0.42-1.3-0.86-2.64-1.23-3.94
				l1.99-0.56c0.35,1.26,0.77,2.52,1.2,3.86c1.07,3.28,2.17,6.67,2.38,10.05c0.19,3.02-0.07,6.03-0.76,8.7
				c-0.22,0.86-0.52,1.82-0.94,2.99l-0.02,0.07C206.97,154.79,206.84,155.21,206.52,155.54z"/>
			<path class="st3" d="M210.89,164.71l-1.2-1.68c-0.17,0.12-0.24,0.26-0.25,0.26c0.51-0.98,2.87-10.13,2.43-15.59
				c-0.05-0.56-0.09-1.14-0.13-1.74c-0.11-1.49-0.22-3.03-0.4-4.47c-0.38-3.05-1.36-8.03-2.36-9.57l1.74-1.13
				c1.69,2.6,2.67,10.36,2.68,10.44c0.19,1.49,0.31,3.06,0.41,4.58c0.04,0.6,0.08,1.17,0.13,1.73
				C214.37,152.92,212.02,163.9,210.89,164.71z"/>
			<path class="st3" d="M218.89,191.52l-1.84-0.95c0.72-1.38,0.8-4.29,0.86-6.42c0.02-0.54,0.03-1.04,0.05-1.47
				c0.24-4.39,0.19-8.77,0.13-12.88c-0.06-4.31-4.27-34.17-6.04-37.51l1.83-0.97c2.07,3.9,6.22,34.26,6.28,38.45
				c0.06,4.15,0.11,8.57-0.13,13.02c-0.02,0.41-0.04,0.89-0.05,1.41C219.91,186.66,219.82,189.72,218.89,191.52z"/>
			<path class="st3" d="M227.18,195.76c-0.56-2.97-0.95-6.03-1.33-8.99c-0.2-1.57-0.4-3.14-0.63-4.7c-0.12-0.84-0.34-2.45-0.63-4.61
				c-1.57-11.75-5.24-39.27-7.71-45.74l1.93-0.74c2.55,6.7,6.25,34.38,7.83,46.2c0.29,2.15,0.5,3.76,0.62,4.59
				c0.23,1.57,0.43,3.15,0.63,4.74c0.38,2.93,0.77,5.96,1.31,8.87L227.18,195.76z"/>
			<path class="st3" d="M231.52,173.83c-1.98-4.9-3.34-10.07-4.65-15.07c-0.39-1.51-0.79-3.01-1.2-4.51
				c-1.09-3.97-2.24-7.95-3.23-11.37c-0.23-0.78-0.48-1.58-0.74-2.39c-0.85-2.66-1.73-5.41-1.8-8.17l2.07-0.05
				c0.07,2.47,0.9,5.08,1.7,7.6c0.26,0.83,0.53,1.64,0.76,2.44c0.99,3.42,2.14,7.41,3.24,11.39c0.41,1.51,0.81,3.02,1.21,4.54
				c1.29,4.94,2.63,10.05,4.56,14.82L231.52,173.83z"/>
			<path class="st3" d="M233.92,143.56c-1.29,0-2.56-1.62-4.17-3.86c-0.25-0.34-0.45-0.62-0.58-0.79c-3.26-3.94-5.61-6.79-7.62-11.9
				l1.92-0.76c1.9,4.8,4.05,7.41,7.3,11.34c0.15,0.19,0.39,0.51,0.67,0.9c0.5,0.69,2.01,2.8,2.6,3.01c-0.02-0.01-0.11-0.03-0.22,0
				l0.44,2.02C234.14,143.55,234.03,143.56,233.92,143.56z"/>
			<path class="st3" d="M118.76,189.54l-1.52-1.4l-0.02,0.02c0.04-0.06,0.07-0.14,0.11-0.21c0.08-0.16,0.16-0.34,0.29-0.52
				c0.72-1.06,1.92-1.58,2.8-1.96c1.68-0.74,3.47-1.49,5.29-1.86l0.41,2.03c-1.62,0.33-3.29,1.03-4.87,1.73
				c-0.72,0.31-1.54,0.67-1.93,1.24c-0.06,0.08-0.09,0.16-0.13,0.24C119.08,189.06,118.96,189.32,118.76,189.54z"/>
			<path class="st3" d="M125.43,192.54l-0.36-2.04c-0.13,0.02-0.23,0.09-0.26,0.12l0.05-0.05c0.06-0.07,0.13-0.14,0.21-0.21
				c0.88-0.81,1.86-1.47,3.07-2.1c0.66-0.33,1.31-0.65,1.97-0.96c1.17-0.56,2.28-1.08,3.35-1.73l1.07,1.77
				c-1.16,0.7-2.37,1.27-3.54,1.83c-0.64,0.3-1.27,0.6-1.91,0.93c-1.06,0.55-1.87,1.1-2.62,1.79c-0.03,0.03-0.06,0.06-0.09,0.09
				C126.22,192.14,125.94,192.45,125.43,192.54z"/>
			<path class="st3" d="M125.2,197.57l-1.1-1.75c1.27-0.81,3.53-0.92,4.84-0.53l-0.6,1.98C127.46,197.01,125.85,197.16,125.2,197.57
				z"/>
			<path class="st3" d="M160.85,184.43c-1.35,0-2.69-0.19-3.89-0.49c-0.93-0.24-2.3-0.7-3.6-1.53c-0.1-0.07-0.2-0.14-0.29-0.21
				l-0.05-0.04c0.01,0.01,0.18,0.13,0.44,0.1l-0.18-2.06c0.54-0.04,0.91,0.25,1.08,0.39c0.03,0.02,0.06,0.05,0.1,0.07
				c0.84,0.54,1.9,0.99,3,1.27c3.06,0.77,7.11,0.71,9.28-1.8l1.56,1.36C166.44,183.65,163.61,184.43,160.85,184.43z"/>
			<path class="st3" d="M159.27,187.04c-1.86,0-3.72-0.19-5.52-0.56c-0.93-0.2-1.8-0.55-2.64-0.89l-0.28-0.12
				c-0.13-0.05-0.26-0.12-0.39-0.18c-0.12-0.06-0.3-0.15-0.36-0.16l0.05-2.07c0.51,0.01,0.93,0.22,1.23,0.37
				c0.08,0.04,0.16,0.08,0.24,0.12l0.29,0.12c0.75,0.31,1.53,0.63,2.28,0.78c1.63,0.34,3.4,0.52,5.09,0.52c4.24,0,8.24,0,11.69-2.57
				l1.24,1.66C168.2,187.04,163.66,187.04,159.27,187.04z"/>
			<g>
				<path id="path3096_00000106862712066162810310000001417057440886601398_" inkscape:connector-curvature="0" class="st4" d="
					M195.87,190.96c-0.97-0.81-2.07-1.55-3.12-2.28c-1.97-1.37-3.91-2.68-6.13-3.61"/>
				<path class="st3" d="M195.21,191.76c-0.88-0.73-1.88-1.42-2.85-2.09l-0.19-0.13c-2.02-1.4-3.85-2.63-5.94-3.5l0.79-1.91
					c2.28,0.95,4.21,2.24,6.32,3.71l0.19,0.13c1.01,0.7,2.05,1.41,3,2.2L195.21,191.76z"/>
			</g>
			<g>
				<path id="path3098_00000148657772447503413470000000163468393959990411_" inkscape:connector-curvature="0" class="st2" d="
					M201.64,191.61c0-0.89,0.05-1.79,0.01-2.69c-0.15-2.91-3.31-4.52-5.92-4.15"/>
				<path class="st3" d="M202.67,191.61h-2.07c0-0.32,0.01-0.64,0.01-0.96c0.01-0.58,0.02-1.14,0-1.68
					c-0.05-1.06-0.65-1.78-1.15-2.18c-0.94-0.78-2.35-1.17-3.6-0.99l-0.29-2.05c1.82-0.26,3.81,0.3,5.2,1.45
					c1.15,0.95,1.82,2.26,1.9,3.68c0.03,0.62,0.02,1.23,0.01,1.82C202.68,191,202.67,191.31,202.67,191.61z"/>
			</g>
			<g>
				<path id="path3100_00000143610008600881384740000009498823426684799112_" inkscape:connector-curvature="0" class="st4" d="
					M192.93,197c0.27-1.13,2.55-1.4,3.51-1.55"/>
				<path class="st3" d="M193.93,197.26l-2-0.5c0.42-1.73,2.85-2.1,4.16-2.29l0.2-0.03l0.32,2.04l-0.21,0.03
					C194.46,196.79,194.02,197.1,193.93,197.26z"/>
			</g>
			<g>
				<path id="path3102_00000127016592551404172890000008551971523297875896_" inkscape:connector-curvature="0" class="st4" d="
					M198.52,193.31c0.37-1.12,2.8-1.01,3.75-1.01"/>
				<path class="st3" d="M199.48,193.67l-1.94-0.69c0.58-1.73,3.08-1.73,4.44-1.72h0.27l0.02,2.07l-0.3,0
					C200.19,193.34,199.63,193.51,199.48,193.67z"/>
			</g>
			<g>
				<path id="path3104_00000080896384350729593450000004093110063438704544_" inkscape:connector-curvature="0" class="st4" d="
					M201.67,189.09c0.5-0.79,2.41-1.13,3.21-0.6"/>
				<path class="st3" d="M202.54,189.64l-1.75-1.11c0.5-0.8,1.49-1.11,2.04-1.23c1.01-0.22,1.99-0.1,2.62,0.32l-1.14,1.73
					C203.99,189.14,202.78,189.34,202.54,189.64z"/>
			</g>
			<path class="st3" d="M148.64,194.83l-1.07-1.77c0.16-0.1,0.32-0.18,0.48-0.26c0.11-0.06,0.25-0.13,0.33-0.18
				c-0.01-0.81-0.05-1.76-0.33-2.53c-0.15-0.44-0.38-0.86-0.61-1.32c-0.15-0.28-0.29-0.56-0.42-0.84l-0.07-0.15
				c-0.26-0.51-0.7-1.37-0.25-2.18l1.82,0.99c0.06-0.11,0.06-0.21,0.06-0.24c0.01,0.1,0.15,0.36,0.22,0.5l0.1,0.21
				c0.12,0.26,0.26,0.52,0.39,0.77c0.26,0.5,0.53,1.01,0.73,1.57c0.39,1.07,0.45,2.27,0.46,3.2c0.03,1.29-0.9,1.76-1.45,2.05
				C148.88,194.7,148.76,194.76,148.64,194.83z"/>
			<path class="st3" d="M176.29,192.73c-0.77-0.19-1.16-0.75-1.41-1.12c-0.04-0.06-0.08-0.12-0.13-0.18l-0.27-0.35
				c-0.42-0.54-0.86-1.11-1.18-1.75c-0.51-1.04-1.02-2.36-0.52-3.38l1.86,0.91c0.01-0.01,0.01-0.02,0.01-0.02
				c-0.01,0.04-0.07,0.39,0.51,1.58c0.22,0.45,0.6,0.93,0.96,1.4l0.28,0.37c0.06,0.09,0.12,0.17,0.18,0.26
				c0.07,0.1,0.18,0.25,0.22,0.29L176.29,192.73z"/>
			<path class="st3" d="M152.15,189.79l-1.68-1.2c0.02-0.09-0.05-0.49-0.09-0.73c-0.06-0.35-0.13-0.72-0.1-1.08l2.06,0.15
				c-0.01,0.11,0.04,0.37,0.07,0.57C152.53,188.15,152.69,189.04,152.15,189.79z"/>
			<path class="st3" d="M154.85,191.59c-0.89-0.32-1.6-1.56-1.68-2.46c-0.06-0.73,0.23-1.34,0.8-1.67l1.03,1.79
				c0.16-0.09,0.23-0.25,0.23-0.32c0,0.18,0.24,0.63,0.4,0.75c0,0-0.03-0.02-0.08-0.04L154.85,191.59z"/>
			<path class="st3" d="M156.99,191.8c-0.54-0.57-1-2.57-0.49-3.47c0.29-0.51,0.85-0.76,1.42-0.63l-0.45,2.02
				c0.19,0.04,0.41,0,0.58-0.11c0.2-0.13,0.28-0.31,0.29-0.36c-0.05,0.24,0.1,1.01,0.23,1.24c0,0-0.03-0.05-0.08-0.11L156.99,191.8z
				"/>
			<path class="st3" d="M161.85,191.52l-1.63-1.27c-0.06,0.08-0.08,0.15-0.08,0.17c0.02-0.17-0.17-0.64-0.33-0.86l1.66-1.24
				C161.83,188.81,162.68,190.45,161.85,191.52z"/>
			<path class="st3" d="M165.18,191.25l-2.04-0.33c0.14-0.88,0.02-1.15,0.02-1.15c-0.08-0.09-0.39-0.3-0.55-0.39l-0.21-0.13
				l1.14-1.73l0.17,0.11c0.39,0.24,0.87,0.55,1.17,1C165.28,189.2,165.38,190.04,165.18,191.25z"/>
			<path class="st3" d="M166.67,190.13c-0.11-0.71-0.38-1.17-0.87-1.83l1.65-1.25c0.66,0.87,1.1,1.63,1.27,2.78L166.67,190.13z"/>
			<path class="st3" d="M170.08,189.29c-0.07-0.11-0.22-0.26-0.37-0.41c-0.35-0.35-0.74-0.75-0.92-1.3
				c-0.13-0.37-0.1-0.75-0.09-1.03c0-0.06,0.01-0.13,0.01-0.19h2.07c0,0.1-0.01,0.21-0.01,0.32c-0.01,0.09-0.01,0.22-0.01,0.27
				c0.03,0.08,0.28,0.32,0.42,0.47c0.21,0.22,0.44,0.44,0.62,0.71L170.08,189.29z"/>
			<path class="st3" d="M148.81,201.5l-1.66-1.23c0.21-0.28,0.43-0.52,0.64-0.75c0.23-0.24,0.44-0.47,0.59-0.71l0.1-0.16
				c0.45-0.72,0.91-1.47,1.23-2.21c0.21-0.47,0.34-0.93,0.43-1.42c0.01-0.07,0.02-0.14,0.02-0.22c0.03-0.29,0.06-0.64,0.23-0.99
				l1.85,0.93c0.01-0.01,0.01-0.03,0.02-0.04c-0.01,0.05-0.03,0.19-0.03,0.28c-0.01,0.14-0.03,0.27-0.05,0.39
				c-0.11,0.65-0.3,1.29-0.57,1.89c-0.38,0.88-0.88,1.69-1.37,2.48l-0.1,0.16c-0.26,0.41-0.56,0.74-0.84,1.03
				C149.11,201.13,148.94,201.31,148.81,201.5z"/>
			<path class="st3" d="M147.16,191.47l-2.06-0.23c0.11-0.94,0.72-2.6,3.63-3.09l0.34,2.04
				C147.28,190.49,147.19,191.23,147.16,191.47z"/>
			<path class="st3" d="M153,202.4l-1.77-1.07c0.6-1,1.46-2.5,1.97-3.93c0.27-0.77,0.53-1.61,0.54-2.56l2.07,0.02
				c-0.01,1.26-0.32,2.3-0.66,3.24C154.57,199.7,153.64,201.32,153,202.4z"/>
			<path class="st3" d="M157.94,203.39l-2.07-0.01c0.01-1.68,0.31-3.32,0.61-4.91c0.16-0.88,0.32-1.71,0.43-2.55l2.05,0.27
				c-0.12,0.9-0.28,1.8-0.45,2.67C158.22,200.42,157.94,201.9,157.94,203.39z"/>
			<rect x="159.82" y="194.99" class="st3" width="2.58" height="11.2"/>
			<path class="st3" d="M163.7,203.65c-0.36-1-0.47-2.05-0.58-3.07c-0.04-0.42-0.09-0.83-0.15-1.22c-0.19-1.24-0.28-2.32-0.28-3.39
				h2.07c0,0.96,0.08,1.94,0.25,3.08c0.07,0.43,0.11,0.87,0.16,1.32c0.1,0.94,0.2,1.82,0.47,2.59L163.7,203.65z"/>
			<path class="st3" d="M168.85,202.34c-0.89-1.09-1.51-2.37-2.01-3.49c-0.41-0.92-0.73-1.67-0.99-2.36l-0.03-0.07
				c-0.1-0.24-0.23-0.57-0.18-1.03l2.06,0.21c0-0.03,0-0.07-0.01-0.08c0.01,0.04,0.03,0.08,0.05,0.13l0.04,0.1
				c0.25,0.67,0.55,1.38,0.94,2.25c0.47,1.04,0.99,2.13,1.73,3.03L168.85,202.34z"/>
			<path class="st3" d="M172.54,201c-0.85-0.64-1.36-1.54-1.81-2.34l-0.16-0.29c-0.41-0.73-0.74-1.47-1.06-2.19l-0.07-0.17
				c-0.02-0.05-0.06-0.12-0.1-0.2c-0.24-0.46-0.6-1.16-0.42-1.89l2.01,0.5c0.02-0.07,0.01-0.11,0.01-0.11
				c0.01,0.11,0.16,0.4,0.24,0.55c0.05,0.11,0.1,0.21,0.14,0.29l0.08,0.18c0.31,0.7,0.61,1.37,0.97,2l0.17,0.3
				c0.38,0.68,0.75,1.32,1.26,1.71L172.54,201z"/>
			<path class="st3" d="M175.57,198.02c-0.17,0-0.35-0.01-0.54-0.05c-0.54-0.12-1.02-0.3-1.42-0.54c-0.76-0.47-1.37-1.19-1.78-2.1
				c-0.71-1.57-0.77-3.33-0.77-5c0-0.88,0.04-1.82,0.36-2.75c0.03-0.07,0.05-0.16,0.08-0.26c0.16-0.57,0.37-1.29,0.92-1.67l1.18,1.7
				c0.08-0.06,0.12-0.11,0.12-0.11c-0.07,0.11-0.17,0.47-0.22,0.64c-0.04,0.14-0.08,0.27-0.11,0.37c-0.22,0.64-0.25,1.38-0.25,2.08
				c0,1.51,0.04,2.96,0.59,4.16c0.17,0.38,0.46,0.88,0.96,1.18c0.2,0.12,0.47,0.22,0.77,0.29c0.09,0.02,0.23,0.01,0.42-0.01
				c0.22-0.02,0.49-0.04,0.79-0.01l-0.23,2.06c-0.1-0.01-0.23,0-0.39,0.01C175.89,198.01,175.74,198.02,175.57,198.02z"/>
			<path class="st3" d="M141.21,207.92c-0.11-0.66,0.13-1.36,0.66-1.92c0.6-0.63,1.42-0.96,2.15-0.88l-0.25,2.05l0.01,0
				c-0.16,0-0.51,0.27-0.54,0.42L141.21,207.92z"/>
			<path class="st3" d="M144.38,210.87c-0.1-0.95,0.2-1.87,0.78-2.46c0.51-0.5,1.19-0.74,1.94-0.66l-0.21,2.06
				c-0.18-0.02-0.23,0.04-0.26,0.07c-0.12,0.12-0.23,0.41-0.19,0.78L144.38,210.87z"/>
			<path class="st3" d="M151.28,213.29l-1.91-0.78c0.06-0.15,0.11-0.33,0.16-0.53c0.22-0.78,0.54-1.96,1.64-2.35l0.69,1.95
				c0.02-0.01,0.03-0.02,0.04-0.02c-0.14,0.12-0.29,0.67-0.37,0.97C151.45,212.78,151.38,213.05,151.28,213.29z"/>
			<path class="st3" d="M156.13,214.74l-1.46-1.46c-0.04,0.04-0.05,0.06-0.05,0.06c0.08-0.14,0.1-0.52,0.04-0.66
				c0.04,0.09,0.23,0.22,0.41,0.21l-0.13-2.06c0.7-0.05,1.3,0.33,1.61,1C156.95,212.75,156.76,214.11,156.13,214.74z"/>
			<path class="st3" d="M159.86,215.84c-0.27-1.08-0.39-2.3-0.35-3.61l2.07,0.06c-0.03,1.12,0.06,2.15,0.29,3.05L159.86,215.84z"/>
			<path class="st3" d="M165.31,214.96c-0.46-1.12-0.47-2.17-0.48-3.18l0-0.22l2.07-0.02l0,0.22c0.01,0.93,0.01,1.66,0.32,2.41
				L165.31,214.96z"/>
			<path class="st3" d="M171.66,213.23l-2.06-0.18c0.03-0.29-0.12-0.58-0.36-1.02c-0.25-0.45-0.56-1.01-0.59-1.7l2.07-0.1
				c0.01,0.21,0.16,0.49,0.34,0.8C171.35,211.59,171.74,212.29,171.66,213.23z"/>
			<path class="st3" d="M174.34,210.96c-0.12-0.31-0.41-0.62-0.72-0.95c-0.26-0.27-0.52-0.55-0.76-0.89l1.71-1.17
				c0.14,0.2,0.34,0.42,0.55,0.64c0.42,0.44,0.89,0.94,1.15,1.64L174.34,210.96z"/>
			<path class="st3" d="M178.73,208.9c-0.4-0.84-1.05-1.44-1.79-2.13c-0.18-0.17-0.36-0.33-0.54-0.5l1.44-1.49
				c0.17,0.16,0.34,0.32,0.51,0.48c0.82,0.77,1.68,1.56,2.25,2.75L178.73,208.9z"/>
			<path class="st3" d="M118.6,195.34l-0.78-1.92c1.86-0.75,3.36-0.81,4.47-0.18l-1.03,1.8
				C120.76,194.75,119.78,194.85,118.6,195.34z"/>
			<path class="st3" d="M111.17,118.72c-0.84,0-1.8-0.23-2.45-0.77c-0.54-0.45-0.83-1.06-0.81-1.74l2.07,0.05
				c0,0.03,0,0.04,0.06,0.09c0.31,0.26,1.08,0.36,1.51,0.26l0.44,2.02C111.74,118.69,111.46,118.72,111.17,118.72z"/>
			<path class="st3" d="M108.85,120.8c-0.16,0-0.33-0.01-0.5-0.05c-0.64-0.1-0.97-0.47-1.18-0.69c-0.04-0.04-0.07-0.08-0.12-0.12
				l1.23-1.67c0.19,0.14,0.32,0.28,0.41,0.39c0.02,0.02,0.03,0.04,0.05,0.06c0.35,0.04,0.73-0.15,1.18-0.38l0.29-0.14l0.89,1.87
				l-0.26,0.13C110.3,120.47,109.64,120.8,108.85,120.8z"/>
			<path class="st3" d="M106.76,123.63c-0.35,0-0.71-0.04-1.08-0.13c-1.39-0.29-1.66-1.04-1.64-1.61l2.07,0.09
				c0.01-0.3-0.17-0.53-0.28-0.58c0.06,0.03,0.23,0.07,0.3,0.08c0.51,0.12,1.14,0.13,1.45-0.19l1.47,1.45
				C108.49,123.33,107.68,123.63,106.76,123.63z"/>
			<path class="st3" d="M109.85,126.08c-0.12,0-0.25-0.01-0.38-0.02c-1.14-0.13-1.93-0.57-2.63-1.46l1.62-1.28
				c0.36,0.46,0.65,0.62,1.23,0.69c0.47,0.05,0.59-0.11,0.66-0.21l1.66,1.23C111.64,125.52,110.98,126.08,109.85,126.08z"/>
			<path class="st3" d="M111.72,124.02c-0.95,0-1.65-0.75-2.11-1.26l-0.05-0.06l1.52-1.4l0.06,0.06c0.15,0.16,0.5,0.54,0.66,0.6
				c-0.07-0.03-0.2,0-0.26,0.05l1.64,1.26c-0.48,0.59-1.02,0.73-1.39,0.75C111.76,124.02,111.74,124.02,111.72,124.02z"/>
			<path class="st3" d="M113.96,121.73c-0.08,0-0.17,0-0.26-0.01c-0.04,0-1.47-0.13-2.11-1.02l1.68-1.2
				c-0.02-0.03-0.04-0.05-0.04-0.05c0.09,0.08,0.43,0.19,0.66,0.21c0.12,0.01,0.13,0.01,0.28-0.15l1.52,1.41
				C115.34,121.27,114.82,121.73,113.96,121.73z"/>
			<path class="st3" d="M116.57,119.3c-0.23,0-0.48-0.03-0.74-0.1c-0.89-0.24-2.02-0.71-2.42-1.64l1.9-0.82
				c-0.01-0.02-0.02-0.04-0.02-0.04c0.08,0.11,0.48,0.34,1.07,0.5c0.06,0.01,0.1,0.02,0.14,0.03c0-0.01,0.01-0.02,0.01-0.04l2,0.52
				c-0.22,0.85-0.71,1.24-1.08,1.41C117.17,119.24,116.88,119.3,116.57,119.3z"/>
			<path class="st3" d="M119.35,121.64c-0.47,0-0.87-0.1-1.09-0.15c-0.51-0.12-0.91-0.34-1.26-0.52c-0.06-0.03-0.11-0.06-0.16-0.09
				c0.01,0.01,0.11,0.05,0.23,0.06l0.11-2.07c0.38,0.02,0.62,0.17,0.75,0.25c0.37,0.2,0.57,0.31,0.82,0.37
				c0.8,0.2,0.9,0.04,0.99-0.1l1.72,1.14C120.87,121.42,120.04,121.64,119.35,121.64z"/>
			<path class="st3" d="M116.14,124.08c-0.33,0-0.68-0.07-1.02-0.22c-0.21-0.09-1.27-0.57-1.51-1.48l1.99-0.55
				c-0.02-0.09-0.06-0.13-0.06-0.13c0.04,0.06,0.22,0.19,0.38,0.25c0.24,0.1,0.3,0.05,0.38-0.02l1.39,1.54
				C117.23,123.88,116.71,124.08,116.14,124.08z"/>
			<path class="st3" d="M114.03,126.73c-0.12,0-0.24-0.01-0.37-0.03c-0.24-0.03-1.55-0.25-2.07-1.25l1.84-0.95
				c-0.02-0.03-0.03-0.05-0.03-0.05c0.06,0.06,0.31,0.18,0.56,0.21c0.12,0.02,0.27-0.01,0.32-0.13l1.94,0.71
				C115.89,126.14,115,126.73,114.03,126.73z"/>
			<path class="st3" d="M117.79,126.43c-0.53,0-1.03-0.19-1.41-0.33l-0.1-0.04l0.72-1.94l0.1,0.04c0.21,0.08,0.49,0.18,0.62,0.2
				c0.03-0.03,0.07-0.08,0.12-0.17l1.76,1.08C119.07,126.17,118.41,126.43,117.79,126.43z"/>
			<path class="st3" d="M121.07,119.6c-0.21,0-0.43-0.03-0.65-0.09c-0.34-0.09-0.61-0.32-0.99-0.67c-0.05-0.05-0.1-0.09-0.13-0.12
				c0.2,0.16,0.67,0.32,1.12,0.05l-1.07-1.77c0.68-0.41,1.23,0.1,1.47,0.32c0.06,0.05,0.16,0.14,0.23,0.21
				c0.22,0,0.37-0.15,0.45-0.32l1.87,0.88C122.95,119.03,122.03,119.6,121.07,119.6z M120.96,117.52
				C120.96,117.52,120.96,117.52,120.96,117.52C120.96,117.52,120.96,117.52,120.96,117.52z"/>
			<path class="st3" d="M123.75,122c-0.2,0-0.41-0.03-0.63-0.11c-0.34-0.12-0.61-0.35-0.9-0.6c-0.09-0.08-0.17-0.15-0.24-0.2
				c0.08,0.06,0.32,0.15,0.61,0.1l-0.34-2.04c0.55-0.1,0.92,0.23,1.32,0.56c0.07,0.06,0.14,0.12,0.21,0.17
				c0.05-0.04,0.14-0.11,0.27-0.25l1.49,1.43C125.3,121.33,124.66,122,123.75,122z"/>
			<path class="st3" d="M121.45,124.6c-0.79,0-1.68-0.37-2.68-1.12l1.24-1.66c1.33,0.99,1.59,0.69,1.75,0.51l1.56,1.36
				C122.79,124.3,122.16,124.6,121.45,124.6z"/>
			<path class="st3" d="M126.64,124.16c-0.91,0-1.77-0.61-2.37-1.17l1.41-1.51c0.41,0.39,0.74,0.55,0.89,0.6
				c0.02-0.03,0.04-0.07,0.06-0.12l1.93,0.74c-0.37,0.97-1.01,1.3-1.48,1.41C126.93,124.15,126.78,124.16,126.64,124.16z"/>
			<path class="st3" d="M196.11,123.04c-1.56,0-3.49-1.28-4.04-1.91l1.57-1.35c0.42,0.49,2.09,1.32,2.54,1.18
				c-0.04,0.01-0.11,0.07-0.12,0.12l2.03,0.43c-0.17,0.75-0.68,1.28-1.4,1.46C196.51,123.02,196.31,123.04,196.11,123.04z"/>
			<path class="st3" d="M197.48,120.5c-0.68,0-1.3-0.27-1.46-0.35c-0.35-0.17-0.63-0.37-0.87-0.56c-0.13-0.1-0.26-0.19-0.39-0.27
				c-0.09-0.05-0.17-0.12-0.24-0.17c0.14,0.12,0.36,0.19,0.54,0.18l-0.18-2.06c0.49-0.04,0.78,0.15,0.96,0.3
				c0.2,0.12,0.37,0.25,0.54,0.37c0.2,0.15,0.36,0.27,0.53,0.35c0.21,0.1,0.5,0.16,0.59,0.15c-0.1,0.01-0.28,0.15-0.32,0.33
				l2.01,0.51c-0.12,0.48-0.43,0.85-0.87,1.06C198.05,120.45,197.76,120.5,197.48,120.5z M195.79,117.53
				c0.01,0.01,0.02,0.01,0.04,0.02C195.82,117.55,195.81,117.54,195.79,117.53z"/>
			<path class="st3" d="M200.09,117.98c-0.19,0-0.39-0.02-0.6-0.05c-0.73-0.11-1.37-0.44-2.01-0.79l0.99-1.81
				c0.49,0.27,0.93,0.5,1.33,0.56c0.44,0.07,0.52,0.05,0.9-0.36l1.51,1.41C201.65,117.56,201.04,117.98,200.09,117.98z"/>
			<path class="st3" d="M202.15,119.72c-0.17,0-0.35-0.02-0.55-0.06c-0.34-0.08-1.16-0.33-1.55-1.03l1.82-0.99
				c-0.04-0.07-0.08-0.1-0.08-0.1c0.03,0.03,0.14,0.08,0.26,0.1c0.07,0.02,0.1,0.02,0.1,0.01c-0.01,0,0.05-0.03,0.2-0.19l1.51,1.42
				C203.47,119.29,202.95,119.72,202.15,119.72z"/>
			<path class="st3" d="M205.64,117.55c-0.23,0-0.48-0.04-0.76-0.13c-0.78-0.26-1.26-0.79-1.63-1.22l-0.16-0.18l1.53-1.39l0.18,0.2
				c0.31,0.35,0.49,0.55,0.73,0.63c0.02,0.01,0.04,0.01,0.06,0.02c0.04-0.04,0.12-0.13,0.26-0.3l1.64,1.26
				C207.19,116.81,206.63,117.55,205.64,117.55z"/>
			<path class="st3" d="M210.71,116.9c-0.18,0-0.35-0.02-0.53-0.07c-0.49-0.12-0.88-0.4-1.19-0.61c-0.16-0.11-0.38-0.26-0.47-0.28
				l0.43-2.02c0.5,0.11,0.9,0.39,1.22,0.61c0.18,0.13,0.39,0.27,0.52,0.31c0.08-0.02,0.29-0.26,0.42-0.68l1.98,0.61
				C212.67,116.09,211.76,116.9,210.71,116.9z"/>
			<path class="st3" d="M211.82,119.22c-0.21,0-0.43-0.03-0.66-0.11c-0.56-0.18-0.87-0.57-1.08-0.82c-0.04-0.05-0.08-0.11-0.13-0.15
				c0,0,0.04,0.04,0.12,0.06l0.65-1.96c0.49,0.16,0.78,0.52,0.97,0.75c0.04,0.05,0.09,0.11,0.13,0.15c0.17-0.01,0.51-0.37,0.72-0.59
				l1.5,1.43C213.6,118.43,212.85,119.22,211.82,119.22z"/>
			<path class="st3" d="M208.24,120.18c-0.2,0-0.43-0.02-0.69-0.07c-1-0.19-1.77-0.62-2.46-0.99l1-1.81
				c0.68,0.38,1.21,0.65,1.82,0.77c0.01,0,0.02,0,0.03,0.01c0-0.01,0.01-0.01,0.01-0.02l0.03-0.07l1.95,0.7l-0.02,0.07
				C209.59,119.67,209.21,120.18,208.24,120.18z"/>
			<path class="st3" d="M202.03,122.83c-0.27,0-0.56-0.03-0.9-0.1c-0.08-0.01-2.14-0.42-2.51-1.66l1.98-0.59
				c-0.04-0.14-0.1-0.2-0.11-0.2c0.13,0.13,0.69,0.35,1.03,0.42c0.52,0.1,0.68,0.05,0.69,0.04c-0.04,0.02-0.11,0.08-0.14,0.15
				l1.97,0.65C203.87,122.07,203.39,122.83,202.03,122.83z"/>
			<path class="st3" d="M205.99,122.34c-0.77,0-1.5-0.41-1.97-0.69l1.02-1.8c0.16,0.09,0.61,0.35,0.85,0.4
				c0-0.01,0.01-0.02,0.01-0.02l1.94,0.72c-0.3,0.8-0.81,1.13-1.19,1.27C206.43,122.3,206.21,122.34,205.99,122.34z"/>
			<path class="st3" d="M209.57,122.31c-1.12,0-2.01-0.68-2.15-1.66l2.05-0.28c-0.01-0.08-0.06-0.15-0.09-0.17
				c0.07,0.05,0.29,0.05,0.36,0.01c-0.03,0.02-0.1,0.1-0.1,0.2l2.06,0.13c-0.06,1-0.9,1.73-2.03,1.77
				C209.64,122.31,209.61,122.31,209.57,122.31z"/>
			<path class="st3" d="M215,122.13c-0.63,0-1.24-0.35-1.75-0.65c-0.19-0.11-0.47-0.27-0.57-0.3c0,0,0.06,0.02,0.15,0.01l-0.17-2.06
				c0.56-0.05,1.08,0.25,1.63,0.56c0.23,0.13,0.6,0.35,0.75,0.37c-0.16-0.03-0.43,0.12-0.48,0.28l2.02,0.46
				c-0.18,0.74-0.61,1.06-0.94,1.21C215.41,122.09,215.2,122.13,215,122.13z"/>
			<path class="st3" d="M211.62,125.09c-0.06,0-0.11,0-0.17-0.01c-0.86-0.05-1.6-0.51-2-1.26l1.81-0.99
				c0.06,0.11,0.13,0.18,0.31,0.19c0.33,0.02,0.76-0.19,0.95-0.45l1.68,1.2C213.63,124.57,212.61,125.09,211.62,125.09z"/>
			<path class="st3" d="M207.88,124.68c-0.69,0-1.43-0.29-2.12-0.88l1.34-1.58c0.18,0.15,0.72,0.53,0.92,0.32l1.51,1.41
				C209.08,124.44,208.5,124.68,207.88,124.68z"/>
			<path class="st3" d="M203.82,125.01c-0.28,0-0.59-0.05-0.95-0.18c-0.51-0.19-1.4-0.61-1.73-1.29l1.87-0.89
				c-0.03-0.07-0.07-0.1-0.07-0.1c0.06,0.07,0.33,0.23,0.64,0.34c0.16,0.06,0.22,0.06,0.23,0.06c-0.01,0-0.03,0-0.05,0.01l1.82,0.86
				C205.39,124.22,204.88,125.01,203.82,125.01z M203.66,123.01L203.66,123.01L203.66,123.01z"/>
			<path class="st3" d="M160.57,208.76c-6.05,0-13.86-3.04-15.14-4.87l1.7-1.18c0.68,0.98,7.58,3.99,13.44,3.99
				c6.04,0,13.26-2.72,13.94-3.78l1.94,0.71C175.63,206.06,166.29,208.76,160.57,208.76z"/>
		</g>
	</g>
	<path id="path3360" inkscape:connector-curvature="0" class="st3" d="M385.27,467.3c0,0.37,0.22,1.03-0.13,1.32
		c-0.43,0.35-0.85-0.14-1.06-0.52c-0.45-0.77-0.22-1.79-0.48-2.61c-0.27-0.86-0.62-1.84-1.09-2.58c-0.44-0.7-0.88-1.15-1.11-1.97
		c-0.25-0.88-0.32-1.67-0.32-2.62c0-1.49,0.33-2.42,1.1-3.59c0.24-0.37,1.01-1.4,1.6-1.02c0.56,0.35-0.34,1.76,0.79,1.68
		c0.62-0.05,0.66-0.96,1.34-0.95c0.78,1.18-0.81,2.32-0.38,3.56c0.54,1.55,2.11-1.22,2.7-1.65c0.24,0.96,0.18,1.74-0.34,2.62
		c-0.38,0.65-0.95,1.19-0.77,2.06c0.09,0.46-0.07,0.53,0.47,0.56c0.71,0.02,0.47-0.52,0.89-0.81c0.94-0.65,0.17,0.98,0.93,1.27
		c0.8,0.31,2.63-3.41,2.13,0.02c-0.07,0.52-0.61,1.58-0.05,2.04c0.99,0.83,1.22-1.1,1.57-1.55c0.89-1.15,1.04,0.36,0.7,1.08
		c-0.35,0.75-0.61,0.91-0.61,1.84c0,1.5-0.41,3.78,0.4,5c0.84-0.76,0.31-2.64,0.32-3.66c0.01-0.66,0.15-0.91,0.46-1.45
		c0.21-0.37,0.35-1.31,0.67-1.57c1.23-0.98,2.51,4.52,3.24,5.14c0.3-0.74,0.22-2.12,0.14-2.95c-0.1-0.92-0.7-1.66-0.61-2.6
		c0.15-1.71,1.32,0.66,1.8,1.23c0.37,0.44,1.55,2.07,1.99,2.09c0.04-1.05-0.25-1.68-0.8-2.53c-0.28-0.43-1-1.29-0.93-1.83
		c0.23-1.86,2.83,1.85,3.33,0.32c0.33-1.03-0.27-1.18-0.79-1.74c-0.47-0.5-0.54-1.35,0.4-1.2c0.5,0.08,1.19,1.05,1.83,0.71
		c0.55-0.28,0.32-1.35,0.16-1.83c-0.22-0.62-0.56-1.07-0.7-1.74c-0.12-0.66-0.57-1.4-0.56-2.04c1-0.08,1.19,0.32,1.87,0.8
		c0.92,0.66,0.77-0.3,0.81-1.2c0.07-1.56-1.74-2.18-1.5-3.8c0.91-0.07,1.1,0.17,1.65,0.84c0.26,0.32,0.73,1.14,1.19,1.2
		c1.5,0.17,0.12-1.93-0.22-2.34c1.29-0.48,2.16-0.03,2.44,1.35c0.12,0.58,0.12,1.21,0.25,1.73c0.14,0.52,0.32,1.02,0.39,1.59
		c0.14,1.05,0.37,2.87,0.08,3.9c-0.16,0.56-0.79,0.95-1.41,0.52c-0.48-0.32-0.45-1.22-0.71-1.64c0.04,1.72-0.55,3.31-0.71,4.99
		c-0.07,0.74,0.17,4.44-1.21,3.81c-0.62-0.28-0.95-2.27-1.5-0.72c-0.35,0.97-0.08,2.26-0.4,3.29c-0.26,0.86-0.63,1.71-0.89,2.58
		c-0.25,0.84-0.19,1.68-0.28,2.54c-0.05,0.48-0.04,1.91-0.83,1.75c-0.71-0.15-0.71-2.23-0.85-2.76c-0.21-0.8-0.29-1.64-0.64-2.4
		c-0.32-0.72-0.8-1.28-1.03-0.32c-0.21,0.84,0.02,1.96,0,2.82c-0.04,1.25-0.56,2.35-0.74,3.56c-0.06,0.39,0.04,0.74,0.03,1.13
		c-0.02,0.53-0.28,1.05-0.46,1.55c-0.1,0.31-0.15,0.43-0.38,0.25c-0.31-0.25-0.4-0.95-0.46-1.3c-0.12-0.81-0.16-1.63-0.32-2.44
		c-0.14-0.74-0.35-1.3-0.28-2.06c0.07-0.79-0.12-1.8-0.4-2.53c-0.1-0.27-0.2-0.69-0.5-0.76c-1.23-0.32-0.58,2.63-0.5,3.12
		c0.19,1.04,0.52,2.06,0.66,3.11c0.15,1.12,0.47,2.13,0.8,3.17c0.18,0.58,0.19,1.19,0.17,1.81c-0.01,0.31-0.22,1.4-0.74,1.35
		c-0.45-0.04-0.69-1.62-0.93-1.98c-0.45-0.66-0.95-1.25-1.35-1.99c-0.9-1.67-1.84-3.32-2.72-4.98c-0.79-1.5-0.96-3.24-2.6-4.05
		c-0.91-0.45-1.68-0.79-2.16-1.74c-0.53-1.05-0.61-2.21-1.08-3.25C385.21,465.64,385.27,466.58,385.27,467.3L385.27,467.3z"/>
	<g>
		<path id="path3362_00000070079605993646660570000000530816834961222281_" inkscape:connector-curvature="0" class="st1" d="
			M386.24,431.41c-0.3,0.27-0.65,0.45-1.08,0.48c-0.34,0.02-0.6-0.1-0.85-0.32c-0.22-0.19-0.36-0.5-0.61-0.64
			c-0.3-0.17-1.6,0.08-1.21-0.51c0.34-0.53,1.64-0.4,2.18-0.57c0.54-0.17,0.98-0.41,1.45-0.74c0.93-0.65,1.86-1.32,3.03-1.39
			c0.07,0.28-0.26,0.44-0.46,0.56C387.67,428.89,387.19,430.57,386.24,431.41L386.24,431.41z"/>
		<path class="st3" d="M385.07,432.93c-0.53,0-1.01-0.19-1.45-0.59c-0.15-0.13-0.27-0.28-0.36-0.4c-0.01-0.01-0.02-0.03-0.03-0.04
			c-0.04,0-0.07,0-0.11,0c-0.5-0.02-1.25-0.05-1.61-0.74c-0.1-0.19-0.28-0.69,0.1-1.29c0.5-0.78,1.5-0.87,2.23-0.93
			c0.17-0.02,0.43-0.04,0.51-0.06c0.41-0.13,0.76-0.31,1.16-0.6l0.1-0.07c0.96-0.67,2.05-1.43,3.48-1.51l0.87-0.05l0.2,0.85
			c0.15,0.65-0.14,1.21-0.86,1.65l-0.07,0.04c-0.34,0.2-0.68,0.76-1.01,1.3c-0.36,0.6-0.74,1.22-1.29,1.71l0,0
			c-0.5,0.44-1.07,0.69-1.69,0.74C385.18,432.93,385.13,432.93,385.07,432.93z M385.03,430.82c0.04,0.04,0.06,0.05,0.06,0.05
			c0.16-0.02,0.3-0.08,0.46-0.23l0,0c0.01-0.01,0.02-0.02,0.04-0.03C385.41,430.68,385.22,430.75,385.03,430.82z"/>
	</g>
	<g>
		<path id="path3364_00000106143396319512463010000009887640580336135048_" inkscape:connector-curvature="0" class="st3" d="
			M373.04,546.75c-2.22,1.03-5.58,4.3-6.21,4.9c-0.97,0.92-2.53,2.7-1.91,3.8c1.48,2.67,4.83-2.91,5.85-4.13
			C371.33,550.64,373.54,546.51,373.04,546.75z"/>
		<path class="st3" d="M365.93,556.74c-0.03,0-0.07,0-0.1,0c-0.4-0.02-0.98-0.22-1.41-1.01c-0.82-1.46,0.91-3.44,2.02-4.48
			l0.13-0.13c2.69-2.57,4.79-4.21,6.23-4.88l0.41-0.2l0.34,0.36c0.63,0.81-2.32,5.24-2.35,5.28c-0.17,0.2-0.4,0.52-0.67,0.89
			C368.95,554.77,367.4,556.74,365.93,556.74z M372.01,548.01c-1.22,0.83-2.79,2.14-4.66,3.93l-0.13,0.13
			c-1.36,1.29-2.11,2.57-1.81,3.1c0.23,0.41,0.42,0.42,0.49,0.43c0.99,0.05,2.9-2.56,3.71-3.69c0.29-0.4,0.54-0.74,0.72-0.96
			C370.65,550.57,371.46,549.11,372.01,548.01z"/>
	</g>
	<g>
		<path id="path3366_00000078029549081234281680000001829450083858957727_" inkscape:connector-curvature="0" class="st3" d="
			M392.51,552.98c-1.42,2.58-2.35,8.13-2.54,9.16c-0.28,1.58-0.53,4.4,0.85,5.03c3.33,1.55,2.61-6.25,2.73-8.15
			C393.61,557.97,392.83,552.39,392.51,552.98L392.51,552.98z"/>
		<path class="st3" d="M391.61,567.94c-0.3,0-0.64-0.07-1.04-0.25c-1.75-0.8-1.48-3.88-1.17-5.65l0.05-0.28
			c0.29-1.63,1.19-6.58,2.55-9.06l0,0c0.15-0.27,0.44-0.39,0.72-0.31c1.05,0.31,1.39,6.61,1.38,6.67c-0.02,0.3-0.02,0.79-0.01,1.35
			c0.02,3.29-0.08,6.32-1.55,7.26C392.33,567.81,392.02,567.94,391.61,567.94z M392.44,554.49c-0.65,1.67-1.27,4.18-1.87,7.47
			l-0.05,0.28c-0.42,2.34-0.21,4.08,0.52,4.41c0.57,0.26,0.8,0.11,0.88,0.06c1.07-0.69,1.04-4.48,1.03-6.3
			c0-0.59-0.01-1.09,0.02-1.43C393.02,558.32,392.72,555.97,392.44,554.49z"/>
	</g>
	<g>
		<path id="path3368_00000169539368977655872880000008258063040127762831_" inkscape:connector-curvature="0" class="st3" d="
			M397.19,552.83c-0.61,2.87,0.1,8.46,0.22,9.5c0.18,1.59,0.76,4.37,2.27,4.58c3.63,0.52,0.69-6.74,0.26-8.59
			C399.69,557.29,397.33,552.19,397.19,552.83L397.19,552.83z"/>
		<path class="st3" d="M400.01,567.51c-0.13,0-0.27-0.01-0.42-0.03c-1.92-0.27-2.55-3.29-2.75-5.08l-0.03-0.24
			c-0.51-4.42-0.57-7.59-0.18-9.44l0,0c0.07-0.3,0.31-0.5,0.6-0.5c0,0,0,0,0,0c1.11,0,3.24,5.93,3.25,5.99
			c0.07,0.29,0.21,0.75,0.38,1.29c0.97,3.14,1.75,6.08,0.62,7.41C401.22,567.19,400.77,567.51,400.01,567.51z M397.56,554.3
			c-0.14,1.8-0.01,4.39,0.38,7.72l0.03,0.25c0.27,2.33,0.98,3.97,1.78,4.08c0.61,0.09,0.8-0.13,0.86-0.2
			c0.82-0.97-0.3-4.59-0.84-6.33c-0.18-0.58-0.32-1.03-0.4-1.36C399.22,557.8,398.25,555.64,397.56,554.3z"/>
	</g>
	<g>
		<path id="path3370_00000170973456681970543830000005094296634132939695_" inkscape:connector-curvature="0" class="st3" d="
			M376.81,548.56c-2.22,1.48-5.3,5.55-5.87,6.31c-0.89,1.15-2.27,3.31-1.43,4.4c2.03,2.63,4.71-3.93,5.61-5.41
			C375.61,553.03,377.31,548.22,376.81,548.56L376.81,548.56z"/>
		<path class="st3" d="M370.55,560.45c-0.42,0-0.97-0.16-1.49-0.84c-1.09-1.41,0.43-3.8,1.43-5.1c1.39-1.84,4.02-5.1,6.01-6.43
			l0.37-0.26l0.4,0.3c0.76,0.71-1.63,5.96-1.66,6.01c-0.14,0.24-0.34,0.63-0.58,1.08c-1.37,2.66-2.73,5.07-4.33,5.22
			C370.65,560.45,370.6,560.45,370.55,560.45z M376.01,549.92c-1.26,1.14-2.86,2.96-4.61,5.28c-1.29,1.68-1.87,3.17-1.44,3.72
			c0.32,0.42,0.56,0.4,0.63,0.39c1.11-0.1,2.67-3.14,3.42-4.6c0.25-0.49,0.45-0.88,0.61-1.15
			C374.93,553.05,375.61,551.21,376.01,549.92z"/>
	</g>
	<g>
		<path id="path3372_00000059302415182362150540000003715829413956310717_" inkscape:connector-curvature="0" class="st3" d="
			M382.49,550.28c-2.22,1.83-5.05,6.46-5.59,7.32c-0.82,1.31-2.05,3.74-1.02,4.74c2.5,2.43,4.62-4.71,5.41-6.35
			C381.73,555.06,383,549.87,382.49,550.28L382.49,550.28z"/>
		<path class="st3" d="M376.93,563.4c-0.41,0-0.92-0.14-1.45-0.66c-1.34-1.3,0.01-3.97,0.94-5.45l0.12-0.2
			c2.28-3.64,4.16-6.08,5.59-7.26l0,0c0.24-0.2,0.55-0.2,0.79-0.02c0.86,0.68-1.09,6.35-1.12,6.41c-0.12,0.26-0.29,0.69-0.49,1.18
			c-1.11,2.81-2.33,5.59-4.02,5.95C377.19,563.39,377.06,563.4,376.93,563.4z M381.87,551.67c-1.19,1.29-2.65,3.31-4.36,6.04
			l-0.12,0.2c-1.19,1.9-1.63,3.51-1.11,4.02c0.37,0.36,0.62,0.36,0.78,0.32c1.23-0.27,2.56-3.64,3.2-5.26
			c0.21-0.54,0.38-0.96,0.52-1.26C381.05,555.16,381.59,553.06,381.87,551.67z"/>
	</g>
	<g>
		<path id="path3374_00000044881629021456015100000015458358401580412342_" inkscape:connector-curvature="0" class="st3" d="
			M386.99,552.03c-1.84,2.21-3.77,7.29-4.14,8.22c-0.56,1.44-1.32,4.05-0.12,4.84c2.91,1.92,3.66-5.48,4.14-7.25
			C387.12,556.86,387.4,551.52,386.99,552.03L386.99,552.03z"/>
		<path class="st3" d="M383.63,565.98c-0.35,0-0.76-0.1-1.22-0.41c-1.56-1.04-0.73-3.91-0.09-5.53l0.04-0.11
			c1.95-5.01,3.35-7.26,4.19-8.27c0.2-0.24,0.5-0.31,0.77-0.17c0.97,0.5,0.11,6.44,0.1,6.5c-0.08,0.28-0.16,0.74-0.26,1.26
			c-0.57,2.97-1.26,5.92-2.84,6.59C384.13,565.92,383.9,565.98,383.63,565.98z M386.63,553.51c-0.78,1.25-1.85,3.34-3.21,6.83
			l-0.04,0.11c-0.82,2.08-0.95,3.75-0.34,4.16c0.43,0.28,0.68,0.23,0.82,0.17c1.16-0.49,1.84-4.05,2.17-5.76
			c0.11-0.55,0.2-1.02,0.28-1.34C386.47,557.08,386.62,554.93,386.63,553.51z"/>
	</g>
	<g>
		<path id="path3376_00000026130222245852433270000012798875227762718602_" inkscape:connector-curvature="0" class="st3" d="
			M417.2,546.92c2.11,0.98,5.32,4.1,5.92,4.67c0.92,0.88,2.4,2.57,1.82,3.62c-1.4,2.55-4.6-2.77-5.57-3.93
			C418.83,550.63,416.72,546.7,417.2,546.92z"/>
		<path class="st3" d="M423.98,556.46c-1.42,0-2.9-1.88-4.41-3.98c-0.26-0.35-0.47-0.65-0.62-0.84c-0.03-0.03-2.86-4.27-2.25-5.07
			l0.28-0.36l0.47,0.19c1.37,0.64,3.38,2.2,5.94,4.65l0.13,0.12c1.05,1.01,2.7,2.9,1.93,4.31c-0.42,0.76-0.97,0.95-1.37,0.97
			C424.04,556.46,424.01,556.46,423.98,556.46z M418.24,548.19c0.52,1.04,1.27,2.37,1.57,2.72c0.17,0.2,0.4,0.52,0.68,0.9
			c0.77,1.07,2.57,3.56,3.52,3.51c0.06,0,0.23-0.01,0.44-0.39c0.28-0.51-0.41-1.69-1.71-2.94l-0.13-0.12
			C420.85,550.21,419.39,548.98,418.24,548.19z"/>
	</g>
	<g>
		<path id="path3378_00000040544268455764405490000007677900455717553554_" inkscape:connector-curvature="0" class="st3" d="
			M413.24,548.91c2.22,1.48,5.3,5.55,5.87,6.31c0.89,1.15,2.27,3.31,1.43,4.4c-2.03,2.63-4.71-3.93-5.61-5.41
			C414.44,553.39,412.73,548.58,413.24,548.91z"/>
		<path class="st3" d="M419.5,560.81c-0.05,0-0.1,0-0.15-0.01c-1.6-0.15-2.96-2.55-4.33-5.22c-0.23-0.45-0.43-0.84-0.57-1.08
			c-0.03-0.05-2.43-5.28-1.67-6.01c0.21-0.2,0.52-0.22,0.77-0.06l0,0c1.99,1.33,4.61,4.59,6,6.42c1.01,1.31,2.52,3.7,1.44,5.11
			C420.47,560.64,419.91,560.81,419.5,560.81z M414.03,550.27c0.4,1.29,1.09,3.14,1.39,3.65c0.16,0.26,0.36,0.65,0.61,1.14
			c0.75,1.46,2.31,4.5,3.42,4.6c0.08,0.01,0.31,0.03,0.63-0.39c0.43-0.55-0.15-2.04-1.43-3.71
			C416.89,553.23,415.29,551.41,414.03,550.27z"/>
	</g>
	<g>
		<path id="path3380_00000083086288634966125240000018093431770554920320_" inkscape:connector-curvature="0" class="st3" d="
			M407.55,550.65c2.21,1.83,5.05,6.46,5.59,7.32c0.82,1.31,2.05,3.74,1.02,4.74c-2.5,2.43-4.62-4.71-5.41-6.35
			C408.32,555.42,407.05,550.23,407.55,550.65z"/>
		<path class="st3" d="M413.12,563.77c-0.13,0-0.26-0.02-0.36-0.04c-1.68-0.36-2.91-3.14-4.02-5.95c-0.2-0.5-0.36-0.92-0.49-1.18
			c-0.03-0.06-1.97-5.75-1.11-6.41c0.23-0.18,0.55-0.17,0.79,0.03c1.43,1.18,3.31,3.63,5.6,7.27l0.11,0.18
			c0.93,1.48,2.28,4.15,0.94,5.45C414.03,563.63,413.52,563.77,413.12,563.77z M408.18,552.04c0.28,1.39,0.82,3.48,1.09,4.07
			c0.14,0.29,0.31,0.72,0.52,1.25c0.64,1.62,1.97,4.99,3.2,5.26c0.16,0.03,0.41,0.04,0.78-0.32c0.53-0.51,0.08-2.13-1.11-4.02
			l-0.11-0.18C410.84,555.36,409.37,553.33,408.18,552.04z"/>
	</g>
	<g>
		<path id="path3382_00000090274465907482860220000015821072677183916215_" inkscape:connector-curvature="0" class="st3" d="
			M403.06,552.39c1.84,2.21,3.77,7.29,4.14,8.22c0.56,1.44,1.32,4.05,0.12,4.84c-2.91,1.92-3.66-5.48-4.14-7.25
			C402.93,557.22,402.64,551.89,403.06,552.39z"/>
		<path class="st3" d="M406.41,566.34c-0.27,0-0.49-0.06-0.67-0.14c-1.59-0.67-2.27-3.62-2.84-6.59c-0.1-0.53-0.19-0.98-0.26-1.26
			c-0.02-0.06-0.87-6,0.1-6.5c0.26-0.13,0.57-0.07,0.77,0.17v0c0.84,1.01,2.24,3.26,4.19,8.27l0.04,0.11
			c0.64,1.62,1.47,4.49-0.09,5.52C407.17,566.23,406.76,566.34,406.41,566.34z M403.42,553.87c0.01,1.42,0.16,3.57,0.32,4.19
			c0.08,0.32,0.18,0.79,0.28,1.34c0.33,1.71,1.01,5.27,2.17,5.76c0.15,0.06,0.39,0.11,0.83-0.17c0.62-0.41,0.48-2.08-0.34-4.16
			l-0.04-0.11C405.27,557.21,404.2,555.12,403.42,553.87z"/>
	</g>
</g>
<polygon class="st1" points="102.26,56.01 96.09,37.04 112.23,25.31 92.28,25.31 86.12,6.34 79.95,25.31 60,25.31 76.14,37.04 
	69.98,56.01 86.12,44.29 "/>
<polygon class="st1" points="172.51,56.01 166.35,37.04 182.49,25.31 162.54,25.31 156.37,6.34 150.21,25.31 130.26,25.31 
	146.4,37.04 140.23,56.01 156.37,44.29 "/>
<polygon class="st1" points="242.77,56.01 236.6,37.04 252.74,25.31 232.79,25.31 226.63,6.34 220.46,25.31 200.51,25.31 
	216.65,37.04 210.49,56.01 226.63,44.29 "/>
<polygon class="st1" points="313.02,56.01 306.86,37.04 323,25.31 303.05,25.31 296.88,6.34 290.72,25.31 270.77,25.31 
	286.91,37.04 280.74,56.01 296.88,44.29 "/>
</svg>
