<?xml version="1.0" encoding="UTF-8" standalone="no"?>
<!-- Created with Inkscape (http://www.inkscape.org/) -->
<svg
   xmlns:dc="http://purl.org/dc/elements/1.1/"
   xmlns:cc="http://web.resource.org/cc/"
   xmlns:rdf="http://www.w3.org/1999/02/22-rdf-syntax-ns#"
   xmlns:svg="http://www.w3.org/2000/svg"
   xmlns="http://www.w3.org/2000/svg"
   xmlns:sodipodi="http://inkscape.sourceforge.net/DTD/sodipodi-0.dtd"
   xmlns:inkscape="http://www.inkscape.org/namespaces/inkscape"
   width="600"
   height="300"
   id="svg2"
   sodipodi:version="0.32"
   inkscape:version="0.43"
   version="1.0"
   sodipodi:docbase="C:\Documents and Settings\David Nelson\Archives\Svg"
   sodipodi:docname="Naval_Ensign_of_Grenada.svg">
  <defs
     id="defs4" />
  <sodipodi:namedview
     id="base"
     pagecolor="#ffffff"
     bordercolor="#666666"
     borderopacity="1.0"
     inkscape:pageopacity="0.0"
     inkscape:pageshadow="2"
     inkscape:zoom="1.1083333"
     inkscape:cx="300"
     inkscape:cy="150.00005"
     inkscape:document-units="px"
     inkscape:current-layer="layer1"
     inkscape:window-width="756"
     inkscape:window-height="540"
     inkscape:window-x="22"
     inkscape:window-y="31" />
  <metadata
     id="metadata7">
    <rdf:RDF>
      <cc:Work
         rdf:about="">
        <dc:format>image/svg+xml</dc:format>
        <dc:type
           rdf:resource="http://purl.org/dc/dcmitype/StillImage" />
      </cc:Work>
    </rdf:RDF>
  </metadata>
  <g
     inkscape:label="Layer 1"
     inkscape:groupmode="layer"
     id="layer1">
    <rect
       style="opacity:1;fill:#ce1126;fill-opacity:1;fill-rule:evenodd;stroke:none;stroke-width:1.97836268;stroke-linecap:round;stroke-linejoin:round;stroke-miterlimit:4;stroke-dasharray:none;stroke-dashoffset:0.99999998;stroke-opacity:1"
       id="rect3207"
       width="600"
       height="300"
       x="0"
       y="0" />
    <path
       style="fill:#ffffff;fill-opacity:1;fill-rule:evenodd;stroke:none;stroke-width:1;stroke-linecap:butt;stroke-linejoin:miter;stroke-miterlimit:4;stroke-dasharray:none;stroke-dashoffset:0;stroke-opacity:1"
       d="M 320,0 L 320,130 L 600,130 L 600,0 L 320,0 z "
       id="path3174" />
    <path
       style="fill:#ffffff;fill-opacity:1;fill-rule:evenodd;stroke:none;stroke-width:1;stroke-linecap:butt;stroke-linejoin:miter;stroke-miterlimit:4;stroke-dasharray:none;stroke-dashoffset:0;stroke-opacity:1"
       d="M 320,170 L 320,300 L 600,300 L 600,170 L 320,170 z "
       id="path3170" />
    <path
       style="fill:#ffffff;fill-opacity:1;fill-rule:evenodd;stroke:none;stroke-width:1;stroke-linecap:butt;stroke-linejoin:miter;stroke-miterlimit:4;stroke-dasharray:none;stroke-dashoffset:0;stroke-opacity:1"
       d="M 0,170 L 0,300 L 280,300 L 280,170 L 0,170 z "
       id="path3172" />
    <g
       id="g3223"
       transform="matrix(0.820793,0,0,0.735294,20.46501,22.50003)">
      <rect
         id="rect2276"
         style="fill:#007a5e;fill-opacity:1;fill-rule:evenodd;stroke:none;stroke-width:1pt;stroke-linecap:butt;stroke-linejoin:miter;stroke-opacity:1"
         y="23.799913"
         x="23.800024"
         height="122.40007"
         width="292.40027" />
      <path
         id="path3519"
         style="fill:#fcd116;fill-opacity:1;fill-rule:evenodd;stroke:none;stroke-width:1pt;stroke-linecap:butt;stroke-linejoin:miter;stroke-opacity:1"
         d="M 23.800025,146.19998 L 170.00016,84.999947 L 316.20029,146.19998 L 23.800025,146.19998 z " />
      <path
         id="path4762"
         style="fill:#fcd116;fill-opacity:1;fill-rule:evenodd;stroke:none;stroke-width:1pt;stroke-linecap:butt;stroke-linejoin:miter;stroke-opacity:1"
         d="M 23.800025,23.799913 L 170.00016,84.999947 L 316.20029,23.799913 L 23.800025,23.799913 z " />
    </g>
    <g
       id="g3388"
       transform="translate(-10.00005,4.248412e-5)">
      <path
         id="path4763"
         style="fill:#ce1126;fill-opacity:1;fill-rule:evenodd;stroke:none;stroke-width:1pt;stroke-linecap:butt;stroke-linejoin:miter;stroke-opacity:1"
         d="M 190.40011,84.999941 C 190.40011,73.733326 181.26671,64.599929 170.0001,64.599929 C 158.73349,64.599929 149.60009,73.733326 149.60009,84.999941 C 149.60009,96.266556 158.73349,105.39995 170.0001,105.39995 C 181.26671,105.39995 190.40011,96.266556 190.40011,84.999941 z " />
      <path
         id="path2203"
         style="fill:#fcd116;fill-opacity:1;fill-rule:evenodd;stroke:none;stroke-width:1pt;stroke-linecap:butt;stroke-linejoin:miter;stroke-opacity:1"
         d="M 152.21526,79.222278 L 165.80288,79.222278 L 170.0001,66.29993 L 174.19732,79.222278 L 187.78494,79.222278 L 176.79391,87.207602 L 180.99113,100.12995 L 170.0001,92.144626 L 159.00907,100.12995 L 163.20629,87.207602 L 152.21526,79.222278 z " />
    </g>
    <g
       id="g3396"
       transform="translate(0.317841,0)">
      <path
         id="path6666"
         style="fill:#fcd116;fill-opacity:1;fill-rule:evenodd;stroke:none;stroke-width:1pt;stroke-linecap:butt;stroke-linejoin:miter;stroke-opacity:1"
         d="M 62.885048,17.760548 L 70.913802,17.760548 L 73.393888,10.124025 L 75.873977,17.760548 L 83.902727,17.760548 L 77.408267,22.479515 L 79.888347,30.116037 L 73.393888,25.397075 L 66.899425,30.116037 L 69.379511,22.479515 L 62.885048,17.760548 z " />
      <path
         id="path6672"
         style="fill:#fcd116;fill-opacity:1;fill-rule:evenodd;stroke:none;stroke-width:1pt;stroke-linecap:butt;stroke-linejoin:miter;stroke-opacity:1"
         d="M 149.17337,17.760548 L 157.20212,17.760548 L 159.68221,10.124025 L 162.1623,17.760548 L 170.19105,17.760548 L 163.69659,22.479515 L 166.17667,30.116037 L 159.68221,25.397075 L 153.18775,30.116037 L 155.66783,22.479515 L 149.17337,17.760548 z " />
      <path
         id="path6675"
         style="fill:#fcd116;fill-opacity:1;fill-rule:evenodd;stroke:none;stroke-width:1pt;stroke-linecap:butt;stroke-linejoin:miter;stroke-opacity:1"
         d="M 235.46169,17.760548 L 243.49044,17.760548 L 245.97053,10.124025 L 248.45062,17.760548 L 256.47937,17.760548 L 249.98491,22.479515 L 252.46499,30.116037 L 245.97053,25.397075 L 239.47607,30.116037 L 241.95615,22.479515 L 235.46169,17.760548 z " />
    </g>
    <g
       id="g3401"
       transform="translate(0.317841,0)">
      <path
         id="path6678"
         style="fill:#fcd116;fill-opacity:1;fill-rule:evenodd;stroke:none;stroke-width:1pt;stroke-linecap:butt;stroke-linejoin:miter;stroke-opacity:1"
         d="M 62.885048,146.44284 L 70.913802,146.44284 L 73.393888,138.80632 L 75.873976,146.44284 L 83.902727,146.44284 L 77.408266,151.16181 L 79.888346,158.79833 L 73.393888,154.07937 L 66.899425,158.79833 L 69.379511,151.16181 L 62.885048,146.44284 z " />
      <path
         id="path6681"
         style="fill:#fcd116;fill-opacity:1;fill-rule:evenodd;stroke:none;stroke-width:1pt;stroke-linecap:butt;stroke-linejoin:miter;stroke-opacity:1"
         d="M 149.17337,146.44284 L 157.20212,146.44284 L 159.68221,138.80632 L 162.1623,146.44284 L 170.19105,146.44284 L 163.69659,151.16181 L 166.17667,158.79833 L 159.68221,154.07937 L 153.18775,158.79833 L 155.66783,151.16181 L 149.17337,146.44284 z " />
      <path
         id="path6684"
         style="fill:#fcd116;fill-opacity:1;fill-rule:evenodd;stroke:none;stroke-width:1pt;stroke-linecap:butt;stroke-linejoin:miter;stroke-opacity:1"
         d="M 235.46169,146.44284 L 243.49044,146.44284 L 245.97053,138.80632 L 248.45062,146.44284 L 256.47937,146.44284 L 249.98491,151.16181 L 252.46499,158.79833 L 245.97053,154.07937 L 239.47607,158.79833 L 241.95615,151.16181 L 235.46169,146.44284 z " />
    </g>
    <g
       id="g3392"
       transform="matrix(0.865316,0,0,0.865316,18.84961,12.19595)">
      <path
         id="path7321"
         style="fill:#ce1126;fill-opacity:1;fill-rule:evenodd;stroke:none;stroke-width:1pt;stroke-linecap:butt;stroke-linejoin:miter;stroke-opacity:1"
         d="M 48.59087,85.229781 C 51.143206,89.98482 56.108025,95.159425 60.443502,96.977525 C 60.513428,92.152559 58.800218,85.964011 56.457663,81.034156 L 48.59087,85.229781 z " />
      <path
         id="path7320"
         style="fill:#fcd116;fill-opacity:1;fill-rule:evenodd;stroke:none;stroke-width:1pt;stroke-linecap:butt;stroke-linejoin:miter;stroke-opacity:1"
         d="M 44.263624,68.923666 C 47.963067,76.637268 34.66788,95.033211 56.818635,99.347893 C 54.086053,95.619581 52.324598,89.463458 52.990944,84.521243 C 57.637848,86.292639 62.527533,91.462965 64.503852,95.419389 C 70.300765,74.367528 49.634612,75.651477 44.263624,68.923666 z " />
    </g>
  </g>
</svg>
