<?xml version="1.0" encoding="UTF-8"?>
<svg width="514.63mm" height="297.07mm" version="1.1" viewBox="0 0 514.63 297.07" xmlns="http://www.w3.org/2000/svg"><g transform="translate(225.8 -15.806)"><path d="m288.83 312.87h-514.63v-297.07h514.63z" style="fill:#0166ff"/><path d="m72.262 15.806h219.31v98.44h-219.31z" style="fill:#c81010"/><path d="m184.16 32.504c-6.978-4.9843-11.215-5.732-15.95-5.9812-6.9781.24923-10.218 5.2335-16.947 5.4828 2.7414 4.7351 12.212 5.9812 16.199-.24923 5.732.99684 7.2273 3.7382 8.7226 6.978-2.4922-.49843-5.2335-1.7445-7.7257 2.4922-1.9937.74764-2.7414 0-6.2304 0-1.7445 0-2.2429 1.4953-2.2429 3.7382.99687-2.4921 8.2241-.99687 9.9686 0 1.2461.74767 2.7414 3.7382 4.4859 4.2367 4.4859 1.4953 10.965-2.4922 16.697-4.9843l12.71-2.9906h-8.7225l10.965-3.489h-11.962c-.24923-.49844-.74763-1.2461-1.2461-1.7445 2.9906-3.2398 5.732-9.221 6.4796-11.962 5.4828-.24923 8.9718-.99687 13.458-2.7414-28.411-5.2335-21.931.49844-28.66 11.215z" style="fill:#f8d000;stroke-miterlimit:23;stroke-width:.49843px;stroke:#000000"/><path d="m170.95 39.98c.49841 0 .74764.49844.74764.99687 0 .49844-.24923.99687-.74764.99687-.24923 0-.49843-.49843-.49843-.99687 0-.49843.24923-.99687.49843-.99687z" style="fill:#000000"/><path d="m170.95 39.98c.49841 0 .74764.49844.74764.99687 0 .49844-.24923.99687-.74764.99687-.24923 0-.49843-.49843-.49843-.99687 0-.49843.24923-.99687.49843-.99687z" style="fill:none;stroke-miterlimit:23;stroke-width:.24922px;stroke:#000000"/><path d="m178.43 38.984s-2.2429 2.2429-3.7382 2.2429" style="fill:none;stroke-miterlimit:23;stroke-width:.49843px;stroke:#000000"/><path d="m191.14 44.217s2.243-2.9906 3.9874-2.9906" style="fill:none;stroke-miterlimit:23;stroke-width:.49843px;stroke:#000000"/><path d="m157.74 30.759s1.7445-1.4953 2.4921-1.9937" style="fill:none;stroke-miterlimit:23;stroke-width:.49843px;stroke:#000000"/><path d="m164.97 28.516s2.4921-1.7445 5.732-1.7445" style="fill:none;stroke-miterlimit:23;stroke-width:.49843px;stroke:#000000"/><path d="m172.2 29.015s3.489-.99687 6.7288.24923" style="fill:none;stroke-miterlimit:23;stroke-width:.49843px;stroke:#000000"/><path d="m176.18 30.51s2.9906-.74764 5.732.49844" style="fill:none;stroke-miterlimit:23;stroke-width:.49843px;stroke:#000000"/><path d="m179.18 32.006s2.9906 0 4.4859.99687" style="fill:none;stroke-miterlimit:23;stroke-width:.49843px;stroke:#000000"/><path d="m151.26 32.006s4.2367 1.9937 7.7257-.74764" style="fill:none;stroke-miterlimit:23;stroke-width:.49843px;stroke:#000000"/><path d="m151.76 33.002s5.4828 2.2429 7.9749-1.9937" style="fill:none;stroke-miterlimit:23;stroke-width:.49843px;stroke:#000000"/><path d="m153.76 34.498s3.9874 2.2429 7.2273-3.489" style="fill:none;stroke-miterlimit:23;stroke-width:.49843px;stroke:#000000"/><path d="m157.49 35.993s3.2398-1.7445 4.4859-4.9843" style="fill:none;stroke-miterlimit:23;stroke-width:.49843px;stroke:#000000"/><path d="m159.99 35.993s2.2429-2.4921 2.9906-4.9843" style="fill:none;stroke-miterlimit:23;stroke-width:.49843px;stroke:#000000"/><path d="m188.65 33.002s.99687 1.9937 4.2367 2.9906" style="fill:none;stroke-miterlimit:23;stroke-width:.49843px;stroke:#000000"/><path d="m189.39 32.255s1.2461 2.2429 4.2367 2.9906" style="fill:none;stroke-miterlimit:23;stroke-width:.49843px;stroke:#000000"/><path d="m190.14 31.009s1.2461 2.2429 4.4859 2.9906" style="fill:none;stroke-miterlimit:23;stroke-width:.49843px;stroke:#000000"/><path d="m190.64 30.012s2.2429 2.2429 4.7351 2.7413" style="fill:none;stroke-miterlimit:23;stroke-width:.49843px;stroke:#000000"/><path d="m191.64 28.516s1.4953 2.2429 4.4859 2.9906" style="fill:none;stroke-miterlimit:23;stroke-width:.49843px;stroke:#000000"/><path d="m192.13 27.27s1.9937 2.4921 4.7351 2.7414" style="fill:none;stroke-miterlimit:23;stroke-width:.49843px;stroke:#000000"/><path d="m192.88 26.024s.99684 1.9937 4.7351 2.4922" style="fill:none;stroke-miterlimit:23;stroke-width:.49843px;stroke:#000000"/><path d="m193.63 24.529s.99687 2.2429 4.4859 2.7414" style="fill:none;stroke-miterlimit:23;stroke-width:.49843px;stroke:#000000"/><path d="m194.13 23.283s1.9937 2.7413 4.4859 2.7413" style="fill:none;stroke-miterlimit:23;stroke-width:.49843px;stroke:#000000"/><path d="m194.38 22.286s2.9906 2.9906 4.7351 2.7414" style="fill:none;stroke-miterlimit:23;stroke-width:.49843px;stroke:#000000"/><path d="m194.88 21.04s2.2429 2.2429 4.4859 2.9906" style="fill:none;stroke-miterlimit:23;stroke-width:.49843px;stroke:#000000"/><path d="m185.16 34.248s.99687 1.2461 1.7445.99687" style="fill:none;stroke-miterlimit:23;stroke-width:.49843px;stroke:#000000"/><path d="m185.65 33.501s.99687.99687 1.9937.99687" style="fill:none;stroke-miterlimit:23;stroke-width:.49843px;stroke:#000000"/><path d="m186.4 32.255s.99687 1.4953 1.9937 1.2461" style="fill:none;stroke-miterlimit:23;stroke-width:.49843px;stroke:#000000"/><path d="m186.9 31.258s1.2461 1.2461 2.243 1.2461" style="fill:none;stroke-miterlimit:23;stroke-width:.49843px;stroke:#000000"/><path d="m187.65 30.261s.74767.99687 1.9937 1.2461" style="fill:none;stroke-miterlimit:23;stroke-width:.49843px;stroke:#000000"/><path d="m188.4 29.015s.74764 1.2461 1.9937 1.2461" style="fill:none;stroke-miterlimit:23;stroke-width:.49843px;stroke:#000000"/><path d="m188.89 28.018s.99684.99687 2.2429 1.2461" style="fill:none;stroke-miterlimit:23;stroke-width:.49843px;stroke:#000000"/><path d="m189.39 27.021s1.2461.74767 2.4922.74767" style="fill:none;stroke-miterlimit:23;stroke-width:.49843px;stroke:#000000"/><path d="m190.14 25.526s.74764.99684 2.243.99684" style="fill:none;stroke-miterlimit:23;stroke-width:.49843px;stroke:#000000"/><path d="m190.64 24.28s.99684 1.2461 2.4921 1.2461" style="fill:none;stroke-miterlimit:23;stroke-width:.49843px;stroke:#000000"/><path d="m191.14 23.034s1.4953 1.2461 2.4922.99687" style="fill:none;stroke-miterlimit:23;stroke-width:.49843px;stroke:#000000"/><path d="m191.64 21.538s.99687 1.7445 2.4922 1.4953" style="fill:none;stroke-miterlimit:23;stroke-width:.49843px;stroke:#000000"/><path d="m192.13 21.04s1.4953 1.2461 2.4922.99684" style="fill:none;stroke-miterlimit:23;stroke-width:.49843px;stroke:#000000"/><path d="m192.63 20.043s1.2461 1.2461 2.2429 1.2461" style="fill:none;stroke-miterlimit:23;stroke-width:.49843px;stroke:#000000"/><path d="m193.88 19.545s1.9937 1.7445 4.7351-.24923" style="fill:none;stroke-miterlimit:23;stroke-width:.49843px;stroke:#000000"/><path d="m195.62 20.791s4.2366 1.4953 5.9812-1.2461" style="fill:none;stroke-miterlimit:23;stroke-width:.49843px;stroke:#000000"/><path d="m198.86 21.289s2.9906.49843 5.9812-1.2461" style="fill:none;stroke-miterlimit:23;stroke-width:.49843px;stroke:#000000"/><path d="m200.86 21.289s4.2366 1.4953 11.962 0" style="fill:none;stroke-miterlimit:23;stroke-width:.49843px;stroke:#000000"/><path d="m161.23 35.744s1.9937-1.9937 2.7414-4.4859" style="fill:none;stroke-miterlimit:23;stroke-width:.49843px;stroke:#000000"/><path d="m162.73 35.495s1.4953-2.4921 1.9937-4.2367" style="fill:none;stroke-miterlimit:23;stroke-width:.49843px;stroke:#000000"/><path d="m164.22 34.747s1.2461-1.9937 1.4953-3.2398" style="fill:none;stroke-miterlimit:23;stroke-width:.49843px;stroke:#000000"/><path d="m157.74 31.258s2.9906-.99687 9.7194.49844" style="fill:none;stroke-miterlimit:23;stroke-width:.49843px;stroke:#000000"/><path d="m160.48 29.513s2.2429-1.9937 4.4859-2.4922" style="fill:none;stroke-miterlimit:23;stroke-width:.49843px;stroke:#000000"/><path d="m162.73 28.766s1.7445-1.4953 4.2366-1.9937" style="fill:none;stroke-miterlimit:23;stroke-width:.49843px;stroke:#000000"/><path d="m166.71 28.516s2.243-1.7445 5.2335-1.4953" style="fill:none;stroke-miterlimit:23;stroke-width:.49843px;stroke:#000000"/><path d="m169.7 28.516s3.2398-1.2461 6.2304-.49843" style="fill:none;stroke-miterlimit:23;stroke-width:.49843px;stroke:#000000"/><path d="m178.43 31.258s2.4922-.24923 5.2335.99687" style="fill:none;stroke-miterlimit:23;stroke-width:.49843px;stroke:#000000"/><path d="m174.19 29.513s3.489-.24923 5.9812.49843" style="fill:none;stroke-miterlimit:23;stroke-width:.49843px;stroke:#000000"/><path d="m196.12 21.04s1.2461 1.7445 4.7351 2.7413" style="fill:none;stroke-miterlimit:23;stroke-width:.49843px;stroke:#000000"/><path d="m198.12 21.289s1.9937 1.7445 4.9843 2.4921" style="fill:none;stroke-miterlimit:23;stroke-width:.49843px;stroke:#000000"/><path d="m200.11 21.289s2.7414 1.9937 5.4827 1.9937" style="fill:none;stroke-miterlimit:23;stroke-width:.49843px;stroke:#000000"/><path d="m203.1 21.788s2.7414.99687 6.2304.74764" style="fill:none;stroke-miterlimit:23;stroke-width:.49843px;stroke:#000000"/><path d="m168.21 28.516s1.9937-1.4953 5.2335-1.2461" style="fill:none;stroke-miterlimit:23;stroke-width:.49843px;stroke:#000000"/><path d="m180.67 33.002s.99686-.24923 2.4921.99687" style="fill:none;stroke-miterlimit:23;stroke-width:.49843px;stroke:#000000"/><path d="m176.18 38.734c.74764.24923 1.4953.49844 2.2429.24923 2.4922-2.2429 4.4859-4.4859 5.732-6.4796" style="fill:none;stroke-miterlimit:23;stroke-width:.49843px;stroke:#000000"/><path d="m163.47 106.27c-4.9843-1.2461-9.7194-5.9812-12.71-13.208 4.7351 4.4859 9.9686 5.2335 14.953 2.4922z" style="fill:#f8d000"/><path d="m163.47 106.27c-4.9843-1.2461-9.7194-5.9812-12.71-13.208 4.7351 4.4859 9.9686 5.2335 14.953 2.4922" style="fill:none;stroke-miterlimit:23;stroke-width:.49843px;stroke:#000000"/><path d="m163.47 113.5-15.202-7.9749 15.701-3.2398z" style="fill:#f8d000"/><path d="m163.47 113.5-15.202-7.9749 15.701-3.2398" style="fill:none;stroke-miterlimit:23;stroke-width:.49843px;stroke:#000000"/><path d="m165.72 95.556c-4.4859-4.2367-7.7257-11.464-8.9718-19.937 3.2398 6.7288 8.2241 10.716 13.458 11.215z" style="fill:#f8d000"/><path d="m165.72 95.556c-4.4859-4.2367-7.7257-11.464-8.9718-19.937 3.2398 6.7288 8.2241 10.716 13.458 11.215" style="fill:none;stroke-miterlimit:23;stroke-width:.49843px;stroke:#000000"/><path d="m163.97 102.28-12.461-16.697 15.701 6.4796z" style="fill:#f8d000"/><path d="m163.97 102.28-12.461-16.697 15.701 6.4796" style="fill:none;stroke-miterlimit:23;stroke-width:.49843px;stroke:#000000"/><path d="m170.2 86.833c-3.489-6.7288-4.9843-15.451-4.2366-24.174 1.7445 8.4733 5.4827 15.202 10.218 18.691z" style="fill:#f8d000"/><path d="m170.2 86.833c-3.489-6.7288-4.9843-15.451-4.2366-24.174 1.7445 8.4733 5.4827 15.202 10.218 18.691" style="fill:none;stroke-miterlimit:23;stroke-width:.49843px;stroke:#000000"/><path d="m167.21 92.066-8.2241-23.177 13.208 15.451z" style="fill:#f8d000"/><path d="m167.21 92.066-8.2241-23.177 13.208 15.451" style="fill:none;stroke-miterlimit:23;stroke-width:.49843px;stroke:#000000"/><path d="m176.18 81.35c-1.7445-8.2241-1.2461-17.445 1.2461-24.922-.24924 8.7225 1.7445 17.196 5.4828 23.177z" style="fill:#f8d000"/><path d="m176.18 81.35c-1.7445-8.2241-1.2461-17.445 1.2461-24.922-.24924 8.7225 1.7445 17.196 5.4828 23.177" style="fill:none;stroke-miterlimit:23;stroke-width:.49843px;stroke:#000000"/><path d="m172.2 84.341-2.4922-26.417 8.9718 22.18z" style="fill:#f8d000"/><path d="m172.2 84.341-2.4922-26.417 8.9718 22.18" style="fill:none;stroke-miterlimit:23;stroke-width:.49843px;stroke:#000000"/><path d="m182.91 79.606c.24923-8.4733 2.7414-16.697 6.7288-22.18-2.2429 7.9749-2.2429 16.947 0 24.922z" style="fill:#f8d000"/><path d="m182.91 79.606c.24923-8.4733 2.7414-16.697 6.7288-22.18-2.2429 7.9749-2.2429 16.947 0 24.922" style="fill:none;stroke-miterlimit:23;stroke-width:.49843px;stroke:#000000"/><path d="m178.68 80.104 3.2398-25.918 3.489 25.918z" style="fill:#f8d000"/><path d="m178.68 80.104 3.2398-25.918 3.489 25.918" style="fill:none;stroke-miterlimit:23;stroke-width:.49843px;stroke:#000000"/><path d="m189.64 82.347c1.9937-7.9749 5.9812-13.956 10.965-16.697-3.7382 5.9812-5.732 14.455-5.4827 23.177z" style="fill:#f8d000"/><path d="m189.64 82.347c1.9937-7.9749 5.9812-13.956 10.965-16.697-3.7382 5.9812-5.732 14.455-5.4827 23.177" style="fill:none;stroke-miterlimit:23;stroke-width:.49843px;stroke:#000000"/><path d="m185.41 80.104 8.9718-22.18-2.4922 26.417z" style="fill:#f8d000"/><path d="m185.41 80.104 8.9718-22.18-2.4922 26.417" style="fill:none;stroke-miterlimit:23;stroke-width:.49843px;stroke:#000000"/><path d="m195.13 88.827c3.7382-6.2304 8.9718-9.4702 13.956-8.9718-4.7351 3.489-8.4734 10.218-9.9686 18.442z" style="fill:#f8d000"/><path d="m195.13 88.827c3.7382-6.2304 8.9718-9.4702 13.956-8.9718-4.7351 3.489-8.4734 10.218-9.9686 18.442" style="fill:none;stroke-miterlimit:23;stroke-width:.49843px;stroke:#000000"/><path d="m191.89 84.341 12.959-15.451-7.9749 23.177z" style="fill:#f8d000"/><path d="m191.89 84.341 12.959-15.451-7.9749 23.177" style="fill:none;stroke-miterlimit:23;stroke-width:.49843px;stroke:#000000"/><path d="m199.11 98.297c4.7351-3.489 10.218-3.489 14.953 0-5.2335.24923-10.218 4.2367-13.458 10.966z" style="fill:#f8d000"/><path d="m199.11 98.297c4.7351-3.489 10.218-3.489 14.953 0-5.2335.24923-10.218 4.2367-13.458 10.966" style="fill:none;stroke-miterlimit:23;stroke-width:.49843px;stroke:#000000"/><path d="m196.87 92.066 15.451-6.4796-12.461 16.697z" style="fill:#f8d000"/><path d="m196.87 92.066 15.451-6.4796-12.461 16.697" style="fill:none;stroke-miterlimit:23;stroke-width:.49843px;stroke:#000000"/><path d="m200.61 109.26c5.2336-.24923 10.218 2.9906 13.956 9.221-4.9843-2.9906-10.467-1.9937-14.953 2.2429z" style="fill:#f8d000"/><path d="m200.61 109.26c5.2336-.24923 10.218 2.9906 13.956 9.221-4.9843-2.9906-10.467-1.9937-14.953 2.2429" style="fill:none;stroke-miterlimit:23;stroke-width:.49843px;stroke:#000000"/><path d="m199.86 102.28 15.95 3.2398-15.202 7.9749z" style="fill:#f8d000"/><path d="m199.86 102.28 15.95 3.2398-15.202 7.9749" style="fill:none;stroke-miterlimit:23;stroke-width:.49843px;stroke:#000000"/><path d="m181.92 79.606c10.467 0 18.691 13.956 18.691 31.152 0 17.196-8.2241 30.903-18.691 30.903-10.218 0-18.442-13.707-18.442-30.903 0-17.196 8.2241-31.152 18.442-31.152z" style="fill:#f8d000;stroke-miterlimit:23;stroke-width:.49843px;stroke:#000000"/><path d="m72.262 114.25h219.31v83.986h-219.31z" style="fill:#183070"/><path d="m59.302 117.98c7.2273-4.7351 14.455-4.7351 21.931 0 7.2272 4.9843 14.454 4.9843 21.931 0 7.2273-4.7351 14.454-4.7351 21.931 0 7.2273 4.9843 14.455 4.9843 21.931 0 7.2273-4.7351 14.953-4.7351 22.928 0 7.9749 4.9843 15.95 4.9843 24.174 0 7.9749-4.7351 15.701-4.7351 22.928 0 7.2273 4.9843 14.704 4.9843 21.931 0 7.2272-4.7351 14.704-4.7351 21.931 0 7.2273 4.9843 14.704 4.9843 21.931 0 7.2273-4.7351 14.704-4.7351 21.931 0" style="fill:none;stroke-width:14.953px;stroke:#ffffff"/><path d="m59.302 147.14c7.2273-4.7351 14.455-4.7351 21.931 0 7.2272 4.9843 14.454 4.9843 21.931 0 7.2273-4.7351 14.454-4.7351 21.931 0 7.2273 4.9843 14.455 4.9843 21.931 0 7.2273-4.7351 14.953-4.7351 22.928 0 7.9749 4.9843 15.95 4.9843 24.174 0 7.9749-4.7351 15.701-4.7351 22.928 0 7.2273 4.9843 14.704 4.9843 21.931 0 7.2272-4.7351 14.704-4.7351 21.931 0 7.2273 4.9843 14.704 4.9843 21.931 0 7.2273-4.7351 14.704-4.7351 21.931 0" style="fill:none;stroke-width:14.953px;stroke:#ffffff"/><path d="m59.302 176.3c7.2273-4.7351 14.455-4.7351 21.931 0 7.2272 4.9843 14.454 4.9843 21.931 0 7.2273-4.7351 14.454-4.7351 21.931 0 7.2273 4.9843 14.455 4.9843 21.931 0 7.2273-4.7351 14.953-4.7351 22.928 0 7.9749 4.9843 15.95 4.9843 24.174 0 7.9749-4.7351 15.701-4.7351 22.928 0 7.2273 4.9843 14.704 4.9843 21.931 0 7.2272-4.7351 14.704-4.7351 21.931 0 7.2273 4.9843 14.704 4.9843 21.931 0 7.2273-4.7351 14.704-4.7351 21.931 0" style="fill:none;stroke-width:14.953px;stroke:#ffffff"/><path d="m72.262 82.347v115.89h-69.282l28.411-135.57z" style="fill:#0166ff"/><path d="m39.614 264.27-16.448-12.959-16.448 12.959 6.978-19.688-17.196-11.713h21.183l5.4827-19.439 5.4828 19.439h21.183l-17.445 11.713z" style="fill:#ffffff"/><path d="m190.64 273.25-14.953-11.713-14.704 11.713 6.2304-17.944-15.701-10.467h19.19l4.9843-17.445 4.9843 17.445h18.94l-15.701 10.467z" style="fill:#ffffff"/><path d="m261.42 299.66-18.94-18.193-19.19 18.193 8.2241-27.414-20.186-16.448h24.672l6.4796-26.915 6.2304 26.915h24.672l-20.186 16.448z" style="fill:#ffffff"/><path d="m126.59 287.95-24.423-19.439-24.174 19.439 10.467-29.407-25.669-17.445h31.152l8.2241-28.909 8.2241 28.909h31.152l-25.669 17.445z" style="fill:#ffffff"/><path d="m-22.689 256.3-17.445-19.19-17.445 19.19 7.4765-28.909-18.442-17.445h22.429l5.9812-28.66 5.9812 28.66h22.429l-18.691 17.445z" style="fill:#ffffff"/><path d="m-78.514 202.97-24.922-22.679-24.922 22.679 10.966-34.392-26.417-20.436h32.149l8.2241-33.893 8.4733 33.893h31.9l-26.417 20.436z" style="fill:#ffffff"/><path d="m-142.06 141.41-26.168-18.94-25.669 18.94 11.215-28.909-27.663-17.196h33.395l8.7226-28.66 8.9718 28.411h33.395l-27.663 17.445z" style="fill:#ffffff"/><path d="m-188.17 73.126-12.461-10.716-12.461 10.716 5.4828-16.199-13.208-9.7194h15.95l4.2366-16.199 4.2367 16.199h15.95l-13.208 9.7194z" style="fill:#ffffff"/></g></svg>
