<?xml version="1.0" encoding="UTF-8" standalone="no"?>
<!-- Created with Sodipodi ("http://www.sodipodi.com/") -->
<svg
   xmlns:dc="http://purl.org/dc/elements/1.1/"
   xmlns:cc="http://web.resource.org/cc/"
   xmlns:rdf="http://www.w3.org/1999/02/22-rdf-syntax-ns#"
   xmlns:svg="http://www.w3.org/2000/svg"
   xmlns="http://www.w3.org/2000/svg"
   xmlns:sodipodi="http://sodipodi.sourceforge.net/DTD/sodipodi-0.dtd"
   xmlns:inkscape="http://www.inkscape.org/namespaces/inkscape"
   height="500"
   id="svg548"
   sodipodi:docbase="C:\Documents and Settings\Brendan!\Desktop"
   sodipodi:docname="Flag of Swaziland 1894.svg"
   sodipodi:version="0.32"
   width="800"
   inkscape:version="0.45.1"
   inkscape:output_extension="org.inkscape.output.svg.inkscape"
   version="1.0">
  <metadata
     id="metadata3">
    <rdf:RDF>
      <cc:Work
         rdf:about="">
        <dc:title> swaziland</dc:title>
        <dc:description />
        <dc:subject>
          <rdf:Bag>
            <rdf:li />
            <rdf:li>united_nations_member</rdf:li>
            <rdf:li>flag</rdf:li>
            <rdf:li>africa</rdf:li>
            <rdf:li>sign</rdf:li>
          </rdf:Bag>
        </dc:subject>
        <dc:publisher>
          <cc:Agent
             rdf:about="http://www.openclipart.org">
            <dc:title> Caleb Moore</dc:title>
          </cc:Agent>
        </dc:publisher>
        <dc:creator>
          <cc:Agent>
            <dc:title>Caleb Moore</dc:title>
          </cc:Agent>
        </dc:creator>
        <dc:rights>
          <cc:Agent>
            <dc:title> Caleb Moore</dc:title>
          </cc:Agent>
        </dc:rights>
        <dc:date />
        <dc:format>image/svg+xml</dc:format>
        <dc:type
           rdf:resource="http://purl.org/dc/dcmitype/StillImage" />
        <cc:license
           rdf:resource="http://web.resource.org/cc/PublicDomain" />
        <dc:language>en</dc:language>
      </cc:Work>
      <cc:License
         rdf:about="http://web.resource.org/cc/PublicDomain">
        <cc:permits
           rdf:resource="http://web.resource.org/cc/Reproduction" />
        <cc:permits
           rdf:resource="http://web.resource.org/cc/Distribution" />
        <cc:permits
           rdf:resource="http://web.resource.org/cc/DerivativeWorks" />
      </cc:License>
    </rdf:RDF>
  </metadata>
  <defs
     id="defs550" />
  <sodipodi:namedview
     gridspacingx="1mm"
     gridspacingy="1mm"
     id="base"
     showgrid="true"
     snaptogrid="true"
     width="800px"
     height="500px"
     inkscape:zoom="1"
     inkscape:cx="398.39775"
     inkscape:cy="257.50127"
     inkscape:window-width="884"
     inkscape:window-height="709"
     inkscape:window-x="379"
     inkscape:window-y="90"
     inkscape:current-layer="svg548" />
  <rect
     height="500"
     id="rect585"
     style="font-size:12px;fill:#6699cc;fill-opacity:1;fill-rule:evenodd;stroke:none;stroke-width:1pt;stroke-opacity:1"
     width="800"
     x="0"
     y="0" />
  <g
     id="g2331"
     transform="matrix(2.4242424,0,0,1.5151515,-370.90908,125.66214)">
    <path
       style="fill:#203794;fill-opacity:1"
       d="M 153,82.062988 L 153,-82.937012 L 168,-82.937012 L 183,-82.937012 L 183,82.062988 L 183,247.06299 L 168,247.06299 L 153,247.06299 L 153,82.062988 z M 213,82.062988 L 213,-82.937012 L 228,-82.937012 L 243,-82.937012 L 243,82.062988 L 243,247.06299 L 228,247.06299 L 213,247.06299 L 213,82.062988 z M 273,82.062988 L 273,-82.937012 L 288,-82.937012 L 303,-82.937012 L 303,82.062988 L 303,247.06299 L 288,247.06299 L 273,247.06299 L 273,82.062988 z M 333,82.062988 L 333,-82.937012 L 348,-82.937012 L 363,-82.937012 L 363,82.062988 L 363,247.06299 L 348,247.06299 L 333,247.06299 L 333,82.062988 z M 393,82.062988 L 393,-82.937012 L 408,-82.937012 L 423,-82.937012 L 423,82.062988 L 423,247.06299 L 408,247.06299 L 393,247.06299 L 393,82.062988 z M 453,82.062988 L 453,-82.937012 L 468,-82.937012 L 483,-82.937012 L 483,82.062988 L 483,247.06299 L 468,247.06299 L 453,247.06299 L 453,82.062988 z "
       id="path2333" />
  </g>
  <g
     id="g1018"
     transform="matrix(0,-1,1,0,151.96852,622.04746)">
    <path
       d="M 637.795,230.315 C 584.646,289.37 513.779,407.48 372.047,407.48 C 248.031,407.48 159.449,289.37 106.299,230.315 C 159.449,171.26 248.031,53.1496 372.047,53.1496 C 513.779,53.1496 584.646,171.26 637.795,230.315 z "
       id="path552"
       sodipodi:nodetypes="ccccc"
       style="font-size:12px;fill:#ffffff;fill-rule:evenodd;stroke:#000000;stroke-width:1.97642004;stroke-dasharray:none;stroke-opacity:1"
       transform="matrix(0.666667,0,0,0.6,124.016,109.8426)" />
    <path
       d="M 353.498,114.777 C 367.638,132.448 355.831,139.572 370.798,140.732 C 386.582,142.02 377.635,159.404 390.912,160.008 C 400.194,160.458 389.985,201.66 398.921,215.255 C 408.023,229.429 415.646,219.408 415.806,229.648 C 415.964,240.238 391.033,239.17 390.596,271.794 C 389.865,290.594 369.557,291.798 368.588,303.895 C 367.383,315.273 408.596,321.661 408.047,331.847 C 407.482,342.002 363.546,340.412 361.633,351.993 C 360.652,362.395 421.992,370.921 426.924,401.006 C 417.771,404.332 391.73,407.463 372.047,407.48 C 248.038,407.589 159.449,289.37 106.299,230.315 C 159.449,171.26 248.031,53.1496 372.047,53.1496 C 372.047,53.1496 335.234,90.5233 353.498,114.777 z "
       id="path555"
       sodipodi:nodetypes="csssssssscsccs"
       style="font-size:12px;fill-rule:evenodd;stroke-width:1pt"
       transform="matrix(0.666667,0,0,0.6,124.0159,109.8424)" />
    <g
       id="g569"
       style="font-size:12px;fill:#ffffff"
       transform="matrix(0.484849,0,0,0.533333,183.7152,210.2362)">
      <rect
         height="53.14959"
         id="rect557"
         style="font-size:12px;fill:#ffffff;fill-opacity:1;fill-rule:evenodd;stroke-width:1pt"
         width="17.716537"
         x="159.44882"
         y="3.7999998e-005" />
      <rect
         height="53.149597"
         id="rect558"
         style="font-size:12px;fill:#ffffff;fill-opacity:1;fill-rule:evenodd;stroke-width:1pt"
         width="17.716537"
         x="159.44882"
         y="88.582756" />
      <rect
         height="53.14959"
         id="rect559"
         style="font-size:12px;fill:#ffffff;fill-opacity:1;fill-rule:evenodd;stroke-width:1pt"
         width="17.716537"
         x="194.8819"
         y="9.8999997e-005" />
      <rect
         height="53.149597"
         id="rect560"
         style="font-size:12px;fill:#ffffff;fill-opacity:1;fill-rule:evenodd;stroke-width:1pt"
         width="17.716537"
         x="194.8819"
         y="88.582817" />
      <rect
         height="53.14959"
         id="rect561"
         style="font-size:12px;fill:#ffffff;fill-opacity:1;fill-rule:evenodd;stroke-width:1pt"
         width="17.716537"
         x="230.31496"
         y="-1.5e-005" />
      <rect
         height="53.149597"
         id="rect562"
         style="font-size:12px;fill:#ffffff;fill-opacity:1;fill-rule:evenodd;stroke-width:1pt"
         width="17.716537"
         x="230.31496"
         y="88.582703" />
      <rect
         height="53.14959"
         id="rect563"
         style="font-size:12px;fill:#ffffff;fill-opacity:1;fill-rule:evenodd;stroke-width:1pt"
         width="17.716537"
         x="265.74802"
         y="4.6000001e-005" />
      <rect
         height="53.149597"
         id="rect564"
         style="font-size:12px;fill:#ffffff;fill-opacity:1;fill-rule:evenodd;stroke-width:1pt"
         width="17.716537"
         x="265.74802"
         y="88.582764" />
      <rect
         height="53.14959"
         id="rect565"
         style="font-size:12px;fill:#ffffff;fill-opacity:1;fill-rule:evenodd;stroke-width:1pt"
         width="17.716537"
         x="301.18109"
         y="-1.5e-005" />
      <rect
         height="53.149597"
         id="rect566"
         style="font-size:12px;fill:#ffffff;fill-opacity:1;fill-rule:evenodd;stroke-width:1pt"
         width="17.716537"
         x="301.18109"
         y="88.582703" />
      <rect
         height="53.14959"
         id="rect567"
         style="font-size:12px;fill:#ffffff;fill-opacity:1;fill-rule:evenodd;stroke-width:1pt"
         width="17.716537"
         x="336.61417"
         y="4.6000001e-005" />
      <rect
         height="53.149597"
         id="rect568"
         style="font-size:12px;fill:#ffffff;fill-opacity:1;fill-rule:evenodd;stroke-width:1pt"
         width="17.716537"
         x="336.61417"
         y="88.582764" />
    </g>
    <g
       id="g586"
       style="font-size:12px"
       transform="matrix(0.484849,0,0,0.533333,313.6365,210.2362)">
      <rect
         height="53.14959"
         id="rect587"
         style="font-size:12px;fill:#000000;fill-opacity:1;fill-rule:evenodd;stroke-width:1pt"
         width="17.716537"
         x="159.44882"
         y="3.7999998e-005" />
      <rect
         height="53.149597"
         id="rect588"
         style="font-size:12px;fill:#000000;fill-opacity:1;fill-rule:evenodd;stroke-width:1pt"
         width="17.716537"
         x="159.44882"
         y="88.582756" />
      <rect
         height="53.14959"
         id="rect589"
         style="font-size:12px;fill:#000000;fill-opacity:1;fill-rule:evenodd;stroke-width:1pt"
         width="17.716537"
         x="194.8819"
         y="9.8999997e-005" />
      <rect
         height="53.149597"
         id="rect590"
         style="font-size:12px;fill:#000000;fill-opacity:1;fill-rule:evenodd;stroke-width:1pt"
         width="17.716537"
         x="194.8819"
         y="88.582817" />
      <rect
         height="53.14959"
         id="rect591"
         style="font-size:12px;fill:#000000;fill-opacity:1;fill-rule:evenodd;stroke-width:1pt"
         width="17.716537"
         x="230.31496"
         y="-1.5e-005" />
      <rect
         height="53.149597"
         id="rect592"
         style="font-size:12px;fill:#000000;fill-opacity:1;fill-rule:evenodd;stroke-width:1pt"
         width="17.716537"
         x="230.31496"
         y="88.582703" />
      <rect
         height="53.14959"
         id="rect593"
         style="font-size:12px;fill:#000000;fill-opacity:1;fill-rule:evenodd;stroke-width:1pt"
         width="17.716537"
         x="265.74802"
         y="4.6000001e-005" />
      <rect
         height="53.149597"
         id="rect594"
         style="font-size:12px;fill:#000000;fill-opacity:1;fill-rule:evenodd;stroke-width:1pt"
         width="17.716537"
         x="265.74802"
         y="88.582764" />
      <rect
         height="53.14959"
         id="rect595"
         style="font-size:12px;fill:#000000;fill-opacity:1;fill-rule:evenodd;stroke-width:1pt"
         width="17.716537"
         x="301.18109"
         y="-1.5e-005" />
      <rect
         height="53.149597"
         id="rect596"
         style="font-size:12px;fill:#000000;fill-opacity:1;fill-rule:evenodd;stroke-width:1pt"
         width="17.716537"
         x="301.18109"
         y="88.582703" />
      <rect
         height="53.14959"
         id="rect597"
         style="font-size:12px;fill:#000000;fill-opacity:1;fill-rule:evenodd;stroke-width:1pt"
         width="17.716537"
         x="336.61417"
         y="4.6000001e-005" />
      <rect
         height="53.149597"
         id="rect598"
         style="font-size:12px;fill:#000000;fill-opacity:1;fill-rule:evenodd;stroke-width:1pt"
         width="17.716537"
         x="336.61417"
         y="88.582764" />
    </g>
  </g>
</svg>
