<?xml version="1.0" encoding="UTF-8"?>
<svg xmlns="http://www.w3.org/2000/svg" xmlns:xlink="http://www.w3.org/1999/xlink" width="2400" height="1200" viewBox="0 0 2400 1200" version="1.1">
<g id="surface1">
<rect x="0" y="0" width="2400" height="1200" style="fill:rgb(100%,100%,100%);fill-opacity:1;stroke:none;"/>
<path style=" stroke:none;fill-rule:nonzero;fill:rgb(0%,52.941176%,31.764706%);fill-opacity:1;" d="M 0 0 L 400 0 L 400 600 L 0 600 Z M 0 0 "/>
<path style=" stroke:none;fill-rule:nonzero;fill:rgb(0%,52.941176%,31.764706%);fill-opacity:1;" d="M 800 0 L 1200 0 L 1200 600 L 800 600 Z M 800 0 "/>
<path style="fill-rule:evenodd;fill:rgb(98.431373%,91.764706%,5.490196%);fill-opacity:1;stroke-width:1;stroke-linecap:butt;stroke-linejoin:miter;stroke:rgb(0%,0%,0%);stroke-opacity:1;stroke-miterlimit:4;" d="M 432.429639 124.008469 C 432.429639 160.110165 410.667372 189.375339 383.822998 189.375339 C 356.978624 189.375339 335.216357 160.110165 335.216357 124.008469 C 335.216357 87.906772 356.978624 58.641598 383.822998 58.641598 C 410.667372 58.641598 432.429639 87.906772 432.429639 124.008469 Z M 432.429639 124.008469 " transform="matrix(4.694012,0,0,4.730452,-1.669759,13.383892)"/>
<path style="fill-rule:evenodd;fill:rgb(0%,45.490196%,65.882353%);fill-opacity:1;stroke-width:1.284696;stroke-linecap:butt;stroke-linejoin:miter;stroke:rgb(0%,0%,0%);stroke-opacity:1;stroke-miterlimit:4;" d="M 432.429591 124.008933 C 432.429591 160.109599 410.667454 189.375256 383.823174 189.375256 C 356.978895 189.375256 335.216758 160.109599 335.216758 124.008933 C 335.216758 87.907258 356.978895 58.641601 383.823174 58.641601 C 410.667454 58.641601 432.429591 87.907258 432.429591 124.008933 Z M 432.429591 124.008933 " transform="matrix(3.474175,0,0,3.872526,466.5312,119.77604)"/>
<path style="fill-rule:evenodd;fill:rgb(0%,52.941176%,31.764706%);fill-opacity:1;stroke-width:0.5;stroke-linecap:round;stroke-linejoin:miter;stroke:rgb(0%,0%,0%);stroke-opacity:1;stroke-miterlimit:4;" d="M 377.850026 121.111345 C 377.661954 121.890011 376.149056 122.875601 374.684424 122.194996 C 374.820069 122.64624 374.956546 122.917983 374.524646 123.140697 C 373.844757 123.503852 372.942677 123.545403 372.28276 123.113273 C 371.403149 122.789175 370.606755 122.10109 370.377074 121.1637 C 370.266395 120.778937 370.223954 120.377555 370.219793 119.977834 C 370.595937 119.257339 371.348225 118.730473 372.155437 118.628257 C 372.607309 118.577565 372.759598 119.096953 373.097462 119.400275 C 373.166533 117.556241 375.368474 116.923835 376.555158 117.414137 C 376.947114 117.535466 376.557655 118.005823 376.637544 118.303328 C 376.593438 119.249029 376.96875 120.188913 377.620345 120.872012 C 377.694409 120.954283 377.771801 121.03406 377.850026 121.111345 Z M 377.850026 121.111345 " transform="matrix(4.694012,0,0,4.700548,0.297131,22.620464)"/>
<path style="fill-rule:evenodd;fill:rgb(100%,100%,100%);fill-opacity:1;stroke-width:0.5;stroke-linecap:round;stroke-linejoin:miter;stroke:rgb(0%,0%,0%);stroke-opacity:1;stroke-miterlimit:4;" d="M 369.24781 119.84404 C 368.4872 119.858167 367.734079 120.468967 367.834773 121.674777 C 367.01175 120.18642 365.517991 122.563969 366.246147 124.069777 C 366.919378 125.460074 367.268892 125.28639 367.912998 125.56312 C 368.745175 125.786665 370.649196 125.462567 369.894412 124.690549 C 370.685812 124.990547 372.052247 124.574206 372.270278 123.709945 C 372.351831 123.408285 372.440042 123.028509 372.023953 122.986958 C 371.269168 122.657043 370.624231 122.032116 370.396214 121.226026 C 370.268891 120.819657 370.221457 120.392513 370.216464 119.968693 C 369.901069 119.88476 369.574023 119.842378 369.24781 119.84404 Z M 369.24781 119.84404 " transform="matrix(4.694012,0,0,4.700548,0.297131,22.620464)"/>
<path style="fill-rule:evenodd;fill:rgb(100%,100%,100%);fill-opacity:1;stroke-width:0.5;stroke-linecap:round;stroke-linejoin:miter;stroke:rgb(0%,0%,0%);stroke-opacity:1;stroke-miterlimit:4;" d="M 379.987889 117.18893 C 379.095795 116.021347 377.71771 116.205834 377.096074 116.819957 C 376.690803 117.227988 376.667502 117.842112 376.629222 118.381444 C 376.583452 119.411078 377.081926 120.395006 377.812578 121.096387 C 378.203701 121.44126 380.323257 121.532673 380.610358 120.346807 C 381.761259 121.527686 383.244199 120.830461 383.403977 120.480601 C 383.403977 119.3313 383.403977 118.181168 383.403977 117.031037 C 383.093575 116.501677 382.459456 116.291429 381.901897 116.131042 C 381.109664 115.928273 380.072772 115.872594 379.987889 117.18893 Z M 379.987889 117.18893 " transform="matrix(4.694012,0,0,4.700548,0.297131,22.620464)"/>
<path style="fill-rule:evenodd;fill:rgb(100%,100%,100%);fill-opacity:1;stroke-width:0.5;stroke-linecap:round;stroke-linejoin:miter;stroke:rgb(0%,0%,0%);stroke-opacity:1;stroke-miterlimit:4;" d="M 388.957928 121.111345 C 389.146 121.890011 390.658898 122.875601 392.12353 122.194996 C 391.987885 122.64624 391.851408 122.917983 392.283308 123.140697 C 392.963197 123.503852 393.865277 123.545403 394.525194 123.113273 C 395.404805 122.789175 396.201199 122.10109 396.43088 121.1637 C 396.541559 120.778937 396.584 120.377555 396.588161 119.977834 C 396.212017 119.257339 395.459729 118.730473 394.652517 118.628257 C 394.200645 118.577565 394.048356 119.096953 393.710492 119.400275 C 393.641422 117.556241 391.439481 116.923835 390.252796 117.414137 C 389.86084 117.535466 390.250299 118.005823 390.17041 118.303328 C 390.214516 119.249029 389.839204 120.188913 389.187609 120.872012 C 389.113545 120.954283 389.036153 121.03406 388.957928 121.111345 Z M 388.957928 121.111345 " transform="matrix(4.694012,0,0,4.700548,0.297131,22.620464)"/>
<path style="fill-rule:evenodd;fill:rgb(0%,52.941176%,31.764706%);fill-opacity:1;stroke-width:0.5;stroke-linecap:round;stroke-linejoin:miter;stroke:rgb(0%,0%,0%);stroke-opacity:1;stroke-miterlimit:4;" d="M 397.560144 119.84404 C 398.320754 119.858167 399.073875 120.468967 398.973181 121.674777 C 399.796205 120.18642 401.289963 122.563969 400.561808 124.069777 C 399.888576 125.460074 399.539062 125.28639 398.894957 125.56312 C 398.062779 125.786665 396.158758 125.462567 396.913543 124.690549 C 396.122142 124.990547 394.755707 124.574206 394.537677 123.709945 C 394.456123 123.408285 394.367912 123.028509 394.784001 122.986958 C 395.538786 122.657043 396.183723 122.032116 396.41174 121.226026 C 396.539063 120.819657 396.586497 120.392513 396.59149 119.968693 C 396.906885 119.88476 397.233931 119.842378 397.560144 119.84404 Z M 397.560144 119.84404 " transform="matrix(4.694012,0,0,4.700548,0.297131,22.620464)"/>
<path style="fill-rule:evenodd;fill:rgb(0%,52.941176%,31.764706%);fill-opacity:1;stroke-width:0.5;stroke-linecap:round;stroke-linejoin:miter;stroke:rgb(0%,0%,0%);stroke-opacity:1;stroke-miterlimit:4;" d="M 386.820065 117.18893 C 387.712159 116.021347 389.090244 116.205834 389.711881 116.819957 C 390.117151 117.227988 390.140452 117.842112 390.178732 118.381444 C 390.224502 119.411078 389.726028 120.395006 388.995376 121.096387 C 388.604253 121.44126 386.484697 121.532673 386.197596 120.346807 C 385.046695 121.527686 383.563755 120.830461 383.403977 120.480601 C 383.403977 119.3313 383.403977 118.181168 383.403977 117.031037 C 383.714379 116.501677 384.348498 116.291429 384.906057 116.131042 C 385.69829 115.928273 386.735183 115.872594 386.820065 117.18893 Z M 386.820065 117.18893 " transform="matrix(4.694012,0,0,4.700548,0.297131,22.620464)"/>
<path style="fill-rule:evenodd;fill:rgb(100%,100%,100%);fill-opacity:1;stroke-width:5.871599;stroke-linecap:square;stroke-linejoin:miter;stroke:rgb(0%,0%,0%);stroke-opacity:1;stroke-miterlimit:4;" d="M 4393.652344 1997.734375 C 4388.603516 1994.941406 4383.613281 1990.800781 4378.613281 1988.183594 C 4373.291016 1985.400391 4368.798828 1982.431641 4363.583984 1979.736328 C 4361.445312 1984.423828 4357.65625 1989.384766 4356.25 1994.0625 C 4348.242188 2020.585938 4351.054688 2044.228516 4350.009766 2071.171875 L 4349.277344 2088.798828 L 4384.482422 2090.273438 L 4385.214844 2072.646484 C 4386.357422 2043.007812 4384.482422 2022.587891 4389.980469 2004.335938 C 4390.605469 2002.275391 4392.8125 1999.84375 4393.652344 1997.734375 Z M 4393.652344 1997.734375 " transform="matrix(0.4,0,0,0.4,0,0)"/>
<path style="fill-rule:evenodd;fill:rgb(100%,100%,100%);fill-opacity:1;stroke-width:5.871599;stroke-linecap:butt;stroke-linejoin:miter;stroke:rgb(0%,0%,0%);stroke-opacity:1;stroke-miterlimit:4;" d="M 4299.775391 1526.943359 L 4299.775391 1570.644531 L 4465.527344 1570.644531 L 4465.527344 1966.884766 C 4404.589844 1952.96875 4350.644531 1924.931641 4301.972656 1886.455078 C 4319.179688 1874.853516 4346.689453 1873.046875 4376.044922 1873.603516 C 4326.972656 1862.490234 4266.738281 1846.669922 4193.789062 1805.673828 C 4205.380859 1886.982422 4237.65625 1948.095703 4280.332031 1992.226562 C 4274.912109 1963.798828 4271.572266 1935.449219 4272.265625 1907.021484 C 4320.400391 1989.404297 4432.304688 1978.046875 4500 2096.152344 C 4567.695312 1978.046875 4679.599609 1989.404297 4727.734375 1907.021484 C 4728.427734 1935.449219 4725.087891 1963.798828 4719.667969 1992.226562 C 4762.34375 1948.095703 4794.619141 1886.982422 4806.210938 1805.673828 C 4733.261719 1846.669922 4673.027344 1862.490234 4623.955078 1873.603516 C 4653.310547 1873.046875 4680.820312 1874.853516 4698.027344 1886.455078 C 4649.355469 1924.931641 4595.410156 1952.96875 4534.472656 1966.884766 L 4534.472656 1570.644531 L 4700.224609 1570.644531 L 4700.224609 1526.943359 Z M 4299.775391 1526.943359 " transform="matrix(0.4,0,0,0.4,0,0)"/>
<path style="fill-rule:evenodd;fill:rgb(100%,100%,100%);fill-opacity:1;stroke-width:5.871599;stroke-linecap:square;stroke-linejoin:miter;stroke:rgb(0%,0%,0%);stroke-opacity:1;stroke-miterlimit:4;" d="M 4534.472656 1673.095703 L 4534.472656 1710.927734 C 4547.763672 1716.71875 4559.863281 1722.988281 4568.945312 1730.019531 C 4584.726562 1742.236328 4592.880859 1754.667969 4592.412109 1776.289062 C 4592.089844 1791.074219 4586.914062 1802.128906 4577.011719 1813.378906 C 4567.109375 1824.628906 4552.255859 1835.263672 4534.833984 1845.332031 C 4534.775391 1845.390625 4534.53125 1845.634766 4534.472656 1845.693359 C 4513.251953 1857.929688 4489.140625 1869.853516 4465.527344 1882.783203 C 4450.449219 1891.044922 4435.15625 1899.140625 4422.255859 1909.599609 C 4408.671875 1920.605469 4400.507812 1930.527344 4391.455078 1940.439453 C 4391.591797 1940.566406 4391.679688 1941.044922 4391.816406 1941.181641 C 4391.884766 1941.240234 4393.183594 1942.597656 4393.28125 1942.646484 C 4403.505859 1947.255859 4413.798828 1951.40625 4424.453125 1955.136719 C 4425.478516 1954.599609 4426.650391 1953.916016 4427.753906 1953.291016 C 4433.554688 1947.792969 4436.826172 1943.457031 4444.628906 1937.138672 C 4450.253906 1932.578125 4458.642578 1928.574219 4465.527344 1924.287109 C 4486.25 1911.376953 4509.658203 1898.603516 4534.472656 1885.361328 C 4540.498047 1882.138672 4546.572266 1879.199219 4552.441406 1875.810547 C 4571.464844 1864.804688 4589.414062 1852.412109 4603.417969 1836.513672 C 4617.412109 1820.615234 4627.099609 1800.585938 4627.617188 1777.021484 C 4628.320312 1744.589844 4612.363281 1718.974609 4590.576172 1702.109375 C 4574.199219 1689.423828 4554.570312 1680.800781 4534.472656 1673.095703 Z M 4534.472656 1673.095703 " transform="matrix(0.4,0,0,0.4,0,0)"/>
<path style="fill-rule:evenodd;fill:rgb(100%,100%,100%);fill-opacity:1;stroke-width:5.871599;stroke-linecap:square;stroke-linejoin:miter;stroke:rgb(0%,0%,0%);stroke-opacity:1;stroke-miterlimit:4;" d="M 4496.347656 1452.402344 C 4476.181641 1454.199219 4460.410156 1471.40625 4460.410156 1492.060547 C 4460.410156 1513.916016 4478.173828 1531.71875 4500 1531.71875 C 4521.826172 1531.71875 4539.589844 1513.916016 4539.589844 1492.060547 C 4539.589844 1470.214844 4521.826172 1452.402344 4500 1452.402344 C 4498.994141 1452.402344 4496.523438 1452.392578 4496.347656 1452.402344 Z M 4499.404297 1482.626953 C 4499.609375 1482.607422 4499.794922 1482.626953 4500 1482.626953 C 4505.195312 1482.626953 4509.404297 1486.835938 4509.404297 1492.03125 C 4509.404297 1497.226562 4505.195312 1501.435547 4500 1501.435547 C 4494.804688 1501.435547 4490.595703 1497.226562 4490.595703 1492.03125 C 4490.595703 1487.041016 4494.492188 1482.939453 4499.404297 1482.626953 Z M 4499.404297 1482.626953 " transform="matrix(0.4,0,0,0.4,0,0)"/>
<path style="fill-rule:evenodd;fill:rgb(100%,100%,100%);fill-opacity:1;stroke-width:5.871599;stroke-linecap:square;stroke-linejoin:miter;stroke:rgb(0%,0%,0%);stroke-opacity:1;stroke-miterlimit:4;" d="M 4396.953125 1570.644531 L 4361.376953 1570.644531 C 4361.201172 1584.853516 4363.007812 1599.84375 4368.710938 1615.810547 C 4378.037109 1641.894531 4400.351562 1658.037109 4424.824219 1669.794922 C 4437.519531 1675.888672 4451.708984 1680.039062 4465.527344 1684.853516 L 4465.527344 1647.392578 C 4457.197266 1644.326172 4446.943359 1641.621094 4439.853516 1638.212891 C 4419.160156 1628.271484 4406.435547 1617.246094 4401.71875 1604.0625 C 4397.070312 1591.074219 4396.728516 1580.673828 4396.953125 1570.644531 Z M 4396.953125 1570.644531 " transform="matrix(0.4,0,0,0.4,0,0)"/>
<path style="fill-rule:evenodd;fill:rgb(100%,100%,100%);fill-opacity:1;stroke-width:5.871599;stroke-linecap:square;stroke-linejoin:miter;stroke:rgb(0%,0%,0%);stroke-opacity:1;stroke-miterlimit:4;" d="M 4477.265625 1475.898438 L 4460.029297 1478.466797 C 4432.783203 1482.65625 4397.900391 1486.650391 4379.345703 1512.255859 C 4376.152344 1516.660156 4373.730469 1521.904297 4371.279297 1526.943359 L 4414.921875 1526.943359 C 4428.613281 1516.738281 4449.794922 1515.722656 4465.166016 1513.349609 L 4482.763672 1510.78125 Z M 4477.265625 1475.898438 " transform="matrix(0.4,0,0,0.4,0,0)"/>
<path style="fill-rule:evenodd;fill:rgb(100%,100%,100%);fill-opacity:1;stroke-width:5.871599;stroke-linecap:square;stroke-linejoin:miter;stroke:rgb(0%,0%,0%);stroke-opacity:1;stroke-miterlimit:4;" d="M 4434.033203 1483.017578 L 4440.039062 1515.566406 " transform="matrix(0.4,0,0,0.4,0,0)"/>
<path style="fill-rule:evenodd;fill:rgb(100%,100%,100%);fill-opacity:1;stroke-width:5.871599;stroke-linecap:square;stroke-linejoin:miter;stroke:rgb(0%,0%,0%);stroke-opacity:1;stroke-miterlimit:4;" d="M 4386.337891 1506.015625 L 4405.068359 1525.46875 " transform="matrix(0.4,0,0,0.4,0,0)"/>
<path style="fill-rule:evenodd;fill:rgb(100%,100%,100%);fill-opacity:1;stroke-width:5.871599;stroke-linecap:square;stroke-linejoin:miter;stroke:rgb(0%,0%,0%);stroke-opacity:1;stroke-miterlimit:4;" d="M 4363.378906 1591.630859 L 4395.878906 1584.199219 " transform="matrix(0.4,0,0,0.4,0,0)"/>
<path style="fill-rule:evenodd;fill:rgb(100%,100%,100%);fill-opacity:1;stroke-width:5.871599;stroke-linecap:square;stroke-linejoin:miter;stroke:rgb(0%,0%,0%);stroke-opacity:1;stroke-miterlimit:4;" d="M 4383.164062 1637.617188 L 4410.712891 1620.996094 " transform="matrix(0.4,0,0,0.4,0,0)"/>
<path style="fill-rule:evenodd;fill:rgb(100%,100%,100%);fill-opacity:1;stroke-width:5.871599;stroke-linecap:square;stroke-linejoin:miter;stroke:rgb(0%,0%,0%);stroke-opacity:1;stroke-miterlimit:4;" d="M 4440.390625 1640.097656 L 4425.908203 1669.111328 " transform="matrix(0.4,0,0,0.4,0,0)"/>
<path style="fill-rule:evenodd;fill:rgb(100%,100%,100%);fill-opacity:1;stroke-width:5.871599;stroke-linecap:square;stroke-linejoin:miter;stroke:rgb(0%,0%,0%);stroke-opacity:1;stroke-miterlimit:4;" d="M 4562.382812 1688.642578 L 4547.392578 1715.664062 " transform="matrix(0.4,0,0,0.4,0,0)"/>
<path style="fill-rule:evenodd;fill:rgb(100%,100%,100%);fill-opacity:1;stroke-width:5.871599;stroke-linecap:square;stroke-linejoin:miter;stroke:rgb(0%,0%,0%);stroke-opacity:1;stroke-miterlimit:4;" d="M 4597.363281 1712.65625 L 4576.376953 1733.671875 " transform="matrix(0.4,0,0,0.4,0,0)"/>
<path style="fill-rule:evenodd;fill:rgb(100%,100%,100%);fill-opacity:1;stroke-width:5.871599;stroke-linecap:square;stroke-linejoin:miter;stroke:rgb(0%,0%,0%);stroke-opacity:1;stroke-miterlimit:4;" d="M 4592.363281 1759.697266 L 4624.345703 1755.693359 " transform="matrix(0.4,0,0,0.4,0,0)"/>
<path style="fill-rule:evenodd;fill:rgb(100%,100%,100%);fill-opacity:1;stroke-width:5.871599;stroke-linecap:square;stroke-linejoin:miter;stroke:rgb(0%,0%,0%);stroke-opacity:1;stroke-miterlimit:4;" d="M 4589.365234 1796.728516 L 4619.355469 1806.738281 " transform="matrix(0.4,0,0,0.4,0,0)"/>
<path style="fill-rule:evenodd;fill:rgb(100%,100%,100%);fill-opacity:1;stroke-width:5.871599;stroke-linecap:square;stroke-linejoin:miter;stroke:rgb(0%,0%,0%);stroke-opacity:1;stroke-miterlimit:4;" d="M 4565.380859 1825.751953 L 4584.375 1849.775391 " transform="matrix(0.4,0,0,0.4,0,0)"/>
<path style="fill-rule:evenodd;fill:rgb(100%,100%,100%);fill-opacity:1;stroke-width:5.871599;stroke-linecap:square;stroke-linejoin:miter;stroke:rgb(0%,0%,0%);stroke-opacity:1;stroke-miterlimit:4;" d="M 4528.408203 1850.771484 L 4544.394531 1877.792969 " transform="matrix(0.4,0,0,0.4,0,0)"/>
<path style="fill-rule:evenodd;fill:rgb(100%,100%,100%);fill-opacity:1;stroke-width:5.871599;stroke-linecap:square;stroke-linejoin:miter;stroke:rgb(0%,0%,0%);stroke-opacity:1;stroke-miterlimit:4;" d="M 4488.554688 1870.791016 L 4507.802734 1898.808594 " transform="matrix(0.4,0,0,0.4,0,0)"/>
<path style="fill-rule:evenodd;fill:rgb(100%,100%,100%);fill-opacity:1;stroke-width:5.871599;stroke-linecap:square;stroke-linejoin:miter;stroke:rgb(0%,0%,0%);stroke-opacity:1;stroke-miterlimit:4;" d="M 4451.445312 1890.810547 L 4469.433594 1918.828125 " transform="matrix(0.4,0,0,0.4,0,0)"/>
<path style="fill-rule:evenodd;fill:rgb(100%,100%,100%);fill-opacity:1;stroke-width:5.871599;stroke-linecap:square;stroke-linejoin:miter;stroke:rgb(0%,0%,0%);stroke-opacity:1;stroke-miterlimit:4;" d="M 4415.644531 1916.210938 L 4438.457031 1938.847656 " transform="matrix(0.4,0,0,0.4,0,0)"/>
<path style="fill-rule:evenodd;fill:rgb(100%,100%,100%);fill-opacity:1;stroke-width:5.871599;stroke-linecap:square;stroke-linejoin:miter;stroke:rgb(0%,0%,0%);stroke-opacity:1;stroke-miterlimit:4;" d="M 4355.644531 2011.523438 L 4382.890625 2020.136719 " transform="matrix(0.4,0,0,0.4,0,0)"/>
<path style="fill-rule:evenodd;fill:rgb(100%,100%,100%);fill-opacity:1;stroke-width:5.871599;stroke-linecap:square;stroke-linejoin:miter;stroke:rgb(0%,0%,0%);stroke-opacity:1;stroke-miterlimit:4;" d="M 4352.060547 2051.025391 L 4383.613281 2053.896484 " transform="matrix(0.4,0,0,0.4,0,0)"/>
<path style=" stroke:none;fill-rule:nonzero;fill:rgb(0%,0%,0%);fill-opacity:1;" d="M 1619.457031 570.246094 L 1585.917969 566.402344 L 1586.742188 559.171875 L 1611.347656 548.179688 L 1588.300781 545.535156 L 1589.082031 538.71875 L 1622.621094 542.5625 L 1621.808594 549.699219 L 1597.195312 560.785156 L 1620.238281 563.429688 L 1619.457031 570.246094 M 1626.546875 522.269531 L 1593.585938 514.949219 L 1595.089844 508.160156 L 1628.050781 515.480469 L 1626.546875 522.269531 M 1637.175781 471.132812 C 1638.367188 472.875 1639.078125 474.632812 1639.304688 476.410156 C 1639.535156 478.175781 1639.296875 480.078125 1638.59375 482.117188 C 1637.046875 486.582031 1634.25 489.667969 1630.203125 491.375 C 1626.140625 493.058594 1621.59375 493.027344 1616.554688 491.28125 C 1611.472656 489.519531 1607.882812 486.730469 1605.792969 482.910156 C 1603.699219 479.09375 1603.449219 474.886719 1605.039062 470.289062 C 1606.425781 466.28125 1608.515625 463.347656 1611.308594 461.484375 C 1614.089844 459.613281 1617.238281 459.019531 1620.753906 459.703125 L 1618.4375 466.40625 C 1616.636719 466.234375 1615.085938 466.628906 1613.78125 467.585938 C 1612.488281 468.53125 1611.492188 470.007812 1610.796875 472.015625 C 1609.871094 474.691406 1610.125 477.136719 1611.558594 479.347656 C 1612.984375 481.542969 1615.421875 483.238281 1618.871094 484.433594 C 1622.335938 485.636719 1625.328125 485.78125 1627.839844 484.871094 C 1630.355469 483.964844 1632.089844 482.121094 1633.050781 479.34375 C 1633.769531 477.261719 1633.761719 475.304688 1633.015625 473.480469 C 1632.273438 471.652344 1630.894531 470.199219 1628.871094 469.125 L 1626.367188 476.371094 L 1620.910156 474.476562 L 1625.484375 461.246094 L 1642.746094 467.234375 L 1641.222656 471.636719 L 1637.175781 471.132812 M 1650.910156 448.828125 L 1621.117188 432.929688 L 1632.636719 411.273438 L 1637.816406 414.039062 L 1629.515625 429.632812 L 1635.867188 433.023438 L 1643.457031 418.765625 L 1648.554688 421.484375 L 1640.964844 435.742188 L 1648.632812 439.835938 L 1657.320312 423.507812 L 1662.820312 426.445312 L 1650.910156 448.828125 M 1662.398438 393.394531 L 1667.472656 386.996094 C 1668.574219 385.605469 1669.101562 384.363281 1669.054688 383.269531 C 1669.015625 382.164062 1668.390625 381.128906 1667.179688 380.167969 C 1666.03125 379.257812 1664.914062 378.882812 1663.824219 379.050781 C 1662.722656 379.210938 1661.671875 379.917969 1660.671875 381.179688 L 1655.398438 387.828125 L 1662.398438 393.394531 M 1672.957031 410.675781 L 1646.519531 389.648438 L 1656.699219 376.816406 C 1658.988281 373.925781 1661.300781 372.277344 1663.636719 371.871094 C 1665.972656 371.460938 1668.40625 372.265625 1670.945312 374.28125 C 1672.558594 375.566406 1673.632812 376.976562 1674.167969 378.519531 C 1674.714844 380.046875 1674.679688 381.601562 1674.066406 383.183594 C 1675.386719 382.359375 1676.65625 382.039062 1677.875 382.226562 C 1679.101562 382.402344 1680.628906 383.15625 1682.457031 384.492188 L 1685.664062 386.867188 C 1685.6875 386.886719 1685.722656 386.917969 1685.773438 386.953125 C 1687.378906 388.175781 1688.609375 388.59375 1689.457031 388.214844 L 1690.261719 388.855469 L 1685.53125 394.824219 C 1685.007812 394.71875 1684.433594 394.507812 1683.808594 394.1875 C 1683.183594 393.847656 1682.484375 393.386719 1681.710938 392.8125 L 1678.871094 390.671875 C 1677.1875 389.425781 1675.832031 388.859375 1674.8125 388.964844 C 1673.800781 389.058594 1672.71875 389.832031 1671.570312 391.28125 L 1666.992188 397.050781 L 1677.277344 405.230469 L 1672.957031 410.675781 M 1704.265625 375.429688 L 1682.082031 349.945312 L 1687.316406 345.375 L 1709.5 370.859375 L 1704.265625 375.429688 M 1724.042969 328.355469 L 1726.738281 343.246094 L 1734.992188 338.792969 L 1724.042969 328.355469 M 1717.285156 324.308594 L 1724.347656 320.5 L 1751.070312 344.484375 L 1744.652344 347.945312 L 1739.34375 342.914062 L 1727.820312 349.125 L 1729.15625 356.304688 L 1722.71875 359.777344 L 1717.285156 324.308594 M 1767.285156 339.1875 L 1762.257812 305.753906 L 1769.441406 304.671875 L 1786.449219 325.59375 L 1782.992188 302.625 L 1789.769531 301.605469 L 1794.800781 335.035156 L 1787.707031 336.105469 L 1770.605469 315.195312 L 1774.0625 338.164062 L 1767.285156 339.1875 M 1898.207031 377.089844 L 1922.898438 354.03125 L 1927.851562 359.351562 L 1920.238281 385.230469 L 1937.199219 369.390625 L 1941.875 374.40625 L 1917.183594 397.464844 L 1912.292969 392.210938 L 1919.84375 366.265625 L 1902.878906 382.109375 L 1898.207031 377.089844 M 1958.851562 410.65625 L 1944.148438 414.15625 L 1949.03125 422.167969 L 1958.851562 410.65625 M 1962.523438 403.683594 L 1966.699219 410.542969 L 1944.21875 438.550781 L 1940.421875 432.320312 L 1945.15625 426.742188 L 1938.339844 415.550781 L 1931.253906 417.273438 L 1927.445312 411.023438 L 1962.523438 403.683594 M 1954.4375 461.199219 L 1981.199219 437.523438 L 1984.140625 444.652344 L 1963.527344 460.941406 L 1989.664062 458.058594 L 1992.570312 465.101562 L 1956.972656 467.351562 L 1954.4375 461.199219 M 1970.28125 508.53125 L 1968.496094 501.808594 L 1980.65625 498.570312 L 1997.972656 481.25 L 2000.15625 489.480469 L 1987.949219 500.214844 L 2003.726562 502.921875 L 2005.765625 510.597656 L 1982.441406 505.292969 L 1970.28125 508.53125 "/>
<path style=" stroke:none;fill-rule:nonzero;fill:rgb(0%,0%,0%);fill-opacity:1;" d="M 1603.726562 654.652344 C 1600.066406 655.277344 1597.359375 656.582031 1595.601562 658.558594 C 1593.863281 660.53125 1593.242188 662.980469 1593.742188 665.90625 C 1594.246094 668.863281 1595.648438 670.992188 1597.949219 672.289062 C 1600.261719 673.585938 1603.25 673.921875 1606.910156 673.292969 C 1610.566406 672.667969 1613.265625 671.359375 1615.003906 669.371094 C 1616.757812 667.378906 1617.382812 664.902344 1616.875 661.949219 C 1616.375 659.019531 1614.980469 656.917969 1612.683594 655.632812 C 1610.386719 654.351562 1607.402344 654.023438 1603.726562 654.652344 M 1602.53125 647.660156 C 1607.910156 646.742188 1612.421875 647.472656 1616.070312 649.859375 C 1619.734375 652.261719 1621.992188 655.949219 1622.839844 660.925781 C 1623.691406 665.902344 1622.785156 670.132812 1620.125 673.617188 C 1617.464844 677.113281 1613.457031 679.320312 1608.09375 680.238281 C 1602.730469 681.15625 1598.21875 680.410156 1594.550781 677.996094 C 1590.886719 675.59375 1588.628906 671.90625 1587.777344 666.929688 C 1586.929688 661.953125 1587.832031 657.722656 1590.496094 654.238281 C 1593.15625 650.773438 1597.171875 648.578125 1602.53125 647.660156 M 1596.027344 701.472656 L 1628.257812 691.398438 L 1630.421875 698.34375 L 1612.363281 718.367188 L 1634.503906 711.445312 L 1636.546875 717.996094 L 1604.320312 728.070312 L 1602.183594 721.210938 L 1620.210938 701.101562 L 1598.070312 708.023438 L 1596.027344 701.472656 M 1614.398438 753.132812 L 1640.382812 729.472656 L 1643.570312 735.933594 L 1624.777344 751.683594 L 1648.292969 745.5 L 1651.570312 752.148438 L 1632.382812 767.09375 L 1656.292969 761.714844 L 1659.449219 768.113281 L 1624.910156 774.429688 L 1621.972656 768.484375 L 1642.835938 752.320312 L 1617.332031 759.078125 L 1614.398438 753.132812 M 1667.9375 791.78125 L 1653.582031 796.503906 L 1659.117188 804.078125 L 1667.9375 791.78125 M 1671.011719 784.523438 L 1675.75 791.003906 L 1655.699219 820.808594 L 1651.394531 814.921875 L 1655.640625 808.960938 L 1647.910156 798.386719 L 1640.996094 800.699219 L 1636.675781 794.789062 L 1671.011719 784.523438 M 1685.085938 824.542969 L 1690.976562 830.199219 C 1692.253906 831.425781 1693.441406 832.066406 1694.53125 832.121094 C 1695.636719 832.183594 1696.722656 831.660156 1697.789062 830.542969 C 1698.804688 829.484375 1699.28125 828.402344 1699.214844 827.300781 C 1699.160156 826.1875 1698.550781 825.074219 1697.394531 823.960938 L 1691.273438 818.082031 L 1685.085938 824.542969 M 1666.921875 833.460938 L 1690.289062 809.0625 L 1702.101562 820.40625 C 1704.757812 822.957031 1706.183594 825.417969 1706.371094 827.78125 C 1706.5625 830.148438 1705.535156 832.503906 1703.292969 834.84375 C 1701.867188 836.335938 1700.363281 837.273438 1698.78125 837.664062 C 1697.210938 838.066406 1695.667969 837.886719 1694.152344 837.128906 C 1694.851562 838.519531 1695.050781 839.816406 1694.75 841.011719 C 1694.460938 842.21875 1693.570312 843.671875 1692.070312 845.371094 L 1689.410156 848.347656 C 1689.386719 848.371094 1689.355469 848.402344 1689.3125 848.445312 C 1687.949219 849.9375 1687.417969 851.121094 1687.71875 852.003906 L 1687.003906 852.75 L 1681.511719 847.472656 C 1681.664062 846.960938 1681.929688 846.410156 1682.304688 845.816406 C 1682.703125 845.226562 1683.222656 844.570312 1683.867188 843.855469 L 1686.261719 841.222656 C 1687.65625 839.65625 1688.347656 838.359375 1688.335938 837.332031 C 1688.335938 836.316406 1687.667969 835.164062 1686.335938 833.882812 L 1681.023438 828.785156 L 1671.933594 838.277344 L 1666.921875 833.460938 M 1711.113281 862.921875 L 1715.867188 865.828125 C 1718.617188 867.511719 1721.042969 868.007812 1723.144531 867.324219 C 1725.269531 866.628906 1727.316406 864.664062 1729.292969 861.429688 C 1731.261719 858.203125 1732.132812 855.480469 1731.910156 853.265625 C 1731.6875 851.046875 1730.355469 849.195312 1727.917969 847.703125 L 1722.441406 844.351562 L 1711.113281 862.921875 M 1702.125 864.578125 L 1719.726562 835.726562 L 1731.011719 842.628906 C 1735.433594 845.332031 1737.996094 848.542969 1738.703125 852.257812 C 1739.421875 855.976562 1738.300781 860.265625 1735.335938 865.125 C 1733.730469 867.761719 1731.90625 869.839844 1729.871094 871.355469 C 1727.847656 872.878906 1725.699219 873.789062 1723.425781 874.082031 C 1721.722656 874.296875 1720.015625 874.15625 1718.308594 873.667969 C 1716.609375 873.167969 1714.441406 872.109375 1711.808594 870.5 L 1702.125 864.578125 M 1816.683594 896.253906 L 1813.027344 868.726562 L 1803.097656 870.046875 L 1802.304688 864.0625 L 1828.976562 860.511719 L 1829.773438 866.496094 L 1819.910156 867.808594 L 1823.566406 895.339844 L 1816.683594 896.253906 M 1848.683594 871.640625 C 1850.171875 875.046875 1852.085938 877.367188 1854.425781 878.59375 C 1856.757812 879.8125 1859.28125 879.824219 1861.996094 878.632812 C 1864.742188 877.429688 1866.464844 875.554688 1867.167969 873.007812 C 1867.867188 870.449219 1867.472656 867.464844 1865.984375 864.058594 C 1864.496094 860.652344 1862.578125 858.34375 1860.230469 857.132812 C 1857.875 855.910156 1855.328125 855.902344 1852.585938 857.101562 C 1849.871094 858.292969 1848.167969 860.160156 1847.476562 862.699219 C 1846.785156 865.242188 1847.1875 868.222656 1848.683594 871.640625 M 1842.195312 874.484375 C 1840.007812 869.480469 1839.628906 864.917969 1841.066406 860.800781 C 1842.507812 856.660156 1845.539062 853.578125 1850.160156 851.550781 C 1854.777344 849.527344 1859.09375 849.390625 1863.113281 851.136719 C 1867.140625 852.875 1870.246094 856.242188 1872.429688 861.230469 C 1874.609375 866.222656 1874.972656 870.789062 1873.515625 874.9375 C 1872.074219 879.078125 1869.042969 882.160156 1864.421875 884.183594 C 1859.804688 886.210938 1855.484375 886.347656 1851.46875 884.601562 C 1847.46875 882.847656 1844.375 879.476562 1842.195312 874.484375 M 1911.8125 848.238281 C 1911.878906 850.351562 1911.53125 852.214844 1910.761719 853.835938 C 1910.007812 855.445312 1908.785156 856.917969 1907.09375 858.253906 C 1903.386719 861.183594 1899.367188 862.273438 1895.039062 861.523438 C 1890.714844 860.75 1886.898438 858.269531 1883.59375 854.074219 C 1880.261719 849.847656 1878.746094 845.5625 1879.039062 841.214844 C 1879.332031 836.871094 1881.386719 833.191406 1885.203125 830.175781 C 1888.523438 827.550781 1891.863281 826.207031 1895.222656 826.148438 C 1898.570312 826.074219 1901.542969 827.273438 1904.132812 829.75 L 1898.574219 834.140625 C 1897.148438 833.027344 1895.632812 832.519531 1894.019531 832.625 C 1892.421875 832.71875 1890.785156 833.425781 1889.121094 834.742188 C 1886.898438 836.496094 1885.796875 838.691406 1885.8125 841.328125 C 1885.832031 843.945312 1886.972656 846.691406 1889.234375 849.5625 C 1891.507812 852.445312 1893.945312 854.179688 1896.550781 854.773438 C 1899.160156 855.363281 1901.613281 854.75 1903.917969 852.929688 C 1905.644531 851.5625 1906.6875 849.910156 1907.046875 847.972656 C 1907.40625 846.03125 1907.023438 844.0625 1905.898438 842.066406 L 1899.886719 846.816406 L 1896.308594 842.273438 L 1907.285156 833.601562 L 1918.601562 847.964844 L 1914.949219 850.847656 L 1911.8125 848.238281 M 1932.789062 833.652344 L 1907.1875 811.613281 L 1923.15625 793.007812 L 1927.605469 796.839844 L 1916.101562 810.238281 L 1921.558594 814.9375 L 1932.078125 802.683594 L 1936.457031 806.453125 L 1925.941406 818.707031 L 1932.527344 824.378906 L 1944.570312 810.351562 L 1949.296875 814.417969 L 1932.789062 833.652344 M 1963.855469 793.222656 L 1940.328125 778.519531 L 1935.027344 787.027344 L 1929.910156 783.832031 L 1944.15625 760.972656 L 1949.269531 764.167969 L 1944.003906 772.621094 L 1967.53125 787.320312 L 1963.855469 793.222656 M 1980.890625 763.4375 L 1949.980469 749.839844 L 1952.792969 743.433594 L 1964.3125 748.5 L 1969.917969 735.722656 L 1958.394531 730.65625 L 1961.207031 724.246094 L 1992.117188 737.84375 L 1989.304688 744.253906 L 1975.605469 738.226562 L 1970 751 L 1983.703125 757.027344 L 1980.890625 763.4375 M 1998.878906 718.546875 L 1966.433594 709.191406 L 1973.214844 685.613281 L 1978.851562 687.238281 L 1973.96875 704.222656 L 1980.886719 706.214844 L 1985.347656 690.6875 L 1990.898438 692.289062 L 1986.433594 707.816406 L 1994.78125 710.222656 L 1999.894531 692.445312 L 2005.886719 694.171875 L 1998.878906 718.546875 M 1992.242188 666.011719 L 1993.53125 657.941406 C 1993.8125 656.191406 1993.664062 654.847656 1993.085938 653.917969 C 1992.507812 652.976562 1991.457031 652.382812 1989.933594 652.136719 C 1988.484375 651.90625 1987.328125 652.128906 1986.460938 652.8125 C 1985.578125 653.492188 1985.011719 654.625 1984.757812 656.210938 L 1983.417969 664.597656 L 1992.242188 666.011719 M 2009.910156 675.882812 L 1976.570312 670.542969 L 1979.15625 654.363281 C 1979.738281 650.71875 1980.945312 648.148438 1982.78125 646.644531 C 1984.613281 645.140625 1987.128906 644.644531 1990.328125 645.15625 C 1992.367188 645.484375 1993.996094 646.1875 1995.214844 647.265625 C 1996.4375 648.328125 1997.171875 649.699219 1997.414062 651.382812 C 1998.15625 650.015625 1999.105469 649.113281 2000.257812 648.675781 C 2001.414062 648.226562 2003.113281 648.136719 2005.363281 648.402344 L 2009.320312 648.898438 C 2009.351562 648.902344 2009.398438 648.910156 2009.457031 648.917969 C 2011.457031 649.191406 2012.734375 648.957031 2013.285156 648.207031 L 2014.304688 648.371094 L 2013.101562 655.894531 C 2012.597656 656.0625 2011.992188 656.160156 2011.292969 656.183594 C 2010.578125 656.195312 2009.742188 656.140625 2008.789062 656.015625 L 2005.265625 655.546875 C 2003.1875 655.289062 2001.726562 655.460938 2000.890625 656.054688 C 2000.054688 656.632812 1999.492188 657.835938 1999.199219 659.664062 L 1998.039062 666.9375 L 2011.007812 669.015625 L 2009.910156 675.882812 "/>
<path style="fill-rule:nonzero;fill:rgb(85.882353%,8.627451%,10.980392%);fill-opacity:1;stroke-width:5.871599;stroke-linecap:butt;stroke-linejoin:miter;stroke:rgb(0%,0%,0%);stroke-opacity:1;stroke-miterlimit:4;" d="M 4465.185547 919.179688 C 4457.226562 919.443359 4449.101562 920.429688 4445.019531 922.480469 C 4444.6875 922.65625 4444.189453 923.017578 4443.916016 923.212891 C 4443.662109 923.417969 4443.378906 923.730469 4443.183594 923.945312 C 4443.144531 924.003906 4442.861328 924.257812 4442.822266 924.316406 C 4442.705078 924.492188 4442.529297 924.863281 4442.451172 925.048828 C 4442.431641 925.117188 4442.470703 925.351562 4442.451172 925.419922 C 4442.441406 925.488281 4442.460938 925.712891 4442.451172 925.78125 C 4442.451172 925.859375 4442.451172 926.083984 4442.451172 926.152344 C 4442.460938 926.298828 4442.421875 926.738281 4442.451172 926.884766 C 4442.822266 928.251953 4443.691406 930.15625 4445.751953 932.03125 C 4435.400391 932.177734 4425.527344 937.197266 4419.716797 943.779297 C 4418.994141 944.619141 4418.105469 945.830078 4417.519531 946.71875 C 4416.289062 948.613281 4415.117188 950.947266 4414.580078 952.958984 C 4413.857422 955.927734 4414.208984 959.277344 4415.3125 962.138672 C 4415.791016 963.28125 4416.337891 964.736328 4417.148438 965.810547 C 4434.697266 965.810547 4457.490234 959.316406 4457.490234 997.392578 C 4457.490234 1022.958984 4427.050781 1074.814453 4407.246094 1079.658203 C 4406.103516 1079.902344 4404.648438 1080.107422 4403.583984 1080.019531 C 4403.046875 1079.960938 4402.246094 1079.804688 4401.748047 1079.658203 C 4400.546875 1079.248047 4399.121094 1078.417969 4398.076172 1077.451172 C 4393.535156 1072.988281 4390.380859 1062.8125 4390.380859 1044.765625 C 4390.380859 1020.283203 4420.859375 955.166016 4356.640625 955.166016 C 4293.720703 955.166016 4239.658203 1028.818359 4239.658203 1147.958984 C 4239.658203 1192.890625 4258.642578 1268.398438 4245.527344 1392.167969 C 4245.556641 1392.177734 4245.859375 1392.167969 4245.888672 1392.167969 C 4245.927734 1392.158203 4246.210938 1392.1875 4246.259766 1392.167969 C 4246.347656 1392.119141 4246.523438 1391.865234 4246.621094 1391.796875 C 4249.521484 1389.873047 4255.888672 1381.787109 4257.255859 1380.419922 C 4261.796875 1375.869141 4263.525391 1370.380859 4265.322266 1363.154297 C 4266.523438 1358.369141 4267.988281 1345.878906 4270.830078 1341.494141 C 4270.869141 1341.435547 4271.152344 1341.171875 4271.191406 1341.123047 C 4271.269531 1341.025391 4271.474609 1340.839844 4271.5625 1340.751953 C 4271.640625 1340.683594 4271.835938 1340.449219 4271.923828 1340.390625 C 4271.972656 1340.361328 4272.246094 1340.039062 4272.294922 1340.019531 C 4272.34375 1340.009766 4272.617188 1340.029297 4272.65625 1340.019531 C 4272.705078 1340.019531 4272.978516 1340.019531 4273.027344 1340.019531 C 4273.076172 1340.029297 4273.339844 1340.009766 4273.398438 1340.019531 C 4273.447266 1340.039062 4273.710938 1340.361328 4273.759766 1340.390625 C 4273.808594 1340.419922 4274.072266 1340.361328 4274.130859 1340.390625 C 4274.228516 1340.458984 4274.384766 1340.664062 4274.492188 1340.751953 C 4274.550781 1340.810547 4274.804688 1341.064453 4274.863281 1341.123047 C 4274.921875 1341.181641 4275.166016 1341.425781 4275.224609 1341.494141 C 4276.494141 1343.066406 4277.988281 1346.113281 4279.628906 1350.673828 C 4281.132812 1331.962891 4287.03125 1318.085938 4292.099609 1312.841797 C 4292.636719 1312.304688 4293.408203 1311.71875 4293.925781 1311.376953 C 4293.994141 1311.337891 4294.228516 1311.044922 4294.296875 1311.005859 C 4294.355469 1310.976562 4294.599609 1311.035156 4294.667969 1311.005859 C 4294.726562 1310.986328 4294.970703 1310.664062 4295.029297 1310.644531 C 4295.087891 1310.625 4295.341797 1310.654297 4295.400391 1310.644531 C 4295.458984 1310.634766 4295.703125 1310.654297 4295.761719 1310.644531 C 4295.820312 1310.634766 4296.074219 1310.644531 4296.132812 1310.644531 C 4296.191406 1310.644531 4296.445312 1310.634766 4296.494141 1310.644531 C 4296.552734 1310.654297 4296.806641 1310.634766 4296.865234 1310.644531 C 4297.021484 1310.703125 4297.451172 1310.917969 4297.597656 1311.005859 C 4297.646484 1311.044922 4297.919922 1311.337891 4297.96875 1311.376953 C 4298.007812 1311.425781 4298.291016 1311.699219 4298.330078 1311.748047 C 4298.369141 1311.796875 4298.662109 1312.050781 4298.701172 1312.109375 C 4298.847656 1312.363281 4298.935547 1312.900391 4299.0625 1313.212891 C 4299.160156 1313.466797 4299.345703 1314.033203 4299.433594 1314.316406 C 4299.511719 1314.609375 4299.736328 1315.087891 4299.794922 1315.419922 C 4301.5625 1309.775391 4302.988281 1305.126953 4304.560547 1303.662109 C 4304.619141 1303.623047 4304.882812 1303.701172 4304.931641 1303.662109 C 4304.980469 1303.642578 4305.244141 1303.320312 4305.302734 1303.300781 C 4305.351562 1303.28125 4305.605469 1303.300781 4305.664062 1303.300781 C 4305.722656 1303.300781 4305.976562 1303.291016 4306.035156 1303.300781 C 4306.210938 1303.339844 4306.5625 1303.554688 4306.767578 1303.662109 C 4306.835938 1303.710938 4307.060547 1303.984375 4307.128906 1304.033203 C 4308.222656 1304.951172 4309.824219 1306.962891 4311.533203 1309.912109 C 4313.222656 1301.728516 4314.238281 1293.90625 4316.298828 1290.078125 C 4316.484375 1289.765625 4316.835938 1289.228516 4317.03125 1288.974609 C 4317.167969 1288.818359 4317.626953 1288.369141 4317.763672 1288.242188 C 4317.988281 1288.076172 4318.261719 1287.978516 4318.496094 1287.871094 C 4318.583984 1287.841797 4318.779297 1287.529297 4318.867188 1287.509766 C 4318.90625 1287.5 4319.189453 1287.519531 4319.238281 1287.509766 C 4319.277344 1287.5 4319.550781 1287.509766 4319.599609 1287.509766 C 4319.648438 1287.509766 4319.921875 1287.5 4319.970703 1287.509766 C 4320.019531 1287.509766 4320.283203 1287.5 4320.332031 1287.509766 C 4321.425781 1287.744141 4322.880859 1288.710938 4324.365234 1290.078125 C 4324.365234 1283.066406 4325.693359 1276.113281 4328.037109 1273.183594 C 4328.359375 1272.822266 4328.769531 1272.294922 4329.130859 1272.080078 C 4329.179688 1272.060547 4329.462891 1272.099609 4329.501953 1272.080078 C 4329.589844 1272.050781 4329.785156 1271.738281 4329.873047 1271.71875 C 4329.912109 1271.708984 4330.195312 1271.71875 4330.234375 1271.71875 C 4330.283203 1271.708984 4330.556641 1271.71875 4330.605469 1271.71875 C 4330.644531 1271.71875 4330.917969 1271.708984 4330.966797 1271.71875 C 4331.015625 1271.728516 4331.289062 1272.070312 4331.337891 1272.080078 C 4331.386719 1272.099609 4331.650391 1272.070312 4331.699219 1272.080078 C 4331.748047 1272.109375 4332.021484 1272.060547 4332.070312 1272.080078 C 4332.119141 1272.109375 4332.382812 1272.421875 4332.431641 1272.451172 C 4333.779297 1273.369141 4335.605469 1275.390625 4337.207031 1278.330078 C 4340.410156 1268.496094 4344.472656 1255.488281 4348.574219 1252.255859 C 4348.623047 1252.216797 4348.886719 1252.285156 4348.935547 1252.255859 C 4348.984375 1252.226562 4349.257812 1251.914062 4349.306641 1251.884766 C 4349.355469 1251.865234 4349.619141 1251.904297 4349.667969 1251.884766 C 4349.716797 1251.865234 4349.990234 1251.894531 4350.039062 1251.884766 C 4350.136719 1251.865234 4350.3125 1251.523438 4350.400391 1251.523438 C 4350.449219 1251.523438 4350.722656 1251.513672 4350.771484 1251.523438 C 4350.820312 1251.523438 4351.09375 1251.875 4351.142578 1251.884766 C 4351.181641 1251.904297 4351.455078 1251.865234 4351.503906 1251.884766 C 4351.601562 1251.933594 4351.777344 1252.1875 4351.875 1252.255859 C 4351.962891 1252.324219 4352.148438 1252.529297 4352.236328 1252.617188 C 4352.421875 1252.8125 4352.792969 1253.105469 4352.96875 1253.359375 C 4353.017578 1253.417969 4353.291016 1253.652344 4353.339844 1253.720703 C 4353.427734 1253.867188 4353.613281 1254.287109 4353.701172 1254.453125 C 4353.886719 1254.804688 4354.267578 1255.507812 4354.443359 1255.927734 C 4356.455078 1246.748047 4358.59375 1233.496094 4362.871094 1229.853516 C 4362.919922 1229.814453 4363.193359 1229.882812 4363.242188 1229.853516 C 4363.291016 1229.814453 4363.554688 1229.511719 4363.603516 1229.482422 C 4363.759766 1229.404297 4364.179688 1229.169922 4364.335938 1229.121094 C 4364.394531 1229.101562 4364.648438 1229.130859 4364.707031 1229.121094 C 4364.765625 1229.111328 4365.019531 1229.121094 4365.078125 1229.121094 C 4365.126953 1229.121094 4365.380859 1229.111328 4365.439453 1229.121094 C 4365.498047 1229.121094 4365.751953 1229.111328 4365.810547 1229.121094 C 4365.869141 1229.130859 4366.113281 1229.101562 4366.171875 1229.121094 C 4366.357422 1229.169922 4366.71875 1229.404297 4366.904297 1229.482422 C 4366.972656 1229.511719 4367.207031 1229.453125 4367.275391 1229.482422 C 4367.34375 1229.521484 4367.578125 1229.814453 4367.636719 1229.853516 C 4367.910156 1230.019531 4368.466797 1230.361328 4368.740234 1230.585938 C 4368.808594 1230.644531 4369.033203 1230.888672 4369.111328 1230.957031 C 4371.298828 1226.572266 4373.115234 1220.986328 4374.970703 1218.105469 C 4375.371094 1217.519531 4376.025391 1216.923828 4376.445312 1216.630859 C 4376.503906 1216.601562 4376.748047 1216.289062 4376.806641 1216.259766 C 4376.875 1216.240234 4377.109375 1216.279297 4377.177734 1216.259766 C 4377.207031 1216.259766 4377.509766 1216.259766 4377.539062 1216.259766 C 4377.578125 1216.269531 4377.880859 1216.259766 4377.910156 1216.259766 C 4377.978516 1216.289062 4378.203125 1216.591797 4378.271484 1216.630859 C 4378.417969 1216.71875 4378.867188 1216.875 4379.013672 1217.001953 C 4379.658203 1217.65625 4380.449219 1218.789062 4381.210938 1220.302734 C 4384.082031 1213.349609 4385.214844 1202.060547 4388.173828 1197.900391 C 4388.291016 1197.753906 4388.417969 1197.294922 4388.544922 1197.167969 C 4388.583984 1197.128906 4388.867188 1197.207031 4388.90625 1197.167969 C 4388.955078 1197.138672 4389.228516 1196.835938 4389.277344 1196.796875 C 4389.365234 1196.748047 4389.550781 1196.474609 4389.648438 1196.435547 C 4389.697266 1196.416016 4389.960938 1196.445312 4390.009766 1196.435547 C 4390.058594 1196.425781 4390.322266 1196.445312 4390.380859 1196.435547 C 4390.429688 1196.425781 4390.693359 1196.435547 4390.742188 1196.435547 C 4390.800781 1196.435547 4391.054688 1196.425781 4391.113281 1196.435547 C 4391.171875 1196.445312 4391.416016 1196.416016 4391.474609 1196.435547 C 4391.533203 1196.455078 4391.787109 1196.777344 4391.845703 1196.796875 C 4391.904297 1196.826172 4392.148438 1196.767578 4392.207031 1196.796875 C 4392.275391 1196.835938 4392.509766 1197.128906 4392.578125 1197.167969 C 4393.798828 1197.929688 4395.673828 1198.994141 4397.34375 1201.210938 C 4397.724609 1199.130859 4398.378906 1197.285156 4399.179688 1195.703125 C 4399.384766 1195.3125 4399.6875 1194.589844 4399.912109 1194.228516 C 4405.429688 1185.820312 4416.835938 1185.15625 4421.181641 1186.523438 C 4421.357422 1186.582031 4421.767578 1186.816406 4421.914062 1186.884766 C 4421.982422 1186.923828 4422.226562 1186.845703 4422.285156 1186.884766 C 4428.769531 1190.917969 4437.753906 1195.869141 4426.318359 1252.988281 C 4411.826172 1325.361328 4437.958984 1335.019531 4443.916016 1375.644531 C 4444.980469 1375.849609 4446.201172 1376.201172 4447.216797 1376.376953 L 4439.521484 1416.40625 C 4424.052734 1415.400391 4411.542969 1415.253906 4403.945312 1417.509766 C 4400.244141 1418.603516 4397.138672 1420.449219 4394.775391 1422.646484 C 4394.609375 1422.8125 4394.208984 1423.212891 4394.042969 1423.378906 C 4393.964844 1423.466797 4393.759766 1423.662109 4393.681641 1423.75 C 4393.603516 1423.837891 4393.388672 1424.023438 4393.310547 1424.121094 C 4393.007812 1424.482422 4392.480469 1425.195312 4392.207031 1425.585938 C 4390.869141 1427.666016 4389.902344 1430.322266 4389.648438 1432.558594 C 4389.619141 1432.880859 4389.648438 1433.349609 4389.648438 1433.662109 C 4389.550781 1440.332031 4391.728516 1446.796875 4395.507812 1451.289062 C 4400.712891 1457.470703 4406.904297 1458.095703 4412.382812 1461.210938 C 4411.289062 1455.566406 4408.261719 1450.585938 4405.78125 1445.78125 C 4403.613281 1441.601562 4401.826172 1437.314453 4401.376953 1434.765625 C 4401.357422 1434.589844 4401.386719 1434.189453 4401.376953 1434.033203 C 4401.376953 1433.955078 4401.376953 1433.730469 4401.376953 1433.662109 C 4401.386719 1433.388672 4401.357422 1433.134766 4401.376953 1432.929688 C 4401.386719 1432.880859 4401.367188 1432.607422 4401.376953 1432.558594 C 4401.396484 1432.519531 4401.728516 1432.236328 4401.748047 1432.197266 C 4401.767578 1432.158203 4401.71875 1431.865234 4401.748047 1431.826172 C 4401.806641 1431.748047 4402.03125 1431.542969 4402.109375 1431.464844 C 4402.158203 1431.416016 4402.421875 1431.142578 4402.480469 1431.09375 C 4402.539062 1431.044922 4402.773438 1430.78125 4402.841797 1430.722656 C 4403.691406 1430.146484 4405.185547 1429.501953 4407.246094 1428.886719 C 4412.34375 1427.382812 4424.091797 1427.324219 4438.417969 1428.154297 C 4436.425781 1438.544922 4438.095703 1448.330078 4440.986328 1457.900391 C 4448.369141 1447.861328 4450.097656 1437.832031 4450.15625 1427.792969 C 4452.050781 1427.617188 4454.511719 1427.373047 4456.015625 1427.421875 C 4456.181641 1427.431641 4456.621094 1427.392578 4456.757812 1427.421875 C 4457.587891 1427.617188 4458.369141 1427.900391 4458.955078 1428.154297 C 4459.589844 1428.476562 4460.3125 1429.072266 4460.791016 1429.628906 C 4460.849609 1429.707031 4461.09375 1429.902344 4461.152344 1429.990234 C 4463.164062 1432.861328 4463.945312 1439.462891 4463.720703 1447.617188 C 4465.341797 1445.107422 4473.486328 1432.832031 4471.787109 1425.585938 C 4471.767578 1425.517578 4471.445312 1425.283203 4471.425781 1425.214844 C 4471.376953 1425.087891 4471.474609 1424.609375 4471.425781 1424.482422 C 4471.396484 1424.423828 4471.083984 1424.179688 4471.054688 1424.121094 C 4471.025391 1424.052734 4471.09375 1423.808594 4471.054688 1423.75 C 4471.025391 1423.691406 4470.722656 1423.4375 4470.693359 1423.378906 C 4468.183594 1419.794922 4464.042969 1416.806641 4459.316406 1415.673828 C 4459.248047 1415.654297 4459.023438 1415.683594 4458.955078 1415.673828 C 4458.876953 1415.654297 4458.662109 1415.683594 4458.583984 1415.673828 C 4456.494141 1415.46875 4453.867188 1415.966797 4451.621094 1416.035156 L 4458.955078 1377.841797 C 4490.039062 1379.521484 4493.994141 1361.074219 4505.15625 1340.390625 C 4508.925781 1350.46875 4512.519531 1360.517578 4518.515625 1369.775391 C 4536.923828 1364.599609 4549.306641 1377.275391 4546.230469 1394.375 L 4538.896484 1416.035156 C 4536.328125 1415.947266 4524.287109 1415.126953 4522.03125 1415.673828 C 4517.314453 1416.806641 4513.173828 1419.794922 4510.664062 1423.378906 C 4510.546875 1423.554688 4510.390625 1423.935547 4510.292969 1424.121094 C 4510.175781 1424.365234 4510.019531 1424.951172 4509.931641 1425.214844 C 4509.912109 1425.283203 4509.941406 1425.517578 4509.931641 1425.585938 C 4508.232422 1432.832031 4516.005859 1445.107422 4517.626953 1447.617188 C 4517.412109 1439.462891 4518.183594 1432.861328 4520.195312 1429.990234 C 4520.263672 1429.902344 4520.498047 1429.707031 4520.566406 1429.628906 C 4520.693359 1429.462891 4521.152344 1429.023438 4521.298828 1428.886719 C 4521.367188 1428.828125 4521.582031 1428.583984 4521.660156 1428.525391 C 4522.402344 1428.046875 4523.349609 1427.724609 4524.599609 1427.421875 C 4524.638672 1427.412109 4524.902344 1427.431641 4524.960938 1427.421875 C 4527.148438 1427.207031 4535.976562 1427.597656 4538.164062 1427.792969 C 4538.222656 1437.753906 4533.603516 1447.568359 4540.732422 1457.539062 C 4543.75 1448.105469 4551.865234 1438.388672 4549.902344 1428.154297 C 4562.431641 1427.431641 4564.824219 1438.896484 4563.466797 1445.048828 C 4563.28125 1445.791016 4563.017578 1446.708984 4562.734375 1447.255859 C 4560.175781 1452.207031 4557.138672 1457.158203 4556.132812 1463.046875 C 4561.679688 1459.804688 4567.714844 1459.042969 4573.007812 1452.763672 C 4576.787109 1448.271484 4578.964844 1441.806641 4578.867188 1435.136719 C 4578.867188 1434.609375 4578.583984 1433.837891 4578.505859 1433.300781 C 4578.154297 1431.142578 4577.265625 1428.642578 4575.9375 1426.689453 C 4575.664062 1426.298828 4575.146484 1425.576172 4574.833984 1425.214844 C 4574.794922 1425.175781 4574.511719 1424.902344 4574.472656 1424.853516 C 4571.40625 1421.845703 4558.984375 1415.068359 4551.738281 1416.035156 L 4556.503906 1398.408203 C 4567.558594 1402.265625 4579.384766 1404.443359 4595.742188 1396.943359 C 4609.023438 1402.011719 4622.851562 1402.558594 4637.177734 1392.900391 C 4664.384766 1406.494141 4676.357422 1398.320312 4689.257812 1391.435547 C 4639.658203 1332.246094 4595.771484 1259.228516 4555.039062 1181.376953 C 4564.482422 1181.376953 4576.40625 1183.212891 4581.806641 1183.212891 C 4589.794922 1183.212891 4602.685547 1191.503906 4607.470703 1192.763672 C 4607.558594 1192.783203 4607.763672 1192.744141 4607.841797 1192.763672 C 4607.910156 1192.773438 4608.144531 1192.753906 4608.212891 1192.763672 C 4608.271484 1192.763672 4608.525391 1192.763672 4608.574219 1192.763672 C 4609.306641 1192.578125 4610.205078 1192.705078 4610.771484 1192.763672 C 4610.957031 1192.792969 4611.347656 1192.705078 4611.513672 1192.763672 C 4611.669922 1192.832031 4612.099609 1193.037109 4612.246094 1193.125 C 4612.314453 1193.183594 4612.548828 1193.4375 4612.607422 1193.496094 C 4612.919922 1193.808594 4613.466797 1194.521484 4613.710938 1194.960938 C 4615.673828 1198.984375 4615.322266 1207.558594 4617.373047 1216.630859 C 4619.335938 1215.117188 4621.103516 1214.121094 4622.509766 1213.691406 C 4622.646484 1213.652344 4623.105469 1213.720703 4623.242188 1213.691406 C 4623.310547 1213.681641 4623.544922 1213.701172 4623.613281 1213.691406 C 4623.798828 1213.671875 4624.160156 1213.330078 4624.345703 1213.330078 C 4624.521484 1213.330078 4624.912109 1213.671875 4625.078125 1213.691406 C 4625.136719 1213.701172 4625.390625 1213.681641 4625.449219 1213.691406 C 4625.498047 1213.710938 4625.761719 1213.671875 4625.810547 1213.691406 C 4625.917969 1213.730469 4626.083984 1214.013672 4626.181641 1214.0625 C 4626.230469 1214.091797 4626.494141 1214.033203 4626.542969 1214.0625 C 4630.498047 1216.552734 4631.699219 1225.625 4635.341797 1233.154297 C 4635.517578 1232.802734 4635.898438 1232.333984 4636.083984 1232.050781 C 4636.152344 1231.953125 4636.376953 1231.777344 4636.445312 1231.689453 C 4636.523438 1231.601562 4636.738281 1231.396484 4636.816406 1231.318359 C 4636.884766 1231.25 4637.099609 1231.005859 4637.177734 1230.957031 C 4637.216797 1230.9375 4637.509766 1230.605469 4637.548828 1230.585938 C 4637.587891 1230.576172 4637.871094 1230.595703 4637.910156 1230.585938 C 4637.949219 1230.585938 4638.242188 1230.585938 4638.28125 1230.585938 C 4638.320312 1230.585938 4638.603516 1230.576172 4638.642578 1230.585938 C 4638.691406 1230.595703 4638.974609 1230.576172 4639.013672 1230.585938 C 4639.052734 1230.605469 4639.335938 1230.9375 4639.384766 1230.957031 C 4643.232422 1232.998047 4647.636719 1244.414062 4648.916016 1252.617188 C 4649.052734 1252.353516 4649.472656 1252.128906 4649.648438 1251.884766 C 4650.029297 1251.416016 4650.605469 1250.791016 4651.113281 1250.419922 C 4651.464844 1250.175781 4652.1875 1249.873047 4652.578125 1249.677734 C 4653.076172 1249.462891 4653.876953 1249.082031 4654.414062 1248.945312 C 4655.390625 1248.75 4656.738281 1248.818359 4657.714844 1248.945312 C 4659.228516 1249.208984 4660.996094 1249.931641 4662.119141 1251.152344 C 4663.339844 1252.636719 4664.316406 1255.107422 4664.316406 1258.125 C 4666.103516 1255.830078 4667.695312 1254.267578 4669.082031 1253.720703 C 4669.472656 1253.59375 4670.195312 1253.359375 4670.546875 1253.359375 C 4670.722656 1253.369141 4671.123047 1253.681641 4671.289062 1253.720703 C 4672.246094 1254.023438 4673.203125 1254.84375 4673.847656 1255.927734 C 4675.292969 1258.583984 4676.103516 1262.998047 4675.683594 1267.304688 C 4675.800781 1267.275391 4675.9375 1267.34375 4676.054688 1267.304688 C 4676.728516 1267.158203 4677.685547 1266.933594 4678.251953 1266.943359 C 4678.525391 1266.953125 4679.101562 1267.255859 4679.355469 1267.304688 C 4679.433594 1267.333984 4679.638672 1267.285156 4679.716797 1267.304688 C 4679.873047 1267.363281 4680.3125 1267.607422 4680.449219 1267.675781 C 4680.664062 1267.792969 4680.996094 1267.890625 4681.181641 1268.046875 C 4681.25 1268.095703 4681.494141 1268.359375 4681.552734 1268.408203 C 4681.611328 1268.466797 4681.865234 1268.720703 4681.923828 1268.779297 C 4682.021484 1268.90625 4682.1875 1269.365234 4682.285156 1269.511719 C 4682.333984 1269.589844 4682.607422 1269.804688 4682.65625 1269.882812 C 4682.744141 1270.039062 4682.939453 1270.449219 4683.017578 1270.615234 C 4683.134766 1270.878906 4683.28125 1271.435547 4683.388672 1271.71875 C 4684.248047 1274.21875 4684.794922 1277.519531 4685.224609 1280.898438 C 4685.263672 1280.849609 4685.546875 1280.576172 4685.585938 1280.527344 C 4685.625 1280.488281 4685.908203 1280.195312 4685.957031 1280.166016 C 4685.996094 1280.136719 4686.279297 1280.185547 4686.318359 1280.166016 C 4686.396484 1280.126953 4686.611328 1279.814453 4686.689453 1279.794922 C 4686.728516 1279.794922 4687.011719 1279.794922 4687.050781 1279.794922 C 4687.089844 1279.794922 4687.382812 1279.785156 4687.421875 1279.794922 C 4687.460938 1279.804688 4687.753906 1280.146484 4687.783203 1280.166016 C 4687.861328 1280.214844 4688.076172 1280.46875 4688.154297 1280.527344 C 4688.447266 1280.791016 4688.974609 1281.230469 4689.257812 1281.630859 C 4691.699219 1285.449219 4693.837891 1294.033203 4696.220703 1296.318359 C 4696.289062 1296.376953 4696.523438 1296.640625 4696.591797 1296.689453 C 4696.621094 1296.708984 4696.923828 1296.669922 4696.953125 1296.689453 C 4697.021484 1296.708984 4697.255859 1297.050781 4697.324219 1297.050781 C 4697.353516 1297.060547 4697.65625 1297.060547 4697.685547 1297.050781 C 4697.724609 1297.050781 4697.65625 1296.699219 4697.685547 1296.689453 C 4697.724609 1296.679688 4698.017578 1296.699219 4698.056641 1296.689453 C 4698.095703 1296.669922 4698.388672 1296.71875 4698.417969 1296.689453 C 4698.496094 1296.630859 4698.710938 1296.396484 4698.789062 1296.318359 C 4700.576172 1294.53125 4703.798828 1291.894531 4706.494141 1291.181641 C 4706.552734 1291.162109 4706.787109 1291.191406 4706.855469 1291.181641 C 4706.982422 1291.162109 4707.460938 1291.191406 4707.587891 1291.181641 C 4707.646484 1291.171875 4707.900391 1291.181641 4707.958984 1291.181641 C 4708.017578 1291.181641 4708.271484 1291.171875 4708.320312 1291.181641 C 4708.378906 1291.191406 4708.632812 1291.162109 4708.691406 1291.181641 C 4708.789062 1291.210938 4708.964844 1291.503906 4709.052734 1291.542969 C 4709.101562 1291.572266 4709.384766 1291.513672 4709.423828 1291.542969 C 4709.511719 1291.611328 4709.716797 1291.835938 4709.794922 1291.914062 C 4709.892578 1292.050781 4710.068359 1292.480469 4710.15625 1292.646484 C 4714.257812 1300.859375 4718.466797 1313.828125 4721.162109 1324.599609 C 4726.074219 1315.966797 4729.248047 1308.964844 4732.158203 1306.601562 C 4732.333984 1306.484375 4732.724609 1306.328125 4732.890625 1306.240234 C 4732.978516 1306.201172 4733.173828 1305.898438 4733.261719 1305.869141 C 4733.300781 1305.859375 4733.583984 1305.878906 4733.623047 1305.869141 C 4733.671875 1305.869141 4733.955078 1305.869141 4733.994141 1305.869141 C 4734.033203 1305.869141 4734.316406 1305.869141 4734.365234 1305.869141 C 4734.404297 1305.878906 4734.6875 1305.859375 4734.726562 1305.869141 C 4734.775391 1305.878906 4735.048828 1306.220703 4735.097656 1306.240234 C 4735.136719 1306.259766 4735.419922 1306.210938 4735.458984 1306.240234 C 4735.507812 1306.259766 4735.78125 1306.572266 4735.830078 1306.601562 C 4737.226562 1307.646484 4738.759766 1309.912109 4740.595703 1313.583984 C 4742.675781 1317.753906 4750.039062 1336.513672 4757.832031 1342.587891 C 4757.910156 1342.646484 4758.125 1342.900391 4758.193359 1342.958984 C 4758.349609 1343.066406 4758.779297 1343.232422 4758.935547 1343.330078 C 4759.082031 1343.417969 4759.511719 1343.613281 4759.667969 1343.691406 C 4759.746094 1343.730469 4759.951172 1344.023438 4760.029297 1344.0625 C 4760.185547 1344.121094 4760.605469 1344.013672 4760.761719 1344.0625 C 4760.917969 1344.101562 4761.337891 1344.394531 4761.494141 1344.423828 C 4761.650391 1344.453125 4762.080078 1344.423828 4762.226562 1344.423828 C 4762.304688 1344.433594 4762.519531 1344.433594 4762.597656 1344.423828 C 4762.753906 1344.414062 4763.173828 1344.453125 4763.330078 1344.423828 C 4763.408203 1344.414062 4763.623047 1344.082031 4763.701172 1344.0625 C 4766.875 1343.212891 4770.048828 1342.705078 4773.232422 1341.855469 C 4738.613281 1251.943359 4730.869141 1245.742188 4740.595703 1147.226562 C 4745.820312 1094.248047 4702.050781 953.330078 4631.308594 953.330078 C 4611.035156 953.330078 4569.755859 951.699219 4584.375 1040.361328 C 4591.914062 1086.09375 4557.646484 1102.197266 4535.966797 1056.523438 C 4522.822266 1028.837891 4559.521484 998.710938 4520.927734 962.871094 L 4544.765625 952.597656 C 4527.011719 932.96875 4511.845703 919.013672 4481.689453 919.179688 C 4477.089844 919.199219 4471.162109 918.974609 4465.185547 919.179688 Z M 4505.15625 1340.390625 C 4500.546875 1298.046875 4492.001953 1248.105469 4449.550781 1238.671875 " transform="matrix(0.4,0,0,0.4,0,0)"/>
<path style="fill-rule:evenodd;fill:rgb(0%,0%,0%);fill-opacity:1;stroke-width:0.5;stroke-linecap:round;stroke-linejoin:miter;stroke:rgb(0%,0%,0%);stroke-opacity:1;stroke-miterlimit:4;" d="M 381.985947 75.587506 C 381.986779 75.767007 381.891079 75.933211 381.735462 76.022961 C 381.579845 76.113542 381.388444 76.113542 381.232827 76.022961 C 381.077209 75.933211 380.981509 75.767007 380.982341 75.587506 C 380.981509 75.408006 381.077209 75.241802 381.232827 75.151221 C 381.388444 75.061471 381.579845 75.061471 381.735462 75.151221 C 381.891079 75.241802 381.986779 75.408006 381.985947 75.587506 Z M 381.985947 75.587506 " transform="matrix(4.694012,0,0,4.700548,0.297131,24.970736)"/>
<path style="fill:none;stroke-width:3.910485;stroke-linecap:butt;stroke-linejoin:miter;stroke:rgb(0%,0%,0%);stroke-opacity:1;stroke-miterlimit:4;" d="M 4477.246094 1001.035156 L 4485.771484 1024.941406 L 4499.414062 1001.035156 " transform="matrix(0.4,0,0,0.4,0,0)"/>
<path style="fill:none;stroke-width:3.910485;stroke-linecap:butt;stroke-linejoin:miter;stroke:rgb(0%,0%,0%);stroke-opacity:1;stroke-miterlimit:4;" d="M 4456.123047 1039.492188 L 4464.648438 1063.398438 L 4478.291016 1039.492188 " transform="matrix(0.4,0,0,0.4,0,0)"/>
<path style="fill:none;stroke-width:3.910485;stroke-linecap:butt;stroke-linejoin:miter;stroke:rgb(0%,0%,0%);stroke-opacity:1;stroke-miterlimit:4;" d="M 4495.488281 1034.6875 L 4504.013672 1058.59375 L 4517.65625 1034.6875 " transform="matrix(0.4,0,0,0.4,0,0)"/>
<path style="fill:none;stroke-width:3.910485;stroke-linecap:butt;stroke-linejoin:miter;stroke:rgb(0%,0%,0%);stroke-opacity:1;stroke-miterlimit:4;" d="M 4483.007812 1070.253906 L 4491.533203 1094.169922 L 4505.175781 1070.253906 " transform="matrix(0.4,0,0,0.4,0,0)"/>
<path style="fill:none;stroke-width:3.910485;stroke-linecap:butt;stroke-linejoin:miter;stroke:rgb(0%,0%,0%);stroke-opacity:1;stroke-miterlimit:4;" d="M 4435.957031 1077.949219 L 4444.492188 1101.855469 L 4458.134766 1077.949219 " transform="matrix(0.4,0,0,0.4,0,0)"/>
<path style="fill:none;stroke-width:3.910485;stroke-linecap:butt;stroke-linejoin:miter;stroke:rgb(0%,0%,0%);stroke-opacity:1;stroke-miterlimit:4;" d="M 4459.960938 1095.253906 L 4468.486328 1119.160156 L 4482.128906 1095.253906 " transform="matrix(0.4,0,0,0.4,0,0)"/>
<path style="fill:none;stroke-width:3.910485;stroke-linecap:butt;stroke-linejoin:miter;stroke:rgb(0%,0%,0%);stroke-opacity:1;stroke-miterlimit:4;" d="M 4486.845703 1114.482422 L 4495.371094 1138.388672 L 4509.013672 1114.482422 " transform="matrix(0.4,0,0,0.4,0,0)"/>
<path style="fill:none;stroke-width:3.910485;stroke-linecap:butt;stroke-linejoin:miter;stroke:rgb(0%,0%,0%);stroke-opacity:1;stroke-miterlimit:4;" d="M 4511.806641 1087.568359 L 4520.332031 1111.474609 L 4533.974609 1087.568359 " transform="matrix(0.4,0,0,0.4,0,0)"/>
<path style="fill:none;stroke-width:3.910485;stroke-linecap:butt;stroke-linejoin:miter;stroke:rgb(0%,0%,0%);stroke-opacity:1;stroke-miterlimit:4;" d="M 4429.238281 1114.482422 L 4437.763672 1138.388672 L 4451.40625 1114.482422 " transform="matrix(0.4,0,0,0.4,0,0)"/>
<path style="fill:none;stroke-width:3.910485;stroke-linecap:butt;stroke-linejoin:miter;stroke:rgb(0%,0%,0%);stroke-opacity:1;stroke-miterlimit:4;" d="M 4458.046875 1132.753906 L 4466.572266 1156.660156 L 4480.214844 1132.753906 " transform="matrix(0.4,0,0,0.4,0,0)"/>
<path style="fill:none;stroke-width:3.910485;stroke-linecap:butt;stroke-linejoin:miter;stroke:rgb(0%,0%,0%);stroke-opacity:1;stroke-miterlimit:4;" d="M 4519.492188 1128.90625 L 4528.017578 1152.8125 L 4541.660156 1128.90625 " transform="matrix(0.4,0,0,0.4,0,0)"/>
<path style="fill:none;stroke-width:3.910485;stroke-linecap:butt;stroke-linejoin:miter;stroke:rgb(0%,0%,0%);stroke-opacity:1;stroke-miterlimit:4;" d="M 4490.683594 1151.015625 L 4499.21875 1174.931641 L 4512.861328 1151.015625 " transform="matrix(0.4,0,0,0.4,0,0)"/>
<path style="fill:none;stroke-width:3.910485;stroke-linecap:butt;stroke-linejoin:miter;stroke:rgb(0%,0%,0%);stroke-opacity:1;stroke-miterlimit:4;" d="M 4516.708984 1175.214844 L 4525.234375 1199.121094 L 4538.876953 1175.214844 " transform="matrix(0.4,0,0,0.4,0,0)"/>
<path style="fill:none;stroke-width:3.910485;stroke-linecap:butt;stroke-linejoin:miter;stroke:rgb(0%,0%,0%);stroke-opacity:1;stroke-miterlimit:4;" d="M 4486.972656 1186.386719 L 4495.498047 1210.292969 L 4509.140625 1186.386719 " transform="matrix(0.4,0,0,0.4,0,0)"/>
<path style="fill:none;stroke-width:3.910485;stroke-linecap:butt;stroke-linejoin:miter;stroke:rgb(0%,0%,0%);stroke-opacity:1;stroke-miterlimit:4;" d="M 4503.291016 1220.263672 L 4518.896484 1240.263672 L 4524.335938 1213.271484 " transform="matrix(0.4,0,0,0.4,0,0)"/>
<path style="fill:none;stroke-width:3.910485;stroke-linecap:butt;stroke-linejoin:miter;stroke:rgb(0%,0%,0%);stroke-opacity:1;stroke-miterlimit:4;" d="M 4536.748047 1218.398438 L 4552.353516 1238.408203 L 4557.792969 1211.416016 " transform="matrix(0.4,0,0,0.4,0,0)"/>
<path style="fill:none;stroke-width:3.910485;stroke-linecap:butt;stroke-linejoin:miter;stroke:rgb(0%,0%,0%);stroke-opacity:1;stroke-miterlimit:4;" d="M 4507.011719 1257.480469 L 4522.617188 1277.490234 L 4528.056641 1250.498047 " transform="matrix(0.4,0,0,0.4,0,0)"/>
<path style="fill:none;stroke-width:3.910485;stroke-linecap:butt;stroke-linejoin:miter;stroke:rgb(0%,0%,0%);stroke-opacity:1;stroke-miterlimit:4;" d="M 4538.603516 1254.697266 L 4554.208984 1274.697266 L 4559.648438 1247.705078 " transform="matrix(0.4,0,0,0.4,0,0)"/>
<path style="fill:none;stroke-width:3.910485;stroke-linecap:butt;stroke-linejoin:miter;stroke:rgb(0%,0%,0%);stroke-opacity:1;stroke-miterlimit:4;" d="M 4513.515625 1297.5 L 4529.121094 1317.509766 L 4534.560547 1290.517578 " transform="matrix(0.4,0,0,0.4,0,0)"/>
<path style="fill:none;stroke-width:3.910486;stroke-linecap:butt;stroke-linejoin:miter;stroke:rgb(0%,0%,0%);stroke-opacity:1;stroke-miterlimit:4;" d="M 4546.953125 1298.720703 L 4561.894531 1323.554688 L 4567.099609 1290.058594 " transform="matrix(0.4,0,0,0.4,0,0)"/>
<path style="fill:none;stroke-width:3.910485;stroke-linecap:butt;stroke-linejoin:miter;stroke:rgb(0%,0%,0%);stroke-opacity:1;stroke-miterlimit:4;" d="M 4524.667969 1339.375 L 4540.273438 1359.384766 L 4545.712891 1332.392578 " transform="matrix(0.4,0,0,0.4,0,0)"/>
<path style="fill:none;stroke-width:5.871599;stroke-linecap:round;stroke-linejoin:miter;stroke:rgb(0%,0%,0%);stroke-opacity:1;stroke-miterlimit:4;" d="M 4610.986328 1281.25 L 4579.384766 1262.636719 L 4578.544922 1362.050781 L 4559.033203 1340.644531 L 4546.191406 1371.09375 L 4515.576172 1361.992188 " transform="matrix(0.4,0,0,0.4,0,0)"/>
<path style="fill:none;stroke-width:2.935799;stroke-linecap:butt;stroke-linejoin:miter;stroke:rgb(0%,0%,0%);stroke-opacity:1;stroke-miterlimit:4;" d="M 4579.042969 1306.445312 L 4636.103516 1392.148438 " transform="matrix(0.4,0,0,0.4,0,0)"/>
<path style="fill:none;stroke-width:2.935799;stroke-linecap:butt;stroke-linejoin:miter;stroke:rgb(0%,0%,0%);stroke-opacity:1;stroke-miterlimit:4;" d="M 4576.992188 1357.470703 L 4593.876953 1394.6875 " transform="matrix(0.4,0,0,0.4,0,0)"/>
<path style="fill:none;stroke-width:3.910484;stroke-linecap:butt;stroke-linejoin:miter;stroke:rgb(0%,0%,0%);stroke-opacity:1;stroke-miterlimit:4;" d="M 4461.298828 1207.724609 L 4470.371094 1224.990234 L 4470.898438 1197.470703 " transform="matrix(0.4,0,0,0.4,0,0)"/>
<path style="fill:none;stroke-width:3.910484;stroke-linecap:butt;stroke-linejoin:miter;stroke:rgb(0%,0%,0%);stroke-opacity:1;stroke-miterlimit:4;" d="M 4477.998047 1229.091797 L 4487.070312 1246.357422 L 4487.597656 1218.837891 " transform="matrix(0.4,0,0,0.4,0,0)"/>
<path style="fill:none;stroke-width:3.910485;stroke-linecap:butt;stroke-linejoin:miter;stroke:rgb(0%,0%,0%);stroke-opacity:1;stroke-miterlimit:4;" d="M 4445.9375 1166.513672 L 4454.472656 1190.419922 L 4468.115234 1166.513672 " transform="matrix(0.4,0,0,0.4,0,0)"/>
<path style="fill:none;stroke-width:3.910485;stroke-linecap:butt;stroke-linejoin:miter;stroke:rgb(0%,0%,0%);stroke-opacity:1;stroke-miterlimit:4;" d="M 4439.443359 1260.351562 L 4447.96875 1284.257812 L 4461.611328 1260.351562 " transform="matrix(0.4,0,0,0.4,0,0)"/>
<path style="fill:none;stroke-width:3.910485;stroke-linecap:butt;stroke-linejoin:miter;stroke:rgb(0%,0%,0%);stroke-opacity:1;stroke-miterlimit:4;" d="M 4461.708984 1278.007812 L 4470.244141 1301.914062 L 4483.886719 1278.007812 " transform="matrix(0.4,0,0,0.4,0,0)"/>
<path style="fill:none;stroke-width:3.910485;stroke-linecap:butt;stroke-linejoin:miter;stroke:rgb(0%,0%,0%);stroke-opacity:1;stroke-miterlimit:4;" d="M 4440.371094 1297.519531 L 4448.896484 1321.425781 L 4462.539062 1297.519531 " transform="matrix(0.4,0,0,0.4,0,0)"/>
<path style="fill:none;stroke-width:3.910485;stroke-linecap:butt;stroke-linejoin:miter;stroke:rgb(0%,0%,0%);stroke-opacity:1;stroke-miterlimit:4;" d="M 4470.996094 1315.166016 L 4479.521484 1339.082031 L 4493.164062 1315.166016 " transform="matrix(0.4,0,0,0.4,0,0)"/>
<path style="fill:none;stroke-width:3.910485;stroke-linecap:butt;stroke-linejoin:miter;stroke:rgb(0%,0%,0%);stroke-opacity:1;stroke-miterlimit:4;" d="M 4449.648438 1332.822266 L 4458.183594 1356.728516 L 4471.826172 1332.822266 " transform="matrix(0.4,0,0,0.4,0,0)"/>
<path style="fill:none;stroke-width:5.871599;stroke-linecap:butt;stroke-linejoin:miter;stroke:rgb(0%,0%,0%);stroke-opacity:1;stroke-miterlimit:4;" d="M 4563.476562 1083.642578 C 4544.335938 1086.416016 4530.371094 1144.433594 4554.101562 1179.902344 " transform="matrix(0.4,0,0,0.4,0,0)"/>
<path style="fill:none;stroke-width:5.871599;stroke-linecap:butt;stroke-linejoin:miter;stroke:rgb(0%,0%,0%);stroke-opacity:1;stroke-miterlimit:4;" d="M 4418.105469 1073.466797 C 4402.089844 1084.84375 4390.46875 1152.255859 4425.136719 1189.296875 " transform="matrix(0.4,0,0,0.4,0,0)"/>
<path style="fill:none;stroke-width:3.910485;stroke-linecap:butt;stroke-linejoin:miter;stroke:rgb(0%,0%,0%);stroke-opacity:1;stroke-miterlimit:4;" d="M 4475.15625 977.197266 L 4485.322266 985.810547 L 4490.009766 977.978516 L 4498.603516 984.248047 L 4502.509766 970.9375 L 4511.894531 980.332031 L 4518.925781 970.9375 " transform="matrix(0.4,0,0,0.4,0,0)"/>
<path style="fill:none;stroke-width:3.910485;stroke-linecap:round;stroke-linejoin:miter;stroke:rgb(0%,0%,0%);stroke-opacity:1;stroke-miterlimit:4;" d="M 4449.013672 933.837891 C 4456.748047 941.972656 4466.308594 947.373047 4455.195312 978.056641 " transform="matrix(0.4,0,0,0.4,0,0)"/>
<path style="fill:none;stroke-width:3.910485;stroke-linecap:butt;stroke-linejoin:miter;stroke:rgb(0%,0%,0%);stroke-opacity:1;stroke-miterlimit:4;" d="M 4417.324219 963.115234 C 4428.974609 957.558594 4437.402344 949.658203 4457.96875 950.585938 " transform="matrix(0.4,0,0,0.4,0,0)"/>
<path style="fill:none;stroke-width:0.333;stroke-linecap:butt;stroke-linejoin:miter;stroke:rgb(0%,0%,0%);stroke-opacity:1;stroke-miterlimit:4;" d="M 372.677212 82.463367 C 372.677212 82.086915 372.677212 80.945093 372.677212 80.211302 C 372.677212 79.214078 371.631166 79.172527 370.89885 79.025437 C 369.694689 78.785272 366.777076 78.475301 364.379573 81.870849 C 363.812028 82.674446 363.382625 84.457815 362.957382 85.307949 C 362.822569 85.577199 362.720212 85.861408 362.60121 86.138138 C 362.463069 86.462236 362.4406 86.539521 362.36404 86.730655 " transform="matrix(4.694012,0,0,4.700548,0.297131,24.970736)"/>
<path style="fill:none;stroke-width:0.333;stroke-linecap:butt;stroke-linejoin:miter;stroke:rgb(0%,0%,0%);stroke-opacity:1;stroke-miterlimit:4;" d="M 366.157936 81.515173 C 366.07555 83.084139 365.756826 84.332331 365.209254 85.426785 " transform="matrix(4.694012,0,0,4.700548,0.297131,24.970736)"/>
<path style="fill:none;stroke-width:0.333;stroke-linecap:butt;stroke-linejoin:miter;stroke:rgb(0%,0%,0%);stroke-opacity:1;stroke-miterlimit:4;" d="M 367.342956 80.922656 C 367.258074 82.055336 367.496909 83.270287 367.224787 84.359755 " transform="matrix(4.694012,0,0,4.700548,0.297131,24.970736)"/>
<path style="fill:none;stroke-width:0.333;stroke-linecap:butt;stroke-linejoin:miter;stroke:rgb(0%,0%,0%);stroke-opacity:1;stroke-miterlimit:4;" d="M 369.239488 80.684984 C 369.042262 81.080549 368.844204 81.475284 368.646978 81.870849 C 368.4148 82.334559 368.141846 83.178875 368.054468 83.530397 " transform="matrix(4.694012,0,0,4.700548,0.297131,24.970736)"/>
<path style="fill:none;stroke-width:0.333;stroke-linecap:butt;stroke-linejoin:miter;stroke:rgb(0%,0%,0%);stroke-opacity:1;stroke-miterlimit:4;" d="M 370.306339 80.80382 C 369.79455 81.826805 369.476659 83.099928 369.476659 84.24175 " transform="matrix(4.694012,0,0,4.700548,0.297131,24.970736)"/>
<path style="fill:none;stroke-width:0.333;stroke-linecap:butt;stroke-linejoin:miter;stroke:rgb(0%,0%,0%);stroke-opacity:1;stroke-miterlimit:4;" d="M 364.142402 86.138138 C 363.761265 86.899352 363.905232 88.799064 363.905232 89.694073 " transform="matrix(4.694012,0,0,4.700548,0.297131,24.970736)"/>
<path style="fill:none;stroke-width:0.333;stroke-linecap:butt;stroke-linejoin:miter;stroke:rgb(0%,0%,0%);stroke-opacity:1;stroke-miterlimit:4;" d="M 365.801764 86.374979 C 365.801764 86.532872 365.801764 86.532872 365.801764 86.374979 C 365.801764 85.033712 365.324926 89.030088 364.853914 90.28659 " transform="matrix(4.694012,0,0,4.700548,0.297131,24.970736)"/>
<path style="fill:none;stroke-width:0.333;stroke-linecap:butt;stroke-linejoin:miter;stroke:rgb(0%,0%,0%);stroke-opacity:1;stroke-miterlimit:4;" d="M 366.987616 86.730655 C 366.987616 84.427067 366.911888 89.433133 366.750446 90.405426 C 366.730474 90.5226 366.750446 90.642267 366.750446 90.761103 " transform="matrix(4.694012,0,0,4.700548,0.297131,24.970736)"/>
<path style="fill:none;stroke-width:0.333;stroke-linecap:butt;stroke-linejoin:miter;stroke:rgb(0%,0%,0%);stroke-opacity:1;stroke-miterlimit:4;" d="M 368.646978 85.071108 C 368.333247 86.9542 368.409807 89.297676 368.409807 91.234784 " transform="matrix(4.694012,0,0,4.700548,0.297131,24.970736)"/>
<path style="fill:none;stroke-width:0.333;stroke-linecap:butt;stroke-linejoin:miter;stroke:rgb(0%,0%,0%);stroke-opacity:1;stroke-miterlimit:4;" d="M 370.18817 86.138138 C 369.937685 87.640622 369.357657 90.13119 369.357657 92.064973 " transform="matrix(4.694012,0,0,4.700548,0.297131,24.970736)"/>
<path style="fill:none;stroke-width:0.333;stroke-linecap:butt;stroke-linejoin:miter;stroke:rgb(0%,0%,0%);stroke-opacity:1;stroke-miterlimit:4;" d="M 372.202871 85.901297 C 371.842539 88.06278 372.126311 89.707369 371.373191 91.590461 " transform="matrix(4.694012,0,0,4.700548,0.297131,24.970736)"/>
<path style="fill:none;stroke-width:0.333;stroke-linecap:butt;stroke-linejoin:miter;stroke:rgb(0%,0%,0%);stroke-opacity:1;stroke-miterlimit:4;" d="M 362.957382 91.35362 C 362.760156 92.533669 362.873332 93.466904 362.60121 94.553879 " transform="matrix(4.694012,0,0,4.700548,0.297131,24.970736)"/>
<path style="fill:none;stroke-width:0.333;stroke-linecap:butt;stroke-linejoin:miter;stroke:rgb(0%,0%,0%);stroke-opacity:1;stroke-miterlimit:4;" d="M 364.972083 91.590461 C 364.786508 92.704859 364.261404 93.500145 364.261404 94.672715 C 364.261404 97.249708 364.274719 94.646122 364.024233 95.146396 " transform="matrix(4.694012,0,0,4.700548,0.297131,24.970736)"/>
<path style="fill:none;stroke-width:0.333;stroke-linecap:butt;stroke-linejoin:miter;stroke:rgb(0%,0%,0%);stroke-opacity:1;stroke-miterlimit:4;" d="M 366.394274 92.182978 C 366.394274 93.358041 365.920765 94.602078 365.920765 95.857749 " transform="matrix(4.694012,0,0,4.700548,0.297131,24.970736)"/>
<path style="fill:none;stroke-width:0.333;stroke-linecap:butt;stroke-linejoin:miter;stroke:rgb(0%,0%,0%);stroke-opacity:1;stroke-miterlimit:4;" d="M 367.580127 91.946138 C 367.580127 92.806243 367.554329 94.30208 367.224787 95.620909 C 367.205647 95.697362 367.224787 95.778802 367.224787 95.857749 " transform="matrix(4.694012,0,0,4.700548,0.297131,24.970736)"/>
<path style="fill:none;stroke-width:0.333;stroke-linecap:butt;stroke-linejoin:miter;stroke:rgb(0%,0%,0%);stroke-opacity:1;stroke-miterlimit:4;" d="M 369.239488 92.42065 C 369.06057 93.135327 369.002318 94.862187 369.002318 95.976585 C 369.002318 96.055532 369.002318 96.134479 369.002318 96.213426 " transform="matrix(4.694012,0,0,4.700548,0.297131,24.970736)"/>
<path style="fill:none;stroke-width:0.333;stroke-linecap:butt;stroke-linejoin:miter;stroke:rgb(0%,0%,0%);stroke-opacity:1;stroke-miterlimit:4;" d="M 371.255021 92.301814 C 371.255021 93.146131 370.546839 95.612598 370.306339 96.213426 " transform="matrix(4.694012,0,0,4.700548,0.297131,24.970736)"/>
<path style="fill:none;stroke-width:0.333;stroke-linecap:butt;stroke-linejoin:miter;stroke:rgb(0%,0%,0%);stroke-opacity:1;stroke-miterlimit:4;" d="M 373.981234 88.271366 C 373.981234 89.448091 372.99344 91.430074 372.795381 93.013167 C 372.668058 94.030336 372.72215 95.055815 373.269723 95.739744 " transform="matrix(4.694012,0,0,4.700548,0.297131,24.970736)"/>
<path style="fill:none;stroke-width:0.333;stroke-linecap:butt;stroke-linejoin:miter;stroke:rgb(0%,0%,0%);stroke-opacity:1;stroke-miterlimit:4;" d="M 363.668061 96.805943 C 363.497465 98.175464 363.668061 99.697062 363.668061 101.073232 C 363.668061 102.298155 363.668061 103.523079 363.668061 104.748003 C 363.668061 105.85409 363.668061 106.961009 363.668061 108.067097 C 363.668061 108.224991 363.668061 108.382885 363.668061 108.541609 " transform="matrix(4.694012,0,0,4.700548,0.297131,24.970736)"/>
<path style="fill:none;stroke-width:0.333;stroke-linecap:butt;stroke-linejoin:miter;stroke:rgb(0%,0%,0%);stroke-opacity:1;stroke-miterlimit:4;" d="M 364.972083 96.450267 C 364.972083 98.010922 364.956272 99.554127 365.209254 101.073232 C 365.40648 102.257435 365.327423 103.659366 365.327423 104.866838 C 365.327423 105.657139 365.327423 106.447439 365.327423 107.237739 " transform="matrix(4.694012,0,0,4.700548,0.297131,24.970736)"/>
<path style="fill:none;stroke-width:0.333;stroke-linecap:butt;stroke-linejoin:miter;stroke:rgb(0%,0%,0%);stroke-opacity:1;stroke-miterlimit:4;" d="M 366.631445 96.924779 C 366.631445 98.635019 366.987616 100.181547 366.987616 101.903421 C 366.987616 103.008677 366.931028 104.148837 366.513275 104.984843 C 366.355162 105.301462 366.383456 105.296476 366.513275 105.815032 " transform="matrix(4.694012,0,0,4.700548,0.297131,24.970736)"/>
<path style="fill:none;stroke-width:0.333;stroke-linecap:butt;stroke-linejoin:miter;stroke:rgb(0%,0%,0%);stroke-opacity:1;stroke-miterlimit:4;" d="M 368.527977 96.805943 C 368.197602 97.466604 368.646978 99.189309 368.646978 100.007033 C 368.646978 100.879604 368.701069 102.04137 368.527977 102.732779 C 368.381513 103.321141 368.428947 103.487345 368.291638 104.036649 " transform="matrix(4.694012,0,0,4.700548,0.297131,24.970736)"/>
<path style="fill:none;stroke-width:0.333;stroke-linecap:butt;stroke-linejoin:miter;stroke:rgb(0%,0%,0%);stroke-opacity:1;stroke-miterlimit:4;" d="M 370.54351 96.805943 C 370.487754 97.028657 370.651693 98.202057 370.651693 99.143603 C 370.651693 99.933903 370.362095 100.760768 370.362095 101.551068 C 370.362095 101.630015 370.385396 102.021426 370.306339 102.021426 " transform="matrix(4.694012,0,0,4.700548,0.297131,24.970736)"/>
<path style="fill:none;stroke-width:0.333;stroke-linecap:butt;stroke-linejoin:miter;stroke:rgb(0%,0%,0%);stroke-opacity:1;stroke-miterlimit:4;" d="M 371.69774 96.777689 C 371.758489 96.849987 371.819238 96.922286 371.879154 96.994585 C 372.088863 97.245553 372.096353 97.595412 372.096353 97.900397 C 372.096353 98.361613 372.139626 98.821167 371.879154 99.168533 " transform="matrix(4.694012,0,0,4.700548,0.297131,24.970736)"/>
<path style="fill:none;stroke-width:3.910485;stroke-linecap:butt;stroke-linejoin:miter;stroke:rgb(0%,0%,0%);stroke-opacity:1;stroke-miterlimit:4;" d="M 4598.359375 1019.599609 C 4598.359375 1015.175781 4598.359375 1001.757812 4598.359375 993.134766 C 4598.359375 981.416016 4610.634766 980.927734 4619.228516 979.199219 C 4633.359375 976.367188 4647.65625 982.294922 4658.173828 987.558594 C 4671.796875 994.384766 4685.175781 1004.169922 4695.732422 1012.636719 C 4704.755859 1019.853516 4707.441406 1043.037109 4712.431641 1053.027344 C 4714.003906 1056.191406 4715.205078 1059.53125 4716.601562 1062.783203 C 4718.232422 1066.591797 4718.486328 1067.5 4719.384766 1069.746094 " transform="matrix(0.4,0,0,0.4,0,0)"/>
<path style="fill:none;stroke-width:3.910485;stroke-linecap:butt;stroke-linejoin:miter;stroke:rgb(0%,0%,0%);stroke-opacity:1;stroke-miterlimit:4;" d="M 4674.873047 1008.457031 C 4675.830078 1026.894531 4679.580078 1041.5625 4685.996094 1054.423828 " transform="matrix(0.4,0,0,0.4,0,0)"/>
<path style="fill:none;stroke-width:3.910485;stroke-linecap:butt;stroke-linejoin:miter;stroke:rgb(0%,0%,0%);stroke-opacity:1;stroke-miterlimit:4;" d="M 4660.957031 1001.494141 C 4661.962891 1014.804688 4659.150391 1029.082031 4662.353516 1041.884766 " transform="matrix(0.4,0,0,0.4,0,0)"/>
<path style="fill:none;stroke-width:3.910485;stroke-linecap:butt;stroke-linejoin:miter;stroke:rgb(0%,0%,0%);stroke-opacity:1;stroke-miterlimit:4;" d="M 4638.701172 998.701172 C 4641.025391 1003.349609 4643.339844 1007.988281 4645.654297 1012.636719 C 4648.378906 1018.085938 4651.582031 1028.007812 4652.617188 1032.138672 " transform="matrix(0.4,0,0,0.4,0,0)"/>
<path style="fill:none;stroke-width:3.910485;stroke-linecap:butt;stroke-linejoin:miter;stroke:rgb(0%,0%,0%);stroke-opacity:1;stroke-miterlimit:4;" d="M 4626.181641 1000.097656 C 4632.1875 1012.119141 4635.917969 1027.080078 4635.917969 1040.488281 " transform="matrix(0.4,0,0,0.4,0,0)"/>
<path style="fill:none;stroke-width:3.910485;stroke-linecap:butt;stroke-linejoin:miter;stroke:rgb(0%,0%,0%);stroke-opacity:1;stroke-miterlimit:4;" d="M 4698.515625 1062.783203 C 4702.988281 1071.728516 4701.298828 1094.042969 4701.298828 1104.570312 " transform="matrix(0.4,0,0,0.4,0,0)"/>
<path style="fill:none;stroke-width:3.910485;stroke-linecap:butt;stroke-linejoin:miter;stroke:rgb(0%,0%,0%);stroke-opacity:1;stroke-miterlimit:4;" d="M 4679.042969 1065.566406 C 4679.042969 1067.421875 4679.042969 1067.421875 4679.042969 1065.566406 C 4679.042969 1049.804688 4684.638672 1096.767578 4690.175781 1111.533203 " transform="matrix(0.4,0,0,0.4,0,0)"/>
<path style="fill:none;stroke-width:3.910485;stroke-linecap:butt;stroke-linejoin:miter;stroke:rgb(0%,0%,0%);stroke-opacity:1;stroke-miterlimit:4;" d="M 4665.136719 1069.746094 C 4665.136719 1042.675781 4666.015625 1101.503906 4667.910156 1112.929688 C 4668.144531 1114.296875 4667.910156 1115.712891 4667.910156 1117.109375 " transform="matrix(0.4,0,0,0.4,0,0)"/>
<path style="fill:none;stroke-width:3.910485;stroke-linecap:butt;stroke-linejoin:miter;stroke:rgb(0%,0%,0%);stroke-opacity:1;stroke-miterlimit:4;" d="M 4645.654297 1050.244141 C 4649.345703 1072.373047 4648.4375 1099.902344 4648.4375 1122.675781 " transform="matrix(0.4,0,0,0.4,0,0)"/>
<path style="fill:none;stroke-width:3.910485;stroke-linecap:butt;stroke-linejoin:miter;stroke:rgb(0%,0%,0%);stroke-opacity:1;stroke-miterlimit:4;" d="M 4627.578125 1062.783203 C 4630.517578 1080.439453 4637.314453 1109.707031 4637.314453 1132.431641 " transform="matrix(0.4,0,0,0.4,0,0)"/>
<path style="fill:none;stroke-width:3.910485;stroke-linecap:butt;stroke-linejoin:miter;stroke:rgb(0%,0%,0%);stroke-opacity:1;stroke-miterlimit:4;" d="M 4603.925781 1059.990234 C 4608.154297 1085.400391 4604.824219 1104.726562 4613.662109 1126.855469 " transform="matrix(0.4,0,0,0.4,0,0)"/>
<path style="fill:none;stroke-width:3.910485;stroke-linecap:butt;stroke-linejoin:miter;stroke:rgb(0%,0%,0%);stroke-opacity:1;stroke-miterlimit:4;" d="M 4712.431641 1124.072266 C 4714.736328 1137.939453 4713.408203 1148.90625 4716.601562 1161.679688 " transform="matrix(0.4,0,0,0.4,0,0)"/>
<path style="fill:none;stroke-width:3.910485;stroke-linecap:butt;stroke-linejoin:miter;stroke:rgb(0%,0%,0%);stroke-opacity:1;stroke-miterlimit:4;" d="M 4688.779297 1126.855469 C 4690.957031 1139.951172 4697.128906 1159.111328 4697.128906 1172.890625 " transform="matrix(0.4,0,0,0.4,0,0)"/>
<path style="fill:none;stroke-width:3.910485;stroke-linecap:butt;stroke-linejoin:miter;stroke:rgb(0%,0%,0%);stroke-opacity:1;stroke-miterlimit:4;" d="M 4672.089844 1133.818359 C 4672.089844 1147.626953 4677.65625 1162.246094 4677.65625 1177.001953 " transform="matrix(0.4,0,0,0.4,0,0)"/>
<path style="fill:none;stroke-width:3.910485;stroke-linecap:butt;stroke-linejoin:miter;stroke:rgb(0%,0%,0%);stroke-opacity:1;stroke-miterlimit:4;" d="M 4658.173828 1131.035156 C 4658.173828 1141.132812 4658.486328 1158.720703 4662.353516 1174.21875 C 4662.578125 1175.117188 4662.353516 1176.074219 4662.353516 1177.001953 " transform="matrix(0.4,0,0,0.4,0,0)"/>
<path style="fill:none;stroke-width:3.910485;stroke-linecap:butt;stroke-linejoin:miter;stroke:rgb(0%,0%,0%);stroke-opacity:1;stroke-miterlimit:4;" d="M 4638.701172 1136.611328 C 4640.800781 1145.009766 4641.484375 1165.302734 4641.484375 1178.398438 C 4641.484375 1179.326172 4641.484375 1180.253906 4641.484375 1181.181641 " transform="matrix(0.4,0,0,0.4,0,0)"/>
<path style="fill:none;stroke-width:3.910485;stroke-linecap:butt;stroke-linejoin:miter;stroke:rgb(0%,0%,0%);stroke-opacity:1;stroke-miterlimit:4;" d="M 4615.058594 1135.214844 C 4615.058594 1145.136719 4623.359375 1174.121094 4626.181641 1181.181641 " transform="matrix(0.4,0,0,0.4,0,0)"/>
<path style="fill:none;stroke-width:3.910485;stroke-linecap:butt;stroke-linejoin:miter;stroke:rgb(0%,0%,0%);stroke-opacity:1;stroke-miterlimit:4;" d="M 4583.066406 1087.851562 C 4583.066406 1101.679688 4594.648438 1124.970703 4596.972656 1143.574219 C 4598.466797 1155.527344 4597.832031 1167.568359 4591.40625 1175.605469 " transform="matrix(0.4,0,0,0.4,0,0)"/>
<path style="fill:none;stroke-width:3.910485;stroke-linecap:butt;stroke-linejoin:miter;stroke:rgb(0%,0%,0%);stroke-opacity:1;stroke-miterlimit:4;" d="M 4704.082031 1188.144531 C 4706.09375 1204.238281 4704.082031 1222.119141 4704.082031 1238.291016 C 4704.082031 1252.685547 4708.28125 1278.300781 4708.28125 1292.695312 " transform="matrix(0.4,0,0,0.4,0,0)"/>
<path style="fill:none;stroke-width:3.910485;stroke-linecap:butt;stroke-linejoin:miter;stroke:rgb(0%,0%,0%);stroke-opacity:1;stroke-miterlimit:4;" d="M 4688.779297 1183.964844 C 4688.779297 1202.304688 4690.371094 1216.230469 4687.402344 1234.091797 C 4685.078125 1247.998047 4686.005859 1264.472656 4686.005859 1278.662109 " transform="matrix(0.4,0,0,0.4,0,0)"/>
<path style="fill:none;stroke-width:3.910485;stroke-linecap:butt;stroke-linejoin:miter;stroke:rgb(0%,0%,0%);stroke-opacity:1;stroke-miterlimit:4;" d="M 4669.306641 1189.541016 C 4669.306641 1209.638672 4665.136719 1227.8125 4665.136719 1248.046875 " transform="matrix(0.4,0,0,0.4,0,0)"/>
<path style="fill:none;stroke-width:3.910485;stroke-linecap:butt;stroke-linejoin:miter;stroke:rgb(0%,0%,0%);stroke-opacity:1;stroke-miterlimit:4;" d="M 4647.050781 1188.144531 C 4650.927734 1195.908203 4643.554688 1222.460938 4643.554688 1232.070312 " transform="matrix(0.4,0,0,0.4,0,0)"/>
<path style="fill:none;stroke-width:3.910485;stroke-linecap:butt;stroke-linejoin:miter;stroke:rgb(0%,0%,0%);stroke-opacity:1;stroke-miterlimit:4;" d="M 4623.398438 1188.144531 C 4624.052734 1190.751953 4622.128906 1204.550781 4622.128906 1215.615234 " transform="matrix(0.4,0,0,0.4,0,0)"/>
<path style="fill:none;stroke-width:3.910485;stroke-linecap:butt;stroke-linejoin:miter;stroke:rgb(0%,0%,0%);stroke-opacity:1;stroke-miterlimit:4;" d="M 4723.330078 1209.541016 C 4724.619141 1212.128906 4723.330078 1226.201172 4723.330078 1231.269531 C 4723.330078 1238.085938 4722.626953 1244.306641 4722.626953 1250.898438 C 4722.626953 1259.599609 4723.330078 1268.144531 4723.330078 1276.835938 C 4723.330078 1283.896484 4724.84375 1289.277344 4728.232422 1294.365234 C 4730.615234 1297.939453 4730.9375 1301.279297 4733.828125 1304.179688 " transform="matrix(0.4,0,0,0.4,0,0)"/>
<path style="fill:none;stroke-width:3.910485;stroke-linecap:butt;stroke-linejoin:miter;stroke:rgb(0%,0%,0%);stroke-opacity:1;stroke-miterlimit:4;" d="M 4564.521484 1099.697266 C 4564.521484 1100.576172 4564.521484 1100.576172 4564.521484 1099.697266 C 4564.521484 1085.019531 4564.521484 1117.763672 4564.521484 1124.570312 C 4564.521484 1130.517578 4568.447266 1135.419922 4568.447266 1141.591797 C 4568.447266 1147.041016 4569.755859 1151.25 4569.755859 1156.650391 C 4569.755859 1159.501953 4568.427734 1163.261719 4567.792969 1165.810547 " transform="matrix(0.4,0,0,0.4,0,0)"/>
</g>
</svg>
