<?xml version="1.0" encoding="UTF-8" standalone="no"?>
<!-- Created with Inkscape (http://www.inkscape.org/) -->

<svg
   xmlns:dc="http://purl.org/dc/elements/1.1/"
   xmlns:cc="http://creativecommons.org/ns#"
   xmlns:rdf="http://www.w3.org/1999/02/22-rdf-syntax-ns#"
   xmlns:svg="http://www.w3.org/2000/svg"
   xmlns="http://www.w3.org/2000/svg"
   xmlns:sodipodi="http://sodipodi.sourceforge.net/DTD/sodipodi-0.dtd"
   xmlns:inkscape="http://www.inkscape.org/namespaces/inkscape"
   width="129.29953"
   height="88.135811"
   id="svg5170"
   version="1.1"
   inkscape:version="0.48.4 r9939"
   sodipodi:docname="Nieuw document 46">
  <defs
     id="defs5172" />
  <sodipodi:namedview
     id="base"
     pagecolor="#ffffff"
     bordercolor="#666666"
     borderopacity="1.0"
     inkscape:pageopacity="0.0"
     inkscape:pageshadow="2"
     inkscape:zoom="3.959798"
     inkscape:cx="110.51891"
     inkscape:cy="28.957638"
     inkscape:document-units="px"
     inkscape:current-layer="layer1"
     showgrid="false"
     fit-margin-top="0"
     fit-margin-left="0"
     fit-margin-right="0"
     fit-margin-bottom="0"
     inkscape:window-width="1600"
     inkscape:window-height="837"
     inkscape:window-x="-8"
     inkscape:window-y="-8"
     inkscape:window-maximized="1" />
  <metadata
     id="metadata5175">
    <rdf:RDF>
      <cc:Work
         rdf:about="">
        <dc:format>image/svg+xml</dc:format>
        <dc:type
           rdf:resource="http://purl.org/dc/dcmitype/StillImage" />
        <dc:title></dc:title>
      </cc:Work>
    </rdf:RDF>
  </metadata>
  <g
     inkscape:label="Laag 1"
     inkscape:groupmode="layer"
     id="layer1"
     transform="translate(-195.53847,-288.24652)">
    <rect
       style="opacity:0.98999999;fill:#004e41;fill-opacity:1;fill-rule:evenodd;stroke:none"
       id="rect4787"
       width="129.29953"
       height="88.135811"
       x="195.53847"
       y="288.24652" />
    <rect
       style="opacity:0.98999999;fill:#f9f9f9;fill-opacity:1;fill-rule:evenodd;stroke:none"
       id="rect4789"
       width="44.839287"
       height="88.308212"
       x="195.162"
       y="288.24725" />
    <rect
       style="opacity:0.98999999;fill:#f47320;fill-opacity:1;fill-rule:evenodd;stroke:none"
       id="rect4791"
       width="18.941755"
       height="44.151276"
       x="208.27821"
       y="288.16888" />
    <g
       transform="matrix(0.03318086,0,0,0.0355414,95.358445,307.16214)"
       id="layer1-5-7-7"
       inkscape:label="Laag 1"
       style="fill:#ffffff">
      <path
         inkscape:connector-curvature="0"
         id="path4164-4-9"
         d="m 3747.0229,583.12239 c -0.2887,-1.1325 -0.3906,-2.22998 -0.3765,-4.05659 0.023,-2.94632 0.5589,-4.9821 2.0242,-7.68449 0.7255,-1.33803 0.8841,-1.82832 0.8841,-2.73241 0,-1.90297 -1.2028,-2.93833 -3.6615,-3.15162 -1.3648,-0.11839 -2.4192,0.16012 -5.1059,1.34871 -7.0049,3.09883 -13.1739,7.40476 -15.588,10.8803 -0.4707,0.67764 -0.5541,0.72363 -0.7392,0.40726 -0.1148,-0.19616 -0.251,-1.48645 -0.3027,-2.86731 -0.1744,-4.6561 1.1027,-8.57556 4.1876,-12.85174 1.4641,-2.02957 1.5317,-2.59533 0.3967,-3.32466 -3.0892,-1.98514 -18.7126,2.78937 -23.6302,7.2214 l -0.6805,0.61332 0,-1.81018 c 0,-3.83913 1.5581,-7.30914 4.6925,-10.45044 8.5017,-8.52053 29.6936,-13.8413 55.1933,-13.85771 l 5.5488,-0.004 0.011,-3.6554 c 0.013,-4.21329 0.2519,-5.88661 1.23,-8.62812 0.4671,-1.30926 0.6221,-1.99065 0.4631,-2.03604 -0.1314,-0.0375 -2.1733,-0.43082 -4.5375,-0.87402 -12.8905,-2.41642 -21.6996,-5.47729 -27.2894,-9.48227 -0.7766,-0.55634 -1.4432,-0.97847 -1.4814,-0.93804 -0.038,0.0404 -0.3753,0.65945 -0.7492,1.37561 -2.1715,4.15985 -5.382,7.55124 -10.0225,10.58728 -2.1714,1.42067 -7.6447,4.30657 -7.7259,4.07363 -0.032,-0.0911 0.5135,-1.58421 1.2118,-3.31796 2.3502,-5.83559 3.2827,-9.66827 3.4987,-14.37916 0.1096,-2.39134 -0.1547,-6.00833 -0.5761,-7.88151 -0.792,-3.52155 -1.3121,-11.43441 -1.0324,-15.70795 0.6095,-9.31297 3.077,-15.8599 8.8827,-23.56887 0.2809,-0.37298 -0.2662,-1.80531 -1.9846,-5.19535 -2.3477,-4.63164 -5.1404,-8.26187 -9.6701,-12.57018 -10.6413,-10.12124 -27.3757,-18.65115 -51.6293,-26.31661 -2.6792,-0.84681 -4.8337,-1.57567 -4.7877,-1.61973 0.046,-0.044 1.9555,-0.57479 4.2433,-1.17944 22.3257,-5.90074 38.6351,-14.26757 52.1122,-26.73391 1.6384,-1.51554 3.618,-3.41813 4.3991,-4.22797 0.7811,-0.80985 1.6284,-1.68318 1.8828,-1.94075 l 0.4626,-0.4683 5.1253,7.17919 c 8.9353,12.51593 12.4215,17.56921 16.1349,23.38781 5.3744,8.4212 9.2521,15.65205 11.4845,21.41556 0.4894,1.26337 0.9602,1.97211 2.4388,3.67086 1.5801,1.81529 3.7859,4.67841 5.723,7.42838 0.5013,0.71157 0.7362,0.82786 3.2456,1.60699 9.2551,2.87348 17.6082,3.30247 24.2,1.24285 9.4508,-2.95287 15.7614,-10.66525 17.6663,-21.59038 0.4366,-2.50398 0.3382,-7.05677 -0.1933,-8.94874 -0.605,-2.15342 -2.1192,-4.79846 -3.6158,-6.31623 -3.2388,-3.28464 -7.3032,-4.90852 -12.8425,-5.13096 -2.392,-0.0961 -3.1649,-0.0472 -5.0254,0.3178 -4.197,0.82334 -7.5342,2.83972 -8.8048,5.31996 -0.429,0.83743 -0.5131,1.29719 -0.5131,2.80455 0,1.61358 0.071,1.94535 0.6714,3.15905 0.8957,1.80896 2.1869,3.376 4.3964,5.33562 l 1.8286,1.62175 -0.7678,0 c -2.4652,0 -6.8518,-0.83187 -9.2716,-1.75825 -10.6908,-4.09276 -13.3159,-16.48891 -5.7219,-27.02003 5.3148,-7.37045 14.6548,-11.01724 24.2142,-9.45438 0.7261,0.1187 1.3736,0.1647 1.4389,0.10221 0.065,-0.0625 -0.078,-0.81631 -0.3195,-1.67515 -0.4915,-1.75083 -1.1376,-4.91165 -1.5273,-7.47112 -0.3923,-2.57659 -0.324,-8.8889 0.1224,-11.31837 1.1224,-6.10733 3.6873,-10.77213 8.3715,-15.22518 2.769,-2.63239 5.16,-4.3421 8.749,-6.25609 4.7619,-2.53953 11.0702,-3.82649 17.6206,-3.59479 5.5275,0.19552 9.1726,1.25832 13.2773,3.87121 9.0011,5.72987 12.4115,17.35257 7.7628,26.45592 -2.9679,5.8119 -8.8181,9.69539 -16.5081,10.95835 -2.0805,0.34169 -7.1193,0.6669 -7.1193,0.45948 0,-0.066 0.8386,-0.66955 1.8635,-1.34114 3.6047,-2.36198 6.1705,-5.08132 7.1445,-7.57178 0.5289,-1.35228 0.5762,-3.37928 0.1084,-4.63719 -1.7131,-4.60585 -9.3299,-7.2708 -16.0715,-5.62303 -6.7955,1.66094 -11.1781,6.77316 -12.5368,14.62391 -0.3342,1.93133 -0.33,6.69014 0.01,9.52375 l 0.2642,2.21189 1.7051,0.92817 c 7.7509,4.21903 13.3639,11.52209 15.2504,19.84221 0.3887,1.71421 0.4649,2.6736 0.4649,5.85624 0,4.18721 -0.3179,6.19501 -1.5578,9.84083 -0.342,1.00531 -0.6217,1.86775 -0.6217,1.91657 0,0.0488 0.636,-0.21175 1.4134,-0.57902 2.1305,-1.00654 4.1338,-1.34609 6.3568,-1.07741 2.9028,0.35085 5.0877,1.20624 7.4851,2.93033 1.4044,1.01002 3.0203,2.73606 3.8889,4.15399 1.5125,2.46914 1.8907,5.58877 0.9524,7.85534 l -0.2488,0.60098 -0.2652,-0.83652 c -1.5953,-5.03114 -10.3096,-7.78197 -16.8605,-5.32238 -2.1679,0.81396 -2.638,1.21824 -3.9577,3.40359 -7.4913,12.40513 -18.2175,19.51262 -31.8,21.07173 -4.4196,0.50733 -12.1602,0.18082 -16.7471,-0.70642 -0.3742,-0.0724 -0.6802,-0.0527 -0.6798,0.0437 0,0.0964 0.2756,1.25704 0.6116,2.57918 1.9743,7.76855 2.3863,15.79137 1.3632,26.54308 l -0.124,1.30211 2.5816,1.93418 c 3.9288,2.94362 7.6648,6.16833 11.4897,9.91742 4.525,4.43531 7.8392,8.37823 10.4682,12.45421 l 0.9262,1.43597 3.6685,0.004 c 7.0535,0.008 12.3182,1.0916 17.5077,3.60507 2.0065,0.97186 5.0376,2.8443 6.7858,4.19191 l 0.5235,0.40353 -1.5705,0.009 c -2.3126,0.0126 -7.3161,0.51822 -9.9142,1.00182 -10.9509,2.03845 -19.3894,7.04664 -22.8227,13.54512 -1.1024,2.08665 -1.3954,3.27227 -1.7148,6.94039 -0.498,5.71712 -1.5568,8.7269 -3.8595,10.97114 -1.6979,1.65473 -3.557,2.45791 -7.4406,3.21446 -11.0603,2.15454 -20.5452,7.51131 -32.7392,18.49003 -1.4228,1.28098 -2.6572,2.32906 -2.7431,2.32906 -0.086,0 -0.3344,-0.69864 -0.5521,-1.55252 z m -134.8226,-2.87719 c 0.055,-0.70377 0.2014,-2.58432 0.3252,-4.17902 0.4861,-6.26413 1.8324,-11.75452 4.0374,-16.46484 l 0.5311,-1.13471 -1.8216,0.46961 c -2.5176,0.64903 -5.7471,1.74793 -8.2215,2.79753 -7.1006,3.01195 -12.2054,7.32844 -15.1279,12.79197 -0.829,1.54987 -0.799,1.57742 -1.277,-1.1692 -0.7773,-4.46521 -0.784,-9.00337 -0.018,-12.32 0.8829,-3.82426 3.8142,-7.86196 7.1318,-9.82356 0.4128,-0.24409 0.6731,-0.51586 0.5782,-0.60388 -0.3577,-0.33224 -3.6026,-1.58697 -5.3741,-2.07811 -4.4846,-1.24334 -9.1412,-1.11729 -13.4863,0.36501 -0.5115,0.17448 -0.89,0.21944 -0.89,0.10569 0,-0.59647 1.4369,-3.61482 2.3268,-4.88773 6.0737,-8.68782 20.1178,-10.18573 43.1109,-4.59816 2.4761,0.60169 6.2701,1.60198 8.4313,2.22283 2.1611,0.62086 3.9703,1.0896 4.0204,1.04167 0.05,-0.0479 0.2024,-1.50847 0.3384,-3.24561 0.464,-5.9262 -0.3968,-11.4749 -2.5063,-16.15606 -3.6625,-8.12745 -10.7942,-14.19003 -23.7894,-20.22326 -2.5761,-1.19598 -6.0555,-2.68912 -13.6104,-5.84072 l -2.0939,-0.87347 2.9315,-0.34907 c 8.6251,-1.02701 14.8182,-3.41224 18.8603,-7.26391 2.4661,-2.34997 3.7469,-4.43524 5.0965,-8.29757 4.0712,-11.65201 14.2869,-19.22155 31.1439,-23.07685 7.8912,-1.80475 16.8146,-2.59188 29.5022,-2.60236 l 7.9245,-0.007 -5.4386,-5.24884 c -2.9912,-2.88688 -5.7136,-5.54277 -6.0496,-5.902 l -0.6111,-0.65312 2.3969,0.81793 c 9.6077,3.27856 17.956,7.64407 26.331,13.76917 2.9002,2.12108 9.0449,6.90508 9.0449,7.042 0,0.0669 -1.2014,0.60885 -2.6697,1.20426 -7.632,3.09472 -15.6201,7.01903 -21.6196,10.62114 -9.054,5.43598 -16.641,12.19721 -21.1347,18.8345 -2.7372,4.04292 -5.8626,11.25066 -5.5588,12.81942 0.3062,1.58075 1.8686,2.73793 4.5986,3.40591 1.4749,0.36087 2.8056,0.42225 13.5924,0.62698 6.5766,0.1248 11.9994,0.26303 12.0508,0.30714 0.1337,0.11486 -2.6065,2.74962 -5.5375,5.3244 -2.566,2.2541 -4.8299,3.97976 -6.7052,5.11091 -1.2291,0.74137 -4.3465,2.16247 -5.1778,2.36035 -0.3167,0.0754 -0.5758,0.19993 -0.5758,0.27671 0,0.35782 2.4345,2.90484 3.7082,3.87954 3.3035,2.52812 8.2072,4.85878 13.8235,6.57008 0.8323,0.25361 1.4839,0.48921 1.4481,0.52355 -0.036,0.0343 -1.5178,0.33703 -3.2932,0.67267 -16.4891,3.11732 -25.9608,7.48337 -29.0518,13.39173 -0.9767,1.86681 -1.0306,2.15354 -1.2688,6.74259 -0.147,2.83299 -0.2555,3.5861 -0.635,4.40715 -1.1413,2.46911 -3.0152,3.31612 -8.1827,3.69854 -13.9524,1.03254 -25.0089,3.9546 -32.4293,8.57057 -2.4062,1.49673 -4.5924,3.18661 -6.8786,5.31667 l -2.3504,2.18993 0.1001,-1.27955 z m -63.6112,-103.04471 c -1.7087,-5.32256 -1.8244,-10.24913 -0.3703,-15.76807 0.3131,-1.18857 0.5457,-2.16103 0.5169,-2.16103 -0.029,0 -1.2384,0.57618 -2.6879,1.2804 -3.1674,1.5388 -6.3708,2.57027 -9.3883,3.02297 -3.2273,0.48416 -3.5303,0.38268 -1.7302,-0.57946 5.6173,-3.00238 8.287,-5.36986 11.6879,-10.36482 3.48,-5.11126 6.0116,-7.76296 11.3973,-11.93828 l 3.1641,-2.45302 0.2308,1.06377 c 0.2977,1.3717 1.2547,3.29809 2.4003,4.83154 0.9177,1.22847 4.1805,4.36833 5.2099,5.01359 l 0.5597,0.35087 -3.8193,2.4141 c -3.2749,2.07 -4.1955,2.77364 -6.4589,4.93631 -1.4518,1.38721 -3.1616,3.19829 -3.7995,4.02463 -3.6254,4.69623 -5.9106,10.49189 -6.2005,15.72552 l -0.1332,2.40391 -0.5788,-1.80293 z m 46.1204,-9.56552 c 0,-2.24785 0.3468,-18.37168 0.4924,-22.83707 0.074,-2.26259 0.06,-2.35382 -0.3521,-2.35382 -0.4218,0 -0.4222,-0.005 -0.022,-0.28704 0.3528,-0.24917 0.4154,-0.24917 0.4741,0 0.086,0.36301 0.6833,0.36217 2.5005,-0.004 2.5986,-0.52295 4.9144,-1.52676 6.7813,-2.93939 l 0.7645,-0.57844 16.0914,0.31377 c 8.8503,0.17256 16.4911,0.35877 16.9796,0.41379 l 0.8881,0.10001 -4.9713,4.14675 c -15.2726,12.73975 -23.3517,18.45048 -33.1341,23.42101 -2.0799,1.05677 -6.1105,2.85763 -6.3958,2.85763 -0.052,0 -0.096,-1.01414 -0.096,-2.25365 z m -17.0399,-22.84253 c -0.4959,-4.46118 -0.3616,-7.91439 0.4226,-10.86217 0.6732,-2.53043 2.8156,-6.11184 4.6661,-7.80008 0.3548,-0.32361 0.645,-0.67341 0.645,-0.77736 0,-0.30814 -8.8645,-0.0126 -10.5743,0.35241 -0.8061,0.17216 -2.2666,0.68723 -3.2455,1.1446 -2.0974,0.97993 -4.0764,2.76687 -5.2348,4.72679 -0.4031,0.68196 -0.7896,1.24261 -0.8589,1.2459 -0.2808,0.0132 -1.4369,-2.78023 -1.6293,-3.93697 -0.3872,-2.32714 0.369,-4.91884 1.932,-6.62195 0.7401,-0.80644 2.2788,-1.91714 3.8018,-2.74422 4.2304,-2.2975 7.4333,-4.98172 7.4333,-6.22963 0,-0.55674 -0.7468,-1.04411 -1.861,-1.21457 -1.9231,-0.29421 -6.4089,0.68724 -10.175,2.22624 -1.2093,0.49414 -2.2603,0.89844 -2.3356,0.89844 -0.075,0 -0.078,-0.60329 -0.01,-1.34065 0.1899,-1.94474 1.2256,-3.91401 2.8974,-5.50875 2.7418,-2.61539 6.885,-4.37441 12.5248,-5.31749 2.8939,-0.48391 10.7539,-0.46688 14.0316,0.0304 2.8337,0.42992 6.9341,1.29995 9.3886,1.99211 l 1.7457,0.4923 2.9656,-1.8586 c 14.5521,-9.12043 28.1546,-14.92633 42.0327,-17.94058 8.5164,-1.84973 17.8293,-2.65449 25.8799,-2.23637 4.0653,0.21114 8.4192,0.57191 9.0176,0.7472 0.6257,0.18334 -2.8324,7.48263 -5.1204,10.80775 -2.4475,3.55687 -6.7959,7.99909 -10.5291,10.75634 -5.8762,4.33995 -13.8961,8.28594 -23.033,11.33281 -8.5033,2.83558 -16.1193,4.7588 -32.6648,8.24866 l -7.6428,1.61204 -3.1409,1.48705 c -9.5353,4.51453 -16.2609,9.86112 -20.0074,15.90523 -0.4993,0.80543 -0.9706,1.50162 -1.0475,1.54705 -0.077,0.0455 -0.2021,-0.47833 -0.2783,-1.16394 z m -39.7041,-39.24402 c -2.9367,-0.99186 -5.5861,-1.81877 -5.8876,-1.83757 -0.7017,-0.0438 -13.8974,-10.4158 -13.3672,-10.50692 0.1931,-0.0332 4.0402,0.30486 8.5492,0.75122 4.509,0.44636 8.2848,0.81156 8.3908,0.81156 0.106,0 0.2514,-0.17698 0.3231,-0.39328 0.093,-0.28061 -1.0426,-2.41212 -3.9643,-7.4401 -2.2521,-3.87575 -4.0948,-7.0722 -4.0948,-7.10321 0,-0.031 3.4151,1.54685 7.589,3.50636 7.2991,3.42664 7.6068,3.55039 8.055,3.23958 0.2563,-0.17774 0.4689,-0.39661 0.4725,-0.48638 0,-0.0898 -1.1357,-2.65894 -2.5319,-5.70927 -3.6676,-8.01273 -3.9619,-8.67939 -3.792,-8.58777 0.084,0.0455 3.3056,1.91108 7.1583,4.14575 3.8526,2.23468 7.1505,4.09556 7.3286,4.13529 0.1782,0.0397 0.5548,-0.1002 0.837,-0.31096 l 0.5132,-0.3832 -2.2512,-7.35408 c -1.2381,-4.04474 -2.2228,-7.37878 -2.1882,-7.40897 0.035,-0.0302 3.031,2.17782 6.6587,4.90669 6.5386,4.91858 6.6008,4.95916 7.1716,4.68052 0.3167,-0.15459 0.5758,-0.40341 0.5758,-0.55293 0,-0.14952 -0.7949,-3.50338 -1.7665,-7.45301 -0.9715,-3.94964 -1.738,-7.20839 -1.7032,-7.24167 0.035,-0.0333 2.9262,2.32866 6.4254,5.24875 3.4992,2.9201 6.5036,5.31051 6.6763,5.31203 0.9736,0.009 0.9746,0.0555 -0.1808,-8.11246 -0.6031,-4.26308 -1.057,-7.7888 -1.0088,-7.83493 0.048,-0.0461 2.8004,2.62786 6.116,5.94221 3.9362,3.9348 6.1317,5.98812 6.3263,5.91667 0.1639,-0.0602 0.3992,-0.10942 0.5229,-0.10942 0.1584,0 0.1893,-2.40295 0.1045,-8.13989 -0.099,-6.72664 -0.073,-8.09177 0.1548,-7.86276 0.1513,0.15242 2.4993,3.13966 5.2178,6.63831 l 4.9427,6.36119 0,14.92717 0,14.92718 -0.4711,-0.0951 c -4.6927,-0.94702 -13.3195,-1.42501 -18.3269,-1.01546 -6.082,0.49744 -11.8095,2.00423 -17.1125,4.50192 -5.1821,2.44078 -9.071,5.15049 -13.4397,9.36459 -1.4032,1.35361 -2.581,2.45314 -2.6173,2.44341 -0.036,-0.01 -2.4688,-0.82921 -5.4055,-1.82108 z m 153.9021,-9.96297 c 0,-0.11308 0.6649,-5.8524 1.4776,-12.75404 0.8126,-6.90164 1.4254,-12.59836 1.3616,-12.65938 -0.248,-0.23731 -19.4294,-0.2896 -24.3018,-0.0663 -23.6208,1.08279 -40.4467,4.81006 -53.0399,11.74937 l -1.3204,0.72762 0.877,-1.67063 c 1.4085,-2.68309 4.5085,-7.88152 6.2788,-10.52874 8.4537,-12.64173 18.4636,-20.03936 32.0237,-23.66667 7.9032,-2.1141 16.6797,-2.91646 26.2701,-2.40166 6.3047,0.33842 12.2512,0.33844 14.5347,4e-5 2.0833,-0.30872 5.3308,-1.18644 6.9363,-1.87469 5.0738,-2.17514 9.6997,-6.61117 13.3785,-12.82945 0.597,-1.00928 0.6341,-1.15171 0.2996,-1.15057 -0.21,8e-4 -6.0183,0.13773 -12.9073,0.30449 -13.0845,0.31673 -13.5773,0.2994 -14.6602,-0.51547 -1.2416,-0.93441 -0.858,-2.83717 0.7282,-3.61133 0.7753,-0.37841 1.2029,-0.42761 3.5268,-0.40575 5.1178,0.0481 8.876,-0.58475 11.8603,-1.99732 3.0365,-1.43721 5.3654,-3.95105 6.4747,-6.98866 2.8308,-7.75154 -1.0296,-13.26258 -10.6898,-15.2605 -1.9468,-0.40262 -7.511,-0.34099 -10.1555,0.11249 -2.1592,0.37026 -2.2163,0.39427 -3.185,1.33897 -1.2888,1.25684 -2.0674,2.75049 -2.2083,4.23617 l -0.1117,1.17831 -0.9931,-0.93587 c -1.3013,-1.22626 -2.145,-2.83603 -2.2561,-4.30443 l -0.086,-1.14411 -1.3902,-0.12564 c -0.7647,-0.0691 -1.7324,-0.12628 -2.1506,-0.12706 -0.7538,-10e-4 -0.767,-0.016 -1.5187,-1.6901 -1.1403,-2.53943 -1.4456,-3.9037 -1.3461,-6.01481 0.067,-1.42175 0.2057,-2.06198 0.644,-2.97295 0.7748,-1.61006 2.5694,-3.25969 4.6563,-4.28011 3.1401,-1.53543 3.5548,-1.60586 12.1446,-2.06225 4.2611,-0.22641 7.9595,-0.41116 8.2186,-0.41057 0.4147,0.001 0.4712,-0.10084 0.4719,-0.85031 0,-1.53987 1.059,-2.64083 3.5926,-3.73988 3.0349,-1.31649 7.2158,-1.99072 13.3819,-2.15799 3.7822,-0.10261 10.2334,0.15159 11.6066,0.45733 0.3604,0.0803 1.6288,-1.863 9.0962,-13.93521 4.7726,-7.71565 8.6999,-14.02846 8.7272,-14.02846 0.082,0 0.7354,2.1923 1.1645,3.90634 0.6003,2.39826 0.7385,6.59004 0.2874,8.71964 -0.3681,1.73811 -1.2769,3.75627 -2.4695,5.48411 -0.652,0.9446 -0.678,1.05988 -0.6775,3.00487 0,1.68199 0.081,2.19127 0.48,3.02422 0.8355,1.74542 2.2044,2.82276 4.3421,3.41731 1.6237,0.45158 5.1393,0.31909 6.8116,-0.2567 2.3143,-0.79682 2.2413,-0.72439 4.2946,-4.2624 2.3039,-3.96968 3.2363,-5.04521 5.1042,-5.88729 4.571,-2.06068 10.6802,1.06805 10.7374,5.499 0.033,2.52928 -1.6429,4.51719 -6.0201,7.14247 -3.1356,1.88065 -3.8481,2.51709 -4.6147,4.12202 -0.8433,1.76556 -0.813,3.48119 0.092,5.24095 1.2971,2.52065 3.9212,4.38232 7.0795,5.02259 2.6772,0.54272 4.6216,0.23646 7.5596,-1.19075 1.0001,-0.48582 2.275,-1.02825 2.8332,-1.20539 2.3322,-0.74016 5.5114,-0.59224 8.586,0.39947 2.0454,0.65973 4.1273,1.55314 4.0613,1.74278 -0.031,0.089 -5.8031,3.16843 -12.8269,6.8432 -11.4682,6.00005 -12.7681,6.72968 -12.7467,7.15487 0.013,0.2604 0.1882,1.87073 0.3893,3.5785 0.5905,5.01612 0.2537,11.81538 -0.8486,17.1278 -0.5915,2.85112 -1.7218,6.92953 -2.9147,10.51707 -1.8749,5.63834 -2.4693,9.53666 -2.4591,16.12617 0.012,7.4013 1.4368,14.16186 4.5459,21.56183 0.503,1.19718 0.8786,2.17669 0.8347,2.17669 -0.044,0 -1.5201,-0.87119 -3.2805,-1.93598 -3.3397,-2.02008 -5.8812,-3.71821 -8.408,-5.61803 -2.2025,-1.65592 -6.9913,-6.31824 -8.4962,-8.27167 -0.7214,-0.93652 -1.3573,-1.74784 -1.413,-1.80293 -0.056,-0.0551 -0.036,1.02667 0.045,2.4039 0.1654,2.83564 -0.1238,5.76533 -0.7652,7.75215 -0.2253,0.69772 -0.9333,2.32642 -1.5735,3.61935 -2.1375,4.31701 -2.7168,6.52757 -2.526,9.639 0.1021,1.66459 0.7471,5.50077 1.1324,6.7345 0.2406,0.7704 -7.8747,-6.7734 -10.4818,-9.74368 -3.6488,-4.15715 -5.9946,-8.94007 -6.3484,-12.94382 -0.071,-0.80578 -0.2001,-1.4395 -0.2864,-1.40827 -0.086,0.0312 -8.3824,6.63747 -18.4357,14.68052 -10.0534,8.04305 -18.449,14.74153 -18.6569,14.8855 -0.2204,0.15259 -0.3781,0.17601 -0.3781,0.0562 z m 57.9254,-88.76712 c 4.8849,-1.191 8.4493,-4.05058 10.2067,-8.18846 0.7408,-1.7442 1.003,-3.17173 0.9899,-5.38922 -0.036,-6.08304 -3.9641,-10.76978 -9.8703,-11.77667 -2.2875,-0.38997 -5.1251,-0.22153 -4.9069,0.29129 1.4306,3.36289 1.9994,6.4653 1.9926,10.8677 -0.01,5.69431 -1.4212,11.35315 -3.4773,13.93212 -0.2818,0.35355 -0.5124,0.70721 -0.5124,0.78591 0,0.25444 3.8828,-0.1094 5.5777,-0.52267 z m -27.2214,-15.10266 c 1.3422,-0.62638 2.0158,-1.12821 3.6412,-2.71264 l 1.9944,-1.94408 1.9754,-0.46698 c 2.3526,-0.55615 2.9349,-0.98881 2.9349,-2.18075 0,-0.62118 -0.121,-0.88699 -0.5517,-1.21105 -0.7433,-0.55938 -1.4596,-0.52567 -4.6146,0.21714 -2.0521,0.48312 -3.1799,0.63617 -4.7797,0.64861 -2.3512,0.0183 -2.7851,-0.0896 -5.9677,-1.48332 -2.7865,-1.22035 -4.182,-1.48351 -7.1797,-1.35399 -3.3615,0.14523 -4.5251,0.68773 -4.5395,2.11637 0,0.44501 0.166,0.82531 0.523,1.16689 0.5277,0.50478 0.5397,0.50619 3.118,0.36567 l 2.5883,-0.14108 0.017,1.17836 c 0.043,2.92985 1.6556,5.26016 4.3612,6.30261 0.7961,0.30671 1.4069,0.3752 2.9195,0.32733 1.7254,-0.0546 2.0742,-0.13584 3.5597,-0.82909 z m -112.5668,68.54504 c -4.1927,-10.93507 -6.2497,-19.18038 -6.9093,-27.69495 -0.1194,-1.5425 -0.2176,-3.10855 -0.218,-3.48011 l 0,-0.67556 -1.8491,0.0846 c -2.4168,0.11055 -3.6816,0.69487 -6.0845,2.81094 -2.5759,2.26842 -4.6028,3.13131 -8.1292,3.4606 l -1.3006,0.12145 0.4186,-1.16094 c 0.5677,-1.57443 1.2207,-4.03211 1.5858,-5.96876 0.4614,-2.44688 0.5869,-10.76007 0.2162,-14.32324 -0.1661,-1.59759 -0.2882,-2.92125 -0.2713,-2.94145 0.017,-0.0202 1.1129,0.10167 2.4353,0.27084 2.9879,0.38221 8.7176,0.26479 11.1989,-0.22952 4.8603,-0.96822 9.2008,-3.03337 12.5981,-5.99397 l 1.2909,-1.12501 0.9936,1.75427 c 7.5047,13.24994 16.2804,21.20053 28.3204,25.65761 2.2905,0.84792 4.8291,1.57279 8.6212,2.46169 l 0.9422,0.22088 -2.8268,0.94844 c -19.6839,6.60437 -32.774,15.67022 -38.6909,26.79626 -0.5437,1.02231 -1.0465,1.85916 -1.1173,1.85967 -0.071,6e-4 -0.6214,-1.28367 -1.2234,-2.85372 z m 61.866,-39.53562 c -4.2459,-0.58146 -7.0996,-1.22429 -10.0735,-2.26911 -6.8213,-2.39654 -12.2537,-6.34617 -14.4794,-10.52725 -0.9907,-1.861 -1.3351,-3.26522 -1.4503,-5.91254 -0.1334,-3.06752 0.1721,-4.51153 1.5139,-7.15708 0.7655,-1.50921 1.2541,-2.15268 2.6626,-3.50597 2.7285,-2.62151 5.8462,-4.09195 9.9132,-4.67542 l 0.9888,-0.14187 -0.7472,1.27969 c -0.4109,0.70382 -1.0777,2.04592 -1.4818,2.98244 -3.9098,9.06192 -0.9021,16.51075 8.3377,20.64893 9.0012,4.03136 23.157,3.95773 35.9628,-0.18704 1.3532,-0.43798 2.4604,-0.76408 2.4604,-0.72466 0,0.15322 -4.7868,3.49389 -6.124,4.27389 -4.511,2.63132 -9.4258,4.4202 -15.0245,5.46858 -1.739,0.32564 -3.2053,0.42442 -7.0146,0.47257 -2.6488,0.0335 -5.0987,0.0222 -5.4441,-0.0252 z m -110.16,-11.58177 c -1.8526,-0.40406 -3.3492,-1.20408 -4.7378,-2.53262 -5.0533,-4.83455 -2.8854,-12.98422 3.9952,-15.0186 2.1584,-0.63819 5.2343,-0.46557 6.8999,0.38723 0.3771,0.19305 0.3714,0.12706 -0.093,-1.09807 -0.8784,-2.31511 -0.5377,-4.23783 0.998,-5.6325 1.2248,-1.1124 4.2622,-2.19515 7.1972,-2.56563 1.6275,-0.20544 1.6806,-0.23733 2.4924,-1.49548 1.7154,-2.65894 4.6065,-4.05811 8.3484,-4.0404 1.6077,0.008 1.636,-10e-4 2.3033,-0.71274 3.02,-3.22025 5.8631,-4.50059 10.783,-4.85594 2.885,-0.20838 3.0055,-0.2637 3.8452,-1.76464 0.2397,-0.42854 0.2195,-0.52302 -0.1751,-0.81818 -0.2454,-0.18353 -3.3271,-2.76764 -6.8483,-5.74247 l -6.4021,-5.40878 8.0827,-3.86774 c 4.4455,-2.12725 8.1207,-3.83135 8.1671,-3.78692 0.047,0.0444 1.2597,3.85828 2.6962,8.47521 1.4364,4.61692 2.6837,8.55022 2.7717,8.74066 0.1373,0.29692 6.9109,-3.0361 47.5341,-23.38929 l 47.374,-23.73552 14.9417,0.0514 14.9417,0.0514 -9.0258,9.6989 -9.0258,9.6989 -49.7301,18.47926 c -27.3515,10.16359 -49.8561,18.55532 -50.0102,18.64829 -0.2057,0.12414 1.2054,1.73894 5.3107,6.07744 3.075,3.24962 5.8799,6.20002 6.2332,6.55645 0.3533,0.35643 0.589,0.6992 0.5236,0.76172 -0.065,0.0625 -3.0741,1.41359 -6.6862,3.00238 -5.7086,2.51098 -6.5868,2.84359 -6.7167,2.54364 -0.082,-0.18979 -1.1081,-3.72555 -2.2798,-7.85726 -2.3394,-8.24939 -2.3781,-8.33285 -3.9984,-8.62246 -1.1619,-0.20766 -2.2589,0.021 -3.3181,0.6916 -1.171,0.74137 -1.6663,1.81016 -1.9008,4.10194 -0.1084,1.05921 -0.5004,3.93478 -0.8711,6.39017 l -0.674,4.46434 -2.8267,-2.41728 c -3.403,-2.91003 -4.0586,-3.28526 -5.7583,-3.29612 -1.4958,-0.01 -2.5008,0.46723 -3.1188,1.47959 -0.4838,0.79246 -0.4879,1.12243 -0.08,6.42317 0.1651,2.14849 0.2891,3.92508 0.2754,3.94799 -0.014,0.0229 -1.4344,-1.03613 -3.1572,-2.3534 -3.4406,-2.63087 -4.3696,-3.07082 -6.5187,-3.08718 -0.9899,-0.008 -1.4282,0.0869 -1.8716,0.40318 -1.0964,0.78215 -1.3922,1.36548 -1.4989,2.95502 -0.142,2.11787 0.3515,4.44946 1.5345,7.24919 0.1656,0.39203 -3.5405,-2.7939 -6.5557,-5.6356 l -1.5181,-1.43071 0,1.22941 c -0.01,3.7474 -2.8199,7.30125 -6.6982,8.46224 -1.426,0.42686 -3.6935,0.51263 -5.1507,0.1948 z"
         style="fill:#ffffff" />
    </g>
    <g
       transform="matrix(0.02172288,0,0,0.01878644,210.47764,306.89114)"
       id="layer1-8-7-2-3-2-3"
       inkscape:label="Laag 1"
       style="fill:#ffffff">
      <path
         inkscape:connector-curvature="0"
         id="path3874-6-2-8-7-1"
         d="m 310.61525,406.26601 c -28.11924,-1.03479 -51.69454,-4.74888 -62.27911,-9.81158 -7.47459,-3.57517 -7.76195,-7.24594 -0.86327,-11.02805 7.54399,-4.13589 26.58712,-7.78499 48.96001,-9.38187 11.32227,-0.80813 16.40846,-0.96856 30.70792,-0.96856 19.34811,0 31.79101,0.67465 47.11013,2.55427 20.10819,2.46725 34.69917,6.96264 36.99597,11.39825 1.40546,2.71421 -0.22477,4.99775 -5.30144,7.42596 -10.76826,5.15054 -33.90132,8.75016 -63.14239,9.82522 -7.48706,0.27524 -24.53355,0.26802 -32.18782,-0.0136 z m -72.4716,-34.26197 c -2.97387,-0.5766 -5.87887,-2.78336 -7.10403,-5.39657 -0.61502,-1.3118 -0.70892,-1.8025 -0.70892,-3.70479 0,-1.98707 0.0759,-2.34455 0.80916,-3.8115 2.95591,-5.91354 11.21451,-7.25541 16.17972,-2.62891 4.6789,4.35973 3.44837,11.76448 -2.42538,14.59475 -2.29279,1.10477 -4.40707,1.40137 -6.75055,0.94702 z m 173.84473,-0.007 c -2.49417,-0.47991 -5.18907,-2.27595 -6.52744,-4.3503 -2.27044,-3.51897 -1.63364,-8.26379 1.50109,-11.18468 4.96521,-4.62651 13.22381,-3.28464 16.17972,2.62891 0.73325,1.46695 0.80914,1.82443 0.80914,3.8115 0,1.90228 -0.0939,2.39299 -0.70891,3.70478 -1.87069,3.99012 -6.6447,6.27657 -11.2536,5.38979 z m -135.23301,-9.59113 c -3.14784,-0.75136 -5.94875,-2.6783 -7.08642,-4.87522 -0.92573,-1.78765 -0.87639,-4.31897 0.12202,-6.26033 1.54936,-3.01267 5.2621,-5.63746 9.49975,-6.71599 2.30615,-0.58694 6.40795,-0.64004 8.51925,-0.11028 4.74109,1.18961 7.5963,4.15776 7.60911,7.9101 0.0153,4.45231 -4.70441,8.7428 -11.07204,10.06539 -2.139,0.44429 -5.69994,0.43787 -7.59167,-0.0137 z m 93.05587,0.0142 c -2.27004,-0.50428 -4.06075,-1.24772 -5.97093,-2.47893 -5.32776,-3.43406 -6.55267,-8.66221 -2.93533,-12.52856 1.14012,-1.2186 3.40417,-2.42598 5.56665,-2.96857 2.11129,-0.52976 6.21311,-0.47667 8.51926,0.11028 4.23764,1.07852 7.95039,3.70331 9.49974,6.71598 0.98143,1.90833 1.04793,4.486 0.15917,6.17016 -1.10499,2.09395 -3.05769,3.60683 -5.95916,4.61693 -2.05963,0.71703 -6.47286,0.89731 -8.8794,0.36271 z m -46.74435,-1.93403 c -5.74214,-1.29619 -9.48286,-4.75478 -9.48941,-8.7737 -0.003,-2.25348 0.57252,-3.57973 2.31352,-5.32499 2.68039,-2.68693 6.49792,-4.06705 11.2498,-4.06705 4.75188,0 8.5694,1.38012 11.2498,4.06705 1.741,1.74526 2.31723,3.07151 2.31353,5.32499 -0.006,3.7077 -3.43384,7.14576 -8.51551,8.54104 -1.98564,0.54519 -7.15329,0.677 -9.12173,0.23266 z M 219.17934,340.48256 c -13.81234,-16.21932 -25.4839,-33.11296 -32.69047,-47.31687 -7.12103,-14.03526 -10.23023,-25.45295 -9.33365,-34.27529 0.57386,-5.64672 2.24513,-9.35554 5.80959,-12.89231 4.86387,-4.82608 11.41252,-7.23893 22.08427,-8.13691 5.4723,-0.46047 15.36773,0.05 23.67839,1.22157 1.83139,0.25817 3.39931,0.39433 3.48431,0.30259 0.085,-0.0918 0.38773,-0.79315 0.67276,-1.55866 3.64967,-9.80211 12.10442,-16.73919 23.3009,-19.1183 12.50194,-2.65651 28.42166,0.65219 42.40062,8.81238 l 1.90653,1.11292 7.03453,0.16713 7.03454,0.16713 -0.006,-3.8659 -0.006,-3.86591 -1.58036,-1.26369 c -2.83052,-2.26336 -5.41063,-6.26887 -6.46459,-10.03605 -0.62268,-2.22553 -0.61786,-7.56224 0.009,-9.59871 1.23289,-4.00769 2.91069,-6.73085 5.78901,-9.39593 2.75583,-2.55165 5.22965,-3.85886 9.84242,-5.20093 0.23698,-0.0689 0.30832,-1.6376 0.30832,-6.77997 l 0,-6.69028 -5.4263,0 -5.42631,0 0,-4.85536 0,-4.85536 5.36464,-0.0655 5.36464,-0.0655 0.0657,-6.37889 0.0657,-6.37889 4.67816,0 4.67816,0 0.0657,6.37889 0.0657,6.37889 5.36464,0.0655 5.36463,0.0655 0,4.85536 0,4.85536 -5.42629,0 -5.4263,0 0,6.69028 c 0,5.14237 0.0713,6.71102 0.3083,6.77997 4.98408,1.45009 7.16334,2.64785 10.19928,5.60567 2.61278,2.54557 3.91513,4.5758 5.06606,7.89767 0.7491,2.16205 0.80054,2.52445 0.81022,5.71062 0.0119,3.90564 -0.30806,5.39525 -1.82668,8.50519 -1.24216,2.54373 -3.11231,4.94433 -5.0734,6.51247 l -1.58035,1.26369 -0.006,3.86591 -0.006,3.8659 7.03405,-0.16712 7.03407,-0.16711 2.11677,-1.23181 c 13.62073,-7.92626 29.54159,-11.29091 41.72444,-8.81784 11.40255,2.31467 20.08098,9.34079 23.76778,19.24262 0.28503,0.76551 0.58776,1.46659 0.67277,1.55795 0.085,0.0914 2.04138,-0.0901 4.34755,-0.40327 2.30618,-0.31316 5.80244,-0.71027 7.76948,-0.88247 4.63827,-0.40604 14.72431,-0.41637 17.7588,-0.0182 9.60247,1.26008 15.49551,3.74874 19.9135,8.40957 6.76595,7.13787 7.20079,18.72495 1.30032,34.65026 -6.08602,16.42605 -20.05886,38.21063 -38.06177,59.34074 l -3.66672,4.30365 -6.88484,-3.39321 c -3.78621,-1.86628 -6.88438,-3.44566 -6.88438,-3.50975 0,-0.0641 2.26132,-3.42629 5.02513,-7.47157 15.33172,-22.44049 24.0104,-39.21064 26.88261,-51.94652 2.80569,-12.44095 -0.16795,-20.32605 -8.96931,-23.7836 -3.65187,-1.4346 -6.36019,-1.82451 -12.7736,-1.83897 -4.56156,-0.0103 -5.78637,0.0545 -5.94949,0.31448 -0.11297,0.18009 -0.27932,1.16391 -0.3697,2.18628 -1.28447,14.53239 -7.66642,32.9146 -18.17654,52.35468 -7.30728,13.516 -13.12355,23.74222 -13.50325,23.74157 -0.31312,-4.9e-4 -15.46246,-3.13211 -18.20982,-3.76422 -0.51424,-0.11831 -0.46318,-0.27598 1.20084,-3.70769 6.13943,-12.66147 11.39582,-26.71549 14.38279,-38.45537 2.1035,-8.26739 3.02957,-14.2282 3.25036,-20.92141 0.32312,-9.79444 -1.54593,-16.59861 -5.70279,-20.76101 -1.71837,-1.72063 -3.02413,-2.58464 -5.30907,-3.51295 -6.29986,-2.55948 -16.52485,-1.99187 -30.05664,1.66848 -1.94308,0.52561 -3.57124,0.99345 -3.61816,1.03966 -0.0469,0.0462 -1.93709,18.72831 -4.20039,41.5158 -2.26333,22.78749 -4.16844,41.48648 -4.23355,41.5533 -0.0652,0.0669 -4.65061,0.1215 -10.18995,0.1215 -5.53934,0 -10.1248,-0.0547 -10.18995,-0.1215 -0.0652,-0.0668 -1.97021,-18.76581 -4.23352,-41.5533 -2.26334,-22.78749 -4.15354,-41.4696 -4.20043,-41.5158 -0.0469,-0.0462 -1.67506,-0.51405 -3.61816,-1.03966 -13.53177,-3.66035 -23.75675,-4.22796 -30.05663,-1.66848 -2.28494,0.92831 -3.5907,1.79232 -5.30907,3.51295 -5.84688,5.85467 -7.28932,17.69908 -4.15874,34.14925 2.50323,13.15369 8.55372,30.44818 16.0891,45.98854 1.66403,3.43171 1.71509,3.58938 1.20085,3.70769 -2.74737,0.63211 -17.8967,3.76368 -18.20982,3.76422 -0.3797,7.2e-4 -6.19598,-10.22557 -13.50325,-23.74157 -6.66449,-12.32699 -11.61436,-24.01417 -14.69666,-34.70049 -1.58283,-5.48764 -3.0725,-13.04495 -3.47989,-17.65419 -0.0904,-1.02237 -0.23901,-1.97795 -0.33033,-2.12353 -0.26192,-0.41755 -7.59492,-0.61641 -10.8071,-0.29307 -11.12374,1.1197 -16.82371,5.8907 -17.83275,14.92637 -1.20014,10.74703 5.73885,28.27914 20.30993,51.31542 1.35264,2.13845 4.71982,7.19786 7.48262,11.24314 2.7628,4.04528 5.02328,7.40749 5.02328,7.47157 0,0.0641 -3.09936,1.64405 -6.88744,3.51102 l -6.88745,3.39451 -3.66605,-4.30494 z"
         style="fill:#ffffff" />
    </g>
  </g>
</svg>
