<?xml version="1.0" encoding="utf-8"?>
<!-- Generator: Adobe Illustrator 26.3.1, SVG Export Plug-In . SVG Version: 6.00 Build 0)  -->
<svg version="1.1" id="Layer_1" xmlns="http://www.w3.org/2000/svg" xmlns:xlink="http://www.w3.org/1999/xlink" x="0px" y="0px"
	 viewBox="0 0 1041.8 698.8" style="enable-background:new 0 0 1041.8 698.8;" xml:space="preserve">
<style type="text/css">
	.st0{fill:#FFFFFF;}
	.st1{fill:#DBDBDE;stroke:#000000;stroke-miterlimit:10;}
	.st2{fill:none;stroke:#000000;stroke-miterlimit:10;}
	.st3{fill:none;stroke:#000000;stroke-width:3;stroke-miterlimit:10;}
	.st4{fill:#0000FF;stroke:#000000;stroke-width:5;stroke-miterlimit:10;}
	.st5{fill:#FFFF00;}
	.st6{fill:#FF0000;stroke:#000000;stroke-width:2;stroke-miterlimit:10;}
	.st7{fill:#009200;}
	.st8{fill:#926D00;stroke:#FFFFFF;stroke-miterlimit:10;}
	.st9{fill:#FFFFFF;stroke:#000000;stroke-miterlimit:10;}
</style>
<rect class="st0" width="1041.8" height="698.8"/>
<g>
	<path d="M233.3,587v1.5c-1.8,0.3-3.2,1-4.1,1.8c-1.3,1.3-2.5,3.3-3.6,6l-18,45.9h-1.4l-19.3-46.5c-1-2.4-1.7-3.8-2.1-4.4
		c-0.6-0.8-1.4-1.5-2.3-1.9s-2.2-0.8-3.7-0.9V587h21.1v1.5c-2.4,0.2-3.9,0.7-4.6,1.3c-0.7,0.6-1.1,1.4-1.1,2.3
		c0,1.3,0.6,3.4,1.7,6.2l13.1,31.6l12.2-31.2c1.2-3.1,1.8-5.2,1.8-6.4c0-0.8-0.4-1.5-1.1-2.2c-0.7-0.7-2-1.2-3.7-1.5
		c-0.1,0-0.3-0.1-0.6-0.1V587H233.3z"/>
	<path d="M258.3,639.4v1.5h-22.1v-1.5h1.8c2.1,0,3.7-0.6,4.6-1.9c0.6-0.8,0.9-2.9,0.9-6.1v-34.8c0-2.7-0.2-4.5-0.5-5.4
		c-0.3-0.7-0.8-1.2-1.6-1.7c-1.1-0.6-2.3-1-3.5-1h-1.8V587h22.1v1.5h-1.9c-2.1,0-3.6,0.6-4.6,1.9c-0.6,0.8-1,2.9-1,6.1v34.8
		c0,2.7,0.2,4.5,0.5,5.4c0.3,0.7,0.8,1.2,1.6,1.7c1.1,0.6,2.2,1,3.5,1H258.3z"/>
	<path d="M304.9,626l1.3,0.3l-4.4,14.6h-39.9v-1.5h1.9c2.2,0,3.7-0.7,4.7-2.2c0.5-0.8,0.8-2.8,0.8-5.9v-34.8c0-3.4-0.4-5.5-1.1-6.3
		c-1-1.2-2.5-1.7-4.4-1.7h-1.9V587h23.3v1.5c-2.7,0-4.7,0.2-5.8,0.8c-1.1,0.6-1.9,1.3-2.3,2.1c-0.4,0.8-0.6,2.9-0.6,6.1v33.9
		c0,2.2,0.2,3.7,0.6,4.5c0.3,0.6,0.8,1,1.4,1.2c0.6,0.3,2.6,0.4,5.9,0.4h3.8c4,0,6.7-0.3,8.3-0.9c1.6-0.6,3.1-1.7,4.4-3.2
		C302.2,631.8,303.5,629.3,304.9,626z"/>
	<path d="M352.4,626l1.3,0.3l-4.4,14.6h-39.9v-1.5h1.9c2.2,0,3.7-0.7,4.7-2.2c0.5-0.8,0.8-2.8,0.8-5.9v-34.8c0-3.4-0.4-5.5-1.1-6.3
		c-1-1.2-2.5-1.7-4.4-1.7h-1.9V587h23.3v1.5c-2.7,0-4.7,0.2-5.8,0.8c-1.1,0.6-1.9,1.3-2.3,2.1c-0.4,0.8-0.6,2.9-0.6,6.1v33.9
		c0,2.2,0.2,3.7,0.6,4.5c0.3,0.6,0.8,1,1.4,1.2c0.6,0.3,2.6,0.4,5.9,0.4h3.8c4,0,6.7-0.3,8.3-0.9c1.6-0.6,3.1-1.7,4.4-3.2
		C349.8,631.8,351.1,629.3,352.4,626z"/>
	<path d="M371.6,589.9v21.3H383c2.9,0,4.9-0.5,5.9-1.4c1.3-1.2,2.1-3.4,2.2-6.4h1.4v18.8h-1.4c-0.4-2.6-0.7-4.3-1.1-5
		c-0.5-0.9-1.2-1.7-2.2-2.2c-1-0.5-2.6-0.8-4.8-0.8h-11.3v17.8c0,2.4,0.1,3.8,0.3,4.4c0.2,0.5,0.6,0.9,1.1,1.2
		c0.5,0.3,1.5,0.5,2.9,0.5h8.7c2.9,0,5-0.2,6.4-0.6c1.3-0.4,2.6-1.3,3.8-2.5c1.6-1.6,3.2-4.1,4.8-7.4h1.5l-4.4,13.5H357v-1.5h1.8
		c1.2,0,2.4-0.3,3.5-0.9c0.8-0.4,1.4-1.1,1.7-1.9c0.3-0.8,0.4-2.6,0.4-5.2v-35c0-3.4-0.3-5.5-1-6.3c-0.9-1.1-2.4-1.6-4.6-1.6H357
		V587h39.7l0.6,11.8h-1.5c-0.5-2.8-1.1-4.8-1.8-5.8c-0.6-1.1-1.6-1.9-2.9-2.4c-1-0.4-2.8-0.6-5.4-0.6H371.6z"/>
</g>
<g>
	<path d="M443.9,642.1v-1.5h1.9c2.2,0,3.7-0.7,4.6-2.2c0.6-0.9,0.8-2.8,0.8-5.9v-34.8c0-3.4-0.4-5.5-1.1-6.3c-1-1.2-2.5-1.7-4.4-1.7
		h-1.9v-1.5h21c7.7,0,13.6,0.9,17.6,2.7c4,1.8,7.2,4.9,9.7,9.1s3.7,9.2,3.7,14.8c0,7.5-2.2,13.8-6.5,18.8
		c-4.9,5.6-12.3,8.4-22.4,8.4H443.9z M458.6,638.2c3.2,0.7,5.9,1.1,8.1,1.1c5.9,0,10.8-2.2,14.6-6.5c3.9-4.3,5.8-10.2,5.8-17.6
		c0-7.4-1.9-13.3-5.8-17.6c-3.9-4.3-8.9-6.4-14.9-6.4c-2.3,0-4.9,0.4-7.8,1.2V638.2z"/>
	<path d="M515,591.1v21.3h11.3c2.9,0,4.9-0.5,5.9-1.4c1.3-1.2,2.1-3.4,2.2-6.4h1.4v18.8h-1.4c-0.4-2.6-0.7-4.3-1.1-5
		c-0.5-0.9-1.2-1.7-2.2-2.2c-1-0.5-2.6-0.8-4.8-0.8H515v17.8c0,2.4,0.1,3.8,0.3,4.4c0.2,0.5,0.6,0.9,1.1,1.2
		c0.5,0.3,1.5,0.5,2.9,0.5h8.7c2.9,0,5-0.2,6.4-0.6c1.3-0.4,2.6-1.3,3.8-2.5c1.6-1.6,3.2-4.1,4.8-7.4h1.5l-4.4,13.5h-39.7v-1.5h1.8
		c1.2,0,2.4-0.3,3.5-0.9c0.8-0.4,1.4-1.1,1.7-1.9c0.3-0.8,0.4-2.6,0.4-5.2v-35c0-3.4-0.3-5.5-1-6.3c-0.9-1.1-2.4-1.6-4.6-1.6h-1.8
		v-1.5h39.7l0.6,11.8h-1.5c-0.5-2.8-1.1-4.8-1.8-5.8c-0.6-1.1-1.6-1.9-2.9-2.4c-1-0.4-2.8-0.6-5.4-0.6H515z"/>
</g>
<g>
	<path d="M585.4,642.1v-1.5h1.9c2.2,0,3.7-0.7,4.6-2.2c0.6-0.9,0.8-2.8,0.8-5.9v-34.8c0-3.4-0.4-5.5-1.1-6.3c-1-1.2-2.5-1.7-4.4-1.7
		h-1.9v-1.5h21c7.7,0,13.6,0.9,17.6,2.7c4,1.8,7.2,4.9,9.7,9.1s3.7,9.2,3.7,14.8c0,7.5-2.2,13.8-6.5,18.8
		c-4.9,5.6-12.3,8.4-22.4,8.4H585.4z M600.2,638.2c3.2,0.7,5.9,1.1,8.1,1.1c5.9,0,10.8-2.2,14.6-6.5c3.9-4.3,5.8-10.2,5.8-17.6
		c0-7.4-1.9-13.3-5.8-17.6c-3.9-4.3-8.9-6.4-14.9-6.4c-2.3,0-4.9,0.4-7.8,1.2V638.2z"/>
	<path d="M676,624.1h-20l-3.5,8.5c-0.9,2.1-1.3,3.7-1.3,4.7c0,0.8,0.4,1.5,1.1,2.2c0.7,0.6,2.4,1,4.8,1.2v1.5H641v-1.5
		c2.2-0.4,3.5-0.9,4.2-1.6c1.3-1.3,2.7-3.9,4.3-7.8l18.1-44.4h1.3l17.9,44.8c1.4,3.6,2.8,5.9,3.9,7c1.2,1.1,2.8,1.7,4.9,1.8v1.5
		h-20.3v-1.5c2.1-0.1,3.4-0.5,4.2-1.1c0.7-0.6,1.1-1.4,1.1-2.2c0-1.2-0.5-3-1.5-5.5L676,624.1z M674.9,621.1l-8.7-21.8l-9,21.8
		H674.9z"/>
	<path d="M719.9,612.2l19,19.8c3.1,3.3,5.8,5.5,8,6.7c2.2,1.2,4.4,1.8,6.6,2v1.5H729v-1.5c1.5,0,2.5-0.3,3.2-0.8
		c0.6-0.5,1-1.1,1-1.7c0-0.6-0.1-1.2-0.4-1.7c-0.2-0.5-1-1.4-2.4-2.8l-17.8-18.4v17.4c0,2.7,0.2,4.5,0.5,5.4
		c0.3,0.7,0.8,1.2,1.6,1.7c1.1,0.6,2.2,1,3.5,1h1.7v1.5h-22v-1.5h1.8c2.1,0,3.7-0.6,4.6-1.9c0.6-0.8,0.9-2.9,0.9-6.1v-34.8
		c0-2.7-0.2-4.5-0.5-5.4c-0.3-0.6-0.8-1.2-1.6-1.7c-1.1-0.6-2.3-1-3.5-1h-1.8v-1.5h22v1.5h-1.7c-1.2,0-2.3,0.3-3.5,0.9
		c-0.8,0.4-1.3,1.1-1.6,1.9c-0.3,0.8-0.5,2.6-0.5,5.2v16.5c0.5-0.5,2.2-2.2,5.2-5c7.5-7.2,12.1-12,13.7-14.4c0.7-1.1,1-2,1-2.8
		c0-0.6-0.3-1.1-0.8-1.6s-1.4-0.7-2.7-0.7h-1.2v-1.5h18.9v1.5c-1.1,0-2.1,0.2-3,0.5c-0.9,0.3-2,0.9-3.3,1.7c-1.3,0.8-2.9,2.2-4.9,4
		c-0.6,0.5-3.1,3.2-7.7,8.2L719.9,612.2z"/>
	<path d="M788.5,624.1h-20l-3.5,8.5c-0.9,2.1-1.3,3.7-1.3,4.7c0,0.8,0.4,1.5,1.1,2.2c0.7,0.6,2.4,1,4.8,1.2v1.5h-16.2v-1.5
		c2.2-0.4,3.5-0.9,4.2-1.6c1.3-1.3,2.7-3.9,4.3-7.8l18.1-44.4h1.3l17.9,44.8c1.4,3.6,2.8,5.9,3.9,7c1.2,1.1,2.8,1.7,4.9,1.8v1.5
		h-20.3v-1.5c2.1-0.1,3.4-0.5,4.2-1.1c0.7-0.6,1.1-1.4,1.1-2.2c0-1.2-0.5-3-1.5-5.5L788.5,624.1z M787.4,621.1l-8.7-21.8l-9,21.8
		H787.4z"/>
	<path d="M861.7,642.1h-13.8l-17.5-25.2c-1.3,0.1-2.3,0.1-3.2,0.1c-0.3,0-0.7,0-1.1,0c-0.4,0-0.8,0-1.2-0.1v15.7
		c0,3.4,0.4,5.5,1.1,6.3c1,1.2,2.4,1.8,4.3,1.8h2v1.5h-22.1v-1.5h1.9c2.2,0,3.7-0.7,4.7-2.2c0.5-0.8,0.8-2.8,0.8-5.8v-34.8
		c0-3.4-0.4-5.5-1.1-6.3c-1-1.2-2.5-1.7-4.4-1.7h-1.9v-1.5h18.8c5.5,0,9.5,0.4,12.1,1.3c2.6,0.8,4.8,2.4,6.6,4.6
		c1.8,2.2,2.7,4.9,2.7,8c0,3.3-1,6.2-3.1,8.6c-2.1,2.4-5.3,4.2-9.6,5.2l10.6,15.5c2.4,3.6,4.5,5.9,6.3,7.1s4,1.9,6.8,2.2V642.1z
		 M825.1,614.4c0.5,0,0.9,0,1.3,0c0.4,0,0.6,0,0.9,0c4.9,0,8.6-1.1,11.1-3.3c2.5-2.2,3.7-5.1,3.7-8.5c0-3.4-1-6.1-3-8.2
		c-2-2.1-4.7-3.2-8-3.2c-1.5,0-3.5,0.3-6,0.8V614.4z"/>
</g>
<path class="st1" d="M377.8,171.4c6.5-3,16.3-7.1,28.8-10.6c20.8-5.8,36.4-6.2,60.2-6.6c44.6-0.9,85.5-1.4,123,1.7
	c6.2,0.5,16.5,1.5,29.6,4.7c13.1,3.2,23.4,7.4,30,10.3l34-69.7l-17.6-10.2l-3.7,8.7l-17.8-7.3l2.5-9.2l-19.4-3.4L624.8,98l-5.8,0.2
	l-1,5.7l-12.3-0.9l0.7-6.5l-11.9-1.1l-1.6,6.3l-11.6-0.6v-7.9h-13.5v7.7h-14.3l1.8-8.5h-12.9l5.2-20.1l-11.1-2.9l-1.9,6.6l-14.6-1.9
	v-7.7h-18v7l-11.7,2.5l-3.4-7.6l-10.3,3.6l4.3,20.3h-14l2.1,8.8h-12.9l-2.6-7.8l-11.6,1.6l1.6,6.7l-12.6,2.5L429,95l-11.6,1.7
	l2.6,8.1l-13.3,2.1l-2.6-8.8l-6.4,1.2l-5.1-18.9l-18.1,5.5l3.3,9.3l-16.7,8.4l-4.9-9.1l-14.8,9.9L377.8,171.4z"/>
<path d="M391.8,141.7c-1.9-4.4-5.8-6.9-8.9-5.8c-3.2,1.2-4.4,5.6-3,10.2l0,0l7.7,20.7l12-4.4L391.8,141.7L391.8,141.7z"/>
<path d="M636.9,139.8c2.1-4.8,6.1-7.7,9.2-6.5c3.2,1.2,4.3,6,2.8,11l0,0l-8.4,22.7l-12.1-4.5L636.9,139.8L636.9,139.8z"/>
<path d="M519.6,129.5c-0.3-5.2-3-9.2-6.4-9.2c-3.4,0-6.1,4.1-6.4,9.2h0l0,24l12.8,0L519.6,129.5L519.6,129.5z"/>
<path class="st2" d="M357.3,133.5c6-3.3,13.1-6.8,21.2-9.9c6.8-2.6,13.2-4.6,19.1-6.1"/>
<line class="st3" x1="393.1" y1="98.6" x2="409.8" y2="159.9"/>
<path class="st2" d="M348.9,118c10.7-5.6,22.3-11.1,34.8-16.1c3.6-1.4,7.1-2.8,10.6-4.1"/>
<line class="st2" x1="345.3" y1="111.3" x2="361.2" y2="103.6"/>
<line class="st2" x1="348.7" y1="99.5" x2="353" y2="107.5"/>
<line class="st2" x1="358.4" y1="104.9" x2="361.5" y2="111.7"/>
<line class="st2" x1="369.8" y1="99.2" x2="372.6" y2="106.6"/>
<line class="st2" x1="377.9" y1="95.2" x2="390.4" y2="89.9"/>
<line class="st2" x1="383.3" y1="83.2" x2="386.4" y2="91.6"/>
<line class="st2" x1="382.7" y1="93.2" x2="385.6" y2="101.1"/>
<path class="st2" d="M358.7,118l2.5,4.9c5.5-3.1,11.9-6.3,19.3-9.2c5.1-2,9.9-3.6,14.4-4.8"/>
<line class="st2" x1="381.5" y1="105.6" x2="384.7" y2="111.9"/>
<line class="st2" x1="367.6" y1="108.8" x2="370.5" y2="114.1"/>
<line class="st2" x1="366.8" y1="119.9" x2="370.5" y2="126.9"/>
<line class="st2" x1="379.1" y1="114.3" x2="382.3" y2="122.1"/>
<line class="st2" x1="391.9" y1="109.8" x2="394.9" y2="118.2"/>
<line class="st2" x1="365.3" y1="129.1" x2="369.6" y2="138"/>
<path class="st2" d="M366.8,139.1c5.2-2.4,10.8-4.7,16.8-7c4.3-1.6,8.6-3.1,12.6-4.4"/>
<line class="st2" x1="390" y1="119.6" x2="394.1" y2="128.5"/>
<line class="st2" x1="377.2" y1="124.1" x2="379.1" y2="129.9"/>
<path class="st2" d="M366.1,149.9c5.1-2.8,11-5.8,17.8-8.5c7.2-2.8,13.9-4.8,19.8-6.2"/>
<line class="st2" x1="376.8" y1="134.8" x2="380.2" y2="141.6"/>
<line class="st2" x1="387.7" y1="130.6" x2="391.5" y2="138.7"/>
<line class="st2" x1="395.4" y1="137.4" x2="399.5" y2="143.9"/>
<line class="st2" x1="372.7" y1="146.4" x2="376.3" y2="153.2"/>
<line class="st2" x1="375.6" y1="155.2" x2="383.9" y2="151.3"/>
<line class="st2" x1="374.5" y1="165.3" x2="385.6" y2="159.5"/>
<line class="st2" x1="379.9" y1="159.8" x2="384.2" y2="168.6"/>
<path class="st2" d="M399,118.2c19.3-2.4,39.2-4.6,59.6-6.3c8.7-0.7,17.3-1.4,25.8-2"/>
<line class="st3" x1="480" y1="92.1" x2="493" y2="153.7"/>
<path class="st2" d="M484.4,119c-17-0.2-36.1,0.7-56.9,3.9c-7.4,1.1-14.5,2.5-21.2,4l2.8,8.6"/>
<line class="st2" x1="421.8" y1="115.5" x2="425.4" y2="123.2"/>
<line class="st2" x1="433.5" y1="114.1" x2="435.5" y2="121.8"/>
<line class="st2" x1="446" y1="113.1" x2="447.4" y2="120.3"/>
<line class="st2" x1="457.8" y1="112" x2="460.2" y2="119.5"/>
<line class="st2" x1="472" y1="110.8" x2="472" y2="118.9"/>
<line class="st2" x1="397.6" y1="110.8" x2="411.7" y2="106"/>
<line class="st2" x1="416.7" y1="116.1" x2="413.5" y2="105.8"/>
<line class="st2" x1="402.1" y1="109.7" x2="404.2" y2="115"/>
<line class="st2" x1="420" y1="104.8" x2="431.1" y2="103.8"/>
<line class="st2" x1="426.4" y1="104.3" x2="428.4" y2="112.8"/>
<line class="st2" x1="436.4" y1="102.8" x2="441.1" y2="113.3"/>
<line class="st2" x1="443.7" y1="101.3" x2="456.3" y2="100.9"/>
<line class="st2" x1="469.1" y1="100.9" x2="480.5" y2="100.9"/>
<line class="st2" x1="449.1" y1="101.5" x2="451.1" y2="112.3"/>
<line class="st2" x1="476.1" y1="100.9" x2="478.5" y2="110.3"/>
<line class="st2" x1="417.7" y1="133.8" x2="419.4" y2="143.1"/>
<line class="st2" x1="416.8" y1="142.9" x2="421.5" y2="142.9"/>
<line class="st2" x1="423" y1="140.6" x2="425.1" y2="148.3"/>
<line class="st2" x1="421.8" y1="141.9" x2="430.2" y2="141.9"/>
<polyline class="st2" points="426.5,132.4 429.8,141.6 439.4,140 "/>
<polyline class="st2" points="437.6,130.8 439.4,140 448.6,140 458.1,138.8 459.4,137.9 471.2,137.9 "/>
<line class="st2" x1="445.8" y1="138.5" x2="448.2" y2="147.5"/>
<line class="st2" x1="434.1" y1="141" x2="437.1" y2="147.2"/>
<line class="st2" x1="413" y1="144.6" x2="414.4" y2="152"/>
<path class="st2" d="M409.4,153.3c6.6-1.4,13.5-2.7,20.7-3.8c17.9-2.8,34.8-4.2,50.2-4.7v-8"/>
<line class="st2" x1="418.5" y1="151.4" x2="421.5" y2="155.1"/>
<line class="st2" x1="430.4" y1="149.5" x2="432.4" y2="155.8"/>
<line class="st2" x1="449.7" y1="129.5" x2="450.2" y2="140"/>
<line class="st2" x1="459.6" y1="129" x2="461.1" y2="138"/>
<line class="st2" x1="468.3" y1="136.5" x2="470.1" y2="145.3"/>
<line class="st2" x1="462.1" y1="137.9" x2="462.1" y2="140.4"/>
<line class="st2" x1="456.8" y1="139" x2="459.5" y2="146"/>
<line class="st2" x1="420" y1="124.6" x2="422.6" y2="132.9"/>
<line class="st2" x1="429.7" y1="122.9" x2="432.4" y2="131.5"/>
<line class="st2" x1="441.7" y1="121" x2="444.6" y2="130.1"/>
<line class="st2" x1="452.4" y1="120" x2="454.2" y2="129.3"/>
<line class="st2" x1="465.1" y1="119.2" x2="468.9" y2="128.6"/>
<path class="st2" d="M477.9,117.6v3.4l2.6,7.6c-16.5-0.2-35.1,0.7-55.3,3.9c-7.2,1.1-14.1,2.5-20.6,4"/>
<line class="st2" x1="461.5" y1="100.9" x2="463.5" y2="111.5"/>
<polyline class="st2" points="474.1,128.6 474.1,134.1 475.4,137 "/>
<line class="st2" x1="471.7" y1="137" x2="489.3" y2="137"/>
<line class="st2" x1="484.9" y1="129.7" x2="487.2" y2="138.3"/>
<line class="st2" x1="484.9" y1="144.7" x2="484.9" y2="153.8"/>
<line class="st2" x1="476.9" y1="144.7" x2="478.5" y2="153.7"/>
<line class="st2" x1="463.9" y1="145.4" x2="465.8" y2="154.2"/>
<line class="st2" x1="454" y1="146.3" x2="454" y2="154.5"/>
<line class="st2" x1="442.8" y1="147.7" x2="444.3" y2="153.3"/>
<polyline class="st2" points="405.2,143.7 394.7,147.2 399.5,155.1 407.1,153.3 "/>
<line class="st2" x1="402.1" y1="154.7" x2="403.2" y2="158.1"/>
<line class="st3" x1="543.5" y1="92.2" x2="531.7" y2="153.6"/>
<polyline class="st3" points="624.6,97.2 630.6,100 617.7,160.2 "/>
<polyline class="st2" points="626.3,87 644.2,92.3 641.7,100.7 628.5,98.3 "/>
<line class="st2" x1="632.2" y1="89" x2="628.1" y2="99.1"/>
<polyline class="st2" points="653.8,96.2 650.8,103.9 641.7,100.7 "/>
<line class="st2" x1="662" y1="99.6" x2="679.2" y2="109.5"/>
<line class="st2" x1="674.9" y1="96.2" x2="671.2" y2="103.2"/>
<polyline class="st2" points="666.1,101.9 663.3,109.5 650.8,103.9 "/>
<line class="st2" x1="675.9" y1="116.2" x2="663.3" y2="109.5"/>
<line class="st2" x1="667.3" y1="112.2" x2="665.2" y2="119.6"/>
<path class="st2" d="M630.1,106.5c7.3,1.8,15.5,4.3,24.3,7.9c6.5,2.7,12.3,5.5,17.4,8.4"/>
<line class="st2" x1="656.9" y1="106.6" x2="653.8" y2="114.2"/>
<line class="st2" x1="646.3" y1="102.3" x2="643.6" y2="110.4"/>
<line class="st2" x1="635.6" y1="99.6" x2="632.6" y2="107.2"/>
<path class="st2" d="M628.3,114.5c6.8,1,15.6,3.1,25.2,7.4c6,2.7,11,5.7,15.1,8.5"/>
<line class="st2" x1="640.6" y1="109.5" x2="637.9" y2="116.4"/>
<line class="st2" x1="648.4" y1="112.1" x2="646.5" y2="119.1"/>
<line class="st2" x1="661.6" y1="117.3" x2="658.7" y2="124.4"/>
<line class="st2" x1="640.6" y1="116.8" x2="638.3" y2="124"/>
<polyline class="st2" points="632.3,115.2 631.2,124.9 635.9,124.9 634,132.9 624.9,131.7 "/>
<line class="st2" x1="629.5" y1="132.5" x2="626.9" y2="141.4"/>
<polyline class="st2" points="636.2,124.7 637.3,125.9 641.7,125.9 642.1,130.4 640.9,130.9 641,133.4 "/>
<path class="st2" d="M642.1,126.9h2.6c1,0.5,2,1,3.1,1.4c2.2,1,4.3,1.8,6.3,2.6l2.9,0.9l6.5,4"/>
<line class="st2" x1="643.2" y1="125.4" x2="643.2" y2="127"/>
<line class="st2" x1="656.2" y1="130.6" x2="653" y2="137.3"/>
<line class="st2" x1="653.4" y1="121.8" x2="650.1" y2="129.2"/>
<line class="st2" x1="662.6" y1="126.7" x2="658.7" y2="132.8"/>
<line class="st2" x1="629.1" y1="140.9" x2="636.8" y2="140.9"/>
<line class="st2" x1="634.7" y1="134" x2="638.6" y2="134"/>
<line class="st2" x1="633.5" y1="141.2" x2="636.7" y2="134"/>
<line class="st2" x1="631.4" y1="141.2" x2="630" y2="145.4"/>
<polyline class="st2" points="622.9,152.3 624.2,146.7 633.3,146.7 629.1,153.1 630.4,154.2 633,154.2 "/>
<line class="st2" x1="627.4" y1="154.7" x2="624.3" y2="161.8"/>
<polyline class="st2" points="640.1,166.8 644.3,158.1 653.5,162.2 "/>
<polyline class="st2" points="649.2,159.9 651.3,155.3 645.1,151.3 "/>
<path class="st2" d="M647.5,145.7c1.8,0.4,4,1.1,6.4,2.3c2.1,1,3.7,2.2,5,3.2"/>
<line class="st2" x1="649.2" y1="138.5" x2="657.3" y2="143"/>
<line class="st2" x1="654.1" y1="147.8" x2="655.2" y2="142.1"/>
<path class="st2" d="M481.3,98c4.4-1.7,9.5-3.2,15.1-4.2c19.1-3.5,35.3,0.1,45.2,3.3"/>
<line class="st2" x1="492.7" y1="86.8" x2="494.7" y2="94.1"/>
<path class="st2" d="M480.7,90.4c3.4-1.5,7.2-2.8,11.2-3.9c21.4-5.6,40.6-0.7,51.5,3.3"/>
<path class="st2" d="M479.2,83.4c5-2.3,11.2-4.5,18.5-5.8c20.9-3.7,38.2,2.3,46.6,6"/>
<polyline class="st2" points="477.8,76.9 485.7,74.9 483.3,69.4 "/>
<line class="st2" x1="490.4" y1="75.7" x2="490.4" y2="79.3"/>
<line class="st2" x1="504.8" y1="71.8" x2="520.2" y2="71.8"/>
<line class="st2" x1="512.1" y1="66.2" x2="512.1" y2="72"/>
<polyline class="st2" points="502.1,73.2 504,73.2 504,78.1 "/>
<line class="st2" x1="497.6" y1="77.6" x2="499.5" y2="85"/>
<line class="st2" x1="512.1" y1="76.5" x2="512.1" y2="84"/>
<line class="st2" x1="527.3" y1="78.2" x2="527.3" y2="84.4"/>
<line class="st2" x1="539.5" y1="81.7" x2="536.5" y2="87.2"/>
<polyline class="st2" points="538.7,74.9 542.6,74.9 546.4,76.6 "/>
<line class="st2" x1="541" y1="72.6" x2="541" y2="75.1"/>
<line class="st2" x1="488.3" y1="95.6" x2="490.4" y2="102.2"/>
<line class="st2" x1="500.6" y1="93.1" x2="502.2" y2="98"/>
<line class="st2" x1="505.3" y1="84.3" x2="503.8" y2="92.7"/>
<line class="st2" x1="519.1" y1="84" x2="519.1" y2="92.2"/>
<line class="st2" x1="531.3" y1="86.3" x2="531.3" y2="94.3"/>
<line class="st2" x1="527.3" y1="92.8" x2="525.1" y2="100"/>
<line class="st2" x1="513" y1="92.3" x2="513" y2="99.4"/>
<line class="st2" x1="535.8" y1="93.8" x2="537.3" y2="102.1"/>
<path class="st2" d="M484.1,105.6c6.4-2.2,16.1-4.6,28-4.7c11.8-0.1,21.4,2.1,27.9,4.1"/>
<path class="st2" d="M483.5,112.3c6.9-2.4,17.1-5,29.8-5.2c11-0.1,20.2,1.7,26.7,3.6"/>
<line class="st2" x1="495.8" y1="102.9" x2="497.5" y2="108.9"/>
<line class="st2" x1="505.9" y1="100" x2="508.4" y2="107.4"/>
<line class="st2" x1="503.1" y1="108" x2="503.1" y2="113.3"/>
<line class="st2" x1="513" y1="107.1" x2="513" y2="114.9"/>
<line class="st2" x1="491.3" y1="109.9" x2="493.2" y2="118.1"/>
<path class="st2" d="M486.8,120.4c4.9-2.2,13.6-5.2,24.7-5.4c11.8-0.1,20.9,3.1,25.9,5.3"/>
<line class="st2" x1="526.2" y1="106.5" x2="523.6" y2="116.1"/>
<line class="st2" x1="518" y1="101" x2="518" y2="107.1"/>
<line class="st2" x1="531.3" y1="102.4" x2="532.4" y2="108.9"/>
<line class="st2" x1="507.9" y1="113.7" x2="507.9" y2="127.2"/>
<line class="st2" x1="496.2" y1="117.1" x2="500.1" y2="125"/>
<path class="st2" d="M488.7,128.7c2.6-1.2,6.4-2.6,11.2-3.4c2.8-0.5,6.4-0.9,15.9-0.2c4.8,0.3,11.2,0.9,18.6,2"/>
<line class="st2" x1="492" y1="134.9" x2="508.6" y2="132.1"/>
<line class="st2" x1="496.2" y1="125.8" x2="496.2" y2="134.5"/>
<line class="st2" x1="500.1" y1="132.5" x2="500.1" y2="140.8"/>
<path class="st2" d="M491.8,143.6c2.5-1.1,5.8-2.3,9.6-3c2.3-0.4,4.5-0.6,6.4-0.7"/>
<line class="st2" x1="496.2" y1="146.3" x2="496.2" y2="141.9"/>
<path class="st2" d="M492.6,149.9c2.5-0.9,5.5-1.8,8.9-2.4c2.2-0.4,4.2-0.6,6-0.8"/>
<line class="st2" x1="501" y1="147.9" x2="501" y2="153.6"/>
<path class="st2" d="M519,146.4c1.2,0.5,2.5,1,4,1.4c3.4,0.9,6.4,1.1,8.7,1"/>
<path class="st2" d="M518.9,138.5c1.2,0.5,2.5,1,4,1.4c4.2,1.1,8,1.2,10.8,0.9"/>
<line class="st2" x1="522.9" y1="140.3" x2="522.9" y2="146.4"/>
<path class="st2" d="M519,132.8c1.1,0.5,2.7,1.1,4.7,1.3c1.6,0.2,3,0,4-0.1"/>
<line class="st2" x1="524" y1="125.7" x2="524" y2="134.1"/>
<line class="st2" x1="526.3" y1="132.5" x2="526.3" y2="140.5"/>
<line class="st2" x1="527.6" y1="134.7" x2="532.7" y2="134.7"/>
<polyline class="st2" points="530.1,137.2 530.1,134.9 532.7,126.5 "/>
<line class="st2" x1="530.5" y1="140.7" x2="528.7" y2="148.9"/>
<path class="st2" d="M539.6,117.7c11.5,0.3,23.2,0.8,35.1,1.3c17,0.8,33.7,1.9,49.9,3.2"/>
<path class="st2" d="M541.4,109c13.8,0.1,28.2,0.4,43.1,1.2c14.8,0.7,29,1.8,42.7,3"/>
<path class="st2" d="M535.4,127.2c16.7-0.3,34.7,0.1,53.9,1.5c11.5,0.9,22.5,2.1,33,3.5"/>
<line class="st2" x1="552.1" y1="109" x2="552.1" y2="116.3"/>
<line class="st2" x1="546.4" y1="109" x2="549.7" y2="100.9"/>
<line class="st2" x1="553.5" y1="100.7" x2="540.4" y2="100.7"/>
<line class="st2" x1="567.8" y1="100.7" x2="581.4" y2="101"/>
<line class="st2" x1="561.4" y1="100.7" x2="558.5" y2="109.2"/>
<line class="st2" x1="573.7" y1="100.8" x2="572" y2="107"/>
<line class="st2" x1="587.2" y1="101.3" x2="584.8" y2="109.9"/>
<line class="st2" x1="618" y1="103.8" x2="628.3" y2="106.4"/>
<line class="st2" x1="624.2" y1="105.8" x2="621.8" y2="112.9"/>
<line class="st2" x1="605" y1="111.4" x2="602.6" y2="120.6"/>
<line class="st2" x1="592.4" y1="110.6" x2="590.9" y2="119.9"/>
<line class="st2" x1="579.1" y1="109.9" x2="578.2" y2="118.8"/>
<line class="st2" x1="566" y1="109.2" x2="563.9" y2="118.5"/>
<line class="st2" x1="545.4" y1="117.7" x2="542.8" y2="127.1"/>
<line class="st2" x1="557.3" y1="118" x2="554.9" y2="127.1"/>
<line class="st2" x1="570" y1="118.8" x2="567.7" y2="127.6"/>
<line class="st2" x1="585.2" y1="118.5" x2="582.7" y2="128"/>
<line class="st2" x1="597.5" y1="118.5" x2="594.8" y2="129.1"/>
<line class="st2" x1="615.2" y1="112.2" x2="615.2" y2="119.4"/>
<line class="st2" x1="592.9" y1="101.6" x2="605.7" y2="102.9"/>
<line class="st2" x1="600.4" y1="102.7" x2="598.3" y2="111.1"/>
<line class="st2" x1="613" y1="103.5" x2="611" y2="111.8"/>
<line class="st2" x1="620.2" y1="121.8" x2="620.2" y2="131.5"/>
<line class="st2" x1="608.3" y1="121" x2="606.9" y2="130.1"/>
<path class="st2" d="M543.7,137.8c10.5,0.4,20.9,0.8,31.5,1.2c15.5,0.6,30.9,1.3,46.2,2"/>
<line class="st2" x1="561.2" y1="127.2" x2="560" y2="136.9"/>
<line class="st2" x1="549.1" y1="127.1" x2="549.1" y2="137.6"/>
<line class="st2" x1="535.2" y1="138.2" x2="540.4" y2="136.7"/>
<polyline class="st2" points="534,144.8 610,149.9 611.3,151.1 "/>
<line class="st2" x1="579.9" y1="138.9" x2="577.3" y2="147.3"/>
<line class="st2" x1="565.6" y1="138.6" x2="563.2" y2="146.7"/>
<line class="st2" x1="553.2" y1="138" x2="551.3" y2="146"/>
<line class="st2" x1="592.1" y1="139.7" x2="589.7" y2="148.5"/>
<line class="st2" x1="604.2" y1="140.2" x2="604.2" y2="149.4"/>
<line class="st2" x1="617.3" y1="140.8" x2="615.1" y2="150.2"/>
<line class="st2" x1="585.2" y1="148.1" x2="582.7" y2="155.3"/>
<line class="st2" x1="571.5" y1="147.3" x2="570" y2="151.7"/>
<line class="st2" x1="539.7" y1="144.8" x2="542" y2="138.6"/>
<line class="st2" x1="558.1" y1="146.4" x2="556.1" y2="151.1"/>
<line class="st2" x1="546.6" y1="145.6" x2="544.8" y2="151.1"/>
<line class="st2" x1="595.3" y1="156.4" x2="597.5" y2="147.5"/>
<line class="st2" x1="609.1" y1="149.8" x2="609.1" y2="158.3"/>
<line class="st2" x1="601.8" y1="129.6" x2="598.9" y2="139.7"/>
<line class="st2" x1="613.3" y1="131" x2="609.9" y2="140.5"/>
<line class="st2" x1="589.3" y1="128.7" x2="587" y2="139.4"/>
<line class="st2" x1="572.9" y1="138.6" x2="576.5" y2="126.7"/>
<path class="st4" d="M377.8,171.4h271.5v172.3c0,15.4-2,40.9-14.9,68.3c-19.2,40.9-64.3,89.5-120.8,89.6
	c-62.3,0.1-125.2-58.9-133.6-142.7L377.8,171.4z"/>
<polygon class="st5" points="377.8,171.4 513.5,501.5 649.3,171.4 "/>
<path class="st6" d="M471.2,174.4h84.9v69.1c0,6.2-0.6,16.4-4.7,27.4c-6,16.4-20.1,35.9-37.8,35.9c-19.5,0.1-39.2-23.6-41.8-57.2
	L471.2,174.4z"/>
<polygon class="st0" points="517.7,205.5 517.7,201.4 509.6,201.4 509.6,205.5 500.1,303.1 512,306.8 526.5,303.3 "/>
<polygon points="472.9,177.7 509.6,190.5 509.6,194.3 472.9,207.6 472.9,203.9 502.9,194.1 502.9,193.3 474.4,193.3 474.4,191.3 
	502.9,191.3 502.9,190.3 471.9,181 "/>
<rect x="510.6" y="185.4" class="st0" width="6" height="11.9"/>
<rect x="509.6" y="190.5" class="st0" width="5.2" height="6.8"/>
<rect x="506.6" y="197.3" class="st0" width="15" height="4.1"/>
<rect x="498.8" y="252.5" class="st0" width="30.8" height="5"/>
<rect x="512.6" y="239.4" width="3" height="9"/>
<rect x="511.8" y="271.5" width="3.8" height="12.9"/>
<rect x="512.6" y="220.5" width="3" height="7.9"/>
<rect x="514.8" y="194.4" transform="matrix(-1 -1.224647e-16 1.224647e-16 -1 1032.5171 391.7879)" class="st0" width="2.8" height="2.9"/>
<polygon points="516.6,194.4 516.6,189.5 548.8,178.4 550.7,178.4 550.7,180.4 520.4,191 520.4,191.7 552.5,191.7 552.5,193.4 
	524.3,193.4 550.6,202.4 550.6,205.4 "/>
<path class="st3" d="M471.2,174.2h84.9v69.2c0,6.2-0.6,16.4-4.7,27.4c-6,16.4-20.1,35.9-37.8,36c-19.5,0.1-39.2-23.6-41.8-57.3
	L471.2,174.2z"/>
<polygon class="st7" points="461.1,374 512.6,335.6 565.3,375.7 556.8,396.2 513.5,362.8 469.6,394.6 "/>
<polygon class="st7" points="482.4,425.8 511.9,398.4 545,424.9 536,446.8 512.1,427.1 491,446.8 "/>
<polygon class="st3" points="377.8,171.4 513.5,501.5 649.3,171.4 "/>
<g>
	<path class="st8" d="M444.6,415.7l4,13.5L421,418.7l6.1,6.8l-14.1-3.8v4.3c3.6,0.1,8.3,0.8,13.3,2.8c4.2,1.7,7,3.7,7.6,4.1
		c2.4,1.7,3.1,2.7,5.2,4.5c5.5,4.6,8.6,5.5,9.4,5.8c2,0.6,3.6,0.8,4.4,0.9c4.5,0.4,9.6,0.1,15.4,1.2c0.7,0.1,0.8,0.2,2.9,0.7
		c8.5,2.1,13.2,3.9,13.7,3.1c0.3-0.6-1.4-2.7-3.6-3.6c-2.5-1.1-4.8-0.4-8.5-2c-0.5-0.2-1-0.4-1-0.8c-0.1-0.9,3.3-1.9,6.3-2.6
		c-6.9-2.1-14.2-4.8-21.6-8.3c-1.2-0.6-2.4-1.1-3.5-1.7c-0.7-4.1-1.4-8.1-2.2-12.2L444.6,415.7z"/>
	<path class="st9" d="M393.8,352.8c5.7,3.7,12.6,9.5,14,18c0.3,2.1,0.2,3.7,0.1,4.7c-0.4,6.2-0.2,16.1,2.7,32.2
		c10,1.2,22.6,3.7,36.6,8.9c12.9,4.8,23.5,10.5,31.6,15.6c-3.4-4.8-6.9-10.2-10.4-16.3c-4.2-7.4-6.4-11.1-8.1-16.5
		c-1.4-4.5-2.8-11-2.4-19.3c-7.8-7.7-23.3-20.7-46-25.5C405.3,353.3,399.2,352.8,393.8,352.8z"/>
	<path class="st2" d="M393.8,352.8c2,0,4.7,0.4,7.1,2.2c0.8,0.6,1.3,1.2,1.5,1.4c3.6,4,12.3,10.3,23.5,19.6c4.2,3.5,6.5,5.4,9.8,8.5
		c1.2,1.1,2.7,2.6,11.7,12c8.9,9.4,11.9,12.6,15.3,16.6c0.8,0.9,1.9,2.4,3.7,4.4c3.2,3.7,6.1,6.5,8,8.2"/>
</g>
<g>
	<path class="st8" d="M583.7,415.7l-4,13.5l27.6-10.5l-6.1,6.8l14.1-3.8v4.3c-3.6,0.1-8.3,0.8-13.3,2.8c-4.2,1.7-7,3.7-7.6,4.1
		c-2.4,1.7-3.1,2.7-5.2,4.5c-5.5,4.6-8.6,5.5-9.4,5.8c-2,0.6-3.6,0.8-4.4,0.9c-4.5,0.4-9.6,0.1-15.4,1.2c-0.7,0.1-0.8,0.2-2.9,0.7
		c-8.5,2.1-13.2,3.9-13.7,3.1c-0.3-0.6,1.4-2.7,3.6-3.6c2.5-1.1,4.8-0.4,8.5-2c0.5-0.2,1-0.4,1-0.8c0.1-0.9-3.3-1.9-6.3-2.6
		c6.9-2.1,14.2-4.8,21.6-8.3c1.2-0.6,2.4-1.1,3.5-1.7c0.7-4.1,1.4-8.1,2.2-12.2L583.7,415.7z"/>
	<path class="st9" d="M634.4,352.8c-5.7,3.7-12.6,9.5-14,18c-0.3,2.1-0.2,3.7-0.1,4.7c0.4,6.2,0.2,16.1-2.7,32.2
		c-10,1.2-22.6,3.7-36.6,8.9c-12.9,4.8-23.5,10.5-31.6,15.6c3.4-4.8,6.9-10.2,10.4-16.3c4.2-7.4,6.4-11.1,8.1-16.5
		c1.4-4.5,2.8-11,2.4-19.3c7.8-7.7,23.3-20.7,46-25.5C623,353.3,629.1,352.8,634.4,352.8z"/>
	<path class="st2" d="M634.4,352.8c-2,0-4.7,0.4-7.1,2.2c-0.8,0.6-1.3,1.2-1.5,1.4c-3.6,4-12.3,10.3-23.5,19.6
		c-4.2,3.5-6.5,5.4-9.8,8.5c-1.2,1.1-2.7,2.6-11.7,12c-8.9,9.4-11.9,12.6-15.3,16.6c-0.8,0.9-1.9,2.4-3.7,4.4
		c-3.2,3.7-6.1,6.5-8,8.2"/>
</g>
<path class="st7" d="M328.8,240c6-10.2,6.2-17.4,5.2-22.3c-0.7-3.4-2-5.2-4.7-12.9c-2-5.7-3.3-10.5-4.2-13.7c-1.8,8-3.6,14.2-5,18.4
	c-2.6,8.3-3.4,12.6-2.4,16.4c1.5,6,6.2,9.9,9.3,12c-0.2,12.9-0.4,25.8-0.6,38.7c-0.1,0.1-0.2,0.2-0.4,0.2c-0.9-0.1-1.5-4.6-1.7-13.7
	c-5.2-2.8-10.8-5.6-16.8-8.3c-4.7-2.1-9.2-3.9-13.5-5.6c-0.3,3.1-0.6,9.9,2.8,17.4c2.9,6.5,7.2,10.5,9.6,12.5
	c10.2-1.8,14.5-0.9,16.5,0.5c0.4,0.3,1.8,1.2,2.7,0.8c1.1-0.5,1.2-0.7,0.9,1.4c-0.3,1.7-0.7,3.1-1.1,4.3c0.3,18.3,0.6,36.7,0.9,55
	c-0.9-1.1-2.2-2.8-3.1-5.2c-1.8-4.5-0.7-7-2.4-10.3c-1-2-2.5-3.2-5.8-5.4c-3.8-2.4-9.6-5.7-17.6-8.9c-0.7,2.3-3.2,11.4,1.6,20.6
	c1.4,2.6,5.6,10.8,12.2,11.4c3.1,0.3,6.3-1.1,11.3,0.5c1.4,0.5,2.6,1,3.3,1.4c0.1,10,0.9,21.8,3.4,34.7c1.5,8,3.4,15.2,5.4,21.7
	c-0.9-2.6-2.9-7.7-7.8-11.7c-4.4-3.6-8.9-4.6-13.6-5.6c-3.8-0.8-9.8-1.6-17.3-0.7c0.2,2,1.6,13.4,11.2,19.9c4.6,3.1,9.1,3.8,10.6,4
	c8.6,1,15-2.9,16.9-4.2c1.8,8.2,4.6,18,9.2,28.6c3.8,8.7,8,16.2,11.9,22.3c-1.7-1.5-4.4-3.9-7.4-6.9c-2.9-2.9-3.1-3.3-4.3-4
	c-3.9-2.3-7.5-1-13-1c-3.1,0-7.4-0.3-12.7-1.9c5.9,2.5,8.4,5.6,9.6,8c1.3,2.5,1.2,4.5,3.5,7.1c1.6,1.8,3.4,3,5.4,4.2
	c2.8,1.7,4.1,2.6,5.2,2.7c4.8,0.5,7.2-5.6,12.8-5.3c1.3,0.1,2.3,0.4,2.8,0.7c4.6,7.7,10.6,16.4,18.3,25.3
	c6.9,8.1,13.7,14.7,19.9,20.1c-6.5-3-11.6-3.1-15-2.6c-4.8,0.7-7.4,2.7-19.1,7c-2.7,1-4.9,1.8-6.4,2.3c3,1.3,7.9,3.5,14,6.2
	c7.8,3.5,9.2,4.3,12.1,4.5c8.5,0.7,14.8-4.3,15.8-5c2.8-2.2,4.5-4.7,5.5-6.3c0.8,0.3,2.1,0.9,3.6,1.6c6.4,3.2,10.4,6.9,11.2,7.6
	c3.5,3,14.5,8.7,46.5,20.2c0.6-0.6,1.3-1.3,1.9-1.9c-9.1-2.9-19-6.5-29.5-11.3c-7.9-3.6-15.2-7.3-21.7-11c0.2-0.5,0.5-1.2,0.9-2.2
	c2.8-7,4.9-12.5,5.1-13c2.7-7.6-8-27.4-12.2-34.8c-1.5,1.9-9.2,12.4-7.2,26.9c1.8,12.3,9.5,19.7,11.7,21.6c-0.2,0.2-0.3,0.3-0.5,0.5
	c-2.8-1.6-6.9-4.3-10.9-8.5c-1.4-1.5-2.4-2.6-2.7-3c-3-3.6-9.5-10.4-24.3-24.2c1.8-2.9,4.6-7.2,8.3-12.4c1.4-2,1.9-2.6,2.2-3
	c2.5-3.8,2.9-11.5-6.6-29.1c-2.2,2.4-10.8,12.3-10.2,26.4c0.2,5.8,2,10.5,3.5,13.6c-5.5-8-11-16.8-16.5-26.4
	c-4-7-7.6-13.8-10.8-20.3c3.1-1.9,10.6-7.1,15.2-17c5.7-12.3,3.1-23.7,2.3-26.9c-3.7,2.4-16.3,11.3-19,26.7c-0.6,3.7-0.6,7.1-0.3,10
	c-5.3-12.4-9.8-27.2-11.3-44c-0.2-2.3-0.4-4.5-0.5-6.7c3.9,0.9,11.8,2.2,19.7-1.6c0.5-0.2,2.2-1.1,3.7-2.2
	c9.5-7.2,7.8-24.8,7.5-27.7c-8.5,2.2-14.9,4.6-19.3,6.4c-3.2,1.3-3.6,1.7-4,2c-5.3,4.8-1,14.3-7,20.6c-0.6,0.7-1.2,1.2-1.6,1.4
	c-1-13.2-1.6-27.1-1.7-41.5c0-4.5,0-8.9,0.1-13.2c2.8,0,11.7-0.4,19.5-7c11.7-9.8,10.7-24.9,10.6-26.5c-4,2.1-8.6,4.2-13.8,6.1
	c-4.2,1.5-5.4,0.9-7.2,2.4c-3.2,2.6-3,6.4-5.5,14.8c-1.1,3.8-2.2,6.7-2.9,8.5c-0.4,0-0.7,0-1.1,0c0.1-13.5,0.5-20.6,0.8-24.7
	c0-0.4,0.1-1.6,0.2-3.2c0.4-6.5-0.1-11.3-0.2-12.5C328,266.8,327.9,258.5,328.8,240z"/>
<path class="st7" d="M556.9,538.8c0-0.5,0-1.1,0-1.6c14.1-4.1,28.8-9.6,43.8-16.8c1.9-0.9,3.8-1.9,5.6-2.8c-0.7-3.3-1.5-8.1-1.5-14
	c0-6.3,0-10.2,2-14.6c1.2-2.7,2.3-3.5,10.1-12.4c2.8-3.2,5.1-5.8,6.5-7.5c1.3,11.7,0.3,20.6-0.7,25.9c-1,5.7-2.5,9.7-5.6,13.2
	c-2,2.2-4.2,3.6-5.8,4.3c-0.1,1,0.2,1.5,0.5,1.7c3.2,2.6,22-14.4,34.6-28.1c3.9-4.2,7-7.9,9.1-10.5c-1.1-1.6-2.5-3.9-4.2-6.8
	c-2.5-4.2-4.1-7.6-4.3-8c-4.1-8.5,2.6-28.5,3.7-31.9c2.8,2.7,9.4,9.9,11.1,20.4c0.3,1.9,0.9,6.1-0.2,11.4c-1,4.5-2.8,8-4.1,10
	c0,1.2,0.2,1.4,0.4,1.5c2.9,1.3,19.4-30.1,28.3-48.1c1.9-3.8,3.4-6.9,4-8.4c-2.2,0.4-7.4,1.1-12.9-1.3c-6.3-2.8-9.2-7.8-10.8-10.5
	c-6.1-10.4-3.9-21.5-3-24.9c6.3,4.8,11.6,8.3,15.3,10.6c5.2,3.2,8.5,4.9,9.5,8.6c0.7,2.6-0.2,4,0.3,8.6c0.4,3.3,1.2,6,1.9,7.7
	c4.3-12.8,8.4-26,12.3-39.8c0.9-3.3,1.8-6.6,2.7-9.9c-3.3,0.1-8.1,0-13.7-1.1c-7.4-1.4-14.2-2.7-19.8-7.7c-7.3-6.6-8.4-16-8.7-19.7
	c9.1,3,16.7,5,22,6.3c8.2,2,12.3,2.6,15.5,6.2c3.9,4.4,4.1,10.5,3.8,14.4c0.3,0,0.7,0,1,0c0.6-2.8,1.1-7,0.6-12
	c-0.3-2.9-0.7-4.6-1.1-6.2c-1-5.4,0.3-8.3,1.3-17.9c0.2-2.1,0.5-5.1,0.8-8.9c-2.4,0.5-5.8,0.9-9.9,0.5c-4.4-0.4-13.3-1.1-19.5-8.1
	c-6.4-7.1-6-16.2-5.9-18.4c6.6,2.9,13.6,5.7,21,8.4c3.5,1.2,6.9,2.4,10.3,3.5c0.7,3.4,1.2,6.2,1.5,8.1c0.3,2.1,0.6,4.3,1.6,4.5
	c0.5,0.1,0.9-0.3,1.3-0.6c-0.4-13.3-0.8-26.6-1.1-39.9c-0.5-8.9-0.5-13.4-0.3-14.5c0-0.2,0.2-1-0.1-1.3c-0.2-0.2-0.5-0.2-0.7-0.1
	c-2.9-0.1-12.9-0.9-21.9-8.7c-9.2-8.1-11.2-18.3-11.6-21.1c9.4,3.6,18.9,7.8,28.5,12.5c0.8,0.4,1.6,0.8,2.4,1.2
	c0.2,2.7,0.6,5.7,1.3,9c0.4,1.7,0.9,3.4,1.3,4.9c0.1,0,0.3,0,0.4,0c0-10.6,0-21.2,0-31.9c-2.1-2.1-6.1-6.8-7.9-14.1
	c-0.7-2.8-2-8-0.2-13.7c1.8-5.8,5.1-6.7,9.3-14.2c2.3-4.1,3.5-7.8,4.2-10.3c3,14.9,4.3,24.3,5,29.8c0.1,0.8,0.2,1.8,0.2,3.1
	c0,8.9-4.7,16-8.7,20.5c0,15.5,0,31,0,46.6c0,0.4,0,0.8,0.1,1.2c0.2,2.1,0.4,4.1,0.8,6c0.9,0,1.8-0.1,2-0.6c0.2-0.4-0.1-0.9-0.2-1
	c-0.8-1.4,0.3-9.7,6.4-15.2c0.9-0.8,2.9-2.4,15.9-6.2c4.6-1.3,8.4-2.3,11-3c-1.4,8.8-4.9,14.8-7.1,18.1c-3.8,5.5-6.2,9.1-10.4,9.8
	c-4,0.6-7-1.7-15.4-1.2c-0.9,0.1-1.7,0.1-2.2,0.2c0,16.3,0,32.7,0,49c-0.6,2.4-2.7,11.9-0.2,13.1c0.5,0.2,0.9,0.1,1,0.1
	c2.2-0.6,1-6.3,2.9-11.7c1.3-3.6,3.5-5.7,5.7-7.9c4.8-4.7,10-6.2,15.7-7.9c3.1-0.9,7.5-2,13-2.5c-0.1,2.7-1,14.9-10.8,23.6
	c-6.3,5.6-13.4,7.2-15.7,7.7c-5.2,1.1-9.5,0.8-12.3,0.4c0.6,5.8,0.7,13.6-0.7,22.5c-1.3,7.8-3.4,14.3-5.5,19.3c1.7-1,4-2.6,6.3-5.2
	c2.7-3,3.1-4.7,4.6-6.8c1.3-1.7,3.5-3.8,14.5-6.9c4.6-1.3,10.8-2.8,18.3-3.9c-0.1,1.5-2.4,21.5-15.2,26.4c-4.4,1.7-9.7,1.5-12.5,1.4
	c-7-0.3-12.5-2.2-15.9-3.7c-3.9,15.7-9.8,32.5-18.6,49.8c-1.4,2.7-2.8,5.4-4.3,7.9c1.5-1.1,3.7-2.9,6.2-5.2c4.2-3.9,6.7-7.3,7.3-8
	c3-3.6,11.5-6.5,36.7-2.7c-2.9,3.6-12.6,14.7-29.1,17.9c-9.1,1.8-16.8,0.4-21.3-0.8c-7.8,11.4-16.7,23.2-26.7,35.2
	c-3.9,4.7-7.9,9.2-11.8,13.5c1.3-0.4,3.2-0.9,5.6-1.6c5.8-1.6,12.8-3.4,14.6-3.7c2.7-0.5,11.2-1,26.3,14.6
	c-3.2,1.9-11.8,6.3-23.2,5.5c-13.8-0.9-22.8-8.6-25.3-11c-1.1,0-2.3,0-3.4,0c-6.2,5.7-13.8,11.8-23.1,17.5
	C590.8,530.9,570.9,536.3,556.9,538.8z"/>
</svg>
