<?xml version="1.0" encoding="UTF-8" standalone="no"?>
<!-- Created with Inkscape (http://www.inkscape.org/) -->

<svg
   xmlns:dc="http://purl.org/dc/elements/1.1/"
   xmlns:cc="http://creativecommons.org/ns#"
   xmlns:rdf="http://www.w3.org/1999/02/22-rdf-syntax-ns#"
   xmlns:svg="http://www.w3.org/2000/svg"
   xmlns="http://www.w3.org/2000/svg"
   xmlns:sodipodi="http://sodipodi.sourceforge.net/DTD/sodipodi-0.dtd"
   xmlns:inkscape="http://www.inkscape.org/namespaces/inkscape"
   id="svg7767"
   height="600"
   width="1200"
   version="1.1"
   viewBox="0 0 1200 600.00001"
   inkscape:version="0.91 r13725"
   sodipodi:docname="Naval_ensign_of_North_Korea.svg">
  <defs
     id="defs67" />
  <sodipodi:namedview
     pagecolor="#ffffff"
     bordercolor="#666666"
     borderopacity="1"
     objecttolerance="10"
     gridtolerance="10"
     guidetolerance="10"
     inkscape:pageopacity="0"
     inkscape:pageshadow="2"
     inkscape:window-width="2560"
     inkscape:window-height="1360"
     id="namedview65"
     showgrid="false"
     inkscape:zoom="0.64"
     inkscape:cx="1389.4871"
     inkscape:cy="112.08342"
     inkscape:window-x="-11"
     inkscape:window-y="-11"
     inkscape:window-maximized="1"
     inkscape:current-layer="svg7767" />
  <metadata
     id="metadata7772">
    <rdf:RDF>
      <cc:Work
         rdf:about="">
        <dc:format>image/svg+xml</dc:format>
        <dc:type
           rdf:resource="http://purl.org/dc/dcmitype/StillImage" />
        <dc:title />
      </cc:Work>
    </rdf:RDF>
  </metadata>
  <rect
     style="fill:#d90d19;fill-opacity:1"
     x="0"
     y="-1.1718897"
     width="1200"
     height="453.31458"
     ry="1.2803617e-006"
     id="rect8333" />
  <rect
     style="fill:#0c3586;fill-opacity:1"
     x="0"
     y="450"
     width="1200"
     height="150"
     ry="1.271e-006"
     id="rect8335" />
  <path
     style="fill:none;stroke:#ffffff;stroke-width:11.82653427"
     id="path8337"
     d="m 0,534.25626 1200,0"
     inkscape:connector-curvature="0" />
  <path
     style="fill:none;stroke:#ffffff;stroke-width:11.82653427"
     id="path8339"
     d="m 0,504.21094 1200,0"
     inkscape:connector-curvature="0" />
  <path
     style="fill:none;stroke:#ffffff;stroke-width:11.82653427"
     id="path8341"
     d="m 0,474.16561 1200,0"
     inkscape:connector-curvature="0" />
  <g
     id="g4225"
     transform="matrix(1.0516276,0,0,1.0516276,-30.976544,-11.130793)">
    <g
       transform="matrix(1.1786885,0,0,1.1786885,-107.21314,-40.204926)"
       id="layer10"
       style="stroke:#0c3586;stroke-opacity:1">
      <circle
         style="fill:#ffffff;stroke:#0c3586;stroke-width:16.96801186;stroke-linecap:round;stroke-miterlimit:4;stroke-dasharray:none;stroke-opacity:1"
         r="132.73785"
         cy="225"
         cx="600"
         id="circle8349" />
      <circle
         style="fill:#ffffff;stroke:#0c3586;stroke-width:16.66699982;stroke-linecap:round;stroke-opacity:1"
         r="108.33"
         cy="225"
         cx="600"
         id="circle8357" />
      <path
         style="fill:#0066ff;stroke:#0c3586;stroke-opacity:1"
         inkscape:connector-curvature="0"
         d="m 513.48,275 a 100,100 0 0 0 35.965,36.277 100,100 0 0 0 100.28,0.48633 100,100 0 0 0 36.78,-36.76 l -173.02,0 z"
         id="path8374" />
    </g>
    <g
       transform="matrix(1.0286767,0,0,1.0286767,-17.206024,-6.4522591)"
       id="g4194">
      <path
         style="fill:#ffd437;fill-opacity:1;stroke:none;stroke-width:1px;stroke-linecap:butt;stroke-linejoin:miter;stroke-opacity:1"
         d="m 600,349.58621 -8.22883,-244.01673 16.45767,0 z"
         id="path3825"
         inkscape:connector-curvature="0"
         sodipodi:nodetypes="cccc"
         inkscape:transform-center-y="-122.58128" />
      <g
         id="g3841"
         style="fill:#ffd437;fill-opacity:1"
         transform="matrix(1.1458299,0,0,1.1458299,-87.497959,-32.811734)">
        <path
           inkscape:transform-center-x="-16.811855"
           style="fill:#ffd437;fill-opacity:1;stroke:none"
           d="m 603.05288,337.19405 16.25638,-215.67076 12.87146,1.77876 z"
           id="path3827"
           inkscape:connector-curvature="0"
           sodipodi:nodetypes="cccc"
           inkscape:transform-center-y="-106.60149" />
        <path
           inkscape:transform-center-y="-104.59935"
           sodipodi:nodetypes="cccc"
           inkscape:connector-curvature="0"
           id="path3829"
           d="m 607.5444,331.2953 37.79365,-205.77911 12.82045,6.83372 z"
           style="fill:#ffd437;fill-opacity:1;stroke:none"
           inkscape:transform-center-x="-29.69293" />
        <path
           inkscape:transform-center-x="-42.28955"
           style="fill:#ffd437;fill-opacity:1;stroke:none"
           d="m 613.1004,331.38139 51.84243,-189.74051 11.16784,8.81952 z"
           id="path3831"
           inkscape:connector-curvature="0"
           sodipodi:nodetypes="cccc"
           inkscape:transform-center-y="-100.94689" />
        <path
           inkscape:transform-center-y="-95.72978"
           sodipodi:nodetypes="cccc"
           inkscape:connector-curvature="0"
           id="path3833"
           d="m 614.63282,335.38093 69.30859,-178.36027 8.73595,9.84437 z"
           style="fill:#ffd437;fill-opacity:1;stroke:none"
           inkscape:transform-center-x="-54.201775" />
        <path
           inkscape:transform-center-x="-64.885935"
           style="fill:#ffd437;fill-opacity:1;stroke:none"
           d="m 623.15167,328.09715 75.4207,-148.90758 6.60311,10.87147 z"
           id="path3835"
           inkscape:connector-curvature="0"
           sodipodi:nodetypes="cccc"
           inkscape:transform-center-y="-89.29154" />
        <path
           inkscape:transform-center-y="-81.480395"
           sodipodi:nodetypes="cccc"
           inkscape:connector-curvature="0"
           id="path3837"
           d="m 623.53403,330.50676 81.72145,-120.31244 5.18525,8.4094 z"
           style="fill:#ffd437;fill-opacity:1;stroke:none"
           inkscape:transform-center-x="-74.723745" />
        <path
           inkscape:transform-center-x="-83.248035"
           style="fill:#ffd437;fill-opacity:1;stroke:none"
           d="m 614.04999,331.9498 96.9631,-97.97984 -1.92638,14.45212 z"
           id="path3839"
           inkscape:connector-curvature="0"
           sodipodi:nodetypes="cccc"
           inkscape:transform-center-y="-72.717025" />
      </g>
      <g
         id="g3850"
         transform="matrix(-1.1455196,0.02666485,0.02666485,1.1455196,1282.116,-50.26025)"
         style="fill:#ffd437;fill-opacity:1">
        <path
           inkscape:transform-center-y="-106.60149"
           sodipodi:nodetypes="cccc"
           inkscape:connector-curvature="0"
           id="path3852"
           d="m 603.05288,337.19405 16.25638,-215.67076 12.87146,1.77876 z"
           style="fill:#ffd437;fill-opacity:1;stroke:none"
           inkscape:transform-center-x="-16.811855" />
        <path
           inkscape:transform-center-x="-29.69293"
           style="fill:#ffd437;fill-opacity:1;stroke:none"
           d="m 607.5444,331.2953 37.79365,-205.77911 12.82045,6.83372 z"
           id="path3854"
           inkscape:connector-curvature="0"
           sodipodi:nodetypes="cccc"
           inkscape:transform-center-y="-104.59935" />
        <path
           inkscape:transform-center-y="-100.94689"
           sodipodi:nodetypes="cccc"
           inkscape:connector-curvature="0"
           id="path3856"
           d="m 613.1004,331.38139 51.84243,-189.74051 11.16784,8.81952 z"
           style="fill:#ffd437;fill-opacity:1;stroke:none"
           inkscape:transform-center-x="-42.28955" />
        <path
           inkscape:transform-center-x="-54.201775"
           style="fill:#ffd437;fill-opacity:1;stroke:none"
           d="m 614.63282,335.38093 69.30859,-178.36027 8.73595,9.84437 z"
           id="path3858"
           inkscape:connector-curvature="0"
           sodipodi:nodetypes="cccc"
           inkscape:transform-center-y="-95.72978" />
        <path
           inkscape:transform-center-y="-89.29154"
           sodipodi:nodetypes="cccc"
           inkscape:connector-curvature="0"
           id="path3860"
           d="m 623.15167,328.09715 75.4207,-148.90758 6.60311,10.87147 z"
           style="fill:#ffd437;fill-opacity:1;stroke:none"
           inkscape:transform-center-x="-64.885935" />
        <path
           inkscape:transform-center-x="-74.723745"
           style="fill:#ffd437;fill-opacity:1;stroke:none"
           d="m 623.53403,330.50676 81.72145,-120.31244 5.18525,8.4094 z"
           id="path3862"
           inkscape:connector-curvature="0"
           sodipodi:nodetypes="cccc"
           inkscape:transform-center-y="-81.480395" />
        <path
           inkscape:transform-center-y="-72.717025"
           sodipodi:nodetypes="cccc"
           inkscape:connector-curvature="0"
           id="path3864"
           d="m 614.04999,331.9498 96.9631,-97.97984 -1.92638,14.45212 z"
           style="fill:#ffd437;fill-opacity:1;stroke:none"
           inkscape:transform-center-x="-83.248035" />
      </g>
      <g
         id="g3142"
         transform="matrix(0.71766061,0,0,0.71766061,-99.547049,87.477034)">
        <path
           id="path8537"
           d="m 944.54985,247.39982 c -20.77211,0.96592 -38.88225,1.55157 -66.42484,3.48471 -14.45617,8.65177 -28.91234,12.50614 -43.36851,17.1875 l -0.008,-0.005 c 13.93709,24.18428 34.23933,44.66265 58.30233,58.80811 24.48631,14.34933 52.79452,26.47229 81.17522,26.60993 28.38065,0.13764 56.76285,-11.71038 81.38715,-25.82154 24.6387,-14.17599 45.4342,-34.96009 59.6236,-59.5911 -9.275,-2.86829 -18.4373,-5.39875 -28.7168,-11.28066 l -36.5236,-6.85001 -5.894,4.72582 -16.0246,-8.16546 -13.2973,3.58865 -9.4252,-1.12053 -48.00107,-1.87691"
           inkscape:connector-curvature="0"
           style="fill:#0875e8;fill-opacity:1"
           sodipodi:nodetypes="cccccsccccccccc" />
        <g
           id="g3076"
           transform="translate(1.953125,-408.61)">
          <path
             transform="translate(-1e-5,452.36)"
             inkscape:connector-curvature="0"
             id="path3062"
             d="m 961.32813,227.34375 c 1.95312,0 22.26562,-7.42188 22.26562,-7.42188 l 7.42188,-11.71875 46.09377,20.3125 -23.0469,-0.39062 -12.1094,-11.71875 7.0313,12.5 -11.71877,-4.6875 4.29687,7.42187 -10.15625,-4.29687 -12.5,5.85937 3.125,-10.54687 z"
             style="fill:#ffffff;stroke:none" />
          <path
             transform="translate(-1e-5,452.36)"
             inkscape:connector-curvature="0"
             id="path3064"
             d="m 1026.9531,218.75 15.2344,-3.51563 8.2031,-7.8125 36.7188,8.59375 23.4375,10.15625 -17.1875,0.39063 -16.7969,-4.29688 5.0781,4.6875 -12.8906,0.39063 -8.9844,-8.20313 -1.1718,8.59375 -13.6719,-7.42187 L 1037.5,225 Z"
             style="fill:#ffffff;stroke:none" />
          <path
             transform="translate(-1e-5,452.36)"
             inkscape:connector-curvature="0"
             id="path3066"
             d="m 902.73438,206.25 42.96875,-1.5625 5.46875,4.29687 3.51562,-4.6875 48.8281,1.95313 8.9844,1.5625 13.6719,-3.125 14.0625,7.42187 -13.2813,0.39063 -4.2968,-3.125 -1.9532,3.51562 -30.85935,-5.85937 -13.28125,4.6875 -26.95312,0.78125 -10.15625,-4.6875 -1.95313,5.07812 -7.03125,-1.95312 -2.34375,-3.90625 -14.84375,6.25 -9.76562,-3.125 z"
             style="fill:#ffffff;stroke:none" />
          <path
             transform="translate(-1e-5,452.36)"
             inkscape:connector-curvature="0"
             id="path3068"
             d="m 955.85938,217.57812 7.42187,5.85938 -17.96875,7.03125 -5.85937,8.59375 -1.95313,-7.42188 -8.98437,1.5625 16.79687,-9.375 z"
             style="fill:#ffffff;stroke:none" />
          <path
             transform="translate(-1e-5,452.36)"
             inkscape:connector-curvature="0"
             id="path3070"
             d="m 934.375,216.79687 13.67188,2.34375 -7.8125,6.25 -5.07813,0 -8.59375,6.25 -22.26562,-2.73437 z"
             style="fill:#ffffff;stroke:none" />
          <path
             transform="translate(-1e-5,452.36)"
             inkscape:connector-curvature="0"
             id="path3072"
             d="m 923.04688,211.32812 8.98437,4.6875 -21.875,8.20313 -9.76562,4.29687 -7.03125,-0.39062 6.25,-5.46875 -10.54688,6.64062 -11.71875,0 18.75,-10.9375 12.10938,1.5625 z"
             style="fill:#ffffff;stroke:none" />
          <path
             transform="translate(-1e-5,452.36)"
             inkscape:connector-curvature="0"
             id="path3074"
             d="m 896.48438,207.03125 7.42187,10.54687 -11.71875,-1.5625 -5.85937,-1.95312 -9.375,12.89062 -4.6875,-1.17187 5.46875,-8.59375 -10.15625,9.76562 -3.51563,-6.25 -15.625,8.98438 3.90625,-5.85938 -14.84375,0.39063 17.57813,-6.25 7.42187,-1.5625 14.45313,-5.46875 3.125,-2.73438 z"
             style="fill:#ffffff;stroke:none" />
        </g>
      </g>
      <circle
         id="circle8535"
         cy="225"
         cx="600"
         r="124.12775"
         style="fill:#000000;fill-opacity:0;stroke:#d90d19;stroke-width:19.44245529;stroke-linecap:round;stroke-miterlimit:4;stroke-dasharray:none;stroke-opacity:1" />
      <path
         inkscape:connector-curvature="0"
         style="fill:#d90d19;fill-opacity:1"
         d="m 617.56397,181.71055 -17.53463,-12.92152 -17.62287,12.90662 6.87085,-20.66963 -17.72026,-12.77257 21.78109,0.14735 6.67124,-20.80026 6.5906,20.76015 21.84295,-0.0828 -17.70766,12.6832 z"
         id="path8541" />
    </g>
  </g>
</svg>
