<svg height="600" width="1200" xmlns="http://www.w3.org/2000/svg" xmlns:xlink="http://www.w3.org/1999/xlink"><clipPath id="a"><path d="m0 0v150h700v150h-100zm0 300v50h300v-350h300z"/></clipPath><path d="m0 0h1200v600h-1200z" fill="#00247d"/><path d="m0 0 600 300m0-300-600 300" stroke="#fff" stroke-width="60"/><path clip-path="url(#a)" d="m0 0 600 300m0-300-600 300" stroke="#cf142b" stroke-width="40"/><path d="m0 150h700m-400-150v350" stroke="#fff" stroke-width="100"/><path d="m0 150h700m-400-150v350" stroke="#cf142b" stroke-width="60"/><path d="m0 300h600v-300h600v600h-1200z" fill="#00247d"/><g transform="matrix(1.0500261 0 0 1.0500261 752.33754 -203.74463)"><g transform="matrix(1 0 0 -1 47.160726 965.45124)"><path d="m93.466678 371.98549c-63.612819 21.13634-88.5311311 73.76114-88.5311311 119.86679v104.66096h177.0622631v-104.66096c0-46.10565-24.91831-98.73045-88.531132-119.86679z" fill="#fff"/><path d="m177.79333 459.18333c-9.45656-36.14901-35.48724-70.9702-84.326652-87.19784v87.19784z" fill="#1ebeff"/><path d="m93.466678 459.18333h-84.3268534c-2.8603735 10.93445-4.2042777 21.96165-4.2042777 32.66895v39.0626h88.5311311z" fill="#1ebeff"/><path d="m4.9355469 527.92827v68.58497h177.0622631v-68.58497z" fill="#d21428" stroke-width=".999639"/><path d="m93.466678 371.98549c-63.612819 21.13634-88.5311311 73.76114-88.5311311 119.86679v104.66096h177.0622631v-104.66096c0-46.10565-24.91831-98.73045-88.531132-119.86679z" fill="none" stroke="#00247d" stroke-width="1.06664"/></g><g fill="#fff" transform="matrix(.59148019 0 0 .59146716 205.490965 267.861828)"><path d="m-80.898195 487.15944c-.37 0-.7613-.1-1.1913-.30375-1.6037-.7525-2.875873-2.44077-3.994673-4.07702-.9375-1.35375-1.765114-2.95516-2.546414-4.98016-.2437-.64375-.485-1.28625-.725-1.92875-1.3937-3.72625-7.218315-10.95966-9.538315-14.32216-.1638-.23625-.1438-.55375.046-.77.1912-.21375.5062-.27125.7575-.13875 2.165 1.13625 8.433102 5.99178 9.746902 7.70303.5175.66875.86652 1.69712 1.37272 2.38212.5713.77 1.14 1.54125 1.7275 2.29375 2.6075 3.32125 5.727173 5.47315 9.079673 6.54565.17.0538.31.17875.3825.3425.071.165.069.35125 0 .51375l-.1588.345c-.835 1.81-2.136093 3.74229-3.076093 5.21354-.505.78375-1.1375 1.18125-1.8775 1.18125"/><path d="m-36.775475 498.08525c-2.8913 0-7.926081.15325-11.722381-.42925-.2537-.0387-.4587-.23-.515-.48-.056-.25125.046-.51125.2588-.655l.7275-.49375c.9775-.66375 3.688468-2.01915 4.430968-2.51665.6713-.44375 1.5363-.80625 2.5-.50125 2.2588.7275 8.13567.50469 11.27937.50469 1.6413 0 3.325-.0875 4.9513-.1725l.6475-.0337c.2825-.004.485.0188.6812.0412.105.0138.21.0263.3213.035.2425.0175.4525.17375.5375.40125.086.22625.034.4825-.1363.65625-1.7212 1.77375-8.871757 3.64371-13.961757 3.64371"/><path d="m-70.91385 504.36225c-4.3638 0-8.909125-1.662-13.069125-4.05575-.2588-.1475-.525-.2825-.7913-.4175-.4512-.23125-.92-.46875-1.3612-.76875-3.8438-2.56875-9.46134-2.49542-14.668835-1.31042l-.3375.08c-.9562.23-2.085.4075-3.2537.0588-.1938-.0575-.3475-.20375-.4125-.39375-.066-.19-.035-.4.08-.565 2.9275-4.15875 7.814743-7.45452 12.174743-7.84577.8937-.0838 1.8287-.12375 2.8587-.12375 1.5263 0 3.035.0925 4.1775.1725 4.5.30875 7.474092-1.10631 9.156592-5.08381 2.8687-6.77875 8.1425-11.125 16.125-13.28375 2.3925-.65125 4.8387-1.22375 7.2075-1.77875 1.0225-.24 2.0487-.48 3.0712-.72625 4.57-1.06875 10.022381-3.8285 13.296081-5.66975.12-.0638.225-.1275.3325-.1925.4975-.30375 1.14-.7 2.1088-.5275.1737.03.3275.1325.42.2825.092.14875.904436.89156.074.5-.3788 1.35625-1.2775 2.21875-2.07 2.97875l-.21.2025c-4.287228 5.32756-9.258581 7.84425-13.646081 9.61175l-.6563.2675c-2.6687 1.085-5.3375 2.02058-8.0062 3.09558-2.7488 1.1025-4.588508 3.70517-5.469708 6.73017l-.066.22375c-.036.1375-.075.275-.1263.40625-1.8092 7.30798-5.150342 8.99144-11.271492 8.061-.5925 0-1.2125-.0263-1.8625-.0775-.1775-.015-.3513-.055-.5225-.0975-.1125-.0275-.2188-.0588-.3288-.0625-.305 0-.3812.065-.55.73875l-.065.255c-.025.0838-.033.14625-.017.1675.034.0562.2025.1575.525.20875 2.4613.41125 4.347477.12345 6.033677-.3628 1.8313-.525 3.67915-.76057 5.87415-.53557.535.0562 1.0838.085 1.6388.085 2.9437 0 5.733373-.45038 8.125873-1.22663 4.76-1.5325 9.58-3.64375 15.625-6.845 2.255-1.1975 5.427799-3.18944 12.5337-3.69223.4613-.1125.93-.11625 1.3813-.11875.1637-.001.3275-.001.4937-.008.305-.005.5513.18.6275.46125.077.2825-.054.58-.3125.71625-5.440935 1.82434-12.540629 5.39438-15.940629 7.61813-1.35.885-2.6988 1.76625-4.0575 2.62625-4.1775 2.645-8.844271 5.4075-13.666771 7.5675z"/><path d="m-62.233621 438.82885c-.37 0-.7613-.1-1.1913-.30375-1.6037-.7525-2.875873-2.44077-3.994673-4.07702-.9375-1.35375-1.765114-2.95516-2.546414-4.98016-.2437-.64375-.485-1.28625-.725-1.92875-1.3937-3.72625-7.218315-10.95966-9.538315-14.32216-.1638-.23625-.1438-.55375.046-.77.1912-.21375.5062-.27125.7575-.13875 2.165 1.13625 8.433102 5.99178 9.746902 7.70303.5175.66875.86652 1.69712 1.37272 2.38212.5713.77 1.14 1.54125 1.7275 2.29375 2.6075 3.32125 5.727173 5.47315 9.079673 6.54565.17.0538.31.17875.3825.3425.071.165.069.35125 0 .51375l-.1588.345c-.835 1.81-2.136093 3.74229-3.076093 5.21354-.505.78375-1.1375 1.18125-1.8775 1.18125"/><path d="m-18.110901 449.75466c-2.8913 0-7.926081.15325-11.722381-.42925-.2537-.0387-.4587-.23-.515-.48-.056-.25125.046-.51125.2588-.655l.7275-.49375c.9775-.66375 3.688468-2.01915 4.430968-2.51665.6713-.44375 1.5363-.80625 2.5-.50125 2.2588.7275 8.13567.50469 11.27937.50469 1.6412998 0 3.3249998-.0875 4.9512998-.1725l.6475-.0337c.2825-.004.485.0188.6812.0412.105.0138.21.0263.3213.035.2425.0175.4525.17375.5375.40125.086.22625.034.4825-.1363.65625-1.7212 1.77375-8.8717568 3.64371-13.9617568 3.64371"/><path d="m-52.249276 456.03166c-4.3638 0-8.909125-1.662-13.069125-4.05575-.2588-.1475-.525-.2825-.7913-.4175-.4512-.23125-.92-.46875-1.3612-.76875-3.8438-2.56875-9.46134-2.49542-14.668835-1.31042l-.3375.08c-.9562.23-2.085.4075-3.2537.0588-.1938-.0575-.3475-.20375-.4125-.39375-.066-.19-.035-.4.08-.565 2.9275-4.15875 7.814743-7.45452 12.174743-7.84577.8937-.0838 1.8287-.12375 2.8587-.12375 1.5263 0 3.035.0925 4.1775.1725 4.5.30875 7.474092-1.10631 9.156592-5.08381 2.8687-6.77875 8.1425-11.125 16.125-13.28375 2.3925-.65125 4.8387-1.22375 7.2075-1.77875 1.0225-.24 2.0487-.48 3.0712-.72625 4.57-1.06875 10.022381-3.8285 13.296081-5.66975.12-.0638.225-.1275.3325-.1925.4975-.30375 1.14-.7 2.1088-.5275.1737.03.3275.1325.42.2825.092.14875.904436.89156.074.5-.3788 1.35625-1.2775 2.21875-2.07 2.97875l-.21.2025c-4.287228 5.32756-9.258581 7.84425-13.646081 9.61175l-.6563.2675c-2.6687 1.085-5.3375 2.02058-8.0062 3.09558-2.7488 1.1025-4.588508 3.70517-5.469708 6.73017l-.066.22375c-.036.1375-.075.275-.1263.40625-1.8092 7.30798-5.150342 8.99144-11.271492 8.061-.5925 0-1.2125-.0263-1.8625-.0775-.1775-.015-.3513-.055-.5225-.0975-.1125-.0275-.2188-.0588-.3288-.0625-.305 0-.3812.065-.55.73875l-.065.255c-.025.0838-.033.14625-.017.1675.034.0562.2025.1575.525.20875 2.4613.41125 4.347477.12345 6.033677-.3628 1.8313-.525 3.67915-.76057 5.87415-.53557.535.0562 1.0838.085 1.6388.085 2.9437 0 5.733373-.45038 8.125873-1.22663 4.76-1.5325 9.58-3.64375 15.625-6.845 2.255-1.1975 5.427799-3.18944 12.5336998-3.69223.4613-.1125.93-.11625 1.3813-.11875.1637-.001.3275-.001.4937-.008.305-.005.5513.18.6275.46125.077.2825-.054.58-.3125.71625-5.4409348 1.82434-12.5406288 5.39438-15.9406288 7.61813-1.35.885-2.6988 1.76625-4.0575 2.62625-4.1775 2.645-8.844271 5.4075-13.666771 7.5675z"/></g><g transform="matrix(.59148019 0 0 .59146716 205.490965 267.861828)"><path d="m-83.896905 495.42064c1.811501 1.31389 3.477012 4.80129 3.502015 6.84095-2.275252-.0125-8.499967-3.08915-10.06264-4.96613 1.655396-1.75469 3.809121-3.86443 6.560625-1.87482" fill="#be1a2d"/><path d="m-79.521782 486.06455c1.439881-1.64154 2.881544-4.28017 3.746974-6.22186-3.368906-1.2625-6.448367-2.94792-8.773367-5.91042-1.1125-1.425-2.676346-3.58938-3.773994-5.01519-1.327352-1.72419-3.603195-4.74991-10.515963-8.18961 6.124369 4.80312 8.344068 11.5083 10.044068 15.9583.65 1.6875 1.630215 4.2404 2.667715 5.7404.975 1.425 2.728267 3.53838 4.328267 4.28838.95.45 1.6625.3 2.2763-.65zm53.493716-2.64557c-6.484883-.53633-10.224114.81509-14.794896 3.16824-5.104746 2.62805-9.784575 4.9896-15.258074 6.75676-3.276507 1.05784-6.035771 1.49518-9.514688 1.36308-2.162618-.0821-3.833335.0716-6.066926.51523-2.233591.44364-4.140808.72091-6.240808.37096-.625-.1-.905376-.32429-.788375-.76094.299704-1.11851.525352-.76786 1.704766-.63381 3.318634.16676 6.457709-.48159 8.580109-1.59991 1.73012-.91163 3.21467-3.6878 4.312401-7.02766 1.071301-3.25945 2.664068-5.65007 5.175495-6.68138 2.879401-1.18242 6.300945-2.5017 9.192067-3.67098 4.433888-1.79323 8.509888-4.4099 11.955303-7.71469.842102-.80773 2.385797-3.55381 3.408631-5.4349-5.13314 2.96072-10.495874 5.25303-15.448714 6.43741-3.426357.81935-8.232423 1.77976-11.583167 2.86978-7.346491 2.38987-11.019471 5.12831-14.471073 12.1326-2.171256 4.4061-5.35848 6.44196-10.00848 6.11696-2.3125-.1625-4.65-.2625-6.9375-.05-4.4625.4-8.237935 2.68185-11.405115 7.97915 1.54881.083 4.08361-.55892 5.071102-.78392 6.395757-1.37549 10.568261.98518 15.392493 3.68229 7.916372 4.42584 15.888421 4.1633 24.122613.80402 4.781712-1.95078 9.112107-4.99646 13.532067-7.57783 5.435297-3.17436 11.988034-8.89874 20.070769-10.26046zm2.922639 9.97522c-2.186434.52968-2.817307.75773-6.498215.92871-4.6125.2375-6.700519.29836-11.730086-.99316-.7875-.25-1.639134.24881-2.225334.63631-.9138.6125-3.847627 2.20229-5.208827 3.12729 9.79402 1.11206 20.694821 2.03154 25.662462-3.69915zm3.970012-9.63388c-7.198784 1.68546-10.056271.25881-21.240077 8.14957 7.4263 1.6875 13.222471.88443 20.403939-.43673-3.5375 5.775-8.128623 7.37779-11.325648 7.62051-2.3.2375-4.597287.32239-6.911087.29739-2.825-.025-6.900644-.0354-9.665014-.55729-3.80487-.71826-5.392713.83631-8.042713 2.23631-3.025 1.5875-6.186087 2.83891-9.547287 3.60141-5.5888 1.2375-10.406293 1.02664-15.618793-1.32336-2.1-.95-4.122173-1.80261-6.109673-2.99011-3.2862-1.975-5.499721-3.00659-9.82858-2.38957-3.137872.44726-5.361872.91758-7.625652 1.33791-1.68375.31263-2.1148-.26698-1.13089-2.16121 3.51964-6.77604 9.117436-9.80613 16.766136-9.23113 1.2.0875 4.722132.34324 6.239642-.005-4.91255-2.82879-6.773754-8.83327-8.436469-13.51359-2.205867-6.20921-5.766759-10.74445-11.231669-14.39084-1.89756-1.26612-2.31676-1.77835-4.06801-3.27835 6.47194 1.57427 14.202162 4.48066 19.672527 11.52748 1.478251 1.90425 2.51178 3.74013 4.238668 5.45073.923115.9144 2.463115 2.40122 3.657047 2.95561 4.01429 1.86396 3.672669 1.96387 6.126222-.36272 2.943355-2.79105 7.312397-5.29631 11.476021-6.62081 3.254454-1.03528 7.595667-1.90167 10.921207-2.64927 4.736961-1.0649 8.791912-2.59586 12.990696-5.06265 1.801223-1.05821 2.777056-1.83837 4.964556-2.61337.263667 2.27967-1.050516 5.30597-2.899125 7.64071-3.02009 3.81428-7.564882 6.82227-12.375875 9.01308-2.73771 1.24669-5.501584 2.38331-8.350146 3.3625-3.551443 1.22081-5.894193 3.44559-6.755302 7.14397-.509635 2.18884-1.861041 4.59723-3.223541 6.59723 2.099708.13205 4.995821.0612 6.576071-.40029 5.752317-1.67986 11.313911-3.74528 16.099125-6.51221 8.152382-4.71391 13.656772-4.7612 18.723051-4.19018 2.648813.29855 4.204353.2604 5.530643 1.75427z"/><ellipse cx="-92.441208" cy="492.07248" rx="1.352505" ry="1.352535"/><path d="m-65.232331 447.09005c1.811501 1.31389 3.477012 4.80129 3.502015 6.84095-2.275252-.0125-8.499967-3.08915-10.06264-4.96613 1.655396-1.75469 3.809121-3.86443 6.560625-1.87482" fill="#be1a2d"/><path d="m-60.857208 437.73396c1.439881-1.64154 2.881544-4.28017 3.746974-6.22186-3.368906-1.2625-6.448367-2.94792-8.773367-5.91042-1.1125-1.425-2.676346-3.58938-3.773994-5.01519-1.327352-1.72419-3.603195-4.74991-10.515963-8.18961 6.124369 4.80312 8.344068 11.5083 10.044068 15.9583.65 1.6875 1.630215 4.2404 2.667715 5.7404.975 1.425 2.728267 3.53838 4.328267 4.28838.95.45 1.6625.3 2.2763-.65zm53.4937158-2.64557c-6.4848828-.53633-10.2241138.81509-14.7948958 3.16824-5.104746 2.62805-9.784575 4.9896-15.258074 6.75676-3.276507 1.05784-6.035771 1.49518-9.514688 1.36308-2.162618-.0821-3.833335.0716-6.066926.51523-2.233591.44364-4.140808.72091-6.240808.37096-.625-.1-.905376-.32429-.788375-.76094.299704-1.11851.525352-.76786 1.704766-.63381 3.318634.16676 6.457709-.48159 8.580109-1.59991 1.73012-.91163 3.21467-3.6878 4.312401-7.02766 1.071301-3.25945 2.664068-5.65007 5.175495-6.68138 2.879401-1.18242 6.300945-2.5017 9.192067-3.67098 4.433888-1.79323 8.509888-4.4099 11.955303-7.71469.842102-.80773 2.385797-3.55381 3.408631-5.4349-5.13314 2.96072-10.495874 5.25303-15.448714 6.43741-3.426357.81935-8.232423 1.77976-11.583167 2.86978-7.346491 2.38987-11.019471 5.12831-14.471073 12.1326-2.171256 4.4061-5.35848 6.44196-10.00848 6.11696-2.3125-.1625-4.65-.2625-6.9375-.05-4.4625.4-8.237935 2.68185-11.405115 7.97915 1.54881.083 4.08361-.55892 5.071102-.78392 6.395757-1.37549 10.568261.98518 15.392493 3.68229 7.916372 4.42584 15.888421 4.1633 24.122613.80402 4.781712-1.95078 9.112107-4.99646 13.532067-7.57783 5.435297-3.17436 11.988034-8.89874 20.0707688-10.26046zm2.922639 9.97522c-2.186434.52968-2.817307.75773-6.4982148.92871-4.6125.2375-6.700519.29836-11.730086-.99316-.7875-.25-1.639134.24881-2.225334.63631-.9138.6125-3.847627 2.20229-5.208827 3.12729 9.79402 1.11206 20.6948208 2.03154 25.6624618-3.69915zm3.97001204-9.63388c-7.19878404 1.68546-10.05627084.25881-21.24007684 8.14957 7.4263 1.6875 13.2224708.88443 20.4039388-.43673-3.5375 5.775-8.128623 7.37779-11.3256478 7.62051-2.3.2375-4.597287.32239-6.911087.29739-2.825-.025-6.900644-.0354-9.665014-.55729-3.80487-.71826-5.392713.83631-8.042713 2.23631-3.025 1.5875-6.186087 2.83891-9.547287 3.60141-5.5888 1.2375-10.406293 1.02664-15.618793-1.32336-2.1-.95-4.122173-1.80261-6.109673-2.99011-3.2862-1.975-5.499721-3.00659-9.82858-2.38957-3.137872.44726-5.361872.91758-7.625652 1.33791-1.68375.31263-2.1148-.26698-1.13089-2.16121 3.51964-6.77604 9.117436-9.80613 16.766136-9.23113 1.2.0875 4.722132.34324 6.239642-.005-4.91255-2.82879-6.773754-8.83327-8.436469-13.51359-2.205867-6.20921-5.766759-10.74445-11.231669-14.39084-1.89756-1.26612-2.31676-1.77835-4.06801-3.27835 6.47194 1.57427 14.202162 4.48066 19.672527 11.52748 1.478251 1.90425 2.51178 3.74013 4.238668 5.45073.923115.9144 2.463115 2.40122 3.657047 2.95561 4.01429 1.86396 3.672669 1.96387 6.126222-.36272 2.943355-2.79105 7.312397-5.29631 11.476021-6.62081 3.254454-1.03528 7.595667-1.90167 10.921207-2.64927 4.736961-1.0649 8.791912-2.59586 12.990696-5.06265 1.801223-1.05821 2.777056-1.83837 4.964556-2.61337.263667 2.27967-1.050516 5.30597-2.899125 7.64071-3.02009 3.81428-7.564882 6.82227-12.375875 9.01308-2.73771 1.24669-5.501584 2.38331-8.350146 3.3625-3.551443 1.22081-5.894193 3.44559-6.755302 7.14397-.509635 2.18884-1.861041 4.59723-3.223541 6.59723 2.099708.13205 4.995821.0612 6.576071-.40029 5.752317-1.67986 11.313911-3.74528 16.099125-6.51221 8.152382-4.71391 13.656772-4.7612 18.7230508-4.19018 2.648813.29855 4.204353.2604 5.53064304 1.75427z"/><ellipse cx="-73.776634" cy="443.74188" rx="1.352505" ry="1.352535"/></g><path d="m79.884102 508.83194c-.282378.25095-.363335.65912-.139774 1.09316.143804.28135.374064.5327.575415.78717 6.321095 8.07926 31.682597 40.54213 38.033757 48.61114.26654.34767.53594.68923.72472 1.01012-.55104.005-.98365.009-1.43713.01.0811.40782.42374.52484.67858.67188 1.77076 1.04682 3.26219 2.37556 4.52103 3.96259.28584.36099.55785.73107.81984 1.11919.45647.67017.99288 1.28706 1.49191 1.92255-.40428.43437-.94351-.081-1.35643.33852 2.07821 1.45525 4.14448 2.91208 6.21548 4.36128.0584-.0431.10975-.0845.16283-.12468-.94078-2.34627-1.87897-4.68535-2.87298-7.16356-.36004.50522-.18317 1.01472-.43927 1.37919-.17403-.008-.28136-.0973-.36548-.20768-.0678-.0932-.12449-.19151-.19414-.27709-1.0301-1.30872-2.05199-2.62317-3.08208-3.93188-.29039-.36194-.50952-.75351-.67697-1.18371-.45493-1.15226-.92276-2.30559-1.39974-3.50144-.4654.30081-.1697.89406-.59784 1.24285-.68492-.87505-1.32945-1.64136-1.99879-2.49808-4.81734-6.16591-27.765473-35.5317-36.812526-47.0893-.2257-.28902-.421452-.59855-.758188-.72617-.112215-.0426-.23868-.0661-.389144-.0603-.290488.01-.533837.10398-.70329.25453zm.450471.29741c.125815-.0832.24444-.10621.353025-.0874l.002-.001c.181022.0313.335776.17945.47235.35715.298688.39366.606605.77154.906992 1.15765.684331.87265 1.366663 1.74761 2.050124 2.62403.111455.15077.280378.28773.212481.51307-.114365.38512-.649203.52535-.904662.20615-1.036386-1.30168-2.060813-2.61888-3.082451-3.92912-.208631-.27354-.393583-.59342-.01-.84017zm4.166415 5.11704c.0897-.0663.194652-.11122.343776-.0802.0796.0798.173812.16854.252209.26888.803776 1.02229 1.592283 2.06094 2.413214 3.06654.28273.34319.21299.53904-.0973.79226-.358425.29146-.517558.0522-.70613-.18687-.821386-1.05148-1.638572-2.10051-2.463747-3.15345-.132715-.16499-.223001-.33983.006-.49317.089-.0581.162003-.14764.251659-.214zm3.230409 4.38852c.14335-.11708.27415-.20657.40813-.18503.0805.013.16283.0658.24805.17797.9616 1.23567 1.92583 2.47307 2.89264 3.70565.0776.10414.16736.20284.13139.40294-.14013.11837-.29628.28286-.48386.40531-.1816.11561-.30788-.0407-.4017-.16201-.9668-1.23259-1.92127-2.47553-2.90134-3.70381-.222501-.28534-.12434-.45013.10652-.64086zm3.83814 4.61758c.0913-.0599.19722-.0961.33522-.0785.0872.0986.18096.1902.2593.29063.92313 1.17507 1.84906 2.34168 2.75555 3.53021.30084.38574.23194.60992-.17255.83868-.20722.11723-.35865.087-.50278-.0979-.9751-1.24775-1.95265-2.49946-2.92954-3.75614-.13977-.17078-.18063-.34602.002-.51182.0842-.0721.16163-.15559.2532-.21521zm3.65205 4.80759c.14629-.10795.26089-.13607.36239-.10716.10146.0288.1882.11435.27917.23048 1.34559 1.72551 21.366963 27.3387 22.710733 29.06191 0 0 1.25167 1.57493 1.76836 2.24437.23506.30125.24602.65128-.0529.86173-.29293.20373-.54714-.01-.74093-.26628-.31125-.41137-.65353-.83-.92208-1.16073-1.52586-1.94489-22.026243-28.1917-23.532843-30.08265-.27976-.35482-.19885-.54486.12797-.78155zm28.641613 35.93315c.78151.9954 1.53264 1.94543 2.27374 2.88799.1265.15542.2457.30799.36508.46079.23339.29222.3197.63575.0166.8619-.25151.18888-.56303.0504-.76957-.21414-.84579-1.0712-1.68871-2.14375-2.57501-3.26728.67512-.0146.67676-.0152.68923-.72933z"/><path d="m126.85041 508.76808c-.21293-.17017-.49359-.22788-.77437-.17625-.28077.0516-.56153.21205-.76689.47403-2.44325 3.10821-4.8747 6.21999-7.31252 9.33101-9.1382 11.78065-11.73798 14.90649-20.008513 25.55905-.41897.5395-.84177 1.08228-1.27216 1.62829-.39118-.4169-.16027-.91919-.45263-1.29546-.30771.23272-.38352.59986-.48847.91705-.64198 1.95266-1.5865 3.71612-2.86207 5.30335-.017.0299-.0374.0544-.0554.0806-.18702.22961-.37974.45891-.57754.67894-.62241.69304-1.16902 1.45861-1.82309 2.28587l-.35948-1.36393c-.44672.51655-2.38658 5.15341-2.989181 7.19174 2.243451-1.46497 4.249241-2.96405 6.339431-4.40571-.38857-.43854-.91247.0567-1.26889-.26022-.038-.19134.10235-.29712.19225-.41738.21754-.28819.45687-.55992.66455-.85383.31665-.45288.63546-.89034.9661-1.32215 1.45149-1.85944 3.11636-3.5049 5.21877-4.69387.16793-.0948.34704-.1926.39009-.42637-.40621-.1402-.82122-.004-1.23027-.059.087-.33765.21302-.62226.49343-.99003.0518-.0728.11315-.14558.17796-.22777 10.932173-13.86374 15.026123-19.16531 25.916473-33.08272.62802-.79897 1.25803-1.5925 1.87215-2.39625.43595-.57262.42893-1.14942.0104-1.47894zm-.26724.41823c.16945.16501.11452.35476.0324.5359-.0402.0861-.0971.16882-.15608.24733-1.00027 1.27958-2.00707 2.56245-3.00678 3.84201-.1009.12754-.18536.26958-.37857.31641-.23123-.002-.39538-.16864-.55102-.32887-.18846-.18936-.0422-.35789.0719-.5139.47945-.61333.96416-1.22757 1.44364-1.84128.50174-.64057 1.00426-1.28484 1.51172-1.92193.1161-.14814.24451-.30646.4041-.40303.0514-.0314.10374-.0542.1572-.068.16037-.0414.32518-.002.47162.13548zm-4.13465 5.22862c.32329.26399.22477.39119-.17172.90184-.72113.92462-1.4457 1.84717-2.16749 2.76776-.17899.2277-.32006.51945-.68737.22632-.3004-.23089-.43256-.42512-.14477-.78227.91623-1.13568 1.80531-2.29931 2.70249-3.44278.20619.1375.36114.2413.46896.32922zm-3.36396 4.28666c.31406.27378.22595.39164-.1353.85839-.86008 1.11221-1.73466 2.20889-2.5844 3.32687-.22834.29551-.40044.34475-.71263.10003-.29863-.23966-.31558-.42729-.0873-.72253 1.01801-1.27587 2.0164-2.56334 3.06696-3.90653.1985.14493.34799.25246.45278.3436zm-3.65387 4.70208c.0815.079.15079.17249.20733.28343-.0333.0802-.0603.18-.11638.25357-.98115 1.25743-1.96758 2.50863-2.93916 3.76844-.22249.28535-.41759.20962-.65458.0289-.23647-.18095-.35894-.35735-.13546-.63871.9872-1.25057 1.9678-2.50893 2.9498-3.76259.0566-.0717.11721-.12613.18581-.15223.0686-.0264.14493-.0229.22812.0221.10013.0535.19322.11821.27468.19722zm-3.74115 4.79496c.3013.25215.21751.3666-.13661.82517-6.5436 8.34717-6.5199 8.38586-13.024583 16.61321-.0861.10884-.16644.22116-.24944.3355-.1123.147-.23155.30125-.34471.44447-.11774.15719-.24336.30499-.37797.44574-.17841.19816-.42293.22576-.61754.0925-.19162-.13829-.20932-.39288-.1533-.6254.0233-.0863.0836-.17344.14751-.24907.47012-.6025.94083-1.20908 1.42967-1.8299 6.708223-8.52246 6.862803-8.7455 12.619023-16.10726.0739-.0995.18508-.17388.27546-.26065.1902.13223.33209.23154.43253.3156zm-17.548333 22.92083c-.0312.088-.0402.18541-.0905.24902-.12868.16405-.25134.32656-.37885.49462-.65066.83932-1.30428 1.66975-1.96031 2.50585-.0553.0772-.11999.15309-.18546.22438-.23946.26882-.55764.42881-.84229.17716-.23703-.21425-.14157-.53513.0665-.79567.8206-1.03896 1.63532-2.08338 2.44442-3.11898.0223-.0269.0403-.0532.0625-.08.31502.16008.0204.39335.1701.54681.28494.12566.43223-.22108.71387-.20315z"/><g transform="matrix(.3244964 0 0 .3244964 193.49844 263.49721)"><g fill="#bf9339"><path d="m-270.45153 908.73176h-.002c-7.76125 0-14.5775-2.85875-20.2575-8.49625-4.57-4.53125-6.4825-9.88875-5.84375-16.3775.1925-1.92 1.3175-2.61875 2.65875-3.2775 6.85-3.38375 14.7625-5.21625 22.88125-5.3 8.3175.11625 16.02125 1.45625 24.255 4.22 2.0775.7025 2.87875 1.86375 2.68625 3.89-.14625 1.6375-.0838 3.35875-.0238 5.02375.195 5.0475-1.81 9.4975-5.955 13.2425-4.30375 3.8875-9.80375 6.13875-16.815 6.8825-1.2125.1275-2.41875.1925-3.58375.1925" fill="#891500"/><path d="m-295.33403 879.66801c-.0925 0-.18375-.0213-.26875-.0612-.17-.08-.295-.23375-.33875-.4175-.99875-4.15625-.74125-4.8125 2.51125-6.38375 8.8425-4.275 18.5875-5.79 30.03375-4.64625 5.24125.51625 10.52375 1.70875 15.6975 3.54375.49625.1775.91375.3125 1.265.42625 2.255.73 2.32875 1.04 2.305 3.6375-.002.33625-.006.72125-.005 1.1625 0 .26125-.0538.5-.1225.80375-.03.1375-.065.29375-.1025.48-.0337.17875-.14375.3325-.30125.4225-.155.0888-.34375.11-.515.0488-9.06125-3.13375-17.3175-4.6575-25.2425-4.6575-8.7 0-16.76125 1.825-24.6475 5.58-.085.04-.1775.0612-.26875.0612"/><path d="m-295.21903 871.89426c-.115 0-.23375-.005-.355-.0175-.30875-.0325-.5475-.28625-.56-.5975-.18875-4.8575.0213-9.7575.22375-14.495l.56-13.185c.33-7.77.66-15.53875.98-23.3075.095-2.63875.25375-2.855 2.82875-3.89 6.3275-2.56125 12.96625-3.84625 19.7925-3.84625 5.4325 0 11.18625.81375 17.10375 2.42125 1.56375.42875 3.1325.93 4.65125 1.41625l.56375.17875c2.99875 1 3.185 1.24 3.32 4.26875.25 5.32375.49 10.66375.7025 15.99.4125 10.1625.81125 20.3125 1.19875 30.475.0263.66375.0212 1.31375.0162 1.95625l-.004.74375c0 .21-.105.405-.27875.52125-.40125.265-.82625.4-1.26.4-.5675 0-1.0425-.22125-1.46125-.415-.15-.0712-.2975-.14-.44625-.1925-9.65875-3.1925-19.25875-4.37875-28.58375-3.52875-5.54125.50375-10.96125 1.87875-16.11 4.08875-.21125.0913-.41875.20125-.6275.3125-.625.32875-1.33375.7025-2.255.7025" fill="#bf9339"/><path d="m-247.45903 815.80551c-.0688 0-.1375-.0113-.205-.0338-17.3525-6.0162-31.5425-6.0487-45.11125-.2287-.28375.12125-.61625.0175-.77875-.2475-.62875-1.02125-.59875-1.74-.57375-2.3175l.006-.19875c.0275-2.7525.18-2.97875 2.71875-4.0075 6.2225-2.51125 12.7075-3.76625 19.36-3.76625 5.73 0 11.815.93375 18.085 2.775.64125.1925 1.27375.41 1.905.62875.9625.3325 1.95625.67625 2.945.9 2.03875.485 2.92625 1.77375 2.72125 3.9425-.0125.13-.015.2525-.0175.38-.01.49-.0237 1.16-.54125 1.905-.12.1725-.31375.26875-.51375.26875"/><path d="m-247.18278 808.58051c-.0713 0-.1425-.0125-.21-.0362-17.48875-6.2575-31.59-6.43375-45.085-.70125-.16375.07-.35.0663-.51125-.01-.16125-.0762-.2825-.21875-.3325-.39-2.965-10.1775 1.64625-20.5125 10.9625-24.5725 8.18-3.56125 16.47625-3.4325 24.20125.37375 7.93625 3.92 11.8425 10.08375 11.61125 18.31625-.0425 1.345-.0325 2.7-.0213 4.1825.005.705.01 1.43875.01 2.2125 0 .20375-.1.39375-.265.51125-.1075.075-.23375.11375-.36.11375" fill="#891500"/></g><path d="m60.269531 510.36328c-.165759-.003-.323321.0258-.453125.1211-.251495.19467-.260357.53591.07227.72656.381299.21499.276137.47491.09766.73047-.304228.42592-.612089.84706-.960937 1.23242-.701348.77477-1.427951 1.53277-2.150391 2.2832-.920797.95731-1.639731 2.04075-2.033203 3.31445-.190647.59589-.494758 1.0224-1.058594 1.31446-.344792.17442-.632824.45929-1.054687.76758-.799106-1.46436-1.459758-2.96252-2.230469-4.55664.661189.11354 1.192769.20267 1.578125.26757-1.358886-1.38322-2.787752-2.82591-4.248047-4.31054.409694 1.95111.823947 3.9018 1.253906 5.92187.498938-.25149.349922-.82072.763672-1.08398.275834.30423.395888.69798.570313 1.05859.490821.99422.970416 1.99612 1.453125 2.99805.125747.26326.230293.51233.02344.8125-.742317 1.08305-1.115234 2.31098-1.115234 3.56445 0 1.34189-.0065.16209.02539 2.32422.02077 1.4057-.07526 2.80723-.105468 4.21484-.04064 1.89382-.06336 2.92029-.179688 4.87505-.180268 3.02914-.256521 6.06982-.396484 9.10743-.1193 2.58916-.348532 5.83211-.138677 8.39649.119297 1.45778.367892 1.70961.86914 2.66211.206694.39277.408647.66814.132813 1.29687-1.026263 2.32836-2.055768 4.65797-3.082031 6.98633-.3813.86807-.500968 1.09805-.870098 1.97017-.129804.30423-.444846.63638.123047.86719.531385.21539.531102-.25061.640625-.49805 1.188518-2.64516 2.084374-4.67652 3.260723-7.33345.263664-.59223.523746-1.18361.832031-1.86914.600343.47865 1.123362.89454 1.642578 1.31641.170368.1298.207783.32888.240234.51953.421863 2.42977 1.68619 4.43715 3.146485 6.33594.713922.93296 1.457055 1.86661 2.300781 2.67382 1.102928 1.06277.950164 2.35626.914062 3.6543-.0085.32857-.471298.42639-.402343.83203.05679.32451-.01245.65355.482422.67383.596692.0243.731476-.0488.767578-.57617.01217-.22716.0039-.45839.0039-.68555v-10.97656c0-.90052.0062-.9004.841797-1.11133 1.865932-.47054 2.365449-.71834 4.628906-2.3125.214988.14968.273335.40971.371094.63281 1.302096 2.92465 2.402506 5.30756 3.708659 8.22815.121692.27584.101879.80739.673828.57618.640908-.25556.211986-.66077.07813-.96094-1.330896-3.0504-2.481835-5.55546-3.861003-8.58557-.279484-.62063-.06131-.94161.259766-1.56641.164127-.31938.384962-.85387.478515-1.68359.179412-1.59114.159233-3.1874.109376-4.78516-.05452-1.74707-.04472-2.82931-.09765-4.43749-.106302-3.22974-.247751-6.46253-.414062-9.69141-.147582-3.15652-.164463-5.51354-.210935-8.87692l-.03125-2.26172c-.01726-1.21292-.484846-2.36616-1.210937-3.39648-.14603-.21093-.13686-.42143-.02734-.64453.259611-.51922.515632-1.03381.779297-1.55664.352905.26363.300641.70553.673828 1.00976.640907-2.0363.45662-4.29482 1.839844-6.0918.377648.2231.247958.78697.714843 1.05469.38495-1.79697.754067-3.53731 1.119141-5.27344-.06085-.0406-.116889-.0825-.177734-.12304-1.269642 1.25747-2.527083 2.53143-3.800781 3.79297.235266.23932.42559.0883.599609.0762.194706-.009.380566-.0436.652344-.0801-.547611 2.29591-2.457372 3.51192-3.873047 5.30078.539498-.0852.924488-.14949 1.423828-.22656-.105872.62874-.442765 1.09511-.669922 1.58594-.312341.0689-.441261-.15701-.603516-.29493-.884289-.75448-1.906281-1.2455-3.013672-1.57812-.957301-.28395-.960937-.28398-.960937-1.31836v-6.08008c0-.19065.0083-.39123-.0039-.58594-.01623-.21498.06352-.51056-.216797-.58398-.155966-.0404-.328378-.0766-.494141-.0801zm-.353515 3.08594c.344792.19065.228515.44742.228515.6543.01217 1.33049-.000306 2.65974.0078 3.99023.0041.35696-.09857.55168-.496094.52734-1.306153-.0933-2.582372.0968-3.998047.49024.774768-2.53929 2.854313-3.8408 4.257813-5.66211zm-.767578 5.93945c1.286426.0142 2.568569.32281 3.824218.94141 2.340123 1.15607 3.729422 3.01375 3.652344 5.75586-.01986.64496-.002 1.2972-.002 2.08008-4.965409-1.7767-9.871083-2.30804-14.779297-.22266-.937023-3.21671.50251-6.44865 3.443359-7.73047 1.281815-.55775 2.574899-.83842 3.861329-.82422zm-.804688 8.02344c1.998832-.0243 4.007624.30035 6.023438.89258.531787.1582 1.046439.37635 1.585937.49804.596287.14198.779292.50678.726563 1.0625-.02028.19065.02835.39304-.146485.64454-4.891988-1.69597-9.830219-2.1939-14.787109-.0684-.194706-.3164-.1564-.51443-.152344-.70508.0081-.82345.01053-.81464.78125-1.12695 1.979511-.79911 3.969921-1.17293 5.96875-1.19727zm.595703 2.45117c1.727607.0277 3.46449.30372 5.208985.77734.564238.15455 1.122266.33715 1.68164.51563.888346.29571.896936.2987.9375 1.19922.08113 1.72801.159557 3.46144.228516 5.18945.13386 3.29783.262924 6.59084.388672 9.88867.01217.29612.0039.5852.0039.86914-.336679.22311-.595755-.0006-.847656-.0898-3.042282-1.00598-6.156795-1.44871-9.361328-1.15625-1.833482.16631-3.599508.61571-5.291016 1.3418-.292059.12575-.55575.34916-.949219.30859-.06896-1.76452.02463-3.51507.09766-5.27148.158199-3.75215.320467-7.50567.47461-11.25782.02839-.78288.02361-.7754.810547-1.09179 2.188161-.88531 4.395987-1.25825 6.617187-1.22266zm-.08203 17.92578c.820592-.008 1.648837.0321 2.482422.11524 1.728016.17036 3.41175.56056 5.046875 1.14062 1.151605.4097 1.017428.14097 1.021484 1.50391 0 .0933-.03185.19231-.06836.3789-5.536952-1.9146-10.977166-2.24887-16.34375.30665-.304228-1.26559-.258386-1.37532.707031-1.8418 2.296924-1.11044 4.692522-1.57861 7.154298-1.60352zm.0332 2.42774c2.896252.0406 5.374922.54404 7.804687 1.35937.552073.1866.791162.4545.734376 1.05078-.04868.54761-.02878 1.10643-.0078 1.66211.0638 1.69155-.650278 3.03549-1.867187 4.13477-1.508972 1.36294-3.354174 1.97071-5.341797 2.18164-2.928703.30828-5.464904-.54363-7.574219-2.63672-1.440013-1.42784-2.0347-3.13227-1.835938-5.15234.05273-.52328.352476-.70569.75-.90039 2.413544-1.19258 4.98925-1.67488 7.337891-1.69922zm-4.191406 10.40039c.774767.22675 1.40777.43915 2.052734.60547.888346.22715 1.790291.35126 2.707031.30664.474596-.0162.709285.0775.701172.63281-.02431 2.20707-.01172 4.42194-.01172 6.63672-.07342.0365-.145586.069-.222657.10547-2.17016-2.42572-4.330077-4.85948-5.22656-8.28711z" transform="matrix(3.081569 0 0 3.081569 -452.48358 -819.62569)"/></g><g transform="matrix(.71717121 0 0 .71770142 52.734844 127.4221)"><g fill="#a3675e"><path d="m54.831831 505.07737c-.0412 0-.0838-.004-.125-.0137-.25875-.0525-.45625-.26125-.4925-.5225-.0863-.5925-.16625-1.1725-.2425-1.73875-.39-2.88375-1.097676-8.6823-2.120176-11.0073-.1175-.27-.0325-.58625.2075-.75875.18-.13.36125-.25875.55375-.38875.2175-.14625.50125-.14.71125.01 1.78625 1.27375 5.685931 4.1676 7.622181 5.55635l1.57875 1.1325c.16875.12125.26625.32.26125.5275-.006.20875-.11625.4-.295.51l-.34625.2175c-1.99 1.2375-5.448255 4.00595-6.779505 6.17845-.11625.18625-.31875.2975-.53375.2975" fill="#e8a400"/><path d="m102.26407 508.48581c-2.612465 0-7.56546-1.30294-9.82046-2.65169-3.11625-1.86875-6.035251-3.54022-8.645251-6.43522-1.40625-1.56375-2.67375-2.46-4.11125-2.91l-1.1475-.26125c-.235-.0288-.445-.0425-.65-.0425-1.61375 0-2.505149.5216-3.358899 2.31535-.4675.9925-.720925 3.59372-.879675 4.76747l-.035.33375c-.0675.73125.01312 1.85556-.91438 2.71806-.14375.1325-.33875.19125-.5325.15875-.19-.0337-.35625-.15375-.44625-.3275-1.895-3.62-5.842822-7.59066-9.196572-9.86191-.47875-.32375-.96-.64875-1.43375-.9775-6.84125-4.76625-12.0031-9.016-15.6081-15.3235-.28125-.48375-.31506-.55281-.38381-.55281-.1425 0-.345.0713-.60125.21-.19125.10375-.3175.215-.34125.2975-.0462.17375.249786.45684.398536.70184 1.30875 2.29 2.926775 4.43322 4.771775 6.42947.82125.8825 2.586602 2.50635 2.204102 4.16135-.0375.1575-.1325.29375-.26625.3825-.66375.43875-1.807876.2894-2.161626.0919-9.12878-5.08278-13.368177-10.7447-16.260677-18.2822-.97625-2.49625-.810772-5.1673-.753272-7.40855l.0513-1.66c.0687-2.11875-.01647-3.87888-.105273-6.03013-.827142-4.69319-2.951919-8.58737-8.081919-10.15862-.42875-.12625-.85875-.235-1.28625-.34125l-.69125-.17625c-.31875-.085-.5175-.40375-.4525-.7275.0125-.0638.02-.1325.0275-.1975.0275-.26125.0712-.655.44625-.84 2.8725-1.585 6.790766-3.83714 9.663266-5.47339.99625-.57 2.2425-.8825 3.5075-.8825 2.925 0 5.690446 2.25873 6.880446 4.90873.2375.525.465 1.05625.695 1.59.9 2.10125 2.049312 4.51886 3.593062 6.49011.11125.14125.155.32375.1225.50125-.0337.17625-.1425.33-.29625.42125-2.89875 1.7175-4.389651 3.92818-4.333401 7.90068.0588 3.32.4225 5.83125 1.18125 8.13875.235.69375.04149 1.50137.493992 2.25637l.175.305c.145.2575.44625.795.62125.795.34625-.14.09562-.2927.193123-.6202.10625-.3525-.0637-.7375-.22625-.99875-1.5025-2.45125-1.235623-5.24105-1.504373-7.89605l-.055-.5375c-.1225-1.07625-.0913-2.24125.0925-3.4575.515-3.49625 2.4002-5.44025 6.02645-5.64775 2.305-.14875 5.013001.42645 7.379251 1.84395 4.6925 2.8125 9.375451 6.3983 13.960451 11.3233 5.2125 5.5825 9.144549 10.37525 12.745799 14.614 2.56125 3.005 5.49685 6.18975 9.48435 8.5235.385.21 3.083739 1.69411 3.412489 1.96161.1475.12125.29625.24125.45.35625.23875.1775.32.4975.1925.765-.31.66625-.800725 1.52761-1.501975 1.52761-.195 0-.395-.0275-.5875-.0562-.115-.0175-.225-.0362-.33-.0387-6.38625-.05-15.27859-2.16564-21.17234-4.29564-4.5575-1.6375-8.798476-4.27613-12.563476-8.28863-1.40375-1.49125-2.8298-2.99322-4.21105-4.51697l-1.14-1.255c-.2325-.2625-.56-.60375-.78375-.60375-.1375 0-.0712-.29373-.288699-.0762-.3925.38-.4125.44625.2275 1.16875.5225.5725 1.05 1.15625 1.58 1.74 2.2525 2.4925 4.737425 4.91757 7.312425 7.16257 4.11875 3.5725 9.278225 5.93823 16.279475 7.48948.16375.04.23.0575.29375.0638.21625.0525.32125.0737.42875.095.7275.15125 1.43625.2875 2.16875.42375 2.4775.46375 5.08185.88045 8.47935.9392l.27125.006c.8275.0163 1.949768-.0254 2.841018.64591 4.00125 3.03 9.270868 7.44703 12.054568 12.04578.1063.17625.1188.3925.036.57875-.084.1888-.2537.3213-.4562.3588-1.07.20125-2.1225.3025-3.1275.3025" fill="#e8a400"/><path d="m74.429734 520.34888c-2.35625 0-4.35375-.2675-6.10875-.82-1.8775-.57875-3.83-.975-5.96875-1.21125-.29125-.0375-.58125-.0612-.86-.0863-.0337-.002-.0662-.009-.1-.0163-1.32375-.10625-2.66875-.24864-4.16-.24864-2.11875 0-4.175.0988-6.64375.22375-4.78375.24125-10.529768.60739-15.927268.40614-2.78625-.11125-5.63-.58625-8.4525-1.41375-1.37-.41-2.441482-1.47101-3.553982-2.11976-2.0325-1.175-3.1875-2.705-3.33875-4.4225-.15-1.7075.71125-3.40125 2.49-4.89625.83375-.68625 1.7575-1.3525 2.75375-1.98625 3.52125-2.24875 5.015-4.91125 4.7-8.37875-.0413-.55125.006-1.13875.13875-1.71.46875-2.1225 2.09625-3.02375 4.20875-2.25875.99625.375 2.025446.74126 2.481696 1.23876.64625.72375 1.22125 1.5025 1.09 2.33375-.12875.82625-.979884 1.9576-1.777384 2.42635-1.795 1.0175-2.610232 2.10727-2.970232 3.76352-.24625 1.18125-.54158 2.01137-.08783 2.64762.44125.6175 1.24125 1.0025 2.38 1.145 1.26625.1575 2.76125.105 4.405-.004 2.39375-.1725 4.9675-.2825 7.86625-.33875l.12625-.002c1.1025-.0288 2.36875-.0713 3.46625.86375.115.0987.19125.23375.2125.38375.18125 1.2125-.75875 1.7025-1.26375 1.965-.09.0462-.1775.0925-.26.14-2.90875 1.74375-5.68375 2.67125-8.48125 2.8375-.285.0138-.65375.0713-.8225.26375-.12875.145-.18.4075-.15375.78.03.4075.1325.50125.55.50125.175 0 .355-.0238.53125-.05l1.17-.18375c1.655-.255 3.365-.52 4.9625-.98625 2.93-.82625 5.65125-.8875 8.35625-.1925 1.32375.33.672557.0342 2.226307-.14829.21125-.025.85625-.0987.98625-.1925-.02-.105-.30125-.86625-.435-1.2325-.0738-.19875-.0412-.42.085-.59.125-.16875.971686-1.81348 1.186686-1.78973 1.165.075 4.358693.59204 5.482443.73579 1.52.19375 3.0925.39375 4.665.4075.26625.002-.146686 1.71223-.06044 1.96348.085.25.002.52875-.205.6925-1.53875 1.2125-3.3475 1.8575-5.0975 2.4825-1.12375.40125-2.27375.81125-3.37875 1.37625.3125.05.62625.0925.9375.13.34125.0425.585.0725.83.0825.59.0525 1.1475.0762 1.69375.0762 3 0 5.66875-.7575 8.15875-2.31875.755-.46875 1.44125-.85625 2.2225-.85625.67125 0 1.30625.29375 1.94.89625.34.33.7725.46875 1.44875.4675.26625 0 .53875-.02.8175-.0412-.31-.7425-.86125-1.325-1.48-1.975-.44625-.47375-.91-.96375-1.3175-1.55625-.11-.15875-.14-.36-.0813-.545.0588-.1825.1975-.33.38125-.39625.7425-.27125 1.5675-.1725 2.1925-.0387l4.82875.985c1.80375.36625 3.60875.7325 5.405 1.1025l.37625.07c.89125.1575 2.23625.395 2.42 1.9975.1725 1.735-1.35 2.6875-1.85375 3-3.67375 2.30125-7.575 4.14726-11.59375 4.45476-1.50375.115-2.65875.16625-3.74.16625" fill="#6e3c1c"/></g><path d="m54.589806 504.80203c1.879451-2.3379 4.018976-4.89683 7.939206-6.99041-2.5625-1.8375-7.111381-5.05208-9.721032-6.817-.18875.125-.2754.81615-.45165.94115 2.374278 3.46292 2.819004 9.32836 2.233476 12.86626zm14.167005 1.71601c1.568458.0159 2.433233-.0322 1.58672-1.23135-1.551968-2.19843-3.809654-4.43858-5.601673-5.78357-.413897-.31065-.850997-.51553-1.3875-.3375-2.251007.74697-5.227885 3.1378-6.478628 5.269-.649301 1.10638.891698 1.21476 2.487121 1.27122 2.976314.10533 3.594721.3814 6.439657.62454.797095.0681 1.967007.17766 2.954303.18766zm22.176334 6.61982c.712023-1.11273-1.276894-1.66503-2.239661-1.86374-3.337234-.68879-6.699926-1.36286-10.05-2.05-.611176-.12536-1.25-.3125-2.0375-.0263 1.1 1.60125 2.7375 2.5 3.1 4.45125-1.2875.075-2.581377.35616-3.5125-.5375-1.243915-1.19387-2.175896-.72844-3.4.0375-3.150902 1.97156-6.511952 2.6562-10.2125 2.3375-.07343-.006-.150192.001-.225-.0125-.06271-.0114-.136738-.0175-.21125-.0263-.138248-.0163-.289061-.0332-.43875-.05-.850347-.0957-1.725-.24875-2.6-.44875 3.25-2.225 7.73907-2.9793 10.502481-6.18973-2.77375-.025-7.519032-.90795-10.244032-1.08295.7 1.9-.02739 3.60298-1.739981 3.80223-1.499913.1745-2.988825.14276-4.4875-.2375-2.688839-.68224-3.233665-.27654-5.930968.49545-2.015236.57677-4.124452.85215-6.2125 1.1875-.799462.1284-1.714653.15016-1.8-1.025-.07715-1.06235.362825-1.64405 1.5625-1.7125 2.962845-.16905 5.673388-1.2402 8.2-2.75.548396-.3277 1.719601-.68134 1.225-1.475-.651828-1.04596-2.087436-.73455-3.175-.7125-2.612442.053-5.23706.15492-7.8375.3375-1.51208.10617-3.012692.18904-4.525 0-2.687693-.33596-3.304785-2.09357-2.732287-4.79147.427511-2.01465 1.602043-2.97415 3.357617-3.98626 1.757009-1.01294 2.082885-2.16706.727151-3.67442-.5443-.60518-2.11446-1.00901-2.879632-1.28932-1.759876-.64471-2.706659.15479-3.110349 1.96647-.108814.48834-.169642 1.01184-.125 1.5125.367863 4.12564-1.698805 6.86437-4.9875 8.9625-.923808.58937-1.843254 1.23057-2.6875 1.9375-3.305789 2.7681-3.459613 6.18261.300581 8.36159 1.114815.64602 2.594729 1.5683 3.846357 1.93783 2.685889.79298 5.338642.99913 8.361589 1.3875 1.696607.21797 6.460147.4277 14.571047-.0319 4.181021-.23691 8.198742-.58441 11.80498-.20463 2.408776.25367 4.788491.68842 6.953578 1.22981 3.408063.85219 6.911298.88282 10.136007.50182 3.558602-.42045 9.690106-1.48154 12.753022-6.2682zm1.171585-7.79519c3.46358 1.72713 6.881448 3.31415 13.49608 2.38713-4.43595-5.09116-8.072993-8.83972-11.601649-12.01298-.756014-.67987-2.348597-.72122-3.236277-.73868-2.926111-.0575-5.862818-.4649-8.735525-1.01452-6.957975-1.33125-14.797135-4.4631-19.319224-8.32561-3.226942-2.75626-5.805143-5.72992-8.646027-8.85074-.584187-.64175-.976044-.98637-.41292-1.48701.496385-.44131.4351-.38285 1.104743.35966 1.754165 1.94505 3.514114 3.88598 5.3 5.7875 3.426615 3.64848 8.052498 6.61507 12.451627 8.30283 5.585549 2.14294 8.220166 3.25307 21.071897 3.83291.59952.027 1.551873.0164 2.75509-.43803-1.103392-.56267-1.682681-1.06381-2.18907-1.38295-3.833483-2.41598-8.907923-6.7472-11.792045-10.13758-4.165881-4.89713-7.829023-9.28176-12.213765-13.98433-4.065259-4.35993-9.0582-8.73038-14.20868-11.81708-2.02452-1.2133-5.61174-1.7472-8.024654-1.60402-3.274603.19432-4.500502 2.5654-4.97856 5.78995-.159443 1.07546-.203374 2.21149-.0875 3.3.296632 2.78654.555648 5.68079 1.920116 8.27897.628996 1.19771.707587 1.16681-.231376 1.60116-.513993.23776-.52632-.21188-.911841-.85058-.451983-.74881-.793047-1.62314-1.075-2.475-.893054-2.69817-1.16788-5.47491-1.2125-8.325-.05538-3.53742 1.142351-7.75085 5.146403-8.61895-2.031051-1.55762-3.722881-6.65494-5.101538-9.19775-2.521094-4.64993-6.763685-4.39016-9.785097-2.84694-2.946536 1.50498-7.344516 3.62871-9.652559 5.88194-.08.0781-.346965.45466-.1375.6.562971.39063 1.326614.31963 2 .525 5.351638 1.63214 7.312467 3.50577 8.524419 10.08443.494126 2.68219.296569 4.8776.115562 7.97774-.141394 2.42168.03042 4.7937.642054 7.18659 1.341591 5.2487 8.45375 15.10806 16.098838 18.39701.354659.15258 1.357568.44695 1.865622-.17329.845424-1.03211.200316-1.72882-.62317-2.61772-1.851514-1.9986-4.533707-5.47708-5.898169-7.83126-.410649-.70851-.737241-.85457-.145176-1.28142.517694-.37323.65874-.71071 1.169323.22942 3.566526 6.56697 9.145222 10.94388 15.571775 15.20685 3.825676 2.53771 7.860385 5.56924 11.479494 11.13182.287006-2.64313.590421-3.74387.694384-4.53102.158538-1.20036.504742-2.35398.99875-3.45.605295-1.34293 2.105522-2.55016 3.937098-2.34352 2.224078.25092 4.173877 1.49272 5.508824 2.76405 3.193116 3.04094 5.398 5.23015 8.367723 6.71102zm3.150846-10.53047c4.739063 4.1992 9.180644 10.14056 12.872234 13.79694-5.03449 1.09729-10.321432 1.54185-17.654113-2.60944-2.879319-1.63008-4.339782-3.47758-6.847422-5.76566-.725847-.66229-2.333809-1.66357-2.835472-1.98817-2.66568-1.72483-5.014461-1.18257-5.757897 1.59198-.529494 1.97609-.719826 3.14517-.759616 3.43668-.427279 3.13032-1.035315 3.01155 3.40092 3.75661 3.676279.61744 7.763602 1.88475 11.411909 2.62444 1.900445.38531 3.373027.46865 3.721027 2.54171.350761 2.08951-.403852 2.90922-1.917965 4.28957-3.323672 3.03004-7.355321 4.45139-11.881376 4.75432-4.625197.30957-8.570411.51468-13.34967-.84331-2.456371-.69796-5.367267-.87501-7.906124-.81704-6.355283.14511-11.631939.272-17.569494.45776-4.849946.15174-9.465047-.37011-14.167677-1.69833-1.847403-.52179-3.660888-1.35709-5.224088-2.49238-4.149301-3.01346-3.99818-7.02249-.276493-10.52525 1.165866-1.09729 2.500442-1.90113 3.85-2.76432 2.500442-1.59931 3.818713-4.2123 3.600911-7.24942-.0072-.10052.0068-.20016.0125-.30125.219287-3.87408 1.085016-5.09694 4.060019-5.10877 3.312497-.0132 6.588825 2.04889 6.697849 5.16026.05348 1.52613-.729798 2.35001-1.969205 2.99637-1.085605.56615-2.192022 1.08527-2.7625 2.25-.62953 1.28529-.575319 3.69987.86217 3.71472 2.312512.0239 4.902918-.14578 7.214651-.36647 2.925793-.27931 6.019791-.55115 8.971087.28512 1.316275.37298 2.02577.77736 2.149419-.30662.450239-3.94708-.348389-6.45977-1.059675-8.67266-.301214-.93711-1.876411-1.58013-2.619339-1.84723-7.375305-2.65155-14.763326-11.06225-17.281065-17.7437-.866446-2.29933-1.28489-3.97813-1.245116-6.41582.04772-2.92485.17041-5.84994.1375-8.7625-.06709-5.93745-2.305538-9.6347-8.14402-11.22991-1.141189-.3118-2.45605-.35445-3.768151-.46652 1.060102-2.50283 1.950851-3.53521 4.389127-4.86127 2.485729-1.35187 3.592209-2.09748 6.580265-3.70044 5.272219-2.82832 9.876738-1.82887 12.620921 3.54272.780827 1.52843 1.827796 3.88245 2.536283 5.44112 1.041531 2.29137 3.016258 3.88097 5.635519 4.14078 2.861764.28387 3.444958.17822 5.755224 1.62418 4.723018 2.95605 8.652164 6.1397 12.526459 10.11539 5.200705 5.33681 9.588419 10.81631 14.9375 16.6125 2.556264 2.76993 5.081252 5.33184 8.195116 7.46159 2.777055 1.89939 3.180058 2.50025 6.663047 4.46971-1.14199.56862-2.455179 1.29737-3.805179 1.47201"/><path d="m31.868484 442.49912c1.0125.125 1.575.7375 1.525 1.775-.0375.675-.375 1.1-1.1125 1.1-1-.2-1.575-.7875-1.5375-1.8125.025-.625.3875-1.1375 1.125-1.0625"/></g><g transform="matrix(1.0001428 0 0 .99936397 45.185786 -2.095325)"><path d="m126.85902 493.56527c.33401.20313.80381.71043.89347.7602.89735.41261 1.89969.65756 3.04423.74139l.25235.0144c.6129.0314.87703.16635 1.16987.60254l.10703.15588c.40811.5711.92283 1.22866 1.65086 1.75785.47408.34843.95994.59468 1.48656.75449.48425.15063.77546.40475.89898.77937.40631.57541.69488 1.00599 1.09947 1.54566l.2151.28424c.12189.15849.24205.3183.3691.47548.72288.93133.76355 2.25767.80418 3.33701.0148.33401.0176.67065.0148 1.00991.21157-.11396.4199-.22661.62808-.33926.79754-.42047 1.51173-1.12687 1.88762-1.79359.28444-.50299.59005-1.1046.83948-1.80538.042-.27508.0637-.54229.0841-.81344l.0353-.50692c.0204-.33271.0392-.66673.0935-.99812.0353-.24495.0908-.48859.16932-.73091.11645-.31306.52274-.37294.84781-.50655.72968-.32616 1.38837-.83308 1.99273-1.53779.26252-.3039.4978-.61565.71112-.93526.24896-.36021.62144-.54621 1.11584-.56717.91875.0192 2.19877-.10741 2.87799-.68076.39958-.12313 1.32356-.8765 1.60799-1.01797.0949-.051.3267-.38389.67725-.38389.26752 0 .51973.0982.67889.2646.16091.16635.0833.42805.005.62715-.0677.1729-.65161 1.20359-.71933 1.27695l-.82605 1.29359c-.14724.16897-.3064.35891-.45038.54622-.63661.83701-.70095 1.70284-.19125 2.64071.19125.35104.46215.70864.88041 1.16055l.14548.4403c.37926.41785.66194.8095.86688 1.19723.17948.35366.38602.64315.6366.89071.34365.34057.6908.51347 1.12588.56063.35054.001.56048-.0367.80253-.12575.30815-.11658.6079-.31044.96169-.62612.20833-.18731.40811-.37593.5926-.5842.72804-.83963 1.23676-1.46678 2.03415-2.23829l.18287-.17815c.97862-.95097 1.72197-1.83251 2.27392-2.69703.58745-.91691.80754-1.84029.96328-2.78995.30301-1.8181-.32168-3.38078-1.90984-4.77973-.64514-.57373-1.39173-1.1134-2.11137-1.63473l-.3725-.27114c-.65515-.4768-1.34595-.99158-1.97079-1.5915-.21834-.20696-.42328-.43095-.61453-.65887-.22011-.2659-.28783-.55276-.20657-.85666.26752-.88285.36395-1.8443.29963-2.95376-.0447-.93133-.24043-1.65045-.61454-2.2674-.0759-.12968-.13544-.25804-.19302-.38903l-.0949-.20172c-.16932-.39035-.0826-.74139.23364-1.02301.24883-.22399.37587-.48466.38766-.79903.0312-.86845.046-1.8967-.0541-2.92757-.0934-1.01122-.29621-2.05781-.60437-3.11226-.13409-.48335-.37763-.94573-.74497-1.41991-.0949-.12051-.19139-.24888-.28782-.37855l-.11789-.16112c-.26588-.36938-.21335-.75711.13137-1.04528.26916-.23447.49265-.53705.72969-.85797l.13409-.18076c.19816-.28031.51309-.72043 1.26483-.72043.21671 0 .43344.0405.65692.0838.93623.18076 1.92342.21912 2.55502.47848.37588.15456.64501.36676.88206.55539 0 0 .11917.093.1206.0943l.57743.45583c.31653.25019.6366.503.95829.74925.49778.37725.76689.9113 1.18341 1.10123.38263.17684.70935.25936 1.02603.2646h.00092c.47746 0 .80592-.13361 1.10054-.43357.22349-.22923.36394-.51347.42666-.8619.0826-.47417.0541-.96276.0176-1.33607-.0474-.42702 0-.83832.16417-1.24831.0163-.051.046-.12837.0813-.19779l.0392-.0969c.1406-.33664.27428-.65494.33523-.96669l-.0136-.81212c-.0868-.41786-.41814-.9012-1.0328-1.42908-.51473-.44405-1.14958-.86321-1.94371-1.28237-.97863-.52133-1.9708-1.12387-3.03408-1.84299-.75337-.50561-1.41545-.86059-2.08592-1.11602-.39104-.14801-.50753-.007-.83438-.0551-.77544-.11527-1.49833-.0276-2.21798.2777-.51471.21612-.87056.57718-1.4022.89548-.35718.22006-.72127.44274-1.08861.66017-.3217.18339-.64514.32747-.98878.45322-.77721.28293-1.73008.19565-2.50389-.10572-.36057-.13753-.90779-.46099-1.21433-.50683-.46552-.0669-.81093-.29341-.97523-.6366-.12331-.25281-.25397-.51347-.39781-.77021-.54019-.99681-1.33418-1.72379-2.43308-2.22941-.78222-.35759-.65016-.8226-.48586-1.1409.14045-.28686.3504-.58551.63661-.90381l.88381-.97062c.75174-.83701 1.19697-1.76571 1.31549-2.7586.12188-.9955-.0312-1.95957-.45376-2.86862-.21671-.47025-.56713-.91561-1.1394-1.44873l-.3454-.31306c-.21672-.19648-.43345-.39034-.64514-.59075-.33186-.30782-.61116-.64315-.82787-.99158-.55712-.89464-1.39515-1.50373-2.55837-1.86133l-.84995-.27245c-.0312-.008-.0689-.0183-.11517-.0341-.0677.0236-.12733.0393-.1727.0524l-.92269.29865c-1.04812.34449-1.82858.9156-2.32297 1.69891-.32345.51347-.75851 1.0086-1.33078 1.5129l-.51648.4637c-.80077.71257-1.29517 1.51683-1.50851 2.45732-.29799 1.33739-.0414 2.3952.55975 3.49026.19979.36676.4707.73746.85835 1.16579l.90413 1.01515c.22349.25281.29357.65681.42565.95153.1964.43619.0339.782-.48085 1.02564-1.15132.52919-1.88205 1.31633-2.434 2.37995l-.33526.67328c-.20655.43226-.73373.72089-1.06057.76674-.31155.0419-.62308.12706-.938.25018-.79401.32354-1.67619.3314-2.50405.004-.50456-.19649-.94654-.45322-1.35289-.70079l-.41812-.25411c-.29637-.17946-.59096-.51516-.89235-.69068-.24042-.14933-.48246-.26722-.73304-.37332-1.00573-.4375-1.86952-.32568-2.96163.0437-.52826.17553-1.06667.4375-1.70328.8226-.33186.20565-.66709.41785-.98703.64184-.7619.52395-1.50864.97848-2.28571 1.38978-.70271.37593-1.38983.5798-1.89262.93871-.46568.33664-.82123.6641-1.0836 1.00336-.18624.24757-.1743.5263-.25054.7529-.0176.0576-.042.14016-.0895.23054v.65101c.0312.0603.0583.12837.0786.20303.0717.27901.188.55146.31154.82129.20655.45453.15234.86742.12349 1.35731-.0191.35891-.0216.71912-.0191 1.08196 0 .23839.0488.47941.14059.71388.061.17159.15577.33009.28607.48334.3657.41916.91089.56849 1.54751.42309.28283-.0629.56387-.17552.89059-.35628.52486-.28687.95043-.82158 1.3534-1.13726l1.48317-1.16579c.2946-.23316.6484-.42309 1.05475-.56456l.15237-.0537c.63661-.2253 1.34218-.28658 2.0888-.40708.19139-.0302.33522-.0432.45374-.0432.70434 0 1.01763.40868 1.14971.5829l.55358.74532c.11104.14146.23878.279.38264.40868.39457.35366.43344.65624.1406 1.07671l.0602.28098c-.061.0865-.12331.17159-.18963.25542-.4673.56718-.77721 1.2195-.97862 2.06044-.20154.90381-.31415 1.34477-.40733 2.07961-.0339.28293-.0488.57503-.0596.86189-.0136.63922-.0176 1.28892-.0203 1.93993 0 .47155.1406.81867.44361 1.08982.15752.14408.17242.69273.0234 1.12237-.0976.27377-.22688.53836-.37249.7951-.40811.70733-.51132 1.45789-.56212 2.16391-.0339.6104-.0136 1.24045.0717 1.91897.0406.38117.10285.67851.19463.94311.1246.36414.046.71257-.23365 1.03873-.62645.73353-1.38998 1.34262-2.12316 1.89277-.28608.21744-.58583.43488-.88382.65363-.4436.32223-.88718.64708-1.3121.98764-.9346.75056-1.56445 1.43039-1.98273 2.1351-.48083.81998-.68401 1.69629-.61628 2.6787.11918 1.62555.86188 3.17121 2.34328 4.86356.41489.46763.84656.93133 1.31725 1.37013.78561.74139 1.53573 1.51684 2.22815 2.30669.2235.26198.52609.34029.84265.59833.22009.17945.43681.3183.66031.42571.57904.27114 1.14847.40897 1.6717.0527.21673-.14932.41311-.34711.60778-.61433.1273-.17683.24719-.35891.34376-.54884.19301-.39296.21554-.571.60672-.99278l.31992-.35236c.28961-.31568.51832-.74074.76891-1.08.36909-.49251.57389-.93394.64501-1.38585.0947-.57372-.0285-1.10422-.37412-1.62424-.24381-.3576-.56211-.69555-.89911-1.05707-.41189-.78552-.82377-1.01013-1.23566-2.37481-.088-.0957.0568-.36489.0568-.63211 0-.35367.58108-.003 1.1007.29818h.00092" fill="#e8a400"/><path d="m139.13086 442.24609c-.12194 0-.21258.10859-.33203.14649-.31792.10098-.62407.21966-.91602.37304-1.14578.60204-1.95438 1.12222-2.66211 1.92383-.3947.44706-.81954 1.15107-1.29687 1.56836-.17446.15251-.2933.30949-.44922.48438-.75821.85049-1.02815 1.23716-1.26367 2.28711-.30629 1.36547-.15597 2.43255.55078 3.7207.24979.45529.67866.81116.99805 1.25195.31262.43149.61675.69258 1.20117 1.98828.0666.14772.0527.17506-.12305.25586-1.3718.63047-1.99301 1.49356-2.57812 2.62305-.11585.22362-.32793.4982-.43946.72461-.0614.12466-.29515.32578-.4414.42969-.53663.38125-1.59538.5604-1.96485.70898-.57533.23136-1.14797.2329-1.73437.004-.43965-.17175-.8742-.26337-1.26172-.49805-.43872-.26569-1.12368-.75174-1.56836-1.01758-.26309-.15728-.49909-.42922-.79297-.55664-1.24687-.54062-2.21339-.31083-3.52148.12891-.68303.22961-1.04426.63397-1.62891.99219-.35173.21551-.69643.44044-1.03125.67187-.69799.48246-1.12596.57929-1.89844.99024-.65314.34747-1.31767.66329-1.90625 1.08593-.47306.3397-.96251.67193-1.23242 1.14649-.22229.39081-.45688 1.13776-.28906 1.93945.0659.31493.20805.61356.34375.91211.17207.37866.1455.68248.12304 1.08203-.0209.37066-.0214.74062-.0195 1.11524.002.30391.0673.60172.17579.89453.0866.23387.14937.33055.34374.50976.3736.3444.76181.37496 1.69532.31446.4256-.0276.89443-.1157 1.20117-.37891.43798-.37582.51446-.6813.98633-1.05274.4966-.39089.9916-.77974 1.48437-1.16992.2285-.18092.74162-.52048 1.04688-.61328 1.76848-.53788 2.85603-.53191 3.6582-.0762.27295.15508.43792.63149.62695.87695.13782.17895.24568.40999.42188.56836.16775.15076.32051.41602.18945.59766-.0958.13277-.1689.4041-.25195.54492-.48893.82943-.50894.87386-.81445 1.71875-.28813.79676-.52217 1.45046-.62696 2.28906-.0374.29969-.0561.6067-.0625.90821-.0136.64959-.0605 1.13384.006 1.80273.055.55529.12018 1.4636.60547 1.90039.0939.0845-.0217.23259-.0586.33594-.0861.24109-.20017.47725-.33008.70312-.43891.7631-.59564 2.03501-.64844 2.85938-.0434.67681-.003 1.3447.0742 2.01562.0413.35734.10142.7117.2207 1.05274.0677.1934.0158.34735-.12304.50976-.5655.6615-1.2433 1.01117-1.97461 1.5625-.72991.55027-1.49987 1.08133-2.2168 1.65625-.85768.6878-1.62067 1.43527-2.14062 2.31641-.55987.94876-.76761 1.94701-.69336 2.98828.13771 1.93084.53272 2.82541 1.91406 4.39844.43032.49003.78223 1.07603 1.26758 1.53125.77434.72628 1.54614 1.31926 2.22265 2.09961.26151.30165.57763.50079.90235.76562.25162.20521.46728.38691.8789.73242.77166.64775.52453.82208 1.21289.47657.52781-.26492 1.04477-.62615 1.4375-1.01367.30306-.29903.52316-.76353.82422-1.09571.41009-.45248.67096-1.05747 1.03125-1.54101.37952-.50934.6451-.96679.74024-1.5586.11353-.70628.15576-.90448-.16993-1.58593-.32853-.68741-1.5053-1.77686-1.87695-2.74805-.11324-.29595-.30775-.76233-.3457-1.14649-.006-.0586.1382-.31582.19531-.35742.0814-.0593.17266.0367.23242.084.7106.56232 2.53097 2.25274 4.71094 1.9082.42526-.0672.52402-.0445.86523.43555.49859.70145 1.31492 1.42505 2.07422 1.98047.51568.37721 1.17675.77783 1.8418.98046.21199.0646.26715.18048.38477.33008.3582.45562.60175.70608 1.0625 1.31641.19784.26208.41866.61685.58593.9043.55458.95299.89505 1.82813.91797 2.95507.0154.75497-.0315 1.3363-.16406 2.07032 2.95294-1.76076 3.07245-2.79983 3.65625-4.12695.13391-.30443.35393-1.27873.375-1.79493.0312-.76408.0307-.87904.0468-1.22266.0101-.21497.17278-.26548.38477-.33008.66505-.20263 1.31048-.70481 1.82616-1.08202.7593-.55542 1.57563-1.27902 2.07422-1.98047.34121-.48005.43997-.50275.86523-.43555 2.17998.34454 4.00034-1.34588 4.71094-1.9082.0598-.0473.15102-.14329.23242-.084.0571.0416.20132.29882.19532.35742-.0379.38416-.23247.85054-.34571 1.14649-.37165.97119-1.54842 2.06064-1.87695 2.74805-.32569.68145-.28345.87965-.16992 1.58593.0951.59181.36071 1.04926.74023 1.5586.36029.48354.62116 1.08853 1.03125 1.54101.30106.33218.52116.79668.82422 1.09571.39273.38752.90969.74875 1.4375 1.01367.68836.34551.44123.17118 1.21289-.47657.41162-.34551.62729-.52721.87891-.73242.32472-.26483.64083-.46397.90234-.76562.67651-.78035 1.44832-1.37333 2.22266-2.09961.48535-.45522.83726-1.04122 1.26758-1.53125 1.38134-1.57303 1.77635-2.4676 1.91406-4.39844.0742-1.04127-.1335-2.03952-.69336-2.98828-.51995-.88114-1.28295-1.62861-2.14062-2.31641-.71693-.57492-1.48689-1.10598-2.2168-1.65625-.73131-.55133-1.40911-.901-1.97461-1.5625-.13884-.16241-.19075-.31636-.12305-.50976.11928-.34104.1794-.6954.2207-1.05274.0772-.67092.11762-1.33881.0742-2.01562-.0528-.82437-.20952-2.09628-.64843-2.85938-.12991-.22587-.24398-.46203-.33008-.70312-.0369-.10335-.1525-.25144-.0586-.33594.48529-.43679.55047-1.3451.60547-1.90039.0664-.66889.0195-1.15314.006-1.80273-.006-.30151-.0251-.60852-.0625-.90821-.10479-.8386-.33882-1.4923-.62695-2.28906-.30551-.84489-.32552-.88932-.81445-1.71875-.083-.14082-.15616-.41215-.25196-.54492-.13106-.18164.0217-.4469.18946-.59766.1762-.15837.28405-.38941.42187-.56836.18903-.24546.354-.72187.62695-.87695.80217-.45574 1.88973-.46171 3.65821.0762.30526.0928.81837.43236 1.04687.61328.49277.39018.98778.77903 1.48438 1.16992.47187.37144.54835.67692.98633 1.05274.30674.26321.77557.35131 1.20117.37891.93351.0605 1.32171.0299 1.69531-.31446.19438-.17921.25715-.27589.34375-.50976.10849-.29281.17378-.59062.17578-.89453.002-.37462.001-.74458-.0195-1.11524-.0225-.39955-.049-.70337.12305-1.08203.1357-.29855.27785-.59718.34375-.91211.16782-.80169-.0668-1.54864-.28907-1.93945-.26991-.47456-.75936-.80679-1.23242-1.14649-.58858-.42264-1.25311-.73846-1.90625-1.08593-.77248-.41095-1.20044-.50778-1.89843-.99024-.33483-.23143-.67952-.45636-1.03126-.67187-.58465-.35822-.94587-.76258-1.6289-.99219-1.30809-.43974-2.27462-.66953-3.52149-.12891-.29388.12742-.52987.39936-.79296.55664-.44468.26584-1.12964.75189-1.56836 1.01758-.38752.23468-.82207.3263-1.26172.49805-.5864.22899-1.15905.22745-1.73438-.004-.36947-.14858-1.42821-.32773-1.96484-.70898-.14625-.10391-.38001-.30503-.44141-.42969-.11153-.22641-.3236-.50099-.43945-.72461-.58511-1.12949-1.20633-1.99258-2.57813-2.62305-.17575-.0808-.18964-.10814-.12304-.25586.58442-1.2957.88855-1.55679 1.20117-1.98828.31939-.44079.74826-.79666.99805-1.25195.70675-1.28815.85707-2.35523.55078-3.7207-.23552-1.04995-.50546-1.43662-1.26367-2.28711-.15592-.17489-.27476-.33187-.44922-.48438-.47733-.41729-.90218-1.1213-1.29688-1.56836-.70773-.80161-1.51633-1.32179-2.66211-1.92383-.29195-.15338-.59809-.27206-.91601-.37304-.11945-.0379-.21009-.14649-.33203-.14649h-.14454-.0918-.0918zm.23633.98438c.0869-.003.17523-.00072.23633.0176.78708.23632 2.398 1.2702 2.92968 1.83593.46222.49182.79571 1.07766 1.25586 1.56641.80195.8518.94208.60633 1.51172 1.85352.45323.99235.49171 1.97044.17383 2.97656-.19859.6286-.6042 1.17915-1.08984 1.70312-.56573.61038-1.27336 1.9773-1.61329 2.69141-.0411.0863-.10929.11761-.2207.0996-.52047-.0842-1.07038-.24369-1.58984-.30469-.48463-.0343-1.06551-.0586-1.59375-.0586s-1.10912.0243-1.59375.0586c-.51946.061-1.06938.22052-1.58985.30469-.11141.018-.17963-.0133-.2207-.0996-.33993-.71411-1.04755-2.08103-1.61328-2.69141-.48564-.52397-.89125-1.07452-1.08984-1.70312-.31788-1.00612-.27941-1.98421.17382-2.97656.56964-1.24719.70977-1.00172 1.51172-1.85352.46015-.48875.79364-1.07459 1.25586-1.56641.53168-.56573 2.14261-1.59961 2.92969-1.83593.0611-.0183.14942-.0205.23633-.0176zm0 13.33203c.7794 0 1.2168-.0398 2.3457.18164.4606.0904.87601.30975 1.30664.4707.87309.32633 1.50114.83604 1.92774 1.50196.23549.3676.54101.71322.60351 1.13672.0829.5615-.008 1.22953-.16211 1.75-.11454.38559-.4864.70484-.74609 1.02148-.60928.74289-.1692.79807-1.67969 1.52148-.29261.14014-.50953.25538-.64844.26758-.51977.0454-.95487.1926-1.32422.1836-.48587-.0112-.79725-.003-1.12109-.0762-.0863-.0194-.17066-.0136-.25976.006-.0493.0105-.19279.0125-.24219.0195-.0494-.007-.19285-.009-.24219-.0195-.0891-.0195-.17351-.0253-.25977-.006-.32384.0734-.63522.065-1.12109.0762-.36935.009-.80445-.13823-1.32422-.1836-.13891-.0122-.35583-.12744-.64844-.26758-1.51049-.72341-1.0704-.77859-1.67968-1.52148-.25969-.31664-.63156-.63589-.7461-1.02148-.15453-.52047-.24497-1.1885-.16211-1.75.0625-.4235.36803-.76912.60352-1.13672.4266-.66592 1.05464-1.17563 1.92773-1.50196.43063-.16095.84604-.3803 1.30664-.4707 1.1289-.22147 1.56631-.18164 2.34571-.18164zm-16.95313 2.72461c.39431-.0193.77983.0354 1.04102.21094 1.31292.88255 2.003 1.35524 4.0332 2.26757.16554.0744.16845.071.041.22461-.60499.7293-1.17648 1.752-1.63282 2.54102-.23609.40821-.61123 1.90779-.6875 2.75977-.0167.187-.0915.19184-.26562.0879-.70127-.41862-.26351-1.5309-2.5-1.5625-.85917-.0122-1.6973.13014-2.48438.38867-.83995.2759-1.56762.67053-2.19336 1.18554-.46124.37964-1.62035 1.53458-2.09179 1.9043-.27014.21187-.77074.32274-1.125.30664-.22393-.0102-.53253-.26797-.53711-.43164-.009-.31192-.0601-.64591-.0195-1.06836.0631-.65614-.13731-1.42437-.35547-2.21875-.1944-.70787-.21918-1.76407.38086-2.20898.58854-.43638 1.45284-.88082 2.0918-1.13867 1.38478-.55884 2.48087-1.41141 3.67578-2.23047.28992-.19873.608-.37579.93945-.53907.19506-.0961.39609-.17309.59375-.25.29818-.11606.70139-.20921 1.0957-.22851zm33.90625 0c.39431.0193.79753.11245 1.09571.22851.19766.0769.39869.15391.59375.25.33145.16328.64953.34034.93945.53907 1.19491.81906 2.29099 1.67163 3.67578 2.23047.63895.25785 1.50326.70229 2.0918 1.13867.60004.44491.57526 1.50111.38086 2.20898-.21816.79438-.41857 1.56261-.35547 2.21875.0406.42245-.0105.75644-.0195 1.06836-.005.16367-.31318.42144-.53711.43164-.35426.0161-.85486-.0948-1.125-.30664-.47144-.36972-1.63056-1.52466-2.0918-1.9043-.62573-.51501-1.35341-.90964-2.19336-1.18554-.78708-.25853-1.6252-.40087-2.48437-.38867-2.23649.0316-1.79873 1.14388-2.5 1.5625-.17412.10395-.24893.0991-.26563-.0879-.0763-.85198-.45141-2.35156-.6875-2.75977-.45634-.78902-1.02782-1.81172-1.63281-2.54102-.12743-.15361-.12453-.1502.041-.22461 2.0302-.91233 2.72029-1.38502 4.03321-2.26757.26119-.17554.6467-.23024 1.04101-.21094zm-24.65234 2.19727c.19563-.007.33225-.002.35351.0195.58135.60148.74405 1.48696 1.46875 2.0664.29055.23231.49243.59117.60547 1.15235.0358.1771.10081.76385.0879.9375-.0577.7769-.32415 1.27376-.51562 1.88672-.20133.64451-.61673.95384-1.01953 1.5332-.12725.18303-.30576.3287-.55078.42969-.092.0379-.19302.0774-.31055.0684-.26007-.0208-.5199-.0612-.77734-.0918-.68907-.082-2.61316-.31998-3.28125-.45117-.43925-.0863-.91666-.12789-1.30274-.32227-.24876-.12525-.3774-.27248-.36328-.52148.0211-.37058.0538-.81088.0391-1.18164-.0151-.37718.07-.73672.24414-1.08789.45405-.91546.91673-2.15033 1.61719-2.9668.32217-.37552.41337-.74009.87891-1.00977.22867-.13246.75758-.21602 1.02539-.29492.0988-.0292 1.2139-.14629 1.80078-.16601zm15.39844 0c.58688.0197 1.70198.13681 1.80078.16601.26781.0789.79672.16246 1.02539.29492.46554.26968.55673.63425.8789 1.00977.70046.81647 1.16314 2.05134 1.61719 2.9668.17414.35117.25924.71071.24414 1.08789-.0147.37076.018.81106.0391 1.18164.0141.249-.11453.39623-.36329.52148-.38608.19438-.86348.23597-1.30273.32227-.66809.13119-2.59218.36917-3.28125.45117-.25744.0306-.51727.071-.77734.0918-.11753.009-.21855-.0305-.31055-.0684-.24502-.10099-.42353-.24666-.55078-.42969-.4028-.57936-.8182-.88869-1.01953-1.5332-.19147-.61296-.45793-1.10982-.51563-1.88672-.0129-.17365.0521-.7604.0879-.9375.11304-.56118.31492-.92004.60547-1.15235.7247-.57944.8874-1.46492 1.46875-2.0664.0213-.0215.15789-.0265.35352-.0195zm-11.50782 3.61914c.46713.0404 1.0809.38781 1.54493.4121.28597.015 1.27256.0926 1.55859.0645.23187-.0227.4689-.0116.70508.004.23618-.0155.47321-.0266.70508-.004.28603.0281 1.27262-.0495 1.55859-.0645.46403-.0243 1.07779-.3717 1.54492-.4121.29304-.0253.30635-.0259.37305.20312.0359.1233.0773.25021.0879.37891.11427 1.38803.5882 2.34851 1.26172 3.28515.38803.53961 1.11872 1.50735 1.84961 1.78125.18856.0707.27715.18189.28515.33789.0156.30117.0237.60211-.0137.90625-.0887.7215-.23572 1.4397-.29492 2.16407-.0531.64969-.10399 1.17912.11133 1.80664.28764.83826.87781 1.84419 1.51758 2.54882.24745.27254.24796.22792 0 .50782-.2719.30693-.59792.80489-.81836 1.13476-.63127.94465-1.00319 1.89893-.78321 2.95899.0613.29567.0772.60045.0918.90429.0125.2581-.10486.45507-.35937.61329-.32074.19938-.67278.40795-.94922.66406-.61977.5742-1.12985 1.28769-1.35352 1.97851-.10591.32696-.15011.65613-.19141.98633-.0401.32081-.0419.28012-.45117.22852-.0272-.003-.0533-.0107-.0859-.0137-.45038-.0378-.88268-.13297-1.33007-.19727-.91064-.13096-1.59521-.20882-2.75586-.26172-1.16065.0529-1.84522.13076-2.75586.26172-.44739.0643-.8797.15944-1.33008.19727-.0326.003-.0587.0107-.0859.0137-.40931.0516-.41102.0923-.45117-.22852-.0413-.3302-.0855-.65937-.19141-.98633-.22367-.69082-.73374-1.40431-1.35351-1.97851-.27644-.25611-.62849-.46468-.94922-.66406-.25451-.15822-.37184-.35519-.35938-.61329.0146-.30384.0305-.60862.0918-.90429.21998-1.06006-.15193-2.01434-.7832-2.95899-.22044-.32987-.54646-.82783-.81836-1.13476-.24796-.2799-.24745-.23528 0-.50782.63977-.70463 1.22994-1.71056 1.51758-2.54882.21532-.62752.1644-1.15695.11133-1.80664-.0592-.72437-.20628-1.44257-.29493-2.16407-.0374-.30414-.0293-.60508-.0137-.90625.008-.156.0966-.26719.28516-.33789.73089-.2739 1.46158-1.24164 1.84961-1.78125.67352-.93664 1.14745-1.89712 1.26172-3.28515.0106-.1287.052-.25561.0879-.37891.0667-.22903.08-.22842.37304-.20312zm-9.80468 4.3789c.0481-.008.10067.003.16211.0274.98583.39712 2.73235.60883 3.8164.78711.4394.0722 1.0399-.0371 1.00196.51757-.0427.62461.0194 1.72976.0996 2.2793.0691.47352.14878.94635.19727 1.42187.0799.78328-.23254 1.46634-.52734 2.25391-.18193.48603-.47464.62602-.74805.91992-.10071.10822-.22378.15126-.38281.18946-.72882.17526-2.54011.45183-3.26367.49023-.53577.0285-1.0453.0644-1.3086-.0684-.10316-.052-.15144-.1768-.24609-.25-.13737-.10627-.44878-.91409-.45703-1.05664l-.0781-1.375c-.0392-.69706.013-1.39591.13281-2.08789.13757-.79474.33962-1.32754.58399-2.10937.15522-.49663.56863-1.42198.88867-1.85547.0373-.0505.0808-.0763.12891-.084zm27.22656 0c.0481.008.0916.0335.12891.084.32003.43349.73345 1.35884.88867 1.85547.24437.78183.44641 1.31463.58398 2.10937.11981.69198.17201 1.39083.13281 2.08789l-.0781 1.375c-.008.14255-.31966.95037-.45703 1.05664-.0947.0732-.14294.198-.2461.25-.2633.1328-.77282.0969-1.30859.0684-.72357-.0384-2.53485-.31497-3.26367-.49023-.15903-.0382-.2821-.0812-.38281-.18946-.27341-.2939-.56612-.43389-.74805-.91992-.2948-.78757-.60725-1.47063-.52735-2.25391.0485-.47552.12817-.94835.19727-1.42187.0802-.54954.14231-1.65469.0996-2.2793-.0379-.55467.56255-.44537 1.00195-.51757 1.08405-.17828 2.83058-.38999 3.81641-.78711.0614-.0244.11401-.0353.1621-.0274zm-24.17774 9.51758c.17258-.0183.27497.015.3711.11719.43006.45714 1.27988 1.48438 1.54687 2.00781.20142.39489.40235.75443.40235 1.17188 0 .47998.0271.81288-.13867 1.42382-.0391.14416-.31008.24594-.43946.37696-.65729.66567-1.43653 1.17391-2.06445 1.55273-.40991.2473-1.50359.6062-1.98047.76953-.26133.0895-.53108.15425-.82227.15625-.17109.00097-1.18316-.30158-1.29101-.39648-.17659-.15532-.21545-.47362-.31445-.66407-.21357-.41079-.32519-.8396-.4043-1.27343-.0889-.48709-.13671-.97967-.13672-1.48438-.00002-.52434.0466-1.06114.17969-1.59179.10053-.40074.46678-1.30424.64648-1.68555.0506-.10727.17296-.11224.29492-.11524.22522-.005.44994.0236.67188.0176.81265-.0207 2.67584-.29761 3.47851-.38281zm21.12891 0c.80267.0852 2.66587.36211 3.47852.38281.22194.006.44665-.0226.67187-.0176.12196.003.24432.008.29492.11524.1797.38131.54596 1.28481.64649 1.68555.13309.53065.17971 1.06745.17968 1.59179-.00001.50471-.0478.99729-.13671 1.48438-.0791.43383-.19073.86264-.4043 1.27343-.099.19045-.13786.50875-.31445.66407-.10785.0949-1.11993.39745-1.29102.39648-.29119-.002-.56094-.0668-.82226-.15625-.47689-.16333-1.57056-.52223-1.98047-.76953-.62792-.37882-1.40717-.88706-2.06446-1.55273-.12938-.13102-.40035-.2328-.43945-.37696-.16577-.61094-.13867-.94384-.13867-1.42382 0-.41745.20092-.77699.40234-1.17188.26699-.52343 1.11682-1.55067 1.54688-2.00781.0961-.10219.19851-.13549.37109-.11719zm-18.79687 6.10547c.0496.00045.0977.0309.19335.0898.29122.17946.43778.23747.87696.53711.5865.40015 1.00569 1.03345 1.32812 1.66602.21463.42103.16992.51158.16992.97265.00002.0812-.0571.14844-.10742.21094-.61251.76136-1.16377 2.15749-1.41797 3.17774-.1591.63862-.21619 1.37018-.40625 2.00976-.0349.11753-.0751.23286-.12304.3457-.0724.1704-.10375.1618-.33789.1875-.72358.0795-1.47189.23104-2.47657-.30468-1.26005-.67191-2.30433-1.22449-2.72265-2.20117-.113-.26383-.31641-1.09467-.31641-1.37891v-.65625c0-.67335.15903-1.16979.13281-1.8418-.004-.11131.0426-.18856.1875-.22656 1.11482-.29211 3.00101-1.36122 3.9043-1.92188.30384-.18859.6063-.38597.91211-.57421.10195-.0628.15347-.0923.20313-.0918zm16.46484 0c.0497-.0005.10117.029.20312.0918.30581.18824.60827.38562.91211.57421.90329.56066 2.78948 1.62977 3.9043 1.92188.1449.038.1915.11525.1875.22656-.0262.67201.13281 1.16845.13281 1.8418v.65625c0 .28424-.2034 1.11508-.3164 1.37891-.41832.97668-1.46261 1.52926-2.72266 2.20117-1.00468.53572-1.75298.38418-2.47656.30468-.23414-.0257-.26549-.0171-.33789-.1875-.0479-.11284-.0881-.22817-.12305-.3457-.19006-.63958-.24715-1.37114-.40625-2.00976-.2542-1.02025-.80546-2.41638-1.41797-3.17774-.0503-.0625-.10743-.12974-.10742-.21094 0-.46107-.0447-.55162.16992-.97265.32243-.63257.74163-1.26587 1.32813-1.66602.43918-.29964.58574-.35765.87695-.53711.0957-.0589.14376-.0894.19336-.0898zm-24.22266 1.77344c.13543.008.27325.0434.35157.0918.13797.0852.45527.19542.5996.26172.16097.0739.7617.11625.72852.36914l-.14062 1.07227c-.0842.642-.0187 1.30617-.01 1.9414.008.5569.19633 1.25994.4082 1.78907.0567.14153.0437.25084-.0488.38672-.3957.58112-.37928 1.04052-.15624 1.73828.13075.40909.22012.87702.49218 1.24023.32056.42797.49074.77346.86524 1.17578.24859.26706.46115.61802.68359.90039.3668.46557.29115.97435.043 1.47461-.11575.23329-.20068.55284-.38477.76172-.27307.30985-.57026.62467-.77343.99609-.36478.66688-.55937 1.07089-1.07813 1.63282-.12667.13721-.73878.45698-.8457.61328-.0579.0846-.14416.0981-.23828.0234-.0448-.0356-.0954-.0753-.13867-.11719-.16471-.15977-.45882-.36731-.62305-.51172-3.63432-3.19565-3.58234-3.2132-5.58594-5.76172-.65337-.83105-.73435-1.77079-.75195-2.77148-.0163-.92616.62943-2.50976 1.30468-3.26563.5675-.63523 1.39452-1.25041 2.08399-1.82226 1.10809-.91905 2.0115-1.32666 2.87891-2.14258.0683-.0642.20051-.0839.33593-.0762zm31.98047 0c.13542-.008.26764.012.33594.0762.86741.81592 1.77082 1.22353 2.87891 2.14258.68947.57185 1.51649 1.18703 2.08398 1.82226.67525.75587 1.32099 2.33947 1.30469 3.26563-.0176 1.00069-.0986 1.94043-.75196 2.77148-2.0036 2.54852-1.95161 2.56607-5.58593 5.76172-.16423.14441-.45834.35195-.62305.51172-.0433.0419-.0939.0816-.13867.11719-.0941.0747-.18038.0612-.23828-.0234-.10692-.1563-.71904-.47607-.84571-.61328-.51876-.56193-.71334-.96594-1.07812-1.63282-.20317-.37142-.50037-.68624-.77344-.99609-.18409-.20888-.26901-.52843-.38476-.76172-.24818-.50026-.32384-1.00904.043-1.47461.22244-.28237.43501-.63333.6836-.90039.3745-.40232.54467-.74781.86523-1.17578.27206-.36321.36143-.83114.49219-1.24023.22304-.69776.23945-1.15716-.15625-1.73828-.0925-.13588-.10553-.24519-.0488-.38672.21187-.52913.4002-1.23217.4082-1.78907.009-.63523.0744-1.2994-.01-1.9414l-.14063-1.07227c-.0332-.25289.56756-.29524.72852-.36914.14433-.0663.46164-.17652.59961-.26172.0783-.0484.21613-.0838.35156-.0918zm-15.99023 2.23242c.58523.002 1.42332.0148 1.99804.0508.74508.0467 2.11204.41153 2.86719.45703.15413.009.69611.42916.75781.53711.12837.22471.21987.45073.29297.69141.15215.50074.26983 1.02697.41016 1.52539.25886.9194.3572 1.7822.47461 2.48828.0818.49163-.31837.76335-.875 1.2832-.62761.58614-1.33127 1.10794-2.25391 1.50781-.73838.32001-1.87806.50989-2.58398.55469-.10069.007-.6928-.003-1.08789-.01-.39509.007-.9872.0163-1.08789.01-.70592-.0448-1.84561-.23468-2.58399-.55469-.92264-.39987-1.62629-.92167-2.2539-1.50781-.55663-.51985-.95677-.79157-.875-1.2832.11741-.70608.21575-1.56888.47461-2.48828.14033-.49842.258-1.02465.41015-1.52539.0731-.24068.1646-.4667.29297-.69141.0617-.10795.60368-.52811.75781-.53711.75515-.0455 2.12211-.41033 2.86719-.45703.57472-.036 1.41282-.0489 1.99805-.0508zm-1.91407 9.9414c.0528-.0141.12831.0346.17774.0488.30861.0875 1.04007-.002 1.3418.0352l.125.0156c.097.0121.18261.0176.26953.0176.0869 0 .17253-.005.26953-.0176l.125-.0156c.48029-.06 1.21251-.0503 1.5625-.0449.18932.003.42532-.20406.37799.57577-.10554 1.73907-.54751 2.59739-.73449 2.99833-.55045 1.18032-1.01121 1.49555-1.39149 1.85614-.006-1.92028-.70671-3.16149-.97076-3.62556-.46945-.82508-.76079-1.0673-1.04297-1.46093-.0624-.1132-.20817-.23111-.15234-.34375.011-.0222.0254-.0344.043-.0391z"/><path d="m141.95101 447.78822c.14222-.021.25735-.005.31329.11003.16932.28162.28445.57503.29461.82129.0136.27246-.0596.45977-.19479.63398-.12331.16897-.26236.33533-.34701.52133-.0583.11134-.149.1454-.29799.12444-.28784-.0419-.5097-.15719-.67901-.32878-.67386-.66673-.16079-1.72118.9109-1.88229"/><path d="m135.41555 448.48114c-.0136-.17421.0406-.36676.0826-.56193.0392-.1847.0826-.20565.33361-.19779.28106.0105.52988.0969.75853.22006.65015.36938.90576 1.07933.57051 1.64258-.13544.22137-.32331.39951-.63146.47286-.23704.0537-.337.0105-.40635-.17159-.0488-.10479-.11517-.19386-.20494-.27507-.39957-.38904-.50279-.61041-.50279-1.12912"/></g><g transform="matrix(.99703585 0 0 .99618577 48.055685 -1.199935)"><g stroke="#000"><path d="m469.89172-189.44346s-3.2133-.0251-4.49999-.77844c-1.39929-.81931-2.89764-3.71547-2.89764-3.71547s-3.5428.5752-5.17164.2223c-1.70186-.36873-4.1377-2.31533-4.1377-2.31533 1.627-.24015 2.84206-.48567 4.41754-1.76008 0 0-3.13615-.16604-4.92243-.8537-1.55516-.5987-4.09281-2.58269-4.09281-2.58269 1.45006-.35994 3.01793-.31529 4.16007-1.73258 0 0-3.07162.0277-4.46327-.48078-1.38924-.50759-3.59506-2.46162-3.59506-2.46162 1.68802-.14653 3.29361-.45961 4.379-1.82377 0 0-3.11114.10567-4.42924-.41198-1.81987-.71478-4.60418-3.09647-4.60418-3.09647 1.75084-.1319 3.49236-.28269 4.81679-1.27612l-.98441-1.99868c-1.18824-2.41294-3.67704-1.56174-5.33097-2.22681-1.62436-.65318-2.53503-2.43408-2.62364-3.43221-.15625-1.7607.74385-4.45016 4.7172-3.88855-1.97584-3.01086.0813-5.17388 2.1837-6.03988 2.01959-.83233 3.80318-.60501 5.17456 2.69044 0 0 1.84335-1.4908 2.84207-1.71177 1.39017-.30755 2.95721.15361 3.45134 1.45497.20317.53507.27725 1.65417-.0635 2.32224-.53897 1.05666-1.72616 1.78054-2.11393 3.32609-.43905 1.74986 1.17767 4.80302 1.17767 4.80302s7.63709 6.05036 11.15035 9.36419c1.86935 1.76322 5.2643 5.57903 5.2643 5.57903l.18762-.10869h7.57028l.67592 12.77279-8.23795.16055z" fill="#ffd700" stroke-width=".969807" transform="matrix(.8828918 0 0 .8828918 -364.72159 582.53214)"/><g fill="#00247d" stroke-width=".856214"><path d="m35.600456 380.60184c.234822 1.11419-.235848 1.91857-1.245187 2.22555-.501668.15262-1.081692.00051-1.686791-.62912.291054-1.85078.145482-2.57739-1.131797-4.16166 3.193667.681 3.314896 2.09517 4.063775 2.56523z"/><path d="m26.697471 379.73857c.675174.9169.579901 1.84398-.211681 2.54141-.393417.34668-.984354.44845-1.795873.12595-.50158-1.80514-.935-2.40623-2.753713-3.31926 3.188943-.7028 3.884962.53419 4.761267.6519z"/><path d="m21.640382 386.04595c.995972.5519 1.295909 1.43427.867203 2.39823-.213051.47913-.707743.81803-1.579821.86326-1.208536-1.43164-1.853109-1.79727-3.886877-1.86887 2.605519-1.9684 3.753905-1.13425 4.599495-1.39262z"/></g><path d="m88.650113 420.4504c-1.178017-.34393-2.616027-1.89268-3.865539-1.88561-1.315951.008-2.243746.742-2.905809 1.72907-.315925.47099.180004 2.23317.672251 2.57155l2.266772 1.55822s-1.41893 1.63013-1.526458 2.54785c-.09341.79726.307026 1.43734.878486 2.06681.74517.82066.927999 1.13789 2.115312 1.31081.709015.10327 2.386854-.20639 2.386854-.20639s-.0392 1.30783.375317 1.91142c.751058 1.09391 2.026325 2.05828 3.483141 1.90438 1.137685-.12003 1.506858-.29234 2.108124-1.13909.476788-.67149.381454-2.38785 1.155635-3.09498l3.14852-2.87572c1.359341.82264 1.323261 2.04897 1.154201 3.31377 0 0 2.02079-1.27664 2.62201-2.19135.62637-.95295.87402-3.20272.87402-3.20272 1.27943 1.1541 1.70282 2.18542 1.42859 3.56424 0 0 2.05717-1.28455 2.71913-2.19136.74515-1.02074 1.38764-3.22709 1.38764-3.22709.93673.9113 1.13441 2.20745.7769 3.79271 0 0 2.29886-1.54021 2.91336-2.78132.4858-.9812.77686-2.69705.77686-2.69705 2.79338.20279 4.59732-1.01274 4.7203-2.27129.0954-.97603-1.00968-2.30671-3.25882-2.69302 0 0-.83026-1.23983-1.14456-2.15679-.21603-.63027-.23209-1.34675 0-1.9727.46429-1.25218 1.54632-2.30578 2.65181-3.20564 1.52061-1.23776 4.83009-2.79465 4.83009-2.79465l-.96834-4.84842-11.27017-1.72609-12.45769 3.07051c2.270541 1.04181 7.35616 4.60379 6.94096 5.9539-.15536.50518-1.23723.98367-1.75448 1.65989-.38097.49803-.0904 1.29405.28411 1.80832.52394.71945 1.77572.88477 2.17827 1.5617.36225.60917.52689 1.1523.0947 1.72612-.85316 1.13286-3.72248 1.60872-5.114192 2.21928-2.536242 1.11266-6.830601 3.5386-6.830601 3.5386-1.335436.17405-2.61547-.28839-3.846733-.64787z" fill="#ffd700" stroke-width=".856234"/><g stroke-width=".856214"><g fill="#00247d"><path d="m82.575526 418.9557c1.033495.47794 1.396805 1.33621 1.039348 2.3288-.177663.49335-.646365.86734-1.512835.97588-1.309478-1.33993-1.978939-1.65771-4.012531-1.58119 2.45541-2.15273 3.661459-1.40428 4.486018-1.72349z"/><path d="m83.582817 426.70833c1.138118-.0352 1.847142.5697 1.971762 1.61731.06198.5207-.189796 1.06491-.916053 1.5498-1.770719-.61212-2.511615-.59666-4.295886.38198 1.232207-3.02406 2.64569-2.89458 3.240177-3.54909z"/><path d="m89.681207 432.12174c.954-.62163 1.874122-.47342 2.525114.35677.323571.41263.391377 1.00841.02296 1.80014-1.830889.39746-2.455799.79577-3.471416 2.55927-.519194-3.22392.75564-3.84803.92331-4.71618z"/></g><path d="m115.0608 405.19175s-.215 4.03163-1.89889 5.06373c-.72515.44447-1.74072.62868-2.53186.31649-.76642-.30244-1.30193-1.12418-1.58242-1.89891-.17956-.49596-.47472-1.74065-.47472-1.74065s-2.57431-1.1777-3.95604-1.26593c-2.03397-.12987-6.013168 1.10769-6.013168 1.10769.679332-2.11201 2.507198-3.84118 4.430758-5.53845l6.64614-.47472z" fill="#ffd700"/></g></g><path d="m133.0133 378.39158c1.90456-.20921 5.81484-.98559 7.12774-2.26845.61195-.59795 2.32743-2.26846 2.32743-2.26846-.3636 3.77138-2.29712 6.21604-6.40042 7.87286-3.27412 1.32202-7.05361 1.62787-10.61888 1.33438-2.24501-.1848-6.40042-1.33437-6.40042-1.33437 2.27957 2.44351 1.12106 4.16821-1.74557 5.33752 0 0 .42476-2.34014-.43639-2.66876-1.85716-.70873-3.95097.21473-5.92312 1.29932-1.45671.80113-3.66238 1.17469-5.14801 1.15835-2.47497-.0272-3.84662-.0558-6.161228-.86024-1.395894-.48512-3.817428-2.33581-4.843374-2.15194-2.214761.39693-5.011991.62011-6.272099 2.33739-.437799.59662-.384111 1.53062 0 2.15759.861871 1.4068 2.797567 2.14135 4.508072 2.51717 5.087187 1.11772 9.239109 1.11032 14.259849.40061 5.17466-.73145 11.21706-2.19628 16.39054-3.08036 5.12818-.87633 11.7397-2.53217 15.62595-3.33245 6.86837-1.41437 9.94968-1.60908 15.08912-1.53386 9.00129.13179 11.94833 4.51571 11.67425 9.30029-.2816 4.91523-5.70567 7.14087-10.34966 8.51982-8.16505 2.42448-19.3763 1.04376-26.4219.87813 0 0 2.36196 1.81446 3.43346 2.64395 1.25519.97169 1.88252 3.00381 3.43347 3.49957 2.12725.67998 5.38096-.66814 7.62991-.78741 3.14466-.16674 8.48828.17499 8.48828.17499.81813-.76428 1.34827-1.29483 2.19851-1.52356.60967-.16437 1.56926-.1732 2.05867-.002.96836.33922 1.61981 1.38417 1.21373 3.3293 0 0 .67106.86212 1.69515 1.06074 1.08418.21065 2.35023.0248 2.96809.20359 1.01921.29481 2.66971 1.22449 2.66971 1.22449s-1.74945.50838-2.47739.91519c-.49825.27845-1.1631 1.19984-1.1631 1.19984s2.3967.0379 3.39779.44527c1.0723.43631 2.06295 1.66976 2.06295 1.66976s-1.44302-.0938-2.13077.3045c-.52576.30445-1.38837 1.14264-1.38837 1.14264s2.80535-.20915 3.76183.55658c.84679.6779 1.82026 1.89241 1.82026 1.89241s-1.51357-.0294-2.23011.15984c-.46615.12307-1.28905.61938-1.28905.61938s1.93924.9273 2.79106 2.00371c.68045.85988.84944 2.78294.84944 2.78294s-1.14196-.78507-1.84361-1.07334c-.43877-.18029-1.43284-.15115-1.43284-.15115l.45433 3.94817c.11171.97081 1.59549 2.02192 1.86025 2.77299.33386.94715.25023 1.30305-.3488 2.13308-.76689 1.063-2.35088 1.28008-3.72049 1.06653-.75573-.11783-1.81769-.99263-1.81769-.99263s-.77329 1.31021-1.29448 1.71191c-.87277.67268-1.24847.58763-2.38757.54755-.87364-.0308-1.6511-.18156-2.25574-.76086-.69599-.6668-1.17821-2.66298-1.17821-2.66298l-2.68602.48708c-.58329.10578-2.35113-.71025-2.54821-1.22483-.41305-1.07841-.45308-2.1685.34878-3.04341.76138-.83072 2.86689-.874 3.93976-1.33148 1.37464-.58617 2.69562-2.28256 2.69562-2.28256s-4.4874-3.16645-6.42802-5.13576c-1.06705-1.08284-2.90297-3.61405-2.90297-3.61405s-5.72203 1.58097-7.87953 1.90214c-5.32162.79219-10.98984 0-10.98984 0-8.13428 0-13.54646-11.45951-20.94291-14.07577-2.25716-.7984-3.31965-.67341-5.68074-.19021-8.570618 1.754-17.720018 11.71685-26.210948 13.77129-3.485567.84336-10.782483 1.14129-10.782483 1.14129s-1.1948 2.36051-2.324654 3.03441c-1.228738.73287-4.313721.78078-4.313721.78078s-.788996 2.82259-1.692777 3.89499c-.944297 1.12045-3.539284 2.20628-3.539284 2.20628.383378-1.28748.611694-2.27315.06983-3.90013 0 0-1.290169 2.25216-2.544794 3.31847-1.092286.92834-3.757208 2.07561-3.757208 2.07561.213819-1.20073.825195-2.34067 0-3.70023 0 0-1.096808 2.2753-2.050365 3.11599-.951899.83923-3.469447 1.75272-3.469447 1.75272.4877-1.29832.799343-2.59664 0-3.89497 0 0-1.042934 2.33291-1.977714 3.11599-1.290628 1.08117-4.394117 2.2652-4.394117 2.2652.523449-1.33933 1.026936-2.67864.639717-4.01795l-2.110861-.004c-2.548335-.004-2.710743 2.14162-3.897261 3.11858-1.165294.9595-3.0584.98107-3.965474.6821-1.600047-.5274-3.022447-2.38156-1.08005-5.10675-3.359792.35817-5.110566-1.73963-5.102152-3.60611.008-1.79314.66223-3.37619 4.050805-3.18472 0 0-.438021-1.55281-.267146-2.36998.23786-1.13745 1.213994-2.12472 2.534782-2.01416.543067.0455 1.550852.3993 2.01196.89442.729304.78313.930383 1.92283 2.143318 2.77292 1.373267.96245 4.63904.88456 4.63904.88456s6.346808-3.4237 10.533235-4.80506c2.227518-.735 8.553685-1.8459 8.553685-1.8459l.198244-15.49091c3.801538.2339 2.166635.26671 5.381544.17096 4.617939-.13751 16.74964 1.72871 16.74964 1.72871l8.637958-.5892s14.408167-2.16679 21.262668-2.84445c3.45309-.34137 6.94233-.58681 10.40984-.40634 5.22304.2718 9.70881 1.5633 14.61809 1.82857 4.12791.22304 6.94733.64292 11.07431.40634 5.89248-.33778 16.42574.0586 19.77294-5.2521.86867-1.37824.42262-3.26612-.87382-4.32758-1.71052-1.40048-2.92675-1.92787-5.20809-1.44648-1.20319.2539-2.73312 1.09632-2.88314 2.1329-.0813.56192.0206 1.26437.53488 1.92797.88413 1.14097 1.88325 1.48464 1.88325 1.48464s-2.55621.34236-3.72018-.51189c-1.22505-.89908-2.3251-3.75388-2.3251-3.75388-.57596.72865-.99943 1.52726-.90239 2.56459.0836.89404-.004 1.45351 1.08839 2.81028 0 0-2.70425-.17323-3.99918-1.53569-.87034-.91571-1.58108-3.66856-1.58108-3.66856-.76729.69466-1.2356 1.81958-1.26832 2.649-.0473 1.19778.51884 1.72319.80326 2.98182 0 0-2.66556-.71861-3.72017-2.04756-.81836-1.03127-1.25496-3.73999-1.25496-3.73999-3.06644.7011-8.91953 1.69232-15.2935 2.94795-4.49046.8846-11.3483 2.24407-16.19502 2.80287-8.323542.95965-14.383429.46304-19.500158-1.529-2.662722-1.03664-3.862422-2.03381-4.548835-4.38784-.389612-1.33617.184285-3.22905 1.505948-4.70275 1.842543-2.05452 5.043016-3.5924 8.617925-4.40503 0 0 9.46839-2.33213 14.98282-2.8022 8.8416-.75371 12.43686.37977 16.13191.80667 2.40126.27745 4.9849-.17767 5.74096-1.00564.63629-.69679 1.68894-1.4477.27073-3.12779 0 0 1.79697.0328 2.99006 2.05715.4873.82678-.11385 2.73743-.11385 2.73743h.00004z" fill="#ffd700"/><path d="m133.0133 378.39154c1.90456-.20921 5.81484-.98559 7.12774-2.26846.61195-.59794 2.32743-2.26844 2.32743-2.26844-.3636 3.77137-2.29712 6.21603-6.40042 7.87285-3.27412 1.32201-7.05361 1.62786-10.61888 1.33438-2.24501-.1848-6.40042-1.33437-6.40042-1.33437 2.27957 2.44351 1.12106 4.16821-1.74557 5.33752 0 0 .42476-2.34014-.43639-2.66876-1.85716-.70872-3.95097.21473-5.92312 1.29933-1.45671.80112-3.66238 1.17468-5.14801 1.15836-2.47497-.0272-3.84662-.0558-6.161228-.86026-1.395894-.48511-3.817428-2.33581-4.843374-2.15194-2.214761.39693-5.011991.62011-6.272099 2.33739-.437799.59661-.384111 1.53063 0 2.15758.861871 1.4068 2.797567 2.14136 4.508072 2.51719 5.087187 1.11771 9.239109 1.11031 14.259849.4006 5.17466-.73144 11.21706-2.19628 16.39054-3.08035 5.12818-.87633 11.7397-2.53219 15.62595-3.33246 6.86837-1.41436 9.94968-1.60908 15.08912-1.53387 9.00129.1318 11.94833 4.51572 11.67425 9.30031-.2816 4.91522-5.70567 7.14085-10.34966 8.51981-8.16505 2.42448-19.3763 1.04375-26.4219.87813 0 0 2.36196 1.81446 3.43346 2.64395 1.25519.97169 1.88252 3.00381 3.43347 3.49958 2.12725.67997 5.38096-.66815 7.62991-.78741 3.14466-.16675 8.48828.17498 8.48828.17498.81813-.76428 1.34827-1.29483 2.19851-1.52355.60967-.16439 1.56926-.17321 2.05867-.002.96836.33924 1.61981 1.38418 1.21373 3.3293 0 0 .67106.86213 1.69515 1.06075 1.08418.21065 2.35023.0248 2.96809.20359 1.01921.29481 2.66971 1.22448 2.66971 1.22448s-1.74945.50839-2.47739.9152c-.49825.27844-1.1631 1.19983-1.1631 1.19983s2.3967.0379 3.39779.44529c1.0723.43629 2.06295 1.66975 2.06295 1.66975s-1.44302-.0938-2.13077.3045c-.52576.30444-1.38837 1.14263-1.38837 1.14263s2.80535-.20914 3.76183.55659c.84679.67791 1.82026 1.8924 1.82026 1.8924s-1.51357-.0293-2.23011.15986c-.46615.12305-1.28905.61936-1.28905.61936s1.93924.92732 2.79106 2.00372c.68045.85987.84944 2.78294.84944 2.78294s-1.14196-.78507-1.84361-1.07334c-.43877-.18029-1.43284-.15116-1.43284-.15116l.45433 3.94817c.11171.97083 1.59549 2.02193 1.86025 2.773.33386.94714.25023 1.30305-.3488 2.13308-.76689 1.063-2.35088 1.28008-3.72049 1.06653-.75573-.11784-1.81769-.99263-1.81769-.99263s-.77329 1.3102-1.29448 1.71192c-.87277.67266-1.29363.85859-2.43273.8185-.87364-.0308-1.60594-.45251-2.21058-1.03181-.69599-.66682-1.17821-2.663-1.17821-2.663l-2.68602.48709c-.58329.10578-2.35113-.71024-2.54821-1.22484-.41305-1.07841-.45308-2.16849.34878-3.04341.76138-.83072 2.86689-.87399 3.93976-1.33148 1.37464-.58616 2.69562-2.28256 2.69562-2.28256s-4.4874-3.16644-6.42802-5.13575c-1.06705-1.08284-2.90297-3.61405-2.90297-3.61405s-5.72203 1.58097-7.87953 1.90214c-5.32162.79218-10.98984 0-10.98984 0-8.13428 0-13.54646-11.45952-20.94291-14.07578-2.25716-.79839-3.31965-.6734-5.68074-.1902-8.570618 1.75401-17.720018 11.71686-26.210948 13.77128-3.485567.84336-10.782483 1.14129-10.782483 1.14129s-1.1948 2.36052-2.324654 3.03441c-1.228738.73287-4.313721.78079-4.313721.78079s-.788996 2.82259-1.692777 3.89498c-.944297 1.12047-3.539284 2.20629-3.539284 2.20629.383378-1.28748.611694-2.27316.06983-3.90013 0 0-1.290169 2.25216-2.544794 3.31847-1.092286.92834-3.757208 2.07561-3.757208 2.07561.213819-1.20074.825195-2.34067 0-3.70024 0 0-1.096808 2.2753-2.050365 3.116-.951899.83922-3.469447 1.75272-3.469447 1.75272.4877-1.29832.799343-2.59664 0-3.89496 0 0-1.042934 2.3329-1.977714 3.11597-1.290628 1.08119-4.394117 2.2652-4.394117 2.2652.523449-1.33932 1.026936-2.67862.639717-4.01795l-2.110861-.004c-2.548335-.004-2.710743 2.14163-3.897261 3.11859-1.165294.95949-3.0584.98107-3.965474.68209-1.600047-.52739-3.022447-2.38156-1.08005-5.10674-3.359792.35816-5.110566-1.73962-5.102152-3.60611.008-1.79315.66223-3.37619 4.050805-3.18472 0 0-.438021-1.55282-.267146-2.36999.23786-1.13745 1.213994-2.12472 2.534782-2.01415.543067.0455 1.550852.3993 2.01196.89442.729304.78312.930383 1.92283 2.143318 2.77291 1.373267.96246 4.63904.88457 4.63904.88457s6.346808-3.4237 10.533235-4.80507c2.227518-.73499 8.553685-1.84589 8.553685-1.84589l.198244-15.49091c3.801538.23389 2.166635.26671 5.381544.17096 4.617939-.13752 16.74964 1.72871 16.74964 1.72871l8.637958-.58921s14.408167-2.16678 21.262668-2.84443c3.45309-.34138 6.94233-.58682 10.40984-.40635 5.22304.2718 9.70881 1.5633 14.61809 1.82856 4.12791.22305 6.94733.64293 11.07431.40634 5.89248-.33776 16.42574.0586 19.77294-5.2521.86867-1.37824.42262-3.26612-.87382-4.32757-1.71052-1.40048-2.92675-1.92787-5.20809-1.44648-1.20319.2539-2.73312 1.09633-2.88314 2.1329-.0813.56192.0206 1.05749.53488 1.7211.88413 1.14097 1.88325 1.6915 1.88325 1.6915s-2.96995.1355-4.13392-.71874c-1.22505-.89909-1.91136-3.54702-1.91136-3.54702-.57596.72865-.99943 1.52726-.90239 2.5646.0836.89403-.004 1.45351 1.08839 2.81027 0 0-2.70425-.17323-3.99918-1.5357-.87034-.9157-1.58108-3.66855-1.58108-3.66855-.76729.69467-1.2356 1.81957-1.26832 2.649-.0473 1.19778.51884 1.72319.80326 2.98181 0 0-2.66556-.71861-3.72017-2.04755-.81836-1.03127-1.25496-3.73999-1.25496-3.73999-3.06644.7011-8.91953 1.69232-15.2935 2.94795-4.49046.8846-11.3483 2.24406-16.19502 2.80286-8.323542.95966-14.383429.46305-19.500158-1.52899-2.662722-1.03664-3.862422-2.03381-4.548835-4.38784-.389612-1.33618.184285-3.22906 1.505948-4.70276 1.842543-2.0545 5.043016-3.5924 8.617925-4.40503 0 0 9.46839-2.33212 14.98282-2.80219 8.8416-.75372 12.43686.37976 16.13191.80667 2.40126.27744 4.9849-.17768 5.74096-1.00565.63629-.69679 1.68894-1.4477.27073-3.12778 0 0 1.79697.0328 2.99006 2.05714.4873.82678-.11385 2.73743-.11385 2.73743h.00004z" fill="none" stroke="#000" stroke-width=".856234"/><g fill="#00247d" stroke="#000" stroke-width=".856214"><path d="m149.92154 429.70383c1.06473-.40358 1.93199-.0624 2.39071.88773.22799.4722.16704 1.06871-.36193 1.76352-1.87353-.003-2.56908.25306-3.93783 1.75901.18119-3.26044 1.55987-3.59793 1.90905-4.41026z"/><path d="m156.08548 433.5706c.79442-.81574 1.72465-.87298 2.54189-.20577.40619.3316.60304.898.41726 1.75126-1.69913.78936-2.22144 1.31504-2.82553 3.25835-1.21369-3.03154-.10679-3.92007-.13362-4.80384z"/><path d="m163.70558 433.01396c.55414-.99471 1.43725-1.29259 2.40022-.86167.47863.21418.81639.70963.85962 1.58181-1.43442 1.20524-1.80154 1.84896-1.87784 3.88256-1.9624-2.61003-1.12557-3.7565-1.382-4.6027z"/><path d="m24.616972 416.20814c1.031863.48146 1.39225 1.34094 1.031333 2.33235-.179351.49275-.649323.86515-1.516155.97074-1.304914-1.34439-1.973281-1.66445-4.007128-1.59485 2.462729-2.14435 3.666217-1.39181 4.491862-1.7082z"/><path d="m20.352367 422.1424c1.138144.0342 1.809054.68104 1.869691 1.73431.0302.52348-.254247 1.05138-1.008651 1.49118-1.730203-.71873-2.47065-.74839-4.311178.11986 1.413941-2.94348 2.816928-2.72824 3.450138-3.34535z"/><path d="m23.745355 429.45618c1.014354-.51733 1.913668-.27274 2.473298.6216.278111.44453.282631 1.04412-.167361 1.79248-1.862645.20179-2.526139.53184-3.722413 2.17813-.175625-3.26074 1.158018-3.74664 1.416476-4.59221z"/></g><g stroke-width="1.019377" transform="matrix(.8489898 .24231022 -.24231022 .8489898 -545.39825 413.86604)"><path d="m667.65197-206.38465c2.17417.62169 3.77229-1.46215 4.14611-1.73487 0 0-1.05996-.36458-2.0813-1.67625-.6866-.8818-1.32841-2.60306-1.60111-3.41795-1.01306-3.02681.0744-3.85147.18043-3.63081 0 0 1.83273-1.27616 2.48995-2.16562.62328-.84221.68772-2.01419.62753-3.05965-.0903-1.56812-1.28919-3.56774-1.28919-3.56774-3.00046.67188-3.63947 1.27678-4.07301 2.37774 0 0-.49091-1.48867-1.29367-2.74706-.40014-.62724-1.16362-1.51324-1.83618-2.03593-.69126-.53725-1.28635-.70266-1.28635-.70266.20494.78744-.2941 1.70266-.49785 2.35094 0 0-1.15447-2.91006-2.21231-3.77009-.81594-.66339-2.73015-1.3104-2.71744-1.31032.0129.00039-1.78756.62325-2.61197 1.27606-1.06875.84639-2.26063 3.74135-2.26063 3.74135-.19541-.65083-.6826-1.57242-.46754-2.35715 0 0-.59719.15772-1.29528.68607-.67922.514-1.45408 1.39012-1.8622 2.01215-.81885 1.24798-1.3289 2.73021-1.3289 2.73021-.38659-1.16989-.9843-1.73647-4.04211-2.42989 0 0-1.22448 1.98405-1.33488 3.55088-.0737 1.04462-.0233 2.21733.58815 3.06746.64571.89783 2.46191 2.19746 2.46191 2.19746.10878-.21929 1.18557.61929.13372 3.63283-.28315.81131-.94701 2.52417-1.64492 3.39707-1.03809 1.29844-2.10267 1.64936-2.10267 1.64936 1.14589 1.52304 1.52501 2.17194 4.12348 1.78802-4.53815 5.72474-3.32089 12.44384 2.64951 16.75942.0948-.74991.63997-2.54689 1.0516-3.29475-.0753-.0307.9917 3.19557 3.09523 4.39324.68254.38858 1.79645 3.31696 2.82963 4.04312.94251.66246 2.18864 1.31994 2.18864 1.31994s.08-2.59747 1.08788-3.28636c1.01496-.6938 2.93885-1.89078 3.56772-2.30598 1.26565-.83563 2.89684-4.50625 2.89684-4.50625l.59916 3.74834c6.74884-4.80489 7.00754-10.39212 3.12198-16.72232z" fill="#ffd700"/><g stroke-width="1.019377"><g transform="translate(0 -.750036)"><path d="m650.45541-210.72904c.94 2.05379 1.12508 6.59856.64531 7.98979l5.43947.56423 4.97537-.81907c-.95614-1.86027-.12607-6.26534.46147-7.85043l-3.51843 1.08663-2.03126-1.12848-2.70834 1.46702z"/><g fill="#fff" stroke-width="1.019377"><path d="m652.02912-201.50104c.0211-2.49124.50919-2.8128.88867-3.69136l.54687 3.41793z"/><path d="m660.44732-201.50103c-.0211-2.49124-.50919-2.8128-.88867-3.69136l-.54687 3.41793z"/></g><path d="m651.36128-202.72579c-.81165 7.08724 10.24331 7.39935 9.73553 0-2.77625.58616-5.7673.90381-9.73553 0z" fill="#ffd700"/><path d="m650.93243-203.30445-.0625.5625c-.21756 1.89969.38656 3.42232 1.40625 4.4375s2.42822 1.51 3.84375 1.53125c1.41553.0213 2.84592-.43482 3.90625-1.4375s1.69791-2.55802 1.5625-4.53125l-.0312-.5625-.5625.125c-2.74095.57871-5.6408.8861-9.53125 0l-.53125-.125zm.96875 1.15625c3.39744.66907 6.15638.50399 8.625.0312-.0319 1.40521-.44577 2.48609-1.1875 3.1875-.84429.79839-2.03547 1.17401-3.21875 1.15625-1.18328-.0178-2.34728-.4446-3.15625-1.25-.71401-.71086-1.09332-1.77093-1.0625-3.125z"/><g stroke-width="1.019377"><path d="m653.94747-209.46548c-.0725 4.53128.1742 9.55876 2.26875 13.65668 2.09455-4.09792 2.34125-9.08205 2.26875-13.61333-.0432-.17139-.98524-.30903-1.13007-.41285-.35601-.25521-1.02223-.90865-1.02223-.90865s-.69131.7735-1.1358 1.02224c-.37899.21208-1.2494.25591-1.2494.25591z" fill="#00247d" stroke="#000" stroke-width=".969784"/><g fill="#fff" transform="translate(-14.216157 -5.336168)"><path d="m665.98052-204.44785c.0211 2.49124.50919 2.8128.88867 3.69136l.54687-3.41793z"/><path d="m674.88423-204.44785c-.0211 2.49124-.50919 2.8128-.88867 3.69136l-.54687-3.41793z"/></g><g stroke-width="1.019377" transform="translate(-14.247482 -5.336168)"><g transform="translate(0 .064716)"><path d="m932.78865 583.0728c0 .91155-1.03912 1.89502-2.39674 1.89502-1.35763 0-2.21238-.73895-2.21238-1.6505s.85475-1.40598 2.21238-1.40598c1.35762 0 2.39674.24991 2.39674 1.16146z" fill="#fff" transform="matrix(1.1428571 0 0 1.1489362 -398.53239 -883.00507)"/><circle cx="664.983369" cy="-212.880938" r="1.053512"/><path d="m664.78125-214.6875c-.8063 0-1.50329.15935-2 .46875s-.78125.80487-.78125 1.40625.2906 1.14697.78125 1.53125 1.17862.625 2 .625c1.67295 0 2.96875-1.20119 2.96875-2.4375 0-.61815-.39009-1.05519-.9375-1.28125s-1.24004-.3125-2.03125-.3125zm0 .5c.76036 0 1.40949.10192 1.84375.28125s.625.38334.625.8125c0 .85833-1.03856 1.9375-2.46875 1.9375-.73019 0-1.30183-.19795-1.6875-.5s-.59375-.71032-.59375-1.15625.18289-.76354.5625-1 .97348-.375 1.71875-.375z"/></g><g transform="matrix(-1 0 0 1 1340.9274 .064716)"><path d="m932.78865 583.0728c0 .91155-1.03912 1.89502-2.39674 1.89502-1.35763 0-2.21238-.73895-2.21238-1.6505s.85475-1.40598 2.21238-1.40598c1.35762 0 2.39674.24991 2.39674 1.16146z" fill="#fff" transform="matrix(1.1428571 0 0 1.1489362 -398.53239 -883.00507)"/><circle cx="664.983369" cy="-212.880938" r="1.053512"/><path d="m664.78125-214.6875c-.8063 0-1.50329.15935-2 .46875s-.78125.80487-.78125 1.40625.2906 1.14697.78125 1.53125 1.17862.625 2 .625c1.67295 0 2.96875-1.20119 2.96875-2.4375 0-.61815-.39009-1.05519-.9375-1.28125s-1.24004-.3125-2.03125-.3125zm0 .5c.76036 0 1.40949.10192 1.84375.28125s.625.38334.625.8125c0 .85833-1.03856 1.9375-2.46875 1.9375-.73019 0-1.30183-.19795-1.6875-.5s-.59375-.71032-.59375-1.15625.18289-.76354.5625-1 .97348-.375 1.71875-.375z"/></g></g><g transform="translate(-14.132735 -5.336168)"><path d="m661.12132-211.22485.2189 1.95048.63079.57371c-1.44936-.21083 1.91598.48806 2.6167.63557l.11062 2.21238 1.49335 1.82521 2.37831.22124 1.88052-1.21681 1.60398 1.27212 2.15707-.11062 2.21238-1.99114v-2.323l2.01928-.1559 1.13336-1.0056v-1.7699c-.97175 1.22364-1.93357 2.42423-4.7013 2.10176.30303 1.33071.21514 2.23568-.10593 2.82942-.38328.70879-1.09885.97406-1.87833.99065-.97223.0207-2.03834-.78084-2.55112-1.22052-.74162.79142-1.39038 1.41658-1.99525 1.39392-1.26413-.0474-2.10856-.55064-2.52437-1.29053-.44045-.78373-.39997-1.83295.13205-2.88698-4.92631.0974-3.63091-1.59143-4.83101-2.03546z" fill="#ffd700"/><path d="m661.05735-211.69285c-.48492 1.28768-.28378 2.45984.42441 3.20893.59079.6249 1.49213.86991 2.47398.91092-.0108.15882-.018.18577-.0207.41406-.006.49673.005 1.07182.20702 1.57341.41453 1.02745 1.24777 1.71017 2.1945 2.14274.82617.37748 1.7898.3611 2.60855.0828.50449-.17148.90215-.49664 1.21111-.78671.11015-.10341.11986-.12422.20703-.21738.32008.35606.7675.77238 1.44919 1.00409.81875.27829 1.77203.29467 2.5982-.0828.94673-.43257 1.77997-1.11529 2.1945-2.14274.20236-.50159.21294-1.07668.20703-1.57341-.002-.17707-.0126-.18155-.0207-.3209 1.04557.013 1.93276-.33325 2.48434-1.00408.65616-.79803.80426-1.95791.4244-3.17788-.60273.55855.0816 1.13704-1.19041 2.53609-.40343.49066-1.11079.77492-2.17379.62109l-.64178-.0932.0725.64179s.0361.36293.0414.80741c.005.44448-.0502.9813-.13457 1.19041-.3009.74581-.88446 1.24239-1.67692 1.60446-.53125.24273-1.269.2434-1.86325.0414-.56946-.19356-1.29929-1.00879-1.35603-1.0869l-.35195-.48651-.41406.43476c-.13066.13772-.28557.34242-.53827.57967-.2527.23726-.5663.46295-.84881.55898-.59426.20199-1.34236.20132-1.87361-.0414-.79246-.36207-1.37602-.85865-1.67692-1.60446-.0844-.20911-.13986-.74593-.13457-1.19041.005-.44448.0414-.80741.0414-.80741l.0725-.59003-.60038.0414c-1.00568.069-1.81013-.21154-2.24626-.67285-1.34493-.83846-.86374-1.67692-1.149-2.51538z"/><path d="m669.1689-215.78165-.50722.23808s-1.72355.79174-3.28139.78671c-.63267-.002-1.59239-.38405-2.49468-.46582-.45115-.0409-.94895.004-1.33533.35195-.38639.34805-.55842.90541-.55898 1.62517.52653-.24596.82663-.54771 1.22146-.87987.0934-.0842.25887-.13259.57969-.10351.64162.0581 1.62828.47305 2.58784.47616 1.37393.004 2.4581-.38749 3.08472-.64179.006.28586-.0222.6591-.18633 1.14901-.0837.24978-.46326.89049-.81777 1.4906-.17724.30006-.34799.60287-.4865.87987-.13851.27699-.25756.50091-.27949.80741-.0442.61797.23807 1.18005.23807 1.18005l.11388.31055.33123.0103c1.2232.0457 1.53314.39933 2.05994 1.19041l.0828.12422.12422.0517c.14818.0705.2592.12901.383.16563.1238.0366.27713.0516.4037.031.25315-.0412.28543-.10308.51757-.15527l.19668-.0414.11386-.17598c.5268-.79107.8471-1.14469 2.07028-1.19041l.32089-.0103.12422-.31054s.27197-.56208.22773-1.18006c-.0219-.30649-.14098-.53042-.27949-.80741s-.30926-.57981-.48651-.87987c-.3545-.60011-.73406-1.24082-.81776-1.4906-.16416-.48986-.18222-.86316-.17597-1.149.63091.2552 1.70786.6462 3.07436.64178.95956-.003 1.9462-.41802 2.58785-.47616.32082-.0291.48623.0193.57967.10351l1.22146.87987c-.00066-.71976-.16224-1.27711-.54863-1.62517-.38638-.34805-.89453-.39283-1.34568-.35194-.90229.0818-1.86201.46375-2.49468.46581-1.55784.005-3.28139-.78671-3.28139-.78671l-.50722-.23808-.17597.53827s-.31557.996.12421 2.30836c.17012.50763.55232 1.09774.90057 1.68728.17413.29477.33825.58335.45546.81776.11722.23441.16607.44093.16563.43476.009.11926-.0531.30589-.10352.48651-1.12464.1504-1.82287.70904-2.33941 1.4285-.11708.0357-.27952.0718-.26914.0725-.0175-.006-.0719-.0339-.11386-.0518-.51865-.73119-1.23286-1.29707-2.37047-1.4492-.0504-.18062-.11205-.36725-.10352-.48651-.00033.006.0588-.20035.17598-.43476.11721-.23441.28133-.52299.45546-.81776.34825-.58954.73045-1.17965.90057-1.68728.4398-1.31236.12422-2.30836.12422-2.30836l-.18633-.53827v.00002z"/></g></g></g><path d="m667.65197-206.38462c2.17417.62169 3.77229-1.46215 4.14611-1.73487 0 0-1.05996-.36458-2.0813-1.67625-.6866-.8818-1.32841-2.60306-1.60111-3.41795-1.01306-3.02681.0744-3.85147.18043-3.63081 0 0 1.83273-1.27616 2.48995-2.16562.62328-.84221.68772-2.01419.62753-3.05965-.0903-1.56812-1.28919-3.56774-1.28919-3.56774-3.00046.67188-3.63947 1.27678-4.07301 2.37774 0 0-.49091-1.48867-1.29367-2.74706-.40014-.62724-1.16362-1.51324-1.83618-2.03593-.69126-.53725-1.28635-.70266-1.28635-.70266.20494.78744-.2941 1.70266-.49785 2.35094 0 0-1.15447-2.91006-2.21231-3.77009-.81594-.66339-2.70496-1.30789-2.71744-1.31032-.3128-.0609-1.78756.62325-2.61197 1.27606-1.06875.84639-2.26063 3.74135-2.26063 3.74135-.19541-.65083-.6826-1.57242-.46754-2.35715 0 0-.59719.15772-1.29528.68607-.67922.514-1.45408 1.39012-1.8622 2.01215-.81885 1.24798-1.3289 2.73021-1.3289 2.73021-.38659-1.16989-.9843-1.73647-4.04211-2.42989 0 0-1.22448 1.98405-1.33488 3.55088-.0737 1.04462-.0233 2.21733.58815 3.06746.64571.89783 2.46191 2.19746 2.46191 2.19746.10878-.21929 1.18557.61929.13372 3.63283-.28315.81131-.94701 2.52417-1.64492 3.39707-1.03809 1.29844-2.10267 1.64936-2.10267 1.64936 1.14589 1.52304 1.52501 2.17194 4.12348 1.78802-4.53815 5.72474-3.32089 12.44384 2.64951 16.75942.0948-.74991.63997-2.54689 1.0516-3.29475-.0753-.0307.9917 3.19557 3.09523 4.39324.68254.38858 1.79645 3.31696 2.82963 4.04312.94251.66246 2.18864 1.31994 2.18864 1.31994s.08-2.59747 1.08788-3.28636c1.01496-.6938 2.93885-1.89078 3.56772-2.30598 1.26565-.83563 2.89684-4.50625 2.89684-4.50625l.59916 3.74834c6.74884-4.80489 7.00754-10.39212 3.12198-16.72232z" fill="none" stroke="#000" stroke-width=".969784"/><g transform="translate(-14.274785 -5.336168)"><path d="m657.19992-218.43138s1.80475.59598 2.16682 1.41964c.49367 1.12301.37359 4.5578.37359 4.5578s-2.27336-1.69348-2.68984-2.61513c-.52396-1.15951.14943-3.36231.14943-3.36231z"/><path d="m683.58799-218.43138s-1.80475.59598-2.16682 1.41964c-.49367 1.12301-.37359 4.5578-.37359 4.5578s2.27336-1.69348 2.68984-2.61513c.52396-1.15951-.14943-3.36231-.14943-3.36231z"/></g></g></g></g></g></svg>