<svg height="132.76791mm" viewBox="0 0 189.66871 132.76792" width="189.66872mm" xmlns="http://www.w3.org/2000/svg"><g transform="translate(-1.449461 -42.133999)"><path d="m1.449461 42.133999h189.66872v132.76791h-189.66872z" fill="#fff"/><path d="m157.91981 151.71477-123.272006-.28089c9.325064-2.49864 25.570383-31.00353 25.570383-55.69509h18.127319c.734818 10.37345 3.092949 31.00528 9.747294 31.00528 3.304314 0 6.811624-5.14477 7.774853-8.73962h8.129127c.99131 3.69959 4.46335 8.11536 6.79632 8.11536 3.86765 0 10.46965-8.17382 10.46965-19.4843 0-7.244138-2.68392-10.655945-6.18358-10.655945-8.10477.509634-18.925097 9.629115-20.441364 10.834775v-41.493206c6.174304 5.455952 15.816014 11.316338 26.806064 11.316338 6.67956 0 16.12141-3.86013 19.34092-6.260109-21.6973 48.626837 8.72932 71.053767 17.13502 81.337407z" fill="#019744"/></g></svg>