<svg height="500" width="1050" xmlns="http://www.w3.org/2000/svg" xmlns:xlink="http://www.w3.org/1999/xlink"><linearGradient id="a"><stop offset="0" stop-color="#c3bdc9" stop-opacity="0"/><stop offset="1" stop-color="#c3bdc9"/></linearGradient><linearGradient id="b" x1="85.85%" x2="2.54%" xlink:href="#a" y1="93.77%" y2="4.3%"/><linearGradient id="c" x1="7.68%" x2="212.6%" xlink:href="#a" y1="40.89%" y2="188%"/><linearGradient id="d" x1="-.19%" x2="118.02%" xlink:href="#a" y1="100.24%" y2="-14.85%"/><path d="m550 0h-550v500h1050z" fill="#dc143c"/><path d="m1050 0h-1050v250h800z" fill="#fff"/><path d="m312.49 21.44 2.298 164.26c0 .00001.20646 14.786 15.206 24.605 4.1902 2.743 10.857 4.9135 21.094 4.7734 3.1205-.0439 20.976-.13494 29.97.11311 6.5662.18112 17.497 4.7311 18.264 12.363h1.5414c.66033-8.839 11.597-12.173 18.264-12.363 8.9503-.25623 26.846-.15611 29.967-.11311 10.237.14106 16.904-2.0304 21.094-4.7734 15-9.8194 15.206-24.605 15.206-24.605l2.298-164.26h-175.2z" fill="#dc143c"/><path d="m410.89 45.043c-1.8186 3.1257-2.5977 3.3431-10.573 2.1166-6.3076-.62925-11.99-2.4108-12.251 3.3058 2.0864.24769 5.1443.47434 6.466 4.9335l-3.883 3.2936c-2.7265.42898-7.0265 4.0768-9.8671.68473-.77963 3.1898 2.1487 4.0874 5.204 3.9593 2.1409-.21949 2.8245-.79432 6.8213-1.5844l1.0592 1.1389c6.0366.49981 9.1629 9.1335-.62752 14.199-.37918 1.1724.24644 2.5791 1.177 2.7459-2.8463 4.0258-7.517 9.0486-9.1928 5.7344-.3903.36688-1.4899 3.1061.6414 4.6198-1.6192 1.9939-2.2449 4.3529-2.1582 7.0779-6.4531-1.0082-10.704-2.1019-9.2569-8.137 6.866.31724 8.7265-7.9745 7.7176-12.178-3.9899-16.789-25.648-30.254-41.412-30.693.87687 4.568 3.6952 7.8639 6.9045 10.904-4.1803-2.0348-9.0315-4.0077-14.112-2.973.58722 3.6086 2.5438 7.7941 10.777 14.622-5.9344-3.5236-11.408-6.9641-13.336-9.7665-.85651 1.1557-1.3392 5.862 3.727 9.2968-1.6088-.64173-9.5603-.5844-11.965 1.177 1.4525 3.3054 8.0882 9.0823 13.533 10.864-5.1632-.75091-10.003-2.8316-14.435-6.589-.6547.58763.0252 6.7041 5.5299 9.139-1.7829.1187-7.8648 1.8249-9.4354 3.7842 3.1732 4.2361 11.287 7.9676 15.319 7.9828-5.4998.71721-11.506-.38848-14.003-1.1753.0555 1.4056-1.1271 7.051 13.925 6.1193-5.3702 2.5373-13.476 7.8194-14.769 12.476 5.2173 2.3099 14.573.4063 19.412-1.1112-14.308 8.721-16.541 9.617-19.195 9.0315 3.4644 7.3244 11.812 2.3759 19.025-1.7266-8.8674 11.865-10.309 17.913-10.12 26.32 7.141-.85931 17.478-11.088 22.986-19.809-6.3832 13.13-10.183 23.685-17.143 26.791 7.9296 3.1413 14.731-6.8097 19.509-17.364-1.83 6.6812-2.5871 20.843-.24963 24.307 7.169-4.8572 12.6-15.642 16.239-28.006-1.2415 6.0929-2.1603 12.185-4.3927 18.278 4.6083.87635 6.9638-7.3926 8.5184-12.237.14352.25361.31447.46723.75927.88061 5.8219-4.2237 7.6744-14.028 8.0833-17.867 5.3082 1.5086 7.6439-.41645 9.0038-1.4041 1.1626 1.6101 1.2364 4.1218 1.5636 4.4655-5.7736-4.6896-11.966.0105-12.219 7.8216-.62554 3.2596-2.3672 7.0294-6.726 9.9468.27246.35453.88143.49853 1.6711.48365-.75937 1.3064-1.4482 2.4355-2.7355 3.6196.33269.19282.7486.21882 1.1424.28949-.96881 1.6182-2.5861 3.1461-4.202 3.9246.38773.37157.60836.49629 1.7838.81475-1.0769 1.4302-2.8341 2.7204-4.4915 3.4167 3.1624 1.8783 5.5784 2.1191 7.539 1.9398h.0104c-1.2512 2.475-3.2691 3.7285-5.2404 4.8399.61321.57591 1.3508.70043 1.964.52872-1.7819 1.8515-3.6643 3.31-5.3634 3.8362.30942.23169.52629.55039 1.6208.46804-1.2161 1.5009-2.6911 2.9662-5.301 3.6473.51642.99316 1.5779.84091 2.4945.87369-.71286 1.5346-2.9455 2.0498-5.2057 2.5257 1.7033.48172 2.8615 1.3966 1.8479 1.158-.68755.82898-1.3623 1.258-2.836 1.4787-1.5143.22678-6.935-1.7256-9.1199-.97249-.61858-1.2318-2.1154-2.0802-3.6941-2.0802-2.0171 0-3.9997 1.2856-4.0928 3.0822-.31242-.21631-1.6288-.3898-1.4284 1.1718.47496.91937.4981 1.6575 3.4011 2.7753.47289.21079 1.0484.32082 1.7456.29123 1.034-.0436 2.1908-.56299 3.0562-1.314l-.0173.0312c1.4454.26758 3.0369.50963 3.916.87715-2.2869.18256-3.0734 1.4447-4.3771 2.3524-.54885-.0276-1.0028-.16331-1.4995-.24269l.0156.0173c-.29803-.075-.59901-.10775-.89276-.0919-1.6326.0882-3.2784 1.9282-3.4549 4.013-.0358.42282.0688.82678.27389 1.1961l-.0243.35537c-.47625.58763-.2876 1.0551.17682 1.3937 1.9931.79173 3.1819.30472 3.8986.15948 1.8084-.21915 3.3214-1.7101 3.3214-3.3682 0-.004.00002-.008 0-.0121l.0381.0416c2.1393-.44451 4.2487-1.0386 5.4207-1.9016.0603.13026.0956.27194.0693.4455-.74437.44131-1.9686 1.1416-2.6158 3.3006-.19315-.0181-.37721-.0275-.55126-.0277-2.4469-.004-3.0509 1.686-3.0076 3.0666.0422 1.346.53126 2.2128 1.229 2.7355-.14807.83811-.0453 1.5386.82168 1.8184 2.9212.45813 3.6238-1.053 4.2107-1.0158-.0325-.38407.046-.65645.15428-.89969.89597-.41592 1.5037-.75626 1.5879-2.439.0768-1.0454-.10106-1.6854-.44378-2.0941l.078.0225c.00033.003.001.006.002.009.003-.002.006-.004.009-.007l.0243.007-.003-.0243c2.6754-2.2842 4.3885-4.0873 5.5437-5.6113 1.0295.23667 3.3383.18247 4.4742-.19762l-.0451.4091c-1.0717 1.0199-.34325 3.455 1.0713 3.4011-.0609.22873-.0498.43519 0 .66393.91801.56608 2.6145.16875 3.909.45764.66383-.0778.97915-.52405.81128-1.4336l-.0225-.0139c1.0385-.61492 1.7352-1.7243 1.6018-3.1272 0-1.9385-1.5137-3.4869-3.3803-3.6092l.0104-.009c-1.9979-.21573-3.9149 1.2255-3.4965-1.886 5.4691-6.4765 12.935-16.261 14.976-17.449-.16289-.21181-.27269-.49033-.36577-.76101.81022 2.1451 3.8751 4.4068 7.0987 4.2124-.5803-1.1044-1.2245-2.0856-1.4544-5.0376.48185.69646 1.3039 1.0231 2.309 1.229-1.507-6.8958.74152-12.569 5.3721-17.755-.36765 6.6724-1.2105 13.387-5.2612 20.188 2.0843.65269 4.8082-1.4721 5.1832-2.7337.44328 6.008-5.2495 13.741-9.7024 10.034-2.7954 6.146 3.8343 9.1284 8.0157 5.5611-.70682 3.718-3.6123 5.9036-6.7797 6.7572-3.1674.85361-6.4676-.49212-4.3615-5.5628-.44642-.26413-6.7999-.4249-6.9791 6.5024.18943 4.0028 2.8922 5.5088 3.1359 5.5784-9.0593 6.8727.0677 14.532 7.5425 13.045 5.9273-.91455 9.2957-5.7173 11.443-9.1997-.64921 2.5055-3.3295 10.55 3.4999 19.263 6.7665-10.567 3.9044-17.687 3.7409-18.817 5.319 8.1985 10.563 8.7891 13.663 8.586 5.2986.0851 12.8-8.2416 3.2624-13.568 4.881-2.3239 5.2029-11.977-1.6728-12.473 1.4162 3.8249-1.5725 6.1365-4.8694 5.8384-3.2969-.29807-6.3354-2.1991-7.5043-6.4816 6.4911 3.1218 9.5038-3.0196 7.2946-6.3533-5.5396 4.5803-8.1595-2.7674-8.9033-7.1403 1.415 1.0773 2.6398 1.4513 5.0202 1.099-4.5062-5.7948-5.5584-13.568-5.9615-20.868 3.0669 4.8766 6.0947 10.845 5.9962 16.692.70971-.34828 1.3548-.44287 2.6332-3.0024.11522 4.3735-.38384 4.9655-1.8635 6.7953 2.423 1.0184 5.6051-.94066 7.1195-3.5398.005-.007.009-.0139.0139-.0208 4.7078 6.3559 9.7896 12.88 14.733 17.924 1.072 1.1192 1.443 2.2381-.54259 2.6315-6.3532-2.3451-7.0197 4.2983-4.384 5.197-.20795.60052-.26622 1.223-.0849 1.8791 1.2501.38524 3.8053-.65056 4.4898-.6882.31819-.2872.32106-.88852.31203-1.5029.63777-.0315 1.074-.36601 1.3781-.89795 1.2388.23775 2.4407.39646 4.0078-.89796l4.6978 4.7186c.24381.14024-.24886.64402.41604.709-.52223 3.1337.66949 3.4898 1.6919 4.28-.20968 2.998 4.2771 1.2697 4.7168 1.4405.47518-.28023.5157-.6041.43858-.93956.52154-.54697.27748-.82474.10574-1.2117 2.2478-3.4266-.94028-6.0391-2.6939-5.7396-1.8655-2.0471-3.2104-2.9078-4.7168-4.1344 3.0828 1.1634 7.839 2.4788 9.2049 3.4861.51993 3.4965 3.586 2.052 5.8454 2.1721.70204-.98616.32497-1.292 0-1.6295 2.9735-3.8356-3.3-6.983-5.9702-4.7168-1.5842-1.4616-2.9555-1.7172-4.384-2.2969.59623-.59975 1.8589-1.0677 4.6978-1.2516 1.2734.84333 2.5455 1.1399 3.8189.20802.54759 1.1992 1.6377.88831 2.0247.66739.93144-1.0738.95764-2.7044 1.2117-4.1951-.25403-.5401-.65905-.89237-1.3573-.87715-1.9283-3.2983-5.6528-1.293-5.8662.18722-3.2104.26283-6.0653.67254-9.4562 2.0265-1.1184.33685-2.1827-.87321-3.1307-1.5671.85822-.343 1.6066-.73393 1.5862-1.4613-1.3732-.13485-2.714-.0389-4.3008-1.6694l.41777-1.1268c-1.2248-.37541-2.5415-1.2674-4.1535-3.7998.33806-.20126.65704-.53669.93956-1.1268-1.8322-.42351-3.3322-1.3933-4.5522-2.8187.43668-.2137.85145-.58611 1.2325-1.1892-1.709-1.0315-3.3539-1.9293-6.6289-6.1973-.0124-.0208-.0246-.0438-.0364-.0624 3.4488.57604 7.051.2362 9.1823-1.314-1.6949-.47255-4.6858-1.4586-6.0204-4.0391.66184-.054 1.0256-.18328 1.4371-.29989-2.5865-1.7074-3.2715-2.6308-3.9281-4.0148.54432.0544 1.3227-.19293 1.5827-.57205-1.6678-.75011-2.3991-1.7882-2.9938-2.9192.68545.0142 1.4064.1478 1.9606-.27562-6.5886-2.9719-5.6726-18.377-12.745-18.424-3.1476.2574-3.7193.93953-5.3426 1.7682.47605-1.3175 1.2825-2.5527 2.1235-3.779 3.8627 1.8041 6.9242.78712 7.962-.11788.52755 6.1915 2.513 12.835 6.8109 16.16.73666-.41515 1.6216-.94825 2.1617-1.5446.7665 5.7519 2.9143 13.311 7.7366 12.684-2.2223-5.5378-2.1868-11.103-2.4321-16.636 2.0217 16.24 7.0058 25.711 11.126 28.551 1.8981-2.5075 3.3128-14.361 2.3922-21.48 4.0506 7.3319 8.5461 14.122 12.315 14.085 1.7073-.0172 3.6032-1.4145 4.7481-1.7682-5.9071-2.3835-9.9175-13.26-13.546-20.032 6.8076 10.66 14.888 15.462 18.699 16.184.13653-3.2967.86634-12.521-7.6101-25.3 15.148 8.0193 18.367 2.8406 19.254.078-6.8359 2.3822-16.055-6.4046-22.23-9.198l-.0832-.24442c9.0351 4.1235 17.901 5.5448 23.418 2.0681-4.7161-7.2775-9.2834-9.9287-14.248-11.798 9.8086 1.0887 13.024-2.2481 13.227-5.9008-3.5795 1.2096-6.8909 1.3986-11.159.71593 9.3868-1.8914 11.08-5.8739 10.987-6.2718-2.4044-1.8682-6.9447-3.9718-11.046-4.358 11.318-4.0668 7.7202-7.9008 7.2998-9.1043-3.5194 3.299-9.6533 5.6524-10.737 5.5541 5.2831-2.7551 9.8642-9.9624 9.5672-10.777-2.6392-1.358-8.1054-1.2914-10.302-.62753 2.198-2.4115 5.0841-6.5393 2.4217-9.9728-2.5606 3.6195-4.9956 5.5442-7.428 7.4332 2.2074-2.7922 4.7714-5.9953 5.6495-12.552-3.3055.43293-6.3016.10884-10.592 2.9417 2.4617-3.0753 3.9767-6.1017 4.2765-9.7665-14.784 1.0375-32.065 8.7883-40.404 28.112-2.4204 5.6767-.53189 15.339 7.0762 14.237 1.2001 4.8753-2.0256 7.8546-9.035 7.6395-.14828-1.632.36306-4.8658-1.6468-6.5682 1.7026-.11014 2.0361-.98622 2.3922-1.73-4.5752-1.0559-3.8342-2.574-2.9816-10.703.60162.24997 1.2877.10526 1.808-.37617-1.8906-1.7429-1.2656-4.9671-.31203-15.125.19149-4.4272-.72033-6.6433-1.6919-7.4072.58571-.29719.96952-.77826.6674-1.8826 2.1161-.37157 1.2199-2.9541.34843-3.7912-.42486 1.151-2.2384 1.5758-3.9576.2999 2.0785-.94739 2.0974-3.3049.50965-4.9422zm8.5514 109.16c.0702.0849.143.16466.21668.24269-.0739-.0738-.14682-.14959-.22015-.22883.001-.005.002-.009.003-.0139zm-43.265.31376c-.20468.76625.15915 2.8615.20282 4.2557.70062.34441 1.9376-.0121 3.356-.55298-.077.0334-.15237.0659-.22882.0988-1.0672.39564-2.3387.8002-3.1376.47845l-.24963-3.1186c-.0529-.35208-.0478-.73227.0503-1.1597.002-.00066.005-.001.007-.002zm-.52179.14562c-.11735.0348-.23703.0646-.36056.0901.11907-.0283.23813-.0572.36056-.0901zm44.681.38137c1.563 1.1425 3.4922 1.1746 4.2037 1.0037.0402-.0889.0756-.179.10747-.26869-.025.1011-.0537.20324-.0849.30683-1.4723.2245-2.8926-.0184-4.2263-1.0418zm-53.855 26.075c-.00011.001.00012.002 0 .003l-.003-.002c.001-.00056.002-.001.003-.002zm40.084 1.7352c1.4692 1.5421 7.1354 5.7344 13.709 3.708.54612 3.7148-2.6098 5.1135-5.1017 4.6059-2.4357-.49618-6.0986-2.4398-8.6068-8.3139zm-13.06.94996c-2.1328 4.0581-5.6678 7.4897-8.8148 8.3156-3.147.82588-6.0793-.73882-4.937-4.8243 6.7958 2.2751 12.318-1.7489 13.752-3.4913z" fill="#fff"/><g fill="#f6d155"><path d="m385.7 32.341c2.8551 4.9837 4 9.6998 5.5781 14.204 2.6137-.35516 5.65.24065 8.5652.5639 2.9742.38648 6.0545.94985 8.5652.5639 1.5412-7.0978 2.8754-10.644 5.9438-15.637-1.3615.92597-4.2591 1.3045-5.3952 2.9872-1.7028-1.5149-3.0534-.5666-3.9016 1.0364.28858-1.2795-.0929-2.3642-1.7679-2.469.99294-1.8615-.53599-2.7851-2.1337-1.9508-.0444-1.6215-1.3402-1.635-1.4326-2.4995-.21505 1.0011-1.3509.50588-1.1888 2.9262-1.2933-1.039-2.557-.36218-2.0727 1.4631-1.5693-.007-2.0074 1.2851-1.8594 2.8957-1.0762-2.4969-3.0979-1.7346-3.8101-.85347-1.262-2.4866-2.2155-.9163-5.0904-3.231z"/><path d="m342.18 187.15c1.6404.75681 3.6686.24215 4.7636-.0728.58825.56045-.18084 2.7655 1.5602 4.3719-.99449.435-6.439-1.239-6.3238-4.2991z"/><path d="m339.84 175.39c.68109 2.1751 2.6074 2.4077 3.3935 2.8591-.0211.82167-2.1282.78185-2.2045 3.7563-1.4726-.13291-3.522-3.5741-1.189-6.6154z"/><path d="m350.79 193.37c2.655.44802 3.6166-.9765 4.2117-1.0562.30887.86923 1.4954 2.0009 2.6483 2.5927-.53866 1.9495-6.9752 1.5236-6.86-1.5365z"/><path d="m371.27 186.1c-.15528-.3313-3.2049.0381-3.7559-.45334-.38239.47223-.49555 2.0303-1.6484 2.6221.73604 1.3319 5.8335.89128 5.4043-2.1688z"/><path d="m428.22 184.24c1.6149.3947 3.5811-.6609 4.5224-.68007.43898.86483.60924 1.8055 2.4142 2.4142-1.191 1.323-5.6687 1.7608-6.9367-1.7342z"/><path d="m446.26 191.57c-.59411.5864-1.2523 1.2118-2.3802 1.8872 2.0194 1.8378 6.1277-.22562 5.9676-2.0062-.36698-.70521-1.5513.81713-3.5874.11902z"/><path d="m454.13 185.12c.0349 2.3931-.27331 3.0213-.54406 3.8424 1.151.78361 4.1251-1.0783 4.4374-3.8934-.3117-.66794-1.5755.49745-3.8934.051z"/><path d="m459.59 171.9c-.85515.21551-.34515 3.1237-1.3261 4.0464.80472.44664 1.3497 1.5167 1.9382 2.4822 1.8873-1.4291 1.8174-5.5-.61206-6.5287z"/><path d="m383.85 58.642c-4.8724-9.3732 9.1773-10.89 10.605-3.2728 0 0 3.5421.14096 6.6284 1.7814 6.0143 4.3642 2.3609 6.8611 1.1492 6.6604-2.8028.04912-3.3292-2.6424-7.4199-1.6147-.98364.36718-1.0367.8725-1.4762.8576-2.4389-.61978 2.0333-5.5176 6.8355-1.9885.42819.31468 1.3634-.30013.53855-1.2221-3.2202-3.2503-8.8013-1.4641-10.025-1.16-1.5592-2.5281-5.0074-1.9494-6.8355-.04143z"/></g><g fill="#dfa12f"><path d="m390.85 36.029c.84173 1.468-1.4951 5.8742 2.5299 5.2123 1.3641.85867 2.5881.39284 3.2005.39626 2.6672-.92902 2.5896-2.7688 2.7585-3.2615-2.3147-3.2574.27981-3.8789.56391-4.0845 1.4318.17423 2.1676 2.8154.24385 3.6577.1524.12193.38609.1016.70106-.06096-.0283 4.2309 2.9774 4.5258 5.0599 3.8406 4.1031 1.1215 2.114-3.6248 4.054-7.1631-2.2027 3.8771-.78308 7.4021-3.993 6.9497.82585-2.0016-1.3558-3.5612-.27433-5.7305-1.6731 1.4319 1.1068 4.0794 0 5.4561-1.1323.99137-2.2306.16597-2.2556-.27433-.46302-1.4359 2.8182-3.18.85347-5.8219.67312 1.4301.44058 2.0736.0798 2.9828-.36076.90917-1.7489 1.7334-1.1162 3.5402-1.4377-.28449-2.1841-1.9902-1.7854-3.3361.39297-1.3267 1.0661-3.5505-1.4456-4.2689-3.1713.95305-1.5575 3.4631-1.1752 3.9102.77862.8434-.64955 3.3883-2.4369 3.3748.81799-1.2492-.15149-1.5018-1.3564-3.4901-.0882 1.057 2.4022 2.4844.97539 3.3224-.73154.58489-1.7679.24094-2.1946-.18289-.8075-.91804 1.1346-1.9882.77727-3.7492-.52094 2.5826-1.2716 2.4286-1.1735 3.6577-.93451.26586-1.9098.60318-2.2138-1.18.0198-2.4497-.0289-3.9547-.37711-3.697z"/><path d="m388.53 53.691c.87623 1.3078 2.3458-.36576 4.8056 2.2164l.28999-.12428c-.55301-2.2215-2.0542-3.5735-4.267-3.8113.94302.8283.25631.87716.21945 1.4065-.0324.46549.0139 1.0352-1.048.31277z"/><path d="m384.64 57.71c1.3347-.72528 4.2437-1.8143 6.0898.78712 5.8171-1.7013 9.9314-.14121 10.502 2.1956.36069-.63588-1.2808-4.1552-7.9126-3.5627-5.6647-3.9618-8.8756-.37967-8.679.57998z"/><path d="m393.5 62.702c-1.0098-.04229 2.1359-3.7597 7.2912-.20714 1.8482.72259 2.7293-.21915 2.3821-1.7399-.12275-1.1201-.74221-1.7434-1.1185-2.6099 2.5927 1.9473 2.9081 4.348 1.1515 5.3153-2.7302 1.3608-4.6491-3.4828-9.7062-.7583z"/><path d="m407.35 46.012.0457.25909c-4.9176.31708-9.9267-.62407-14.753-.73155v-.22861c4.8848.12025 8.7466.97822 14.707.70107z"/><path d="m399.77 46.85-.0152.19813c2.8244.44123 5.6526.88794 8.0013.65534v-.21337c-2.8318.35258-5.3873-.21587-7.9861-.6401z"/></g><g fill="#e1a02f"><path d="m393.02 42.796c-.78006.24935-.41301 1.3931-.0152 1.3869.89919.04468 1.7984.17301 2.6976.03048.51039-.24015.67807-1.1421.10668-1.5088-.94534-.11611-1.8839-.11505-2.789.09144zm-.16764-.15241c1.5522-.29773 2.9668-.10668 3.7644.04572.71475.1901.71691 1.4354 0 1.6917-.81182.07469-2.5572.05612-3.7492-.04572-.784-.64956-.37703-1.435-.0152-1.6917z"/><path d="m398.43 44.03c2.0255.26567 3.7381.42327 3.3072-1.1583-.57721.0076-4.4768-.86698-3.3072 1.1583zm-.061.21337c-.2743-.28767-.65257-.90953.0914-1.6765 1.1314-.08013 2.2876-.01103 3.4596.15241 1.0768.44496.98038 1.4043.0914 1.8136-1.901-.0018-2.9126-.12626-3.6425-.28957z"/><path d="m403.9 44.323c1.9972.42936 3.6761.80178 3.3751-.80955-.57593-.03929-4.3764-1.304-3.3751.80955zm-.0781.20771c-.25002-.30901-.57652-.95954.22735-1.6635 2.8671.14797 2.3857.18309 3.4358.43298 1.0371.53097.86305 1.4793-.0562 1.8151-2.4867.05276-2.9163-.35414-3.6069-.58455z"/></g><path d="m362.66 90.155c-4.891 14.004 16.178 16.173 21.795 16.591l-.67769-3.5095c-10.189-.45349-19.692-2.7013-18.286-10.359-1.8407-1.1521-2.2352-1.671-2.8318-2.7229z" fill="url(#b)"/><path d="m362.67 90.119c-1.1271.55376-2.7428.80005-4.3082 1.0407-4.0552 16.986 22.262 18.326 27.301 18.951-.79155-1.5686-.99035-2.3991-1.2173-3.4227-13.356-.86486-25.707-5.8674-21.776-16.569z" fill="url(#c)"/><path d="m437.51 86.935c3.9056 14.304-8.8668 18.381-23.912 19.745-.3661.88994-.71755 1.8544-1.0836 2.8485 20.421-1.4265 31.106-8.0275 28.32-21.789-1.3111-.20045-2.3428-.494-3.325-.8041z" fill="url(#d)"/><path d="m397.83 50.999c.61283.4892 3.7186.99329 3.7906 1.2842-.99502 2.3465-4.2445 1.6226-3.7906-1.2842z" fill="#aaa3b5"/><path d="m395.35 49.839c.54486-.05229 1.0425.1318 1.5328.35213-.98457 1.5243.45836 2.9787 1.2635 2.7549.27272.24856.5505.49713 1.4707.74569-1.2996.27122-5.6474-1.0686-4.267-3.8527z" fill="#b6b1bf"/><g fill="#c3bdc9"><path d="m378.39 118.43c1.0721.50019 2.1929.91511 3.4126 1.1571-.57492 7.176-4.2102 15.381-8.041 17.808l.0981-2.0201c-.93786-1.5678-1.6807-4.0815-1.8828-9.2178l.3138-.3138c.0877 3.5772.47533 6.8646 1.667 9.3747 1.8217-1.3688 5.8008-5.9319 6.4132-14.709.0338-.53656-.11286-.87265-.41187-1.0394-.71445-.39435-1.1437-.71739-1.569-1.0395z"/><path d="m390.64 50.439c-.49701-.17081-.95521-.1396-1.2428-.10357.78117-6.2912 7.7557-2.2961 11.517.06214-4.7473-2.2738-10.698-5.1646-10.274.04143z"/><path d="m392.11 121.21c.79877-.53927 1.1787-1.184 1.6424-1.8349.17124.32589.49208.60977.89675.89676-1.1713.3831-1.5809 2.1084-2.2396 2.1174-.10476-.38331-.10801-.7959-.29961-1.1792z"/><path d="m405.14 178.4v.82022c3.5284 5.8746 9.4636 6.0884 11.278 5.8587-5.5414-.10484-9.0122-2.6746-11.278-6.6789z"/><path d="m420.63 149.44c2.3966 1.0475 6.5777 2.591 10.776.76758.62982.25915 1.2596.459 1.8894.56092-1.4265 1.4939-5.4385 1.8531-9.1224 1.358 5.0725-.66423-2.6228-1.2457-3.5427-2.6865z"/><path d="m371.64 153.52c3.9396.26319 7.1444-.98181 9.7488-3.6532-1.4284 3.4872-4.6743 5.1202-9.4983 4.6343 1.7449-.31407 1.7891-.6114-.2505-.98113z"/><path d="m385.51 169.25c.72869 6.9864 9.5977 4.8696 13.195-.41427l-.33141-.95283c-3.3537 4.3463-10.504 8.2099-12.863 1.3671z"/><path d="m396.53 178.6c-.0627.76985-.13023 1.5494-.11718 2.1677-5.128 5.2676-9.5583 6.9356-14.266 5.8294 3.8869.10506 8.3916.5177 14.383-7.9971z"/><path d="m411.41 197.35c.80526.35734 1.4282.0952 2.0798.32223 5.8192 2.0271 13.022-1.4292 10.868-8.4658 3.8082 3.7107-3.1978 14.37-12.948 8.1436z"/><path d="m421.63 187.16c4.4084 4.371-.11957 10.417-6.0052 8.3486 6.2368.84147 8.5436-4.3285 6.0052-8.3486z"/><path d="m397.2 186.89c.13466.61978.28007 1.2324.64446 1.699-6.1877 11.932-14.455 11.589-17.283 10.604 5.3572.55418 3.493-.41329 1.7576-.73234 6.349.20335 11.956-4.1055 14.881-11.571z"/><path d="m456.31 107.57c.18054.68944.38919 1.3508.49713 2.1128 12.369 5.7213 19.782 4.312 23.365 2.0714l-1.9056-.70427c-5.4446 3.6024-18.62-1.2631-21.956-3.4799z"/><path d="m447.05 78.506-.20714 1.6985c4.2202-3.0802 6.4924-8.6745 5.9034-13.402l-1.5121 1.5535-6.5869 5.3441c.35452.31761.74325.63522.99425.95283l5.5927-6.1312c.37021 5.0509-3.0326 8.9728-4.1842 9.984z"/><path d="m346.31 57.646c-2.8684-1.1124-5.4729-2.3881-10.456-2.1911 7.7331 5.6067 11.956 9.1393 17.64 13.535 2.5956.38928 5.1015 1.5421 7.6274 2.524-.32535-.6934-.58045-1.3868-.72114-2.0802.0407.58246.0287 1.1649.38831 1.7474-3.3771-.97152-17.268-10.851-24.075-15.255 2.5648-.80691 6.1907.69573 9.5967 1.7196z"/><path d="m412.28 140.94c1.7403 1.2308 3.6923 1.9758 5.9045 1.9485 1.6513 3.137 6.4677 4.0093 9.1814 3.8674.12238.42828.40992.80152.76758 1.1514-2.267.009-5.1701-.72762-9.6243-3.5427-1.1994-.41513-5.4428-2.388-6.2292-3.4246z"/><path d="m390.64 111.39c.92748 1.4678-1.4268 1.9439-1.4354 4.1304l-.92275-1.1717c-.0386-1.4324 1.8765-1.2026 2.3581-2.9586z"/><path d="m388.08 113.91-1.8016-2.7389c-1.8969-2.4706 4.374-2.962 3.691-7.587.40034.31631.80069.7256 1.201.93739-.22913 3.7244-3.4903 3.6264-3.5445 6.1809-.41634-.15778-.62774-.54609-.73234-1.0546-.16122.12195-.19758.13441-.36617.30758-.79035.97201.37401 1.5228 1.5526 3.9546z"/><path d="m391.49 104.74c3.1713 1.6129 6.6309.54013 8.5244-1.1278.32222.40945.64445.64712.96668.86416-2.3648 2.0745-8.4478 1.8148-9.4911.26364z"/><path d="m418.65 114.51c-.022.0428-.0692.0677 0 .17576.73932.36523 1.6536.58468 2.7243.67375l2.5485 15.028c-.19408-3.9103-.46653-7.9512-.55658-11.688-.28498-.71781-.49437-2.0404-.70304-3.3688.32223-.0346.64445-.0861.96668-.17575 1.6141 9.4981 5.5617 11.41 6.3274 12.157-2.0884-2.1964-4.909-5.2853-5.8294-12.362 1.399-.7801 2.0365-1.7273 2.49-1.8748.1404-.40107.0511-1.3595-.14647-1.8162-1.4055 1.3434-2.6747 2.9239-5.5072 2.695-.18998-.0153 0 .26364 0 .26364 1.0958 1.4669-1.1197.56768-2.3142.29294z"/><path d="m440.13 120.04c.73188.44189 1.5742.80093 2.5271 1.0771 2.9298 9.7974 4.0359 29.112.18643 36.104l-.33142-2.6513c-6.7375-5.1497-8.4166-19.498-9.7768-27.528l.20714-.39356c1.2995 7.3354 2.8323 21.459 9.4247 27.197 1.1876-3.7561 3.7529-14.588-.84925-32.645-.33962-.38665-.89449-.77331-1.3878-1.16z"/><path d="m401.2 112.05-.13182.17577c1.9099.69417 5.8695 1.0428 8.6855-.86416l-.49798-.89345c-1.9676 1.6825-4.4902 2.4716-8.0557 1.5818z"/><path d="m400.09 111.41c.34926.27413.68567.49683.99598.61516-2.6212 2.3982-6.4067 1.7453-10.223-.26364.0391-.11717.009-.23435-.0293-.35152 4.4089 2.3882 7.4883 1.7123 9.2567 0z"/><path d="m396.15 108.17-.20714.16571c3.0392 1.7409 7.2832 1.7286 9.5697.16571-.32367-.18727-.60089-.42099-.86997-.66284-2.7206 1.9997-6.8169 1.355-8.4926.33142z"/><path d="m405.59 108.5-.15535.19678c2.1598.83884 4.8275.75584 6.7008-.23821-.12799-.3554-.27046-.69993-.50749-.97354-2.0297 1.5994-4.0356 1.4627-6.038 1.015z"/><path d="m432.76 112.58.37284-.26928c.91148 2.054 2.1419 3.8689 3.9356 5.2613l4.8263 32.479-6.9805-32.562c-.034 5.6083-1.5845 9.3296-4.1013 11.848l-.26928-2.1335c2.644-3.597 4.234-7.9008 2.2164-14.624z"/><path d="m450.47 66.679c.78712-.03305 1.5742-.05503 2.3614.02071l9.259-10.626-11.62 10.605z"/><path d="m426.78 80.254c.93065-1.0656 2.9145-1.4029 4.5145-1.1277.36294.88468.94656 2.1356 1.6002 3.0929l-6.1146-1.9653z"/><path d="m442.64 76.556-3.661 3.2653 2.377 1.2441c1.9155-1.6429 1.3874-4.5327 1.284-4.5094z"/><path d="m432.28 72.684c1.4767 3.0443 3.0557 6.6279 4.1698 10.035.63708-.93154 1.2598-1.8658 2.5343-2.939-.69852-3.1974-2.2937-6.5809-6.7041-7.0958z"/><path d="m438.98 79.768c-.58712.12123-2.6302 2.9408-2.4967 2.9158l9.1399 4.661c.0347-1.5818-1.4199-5.464-6.6431-7.5768z"/><path d="m436.45 82.658-6.5872 8.5073c4.2145-.18252 5.9052-2.0555 7.3801-4.3831l-.79298-4.1242z"/><path d="m448.53 87.882c-.0606.28317-.21255.56634-.32222.84951l4.4526-1.2889c6.663-4.7772 6.979-7.167 7.8214-9.7547l10.165-6.3274-11.542 5.7415c-6.2684.06081-7.8708.92963-9.784 1.4354 5.3129-1.1513 8.8068-1.3484 10.751-.73234l-1.2303.76163c-1.603 5.2907-7.5817 8.3723-10.311 9.3153z"/><path d="m395.78 139.22c-.0324 10.37 1.6755 12.332-5.3856 20.962 3.2894-2.7417 6.9685-11.136 6.5041-6.3384.83309-1.5389 1.6392-3.0688 1.8228-4.3913-2.7234-4.6558-2.604-7.352-2.9413-10.233z"/><path d="m364.52 148.79c4.1396 1.1037 6.8801-6.8835 8.4563-12.261-.72353-1.4405-1.7566-2.9342-1.8273-9.4694l-.35302.35302c-.43806 8.3761-.5158 17.623-6.2759 21.377z"/><path d="m370.03 94.094-5.7488-8.8825c.8982-.01997 1.9464.0036 3.1954-.29494 1.6918 1.5856 3.5742 5.7075 2.5534 9.1774z"/><path d="m380.49 151.72-.46538.49131c-.57226 2.5856-1.927 4.6508-3.4961 6.6272 1.4348.23299 3.1965-.57782 4.9009-1.3152-1.059-1.978-1.286-3.2953-.93939-5.8034z"/><path d="m371.15 149.53c-.37584.5882-.67528.87073-.97424 1.1514 6.2157.80892 9.6815-2.1608 12.016-4.7531 3.444.19621 5.82-2.0386 7.8825-4.3103-2.3211 1.8379-4.7 3.3517-7.4101 3.0113-2.662 3.8715-6.4118 5.6728-11.514 4.9007z"/><path d="m373.58 144.81c-.46381.96903-.61145.95307-.85615 1.2695 2.1064.43778 4.9924-.38059 9.9195-4.4874 4.8703-.11403 6.9091-3.3079 8.2958-4.6941-2.5888 2.2362-5.215 3.4221-7.8825 3.4541-2.5836 2.6365-5.4131 4.7812-9.4767 4.4579z"/><path d="m375.2 140.91-.88567 1.3875c1.6953-.0947 3.9273-.0251 8.6796-4.3988 3.658-.77194 6.9307-3.5088 9.8014-8.2958-2.3855 2.9419-4.5654 6.0959-9.3881 6.5244-1.2295 2.818-4.4816 3.9927-8.2072 4.7826z"/><path d="m415.26 146.7c-.32953 2.5243-.8937 4.8139-2.0075 6.554.11907.82662.0947 1.6532.059 2.4799 1.7044-1.7364 2.9586-6.6787 1.9485-9.0338z"/><path d="m417.74 147.91c1.8338 4.7624.18993 11.098-5.6683 12.193 1.8113.75163 7.2414-1.7262 8.0006-9.0929l4.4579 5.0188c.24051-1.1541.39975-2.3194-.44283-4.015-3.5268-.74205-4.6549-2.1288-6.3473-4.1036z"/><path d="m411.36 136.24c1.7345 1.4347 3.6486 2.196 5.6978 2.4504 2.1042 2.238 4.5778 3.3908 7.8234 3.8084l.67902 1.1809c-1.0191.10244-5.9563-2.1072-7.7644-3.7788-3.0302-.7529-5.3039-2.2566-6.4359-3.6608z"/><path d="m411.75 132.47c2.005 1.9666 4.293 2.7667 6.1406 2.7751 1.3859 1.4532 2.6678 2.9533 5.5797 3.7198.1409.39722.31187.73427.5314.97424-2.1929-.0376-5.2049-3.0796-5.5797-3.5722-2.9419-.42155-6.284-1.9056-6.672-3.897z"/><path d="m406.26 123.6.20714.20714c-2.9041 6.3322.0138 20.852-6.2555 28.171l-.12429-2.8171c4.7503-3.1347 3.5607-19.138 6.1727-25.561z"/><path d="m401.5 150.65-1.3257 1.5742.37284 13.712c.16897-5.6901.45315-10.919.95283-15.287z"/><path d="m398.08 164.51c.30978 1.5046.75005 3.6988 2.4442 5.8205l.12428 2.6514c.77711-1.0193 3.7771-9.5156 3.832-12.304.11192-.88373.16118-1.9098.80783-1.2428.0829.0615.16571.0625.24856-.0414-.90906-.62122-1.8669-3.6891-2.5892-4.702.53901 3.3177.96003 8.0163-2.4235 15.017-1.021-1.2175-1.7497-3.1654-2.4442-5.1991z"/><path d="m402.82 168.09c-.10357.29023-.20714.5646-.3107.74569 3.7597 13.945-.66544 21.381-1.6571 22.474-2.6055-4.6235-2.5755-9.1769-3.1485-13.07.33567 3.4916-.0464 8.0309 2.9828 13.692l.0414 2.2992c3.6916-4.601 5.9344-10.988 3.0656-24.836-.41431-.34519-.65737-.86163-.97354-1.305z"/><path d="m406.1 193.57c-.79717-1.7805-1.7401-3.3114-1.1392-5.282-.11514-.60741-.36727-.70025-.64212-.82854-.16797 1.0519-.5404 1.7984-.86997 2.527 1.4118 8.4739-.59286 13.033-2.9206 16.861-3.8157-5.1372-3.1065-10.674-3.1692-15.411-1.1119 9.6171 1.2112 13.847 3.1278 16.032l.0207 2.3406c5.4349-7.9856 4.8992-15.401 3.687-18.932.60098.92041 1.1496 1.8758 1.9056 2.6928z"/><path d="m415.04 185.96c4.4457.81143 11.968-2.6773 7.9385-10.458 4.0758 4.7327-.48245 13.234-7.9385 10.458z"/><path d="m441.82 106.72c-.0797.12531-.1593.2508-.29294.32222 3.8071 5.8966 3.9 9.4895 3.398 12.713l1.5526 2.0212c.77336-4.5104-.0621-7.8378-1.1424-10.985l18.953 27.536-16.756-26.804 3.5445.498c-2.9545-.99125-5.9447-1.3307-9.2567-5.3021z"/><path d="m453.24 112.08c.72367.006 1.3741-.0367 1.8642-.18642 3.7549 6.1188 13.435 17.235 12.304 32.355l-1.1807-2.2992c-8.9813-2.0746-15.228-13.36-18.414-17.938 5.2588 6.9327 11.217 15.977 18.187 17.399.57644-11.287-7.9378-22.36-12.76-29.33z"/><path d="m446.49 97.791c-.00055.16571-.0648.33142-.12428.49713 5.2508 2.7698 8.9268 7.9134 8.7826 11.455l1.7814 1.4707c-.6859-5.9204-2.8093-8.135-4.9506-10.336l25.126 9.839-24.401-11.434c3.2542-.73901 6.6471-.92405 9.4454-4.3084l5.7584-.20714c4.9113-.75363 10.494-3.5965 11.061-6.2555l-1.8435.20714c-2.3578 5.2116-11.649 5.0324-16.467 5.2198-2.2324 4.1878-9.3356 4.4991-14.168 3.8527z"/><path d="m452.81 87.413c2.7086 1.2344 5.1762 2.6184 7.1669 4.1841l-1.7607-1.6157c5.6968-.46943 11.491-.9239 17.897-1.2842l-20.258-.12428-3.0449-1.16z"/><path d="m443.65 60.651-1.1392 1.3257c.48723 2.6109.4688 6.1261-3.397 10.398l.12428.22785.26927-.08285c3.0619-3.8147 6.2837-4.8045 9.5076-5.7584-1.8769.46724-3.7492.77417-5.862 1.8642 1.4413-4.3737.79947-6.6139.49712-7.9747z"/><path d="m442.24 61.894c-3.6853.53662-8.7373 4.6143-9.5026 6.3173-.077.17133.0424.4147-1.2685 1.1188l.0621.22785c1.2653-.5377 4.6895-.02241 1.4707.78712 2.1112-.05698 3.948.77773 5.1784 3.5835 6.815-1.0381 8.503 3.9431 6.7941 7.2498 4.4921 3.8945 1.651 8.9107-.80783 9.839 1.4981 3.3322 2.29 7.76-2.2992 9.4661-.0129 2.9722-.4232 7.6002-7.4569 7.5398-.84162 2.002-3.3399 5.4231-7.5812 3.6042 0 0-.004.12288-.0414.24855-.0689.23417 1.7536.69105 1.7814.57999 1.4455.16632 1.6141 1.1111-.14499.70426-.63795-.18924-1.203-.34285-1.6571-.55926.01.15189.0155.30379-.0829.45569 4.5802 1.5825 7.2209-1.1847 8.6583-3.5627 5.4606-.28604 7.7204-3.2962 7.9954-7.9954 4.4722-2.8024 3.8426-7.0272 2.4649-9.9425 3.9849-2.9801 3.6995-8.2122.68355-10.647 2.0483-6.8728-4.0803-8.7258-7.3119-8.244-1.087-1.8318-1.7982-2.0977-2.5685-2.6099l5.7791-7.8505-7.0219 7.229c-.69985-.2401-1.6132-.34678-2.7549-.3107 1.4879-3.7409 7.3296-6.5748 9.6318-7.229z"/><path d="m382.63 61.273c5.8902 3.1496 12.677-4.0464 17.438-.13659.51504.02977.5836-.35404.50083-.68295-5.5366-4.9634-11.434 2.3452-17.939.81954z"/><path d="m401.62 63.8.43499.43499c.6076-.02516 1.2152-.01893 1.8228-.57998.009.52922-.19041.76636-.45571.9114.34112 3.0605.004 4.8454-.42044 6.2106.53039-.53837.96334.23407 1.4415.19845.76243-1.2009 2.067-5.376-.0268-8.9983.0588 1.0404-1.064 2.1115-2.7963 1.8228z"/><path d="m394.44 62.47c3.3423-1.3607 5.2523 1.033 6.7522 1.2596 2.3847 3.5085-.0862 6.5631-1.6844 8.4365 1.0621-1.818 2.6172-9.118-5.0678-9.6961z"/><path d="m409.04 50.738c.94896.0675 3.2167 1.6593 5.3314-.02929 1.453 1.9754-1.2536 3.6476-4.0993 2.1695-.74287-.4765 1.6132-.69715-1.2321-2.1402z"/><path d="m401.37 48.699c8.7809 2.3401 7.9542-1.7341 9.5283-2.3199 1.5587 2.4926-2.7222 5.7262-9.5283 2.3199z"/><path d="m391.33 50.646.86997.33142c.0853-.62569.32385-1.3453.64212-1.4085 2.0236-.40205.12645.66183.4557.99425.38157.26928.80645.53855 1.2428.80783.0207-.30401.0414-.66262.0621-1.0771.0347-1.6293 4.7115.9941 7.9954 2.0714.36241.97129-1.8221 2.1905-3.542 1.8435 1.5629 1.236 4.859.63568 6.2762-1.3878 2.5247.19168 3.0814-.22133 3.6456-.84926-1.9297-.40028-2.8206.54914-7.6565-.7869-4.4423-1.2739-9.8676-5.0611-9.9915-.53877z"/><path d="m389.23 115.73 1.1375 1.6474-.3138-.19612c-3.2397 1.5486-4.9119.9421-6.5113.23535l-.1569-.11767c-3.3282.65845-5.4467-.21527-7.2173-1.5298.12544.99058.81982 1.7536 1.7259 2.4319l-3.491 15.298 1.6867-14.356c-2.002 5.6072-4.6231 8.229-8.2372 9.8062l.27457-1.569c3.3022-1.6886 6.1253-4.8875 7.4527-11.807-1.3162.17467-2.6336.33698-4.0009 0l-3.2949 11.336 1.569-11.728c-1.4316-.94807-2.6306-2.1286-3.8048-3.3341v-.19612c.35343.50294.71822-1.0232.66682-1.4905 2.4624 4.0115 5.972 4.7621 9.3747 3.6087-.013.37914.006.71603-.1569 1.2944l.1569-.0392c.14242-.008.20093-.36345.29418-.66682-.1009-.0691-.12603-.23352-.17651-.35302l.0392-.11768c1.8823 3.3888 6.5578 1.8014 7.1389 2.0789-.0719.18086.0407.66929.11767 1.0983l.0784.11767c.0915-.19612.1046-.47069.0392-.82371l-.1569-.3138.13728.0784c1.5975 1.1858 3.7828 1.1075 5.6287-.39224z"/><path d="m364.26 115.84-.80434 1.2759-8.7923 35.696 9.3193-29.733c.46251 1.7321 1.0444 3.5305 3.467 6.3515-3.4206 12.133-8.8464 22.968-13.507 25.822l.44378-1.47c-1.9856-6.0113-.39563-18.641 2.9955-31.342-2.165 6.9617-6.6296 22.189-3.7998 33.283l-.88756 2.7459c9.2261-6.3024 14.653-22.095 16.697-30.149-.50051.40301-1.0628.62071-1.6364.80435-2.8963-2.5933-4.2936-6.7755-3.4947-13.286z"/><path d="m358.72 105.84c.23091 1.0939 1.5188 2.3824 2.1574 3.491.34251.5731.7262.79619 1.216.11768l.39225-.6276c.96295 1.0819 2.2742 1.6546 4.197 1.3336l-2.3142 5.3345c-2.6842 5.2027-6.2584 6.326-9.8062 7.5704l1.0983-2.0397c4.6186-.44075 7.9198-4.9957 9.6493-9.2178-1.1531-.25839-2.2643-.71007-3.5647-1.5575l-5.457 9.4809 3.6087-9.5708c.72696-1.5051-1.1827-2.6848-1.1767-4.3147z"/><path d="m353.89 113.78c-.30968 2.2271-.19495 3.9767-.0981 5.7464-7.1998 12.752-19.224 24.523-26.163 25.006 8.8517-11.857 17.703-24.11 26.555-36.165.56876-.24244 1.1375-.63347 1.7063-1.0198-.92887 1.3699-1.3579 2.4898-1.5494 3.491l-24.339 31.203c8.1339-.67402 21.463-19.946 23.456-25.143.0144-1.557.21076-2.3864.43147-3.1184z"/><path d="m352.72 98.35c-1.6494.68451-8.0264 2.9929-8.6686 10.159l-1.3729.76488c8.6723 2.8875 15.28-3.6633 16.592-4.8835-1.3527-.86646-2.7318-1.5738-3.8832-3.6479l-1.1375.54915c-2.7998 2.3267-6.1765 4.5723-9.4335 6.7466l10.1-5.1384c.58568.65634 1.2573 1.3342 2.6673 2.1966-6.1201 4.2042-10.904 3.9948-13.238 3.3929.33804-4.1432 2.8108-7.6685 8.3745-10.14z"/><path d="m322.82 110.51c15.005-5.5564 22.28-10.033 30.288-12.731v.27736c-.64033.40604-5.8994 1.6393-7.9602 4.6319l-22.327 7.8216z"/><path d="m350.5 98.612c-1.039.43579-2.0482.78239-3.1342 1.3591-4.9005-.71212-5.6978-1.9355-7.7938-2.94l.41604-.16642c.77662.56396 1.737 1.0054 2.6626 1.47 1.4363.48474 1.7868-.09498.36057-.61019-1.7207-.54751-2.7972-1.2855-3.7444-1.997 1.6888-3.2713 5.6656-4.8284 6.1851-5.0757-2.2041 1.433-4.747 2.7021-5.4085 4.8815 3.4225-.50695 7.051-1.1066 11.51-2.0802.33554.59242.66262 1.1778 1.3036 2.0247l-.11094.13868-.66567-.80434-11.954.91529c3.3164 2.2687 6.8548 2.485 10.373 2.8845z"/><path d="m321.9 87.406c7.1278 1.0033 14.081 1.8755 21.397 3.0203.98924-.86926 2.7638-1.4382 5.5307-1.6278-.93886-.02491-1.7164-.12318-3.1968.09806-8.1556.11652-15.858-.89988-23.731-1.4905z"/><path d="m352.46 86.327c-.66791.69842-1.0228 1.7099-1.2748 2.8242-7.8373-2.5564-9.1132-7.4658-9.3747-7.9626 4.7092-3.2703 7.5473-2.0523 11.454-2.1377-8.3019-.38623-10.485 1.7869-10.846 2.2162 3.1168.85384 5.3206 1.6443 12.003 2.7457-.63862.4536-1.0408.8734-1.314 1.2748-2.5814-1.0538-7.3503-2.5165-10.748-3.844.53611 2.264 4.0402 5.6723 6.982 6.5505.82191.21775 1.7198.62535 2.0397-.41186.12474-.42741.77481-1.0967 1.0787-1.2552z"/><path d="m327.61 71.148c6.6896 2.338 13.039 4.6499 18.377 6.8839 1.6649-.40419 3.2901-.29073 4.9031-.01961-.37084-.36494-.75697-.68399-1.0787-1.1964l-.13729.05884.66682.88255c-9.0726-3.0934-15.774-4.7756-22.731-6.6093z"/><path d="m355.3 77.227c-.34513.3812-.63852.84001-1.0787 1.0787-.2236.14393-.4301.11697-.6276 0-4.0481-2.5956-4.8611-7.0976-4.7658-8.0214 3.1141-.52886 7.4678-.45724 13.454 3.2556-1.3113-.27876-5.7395-3.5378-12.826-2.9418-.1312 2.446 1.7332 7.1259 5.8445 6.629z"/><path d="m350.01 71.01 7.1781 5.2365c.92832.04795 1.8566.02274 2.785.4707.0512-.18469.1386-.42363.29419-.76488-3.9588-1.6474-6.8584-3.2949-10.257-4.9423z"/><path d="m345.48 49.686-.16642.13868c5.2652 3.8882 9.0778 7.5949 13.23 11.344 1.1754.98586 1.0079 2.0486 1.1372 3.1064.42826-.49982-.13162-2.2031.78123-2.381.85986-.16469 4.1543 1.5414 4.3499 1.2716-7.7681-3.4435-12.937-8.9446-19.332-13.48z"/><path d="m366.82 73.128c1.3983-.58584 5.149-.52079 5.3149 5.2561l-1.2356.92178c.0254-1.5821.27647-5.151-4.0794-6.1779z"/><path d="m370.9 79.404 1.2944-.94139c6.1897 2.3551 3.1538 9.0443-1.1571 7.9822 5.149-.52634 4.0382-7.0896-.13728-7.0408z"/><path d="m410.06 99.014c-2.1366 8.464 7.2832 7.6429.67375-1.0399 6.4255 3.9338 2.2128 9.8155 1.8894 11.132-1.008-4.5402-4.9838-5.6858-2.5632-10.092z"/><path d="m394.71 120.3c1.7525.65843 3.5428.57339 5.7562-.98133.19605.20299.47556.44772.74698.68839-2.1137 1.5068-5.5744 1.1193-6.5032.29294z"/><path d="m402.2 120.28c1.2442.21012 2.4636.49247 4.0864-.39546.23435.31147.4687.55661.70304.79092-.53008.5316-3.1902.4546-4.7895-.39546z"/><path d="m407.34 116.96c.40019.24568 1.1191.96505 1.8162 1.3768-.51752.72708-1.035 1.5529-1.5526 2.4753-2.3087-2.0029-.689-4.1132-.26365-3.8521z"/><path d="m390.5 117.53c.33018.4614.56189.7915.77628 1.0985 1.4113-.97974 1.8871-2.0343 2.3435-3.0905-.20676-.11842-.40331-.28785-.57122-.60052-1.1127 1.9695-1.8134 2.2087-2.5485 2.5925z"/><path d="m393.72 115.59-.16111.30759c2.7868 1.5986 7.3117 2.7972 13.065-.11718l-.57122-1.1717c-3.7271 2.9176-7.9415 3.4094-12.333.98133z"/><path d="m407.09 115.58c1.6418-.30983 1.072-2.3528 2.5925-2.9733 2.4907 3.7466 6.7475 2.7736 8.4805-.0732l.27829 2.1091c-1.6426 1.0439-3.8228 2.8572-7.4552 1.1717-.28611.60635-.35083 1.5606-.36617 2.5925-1.5919-.52697-2.8729-1.3649-3.5299-2.8268z"/><path d="m412.13 108.62c.632 1.2198.041 3.998.0732 4.9067-1.2122-.16621-1.8839-1.155-2.5339-1.9773.12779-.0236.21357-.0598.26364-.16112.14973-.76227 1.5662-1.1139 2.197-2.7682z"/><path d="m389.8 108.89c1.8316.26193 3.6328-.002 5.3545-1.6364.29572.28597.52703.58804.92175.84926-2.1952 1.3366-5.1363 1.5184-6.2762.78712z"/><path d="m401.1 104.52-.16111.14647c2.8573 1.9524 7.2205.77359 8.3779.0147-.14647-.45893-.29294-.85927-.43941-1.201-2.0071 1.7167-4.9944 2.2794-7.7774 1.0399z"/><path d="m383.47 100.48.41011.23434c.43568-.62391.7945-.77424.97432-.52698s-.15078.70569.31459 1.1129c1.477-1.1746 4.8634-1.9528 5.2728-3.691.62237 1.741 2.7326 1.7907 4.4526 4.8041-.40669-2.2886-2.7538-2.9142-3.7159-4.4528-.96203-1.5386-.39252-3.4628.3764-5.9464-1.5959 2.1623-.33879 5.2325-2.9428 6.6066-1.6528.87219-4.8056.67997-5.1422 1.8592z"/><path d="m397.15 89.611.0879 2.0505c-2.7078 1.059-.5972 7.8353-1.6697 9.3153-.4282-5.7819-2.8088-7.863 1.5818-11.366z"/><path d="m399.34 94.532h.32223c.35167 3.7886 4.3253 4.1495 5.0092 7.88-.84494-2.5859-3.1014-3.3402-4.3061-4.7163-.69324 2.8945-4.1883 3.7548-5.0678 5.39-.24104-1.3466 4.8214-3.2326 4.0425-8.5537z"/><path d="m405.35 90.9c-2.0822 3.2951 2.0627 5.416-.17576 10.897 1.1647-7.1687-3.8407-6.5834-.67375-11.776 1.0982 1.0669 4.8608 2.1491 5.2142 3.9546-1.2652-1.7842-3.2134-1.92-4.3647-3.0758z"/><path d="m409.68 94.444c.39187 1.2674.7408 1.7713 1.0546 2.6071-1.1414 3.7257-5.6449 5.0233-5.888 6.386-.77872-1.741 4.8611-2.7117 4.8334-8.9931z"/><path d="m413.96 90.636c-.70891-.15041-1.3867-.02067-2.1677-.82021.133 1.2053-.0656 1.9132-.23435 2.6657 1.4756.84992 2.4498 8.7577 3.0465 9.1103-.30417-3.4011-.16707-7.8777-2.2263-10.311l.0879-.4101c.62394.22523 1.104.16428 1.494-.23435z"/><path d="m386.34 96.817c1.4118-2.1159 2.6368-4.5797 4.4489-5.8465s2.9517-.78008 6.5948-3.7618l1.3768-3.6031c-3.0744 4.5162-6.7025 7.6086-11.952 6.5324.31268.17667.48652.60928 2.6364.73234-1.1129 1.0783-2.0691 3.4062-3.1051 5.9466z"/><path d="m367.48 75.829-3.1832 9.3786c.8861-.01634 1.6438.04479 3.1832-.27383 1.4377-2.9531 1.7347-7.1355 0-9.1048z"/><path d="m369.11 87.236c2.0145-.72253 2.4028-1.9373 2.4301-2.6674l-4.0476.35986c.57475.72348 1.1625 1.4728 1.6175 2.3075z"/><path d="m362.39 80.504c-.81347-.53999-3.4538-.72928-4.006-.25084l3.38 3.1237c.13633-.91388.3266-1.9706.62599-2.8729z"/><path d="m354.76 90.135 9.4796-4.8848c.21458-.0914-1.1358 3.7435-1.5771 4.8687-1.1265.57944-5.8266 1.7011-7.9025.01606z"/></g><g fill="#cecad5"><path d="m385.44 146.36c-1.367 6.9448.88648 9.6575 3.1522 10.312-.86733-7.5051 2.1302-12.868 6.2835-16.972-.27785-6.9948-1.2589-10.134-2.0249-15.176.0552 2.336 1.7102 8.7321.58652 13.204-1.1682 4.6489-4.4973 9.1629-7.9973 8.6317z"/><path d="m399.39 123.85c1.7221-.16131 3.4248-.25843 5.4684-1.4914l.74568.86998c-1.4657 3.1985-2.2912 10.751-3.2313 17.524.26956-4.3109.35758-8.1594.12428-9.2383-.47177-2.4338-.37721-3.9145-.33142-4.3084.92981-3.381-1.6217-2.5545-2.7756-3.3556z"/><path d="m397.44 93.917c3.6395 1.7056 5.3335-2.435 7.0597-4.0425-.86016-1.9696-.61204-3.5866-.67375-5.3021-3.1622 1.7193-3.0737 7.9569-6.386 9.3446z"/><path d="m409.87 64.623c-.29856.13731-.32477 1.3098-.73234 1.2889-.25359 8.3755-7.8751 13.032-9.6668 25.134 1.1121-1.2966 1.912-6.4025 4.7734-11.095 2.9865-4.8979 5.9201-7.6467 5.6257-15.327z"/><path d="m410.49 53.36c1.0342 1.8962 2.6975 4.8831.24856 4.2877 4.2916 9.5266-.41613 14.423-2.7783 19.721-4.9805 12.976 3.2636 7.8303 2.3019 16.88 2.8036-3.2727-.84519-8.0224-.68743-9.6589-.20185-2.3769 1.2974-7.5126 1.7852-10.62.59799 1.7134 1.5158 2.7518 2.6099 3.4177-1.9264-6.7457 4.0914-20.042-3.4799-24.028z"/><path d="m411.48 75.689c.48431.67137.82686 1.4373 1.6157 1.9057.40458 2.6404-3.3018 11.011 2.2785 11.641-4.5403 2.2645-7.0138-4.2334-3.8942-13.547z"/><path d="m424.1 132 .11717 2.2849c1.4136-.91223 2.7396-1.1923 4.6284-5.5365.77129 7.7003.87008 15.187 5.3607 16.727-2.3205-5.2912-2.3248-11.102-2.49-16.697-.27341.35232-.54681.60589-.82022.84951-1.8471-1.0692-2.4138-1.9245-3.398-2.9001-.61853 1.9192-.92755 3.9357-3.398 5.2728z"/><path d="m356.52 122.43c-.64612.26912-1.3197.51077-2.0397.70604-5.9355 13.305-9.265 25.18-19.848 28.892 9.6057 1.8222 16.062-13.567 18.396-18.184 1.7149-4.1906 2.738-8.0912 3.491-11.414z"/><path d="m342.96 106.88c-.18974.8739-.41155 1.7799-.3883 2.4408-2.7616 1.088-5.8092 1.9535-9.2361 2.524-.19408.0548-1.0979.40173-1.4423-.24962-.39407-.25431-.83571-.31833-1.3036-.27736-.0801-.21358-.51362-.11913-.56859-.31897 8.3918-1.4534 12.221-3.4629 12.939-4.1188z"/></g><g fill="#dfdde2"><path d="m405.97 80.453c-3.0374 8.1838 2.9807 8.25 3.5006 10.916-6.2371-2.0951-6.6742-6.6413-3.5006-10.916z"/><path d="m403.61 165.92-.39356 1.16c1.4065 3.1184 3.0627 4.2028 5.2198 4.992-4.2364-2.0866-4.5241-4.1192-4.8263-6.1519z"/><path d="m399.55 171.26 1.1185 1.9264.84926-1.8849c-.15908 5.0832-.48977 11.223-.64212 16.882-.46668-5.6757-1.1052-11.592-1.3257-16.923z"/><path d="m397.87 171.82c-3.2537 6.7514-7.1726 11.559-12.573 12.035 3.6796.29358 7.6194-2.6949 8.8447-3.9977.88484-1.536 2.031-2.0824.9114-.0207-.43406.72364-.86633 1.2524-1.5535 1.9057.87007-.35265 2.672-3.1342 3.0449-3.3763.1534-2.9237.81466-4.5414 1.3257-6.5455z"/><path d="m420.52 174.12c4.6795 3.2458 3.3874 8.2942-1.6404 10.399 3.8684-2.546 5.7689-5.8434 1.6404-10.399z"/><path d="m472.01 70.697 2.0092-.86997c.21453.40668-1.239 3.1381-3.8136 5.9945-3.3618 3.7264-5.3385 5.3407-11.742 6.4958.12502-.17089.23917-.34177.3366-.51266 4.9514-1.3476 11.764-6.1773 13.21-11.108z"/><path d="m362.01 70.488c-.74547-1.1986-1.8949-4.8948-1.1372-7.3778 9.9976 2.1602 11.676 10.025 11.843 11.594-1.4737-5.7016-6.9118-10.876-10.651-10.207 2.2881 2.1035 5.0795 6.4178 6.8231 8.2653-.82628.04176-1.6535.08291-2.1912.3051-1.4019-.1562-2.0491.12456-2.7736.36057-.77193-.89369-1.0518-1.5687-1.5255-2.3298 1.0108 1.4266 2.4728 1.2094 3.994.77661-1.5347-2.7981-3.0694-4.8119-4.6042-7.1836-.75915.57153-.0414 3.5553.22189 5.7968z"/><path d="m382.14 148.28c.81839 1.6242 2.3786-1.0361 3.1313-1.7535-.98524 3.5162-2.946 7.0718 1.336 10.375-2.1925.22222-2.8044 1.1724-.77239 3.3401-3.9674-1.9529-6.2072-5.1905-3.695-11.962z"/><path d="m394.25 123.56c.63546-.24387.92866-.60184 1.2428-.95282.52957.72673 1.286.88629 2.0299 1.0771-1.415-.0495-1.5939.61657-.9114 1.7814.28995.46496.78668 7.4346.9114 11.641.0156 3.8968.5385 6.4273 1.3257 8.1197-3.0797-2.5941-1.3716-18.286-4.5984-21.666z"/><path d="m396.69 155.08c-1.282 2.8988-.85854 8.4661-4.4741 12.097 2.9987-1.5365 4.1377-5.2618 4.2256-8.1612l.28999 3.0656c-.99511 6.2839-3.8483 7.9949-5.8412 8.3683.31611-.0875 3.4442.57291 6.3176-5.7998.0944 2.3151-1.5316 4.8925-3.6456 5.7584 1.8482.0616 3.6804-1.6363 4.6191-2.9413-1.5172-4.4807-1.5452-8.4478-1.4914-12.387z"/><path d="m366.5 112.31.24962.24963c-.31042 1.5822-2.447 7.3258.19416 12.925-1.4774-2.1802-2.7111-5.6313-.44378-13.175z"/><path d="m357.85 106.21c-1.0799 1.2945-4.7517 6.4286-2.4408 15.005l.19415-.24963c-1.6539-5.6874.0678-12.026 2.2466-14.756z"/><path d="m329.1 142.5.56875-.70604c-.70089-12.04 12.938-26.355 16.612-30.85-.60951 1.303-17.995 16.575-17.18 31.556z"/><path d="m333.55 100.69c-2.2116 1.0771-11.422 5.9723-13.008 10.651 4.4862 1.3591 7.8563.17145 9.8879-.0208-.0928-.12842-.47025-.10317-.51312-.31203-3.3493.48366-7.3475.70895-8.4595.0555l.83208-.41604c.25898-3.97 9.7538-8.9402 11.261-9.9572z"/><path d="m405.17 183.09c-.0389.44052-.0623.71298-.17577 1.4354 3.8059 7.596 5.9313 8.0962 8.4072 10.077-4.6118-3.4465-6.9692-7.3648-8.2315-11.512z"/><path d="m377.07 158.95c.45544-.0538.89515-.1181 1.2678-.22707-1.7928 2.1561-4.7792 5.9166-7.7795 9.0846-3.0085 3.1767-5.7462 6.3099-4.7066 9.1513-2.0857-2.0734-.23375-4.0973 2.5889-7.4351 3.0629-3.6219 6.5181-7.797 8.6293-10.574zm-3.7743 22.998c0 1.4774-1.2282 2.8429-4.1881 2.7043 3.3361-3.6612-3.4082-3.887-1.8028-5.3808 4.4746-2.805 6.3238 1.5319 5.991 2.6765zm-3.1864 3.2199c.9666.20308 1.5747-.99905 1.7878-.38688.41651 1.2103-1.7682 1.433-1.7878.38688zm-22.579-12.674c-.6796-.0269-.48622 2.7246-4.521 2.6141-.0722-.0186-.4509.002-.66393.38137-.49031.92052 1.1567 2.7974 2.6574 2.6869 1.3094-.0964 2.4036-.84676 3.0822-1.7803.30761-.17273 2.4494-1.3603 2.2726-.84768-2.5134 1.2268-1.8863 2.0034 2.0993 2.2934 2.5134-.37268 4.6463-2.5486 5.5489-3.0007-2.5683.44497-8.0382-1.2646-9.3072-1.2741-.17996-.46714-.5478-.85019-1.1354-1.0696-.0113-.002-.0222-.003-.0329-.003zm-4.5097 14.056c-.0658.23003-.20142.39196-.37528.51396.71176.45328 2.6253.33191 2.8375.17607-.21096-.005-1.7838-.1-2.4622-.69003zm18.792-11.411c-3.4188 1.6691-5.7699 7.6984-14.256 6.9063-.21169.74115-.68282.89028-1.1198 1.1164-1.7697-.0239-3.81.39889-3.7894 1.5047.025 1.3394 2.0862 2.1773 3.467 2.0109 1.3978-.16847 2.8556-1.5022 2.8568-2.8412v-.002c.0458-.10894.11724-.19558.26349-.19415 9.3926-2.0293 10.834-6.8527 12.578-8.5011zm1.4977.16642c-.37241 2.2805-7.7724 9.0836-8.1162 11.311-.39291-.30428-.95963-.52279-2.1426-.46112.68796 3.4064-2.1569 4.4498-2.9158 3.8657-.005 1.5394 2.2364 2.179 3.6889 1.8999 1.7074-.32802 3.1364-2.9408 2.1461-4.5314.22567-2.8173 3.9306-3.6379 5.4813-7.2582 1.3669-.0141 1.5745-2.1305 3.2728-2.524-.35685-1.0978-1.7475.33078-1.4145-2.3021zm-21.857-.004c.21768 1.3483.82142 1.916 1.8233 2.7496-.80643-.28896-1.6031-.51443-2.485-1.294.8095.2455.19461-1.6672.66168-1.4557zm17.73-3.64c1.5672.36286 3.6249.50635 6.4232.34299-4.0703 1.4301-5.8956.94409-6.4232-.34299zm5.1301-2.5602c.007.21808-.32911.638-.64003.90756 1.9636-.0375 3.8784-.44314 5.2696-1.9956-1.2926.5886-2.7577 1.0786-4.6295 1.088zm2.7743-4.4867c-.14269.26236-.65403.81696-1.0388 1.2194 1.6207.18081 4.8548-.57118 6.246-2.1236-1.2926.5886-3.3354.89484-5.2072.90425zm3.7876-4.3121c-.2903.31477-1.2465 1.2419-1.6017 1.541 1.6207.18082 5.2782-1.1144 6.6694-2.6668-1.2926.5886-3.1959 1.1164-5.0677 1.1258zm5.208-4.7927c-.0998 1.8607-.72645 3.0459-1.4032 3.8352.56126-.18322 1.1225-.30428 1.6838-.56126-.054-1.029-.14866-2.245-.28062-3.274z"/><path d="m404.65 140.71c-.36096 2.1198-.6001 4.6661-1.16 6.0898.95779 10.971 3.9422 12.025 6.4212 13.008-4.1359-5.8649-4.953-13.737-5.2613-19.098z"/><path d="m412.55 169.9c-3.6458 1.8725-6.784-2.6436-8.29-5.4486l.67634-3.8297c.0148-.12663.28419-.22116.40493-.0508.6006 4.2156 3.2678 9.136 7.2088 9.3291z"/><path d="m399.49 192.97c.31498.50562.58822 1.0182 1.2221 1.4707.81626-.85258.99223-1.2783 1.3464-1.8228-.68833 3.7003-1.0007 7.3066-1.4914 10.958-.33866-3.6098-.58887-7.544-1.0771-10.605z"/><path d="m379.92 181.65c-1.1294-2.8013-.70631-5.0592 1.2889-6.7668-4.0244-.0848-8.388 7.4008-.93739 11.19-3.7284-2.178-3.9168-6.7222-2.7004-8.2147.81255-1.2968 2.0077-1.6592 1.1772-.20714-.57634 2.3378.47178 3.5302 1.1717 3.9986z"/><path d="m404.03 169.82c.76177 1.2204 1.6996 2.2648 2.9294 3.0172-.33456 6.833 7.1818 11.363 12.274 9.4325-2.9254 2.1406-12.566 1.6188-15.203-12.45z"/><path d="m378.84 187.13c-6.0292 3.9692-2.6993 8.885.0879 10.018-1.0602-.78135-2.191-3.5219 1.1132-1.992 1.0874.46641 2.0557.51609 2.9879.4394-6.1696-2.0264-4.7992-5.3095-4.189-8.4658z"/><path d="m396.47 181.59c.14554 2.065.37198 3.7254.67375 5.0092-1.9365 3.8693-4.2742 6.4497-6.6789 8.2901 2.8212-2.7292 4.9986-5.4633 5.9466-8.3486-4.9115 7.6647-8.3158 8.8429-11.835 9.0224 4.3768-.96413 10.769-4.7434 11.893-13.973z"/><path d="m362.15 108.6c-2.2945-2.7106-1.9582-4.4243-1.886-5.3808-2.5317-1.911-1.8662-2.6658-2.3021-3.4393.87831 1.5479 1.7566 2.5734 2.6349 2.7181 1.6734 1.5334 3.3468 2.0488 5.0202 3.051-10.234-5.5938-7.4132-12.456-7.2946-14.423-1.5991.05332-2.7736-.27555-3.6334-.88755.29464-2.7739 1.7505-5.0283 4.8538-6.5457-.38831.13473-.77661.31922-1.1649.3883-.36394-.0758-1.2473-2.3622-.13868-3.8553.63682-.40327 2.359-.54542 4.1049.13868 1.0324-2.0779 2.3694-3.9273 5.1589-4.6874.6889.71172 1.853 2.8331 1.0262 6.518 1.1446.42394 2.2638.95792 3.1896 2.3298-.28661 1.1709-.57321 1.5009-.85982 1.8028 4.475.04672 4.9107-6.2337-.0784-6.8948.80745-5.9133-6.774-9.4417-10.073-2.1472-6.0708-1.6281-7.7002 3.1012-5.4085 6.7953-.74065.54187-6.7467 4.9715-1.0262 11.316-.0115 3.1249.7825 6.1615 5.0202 8.82 1.2175 3.5829 1.9882 3.5912 2.8568 4.3823z"/><path d="m437.4 75.586.80784-1.5328c5.4642-.85265 8.767 2.8035 6.6284 7.1255 4.4114 3.7731 1.9848 8.6742-.68355 9.6525 3.1856-2.3399 1.4327-3.0628.89069-3.0242.17031-.07824.4376-.22618.66283-.41427-.17582-2.0619-.98599-4.0135-4.1634-6.3591 1.5697-1.7382 1.4118-3.3894 1.2014-4.557-1.7491-.45542-3.2982-.31095-4.6606.39356l-.68356-1.2842z"/><path d="m429.83 86.212c.25237-.85328.48435-2.2238 2.0299-3.5213-.48394.35308-1.0212.78618-1.6157 1.305-1.987-.80572-3.2613-2.6255-3.5627-3.7284 1.2152-1.5705 4.1082-1.3428 4.5156-1.2428-.84071-3.1682.24892-5.521 1.0357-6.4212 2.6193.24163 3.9758 1.59 5.0334 2.7963l.78711-1.4085c-.71534-2.2232-2.9082-3.8972-5.4884-3.3668-2.1565.22927-4.6043 2.1021-3.6256 6.4945-6.5022 2.6203-3.7338 8.8544.89069 9.0933z"/><path d="m430.28 183.97c.90546-.27296 1.8864-.73428 2.2442-.61206.54711-1.9304-.73627-.80823-2.2442.61206zm-1.2751-1.5472c1.7726-.018 4.2539.28393 4.8625-2.0742 2.744 1.3185 5.6201-1.2181 4.9815-3.5534 0 0-.88589 4.0341-6.5627 1.4792-1.1349-.16571-2.7049.55167-2.6013 1.3261.076.98862 2.0219 1.8297-.68006 2.8223zm15.012-1.9722c1.4409 1.4595 2.3606 2.8122 2.0402 3.9104.89149-1.2881.97731-.51161 1.1731-.017 1.0632.81992 1.8604 3.3048-.79908 4.9135 1.2486.33863 1.3521 1.4522-.017 1.8532.0591 1.1772 3.1998-.28944 3.4854.18702.2441-.10707.32534-.45843.39104-.83308.26505-.3602.29577-.77897.017-1.2751 2.0291-3.3742-.48961-5.2186-2.6353-5.5936-1.3163-1.3745-2.4673-2.1981-3.6554-3.1453zm.102-3.6384c2.1622 1.3677 5.1054 2.4354 7.8888 4.2504 2.7831-2.7738 4.8368 1.8059.85009 2.1082 1.0065 1.8544 5.2558 1.7327 5.1345.25502 2.6456-5.0136-4.5274-6.2419-5.9506-4.4374-2.1714-1.2253-4.1577-2.6001-7.2767-3.1793 6.1755 2.6536 7.236 3.4855 6.1567 3.6292-.9831.13091-4.4406-1.8292-6.8027-2.6262zm1.8995-3.856c1.6966-.74035 5.3774-.63835 6.367-1.5239 1.6238-2.9568 4.6362-2.1751 5.5946-.25051.68504-.007 1.198.14196 1.2734.68889-.63152 1.4005-.22675 4.8284-2.004 3.9872.32444-.25051.16513-.50101 0-.75151-.75546.75991-.76028-.10687-.77239-.45926-1.1375 1.3339-1.7134 1.1142-2.5468.91851.20212-.0831.29192-.30658.27138-.66801 3.3243-1.2872.43988-5.1881-2.2546-1.5448-.91442.27335-4.5357-.54022-5.9286-.39663zm-26.616-18.725-.12526.39663c1.3692 1.2416 13.219 14.29 16.742 19.873-.52742-1.1851-.30557-1.6752-2.4007-4.1751 5.3612 3.005 7.9971.338 7.6822-.25051-.43662.0513-.71911.11187-.95475-.0116-4.9535 2.5277-8.6284-1.6626-10.819-4.4349 2.7702 2.21 4.5925 2.6063 7.4734 2.7764.28592-.50164.3242-.75563.39663-1.0438-.25132-.0471-.49269-.11406-.68889-.27138-3.3704 1.273-7.4176-1.2842-10.584-5.5738 3.013 2.1644 5.1701 1.9549 7.2229 1.9832.31749-.36427.7526-.6815.81414-1.1482-.2894.0221-.51525-.0829-.75152-.167-2.1169.7367-7.3024.4871-9.7906-3.862 1.7275 1.1598 3.6481 1.8442 6.0956 1.2316.48678-.37382 1.0162-.74154 1.1273-1.169-3.0328.76843-5.9834.75715-8.6842-1.6283.76833.008 1.577-.26694 2.4007-.64714-1.5922.13316-3.234-.0313-5.1562-1.8788z"/><path d="m385.57 86.828c2.7531 1.3795 6.1177 2.0846 11.893-6.1516 1.2273-.33615 2.4246-1.0026 3.5738-2.197-3.7142 8.924-14.276 14.379-15.467 8.3486z"/><path d="m394.68 77.6c.22776 4.364 5.7455 1.1278 7.0597-1.7283-2.2341 1.5079-4.4466 2.8684-7.0597 1.7283z"/><path d="m402.97 70.834c.50678-.74874.60143-.05722 1.4647.14647-2.0189 4.2079-5.4348 5.3573-7.2941 5.4486 2.5201-1.3087 4.8361-2.8141 5.8294-5.5951z"/><path d="m407.09 56.985c10.09 6.5603 1.4341 19.802-2.3406 23.365 1.4936-3.3451 10.589-12.552 2.3406-23.365z"/><path d="m392.2 51.454c.85373.94698 1.725 1.4376 2.5271 3.7284.59379.0064 1.1876.07662 1.7814.24856-1.0008-1.5868-2.2128-3.047-4.3084-3.977z"/><path d="m427.43 113.39c.62059.2295 1.3201.30117 2.0506.3107l.78711 11.185-2.8378-11.496z"/><path d="m436.01 109.6c.57985-.071.89972-.0305 1.8228-.24856l6.4212 9.5904-8.244-9.3418z"/><path d="m442.91 121.2c.93035.31796 2.1125.58556 3.3142.84926.0358.29277 9.394 24.357 15.929 26.203-8.354 1.6594-12.551-12.994-18-21.646-.38791-1.8285-.79969-3.633-1.2428-5.4063z"/><path d="m455.21 111.87.32223.55657c8.3098 4.4229 17.632 13.185 23.405 6.7375-5.9837 2.4044-15.676-6.0385-22.058-9.2274l.29294 1.3768c-.70608.34108-1.3324.44304-1.9627.55658z"/><path d="m443.43 101.53c.0221.23692-.003.427-.0586.58587l10.341 6.4153-9.4325-7.5284c-.22723.24146-.54477.36332-.84951.52728z"/><path d="m460.53 96.651c-.62674.50342-1.2859.87733-1.9678 1.16 2.6264.55598 5.0721 1.2669 7.3119 2.1542 6.498.68103 12.935-.31037 13.215-5.8412-2.7308 4.4038-10.522 3.592-18.559 2.5271z"/><path d="m446.38 92.778c.17719.53858.24651 1.0131.35213 1.5328l13.319-.35213c-4.5577-.39319-9.217-.73561-13.671-1.1807z"/><path d="m448.48 83.54c.19057.33624.21936.75339.3107 1.1393 3.18-1.7015 6.1503-3.6128 9.114-5.5305-3.1416 1.5417-6.2831 3.1156-9.4247 4.3913z"/><path d="m457.05 84.203c3.5776-.30231 7.2145-.38701 10.957-.08285.87409-.49208 9.94-3.1386 7.7469-7.9333-2.607 5.2509-12.288 7.0486-13.05 7.4776-1.5223.155-5.2829.30774-5.6548.53855z"/><path d="m450.71 75.959-.57998.9114c5.7096-4.1147 10.226-6.6286 13.671-7.7055 3.4196-3.614 4.1998-7.1839 2.7756-9.259.21899 6.6801-10.387 11.677-15.867 16.053z"/><path d="m452.79 70.594-.39356 1.4085c2.7245-1.7163 4.6347-3.5182 6.3176-5.3441 4.7131-5.4798 5.3267-10.242 5.717-12.532l-2.0299 1.6364c.328 6.9618-7.4769 13.67-9.6111 14.831z"/><path d="m444.09 64.131-.0207.84926c3.3124-2.0365 6.6671-4.5116 9.694-7.8919 1.768-2.2771 4.0386-5.4702 4.3084-9.8183l-1.7399 1.3671c-.34404 7.2295-9.6616 13.456-12.242 15.494z"/><path d="m436.57 63.199c2.6863-1.1616 5.3077-2.2625 7.1255-2.6099l11.662-10.833c-3.118 2.257-9.6729 7.9307-12.757 10.233-1.0622.79275-2.1287.76726-6.0298 3.2105z"/><path d="m319.22 120.94c2.042 3.1998 5.4772 5.2021 18.357-2.628 2.5758-2.8392 5.1515-5.7579 7.7272-8.198l-.62759-.0392c-4.3375 1.8105-15.534 13.541-25.457 10.865z"/><path d="m319.79 94.035c1.3915 4.6163 12.965 3.4406 19.808 2.9615l.35302-.11768c-.55476-.38571-1.0391-.77142-1.3336-1.1571-2.8466-.59708-15.781 2.121-18.828-1.6867z"/><path d="m341.6 91.505.13728.11767c-.81064.68346-1.6213 1.2769-2.4319 2.2554-10.721.02413-17.47-4.2479-19.377-6.727 2.6514-2.1433 5.9981-2.8961 9.5316-3.2753-3.0374.90198-6.5938 1.4281-8.2176 3.3537h-.76488c4.978 5.5619 18.256 8.0414 21.122 4.2755z"/><path d="m322.65 76.031c1.4785 1.5017 7.2111 6.457 17.651 5.2169.39878 1.0194.79756 1.3937 1.1964 1.8043-2.771-.4222-5.5516-.72901-8.3745-.52953-4.5877-1.3805-8.7773-3.0454-10.473-6.4917z"/><path d="m343.95 78.188c.16278.09872.31671.20628.52953.25496-1.7093.67742-3.03 1.4146-4.0598 2.1966-5.265-1.6311-12.736-5.515-15.435-10.414 3.2599-1.4533 8.7916-.77908 12.003 0-3.563-.03282-7.8186-.75813-9.9434.64721l-1.6082-.56876c.6404 2.0924 11.841 11.856 18.514 7.8842z"/><path d="m348.66 73.795c-.50839-.96254-.99271-1.9491-1.0394-3.3733-2.5109 1.1804-13.999-3.7927-16.729-10.042.18703 5.502 9.9955 9.8121 17.769 13.415z"/><path d="m333.8 54.29 1.9138 1.1372c-.24843 4.3417 7.4507 12.784 16.031 13.452-1.403.14292-2.9595.10667-4.0772.58246-4.0532-2.5111-6.7856-5.1851-9.0419-7.5165-.47548.07091-.84519-1.1166-1.6364-.74887-2.1807-2.8179-3.0445-5.0279-3.1896-6.9063z"/><path d="m350.28 57.923c-3.1202-2.7105-6.5879-5.7931-7.3778-10.124 3.6401.4322 10.747 2.8852 16.253 6.8508-5.1292-2.9424-9.9704-5.1471-13.923-5.0757-.32589 3.5863 2.9755 5.949 5.048 8.3485z"/><path d="m366.03 59.837c17.007 11.286 18.291 29.837 6.2683 26.793 14.423-1.7329-2.4828-23.158-6.2683-26.793z"/></g><path d="m383.77 100.98c.2533 2.7508 1.107 6.0983 1.948 9.1982-.56002-.88519-2.2598-6.2751-1.948-9.1982z" fill="#e8e6eb"/><g fill="#f1eef0"><path d="m390.67 50.439c-.39049-7.1527 9.9166 1.0175 14.686 1.305-3.3191.37618-14.251-6.9002-14.189-1.1807l-.49713-.12428z"/><path d="m415.69 97.335c-.23908 2.3976-.71005 4.1458-1.2221 5.7791 8.8368-1.3263 21.926-3.6024 20.154-13.319-1.6088 1.171-3.2175 1.3852-4.8263 1.4085-.27481-1.3839-.42779-2.8547.0621-4.7848-1.4597 1.9776-3.183 2.7247-4.9713 3.1692 7.9973 3.5694-3.3835 9.8801-8.1404 7.7469h-1.0564z"/><path d="m397.88 91.984c4.4058-16.613 17.771-26.537 6.2102-35.387 8.3834 14.526-4.9556 20.669-6.2102 35.387z"/><path d="m455.98 48.72c-29.484 5.1457-45.862 40.717-26.141 37.512l-1.1-.269c-3.9458.3477-4.9554-3.0901-4.5717-5.2668.34975-2.3755 2.615-3.6805 3.2667-3.9043-.17542-2.0968-.24356-4.177 1.8021-5.9291.82099-1.9847 1.7575-3.0064 2.6928-4.0392 3.0988-11.221 18.738-16.811 24.048-18.104z"/></g></svg>