<?xml version="1.0" encoding="UTF-8" standalone="no"?>
<!-- Created with Inkscape (http://www.inkscape.org/) -->

<svg
   xmlns:dc="http://purl.org/dc/elements/1.1/"
   xmlns:cc="http://creativecommons.org/ns#"
   xmlns:rdf="http://www.w3.org/1999/02/22-rdf-syntax-ns#"
   xmlns:svg="http://www.w3.org/2000/svg"
   xmlns="http://www.w3.org/2000/svg"
   xmlns:sodipodi="http://sodipodi.sourceforge.net/DTD/sodipodi-0.dtd"
   xmlns:inkscape="http://www.inkscape.org/namespaces/inkscape"
   width="900"
   height="708"
   viewBox="0 0 238.1249945209141 187.3250052932458"
   version="1.1"
   id="svg1379"
   inkscape:version="0.92.3 (2405546, 2018-03-11)"
   sodipodi:docname="US Space Force.svg">
  <defs
     id="defs1373">
    <inkscape:path-effect
       effect="spiro"
       id="path-effect943"
       is_visible="true" />
  </defs>
  <sodipodi:namedview
     id="base"
     pagecolor="#c8c8c8"
     bordercolor="#666666"
     borderopacity="1.0"
     inkscape:pageopacity="0"
     inkscape:pageshadow="2"
     inkscape:zoom="0.1750000000922821"
     inkscape:cx="126.4456711346454"
     inkscape:cy="206.9393578656801"
     inkscape:document-units="px"
     inkscape:current-layer="layer1"
     showgrid="false"
     units="px"
     inkscape:window-width="1366"
     inkscape:window-height="716"
     inkscape:window-x="-8"
     inkscape:window-y="-8"
     inkscape:window-maximized="1"
     inkscape:snap-global="true"
     inkscape:snap-object-midpoints="false"
     inkscape:snap-center="false"
     inkscape:snap-smooth-nodes="true"
     fit-margin-top="0"
     fit-margin-left="0"
     fit-margin-right="0"
     fit-margin-bottom="0" />
  <metadata
     id="metadata1376">
    <rdf:RDF>
      <cc:Work
         rdf:about="">
        <dc:format>image/svg+xml</dc:format>
        <dc:type
           rdf:resource="http://purl.org/dc/dcmitype/StillImage" />
        <dc:title></dc:title>
      </cc:Work>
    </rdf:RDF>
  </metadata>
  <g
     inkscape:label="Layer 1"
     inkscape:groupmode="layer"
     id="layer1"
     transform="translate(630.0863037109373,1408.35302734375)">
    <rect
       style="opacity:1;fill:#000000;fill-opacity:1;stroke:none;stroke-width:1.3229166269;stroke-linecap:butt;stroke-linejoin:round;stroke-miterlimit:4;stroke-dasharray:none;stroke-opacity:1;paint-order:markers stroke fill"
       id="rect1394"
       width="238.125"
       height="187.3249969482422"
       x="-630.0863037109375"
       y="-1408.35302734375" />
    <rect
       style="opacity:1;fill:#000000;fill-opacity:1;stroke:none;stroke-width:1.3229166269;stroke-linecap:butt;stroke-linejoin:round;stroke-miterlimit:4;stroke-dasharray:none;stroke-opacity:1;paint-order:markers stroke fill"
       id="rect1381"
       width="222.25"
       height="123.2202377319336"
       x="-146.6547546386719"
       y="36.95236968994141" />
    <g
       id="#ffffffff"
       transform="matrix(0.3527777892170163,0,0,0.3527777892170163,-348.6931865345517,-1513.659749670244)" />
    <g
       id="#0d2538ff"
       transform="matrix(0.3527777892170163,0,0,0.3527777892170163,-348.6931865345517,-1513.659749670244)" />
    <g
       id="#fbfeffff"
       transform="matrix(0.3527777892170163,0,0,0.3527777892170163,-348.6931865345517,-1513.659749670244)" />
    <g
       id="#0e2538ff"
       transform="matrix(0.3527777892170163,0,0,0.3527777892170163,-348.6931865345517,-1513.659749670244)" />
    <g
       id="#fbfffeff"
       transform="matrix(0.3527777892170163,0,0,0.3527777892170163,-348.6931865345517,-1513.659749670244)" />
    <g
       id="#fbfdfeff"
       transform="matrix(0.3527777892170163,0,0,0.3527777892170163,-348.6931865345517,-1513.659749670244)" />
    <g
       id="#fbfdfdff"
       transform="matrix(0.3527777892170163,0,0,0.3527777892170163,-348.6931865345517,-1513.659749670244)" />
    <g
       id="#0e2438ff"
       transform="matrix(0.3527777892170163,0,0,0.3527777892170163,-348.6931865345517,-1513.659749670244)" />
    <g
       style="stroke-width:1.8569948673"
       id="#fbffffff"
       transform="matrix(0.1899724115443142,0,0,0.1899724115443143,-607.80085684355,-1420.543442714986)">
      <path
         style="opacity:1;fill:#fbffff;stroke-width:1.8569948673"
         inkscape:connector-curvature="0"
         d="m 424.41,205.98 c 2,10.8 3.2900000000001,21.73 4.64,32.63 5.72,-4.04 11.17,-8.47 17.04,-12.31 -4.05,5.66 -8.32,11.17 -12.7099999999999,16.57 11.04,1.55 22.06,3.21 33.12,4.6 -10.83,2.36 -21.94,3.17 -32.9,4.74 4.2,5.69 8.46,11.35 12.45,17.19 -5.7799999999999,-3.96 -11.05,-8.59 -16.7099999999999,-12.7 -1.4900000000001,10.99 -2.9,21.99 -4.84,32.91 -1.5799999999999,-10.92 -3.05,-21.86 -4.56,-32.78 -5.57,3.9900000000002 -10.87,8.3600000000002 -16.6300000000001,12.09 3.78,-5.77 8.27,-11.0299999999999 12.39,-16.55 -11.08,-1.17 -22.12,-2.68 -33.11,-4.49 10.87,-1.79 21.8199999999999,-3.13 32.73,-4.69 -3.98,-5.62 -8.3500000000001,-10.95 -12.13,-16.7 5.77,3.72 11.13,8.02 16.67,12.08 1.71,-10.84 3.03,-21.73 4.5499999999999,-32.59 z"
         id="path1440" />
      <path
         style="opacity:1;fill:#fbffff;stroke-width:1.8569948673"
         inkscape:connector-curvature="0"
         d="m 512.2,244.68 c 1.7099999999998,5.64 1.2099999999998,11.55 1.17,17.35 0,73.6600000000001 0,147.3200000000001 0,220.97 0.13,24.86 -0.26,49.72 0.1899999999999,74.5700000000001 -26.41,30.4899999999999 -53.22,60.63 -79.6200000000001,91.12 27.5500000000002,-7.25 54.5,-16.8800000000001 80.22,-29.1700000000002 12.5200000000001,-5.76 24.5999999999998,-12.3999999999995 36.6400000000001,-19.1 22.6099999999999,-12.8699999999999 44.75,-26.5699999999996 67.0999999999998,-39.88 C 620.82,558.61 623.58,556.48 626.2899999999998,554.2699999999997 627.6399999999996,553.1499999999997 628.97,552.0099999999996 630.2999999999999,550.87 637.59,544.5199999999997 644.1799999999999,537.44 651.0299999999997,530.6399999999996 652.4099999999998,529.22 653.7999999999999,527.8099999999999 655.21,526.4199999999998 c 3.9499999999998,-3.7299999999998 8.1699999999996,-7.7900000000002 13.6899999999997,-8.88 C 672.69,517.12 676.2599999999996,519.96 677.44,523.48 c 1.7299999999998,4.4299999999998 -0.6400000000001,9.1499999999996 -3.22,12.72 -6.15,7.5999999999999 -14.39,13.1099999999999 -22.51,18.37 C 648.87,556.37 645.99,558.1 643.0599999999999,559.75 635.9099999999998,563.73 628.69,567.59 621.25,571.0099999999996 614.2599999999996,574.12 608.0299999999997,578.62 601.4199999999998,582.4299999999999 586.7899999999998,591.2899999999998 571.8999999999997,599.73 556.6299999999996,607.46 543.12,614.6799999999999 529.2799999999997,621.2899999999998 515.2999999999999,627.5399999999998 514.1299999999996,628.08 512.97,628.6299999999996 511.83,629.2 l -0.81,-0.74 0.35,0.86 -0.41,0.1899999999996 c -2.25,1.0200000000001 -4.49,2.0500000000003 -6.68,3.1800000000004 -16.91,6.7199999999998 -33.6,14.0799999999997 -50.98,19.5699999999996 -8.9200000000001,3.13 -18.08,5.4900000000003 -27.19,7.9700000000004 -3.89,0.9399999999998 -6.24,4.3999999999996 -8.7300000000001,7.22 -19.62,22.66 -39.54,45.0599999999996 -59.1999999999999,67.6899999999996 -2.31,2.99 -5.08,5.5600000000004 -7.9200000000001,8.0300000000002 C 358,718.36 366.28,693.7 374.24,668.95 c -5.01,0.66 -10.08,0.3199999999997 -15.09,0.9 C 353.41,670.3099999999999 347.7,669.36 341.97,669.36 322.9,667.8799999999996 303.09,664.0099999999996 287.35,652.5099999999996 276.43,644.8099999999999 269.13,632.2799999999997 267.77,619 c -0.53,-8.7200000000003 -0.2,-17.57 2.26,-25.9900000000003 C 275.95,570.7999999999999 288.35,551.0499999999999 301.7,532.6 c 10.4,-13.9500000000003 21.89,-27.08 34.11,-39.47 0,4.03 -0.35,8.04 -1.08,12 C 321.97,518.3999999999997 310.1,532.57 299.81,547.85 c -10.45,15.85 -19.31,33.22 -22.54,52.1 -1.53,10.9 -0.9,22.53 4.49,32.3599999999999 C 288.49,645.09 301.67,653.07 315.21,656.96 c 20.07,5.8399999999999 41.32,5.39 61.91,3.16 2.08,-7.25 4.88,-14.28 6.94,-21.54 l -0.07,0.1 L 384.27,637.84 c 0.55,-1.52 1.15,-3 1.65,-4.52 2.6,-7.7 4.73,-15.5600000000004 7.58,-23.1700000000003 l 0.3199999999998,-0.2299999999999 -0.2799999999999,-0.09 c 0.88,-2.1600000000002 1.7699999999999,-4.3100000000002 2.66,-6.4600000000003 l -0.98,0.3900000000001 0.2699999999999,-0.73 C 401.56,586.0299999999997 406.66,568.7 412.45,551.61 c 0.74,-2.1000000000004 1.54,-4.16 2.08,-6.3200000000002 C 416.38,539.5199999999997 418.24,533.74 420.09,527.97 c 1.83,-4.72 3.62,-9.47 4.64,-14.4300000000002 C 427.76,504.87 430.3,496.04 433.39,487.4 c 0.51,-1.45 1,-2.91 1.46,-4.37 4.0299999999999,-13.21 8.33,-26.33 12.77,-39.4 0.48,-1.44 0.91,-2.9 1.36,-4.35 C 453.32,425.61 457.74,411.97 462.3,398.37 c 0.5,-1.44 0.99,-2.89 1.45,-4.34 C 467.07,382.17 471.78,370.72 474.63,358.74 l 0.11,-0.46 0.65,1.32 c 0.26,-1.31 0.55,-2.6 0.87,-3.88 1.06,-4.54 2.71,-8.8999999999999 4.19,-13.3 0.49,-1.48 0.96,-2.97 1.42,-4.45 9.97,-31.14 20.07,-62.24 30.33,-93.29 z"
         id="path1442" />
      <path
         style="opacity:1;fill:#fbffff;stroke-width:1.8569948673"
         inkscape:connector-curvature="0"
         d="m 259.23,335.2 c 1.87,-1.31 5.37,-0.92 5.62,1.76 0.8500000000001,2.51 -2.02,4.8 -4.35,3.79 -2.43,-0.65 -2.43,-3.8 -1.27,-5.55 z"
         id="path1446" />
    </g>
    <g
       style="stroke-width:1.8569948673"
       id="#d3d5d2ff"
       transform="matrix(0.1899724115443142,0,0,0.1899724115443143,-607.80085684355,-1420.543442714986)">
      <path
         style="opacity:1;fill:#d3d5d2;stroke-width:1.8569948673"
         inkscape:connector-curvature="0"
         d="m 513.58,239.93 c 10.8499999999999,32.58 21.3099999999996,65.3 31.92,97.97 0.7799999999997,2.37 1.61,4.73 2.3799999999997,7.12 C 548.97,348.38 549.98,351.76 551.08,355.13 c 0.51,1.4 1.04,2.81 1.54,4.24 3.5599999999999,11.57 7.4299999999999,23.05 11.11,34.59 0.46,1.4 0.9199999999997,2.8000000000002 1.39,4.2 4.5,13.71 8.86,27.46 13.4199999999998,41.15 C 578.97,440.67 579.3999999999997,442.03 579.83,443.41 c 4.26,13.2 8.5599999999996,26.4 12.8499999999999,39.6000000000001 C 593.1399999999996,484.4 593.61,485.8 594.08,487.21 c 2.38,7.75 5.0699999999997,15.4 7.42,23.15 l -0.38,1.63 0.7599999999996,-0.71 C 603.0399999999998,515.09 604.46,518.82 605.7599999999996,522.58 c 2.13,7.8399999999998 4.88,15.5 7.37,23.2299999999999 C 613.6499999999997,547.44 614.1699999999998,549.08 614.7,550.72 c 1.03,3.2899999999996 2.0899999999998,6.5599999999997 3.1999999999997,9.8199999999998 -22.3499999999998,13.3100000000002 -44.4899999999999,27.0100000000001 -67.0999999999998,39.88 C 542.97,590.2599999999996 534.07,580.97 525.74,571.22 c -3.8,-4.48 -7.8,-8.7900000000001 -11.77,-13.12 l -0.4100000000001,-0.53 C 513.11,532.72 513.5,507.86 513.37,483 c 0,-73.65 0,-147.31 0,-220.97 0.04,-5.8 0.5399999999998,-11.71 -1.17,-17.35 l -0.13,-0.51 c 0.4899999999999,-1.42 0.9799999999999,-2.84 1.51,-4.24 z"
         id="path1585" />
      <path
         style="opacity:1;fill:#d3d5d2;stroke-width:1.8569948673"
         inkscape:connector-curvature="0"
         d="M 601.4199999999998,582.4299999999999 C 608.0299999999997,578.62 614.2599999999996,574.12 621.25,571.0099999999996 624.7599999999996,581.2799999999997 627.87,591.6799999999999 631.4099999999998,601.94 c 0.76,2.77 1.6099999999999,5.52 2.4400000000002,8.29 l 1.2999999999997,-0.2100000000003 -1.88,0.4899999999999 1.13,0.6400000000001 c 2.25,7.3200000000003 4.6400000000001,14.6000000000002 7.0100000000001,21.8900000000001 0.5,1.5700000000002 1.01,3.1500000000002 1.5200000000001,4.7399999999999 C 654.25,672.58 665.7599999999996,707.32 676.7599999999996,742.22 673.11,739.5599999999999 669.9299999999999,736.36 667.1599999999998,732.8099999999999 633.69,694.62 600.25,656.3999999999997 566.83,618.1799999999999 563.6799999999999,614.37 560.3799999999996,610.6799999999999 556.6299999999996,607.46 c 15.2700000000001,-7.73 30.1600000000002,-16.1700000000002 44.7900000000002,-25.0300000000001 z"
         id="path1587" />
    </g>
    <g
       style="stroke-width:1.8569948673"
       id="#fefefdff"
       transform="matrix(0.1899724115443142,0,0,0.1899724115443143,-607.80085684355,-1420.543442714986)">
      <path
         style="opacity:1;fill:#fefefd;stroke-width:1.8569948673"
         inkscape:connector-curvature="0"
         d="m 642.19,333.95 c 16.2299999999998,-1.55 32.65,-2.01 48.88,-0.15 14.8099999999996,1.94 30.0599999999996,5.71 41.9899999999999,15.16 9.9000000000001,7.89 15.74,20.39 15.5799999999997,33.03 C 749.3999999999997,399 743.44,415.34 736.6799999999999,430.67 c -3.9399999999999,8.25 -8.12,16.4 -12.87,24.22 C 723.1699999999998,456.13 721.75,456.51 720.6,457.09 727.2799999999997,444.63 734.22,432.16 738.44,418.6 c 4.67,-13.5299999999999 7.4699999999998,-28.39 3.92,-42.51 -2.74,-11.06 -10.4,-20.54 -20.15,-26.2799999999999 -12.7000000000004,-7.57 -27.6500000000001,-10.3 -42.22,-11.2200000000001 -11.04,-1.0299999999999 -22.13,-0.08 -33.14,0.95 -19.9500000000003,2.2 -39.75,6.11 -58.9400000000002,11.98 -3.3599999999999,-1.16 -6.6500000000002,-2.5099999999998 -9.7800000000002,-4.19 C 598.82,340.19 620.48,336.32 642.19,333.95 Z"
         id="path1595" />
    </g>
    <g
       style="stroke-width:1.8569948673"
       id="#aaaba6ff"
       transform="matrix(0.1899724115443142,0,0,0.1899724115443143,-607.80085684355,-1420.543442714986)">
      <path
         style="opacity:1;fill:#aaaba6;stroke-width:1.8569948673"
         inkscape:connector-curvature="0"
         d="m 351.46,437.6 c 23.99,-51.6 74.1,-90.49 130.41,-99.63 -0.46,1.4800000000001 -0.93,2.9700000000001 -1.42,4.45 -5.9,1.15 -11.75,2.57 -17.46,4.43 4.13,3.36 8.57,6.34 13.27,8.87 -0.32,1.28 -0.61,2.57 -0.87,3.88 l -0.65,-1.32 -0.11,0.46 c -4.39,4.05 -7.42,9.26 -10.66,14.22 -3.77,5.8000000000002 -7.09,11.88 -10.51,17.88 3.41,1.12 6.84,2.2 10.29,3.19 -0.46,1.45 -0.95,2.9 -1.45,4.34 -3.58,-1.19 -7.15,-2.4 -10.7,-3.66 -6.63,13.15 -11.86,26.97 -16.25,41.01 4.49,1.38 9.0400000000001,2.58 13.63,3.5599999999999 -0.45,1.45 -0.88,2.91 -1.36,4.35 -4.49,-1.14 -8.96,-2.37 -13.41,-3.63 -3.84,13.56 -6.43,27.43 -8.25,41.4 2.95,0.56 5.91,1.12 8.89,1.63 -0.46,1.4599999999999 -0.95,2.92 -1.46,4.37 -2.61,-0.6000000000001 -5.21,-1.19 -7.81,-1.78 -0.86,9.27 -2.21,18.63 -0.85,27.9199999999998 C 423.71,518.5 421.92,523.25 420.09,527.97 419.92,524.1599999999998 419.61,520.36 419.47,516.5599999999999 c -14.93,-0.01 -29.86,-0.01 -44.8,0 0.4,13.5 1.56,27.0200000000001 4.56,40.2099999999998 C 390.78,552.2999999999999 402.57,548.48 414.53,545.2899999999998 413.99,547.45 413.1900000000001,549.5099999999996 412.4500000000001,551.61 L 411.96,551.45 c -1.66,-0.61 -3.3899999999999,0.07 -5.0299999999999,0.41 -9.01,2.85 -17.98,5.8199999999999 -26.8,9.24 3.5799999999999,14.47 8.38,28.72 15.36,41.9299999999997 l -0.27,0.7299999999999 L 396.2,603.37 c -0.89,2.1499999999998 -1.78,4.2999999999998 -2.66,6.46 l 0.2799999999999,0.09 L 393.5,610.1499999999997 C 387.3,613.5399999999998 381.5,617.57 375.97,621.95 c 3.14,3.9399999999996 6.44,7.75 9.95,11.37 -0.5,1.52 -1.1,3 -1.65,4.52 -34.2599999999998,-34.5600000000003 -52.43,-84.2100000000004 -49.54,-132.71 0.73,-3.96 1.08,-7.97 1.08,-12 1.64,-19.26 7.48,-38.07 15.65,-55.53 m 91.07,-83.24 c -9.27,4.25 -18.33,9.01 -26.71,14.84 3.1,2.43 6.24,4.83 9.4,7.2 10.34,-10.63 22.23,-19.51 34.28,-28.08 -5.97,1.04 -11.45,3.67 -16.97,6.04 m -13.39,24.53 c 6.44,3.99 13.23,7.39 20.23,10.28 6.08,-11.07 12.5,-22 20.19,-32.06 -2.32,-1.62 -4.63,-3.26 -6.89,-4.96 -12.33,7.33 -23.46,16.57 -33.53,26.74 m -53.02,27.23 c 5.64,4.84 11.96,8.79 18.26,12.71 7.67,-14.15 17.14,-27.27 27.85,-39.25 -3.5,-2.46 -6.9,-5.06 -10.21,-7.78 -13.5,9.68 -25.7099999999999,21.18 -35.8999999999999,34.32 m 22.12,14.59 c 10.5299999999999,5.68 21.62,10.35 33.1000000000001,13.76 4,-14.26 9.74,-27.93 16.0099999999999,-41.32 -7.3,-3.28 -14.56,-6.73 -21.3299999999999,-11.03 -10.83,11.64 -20.02,24.72 -27.7800000000001,38.59 M 373.2800000000002,409.6400000000001 C 363.6700000000001,422.77 355.5500000000001,437.08 349.9800000000001,452.41 c 8.59,4.76 17.3000000000001,9.33 26.39,13.09 3.76,-14.8 9.04,-29.26 16.04,-42.85 C 385.72,418.79 379.37,414.39 373.28,409.64 m 23.04,15.19 c -7.07,13.36 -12.15,27.7 -15.82,42.34 13.42,5.39 27.23,9.79 41.31,13.11 1.79,-13.98 4.39,-27.85 8.22,-41.42 -11.54,-3.9 -22.8999999999999,-8.4 -33.7099999999999,-14.03 M 348.28,456.67 C 342.15,474.61 338.91,493.5 338.55,512.46 c 10.6,-0.02 21.21,-0.01 31.82,-0.03 C 370.91,498.12 372.13,483.76 375.44,469.8 c -9.37,-3.7 -18.21,-8.54 -27.16,-13.13 m 31.07,14.83 c -2.83,13.47 -4.39,27.2 -4.53,40.96 14.9,-0.04 29.8,-0.02 44.7,0 0.43,-9.29 0.8,-18.5799999999999 1.81,-27.8299999999999 -14.3,-3.33 -28.3,-7.82 -41.98,-13.13 M 338.52,516.57 c 0.5,18.76 3.79,37.4 9.79,55.1799999999999 8.63,-4.9400000000001 17.52,-9.4400000000001 26.75,-13.14 -2.95,-13.8200000000002 -4.29,-27.9300000000001 -4.68,-42.04 -10.62,-0.02 -21.24,-0.03 -31.86,0 m 11.43,59.38 c 5.76,15.15 13.64,29.4799999999999 23.31,42.4799999999999 C 379.19,613.7899999999998 385.44,609.59 391.92,605.7699999999997 384.85,592.22 379.72,577.7 376.14,562.86 c -8.98,3.8199999999999 -17.77,8.1599999999997 -26.19,13.09 z"
         id="path1598" />
      <path
         style="opacity:1;fill:#aaaba6;stroke-width:1.8569948673"
         inkscape:connector-curvature="0"
         d="m 545.5,337.9 c 11.11,2.12 22.3099999999999,4.71 32.6299999999997,9.43 3.13,1.68 6.4200000000003,3.03 9.7800000000002,4.19 C 602.48,357.38 615.6799999999999,366.35 627.82,376.25 c 40.3199999999996,33.14 65.0799999999997,84.77 64.4599999999997,137.08 C 693.12,559.1699999999998 674.6799999999999,604.82 642.9299999999999,637.7799999999997 642.4199999999998,636.19 641.9099999999998,634.61 641.4099999999998,633.0399999999998 644.49,629.5299999999997 647.5499999999999,626 650.59,622.45 c -5.0500000000002,-4.24 -10.3300000000004,-8.23 -16.1900000000003,-11.3000000000003 l -1.13,-0.6400000000001 1.88,-0.4899999999999 L 633.85,610.23 c -0.8300000000003,-2.77 -1.6800000000002,-5.52 -2.4400000000002,-8.29 C 637.57,588.98 642.48,575.44 645.9199999999998,561.5 645.2,561.0599999999999 643.7799999999997,560.19 643.0599999999999,559.75 645.99,558.1 648.87,556.37 651.71,554.57 c -0.2000000000004,1.37 -0.4000000000001,2.75 -0.5800000000004,4.13 C 660.47,562.6499999999997 669.5499999999999,567.1799999999999 678.36,572.21 c 6.01,-17.9400000000003 9.61,-36.71 9.8099999999998,-55.6600000000001 -10.8099999999998,-0.02 -21.6199999999999,0.05 -32.4199999999998,-0.04 -0.25,3.3000000000001 -0.4,6.6000000000005 -0.54,9.91 -1.4100000000001,1.3900000000001 -2.8000000000002,2.8000000000004 -4.1800000000003,4.22 C 651.1699999999998,525.94 651.3099999999999,521.25 651.37,516.5499999999999 c -15.05,-0.01 -30.0900000000003,0.02 -45.13,-0.01 -0.1800000000001,2.0100000000001 -0.37,4.0200000000001 -0.4800000000004,6.0400000000003 C 604.46,518.82 603.0399999999998,515.0900000000001 601.8799999999996,511.28 L 601.12,511.99 l 0.38,-1.63 c 1.2,-8.18 -0.52,-16.44 -0.95,-24.62 C 598.3899999999996,486.23 596.23,486.71 594.08,487.21 c -0.47,-1.41 -0.9400000000004,-2.81 -1.4000000000001,-4.2 2.4499999999997,-0.49 4.9100000000001,-0.97 7.38,-1.45 C 598.5199999999997,467.59 595.6599999999998,453.78 591.97,440.23 c -4.0400000000001,1.09 -8.0900000000004,2.14 -12.14,3.18 C 579.3999999999997,442.03 578.97,440.67 578.5399999999998,439.31 582.6499999999997,438.28 586.75,437.19 590.84,436.07 586.3999999999997,422.05 581.34,408.19 574.6799999999999,395.05 571.49,396.08 568.3099999999999,397.13 565.12,398.16 564.6499999999997,396.76 564.19,395.36 563.73,393.96 c 2.98,-0.92 5.96,-1.85 8.9299999999998,-2.82 C 566.8999999999997,380.01 560.23,369.33 552.62,359.37 c -0.5,-1.43 -1.03,-2.84 -1.54,-4.24 4.3099999999996,-2.58 8.4499999999997,-5.43 12.4,-8.53 -5.4200000000001,-1.54 -10.89,-2.91 -16.4,-4.14 0.1999999999997,0.64 0.5999999999999,1.9200000000001 0.7999999999996,2.56 C 547.11,342.63 546.2799999999997,340.27 545.5,337.9 M 567.1299999999996,348 C 568.21,349.21 569.11,350.6 570.5499999999999,351.46 581.69,358.63 591.86,367.24 600.97,376.86 c 3.4099999999996,-2.45 6.7899999999996,-4.95 10.11,-7.52 -13.4400000000004,-9.25 -28.3000000000003,-16.69 -43.9500000000004,-21.3399999999999 m -10.5699999999997,9 c 7.5,10.3299999999999 14.3499999999999,21.13 20.2299999999999,32.4699999999999 C 583.8999999999997,386.55 590.83,383.19 597.36,379.1 c -10.2100000000003,-10.1499999999999 -21.4800000000004,-19.16 -33.54,-27.02 -2.4200000000003,1.64 -4.84,3.28 -7.2600000000001,4.9200000000001 M 604.22,380 c 10.6699999999996,11.95 20.0799999999999,25.01 27.6799999999997,39.12 C 638.58,415.38 644.9099999999998,411.05 650.8799999999996,406.27 640.6599999999998,393.05 628.2899999999998,381.65 614.87,371.75 c -3.4600000000002,2.87 -7.04,5.59 -10.65,8.25 m -25.3400000000004,13.38 C 585.2,406.79 590.74,420.58 594.98,434.8 c 11.37,-3.55 22.48,-8 33.0299999999996,-13.56 C 620.44,407.23 611.22,394.08 600.2799999999997,382.5 c -6.7999999999997,4.25 -14.01,7.79 -21.4000000000001,10.88 m 55.0500000000003,29.7 C 640.7999999999999,436.62 646.11,450.95 649.71,465.7 c 9.28,-4.01 18.38,-8.48 27.11,-13.59 -5.7700000000001,-15.06 -13.58,-29.32 -23.1600000000002,-42.29 C 647.32,414.59 640.7999999999999,419.11 633.9299999999999,423.08 M 596.08,438.96 c 3.9799999999999,13.55 6.1899999999997,27.5 8.4499999999997,41.41 14.0100000000001,-3.35 27.75,-7.76 41.1800000000003,-12.96 -3.61,-14.6 -8.89,-28.74 -15.5,-42.23 -10.98,5.5 -22.37,10.22 -34.13,13.78 M 650.82,470 c 2.6999999999997,13.91 4.9399999999996,28.04 4.51,42.2599999999996 10.9299999999996,0.4500000000004 21.88,0.09 32.8199999999997,0.1700000000003 -0.04,-19.1 -3.62,-38.0699999999998 -9.7199999999998,-56.15 C 669.5499999999999,461.47 660.2899999999998,465.99 650.82,470 m -45.96,14.81 c 0.7999999999998,9.18 1.47,18.39 1.2999999999998,27.6099999999998 15.0700000000002,0.05 30.13,0 45.1900000000002,0.03 -0.05,-13.66 -1.8200000000003,-27.29 -4.66,-40.64 -13.71,5.06 -27.62,9.58 -41.83,13 m 45.1799999999998,78.2899999999998 C 646.35,577.86 641,592.1599999999998 634.3899999999996,605.87 c 6.62,3.7899999999999 12.9600000000004,8.0499999999998 18.9000000000002,12.85 C 663.0199999999997,605.82 670.75,591.49 676.72,576.5 c -8.5600000000002,-5.0900000000001 -17.48,-9.5900000000001 -26.6800000000002,-13.4000000000004 z"
         id="path1600" />
    </g>
    <g
       style="stroke-width:1.8569948673"
       id="#2e5790ff"
       transform="matrix(0.1899724115443142,0,0,0.1899724115443143,-607.80085684355,-1420.543442714986)">
      <path
         style="opacity:1;fill:#2e5790;stroke-width:1.8569948673"
         inkscape:connector-curvature="0"
         d="m 462.99,346.85 c 5.71,-1.86 11.56,-3.2799999999999 17.46,-4.43 -1.48,4.4 -3.13,8.76 -4.19,13.3 -4.7,-2.5299999999999 -9.14,-5.51 -13.27,-8.87 z"
         id="path1603" />
    </g>
    <g
       style="stroke-width:1.8569948673"
       id="#2c588fff"
       transform="matrix(0.1899724115443142,0,0,0.1899724115443143,-607.80085684355,-1420.543442714986)">
      <path
         style="opacity:1;fill:#2c588f;stroke-width:1.8569948673"
         inkscape:connector-curvature="0"
         d="m 547.08,342.46 c 5.51,1.23 10.9799999999999,2.6 16.4,4.14 -3.9500000000003,3.1 -8.0900000000004,5.95 -12.4,8.5299999999999 -1.1,-3.37 -2.11,-6.75 -3.2000000000004,-10.11 -0.1999999999997,-0.64 -0.5999999999999,-1.92 -0.7999999999996,-2.5599999999999 z"
         id="path1606" />
      <path
         style="opacity:1;fill:#2c588f;stroke-width:1.8569948673"
         inkscape:connector-curvature="0"
         d="m 463.97,372.96 c 3.24,-4.96 6.27,-10.17 10.6600000000001,-14.22 -2.8500000000001,11.98 -7.56,23.43 -10.88,35.29 -3.45,-0.99 -6.88,-2.07 -10.2900000000001,-3.19 3.4200000000001,-6 6.7400000000002,-12.08 10.51,-17.88 z"
         id="path1608" />
      <path
         style="opacity:1;fill:#2c588f;stroke-width:1.8569948673"
         inkscape:connector-curvature="0"
         d="m 425.58,485.62 c 2.6,0.59 5.2,1.18 7.81,1.78 -3.09,8.64 -5.63,17.47 -8.66,26.1399999999999 C 423.37,504.25 424.72,494.89 425.58,485.62 Z"
         id="path1610" />
      <path
         style="opacity:1;fill:#2c588f;stroke-width:1.8569948673"
         inkscape:connector-curvature="0"
         d="m 564.23,663.08 c 3.3199999999999,2.4799999999999 6.6499999999996,4.9399999999997 10.02,7.37 -3.3500000000003,2.1999999999997 -6.67,4.42 -10.02,6.62 -2.1800000000001,-1.5500000000003 -4.3500000000004,-3.08 -6.53,-4.6 2.1899999999996,-3.12 4.37,-6.25 6.53,-9.39 z"
         id="path1612" />
    </g>
    <g
       style="stroke-width:1.8569948673"
       id="#2c5890ff"
       transform="matrix(0.1899724115443142,0,0,0.1899724115443143,-607.80085684355,-1420.543442714986)">
      <path
         style="opacity:1;fill:#2c5890;stroke-width:1.8569948673"
         inkscape:connector-curvature="0"
         d="m 567.1299999999996,348 c 15.6500000000001,4.65 30.51,12.09 43.9500000000003,21.34 C 607.7599999999996,371.91 604.3799999999996,374.41 600.97,376.86 591.86,367.24 581.69,358.63 570.5499999999999,351.46 569.11,350.6 568.21,349.21 567.1299999999996,348 Z"
         id="path1615" />
      <path
         style="opacity:1;fill:#2c5890;stroke-width:1.8569948673"
         inkscape:connector-curvature="0"
         d="m 442.53,354.36 c 5.52,-2.37 11,-5 16.97,-6.04 -12.05,8.57 -23.94,17.45 -34.28,28.08 -3.16,-2.37 -6.3,-4.77 -9.3999999999999,-7.2 8.38,-5.83 17.44,-10.59 26.7099999999999,-14.84 z"
         id="path1617" />
      <path
         style="opacity:1;fill:#2c5890;stroke-width:1.8569948673"
         inkscape:connector-curvature="0"
         d="m 552.62,359.37 c 7.61,9.96 14.2799999999997,20.64 20.0399999999998,31.77 C 569.69,392.11 566.71,393.04 563.73,393.96 c -3.6800000000001,-11.54 -7.5500000000001,-23.02 -11.11,-34.59 z"
         id="path1619" />
      <path
         style="opacity:1;fill:#2c5890;stroke-width:1.8569948673"
         inkscape:connector-curvature="0"
         d="m 375.97,621.95 c 5.53,-4.38 11.33,-8.4100000000002 17.53,-11.8000000000003 C 390.65,617.7599999999996 388.52,625.62 385.92,633.32 c -3.51,-3.62 -6.81,-7.4300000000004 -9.95,-11.37 z"
         id="path1621" />
      <path
         style="opacity:1;fill:#2c5890;stroke-width:1.8569948673"
         inkscape:connector-curvature="0"
         d="M 452.51,670.9199999999998 C 455.71,668.36 459.03,665.98 462.44,663.73 c 1.82,2.77 3.69,5.52 5.6,8.24 -2.23,1.63 -4.47,3.24 -6.71,4.86 -2.93,-1.99 -5.8799999999998,-3.9500000000004 -8.82,-5.9100000000002 z"
         id="path1623" />
    </g>
    <g
       style="stroke-width:1.8569948673"
       id="#2d588fff"
       transform="matrix(0.1899724115443142,0,0,0.1899724115443143,-607.80085684355,-1420.543442714986)">
      <path
         style="opacity:1;fill:#2d588f;stroke-width:1.8569948673"
         inkscape:connector-curvature="0"
         d="M 556.5599999999999,357 C 558.98,355.36 561.3999999999997,353.72 563.82,352.08 c 12.0599999999996,7.86 23.3299999999997,16.87 33.54,27.02 -6.53,4.0899999999999 -13.4600000000003,7.45 -20.5700000000002,10.37 -5.88,-11.34 -12.7299999999999,-22.14 -20.2299999999999,-32.47 z"
         id="path1626" />
      <path
         style="opacity:1;fill:#2d588f;stroke-width:1.8569948673"
         inkscape:connector-curvature="0"
         d="m 429.14,378.89 c 10.07,-10.17 21.2,-19.41 33.53,-26.74 2.26,1.7 4.57,3.34 6.89,4.96 -7.69,10.06 -14.1100000000002,20.99 -20.19,32.06 -7,-2.89 -13.7900000000001,-6.2900000000001 -20.23,-10.28 z"
         id="path1628" />
      <path
         style="opacity:1;fill:#2d588f;stroke-width:1.8569948673"
         inkscape:connector-curvature="0"
         d="m 376.12,406.12 c 10.19,-13.14 22.4,-24.64 35.9,-34.32 3.31,2.72 6.71,5.32 10.21,7.78 -10.71,11.98 -20.18,25.1 -27.8500000000001,39.25 -6.3,-3.92 -12.62,-7.87 -18.2599999999999,-12.71 z"
         id="path1630" />
      <path
         style="opacity:1;fill:#2d588f;stroke-width:1.8569948673"
         inkscape:connector-curvature="0"
         d="m 604.22,380 c 3.61,-2.66 7.1899999999998,-5.38 10.65,-8.25 13.4199999999998,9.9 25.7899999999998,21.3 36.0099999999996,34.52 C 644.9099999999998,411.05 638.58,415.38 631.8999999999997,419.12 624.2999999999999,405.01 614.8899999999996,391.95 604.22,380 Z"
         id="path1632" />
      <path
         style="opacity:1;fill:#2d588f;stroke-width:1.8569948673"
         inkscape:connector-curvature="0"
         d="m 398.24,420.71 c 7.76,-13.87 16.95,-26.95 27.78,-38.59 6.77,4.3 14.03,7.75 21.33,11.03 -6.27,13.39 -12.01,27.06 -16.01,41.32 -11.48,-3.41 -22.57,-8.08 -33.1,-13.76 z"
         id="path1634" />
      <path
         style="opacity:1;fill:#2d588f;stroke-width:1.8569948673"
         inkscape:connector-curvature="0"
         d="m 578.8799999999996,393.38 c 7.3900000000001,-3.09 14.6000000000002,-6.63 21.4000000000001,-10.88 C 611.22,394.08 620.44,407.23 628.0099999999996,421.24 617.46,426.8 606.35,431.25 594.98,434.8 590.74,420.58 585.2,406.79 578.8799999999996,393.38 Z"
         id="path1636" />
      <path
         style="opacity:1;fill:#2d588f;stroke-width:1.8569948673"
         inkscape:connector-curvature="0"
         d="m 435.35,435.72 c 4.39,-14.04 9.62,-27.86 16.25,-41.01 3.55,1.26 7.12,2.4700000000001 10.7,3.6600000000001 -4.56,13.6 -8.98,27.24 -13.32,40.91 C 444.39,438.3 439.84,437.1 435.35,435.72 Z"
         id="path1638" />
      <path
         style="opacity:1;fill:#2d588f;stroke-width:1.8569948673"
         inkscape:connector-curvature="0"
         d="m 565.12,398.16 c 3.1899999999999,-1.0299999999999 6.37,-2.08 9.5599999999999,-3.11 C 581.34,408.19 586.3999999999997,422.05 590.84,436.07 c -4.09,1.12 -8.1900000000003,2.21 -12.3000000000002,3.24 C 573.98,425.62 569.62,411.87 565.12,398.16 Z"
         id="path1640" />
      <path
         style="opacity:1;fill:#2d588f;stroke-width:1.8569948673"
         inkscape:connector-curvature="0"
         d="M 373.28,409.64 C 379.37,414.39 385.72,418.79 392.41,422.65 c -7,13.59 -12.2799999999999,28.05 -16.04,42.85 -9.09,-3.76 -17.8,-8.33 -26.39,-13.09 5.57,-15.33 13.69,-29.64 23.3,-42.77 z"
         id="path1642" />
      <path
         style="opacity:1;fill:#2d588f;stroke-width:1.8569948673"
         inkscape:connector-curvature="0"
         d="m 633.9299999999999,423.08 c 6.87,-3.97 13.3900000000001,-8.49 19.7299999999999,-13.26 C 663.24,422.79 671.0499999999999,437.05 676.82,452.11 c -8.73,5.11 -17.83,9.58 -27.11,13.59 -3.6,-14.75 -8.9100000000001,-29.08 -15.7800000000001,-42.62 z"
         id="path1644" />
      <path
         style="opacity:1;fill:#2d588f;stroke-width:1.8569948673"
         inkscape:connector-curvature="0"
         d="m 396.32,424.83 c 10.81,5.63 22.17,10.13 33.71,14.03 C 426.2,452.43 423.6,466.3 421.81,480.28 c -14.08,-3.32 -27.89,-7.72 -41.31,-13.11 3.67,-14.64 8.75,-28.9800000000001 15.82,-42.34 z"
         id="path1646" />
      <path
         style="opacity:1;fill:#2d588f;stroke-width:1.8569948673"
         inkscape:connector-curvature="0"
         d="m 596.08,438.96 c 11.76,-3.56 23.15,-8.28 34.13,-13.78 6.61,13.49 11.89,27.63 15.5,42.23 -13.4300000000003,5.2 -27.1700000000002,9.61 -41.1800000000003,12.96 -2.26,-13.91 -4.4699999999998,-27.86 -8.4499999999997,-41.41 z"
         id="path1648" />
      <path
         style="opacity:1;fill:#2d588f;stroke-width:1.8569948673"
         inkscape:connector-curvature="0"
         d="m 434.21,440 c 4.45,1.26 8.92,2.49 13.41,3.63 -4.44,13.07 -8.74,26.19 -12.77,39.4 -2.98,-0.51 -5.94,-1.07 -8.89,-1.63 1.82,-13.97 4.4100000000001,-27.84 8.25,-41.4 z"
         id="path1650" />
      <path
         style="opacity:1;fill:#2d588f;stroke-width:1.8569948673"
         inkscape:connector-curvature="0"
         d="m 579.83,443.41 c 4.0499999999996,-1.04 8.0999999999999,-2.0899999999999 12.14,-3.18 3.6899999999998,13.55 6.5499999999997,27.36 8.0899999999999,41.33 -2.4699999999999,0.48 -4.9300000000003,0.96 -7.38,1.45 C 588.3899999999996,469.81 584.09,456.61 579.83,443.41 Z"
         id="path1652" />
      <path
         style="opacity:1;fill:#2d588f;stroke-width:1.8569948673"
         inkscape:connector-curvature="0"
         d="m 348.2800058896737,456.67 c 8.95,4.59 17.79,9.43 27.16,13.13 -3.31,13.96 -4.5299999999999,28.32 -5.07,42.6299999999999 -10.61,0.02 -21.22,0.01 -31.82,0.03 0.3600000000002,-18.9599999999999 3.6000000000001,-37.85 9.73,-55.7899999999999 z"
         id="path1654" />
      <path
         style="opacity:1;fill:#2d588f;stroke-width:1.8569948673"
         inkscape:connector-curvature="0"
         d="m 650.8200771497065,470 c 9.4699999999998,-4.01 18.7299999999999,-8.53 27.6099999999999,-13.72 6.0999999999998,18.08 9.6800000000002,37.05 9.7199999999998,56.15 C 677.2100771497066,512.35 666.2600771497061,512.71 655.3300771497066,512.2599999999996 655.7600771497061,498.04 653.5200771497062,483.91 650.8200771497065,470 Z"
         id="path1656" />
      <path
         style="opacity:1;fill:#2d588f;stroke-width:1.8569948673"
         inkscape:connector-curvature="0"
         d="M 379.35,471.5 C 393.03,476.81 407.03,481.3 421.33,484.63 c -1.01,9.25 -1.38,18.54 -1.81,27.83 -14.9,-0.02 -29.8,-0.04 -44.7,0 0.14,-13.7599999999998 1.7,-27.49 4.53,-40.96 z"
         id="path1658" />
      <path
         style="opacity:1;fill:#2d588f;stroke-width:1.8569948673"
         inkscape:connector-curvature="0"
         d="m 604.86,484.81 c 14.21,-3.42 28.12,-7.94 41.83,-13 2.8399999999997,13.35 4.6099999999999,26.98 4.66,40.64 -15.0600000000002,-0.03 -30.12,0.02 -45.1900000000002,-0.03 C 606.33,503.2 605.6599999999998,493.99 604.86,484.81 Z"
         id="path1660" />
      <path
         style="opacity:1;fill:#2d588f;stroke-width:1.8569948673"
         inkscape:connector-curvature="0"
         d="m 655.75,516.5099999999996 c 10.8,0.09 21.61,0.02 32.4199999999998,0.04 C 687.97,535.5 684.37,554.2699999999997 678.36,572.21 c -8.8100000000001,-5.0300000000001 -17.89,-9.5600000000003 -27.2300000000004,-13.51 0.1800000000003,-1.38 0.38,-2.76 0.5800000000004,-4.13 8.12,-5.2600000000001 16.36,-10.7700000000001 22.51,-18.37 2.5799999999999,-3.5700000000004 4.9499999999998,-8.2900000000002 3.22,-12.72 -1.1800000000004,-3.52 -4.75,-6.36 -8.5400000000003,-5.9400000000002 C 663.3799999999996,518.6299999999996 659.1599999999998,522.69 655.21,526.4199999999998 655.35,523.11 655.5,519.8099999999999 655.75,516.5099999999996 Z"
         id="path1662" />
      <path
         style="opacity:1;fill:#2d588f;stroke-width:1.8569948673"
         inkscape:connector-curvature="0"
         d="m 338.52,516.57 c 10.62,-0.03 21.24,-0.02 31.86,0 0.39,14.1099999999999 1.73,28.2199999999998 4.68,42.04 -9.23,3.6999999999999 -18.12,8.1999999999999 -26.75,13.14 C 342.31,553.97 339.02,535.33 338.52,516.57 Z"
         id="path1664" />
      <path
         style="opacity:1;fill:#2d588f;stroke-width:1.8569948673"
         inkscape:connector-curvature="0"
         d="m 374.67,516.5599999999999 c 14.94,-0.01 29.87,-0.01 44.8,0 C 419.61,520.36 419.92,524.1599999999998 420.09,527.97 c -1.85,5.77 -3.71,11.5499999999997 -5.56,17.3199999999998 C 402.57,548.48 390.78,552.2999999999999 379.23,556.7699999999997 376.23,543.58 375.07,530.0599999999999 374.67,516.5599999999999 Z"
         id="path1666" />
      <path
         style="opacity:1;fill:#2d588f;stroke-width:1.8569948673"
         inkscape:connector-curvature="0"
         d="m 606.24,516.5399999999998 c 15.0399999999997,0.03 30.08,0 45.13,0.01 -0.06,4.6999999999997 -0.2000000000002,9.3900000000001 -0.3400000000003,14.0899999999998 C 644.1799999999999,537.44 637.59,544.5199999999997 630.2999999999999,550.87 624.58,549.1599999999998 618.87,547.4199999999998 613.1299999999996,545.8099999999999 c -2.49,-7.7299999999999 -5.24,-15.3900000000001 -7.37,-23.2299999999999 C 605.87,520.5599999999999 606.0599999999999,518.5499999999999 606.24,516.5399999999998 Z"
         id="path1668" />
      <path
         style="opacity:1;fill:#2d588f;stroke-width:1.8569948673"
         inkscape:connector-curvature="0"
         d="m 406.93,551.86 c 1.64,-0.3400000000003 3.37,-1.02 5.03,-0.41 l 0.49,0.16 c -5.79,17.09 -10.89,34.4199999999997 -16.96,51.4199999999997 C 388.51,589.82 383.71,575.57 380.13,561.1 c 8.82,-3.4200000000001 17.79,-6.39 26.8,-9.24 z"
         id="path1670" />
      <path
         style="opacity:1;fill:#2d588f;stroke-width:1.8569948673"
         inkscape:connector-curvature="0"
         d="M 621.25,571.0099999999996 C 628.69,567.59 635.9099999999998,563.73 643.0599999999999,559.75 643.7799999999997,560.19 645.2,561.0599999999999 645.9199999999998,561.5 642.48,575.44 637.57,588.98 631.4099999999998,601.94 627.87,591.6799999999999 624.7599999999996,581.2799999999997 621.25,571.0099999999996 Z"
         id="path1672" />
      <path
         style="opacity:1;fill:#2d588f;stroke-width:1.8569948673"
         inkscape:connector-curvature="0"
         d="m 349.95,575.95 c 8.42,-4.9300000000003 17.21,-9.2700000000001 26.19,-13.09 3.58,14.84 8.71,29.36 15.78,42.9099999999997 C 385.4399999999999,609.59 379.1899999999999,613.7899999999998 373.2599999999999,618.4299999999999 363.59,605.4299999999999 355.71,591.1 349.95,575.95 Z"
         id="path1674" />
      <path
         style="opacity:1;fill:#2d588f;stroke-width:1.8569948673"
         inkscape:connector-curvature="0"
         d="M 650.0399999999998,563.1 C 659.24,566.9099999999998 668.1599999999998,571.4099999999998 676.72,576.5 670.75,591.49 663.0199999999997,605.82 653.2899999999998,618.72 647.35,613.9199999999998 641.0099999999996,609.6599999999998 634.3899999999996,605.87 641,592.1599999999998 646.35,577.86 650.0399999999998,563.1 Z"
         id="path1676" />
      <path
         style="opacity:1;fill:#2d588f;stroke-width:1.8569948673"
         inkscape:connector-curvature="0"
         d="M 515.2999999999999,627.5399999999998 C 522.8099999999999,632.74 530.0299999999997,638.33 537.5099999999996,643.58 535.58,649.69 533.33,655.69 530.6,661.49 525.5,660.5499999999999 520.33,659.97 515.1499999999997,659.73 515.22,649 514.99,638.2699999999997 515.2999999999999,627.5399999999998 Z"
         id="path1678" />
      <path
         style="opacity:1;fill:#2d588f;stroke-width:1.8569948673"
         inkscape:connector-curvature="0"
         d="m 504.28,632.69 c 2.1900000000001,-1.1300000000001 4.43,-2.1600000000003 6.68,-3.1800000000004 C 511.21,639.59 511,649.6799999999999 511.1,659.7699999999997 505.83,659.9199999999998 500.58,660.4299999999999 495.4,661.37 492.92,655.8099999999999 490.75,650.1299999999996 488.72,644.3999999999997 493.95,640.5599999999999 499.25,636.7899999999998 504.28,632.69 Z"
         id="path1680" />
      <path
         style="opacity:1;fill:#2d588f;stroke-width:1.8569948673"
         inkscape:connector-curvature="0"
         d="m 484.79,647.34 c 2.52,4.76 3.89,10.02 6.11,14.9299999999997 C 484.33,664.11 477.96,666.6299999999996 471.8900000000002,669.7599999999996 469.86,666.87 467.85,663.96 465.86,661.0499999999999 472.25,656.58 478.35,651.72 484.79,647.34 Z"
         id="path1682" />
      <path
         style="opacity:1;fill:#2d588f;stroke-width:1.8569948673"
         inkscape:connector-curvature="0"
         d="M 535.11,662.4199999999998 C 537.23,657.07 539.5499999999999,651.7999999999999 541.2699999999997,646.2999999999999 547.6,651.2 554.1799999999999,655.7699999999997 560.6599999999998,660.47 558.45,663.7 556.2,666.8999999999997 553.8999999999997,670.08 547.9199999999998,666.8799999999996 541.6,664.37 535.11,662.4199999999998 Z"
         id="path1684" />
      <path
         style="opacity:1;fill:#2d588f;stroke-width:1.8569948673"
         inkscape:connector-curvature="0"
         d="m 462.86,681.3099999999999 c 27.89,-23.1500000000001 72.22,-23.1700000000003 99.88,0.3499999999999 C 530.3999999999997,691.3999999999997 495.15,691.2 462.86,681.3099999999999 Z"
         id="path1686" />
      <path
         style="opacity:1;fill:#2d588f;stroke-width:1.8569948673"
         inkscape:connector-curvature="0"
         d="m 567.71,680.21 c 3.39,-2.39 6.8199999999997,-4.73 10.2099999999998,-7.11 1,0.72 2,1.4499999999999 3.0100000000001,2.1899999999998 C 576.57,677.0499999999999 572.1699999999998,678.7 567.71,680.21 Z"
         id="path1688" />
      <path
         style="opacity:1;fill:#2d588f;stroke-width:1.8569948673"
         inkscape:connector-curvature="0"
         d="m 448.35,673.44 c 2.89,1.8599999999999 5.74,3.78 8.48,5.8599999999999 C 453.37,678.21 449.98,676.9199999999998 446.6,675.6299999999996 447.04,675.08 447.92,673.98 448.35,673.44 Z"
         id="path1690" />
    </g>
    <g
       style="stroke-width:1.8569948673"
       id="#2c5790ff"
       transform="matrix(0.1899724115443142,0,0,0.1899724115443143,-607.80085684355,-1420.543442714986)">
      <path
         style="opacity:1;fill:#2c5790;stroke-width:1.8569948673"
         inkscape:connector-curvature="0"
         d="m 594.08,487.21 c 2.15,-0.5 4.3099999999996,-0.98 6.4699999999999,-1.47 C 600.98,493.92 602.7,502.18 601.5,510.36 c -2.3500000000003,-7.75 -5.04,-15.4 -7.42,-23.15 z"
         id="path1727" />
    </g>
    <g
       style="stroke-width:1.8569948673"
       id="#ababa2ff"
       transform="matrix(0.1899724115443142,0,0,0.1899724115443143,-607.80085684355,-1420.543442714986)">
      <path
         style="opacity:1;fill:#ababa2;stroke-width:1.8569948673"
         inkscape:connector-curvature="0"
         d="M 613.1299999999996,545.8099999999999 C 618.87,547.4199999999998 624.58,549.1599999999998 630.2999999999999,550.87 628.97,552.0099999999996 627.6399999999996,553.1499999999997 626.2899999999998,554.2699999999997 622.45,553.0199999999997 618.58,551.84 614.7,550.72 c -0.5300000000002,-1.64 -1.0500000000003,-3.28 -1.5700000000004,-4.9100000000001 z"
         id="path1740" />
    </g>
    <g
       style="stroke-width:1.8569948673"
       id="#2b5791ff"
       transform="matrix(0.1899724115443142,0,0,0.1899724115443143,-607.80085684355,-1420.543442714986)">
      <path
         style="opacity:1;fill:#2b5791;stroke-width:1.8569948673"
         inkscape:connector-curvature="0"
         d="m 614.7,550.72 c 3.88,1.12 7.75,2.2999999999997 11.5899999999998,3.5499999999997 C 623.58,556.48 620.82,558.61 617.8999999999997,560.5399999999998 616.7899999999998,557.2799999999997 615.73,554.0099999999996 614.7,550.72 Z"
         id="path1746" />
    </g>
    <g
       style="stroke-width:1.8569948673"
       id="#a9aba6ff"
       transform="matrix(0.1899724115443142,0,0,0.1899724115443143,-607.80085684355,-1420.543442714986)">
      <path
         style="opacity:1;fill:#a9aba6;stroke-width:1.8569948673"
         inkscape:connector-curvature="0"
         d="M 513.5599999999999,557.57 513.97,558.1 c 0.01,20.47 -0.4400000000003,40.9499999999999 0.1899999999998,61.4199999999997 C 488.44,631.8099999999999 461.49,641.44 433.94,648.69 c 26.4,-30.49 53.21,-60.6300000000001 79.62,-91.12 z"
         id="path1749" />
      <path
         style="opacity:1;fill:#a9aba6;stroke-width:1.8569948673"
         inkscape:connector-curvature="0"
         d="m 511.83,629.2 c 1.14,-0.5700000000004 2.2999999999997,-1.12 3.47,-1.6600000000002 C 514.99,638.2699999999997 515.22,649 515.1499999999997,659.73 520.33,659.97 525.5,660.5499999999999 530.6,661.49 c 2.73,-5.8 4.98,-11.8 6.9099999999996,-17.91 1.25,0.87 2.5200000000001,1.74 3.7900000000003,2.61 l -0.03,0.1099999999999 C 539.5499999999999,651.7999999999999 537.23,657.07 535.11,662.4199999999998 541.6,664.37 547.9199999999998,666.8799999999996 553.8999999999997,670.08 556.2,666.8999999999997 558.45,663.7 560.6599999999998,660.47 c 1.1900000000002,0.86 2.38,1.72 3.5700000000002,2.61 -2.16,3.14 -4.3400000000004,6.27 -6.53,9.39 2.1799999999996,1.52 4.3499999999999,3.0499999999997 6.53,4.6 3.35,-2.2 6.6699999999997,-4.4200000000003 10.02,-6.62 C 575.47,671.3099999999999 576.69,672.22 577.9199999999998,673.1 574.5299999999997,675.48 571.1,677.82 567.71,680.21 c 4.4599999999998,-1.51 8.86,-3.1600000000001 13.2199999999999,-4.9200000000002 1.38,1 2.75,2.0200000000001 4.12,3.0500000000002 C 540.0399999999998,697.99 487,698.0399999999998 441.98,678.4199999999998 425.76,690.44 409.36,702.2 393.1,714.1599999999998 378.24,724.84 363.65,735.8999999999997 348.65,746.37 c 0.46,-1.12 0.94,-2.2100000000002 1.61,-3.2000000000002 C 353.1,740.7 355.87,738.1299999999996 358.18,735.1399999999996 377.84,712.5099999999996 397.76,690.11 417.38,667.45 c 2.49,-2.8200000000004 4.84,-6.2800000000002 8.73,-7.22 9.11,-2.48 18.27,-4.8400000000004 27.19,-7.9700000000004 C 470.68,646.7699999999997 487.37,639.4099999999998 504.28,632.69 499.25,636.7899999999998 493.95,640.5599999999999 488.72,644.3999999999997 490.75,650.1299999999996 492.92,655.8099999999999 495.4,661.37 c 5.18,-0.9400000000001 10.43,-1.4500000000002 15.7,-1.6000000000003 C 511,649.6799999999999 511.21,639.59 510.96,629.5099999999996 L 511.37,629.32 l -0.35,-0.86 0.81,0.74 m -27.04,18.14 c -6.44,4.38 -12.54,9.24 -18.93,13.7099999999999 1.99,2.9100000000001 4,5.82 6.0299999999999,8.7099999999997 6.07,-3.13 12.4400000000001,-5.6499999999996 19.01,-7.4899999999999 C 488.68,657.36 487.31,652.1 484.79,647.34 m -32.28,23.5799999999998 C 455.45,672.8799999999996 458.4,674.84 461.33,676.83 c 2.24,-1.62 4.48,-3.23 6.71,-4.86 -1.9100000000001,-2.72 -3.78,-5.47 -5.6000000000001,-8.24 -3.41,2.25 -6.73,4.63 -9.93,7.1899999999998 M 462.86,681.3099999999999 C 495.15,691.2 530.3999999999997,691.3999999999997 562.74,681.6599999999998 c -27.66,-23.5200000000002 -71.99,-23.5 -99.88,-0.3499999999999 M 448.35,673.44 c -0.43,0.54 -1.31,1.64 -1.75,2.1899999999996 3.38,1.2900000000002 6.77,2.5800000000004 10.23,3.6700000000003 -2.74,-2.0799999999999 -5.5899999999999,-4 -8.48,-5.8599999999999 z"
         id="path1751" />
    </g>
    <g
       style="stroke-width:1.8569948673"
       id="#b9bab5ff"
       transform="matrix(0.1899724115443142,0,0,0.1899724115443143,-607.80085684355,-1420.543442714986)">
      <path
         style="opacity:1;fill:#b9bab5;stroke-width:1.8569948673"
         inkscape:connector-curvature="0"
         d="m 513.97,558.1 c 3.97,4.3299999999999 7.97,8.64 11.77,13.12 8.33,9.75 17.23,19.0399999999996 25.0599999999999,29.1999999999998 -12.0400000000003,6.7000000000002 -24.12,13.3399999999998 -36.6400000000001,19.0999999999999 C 513.5299999999997,599.0499999999999 513.98,578.57 513.97,558.1 Z"
         id="path1754" />
      <path
         style="opacity:1;fill:#b9bab5;stroke-width:1.8569948673"
         inkscape:connector-curvature="0"
         d="m 515.2999999999999,627.5399999999998 c 13.9799999999998,-6.25 27.82,-12.8599999999999 41.3299999999997,-20.0799999999998 3.75,3.2199999999999 7.0500000000003,6.91 10.2000000000004,10.7199999999999 33.42,38.2199999999998 66.86,76.4400000000001 100.3299999999998,114.63 C 669.9299999999999,736.36 673.11,739.5599999999999 676.7599999999996,742.22 c 0.75,1.2999999999997 1.1400000000001,2.74 1.6600000000002,4.1599999999996 C 647.21,723.82 616.19,701 585.0499999999999,678.34 c -1.37,-1.0300000000001 -2.74,-2.0500000000002 -4.12,-3.0500000000002 C 579.9199999999998,674.5499999999999 578.9199999999998,673.82 577.9199999999998,673.1 576.69,672.22 575.47,671.3099999999999 574.25,670.45 c -3.3700000000003,-2.4300000000003 -6.7,-4.8900000000001 -10.02,-7.37 -1.1900000000002,-0.89 -2.38,-1.75 -3.5700000000002,-2.61 C 554.1799999999999,655.7699999999997 547.6,651.2 541.2699999999997,646.2999999999999 l 0.03,-0.1099999999999 c -1.2700000000001,-0.87 -2.5400000000002,-1.74 -3.7900000000002,-2.61 -7.4799999999999,-5.25 -14.6999999999998,-10.84 -22.2099999999996,-16.0400000000002 z"
         id="path1756" />
    </g>
    <g
       style="stroke-width:1.8569948673"
       id="#2b588fff"
       transform="matrix(0.1899724115443142,0,0,0.1899724115443143,-607.80085684355,-1420.543442714986)">
      <path
         style="opacity:1;fill:#2b588f;stroke-width:1.8569948673"
         inkscape:connector-curvature="0"
         d="M 634.3999999999997,611.1499999999997 C 640.2599999999996,614.22 645.5399999999998,618.21 650.59,622.45 c -3.0400000000001,3.55 -6.1,7.0799999999997 -9.1800000000002,10.5899999999998 C 639.0399999999998,625.75 636.6499999999997,618.47 634.3999999999997,611.1499999999997 Z"
         id="path1759" />
    </g>
    <g
       id="#fcfeffff"
       transform="matrix(0.1899724115443142,0,0,0.1899724115443143,-607.80085684355,-1420.543442714986)"
       style="fill:#ffffff;stroke-width:1.8569948673">
      <g
         id="g2307"
         style="fill:#ffffff;stroke-width:1.8569948673">
        <path
           inkscape:connector-curvature="0"
           id="path2258"
           d="m -257.2426002358246,-1395.408634724706 c -0.4092222354919,0.617361131131 -0.4092222354919,1.728611167164 0.4480277923057,1.957916730155 0.8219722488755,0.356305567109 1.8344445039284,-0.451555570199 1.5345833830939,-1.337027821133 -0.088194447304,-0.945444475102 -1.3229167095638,-1.083027812896 -1.9826111753995,-0.620888909022"
           style="opacity:1;fill:#ffffff;stroke-width:0.6551065445"
           transform="matrix(2.834645577374588,0,0,2.834645577374588,988.4215990708189,4290.688915052684)" />
        <path
           inkscape:connector-curvature="0"
           id="path2240"
           d="m -253.5137390038032,-1333.369132713001 c -0.3915833460309,0.433916680737 -0.7373055794636,0.91016669618 -1.0689167013276,1.393472267408 -0.82902780466,0.13052778201 -1.6580556093199,0.250472230344 -2.4765000803035,0.426861124952 0.8149166930913,0.204611117746 1.6439444977513,0.363361122894 2.4765000803033,0.493888904904 0.3351388997564,0.493888904904 0.680861133189,0.980722254023 1.0583333676511,1.453444491574 0.2398888966676,1.319388931672 0.1693333388243,2.681111198049 0.4727222375509,3.993444573937 0.127000004118,-1.270000041182 0.1058333367651,-2.557638971824 0.3033888987267,-3.820583457221 0.3210277881875,-0.567972240639 0.7196666900027,-1.09008336868 1.0759722571118,-1.636888941967 0.8572500277973,-0.116416670441 1.7145000555948,-0.257527786128 2.5682223054998,-0.409222235491 -0.8678333614739,-0.194027784069 -1.7391945008398,-0.35630556711 -2.6140834180979,-0.508000016473 -0.349250011325,-0.529166683825 -0.7267222457871,-1.044222256082 -1.1253611476024,-1.534583383094 0.010583333676,-1.188861149661 -0.056444446275,-2.377722299322 -0.2151944514223,-3.556000115307 -0.2187222293146,1.224138928583 -0.229305562991,2.476500080303 -0.4550833480899,3.704166786778"
           style="opacity:1;fill:#ffffff;stroke-width:0.6551065445"
           transform="matrix(2.834645577374588,0,0,2.834645577374588,988.4215990708189,4290.688915052684)" />
        <path
           inkscape:connector-curvature="0"
           id="path2238"
           d="m -57.13292708036681,-1334.730854979378 c -0.32455556607971,1.5769167178 -0.27516667558927,3.199694548198 -0.53269446171771,4.787194599675 -0.58561113010024,0.500944460689 -1.02305558872933,1.128888925494 -1.33350004324035,1.830916726036 -1.15358337073967,0.176388894609 -2.31422229726359,0.306916676619 -3.45016677854251,0.567972240639 1.10066670235711,0.222250007208 2.23308340574386,0.296333342943 3.3231667744244,0.589138907993 0.49388890490382,0.63500002059 0.90311114039541,1.337027821132 1.45344449157414,1.929694507018 0.25752778612832,1.615722274613 0.13758333779458,3.273777883933 0.59619446377662,4.857750157518 0.0776111136278,-1.615722274614 0.22225000720671,-3.227916771336 0.29280556505023,-4.843639045951 0.50800001647242,-0.582083352208 0.94897225299367,-1.220611150691 1.32644448745602,-1.894416728095 1.12183336970998,-0.225777785098 2.2613056288809,-0.388055568138 3.3690278870224,-0.694972244758 -1.13947225917093,-0.183444450392 -2.27541674044965,-0.335138899755 -3.40783344383629,-0.52211112804 -0.32808334397186,-0.691444466866 -0.74083335735587,-1.340555599024 -1.29469448642648,-1.873250060743 -0.0917222251965,-1.5769167178 -0.0776111136277,-3.175000102952 -0.3421944555405,-4.734277931292"
           style="opacity:1;fill:#ffffff;stroke-width:0.6551065445"
           transform="matrix(2.834645577374588,0,0,2.834645577374588,988.4215990708189,4290.688915052684)" />
        <path
           inkscape:connector-curvature="0"
           id="path2230"
           d="m -86.29706691493761,-1316.513409944212 c 0.19050000617723,0.37394445657 0.38452779024648,0.751416691033 0.57502779642374,1.132416703387 0.57502779642374,0.127000004118 1.21708337279864,0.557388906963 1.78858339133029,0.179916672501 1.28763893064203,-0.508000016473 1.03716670029807,-3.005666764129 -0.50094446068813,-2.903361205256 -1.01600003294503,-0.201083339854 -1.68627783245738,0.705555578434 -1.8626667270659,1.591027829368"
           style="opacity:1;fill:#ffffff;stroke-width:0.6551065445"
           transform="matrix(2.834645577374588,0,0,2.834645577374588,988.4215990708189,4290.688915052684)" />
        <path
           inkscape:connector-curvature="0"
           id="path2220"
           d="m -61.52501055611878,-1296.539131518744 c -0.19050000617704,1.418166712652 -0.19755556196138,2.853972314765 -0.39863890181521,4.27566680531 -0.50800001647243,0.50447223858 -0.90663891828762,1.104194480249 -1.35819448848549,1.654527831428 -0.95250003088584,0.232833340883 -1.93675006280134,0.303388898726 -2.8927778715794,0.497416682796 0.9877778098075,0.229305562991 1.9861389532918,0.405694457599 2.98450009677586,0.592666685884 0.39511112392303,0.691444466866 0.9207500298564,1.298222264319 1.31233337588724,1.993194509077 0.18697222828506,1.351138932701 0.10230555887302,2.726972310647 0.30691667661879,4.078111243348 0.27869445348153,-1.425222268436 0.31397223240315,-2.882194537903 0.44450001441349,-4.3250556958 0.44097223652125,-0.539750017502 0.84313891622867,-1.107722258142 1.1853333717691,-1.710972277703 1.00188892137646,-0.194027784069 2.01436117642929,-0.359833345001 3.01625009780561,-0.578555574316 -0.97719447613117,-0.215194451422 -1.9685000638309,-0.366888900786 -2.95980565153082,-0.479777793335 -0.33161112186388,-0.624416686914 -0.73730557946346,-1.199444483338 -1.23472226225956,-1.696861166134 -0.15875000514756,-1.432277824221 -0.10936111465719,-2.889250093687 -0.40569445759963,-4.300361250555"
           style="opacity:1;fill:#ffffff;stroke-width:0.6551065445"
           transform="matrix(2.834645577374588,0,0,2.834645577374588,988.4215990708189,4290.688915052684)" />
        <path
           id="path1693"
           d="m 267.4,405.53 c -1.69,-2.18 -1.16,-4.79 0.52,-6.78 2.95,-0.07 5.04,1.8 4.95,4.8 -0.44,0.48 -1.33,1.44 -1.77,1.92 -0.93,0.02 -2.78,0.05 -3.7,0.06 z"
           inkscape:connector-curvature="0"
           style="opacity:1;fill:#ffffff;stroke-width:1.8569948673" />
        <path
           id="path1696"
           d="m 206.55,427.14 c 2.23,0.11 5.3,0.91 4.61,3.88 0.1,2.63 -2.83,2.6 -4.68,2.87 -0.4,-0.45 -1.21,-1.35 -1.61,-1.8 0,-0.77 0.01,-2.33 0.01,-3.1 0.42,-0.46 1.25,-1.39 1.67,-1.85 z"
           inkscape:connector-curvature="0"
           style="opacity:1;fill:#ffffff;stroke-width:1.8569948673" />
        <path
           id="path1699"
           d="m 180.14,440.05 c 0.25,-1.53 -0.08,-3.83 1.9,-4.29 2.37,-1.29 3.94,1.41 4.5,3.32 -1.03,0.87 -2.07,1.73 -3.12,2.58 -0.82,-0.41 -2.46,-1.21 -3.28,-1.61 z"
           inkscape:connector-curvature="0"
           style="opacity:1;fill:#ffffff;stroke-width:1.8569948673" />
        <path
           id="path1702"
           d="m 243.8,440.05 c 1.07,-1.23 2.06,-4.01 4.19,-3.02 3.25,0.2 3.09,5.6100000000002 -0.15,5.78 -1.95,0.69 -2.85,-1.78 -4.04,-2.76 z"
           inkscape:connector-curvature="0"
           style="opacity:1;fill:#ffffff;stroke-width:1.8569948673" />
        <path
           id="path1705"
           d="m 285.17,447.93 c 0.2,-1.57 0.36,-3.24 1.76,-4.25 1.58,-0.27 3.03,0.48 4.42,1.12 -0.02,0.82 -0.06,2.46 -0.07,3.28 -0.42,0.4 -1.25,1.19 -1.66,1.58 -0.66,-0.01 -1.99,-0.04 -2.65,-0.05 -0.45,-0.4200000000001 -1.35,-1.26 -1.8,-1.68 z"
           inkscape:connector-curvature="0"
           style="opacity:1;fill:#ffffff;stroke-width:1.8569948673" />
        <path
           id="path1708"
           d="m 204.87,447.45 c 1.63,-0.24 3.28,-0.28 4.92,-0.1 -0.11,1.62 -0.3,3.24 -0.54,4.85 -1.46,-0.24 -2.92,-0.48 -4.37,-0.76 0,-1 -0.01,-2.99 -0.01,-3.99 z"
           inkscape:connector-curvature="0"
           style="opacity:1;fill:#ffffff;stroke-width:1.8569948673" />
        <path
           id="path1711"
           d="m 214.4,457.3 c 1.47,-1.5 4.34,-2.87 5.83,-0.67 2.21,1.76 0.48,6.03 -2.27,5.78 -1.49,0.2799999999999 -2.41,-1.1 -3.55,-1.74 -0.01,-1.13 -0.01,-2.25 -0.01,-3.37 z"
           inkscape:connector-curvature="0"
           style="opacity:1;fill:#ffffff;stroke-width:1.8569948673" />
        <path
           id="path1713"
           d="m 827.0199999999997,570.69 c -4.0499999999998,-0.04 -4.6300000000001,-6.5400000000003 -0.9599999999999,-7.7900000000003 C 828.85,561.4199999999998 831.35,564.08 832.32,566.49 c -0.8900000000001,2.21 -2.48,4.83 -5.3000000000003,4.2 z"
           inkscape:connector-curvature="0"
           style="opacity:1;fill:#ffffff;stroke-width:1.8569948673" />
        <path
           id="path1715"
           d="m 747.6699999999998,590.74 c 1.0899999999998,-1.8300000000002 2.5100000000001,-3.41 4.37,-4.5 1.63,0.87 4.0400000000002,1.48 4.3100000000002,3.6799999999998 0.62,2.0300000000002 -0.9200000000001,3.5 -2.0800000000003,4.9200000000002 -0.8599999999999,0.02 -2.5899999999998,0.07 -3.4499999999997,0.09 C 749.6499999999997,593.62 748.62,592.2 747.6699999999998,590.74 Z"
           inkscape:connector-curvature="0"
           style="opacity:1;fill:#ffffff;stroke-width:1.8569948673" />
        <path
           id="path1718"
           d="m 264.4,476.11 c -0.19,-2.41 3.29,-4.19 5.15,-2.5 1.5899999999999,0.7 1.13,2.77 1.61,4.13 -1.27,0.73 -2.55,1.43 -3.84,2.13 -1.2,-1.07 -3.47,-1.75 -2.92,-3.76 z"
           inkscape:connector-curvature="0"
           style="opacity:1;fill:#ffffff;stroke-width:1.8569948673" />
        <path
           id="path1720"
           d="m 724.0099999999996,589.96 c 1.0800000000003,-1.6500000000001 2.5200000000001,-3.99 4.88,-3.09 3.1500000000001,0.5099999999996 3.5400000000002,6.23 0.09,6.5499999999998 C 726.35,594.3799999999996 725.12,591.74 724.0099999999996,589.96 Z"
           inkscape:connector-curvature="0"
           style="opacity:1;fill:#ffffff;stroke-width:1.8569948673" />
        <path
           id="path1730"
           d="M 780.5099999999996,519.7599999999996 C 782.5399999999998,518.74 784.75,518.96 786.9199999999998,519.37 787.1399999999996,521.24 787.99,523.85 785.86,524.95 c -1.8100000000001,1.3299999999997 -3.63,-0.08 -5.3200000000002,-0.8000000000003 -0.02,-1.4699999999998 -0.03,-2.9299999999997 -0.03,-4.3900000000001 z"
           inkscape:connector-curvature="0"
           style="opacity:1;fill:#ffffff;stroke-width:1.8569948673" />
        <path
           id="path1732"
           d="M 800.82,613.1299999999996 C 802.35,612.07 803.83,610.2699999999997 805.9299999999999,610.87 808.36,610.7 808.96,613.33 809.99,614.98 c -0.9400000000001,2.1 -2.16,5.0399999999997 -5.03,4.4499999999999 C 801.3099999999999,619.8799999999996 800.72,615.82 800.82,613.1299999999996 Z"
           inkscape:connector-curvature="0"
           style="opacity:1;fill:#ffffff;stroke-width:1.8569948673" />
        <path
           id="path1737"
           d="M 788.96,543.7899999999998 C 789.2,541.72 788.7899999999998,538.84 791.1,537.7999999999999 c 1.75,-0.5200000000002 3.9099999999996,-0.6500000000002 5.49,0.4599999999997 C 798.1,539.6499999999997 797.74,541.86 798.0199999999997,543.7 796.72,544.5599999999999 795.71,546.24 793.98,546.1399999999996 c -2.0500000000001,0.37 -3.49,-1.3599999999999 -5.02,-2.3499999999998 z"
           inkscape:connector-curvature="0"
           style="opacity:1;fill:#ffffff;stroke-width:1.8569948673" />
        <path
           id="path1743"
           d="M 837.6299999999996,552.6799999999999 C 839.19,551.59 840.74,549.5399999999998 842.9099999999998,550.25 c 1.9600000000001,0.75 3.7199999999998,2.61 3.13,4.8899999999996 C 845.85,558.4099999999998 841.6699999999998,559.32 839.2699999999997,557.82 837.7599999999996,556.5599999999999 838.07,554.3899999999996 837.6299999999996,552.6799999999999 Z"
           inkscape:connector-curvature="0"
           style="opacity:1;fill:#ffffff;stroke-width:1.8569948673" />
        <path
           id="path1762"
           d="m 828.32,625.3999999999997 c 0.9699999999998,-0.4299999999998 1.9499999999997,-0.86 2.93,-1.2800000000002 1.3,1.0200000000001 3.3799999999997,1.7300000000004 3.1499999999998,3.7900000000002 0.3900000000001,2.0400000000002 -1.8900000000001,2.9100000000002 -3.0999999999998,4.0600000000002 -1.0100000000001,-0.4600000000003 -2.0100000000001,-0.9100000000001 -3,-1.3600000000005 C 827.9299999999999,629.75 827.58,628.8899999999996 827.24,628.0399999999998 c 0.35,-0.8900000000001 0.71,-1.7700000000001 1.08,-2.6400000000001 z"
           inkscape:connector-curvature="0"
           style="opacity:1;fill:#ffffff;stroke-width:1.8569948673" />
        <path
           id="path1765"
           d="M 731.0199999999997,639.9299999999999 C 731.61,635.98 738.2899999999998,636.19 738.58,640.22 c 0.61,2.03 -1.08,3.4099999999996 -2.3200000000004,4.7099999999999 -0.8399999999998,-0.01 -2.5199999999996,-0.03 -3.3599999999999,-0.04 -1.13,-1.3899999999994 -2.6099999999999,-3.01 -1.88,-4.9599999999999 z"
           inkscape:connector-curvature="0"
           style="opacity:1;fill:#ffffff;stroke-width:1.8569948673" />
      </g>
    </g>
    <g
       aria-label="UNITED STATES SPACE FORCE"
       style="font-style:normal;font-variant:normal;font-weight:normal;font-stretch:normal;font-size:11.2301921844px;line-height:1.2000000477;font-family:'EngraversGothicBT Heavy';-inkscape-font-specification:'EngraversGothicBT Heavy, ';text-align:center;letter-spacing:1.2038542032px;word-spacing:0px;writing-mode:lr-tb;text-anchor:middle;fill:#ffffff;fill-opacity:1;stroke:none;stroke-width:0.2645833194"
       id="text933">
      <path
         d="m -595.1730616497244,-1255.028568325043 c 1.8979024791714,0 2.7738574695585,-0.685041723251 2.7738574695585,-2.369570550918 v -4.402235336304 h -1.3139324855804 v 4.200091876984 c 0,1.078098449707 -0.2133736515044,1.302702293396 -1.4599249839781,1.302702293396 -1.2465513324738,0 -1.4599249839786,-0.224603843689 -1.4599249839786,-1.302702293396 v -4.200091876984 h -1.3139324855802 v 4.402235336304 c 0,1.684528827667 0.8759549903867,2.369570550918 2.7738574695587,2.369570550918 z"
         style="font-style:normal;font-variant:normal;font-weight:normal;font-stretch:normal;font-family:'EngraversGothicBT Heavy';-inkscape-font-specification:'EngraversGothicBT Heavy, ';letter-spacing:1.2038542032px;fill:#ffffff;stroke-width:0.2645833194"
         id="path1247"
         inkscape:connector-curvature="0" />
      <path
         d="m -585.2419443153587,-1255.185791015625 h 0.7861134529113 v -6.61458319664 h -1.3139324855805 v 4.054099378586 l -3.5262803459168,-4.054099378586 h -0.7973436450958 v 6.61458319664 h 1.3139324855805 v -4.054099378586 z"
         style="font-style:normal;font-variant:normal;font-weight:normal;font-stretch:normal;font-family:'EngraversGothicBT Heavy';-inkscape-font-specification:'EngraversGothicBT Heavy, ';letter-spacing:1.2038542032px;fill:#ffffff;stroke-width:0.2645833194"
         id="path1249"
         inkscape:connector-curvature="0" />
      <path
         d="m -581.9910364269461,-1255.163330631256 h 1.3251626777646 v -6.670734157562 h -1.3251626777646 z"
         style="font-style:normal;font-variant:normal;font-weight:normal;font-stretch:normal;font-family:'EngraversGothicBT Heavy';-inkscape-font-specification:'EngraversGothicBT Heavy, ';letter-spacing:1.2038542032px;fill:#ffffff;stroke-width:0.2645833194"
         id="path1251"
         inkscape:connector-curvature="0" />
      <path
         d="m -575.8406333088129,-1260.542592687607 h 2.5492536258697 v -1.257781524658 h -6.4124397373199 v 1.257781524658 h 2.5492536258697 v 5.356801671982 h 1.3139324855805 z"
         style="font-style:normal;font-variant:normal;font-weight:normal;font-stretch:normal;font-family:'EngraversGothicBT Heavy';-inkscape-font-specification:'EngraversGothicBT Heavy, ';letter-spacing:1.2038542032px;fill:#ffffff;stroke-width:0.2645833194"
         id="path1253"
         inkscape:connector-curvature="0" />
      <path
         d="m -572.3124797081202,-1255.185791015625 h 5.5701753234863 v -1.257781524658 h -4.2562428379058 v -1.628377866745 h 2.4257215118408 v -1.257781524658 h -2.4257215118408 v -1.212860755921 h 4.0091786098479 v -1.257781524658 h -5.3231110954284 z"
         style="font-style:normal;font-variant:normal;font-weight:normal;font-stretch:normal;font-family:'EngraversGothicBT Heavy';-inkscape-font-specification:'EngraversGothicBT Heavy, ';letter-spacing:1.2038542032px;fill:#ffffff;stroke-width:0.2645833194"
         id="path1255"
         inkscape:connector-curvature="0" />
      <path
         d="m -562.0921849846095,-1255.185791015625 c 2.1674270915985,0 3.4588991928103,-1.392543830872 3.4588991928103,-3.290446310043 0,-1.909132671357 -1.3476230621341,-3.324136886597 -3.4588991928103,-3.324136886597 h -2.8749291992187 v 6.61458319664 z m 0,-5.356801671982 c 1.3476230621339,0 2.1225063228608,0.853494606018 2.1225063228608,2.055125169754 0,1.212860755921 -0.7187322998045,2.04389497757 -2.1225063228608,2.04389497757 h -1.5609967136382 v -4.099020147324 z"
         style="font-style:normal;font-variant:normal;font-weight:normal;font-stretch:normal;font-family:'EngraversGothicBT Heavy';-inkscape-font-specification:'EngraversGothicBT Heavy, ';letter-spacing:1.2038542032px;fill:#ffffff;stroke-width:0.2645833194"
         id="path1257"
         inkscape:connector-curvature="0" />
      <path
         d="m -548.8383928989619,-1255.028568325043 c 1.7968307495117,0 2.9535405445099,-0.965796527862 2.9535405445099,-2.223578052521 0,-1.11178902626 -0.8871851825711,-1.92036286354 -2.2460384368893,-2.077585554122 -0.5615096092228,-0.05615096092 -1.0556380653385,-0.06738115311 -1.4711551761631,-0.112301921845 -0.2919849967952,-0.03369057655 -1.0668682575225,-0.123532114029 -1.0668682575225,-0.572739801407 0,-0.247064228058 0.3593661499024,-0.651351146698 1.2914721012119,-0.651351146698 0.7973436450955,0 1.5609967136379,0.280754804611 2.5043328571315,1.033177680969 l 0.7636530685426,-1.100558834075 c -1.1342494106293,-0.83103422165 -2.1898874759671,-1.201630563736 -3.2792161178587,-1.201630563736 -1.5048457527163,0 -2.627864971161,0.797343645096 -2.627864971161,1.954053440094 0,0.662581338882 0.3818265342711,1.201630563736 1.0219474887847,1.504845752716 0.7524228763583,0.348135957718 1.7856005573276,0.336905765533 2.5941743946075,0.40428691864 0.8759549903871,0.06738115311 1.1567097949982,0.460437879562 1.1567097949982,0.797343645096 0,0.482898263931 -0.5053586483,0.988256912231 -1.6059174823761,0.988256912231 -0.8198040294644,0 -1.7069892120362,-0.325675573349 -2.7738574695587,-1.145479602814 l -0.7524228763581,1.111789026261 c 1.201630563736,0.932105951309 2.2909592056275,1.291472101211 3.5375105381012,1.291472101211 z"
         style="font-style:normal;font-variant:normal;font-weight:normal;font-stretch:normal;font-family:'EngraversGothicBT Heavy';-inkscape-font-specification:'EngraversGothicBT Heavy, ';letter-spacing:1.2038542032px;fill:#ffffff;stroke-width:0.2645833194"
         id="path1259"
         inkscape:connector-curvature="0" />
      <path
         d="m -541.4168719410148,-1260.542592687607 h 2.5492536258696 v -1.257781524658 h -6.4124397373198 v 1.257781524658 h 2.5492536258696 v 5.356801671982 h 1.3139324855806 z"
         style="font-style:normal;font-variant:normal;font-weight:normal;font-stretch:normal;font-family:'EngraversGothicBT Heavy';-inkscape-font-specification:'EngraversGothicBT Heavy, ';letter-spacing:1.2038542032px;fill:#ffffff;stroke-width:0.2645833194"
         id="path1261"
         inkscape:connector-curvature="0" />
      <path
         d="m -532.9137432026118,-1255.185791015625 h 1.4374645996095 l -3.2679859256746,-6.61458319664 h -0.9882569122311 l -3.2342953491211,6.61458319664 h 1.4374645996091 l 0.7973436450958,-1.628377866745 h 2.9984613132481 z m -2.3246497821807,-4.67175994873 0.8871851825713,1.774370365142 h -1.7631401729579 z"
         style="font-style:normal;font-variant:normal;font-weight:normal;font-stretch:normal;font-family:'EngraversGothicBT Heavy';-inkscape-font-specification:'EngraversGothicBT Heavy, ';letter-spacing:1.2038542032px;fill:#ffffff;stroke-width:0.2645833194"
         id="path1263"
         inkscape:connector-curvature="0" />
      <path
         d="m -527.7131709217278,-1260.542592687607 h 2.5492536258696 v -1.257781524658 h -6.4124397373198 v 1.257781524658 h 2.5492536258697 v 5.356801671982 h 1.3139324855805 z"
         style="font-style:normal;font-variant:normal;font-weight:normal;font-stretch:normal;font-family:'EngraversGothicBT Heavy';-inkscape-font-specification:'EngraversGothicBT Heavy, ';letter-spacing:1.2038542032px;fill:#ffffff;stroke-width:0.2645833194"
         id="path1265"
         inkscape:connector-curvature="0" />
      <path
         d="m -524.185013506338,-1255.185791015625 h 5.5701753234863 v -1.257781524658 h -4.2562428379058 v -1.628377866745 h 2.4257215118411 v -1.257781524658 h -2.4257215118411 v -1.212860755921 h 4.0091786098482 v -1.257781524658 h -5.3231110954287 z"
         style="font-style:normal;font-variant:normal;font-weight:normal;font-stretch:normal;font-family:'EngraversGothicBT Heavy';-inkscape-font-specification:'EngraversGothicBT Heavy, ';letter-spacing:1.2038542032px;fill:#ffffff;stroke-width:0.2645833194"
         id="path1267"
         inkscape:connector-curvature="0" />
      <path
         d="m -513.9759546970575,-1255.028568325043 c 1.7968307495116,0 2.9535405445096,-0.965796527862 2.9535405445096,-2.223578052521 0,-1.11178902626 -0.8871851825712,-1.92036286354 -2.2460384368896,-2.077585554122 -0.5615096092224,-0.05615096092 -1.055638065338,-0.06738115311 -1.4711551761627,-0.112301921845 -0.2919849967952,-0.03369057655 -1.0668682575225,-0.123532114029 -1.0668682575225,-0.572739801407 0,-0.247064228058 0.3593661499025,-0.651351146698 1.2914721012115,-0.651351146698 0.7973436450958,0 1.5609967136384,0.280754804611 2.5043328571319,1.033177680969 l 0.7636530685425,-1.100558834075 c -1.134249410629,-0.83103422165 -2.1898874759674,-1.201630563736 -3.2792161178585,-1.201630563736 -1.5048457527164,0 -2.627864971161,0.797343645096 -2.627864971161,1.954053440094 0,0.662581338882 0.381826534271,1.201630563736 1.0219474887848,1.504845752716 0.7524228763581,0.348135957718 1.785600557327,0.336905765533 2.5941743946073,0.40428691864 0.8759549903872,0.06738115311 1.1567097949984,0.460437879562 1.1567097949984,0.797343645096 0,0.482898263931 -0.5053586483001,0.988256912231 -1.6059174823763,0.988256912231 -0.8198040294644,0 -1.7069892120362,-0.325675573349 -2.7738574695586,-1.145479602814 l -0.7524228763582,1.111789026261 c 1.2016305637361,0.932105951309 2.2909592056277,1.291472101211 3.5375105381014,1.291472101211 z"
         style="font-style:normal;font-variant:normal;font-weight:normal;font-stretch:normal;font-family:'EngraversGothicBT Heavy';-inkscape-font-specification:'EngraversGothicBT Heavy, ';letter-spacing:1.2038542032px;fill:#ffffff;stroke-width:0.2645833194"
         id="path1269"
         inkscape:connector-curvature="0" />
      <path
         d="m -501.1057383274287,-1255.028568325043 c 1.7968307495117,0 2.9535405445099,-0.965796527862 2.9535405445099,-2.223578052521 0,-1.11178902626 -0.8871851825714,-1.92036286354 -2.2460384368896,-2.077585554122 -0.5615096092225,-0.05615096092 -1.0556380653382,-0.06738115311 -1.4711551761628,-0.112301921845 -0.2919849967956,-0.03369057655 -1.0668682575226,-0.123532114029 -1.0668682575226,-0.572739801407 0,-0.247064228058 0.3593661499024,-0.651351146698 1.2914721012115,-0.651351146698 0.7973436450958,0 1.5609967136383,0.280754804611 2.5043328571319,1.033177680969 l 0.7636530685425,-1.100558834075 c -1.1342494106293,-0.83103422165 -2.1898874759674,-1.201630563736 -3.2792161178588,-1.201630563736 -1.504845752716,0 -2.6278649711609,0.797343645096 -2.6278649711609,1.954053440094 0,0.662581338882 0.3818265342713,1.201630563736 1.0219474887848,1.504845752716 0.7524228763581,0.348135957718 1.7856005573273,0.336905765533 2.5941743946076,0.40428691864 0.8759549903869,0.06738115311 1.1567097949981,0.460437879562 1.1567097949981,0.797343645096 0,0.482898263931 -0.5053586483001,0.988256912231 -1.605917482376,0.988256912231 -0.8198040294649,0 -1.7069892120361,-0.325675573349 -2.7738574695588,-1.145479602814 l -0.752422876358,1.111789026261 c 1.201630563736,0.932105951309 2.2909592056274,1.291472101211 3.5375105381012,1.291472101211 z"
         style="font-style:normal;font-variant:normal;font-weight:normal;font-stretch:normal;font-family:'EngraversGothicBT Heavy';-inkscape-font-specification:'EngraversGothicBT Heavy, ';letter-spacing:1.2038542032px;fill:#ffffff;stroke-width:0.2645833194"
         id="path1271"
         inkscape:connector-curvature="0" />
      <path
         d="m -492.2355225776881,-1257.836116371155 c 1.2914721012115,0 2.0775855541229,-0.887185182571 2.0775855541229,-2.043894977569 0,-1.201630563736 -0.8759549903869,-1.920362863541 -2.178657283783,-1.920362863541 h -3.7508841896057 v 6.61458319664 h 1.3139324855805 v -2.65032535553 z m -0.1123019218445,-2.706476316452 c 0.5952001857758,0 0.8422644138336,0.280754804611 0.8422644138336,0.729962491989 0,0.449207687378 -0.2246038436889,0.707502107621 -0.8759549903869,0.707502107621 h -2.3920309352875 v -1.43746459961 z"
         style="font-style:normal;font-variant:normal;font-weight:normal;font-stretch:normal;font-family:'EngraversGothicBT Heavy';-inkscape-font-specification:'EngraversGothicBT Heavy, ';letter-spacing:1.2038542032px;fill:#ffffff;stroke-width:0.2645833194"
         id="path1273"
         inkscape:connector-curvature="0" />
      <path
         d="m -483.2947704242915,-1255.185791015625 h 1.4374645996094 l -3.2679859256745,-6.61458319664 h -0.9882569122314 l -3.2342953491211,6.61458319664 h 1.4374645996094 l 0.7973436450958,-1.628377866745 h 2.9984613132477 z m -2.3246497821808,-4.67175994873 0.8871851825715,1.774370365142 h -1.7631401729584 z"
         style="font-style:normal;font-variant:normal;font-weight:normal;font-stretch:normal;font-family:'EngraversGothicBT Heavy';-inkscape-font-specification:'EngraversGothicBT Heavy, ';letter-spacing:1.2038542032px;fill:#ffffff;stroke-width:0.2645833194"
         id="path1275"
         inkscape:connector-curvature="0" />
      <path
         d="m -477.5326885341853,-1255.028568325043 c 1.3251626777649,0 2.4257215118408,-0.640120954513 3.1444538116455,-1.998974208832 l -1.0556380653381,-0.786113452911 c -0.5952001857758,1.111789026261 -1.2577815246582,1.516075944901 -2.0888157463073,1.516075944901 -1.1791701793671,0 -2.0775855541229,-0.887185182572 -2.0775855541229,-2.178657283783 0,-1.291472101212 0.8984153747558,-2.189887475967 2.0775855541229,-2.189887475967 0.7861134529114,0 1.4486947917939,0.381826534272 1.9203628635406,1.291472101213 l 1.1117890262603,-0.786113452911 c -0.7748832607269,-1.212860755921 -1.8192911338806,-1.774370365144 -3.032151889801,-1.774370365144 -1.9652836322784,0 -3.4139784240722,1.459924983978 -3.4139784240722,3.458899192809 0,1.998974208831 1.4486947917938,3.447669000625 3.4139784240722,3.447669000625 z"
         style="font-style:normal;font-variant:normal;font-weight:normal;font-stretch:normal;font-family:'EngraversGothicBT Heavy';-inkscape-font-specification:'EngraversGothicBT Heavy, ';letter-spacing:1.2038542032px;fill:#ffffff;stroke-width:0.2645833194"
         id="path1277"
         inkscape:connector-curvature="0" />
      <path
         d="m -472.4823157524318,-1255.185791015625 h 5.5701753234864 v -1.257781524658 h -4.2562428379059 v -1.628377866745 h 2.4257215118407 v -1.257781524658 h -2.4257215118407 v -1.212860755921 h 4.009178609848 v -1.257781524658 h -5.3231110954285 z"
         style="font-style:normal;font-variant:normal;font-weight:normal;font-stretch:normal;font-family:'EngraversGothicBT Heavy';-inkscape-font-specification:'EngraversGothicBT Heavy, ';letter-spacing:1.2038542032px;fill:#ffffff;stroke-width:0.2645833194"
         id="path1279"
         inkscape:connector-curvature="0" />
      <path
         d="m -458.8684488796443,-1260.542592687607 h 4.0091786098481 v -1.257781524658 h -5.3231110954285 v 6.61458319664 h 1.3139324855804 v -2.886159391403 h 2.4257215118408 v -1.257781524658 h -2.4257215118408 z"
         style="font-style:normal;font-variant:normal;font-weight:normal;font-stretch:normal;font-family:'EngraversGothicBT Heavy';-inkscape-font-specification:'EngraversGothicBT Heavy, ';letter-spacing:1.2038542032px;fill:#ffffff;stroke-width:0.2645833194"
         id="path1281"
         inkscape:connector-curvature="0" />
      <path
         d="m -450.4981578945369,-1255.028568325043 c 1.9652836322785,0 3.4252086162568,-1.448694791794 3.4252086162568,-3.447669000625 0,-1.998974208832 -1.4599249839783,-3.45889919281 -3.4252086162568,-3.45889919281 -1.9652836322784,0 -3.4139784240722,1.459924983978 -3.4139784240722,3.45889919281 0,1.998974208831 1.4486947917938,3.447669000625 3.4139784240722,3.447669000625 z m 0,-5.637556476593 c 1.1904003715515,0 2.077585554123,0.898415374756 2.077585554123,2.189887475968 0,1.280241909027 -0.8871851825715,2.178657283783 -2.077585554123,2.178657283783 -1.179170179367,0 -2.0775855541229,-0.887185182572 -2.0775855541229,-2.178657283783 0,-1.291472101212 0.8984153747559,-2.189887475968 2.0775855541229,-2.189887475968 z"
         style="font-style:normal;font-variant:normal;font-weight:normal;font-stretch:normal;font-family:'EngraversGothicBT Heavy';-inkscape-font-specification:'EngraversGothicBT Heavy, ';letter-spacing:1.2038542032px;fill:#ffffff;stroke-width:0.2645833194"
         id="path1283"
         inkscape:connector-curvature="0" />
      <path
         d="m -440.402620260641,-1255.185791015625 h 1.4823853683472 l -1.5722269058228,-2.762627277374 c 0.7973436450958,-0.291984996796 1.2914721012116,-1.021947488785 1.2914721012116,-1.886672286988 0,-1.246551332473 -0.8647247982026,-1.965283632278 -2.1786572837831,-1.965283632278 h -3.7508841896057 v 6.61458319664 h 1.3139324855804 v -2.65032535553 h 1.8979024791718 z m -0.9882569122314,-5.356801671982 c 0.5952001857757,0 0.8422644138336,0.280754804611 0.8422644138336,0.729962491989 0,0.449207687378 -0.224603843689,0.707502107621 -0.875954990387,0.707502107621 h -2.3920309352875 v -1.43746459961 z"
         style="font-style:normal;font-variant:normal;font-weight:normal;font-stretch:normal;font-family:'EngraversGothicBT Heavy';-inkscape-font-specification:'EngraversGothicBT Heavy, ';letter-spacing:1.2038542032px;fill:#ffffff;stroke-width:0.2645833194"
         id="path1285"
         inkscape:connector-curvature="0" />
      <path
         d="m -434.2501110195369,-1255.028568325043 c 1.325162677765,0 2.4257215118409,-0.640120954513 3.1444538116456,-1.998974208832 l -1.0556380653382,-0.786113452911 c -0.5952001857757,1.111789026261 -1.2577815246582,1.516075944901 -2.0888157463074,1.516075944901 -1.179170179367,0 -2.0775855541229,-0.887185182572 -2.0775855541229,-2.178657283783 0,-1.291472101212 0.8984153747559,-2.189887475967 2.0775855541229,-2.189887475967 0.7861134529114,0 1.4486947917939,0.381826534272 1.9203628635407,1.291472101213 l 1.1117890262602,-0.786113452911 c -0.7748832607268,-1.212860755921 -1.8192911338804,-1.774370365144 -3.032151889801,-1.774370365144 -1.9652836322784,0 -3.4139784240722,1.459924983978 -3.4139784240722,3.458899192809 0,1.998974208831 1.4486947917938,3.447669000625 3.4139784240723,3.447669000625 z"
         style="font-style:normal;font-variant:normal;font-weight:normal;font-stretch:normal;font-family:'EngraversGothicBT Heavy';-inkscape-font-specification:'EngraversGothicBT Heavy, ';letter-spacing:1.2038542032px;fill:#ffffff;stroke-width:0.2645833194"
         id="path1287"
         inkscape:connector-curvature="0" />
      <path
         d="m -429.1997458671779,-1255.185791015625 h 5.5701753234864 v -1.257781524658 h -4.2562428379059 v -1.628377866745 h 2.4257215118408 v -1.257781524658 h -2.4257215118408 v -1.212860755921 h 4.009178609848 v -1.257781524658 h -5.3231110954285 z"
         style="font-style:normal;font-variant:normal;font-weight:normal;font-stretch:normal;font-family:'EngraversGothicBT Heavy';-inkscape-font-specification:'EngraversGothicBT Heavy, ';letter-spacing:1.2038542032px;fill:#ffffff;stroke-width:0.2645833194"
         id="path1289"
         inkscape:connector-curvature="0" />
    </g>
    <g
       aria-label="MMXIX"
       style="font-style:normal;font-variant:normal;font-weight:normal;font-stretch:normal;font-size:8.0857381821px;line-height:1.2000000477;font-family:'EngraversGothicBT Heavy';-inkscape-font-specification:'EngraversGothicBT Heavy, ';text-align:center;letter-spacing:0.8667750359px;word-spacing:0px;writing-mode:lr-tb;text-anchor:middle;fill:#ffffff;fill-opacity:1;stroke:none;stroke-width:0.2645833194"
       id="text939">
      <path
         d="m -528.3546173969208,-1245.634521484375 h 0.9379456291199 v -4.762499789238 h -0.8004880800247 l -1.6656620655059,2.506578836441 -1.6575763273238,-2.506578836441 h -0.8085738182072 v 4.762499789238 h 0.9379456291199 v -2.943208698273 l 1.5282045164111,2.280178167344 1.5282045164107,-2.280178167344 z"
         style="font-style:normal;font-variant:normal;font-weight:normal;font-stretch:normal;font-family:'EngraversGothicBT Heavy';-inkscape-font-specification:'EngraversGothicBT Heavy, ';letter-spacing:5.2916665077px;fill:#ffffff;stroke-width:0.2645833194"
         id="path1236"
         inkscape:connector-curvature="0" />
      <path
         d="m -517.2829115787443,-1245.634521484375 h 0.9379456291199 v -4.762499789238 h -0.8004880800246 l -1.6656620655061,2.506578836441 -1.6575763273241,-2.506578836441 h -0.8085738182068 v 4.762499789238 h 0.9379456291199 v -2.943208698273 l 1.5282045164111,2.280178167344 1.5282045164108,-2.280178167344 z"
         style="font-style:normal;font-variant:normal;font-weight:normal;font-stretch:normal;font-family:'EngraversGothicBT Heavy';-inkscape-font-specification:'EngraversGothicBT Heavy, ';letter-spacing:5.2916665077px;fill:#ffffff;stroke-width:0.2645833194"
         id="path1238"
         inkscape:connector-curvature="0" />
      <path
         d="m -507.0682940078676,-1245.634521484375 h 1.2209464654923 l -1.9729201164246,-2.417635716438 1.9244056873321,-2.3448640728 h -1.1805177745819 l -1.3260610618591,1.625233374596 -1.3341468000412,-1.625233374596 h -1.1805177745819 l 1.9163199491501,2.369121287346 -1.9405771636963,2.393378501892 h 1.1562605600357 l 1.3664897527695,-1.673747803688 z"
         style="font-style:normal;font-variant:normal;font-weight:normal;font-stretch:normal;font-family:'EngraversGothicBT Heavy';-inkscape-font-specification:'EngraversGothicBT Heavy, ';letter-spacing:5.2916665077px;fill:#ffffff;stroke-width:0.2645833194"
         id="path1240"
         inkscape:connector-curvature="0" />
      <path
         d="m -500.4438702407778,-1245.618350008011 h 0.9541171054841 v -4.802928480148 h -0.9541171054841 z"
         style="font-style:normal;font-variant:normal;font-weight:normal;font-stretch:normal;font-family:'EngraversGothicBT Heavy';-inkscape-font-specification:'EngraversGothicBT Heavy, ';letter-spacing:5.2916665077px;fill:#ffffff;stroke-width:0.2645833194"
         id="path1242"
         inkscape:connector-curvature="0" />
      <path
         d="m -490.1837706161439,-1245.634521484375 h 1.2209464654921 l -1.9729201164246,-2.417635716438 1.9244056873322,-2.3448640728 h -1.1805177745819 l -1.3260610618591,1.625233374596 -1.3341468000412,-1.625233374596 h -1.1805177745819 l 1.91631994915,2.369121287346 -1.9405771636962,2.393378501892 h 1.1562605600356 l 1.3664897527695,-1.673747803688 z"
         style="font-style:normal;font-variant:normal;font-weight:normal;font-stretch:normal;font-family:'EngraversGothicBT Heavy';-inkscape-font-specification:'EngraversGothicBT Heavy, ';letter-spacing:5.2916665077px;fill:#ffffff;stroke-width:0.2645833194"
         id="path1244"
         inkscape:connector-curvature="0" />
    </g>
  </g>
</svg>
