<?xml version="1.0" encoding="UTF-8" standalone="no"?>
<svg xmlns="http://www.w3.org/2000/svg" width="847" height="497">
  <path fill="#fff" d="M1.2688016-.12905024h847.36963v497H1.2688016z"/>
  <path fill="#176d24" d="M1.26876685 284.8709258h847.36965632v71H1.26876685zm0-143h847.36965632v71H1.26876685zm-.00000414-142h847.36965632v71H1.26876271zm.00000414 426h847.36965632v71H1.26876685z"/>
  <path fill="#1370bd" d="M1.2687933-.1290755h328.53659v212.75233501H1.2687933z"/>
  <path fill="#efe032" d="m233.48869783 106.31846077 15.96934476-4.9020402V85.55562088l9.8708266 12.83154909 15.9721747-4.9002583-9.86988329 12.8315491 9.8698833 12.83065813-15.9721747-4.89936734-9.87082661 12.83154909v-15.86169063zM224.7502775 54.7939968l-9.8698833 12.8315491 9.8698833 12.83065814-15.9721747-4.89936735-9.87082661 12.8315491V72.52669515l-15.96934476-4.90114925 15.96934476-4.90204021V46.862706l9.8708266 12.8315491zm-38.70654637 91.71882437 15.96934476-4.90204021v-15.86079968l9.8708266 12.8315491 15.9721747-4.9002583-9.86988329 12.83154909 9.8698833 12.83065813-15.9721747-4.89936734-9.87082661 12.8315491v-15.86169064zm-51.73706354-73.36497121-15.96934476-4.90114925 15.96934476-4.9020402v-15.8607997l9.8708266 12.8315491 15.9721747-4.9002583-9.86988329 12.8315491 9.8698833 12.83065813-15.9721747-4.89936735-9.87082661 12.8315491zm-63.358284 15.86169064V73.14784996l-15.96934476-4.90114925 15.96934476-4.9020402v-15.8607997l9.8708266 12.8315491 15.9721747-4.9002583-9.86988329 12.8315491 9.8698833 12.83065813-15.9721747-4.89936735zm17.47405801 59.21311026 9.8698833 12.83065813-15.9721747-4.89936734-9.87082661 12.8315491V153.1238001l-15.96934476-4.90114925 15.96934476-4.90204021v-15.86079968l9.8708266 12.8315491 15.9721747-4.9002583zm57.6185326-9.64112049 15.9721747-4.9002583-9.8698833 12.8315491 9.8698833 12.83065813-15.9721747-4.89936734-9.87082661 12.8315491v-15.86169064l-15.96934476-4.90114925 15.96934476-4.90204021v-15.86079968z"/>
</svg>