<?xml version="1.0" encoding="UTF-8"?>
<svg width="1200" height="600" version="1.1" xmlns="http://www.w3.org/2000/svg" xmlns:cc="http://creativecommons.org/ns#" xmlns:dc="http://purl.org/dc/elements/1.1/" xmlns:rdf="http://www.w3.org/1999/02/22-rdf-syntax-ns#">
 <metadata>
  <rdf:RDF>
   <cc:Work rdf:about="">
    <dc:format>image/svg+xml</dc:format>
    <dc:type rdf:resource="http://purl.org/dc/dcmitype/StillImage"/>
    <dc:title/>
   </cc:Work>
  </rdf:RDF>
 </metadata>
 <defs>
  <clipPath id="clipPath892">
   <path d="m-387.22 23.322c0.54335 0.56696 0.66146 0.93313 1.1221 1.1457 0.46067 0.21261 4.1932 0.17718 4.453 0.18899 0.25987 0.01181 0.22445-0.61421 0.25987-0.99219 0.0354-0.37798 0.43704-2.0671 0.38979-2.5159-0.0473-0.44885 0.33073-1.441 0.28347-1.7009-0.0472-0.25986-0.20079-0.56696-0.22442-1.0985-0.0235-0.53153 0.0354-1.5828-0.33073-1.8544-0.36615-0.27167-1.0394 0.12993-1.0394 0.12993s-0.88588 4.3231-1.8072 4.4885c-0.92133 0.16536-3.1065 0.7087-3.1065 2.2088z" fill="#ef7112" fill-rule="evenodd" stroke="#000" stroke-linecap="round" stroke-miterlimit="9.9" stroke-width=".19844"/>
  </clipPath>
 </defs>
 <clipPath id="c">
  <path d="M0,0V150H700V300H600zM0,300V350H300V0H600z"/>
 </clipPath>
 <rect width="1200" height="600" fill="#00247d"/>
 <path d="M0,0 600,300M600,0 0,300" stroke="#fff" stroke-width="60"/>
 <path d="M0,0 600,300M600,0 0,300" clip-path="url(#c)" stroke="#cf142b" stroke-width="40"/>
 <path d="M0,150H700M300,0V350" stroke="#fff" stroke-width="100"/>
 <path d="M0,150H700M300,0V350" stroke="#cf142b" stroke-width="60"/>
 <path d="M0,300H600V0H1200V600H0z" fill="#00247d"/>
 <circle cx="898.75" cy="300" r="134.58" fill="#fff" fill-rule="evenodd"/>
 <g transform="matrix(4.7906 0 0 4.7906 2718.2 215.39)">
  <path transform="scale(.26458)" d="m-1506.3 109.96c2.4097 0 5.4079 1.3357 9.1895 3.4102 3.7815 2.0744 8.3467 4.8652 13.996 7.6543 11.299 5.5781 26.416 11.162 48.777 11.162 22.361 0 37.48-5.584 48.779-11.162 5.6494-2.789 10.215-5.5799 13.996-7.6543 3.7816-2.0744 6.7798-3.4102 9.1895-3.4102 1.2105 0 1.9952 0.29731 2.5468 0.73828 0.5515 0.44095 0.8896 1.0483 1.0918 1.7637 0.4044 1.4308 0.2227 3.205 0.2227 4.3398 0 1.8995 1.3351 3.4434 2.5605 4.9473 1.2254 1.5039 2.3477 2.961 2.3477 4.5176 0 1.6357-0.706 2.5777-1.4238 3.166-0.3258 0.26706-0.3878 0.23407-0.6426 0.35547 0.1705-0.7004 0.4218-1.4531 0.3398-1.9941-0.1262-0.83555-0.5752-1.4808-1.2031-1.8301-1.2557-0.69841-3.5884-0.53661-5.123 0.56641-3.8731 2.3329-32.527 19.889-72.682 19.889s-68.808-17.556-72.682-19.889c-1.5346-1.103-3.8654-1.2648-5.1211-0.56641-0.6279 0.34923-1.0769 0.99453-1.2031 1.8301-0.082 0.54102 0.1693 1.2937 0.3398 1.9941-0.2547-0.1214-0.3167-0.0884-0.6426-0.35547-0.7178-0.58826-1.4238-1.5303-1.4238-3.166 0-1.5566 1.1222-3.0137 2.3476-4.5176 1.2254-1.5039 2.5606-3.0477 2.5606-4.9473 0-1.1349-0.1818-2.909 0.2227-4.3398 0.2021-0.7154 0.5402-1.3227 1.0917-1.7637 0.5516-0.44096 1.3364-0.73828 2.5469-0.73828z" color="#000000" color-rendering="auto" fill="#fff" fill-rule="evenodd" image-rendering="auto" shape-rendering="auto" style="font-feature-settings:normal;font-variant-alternates:normal;font-variant-caps:normal;font-variant-ligatures:normal;font-variant-numeric:normal;font-variant-position:normal;isolation:auto;mix-blend-mode:normal;shape-padding:0;text-decoration-color:#000000;text-decoration-line:none;text-decoration-style:solid;text-indent:0;text-orientation:mixed;text-transform:none;white-space:normal"/>
  <path d="m-360.45 29.094c0.32028 0 0.52793 0.07867 0.67387 0.19534 0.14592 0.11667 0.2354 0.27736 0.28885 0.46664 0.10702 0.37857 0.0589 0.84798 0.0589 1.1482 0 0.50259 0.35327 0.91106 0.67749 1.309 0.32422 0.3979 0.62114 0.78344 0.62114 1.1953 0 0.43278-0.1868 0.68203-0.37672 0.83767-0.0862 0.07066-0.10263 0.06193-0.17002 0.09405 0.0451-0.18531 0.1116-0.38447 0.0899-0.52762-0.0334-0.22107-0.15219-0.39181-0.31832-0.48421-0.33224-0.18479-0.94893-0.14198-1.355 0.14986-0.32983 0.19866-1.347 0.81613-2.9182 1.5601-1.0919-1.1119-1.9813-2.2696-2.388-3.5414 1.0379-0.55406 1.9225-1.0826 2.6846-1.5007 1.0006-0.54886 1.7938-0.90227 2.4314-0.90227zm1.1338 4.4121c0.11221-6e-3 0.20989 0.01251 0.28215 0.05271 0.0967 0.05378 0.16224 0.14002 0.18553 0.29507 0.0119 0.07774 0.0108 0.17276-8e-3 0.28577 0 0.0014 2.1e-4 0.0028 0 0.0041-0.17936 1.0705-2.4368 1.5683-3.4985 1.4268-0.1193-0.01591-0.22269-0.02497-0.31419-0.02894-0.0274-0.02633-0.0544-0.0527-0.0817-0.07907 1.5806-0.83625 2.5466-1.5281 2.8004-1.7105 0.21831-0.15692 0.44601-0.23545 0.63355-0.24598zm-39.216-4.4121c-0.32028 0-0.52792 0.07867-0.67386 0.19534-0.14592 0.11667-0.2354 0.27736-0.28885 0.46664-0.10702 0.37857-0.0589 0.84798-0.0589 1.1482 0 0.50259-0.35327 0.91106-0.6775 1.309-0.32422 0.3979-0.62113 0.78344-0.62113 1.1953 0 0.43278 0.18679 0.68203 0.37671 0.83767 0.0862 0.07066 0.10263 0.06193 0.17002 0.09405-0.0451-0.18531-0.1116-0.38447-0.0899-0.52762 0.0334-0.22107 0.15219-0.39181 0.31832-0.48421 0.33224-0.18479 0.94893-0.14198 1.355 0.14986 0.32983 0.19866 1.347 0.81613 2.9182 1.5601 1.0918-1.1119 1.9813-2.2696 2.388-3.5414-1.0379-0.55406-1.9225-1.0826-2.6846-1.5007-1.0006-0.54886-1.7938-0.90227-2.4314-0.90227zm-1.1338 4.4121c-0.11221-6e-3 -0.2099 0.01251-0.28216 0.05271-0.0966 0.05378-0.16224 0.14002-0.18552 0.29507-0.0119 0.07774-0.0108 0.17276 8e-3 0.28577 0 0.0014-2.1e-4 0.0028 0 0.0041 0.17937 1.0705 2.4368 1.5683 3.4985 1.4268 0.1193-0.01591 0.2227-0.02497 0.31419-0.02894 0.0274-0.02633 0.0544-0.0527 0.0816-0.07907-1.5806-0.83625-2.5466-1.5281-2.8004-1.7105-0.2183-0.15692-0.446-0.23545-0.63354-0.24598z" fill="#ff784b" fill-opacity=".32512" fill-rule="evenodd"/>
  <g fill-rule="evenodd">
   <path d="m-379.49 8.4594v25.139c-8.3155-2.9766-14.32-8.789-14.32-13.983v-11.155z" fill="#fff"/>
   <path transform="scale(.26458)" d="m-1434.3 31.973v95.012c31.429-11.25 54.121-33.218 54.121-52.85v-42.162z" fill="#c93"/>
   <path d="m-373.04 26.69c0-0.96885 0.23386-9.1874 0.0668-10.056-0.16703-0.86863-0.4677-3.9088-0.4677-3.9088l0.4677 0.3675s0.63476 3.5079 0.7016 4.2429c0.0668 0.73499 0.0668 9.3878 0.0668 9.3878z" fill="#92702f" stroke="#000" stroke-linecap="round" stroke-miterlimit="9.9" stroke-width=".19844"/>
   <path transform="scale(.26458)" d="m-1405.4 100.06c-1.4024 0.0381-2.6309 0.20465-3.6016 0.44141-2.5886 0.63134-2.9664 2.146-6.1231 2.7773-3.1567 0.63135-5.9973 2.5882-8.3964 3.7246-2.3992 1.1364-7.9461 4.989-10.729 5.1152v14.869c16.117-5.769 29.924-14.358 39.564-24.004-0.806-0.83909-1.6878-1.4941-2.6367-1.7891-2.92-0.90756-5.7408-1.1983-8.0781-1.1348z" fill="#91c43b"/>
   <path transform="scale(.26458)" d="m-1472.5 54.707-2.5449 2.0977 1.0273 1.1621v1.2949l-0.8926-0.26953 0.8477 0.89453 0.09 0.75781-1.25 0.22266v0.15625l2.793 0.89453-2.8184 0.17773-0.016 0.69141s1.0711 2.4824 1.8301 2.4824c0.7589 0 5.178 2.3034 7.7226 0l3.8399-3.6426s-2.2316-0.04521-2.4102-0.08984c-0.1784-0.04464-2.0547 0.98242-2.0547 0.98242l-0.8027-0.98242s1.6068-1.6069 1.5176-1.8301c-0.089-0.22322-1.4727 0.9375-1.4727 0.9375l-0.8047 0.40234 0.4922-1.3848 0.9375-0.66992 0.1328-2.1426-1.25-1.0703s-0.3125-0.76032-0.3125-0.53711c0 0.22322-0.4004 1.875-0.4004 1.875l-2.0097-0.35547-0.3125-1.207-0.5352 0.9375-0.7148 0.08984zm0.7812 2.791 0.3672 0.63476h-0.7344zm1.9649 1.7188 0.3672 0.63476h-0.7344zm-2.9024 0.40039 0.1934 0.33594h-0.3867zm2.0469 1.7461 0.1445 0.5332-0.5351-0.14258z"/>
   <path transform="scale(.26458)" d="m-1488.4 65.27v8.8652c0 19.631 22.694 41.6 54.123 52.85v-61.715z" fill="#8dc0c0"/>
  </g>
  <g fill-rule="evenodd">
   <path transform="scale(.26458)" d="m-1486 65.27c-0.8205 0.01448-1.7264 0.02668-2.4297 0.04492v0.60156c2.8182 0.07311 6.6262 0.11914 10.854 0.11914 8.6428 0 15.656-0.1882 15.656-0.41992 0-0.14668-2.9802-0.2706-7.2344-0.3457zm13.726 4.4707c-8.6429 0-15.658 0.1882-15.658 0.41992 0 0.23174 7.0153 0.41992 15.658 0.41992 8.6428 0 15.656-0.1882 15.656-0.41992 0-0.23174-7.0135-0.41992-15.656-0.41992zm8.586 4.9258c-8.6428 0-15.656 0.1882-15.656 0.41992 0 0.23174 7.0135 0.41992 15.656 0.41992 8.6429 0 15.658-0.1882 15.658-0.41992 0-0.23174-7.0153-0.41992-15.658-0.41992zm29.381 1.7715c-8.3134 0.01-14.986 0.19068-14.986 0.41602 0 0.22535 6.6729 0.40603 14.986 0.41602zm-35.82 0.87891c-8.6428 0-15.658 0.1882-15.658 0.41992 0 0.23174 7.0154 0.41992 15.658 0.41992s15.658-0.1882 15.658-0.41992c0-0.23174-7.0154-0.41992-15.658-0.41992zm30.178 2.2734c-8.6428 0-15.656 0.1882-15.656 0.41992 0 0.23174 7.0135 0.41992 15.656 0.41992 2.0014 0 3.8826-0.01286 5.6425-0.03125v-0.7793c-1.7599-0.01839-3.6411-0.0293-5.6425-0.0293zm-36.996 0.25195c-4.2205 0-8.021 0.04623-10.838 0.11914 0.043 0.2011 0.099 0.40221 0.1465 0.60352 2.8045 0.07097 6.5345 0.11719 10.691 0.11719 8.6429 0 15.656-0.1882 15.656-0.41992 0-0.23174-7.0133-0.41992-15.656-0.41992zm26.643 1.5156c-8.643 0-15.658 0.1882-15.658 0.41992 0 0.23174 7.0153 0.41992 15.658 0.41992 8.6428 0 15.658-0.1882 15.658-0.41992 0-0.23174-7.0154-0.41992-15.658-0.41992zm15.404 1.8945c-8.6429 0-15.656 0.1882-15.656 0.41992 0 0.23174 7.0133 0.41992 15.656 0.41992 0.21 0 0.3839-0.0037 0.5918-0.0039v-0.83203c-0.2079-2.2e-4 -0.3818-0.0039-0.5918-0.0039zm-34.932 0.28906c-8.6429 0-15.656 0.1882-15.656 0.41992 0 0.23174 7.0133 0.41992 15.656 0.41992 8.6428 0 15.658-0.1882 15.658-0.41992 0-0.23174-7.0154-0.41992-15.658-0.41992zm35.523 0.85938c-7.4361 0.0326-13.219 0.19967-13.219 0.4082 0 0.20855 5.7826 0.37366 13.219 0.40625zm-12.051 1.4082c-8.6429 0-15.656 0.18625-15.656 0.41797 0 5.41e-4 0.01 0.0014 0.01 2e-3 -1.9-0.02192-3.9818-0.03516-6.1816-0.03516-8.6428 0-15.658 0.1882-15.658 0.41992 0 0.23174 7.0154 0.41992 15.658 0.41992 8.6429 0 15.656-0.1882 15.656-0.41992 0-5.44e-4 -0.01-0.0014-0.01-2e-3 1.9 0.02192 3.9819 0.03516 6.1817 0.03516 4.9527 0 9.1807-0.06573 12.051-0.16211v-0.51562c-2.87-0.09583-7.098-0.16016-12.051-0.16016z" fill="#6b918e"/>
   <path transform="scale(.26458)" d="m-1477 66.869c-4.5589 0-8.5769 0.05322-11.439 0.13672v0.56641c2.8625 0.08349 6.8805 0.13672 11.439 0.13672 2.1998 0 4.2817-0.01317 6.1817-0.03516-1e-4 5.41e-4 -0.01 0.0014-0.01 2e-3 0 0.23172 7.0134 0.41797 15.656 0.41797 8.6428 0 15.658-0.18625 15.658-0.41797 0-0.23172-7.0154-0.41992-15.658-0.41992-2.1997 0-4.2817 0.01317-6.1817 0.03516 1e-4 -5.42e-4 0.01-0.0014 0.01-2e-3 0-0.23172-7.0134-0.41992-15.656-0.41992zm36.32 1.8047c-8.6429 0-15.658 0.1882-15.658 0.41992 0 0.23172 7.0153 0.41992 15.658 0.41992 2.2785 0 4.4098-0.01555 6.3632-0.03906v-0.76172c-1.9534-0.02351-4.0847-0.03906-6.3632-0.03906zm-37.963 0.84766c-3.7694 0-7.094 0.04002-9.7969 0.09961v0.64062c2.7029 0.05959 6.0275 0.09961 9.7969 0.09961 8.6428 0 15.658-0.1882 15.658-0.41992 0-0.23172-7.0154-0.41992-15.658-0.41992zm34.932 0.28906c-8.6429 0-15.656 0.1882-15.656 0.41992 0 0.23172 7.0133 0.41992 15.656 0.41992 3.5938 0 6.7509-0.03907 9.3945-0.09375v-0.65234c-2.6436-0.05468-5.8007-0.09375-9.3945-0.09375zm-15.404 1.8945c-8.6429 0-15.658 0.1882-15.658 0.41992 0 0.23172 7.0153 0.41992 15.658 0.41992s15.658-0.1882 15.658-0.41992c0-0.23172-7.0153-0.41992-15.658-0.41992zm-26.643 1.5156c-0.9508 0-1.7773 0.0093-2.6816 0.01367v0.8125c0.9043 0.0044 1.7308 0.01367 2.6816 0.01367 8.6429 0 15.656-0.1882 15.656-0.41992 0-0.23172-7.0134-0.41992-15.656-0.41992zm36.996 0.25195c-8.6428 0-15.656 0.1882-15.656 0.41992 0 0.23172 7.0134 0.41992 15.656 0.41992 6.5031 0 12.08-0.10635 14.445-0.25781v-0.32422c-2.3652-0.15146-7.9422-0.25781-14.445-0.25781zm-30.178 2.2734c-3.6134 0-6.7887 0.03853-9.4395 0.09375 0.014 0.21776 0.041 0.43608 0.061 0.6543 2.6412 0.05449 5.7918 0.0918 9.3789 0.0918 8.6428 0 15.658-0.1882 15.658-0.41992 0-0.23172-7.0154-0.41992-15.658-0.41992zm36.492 0.88281c-8.6429 0-15.658 0.1882-15.658 0.41992 0 0.23172 7.0153 0.41992 15.658 0.41992 3.046 0 5.7253-0.02989 8.1308-0.07031v-0.69922c-2.4055-0.04042-5.0848-0.07031-8.1308-0.07031zm-30.053 1.7676c-8.1655 0-14.799 0.16884-15.516 0.38281 0 0.02605 0.01 0.05207 0.014 0.07813 0.7801 0.21222 7.383 0.37891 15.502 0.37891 8.6429 0 15.658-0.1882 15.658-0.41992 0-0.23172-7.0154-0.41992-15.658-0.41992zm-8.5859 4.9258c-2.0478 0-3.982 0.01204-5.7754 0.03125 0.087 0.2597 0.1859 0.51952 0.2793 0.7793 1.7216 0.01748 3.5473 0.0293 5.4961 0.0293 8.6428 0 15.656-0.1882 15.656-0.41992 0-0.23172-7.0135-0.41992-15.656-0.41992zm-3.918 4.5527c0.1329 0.27434 0.2662 0.5482 0.4063 0.82227 7.7587-0.02491 13.865-0.19547 13.865-0.41016 0-0.21855-6.3109-0.39238-14.272-0.41211z" fill="#7daeae"/>
  </g>
  <path transform="scale(.26458)" d="m-1434.3 84.608c-1.2513-0.02034-1.3231 0.0262-3.7304 0.04214-4.7667 0.03157-11.679 0.19024-20.266 0.69531-16.058 0.94456-13.427-0.75721-24.865 5.9199 8.4577 14.202 26.432 27.69 48.861 35.719z" fill="#84b648" fill-rule="evenodd"/>
  <path transform="scale(.26458)" d="m-1453.4 85.092c-1.5851 0.07525-3.1902 0.1525-4.914 0.25391-1.056 0.06211-1.8367 0.09045-2.7403 0.13281-4.0537 4.9272-11.035 8.4401-18.186 11.477 9.4576 12.047 25.515 23.083 44.922 30.029v-13.176c-2.306-0.77529-4.9004-1.9576-6.4296-3.6992-3.2143-3.6607-4.9107-7.1426-9.375-7.7676-4.4643-0.625-4.4638-3.8407-6.1602-6.1621-1.3752-1.8819 0.8827-7.4257 2.8828-11.088z" fill="#e59718" fill-rule="evenodd"/>
  <g stroke-width=".1753">
   <path d="m-383.56 26.932c0-0.09642 0.0789-0.1753 0.17531-0.1753 0.0964 0 0.1753 0.07889 0.1753 0.1753 0 0.09642-0.0789 0.1753-0.1753 0.1753s-0.17531-0.07889-0.17531-0.1753zm-7.5818-1.9096c-0.16873-0.17109-0.30678-0.40306-0.30678-0.51549 0-0.11243-0.0789-0.20442-0.1753-0.20442s-0.1753-0.11833-0.1753-0.26295c0-0.14462 0.11833-0.26295 0.26295-0.26295 0.14463 0 0.26295-0.07889 0.26295-0.1753 0-0.09642 0.21719-0.1753 0.48264-0.1753 0.26546 0 1.0097-0.15072 1.6539-0.33494 0.94373-0.26988 1.1528-0.2869 1.0763-0.08765-0.0522 0.13601-0.15307 0.24729-0.22417 0.24729-0.23017 0-1.0603 0.79355-1.0603 1.0136 0 0.11745-0.0789 0.21355-0.1753 0.21355s-0.1753 0.19722-0.1753 0.43826c0 0.37971-0.0761 0.43686-0.56973 0.42784-0.31336-0.0057-0.70779-0.1504-0.87652-0.32148z" fill="#a7d852"/>
   <path d="m-380.01 32.843c0.0769-0.2003 0.0294-0.30104-0.14193-0.30104-0.15775 0-0.25745-0.16973-0.25745-0.43826 0-0.24104 0.0789-0.43826 0.1753-0.43826s0.17531 0.11269 0.17531 0.25043c0 0.13774 0.10649 0.35692 0.23663 0.48707 0.19865 0.19865 0.1933 0.27713-0.0334 0.48886-0.23699 0.22138-0.25588 0.2154-0.15449-0.04881zm-1.0534-0.43251c-0.18164-0.47575-0.70234-0.96949-0.89613-0.84972-0.096 0.05935-0.29365-0.01115-0.43917-0.15666-0.14551-0.14551-0.34908-0.26456-0.45239-0.26456-0.10329 0-0.18782-0.15777-0.18782-0.3506 0-0.19283 0.0789-0.3506 0.1753-0.3506s0.17531 0.11833 0.17531 0.26295c0 0.14609 0.15582 0.26295 0.3506 0.26295 0.19284 0 0.35061-0.07889 0.35061-0.1753 0-0.09642-0.12144-0.1753-0.26987-0.1753-0.2221 0-0.22986-0.04348-0.0438-0.24568 0.15583-0.16936 0.24841-0.18395 0.29805-0.04696 0.18046 0.49808 0.89217 0.87137 0.89217 0.46794 0-0.09642 0.11439-0.1753 0.25423-0.1753s0.3356-0.13805 0.43505-0.30678c0.14729-0.24992 0.20996-0.26249 0.33809-0.06782 0.1328 0.20175 0.17051 0.20175 0.24216 0 0.0466-0.13143 0.15257-0.17551 0.23528-0.09796 0.0828 0.07758 0.0659 0.19586-0.0374 0.26295-0.10327 0.06707-0.23281 0.24028-0.28786 0.3849-0.0797 0.20945-0.10291 0.20053-0.11393-0.04383-0.0155-0.34313-0.28064-0.4089-0.46247-0.11471-0.0653 0.10564 0.12728 0.41674 0.42792 0.69133 0.53215 0.48604 0.70495 0.86963 0.39176 0.86963-0.0852 0-0.19612-0.15777-0.24654-0.3506-0.0504-0.19283-0.2174-0.3506-0.37106-0.3506-0.15364 0-0.27936-0.11833-0.27936-0.26295 0-0.28999-0.0773-0.30792-0.65738-0.15246-0.4427 0.11864-0.53662 0.41542-0.13148 0.41542 0.14462 0 0.26296 0.11833 0.26296 0.26295 0 0.14462 0.11832 0.26295 0.26294 0.26295 0.14609 0 0.26296 0.15582 0.26296 0.3506 0 0.43213-0.31933 0.46136-0.47874 0.04383zm-1.2305-0.33523c-0.25076-0.10118-0.2979-0.40981-0.0625-0.40981 0.0861 0 0.20195 0.11833 0.25745 0.26295s0.0837 0.25673 0.0625 0.24911c-0.0211-0.0076-0.13693-0.05363-0.25745-0.10226zm-0.74504-0.32216c0-0.14462 0.0789-0.26295 0.1753-0.26295s0.17531 0.11833 0.17531 0.26295c0 0.14462-0.0789 0.26295-0.17531 0.26295-0.0964 0-0.1753-0.11833-0.1753-0.26295zm-1.753-0.94541c0-0.0861 0.11431-0.20041 0.25403-0.25403 0.16978-0.06515 0.22169-0.01324 0.15654 0.15655-0.1064 0.27728-0.41057 0.3495-0.41057 0.09748zm-0.52591-0.54466c0-0.19478-0.11687-0.3506-0.26296-0.3506-0.14462 0-0.26295-0.11206-0.26295-0.24902 0-0.13696-0.23006-0.29956-0.51126-0.36132-0.2812-0.06176-0.55482-0.2258-0.60806-0.36453-0.0533-0.13873-0.29558-0.25224-0.53855-0.25224-0.46018 0-1.1489-0.47189-1.1443-0.784 1e-3 -0.09909 0.0776-0.06184 0.16909 0.08279 0.11562 0.18272 0.44825 0.25878 1.0901 0.24928 0.50806-0.0075 0.82641 0.01878 0.70744 0.05843-0.3045 0.1015-0.2699 0.3935 0.0466 0.3935 0.14462 0 0.26296 0.11833 0.26296 0.26295 0 0.14462 0.11832 0.26295 0.26295 0.26295 0.14462 0 0.26295-0.07889 0.26295-0.1753 0-0.09642 0.1246-0.1753 0.27688-0.1753 0.21645 0 0.25168-0.11479 0.16138-0.52591-0.0949-0.4323-0.0584-0.52837 0.2052-0.53975 0.18422-8e-3 0.22745-0.05147 0.10158-0.10226-0.3062-0.12355-0.27414-0.40981 0.0459-0.40981 0.21318 0 0.24225 0.14573 0.14862 0.74504-0.064 0.40977-0.18328 0.77133-0.26502 0.80347-0.0817 0.03214-0.14863 0.13075-0.14863 0.21913 0 0.2415 0.48349 0.19326 0.58561-0.05843 0.0669-0.1649 0.13493-0.15406 0.27488 0.04382 0.10227 0.14462 0.18595 0.34184 0.18595 0.43826 0 0.09642-0.0688 0.06659-0.15301-0.06629-0.23108-0.36482-0.52108-0.08109-0.50473 0.49382 0.0126 0.4456 0.0463 0.47728 0.26962 0.25396 0.14182-0.14182 0.42211-0.21429 0.6311-0.16316 0.20677 0.05059 0.27735 0.0467 0.15683-0.0087-0.12052-0.05535-0.21913-0.25184-0.21913-0.43664 0-0.1848-0.15777-0.49377-0.35061-0.6866-0.37742-0.37742-0.45837-0.70121-0.1753-0.70121 0.0964 0 0.1753-0.19722 0.1753-0.43826 0-0.24104 0.0789-0.43826 0.17531-0.43826 0.0964 0 0.1753-0.11833 0.1753-0.26295 0-0.34715 0.28451-0.33743 0.4195 0.01434 0.17603 0.45872 0.12322 0.59922-0.22519 0.59922-0.20911 0-0.37299 0.16487-0.44363 0.44632-0.15746 0.62738 0.0298 0.8309 0.66501 0.72267 0.30166-0.05139 0.44986-0.05277 0.32934-3e-3 -0.28714 0.11846-0.27966 0.55159 0.0146 0.84587 0.19478 0.19478 0.23374 0.15165 0.23374-0.25878 0-0.27088 0.12161-0.61413 0.27025-0.76277 0.24348-0.24348 0.27026-0.22776 0.27026 0.15861 0 0.24702-0.10221 0.42887-0.24104 0.42887-0.30116 0-0.31668 0.2907-0.0219 0.4103 0.30965 0.12564-0.19391 0.46488-0.51001 0.34358-0.15067-0.05782-0.23503 0.04238-0.23503 0.27917 0 0.42335-0.48382 0.50771-0.63608 0.11091-0.0874-0.22773-0.1299-0.22773-0.35763 0-0.36737 0.36737-0.75931 0.3198-0.75931-0.09216zm-0.0876-0.87651c-0.0596-0.09642-0.2023-0.1741-0.31713-0.17262-0.12545 0.0016-0.10382 0.07051 0.0542 0.17262 0.33678 0.21764 0.39746 0.21764 0.26296 0zm3.869 1.0718c-0.0609-0.09856-0.0618-0.37452-2e-3 -0.61326 0.0942-0.37545 0.0594-0.42113-0.25759-0.33822-0.2016 0.05272-0.36654 0.16554-0.36654 0.25071 0 0.08517-0.0789 0.15486-0.17531 0.15486-0.0964 0-0.1753-0.15928-0.1753-0.35394 0-0.26957 0.094-0.33835 0.39443-0.28851 0.21694 0.03599 0.29578 0.0317 0.1752-0.0095-0.13909-0.04756-0.17923-0.2344-0.10978-0.51109 0.0871-0.34692 0.0333-0.45603-0.26285-0.53348-0.42531-0.11122-0.50479-0.40707-0.10935-0.40707 0.14463 0 0.26296 0.07889 0.26296 0.1753 0 0.09642 0.10955 0.1753 0.24345 0.1753 0.14051 0 0.29327 0.26562 0.36129 0.62821 0.0765 0.40786 0.19654 0.59802 0.34219 0.54213 0.12338-0.04735 0.3355-0.0157 0.47139 0.07032 0.19953 0.12631 0.18804 0.15692-0.0597 0.15908-0.16873 0.0015-0.30678 0.11854-0.30678 0.26014 0 0.15682 0.10278 0.21801 0.26295 0.15655 0.16651-0.0639 0.26296 0.0024 0.26296 0.1808 0 0.15494-0.0724 0.28171-0.16097 0.28171-0.0885 0-0.27776 0.04482-0.42052 0.0996-0.14275 0.05478-0.3094 0.01897-0.3703-0.07959zm1.1271-0.72122c0-0.09642 0.0789-0.1753 0.1753-0.1753s0.17531 0.07889 0.17531 0.1753c0 0.09642-0.0789 0.1753-0.17531 0.1753-0.0964 0-0.1753-0.07889-0.1753-0.1753zm-7.0121-0.70121c0-0.09642 0.0789-0.1753 0.1753-0.1753s0.17531 0.07889 0.17531 0.1753c0 0.09642-0.0789 0.1753-0.17531 0.1753-0.0964 0-0.1753-0.07889-0.1753-0.1753zm-0.63127-1.3229c-0.0616-0.24553-0.0631-0.49534-3e-3 -0.55512 0.0598-0.05979 0.10871 0.02277 0.10871 0.18347 0 0.33953 0.45447 0.39622 0.58561 0.07304 0.0669-0.1649 0.13493-0.15406 0.27487 0.04383 0.1588 0.22454 0.18636 0.2154 0.18865-0.06258 2e-3 -0.21684 0.0905-0.29184 0.26564-0.22463 0.16017 0.06147 0.26295 2.8e-4 0.26295-0.15655 0-0.1416 0.10701-0.25745 0.2378-0.25745 0.15139 0 0.23101 0.19069 0.21913 0.52486-0.0181 0.50917-0.041 0.52279-0.76371 0.45566-0.55484-0.05153-0.74503-0.0065-0.74503 0.17635 0 0.42827-0.51445 0.26457-0.63128-0.20087zm3.962 0.27112c0-0.09642 0.0789-0.1753 0.1753-0.1753s0.1753 0.07889 0.1753 0.1753c0 0.09642-0.0789 0.1753-0.1753 0.1753s-0.1753-0.07889-0.1753-0.1753zm0.5259-0.10226c0-0.15266 0.0937-0.24634 0.20817-0.20817 0.32506 0.10835 0.37897 0.48573 0.0694 0.48573-0.15265 0-0.27756-0.1249-0.27756-0.27756zm-5.7015-0.61216c-0.0635-0.2001-0.0688-0.41046-0.0118-0.46747 0.0571-0.05701 0.10366 0.02782 0.10366 0.18851s0.0789 0.29217 0.17531 0.29217c0.0964 0 0.1753 0.07889 0.1753 0.1753 0 0.31985-0.32506 0.18135-0.44245-0.18851zm0.5301 0.01321c-0.0658-0.20736-0.0802-0.41647-0.032-0.46468 0.0482-0.04821 0.14149 0.08201 0.20731 0.28938 0.0658 0.20736 0.0802 0.41647 0.032 0.46468-0.0482 0.04821-0.1415-0.08201-0.20732-0.28938zm5.6973 0.1753c0-0.09642 0.11833-0.1753 0.26296-0.1753 0.14462 0 0.26295 0.07889 0.26295 0.1753 0 0.09642-0.11833 0.1753-0.26295 0.1753-0.14463 0-0.26296-0.07889-0.26296-0.1753zm-4.3826-0.5832c0-0.14491-0.18173-0.22008-0.48208-0.19941-0.30146 0.02074-0.33835 0.0054-0.0985-0.04096 0.211-0.04078 0.41878-0.20742 0.46175-0.37032 0.071-0.26903 0.08-0.26806 0.0985 0.0106 0.0112 0.16873 0.13082 0.30678 0.26585 0.30678 0.17457 0 0.22903-0.17727 0.18848-0.61356-0.0534-0.57436-0.0243-0.61356 0.45571-0.61356 0.28199 0 0.51272-0.07888 0.51272-0.1753 0-0.09642-0.0789-0.1753-0.1753-0.1753s-0.1753-0.11833-0.1753-0.26295c0-0.14462 0.0789-0.26295 0.1753-0.26295s0.1753 0.07889 0.1753 0.1753c0 0.09642 0.23666 0.1753 0.52591 0.1753 0.40903 0 0.5259 0.07791 0.5259 0.3506 0 0.25711-0.11687 0.3506-0.43825 0.3506-0.32139 0-0.43826 0.0935-0.43826 0.3506 0 0.25452 0.11687 0.3506 0.42645 0.3506 0.41008 0 0.79985 0.58516 0.55372 0.83129-0.057 0.05701-0.10366-0.02782-0.10366-0.18851 0-0.19478-0.14608-0.29217-0.43825-0.29217-0.24104 0-0.43826-0.07889-0.43826-0.1753 0-0.09642-0.15777-0.1753-0.3506-0.1753-0.19478 0-0.35061 0.11687-0.35061 0.26295 0 0.14462-0.11833 0.26295-0.26295 0.26295s-0.26296 0.07888-0.26296 0.1753c0 0.09642-0.0789 0.1753-0.1753 0.1753s-0.1753-0.10467-0.1753-0.23259zm1.3973-0.93818c0.0454-0.04147-0.0335-0.14747-0.1753-0.23556-0.17045-0.10586-0.28165-0.08778-0.32799 0.05336-0.0386 0.11743-0.15689 0.27784-0.26295 0.35647-0.10607 0.07863 5e-3 0.08855 0.24541 0.02205 0.24105-0.0665 0.47542-0.15484 0.52083-0.19632zm0.70629-0.75755c0-0.09642-0.11833-0.1753-0.26296-0.1753-0.14462 0-0.26295 0.07889-0.26295 0.1753 0 0.09642 0.11833 0.1753 0.26295 0.1753 0.14463 0 0.26296-0.07889 0.26296-0.1753zm-4.6893 1.1275c-0.12052-0.12989-0.21913-0.31259-0.21913-0.406 0-0.09342-0.13805-0.20592-0.30678-0.25002-0.19233-0.05026-0.13017-0.08776 0.16659-0.10051 0.28168-0.0121 0.54659 0.1039 0.65418 0.28644 0.15769 0.26756 0.20328 0.27317 0.35663 0.04383 0.15083-0.22557 0.17621-0.21934 0.17851 0.04383 1e-3 0.16873 0.0816 0.30678 0.17799 0.30678 0.0964 0 0.1753 0.07888 0.1753 0.1753 0 0.25229-0.48003 0.21637-0.5856-0.04383-0.0654-0.16119-0.12721-0.16632-0.23374-0.0194-0.10618 0.14644-0.20329 0.13672-0.36395-0.03643zm4.514-0.42626c0-0.09642 0.15777-0.1753 0.3506-0.1753s0.35061 0.07889 0.35061 0.1753c0 0.09642-0.15778 0.1753-0.35061 0.1753s-0.3506-0.07889-0.3506-0.1753zm-3.6814-0.70121c0-0.09642 0.0789-0.1753 0.17531-0.1753 0.0964 0 0.1753 0.07889 0.1753 0.1753 0 0.09642-0.0789 0.1753-0.1753 0.1753s-0.17531-0.07889-0.17531-0.1753zm2.2789-0.43826c0-0.14462 0.0789-0.26295 0.1753-0.26295s0.1753 0.11833 0.1753 0.26295-0.0789 0.26295-0.1753 0.26295-0.1753-0.11833-0.1753-0.26295zm4.3826-1.1395c0-0.09642 0.0789-0.1753 0.1753-0.1753s0.17531 0.07889 0.17531 0.1753c0 0.09642-0.0789 0.1753-0.17531 0.1753-0.0964 0-0.1753-0.07889-0.1753-0.1753z" fill="#e8a015"/>
   <path d="m-380.52 32.542c-0.0578-0.28925-0.21364-0.52591-0.34622-0.52591-0.13257 0-0.24104-0.11833-0.24104-0.26295 0-0.14462-0.11833-0.26295-0.26296-0.26295-0.40514 0-0.31121-0.29678 0.13148-0.41542 0.57434-0.15392 0.65739-0.13724 0.65739 0.13202 0 0.13338 0.15777 0.28377 0.3506 0.33419 0.44355 0.11599 0.44034 0.09723-0.0793-0.46345-0.43876-0.47344-0.79723-0.60318-0.79723-0.28855 0 0.40343-0.71171 0.03013-0.89216-0.46794-0.0496-0.13699-0.14222-0.12241-0.29804 0.04696-0.18604 0.2022-0.17828 0.24568 0.0438 0.24568 0.14843 0 0.26987 0.07889 0.26987 0.1753 0 0.09642-0.15777 0.1753-0.35061 0.1753-0.19478 0-0.3506-0.11687-0.3506-0.26295 0-0.14462-0.0789-0.26295-0.1753-0.26295s-0.1753 0.15777-0.1753 0.3506 0.0845 0.3506 0.18782 0.3506c0.1033 0 0.30688 0.11906 0.45239 0.26456 0.14551 0.14551 0.34313 0.21601 0.43916 0.15666 0.18997-0.11741 0.84896 0.50246 0.84896 0.79856 0 0.26312-0.3337 0.22459-0.63116-0.07287-0.14053-0.14053-0.37625-0.20917-0.52385-0.15253-0.17295 0.06637-0.30044-0.01982-0.35867-0.24249-0.0669-0.25588-0.25247-0.35156-0.71557-0.36897-0.74117-0.02786-0.92411-0.15901-0.57052-0.40899 0.21976-0.15536 0.21634-0.16918-0.0231-0.09351-0.36689 0.11593-0.93189-0.539-0.98582-1.1428-0.048-0.53725 0.26427-0.83339 0.49487-0.46932 0.0842 0.13287 0.15302 0.1627 0.15302 0.06629 0-0.09642-0.0837-0.29363-0.18596-0.43826-0.13995-0.19788-0.20797-0.20873-0.27488-0.04382-0.10558 0.2602-0.5856 0.29612-0.5856 0.04382 0-0.09642 0.0789-0.1753 0.1753-0.1753 0.20202 0 0.24143-0.98562 0.0438-1.0961-0.0723-0.04044-0.0329-0.04949 0.0876-0.02011 0.13703 0.03341 0.21913-0.13617 0.21913-0.45265 0-0.77232-0.17189-1.0607-0.63231-1.0607-0.30264 0-0.41951-0.09767-0.41951-0.3506 0-0.27054 0.1101-0.34596 0.48208-0.33027 0.2966 0.01251 0.36405 0.05118 0.1753 0.10051-0.47126 0.12316-0.36487 0.34962 0.21913 0.46642 0.30846 0.06169 0.52591 0.21572 0.52591 0.37252 0 0.14704 0.0789 0.26734 0.17531 0.26734 0.0964 0 0.1753 0.11833 0.1753 0.26295 0 0.14462-0.0789 0.26295-0.1753 0.26295s-0.17531 0.19722-0.17531 0.43826-0.0789 0.43826-0.1753 0.43826c-0.28307 0-0.20212 0.32379 0.1753 0.70121 0.19284 0.19283 0.35061 0.5018 0.35061 0.6866s0.0986 0.38128 0.21913 0.43664c0.12052 0.05535 0.0614 0.06372-0.13148 0.01861-0.40567-0.09492-0.93122 0.17665-0.73043 0.37744 0.0748 0.07476 0.19955 0.03299 0.27731-0.09282 0.11142-0.18028 0.16395-0.16992 0.24792 0.0489 0.15794 0.41159 0.64346 0.34239 0.64346-0.09171 0-0.23679 0.0844-0.33699 0.23502-0.27917 0.3161 0.1213 0.81966-0.21794 0.51001-0.34358-0.29477-0.11961-0.27924-0.4103 0.0219-0.4103 0.13884 0 0.24104-0.18185 0.24104-0.42886 0-0.38636-0.0268-0.40208-0.27025-0.15861-0.14865 0.14864-0.27026 0.49189-0.27026 0.76278 0 0.41043-0.039 0.45356-0.23373 0.25878-0.29428-0.29427-0.30176-0.72741-0.0146-0.84587 0.12052-0.04972-0.0277-0.04835-0.32934 3e-3 -0.63519 0.10822-0.82247-0.09529-0.66501-0.72267 0.0706-0.28144 0.23452-0.44632 0.44363-0.44632 0.18237 0 0.33159-0.11833 0.33159-0.26295 0-0.14463 0.11832-0.26295 0.26296-0.26295 0.14462 0 0.26295 0.11833 0.26295 0.26295 0 0.16124 0.16397 0.26295 0.42392 0.26295 0.53671 0 0.9785 0.16676 0.9785 0.36936 0 0.0861-0.11834 0.15655-0.26296 0.15655s-0.26295-0.07889-0.26295-0.1753c0-0.09642-0.11833-0.1753-0.26296-0.1753-0.39544 0-0.31597 0.29585 0.10935 0.40707 0.2942 0.07693 0.34972 0.18736 0.26464 0.52635-0.0814 0.3242-0.029 0.44956 0.21433 0.51319 0.24683 0.06455 0.30389 0.20763 0.24444 0.61281-0.0427 0.29073-5e-3 0.57358 0.0841 0.62855 0.27395 0.16931 0.92379-0.08435 0.92379-0.36059 0-0.16021-0.10171-0.22224-0.26296-0.16036-0.16018 0.06147-0.26295 2.78e-4 -0.26295-0.15655 0-0.1416 0.15777-0.25745 0.3506-0.25745 0.19284 0 0.35061 0.07889 0.35061 0.1753 0 0.09642 0.11833 0.1753 0.26296 0.1753 0.14462 0 0.26295 0.11833 0.26295 0.26295 0 0.14462 0.0789 0.26295 0.1753 0.26295s0.1753 0.2761 0.1753 0.61356-0.0789 0.61356-0.1753 0.61356-0.1753 0.11833-0.1753 0.26295c0 0.14462 0.0789 0.26295 0.1753 0.26295s0.1753 0.07888 0.1753 0.1753c0 0.36037-0.34808 0.15872-0.45392-0.26295-0.0605-0.24104-0.18032-0.43826-0.26629-0.43826-0.086 0-0.1563 0.19722-0.1563 0.43826 0 0.26853 0.0997 0.43826 0.25745 0.43826 0.15683 0 0.21802 0.10278 0.15655 0.26295-0.16383 0.42693-0.41499 0.30183-0.52795-0.26295zm-1.6391-0.70121c0-0.09642-0.0789-0.1753-0.17531-0.1753-0.0964 0-0.1753 0.07888-0.1753 0.1753 0 0.09642 0.0789 0.1753 0.1753 0.1753s0.17531-0.07889 0.17531-0.1753zm2.1955-1.3892c-0.13553-0.42702-0.36326-0.47243-0.50584-0.10086-0.0615 0.16018-2.8e-4 0.26295 0.15655 0.26295 0.1416 0 0.25745 0.09203 0.25745 0.20452 0 0.11248 0.0466 0.15787 0.10366 0.10086 0.057-0.05701 0.0517-0.26737-0.0118-0.46747zm-2.1955-0.71442c0-0.09642 0.13805-0.18085 0.30678-0.18762 0.26232-0.01054 0.25598-0.03415-0.0438-0.16298-0.53227-0.22872-0.61356-0.2055-0.61356 0.1753 0 0.19283 0.0789 0.3506 0.1753 0.3506s0.17531-0.07889 0.17531-0.1753zm-1.5777-1.753c0-0.09642-0.0789-0.1753-0.1753-0.1753s-0.1753 0.07889-0.1753 0.1753c0 0.09642 0.0789 0.1753 0.1753 0.1753s0.1753-0.07889 0.1753-0.1753zm0.66104-0.03287c-0.10835-0.32505-0.48574-0.37896-0.48574-0.06939 0 0.15266 0.12491 0.27756 0.27756 0.27756 0.15267 0 0.24634-0.09368 0.20818-0.20817zm3.1956 4.9413c0-0.09642 0.0789-0.1753 0.1753-0.1753s0.1753 0.07889 0.1753 0.1753c0 0.09642-0.0789 0.1753-0.1753 0.1753s-0.1753-0.07889-0.1753-0.1753zm-6.22-2.8908c-0.19103-0.23117-0.48685-0.45679-0.65739-0.50139-0.17053-0.0446-0.31007-0.2068-0.31007-0.36045s-0.13805-0.28559-0.30678-0.2932c-0.22599-0.0102-0.24156-0.03963-0.0591-0.11177 0.13622-0.05387 0.35138 0.04389 0.47811 0.21722 0.1379 0.18858 0.47477 0.32364 0.83875 0.33628 0.33456 0.01161 0.66921 0.08204 0.74367 0.15649 0.0744 0.07445-2.9e-4 0.08331-0.16608 0.01969-0.20249-0.0777-0.30143-0.02935-0.30143 0.14728 0 0.14462 0.11832 0.30836 0.26295 0.36386 0.14462 0.0555 0.26296 0.18227 0.26296 0.28171 0 0.31745-0.42674 0.17854-0.78558-0.25571zm4.967-0.73267c-0.2339-0.06213-0.58889-0.74392-0.44929-0.86291 0.0203-0.01729 0.25877 0.1962 0.52997 0.47443 0.4882 0.50082 0.48056 0.53755-0.0807 0.38848zm-5.2332-0.32088c0-0.14462-0.11834-0.26295-0.26296-0.26295-0.31851 0-0.34865-0.28503-0.0438-0.41434 0.12052-0.05113-0.13586-0.06031-0.56973-0.02041s-0.65081 0.02993-0.48208-0.02216c0.16873-0.05208 0.30678-0.19941 0.30678-0.32739 0-0.16774 0.20796-0.21338 0.74503-0.16349 0.72277 0.06713 0.7456 0.05351 0.76371-0.45566 0.0119-0.33417-0.0677-0.52486-0.21913-0.52486-0.13079 0-0.2378 0.11585-0.2378 0.25745 0 0.15682-0.10278 0.21801-0.26295 0.15655-0.17515-0.06721-0.26386 0.0078-0.26564 0.22463-2e-3 0.27798-0.0299 0.28712-0.18865 0.06258-0.13994-0.19788-0.20796-0.20873-0.27487-0.04383-0.10558 0.2602-0.58561 0.29612-0.58561 0.04383 0-0.09642 0.0789-0.1753 0.1753-0.1753s0.18445-0.17749 0.19564-0.39443c0.0153-0.29682 0.0401-0.31851 0.10051-0.08765 0.0849 0.32487 0.40506 0.42879 0.40506 0.13148 0-0.09642 0.11833-0.1753 0.26296-0.1753 0.14462 0 0.26295-0.11833 0.26295-0.26295 0-0.14608 0.15582-0.26295 0.3506-0.26295 0.19284 0 0.35061 0.07889 0.35061 0.1753 0 0.09642 0.19721 0.1753 0.43826 0.1753 0.50828 0 0.58648 0.40272 0.16085 0.82835-0.19686 0.19685-0.24545 0.44774-0.16736 0.86399 0.0862 0.45966 0.0514 0.58659-0.16085 0.58659-0.14899 0-0.2709 0.07889-0.2709 0.1753 0 0.09642-0.11833 0.1753-0.26296 0.1753-0.14462 0-0.26295-0.11833-0.26295-0.26295zm-2.23-1.0456c-0.16564-0.1884-0.16643-0.25924-3e-3 -0.31356 0.16169-0.05389 0.16324-0.1687 7e-3 -0.49498-0.15408-0.3212-0.20667-0.34998-0.21564-0.11803-7e-3 0.16873-0.0908 0.30678-0.18717 0.30678-0.0964 0-0.17651-0.13805-0.17799-0.30678-2e-3 -0.26263-0.0275-0.26894-0.1753-0.04383-0.14715 0.22416-0.19609 0.2265-0.33171 0.0159-0.17626-0.27374-0.0663-0.71711 0.17784-0.71711 0.0861 0 0.15656 0.07889 0.15656 0.1753 0 0.09642 0.11832 0.1753 0.26295 0.1753 0.31851 0 0.34865-0.28501 0.0438-0.41441-0.12052-0.05116 0.0767-0.06861 0.43826-0.03877 0.46445 0.03832 0.65738-0.01583 0.65738-0.18454 0-0.13133 0.0789-0.23879 0.1753-0.23879s0.1753 0.19722 0.1753 0.43826c0 0.3563-0.0901 0.44206-0.48208 0.45859-0.3201 0.0135-0.37468 0.0481-0.16243 0.10298 0.1974 0.05104 0.28121 0.18283 0.21913 0.34461-0.0553 0.14408-0.10052 0.45272-0.10052 0.68588 0 0.47444-0.15808 0.52986-0.47695 0.16719zm-1.7185-1.6848c-0.0635-0.2001-0.0688-0.41046-0.0118-0.46747 0.0571-0.05701 0.10366 0.02782 0.10366 0.18851 0 0.16069 0.0789 0.29217 0.1753 0.29217s0.1753 0.07889 0.1753 0.1753c0 0.31985-0.32505 0.18135-0.44245-0.18851zm2.8967-0.05568c0-0.23073 0.1094-0.46148 0.24311-0.51279 0.17099-0.06561 0.21673 0.0076 0.15418 0.2468-0.0676 0.25856-0.0208 0.31396 0.19514 0.23108 0.15625-0.05995 0.28409-0.21642 0.28409-0.34771 0-0.14015 0.10856-0.19704 0.26295-0.13779 0.39382 0.15112 0.31767 0.36226-0.1753 0.48599-0.24105 0.0605-0.43825 0.18738-0.43825 0.28196s-0.11834 0.17196-0.26296 0.17196c-0.16048 0-0.26295-0.16348-0.26296-0.4195zm-2.3478-0.3837c-0.15372-0.40061-0.14119-0.42392 0.22779-0.42392 0.24788 0 0.31052 0.09055 0.2425 0.3506-0.11007 0.42095-0.32409 0.45431-0.47029 0.07331zm2.6984-0.68137c0-0.15682 0.10279-0.21801 0.26296-0.15655 0.1994 0.07652 0.26295-0.03239 0.26295-0.45059v-0.55149l0.38167 0.35558c0.20992 0.19557 0.32826 0.40901 0.26296 0.4743-0.0653 0.06529-0.11872 0.02669-0.11872-0.0858 0-0.11249-0.0789-0.20452-0.1753-0.20452s-0.1753 0.11833-0.1753 0.26295 0.0789 0.26295 0.1753 0.26295 0.1753 0.07889 0.1753 0.1753c0 0.09642-0.23666 0.1753-0.52591 0.1753-0.3456 0-0.52591-0.08826-0.52591-0.25745zm1.2271 0.08215c0-0.09642 0.11833-0.1753 0.26295-0.1753 0.14463 0 0.26296 0.07889 0.26296 0.1753 0 0.09642-0.11833 0.1753-0.26296 0.1753-0.14462 0-0.26295-0.07889-0.26295-0.1753zm3.8567-1.1541c0-0.15266 0.0937-0.24634 0.20817-0.20817 0.32505 0.10835 0.37896 0.48573 0.0694 0.48573-0.15266 0-0.27756-0.1249-0.27756-0.27756zm-1.6411-0.5113c-0.0615-0.16018-2.8e-4 -0.26295 0.15655-0.26295 0.1416 0 0.25745 0.11833 0.25745 0.26295 0 0.14462-0.0704 0.26295-0.15655 0.26295-0.0861 0-0.20195-0.11833-0.25745-0.26295zm1.4797-0.54052c8e-3 -0.20422 0.05-0.24576 0.10591-0.10591 0.0506 0.12655 0.0444 0.27774-0.0139 0.336-0.0582 0.05825-0.0997-0.04529-0.0921-0.23008z" fill="#e49419"/>
   <path d="m-378.71 32.288c-0.0651-0.16978-0.0133-0.2217 0.15655-0.15655 0.13971 0.05361 0.25403 0.16792 0.25403 0.25403 0 0.25202-0.30417 0.1798-0.41058-0.09748zm3.8389-1.7181c0.0667-0.21694 0.13117-0.40635 0.1433-0.42093 0.0121-0.01458 0.33014-0.05401 0.7067-0.08765 0.73237-0.06542 1.0919 0.28181 0.51322 0.4957-0.17675 0.06533-0.38052 0.20342-0.45284 0.30687-0.0884 0.12653-0.18797 0.10203-0.3041-0.07486-0.11543-0.17584-0.17351-0.19036-0.1753-0.04383-1e-3 0.12052-0.12633 0.21913-0.27745 0.21913-0.20399 0-0.24354-0.10159-0.15353-0.39443zm-2.2012-0.30678c0-0.09642 0.0789-0.1753 0.1753-0.1753s0.1753 0.07889 0.1753 0.1753c0 0.09642-0.0789 0.1753-0.1753 0.1753s-0.1753-0.07889-0.1753-0.1753zm1.7092-0.28452c0.12052-0.05241 0.21913-0.32539 0.21913-0.6066 0-0.42852 0.071-0.5113 0.43825-0.5113 0.30154 0 0.43742 0.0957 0.43558 0.30678-4e-3 0.47068-0.21112 0.68099-0.78618 0.79874-0.28925 0.05923-0.4273 0.0648-0.30678 0.01238zm1.9722-0.86747c0-0.88096-0.18264-1.1517-0.96729-1.4339l-0.52277-0.18802 0.56973-0.2292c0.31335-0.12606 0.56973-0.29079 0.56973-0.36606 0-0.07528 0.0789-0.13687 0.1753-0.13687s0.1753 0.19722 0.1753 0.43826c0 0.40946 0.3942 0.62153 0.57022 0.30678 0.0404-0.07231 0.0495-0.03287 0.0202 0.08765-0.0294 0.12052 0.0588 0.21913 0.19608 0.21913 0.14547 0 0.29662 0.25112 0.36248 0.60218 0.1253 0.6679-0.0181 1.0434-0.34984 0.91606-0.11951-0.04586-0.32847-0.01301-0.46435 0.07302-0.17485 0.11069-0.18301 0.15718-0.028 0.15908 0.12053 0.0015 0.21913 0.08157 0.21913 0.17799 0 0.09642-0.11832 0.1753-0.26295 0.1753-0.19539 0-0.26296-0.20591-0.26296-0.80138zm0.62078-0.76468c-0.0635-0.10283-0.1929-0.18697-0.28743-0.18697-0.0945 0-0.0701 0.11037 0.0542 0.24527 0.25168 0.27309 0.41312 0.23273 0.23325-0.05831zm0.0804 1.3908c0-0.09642 0.0789-0.1753 0.1753-0.1753s0.1753 0.07889 0.1753 0.1753c0 0.09642-0.0789 0.1753-0.1753 0.1753s-0.1753-0.07889-0.1753-0.1753zm-7.1874-0.70121c0-0.09642 0.0789-0.1753 0.1753-0.1753s0.17531 0.07889 0.17531 0.1753c0 0.09642-0.0789 0.1753-0.17531 0.1753-0.0964 0-0.1753-0.07889-0.1753-0.1753zm-0.7012-0.3993c0-0.1232 0.15777-0.35908 0.3506-0.52419 0.27595-0.23628 0.3506-0.24768 0.3506-0.05357 0 0.13565 0.0986 0.28664 0.21913 0.33554 0.16491 0.06691 0.15406 0.13493-0.0438 0.27488-0.36354 0.2571-0.87651 0.23798-0.87651-0.03266zm5.6097-0.12661c0-0.09642 0.11834-0.1753 0.26296-0.1753s0.26295 0.07889 0.26295 0.1753c0 0.09642-0.11833 0.1753-0.26295 0.1753s-0.26296-0.07889-0.26296-0.1753zm0.17531-0.52591c0-0.09642 0.0789-0.1753 0.1753-0.1753s0.1753 0.07889 0.1753 0.1753c0 0.09642-0.0789 0.1753-0.1753 0.1753s-0.1753-0.07889-0.1753-0.1753zm2.6295 0c0-0.09642 0.0789-0.1753 0.1753-0.1753s0.1753 0.07889 0.1753 0.1753c0 0.09642-0.0789 0.1753-0.1753 0.1753s-0.1753-0.07889-0.1753-0.1753zm-8.2868-0.53819c0.11966-0.45759 0.92409-0.47012 0.92409-0.0144 0 0.23694-0.13596 0.32779-0.50628 0.33832-0.41691 0.01185-0.49067-0.04533-0.41782-0.32393zm10.566 0.01228c0-0.09642 0.0789-0.1753 0.1753-0.1753s0.1753 0.07889 0.1753 0.1753c0 0.09642-0.0789 0.1753-0.1753 0.1753s-0.1753-0.07889-0.1753-0.1753zm-11.148-0.58407c0.0573-0.17662 0.10419-0.51188 0.10419-0.74504 0-0.35619 0.0859-0.42392 0.53755-0.42392 0.483 0 0.53192 0.04892 0.48208 0.48208-0.0416 0.36162-0.16497 0.49745-0.49372 0.54358-0.24104 0.03382-0.50487 0.15215-0.58627 0.26295-0.0908 0.12358-0.10774 0.07732-0.0438-0.11966zm9.3952-0.02949c0-0.14462 0.0789-0.26295 0.1753-0.26295s0.1753 0.11833 0.1753 0.26295-0.0789 0.26295-0.1753 0.26295-0.1753-0.11833-0.1753-0.26295zm-8.798-1.4345c0.12655-0.05064 0.27774-0.04441 0.33599 0.01384 0.0582 0.05825-0.0453 0.09968-0.23008 0.09207-0.20422-0.0084-0.24576-0.04995-0.10591-0.10591zm-9.2581-0.75676c0-0.09642 0.0789-0.1753 0.17531-0.1753 0.0964 0 0.1753 0.07889 0.1753 0.1753 0 0.09642-0.0789 0.1753-0.1753 0.1753s-0.17531-0.07889-0.17531-0.1753zm9.8169 0.02045c0-0.08517-0.15777-0.19612-0.35061-0.24654-0.19283-0.05043-0.3506-0.2174-0.3506-0.37105s-0.0789-0.27936-0.17531-0.27936c-0.0964 0-0.1753-0.11833-0.1753-0.26295 0-0.18991 0.19478-0.26295 0.70121-0.26295h0.70121v0.78886c0 0.43387-0.0789 0.78886-0.1753 0.78886s-0.1753-0.06969-0.1753-0.15486z" fill="#8ec13b"/>
   <path d="m-378.71 32.6c-0.0643-0.06428-0.11567-0.20233-0.11419-0.30678 1e-3 -0.10445 0.0772-0.07197 0.16838 0.07219 0.14287 0.22599 0.1991 0.21642 0.40816-0.0695 0.17023-0.23279 0.38124-0.30508 0.70814-0.24258 0.36911 0.07056 0.46566 0.02136 0.46566-0.23728 0-0.41383 0.34582-0.43235 0.36444-0.01952 8e-3 0.18327 0.0494 0.21856 0.10226 0.08765 0.10463-0.25928 0.40981-0.29441 0.40981-0.04717 0 0.09458-0.19722 0.22146-0.43826 0.28196-0.24104 0.0605-0.43946 0.20005-0.44094 0.31012-1e-3 0.11007-0.0818 0.08179-0.17851-0.06283-0.15335-0.22934-0.19894-0.22374-0.35663 0.04383-0.17734 0.30091-0.86792 0.42032-1.0983 0.18991zm-0.46748-0.6939c0-0.13257 0.11834-0.24104 0.26296-0.24104 0.3669 0 0.33031-0.48302-0.0438-0.57847-0.16872-0.04305-0.0606-0.06855 0.24039-0.05668 0.33716 0.0133 0.51725 0.09981 0.46922 0.22538-0.0429 0.11209 0.0659 0.24099 0.24168 0.28644 0.29035 0.07507 0.29152 0.08451 0.0129 0.10298-0.16873 0.01118-0.30678 0.1288-0.30678 0.26138 0 0.14024-0.18327 0.24104-0.43826 0.24104-0.25498 0-0.43826-0.1008-0.43826-0.24104zm3.3276-0.35893c0.1429-0.06257 0.36547-0.21941 0.49461-0.34854 0.12912-0.12913 0.38034-0.23478 0.55825-0.23478s0.36326-0.09861 0.4119-0.21913c0.0528-0.1309 0.094-0.09562 0.10226 0.08765 8e-3 0.16873-0.0979 0.30678-0.23452 0.30678-0.13658 0-0.27464 0.06929-0.30677 0.15398-0.0321 0.08469-0.33453 0.20209-0.672 0.26089-0.33745 0.0588-0.49663 0.05571-0.35373-0.0069zm-0.69808-0.23272c0-0.09642 0.0789-0.1753 0.17531-0.1753 0.0964 0 0.1753 0.07889 0.1753 0.1753 0 0.09642-0.0789 0.1753-0.1753 0.1753s-0.17531-0.07889-0.17531-0.1753zm-1.0847-0.29505c0.12655-0.05064 0.27774-0.04441 0.336 0.01384 0.0582 0.05825-0.0453 0.09968-0.23009 0.09207-0.20421-0.0084-0.24575-0.04995-0.10591-0.10591zm0.73409-0.07158c0.19635-0.13886 0.20784-0.20835 0.0454-0.27436-0.16055-0.06523-0.14086-0.16509 0.0751-0.38108 0.26403-0.26402 0.26533-0.29796 0.0134-0.3465-0.40934-0.07885-0.54572-0.55975-0.15875-0.55975 0.23453 0 0.30628-0.12286 0.28156-0.48208-0.0225-0.32734-9e-3 -0.35548 0.042-0.08765 0.10067 0.52814 0.32689 0.49701 0.95538-0.13148 0.28925-0.28925 0.44095-0.52591 0.33712-0.52591s-0.18879-0.07889-0.18879-0.1753c0-0.09642 0.11833-0.1753 0.26295-0.1753 0.14463 0 0.26295-0.07478 0.26295-0.16618 0-0.20507 1.0509 0.14196 1.3586 0.44864 0.12053 0.12012 0.21913 0.57903 0.21913 1.0198 0 0.59547 0.0676 0.80138 0.26295 0.80138 0.14463 0 0.26295-0.07889 0.26295-0.1753 0-0.09642-0.0986-0.17651-0.21912-0.17799-0.15508-0.0019-0.14692-0.0484 0.028-0.15908 0.13587-0.08602 0.34483-0.11888 0.46435-0.07302 0.33175 0.1273 0.47513-0.24816 0.34983-0.91606-0.0659-0.35107-0.21701-0.60218-0.36248-0.60218-0.14975 0-0.20916-0.10512-0.1486-0.26295 0.15257-0.39759 0.39407-0.31575 0.51732 0.1753 0.0605 0.24104 0.21826 0.43826 0.35059 0.43826 0.18122 0 0.22115-0.20549 0.16177-0.83269-0.0433-0.45798-0.036-0.69464 0.0162-0.52591 0.10108 0.32632 0.41993 0.42615 0.41993 0.13148 0-0.09642 0.11833-0.1753 0.26295-0.1753 0.14463 0 0.26295 0.11833 0.26295 0.26295s-0.11832 0.26295-0.26295 0.26295c-0.14462 0-0.26295 0.11269-0.26295 0.25043 0 0.13774 0.11833 0.36876 0.26295 0.51339 0.14463 0.14462 0.26295 0.34747 0.26295 0.45078 0 0.1033-0.11832 0.18782-0.26295 0.18782-0.14462 0-0.26295-0.07889-0.26295-0.1753 0-0.09642-0.0789-0.1753-0.1753-0.1753s-0.1753 0.23418-0.1753 0.5204c0 0.35984-0.0716 0.49292-0.23213 0.43133-0.12767-0.04899-0.43328 0.11209-0.67915 0.35795-0.24586 0.24586-0.595 0.4337-0.77586 0.41741-0.90116-0.08117-1.4453 0.03902-1.5064 0.33271-0.0519 0.24946-0.0839 0.23308-0.17174-0.08765-0.0829-0.30291-0.0348-0.39443 0.20746-0.39443 0.31329 0 0.52825-0.32683 0.52825-0.8032 0-0.16726-0.20077-0.24862-0.61356-0.24862-0.60166 0-0.82725 0.23468-0.39443 0.4103 0.15798 0.0641 0.16458 0.12932 0.0236 0.23374-0.10752 0.07965-0.25089 0.32232-0.31859 0.53925-0.12265 0.39302-0.45007 0.55243-0.45007 0.21913 0-0.09642 0.0697-0.1753 0.15486-0.1753 0.0852 0 0.19611-0.15777 0.24654-0.3506 0.0645-0.24658 5e-3 -0.35034-0.19869-0.3497-0.21706 6.63e-4 -0.30102 0.18589-0.33259 0.7337-0.0421 0.73142-0.24971 1.013-0.74663 1.013-0.23374 0-0.23374-0.02067 0-0.18596zm2.4542-2.4382c0-0.09642-0.11833-0.1753-0.26295-0.1753s-0.26296 0.07889-0.26296 0.1753c0 0.09642 0.11834 0.1753 0.26296 0.1753s0.26295-0.07889 0.26295-0.1753zm0-0.52591c0-0.09642-0.0789-0.1753-0.1753-0.1753s-0.17531 0.07889-0.17531 0.1753c0 0.09642 0.0789 0.1753 0.17531 0.1753 0.0964 0 0.1753-0.07889 0.1753-0.1753zm-1.5777 2.8236c0-0.15658 0.41222-0.36936 0.71554-0.36936 0.0885 0 0.16096 0.11833 0.16096 0.26295 0 0.3184-0.28664 0.34906-0.4098 0.04383-0.0707-0.1753-0.0912-0.1753-0.10226 0-0.0156 0.24654-0.36444 0.30645-0.36444 0.06258zm-2.9363-0.31016c-0.25076-0.10118-0.29788-0.40981-0.0625-0.40981 0.0861 0 0.20195 0.11833 0.25745 0.26295 0.0555 0.14462 0.0837 0.25673 0.0625 0.24911-0.0211-0.0076-0.13692-0.05363-0.25745-0.10226zm0.67772-0.80424c0.0145-0.27976 0.0431-0.30832 0.0985-0.09825 0.043 0.1629 0.2902 0.32857 0.5494 0.36816 0.42543 0.06498 0.41585 0.07454-0.0985 0.09825-0.48713 0.02246-0.56679-0.03092-0.54941-0.36816zm-1.9023-0.04034c-0.11911-0.13538-0.35511-0.32367-0.52445-0.41844-0.39214-0.21945-0.2932-0.29994 0.52367-0.42601 0.56969-0.08792 0.62536-0.06791 0.41004 0.14741-0.13703 0.13703-0.20752 0.4083-0.15665 0.60283 0.1078 0.4122 0.0471 0.43484-0.25261 0.09422zm-0.88572-1.4497c0.0437-0.41683-7e-3 -0.47576-0.37205-0.43535-0.24608 0.02722-0.56006-0.10089-0.75187-0.30678-0.18114-0.19443-0.24739-0.35352-0.14721-0.35352 0.36258 0 0.17151-0.31526-0.25613-0.42259-0.61537-0.15445-0.54501-0.39072 0.14994-0.5035 0.64079-0.10399 1.6112-0.8808 1.4421-1.1544-0.16576-0.2682 0.39706-0.72346 0.73582-0.59521 0.5921 0.22416 0.73996 0.54615 0.73996 1.6114 0 1.0098-0.0218 1.0643-0.4254 1.0643-0.25774 0-0.457 0.12091-0.50557 0.30678-0.0764 0.29217-0.0811 0.29217-0.10051 0-0.0112-0.16873-0.0992-0.30678-0.19564-0.30678-0.40209 0-0.13616-0.33182 0.30678-0.38279 0.37865-0.04357 0.49399-0.1589 0.53756-0.53755 0.0516-0.44848 0.0106-0.48208-0.58849-0.48208-0.51479 0-0.62265 0.05554-0.53771 0.27688 0.13169 0.34318-0.0512 1.1255-0.26305 1.1255-0.086 0-0.1563-0.11833-0.1563-0.26295s0.0789-0.26295 0.17531-0.26295c0.0964 0 0.1753-0.07889 0.1753-0.1753 0-0.09642-0.19722-0.1753-0.43826-0.1753-0.24103 0-0.43825 0.07889-0.43825 0.1753 0 0.09642 0.0789 0.1753 0.1753 0.1753s0.17531 0.11833 0.17531 0.26295-0.0789 0.26295-0.17531 0.26295c-0.0964 0-0.1753 0.11833-0.1753 0.26295 0 0.14462 0.11832 0.26295 0.26296 0.26295 0.14462 0 0.26294-0.07889 0.26294-0.1753 0-0.09642 0.11833-0.1753 0.26296-0.1753s0.26295 0.12428 0.26295 0.27617c0 0.19211 0.14673 0.26649 0.48208 0.24438 0.26515-0.01749 0.5807-0.02343 0.70122-0.01321 0.25843 0.02191 0.30049 0.54448 0.0438 0.54448-0.0964 0-0.1753-0.12985-0.1753-0.28855 0-0.22021-0.10181-0.17869-0.42988 0.1753-0.55235 0.59599-0.82366 0.58949-0.76004-0.01823zm0.96715-2.7793c-0.0582-0.05825-0.20945-0.06448-0.336-0.01384-0.13985 0.05596-0.0983 0.0975 0.10591 0.10591 0.1848 0.0076 0.28834-0.03382 0.23009-0.09207zm7.0965 2.9807c-0.12432-0.1349-0.1487-0.24527-0.0542-0.24527 0.18204 0 0.44557 0.33346 0.34159 0.43224-0.0338 0.03207-0.1631-0.05206-0.28742-0.18696zm2.3589-0.18684c-0.20171-0.20171-0.12766-0.40904 0.14609-0.40904 0.14463 0 0.26295 0.11833 0.26295 0.26295 0 0.27375-0.20733 0.34779-0.40904 0.14608zm0.27757-0.52514c-0.34352-0.13861-0.25652-0.40981 0.13147-0.40981 0.19479 0 0.35061 0.11687 0.35061 0.26295 0 0.27013-0.10061 0.30078-0.48208 0.14685zm-13.717-1.2967c0-0.19852-0.063-0.32206-0.13985-0.27452-0.20538 0.12693-0.66247-0.19836-0.50293-0.35791 0.0748-0.07476 0.21477-0.01988 0.31113 0.12194 0.14095 0.20747 0.16347 0.18935 0.11523-0.09273-0.0349-0.20384-0.18558-0.34041-0.36003-0.32626-0.16504 0.01339-0.30007-0.07602-0.30007-0.19869 0-0.32243 0.85168-0.43901 1.1353-0.15541 0.1854 0.1854 0.25878 0.1902 0.32736 0.02141 0.0681-0.1676 0.12685-0.16269 0.25583 0.0214 0.14135 0.20175 0.18437 0.20175 0.27629 0 0.0843-0.18505 0.13194-0.18953 0.21113-0.01984 0.0563 0.12052 0.21402 0.21913 0.35061 0.21913s0.24835 0.15777 0.24835 0.3506-0.0789 0.3506-0.17531 0.3506c-0.0964 0-0.1753-0.11833-0.1753-0.26295 0-0.18261-0.18365-0.26295-0.60104-0.26295-0.33057 0-0.72889-0.12786-0.88516-0.28413-0.26197-0.26197-0.2747-0.24488-0.16317 0.21913 0.15696 0.65298 0.23098 0.7238 0.4291 0.41053 0.18697-0.29564 0.2118-0.08689 0.058 0.48716-0.13237 0.49394-0.41542 0.51675-0.41542 0.03348zm-4.3826-2.2686c0-0.09642 0.0789-0.1753 0.1753-0.1753s0.1753 0.07889 0.1753 0.1753c0 0.09642-0.0789 0.1753-0.1753 0.1753s-0.1753-0.07889-0.1753-0.1753zm7.8886-1.0314c0-0.08517 0.17749-0.20242 0.39443-0.26056 0.58008-0.15546 0.65738-0.13753 0.65738 0.15246 0 0.1753-0.1753 0.26295-0.5259 0.26295-0.28926 0-0.52591-0.06969-0.52591-0.15486z" fill="#83b646"/>
   <path d="m-381.46 32.892c0-0.09642 0.0789-0.1753 0.17531-0.1753 0.0964 0 0.17531 0.07888 0.17531 0.1753 0 0.09642-0.0789 0.1753-0.17531 0.1753-0.0964 0-0.17531-0.07889-0.17531-0.1753zm2.2789-0.26295c0-0.48961 0.25573-0.58774 0.4195-0.16096 0.16833 0.43866 0.12639 0.59922-0.15655 0.59922-0.16362 0-0.26295-0.16556-0.26295-0.43826zm1.4024 7e-3c0-0.0383 0.13542-0.20506 0.30095-0.37058 0.28439-0.2844 0.26994-0.2964-0.26295-0.21818-0.60491 0.08878-0.82668-0.28804-0.25713-0.43688 0.27682-0.07234 0.27498-0.08216-0.0188-0.1005-0.20002-0.0125-0.28985-0.11332-0.23299-0.2615 0.0509-0.13264 1.8e-4 -0.23854-0.11272-0.23534-0.58799 0.0167-0.81883-0.07665-0.81883-0.33111 0-0.17399 0.0971-0.24444 0.25403-0.18423 0.16979 0.06515 0.2217 0.01324 0.15655-0.15655-0.0536-0.13971-0.16792-0.25403-0.25402-0.25403-0.26892 0-0.17088-0.4829 0.12074-0.5948 0.46333-0.17779 0.59922-0.12241 0.59922 0.2442 0 0.28407 0.10812 0.34562 0.56973 0.32434 0.53028-0.02445 0.53635-0.03133 0.0876-0.09929-0.33451-0.05067-0.48208-0.17679-0.48208-0.41199 0-0.18643 0.11833-0.33896 0.26295-0.33896 0.14463 0 0.26295-0.07889 0.26295-0.1753 0-0.25445 0.83107-0.21552 0.93573 0.04383 0.0486 0.12052 0.0946 0.0099 0.10225-0.2458 0.0102-0.344 0.13924-0.50802 0.49592-0.63057 0.26515-0.0911 0.58032-0.13181 0.70037-0.09047 0.3416 0.11762-0.72828 1.0864-1.3334 1.2074-0.55676 0.11135-0.58921 0.5075-0.0532 0.64946 0.25965 0.06876 0.258 0.07954-0.0149 0.09763-0.35137 0.02329-0.41636 0.47256-0.0876 0.60594 0.1649 0.06691 0.15406 0.13493-0.0438 0.27488-0.15507 0.10967-0.17893 0.18707-0.0582 0.18865 0.48185 0.0063 0.75954-0.23909 0.76206-0.67346 2e-3 -0.37528 0.038-0.41336 0.18865-0.20037 0.13994 0.19788 0.20796 0.20873 0.27487 0.04383 0.0489-0.12052 0.24012-0.21913 0.42492-0.21913 0.2546 0 0.33107 0.11678 0.31565 0.48208-0.0125 0.29659-0.0512 0.36404-0.10049 0.1753-0.0441-0.16873-0.18178-0.30678-0.30596-0.30678-0.26978 0-0.15166 0.88988 0.14614 1.101 0.10616 0.07524-0.0437 0.08858-0.3329 0.02965-0.38857-0.07917-0.45857-0.06017-0.26803 0.07279 0.29831 0.20817 0.24645 0.28346-0.31401 0.45591-0.32272 0.0993-0.42653 0.04947-0.50253-0.24118-0.13513-0.51676-0.34401-0.45468-0.46244 0.13745-0.0554 0.27708-0.22304 0.5507-0.37252 0.60806-0.14946 0.05736-0.27175 0.07295-0.27175 0.03466zm1.5777-0.79588c0-0.09642-0.0789-0.1753-0.1753-0.1753s-0.17531 0.07889-0.17531 0.1753c0 0.09642 0.0789 0.1753 0.17531 0.1753 0.0964 0 0.1753-0.07889 0.1753-0.1753zm0-0.52591c0-0.09642-0.0789-0.1753-0.1753-0.1753s-0.17531 0.07889-0.17531 0.1753c0 0.09642 0.0789 0.1753 0.17531 0.1753 0.0964 0 0.1753-0.07889 0.1753-0.1753zm-1.0993-0.28122c-0.0582-0.05825-0.20945-0.06448-0.336-0.01384-0.13984 0.05596-0.0983 0.0975 0.10591 0.10591 0.1848 0.0076 0.28834-0.03382 0.23009-0.09207zm1.6252-0.24469c0-0.09642-0.0789-0.1753-0.1753-0.1753s-0.17531 0.07889-0.17531 0.1753c0 0.09642 0.0789 0.1753 0.17531 0.1753 0.0964 0 0.1753-0.07889 0.1753-0.1753zm-3.506 0.61356c0-0.14462 0.11833-0.26295 0.26295-0.26295 0.14463 0 0.26295 0.11833 0.26295 0.26295s-0.11832 0.26295-0.26295 0.26295c-0.14462 0-0.26295-0.11833-0.26295-0.26295zm-0.74412-1.753c-0.0562-0.29388-5e-3 -0.43826 0.15487-0.43826 0.13768 0 0.23864 0.1854 0.23864 0.43826 0 0.24104-0.0697 0.43826-0.15486 0.43826-0.0852 0-0.19257-0.19722-0.23865-0.43826zm3.8362 0c-0.0657-0.1713 4e-3 -0.26202 0.20038-0.26027 0.41401 0.0037 0.84683 0.29905 0.6811 0.46479-0.0748 0.07476-0.20932 0.01988-0.29902-0.12195-0.11044-0.17464-0.16395-0.18714-0.16577-0.03875-4e-3 0.30517-0.2945 0.27459-0.41669-0.04383zm3.8324-0.26295c0.0596-0.09642 0.18257-0.1753 0.2733-0.1753 0.0907 0 0.16495 0.07889 0.16495 0.1753 0 0.09642-0.12298 0.1753-0.2733 0.1753-0.15031 0-0.22454-0.07888-0.16495-0.1753zm-3.2431-0.3506c0-0.09642 0.0789-0.1753 0.1753-0.1753s0.17531 0.07889 0.17531 0.1753c0 0.09642-0.0789 0.1753-0.17531 0.1753-0.0964 0-0.1753-0.07889-0.1753-0.1753zm3.8567-0.26295c0-0.24104 0.0723-0.43826 0.16069-0.43826 0.20533 0 0.33755 0.37305 0.23298 0.65738-0.13953 0.37944-0.39367 0.23798-0.39367-0.21913zm0.87651-0.27548c0-0.1033-0.11833-0.30615-0.26296-0.45078-0.14462-0.14462-0.26295-0.37565-0.26295-0.51339s0.11833-0.25043 0.26295-0.25043c0.14463 0 0.26296-0.11833 0.26296-0.26295 0-0.14608 0.15582-0.26295 0.3506-0.26295s0.35061 0.11687 0.35061 0.26295c0 0.14462-0.11833 0.26295-0.26296 0.26295-0.14462 0-0.26294 0.07045-0.26294 0.15655 0 0.0861 0.11832 0.20196 0.26294 0.25745 0.14463 0.0555 0.25673 0.20199 0.24912 0.32554-0.0108 0.17594-0.033 0.17713-0.10226 0.0055-0.0486-0.12052-0.20168-0.21913-0.34011-0.21913-0.18092 0-0.22076 0.12321-0.14169 0.43826 0.0605 0.24104 0.062 0.43826 3e-3 0.43826-0.0586-1e-6 -0.10667-0.08452-0.10667-0.18783zm-10.781-0.33808c-0.12783-0.20684 0.038-0.52591 0.2733-0.52591 0.0907 0 0.16496 0.15777 0.16496 0.3506 0 0.36973-0.25504 0.47175-0.43826 0.1753zm9.5102-0.3441c-0.37239-0.36279-0.39011-0.53241-0.0556-0.53241 0.13812 0 0.3031 0.16372 0.3666 0.36382 0.15306 0.48221 0.0618 0.5317-0.31097 0.1686zm-8.8966-0.26946c0-0.14462-0.11832-0.26295-0.26295-0.26295s-0.26296 0.07889-0.26296 0.1753c0 0.09642-0.11832 0.1753-0.26294 0.1753-0.14464 0-0.26296-0.1054-0.26296-0.23422 0-0.1518 0.24673-0.24388 0.70121-0.26169 0.59269-0.02322 0.70121 0.02659 0.70121 0.32187 0 0.19214-0.0789 0.34934-0.17531 0.34934-0.0964 0-0.1753-0.11833-0.1753-0.26295zm-2.1036-0.61356c0-0.09642-0.16403-0.1753-0.36453-0.1753-0.31482 0-0.35096-0.07771-0.26502-0.56973 0.0547-0.31335 0.0545-0.47112-6.6e-4 -0.3506-0.0551 0.12052-0.1725 0.21913-0.26089 0.21913-0.26644 0-0.18083-0.531 0.13628-0.84521 0.27808-0.27554 0.28958-0.27475 0.1808 0.01252-0.0968 0.25554-0.0146 0.30678 0.49189 0.30678 0.42363 0 0.60806 0.07976 0.60806 0.26295 0 0.14462 0.0789 0.26295 0.1753 0.26295s0.17531-0.15777 0.17531-0.3506-0.11176-0.3506-0.24835-0.3506-0.28835-0.09861-0.33726-0.21913c-0.0671-0.16544-0.1384-0.15471-0.29091 0.04383-0.17955 0.23374-0.19398 0.23374-0.12989 0 0.0563-0.20525 0.29964-0.24948 1.109-0.20156 0.57029 0.03376 1.069 0.09214 1.1082 0.12974 0.17536 0.16809-0.96907 0.98806-1.4991 1.0741-0.69495 0.11277-0.76531 0.34905-0.14994 0.5035 0.24104 0.0605 0.43826 0.18033 0.43826 0.26629 0 0.08596-0.19722 0.1563-0.43826 0.1563s-0.43826-0.07889-0.43826-0.1753zm1.2459-0.31513c-0.10674-0.03558-0.19408-0.13701-0.19408-0.22539 0-0.24791 0.82773-0.19005 0.92549 0.06469 0.0832 0.21676-0.30643 0.30235-0.73141 0.16069zm-2.6345-0.69286c-8e-3 -0.12052-0.14794-0.21913-0.31185-0.21913-0.23179 0-0.25127-0.04675-0.0876-0.21036 0.26045-0.26045 0.64925 0.05723 0.50688 0.41415-0.0682 0.17099-0.0973 0.17514-0.10738 0.01534zm-7.5518-2.1434c0-0.07615 0.15778-0.1797 0.35062-0.23013 0.19283-0.05043 0.35059-0.02939 0.35059 0.04676 0 0.07614-0.15776 0.1797-0.35059 0.23013-0.19284 0.05043-0.35062 0.02939-0.35062-0.04676zm11.921-1.2256c0-0.09339 0.11832-0.12439 0.26295-0.0689 0.14462 0.0555 0.26295 0.13191 0.26295 0.1698 0 0.03789-0.11833 0.0689-0.26295 0.0689-0.14463 0-0.26295-0.07641-0.26295-0.1698z" fill="#7aad4f"/>
  </g>
  <path transform="scale(.26458)" d="m-1405.4 100.06c-1.4024 0.0381-2.6309 0.20465-3.6016 0.44141-4.1288 0.5867-2.9664 2.146-6.1231 2.7773-3.1567 0.63135-5.9973 2.5882-8.3964 3.7246-2.3992 1.1364-7.9461 4.989-10.729 5.1152v14.869c16.117-5.769 29.924-14.358 39.564-24.004-0.806-0.83909-1.6878-1.4941-2.6367-1.7891-2.92-0.90756-5.7408-1.1983-8.0781-1.1348z" fill="none" stroke="#000" stroke-linecap="round" stroke-miterlimit="9.9" stroke-width=".75"/>
  <path d="m-378.65 32.892c0-0.09642 0.0789-0.1753 0.17531-0.1753 0.0964 0 0.1753 0.07888 0.1753 0.1753 0 0.09642-0.0789 0.1753-0.1753 0.1753s-0.17531-0.07889-0.17531-0.1753zm1.5777-0.52591c0-0.09642 0.0789-0.1753 0.17531-0.1753 0.0964 0 0.1753 0.07889 0.1753 0.1753 0 0.09642-0.0789 0.1753-0.1753 0.1753s-0.17531-0.07889-0.17531-0.1753zm3.8567-2.1036c0-0.09642 0.0789-0.1753 0.1753-0.1753s0.1753 0.07889 0.1753 0.1753c0 0.09642-0.0789 0.1753-0.1753 0.1753s-0.1753-0.07889-0.1753-0.1753zm-0.16146-2.9071c8e-3 -0.20422 0.0499-0.24576 0.10591-0.10591 0.0506 0.12655 0.0444 0.27774-0.0139 0.336-0.0582 0.05825-0.0997-0.04529-0.0921-0.23008zm0.90982-0.19452c0.17057-0.04444 0.40723-0.04152 0.52591 0.0065 0.11869 0.04802-0.0209 0.08438-0.31011 0.08081-0.28925-0.0036-0.38636-0.04286-0.2158-0.08731zm2.5495 0.0017c0.12655-0.05064 0.27775-0.04441 0.336 0.01384 0.0582 0.05825-0.0453 0.09968-0.23009 0.09207-0.20421-0.0084-0.24574-0.04995-0.10591-0.10591zm-21.354-1.9839c0-0.09642 0.0789-0.1753 0.17531-0.1753 0.0964 0 0.17531 0.07889 0.17531 0.1753 0 0.09642-0.0789 0.1753-0.17531 0.1753-0.0964 0-0.17531-0.07888-0.17531-0.1753zm6.4533-0.29505c0.12654-0.05064 0.27775-0.04441 0.336 0.01384 0.0582 0.05825-0.0453 0.09968-0.23008 0.09207-0.20422-0.0084-0.24577-0.04995-0.10592-0.10591zm3.8895-0.66911c0-0.14462 0.0789-0.26295 0.1753-0.26295s0.17531 0.11833 0.17531 0.26295c0 0.14462-0.0789 0.26295-0.17531 0.26295-0.0964 0-0.1753-0.11833-0.1753-0.26295zm0-1.1395c0-0.09642 0.0789-0.1753 0.1753-0.1753s0.17531 0.07889 0.17531 0.1753c0 0.09642-0.0789 0.1753-0.17531 0.1753-0.0964 0-0.1753-0.07888-0.1753-0.1753zm0.52591-0.52591c0-0.09642 0.0789-0.1753 0.1753-0.1753s0.17531 0.07889 0.17531 0.1753c0 0.09642-0.0789 0.1753-0.17531 0.1753-0.0964 0-0.1753-0.07889-0.1753-0.1753z" fill="#6a9233" stroke-width=".1753"/>
  <path d="m-379.49 33.598v-38.554" fill="none" stroke="#000" stroke-linecap="round" stroke-miterlimit="6.95" stroke-width=".26458"/>
  <path d="m-380.91 14.379a0.1323 0.1323 0 0 0-0.0996 0.04883l-8.7363 10.307a0.1323 0.1323 0 1 0 0.20117 0.16992l8.7363-10.307a0.1323 0.1323 0 0 0-0.10157-0.21875z" color="#000000" color-rendering="auto" fill-rule="evenodd" image-rendering="auto" shape-rendering="auto" style="font-feature-settings:normal;font-variant-alternates:normal;font-variant-caps:normal;font-variant-ligatures:normal;font-variant-numeric:normal;font-variant-position:normal;isolation:auto;mix-blend-mode:normal;shape-padding:0;text-decoration-color:#000000;text-decoration-line:none;text-decoration-style:solid;text-indent:0;text-orientation:mixed;text-transform:none;white-space:normal"/>
  <path d="m-387.22 23.322c0.54334 0.56696 0.66145 0.93313 1.1221 1.1457 0.46067 0.21261 4.1932 0.17718 4.453 0.18899 0.25987 0.01181 0.22444-0.61421 0.25987-0.99219 0.0354-0.37798 0.43704-2.0671 0.38978-2.5159-0.0473-0.44885 0.33073-1.441 0.28348-1.7009-0.0472-0.25986-0.20079-0.56696-0.22442-1.0985-0.0236-0.53153 0.0354-1.5828-0.33073-1.8544-0.36616-0.27167-1.0394 0.12993-1.0394 0.12993s-0.88588 4.3231-1.8072 4.4885c-0.92134 0.16536-3.1065 0.7087-3.1065 2.2088z" fill="#ef7112" fill-rule="evenodd"/>
  <path d="m-386.09 24.574c0.36618-0.27167 0.49609-0.49609 0.56698-0.88588 0.0709-0.38979 0.0473-1.3938-0.22442-1.6536-0.27168-0.25986 1.5828-0.27167 1.6773 0.04725 0.0945 0.31892-0.22445 1.1694-0.14176 1.6064 0.0827 0.43704-0.18897 1.2284-0.24805 1.5592-0.0591 0.33073 1.7482 0.53153 2.1379 0.29529 0.38978-0.23624 0.0354-0.95675-0.16537-1.2757-0.20079-0.31892-0.27167-0.81501-0.35435-1.3584-0.0827-0.54334-0.11811-1.0276-0.31891-1.2757-0.20081-0.24805 0.61421-0.49609 1.3465-0.25986 0.73234 0.23624 0.90951 0.12993 1.1694 0.29529 0.25985 0.16536 0.36616-1.2757-0.43704-1.6064-0.80319-0.33073-1.1458-0.42522-1.4174-0.49609-0.27167-0.07087 0.12991-1.6655 0.59058-1.5237 0.46067 0.14174 1.4528 0.66146 1.63 0.64965 0.17719-0.01181 0.15356-0.9095-0.56695-1.382-0.72054-0.47247-1.0631-0.51972-1.4647-0.68508-0.40159-0.16536 1.4883-0.55515 1.5592-0.55515 0.0709 0 2.7876 4.1223 1.7363 5.2208-1.0512 1.0985-3.0947 1.3347-2.7639 1.9726s0.88587 1.3111 0.88587 1.3111 0.90951 2.256-0.88587 1.9844c-1.7954-0.27167-4.8783-1.3229-4.3113-1.9844z" clip-path="url(#clipPath892)" fill="none" stroke="#f5e07d" stroke-linecap="round" stroke-miterlimit="9.9" stroke-width=".59531"/>
  <g fill-rule="evenodd">
   <path d="m-383.3 16.364c-0.57877-0.16536-1.6182-0.43704-1.7481-0.66146-0.12993-0.22442-1.0512-0.92132-1.0985-1.1221-0.0473-0.2008-0.0827-0.47247-0.0945-0.41341-0.0119 0.05906-0.0354 0.43704-0.15356 0.41341-0.11811-0.02362-0.43704-0.09449-0.5079-0.22442-0.0709-0.12993-0.15356-0.10631-0.11813 0.11812 0.0355 0.22442-0.11811 0.61421 0.18899 0.66146 0.3071 0.04725 0.68509 0.25986 0.77959 0.5079s1.9371 1.9726 2.0434 2.008c0.10631 0.03543 0.70869-1.2875 0.70869-1.2875z" fill="#653301" stroke="#000" stroke-linecap="round" stroke-miterlimit="9.9" stroke-width=".19844"/>
   <path transform="scale(.26458)" d="m-1488.4-18.73v50.702h108.24v-50.702z" fill="#006"/>
   <path transform="scale(.26458)" d="m-1488.4-18.73v4.459l30.484 13.998h-30.484v14.004h30.484l-30.484 13.998v4.2441h7.5312l39.592-18.178v18.178h13.996v-18.18l39.594 18.18h7.5312v-4.2441l-30.484-13.998h30.484v-14.004h-30.484l30.484-13.998v-4.459h-7.0625l-40.062 18.396v-18.396h-13.996v18.393l-40.053-18.393z" color="#000000" color-rendering="auto" fill="#fff" image-rendering="auto" shape-rendering="auto" style="font-feature-settings:normal;font-variant-alternates:normal;font-variant-caps:normal;font-variant-ligatures:normal;font-variant-numeric:normal;font-variant-position:normal;isolation:auto;mix-blend-mode:normal;shape-padding:0;text-decoration-color:#000000;text-decoration-line:none;text-decoration-style:solid;text-indent:0;text-orientation:mixed;text-transform:none;white-space:normal"/>
   <path transform="scale(.26458)" d="m-1439-18.73v20.709h-49.375v9.5h49.375v20.493h9.5v-20.493h49.369v-9.5h-49.369v-20.709z" color="#000000" color-rendering="auto" fill="#c00" image-rendering="auto" shape-rendering="auto" style="font-feature-settings:normal;font-variant-alternates:normal;font-variant-caps:normal;font-variant-ligatures:normal;font-variant-numeric:normal;font-variant-position:normal;isolation:auto;mix-blend-mode:normal;shape-padding:0;text-decoration-color:#000000;text-decoration-line:none;text-decoration-style:solid;text-indent:0;text-orientation:mixed;text-transform:none;white-space:normal"/>
  </g>
  <g stroke="#000">
   <g stroke-linecap="round" stroke-miterlimit="9.9" stroke-width=".19844">
    <path d="m-387.22 23.322c0.54334 0.56696 0.66145 0.93313 1.1221 1.1457 0.46067 0.21261 4.1932 0.17718 4.453 0.18899 0.25987 0.01181 0.22444-0.61421 0.25987-0.99219 0.0354-0.37798 0.43704-2.0671 0.38978-2.5159-0.0473-0.44885 0.33073-1.441 0.28348-1.7009-0.0472-0.25986-0.20079-0.56696-0.22442-1.0985-0.0236-0.53153 0.0354-1.5828-0.33073-1.8544-0.36616-0.27167-1.0394 0.12993-1.0394 0.12993s-0.88588 4.3231-1.8072 4.4885c-0.92134 0.16536-3.1065 0.7087-3.1065 2.2088z" fill="none"/>
    <path d="m-382.45 14.841c0.27168-0.24805 0.38979-0.4016 0.36618-0.67327-0.0235-0.27167-0.21261-0.69689-0.36618-0.86226-0.15354-0.16536-0.21259-0.37798-0.54332-0.47247-0.33073-0.09449-0.61423-0.09449-0.73234 0.01181-0.11811 0.10631-0.44884 0.68508-0.50789 0.89769-0.0591 0.21261-0.0236 0.31892-0.16537 0.46066-0.14176 0.14174-0.35436 0.15355-0.2835 0.29529 0.0709 0.14174 0.20082 0.04725 0.22442 0.12993 0.0236 0.08268-0.0591 0.17718 0.0827 0.37798 0.14177 0.2008 0.15357 0.33073 0.36618 0.33073 0.2126 0 0.40159-0.04725 0.40159-0.04725s0.0236 0.66146-0.0472 0.73233c-0.0709 0.07087-0.36618 0.67327-0.48429 0.93313-0.11811 0.25986-0.11811 0.47247-0.14174 0.81501-0.0236 0.34254-0.0119 1.0276-0.0119 1.1576 0 0.12993 0.14177 0.46066-0.10628 0.69689s-0.51972 0.61421-0.61423 0.67327c-0.0945 0.05906-0.29527 0.44885-0.89768 0.67327-0.6024 0.22442-1.6655 0.27167-1.8426 1.5592-0.17719 1.2875-0.48429 2.1852-0.55514 2.3033-0.0709 0.11812-1.5001 0.74414-1.3702 0.82682 0.12994 0.08268 1.3466-0.04725 1.5946-0.03544 0.24804 0.01181 0.54334 0.12993 0.54334 0.03544 0-0.09449-0.0591-1.0867 0.0119-1.1576 0.0709-0.07087 0.63783-0.83863 0.63783-1.0512s-0.059-1.2048 0.63783-1.2048c0.69691 0 2.256 0 2.7994-0.02362s1.7363-0.24805 1.7363-1.5001-0.0354-3.6971-0.0473-3.8979-0.42521-0.96856-0.64963-1.1221c-0.22444-0.15355-0.35435-0.37798-0.33073-0.49609 0.0236-0.11812 0.29528-0.36616 0.29528-0.36616z" fill="#653301" fill-rule="evenodd"/>
    <path d="m-385.8 20.936c2.4636-0.29954 2.3723-0.993 2.3624-3.8152" fill="none"/>
    <path d="m-382.82 16.246c0.88588 0.09449 0.29159 3.57 1.0946 3.6137" fill="none"/>
   </g>
   <path transform="scale(.26458)" d="m-1449.2 48.24c-0.4799 0.0056-0.8588 0.10576-1.082 0.30664-0.4212 0.37912-1.5313 2.3129-1.8457 3.209 0.086 0.02564 0.1785 0.03441 0.2832 0.0059 0.7234 0.0068 1.5476-0.15356 2.1621 0.33203 0.7192 0.92775 1.0272 2.222 2.1133 2.8262 0.6281 0.51689 1.3735 0.90471 2.1621 1.1191 0.9833-0.90488 1.4175-1.4861 1.3301-2.4922-0.089-1.0268-0.8024-2.6348-1.3828-3.2598-0.5803-0.625-0.8047-1.428-2.0547-1.7852-0.625-0.17856-1.2056-0.2673-1.6856-0.26172z" stroke-width="1px"/>
   <g>
    <path d="m-388.96 24.012-0.13059-0.43561-0.72482 1.4448 1.2959-0.96123z" fill="#653301" fill-rule="evenodd" stroke-miterlimit="6.95" stroke-width=".13229"/>
    <g stroke-linecap="round">
     <path d="m-365.17-4.9557v24.57c0 5.1942-6.0042 11.007-14.32 13.983-8.3155-2.9766-14.32-8.7889-14.32-13.983v-24.57z" fill="none" stroke-miterlimit="9.9" stroke-width=".26458"/>
     <path d="m-393.81 8.4594h28.64" fill="none" stroke-miterlimit="6.95" stroke-width=".26458"/>
     <path d="m-373.29 13.979s-1.1812 1.4528-1.2993 1.6182c-0.11814 0.16536 0.24804-1.5946 0.25984-1.7954 0.0119-0.2008-1.2875 1.4883-1.3583 1.7481-0.0709 0.25986 0.57878-1.6418 0.92132-2.2088-0.25986 0.25986-1.6182 0.99219-1.8899 1.2284-0.27168 0.23624 0.9095-1.8308 1.5119-1.8781 0.60237-0.04725-1.9135 0.16536-2.1734 0.21261-0.25987 0.04725 0.8032-0.98038 0.89768-1.1103 0.0945-0.12993 0.17719 0.35435 0.17719 0.35435s0.28347-0.44885 0.28347-0.57878c0-0.12993 1.2639 0.27167 1.382 0.27167s0.25987-0.05906 0.25987-0.05906-1.9159-0.6099-1.571-0.66146c0.60326-0.0902 1.193 0.05906 1.6536 0.01181 0.46064-0.04725-1.3938-0.56696-1.4765-1.5946 1.1221 0.31892 2.2678 1.9844 2.6813 2.0907-0.626-0.74414-0.0827-2.1379 0-2.3978 0.10631 0.89769 0.3071 1.6418 0.3071 1.6418s0.43704-1.3111 1.7836-0.6024c-0.92131 0.33073-1.1694 0.94494-1.1694 0.94494s0.94494-0.83864 2.7522-0.18899c-0.99219 0.59059-2.4332 0.56696-2.4332 0.56696s3.2364 0.63784 2.9766 2.3742c-0.56695-0.74414-2.4686-1.004-2.6695-1.3111 1.2284 0.93313 1.8899 1.0749 1.7127 2.0671-1.0631-1.0158-1.8545-0.93313-2.5632-1.9017 0.66146 1.0749 0.0945 1.819 0.66146 2.5159-1.1576-1.0512-1.3702-1.8426-1.5119-2.1616z" fill="#6a8f33" fill-rule="evenodd" stroke-miterlimit="9.9" stroke-width=".19844"/>
    </g>
   </g>
  </g>
  <path transform="scale(.26458)" d="m-1506.3 108.96c-1.3779 0-2.4222 0.35026-3.1738 0.95118s-1.1829 1.4289-1.4238 2.2812c-0.482 1.7047-0.2598 3.5975-0.2598 4.6055 0 1.404-1.1099 2.8088-2.3398 4.3184-1.23 1.5095-2.5684 3.1316-2.5684 5.1465 0 1.9357 0.8959 3.2127 1.7852 3.9414 0.1134 0.093 0.2236 0.15678 0.3359 0.23438-0.031-0.0139-0.065-0.0252-0.09-0.0449 4.4478 4.7551 9.8949 5.8722 13.69 5.7383 3.7946-0.13395 4.3753 0.66825 4.7324 1.6504 0.1946-1.206 0.3201-2.097 0.068-2.6758 12.343 6.1985 33.208 13.869 61.207 13.869 27.999-1e-5 48.866-7.6706 61.209-13.869-0.2518 0.57882-0.1282 1.4698 0.066 2.6758 0.3571-0.98214 0.9378-1.7843 4.7324-1.6504 3.7946 0.13393 9.2417-0.98317 13.69-5.7383-0.025 0.0196-0.06 0.0309-0.09 0.0449 0.1122-0.0776 0.2226-0.14138 0.336-0.23438 0.8893-0.7287 1.7851-2.0057 1.7851-3.9414 0-2.0149-1.3383-3.637-2.5683-5.1465-1.2299-1.5095-2.3399-2.9143-2.3399-4.3184 0-1.008 0.2223-2.9008-0.2597-4.6055-0.2409-0.85236-0.6723-1.6803-1.4239-2.2812-0.7512-0.60064-1.7969-0.95083-3.1738-0.95118-2.7669 6.7e-4 -5.8545 1.4432-9.668 3.5352-3.8144 2.0924-8.3547 4.8582-13.959 7.625-11.209 5.5336-26.141 11.059-48.336 11.059-22.195 0-37.125-5.525-48.334-11.059-5.6043-2.7668-10.145-5.5326-13.959-7.625-3.8143-2.0924-6.9025-3.5352-9.6699-3.5352zm0 0.9961c2.4097 0 5.4079 1.3357 9.1895 3.4102 3.7815 2.0744 8.3467 4.8652 13.996 7.6543 11.299 5.5781 26.416 11.162 48.777 11.162 22.361 0 37.48-5.584 48.779-11.162 5.6494-2.789 10.215-5.5799 13.996-7.6543 3.7816-2.0744 6.7798-3.4102 9.1895-3.4102 1.2105 0 1.9952 0.29731 2.5468 0.73828 0.5515 0.44095 0.8896 1.0483 1.0918 1.7637 0.4044 1.4308 0.2227 3.205 0.2227 4.3398 0 1.8995 1.3351 3.4434 2.5605 4.9473 1.2254 1.5039 2.3477 2.961 2.3477 4.5176 0 1.6357-0.706 2.5777-1.4238 3.166-0.3258 0.26706-0.3878 0.23407-0.6426 0.35547 0.1705-0.7004 0.4218-1.4531 0.3398-1.9941-0.1262-0.83555-0.5752-1.4808-1.2031-1.8301-1.2557-0.69841-3.5884-0.53661-5.123 0.56641-3.8731 2.3329-32.527 19.889-72.682 19.889s-68.808-17.556-72.682-19.889c-1.5346-1.103-3.8654-1.2648-5.1211-0.56641-0.6279 0.34923-1.0769 0.99453-1.2031 1.8301-0.082 0.54102 0.1693 1.2937 0.3398 1.9941-0.2547-0.1214-0.3167-0.0884-0.6426-0.35547-0.7178-0.58826-1.4238-1.5303-1.4238-3.166 0-1.5566 1.1222-3.0137 2.3476-4.5176 1.2254-1.5039 2.5606-3.0477 2.5606-4.9473 0-1.1349-0.1818-2.909 0.2227-4.3398 0.2021-0.7154 0.5402-1.3227 1.0917-1.7637 0.5516-0.44096 1.3364-0.73828 2.5469-0.73828zm-4.2812 16.676c0.7088 0.0398 1.5694 0.3366 2.3945 0.92969 0.9908 0.71214 4.8298 3.4725 11.16 6.7734-0.5269-0.0426-1.1859-0.0186-2.0723 0.0996-4.0126 0.53502-12.545-1.3467-13.223-5.3926-8e-4 -5e-3 0-0.0103 0-0.0156-0.072-0.42712-0.076-0.78627-0.031-1.0801 0.088-0.58604 0.3359-0.91198 0.7012-1.1152 0.2731-0.15194 0.6423-0.22194 1.0664-0.19922zm152.48 0c0.424-0.0227 0.7932 0.0473 1.0664 0.19922 0.3652 0.20325 0.6131 0.52919 0.7011 1.1152 0.046 0.29381 0.041 0.65296-0.031 1.0801 0 5e-3 8e-4 0.0107 0 0.0156-0.6779 4.0459-9.2101 5.9276-13.223 5.3926-0.8863-0.11811-1.5453-0.1422-2.0722-0.0996 6.3303-3.3009 10.169-6.0613 11.16-6.7734 0.8251-0.59309 1.6857-0.88987 2.3945-0.92969z" color="#000000" color-rendering="auto" fill="#ff784b" fill-rule="evenodd" image-rendering="auto" shape-rendering="auto" style="font-feature-settings:normal;font-variant-alternates:normal;font-variant-caps:normal;font-variant-ligatures:normal;font-variant-numeric:normal;font-variant-position:normal;isolation:auto;mix-blend-mode:normal;shape-padding:0;text-decoration-color:#000000;text-decoration-line:none;text-decoration-style:solid;text-indent:0;text-orientation:mixed;text-transform:none;white-space:normal"/>
  <g>
   <g transform="translate(0 -.70871)" stroke-width=".26458" >
    <path d="m-397.13 32.178 0.0578 0.03302q-0.0237 0.3681-0.17378 1.2055-0.0953 0.53717-0.0943 0.67267 2e-3 0.13424 0.12583 0.2202 0.0393 0.02745 0.0257 0.05133-0.01 0.01759-0.0314 0.0054l-0.0169-0.01131q-0.10984-0.07608-0.28825-0.178-0.27389-0.15647-0.35681-0.19218-0.0389-0.02225-0.026-0.04487 9e-3 -0.01633 0.0404-0.0036 0.11254 0.05096 0.16781 0.04754 0.0565-0.0027 0.0888-0.05924 0.0309-0.05402 0.0777-0.3139l0.0493-0.25844q-0.0653-0.03732-0.58852-0.32622-0.32948 0.27337-0.38116 0.36383-0.0438 0.07664-1e-3 0.15094 0.0445 0.07376 0.10519 0.11342 0.0443 0.03033 0.03 0.05545-6e-3 0.01005-0.0258 0.01023-0.19599-0.12364-0.23745-0.14732-0.21108-0.12058-0.28682-0.15719-0.0402-0.02297-0.0273-0.04558 0.0115-0.0201 0.0495-5e-3 0.15525 0.0637 0.33309-0.06967 0.17785-0.13337 0.60261-0.50061 0.38727-0.33368 0.78207-0.61638zm-0.20672 0.24518q-0.25322 0.17196-0.66883 0.53776 0.13299 0.06765 0.18953 0.09994l0.34945 0.20797q0.0282-0.15722 0.0674-0.4214 0.0441-0.31641 0.0624-0.42428z"/>
    <path d="m-396.28 32.704 0.65124 0.31843q0.0559 0.02733 0.0445 0.05073t-0.0549 7e-3q-0.0967-0.03603-0.16128-0.01604-0.0645 0.01999-0.13941 0.11384-0.0736 0.09448-0.24265 0.44025-0.20275 0.41466-0.25753 0.58598-0.0535 0.17196 0.0262 0.3285 0.0816 0.15588 0.30001 0.26266 0.22878 0.11186 0.39095 0.08324 0.16217-0.02862 0.28116-0.18304 0.1203-0.15379 0.40059-0.72703 0.14428-0.29507 0.12767-0.41593-0.016-0.12216-0.13555-0.18064-0.0481-0.02352-0.0347-0.05081 0.0127-0.026 0.0764 0.0051l0.51995 0.25423q0.0351 0.01716 0.0224 0.04316-9e-3 0.0182-0.0394 0.0081-0.10578-0.03401-0.1761-0.0088-0.069 0.02585-0.14496 0.14495-0.076 0.1191-0.19544 0.36347-0.14936 0.30547-0.27699 0.50721-0.12634 0.20237-0.25321 0.2708-0.12624 0.06713-0.31011 0.05776-0.18192-0.01003-0.4029-0.11808-0.22618-0.11059-0.35111-0.26026-0.12299-0.15033-0.12235-0.29659 3e-3 -0.14692 0.11826-0.3835l0.18126-0.35752q0.23453-0.47965 0.24505-0.60658 0.0125-0.12759-0.12146-0.19629-0.0442-0.02161-0.0334-0.04371 0.0134-0.0273 0.0679-6.03e-4z"/>
    <path d="m-393.45 34.126q0.0513-0.02057 0.0797-0.05403 0.0243-0.02738 0.0442-0.01885 0.0106 0.0046 0.0183 0.02354-0.0112 0.05188-0.0559 0.20429l-0.075 0.26378q-0.0102 0.02395-0.0395 0.01144-0.016-0.0068-0.0166-0.03855 4e-3 -0.20444-0.0849-0.37934-0.0895-0.17357-0.2531-0.24352-0.16099-0.06882-0.285-7e-3 -0.12268 0.06243-0.16931 0.17153-0.0569 0.13305 2e-3 0.24167 0.059 0.10862 0.29897 0.31663 0.17759 0.15145 0.25311 0.25454 0.0769 0.10366 0.1 0.24101t-0.0298 0.26108q-0.0899 0.21022-0.33525 0.30202-0.24538 0.09181-0.49817-0.01625-0.22751-0.09725-0.39683-0.33801-0.0612 0.01792-0.0961 0.06279-0.0288 0.03803-0.0528 0.02779-0.0213-0.0091-7e-3 -0.06763 0.014-0.05853 0.18208-0.53272 0.0121-0.01369 0.0348-4e-3 0.0199 0.0085 0.0194 0.04292-0.0152 0.60248 0.352 0.75945 0.18228 0.07792 0.33136 0.01261 0.15098-0.06607 0.21184-0.20843 0.0421-0.09845 0.0215-0.20483-0.0193-0.10581-0.0895-0.19561-0.0689-0.08923-0.23905-0.23594-0.21809-0.18922-0.27918-0.30031-0.0592-0.11185-0.0631-0.22052-3e-3 -0.11 0.0331-0.19515 0.0756-0.17695 0.29388-0.24574 0.21957-0.06822 0.4524 0.03131 0.0878 0.03754 0.17166 0.10642 0.0852 0.06946 0.16584 0.1716z"/>
    <path d="m-392.87 35.301q-0.023 0.06093-0.077 0.17973-0.0265 0.05804-0.0495 0.11897-0.0174 0.04604-0.0709 0.20057-0.0517 0.15369-0.0525 0.1967 6.1e-4 0.04352 0.0347 0.09659 0.0355 0.05357 0.09 0.0772 0.0607 0.02753 0.0516 0.0519-7e-3 0.01896-0.0276 0.01588-0.02-0.0044-0.14455-0.05138l-0.37183-0.14167q-0.15706-0.05919-0.16637-0.06733-7e-3 -9e-3 -2e-3 -0.02253 8e-3 -0.02166 0.0637-0.01311 0.0984 0.01388 0.1499-0.01618 0.0529-0.02955 0.11459-0.16866 0.0622-0.14046 0.13262-0.32731l0.13218-0.36304 0.15101-0.38842q0.0781-0.20716 0.0711-0.27474-6e-3 -0.06894-0.0835-0.11496-0.0832-0.04992-0.0746-0.07294 9e-3 -0.02302 0.0493-0.0077l0.26758 0.10238 0.43159 0.15955q0.42515 0.16022 0.52137 0.34802 0.0976 0.18831 0.0226 0.38734-0.0893 0.23695-0.32646 0.28364-0.23717 0.04669-0.62306-0.09873-0.0934-0.03521-0.21357-0.08976zm0.0204-0.05416q0.19648 0.08178 0.22356 0.09198 0.13811 0.05205 0.27782 0.05058 0.13972-0.0015 0.24167-0.10376 0.1033-0.10178 0.14871-0.22229 0.0577-0.153-7e-3 -0.2979-0.0626-0.14574-0.33204-0.24728-0.13946-0.05255-0.25494-0.06206-0.0197 0.04823-0.0243 0.06042l-0.11195 0.31346-0.13042 0.32969q-9e-3 0.02437-0.0313 0.08717z"/>
    <path d="m-391.29 34.822 0.24788 0.08909 0.38466 0.12267q0.0686 0.02297 0.0594 0.05041-7e-3 0.02058-0.0458 0.01367-0.15873-0.03178-0.22747 0.04592-0.0674 0.07816-0.2612 0.65718-0.0712 0.21267-0.14933 0.48254-0.0781 0.26986-0.0819 0.32659-4e-3 0.05673 0.0237 0.10252 0.0274 0.04579 0.12708 0.09442 0.0329 0.0156 0.0256 0.03755-8e-3 0.0247-0.0398 0.01413l-0.33936-0.11666-0.29089-0.0928q-0.048-0.01608-0.0388-0.04352 0.01-0.02881 0.0481-0.01595 0.12853 0.03997 0.17804-0.035 0.0495-0.07498 0.19788-0.51816 0.14331-0.42809 0.22373-0.69566 0.0818-0.26711 0.0645-0.33851-0.0173-0.0714-0.11515-0.12094-0.0361-0.01972-0.0279-0.04442 8e-3 -0.0247 0.0371-0.01505z"/>
    <path d="m-388.99 35.678q0.0963-0.0457 0.11431-0.06606 0.0236-0.02927 0.05-0.02155 0.0278 0.0081 0.0159 0.05893l-0.10985 0.49401q-0.0122 0.04166-0.0192 0.05016-5e-3 0.0075-0.0219 0.0026-0.0222-0.0065-0.0297-0.07353-0.0271-0.24762-0.1495-0.43721-0.12422-0.18861-0.31726-0.24508-0.16942-0.04956-0.34317 0.01871-0.17334 0.06688-0.31181 0.24648-0.13668 0.17862-0.20452 0.41054-0.11538 0.3944 0.029 0.70497 0.14612 0.30959 0.41415 0.388 0.18192 0.05322 0.3684-0.01736t0.30854-0.1992q0.033-0.03557 0.0552-0.02907 0.0306 0.0089 0.0208 0.04227-0.0118 0.04027-0.15714 0.14549-0.14536 0.10522-0.34235 0.13956-0.19559 0.03474-0.39279-0.02294-0.23192-0.06785-0.40709-0.24723-0.17378-0.17898-0.23505-0.42304-0.0613-0.24406 0.0208-0.52459 0.0804-0.27497 0.26307-0.46125 0.18403-0.18587 0.43504-0.24511 0.251-0.05924 0.48014 0.0078 0.12221 0.03575 0.2386 0.11201 0.11679 0.07487 0.22736 0.19164z"/>
    <path d="m-387.15 36.027q3e-3 0.16737-0.0257 0.46105-0.01 0.0096-0.0182 0.0075-0.01-0.0024-0.0184-0.01632-0.0597-0.17946-0.12874-0.28232-0.0691-0.10286-0.15104-0.15821-0.0802-0.05642-0.29832-0.1087-0.20543-0.04924-0.33077-0.05399-0.0146 0.01137-0.0237 0.04936-2e-3 0.0099-0.0112 0.0345-0.0411 0.10919-0.16044 0.6073-5e-3 0.02111-0.0113 0.05977 0.10593 0.02985 0.14533 0.0393 0.17729 0.0425 0.26856 0.0093 0.093-0.03425 0.19394-0.19456 0.0169-0.02719 0.0352-0.0228 0.0267 0.0064 0.017 0.04721l-0.0191 0.05493q-0.0379 0.10846-0.0662 0.22666-0.0459 0.19136-0.0756 0.34642-0.0115 0.04784-0.0382 0.04143-0.0197-0.0047-0.0186-0.04018 0.0102-0.17312-0.0665-0.26888-0.0767-0.09577-0.39193-0.17131-0.0288 0.1017-0.0838 0.33106-0.0712 0.2969-0.0693 0.38216 2e-3 0.08526 0.0706 0.15233 0.0691 0.06566 0.26043 0.11152 0.54736 0.1312 0.79675-0.20779 0.0308-0.04171 0.0519-0.03665 0.0225 0.0054 0.0151 0.03635-4e-3 0.01688-0.0158 0.0349-0.0149 0.02471-0.0887 0.19003-0.0158 0.0349-0.10609 0.20669l-0.58923-0.14272q-0.12664-0.03035-0.37018-0.10063-0.24247-0.06853-0.43209-0.11547-0.18855-0.04519-0.19531-0.05425-7e-3 -0.0091-5e-3 -0.0175 7e-3 -0.02814 0.0532-0.01701 0.15619 0.03744 0.22533-0.03378 0.0691-0.07121 0.14605-0.39203l0.0677-0.28879 0.069-0.26915q0.0196-0.08161 0.064-0.31051 0.0462-0.22997 0.0455-0.26436 7.2e-4 -0.03405-0.0284-0.07377-0.0274-0.0408-0.14208-0.1025-0.0342-0.01862-0.0292-0.03972 6e-3 -0.02533 0.0553-0.01352l0.28334 0.08428q0.15028 0.04346 0.74548 0.18612 0.39117 0.09376 0.39927 0.09719z"/>
    <path d="m-384.51 37.364q0.25589 0.10944 0.36899 0.25484 0.11453 0.14561 0.0879 0.32598-0.0285 0.19324-0.21722 0.33213-0.18891 0.14032-0.50812 0.0932-0.0601-0.0089-0.19075-0.03547-0.0838-0.01676-0.091-0.01782-0.44088-0.06507-0.59675-0.0793-0.0515-0.0076-0.0475-0.0348 2e-3 -0.01431 0.0173-0.01793 0.0166-0.0034 0.11503-0.0064 0.0587-0.0016 0.0974-0.03536 0.0386-0.03379 0.0733-0.15006 0.0347-0.11627 0.0694-0.35103 0.0342-0.23189 0.0609-0.37276 0.0269-0.1423 0.038-0.21816 0.0349-0.23619 0.0374-0.38208 4e-3 -0.14568-0.0233-0.18919-0.027-0.04494-0.12632-0.07569-0.0407-0.01185-0.0371-0.03619 4e-3 -0.02577 0.0453-0.01964l0.25989 0.04275q0.1274 0.0188 0.23989 0.02956 0.25241 0.02409 0.32541 0.03486 0.26481 0.03909 0.40373 0.17806 0.13748 0.13876 0.1079 0.33916-0.0232 0.15746-0.14156 0.25554-0.11833 0.09808-0.36815 0.1358zm-0.37478-0.85976q-0.0591 0.31158-0.0879 0.50626l-0.0298 0.21206q-6e-3 0.04294 3e-3 0.05609 0.0112 0.01335 0.0656 0.02138 0.27197 0.04014 0.45116-0.03433 0.17941-0.0759 0.21405-0.31066 0.0294-0.19897-0.0794-0.31448-0.1071-0.11673-0.28889-0.14356-0.10593-0.01564-0.24825 0.0072zm-0.12592 0.85313q-0.0253 0.03283-0.0384 0.12158l-0.0755 0.44226q-0.0346 0.23476-0.0272 0.26364 9e-3 0.0291 0.0763 0.05806 0.0688 0.02917 0.22199 0.05178 0.13599 0.02007 0.22594-0.0047 0.0916-0.02597 0.17964-0.12706 0.0881-0.10109 0.11108-0.25711 0.0342-0.23189-0.0871-0.36096-0.11993-0.12886-0.3876-0.16837-0.0902-0.01331-0.19902-0.01914z"/>
    <path d="m-382.72 37.625q0.19049 0.10547 0.25916 0.20798 0.0688 0.10108 0.0873 0.30199 0.0241 0.26395 0.10199 0.36154 0.078 0.09614 0.21717 0.11529 0.0386 0.0066 0.0361 0.03253-2e-3 0.02593-0.0471 0.02165-0.40329-0.03865-0.48723-0.07285-0.0824-0.03551-0.0985-0.30742-0.0139-0.26443-0.0457-0.38812-0.0302-0.12499-0.11773-0.19734-0.086-0.07365-0.28329-0.09256-0.0749-0.0072-0.17148-4.42e-4 -0.0159 0.09005-0.0253 0.188-0.0355 0.37017-0.0359 0.4806-2.7e-4 0.10899 0.0453 0.16423 0.0472 0.05394 0.16643 0.06828 0.0517 0.0064 0.0495 0.02945-3e-3 0.02737-0.066 0.02129l-0.71297-0.06832q-0.0619-0.0059-0.0593-0.0333 2e-3 -0.02449 0.0513-0.01979 0.10946 0.01049 0.15441-0.01864 0.0464-0.02899 0.0775-0.09578 0.0312-0.06823 0.0488-0.25115l0.0253-0.29411 0.0444-0.44781q0.0328-0.3428 0.0276-0.45523-4e-3 -0.11229-0.0391-0.15346-0.0352-0.04262-0.17425-0.07775-0.0298-0.0072-0.0279-0.02738 2e-3 -0.02305 0.0627-0.01725l0.85448 0.06298q0.35288 0.03381 0.49835 0.18439 0.1469 0.15071 0.12813 0.3466-0.0119 0.12387-0.0865 0.21992-0.0732 0.09619-0.16546 0.13386-0.0923 0.03767-0.29238 0.07809zm-0.5423-0.08976q0.2771 0.02074 0.41854 8.6e-4 0.14145-0.01988 0.24872-0.12298 0.10871-0.10296 0.12348-0.25708 0.0156-0.16276-0.0808-0.2941t-0.33409-0.15411q-0.12963-0.01242-0.28994 0.0071-0.0552 0.39444-0.0777 0.62921-8e-3 0.08066-8e-3 0.19109z"/>
    <path d="m-381.7 36.763 0.26265 0.01985 0.40343 0.0158q0.0722 0.0039 0.0707 0.03276-1e-3 0.02167-0.0405 0.02537-0.16147 0.01164-0.20703 0.10484-0.0441 0.09327-0.0767 0.70301-0.012 0.22396-0.0154 0.50488-3e-3 0.28092 8e-3 0.3366 0.0115 0.05568 0.0501 0.09252t0.14763 0.05717q0.0359 0.0063 0.0347 0.02939-1e-3 0.02601-0.0346 0.02423l-0.35817-0.02207-0.3051-0.01198q-0.0506-0.0027-0.049-0.0316 2e-3 -0.03034 0.0421-0.02818 0.13452 0.0043 0.16228-0.08115 0.0278-0.08545 0.0527-0.55215 0.0241-0.4508 0.0304-0.73012 8e-3 -0.27925-0.028-0.34346-0.0357-0.06422-0.1432-0.08591-0.0401-0.0094-0.0387-0.0354 1e-3 -0.02601 0.0317-0.02438z"/>
    <path d="m-379.97 36.923q-0.1128-7e-3 -0.1591-0.0075-0.31252-0.0033-0.45425 0.12538-0.14174 0.12872-0.16597 0.22975-8e-3 0.03609-0.0394 0.03575-0.0145-1.55e-4 -0.0274-0.01332 9e-3 -0.1721 0.0614-0.46384 0.0695-7.04e-4 0.0883-5.03e-4 0.11285 0.0012 0.30227 0.01481 0.20388 0.01376 0.62492 0.01826 0.43116 0.0046 0.56149-0.0041 0.11876-0.01031 0.32566-0.0081 0.0163 0.10436 0.0208 0.21728 7e-3 0.12886 0.0154 0.18104 1e-3 0.01159 1e-3 0.02461-3.7e-4 0.03473-0.0308 0.0344-0.0188-2.01e-4 -0.0317-0.01192-0.0114-0.01315-0.0541-0.08306-0.074-0.118-0.15438-0.17819-0.0804-0.06163-0.18002-0.08006-0.0996-0.01843-0.40343-0.02746-0.0197 0.21829-0.0227 0.49898-0.01 0.92888 0.0274 1.0957 0.0387 0.16682 0.28326 0.16944 0.0593 6.34e-4 0.0591 0.02523-3.1e-4 0.02894-0.0567 0.02833l-0.88982-0.0095q-0.0347-3.71e-4 -0.0344-0.02786 2.9e-4 -0.02749 0.0683-0.02676 0.1143 0.0012 0.18443-0.0617 0.0716-0.06435 0.0829-0.1742 0.0128-0.10984 0.0184-0.63505 5e-3 -0.44853-0.0209-0.8858z"/>
    <path d="m-378.11 36.781 0.0665-0.0029q0.17628 0.32401 0.49583 1.1125 0.20587 0.50521 0.2789 0.61935 0.073 0.1127 0.22386 0.11918 0.0479 0.0023 0.0491 0.02973 8.8e-4 0.02024-0.0237 0.02131l-0.0203-5.67e-4q-0.13349-0.0058-0.33877 0.0031-0.31513 0.01368-0.40432 0.02769-0.0448 0.0019-0.0459-0.02408-8.2e-4 -0.01879 0.0322-0.02457 0.12238-0.0169 0.16732-0.04926 0.0464-0.03243 0.0436-0.09748-3e-3 -0.06216-0.10168-0.30697l-0.0961-0.24494q-0.0752 0.0033-0.67182 0.03786-0.13295 0.40695-0.12843 0.51104 4e-3 0.08818 0.0794 0.12835 0.077 0.03866 0.14946 0.03986 0.0537 2e-3 0.0549 0.03093 5e-4 0.01156-0.0164 0.02244-0.23173-7.6e-5 -0.27943 2e-3 -0.24286 0.01055-0.32645 0.01997-0.0463 2e-3 -0.0474-0.02401-1e-3 -0.02313 0.0392-0.03067 0.1653-0.0289 0.24463-0.23656 0.0793-0.20766 0.24284-0.74483 0.14968-0.48878 0.33291-0.93847zm-0.0441 0.31765q-0.12251 0.2805-0.27904 0.81158 0.14858-0.01369 0.21363-0.01652l0.40652-0.01041q-0.06-0.14802-0.16766-0.39245-0.13141-0.2912-0.17345-0.3922z"/>
    <path d="m-376.6 36.74q0.098 0.108 0.33554 0.3315l0.51405 0.48818 0.49461 0.4683q-0.0116-0.26204-0.0531-0.67814-0.0312-0.31243-0.0546-0.41624-0.0236-0.10525-0.11429-0.16891-0.0892-0.0638-0.21307-0.05144-0.0576 0.0057-0.06-0.01873-1e-3 -0.0144 0.01-0.02131 0.0122-0.0085 0.19308-0.03236 0.18069-0.02531 0.30451-0.03766l0.19452-0.01796 0.0317-0.0032q0.0446-0.0045 0.0472 0.02146 2e-3 0.02304-0.0361 0.03124-0.14384 0.03035-0.20259 0.09729-0.0575 0.06535-0.0592 0.17895-3.1e-4 0.11345 0.0639 0.75704l0.0615 0.76164q6e-3 0.05759-0.0231 0.06047-7e-3 7.19e-4 -0.0207-0.0037-0.0122-6e-3 -0.14266-0.13263-0.13056-0.12802-0.32129-0.30529-0.1893-0.17742-0.29927-0.28858-0.24054-0.23919-0.30273-0.29406-0.2309-0.20089-0.27465-0.2605-0.0288-0.04075-0.0489-0.03874-0.0158 0.0016-0.0102 0.05773l0.0252 0.22288q0.0424 0.42474 0.0907 0.67584t0.0773 0.29329q0.0302 0.04061 0.0966 0.07906 0.0678 0.03831 0.13836 0.03127 0.095-0.0095 0.0985 0.02507 3e-3 0.02592-0.0507 0.03123l-0.69269 0.06768q-0.0489 0.0049-0.0514-0.01959-3e-3 -0.0288 0.0446-0.03354 0.17709-0.01768 0.22836-0.10132 0.0511-0.08508 0.0257-0.33992l-0.062-0.50422q-0.0447-0.44777-0.0771-0.52452-0.0325-0.07818-0.13026-0.18331-0.0965-0.1067-0.20731-0.11018-0.0495-8.74e-4 -0.0515-0.02103-3e-3 -0.02736 0.0606-0.03368z"/>
    <path d="m-374.5 36.502q0.10423 0.10203 0.35452 0.31112l0.54196 0.457 0.52138 0.4383q-0.0271-0.2609-0.0931-0.67382-0.0496-0.31005-0.0791-0.4123-0.0298-0.10368-0.12405-0.16187-0.0929-0.05842-0.21574-0.03878-0.0571 0.0091-0.061-0.01515-2e-3 -0.01429 8e-3 -0.02183 0.0117-0.0092 0.19083-0.04369 0.17889-0.03592 0.30176-0.05557l0.19312-0.02941 0.0314-5e-3q0.0443-0.0071 0.0484 0.01864 4e-3 0.02286-0.0342 0.03331-0.1418 0.03879-0.1965 0.10907-0.0535 0.06863-0.0485 0.18213 6e-3 0.11327 0.10848 0.75195l0.10631 0.75669q9e-3 0.05715-0.0194 0.06172-7e-3 0.0011-0.0209-0.0025-0.0126-0.0053-0.15023-0.12398-0.13789-0.12009-0.33875-0.2858-0.19943-0.16594-0.31578-0.27042-0.25423-0.22458-0.31955-0.27568-0.24235-0.18692-0.28955-0.24384-0.0311-0.03898-0.0511-0.03578-0.0157 0.0025-7e-3 0.05824l0.0383 0.22101q0.0674 0.4215 0.13044 0.66931 0.0631 0.24781 0.0944 0.28822 0.0326 0.03875 0.10109 0.07322 0.07 0.03424 0.13996 0.02305 0.0943-0.01508 0.0998 0.01922 4e-3 0.02572-0.0487 0.03417l-0.68748 0.10844q-0.0486 0.0078-0.0525-0.01652-5e-3 -0.02858 0.0426-0.03611 0.17574-0.02809 0.22199-0.11461 0.046-0.08795 6e-3 -0.34085l-0.0916-0.49968q-0.071-0.44436-0.10789-0.51906-0.0371-0.07613-0.14085-0.1753-0.10257-0.10083-0.21345-0.09776-0.0495 0.0021-0.0527-0.01795-4e-3 -0.02715 0.0585-0.0372z"/>
    <path d="m-372.72 36.173 0.25915-0.0472 0.39431-0.08671q0.0709-0.01452 0.0767 0.01383 4e-3 0.02126-0.0328 0.03478-0.15327 0.05209-0.17379 0.15377-0.0191 0.1014 0.10347 0.69958 0.045 0.21971 0.11272 0.49238 0.0677 0.27267 0.0929 0.32363t0.0719 0.07685 0.1573 0.01799q0.0363-3e-3 0.0409 0.01967 5e-3 0.02551-0.0274 0.0322l-0.35212 0.0692-0.29822 0.06554q-0.0496 0.01017-0.0554-0.01818-6e-3 -0.02977 0.0336-0.0379 0.13125-0.02985 0.1365-0.11954 5e-3 -0.0897-0.0886-0.54754-0.0906-0.44226-0.15519-0.71409-0.0632-0.27212-0.11391-0.32523-0.0508-0.05311-0.16027-0.04692-0.0411 1e-3 -0.0464-0.02447-5e-3 -0.02552 0.0245-0.03162z"/>
    <path d="m-370.98 35.766 0.0646-0.016q0.23694 0.28269 0.70629 0.99229 0.30182 0.45444 0.39601 0.55187 0.0938 0.09602 0.24303 0.07249 0.0474-0.0073 0.054 0.01942 5e-3 0.01966-0.019 0.02558l-0.02 0.0035q-0.132 0.02076-0.33144 0.07014-0.30619 0.07581-0.39084 0.1072-0.0435 0.01078-0.0498-0.0145-5e-3 -0.01826 0.0267-0.03047 0.11661-0.0408 0.15425-0.08142 0.039-0.04097 0.0234-0.10418-0.015-0.06039-0.16045-0.28076l-0.14268-0.22106q-0.073 0.01808-0.65102 0.17013-0.0497 0.42522-0.0247 0.52635 0.0212 0.08568 0.10327 0.11008 0.0831 0.02265 0.15439 0.0095 0.053-0.0087 0.06 0.01944 3e-3 0.01124-0.0116 0.02524-0.22716 0.04581-0.27351 0.05729-0.23596 0.05842-0.31603 0.08421-0.0449 0.01113-0.0512-0.01415-6e-3 -0.02247 0.0324-0.03783 0.1563-0.06106 0.19295-0.28031 0.0366-0.21925 0.0906-0.77817 0.0499-0.50874 0.1405-0.98581zm0.0196 0.3201q-0.0645 0.2992-0.11283 0.85076 0.14293-0.04284 0.20614-0.05849l0.39641-0.0907q-0.0881-0.1332-0.24205-0.35148-0.18646-0.25941-0.24767-0.35009z"/>
    <path d="m-366.39 36.399q-0.0661 0.02575-0.0757 0.02904-0.0506 0.01738-0.18527 0.05747-0.13416 0.04146-0.55294 0.18519l-0.34762 0.11931q-0.0192 0.0066-0.13772 0.05338-0.11808 0.04818-0.14409 0.0571-0.10401 0.0357-0.1134 0.0083-8e-3 -0.0219 0.0331-0.03736 0.12993-0.05377 0.1655-0.11952 0.0351-0.06712 0.0232-0.16402-0.0123-0.09827-0.14993-0.49926l-0.16679-0.49042q-0.0817-0.23813-0.13604-0.32505-0.0529-0.08739-0.1369-0.11364-0.0831-0.02809-0.16891-0.0063-0.0452 0.01093-0.0537-0.01371-8e-3 -0.02463 0.0312-0.03826 0.01-0.0033 0.036-0.01084 0.22183-0.06237 0.51334-0.16242l0.23946-0.08678q0.037-0.01268 0.0464 0.01469 8e-3 0.02463-0.0312 0.03826-0.0972 0.03335-0.14971 0.09422-0.0512 0.0604-0.0557 0.11855-4e-3 0.05631 0.0462 0.20138l0.21123 0.6511 0.12674 0.36037q0.0578 0.16834 0.0888 0.21428 0.0324 0.04547 0.0917 0.07103 0.0588 0.02419 0.17785-0.01668 0.01-0.0033 0.24216-0.09229 0.17857-0.09035 0.27372-0.29894 0.0952-0.20858 0.10169-0.35004 3e-3 -0.04075 0.0247-0.04827 0.0233-8e-3 0.0345 0.02486 0.0131 0.03832 0.0547 0.28871 0.0411 0.24902 0.0433 0.28652z"/>
    <path d="m-366.78 34.493 0.2478-0.08934 0.37458-0.15063q0.0675-0.02603 0.0779 9.75e-4 8e-3 0.02025-0.0266 0.0397-0.14257 0.07668-0.14601 0.18036-2e-3 0.10316 0.21757 0.67288 0.0807 0.20926 0.19247 0.46701 0.11179 0.25775 0.14507 0.30384 0.0333 0.0461 0.0836 0.06392 0.0503 0.01783 0.1581-0.0082 0.0353-9e-3 0.0436 0.01264 9e-3 0.0243-0.0217 0.03627l-0.33586 0.1264-0.2833 0.11388q-0.0472 0.01822-0.0577-0.0088-0.0109-0.02835 0.0269-0.04293 0.12451-0.05111 0.11488-0.14044-0.01-0.08933-0.17776-0.5254-0.16241-0.42122-0.27098-0.67866-0.10721-0.25796-0.16605-0.30196-0.0588-0.044-0.16582-0.01981-0.0404 0.0078-0.0498-0.01648-9e-3 -0.0243 0.019-0.03523z"/>
    <path d="m-364.58 34.554q0.27525-0.04118 0.44784 0.02321 0.17392 0.06382 0.24594 0.2313 0.0772 0.17945-0.0105 0.39672-0.0871 0.2186-0.38356 0.34606-0.0558 0.02401-0.18098 0.06994-0.0801 0.02974-0.0868 0.03259-0.40941 0.17605-0.54955 0.24575-0.0479 0.02058-0.0587-0.0047-6e-3 -0.01329 5e-3 -0.02433 0.0123-0.0116 0.0945-0.06585 0.0492-0.03217 0.0643-0.08121t-0.0164-0.16622q-0.0315-0.11719-0.12523-0.33519-0.0926-0.21534-0.14387-0.34922-0.0518-0.13521-0.0821-0.20566-0.0943-0.21933-0.16875-0.34482-0.0731-0.12607-0.11911-0.14881-0.0466-0.02407-0.14725 0.0019-0.0408 0.01126-0.0505-0.01134-0.0103-0.02393 0.0283-0.0405l0.24364-0.10004q0.11831-0.05087 0.2197-0.10077 0.22748-0.11199 0.29527-0.14114 0.24591-0.10574 0.4371-0.06038 0.18986 0.04594 0.26988 0.23204 0.0629 0.14622 0.0136 0.29181-0.0492 0.14559-0.24206 0.30884zm-0.7703-0.53504q0.11321 0.29625 0.19095 0.47703l0.0859 0.19616q0.0171 0.03988 0.0323 0.04594 0.0165 0.0055 0.0671-0.01623 0.25256-0.1086 0.36599-0.26605 0.11285-0.15878 0.0191-0.37678-0.0795-0.18477-0.23263-0.226-0.15243-0.04313-0.32125 0.02946-0.0984 0.0423-0.20749 0.13647zm0.34066 0.79224q-4e-3 0.04123 0.0311 0.12365l0.16788 0.41607q0.0937 0.218 0.11524 0.23868 0.0228 0.02011 0.0954 0.0094 0.0739-0.0113 0.21613-0.07246 0.12628-0.0543 0.18984-0.12258 0.0643-0.07019 0.0862-0.20245 0.0219-0.13226-0.0404-0.27715-0.0926-0.21534-0.26364-0.26149-0.16972-0.04672-0.41829 0.06016-0.0838 0.03601-0.17944 0.08818z"/>
    <path d="m-362.91 32.821q0.10921 0.12687 0.27463 0.37122-1e-3 0.01358-9e-3 0.01742-9e-3 0.0045-0.0246-8.02e-4 -0.1605-0.10001-0.27935-0.13506-0.11884-0.03504-0.21726-0.02531-0.0978 0.0078-0.29899 0.10684-0.18954 0.09329-0.28903 0.16967-4e-3 0.01809 0.0133 0.05315 4e-3 0.0091 0.0134 0.03373 0.0381 0.11025 0.26432 0.56982 0.01 0.01947 0.0294 0.05325 0.10058-0.04467 0.13693-0.06256 0.16357-0.08051 0.21263-0.16432 0.0497-0.08575 0.025-0.27357-4e-3 -0.03173 0.0126-0.04004 0.0247-0.01214 0.0432 0.02551l0.0204 0.05448q0.0401 0.10767 0.0938 0.21672 0.0869 0.17656 0.16303 0.31487 0.0217 0.04414-3e-3 0.05628-0.0182 0.0089-0.04-0.01902-0.10266-0.13977-0.22287-0.16447-0.1202-0.0247-0.411 0.11843 0.0427 0.09669 0.14689 0.3083 0.13482 0.27392 0.19072 0.33834 0.0559 0.06441 0.15161 0.07213 0.0951 0.0064 0.27165-0.08048 0.505-0.24855 0.48046-0.66868-3e-3 -0.05179 0.0166-0.06137 0.0208-0.01022 0.0348 0.01834 8e-3 0.01558 0.0101 0.03695 4e-3 0.0285 0.0531 0.20288 0.0101 0.03695 0.0503 0.2268l-0.54459 0.26642q-0.11684 0.05751-0.34914 0.15894-0.23036 0.10209-0.40626 0.18705-0.17396 0.08562-0.18495 0.08296-0.011-0.0027-0.0148-0.01045-0.0128-0.02596 0.0301-0.04705 0.1441-0.07092 0.15184-0.16988 8e-3 -0.09896-0.13794-0.39495l-0.13229-0.2655-0.11878-0.25117q-0.0371-0.0753-0.14902-0.27984-0.1113-0.20648-0.13379-0.2325-0.0212-0.02667-0.069-0.03861-0.0472-0.01389-0.1748 0.01184-0.0382 0.0075-0.0478-0.01195-0.0115-0.02337 0.0339-0.04573l0.27186-0.11607q0.14341-0.06252 0.69255-0.33279 0.36091-0.17763 0.36934-0.18017z"/>
    <path d="m-361.26 32.942q0.21646-0.02354 0.33165 0.02069 0.11447 0.04297 0.24538 0.19651 0.17179 0.20184 0.29166 0.23674 0.11914 0.03364 0.24392-0.03088 0.0354-0.01685 0.0483 0.0058 0.0129 0.02262-0.026 0.04485-0.3519 0.20077-0.44022 0.22117-0.0878 0.01843-0.25758-0.19454-0.16372-0.20812-0.26093-0.29092-0.0967-0.08478-0.20992-0.09347-0.1127-0.01067-0.28488 0.08757-0.0654 0.03728-0.14042 0.09843 0.0389 0.08276 0.0876 0.16822 0.18428 0.32299 0.24757 0.41349 0.0626 0.08924 0.13166 0.10813 0.0696 0.01692 0.17537-0.04008 0.046-0.02456 0.0574-0.0044 0.0136 0.02388-0.0417 0.05543l-0.62211 0.35493q-0.054 0.03083-0.0677 7e-3 -0.0122-0.02137 0.0305-0.04574 0.0955-0.05449 0.11547-0.10419 0.0212-0.05042 8e-3 -0.12293-0.0138-0.07377-0.10483-0.23338l-0.14878-0.25495-0.22174-0.39158q-0.17066-0.29912-0.23969-0.388-0.0678-0.0896-0.12036-0.10292-0.0533-0.01457-0.18721 0.03684-0.0285 0.01129-0.0386-0.0063-0.0115-0.02011 0.0413-0.05022l0.7347-0.44082q0.30791-0.17567 0.51356-0.13641 0.2069 0.03855 0.30441 0.20947 0.0617 0.10808 0.056 0.22958-4e-3 0.12078-0.0581 0.20474-0.0537 0.08396-0.19398 0.23228zm-0.49497 0.23908q0.23844-0.1427 0.3426-0.24044 0.10416-0.09774 0.13243-0.24381 0.0295-0.14679-0.0472-0.28126-0.081-0.14202-0.23552-0.19381-0.15449-0.05179-0.36186 0.06652-0.11311 0.06453-0.23289 0.17285 0.1821 0.35422 0.29898 0.55908 0.0402 0.07038 0.10344 0.16088z"/>
   </g>
   <path d="m-386.41 36.612 0.0597-0.33069-0.32822-0.05924 0.0249-0.1382 0.32822 0.05924 0.0592-0.32822 0.13984 0.02524-0.0592 0.32822 0.32822 0.05924-0.0249 0.1382-0.32823-0.05924-0.0597 0.33069z"/>
   <path d="m-369 35.823-0.0993-0.32062 0.31822-0.09854-0.0415-0.13399-0.31823 0.09854-0.0985-0.31822-0.13558 0.04198 0.0985 0.31822-0.31822 0.09854 0.0415 0.13399 0.31822-0.09854 0.0993 0.32062z"/>
  </g>
  <path transform="scale(.26458)" d="m-1358.1 126.64c0.424-0.0227 0.7932 0.0473 1.0664 0.19922 0.3652 0.20325 0.6131 0.52919 0.7011 1.1152 0.046 0.29381 0.041 0.65296-0.031 1.0801 0 5e-3 8e-4 0.0107 0 0.0156-0.6779 4.0459-9.2101 5.9276-13.223 5.3926-0.8863-0.11811-1.5453-0.1422-2.0722-0.0996 6.3303-3.3009 10.169-6.0613 11.16-6.7734 0.8251-0.59309 1.6857-0.88987 2.3945-0.92969z" color="#000000" color-rendering="auto" fill="#fff" fill-rule="evenodd" image-rendering="auto" shape-rendering="auto" style="font-feature-settings:normal;font-variant-alternates:normal;font-variant-caps:normal;font-variant-ligatures:normal;font-variant-numeric:normal;font-variant-position:normal;isolation:auto;mix-blend-mode:normal;shape-padding:0;text-decoration-color:#000000;text-decoration-line:none;text-decoration-style:solid;text-indent:0;text-orientation:mixed;text-transform:none;white-space:normal"/>
  <path transform="scale(.26458)" d="m-1510.5 126.64c0.7088 0.0398 1.5694 0.3366 2.3945 0.92969 0.9908 0.71214 4.8298 3.4725 11.16 6.7734-0.5269-0.0426-1.1859-0.0186-2.0723 0.0996-4.0126 0.53502-12.545-1.3467-13.223-5.3926-8e-4 -5e-3 0-0.0103 0-0.0156-0.072-0.42712-0.076-0.78627-0.031-1.0801 0.088-0.58604 0.3359-0.91198 0.7012-1.1152 0.2731-0.15194 0.6423-0.22194 1.0664-0.19922z" color="#000000" color-rendering="auto" fill="#fff" fill-rule="evenodd" image-rendering="auto" shape-rendering="auto" style="font-feature-settings:normal;font-variant-alternates:normal;font-variant-caps:normal;font-variant-ligatures:normal;font-variant-numeric:normal;font-variant-position:normal;isolation:auto;mix-blend-mode:normal;shape-padding:0;text-decoration-color:#000000;text-decoration-line:none;text-decoration-style:solid;text-indent:0;text-orientation:mixed;text-transform:none;white-space:normal"/>
 </g>
</svg>
