<svg xmlns="http://www.w3.org/2000/svg" xmlns:xlink="http://www.w3.org/1999/xlink" width="1200" height="600" version="1.0"><g transform="translate(-1.0546875e-4,300)"><path fill="#fff" d="M0 -300H1200V300H0z"/><g transform="matrix(2.34375,0,0,2.34375,-2.783204,-299.99995)"><path d="m 385.1875,5.125 c -0.97989,4.2384776 -2.37397,8.365382 -5.40625,14.65625 1.52748,1.809505 3.50933,3.775683 5.09375,7.03125 -0.009,4.2e-5 -0.0222,-1.84e-4 -0.0312,0 -0.027,0.001 -0.068,-0.0029 -0.0938,0 -1.81298,0.207466 -3.21876,1.756767 -3.21875,3.625 0,2.009528 1.64672,3.656249 3.65625,3.65625 2.00952,-10e-7 3.625,-1.646722 3.625,-3.65625 0,-1.899632 -1.45706,-3.461424 -3.3125,-3.625 1.58098,-3.255567 3.53502,-5.221745 5.0625,-7.03125 -3.03228,-6.290868 -4.3951,-10.4177724 -5.375,-14.65625 z"/><path d="m 378.4375,31.5 -2.59375,3.03125 1.53125,1.3125 5.8125,4.90625 v 4.4375 c -0.85652,0.618865 -1.40626,1.616242 -1.40625,2.75 0,1.87404 1.53221,3.406249 3.40625,3.40625 1.87405,-10e-7 3.375,-1.53221 3.375,-3.40625 -10e-6,-1.130282 -0.53047,-2.138592 -1.375,-2.75 V 40.75 L 393,35.84375 394.53125,34.53125 391.9375,31.5 l -1.53125,1.28125 -5.21875,4.40625 -5.21875,-4.40625 z" fill-rule="evenodd"/><path d="m 362.875,74.03125 3.34375,5 c 4.09571,-0.658696 11.78471,-3 18.96875,-3 7.18404,0 14.87304,2.341304 18.96875,3 l 3.34375,-5 c -2.25047,-1.002841 -12.29907,-3.996427 -22.33887,-3.992509 -10.03981,0.0039 -20.07082,3.005338 -22.28613,3.992509 z" fill-rule="evenodd"/><path d="m 385.1875,52 c -2.07709,3.401296 -2.05477,4.201473 -6.6875,3.96875 1.52925,1.515853 1.62523,3.913725 0.875,4.96875 -0.0253,0.03415 -0.0666,0.09386 -0.0938,0.125 -0.0689,0.07591 -0.17002,0.163616 -0.25,0.21875 -0.0324,0.02117 -0.0909,0.04497 -0.125,0.0625 -0.97524,0.468773 -2.62817,-0.534515 -4.46875,-4.84375 -1.02587,3.310004 -3.42972,3.206488 -5.96875,0.75 -0.51817,3.341029 -2.07247,4.665217 -4.84375,3.5 1.60729,2.178196 1.62269,3.77731 1.03125,4.53125 -1.16016,1.407192 -4.66407,-0.160363 -4.125,-6.21875 -2.23899,1.297187 -4.59949,2.458082 -9.40625,1.1875 3.44307,3.780235 7.37049,7.613565 10.25,12.03125 8.93821,-2.077843 16.50865,-3.622583 23.8125,-3.622583 7.30386,0 14.87429,1.54474 23.8125,3.622583 2.87951,-4.417685 6.80693,-8.251015 10.25,-12.03125 -4.80675,1.270582 -7.19851,0.109687 -9.4375,-1.1875 0.49065,5.51422 -2.35994,7.310717 -3.75,6.53125 -0.92206,-0.547278 -1.19611,-2.291079 0.6875,-4.84375 -2.77128,1.165217 -4.32558,-0.158971 -4.84375,-3.5 -2.53902,2.456488 -4.97413,2.560004 -6,-0.75 -1.57996,3.699078 -3.01006,4.975996 -4,4.96875 -0.22246,-0.0077 -0.45141,-0.09264 -0.625,-0.21875 -0.0156,-0.0119 -0.0474,-0.04975 -0.0625,-0.0625 -0.98388,-0.868955 -1.01202,-3.565093 0.65625,-5.21875 -4.63272,0.232723 -4.61041,-0.567454 -6.6875,-3.96875 z" fill-rule="evenodd"/><path d="m 366.66946,48.872859 c 0,-6.551254 6.8866,-10.655287 8.79913,-11.230482" fill-rule="evenodd" stroke="#000" stroke-width="3.84"/><path d="m 352.77608,51.99887 c 0,-6.551254 9.31794,-13.086629 11.23047,-13.661824" fill-rule="evenodd" stroke="#000" stroke-width="3.84"/><circle transform="matrix(1.004122,0,0,1.004122,-33.07917,25.90445)" id="a" cx="385.181" cy="30.249" r="3.381" opacity="1" fill="#000" fill-opacity="1" fill-rule="nonzero" stroke="none" stroke-width=".5" stroke-linecap="round" stroke-linejoin="bevel" stroke-miterlimit="4" stroke-dasharray="none" stroke-dashoffset="1" stroke-opacity="1"/><use height="256" width="512" transform="translate(13.08293,-2.894454)" xlink:href="#a"/><path d="m 355.80641,177.56262 7.22449,8.25657 -2.06414,2.06414 c 3.28767,4.98095 2.41708,12.12683 -5.41837,12.12683 -4.22886,0 -9.33813,-2.69628 -9.04666,-9.28864 0.2301,-5.2045 4.66155,-9.46005 9.30468,-13.1589 z" fill-rule="evenodd"/><path d="m 372.81287,166.22842 c -30.84901,-13.86154 -41.04026,-44.35266 -38.43432,-71.103487 4.73448,29.398847 20.24887,52.135757 43.37587,59.024127 v 27.45308 l -1.23539,1.23539 -10.15764,-10.15764 z" fill-rule="evenodd"/><path d="m 410.26477,106.98549 c -0.94295,15.94733 -2.3856,32.28834 -13.80593,47.34315 l -3.35074,2.5 v -12.97758 c 6.85094,-9.60526 8.42535,-16.74118 8.42535,-36.86557 z" fill="#fff" fill-rule="evenodd" stroke="#000" stroke-width=".853"/><path d="m 365.67586,191.51622 c 0.87288,9.21597 -1.21551,20.59576 3.4938,26.67283 h 8.50013 c -2.99292,-5.70509 -3.63116,-15.53087 -3.51729,-26.67283 z" fill="#fff" fill-rule="evenodd" stroke="#000" stroke-width=".853" stroke-linejoin="round"/><path d="m 375.1875,210.0625 -7.8125,4.8125 c 0.0142,0.0386 0.0168,0.0554 0.0312,0.0938 0.009,0.0236 0.0222,0.039 0.0312,0.0625 0.003,0.009 -0.003,0.0224 0,0.0312 0.006,0.0146 0.0256,0.0167 0.0312,0.0312 0.007,0.018 0.0242,0.0445 0.0312,0.0625 0.007,0.0177 -0.007,0.0448 0,0.0625 0.0277,0.07 0.0651,0.11824 0.0938,0.1875 0.005,0.0112 -0.005,0.0201 0,0.0312 0.008,0.0202 0.0228,0.0424 0.0312,0.0625 0.008,0.0185 0.0234,0.044 0.0312,0.0625 0.004,0.009 -0.004,0.0227 0,0.0312 0.011,0.0258 0.0201,0.0368 0.0312,0.0625 0.0161,0.037 0.0461,0.0569 0.0625,0.0938 0.003,0.007 -0.003,0.024 0,0.0312 0.009,0.0198 0.0223,0.0428 0.0312,0.0625 0.005,0.0109 -0.005,0.0204 0,0.0312 0.0218,0.0479 0.0402,0.0775 0.0625,0.125 0.0262,0.0558 0.0668,0.13221 0.0938,0.1875 0.0135,0.0276 0.0176,0.035 0.0312,0.0625 0.009,0.0177 0.0225,0.0449 0.0312,0.0625 0.009,0.0188 0.0217,0.0438 0.0312,0.0625 0.005,0.0105 -0.005,0.0207 0,0.0312 0.0193,0.0378 0.0429,0.0563 0.0625,0.0938 0.004,0.007 -0.004,0.0243 0,0.0312 0.0109,0.0208 0.0515,0.0418 0.0625,0.0625 0.004,0.008 -0.004,0.0233 0,0.0312 0.009,0.0161 0.0225,0.0152 0.0312,0.0312 0.0113,0.0212 0.0198,0.0414 0.0312,0.0625 0.008,0.0142 -0.008,0.0484 0,0.0625 0.0261,0.0471 0.0671,0.0784 0.0938,0.125 0.004,0.008 -0.004,0.0234 0,0.0312 0.0116,0.0203 0.0508,0.0423 0.0625,0.0625 0.004,0.008 -0.005,0.0235 0,0.0312 0.009,0.0157 0.022,0.0156 0.0312,0.0312 0.0121,0.0206 0.019,0.042 0.0312,0.0625 0.0371,0.0619 0.0868,0.12641 0.125,0.1875 0.004,0.007 -0.004,0.0247 0,0.0312 0.01,0.0153 0.0215,0.016 0.0312,0.0312 0.0127,0.0202 0.0184,0.0424 0.0312,0.0625 0.0204,0.0317 0.0417,0.0623 0.0625,0.0938 0.0166,0.0252 0.0457,0.0375 0.0625,0.0625 0.005,0.007 -0.005,0.0238 0,0.0312 0.0129,0.0192 0.0494,0.0434 0.0625,0.0625 0.005,0.007 -0.005,0.0239 0,0.0312 0.0102,0.0149 0.0209,0.0164 0.0312,0.0312 0.0136,0.0196 0.0176,0.043 0.0312,0.0625 0.0217,0.0307 0.0718,0.0633 0.0938,0.0938 0.0176,0.0244 0.0135,0.0383 0.0312,0.0625 0.008,0.0104 0.0236,0.0209 0.0312,0.0312 0.009,0.0121 0.0223,0.0192 0.0312,0.0312 0.0142,0.0191 0.0169,0.0435 0.0312,0.0625 0.0251,0.0332 0.037,0.0609 0.0625,0.0938 h 6.21875 l 1.75,-1.09375 c -0.0674,-0.15418 -0.12303,-0.30972 -0.1875,-0.46875 -0.0206,-0.0509 -0.0422,-0.10487 -0.0625,-0.15625 -0.0365,-0.0922 -0.0582,-0.1875 -0.0938,-0.28125 -0.007,-0.0173 -0.0247,-0.0452 -0.0312,-0.0625 -0.032,-0.0852 -0.0625,-0.16356 -0.0938,-0.25 -0.0409,-0.11304 -0.0854,-0.22857 -0.125,-0.34375 -0.0229,-0.066 -0.04,-0.12077 -0.0625,-0.1875 -0.0122,-0.0366 -0.0192,-0.0882 -0.0312,-0.125 -0.0165,-0.0503 -0.0462,-0.1056 -0.0625,-0.15625 -0.0164,-0.0511 -0.0463,-0.10478 -0.0625,-0.15625 -0.0374,-0.11877 -0.0576,-0.22291 -0.0938,-0.34375 -0.007,-0.0236 -0.0241,-0.0388 -0.0312,-0.0625 -0.0212,-0.0714 -0.0417,-0.14667 -0.0625,-0.21875 -0.005,-0.019 0.005,-0.0434 0,-0.0625 -0.0164,-0.0567 -0.0463,-0.0991 -0.0625,-0.15625 -0.0204,-0.0728 -0.0425,-0.14527 -0.0625,-0.21875 -0.0113,-0.0416 -0.0201,-0.0832 -0.0312,-0.125 -0.008,-0.0298 -0.0233,-0.0638 -0.0312,-0.0938 -0.0196,-0.0742 -0.0433,-0.14389 -0.0625,-0.21875 -0.005,-0.021 0.005,-0.0415 0,-0.0625 -0.0357,-0.13837 -0.0593,-0.26558 -0.0938,-0.40625 -0.0104,-0.0431 -0.021,-0.0816 -0.0312,-0.125 -0.009,-0.037 -0.0224,-0.0566 -0.0312,-0.0938 -0.005,-0.0203 0.005,-0.0421 0,-0.0625 -0.0121,-0.0515 -0.0505,-0.1045 -0.0625,-0.15625 -0.002,-0.01 0.002,-0.0217 0,-0.0312 -0.0163,-0.0708 -0.0153,-0.14737 -0.0312,-0.21875 -0.0121,-0.0546 -0.0193,-0.10134 -0.0312,-0.15625 -0.005,-0.0216 -0.0265,-0.0408 -0.0312,-0.0625 -0.008,-0.0394 -0.0229,-0.0854 -0.0312,-0.125 -0.009,-0.042 -0.0223,-0.0828 -0.0312,-0.125 -0.004,-0.0196 0.004,-0.0429 0,-0.0625 -0.0131,-0.0625 -0.0184,-0.12455 -0.0312,-0.1875 -0.0163,-0.0801 -0.0466,-0.13798 -0.0625,-0.21875 -0.006,-0.0298 0.006,-0.0638 0,-0.0938 -0.0105,-0.0532 -0.0209,-0.10278 -0.0312,-0.15625 -0.006,-0.0311 -0.0253,-0.0625 -0.0312,-0.0938 -0.006,-0.0329 -0.025,-0.0607 -0.0312,-0.0938 -0.005,-0.0293 0.005,-0.0643 0,-0.0938 -0.024,-0.129 -0.0394,-0.27573 -0.0625,-0.40625 -0.0111,-0.0629 -0.0203,-0.12425 -0.0312,-0.1875 -0.007,-0.0381 -0.0247,-0.0868 -0.0312,-0.125 z" fill-rule="evenodd"/><path d="m 374.125,194.09375 c -2.76042,1.85417 -5.52083,3.70833 -8.28125,5.5625 0.008,3.13695 10e-4,6.28135 0.3125,9.40625 2.76042,-1.85417 5.52083,-3.70833 8.28125,-5.5625 -0.056,-1.02243 -0.14903,-2.05015 -0.16303,-3.0777 -0.0725,-1.14299 -0.0768,-2.29129 -0.11828,-3.43782 0.0104,-0.96379 -0.0281,-1.92702 -0.0312,-2.89073 z" fill-rule="evenodd"/><path d="m 403.69306,48.872859 c 0,-6.551254 -6.8866,-10.655287 -8.79913,-11.230482" fill-rule="evenodd" stroke="#000" stroke-width="3.84"/><path d="m 417.58644,51.99887 c 0,-6.551254 -9.31794,-13.086629 -11.23047,-13.661824" fill-rule="evenodd" stroke="#000" stroke-width="3.84"/><circle transform="matrix(-1.004122,0,0,1.004122,803.4417,25.90445)" cx="385.181" cy="30.249" r="3.381"/><use xlink:href="#a" transform="matrix(-1,0,0,1,757.2796,-2.894454)" width="512" height="256"/><path d="m 414.55611,177.56262 -7.22449,8.25657 2.06414,2.06414 c -3.28767,4.98095 -2.41708,12.12683 5.41837,12.12683 4.22886,0 9.33813,-2.69628 9.04666,-9.28864 -0.2301,-5.2045 -4.66155,-9.46005 -9.30468,-13.1589 z" fill-rule="evenodd"/><path d="m 367.69618,177.26561 c -1.15497,-1.50218 -3.34738,-3.27226 -3.3023,-4.61599 0.0451,-1.34373 0.81898,-1.34803 0.81898,-3.32332 0,-1.97529 -2.61362,-4.77595 -5.52594,-4.77595 -2.91233,0 -5.52594,1.86362 -5.52594,4.77595 0,2.91232 1.41429,5.13811 2.77594,6.77595 2.29119,2.75593 4.8447,5.59485 4.8693,5.60944 0.0246,0.0146 4.23365,4.5044 4.1737,6.29129 -0.0302,0.90056 -0.819,1.34803 -0.819,3.32332 0,1.97529 2.61362,4.77595 5.52594,4.77595 2.91233,0 5.52594,-1.86362 5.52594,-4.77595 0,-2.91232 -1.41427,-5.63811 -2.77592,-7.27595 -2.29119,-2.75593 -4.58572,-5.28256 -5.7407,-6.78474 z"/><path d="m 405.21875,138 -10.1875,2.96875 c -0.59487,0.94843 -1.23594,1.89138 -1.9375,2.875 v 10.59375 l 4.625,-1.84375 c 3.34949,-4.75624 5.7523,-9.64866 7.5,-14.59375 z" fill-rule="evenodd"/><path d="m 397.54965,166.22842 c 30.84901,-13.86154 41.04026,-44.35266 38.43432,-71.103487 -4.73448,29.398847 -20.24887,52.135757 -43.37587,59.024127 v 27.45308 l 1.23539,1.23539 10.15764,-10.15764 z" fill-rule="evenodd"/><path d="m 408.875,122.53125 -8.375,3.625 c -0.59684,3.81343 -1.48903,6.96917 -2.8125,9.9375 l 9.34375,-4.0625 c 0.7996,-3.14621 1.39683,-6.32904 1.84375,-9.5 z" fill-rule="evenodd"/><path d="m 410.1875,108.15625 -8.71875,4.78125 c -0.065,3.05896 -0.20233,5.76764 -0.40625,8.21875 l 8.53125,-4.6875 c 0.26028,-2.76645 0.42582,-5.55838 0.59375,-8.3125 z" fill-rule="evenodd"/><path d="m 402.66634,177.26561 c 1.15497,-1.50218 3.34738,-3.27226 3.3023,-4.61599 -0.0451,-1.34373 -0.81898,-1.34803 -0.81898,-3.32332 0,-1.97529 2.61362,-4.77595 5.52594,-4.77595 2.91233,0 5.52594,1.86362 5.52594,4.77595 0,2.91232 -1.41429,5.13811 -2.77594,6.77595 -2.29119,2.75593 -4.8447,5.59485 -4.8693,5.60944 -0.0246,0.0146 -4.23365,4.5044 -4.1737,6.29129 0.0302,0.90056 0.819,1.34803 0.819,3.32332 0,1.97529 -2.61362,4.77595 -5.52594,4.77595 -2.91233,0 -5.52594,-1.86362 -5.52594,-4.77595 0,-2.91232 1.41427,-5.63811 2.77592,-7.27595 2.29119,-2.75593 4.58572,-5.28256 5.7407,-6.78474 z"/><path d="m 394.75263,238.1493 c 5.61887,2.34514 11.22438,4.61014 16.58951,5.43282 l 2.32835,8.14924 c -8.863,-2.02921 -16.84523,-5.08597 -24.15665,-8.92535 z" fill="#fff" fill-rule="evenodd" stroke="#000" stroke-width=".853"/><path d="m 394.75,238.15625 -0.25,0.21875 1.46875,7.53125 c 1.8029,0.78786 3.64579,1.5272 5.53125,2.21875 l -1.53125,-7.875 c -1.73333,-0.67128 -3.47608,-1.36642 -5.21875,-2.09375 z" fill-rule="evenodd"/><path d="m 404.875,242 1.75,7.84375 c 2.12455,0.65024 4.2979,1.22669 6.53125,1.75 l -1.625,-7.375 -0.1875,-0.625 C 409.2194,243.26801 407.06064,242.69344 404.875,242 Z" fill-rule="evenodd"/><path d="m 382.34375,78.0625 c -7.93729,0.305319 -14.19943,1.903395 -15.21875,3.84375 -0.0367,0.07362 -0.0722,0.175307 -0.0938,0.25 1.8e-4,0.0032 -5e-5,0.02849 0,0.03125 -0.0177,0.08768 -0.0312,0.198113 -0.0312,0.28125 0.002,0.08539 0.009,0.197078 0.0312,0.28125 0.0215,0.07469 0.057,0.176376 0.0938,0.25 0.43069,0.819854 1.78168,1.568931 3.8125,2.1875 -0.4693,1.44636 -0.71875,2.974438 -0.71875,4.5625 0,3.653694 1.34994,7.019691 3.5625,9.625 h -14.3125 v 8.53125 h 19.71875 v 106.84951 c 0,3.70422 -22.04059,2.31819 -32.5625,-7.47451 l 11.34375,-4.375 c -29.10161,-10.32134 -36.08579,-19.88824 -47.1875,-28.46875 6.06099,15.5123 7.89192,27.8352 24.03125,50.90625 1.93334,-3.42386 2.00194,-7.70295 2.78125,-13.21875 29.20355,28.40543 21.61432,9.58317 47.59375,38.875 25.97943,-29.29183 18.3902,-10.46957 47.59375,-38.875 0.77931,5.5158 0.84791,9.79489 2.78125,13.21875 16.13931,-23.07105 17.97026,-35.39395 24.03125,-50.90625 -11.10171,8.58051 -18.11714,18.14741 -47.21875,28.46875 l 11.375,4.375 c -10.52191,9.7927 -32.5625,11.17873 -32.5625,7.47451 V 107.90625 h 19.71875 V 99.375 h -14.3125 c 2.21256,-2.605309 3.5625,-5.971306 3.5625,-9.625 0,-1.590978 -0.27905,-3.113826 -0.75,-4.5625 2.03082,-0.618569 3.41306,-1.367646 3.84375,-2.1875 0.0367,-0.07362 0.0722,-0.175307 0.0938,-0.25 0.022,-0.08417 0.029,-0.195864 0.0312,-0.28125 0,-0.08314 -0.0135,-0.19357 -0.0312,-0.28125 5e-5,-0.0028 -1.8e-4,-0.02809 0,-0.03125 -0.0215,-0.07469 -0.057,-0.176376 -0.0938,-0.25 -1.05194,-2.002442 -7.66991,-3.613733 -15.96875,-3.84375 -0.68523,-0.01899 -1.38764,0 -2.09375,0 -0.70611,0 -2.33992,-0.0043 -2.46875,0 -0.12682,0.0042 -0.24901,-0.0048 -0.375,0 z m 2.09375,5.71875 c 0.0234,-0.0029 0.039,0.0026 0.0625,0 0.006,-6.58e-4 0.0249,2.55e-4 0.0312,0 0.0263,1.56e-4 0.0674,-4.33e-4 0.0938,0 0.006,-1.51e-4 0.0253,5.2e-4 0.0312,0 0.17785,-0.0154 0.34886,0 0.53125,0 0.18239,0 0.3534,-0.0154 0.53125,0 3.07418,0.266205 5.4375,2.815927 5.4375,5.96875 0,3.335217 -2.63351,5.906245 -5.96875,5.90625 -3.33524,-5e-6 -5.96875,-2.571033 -5.96875,-5.90625 0,-3.079313 2.24969,-5.605426 5.21875,-5.96875 z"/></g><g transform="matrix(0.05952381,0,0,0.05952381,1.0546875e-4,-300)"><path d="M 0,0 H 10080 V 5040 H 0 Z" fill="#fff"/><path d="M 0,0 H 10079.999 V 1680 H 0 Z"/><path d="M 0,3360 H 10079.999 V 5040 H 0 Z" fill="#007a3d"/><path d="M 0,0 5039.9995,2520 0,5040 Z" fill="#ce1126"/><path transform="matrix(-0.32539529,0,0,-0.32539529,1320.001,2160.0012)" d="m -1106.343,0.00317383 -239.2926,-609.44918383 -625.683,192.8989 327.29,-567.07185 -540.9214,-368.90814 647.4167,-97.6779 -48.835,-652.9199 480.0253,445.2696 480.02521,-445.2696 -48.8349,652.9199 647.416615,97.6778 -540.921405,368.90826 327.2901,567.07179 -625.68307,-192.89885 z" fill="#fff" fill-rule="evenodd"/></g></g></svg>