<?xml version="1.0" encoding="UTF-8" standalone="no"?>
<!-- Created with Inkscape (http://www.inkscape.org/) -->
<svg
   xmlns:dc="http://purl.org/dc/elements/1.1/"
   xmlns:cc="http://web.resource.org/cc/"
   xmlns:rdf="http://www.w3.org/1999/02/22-rdf-syntax-ns#"
   xmlns:svg="http://www.w3.org/2000/svg"
   xmlns="http://www.w3.org/2000/svg"
   xmlns:sodipodi="http://inkscape.sourceforge.net/DTD/sodipodi-0.dtd"
   xmlns:inkscape="http://www.inkscape.org/namespaces/inkscape"
   width="450"
   height="300"
   id="svg2"
   sodipodi:version="0.32"
   inkscape:version="0.43"
   version="1.0"
   sodipodi:docbase="F:\Mis Documentos - Miaj Dokumentoj\Mis imágenes\++Wiki\downloaded =p [Choreaded]\SVG"
   sodipodi:docname="Naval_Jack_of_Ecuador.svg">
  <defs
     id="defs4" />
  <sodipodi:namedview
     id="base"
     pagecolor="#ffffff"
     bordercolor="#666666"
     borderopacity="1.0"
     inkscape:pageopacity="0.0"
     inkscape:pageshadow="2"
     inkscape:zoom="0.52750166"
     inkscape:cx="464.84777"
     inkscape:cy="188.37389"
     inkscape:document-units="px"
     inkscape:current-layer="layer1"
     inkscape:window-width="1024"
     inkscape:window-height="708"
     inkscape:window-x="-4"
     inkscape:window-y="-4"
     showguides="true"
     inkscape:guide-bbox="true" />
  <metadata
     id="metadata7">
    <rdf:RDF>
      <cc:Work
         rdf:about="">
        <dc:format>image/svg+xml</dc:format>
        <dc:type
           rdf:resource="http://purl.org/dc/dcmitype/StillImage" />
      </cc:Work>
    </rdf:RDF>
  </metadata>
  <g
     inkscape:label="Layer 1"
     inkscape:groupmode="layer"
     id="layer1">
    <rect
       style="fill:#003893;fill-opacity:1;fill-rule:nonzero;stroke:none;stroke-width:0.2;stroke-miterlimit:4;stroke-dasharray:none;stroke-opacity:1"
       id="rect1844"
       width="450"
       height="300"
       x="0"
       y="0" />
    <g
       id="g4218"
       transform="matrix(0.499275,0,0,0.498909,2.636636,56.1567)">
      <g
         transform="matrix(1.033335,0,0,1.013015,-19.5833,-5.698402)"
         id="g4165">
        <g
           id="g13254"
           transform="matrix(2.776611,0,0,2.776611,-162.3854,746.2927)"
           style="stroke:#003893;stroke-opacity:1">
          <g
             id="g12365"
             style="stroke:#003893;stroke-opacity:1">
            <path
               style="fill:#ffffff;fill-opacity:1;fill-rule:evenodd;stroke:#003893;stroke-width:0.32652915;stroke-linecap:butt;stroke-linejoin:miter;stroke-miterlimit:4;stroke-dasharray:none;stroke-opacity:1"
               d="M 253.66071,-219.71429 C 252.23214,-232.83929 232.41071,-242.92857 230.17857,-244.17857 C 227.94643,-245.42857 228.83929,-245.78572 228.83929,-245.78572 C 228.83929,-245.78572 229.46429,-246.05357 228.83929,-244.71429 C 228.21429,-243.375 226.78571,-241.32143 226.78571,-241.32143 L 226.96429,-239.71429 C 226.96429,-239.71429 223.75,-240.69643 226.96429,-239.71429 C 230.17857,-238.73214 237.23214,-233.28572 240.44643,-230.16072 C 243.66071,-227.03572 246.96429,-223.10714 247.41071,-221.41072 C 247.85714,-219.71429 247.85714,-219.625 247.85714,-219.625 L 253.66071,-219.71429 z "
               id="path10607"
               sodipodi:nodetypes="cscsccssscc" />
            <path
               style="fill:none;fill-opacity:0.75;fill-rule:evenodd;stroke:#003893;stroke-width:0.32652915;stroke-linecap:butt;stroke-linejoin:miter;stroke-miterlimit:4;stroke-dasharray:none;stroke-opacity:1"
               d="M 247.76786,-220.33929 L 251.69643,-225.16072"
               id="path11482" />
            <path
               style="fill:none;fill-opacity:0.75;fill-rule:evenodd;stroke:#003893;stroke-width:0.32652915;stroke-linecap:butt;stroke-linejoin:miter;stroke-miterlimit:4;stroke-dasharray:none;stroke-opacity:1"
               d="M 247.67857,-231.23214 L 244.73214,-225.96429"
               id="path11484" />
            <path
               style="fill:none;fill-opacity:0.75;fill-rule:evenodd;stroke:#003893;stroke-width:0.32652915;stroke-linecap:butt;stroke-linejoin:miter;stroke-miterlimit:4;stroke-dasharray:none;stroke-opacity:1"
               d="M 242.05357,-236.41072 L 240.35714,-230.42857"
               id="path11486" />
            <path
               style="fill:none;fill-opacity:0.75;fill-rule:evenodd;stroke:#003893;stroke-width:0.32652915;stroke-linecap:butt;stroke-linejoin:miter;stroke-miterlimit:4;stroke-dasharray:none;stroke-opacity:1"
               d="M 236.51786,-240.16072 L 235.89286,-234.17857"
               id="path11488" />
            <path
               style="fill:none;fill-opacity:0.75;fill-rule:evenodd;stroke:#003893;stroke-width:0.32652915;stroke-linecap:butt;stroke-linejoin:miter;stroke-miterlimit:4;stroke-dasharray:none;stroke-opacity:1"
               d="M 230.08929,-244.08929 L 230.08929,-238.19643"
               id="path11490" />
          </g>
          <g
             id="g13250"
             style="stroke:#003893;stroke-opacity:1">
            <path
               style="fill:#ffffff;fill-opacity:1;fill-rule:evenodd;stroke:#003893;stroke-width:0.32652915;stroke-linecap:butt;stroke-linejoin:miter;stroke-miterlimit:4;stroke-dasharray:none;stroke-opacity:1"
               d="M 215.09936,-246.58673 C 209.85919,-244.31389 211.8795,-240.08388 212.57398,-239.19999 C 213.26846,-238.31611 214.84682,-236.73774 216.10951,-236.35894 C 217.3722,-235.98013 218.57176,-235.72759 218.57176,-235.72759 L 218.19295,-246.5236 L 215.09936,-246.58673 z "
               id="path12373" />
            <path
               style="fill:none;fill-opacity:0.75;fill-rule:evenodd;stroke:#003893;stroke-width:0.32652915;stroke-linecap:butt;stroke-linejoin:miter;stroke-miterlimit:4;stroke-dasharray:none;stroke-opacity:1"
               d="M 212.13203,-244.18762 L 218.19295,-241.2203 L 213.01592,-238.50551"
               id="path12375" />
          </g>
        </g>
        <path
           style="fill:#ffffff;fill-opacity:1;fill-rule:evenodd;stroke:#003893;stroke-width:3.35816145px;stroke-linecap:butt;stroke-linejoin:miter;stroke-opacity:1"
           d="M 441.0289,76.667761 L 441.0289,382.09501 C 441.02419,382.11794 441.03479,382.15929 441.0289,382.18178 C 441.00772,382.2479 440.97371,382.37995 440.94214,382.44208 C 438.02752,387.51221 399.66443,379.02641 390.70282,371.68272 C 381.84647,364.42524 370.89454,355.11788 360.94103,344.87106 L 376.03885,340.87969 C 374.51657,339.40444 350.0461,315.32811 341.24444,286.21515 C 341.24444,286.21515 326.71293,347.05982 339.6826,359.01443 C 339.6859,359.00357 339.67838,358.93933 339.6826,358.92765 C 340.42906,357.28082 348.01243,349.55659 348.01243,349.55659 C 348.01243,349.55659 361.68727,382.00927 391.31021,392.68084 C 414.72655,401.1165 451.08693,435.50915 453.9575,436.93309 C 453.96686,436.93666 454.036,436.93058 454.04427,436.93309 C 454.05194,436.93691 454.12274,436.93922 454.13105,436.93309 C 454.2069,436.76263 494.23697,401.08262 517.55925,392.68084 C 547.1822,382.00927 560.85704,349.55659 560.85704,349.55659 C 560.85702,349.55659 568.44041,357.28082 569.18687,358.92765 C 569.19109,358.93933 569.18357,359.00357 569.18687,359.01443 C 582.15656,347.05982 567.62503,286.21515 567.62503,286.21515 C 558.82339,315.32811 534.35289,339.40444 532.83063,340.87969 L 547.92844,344.87106 C 537.97496,355.11788 527.023,364.42524 518.16664,371.68272 C 509.59935,378.7033 474.17918,386.77718 468.53471,383.04947 C 468.21871,382.82529 467.9394,382.49035 467.84057,382.18178 C 467.83468,382.15929 467.84528,382.11794 467.84057,382.09501 L 467.84057,76.667761 C 467.84057,76.667761 461.13765,62.288911 454.43475,62.288911 C 447.73182,62.288911 441.0289,76.667761 441.0289,76.667761 z "
           id="path7798"
           sodipodi:nodetypes="ccsssccccscssssscsccccscscczc" />
        <path
           sodipodi:nodetypes="ccccc"
           id="path7802"
           d="M 343.83533,136.32609 L 565.75212,136.32609 L 565.75212,155.46383 L 343.83533,155.46383 L 343.83533,136.32609 z "
           style="fill:#ffffff;fill-opacity:1;fill-rule:evenodd;stroke:#003893;stroke-width:1.69878006;stroke-linecap:butt;stroke-linejoin:miter;stroke-miterlimit:4;stroke-dasharray:none;stroke-opacity:1" />
        <rect
           style="fill:none;fill-opacity:1;fill-rule:nonzero;stroke:#003893;stroke-width:2.26773143;stroke-miterlimit:4;stroke-dasharray:none;stroke-opacity:1"
           id="rect7806"
           width="20.87533"
           height="19.186007"
           x="405.96765"
           y="136.30743" />
        <rect
           style="fill:none;fill-opacity:1;fill-rule:nonzero;stroke:#003893;stroke-width:2.23043537;stroke-miterlimit:4;stroke-dasharray:none;stroke-opacity:1"
           id="rect7810"
           width="20.194338"
           height="19.186007"
           x="484.1983"
           y="136.30743" />
        <path
           sodipodi:type="arc"
           style="fill:#ffffff;fill-opacity:1;fill-rule:nonzero;stroke:#003893;stroke-width:1.14285183;stroke-miterlimit:4;stroke-dasharray:none;stroke-opacity:1"
           id="path7830"
           sodipodi:cx="222.5"
           sodipodi:cy="-246.67857"
           sodipodi:rx="6.9642859"
           sodipodi:ry="6.9642859"
           d="M 229.46429 -246.67857 A 6.9642859 6.9642859 0 1 1  215.53571,-246.67857 A 6.9642859 6.9642859 0 1 1  229.46429 -246.67857 z"
           transform="matrix(2.776611,0,0,2.776611,-163.665,746.9592)" />
        <path
           style="fill:#ffffff;fill-opacity:1;fill-rule:evenodd;stroke:#003893;stroke-width:0.90664446;stroke-linecap:butt;stroke-linejoin:miter;stroke-miterlimit:4;stroke-dasharray:none;stroke-opacity:1"
           d="M 386.85982,368.3197 C 390.41564,329.75367 394.82823,289.7221 455.13145,246.24767 C 515.43467,202.77327 525.49209,155.48782 525.49209,155.48782 C 525.49209,155.48782 522.84581,155.28244 541.69747,155.28244 C 537.61058,184.27956 519.85515,218.24099 455.13145,266.60314 C 407.44557,302.12237 407.82077,349.08272 404.63255,378.3844 C 394.08173,374.90498 400.41108,377.38577 395.39818,374.6943 C 390.38526,372.00281 386.85982,368.3197 386.85982,368.3197 z "
           id="path7858"
           sodipodi:nodetypes="cscccczc" />
        <path
           style="fill:none;fill-opacity:0.75;fill-rule:evenodd;stroke:#003893;stroke-width:0.90664446;stroke-linecap:butt;stroke-linejoin:miter;stroke-miterlimit:4;stroke-dasharray:none;stroke-opacity:1"
           d="M 541.18813,157.18008 L 522.22287,165.48513"
           id="path8733" />
        <path
           style="fill:none;fill-opacity:0.75;fill-rule:evenodd;stroke:#003893;stroke-width:0.90664446;stroke-linecap:butt;stroke-linejoin:miter;stroke-miterlimit:4;stroke-dasharray:none;stroke-opacity:1"
           d="M 536.97362,174.03806 L 517.88441,175.77344"
           id="path8735" />
        <path
           style="fill:none;fill-opacity:0.75;fill-rule:evenodd;stroke:#003893;stroke-width:0.90664446;stroke-linecap:butt;stroke-linejoin:miter;stroke-miterlimit:4;stroke-dasharray:none;stroke-opacity:1"
           d="M 531.02373,187.54927 L 510.94289,188.04509"
           id="path8737" />
        <path
           style="fill:none;fill-opacity:0.75;fill-rule:evenodd;stroke:#003893;stroke-width:0.90664446;stroke-linecap:butt;stroke-linejoin:miter;stroke-miterlimit:4;stroke-dasharray:none;stroke-opacity:1"
           d="M 520.61144,204.0354 L 502.38992,200.68858"
           id="path8739" />
        <path
           style="fill:none;fill-opacity:0.75;fill-rule:evenodd;stroke:#003893;stroke-width:0.90664446;stroke-linecap:butt;stroke-linejoin:miter;stroke-miterlimit:4;stroke-dasharray:none;stroke-opacity:1"
           d="M 509.8273,217.67053 L 492.47349,212.83626"
           id="path8741" />
        <path
           style="fill:none;fill-opacity:0.75;fill-rule:evenodd;stroke:#003893;stroke-width:0.90664446;stroke-linecap:butt;stroke-linejoin:miter;stroke-miterlimit:4;stroke-dasharray:none;stroke-opacity:1"
           d="M 497.67964,230.43798 L 480.07788,225.47975"
           id="path8743" />
        <path
           style="fill:none;fill-opacity:0.75;fill-rule:evenodd;stroke:#003893;stroke-width:0.90664446;stroke-linecap:butt;stroke-linejoin:miter;stroke-miterlimit:4;stroke-dasharray:none;stroke-opacity:1"
           d="M 486.89547,240.97424 L 468.54998,236.26392"
           id="path8745" />
        <path
           style="fill:none;fill-opacity:0.75;fill-rule:evenodd;stroke:#003893;stroke-width:0.90664446;stroke-linecap:butt;stroke-linejoin:miter;stroke-miterlimit:4;stroke-dasharray:none;stroke-opacity:1"
           d="M 473.05131,252.37818 L 454.70582,246.42832"
           id="path8747" />
        <path
           style="fill:none;fill-opacity:0.75;fill-rule:evenodd;stroke:#003893;stroke-width:0.90664446;stroke-linecap:butt;stroke-linejoin:miter;stroke-miterlimit:4;stroke-dasharray:none;stroke-opacity:1"
           d="M 459.87307,262.41859 L 440.78387,257.46038"
           id="path8749" />
        <path
           style="fill:none;fill-opacity:0.75;fill-rule:evenodd;stroke:#003893;stroke-width:0.90664446;stroke-linecap:butt;stroke-linejoin:miter;stroke-miterlimit:4;stroke-dasharray:none;stroke-opacity:1"
           d="M 447.10562,272.83089 L 426.28104,270.84761"
           id="path8751" />
        <path
           style="fill:none;fill-opacity:0.75;fill-rule:evenodd;stroke:#003893;stroke-width:0.90664446;stroke-linecap:butt;stroke-linejoin:miter;stroke-miterlimit:4;stroke-dasharray:none;stroke-opacity:1"
           d="M 436.81728,283.11923 L 416.48851,282.3755"
           id="path8753" />
        <path
           style="fill:none;fill-opacity:0.75;fill-rule:evenodd;stroke:#003893;stroke-width:0.90664446;stroke-linecap:butt;stroke-linejoin:miter;stroke-miterlimit:4;stroke-dasharray:none;stroke-opacity:1"
           d="M 427.5206,295.76272 L 406.2002,296.87834"
           id="path8755" />
        <path
           style="fill:none;fill-opacity:0.75;fill-rule:evenodd;stroke:#003893;stroke-width:0.90664446;stroke-linecap:butt;stroke-linejoin:miter;stroke-miterlimit:4;stroke-dasharray:none;stroke-opacity:1"
           d="M 420.08326,308.53017 L 399.75449,309.76973"
           id="path8757" />
        <path
           style="fill:none;fill-opacity:0.75;fill-rule:evenodd;stroke:#003893;stroke-width:0.90664446;stroke-linecap:butt;stroke-linejoin:miter;stroke-miterlimit:4;stroke-dasharray:none;stroke-opacity:1"
           d="M 415.00106,320.92577 L 394.17647,324.89235"
           id="path8759" />
        <path
           style="fill:none;fill-opacity:0.75;fill-rule:evenodd;stroke:#003893;stroke-width:0.90664446;stroke-linecap:butt;stroke-linejoin:miter;stroke-miterlimit:4;stroke-dasharray:none;stroke-opacity:1"
           d="M 410.66261,334.80882 L 390.7057,338.77541"
           id="path8761" />
        <path
           style="fill:none;fill-opacity:0.75;fill-rule:evenodd;stroke:#003893;stroke-width:0.90664446;stroke-linecap:butt;stroke-linejoin:miter;stroke-miterlimit:4;stroke-dasharray:none;stroke-opacity:1"
           d="M 407.93558,349.43562 L 388.59845,352.41056"
           id="path8763" />
        <path
           style="fill:none;fill-opacity:0.75;fill-rule:evenodd;stroke:#003893;stroke-width:0.90664446;stroke-linecap:butt;stroke-linejoin:miter;stroke-miterlimit:4;stroke-dasharray:none;stroke-opacity:1"
           d="M 406.57205,362.45099 L 387.48284,366.54153"
           id="path8765" />
        <path
           style="fill:#ffffff;fill-opacity:1;fill-rule:evenodd;stroke:#003893;stroke-width:0.90664446;stroke-linecap:butt;stroke-linejoin:miter;stroke-miterlimit:4;stroke-dasharray:none;stroke-opacity:1"
           d="M 383.67433,389.07772 C 380.69424,399.24511 381.39546,403.80292 383.14843,407.48421 C 384.90145,411.16553 389.10863,413.44444 391.73813,411.86673 C 394.36764,410.28903 397.34776,407.83481 398.75014,404.50412 C 400.15255,401.17342 402.08085,396.96622 402.08085,396.96622 L 383.67433,389.07772 z "
           id="path9660"
           sodipodi:nodetypes="cssscc" />
        <path
           style="fill:none;fill-opacity:0.75;fill-rule:evenodd;stroke:#003893;stroke-width:0.90664446;stroke-linecap:butt;stroke-linejoin:miter;stroke-miterlimit:4;stroke-dasharray:none;stroke-opacity:1"
           d="M 400.93214,397.55047 L 381.84293,401.641"
           id="path10554" />
      </g>
      <g
         transform="matrix(1.046096,0,0,1.202628,-25.33018,-16.90223)"
         id="g4203">
        <path
           style="fill:#ffffff;fill-opacity:1;fill-rule:evenodd;stroke:#003893;stroke-width:1.24052489;stroke-linecap:butt;stroke-linejoin:miter;stroke-miterlimit:4;stroke-dasharray:none;stroke-opacity:1"
           d="M 452.20693,-3.5355 C 465.34625,-3.5355 465.84207,-7.9979022 470.80032,-15.93107 C 475.75855,-23.864266 477.98974,-31.549508 485.67502,-33.532814 C 493.36029,-35.51612 534.01779,-35.268197 547.15713,-30.805793 C 560.29645,-26.343362 592.02914,-4.5271389 602.93726,1.4227511 C 613.84539,7.3726123 636.65325,19.024467 638.63656,21.255664 C 640.61984,23.486871 641.8594,26.213925 639.38027,27.701384 C 636.90118,29.188867 630.95129,27.701384 627.97634,27.20556 C 625.0014,26.709736 579.88147,0.43108455 571.9483,-6.2625206 C 564.01513,-12.956153 545.17382,-17.666452 539.71979,-17.418557 C 534.26571,-17.170633 529.55539,-16.922737 534.26571,-17.170633 C 538.97604,-17.418557 560.04852,-15.187355 570.70873,-7.2541595 C 581.36895,0.67900838 594.75619,9.603814 594.75619,9.603814 C 594.75619,9.603814 599.96234,11.339196 594.75619,9.603814 C 589.55004,7.8684324 590.04587,6.1330495 584.83972,5.6372307 C 579.63357,5.1414106 576.1628,6.8767934 565.50259,8.3642788 C 554.84237,9.8517378 544.92592,3.1581327 535.75317,1.9185699 C 526.58044,0.67900838 515.1765,1.9185699 509.97037,6.1330495 C 504.76422,10.347557 504.76422,15.553704 499.31015,19.272391 C 493.85611,22.991047 458.40472,34.395015 458.40472,34.395015 L 458.40472,42.328182 L 463.11504,47.038507 C 463.11504,47.038507 467.08163,48.525966 463.11504,47.038507 C 459.14847,45.551024 456.91726,45.798948 456.17352,47.782218 C 455.42978,49.765525 454.68606,51.748832 454.68606,51.748832 C 454.68606,51.748832 454.19022,50.75716 452.95068,48.278066 C 451.71111,45.798948 449.23199,46.046835 447.24869,46.542683 C 445.2654,47.038507 446.00915,49.517601 445.2654,47.038507 C 444.52167,44.559376 447.00079,44.063565 448.98407,41.584434 C 450.96737,39.105304 451.2153,38.113669 449.97573,34.890827 C 448.73617,31.667961 441.29883,27.453484 441.29883,27.453484 C 441.29883,27.453484 437.08431,28.693019 441.29883,27.453484 C 445.5133,26.213925 445.49567,24.290773 445.49567,24.290773 C 442.76865,29.001098 440.55508,27.701384 440.55508,27.701384 C 440.55508,27.701384 448.24036,26.957636 440.55508,27.701384 C 432.86981,28.445119 425.43246,16.793266 425.43246,16.793266 L 452.20693,-3.5355 z "
           id="path15184"
           sodipodi:nodetypes="cssssssssssscsssssscccsscssssscsccscc" />
        <path
           style="fill:none;fill-opacity:0.75;fill-rule:evenodd;stroke:#003893;stroke-width:0.82701647;stroke-linecap:butt;stroke-linejoin:miter;stroke-miterlimit:4;stroke-dasharray:none;stroke-opacity:1"
           d="M 494.31391,-6.2926051 L 500.62473,-3.4878032"
           id="path17122" />
        <path
           style="fill:none;fill-opacity:0.75;fill-rule:evenodd;stroke:#003893;stroke-width:0.82701647;stroke-linecap:butt;stroke-linejoin:miter;stroke-miterlimit:4;stroke-dasharray:none;stroke-opacity:1"
           d="M 502.37771,-14.707006 L 506.23432,-8.7468051"
           id="path17124" />
        <path
           style="fill:none;fill-opacity:0.75;fill-rule:evenodd;stroke:#003893;stroke-width:0.82701647;stroke-linecap:butt;stroke-linejoin:miter;stroke-miterlimit:4;stroke-dasharray:none;stroke-opacity:1"
           d="M 518.15473,-14.707006 L 517.80413,-10.149204"
           id="path17126" />
        <path
           style="fill:none;fill-opacity:0.75;fill-rule:evenodd;stroke:#003893;stroke-width:0.82701647;stroke-linecap:butt;stroke-linejoin:miter;stroke-miterlimit:4;stroke-dasharray:none;stroke-opacity:1"
           d="M 510.09093,-13.655206 L 510.79213,-10.499807"
           id="path17128" />
        <g
           id="g18887"
           transform="matrix(2.776611,0,0,2.776611,13.99175,-99.77407)"
           style="stroke:#003893;stroke-opacity:1">
          <path
             sodipodi:nodetypes="csssszccscsssssscc"
             id="path14306"
             d="M 157.36342,33.672465 C 149.66101,35.187695 148.52458,32.53605 148.14577,31.27336 C 147.76697,30.01067 150.54489,31.02082 150.54489,29.37932 C 150.54489,27.73782 147.89324,23.57094 144.86278,22.9396 C 141.83232,22.30825 124.02838,21.67691 114.5582,24.9599 C 105.08802,28.2429 97.1015,32.94642 91.07215,36.19785 C 85.0428,39.44928 90.44081,37.96562 90.44081,37.96562 C 90.44081,37.96562 91.0111,36.78324 90.44081,37.96562 C 93.21873,38.34442 101.93129,33.67247 104.45668,32.40978 C 106.98206,31.14709 115.18955,28.36917 115.18955,28.36917 C 115.18955,28.36917 116.83104,27.99036 115.18955,28.36917 C 113.54805,28.74798 103.69906,32.53605 102.68891,33.29366 C 101.67876,34.05128 98.6483,35.06143 100.41607,35.56651 C 102.18383,36.07158 114.68447,33.67247 119.23016,33.5462 C 123.77584,33.41993 125.41734,33.79874 128.06899,35.56651 C 130.72064,37.33427 132.99349,40.74354 134.38245,41.37488 C 135.7714,42.00623 146.75682,42.006228 146.75682,42.006228 L 157.36342,33.672465 z "
             style="fill:#ffffff;fill-opacity:1;fill-rule:evenodd;stroke:#003893;stroke-width:0.29785103;stroke-linecap:butt;stroke-linejoin:miter;stroke-miterlimit:4;stroke-dasharray:none;stroke-opacity:1" />
          <path
             id="path18010"
             d="M 107.20244,34.803887 L 108.46513,33.288658"
             style="fill:none;fill-opacity:0.75;fill-rule:evenodd;stroke:#003893;stroke-width:0.29785103;stroke-linecap:butt;stroke-linejoin:miter;stroke-miterlimit:4;stroke-dasharray:none;stroke-opacity:1" />
          <path
             id="path18012"
             d="M 111.74813,34.298811 L 112.63201,32.657313"
             style="fill:none;fill-opacity:0.75;fill-rule:evenodd;stroke:#003893;stroke-width:0.29785103;stroke-linecap:butt;stroke-linejoin:miter;stroke-miterlimit:4;stroke-dasharray:none;stroke-opacity:1" />
        </g>
        <path
           style="fill:#ffffff;fill-opacity:1;fill-rule:evenodd;stroke:#003893;stroke-width:1.24052489;stroke-linecap:butt;stroke-linejoin:miter;stroke-miterlimit:4;stroke-dasharray:none;stroke-opacity:1"
           d="M 406.57785,16.685581 C 397.98816,22.821054 397.46226,27.729464 396.58578,31.235471 C 395.70924,34.741502 397.46226,37.546295 397.46226,37.546295 C 397.46226,37.546295 407.98026,28.080077 409.55797,28.430641 C 411.13566,28.781254 414.11576,25.099989 414.11576,25.099989 L 406.57785,16.685581 z "
           id="path13429"
           sodipodi:nodetypes="cscscc" />
        <g
           id="g16061"
           transform="matrix(2.776611,0,0,2.776611,-166.478,747.2897)"
           style="stroke:#003893;stroke-opacity:1">
          <path
             sodipodi:nodetypes="cssscscsssc"
             id="path13427"
             d="M 227.32143,-268.46429 C 223.57143,-274.17857 221.60714,-272.21429 219.28571,-270.25 C 216.96429,-268.28572 215.71429,-267.92857 213.21429,-268.10714 C 210.71429,-268.28572 209.10714,-267.39286 207.67857,-265.78572 C 206.25,-264.17857 206.68669,-263.8954 205.48341,-262.48663 C 207.24746,-261.70922 206.8668,-262.1855 207.6569,-260.85071 C 208.18729,-259.95468 208.09916,-260.02099 207.09056,-258.64286 C 212.26913,-258.46429 213.39286,-259.53572 214.64286,-260.42857 C 215.89286,-261.32143 216.78571,-262.75 218.21429,-263.10714 C 219.64286,-263.46429 220,-262.92857 221.60714,-263.46429 C 223.21429,-264 223.75,-266.14286 223.75,-266.14286"
             style="fill:#ffffff;fill-opacity:1;fill-rule:evenodd;stroke:#003893;stroke-width:0.4467766;stroke-linecap:butt;stroke-linejoin:miter;stroke-miterlimit:4;stroke-dasharray:none;stroke-opacity:1" />
          <path
             d="M 209.16471 -264.01187 A 0.50507629 0.50507629 0 1 1  208.15456,-264.01187 A 0.50507629 0.50507629 0 1 1  209.16471 -264.01187 z"
             sodipodi:ry="0.50507629"
             sodipodi:rx="0.50507629"
             sodipodi:cy="-264.01187"
             sodipodi:cx="208.65964"
             id="path14304"
             style="fill:#ffffff;fill-opacity:1;fill-rule:nonzero;stroke:#003893;stroke-width:0.4467766;stroke-miterlimit:4;stroke-dasharray:none;stroke-opacity:1"
             sodipodi:type="arc" />
        </g>
      </g>
    </g>
  </g>
</svg>
