<svg xmlns="http://www.w3.org/2000/svg" xmlns:xlink="http://www.w3.org/1999/xlink" version="1.0" width="600" height="400">
  <g transform="translate(0 -100)">
    <path transform="scale(-1 1)" style="color:#000;display:inline;overflow:visible;visibility:visible;fill:#1eb53a;fill-opacity:1;fill-rule:evenodd;stroke:none;stroke-width:4;marker:none" d="M-600 100H0v400h-600z"/>
    <path transform="scale(-1 1)" style="color:#000;display:inline;overflow:visible;visibility:visible;fill:#fff;fill-opacity:1;fill-rule:evenodd;stroke:none;stroke-width:4;marker:none" d="M-300 100H0v180.82111h-300z"/>
    <path d="M231.92141 163.81372c.051.035.12037.0625.17089.0976l-.0976-.0976h-.0732z" style="fill:#00b5e2;fill-opacity:1;fill-rule:evenodd;stroke:none"/>
    <path style="opacity:.98999999;fill:#0099b5;fill-opacity:1;fill-rule:nonzero;stroke:none;stroke-width:.20490149;stroke-miterlimit:4;stroke-dasharray:none;stroke-opacity:1" d="M.01601926 264.70068h300.2641v35.299294h-300.2641z"/>
    <path d="M48.301103 208.65455c.28046-.328.55995-.66959.83009-.97656.31464-.35754.62088-.66481.92774-1.00098-1.85787-1.59288-3.39772-3.69641-3.8086-5.2002l4.02832.1709c-4.3695-2.25169-7.69294-5.62532-9.57031-10.5957.27069 4.51136-.35671 6.64437 1.12304 14.37988l2.00196-2.29492c1.32081 2.40456 2.78796 4.14069 4.46777 5.51758zM88.974943 207.75123c.0209.0898.0561.17834.0732.26855.16005.84291.22519 1.69003.24414 2.53907 2.93053-1.67604 5.28992-3.76287 7.299798-7.42188l2.00196 2.29492c1.479759-7.73551.85235-9.86852 1.12304-14.37988-1.87736 4.97038-5.200808 8.34401-9.570308 10.5957l4.02832-.1709c-.51239 1.87539-2.70659 4.75247-5.2002 6.27442zM73.056973 182.84888c-.46213.21711-.88485.44954-1.44043.63477-1.68071.56037-3.07337 1.17475-4.24804 1.80664v8.61816c-.00001 3.43748-2.80514 9.91318-5.3711 12.86622-1.56967 1.80643-4.31755 1.95649-6.73828 1.97753-.6557.60848-1.29415 1.19986-2.22168 2.2461-.0971.1095-.21228.2459-.31738.36621 4.37904 2.18981 9.93167 3.97952 17.48047 8.47168 5.55836-3.30477 9.8595-5.08068 13.59863-6.68945.21006-.9.43945-1.85788.43945-2.22168 0-.79098-.25088-1.51994-.41503-2.27051-2.04257-.10842-4.11183-.40257-5.39551-1.87988-2.56596-2.95304-5.3711-9.42874-5.3711-12.86622zM69.663413 141.00319c-5.08564.2919-9.15528 4.53609-9.15527 9.69237.00001 4.35016 2.9027 8.05161 6.86035 9.27735v6.46972h-17.99316l17.99316 7.9834v5.39551c.85295-.39241 1.65131-.81078 2.66113-1.14746 1.23451-.41159 2.09039-.88576 3.02735-1.34277v-2.90528l17.99316-7.9834h-17.99316v-6.46972c3.96889-1.21884 6.88477-4.91916 6.88476-9.27735.00001-5.34416-4.37265-9.69237-9.71679-9.69237-.18789 0-.37622-.0106-.56152 0zm.0977 2.31933c.15664-.01.30464 0 .46387 0 4.07603 0 7.34863 3.297 7.34863 7.37304.00002 4.07604-3.27259 7.37305-7.34863 7.37305-4.07605 0-7.34864-3.297-7.34864-7.37305 0-3.91681 3.03141-7.12833 6.88477-7.37304z" style="fill:#ce1126;fill-opacity:1;fill-rule:evenodd;stroke:none"/>
    <path d="M72.983733 157.8733c.051.035.12037.0625.17089.0976l-.0976-.0976h-.0732z" style="fill:#ce1126;fill-opacity:1;fill-rule:evenodd;stroke:none"/>
    <path d="m54.917323 145.93482-.63477 1.85547.92774.31738c1.30521.45099 2.57808.91254 3.80859 1.36719.073-.66857.18001-1.32425.36621-1.95312-1.14997-.42137-2.33114-.82742-3.54004-1.24512zm9.64355 3.61328c-.0734.37363-.12207.7503-.12207 1.14746 0 .32887.0227.63902.0732.95215 3.74522 1.59706 6.98701 3.25926 9.61913 5.10255 3.4 2.381 5.74974 5.00508 6.98243 8.12987h2.02636c-1.32062-3.85118-4.04622-7.02801-7.8857-9.71679-2.96338-2.07525-6.57192-3.89921-10.69336-5.61524zM56.650723 203.5276c-.69443.0905-1.30078.43237-1.92871.8789-.66833.47526-1.47455 1.42843-2.22168 2.17285-.003-.002-.0214.002-.0243 0-1.22272 1.21612-2.48573 2.47312-3.85742 4.07715-1.08816 1.27248-2.15555 2.54382-3.2959 3.83301l-.65918.70801 1.46485 1.29394.65914-.70801c1.23303-1.39396 2.39901-2.75472 3.56445-4.10156 1.63189-1.8859 3.02966-3.31488 4.24805-4.44336.38873-.36004.92048-1.01426 1.24511-1.24511.42022-.29882.78182-.45629.97657-.5127.0211-.005.0566-.0214.0732-.0243.005-.0005.0199.00043.0244 0 .005-.00043.0203.0005.0243 0 .003-.0005.0215.001.0243 0 .008-.002.0193-.0221.0243-.0243.002-.001.0225.001.0244 0 .009.0133.029.0509.0732.12207.1042.16767.20492.73484.26856 1.46484.26762-.0325.57822-.001.83008-.0488.41111-.0773.77016-.1921 1.12304-.31738-.0911-.82304-.21833-1.57179-.56152-2.12402-.41441-.66688-1.26341-1.07084-2.00195-1.00098-.0346.003-.0635-.005-.0977 0zM83.725913 171.4231l-2.51464 1.09864c-.3456.7395-.65825 1.48021-1.29395 2.19726-1.1385 1.28422-3.03098 2.47538-5.29785 3.61328-.95491.47934-1.94617.95766-3.125 1.3916-.36902.13585-.58469.3088-.97656.43946-.61127.2038-1.02694.46514-1.58692.6836-1.09921.42882-2.22033.83785-3.125 1.31836-1.53485.81522-2.84228 1.69749-3.83301 2.63671-1.87216 1.77486-2.80581 3.79902-2.66113 5.76172.14468 1.96271 1.37693 3.70753 3.34472 4.98047.74364.48105 1.70713.81918 2.66114 1.17188.0143-.053.0351-.11842.0488-.1709.18342-.70141.22709-1.21379.29297-1.75781-.6894-.27758-1.4341-.54316-1.95313-.87891-1.60512-1.03834-2.34933-2.24213-2.4414-3.49121-.0921-1.24908.4684-2.69909 2.05078-4.19922.6319-.59905 1.53606-1.20016 2.49023-1.78223.87621-.53451 1.96831-1.02354 3.125-1.51367.73799-.31271 1.34234-.64269 2.19727-.92773.14502-.0483.22386-.12182.36621-.1709 1.20171-.41438 2.10998-.90182 3.125-1.36719 2.86576-1.31391 5.26597-2.75507 6.76269-4.44336 1.26138-1.4228 1.98751-2.98394 2.34375-4.58984zm-8.61817 25.29297c.19805.71878.51015 1.49107.80567 2.27051 2.73809.8462 4.88905 2.08098 6.4209 3.58887 1.38757 1.36585 2.28357 2.94417 2.83203 4.61425.33764 1.02813.53758 2.09233.58594 3.17383.003.072.0193.14815.0243.21973.00013.002-.0005.0216 0 .0243.002.10707.0244.21008.0244.31738 0 .69815-.19343 1.93949-.58594 3.32031-.45047 1.58471-1.17491 3.37217-2.36817 5.05372-2.23298 3.14676-5.85711 5.83496-12.01171 5.83496-3.51636 0-6.65559-1.25707-8.78907-3.58887-1.2725-1.39081-2.14355-3.23373-2.58789-5.41992-.77962-.34243-1.41924-.63983-2.14843-.95215.36285 3.11869 1.50785 5.73618 3.29589 7.69043 2.53887 2.77488 6.24336 4.22364 10.2295 4.22364 6.74126 0 11.07726-3.11189 13.59863-6.66504 1.80251-2.54011 2.52593-5.01357 2.90528-7.10449.002.00004.0214-.00018.0244 0 .15075-.83218.39062-1.80643.39062-2.39259 0-1.374-.25318-2.7256-.65918-4.05273-.6302-2.05999-1.70815-4.02946-3.39355-5.68848-2.04917-2.0171-4.90628-3.57967-8.59375-4.46777z" style="fill:#ce1126;fill-opacity:1;fill-rule:evenodd;stroke:none"/>
    <circle style="fill:#ce1126;fill-opacity:1" cx="153.83389" cy="188.52444" r="30"/>
    <circle style="fill:#fff;fill-opacity:1" cx="163.83389" cy="188.52444" r="30"/>
    <g id="c" transform="translate(171.83388 212.52443)" style="fill:#ce1126;fill-opacity:1">
      <g id="b" style="fill:#ce1126;fill-opacity:1">
        <path id="a" d="M0-6v6h3" transform="rotate(18 0 -6)" style="fill:#ce1126;fill-opacity:1"/>
        <use xlink:href="#a" transform="scale(-1 1)" width="100%" height="100%" style="fill:#ce1126;fill-opacity:1"/>
      </g>
      <use xlink:href="#b" transform="rotate(72)" width="100%" height="100%" style="fill:#ce1126;fill-opacity:1"/>
      <use xlink:href="#b" transform="rotate(144)" width="100%" height="100%" style="fill:#ce1126;fill-opacity:1"/>
      <use xlink:href="#b" transform="rotate(-144)" width="100%" height="100%" style="fill:#ce1126;fill-opacity:1"/>
      <use xlink:href="#b" transform="rotate(-72)" width="100%" height="100%" style="fill:#ce1126;fill-opacity:1"/>
    </g>
    <use height="100%" width="100%" xlink:href="#c" x="24" transform="translate(.00000875 -.0000013)" style="fill:#ce1126;fill-opacity:1"/>
    <use height="100%" width="100%" xlink:href="#c" x="48" transform="translate(.00000875 -.0000013)" style="fill:#ce1126;fill-opacity:1"/>
    <use height="100%" width="100%" xlink:href="#c" x="72" transform="translate(.00000875 -.0000013)" style="fill:#ce1126;fill-opacity:1"/>
    <use height="100%" width="100%" xlink:href="#c" x="96" transform="translate(.00000875 -.0000013)" style="fill:#ce1126;fill-opacity:1"/>
    <use height="100%" width="100%" xlink:href="#c" x="24" y="-24" transform="translate(.00000875 -.0000013)" style="fill:#ce1126;fill-opacity:1"/>
    <use height="100%" width="100%" xlink:href="#c" x="48" y="-24" transform="translate(.00000875 -.0000013)" style="fill:#ce1126;fill-opacity:1"/>
    <use height="100%" width="100%" xlink:href="#c" x="72" y="-24" transform="translate(.00000875 -.0000013)" style="fill:#ce1126;fill-opacity:1"/>
    <use height="100%" width="100%" xlink:href="#c" x="96" y="-24" transform="translate(.00000875 -.0000013)" style="fill:#ce1126;fill-opacity:1"/>
    <use height="100%" width="100%" xlink:href="#c" x="48" y="-48" transform="translate(.00000875 -.0000013)" style="fill:#ce1126;fill-opacity:1"/>
    <use height="100%" width="100%" xlink:href="#c" x="72" y="-48" transform="translate(.00000875 -.0000013)" style="fill:#ce1126;fill-opacity:1"/>
    <use height="100%" width="100%" xlink:href="#c" x="96" y="-48" transform="translate(.00000875 -.0000013)" style="fill:#ce1126;fill-opacity:1"/>
  </g>
</svg>
