<?xml version="1.0" encoding="utf-8"?>
<!-- Generator: Adobe Illustrator 24.1.2, SVG Export Plug-In . SVG Version: 6.00 Build 0)  -->
<svg version="1.1" id="Layer_1" xmlns="http://www.w3.org/2000/svg" xmlns:xlink="http://www.w3.org/1999/xlink" x="0px" y="0px"
	 viewBox="0 0 550 550" style="enable-background:new 0 0 550 550;" xml:space="preserve">
<style type="text/css">
	.st0{fill:#20552A;}
	.st1{fill-rule:evenodd;clip-rule:evenodd;fill:#FFFFFF;stroke:#20552A;stroke-miterlimit:10;}
</style>
<g>
	<path class="st0" d="M327.4,73.5c-3.7-8.7-17.2-19.7-34.5-15.7c-7.3,1.7-11.4,6.7-13.7,11.8c-0.4-2.4-1.4-6.4-3.9-8.9l-0.4-0.4
		l-0.4,0.4c-2.5,2.5-3.5,6.5-3.9,8.9c-2.2-5.1-6.3-10.1-13.6-11.8c-17.3-4-30.8,7-34.5,15.7c-0.1,0.2-0.1,0.5,0.1,0.7
		c0.2,0.2,0.4,0.3,0.7,0.2c0.2,0,18.9-3.9,28.3-2.3c7.3,1.2,18.3,8.5,20.6,11.1c-2,0.5-4.8,1.5-7.3,4.2c-3.8,4.2-5.4,10.7-4.6,19.3
		l0.1,0.9l1.4-1c0.4,2.3,1.5,8.7,3,11.8l0.4,0.8l0.7-1c0.7,2.9,2.7,10.5,4.3,12.4l0.5,0.6l0.7-1.4c0.6,1.9,1.9,5.5,3.1,7.1l0.2,0.2
		h0.5l0.2-0.2c1.3-1.6,2.5-5.2,3.1-7.1l0.7,1.4l0.5-0.6c1.7-1.9,3.6-9.5,4.3-12.4l0.7,1l0.4-0.8c1.4-3.1,2.6-9.5,3-11.8l1.4,1
		l0.1-0.9c0.8-8.6-0.8-15.1-4.6-19.3c-2.5-2.7-5.3-3.8-7.3-4.2c2.3-2.6,13.3-9.9,20.6-11.1c9.4-1.6,28.1,2.2,28.3,2.3
		c0.3,0.1,0.5,0,0.7-0.2C327.5,74,327.5,73.7,327.4,73.5z M275,61.8c2.6,3,3.3,7.9,3.4,9.5h-6.8C271.7,69.6,272.4,64.8,275,61.8z
		 M264.3,75.8c-0.8-2.2-3.5-9.5-5.8-11.3c-0.1-0.1-0.3-0.1-0.4,0s-0.1,0.3,0,0.4c1.9,1.6,4.4,7.7,5.4,10.4c-2.2-1.2-4.4-2.3-6.7-3.2
		c-1.5-2.1-5.1-7.2-7.1-8.1c-0.2-0.1-0.3,0-0.4,0.2c-0.1,0.2,0,0.3,0.2,0.4c1.7,0.8,4.7,4.8,6.4,7.1c-1.4-0.5-2.7-0.8-3.9-1.1
		c-0.9-0.2-1.9-0.3-2.9-0.3c-1.7-1.6-5.8-5.4-7.7-5.8c-0.2,0-0.3,0.1-0.4,0.2c0,0.2,0.1,0.3,0.2,0.4c1.6,0.4,5.1,3.4,6.9,5.2
		c-0.7,0-1.3,0-2,0c-1.4,0-2.9,0.1-4.5,0.2c-0.9-0.8-3.4-2.9-6.3-4.1c-0.2-0.1-0.3,0-0.4,0.2s0,0.3,0.2,0.4c2.4,1,4.5,2.6,5.7,3.6
		c-1.9,0.1-3.9,0.3-5.7,0.6c-0.8-0.4-3.2-1.5-5.6-2c-0.2,0-0.3,0.1-0.4,0.2c0,0.2,0.1,0.3,0.2,0.4c1.8,0.3,3.5,1,4.6,1.5
		c-4,0.5-7.5,1.2-9.4,1.5c4.2-8,16.6-17.3,32.3-13.6c12.9,3,14.9,17,15.3,22C270.3,79.7,267.5,77.7,264.3,75.8z M271.7,127.1
		l-1.1,2.2c-1.5-2.6-3.3-9.7-3.9-12.4l-0.3-1.1l-1,1.4c-1.5-3.9-2.6-11-2.6-11.5l-0.1-0.9l-1.3,1c-0.6-7.9,0.9-13.8,4.4-17.6
		c3.3-3.6,7.5-4.1,8.6-4.2v6.3c-2.7,2.2-6.7,9.5-6.9,9.8l0.5,0.3c0-0.1,3.7-6.9,6.3-9.3v7.1c-2.5,1.7-6.5,9.3-6.6,9.6l0.5,0.3
		c0-0.1,3.7-7.1,6.1-9.2v7.6c-1.9,1.7-4.6,6.6-4.8,6.9l0.5,0.3c0-0.1,2.4-4.4,4.2-6.3v6.7c-1.9,2-4.3,6.3-4.4,6.5l0.5,0.3
		c0,0,2.1-3.8,3.8-5.9v19.6c-1.2-2.5-2.3-6.1-2.3-6.1L271.7,127.1z M284.3,88.2c3.5,3.8,4.9,9.7,4.4,17.6l-1.3-1l-0.1,0.9
		c-0.1,0.5-1.2,7.6-2.6,11.5l-1-1.4l-0.3,1.1c-0.6,2.7-2.4,9.8-3.9,12.4l-1.1-2.2l-0.4,1.3c0,0-1.1,3.6-2.3,6.1v-19.6
		c1.7,2,3.8,5.8,3.8,5.9l0.5-0.3c-0.1-0.2-2.5-4.5-4.4-6.5v-6.7c1.8,1.9,4.2,6.3,4.2,6.3l0.5-0.3c-0.1-0.2-2.8-5.1-4.8-6.9v-7.6
		c2.4,2.1,6.1,9.1,6.1,9.2l0.5-0.3c-0.2-0.3-4.1-7.9-6.6-9.6v-7.1c2.6,2.4,6.3,9.2,6.3,9.3l0.5-0.3c-0.2-0.3-4.2-7.6-6.9-9.8V84
		C276.8,84.1,281,84.6,284.3,88.2z M275.4,83C275.4,83,275.4,83,275.4,83h-0.8c0,0,0,0,0,0c-0.1,0-0.5,0-1.1,0.1c0-0.1,0-0.1,0-0.2
		c0-0.1,0.1-5.1-1.8-10.6h6.4c-1.8,5.5-1.8,10.5-1.8,10.6c0,0.1,0,0.1,0,0.2C275.9,83,275.5,83,275.4,83z M316.1,71.3
		c1.1-0.5,2.8-1.2,4.6-1.5l-0.1-0.6c-2.5,0.4-4.8,1.5-5.6,2c-1.8-0.2-3.8-0.4-5.7-0.6c1.1-0.9,3.3-2.6,5.7-3.6l-0.2-0.6
		c-2.9,1.2-5.4,3.3-6.3,4.1c-2.2-0.1-4.4-0.2-6.5-0.1c1.9-1.8,5.3-4.8,6.9-5.2l-0.1-0.6c-2,0.4-6,4.2-7.7,5.8c-1,0.1-2,0.2-2.9,0.3
		c-1.2,0.2-2.5,0.6-3.9,1.1c1.6-2.3,4.7-6.4,6.4-7.1l-0.3-0.6c-2,0.9-5.7,6-7.1,8.1c-2.2,0.9-4.5,2-6.7,3.2c1-2.7,3.4-8.8,5.4-10.4
		l-0.4-0.5c-2.3,1.8-5,9.2-5.8,11.3c-3.2,1.9-6,3.8-7.8,5.3c0.3-4.9,2.4-19,15.3-22c2.4-0.6,4.8-0.8,7.1-0.8
		c12.3,0,21.7,7.7,25.3,14.4C323.6,72.4,320.2,71.8,316.1,71.3z"/>
	<g>
		<path class="st0" d="M448.2,246.7l-1.1,0.1c-31.5,1.8-71.2,12.6-96.6,21.6c22.6-26.9,37.7-53.4,44.6-78.6l0.3-1l-1,0.3
			c-22.9,7.5-46.9,22.7-63.5,34.5c5.4-20.9,7.5-40.4,6.3-58l-0.1-1.1l-0.8,0.6c-12.6,9.7-26,23.6-39.8,41.6c-5-26.2-12.1-47-21.3-62
			l-0.5-0.8l-0.5,0.8c-9.2,15-16.3,35.8-21.3,62c-13.8-17.9-27.2-31.9-39.8-41.6l-0.8-0.6l-0.1,1.1c-1.2,17.5,1,37,6.3,58
			c-16.5-11.7-40.6-26.9-63.5-34.5l-1-0.3l0.3,1c6.9,25.2,22,51.6,44.6,78.6c-25.3-9-65.1-19.8-96.6-21.6l-1.1-0.1l0.6,1
			c16.6,24.7,56.4,52.1,69.5,61.1c2.1,1.5,3.6,2.5,4.1,2.9c21.3,17.5,36.9,18.9,42.6,18.7c2.1-0.1,5.9-0.2,10.4-0.4
			c12.3-0.5,31-1.2,33-1c4.6,0.8,6.9,2.7,7.4,5.9c0.4,2.5,0.5,5,0.5,5l0,0.5h4.8h1h4.8l0-0.5c0,0,0.1-2.5,0.5-5
			c0.4-3.2,2.7-5,7.3-5.9c2-0.3,20.7,0.5,33,1c4.6,0.2,8.4,0.3,10.4,0.4c5.7,0.2,21.4-1.3,42.6-18.7c0.5-0.4,1.9-1.4,4.1-2.9
			c13.1-9,52.8-36.5,69.5-61.1L448.2,246.7z M300.8,314.5c0.5-1.8,0.9-3.8,1.2-6.3c0,0,0,0,0,0c0,0,0,0,0,0c0,0,0,0,0,0
			c0.5-3.6,0.6-7,0.6-9.7l0.2-6.2c0.4-0.2,0.8-0.4,1.2-0.6l0.4-0.2c3.4-1.7,7-3.7,10.9-5.9c4.9-2.7,10-5.5,15.3-8.1
			c4.6-2.2,11-4.8,18.5-7.5c24.5-8.8,63.8-19.7,95.5-22L300.8,314.5z M348.7,269c-0.9,0.3-1.8,0.7-2.7,1c-0.3,0.1-0.6,0.2-0.9,0.3
			c-0.6,0.2-1.2,0.4-1.8,0.7c-0.5,0.2-0.9,0.4-1.4,0.5c-0.4,0.1-0.7,0.3-1.1,0.4c-0.5,0.2-0.9,0.4-1.4,0.6c-0.3,0.1-0.7,0.3-1,0.4
			c-0.4,0.2-0.9,0.4-1.3,0.5c-0.3,0.1-0.7,0.3-1,0.4c-0.4,0.2-0.7,0.3-1.1,0.5c-0.3,0.1-0.7,0.3-1,0.4c-0.3,0.1-0.6,0.3-0.9,0.4
			c-0.4,0.2-0.7,0.3-1.1,0.5c-0.6,0.3-1.2,0.6-1.8,0.8c-5.3,2.6-10.4,5.4-15.3,8.1c-3.9,2.1-7.5,4.1-10.9,5.8l-0.4,0.2
			c-0.2,0.1-0.5,0.2-0.7,0.4l0-0.6c0-0.7,0.1-1.5,0.1-2.2c0-0.4,0-0.8,0-1.3c0-0.4,0-0.7,0-1.1c0-0.4,0-0.8,0-1.1c0-0.4,0-0.9,0-1.3
			c0-0.3,0-0.7,0-1c0-0.5,0-0.9,0-1.4l90.5-89.7C386.5,216.1,371.4,242.3,348.7,269z M314.4,268.4l-2.9,2.8l-8.3,8.2
			c0-0.5,0-1,0-1.5c0-0.6,0-1.2,0-1.8c0-0.7,0-1.4,0-2.2c0-0.6,0-1.2,0-1.8c0-0.7,0-1.5,0-2.2c0-0.6,0-1.2,0-1.8
			c0-0.8,0-1.5-0.1-2.3c0-0.6,0-1.2-0.1-1.9c0-0.8-0.1-1.6-0.1-2.3c0-0.6,0-1.2-0.1-1.8c0-0.8-0.1-1.7-0.1-2.5
			c0-0.6-0.1-1.1-0.1-1.7c-0.1-1.4-0.2-2.8-0.3-4.2c0-0.5-0.1-1-0.1-1.5c-0.1-0.9-0.1-1.7-0.2-2.6c1.4-1.2,2.8-2.4,4.3-3.6
			c0.9-0.7,1.7-1.4,2.6-2.1c1.5-1.2,2.9-2.4,4.4-3.5c0.9-0.7,1.8-1.4,2.7-2.1c1.7-1.4,3.5-2.7,5.3-4c0.6-0.5,1.3-1,1.9-1.5
			c2.4-1.8,4.9-3.6,7.3-5.3c16-11.5,39.7-26.6,62.4-34.5L314.4,268.4z M336.5,167.4c0.9,17.3-1.3,36.5-6.7,57
			c-2.4,1.7-4.8,3.5-7.2,5.2c-0.4,0.3-0.7,0.6-1.1,0.8c-2,1.5-4,3.1-6,4.6c-0.8,0.7-1.7,1.3-2.5,2c-1.5,1.2-3,2.4-4.5,3.6
			c-1,0.8-1.9,1.6-2.8,2.4c-1.2,1-2.5,2-3.7,3.1c0-0.1,0-0.2,0-0.3c-0.1-1-0.2-1.9-0.3-2.9c0-0.1,0-0.3,0-0.4
			c-0.1-1-0.2-1.9-0.3-2.9c0-0.1,0-0.2,0-0.3l29.7-60.7L336.5,167.4z M335.4,167.2l-9.2,18.9l-25.1,51.4c0-0.2,0-0.4-0.1-0.6
			c-0.2-2.2-0.5-4.4-0.7-6.6c0-0.3-0.1-0.6-0.1-1c-0.3-2.2-0.6-4.4-0.9-6.6c0-0.2-0.1-0.5-0.1-0.7c-0.3-2.3-0.7-4.5-1-6.7
			c0-0.1,0-0.2-0.1-0.3c-0.4-2.3-0.8-4.5-1.2-6.7c0-0.1,0-0.1,0-0.2C310.3,190.6,323.2,176.8,335.4,167.2z M214.3,167.2
			c12.2,9.7,25.2,23.4,38.5,40.8c0,0.1,0,0.1,0,0.2c-0.4,2.2-0.8,4.4-1.2,6.7c0,0.1,0,0.2-0.1,0.3c-0.4,2.2-0.7,4.5-1,6.7
			c0,0.2-0.1,0.5-0.1,0.7c-0.3,2.2-0.6,4.4-0.9,6.6c0,0.3-0.1,0.6-0.1,1c-0.3,2.2-0.5,4.4-0.7,6.6c0,0.2,0,0.4-0.1,0.6L223.5,186
			L214.3,167.2z M213.2,167.4l5.5,11.3l29.7,60.7c0,0.1,0,0.1,0,0.2c-0.1,1-0.2,2-0.3,3c0,0.1,0,0.3,0,0.4c-0.1,1-0.2,2-0.3,2.9
			c0,0.1,0,0.2,0,0.3c-1.2-1-2.5-2-3.7-3.1c-0.9-0.8-1.9-1.6-2.8-2.3c-1.5-1.2-3-2.4-4.4-3.6c-0.9-0.7-1.7-1.4-2.6-2.1
			c-1.9-1.5-3.8-2.9-5.7-4.4c-0.5-0.4-1-0.7-1.4-1.1c-2.4-1.8-4.8-3.5-7.2-5.2C214.6,203.8,212.3,184.7,213.2,167.4z M219.2,225.1
			c2.4,1.7,4.9,3.5,7.3,5.3c0.9,0.6,1.7,1.3,2.5,1.9c1.6,1.2,3.1,2.4,4.7,3.6c0.8,0.7,1.7,1.3,2.5,2c1.5,1.2,3.1,2.4,4.6,3.7
			c0.8,0.6,1.5,1.3,2.3,1.9c1.5,1.3,3,2.5,4.5,3.8c-0.1,1-0.2,2-0.2,3c0,0.4-0.1,0.7-0.1,1.1c-0.1,1.4-0.2,2.8-0.3,4.2
			c0,0.4,0,0.8-0.1,1.3c-0.1,1-0.1,2-0.2,2.9c0,0.5,0,1-0.1,1.6c0,0.9-0.1,1.7-0.1,2.6c0,0.6,0,1.2-0.1,1.7c0,0.8-0.1,1.6-0.1,2.4
			c0,0.6,0,1.2,0,1.8c0,0.8,0,1.5,0,2.3c0,0.6,0,1.2,0,1.8c0,0.7,0,1.5,0,2.2c0,0.6,0,1.2,0,1.8c0,0.5,0,1,0,1.5l-52.6-52.1
			l-37-36.7C179.6,198.5,203.2,213.7,219.2,225.1z M200.5,269.9c7.5,2.7,13.9,5.3,18.5,7.5c5.3,2.6,10.4,5.4,15.3,8.1
			c3.9,2.1,7.5,4.2,10.9,5.9l0.4,0.2c0.4,0.2,0.8,0.4,1.2,0.6l0.1,2.6c0,1.3,0.1,2.5,0.1,3.6c0,2.8,0.1,6.1,0.6,9.8c0,0,0,0,0,0
			c0,0,0,0,0,0c0,0,0,0,0,0c0.3,2.5,0.7,4.5,1.2,6.3l-88.6-41l-55.2-25.5C136.7,250.2,176,261,200.5,269.9z M246.5,280.9
			c0,0.5,0,1,0,1.5c0,0.3,0,0.6,0,1c0,0.6,0,1.1,0,1.6c0,0.3,0,0.5,0,0.8c0,0.7,0,1.3,0.1,1.9c0,0.1,0,0.3,0,0.4
			c0,0.8,0.1,1.5,0.1,2.3l0,0.6c-0.2-0.1-0.5-0.2-0.7-0.4l-0.4-0.2c-3.4-1.7-7-3.7-10.9-5.8c-4.9-2.7-10-5.5-15.3-8.1
			c-2.8-1.4-6.4-2.9-10.4-4.5c0,0-0.1,0-0.1-0.1c-0.8-0.3-1.6-0.6-2.5-1c0,0,0,0,0,0c-1.7-0.7-3.5-1.3-5.4-2
			c-22.7-26.7-37.8-52.8-45-77.8L246.5,280.9z M274.4,339.3h-3.8c-0.1-0.8-0.2-2.7-0.5-4.6c-0.5-3.6-3.1-5.8-8.2-6.7
			c-2.1-0.3-20.1,0.4-33.2,1c-4.5,0.2-8.4,0.3-10.4,0.4c-5.6,0.2-21-1.3-42-18.5c-0.5-0.4-2-1.4-4.1-2.9
			c-12.8-8.8-51.2-35.4-68.3-59.5l145.6,67.4l0.5,0.2l0.5,0.3l0,0l0.1,0l-0.4-1l-0.1-0.3c-0.6-2.2-1.1-4.6-1.5-7
			c-0.3-2.7-0.5-5.8-0.6-9.7l0-1.8c0-0.6,0-1.1,0-1.6c0-1.1,0-2.2-0.2-3.1l-0.1-0.2l0-0.1l0,0l0-1.1c-0.1-2.9-0.2-6.2-0.3-9.7
			c-0.1-10.5,0.3-22,1.2-33.5c0.2-2.5,0.4-5.1,0.7-7.9c0.9-9.5,2.2-18.8,3.7-27.6c0.2-1.3,0.4-2.5,0.7-3.8
			c4.8-25.7,11.7-46.3,20.5-61.3V339.3z M377.6,307.9c-2.2,1.5-3.6,2.5-4.1,2.9c-21,17.3-36.3,18.7-42,18.5
			c-2.1-0.1-5.9-0.2-10.4-0.4c-13.1-0.5-31.1-1.2-33.2-1c-5,0.9-7.7,3.1-8.2,6.7c-0.3,1.9-0.4,3.8-0.5,4.6h-3.8V146.6
			c8.8,15,15.7,35.6,20.5,61.3c0.2,1.2,0.5,2.5,0.7,3.8c1.5,8.8,2.8,18.1,3.7,27.6c0.3,2.7,0.5,5.4,0.7,7.9
			c0.9,11.4,1.3,23,1.2,33.5c0,3.5-0.1,6.8-0.3,9.7l0,0.9l-0.1,0.6c-0.1,0.9-0.1,2-0.2,3.1c0,0.5,0,1.1,0,1.6l0,1.8
			c-0.2,3.8-0.3,7-0.6,9.7c0,0,0,0,0,0c-0.3,2.4-0.8,4.8-1.5,7l-0.1,0.2l-0.4,1.1l146.7-67.9C428.7,272.6,390.3,299.1,377.6,307.9z"
			/>
		<g>
			<path class="st0" d="M432.6,342.1c-3.8-1.6-8.2-3.5-16.5-3.5s-12.7,1.8-16.5,3.5c-3.3,1.4-6,2.5-11.8,2.5
				c-5.9,0-8.5-1.1-11.8-2.5c-3.8-1.6-8.2-3.5-16.5-3.5c-8.3,0-12.7,1.8-16.5,3.5c-3.3,1.4-6,2.5-11.8,2.5s-8.5-1.1-11.8-2.5
				c-3.8-1.6-8.2-3.5-16.5-3.5s-12.7,1.8-16.5,3.5c-3.3,1.4-6,2.5-11.8,2.5c-5.9,0-8.5-1.1-11.8-2.5c-3.8-1.6-8.2-3.5-16.5-3.5
				c-8.3,0-12.7,1.8-16.5,3.5c-3.3,1.4-6,2.5-11.8,2.5c-5.9,0-8.5-1.1-11.8-2.5c-3.8-1.6-8.2-3.5-16.5-3.5c-8.3,0-12.7,1.8-16.5,3.5
				c-3.3,1.4-6,2.5-11.8,2.5s-8.5-1.1-11.8-2.5c-3.8-1.6-8.2-3.5-16.5-3.5s-12.7,1.8-16.5,3.5c-0.9,0.4-1.8,0.7-2.6,1.1
				c1.6,3.7,3.3,7.3,5.1,10.9c0.8-0.3,1.5-0.6,2.2-0.9c3.3-1.4,6-2.5,11.8-2.5s8.5,1.1,11.8,2.5c3.8,1.6,8.2,3.5,16.5,3.5
				c8.3,0,12.7-1.8,16.5-3.5c3.3-1.4,6-2.5,11.8-2.5c5.9,0,8.5,1.1,11.8,2.5c3.8,1.6,8.2,3.5,16.5,3.5c8.3,0,12.7-1.8,16.5-3.5
				c3.3-1.4,6-2.5,11.8-2.5c5.9,0,8.5,1.1,11.8,2.5c3.8,1.6,8.2,3.5,16.5,3.5c8.3,0,12.7-1.8,16.5-3.5c3.3-1.4,6-2.5,11.8-2.5
				c5.9,0,8.5,1.1,11.8,2.5c3.8,1.6,8.2,3.5,16.5,3.5s12.7-1.8,16.5-3.5c3.3-1.4,6-2.5,11.8-2.5s8.5,1.1,11.8,2.5
				c3.8,1.6,8.2,3.5,16.5,3.5c8.3,0,12.7-1.8,16.5-3.5c3.3-1.4,6-2.5,11.8-2.5s8.5,1.1,11.8,2.5c1,0.4,2,0.9,3.1,1.3
				c1.8-3.6,3.5-7.2,5.1-10.9C434.9,343.1,433.8,342.6,432.6,342.1z"/>
			<path class="st0" d="M399.6,366.7c-3.3,1.4-6,2.5-11.8,2.5c-5.9,0-8.5-1.1-11.8-2.5c-3.8-1.6-8.2-3.5-16.5-3.5
				c-8.3,0-12.7,1.8-16.5,3.5c-3.3,1.4-6,2.5-11.8,2.5s-8.5-1.1-11.8-2.5c-3.8-1.6-8.2-3.5-16.5-3.5s-12.7,1.8-16.5,3.5
				c-3.3,1.4-6,2.5-11.8,2.5c-5.9,0-8.5-1.1-11.8-2.5c-3.8-1.6-8.2-3.5-16.5-3.5c-8.3,0-12.7,1.8-16.5,3.5c-3.3,1.4-6,2.5-11.8,2.5
				c-5.9,0-8.5-1.1-11.8-2.5c-3.8-1.6-8.2-3.5-16.5-3.5c-8.3,0-12.7,1.8-16.5,3.5c-3.3,1.4-6,2.5-11.8,2.5s-8.5-1.1-11.8-2.5
				c-3.8-1.6-8.2-3.5-16.5-3.5c-3.5,0-6.2,0.3-8.6,0.8c2.3,3.8,4.7,7.6,7.2,11.2c0.4,0,0.9,0,1.3,0c5.9,0,8.5,1.1,11.8,2.5
				c3.8,1.6,8.2,3.5,16.5,3.5c8.3,0,12.7-1.8,16.5-3.5c3.3-1.4,6-2.5,11.8-2.5c5.9,0,8.5,1.1,11.8,2.5c3.8,1.6,8.2,3.5,16.5,3.5
				c8.3,0,12.7-1.8,16.5-3.5c3.3-1.4,6-2.5,11.8-2.5c5.9,0,8.5,1.1,11.8,2.5c3.8,1.6,8.2,3.5,16.5,3.5c8.3,0,12.7-1.8,16.5-3.5
				c3.3-1.4,6-2.5,11.8-2.5c5.9,0,8.5,1.1,11.8,2.5c3.8,1.6,8.2,3.5,16.5,3.5s12.7-1.8,16.5-3.5c3.3-1.4,6-2.5,11.8-2.5
				s8.5,1.1,11.8,2.5c3.8,1.6,8.2,3.5,16.5,3.5c8.3,0,12.7-1.8,16.5-3.5c3.3-1.4,6-2.5,11.8-2.5c0.9,0,1.7,0,2.4,0.1
				c2.5-3.6,4.9-7.3,7.1-11c-2.5-0.6-5.6-1-9.5-1C407.8,363.2,403.4,365.1,399.6,366.7z"/>
			<path class="st0" d="M387.8,393.8c-5.9,0-8.5-1.1-11.8-2.5c-3.8-1.6-8.2-3.5-16.5-3.5c-8.3,0-12.7,1.8-16.5,3.5
				c-3.3,1.4-6,2.5-11.8,2.5s-8.5-1.1-11.8-2.5c-3.8-1.6-8.2-3.5-16.5-3.5s-12.7,1.8-16.5,3.5c-3.3,1.4-6,2.5-11.8,2.5
				c-5.9,0-8.5-1.1-11.8-2.5c-3.8-1.6-8.2-3.5-16.5-3.5c-8.3,0-12.7,1.8-16.5,3.5c-3.3,1.4-6,2.5-11.8,2.5c-5.9,0-8.5-1.1-11.8-2.5
				c-3.8-1.6-8.2-3.5-16.5-3.5c-8.3,0-12.7,1.8-16.5,3.5c-3.3,1.4-6,2.5-11.8,2.5s-8.5-1.1-11.8-2.5c-2.1-0.9-4.4-1.9-7.4-2.5
				c5.2,6,10.7,11.7,16.7,17c0.8,0,1.6,0.1,2.5,0.1c8.3,0,12.7-1.8,16.5-3.5c3.3-1.4,6-2.5,11.8-2.5c5.9,0,8.5,1.1,11.8,2.5
				c3.8,1.6,8.2,3.5,16.5,3.5c8.3,0,12.7-1.8,16.5-3.5c3.3-1.4,6-2.5,11.8-2.5c5.9,0,8.5,1.1,11.8,2.5c3.8,1.6,8.2,3.5,16.5,3.5
				c8.3,0,12.7-1.8,16.5-3.5c3.3-1.4,6-2.5,11.8-2.5c5.9,0,8.5,1.1,11.8,2.5c3.8,1.6,8.2,3.5,16.5,3.5s12.7-1.8,16.5-3.5
				c3.3-1.4,6-2.5,11.8-2.5s8.5,1.1,11.8,2.5c3.8,1.6,8.2,3.5,16.5,3.5c1.3,0,2.5-0.1,3.7-0.1c6-5.3,11.6-11.1,16.8-17.2
				c-3.7,0.7-6.3,1.8-8.7,2.8C396.3,392.7,393.6,393.8,387.8,393.8z"/>
			<path class="st0" d="M359.5,412.4c-8.3,0-12.7,1.8-16.5,3.5c-3.3,1.4-6,2.5-11.8,2.5s-8.5-1.1-11.8-2.5
				c-3.8-1.6-8.2-3.5-16.5-3.5s-12.7,1.8-16.5,3.5c-3.3,1.4-6,2.5-11.8,2.5c-5.9,0-8.5-1.1-11.8-2.5c-3.8-1.6-8.2-3.5-16.5-3.5
				c-8.3,0-12.7,1.8-16.5,3.5c-3.3,1.4-6,2.5-11.8,2.5c-5.9,0-8.5-1.1-11.8-2.5c-3.8-1.6-8.2-3.5-16.5-3.5c-8.3,0-12.7,1.8-16.5,3.5
				c-0.4,0.2-0.8,0.3-1.2,0.5c4.1,3,8.3,5.8,12.6,8.4c1.4-0.2,3.1-0.4,5.1-0.4c5.9,0,8.5,1.1,11.8,2.5c3.8,1.6,8.2,3.5,16.5,3.5
				c8.3,0,12.7-1.8,16.5-3.5c3.3-1.4,6-2.5,11.8-2.5c5.9,0,8.5,1.1,11.8,2.5c3.8,1.6,8.2,3.5,16.5,3.5c8.3,0,12.7-1.8,16.5-3.5
				c3.3-1.4,6-2.5,11.8-2.5c5.9,0,8.5,1.1,11.8,2.5c3.8,1.6,8.2,3.5,16.5,3.5s12.7-1.8,16.5-3.5c3.3-1.4,6-2.5,11.8-2.5
				c2.4,0,4.3,0.2,5.9,0.5c4.3-2.6,8.4-5.3,12.5-8.3c-0.6-0.2-1.2-0.5-1.9-0.8C372.1,414.3,367.8,412.4,359.5,412.4z"/>
			<path class="st0" d="M302.8,437c-8.3,0-12.7,1.8-16.5,3.5c-3.3,1.4-6,2.5-11.8,2.5c-5.9,0-8.5-1.1-11.8-2.5
				c-3.8-1.6-8.2-3.5-16.5-3.5c-8.3,0-12.7,1.8-16.5,3.5c-1.9,0.8-3.5,1.5-5.7,2c16.1,4.9,33.3,7.6,51,7.6c17.6,0,34.6-2.6,50.6-7.4
				c-2.5-0.5-4.3-1.2-6.3-2.1C315.5,438.8,311.1,437,302.8,437z"/>
		</g>
		<path class="st0" d="M275,25C136.9,25,25,136.9,25,275s111.9,250,250,250s250-111.9,250-250S413.1,25,275,25z M275,515
			C142.5,515,35,407.5,35,275S142.5,35,275,35s240,107.5,240,240S407.5,515,275,515z"/>
	</g>
	<g id="Layer_x0020_1_4_">
		<g>
			<g id="_150265272_10_">
				<g>
					<g>
						<path id="_102513424_10_" class="st1" d="M420.9,134.2c7,0.4,20.3,7.1,21.1,24.5c-13.6,0-28.1-15.2-30.4-25.2
							C411.7,133.5,414.1,133.7,420.9,134.2z"/>
						<path id="_101277704_10_" class="st1" d="M442.1,158.7c-23.9-2.7-30.3-25.1-30.3-25.1S433.1,148.1,442.1,158.7z"/>
					</g>
					<g>
						<path id="_101117760_10_" class="st1" d="M435.6,142.7c0.4-3.1,0.4-6,1.4-7.6c0,0,6.3,3.4,8.7,7.7c0.6,1,4.4,5.6,1.1,26.7
							C438.6,162.7,434.1,153.7,435.6,142.7z"/>
						<path id="_101026008_10_" class="st1" d="M436.9,135.1c0,0-1.8,3.2-1.4,10.6c0.4,8.9,0.6,10.2,4.2,15.9c3,4.9,6.6,7.6,6.6,7.6
							c-5.7-12-3-16.9-3.8-22.1c-0.9-5.5-4.6-9.6-4.6-9.6L436.9,135.1z"/>
					</g>
					<g>
						<path id="_61882472_10_" class="st1" d="M455.2,188.1c-11.3-5.2-21.3-11.1-20.1-31.5C435.1,156.6,459.4,164.1,455.2,188.1z"/>
						<path id="_116393592_10_" class="st1" d="M455.2,188.1c-3.5-5.7-11-18.1-14.8-21.7c-2.5-2.4-5.3-9.9-5.3-9.9
							S429.9,176.9,455.2,188.1z"/>
					</g>
					<g>
						<path id="_99381232_10_" class="st1" d="M455.1,168.4c1-1.2,3.3-4.6,6.3-9.9c0,0,0.3,9,2.7,12.4c2.7,3.6,5.4,14.4-5.3,26.1
							C457.5,195.3,445.3,180.3,455.1,168.4z"/>
						<path id="_61906888_10_" class="st1" d="M461.4,158.9c0,0-3.9,6.1-5.8,9c-3.4,4.9-4.3,6.7-4.4,9.9c-0.3,9.5,7.6,19.2,7.6,19.2
							c-6-23.4,2.5-37.7,2.5-37.7L461.4,158.9z"/>
					</g>
					<g>
						<path id="_98343096_10_" class="st1" d="M444.7,191.6c-1.1-5.1,0.1-8.4,0.6-11.7c0,0-1.4-0.6,6.6,4.5
							c7,4.5,11.7,13.9,12.5,24.2C448,204.7,446.2,198.4,444.7,191.6z"/>
						<path id="_100319232_10_" class="st1" d="M445.2,179.9c0,0,1.9,3.5,3.8,7.9c2.5,5.4,3.8,8.4,8.9,12.6c7.3,6.2,6.2,7.7,6.2,7.7
							c-15.1-3.1-16.8-9.1-19-14.1c-1.6-3.7,0.3-13.7,0.3-13.7L445.2,179.9z"/>
					</g>
					<g>
						<path id="_59502528_10_" class="st1" d="M463.6,194.4c1.8-3.4,8-13.6,9.8-15c0,0-1.9,6.6-0.6,11.9c1.1,4.7,4.7,22.9-6.7,32.1
							C458.5,212.3,456.4,208.3,463.6,194.4z"/>
						<path id="_142965952_10_" class="st1" d="M473.1,180.1c0,0-2.7,1.1-7.9,11.2c-2.9,5.7-4.1,6.9-5.8,13.9
							c-2.2,8.4,6.8,17.7,6.8,17.7c0-21.7,2.8-29.1,3.9-33.1C470.9,186.9,473.1,180.1,473.1,180.1z"/>
					</g>
					<g>
						<path id="_99872672_10_" class="st1" d="M459.5,221c-1-3.1-2.8-9.1-4.4-11.6c0,0,4.9,1.7,8.4,4.4c3.5,2.7,15.1,6.2,12,26
							C463.1,235,461.1,225.5,459.5,221z"/>
						<path id="_100983576_10_" class="st1" d="M455.2,209.7c0,0,2.9,1.5,7.7,7.1c4.9,5.6,4.3,7.4,8.9,13.7c1.3,1.7,3.7,9.2,3.7,9.2
							c-13.9-6-15.5-17.7-16.8-21.6c-1.4-4.1-3.2-8.7-3.2-8.7L455.2,209.7z"/>
					</g>
					<g>
						<path id="_59500496_10_" class="st1" d="M477.3,219.8c2.3-2.5,5.7-4.6,7-6.9c0,0-0.9,8.2,0.3,13.7c0.8,4.4-2.8,19.6-10.4,26.7
							C460.9,241.5,472.7,224.9,477.3,219.8z"/>
						<path id="_61670616_10_" class="st1" d="M484.2,212.9c0,0-3.7,3.6-6.7,6.6c-3.8,3.7-7.3,9.7-9.4,18.6c-1.9,8.7,6,15.2,6,15.2
							c-0.3-23.1,4.6-28.1,5.8-32C481.8,215.7,484.2,212.9,484.2,212.9z"/>
					</g>
					<g>
						<path id="_60003720_10_" class="st1" d="M460.4,239.9c-0.4-3.4-1.1-8.6-1.6-11.2c0,0,8.1,6.5,11.8,10.7
							c2.9,3.4,11.8,17.6,9,24.4C462.2,258.9,461.2,248,460.4,239.9z"/>
						<path id="_100838056_10_" class="st1" d="M458.5,228.7c0,0,1.3,0.5,5.2,4.6c1.9,2.1-0.1,8.2,7.2,17.2
							c1.4,1.6,8.6,13.2,8.6,13.2c-21.7-5.5-18.5-22.2-19.4-26.2C459.2,232.2,458.5,228.7,458.5,228.7z"/>
					</g>
					<g>
						<path id="_59502008_10_" class="st1" d="M479.5,251.4c1.8-1.2,4.2-3.9,6.6-7.1c0,0,0,5.6-0.1,9.4
							c-0.3,10.2-0.9,16.1-12.8,36.4C466.2,275.6,472.3,256.9,479.5,251.4z"/>
						<path id="_59501272_10_" class="st1" d="M486.1,244.3c0,0-2.8,3.5-6.6,7.1c-3.8,3.7-5.8,6-8.2,15c-3.5,13.7,1.9,23.6,1.9,23.6
							c3.2-25,6.6-27.6,8-32.6c0.6-2.5,2.8-4.7,3.5-7.2C486,246,486.1,244.3,486.1,244.3z"/>
					</g>
					<g>
						<path id="_101578032_10_" class="st1" d="M480.2,296.5c-12.7-5.9-21-25.9-18-37.1C462.2,259.4,487.3,271.3,480.2,296.5z"/>
						<path id="_97524568_10_" class="st1" d="M480.2,296.5c-9.8-21.7-18.1-36.4-18.1-36.4S458.5,282.8,480.2,296.5z"/>
					</g>
					<g>
						<path id="_94916864_10_" class="st1" d="M485.4,276.1c3-2.4,4.6-4.5,5.8-6.2c0,0-1.1,5.4-1,10.1c0.4,8.5,0.9,16.6-12.8,27.6
							C470.4,293.1,478,281.6,485.4,276.1z"/>
						<path id="_126861280_10_" class="st1" d="M491.3,269.9c0,0-2.5,3.9-5.4,9.1c-2.9,5-6.7,6.7-7.2,13.2
							c-0.6,6.9-1.3,15.4-1.3,15.4c-2.7-4.9-5.1-17.1,2.3-25.2c1.9-2.2,4.2-5.4,5.7-6.2C488,274.5,491.3,269.9,491.3,269.9z"/>
					</g>
					<g>
						<path id="_101563136_10_" class="st1" d="M462.6,292.9c0.6-3.4-0.3-7.5-0.6-10.2c0,0,3.2,4.6,7.2,6
							c7.6,2.5,15.8,18.7,10.6,30.6C463.2,314.1,461.4,299.5,462.6,292.9z"/>
						<path id="_94770376_10_" class="st1" d="M462.2,283.5c0,0,1.4,2.7,2.4,6.1c1.5,5.2,2.7,11.1,8.6,18.9
							c6.3,8.4,6.6,10.7,6.6,10.7c-16.5-6.6-16.3-15.5-17-18.9c-0.5-2.4-0.1-9.9-0.1-9.6C462.7,288.8,462.2,283.5,462.2,283.5z"/>
					</g>
					<g>
						<path id="_60003824_10_" class="st1" d="M489,310c1.3-4.6,0.6-5.6,1.4-8.5c0,0-0.9,0.5-7.1,3.2c-9.8,4.2-17.1,16.9-13.4,30.5
							C488.2,323.4,486.4,319.2,489,310z"/>
						<path id="_126861256_10_" class="st1" d="M490.3,301.5c0,0-2.3,3.1-5.6,6.9c-4.7,5.6-6.8,8.9-9.4,13.6
							c-2.9,5.9-5.7,12.9-5.7,12.9c-3-14.4,4.7-23.5,7.7-26.5c1.1-1.1,6.8-3.7,8.2-4.6C489,301.6,490.3,301.5,490.3,301.5z"/>
					</g>
					<g>
						<path id="_95175040_10_" class="st1" d="M460.5,323.4c-0.4-7.4-0.3-12.6-1.3-16.2c0,0,3.7,4.7,9.2,9.5
							c0.3,0.1,12.3,16.9-0.4,29C461.6,338.7,460.9,329.1,460.5,323.4z"/>
						<path id="_100983600_10_" class="st1" d="M459.3,307.1c0,0,1,5.1,0.9,9.6c-0.1,2.2,0.4,11.7,1.6,17c1.3,5.7,6.3,11.9,6.3,11.9
							c-3.4-13.4-5.6-24.6-5.3-30.9c0.1-2.1-3-6.7-3-6.7L459.3,307.1z"/>
					</g>
					<g>
						<path id="_100211392_10_" class="st1" d="M478.7,333.1c3.8-0.5,6.2,0.4,8.1-0.5c0,0-0.6,5.4-3.3,9.2
							c-4.6,6.6-13.3,14.9-25.3,15.4C460.7,342.9,469.5,334.4,478.7,333.1z"/>
						<path id="_95024512_10_" class="st1" d="M486.8,332.6c0,0-12.5,4.1-23.6,17.1c-3.8,4.4-5.1,7.2-5.1,7.2
							c3.9-15.5,10.4-19.6,12.9-21.1c1.9-1.1,7.6-3.4,10.1-2.9C482.7,333.4,486.8,332.6,486.8,332.6z"/>
					</g>
					<g>
						<path id="_94999672_10_" class="st1" d="M450.3,343.2c-0.3-5.5,0.8-9.5,1.3-12.4c0,0,4.8,4.6,7.5,8c3,3.9,9.9,19.6-1.5,30.6
							C454.6,353.5,450.4,349.2,450.3,343.2z"/>
						<path id="_102514192_10_" class="st1" d="M451.6,331c0,0-0.8,4.9-1.4,8.6c0.3-1-1.4,5.1,4.1,16.2c0.8,1.7,3.5,14.7,3.5,14.7
							c2.8-13.5-2.5-25.6-3.5-27.7c-1.9-3.9-2.4-10.4-2.4-10.4L451.6,331z"/>
					</g>
					<g>
						<path id="_59501584_10_" class="st1" d="M473.5,352.3c2.2-0.5,6.8-1.5,10.8-0.5c0,0-3.4-0.1-5.4,5.5
							c-2.3,6.2-4.2,20.2-29.3,18.4C454,361.6,461.8,355.3,473.5,352.3z"/>
						<path id="_101566688_10_" class="st1" d="M484.2,351.9c0,0-4.9-0.1-10.6,2.9c-5.8,3-4.4,6.7-12,9.5c-6.2,2.4-12,11.5-12,11.5
							c6.8-21,17.5-19.7,20.5-21.9C475,350.2,484.2,351.9,484.2,351.9z"/>
					</g>
					<g>
						<path id="_119625144_10_" class="st1" d="M439.9,365c0.9-7.4,4.3-10.6,4.1-16.1c0,0,3.5,5.7,6.1,8.1
							c3.5,3.5,10.1,25.1-4.6,29.2C440.7,381.5,438.9,372.8,439.9,365z"/>
						<path id="_60224400_10_" class="st1" d="M444.1,349.6c0,0,2.4,4.9,1.4,8c0.3-0.9-2.8,6.9,0.9,14.4c1.8,3.2-0.9,14.4-0.9,14.4
							c-10.4-14.4-4.6-25.6-3-29.4C442.9,355.6,444.1,349.6,444.1,349.6z"/>
					</g>
					<g>
						<path id="_100321000_10_" class="st1" d="M456.2,375.6c3.7-0.6,8.7,1.1,14.7,1.7c0,0,0.4-0.7-3.4,3.6
							c-3.3,3.9-15.8,15.9-32,11.1C440.3,380.3,444.3,377.7,456.2,375.6z"/>
						<path id="_142466024_10_" class="st1" d="M470.9,377.6c0,0-5.7-1.7-13.7-2c-2.8-0.1-9,0.9-13.7,4.4
							c-5.4,4.1-7.7,12.1-7.7,12.1c8.4-9.4,11-4.6,21.8-7.6C463.8,382.7,470.9,377.6,470.9,377.6z"/>
					</g>
					<g>
						<path id="_100783976_10_" class="st1" d="M431.2,377.6c1.4-6.9,2.4-8.1,5.7-13.4c0,0-1.3,4,1.6,7.9c4.2,5.6,9.1,17-3.2,27.6
							C430.2,393.2,429.4,385.3,431.2,377.6z"/>
						<path id="_153305456_10_" class="st1" d="M436.7,364.7c0,0-2.7,3.9-4.2,8c-2.5,6.4-1.8,8-2,13.7c-0.1,7,4.8,13.2,4.8,13.2
							c4.7-15,1.9-18.2,0.5-24.9C435,370.6,436.7,364.7,436.7,364.7z"/>
					</g>
					<g>
						<path id="_101110472_10_" class="st1" d="M437.9,393.3c7.3-4.1,12.4-1,20.6,0.2c0,0-0.3,3.4-2.9,5.7
							c-11.4,9.7-19.8,14.9-32.5,12.4C419.3,404.2,430.5,397.5,437.9,393.3z"/>
						<path id="_100828944_10_" class="st1" d="M458.5,393.7c0,0-11.4-3.7-18-1.4c-5.3,1.9-7.5,4-10.6,6.2
							c-12.2,8.5-6.3,13.1-6.3,13.1c11-10.5,18.5-13.2,20.8-14.5C447.2,395.8,458.5,393.7,458.5,393.7z"/>
					</g>
					<g>
						<path id="_62010192_10_" class="st1" d="M419.3,395.3c3-7.4,7.1-10,9.6-13c0,0,2.4,6.1,2.9,8.2c1.3,4.7,4.8,23.4-8.7,27
							C417.2,410.3,415.8,403.6,419.3,395.3z"/>
						<path id="_62306344_10_" class="st1" d="M428.9,382.3c0,0-2.7,3.9-2.8,9.4c0,2.4,1.5,11.1-1,18.5c-1.1,3.5-2,7.4-2,7.4
							c-11.1-12.7-2.2-26.4,1-30.2C424.5,386.8,428.9,382.3,428.9,382.3z"/>
					</g>
					<g>
						<path id="_98834792_10_" class="st1" d="M427.5,411.2c3.7-0.4,11.7,3,20.4,0c0,0,0.8-0.4-5.1,4.9
							c-10.9,9.6-11.8,14.4-34.4,9.2C413.1,413.1,415.3,411.9,427.5,411.2z"/>
						<path id="_98834816_10_" class="st1" d="M448.5,410.7c0,0-10.3,6-16.7,6.5c-4.9,0.4-2.9,0.1-12.7,2.2c-6.3,1.5-10.3,6-10.3,6
							c2.4-18.6,23-14,25.6-13.6C444.2,413.6,448.5,410.7,448.5,410.7z"/>
					</g>
					<g>
						<path id="_97678184_10_" class="st1" d="M408.1,406.4c5.6-3.5,5.3-6.4,7.5-9c0,0,0.9,1.1,2.4,6.4c6.8,23.9-18.4,29.1-15.2,28
							C399.8,421.8,401.2,410.8,408.1,406.4z"/>
						<path id="_97679128_10_" class="st1" d="M415.5,397.6c0,0-2,2.7-3,5.5c-1,2.2-9.6,3.4-10.9,16.1c-0.4,3.6,1.3,12.6,1.3,12.6
							c2.9-14,8.1-22.6,11-27.7C415.2,401.6,415.5,397.6,415.5,397.6z"/>
					</g>
					<g>
						<path id="_61757248_10_" class="st1" d="M412.8,425.6c3.7,0.1,8.4,2.5,19.4-0.4c0,0,1.4-1.2-4.7,3.6
							c-11.3,9-19.4,16.6-43.6,9.1C388,425.9,400.4,425.2,412.8,425.6z"/>
						<path id="_61794272_10_" class="st1" d="M432.8,424.8c0,0-10.3,4.7-17,6c-7,1.4-12.9,2.6-24.1,4.1c-6.5,0.9-8,3-8,3
							c5.2-16.9,33.9-12.2,36.6-11.6C424.2,427.2,432.8,424.8,432.8,424.8z"/>
					</g>
					<g>
						<path id="_61827248_10_" class="st1" d="M307.9,473.7c0,0,27-8.9,47.6-17c15.7-6,19-10.9,21.5-21.6
							c0.6-3.1,7.9-10.4,18.5-14.1c0,0,0.8,18.6-14.9,29.5c-10,6.9-34.1,16-69.1,28.4C311.5,478.8,305.5,475.8,307.9,473.7z"/>
						<path id="_61830656_10_" class="st1" d="M368.1,451.3c12.5-4.5,27.5-30.2,27.5-30.2s-18.1,4.9-20,19.1c0,0-2.5,10.5-17.1,15.5
							L368.1,451.3z"/>
						<path id="_61880472_10_" class="st1" d="M389.1,442.2c0,0-7.5,9.6-19.2,14.1c-1.9,0.7-27,11.5-32.9,13.4
							c-5.6,1.9-25.5,9.1-25.5,9.1l-0.9-0.4c0,0,0.4,0.4,3.9-0.9c3.4-1.2,26-9.2,29.9-10.6c3.9-1.4,7.3-2.9,8.2-3.2
							c0.9-0.5,4.3-2,5.6-2.4c1.4-0.5,5.4-2.2,7.5-3.1c2.3-0.9,6.3-2.9,7.9-3.5c1.8-0.7,3.7-2.1,5.4-3.2c1.9-1.2,4.1-2.7,5.6-4
							C385.8,446.2,387.9,443.4,389.1,442.2z"/>
					</g>
				</g>
			</g>
		</g>
	</g>
	<g id="Layer_x0020_1_1_">
		<g>
			<g id="_150265272_11_">
				<g>
					<g>
						<path id="_102513424_11_" class="st1" d="M138.5,131.5c-2.4,10-17,25.1-30.6,25c1-17.4,14.4-24,21.3-24.3
							C136.1,131.7,138.5,131.5,138.5,131.5z"/>
						<path id="_101277704_11_" class="st1" d="M138.4,131.6c0,0-6.5,22.3-30.5,24.9C117,145.9,138.4,131.6,138.4,131.6z"/>
					</g>
					<g>
						<path id="_101117760_11_" class="st1" d="M103,167.3c-3.1-21.1,0.7-25.7,1.4-26.7c2.4-4.4,8.8-7.7,8.8-7.7
							c1,1.6,1,4.5,1.3,7.6C115.9,151.6,111.3,160.5,103,167.3z"/>
						<path id="_101026008_11_" class="st1" d="M112.2,135.3c0,0-3.7,4.1-4.6,9.6c-0.8,5.2,1.8,10.1-4,22.1c0,0,3.6-2.7,6.6-7.6
							c3.6-5.6,3.9-7,4.3-15.8c0.4-7.4-1.3-10.6-1.3-10.6L112.2,135.3z"/>
					</g>
					<g>
						<path id="_61882472_11_" class="st1" d="M114.9,154.4c1,20.4-9.1,26.2-20.4,31.3C90.5,161.7,114.9,154.4,114.9,154.4z"/>
						<path id="_116393592_11_" class="st1" d="M114.9,154.3c0,0-2.8,7.5-5.4,9.8c-3.8,3.6-11.4,15.9-15,21.6
							C119.9,174.8,114.9,154.3,114.9,154.3z"/>
					</g>
					<g>
						<path id="_99381232_11_" class="st1" d="M90.9,194.7c-10.7-11.8-7.8-22.6-5.1-26.2c2.4-3.4,2.8-12.3,2.8-12.3
							c3,5.3,5.2,8.7,6.3,9.9C104.4,178.1,92.1,193,90.9,194.7z"/>
						<path id="_61906888_11_" class="st1" d="M88.6,157c0,0,8.4,14.4,2.2,37.8c0,0,7.9-9.7,7.8-19.2c-0.1-3.1-1-5-4.4-9.9
							c-1.9-2.9-5.8-9-5.8-9L88.6,157z"/>
					</g>
					<g>
						<path id="_98343096_11_" class="st1" d="M85.1,206.2c1-10.4,5.7-19.7,12.7-24.1c8-5.1,6.6-4.4,6.6-4.4
							c0.5,3.4,1.7,6.6,0.5,11.7C103.4,196.2,101.6,202.4,85.1,206.2z"/>
						<path id="_100319232_11_" class="st1" d="M104.4,178.1c0,0,1.8,10,0.1,13.7c-2.2,5-4,11-19.1,14c0,0-1.1-1.5,6.3-7.7
							c5.1-4.2,6.4-7.2,9-12.5c1.9-4.4,3.9-7.8,3.9-7.8L104.4,178.1z"/>
					</g>
					<g>
						<path id="_59502528_11_" class="st1" d="M83.4,221c-11.3-9.3-7.6-27.4-6.5-32.2c1.3-5.2-0.5-11.9-0.5-11.9
							c1.8,1.4,7.9,11.7,9.6,15.1C93.2,206,91,210,83.4,221z"/>
						<path id="_142965952_11_" class="st1" d="M79.5,187.4c1.1,4,3.8,11.4,3.7,33.1c0,0,9.1-9.3,7-17.7c-1.7-7-2.8-8.1-5.7-13.9
							c-5.1-10.2-7.8-11.3-7.8-11.3S78.8,184.5,79.5,187.4z"/>
					</g>
					<g>
						<path id="_99872672_11_" class="st1" d="M73.8,237.3c-2.9-19.8,8.7-23.2,12.2-25.9c3.4-2.6,8.4-4.3,8.4-4.3
							c-1.7,2.5-3.5,8.5-4.5,11.6C88.4,223.2,86.3,232.7,73.8,237.3z"/>
						<path id="_100983576_11_" class="st1" d="M94.1,207.1c0,0-1.8,4.6-3.2,8.7c-1.4,3.9-3,15.6-17,21.5c0,0,2.5-7.5,3.7-9.2
							c4.6-6.3,4-8.1,9-13.7c4.9-5.6,7.8-7.1,7.8-7.1L94.1,207.1z"/>
					</g>
					<g>
						<path id="_59500496_11_" class="st1" d="M75.1,250.9c-7.5-7.2-11-22.5-10.2-26.8c1.2-5.5,0.4-13.7,0.4-13.7
							c1.2,2.3,4.7,4.4,6.9,6.9C76.7,222.5,88.4,239.2,75.1,250.9z"/>
						<path id="_61670616_11_" class="st1" d="M69.5,218.9c1.2,3.9,6,8.9,5.6,32c0,0,7.9-6.4,6.1-15.2c-2-8.9-5.5-14.9-9.2-18.7
							c-3-3-6.7-6.7-6.7-6.7S67.7,213.1,69.5,218.9z"/>
					</g>
					<g>
						<path id="_60003720_11_" class="st1" d="M69.6,261.3c-2.7-6.8,6.2-20.9,9.2-24.3c3.7-4.2,11.9-10.7,11.9-10.7
							c-0.5,2.6-1.3,7.9-1.7,11.2C88,245.7,86.9,256.5,69.6,261.3z"/>
						<path id="_100838056_11_" class="st1" d="M89.1,235.2c-0.9,4,2.1,20.8-19.6,26.1c0,0,7.3-11.6,8.7-13.2
							c7.4-8.9,5.4-15.1,7.4-17.2c4-4.1,5.2-4.6,5.2-4.6S90.2,229.8,89.1,235.2z"/>
					</g>
					<g>
						<path id="_59502008_11_" class="st1" d="M75.7,287.5c-11.7-20.3-12.3-26.2-12.5-36.5c-0.1-3.7-0.1-9.4-0.1-9.4
							c2.4,3.3,4.8,5.9,6.5,7.2C76.8,254.4,82.8,273.2,75.7,287.5z"/>
						<path id="_59501272_11_" class="st1" d="M64.5,247.6c0.7,2.5,2.9,4.8,3.5,7.3c1.4,5,4.8,7.7,7.7,32.7c0,0,5.5-9.8,2.1-23.6
							c-2.3-9-4.3-11.3-8.1-15.1c-3.8-3.7-6.5-7.2-6.5-7.2S63.2,243.5,64.5,247.6z"/>
					</g>
					<g>
						<path id="_101578032_11_" class="st1" d="M86.9,257c2.9,11.3-5.6,31.2-18.3,37C61.8,268.7,86.9,257,86.9,257z"/>
						<path id="_97524568_11_" class="st1" d="M87.1,257.8c0,0-8.5,14.6-18.4,36.2C90.4,280.4,87.1,257.8,87.1,257.8z"/>
					</g>
					<g>
						<path id="_94916864_11_" class="st1" d="M71.4,305.1c-13.6-11.1-13-19.2-12.6-27.7c0.2-4.7-0.9-10.1-0.9-10.1
							c1.3,1.8,2.8,3.9,5.8,6.3C70.9,279.1,78.4,290.7,71.4,305.1z"/>
						<path id="_126861280_11_" class="st1" d="M63.6,273.6c1.5,0.9,3.8,4,5.6,6.3c7.3,8.2,4.8,20.4,2.1,25.3c0,0-0.6-8.5-1.1-15.4
							c-0.5-6.5-4.2-8.3-7.1-13.3c-2.9-5.3-5.4-9.2-5.4-9.2S61,271.9,63.6,273.6z"/>
					</g>
					<g>
						<path id="_101563136_11_" class="st1" d="M68.9,316.7c-5.1-11.9,3.3-28.1,10.9-30.5c4.1-1.3,7.3-5.9,7.3-5.9
							c-0.4,2.7-1.3,6.9-0.7,10.2C87.4,297.1,85.5,311.7,68.9,316.7z"/>
						<path id="_94770376_11_" class="st1" d="M86.2,288.4c0-0.2,0.3,7.2-0.2,9.6c-0.7,3.4-0.6,12.2-17.1,18.7c0,0,0.3-2.4,6.7-10.7
							c6-7.7,7.2-13.6,8.8-18.8c1-3.4,2.5-6.1,2.5-6.1S86.2,286.4,86.2,288.4z"/>
					</g>
					<g>
						<path id="_60003824_11_" class="st1" d="M78.6,332.8c3.8-13.6-3.5-26.3-13.2-30.6c-6.2-2.8-7.1-3.3-7.1-3.3
							c0.7,2.9,0.1,3.9,1.3,8.5C62.3,316.7,60.5,320.8,78.6,332.8z"/>
						<path id="_126861256_11_" class="st1" d="M63.2,301.2c1.4,0.9,7.1,3.6,8.2,4.7c3,3,10.7,12.2,7.5,26.5c0,0-2.7-7-5.6-12.9
							c-2.5-4.8-4.6-8-9.3-13.7c-3.3-3.8-5.5-6.9-5.5-6.9S59.8,299,63.2,301.2z"/>
					</g>
					<g>
						<path id="_95175040_11_" class="st1" d="M80.3,343.2c-12.6-12.2-0.4-28.9-0.1-29c5.6-4.7,9.3-9.4,9.3-9.4
							c-1,3.6-1,8.9-1.4,16.2C87.7,326.7,86.9,336.4,80.3,343.2z"/>
						<path id="_100983600_11_" class="st1" d="M89,305.6c0,0-3.2,4.6-3.1,6.7c0.2,6.2-2,17.5-5.6,30.8c0,0,5.1-6.1,6.4-11.8
							c1.3-5.2,1.9-14.7,1.8-17c-0.1-4.5,1-9.6,1-9.6L89,305.6z"/>
					</g>
					<g>
						<path id="_100211392_11_" class="st1" d="M90.2,354.9c-12-0.6-20.7-8.9-25.2-15.6c-2.6-3.9-3.2-9.3-3.2-9.3
							c1.9,0.9,4.3,0,8.1,0.6C79,331.9,87.8,340.5,90.2,354.9z"/>
						<path id="_95024512_11_" class="st1" d="M67.4,330.5c2.5-0.5,8.2,1.8,10.1,3c2.5,1.5,8.9,5.7,12.7,21.2c0,0-1.2-2.9-5-7.3
							C74.3,334.3,61.8,330,61.8,330S65.8,330.8,67.4,330.5z"/>
					</g>
					<g>
						<path id="_94999672_11_" class="st1" d="M90.8,367.1c-11.3-11.1-4.3-26.8-1.3-30.6c2.7-3.4,7.5-7.9,7.5-7.9
							c0.5,2.9,1.5,6.9,1.2,12.4C98,346.9,93.8,351.2,90.8,367.1z"/>
						<path id="_102514192_11_" class="st1" d="M96.7,330.2c0,0-0.6,6.5-2.5,10.4c-1,2.1-6.4,14.2-3.8,27.7c0,0,2.9-13,3.7-14.7
							c5.5-11.1,3.9-17.2,4.2-16.2c-0.6-3.8-1.3-8.6-1.3-8.6L96.7,330.2z"/>
					</g>
					<g>
						<path id="_59501584_11_" class="st1" d="M98.7,373.4c-25.1,1.7-26.9-12.3-29.1-18.6c-2-5.6-5.4-5.5-5.4-5.5
							c3.9-1,8.6,0.1,10.8,0.6C86.6,353,94.4,359.3,98.7,373.4z"/>
						<path id="_101566688_11_" class="st1" d="M78.3,351.4c3,2.1,13.7,1,20.3,22c0,0-5.8-9.2-11.9-11.6c-7.6-2.8-6.2-6.5-12-9.6
							c-5.7-3-10.6-3-10.6-3S73.4,347.7,78.3,351.4z"/>
					</g>
					<g>
						<path id="_119625144_11_" class="st1" d="M102.6,384c-14.7-4.2-7.9-25.8-4.3-29.3c2.6-2.4,6.1-8.1,6.1-8.1
							c-0.3,5.5,3.1,8.8,3.9,16.1C109.3,370.6,107.5,379.3,102.6,384z"/>
						<path id="_60224400_11_" class="st1" d="M105.9,354.8c1.5,3.8,7.2,15.1-3.3,29.3c0,0-2.6-11.1-0.8-14.4
							c3.7-7.5,0.8-15.2,1-14.4c-1-3.1,1.5-8,1.5-8S105.4,353.4,105.9,354.8z"/>
					</g>
					<g>
						<path id="_100321000_11_" class="st1" d="M112.6,389.9c-16.2,4.6-28.7-7.5-32-11.4c-3.8-4.4-3.4-3.7-3.4-3.7
							c6-0.6,11-2.3,14.7-1.6C103.9,375.5,107.9,378.1,112.6,389.9z"/>
						<path id="_142466024_11_" class="st1" d="M90.5,382.1c10.7,3.1,13.4-1.6,21.7,7.8c0,0-2.2-8-7.6-12.2
							c-4.7-3.5-10.9-4.6-13.6-4.5c-8,0.2-13.7,1.9-13.7,1.9S84.3,380.3,90.5,382.1z"/>
					</g>
					<g>
						<path id="_100783976_11_" class="st1" d="M112.7,397.5c-12.2-10.7-7.2-22-2.9-27.6c2.9-3.8,1.7-7.9,1.7-7.9
							c3.3,5.3,4.3,6.5,5.6,13.4C118.7,383.2,117.9,391.1,112.7,397.5z"/>
						<path id="_153305456_11_" class="st1" d="M112.4,372.7c-1.4,6.6-4.3,9.8,0.3,24.9c0,0,5-6.2,4.9-13.2
							c-0.2-5.7,0.6-7.4-1.9-13.8c-1.5-4.1-4.1-8-4.1-8S113.3,368.4,112.4,372.7z"/>
					</g>
					<g>
						<path id="_101110472_11_" class="st1" d="M124.9,409.6c-12.8,2.4-21.1-2.8-32.4-12.6c-2.6-2.4-2.9-5.8-2.9-5.8
							c8.2-1.2,13.3-4.3,20.6-0.1C117.5,395.3,128.7,402.2,124.9,409.6z"/>
						<path id="_100828944_11_" class="st1" d="M103.7,395c2.3,1.3,9.7,4.1,20.7,14.7c0,0,5.9-4.6-6.2-13.2
							c-3.1-2.3-5.3-4.4-10.6-6.3c-6.6-2.4-18,1.2-18,1.2S100.8,393.6,103.7,395z"/>
					</g>
					<g>
						<path id="_62010192_11_" class="st1" d="M124.8,415.5c-13.5-3.7-9.8-22.3-8.5-27.1c0.5-2.1,3-8.2,3-8.2
							c2.5,3,6.5,5.7,9.5,13.1C132.1,401.6,130.7,408.3,124.8,415.5z"/>
						<path id="_62306344_11_" class="st1" d="M124,385.3c3.1,3.9,12,17.6,0.8,30.2c0,0-0.9-3.9-2-7.4c-2.5-7.4-0.9-16.1-0.9-18.5
							c-0.1-5.5-2.7-9.4-2.7-9.4S123.7,384.8,124,385.3z"/>
					</g>
					<g>
						<path id="_98834792_11_" class="st1" d="M139.4,423.4c-22.7,4.9-23.6,0.2-34.4-9.5c-5.8-5.3-5-4.9-5-4.9
							c8.7,3.1,16.7-0.2,20.4,0.2C132.6,409.9,134.9,411.1,139.4,423.4z"/>
						<path id="_98834816_11_" class="st1" d="M113.5,409.7c2.5-0.4,23.2-4.8,25.5,13.8c0,0-3.9-4.5-10.2-6.1
							c-9.7-2.2-7.7-1.9-12.6-2.3c-6.5-0.6-16.7-6.6-16.7-6.6S103.7,411.3,113.5,409.7z"/>
					</g>
					<g>
						<path id="_97678184_11_" class="st1" d="M145,429.9c3.2,1.1-22-4.3-15-28.1c1.6-5.2,2.5-6.4,2.5-6.4c2.1,2.6,1.9,5.5,7.4,9.1
							C146.8,408.9,148.1,419.9,145,429.9z"/>
						<path id="_97679128_11_" class="st1" d="M134.2,402.1c2.9,5.1,8,13.8,10.8,27.8c0,0,1.7-9,1.4-12.6
							c-1.2-12.8-9.8-13.9-10.8-16.2c-1-2.8-3-5.5-3-5.5S132.8,399.6,134.2,402.1z"/>
					</g>
					<g>
						<path id="_61757248_11_" class="st1" d="M163.8,436.2c-24.2,7.3-32.3-0.4-43.5-9.5c-6-4.9-4.7-3.7-4.7-3.7
							c11,3,15.7,0.6,19.4,0.5C147.4,423.3,159.8,424.2,163.8,436.2z"/>
						<path id="_61794272_11_" class="st1" d="M127.4,424.3c2.7-0.6,31.4-5,36.5,11.9c0,0-1.5-2.1-8-3.1c-11.1-1.6-17.1-2.9-24-4.3
							c-6.7-1.3-16.9-6.1-16.9-6.1S123.6,425.1,127.4,424.3z"/>
					</g>
					<g>
						<path id="_61827248_11_" class="st1" d="M235.9,477.6c-35-12.6-59-22-68.9-28.9c-15.6-11-14.7-29.6-14.7-29.6
							c10.6,3.8,17.8,11.1,18.4,14.3c2.4,10.8,5.7,15.7,21.4,21.8c20.6,8.3,47.5,17.4,47.5,17.4
							C241.9,474.7,235.9,477.6,235.9,477.6z"/>
						<path id="_61830656_11_" class="st1" d="M189.1,454.1c-14.5-5.1-17-15.6-17-15.6c-1.8-14.3-19.9-19.3-19.9-19.3
							s14.7,25.9,27.2,30.5L189.1,454.1z"/>
						<path id="_61880472_11_" class="st1" d="M163.1,445.7c1.5,1.3,3.7,2.8,5.5,4c1.8,1.1,3.7,2.5,5.4,3.3c1.5,0.6,5.6,2.7,7.8,3.6
							c2,0.9,6.1,2.7,7.4,3.2c1.3,0.4,4.7,1.9,5.6,2.4c0.9,0.4,4.3,1.9,8.2,3.3c3.9,1.4,26.4,9.6,29.8,10.9c3.5,1.3,3.9,0.9,3.9,0.9
							l-0.9,0.4c0,0-19.8-7.4-25.4-9.3c-5.9-1.9-30.9-12.9-32.8-13.6c-11.7-4.6-19.1-14.3-19.1-14.3
							C159.8,441.6,161.8,444.4,163.1,445.7z"/>
					</g>
				</g>
			</g>
		</g>
	</g>
	<g>
		<path class="st0" d="M411.2,121.1l-17.8-3.1l-7.5-16.4l-8.4,15.9l-17.9,2.1l12.6,12.9l-3.5,17.7l16.2-7.9l15.7,8.8l-2.6-17.8
			L411.2,121.1z M399.2,149.3L399.2,149.3l-14.1-20.5l-0.3,12.4l-14.8,7.3l0,0l15.2-19.7l-11.9,3.5l0,0l-11.5-11.8h0l23.4,8.3
			l-7-10.3l7.7-14.6l-0.7,24.9l7.6-9.9l0,0l16.3,2.8l-23.9,7l11.7,4.2L399.2,149.3z"/>
		<path class="st0" d="M354.4,80.7l-17,6.1l-14.6-10.5l0.5,18l-14.5,10.7l17.3,5l5.7,17.1l10.1-14.9l18-0.1l-11-14.2L354.4,80.7z
			 M357.9,111.1L357.9,111.1l-22.4-10.9l5.8,11l-9.3,13.7l0,0l3.5-24.6l-8.6,8.9l0,0l-15.9-4.6l0,0l24.5-4.3l-11.2-5.4l-0.5-16.5
			l11.7,22l1.7-12.3l0,0l15.5-5.6l-17.3,17.9l12.2-2.2L357.9,111.1z"/>
	</g>
	<g>
		<path class="st0" d="M152.2,134l-2.4,17.9l15.6-9l16.2,7.8l-3.7-17.6l12.4-13l-17.9-1.9l-8.6-15.9l-7.4,16.4l-17.7,3.2L152.2,134z
			 M153.3,133.6l11.7-4.3l-23.9-6.8l16.2-3l0,0l7.7,9.8l-0.9-24.9l7.8,14.5l-6.9,10.3l23.4-8.5h0l-11.4,12l0,0l-12-3.4l15.3,19.6
			l0,0l-14.9-7.1l-0.5-12.4L151.1,150l0,0L153.3,133.6z"/>
		<path class="st0" d="M201,98.1l-10.9,14.3l18-0.1l10.3,14.8l5.5-17.2l17.2-5.2l-14.6-10.5l0.4-18l-14.5,10.6l-17-5.9L201,98.1z
			 M202.1,98.3l12.3,2.1l-17.4-17.7l15.6,5.4l0,0l1.8,12.3l11.5-22.1l-0.4,16.5l-11.1,5.5l24.5,4.1l0,0l-15.8,4.8l0,0l-8.7-8.9
			l3.7,24.6l0,0l-9.4-13.6l5.7-11l-22.3,11.1l0,0L202.1,98.3z"/>
	</g>
</g>
</svg>
