<svg xmlns="http://www.w3.org/2000/svg" xmlns:xlink="http://www.w3.org/1999/xlink" width="1920" zoomAndPan="magnify" viewBox="0 0 1440 376.499989" height="502" preserveAspectRatio="xMidYMid meet" version="1.0"><defs><g/><clipPath id="9b8fbde726"><path d="M 84.601562 21.65625 L 530.261719 21.65625 L 530.261719 152 L 84.601562 152 Z M 84.601562 21.65625 " clip-rule="nonzero"/></clipPath><clipPath id="3bd5843b45"><path d="M 84.601562 121 L 530.261719 121 L 530.261719 252 L 84.601562 252 Z M 84.601562 121 " clip-rule="nonzero"/></clipPath><clipPath id="b5c4040130"><path d="M 84.601562 221 L 530.261719 221 L 530.261719 351 L 84.601562 351 Z M 84.601562 221 " clip-rule="nonzero"/></clipPath></defs><g clip-path="url(#9b8fbde726)"><path fill="#004aad" d="M 530.261719 33.492188 C 530.261719 66.738281 530.261719 99.984375 530.261719 133.230469 C 507.582031 132.046875 484.589844 130.785156 462.070312 134.652344 C 443.105469 137.890625 425.484375 146.183594 406.675781 149.816406 C 386.765625 153.683594 370.09375 150.445312 353.972656 138.128906 C 347.097656 132.835938 340.539062 128.019531 331.925781 125.808594 C 323.710938 123.753906 315.015625 123.753906 306.640625 123.914062 C 269.976562 124.542969 235.683594 135.285156 200.125 142.707031 C 160.539062 150.921875 115.578125 151.550781 84.601562 121.621094 C 84.601562 88.375 84.601562 55.128906 84.601562 21.882812 C 115.65625 51.8125 160.539062 51.183594 200.125 42.96875 C 235.683594 35.546875 269.976562 24.804688 306.640625 24.175781 C 315.015625 24.015625 323.710938 24.015625 331.925781 26.070312 C 340.539062 28.28125 347.097656 33.097656 353.972656 38.390625 C 370.011719 50.707031 386.765625 53.945312 406.675781 50.078125 C 425.484375 46.445312 443.105469 38.230469 462.070312 34.914062 C 484.589844 31.046875 507.503906 32.308594 530.261719 33.492188 Z M 530.261719 33.492188 " fill-opacity="1" fill-rule="nonzero"/></g><g clip-path="url(#3bd5843b45)"><path fill="#f7f7f7" d="M 530.261719 133.308594 C 530.261719 166.558594 530.261719 199.804688 530.261719 233.050781 C 507.582031 231.863281 484.589844 230.601562 462.070312 234.46875 C 443.105469 237.707031 425.484375 246 406.675781 249.632812 C 386.765625 253.503906 370.09375 250.265625 353.972656 237.945312 C 347.097656 232.652344 340.539062 227.835938 331.925781 225.625 C 323.710938 223.574219 315.015625 223.574219 306.640625 223.730469 C 269.976562 224.363281 235.683594 235.101562 200.125 242.523438 C 160.539062 250.738281 115.578125 251.371094 84.601562 221.441406 C 84.601562 188.195312 84.601562 154.949219 84.601562 121.703125 C 115.65625 151.632812 160.539062 151 200.125 142.785156 C 235.683594 135.363281 269.976562 124.625 306.640625 123.992188 C 315.015625 123.835938 323.710938 123.835938 331.925781 125.886719 C 340.539062 128.097656 347.097656 132.914062 353.972656 138.207031 C 370.011719 150.527344 386.765625 153.765625 406.675781 149.894531 C 425.484375 146.261719 443.105469 138.046875 462.070312 134.730469 C 484.589844 130.863281 507.503906 132.046875 530.261719 133.308594 Z M 530.261719 133.308594 " fill-opacity="1" fill-rule="nonzero"/></g><g clip-path="url(#b5c4040130)"><path fill="#004aad" d="M 530.261719 233.050781 C 530.261719 266.296875 530.261719 299.542969 530.261719 332.789062 C 507.582031 331.601562 484.589844 330.339844 462.070312 334.210938 C 443.105469 337.445312 425.484375 345.738281 406.675781 349.371094 C 386.765625 353.242188 370.09375 350.003906 353.972656 337.683594 C 347.097656 332.394531 340.539062 327.574219 331.925781 325.363281 C 323.710938 323.3125 315.015625 323.3125 306.640625 323.46875 C 269.976562 324.101562 235.683594 334.839844 200.125 342.265625 C 160.539062 350.476562 115.578125 351.109375 84.601562 321.179688 C 84.601562 287.933594 84.601562 254.6875 84.601562 221.441406 C 115.65625 251.371094 160.539062 250.738281 200.125 242.523438 C 235.683594 235.101562 269.976562 224.363281 306.640625 223.730469 C 315.015625 223.574219 323.710938 223.574219 331.925781 225.625 C 340.539062 227.835938 347.097656 232.652344 353.972656 237.945312 C 370.011719 250.265625 386.765625 253.503906 406.675781 249.632812 C 425.484375 246 443.105469 237.789062 462.070312 234.46875 C 484.589844 230.601562 507.503906 231.785156 530.261719 233.050781 Z M 530.261719 233.050781 " fill-opacity="1" fill-rule="nonzero"/></g><g fill="#f7f7f7" fill-opacity="1"><g transform="translate(570.860606, 147.617329)"><g><path d="M 153.21875 -108.65625 L 121.015625 0 L 100.84375 0 L 78.015625 -82.234375 L 53.78125 0 L 33.765625 0.15625 L 2.96875 -108.65625 L 21.890625 -108.65625 L 44.40625 -20.171875 L 68.796875 -108.65625 L 88.796875 -108.65625 L 111.46875 -20.640625 L 134.140625 -108.65625 Z M 153.21875 -108.65625 "/></g></g></g><g fill="#f7f7f7" fill-opacity="1"><g transform="translate(727.04378, 147.617329)"><g><path d="M 98.5 -108.65625 L 98.5 0 L 80.671875 0 L 80.671875 -47.53125 L 29.546875 -47.53125 L 29.546875 0 L 11.71875 0 L 11.71875 -108.65625 L 29.546875 -108.65625 L 29.546875 -62.0625 L 80.671875 -62.0625 L 80.671875 -108.65625 Z M 98.5 -108.65625 "/></g></g></g><g fill="#f7f7f7" fill-opacity="1"><g transform="translate(837.263174, 147.617329)"><g><path d="M 77.234375 -22.203125 L 31.734375 -22.203125 L 23.921875 0 L 5.3125 0 L 44.25 -108.8125 L 64.875 -108.8125 L 103.8125 0 L 85.046875 0 Z M 72.234375 -36.734375 L 54.5625 -87.234375 L 36.734375 -36.734375 Z M 72.234375 -36.734375 "/></g></g></g><g fill="#f7f7f7" fill-opacity="1"><g transform="translate(946.231862, 147.617329)"><g><path d="M 81.921875 -108.65625 L 81.921875 -94.125 L 53 -94.125 L 53 0 L 35.171875 0 L 35.171875 -94.125 L 6.09375 -94.125 L 6.09375 -108.65625 Z M 81.921875 -108.65625 "/></g></g></g><g fill="#f7f7f7" fill-opacity="1"><g transform="translate(1034.407397, 147.617329)"><g/></g></g><g fill="#f7f7f7" fill-opacity="1"><g transform="translate(1075.05566, 147.617329)"><g><path d="M 81.921875 -108.65625 L 81.921875 -94.125 L 53 -94.125 L 53 0 L 35.171875 0 L 35.171875 -94.125 L 6.09375 -94.125 L 6.09375 -108.65625 Z M 81.921875 -108.65625 "/></g></g></g><g fill="#f7f7f7" fill-opacity="1"><g transform="translate(1163.231027, 147.617329)"><g><path d="M 98.5 -108.65625 L 98.5 0 L 80.671875 0 L 80.671875 -47.53125 L 29.546875 -47.53125 L 29.546875 0 L 11.71875 0 L 11.71875 -108.65625 L 29.546875 -108.65625 L 29.546875 -62.0625 L 80.671875 -62.0625 L 80.671875 -108.65625 Z M 98.5 -108.65625 "/></g></g></g><g fill="#f7f7f7" fill-opacity="1"><g transform="translate(1273.450421, 147.617329)"><g><path d="M 29.546875 -94.28125 L 29.546875 -62.375 L 67.078125 -62.375 L 67.078125 -47.84375 L 29.546875 -47.84375 L 29.546875 -14.546875 L 71.765625 -14.546875 L 71.765625 0 L 11.71875 0 L 11.71875 -108.8125 L 71.765625 -108.8125 L 71.765625 -94.28125 Z M 29.546875 -94.28125 "/></g></g></g><g fill="#f7f7f7" fill-opacity="1"><g transform="translate(570.021572, 335.998527)"><g><path d="M 75.671875 -108.65625 L 75.671875 -94.125 L 29.546875 -94.125 L 29.546875 -62.0625 L 65.515625 -62.0625 L 65.515625 -47.53125 L 29.546875 -47.53125 L 29.546875 0 L 11.71875 0 L 11.71875 -108.65625 Z M 75.671875 -108.65625 "/></g></g></g><g fill="#f7f7f7" fill-opacity="1"><g transform="translate(650.536425, 335.998527)"><g><path d="M 29.546875 -14.390625 L 66.296875 -14.390625 L 66.296875 0 L 11.71875 0 L 11.71875 -108.65625 L 29.546875 -108.65625 Z M 29.546875 -14.390625 "/></g></g></g><g fill="#f7f7f7" fill-opacity="1"><g transform="translate(719.951116, 335.998527)"><g><path d="M 77.234375 -22.203125 L 31.734375 -22.203125 L 23.921875 0 L 5.3125 0 L 44.25 -108.8125 L 64.875 -108.8125 L 103.8125 0 L 85.046875 0 Z M 72.234375 -36.734375 L 54.5625 -87.234375 L 36.734375 -36.734375 Z M 72.234375 -36.734375 "/></g></g></g><g fill="#f7f7f7" fill-opacity="1"><g transform="translate(828.919803, 335.998527)"><g><path d="M 90.359375 -77.390625 C 87.546875 -82.804688 83.640625 -86.894531 78.640625 -89.65625 C 73.640625 -92.425781 67.851562 -93.8125 61.28125 -93.8125 C 54.09375 -93.8125 47.679688 -92.191406 42.046875 -88.953125 C 36.421875 -85.722656 32.019531 -81.140625 28.84375 -75.203125 C 25.664062 -69.265625 24.078125 -62.382812 24.078125 -54.5625 C 24.078125 -46.75 25.664062 -39.84375 28.84375 -33.84375 C 32.019531 -27.851562 36.421875 -23.242188 42.046875 -20.015625 C 47.679688 -16.785156 54.09375 -15.171875 61.28125 -15.171875 C 70.976562 -15.171875 78.847656 -17.878906 84.890625 -23.296875 C 90.941406 -28.710938 94.644531 -36.0625 96 -45.34375 L 55.1875 -45.34375 L 55.1875 -59.5625 L 115.0625 -59.5625 L 115.0625 -45.65625 C 113.914062 -37.207031 110.921875 -29.4375 106.078125 -22.34375 C 101.234375 -15.257812 94.925781 -9.609375 87.15625 -5.390625 C 79.394531 -1.171875 70.769531 0.9375 61.28125 0.9375 C 51.070312 0.9375 41.742188 -1.429688 33.296875 -6.171875 C 24.859375 -10.921875 18.160156 -17.515625 13.203125 -25.953125 C 8.253906 -34.390625 5.78125 -43.925781 5.78125 -54.5625 C 5.78125 -65.195312 8.253906 -74.734375 13.203125 -83.171875 C 18.160156 -91.617188 24.882812 -98.210938 33.375 -102.953125 C 41.875 -107.691406 51.175781 -110.0625 61.28125 -110.0625 C 72.851562 -110.0625 83.144531 -107.222656 92.15625 -101.546875 C 101.175781 -95.867188 107.71875 -87.816406 111.78125 -77.390625 Z M 90.359375 -77.390625 "/></g></g></g></svg>